<?xml version="1.0" encoding="utf-8"?>
<!-- Generator: Adobe Illustrator 27.5.0, SVG Export Plug-In . SVG Version: 6.00 Build 0)  -->
<svg version="1.1" xmlns="http://www.w3.org/2000/svg" xmlns:xlink="http://www.w3.org/1999/xlink" x="0px" y="0px"
	 viewBox="0 0 750 500" style="enable-background:new 0 0 750 500;" xml:space="preserve">
<g id="BACKGROUND">
</g>
<g id="OBJECTS">
	<g>
		<path style="fill:#B4EFED;" d="M521.798,120.269c-14.155-30.897-27.814-73.131-30.008-105.573l-16.51,35.153
			c-24.654-12.641-53.91-20.3-87.16-22.778c-119.694-8.917-174.129,63.486-176.389,66.572l30.186,22.088
			c0.431-0.588,44.205-58.755,143.422-51.359c22.077,1.646,41.846,5.862,59.065,12.566l-28.141,13.163
			C448.704,92.346,490.915,106.072,521.798,120.269z"/>
		<path style="fill:#B4EFED;" d="M211.732,158.97c14.155,30.898,27.813,73.132,30.008,105.573l16.51-35.152
			c24.654,12.64,53.91,20.299,87.16,22.777c119.693,8.916,174.129-63.485,176.389-66.572l-30.187-22.088
			c-0.43,0.588-44.205,58.755-143.422,51.359c-22.077-1.646-41.846-5.862-59.065-12.565l28.139-13.163
			C284.826,186.893,242.614,173.167,211.732,158.97z"/>
	</g>
	<g>
		<g>
			<path style="fill:#037A06;" d="M83.017,257.603c14.471-8.156,32.813-3.036,40.969,11.435c0,0,0.09,0.16,0.264,0.469
				c0.233,0.391,0.58,0.971,1.032,1.727c0.946,1.557,2.369,3.867,4.249,6.826c1.888,2.954,4.218,6.545,6.969,10.626
				c2.754,4.077,5.908,8.664,9.46,13.564c1.766,2.463,3.623,5.012,5.593,7.602c0.979,1.302,1.977,2.624,2.989,3.969
				c1.032,1.319,2.079,2.661,3.141,4.019c4.243,5.451,8.877,10.994,13.756,16.611c1.216,1.412,2.488,2.749,3.746,4.146
				c1.254,1.357,2.556,2.848,3.794,4.13c1.234,1.278,2.476,2.565,3.723,3.859l1.878,1.96l2.285,2.15
				c1.529,1.435,3.062,2.878,4.599,4.322l0.289,0.271l0.145,0.136c0.318,0.263-0.23-0.184-0.313-0.251l-0.002-0.001
				c-0.012-0.011-0.01-0.009,0.002,0.001l0.057,0.052l0.479,0.413l0.956,0.833l1.915,1.684c1.313,1.103,2.721,2.142,4.081,3.237
				c1.403,1.058,2.89,2.051,4.334,3.095c11.884,8.078,26.067,14.386,40.021,19.074c13.984,4.706,27.774,7.876,39.725,10.05
				c11.968,2.156,22.119,3.319,29.181,3.972c1.385,0.128,2.647,0.231,3.786,0.321c-0.631,10.017-1.775,20.08-3.044,30.157
				c-0.551,0.014-1.115,0.028-1.704,0.041c-7.808,0.166-18.907,0.157-32.273-0.711c-13.364-0.897-29.012-2.632-45.829-6.227
				c-16.789-3.621-34.85-9.073-52.379-18.177c-2.172-1.192-4.364-2.335-6.519-3.596c-2.14-1.315-4.299-2.579-6.412-3.966
				l-3.142-2.15l-1.566-1.08l-0.783-0.543l-0.098-0.067c0.047,0.044-0.782-0.636-0.468-0.376l-0.159-0.118l-0.316-0.236
				c-1.691-1.263-3.376-2.522-5.056-3.778l-2.513-1.876c-0.915-0.747-1.829-1.49-2.74-2.232c-1.824-1.497-3.638-2.984-5.442-4.464
				c-1.791-1.482-3.35-2.899-5.021-4.342c-1.63-1.44-3.296-2.849-4.863-4.291c-6.291-5.759-12.234-11.435-17.646-16.956
				c-1.355-1.382-2.694-2.743-4.011-4.085c-1.29-1.357-2.559-2.698-3.809-4.015c-2.512-2.627-4.88-5.204-7.133-7.693
				c-4.534-4.964-8.568-9.604-12.115-13.754c-3.544-4.151-6.578-7.833-9.064-10.897c-2.479-3.069-4.421-5.542-5.752-7.258
				c-0.677-0.885-1.196-1.564-1.547-2.022c-0.403-0.543-0.611-0.824-0.611-0.824l-0.597-0.803c-0.691-0.948-1.336-1.947-1.926-2.993
				C63.427,284.101,68.546,265.759,83.017,257.603z"/>
			<g>
				<path style="fill:#FFFFFF;" d="M186.55,353.875c0,0.001,0.75,0.529,1.833,1.372c1.083,0.842,2.506,1.988,3.892,3.179
					c1.477,1.049,2.914,2.147,3.986,2.988c1.07,0.844,1.765,1.443,1.765,1.443l0.016,0.013c0.099,0.085,0.11,0.234,0.025,0.333
					c-0.076,0.087-0.201,0.105-0.297,0.049c0,0-0.792-0.463-1.952-1.213c-1.158-0.752-2.694-1.777-4.191-2.854
					c-1.391-1.185-2.744-2.414-3.744-3.354c-1-0.938-1.638-1.599-1.638-1.598c-0.091-0.095-0.088-0.244,0.005-0.335
					C186.332,353.819,186.458,353.812,186.55,353.875z"/>
			</g>
		</g>
		<g>
			<path style="fill:#6B1B0B;" d="M377.897,420.055c-44.367,5.973-81.454-16.447-113.125-44.275
				c0.069,37.771,0.545,87.14,0.545,88.728c0,2.517,195.03,1.247,196.276,0c0.801-0.802,1.234-54.219,1.017-92.706
				c-8.625,7.81-17.72,15.258-27.714,22.254C415.897,407.055,398.897,417.055,377.897,420.055z"/>
			<path style="fill:#9B3D27;" d="M265.317,333.062c-0.476,0.477-0.588,19.386-0.545,42.718
				c31.671,27.828,68.757,50.248,113.125,44.275c21-3,38-13,57-26c9.994-6.996,19.089-14.443,27.714-22.254
				c-0.121-21.387-0.444-38.166-1.017-38.739C459.991,331.46,266.564,331.815,265.317,333.062z"/>
			<g>
				<path style="fill:#FFFFFF;" d="M268.392,335.32c0,0,6.225-0.151,15.563-0.377c2.335-0.043,4.864-0.089,7.539-0.139
					c2.676-0.012,5.499-0.024,8.418-0.037c5.839-0.027,12.068-0.057,18.296-0.087c6.226-0.028,12.45-0.057,18.286-0.084
					c2.917-0.037,5.741,0.026,8.412-0.092c2.672-0.09,5.198-0.174,7.531-0.252c9.333-0.26,15.555-0.433,15.555-0.433h0.012
					c0.13-0.004,0.238,0.099,0.242,0.229c0.004,0.129-0.097,0.236-0.225,0.242c0,0-6.224,0.286-15.559,0.716
					c-2.335,0.095-4.864,0.197-7.539,0.306c-2.676,0.138-5.498,0.094-8.417,0.151c-5.84,0.068-12.068,0.141-18.297,0.213
					c-6.225-0.013-12.451-0.025-18.287-0.037c-2.919-0.008-5.739-0.016-8.415-0.023c-2.675,0.03-5.205,0.058-7.54,0.084
					c-9.341,0.055-15.568,0.091-15.568,0.091c-0.13,0.002-0.237-0.103-0.239-0.232C268.161,335.429,268.264,335.324,268.392,335.32z
					"/>
			</g>
			<g>
				<path d="M274.03,342.314c0,0,2.063,1.124,5.675,3.091c1.806,0.983,3.998,2.178,6.513,3.547c2.519,1.362,5.353,2.915,8.418,4.655
					c6.144,3.458,13.312,7.492,20.991,11.814c7.685,4.309,15.882,8.903,24.079,13.499c4.112,2.27,8.225,4.542,12.271,6.777
					c4.033,2.265,8.067,4.369,11.953,6.439c3.901,2.042,7.622,4.115,11.24,5.903c3.606,1.813,7.016,3.526,10.163,5.108
					c1.573,0.79,3.082,1.547,4.517,2.268c1.451,0.687,2.827,1.338,4.12,1.95c2.587,1.225,4.842,2.293,6.699,3.172
					c3.715,1.759,5.838,2.765,5.838,2.765l0.008,0.004c0.138,0.064,0.196,0.229,0.132,0.367c-0.065,0.137-0.227,0.195-0.364,0.133
					c0,0-2.14-0.972-5.886-2.673c-1.873-0.851-4.148-1.884-6.757-3.069c-1.305-0.592-2.693-1.223-4.156-1.888
					c-1.452-0.69-2.957-1.458-4.54-2.235c-3.159-1.566-6.583-3.264-10.203-5.059c-3.633-1.772-7.367-3.825-11.284-5.849
					c-3.901-2.051-7.952-4.136-12-6.38c-4.062-2.215-8.19-4.466-12.318-6.716c-32.688-18.571-65.377-37.143-65.377-37.143
					c-0.133-0.075-0.18-0.243-0.105-0.376C273.732,342.29,273.898,342.243,274.03,342.314z"/>
			</g>
			<g>
				<path d="M376.234,379.832c0,0,0.961-0.719,2.642-1.979c0.841-0.629,1.861-1.394,3.032-2.271
					c1.156-0.895,2.514-1.838,4.011-2.848c1.489-1.019,3.104-2.122,4.811-3.29c1.721-1.146,3.561-2.307,5.463-3.517
					c1.897-1.218,3.866-2.458,5.898-3.67c2.023-1.224,4.08-2.467,6.136-3.71c4.16-2.402,8.308-4.827,12.236-7.025
					c3.915-2.223,7.605-4.23,10.756-5.974c6.326-3.44,10.543-5.734,10.543-5.734c0.134-0.073,0.302-0.024,0.375,0.109
					c0.071,0.131,0.024,0.296-0.104,0.371c0,0-4.149,2.415-10.374,6.036c-3.119,1.796-6.759,3.892-10.658,6.136
					c-3.914,2.22-8.041,4.664-12.181,7.087c-2.058,1.23-4.116,2.46-6.143,3.671c-2.034,1.197-4.007,2.423-5.904,3.626
					c-1.905,1.191-3.746,2.344-5.492,3.436c-1.719,1.13-3.344,2.199-4.844,3.186c-1.502,0.985-2.884,1.882-4.071,2.739
					c-1.198,0.839-2.243,1.57-3.103,2.173c-1.721,1.205-2.704,1.893-2.704,1.893c-0.125,0.088-0.297,0.058-0.385-0.067
					C376.088,380.089,376.116,379.921,376.234,379.832z"/>
			</g>
		</g>
		<g>
			<path style="fill:#E85F3A;" d="M68.097,209.76l4.293,42.13c24.377,6.965,39.998-3.283,39.998-3.283s-3.547-16.077-3.199-24.086
				c0.349-8.01,7.662-8.144,10.099-9.2c0.853-0.37,4.481-0.607,8.909-0.835c-23.034-4.057-44.562-15.745-65.215-27.899
				C66.976,194.1,68.097,209.76,68.097,209.76z"/>
			<path style="fill:#FC7857;" d="M148.192,202.447c-0.696-3.134-0.696-25.421-0.696-26.466L136.7,136.629
				c-0.697-1.393,1.393-6.965,1.393-8.705c0-1.741-5.92-25.77-6.3-30.256c-0.38-4.485-11.112-19.891-23.3-20.588
				c-12.188-0.696-47.361,2.786-67.211,39.003c-19.85,36.217,14.975,62.336,20.199,68.255c0.542,0.614,1.04,1.38,1.501,2.249
				c20.653,12.155,42.181,23.843,65.215,27.899c8.224-0.422,19.212-0.809,20.343-1.941
				C150.281,210.804,148.888,205.582,148.192,202.447z"/>
			<path style="fill:#E85F3A;" d="M137.059,172.334c-0.134,3.804,10.436,3.646,10.436,3.646c0-1.045,11.144-7.661,11.144-9.44
				c0-1.779-21.243-28.518-21.939-29.911c0,0,3.258,21.208,4.655,25.281C142.751,165.983,137.314,165.101,137.059,172.334z"/>
			<path style="fill:#E85F3A;" d="M118.987,169.78c0,8.2-6.646,14.847-14.848,14.847c-8.2,0-14.847-6.647-14.847-14.847
				c0-8.201,6.647-14.848,14.847-14.848C112.34,154.932,118.987,161.579,118.987,169.78z"/>
			<path style="fill:#6B1B0B;" d="M17.95,135.237c1.499-11.751,16.715-19.154,19.153-24.378c2.438-5.223,8.358-12.537,8.01-17.412
				c-0.348-4.875,8.009-25.421,11.84-26.466c3.831-1.045,33.779,6.617,38.655,5.224c4.875-1.394,9.751-1.741,11.144-8.009
				c1.393-6.269,2.088-11.84,4.526-12.189c2.438-0.348,18.806,6.965,21.591,14.627c2.786,7.662,0,13.232,0,13.232
				s3.831-8.01,5.92-8.357c2.09-0.348,1.741,6.965,1.741,6.965s7.661-3.135,8.706-6.965c1.045-3.83,3.831-10.098,5.572-8.706
				c1.742,1.393,11.145,19.849,6.269,26.466c-4.876,6.616-20.404,15.399-25.977,13.658c-5.572-1.741-13.81-8.776-16.248-7.731
				c-2.438,1.045-22.616,12.648-25.054,12.3c-2.438-0.348-12.817-5.598-13.514-2.812c-0.697,2.786,12.885,13.141,13.581,18.712
				c0.697,5.571-0.348,53.63-0.696,59.549c-0.349,5.919-24.029,35.868-26.119,32.038c-2.089-3.83-4.527-19.85-9.054-25.074
				C53.47,184.687,17.478,138.935,17.95,135.237z"/>
			<path style="fill:#6B1B0B;" d="M109.778,151.193l9.762-4.226c0,0,0.584,9.761,3.206,9.615c2.623-0.145,2.477-12.529,2.477-12.529
				s3.643-0.437,4.372,0c0.728,0.437,1.867,0.46,1.867,0.46s-2.451-2.645-2.451-3.52c0-0.874-0.145-3.498-0.145-3.498
				s-6.265,1.457-12.094,6.557C110.944,149.152,109.778,151.193,109.778,151.193z"/>
			<path style="fill:#6B1B0B;" d="M104.139,139.067c0,0,15.323-9.054,18.979-9.229c3.657-0.174,10.447,1.044,10.447,1.044
				s-4.701-7.835-9.751-7.487C118.766,123.745,104.139,139.067,104.139,139.067z"/>
			<path style="fill:#E85F3A;" d="M94.831,160.493c0,0-0.442-9.585-3.571-13.241c-3.13-3.657-14.97-10.099-17.582,8.357
				c-2.612,18.457,17.51,25.271,19.502,25.087C95.171,180.512,94.831,160.493,94.831,160.493z"/>
			<g>
				<path d="M81.435,145.748l1.129,0.317c0.375,0.128,0.755,0.296,1.134,0.445c0.376,0.16,0.721,0.366,1.084,0.549
					c0.358,0.191,0.681,0.441,1.021,0.664c0.331,0.235,0.631,0.512,0.948,0.769c0.302,0.272,0.579,0.571,0.869,0.857
					c0.27,0.304,0.524,0.622,0.786,0.934c0.237,0.33,0.469,0.664,0.692,1.003l0.6,1.057l0.522,1.093
					c0.318,0.741,0.595,1.496,0.835,2.261c0.233,0.767,0.432,1.542,0.585,2.325c0.15,0.783,0.273,1.569,0.375,2.356
					c0.04,0.306-0.155,0.589-0.444,0.667l-0.035,0.009l-0.689,0.189c-0.237,0.047-0.438,0.174-0.659,0.256
					c-0.225,0.079-0.42,0.207-0.617,0.33c-0.208,0.11-0.391,0.249-0.56,0.406c-0.186,0.14-0.347,0.3-0.489,0.476
					c-0.166,0.161-0.286,0.349-0.4,0.543c-0.139,0.183-0.198,0.396-0.286,0.6c-0.097,0.204-0.093,0.426-0.152,0.64
					c0,0.214-0.017,0.436,0.017,0.649c0.061,0.206,0.066,0.434,0.184,0.624l0.137,0.3c0.056,0.095,0.134,0.178,0.196,0.271
					c0.116,0.194,0.283,0.351,0.46,0.502c0.158,0.171,0.363,0.291,0.568,0.414c0.194,0.139,0.413,0.242,0.644,0.326
					c0.227,0.09,0.446,0.2,0.692,0.25l0.724,0.193l0.038,0.01c0.16,0.042,0.254,0.206,0.212,0.366
					c-0.04,0.148-0.187,0.241-0.335,0.218l-0.802-0.127c-0.272-0.025-0.53-0.13-0.793-0.212c-0.266-0.076-0.525-0.175-0.771-0.319
					c-0.252-0.127-0.505-0.254-0.724-0.449c-0.233-0.171-0.457-0.355-0.636-0.596c-0.209-0.213-0.358-0.471-0.487-0.745
					c-0.162-0.258-0.205-0.563-0.293-0.853c-0.061-0.294-0.059-0.602-0.066-0.902c0.053-0.293,0.055-0.606,0.163-0.883
					c0.099-0.28,0.18-0.573,0.342-0.821c0.138-0.263,0.29-0.516,0.487-0.733l0.278-0.34l0.326-0.288
					c0.213-0.2,0.441-0.377,0.69-0.519c0.242-0.156,0.483-0.313,0.749-0.415c0.262-0.105,0.513-0.256,0.787-0.319l0.813-0.234
					l-0.479,0.676c-0.11-0.76-0.24-1.514-0.396-2.263c-0.169-0.745-0.344-1.486-0.552-2.217c-0.216-0.729-0.466-1.443-0.753-2.143
					l-0.471-1.028l-0.54-0.988l-0.607-0.945l-0.68-0.892c-0.254-0.272-0.494-0.561-0.759-0.824c-0.28-0.247-0.543-0.516-0.837-0.747
					c-0.304-0.218-0.59-0.462-0.905-0.667c-0.32-0.192-0.632-0.415-0.962-0.586c-0.336-0.161-0.658-0.34-1.01-0.493l-1.091-0.43
					c-0.154-0.061-0.23-0.235-0.169-0.39C81.131,145.782,81.289,145.707,81.435,145.748z"/>
			</g>
			<g>
				<path d="M115.16,185.196c0,0,1.699,0.399,4.248,0.999c0.636,0.148,1.325,0.31,2.054,0.48c0.728,0.177,1.504,0.316,2.298,0.499
					c0.797,0.17,1.618,0.367,2.462,0.502c0.841,0.15,1.696,0.303,2.551,0.455c0.859,0.118,1.718,0.237,2.563,0.353
					c0.844,0.14,1.682,0.176,2.492,0.239c0.81,0.038,1.592,0.166,2.336,0.151c0.744,0.006,1.448,0.013,2.097,0.019
					c0.651,0.022,1.246-0.006,1.771-0.051c0.528-0.035,0.987-0.065,1.366-0.09c0.759-0.05,1.192-0.078,1.192-0.078l0.019-0.001
					c0.107-0.007,0.2,0.074,0.206,0.181c0.007,0.103-0.069,0.192-0.169,0.206c0,0-0.435,0.055-1.197,0.151
					c-0.382,0.048-0.845,0.107-1.377,0.174c-0.267,0.034-0.55,0.069-0.848,0.107c-0.299,0.027-0.616,0.021-0.945,0.034
					c-0.66,0.017-1.374,0.035-2.13,0.054c-0.757,0.038-1.551-0.053-2.374-0.091c-0.823-0.055-1.676-0.083-2.532-0.214
					c-0.858-0.108-1.73-0.218-2.602-0.329c-0.862-0.163-1.724-0.326-2.573-0.486c-0.851-0.147-1.675-0.353-2.476-0.535
					c-1.606-0.349-3.078-0.774-4.346-1.114c-1.271-0.332-2.304-0.681-3.039-0.891c-0.732-0.221-1.15-0.347-1.15-0.347
					c-0.103-0.031-0.162-0.14-0.13-0.242C114.958,185.23,115.061,185.173,115.16,185.196z"/>
			</g>
			<g>
				<path d="M114.519,140.158c0,0,0.418-0.454,1.081-1.094c0.66-0.644,1.57-1.466,2.498-2.269c0.516-0.348,1.032-0.695,1.515-1.021
					c0.484-0.325,0.953-0.604,1.344-0.854c0.793-0.487,1.336-0.781,1.336-0.781c0.094-0.051,0.212-0.016,0.264,0.079
					c0.044,0.081,0.024,0.18-0.043,0.239l-0.016,0.014c0,0-0.464,0.407-1.182,0.97c-0.364,0.275-0.777,0.609-1.237,0.941
					c-0.461,0.331-0.952,0.684-1.443,1.037c-0.472,0.392-0.943,0.783-1.386,1.15c-0.439,0.371-0.874,0.689-1.234,0.976
					c-0.731,0.561-1.243,0.907-1.243,0.908c-0.089,0.061-0.211,0.038-0.272-0.051C114.449,140.325,114.459,140.224,114.519,140.158z
					"/>
			</g>
			<g>
				<path d="M52.363,107.486c0,0,1.227-0.171,3.072-0.375c1.845-0.21,4.309-0.433,6.774-0.647c1.239-0.046,2.479-0.092,3.641-0.135
					c1.162-0.028,2.247-0.054,3.176-0.076c1.859-0.031,3.098-0.017,3.098-0.018c0.107,0.001,0.194,0.089,0.192,0.197
					c-0.001,0.101-0.078,0.182-0.175,0.192l-0.009,0.001c0,0-1.233,0.124-3.081,0.26c-0.924,0.061-2.002,0.132-3.157,0.209
					c-1.155,0.061-2.388,0.126-3.62,0.191c-2.467,0.188-4.935,0.369-6.789,0.46c-1.854,0.099-3.092,0.128-3.092,0.128
					c-0.108,0.003-0.197-0.083-0.2-0.19C52.192,107.584,52.266,107.499,52.363,107.486z"/>
			</g>
			<g>
				<path d="M57.587,93.268c0,0,0.195,0.627,0.434,1.578c0.246,0.949,0.517,2.227,0.78,3.505c0.115,0.643,0.231,1.285,0.339,1.887
					c0.108,0.603,0.179,1.17,0.255,1.654c0.136,0.971,0.193,1.625,0.193,1.625c0.01,0.107-0.07,0.203-0.178,0.212
					c-0.094,0.008-0.178-0.051-0.204-0.138c0,0-0.193-0.627-0.432-1.578c-0.112-0.477-0.259-1.03-0.386-1.629
					c-0.126-0.599-0.261-1.238-0.396-1.877c-0.237-1.284-0.466-2.569-0.595-3.541c-0.136-0.971-0.191-1.625-0.191-1.625
					c-0.009-0.107,0.071-0.203,0.178-0.211C57.478,93.123,57.561,93.182,57.587,93.268z"/>
			</g>
			<g>
				<path d="M67.841,96.055c0,0,0.071,0.391,0.123,0.977c0.06,0.586,0.081,1.367,0.094,2.148c-0.01,0.391-0.02,0.781-0.029,1.147
					c-0.01,0.366-0.049,0.708-0.067,1.001c-0.053,0.586-0.122,0.977-0.122,0.977c-0.019,0.107-0.122,0.179-0.229,0.16
					c-0.084-0.015-0.146-0.081-0.161-0.16c0,0-0.069-0.391-0.122-0.977c-0.018-0.293-0.057-0.635-0.067-1.001
					c-0.009-0.366-0.019-0.757-0.029-1.147c0.013-0.781,0.034-1.563,0.094-2.148c0.052-0.586,0.123-0.977,0.123-0.977
					c0.02-0.107,0.123-0.179,0.23-0.159C67.765,95.911,67.827,95.977,67.841,96.055z"/>
			</g>
			<g>
				<path d="M46.012,112.962c0,0-0.333,0.334-0.864,0.791c-0.55,0.447-1.202,1.077-1.895,1.67c-0.661,0.635-1.36,1.235-1.846,1.729
					c-0.5,0.479-0.863,0.778-0.863,0.778l-0.01,0.009c-0.083,0.069-0.207,0.057-0.276-0.026c-0.056-0.068-0.059-0.163-0.012-0.233
					c0,0,0.26-0.394,0.693-0.955c0.222-0.275,0.464-0.615,0.783-0.922c0.312-0.316,0.644-0.652,0.976-0.989
					c0.369-0.301,0.738-0.602,1.083-0.884c0.34-0.295,0.695-0.496,0.987-0.688c0.593-0.373,1.01-0.593,1.01-0.593
					c0.096-0.051,0.215-0.014,0.266,0.083C46.088,112.809,46.071,112.902,46.012,112.962z"/>
			</g>
			<g>
				<path d="M43.67,106.862c0,0,0.242-0.042,0.599-0.052c0.357-0.017,0.827,0.021,1.295,0.062c0.227,0.012,0.453,0.024,0.666,0.036
					c0.212,0.012,0.411,0.054,0.583,0.074c0.342,0.058,0.577,0.13,0.577,0.13l0.02,0.006c0.105,0.033,0.165,0.144,0.132,0.25
					c-0.021,0.067-0.074,0.116-0.137,0.133c0,0-0.236,0.066-0.599,0.114c-0.181,0.016-0.394,0.052-0.623,0.059
					c-0.228,0.005-0.473,0.011-0.716,0.017c-0.467-0.067-0.931-0.146-1.274-0.248c-0.344-0.095-0.569-0.193-0.569-0.193
					c-0.103-0.045-0.15-0.165-0.104-0.268C43.547,106.916,43.605,106.874,43.67,106.862z"/>
			</g>
			<g>
				<path style="fill:#FFFFFF;" d="M59.163,68.82c0,0,0.335,0.005,0.922,0.014c0.293,0.008,0.649,0.017,1.057,0.028
					c0.408,0.002,0.868,0.02,1.375,0.094c0.507,0.059,1.056,0.122,1.636,0.189c0.586,0.054,1.178,0.192,1.802,0.307
					c1.251,0.217,2.553,0.569,3.864,0.887c1.288,0.393,2.583,0.766,3.774,1.17c1.199,0.388,2.296,0.802,3.243,1.138
					c1.888,0.688,3.132,1.185,3.132,1.185c0.122,0.047,0.182,0.184,0.135,0.306c-0.043,0.112-0.165,0.171-0.279,0.143
					c0-0.001-1.3-0.338-3.228-0.905c-0.961-0.287-2.082-0.622-3.283-0.98c-1.193-0.382-2.479-0.728-3.759-1.093
					c-0.643-0.169-1.285-0.338-1.917-0.505c-0.63-0.181-1.26-0.3-1.868-0.433c-0.609-0.115-1.193-0.288-1.751-0.371
					c-0.559-0.096-1.086-0.187-1.574-0.27c-0.97-0.185-1.823-0.232-2.399-0.315c-0.582-0.074-0.914-0.117-0.914-0.117
					c-0.129-0.017-0.221-0.135-0.205-0.264C58.94,68.906,59.044,68.818,59.163,68.82z"/>
			</g>
			<g>
				<path style="fill:#FFFFFF;" d="M112.016,52.852c0,0,0.747,0.338,1.835,0.901c1.09,0.556,2.518,1.36,3.92,2.203
					c0.688,0.448,1.375,0.897,2.01,1.332c0.645,0.417,1.2,0.882,1.685,1.262c0.962,0.773,1.575,1.319,1.575,1.319
					c0.097,0.087,0.106,0.236,0.019,0.334c-0.076,0.085-0.199,0.102-0.294,0.047l-0.014-0.008c0,0-0.709-0.409-1.731-1.067
					c-0.997-0.69-2.421-1.479-3.774-2.369c-1.397-0.831-2.757-1.72-3.786-2.388c-1.024-0.673-1.684-1.159-1.684-1.159
					c-0.105-0.078-0.128-0.226-0.05-0.332C111.794,52.835,111.916,52.807,112.016,52.852z"/>
			</g>
			<g>
				<path style="fill:#FFFFFF;" d="M152.872,66.624c-0.001,0-0.038,0.413-0.156,1.014c-0.118,0.601-0.305,1.392-0.548,2.167
					c-0.192,0.778-0.444,1.54-0.652,2.11c-0.209,0.569-0.39,0.942-0.39,0.942l-0.005,0.011c-0.058,0.119-0.201,0.169-0.32,0.111
					c-0.088-0.043-0.139-0.133-0.135-0.226c0,0,0.018-0.414,0.106-1.025c0.091-0.61,0.235-1.423,0.44-2.218
					c0.235-0.776,0.526-1.536,0.766-2.099c0.24-0.563,0.442-0.925,0.442-0.925c0.064-0.116,0.211-0.158,0.328-0.094
					C152.835,66.44,152.88,66.533,152.872,66.624z"/>
			</g>
			<g>
				<path style="fill:#FFFFFF;" d="M110.377,57.358c0,0,0.002,0.373-0.058,0.917c-0.091,0.554-0.086,1.241-0.192,1.925
					c-0.015,0.701-0.139,1.401-0.145,1.935c-0.036,0.533-0.102,0.898-0.102,0.898l-0.003,0.021c-0.024,0.13-0.147,0.217-0.277,0.193
					c-0.093-0.016-0.164-0.084-0.188-0.17c0.001,0-0.102-0.358-0.195-0.913c-0.038-0.277-0.105-0.602-0.098-0.952
					c-0.008-0.351,0.002-0.725,0.012-1.099c0.053-0.376,0.108-0.753,0.178-1.101c0.052-0.357,0.175-0.65,0.259-0.91
					c0.184-0.516,0.349-0.85,0.349-0.85c0.06-0.12,0.205-0.169,0.325-0.11C110.326,57.184,110.376,57.27,110.377,57.358z"/>
			</g>
			<g>
				<path style="fill:#FFFFFF;" d="M138.564,73.471c0,0-0.084,0.207-0.257,0.471c-0.208,0.266-0.332,0.599-0.561,0.879
					c-0.167,0.337-0.427,0.628-0.563,0.889c-0.16,0.248-0.31,0.411-0.31,0.411l-0.024,0.026c-0.093,0.1-0.249,0.106-0.349,0.014
					c-0.051-0.047-0.078-0.11-0.08-0.174c0,0-0.007-0.224,0.048-0.556c0.036-0.162,0.057-0.364,0.149-0.552
					c0.079-0.194,0.181-0.394,0.284-0.593c0.14-0.187,0.283-0.372,0.431-0.531c0.14-0.177,0.301-0.263,0.427-0.356
					c0.263-0.175,0.469-0.261,0.469-0.261c0.13-0.054,0.28,0.007,0.334,0.137C138.59,73.341,138.588,73.411,138.564,73.471z"/>
			</g>
			<g>
				<path style="fill:#FFFFFF;" d="M138.585,140.913c0,0,1.084,1.308,2.658,3.308c0.779,1.007,1.709,2.165,2.667,3.435
					c0.96,1.268,1.985,2.621,3.01,3.973c1.006,1.366,2.013,2.733,2.956,4.014c0.929,1.292,1.795,2.499,2.538,3.532
					c1.466,2.083,2.422,3.487,2.422,3.487c0.075,0.107,0.049,0.254-0.058,0.329c-0.101,0.071-0.24,0.048-0.318-0.043
					c0,0-1.076-1.314-2.656-3.31c-0.781-1.005-1.691-2.178-2.667-3.435c-0.962-1.268-1.986-2.62-3.011-3.972
					c-1.007-1.366-2.013-2.733-2.957-4.013c-0.946-1.279-1.794-2.5-2.539-3.532c-1.473-2.078-2.42-3.489-2.42-3.489
					c-0.074-0.107-0.047-0.254,0.06-0.329C138.369,140.8,138.507,140.822,138.585,140.913z"/>
			</g>
		</g>
		<g>
			<path style="fill:#009A09;" d="M82.916,439.01c3.214,6.768,5.979,12.622,8.006,17.096c5.574,12.296,9.431,28.735,12.012,43.395
				h82.774c-1.354-8.074-2.694-16.429-3.745-23.747C148.837,463.878,116.078,451.169,82.916,439.01z"/>
			<path style="fill:#00BA00;" d="M180.689,466.162c-2.671-22.569,1.069-93.381,1.069-97.288c0-3.907,5.343-24.946,4.809-36.884
				c-0.535-11.939-65.723-92.791-68.394-94.394c-2.672-1.603-14.427,3.74-22.442,5.191c-8.015,1.452-30.083-2.138-30.457,0
				c-0.535,3.055-29.388,56.792-29.388,79.233c0,18.893,29.916,80.954,47.029,116.99c33.162,12.159,65.921,24.868,99.048,36.743
				C181.464,472.275,181.029,469.029,180.689,466.162z"/>
			<path style="fill:#72EEEF;" d="M129.572,311.689c0,0,31.013-10.33,31.431-9.617c0.419,0.713,4.19,6.411,4.19,6.411
				s-31.85,11.044-31.85,9.976C133.344,317.39,129.572,311.689,129.572,311.689z"/>
			<g>
				<path style="fill:#FFFFFF;" d="M119.574,245.4c0,0,1.54,1.651,3.815,4.158c2.261,2.516,5.277,5.87,8.292,9.224
					c1.529,1.654,3.058,3.309,4.491,4.86c0.729,0.764,1.382,1.553,2.07,2.232c0.678,0.69,1.318,1.343,1.91,1.945
					c2.354,2.424,3.907,4.063,3.906,4.063l0.008,0.009c0.09,0.095,0.085,0.243-0.009,0.333c-0.09,0.086-0.231,0.085-0.322,0.002
					c0,0-1.66-1.531-4.125-3.863c-0.613-0.586-1.277-1.221-1.98-1.893c-0.711-0.664-1.399-1.423-2.131-2.189
					c-1.455-1.541-3.006-3.186-4.558-4.829c-1.491-1.697-2.981-3.395-4.379-4.985c-1.407-1.584-2.66-3.11-3.754-4.402
					c-2.168-2.601-3.59-4.355-3.59-4.355c-0.082-0.101-0.067-0.25,0.034-0.332C119.349,245.3,119.49,245.311,119.574,245.4z"/>
			</g>
			<g>
				<path d="M70.415,248.861c0,0,0.686,0.054,1.885,0.147c1.199,0.085,2.915,0.248,4.969,0.368c1.027,0.062,2.139,0.128,3.315,0.199
					c1.175,0.092,2.419,0.08,3.703,0.132c1.285,0.024,2.612,0.114,3.96,0.058c1.348-0.026,2.716-0.052,4.085-0.078
					c1.365-0.097,2.729-0.194,4.073-0.289c1.349-0.056,2.654-0.297,3.925-0.464c1.265-0.207,2.51-0.283,3.652-0.571
					c1.151-0.243,2.239-0.473,3.243-0.686c1.012-0.186,1.913-0.457,2.714-0.69c0.803-0.23,1.502-0.431,2.079-0.596
					c1.154-0.331,1.813-0.52,1.813-0.52l0.015-0.004c0.104-0.03,0.211,0.03,0.241,0.133c0.029,0.101-0.028,0.206-0.126,0.238
					c0,0-0.655,0.215-1.801,0.592c-0.574,0.189-1.27,0.417-2.069,0.68c-0.798,0.267-1.697,0.579-2.714,0.782
					c-1.009,0.236-2.102,0.492-3.258,0.762c-1.149,0.314-2.4,0.429-3.678,0.639c-1.283,0.178-2.602,0.43-3.961,0.497
					c-1.356,0.105-2.733,0.213-4.111,0.321c-1.38,0.018-2.761,0.035-4.12,0.052c-1.36,0.047-2.694-0.053-3.986-0.087
					c-1.292-0.054-2.542-0.073-3.722-0.192c-1.181-0.097-2.297-0.189-3.328-0.273c-2.062-0.156-3.76-0.419-4.958-0.54
					c-1.195-0.141-1.878-0.221-1.878-0.221c-0.107-0.012-0.184-0.109-0.171-0.216C70.219,248.929,70.312,248.854,70.415,248.861z"/>
			</g>
			<g>
				<g>
					<path d="M103.55,380.769l1.145,2.77c0.042,0.1-0.006,0.214-0.106,0.255c-0.1,0.042-0.214-0.006-0.255-0.105l-0.001-0.002
						l-1.11-2.784c-0.036-0.091,0.008-0.193,0.099-0.229C103.411,380.636,103.513,380.679,103.55,380.769z"/>
					<path d="M107.087,389.352l2.382,5.816c0.058,0.141-0.01,0.301-0.149,0.357c-0.14,0.058-0.3-0.01-0.357-0.149
						c-0.001-0.001-0.001-0.003-0.001-0.003l-2.31-5.847c-0.048-0.12,0.012-0.257,0.132-0.304
						C106.903,389.175,107.038,389.233,107.087,389.352z"/>
					<path d="M111.821,401l2.341,5.84c0.062,0.154-0.013,0.331-0.168,0.393c-0.155,0.063-0.331-0.013-0.393-0.168l0-0.001
						l-2.316-5.85c-0.059-0.147,0.014-0.315,0.162-0.374C111.595,400.782,111.762,400.853,111.821,401z"/>
					<path d="M116.488,412.672l2.318,5.849c0.067,0.169-0.016,0.36-0.185,0.427c-0.169,0.067-0.361-0.016-0.428-0.185l-0.001-0.001
						l-2.293-5.858c-0.063-0.162,0.017-0.345,0.179-0.409C116.242,412.431,116.425,412.51,116.488,412.672z"/>
					<path d="M121.11,424.376l2.285,5.856c0.071,0.184-0.019,0.391-0.203,0.462c-0.183,0.071-0.39-0.02-0.461-0.202l-0.001-0.002
						l-2.26-5.867c-0.068-0.177,0.02-0.375,0.197-0.442C120.845,424.113,121.043,424.2,121.11,424.376z"/>
					<path d="M125.66,436.103l2.219,5.885c0.071,0.19-0.024,0.401-0.214,0.473c-0.189,0.072-0.401-0.023-0.473-0.213l-2.224-5.884
						c-0.072-0.191,0.024-0.404,0.215-0.477C125.374,435.815,125.587,435.912,125.66,436.103L125.66,436.103z"/>
					<path d="M130.047,447.897l2.094,5.93c0.063,0.178-0.03,0.372-0.208,0.435c-0.177,0.063-0.372-0.029-0.435-0.207l-2.119-5.921
						c-0.066-0.184,0.03-0.386,0.214-0.452c0.184-0.066,0.386,0.03,0.452,0.214L130.047,447.897z"/>
					<path d="M134.077,459.846c0,0,0.096,0.381,0.241,0.952c0.072,0.285,0.156,0.619,0.247,0.976
						c0.049,0.175,0.093,0.394,0.124,0.57c0.036,0.19,0.072,0.383,0.109,0.576c0.292,1.544,0.583,3.089,0.583,3.089
						c0.032,0.17-0.079,0.335-0.249,0.367c-0.17,0.032-0.335-0.078-0.368-0.249c0,0-0.298-1.543-0.596-3.086
						c-0.038-0.192-0.075-0.386-0.111-0.575c-0.038-0.204-0.069-0.358-0.12-0.539c-0.092-0.357-0.177-0.69-0.251-0.975
						c-0.146-0.571-0.245-0.951-0.245-0.951c-0.045-0.176,0.061-0.353,0.235-0.399c0.175-0.045,0.354,0.06,0.398,0.236l0.001,0.001
						L134.077,459.846z"/>
					<path d="M136.485,472.201l1.068,6.197c0.027,0.156-0.078,0.306-0.234,0.332c-0.156,0.027-0.305-0.076-0.332-0.233l-1.095-6.192
						c-0.029-0.164,0.08-0.32,0.244-0.349c0.164-0.029,0.32,0.08,0.349,0.243V472.201z"/>
					<path d="M138.599,484.599l1.008,6.206c0.02,0.128-0.066,0.247-0.193,0.269c-0.126,0.021-0.245-0.065-0.267-0.19l-1.083-6.193
						c-0.026-0.148,0.073-0.289,0.221-0.315c0.148-0.026,0.289,0.073,0.314,0.221L138.599,484.599z"/>
					<path d="M140.601,497.011l0.47,2.961c0.016,0.096-0.05,0.186-0.147,0.202c-0.096,0.015-0.186-0.05-0.202-0.145l-0.506-2.954
						c-0.018-0.106,0.053-0.207,0.16-0.226c0.106-0.018,0.207,0.053,0.225,0.159L140.601,497.011z"/>
				</g>
			</g>
		</g>
		<g>
			<path style="fill:#E85F3A;" d="M297.841,428.827l-0.747,24.768c0,0,8.669,2.133,21.622,3.056
				c-2.141-13.548-4.681-26.92-6.308-40.445C304.744,423.595,297.841,428.827,297.841,428.827z"/>
			<path style="fill:#FC7857;" d="M375.103,400.453c-0.436-1.468-9.138,5.875-21.22,12.1c-12.08,6.228-26.8,6.67-26.8,6.67
				s9.486-9.973,14.306-14.861c0.76-0.77-6.104-13.642-7.027-13.858c-0.925-0.217-7.153,10.023-15.946,19.573
				c-1.983,2.153-4.02,4.212-6.006,6.128c1.627,13.525,4.168,26.898,6.308,40.445c5.16,0.368,10.998,0.544,17.241,0.316
				c21.916-0.801,35.099-8.057,38.005-9.226C376.867,446.571,375.538,401.918,375.103,400.453z"/>
			<path style="fill:#009A09;" d="M68.255,285.522c14.471-8.156,32.813-3.036,40.969,11.435c0,0,0.09,0.16,0.264,0.469
				c0.233,0.391,0.58,0.971,1.032,1.728c0.946,1.557,2.369,3.867,4.249,6.826c1.888,2.954,4.218,6.544,6.969,10.626
				c2.754,4.077,5.908,8.664,9.46,13.564c1.766,2.463,3.623,5.012,5.593,7.6c0.98,1.303,1.977,2.625,2.989,3.969
				c1.031,1.32,2.079,2.661,3.141,4.02c4.243,5.45,8.877,10.994,13.756,16.61c1.216,1.412,2.488,2.749,3.746,4.146
				c1.254,1.358,2.556,2.849,3.794,4.131c1.234,1.278,2.476,2.565,3.723,3.859l1.878,1.96l2.285,2.149
				c1.529,1.435,3.062,2.879,4.599,4.323l0.288,0.271l0.145,0.136c0.317,0.264-0.231-0.184-0.313-0.25l-0.002-0.001
				c-0.012-0.011-0.01-0.01,0.002,0.001l0.058,0.051l0.479,0.413l0.956,0.833l1.915,1.685c1.313,1.102,2.721,2.143,4.08,3.237
				c1.402,1.058,2.89,2.051,4.334,3.095c11.884,8.078,26.067,14.386,40.021,19.073c13.984,4.707,27.774,7.877,39.725,10.051
				c11.968,2.155,22.119,3.319,29.181,3.972c1.385,0.127,2.646,0.232,3.785,0.321c-0.631,10.017-1.775,20.08-3.042,30.157
				c-0.552,0.014-1.115,0.028-1.705,0.041c-7.808,0.166-18.907,0.157-32.273-0.711c-13.364-0.897-29.012-2.632-45.829-6.228
				c-16.788-3.62-34.85-9.073-52.38-18.176c-2.172-1.192-4.363-2.335-6.518-3.596c-2.14-1.315-4.299-2.58-6.412-3.966l-3.142-2.15
				l-1.566-1.081l-0.783-0.542l-0.098-0.068c0.047,0.044-0.782-0.636-0.468-0.375l-0.159-0.118l-0.316-0.237
				c-1.691-1.263-3.376-2.522-5.056-3.777l-2.513-1.877c-0.915-0.746-1.829-1.49-2.74-2.232c-1.824-1.496-3.638-2.983-5.442-4.463
				c-1.792-1.482-3.351-2.899-5.021-4.342c-1.63-1.44-3.296-2.849-4.863-4.291c-6.291-5.759-12.234-11.435-17.646-16.957
				c-1.356-1.382-2.694-2.742-4.011-4.084c-1.29-1.358-2.559-2.698-3.809-4.015c-2.512-2.627-4.88-5.204-7.134-7.694
				c-4.533-4.963-8.567-9.603-12.115-13.753c-3.543-4.152-6.577-7.834-9.063-10.898c-2.479-3.069-4.421-5.542-5.752-7.258
				c-0.677-0.885-1.196-1.565-1.547-2.023c-0.402-0.544-0.611-0.824-0.611-0.824l-0.597-0.803c-0.691-0.948-1.336-1.947-1.926-2.993
				C48.666,312.02,53.785,293.677,68.255,285.522z"/>
			<g>
				<path style="fill:#FFFFFF;" d="M175.031,386.861c0,0,1.952,1.28,4.881,3.2c1.451,0.978,3.157,2.1,4.983,3.296
					c0.912,0.6,1.846,1.234,2.825,1.826c0.972,0.603,1.96,1.218,2.948,1.831c1.005,0.581,2.01,1.162,3,1.734
					c0.977,0.596,1.992,1.079,2.96,1.572c0.98,0.468,1.885,1.018,2.807,1.394c0.915,0.396,1.779,0.771,2.577,1.115
					c0.4,0.172,0.783,0.337,1.147,0.493c0.374,0.131,0.729,0.255,1.062,0.372c0.667,0.233,1.249,0.437,1.729,0.604
					c0.96,0.336,1.509,0.528,1.509,0.528l0.021,0.007c0.123,0.043,0.187,0.178,0.145,0.3c-0.042,0.118-0.169,0.183-0.288,0.148
					c0,0-0.564-0.163-1.548-0.448c-0.494-0.143-1.093-0.316-1.78-0.516c-0.344-0.1-0.711-0.206-1.097-0.318
					c-0.379-0.13-0.767-0.299-1.178-0.457c-0.819-0.325-1.706-0.678-2.645-1.05c-0.947-0.357-1.881-0.87-2.875-1.343
					c-0.986-0.489-2.019-0.971-3.012-1.561c-1.005-0.568-2.027-1.145-3.048-1.722c-1.976-1.258-3.973-2.486-5.773-3.736
					c-1.828-1.215-3.476-2.424-4.905-3.436c-1.43-1.013-2.591-1.896-3.418-2.495c-0.823-0.605-1.294-0.951-1.294-0.951
					c-0.105-0.077-0.128-0.225-0.051-0.33C174.785,386.818,174.926,386.793,175.031,386.861z"/>
			</g>
			<g>
				<path d="M59.611,325.381c0,0,2.552,3.038,6.381,7.596c1.903,2.285,4.123,4.952,6.502,7.809c1.19,1.426,2.406,2.913,3.692,4.378
					c1.274,1.476,2.568,2.975,3.862,4.474c1.325,1.471,2.649,2.94,3.953,4.388c1.282,1.47,2.64,2.822,3.928,4.155
					c1.312,1.309,2.494,2.665,3.743,3.817c1.231,1.171,2.396,2.278,3.47,3.301c0.539,0.511,1.055,1,1.545,1.465
					c0.512,0.441,0.997,0.86,1.453,1.254c0.913,0.788,1.708,1.475,2.363,2.04c1.312,1.132,2.061,1.779,2.061,1.779l0.013,0.012
					c0.116,0.1,0.128,0.273,0.029,0.389c-0.097,0.112-0.266,0.127-0.381,0.035c0,0-0.776-0.621-2.135-1.707
					c-0.68-0.544-1.505-1.204-2.452-1.961c-0.474-0.379-0.978-0.782-1.509-1.207c-0.518-0.441-1.035-0.935-1.59-1.434
					c-1.102-1.006-2.297-2.095-3.562-3.247c-1.28-1.137-2.506-2.46-3.827-3.776c-1.305-1.333-2.681-2.684-3.979-4.15
					c-1.32-1.445-2.661-2.913-4.003-4.381c-1.289-1.513-2.578-3.024-3.847-4.514c-1.281-1.479-2.487-2.977-3.67-4.415
					c-2.376-2.867-4.509-5.607-6.363-7.936c-3.665-4.689-6.109-7.816-6.109-7.816c-0.094-0.12-0.073-0.293,0.047-0.388
					C59.346,325.25,59.516,325.268,59.611,325.381z"/>
			</g>
			<g>
				<path d="M353.8,423.296c0,0,1.239-0.568,3.125-1.349c0.473-0.193,0.984-0.402,1.525-0.623c0.548-0.21,1.082-0.505,1.665-0.751
					c1.151-0.519,2.38-1.072,3.608-1.626c1.202-0.612,2.404-1.225,3.531-1.8c0.554-0.304,1.131-0.526,1.623-0.833
					c0.499-0.294,0.972-0.572,1.407-0.828c1.752-1.017,2.954-1.658,2.954-1.658l0.022-0.012c0.134-0.072,0.301-0.021,0.373,0.113
					c0.065,0.122,0.028,0.271-0.08,0.352c0,0-1.099,0.809-2.797,1.969c-0.427,0.287-0.889,0.599-1.378,0.928
					c-0.482,0.341-1.041,0.613-1.603,0.924c-1.133,0.606-2.341,1.253-3.55,1.9c-1.262,0.539-2.523,1.078-3.707,1.583
					c-0.592,0.247-1.16,0.509-1.718,0.682c-0.555,0.187-1.078,0.362-1.561,0.525c-1.938,0.642-3.247,1.021-3.247,1.021
					c-0.147,0.043-0.301-0.042-0.344-0.189C353.61,423.493,353.678,423.353,353.8,423.296z"/>
			</g>
			<g>
				<path d="M355.275,435.307c0,0,1.144-0.67,2.894-1.606c0.438-0.231,0.913-0.482,1.416-0.748c0.51-0.257,0.997-0.595,1.537-0.889
					c1.063-0.614,2.196-1.269,3.33-1.924c1.106-0.705,2.213-1.411,3.25-2.072c0.509-0.346,1.045-0.618,1.496-0.956
					c0.46-0.326,0.895-0.635,1.297-0.92c1.614-1.13,2.727-1.851,2.727-1.851l0.018-0.011c0.128-0.083,0.298-0.047,0.381,0.081
					c0.075,0.116,0.052,0.269-0.049,0.358c0,0-0.995,0.877-2.54,2.142c-0.389,0.315-0.81,0.655-1.254,1.015
					c-0.44,0.369-0.951,0.689-1.466,1.041c-1.039,0.693-2.146,1.433-3.254,2.172c-1.169,0.645-2.338,1.288-3.435,1.892
					c-0.549,0.296-1.074,0.606-1.597,0.825c-0.519,0.232-1.009,0.453-1.462,0.655c-1.815,0.803-3.047,1.292-3.047,1.292
					c-0.142,0.057-0.303-0.013-0.359-0.155C355.107,435.52,355.159,435.375,355.275,435.307z"/>
			</g>
			<g>
				<path d="M358.27,443.81c0,0,0.797-0.526,2.028-1.249c0.622-0.351,1.332-0.787,2.119-1.204c0.785-0.422,1.623-0.871,2.461-1.32
					c0.85-0.425,1.7-0.85,2.497-1.249c0.797-0.397,1.561-0.731,2.206-1.037c1.3-0.59,2.188-0.94,2.188-0.94
					c0.143-0.057,0.304,0.014,0.36,0.156c0.049,0.125,0.001,0.264-0.106,0.334c0,0-0.799,0.524-2.03,1.247
					c-0.62,0.351-1.333,0.782-2.118,1.205c-0.785,0.422-1.622,0.871-2.46,1.321c-0.85,0.426-1.699,0.852-2.496,1.25
					c-0.795,0.403-1.562,0.732-2.205,1.038c-1.3,0.59-2.19,0.939-2.19,0.939c-0.143,0.056-0.304-0.015-0.359-0.157
					C358.115,444.019,358.162,443.88,358.27,443.81z"/>
			</g>
		</g>
	</g>
	<g>
		<g>
			<path style="fill:#9B3D27;" d="M562.903,311.26c0,0-40.942-22.206-32.615-56.208c8.328-34.002,62.215-68.608,65.608-88.038
				c3.396-19.429-31.75-3.209-27.616-32.011c1.135-7.908,17.868-29.491,44.932-12.143c27.063,17.348,37.125,39.554,39.207,72.862
				C654.501,229.031,562.903,311.26,562.903,311.26z"/>
			<g>
				<path d="M562.962,262.989c0,0,0.103-0.505,0.282-1.39c0.094-0.44,0.208-0.977,0.338-1.591c0.067-0.308,0.138-0.634,0.212-0.979
					c0.105-0.34,0.216-0.698,0.332-1.071c0.233-0.747,0.487-1.558,0.755-2.414c0.268-0.858,0.651-1.716,1.012-2.622
					c0.367-0.902,0.734-1.842,1.204-2.751c0.448-0.919,0.902-1.854,1.357-2.788c0.519-0.899,1.039-1.798,1.551-2.683
					c0.491-0.897,1.058-1.728,1.589-2.543c0.537-0.811,1.039-1.607,1.577-2.318c0.536-0.712,1.044-1.384,1.512-2.005
					c0.456-0.629,0.907-1.181,1.33-1.652c0.412-0.478,0.771-0.895,1.067-1.238c0.598-0.68,0.939-1.069,0.939-1.069
					c0.101-0.114,0.275-0.126,0.39-0.025c0.108,0.095,0.124,0.256,0.04,0.37l-0.01,0.013c0,0-0.306,0.413-0.84,1.136
					c-0.271,0.358-0.598,0.794-0.974,1.293c-0.386,0.491-0.791,1.068-1.223,1.705c-0.436,0.632-0.91,1.316-1.411,2.04
					c-0.505,0.721-0.954,1.536-1.482,2.335c-0.514,0.811-1.061,1.637-1.533,2.527c-0.492,0.878-0.991,1.77-1.491,2.662
					c-0.458,0.913-0.916,1.826-1.367,2.725c-0.477,0.889-0.848,1.806-1.221,2.688c-0.357,0.887-0.776,1.721-1.071,2.542
					c-0.295,0.822-0.574,1.6-0.832,2.316c-0.13,0.359-0.255,0.704-0.373,1.031c-0.098,0.339-0.19,0.66-0.277,0.962
					c-0.172,0.603-0.322,1.131-0.446,1.564c-0.255,0.865-0.4,1.36-0.4,1.36c-0.042,0.146-0.195,0.23-0.342,0.188
					C563.017,263.269,562.934,263.128,562.962,262.989z"/>
			</g>
		</g>
		<g>
			<path style="fill:#0088F7;" d="M535.563,278.528c-1.595,0.241-3.206,0.484-4.832,0.73c-1.626,0.226-3.266,0.45-4.919,0.681
				c-3.315,0.477-6.674,0.893-10.078,1.309c-3.444,0.449-6.755,0.781-10.154,1.159l-2.554,0.278l-2.723,0.236
				c-1.82,0.157-3.643,0.316-5.471,0.475c-3.151,0.278-6.319,0.538-9.555,0.626c-12.924,0.431-26.424-0.95-39.067-3.287
				c-12.661-2.33-24.485-5.583-34.501-8.824c-10.024-3.24-18.248-6.479-23.9-8.851c-7.854-3.301-15.673-6.552-23.732-9.337
				c1.768,9.041,2.808,20.084,3.834,29.125c0.273,0.171,0.572,0.358,0.911,0.571c1.58,0.975,3.87,2.357,6.802,4.046
				c5.865,3.371,14.297,7.972,24.785,12.875c10.487,4.898,23.03,10.122,37.109,14.587c14.072,4.456,29.716,8.167,46.211,9.718
				c4.114,0.395,8.306,0.634,12.477,0.726c1.835,0.037,3.664,0.074,5.489,0.112l2.733,0.057c0.962,0,1.923,0.001,2.881,0.001
				c1.957-0.003,3.922,0.001,5.861-0.005c8.277-16.05,17.606-31.684,26.297-47.608C538.178,278.131,536.88,278.335,535.563,278.528z
				"/>
			<path style="fill:#057CCE;" d="M628.996,286.712c-3.408-14.379-17.828-23.272-32.208-19.864l-0.063,0.016
				c0,0-0.806,0.191-2.318,0.55c-1.616,0.359-3.985,0.89-7.001,1.561c-6.084,1.32-14.852,3.143-25.421,5.098
				c-5.283,0.975-11.016,1.995-17.083,2.981c-1.78,0.293-3.597,0.586-5.432,0.874c-8.69,15.924-18.019,31.558-26.297,47.608
				c1.857-0.006,3.691-0.021,5.469-0.061c3.678-0.053,7.313-0.112,10.868-0.239c1.782-0.054,3.55-0.107,5.3-0.16
				c1.743-0.075,3.473-0.149,5.183-0.223c3.425-0.133,6.765-0.312,10.014-0.494c6.505-0.351,12.639-0.774,18.298-1.203
				c11.32-0.858,20.736-1.779,27.364-2.487c3.333-0.377,5.952-0.672,7.739-0.874c1.884-0.235,2.888-0.362,2.888-0.362
				c0.935-0.118,1.902-0.29,2.837-0.513C623.511,315.511,632.405,301.091,628.996,286.712z"/>
			<path style="fill:#FFAF84;" d="M304.16,255.131c3.247-1.97,17.592-3.375,24.272-7.116c6.679-3.74,16.029-7.213,17.899-5.877
				c1.87,1.335,14.332,9.628,13.53,10.162c-0.801,0.534-37.575,17.238-48.261,15.16C300.914,265.381,302.617,256.066,304.16,255.131
				z"/>
			<path style="fill:#FFAF84;" d="M353.545,250.42c-6.68-1.603-27.167,8.658-26.541,13.68c0.626,5.022,2.496,12.065,10.778,25.775
				c0,0,20.766,12.942,30.13-7.027c0.322-0.688-0.305,0.65,0,0c-1.026-9.041-2.066-20.084-3.834-29.125
				C359.969,252.303,355.97,251.003,353.545,250.42z"/>
			<g>
				<path style="fill:#009A09;" d="M244.274,259.074c0,1.499-4.809,34.423-2.137,34.926c2.672,0.503,25.366,0.565,45.411,0
					c20.044-0.566,39.442-5.909,39.442-5.909l-11.147-24.12L244.274,259.074z"/>
				<path style="fill:none;stroke:#FFFFFF;stroke-miterlimit:10;" d="M249.362,262.824c0,1.181-3.984,27.114-1.77,27.511
					c2.214,0.396,21.017,0.445,37.625,0c16.608-0.446,32.681-4.654,32.681-4.654l-9.236-19L249.362,262.824z"/>
				<path style="fill:#00BA00;" d="M252.29,229.047c0.981,0.499,42.403,27.707,53.433,32.275c11.03,4.565,33.128,4.326,33.128,4.326
					l-6.038,26.658c0,0-33.769,0.059-53.807-5.552c-20.037-5.61-42.212-16.948-42.746-19.294
					C235.726,265.114,250.488,228.13,252.29,229.047z"/>
				<path style="fill:none;stroke:#FFFFFF;stroke-miterlimit:10;" d="M256.845,235.696c0.796,0.405,34.361,22.453,43.299,26.154
					c8.938,3.699,26.846,3.506,26.846,3.506l-4.893,21.603c0,0-27.366,0.048-43.603-4.499c-16.237-4.546-34.206-13.734-34.64-15.635
					C243.422,264.923,255.385,234.953,256.845,235.696z"/>
			</g>
			<path style="fill:#FFCBAB;" d="M308.731,269.031c0.535-1.068,27.448-10.061,31.456-7.123
				c4.008,2.939,19.235,20.839,17.365,22.709c-1.87,1.87-21.478,23.625-30.561,20.151
				C317.906,301.295,304.457,277.58,308.731,269.031z"/>
			<g>
				<path style="fill:#FFFFFF;" d="M423.559,278.644c0,0,1.374,0.317,3.779,0.873c1.202,0.278,2.662,0.615,4.337,1.002
					c1.676,0.384,3.561,0.846,5.636,1.23c2.071,0.412,4.314,0.857,6.688,1.329c2.362,0.524,4.901,0.819,7.507,1.237
					c2.612,0.369,5.296,0.881,8.061,1.086c2.757,0.272,5.558,0.547,8.357,0.822c2.81,0.139,5.62,0.277,8.386,0.414
					c0.691,0.035,1.381,0.068,2.066,0.102c0.686,0.03,1.368-0.003,2.047-0.001c1.357-0.013,2.698-0.025,4.018-0.038
					c2.638-0.046,5.191,0.023,7.602-0.207c2.414-0.164,4.695-0.319,6.803-0.462c2.11-0.102,4.028-0.37,5.733-0.563
					c1.705-0.199,3.191-0.372,4.416-0.516c2.449-0.285,3.849-0.449,3.849-0.449l0.013-0.001c0.129-0.016,0.246,0.077,0.261,0.207
					c0.016,0.127-0.075,0.242-0.201,0.261c0,0-1.398,0.195-3.845,0.537c-1.225,0.171-2.711,0.378-4.415,0.616
					c-1.706,0.233-3.625,0.553-5.744,0.66c-2.113,0.159-4.403,0.333-6.825,0.517c-2.419,0.25-4.984,0.2-7.634,0.268
					c-1.325,0.022-2.673,0.046-4.036,0.069c-0.682,0.004-1.368,0.041-2.058,0.017c-0.689-0.028-1.382-0.057-2.076-0.086
					c-2.782-0.116-5.607-0.233-8.433-0.352c-2.813-0.296-5.624-0.593-8.393-0.885c-2.776-0.228-5.466-0.764-8.086-1.154
					c-2.612-0.44-5.156-0.758-7.526-1.303c-2.378-0.492-4.627-0.958-6.703-1.388c-2.085-0.393-3.958-0.896-5.623-1.323
					c-1.665-0.426-3.117-0.797-4.314-1.102c-2.391-0.611-3.758-0.96-3.758-0.96c-0.126-0.032-0.202-0.161-0.171-0.287
					C423.309,278.692,423.434,278.616,423.559,278.644z"/>
			</g>
			<g>
				<path d="M315.344,277.285c0,0,0.407-0.103,1.12-0.281c0.704-0.192,1.76-0.368,2.935-0.757c0.594-0.179,1.237-0.372,1.918-0.577
					c0.68-0.198,1.381-0.496,2.12-0.736c0.737-0.256,1.501-0.511,2.256-0.833c0.761-0.307,1.533-0.618,2.307-0.93
					c1.534-0.656,3.078-1.29,4.5-1.955c1.435-0.64,2.773-1.236,3.921-1.748c2.302-1.02,3.857-1.661,3.857-1.661
					c0.142-0.059,0.303,0.009,0.361,0.15c0.054,0.131-0.002,0.28-0.123,0.348c0,0-1.469,0.815-3.706,1.972
					c-1.125,0.567-2.424,1.257-3.854,1.927c-1.417,0.69-2.967,1.358-4.507,2.047c-0.788,0.304-1.576,0.608-2.353,0.907
					c-0.77,0.313-1.554,0.56-2.307,0.808c-0.757,0.243-1.475,0.502-2.19,0.671c-0.711,0.175-1.383,0.34-2.004,0.492
					c-0.31,0.074-0.606,0.146-0.889,0.214c-0.283,0.043-0.553,0.084-0.806,0.123c-0.506,0.077-0.946,0.145-1.31,0.2
					c-0.728,0.102-1.144,0.161-1.144,0.161c-0.151,0.021-0.291-0.083-0.313-0.234C315.117,277.451,315.209,277.319,315.344,277.285z
					"/>
			</g>
			<g>
				<path d="M323.732,288.832c0,0.001,1.121-0.956,2.847-2.329c0.87-0.677,1.867-1.492,2.969-2.319
					c1.099-0.831,2.272-1.718,3.443-2.605c1.137-0.923,2.273-1.846,3.339-2.711c1.066-0.864,2.089-1.639,2.952-2.319
					c1.741-1.343,2.936-2.204,2.936-2.204l0.006-0.005c0.124-0.089,0.297-0.062,0.386,0.063c0.082,0.113,0.065,0.268-0.034,0.362
					c0,0-1.07,1.013-2.726,2.479c-0.836,0.725-1.795,1.59-2.852,2.482c-1.058,0.891-2.186,1.842-3.313,2.793
					c-1.188,0.865-2.376,1.73-3.489,2.541c-1.111,0.814-2.181,1.531-3.08,2.168c-1.815,1.254-3.055,2.048-3.055,2.049
					c-0.129,0.082-0.3,0.045-0.383-0.084C323.603,289.076,323.629,288.921,323.732,288.832z"/>
			</g>
			<g>
				<path d="M335.69,294.372c0,0,0.739-0.978,1.905-2.393c0.592-0.699,1.259-1.536,2.017-2.395c0.754-0.861,1.558-1.78,2.362-2.699
					c0.754-0.95,1.508-1.9,2.215-2.791c0.708-0.891,1.402-1.696,1.981-2.401c1.176-1.394,2.002-2.299,2.002-2.299l0.013-0.015
					c0.103-0.112,0.277-0.121,0.39-0.018c0.102,0.093,0.118,0.243,0.045,0.355c0,0-0.671,1.025-1.739,2.525
					c-0.544,0.743-1.159,1.626-1.854,2.545c-0.696,0.918-1.439,1.898-2.182,2.877c-0.823,0.901-1.647,1.803-2.42,2.647
					c-0.77,0.848-1.527,1.604-2.157,2.27c-1.276,1.315-2.165,2.158-2.165,2.158c-0.111,0.105-0.287,0.101-0.392-0.01
					C335.616,294.629,335.61,294.477,335.69,294.372z"/>
			</g>
		</g>
		<g>
			<path style="fill:#00D2D9;" d="M594.896,331.055c23.477-10.732,46.952-22.355,70.428-33.68
				c-5.723-25.278-16.924-49.393-16.924-49.393l-42.005,1.956c0,0-11.008,12.164-32.975,34.679
				c-21.967,22.516-46.286,29.389-45.317,52.898c0.15,3.654,0.679,6.868,1.464,9.729
				C550.506,353.342,574.666,340.795,594.896,331.055z"/>
			<path style="fill:#08C1C1;" d="M667.463,308.662c-0.554-3.737-1.287-7.524-2.139-11.286
				c-23.476,11.324-46.951,22.947-70.428,33.68c-20.23,9.74-44.391,22.287-65.329,16.189c4.267,15.544,16.151,20.614,16.602,28.74
				c0.534,9.621,10.09,65.191,10.655,75.344c0.058,1.032-0.002,2.724-0.154,4.916c28.989-12.251,55.91-28.614,82.509-45.468
				C647.661,386.346,670.885,331.757,667.463,308.662z"/>
			<path style="fill:#00D2D9;" d="M639.18,410.776c-26.599,16.853-53.52,33.217-82.509,45.468c-0.631,9.087-2.864,26.9-5.058,43.257
				h123.985c-16.547-31.278-38.267-72.752-39.375-77.026C635.864,421.088,637.065,416.867,639.18,410.776z"/>
			<g>
				<path style="fill:#FFFFFF;" d="M534.192,325.937c0,0,0.195-0.373,0.536-1.023c0.174-0.324,0.385-0.718,0.627-1.169
					c0.12-0.226,0.249-0.466,0.385-0.719c0.146-0.248,0.331-0.495,0.507-0.761c0.361-0.528,0.752-1.102,1.166-1.707
					c0.398-0.622,0.927-1.178,1.429-1.797c0.516-0.607,1.025-1.255,1.63-1.832c0.587-0.595,1.183-1.199,1.778-1.803
					c0.643-0.554,1.284-1.107,1.917-1.65c0.618-0.561,1.289-1.035,1.917-1.52c0.636-0.474,1.233-0.956,1.849-1.343
					c0.607-0.399,1.18-0.776,1.709-1.125c1.047-0.714,2.001-1.177,2.629-1.561c0.64-0.365,1.006-0.575,1.006-0.575
					c0.112-0.065,0.257-0.025,0.321,0.088c0.062,0.107,0.029,0.243-0.072,0.311l-0.009,0.007c0,0-0.347,0.234-0.953,0.646
					c-0.601,0.421-1.487,0.977-2.495,1.722c-0.507,0.366-1.058,0.763-1.639,1.182c-0.593,0.405-1.152,0.916-1.778,1.384
					c-0.61,0.485-1.265,0.96-1.863,1.521c-0.612,0.542-1.235,1.094-1.857,1.645c-0.591,0.584-1.181,1.168-1.763,1.742
					c-0.602,0.557-1.106,1.184-1.619,1.768c-0.489,0.602-1.043,1.129-1.449,1.708c-0.426,0.567-0.828,1.104-1.199,1.601
					c-0.386,0.484-0.7,0.967-0.967,1.406c-0.273,0.433-0.512,0.81-0.707,1.121c-0.398,0.618-0.626,0.971-0.626,0.971
					c-0.071,0.11-0.217,0.142-0.326,0.071C534.171,326.178,534.137,326.043,534.192,325.937z"/>
			</g>
			<g>
				<g>
					<path d="M610.073,393.457l-0.17,2.992c-0.006,0.109-0.1,0.192-0.209,0.187c-0.108-0.007-0.192-0.1-0.186-0.209
						c0-0.001,0-0.003,0-0.004l0.211-2.989c0.007-0.098,0.092-0.171,0.19-0.164C610.006,393.276,610.078,393.36,610.073,393.457z"/>
					<path d="M609.625,402.638l-0.195,6.205c-0.005,0.154-0.134,0.275-0.288,0.271s-0.274-0.134-0.271-0.288l0.001-0.003
						l0.271-6.202c0.006-0.134,0.118-0.237,0.252-0.231C609.526,402.395,609.629,402.506,609.625,402.638z"/>
					<path d="M609.316,415.035l0.028,6.204c0.001,0.171-0.137,0.31-0.307,0.31c-0.171,0.002-0.31-0.136-0.312-0.307v-0.002
						l0.002-6.204c0-0.162,0.131-0.294,0.293-0.294C609.185,414.742,609.316,414.873,609.316,415.035z"/>
					<path d="M609.593,427.416c0,0,0.132,1.544,0.264,3.089c0.102,0.76,0.206,1.52,0.284,2.09c0.071,0.57,0.144,0.948,0.144,0.948
						c0.034,0.184-0.086,0.361-0.271,0.396c-0.184,0.035-0.361-0.086-0.396-0.27v-0.002l-0.001-0.005
						c0-0.001-0.071-0.385-0.142-0.969c-0.076-0.582-0.178-1.358-0.279-2.134c-0.124-1.545-0.249-3.091-0.249-3.091
						c-0.015-0.178,0.118-0.335,0.296-0.35C609.421,427.105,609.577,427.237,609.593,427.416z"/>
					<path d="M611.924,439.468l2.014,5.865c0.066,0.193-0.036,0.403-0.229,0.469c-0.193,0.066-0.403-0.036-0.469-0.229l-0.002-0.004
						l-1.985-5.875c-0.063-0.184,0.036-0.386,0.222-0.448S611.861,439.283,611.924,439.468z"/>
					<path d="M616.065,451.141l2.202,5.803c0.069,0.181-0.023,0.384-0.204,0.453c-0.181,0.068-0.384-0.022-0.452-0.203l-2.229-5.791
						c-0.073-0.189,0.021-0.401,0.21-0.474c0.188-0.072,0.4,0.022,0.473,0.21L616.065,451.141z"/>
					<path d="M620.521,462.72l2.295,5.767c0.067,0.165-0.015,0.353-0.18,0.418c-0.166,0.066-0.353-0.014-0.418-0.179l-2.322-5.756
						c-0.069-0.172,0.014-0.368,0.186-0.438c0.173-0.069,0.369,0.014,0.439,0.186V462.72z"/>
					<path d="M625.14,474.235l2.351,5.743c0.061,0.149-0.01,0.32-0.16,0.382c-0.149,0.061-0.319-0.01-0.381-0.159l-2.379-5.731
						c-0.064-0.156,0.01-0.336,0.167-0.401c0.156-0.065,0.337,0.009,0.401,0.166L625.14,474.235z"/>
					<path d="M629.864,485.711l2.372,5.732c0.051,0.123-0.007,0.264-0.13,0.314c-0.121,0.05-0.261-0.007-0.313-0.128l-2.442-5.703
						c-0.061-0.142,0.005-0.305,0.147-0.365c0.141-0.061,0.305,0.005,0.365,0.145C629.863,485.708,629.864,485.711,629.864,485.711z
						"/>
					<path d="M634.625,497.168l1.162,2.762c0.038,0.091-0.004,0.194-0.094,0.232c-0.089,0.037-0.192-0.004-0.23-0.092l-1.201-2.746
						c-0.044-0.1,0.002-0.217,0.102-0.26c0.1-0.044,0.217,0.001,0.26,0.102C634.623,497.167,634.624,497.168,634.625,497.168z"/>
				</g>
			</g>
		</g>
		<g>
			<path style="fill:#FFCBAB;" d="M433.427,423.008c-8.574-7.758-14.93-16.334-15.732-16.066c-0.802,0.267-5.845,12.24-5.109,12.862
				c4.671,3.944,13.895,12.021,13.895,12.021s-13.091,0.801-24.312-3.74c-11.222-4.542-19.536-10.349-19.803-9.013
				c-0.268,1.336,2.177,41.049,4.849,41.851c2.672,0.802,14.954,6.168,34.457,5.1c8.657-0.475,16.362-1.738,22.259-2.998
				c-1.973-11.1-2.465-22.614-3.139-33.849C438.404,427.31,435.883,425.23,433.427,423.008z"/>
			<path style="fill:#FFAF84;" d="M453.197,437.969c0,0-5.662-3.528-12.405-8.794c0.674,11.234,1.166,22.749,3.139,33.849
				c7.389-1.577,11.938-3.147,11.938-3.147L453.197,437.969z"/>
			<path style="fill:#057CCE;" d="M478.726,429.109c-10.44,2.884-19.35,4.739-25.56,5.892c-1.219,0.225-2.329,0.42-3.332,0.592
				c1.373,8.834,3.204,17.667,5.147,26.501c0.49-0.031,0.991-0.064,1.516-0.102c6.939-0.487,16.782-1.395,28.567-3.249
				c11.78-1.881,25.518-4.69,40.143-9.241c6.84-2.144,13.897-4.674,20.987-7.728c-15.729-6.072-31.255-12.608-46.966-19.218
				C492.045,425.177,485.095,427.338,478.726,429.109z"/>
			<path style="fill:#0088F7;" d="M645.203,292.232c-13.497-6.059-29.35-0.03-35.41,13.467c0,0-0.067,0.149-0.196,0.438
				c-0.176,0.365-0.436,0.908-0.774,1.615c-0.713,1.458-1.788,3.623-3.216,6.399c-1.435,2.774-3.21,6.148-5.319,9.991
				c-2.112,3.84-4.536,8.164-7.289,12.8c-1.366,2.327-2.808,4.738-4.344,7.195c-0.764,1.233-1.54,2.488-2.329,3.763
				c-0.808,1.254-1.628,2.528-2.46,3.819c-3.322,5.18-6.982,10.472-10.854,15.85c-0.965,1.35-1.984,2.639-2.986,3.979
				c-1.001,1.307-2.035,2.734-3.03,3.973c-0.99,1.234-1.987,2.477-2.989,3.725l-1.507,1.891l-1.852,2.093
				c-1.238,1.397-2.481,2.801-3.727,4.208l-0.233,0.264l-0.117,0.132c-0.261,0.26,0.189-0.181,0.257-0.248l0.001-0.001l-0.001,0.001
				l-0.047,0.051l-0.392,0.405l-0.78,0.816l-1.563,1.649c-1.075,1.084-2.239,2.121-3.357,3.202
				c-1.158,1.051-2.396,2.053-3.593,3.097c-9.885,8.13-21.953,14.876-33.95,20.166c-4.676,2.065-9.342,3.916-13.916,5.584
				c15.711,6.609,31.237,13.145,46.966,19.218c8.041-3.462,16.127-7.6,23.996-12.646c1.831-1.233,3.681-2.425,5.491-3.718
				c1.79-1.34,3.603-2.637,5.365-4.037l2.611-2.163l1.302-1.086l0.65-0.544l0.081-0.068c-0.038,0.043,0.642-0.627,0.384-0.37
				l0.132-0.118l0.262-0.235c1.397-1.258,2.79-2.513,4.178-3.762l2.077-1.869c0.751-0.735,1.501-1.47,2.249-2.202
				c1.496-1.475,2.984-2.94,4.464-4.399c1.469-1.46,2.736-2.844,4.102-4.259c1.329-1.41,2.692-2.794,3.965-4.201
				c5.112-5.618,9.924-11.135,14.275-16.472c1.091-1.335,2.167-2.651,3.226-3.948c1.034-1.31,2.052-2.601,3.053-3.87
				c2.016-2.533,3.906-5.011,5.703-7.402c3.618-4.771,6.82-9.214,9.63-13.183c2.806-3.97,5.198-7.481,7.155-10.401
				c1.95-2.924,3.472-5.273,4.512-6.903c0.529-0.841,0.935-1.485,1.209-1.92c0.314-0.516,0.475-0.78,0.475-0.78l0.465-0.761
				c0.536-0.897,1.026-1.835,1.465-2.811C664.729,314.146,658.7,298.293,645.203,292.232z"/>
			<g>
				<path style="fill:#FFFFFF;" d="M600.184,330.953c0,0,0.982-2.172,2.452-5.431c0.376-0.811,0.782-1.69,1.213-2.619
					c0.423-0.933,0.974-1.87,1.502-2.858c1.076-1.968,2.225-4.066,3.373-6.166c1.258-2.029,2.515-4.059,3.694-5.963
					c0.593-0.948,1.15-1.876,1.735-2.719c0.579-0.847,1.127-1.647,1.633-2.385c2.05-2.935,3.416-4.89,3.416-4.89
					c0.074-0.107,0.222-0.133,0.328-0.059c0.104,0.072,0.131,0.212,0.065,0.318l-0.005,0.006c0,0-1.266,2.018-3.164,5.044
					c-0.481,0.751-1.003,1.565-1.555,2.426c-0.561,0.855-1.077,1.804-1.667,2.75c-1.155,1.906-2.388,3.94-3.62,5.975
					c-1.159,2.071-2.317,4.143-3.404,6.084c-0.527,0.98-1.104,1.89-1.558,2.809c-0.459,0.916-0.893,1.781-1.293,2.58
					c-1.633,3.182-2.721,5.303-2.721,5.303c-0.06,0.115-0.201,0.162-0.317,0.103C600.18,331.203,600.133,331.067,600.184,330.953z"
					/>
			</g>
			<g>
				<path d="M386.954,452.286c0,0,1.194,0.15,2.97,0.451c0.443,0.078,0.924,0.162,1.433,0.251c0.508,0.098,1.045,0.134,1.596,0.228
					c1.103,0.162,2.279,0.335,3.455,0.507c1.185,0.139,2.369,0.277,3.479,0.407c0.557,0.051,1.09,0.16,1.601,0.194
					c0.512,0.045,0.994,0.087,1.44,0.126c1.783,0.169,2.975,0.33,2.975,0.329l0.015,0.002c0.151,0.021,0.258,0.16,0.237,0.311
					c-0.019,0.136-0.133,0.235-0.266,0.239c0,0-1.204,0.034-3.015,0.015c-0.453-0.009-0.943-0.018-1.462-0.026
					c-0.52-0.002-1.064-0.059-1.627-0.108c-1.127-0.105-2.329-0.218-3.531-0.33c-1.193-0.203-2.388-0.405-3.507-0.595
					c-0.558-0.099-1.104-0.18-1.601-0.314c-0.501-0.125-0.974-0.244-1.41-0.353c-1.745-0.447-2.898-0.795-2.898-0.795
					c-0.147-0.044-0.229-0.198-0.185-0.345C386.693,452.348,386.822,452.268,386.954,452.286z"/>
			</g>
			<g>
				<path d="M383.984,439.293c0,0,1.256,0.316,3.114,0.864c0.464,0.14,0.967,0.29,1.498,0.449c0.53,0.17,1.1,0.277,1.677,0.446
					c1.159,0.313,2.395,0.645,3.631,0.978c1.249,0.293,2.498,0.585,3.669,0.859c0.589,0.123,1.145,0.305,1.688,0.4
					c0.542,0.107,1.054,0.208,1.525,0.301c1.889,0.386,3.146,0.69,3.146,0.69l0.017,0.004c0.147,0.036,0.239,0.185,0.203,0.333
					c-0.033,0.135-0.158,0.222-0.292,0.21c0,0-1.291-0.111-3.225-0.353c-0.483-0.064-1.006-0.132-1.56-0.204
					c-0.556-0.065-1.129-0.195-1.725-0.317c-1.191-0.253-2.462-0.521-3.733-0.791c-1.249-0.364-2.499-0.729-3.671-1.07
					c-0.583-0.174-1.156-0.327-1.672-0.532c-0.52-0.195-1.011-0.379-1.465-0.549c-1.811-0.688-3.002-1.195-3.002-1.195
					c-0.141-0.06-0.206-0.223-0.147-0.363C383.716,439.327,383.854,439.26,383.984,439.293z"/>
			</g>
			<g>
				<path d="M381.988,428.794c0,0,1.561,0.449,3.875,1.194c1.153,0.385,2.51,0.803,3.944,1.306c1.436,0.498,2.967,1.029,4.498,1.56
					c1.528,0.531,3.058,1.063,4.49,1.561c1.434,0.498,2.758,1.004,3.9,1.417c2.277,0.849,3.782,1.46,3.782,1.46l0.012,0.005
					c0.142,0.058,0.209,0.219,0.152,0.359c-0.054,0.131-0.195,0.199-0.328,0.163c0,0-1.566-0.426-3.896-1.134
					c-1.161-0.365-2.524-0.767-3.971-1.241c-1.445-0.475-2.988-0.982-4.53-1.487c-1.522-0.557-3.045-1.113-4.473-1.635
					c-1.429-0.518-2.744-1.05-3.882-1.481c-2.266-0.886-3.759-1.525-3.759-1.525c-0.141-0.059-0.207-0.222-0.148-0.362
					C381.711,428.824,381.855,428.757,381.988,428.794z"/>
			</g>
		</g>
		<g>
			<path style="fill:#FFAF84;" d="M613.386,224.26c2.602,0.26,2.082,22.378,2.082,22.378h29.145c0,0-1.561-8.587,0.521-23.419
				c2.082-14.832,18.216-11.189,39.294-31.747c2.252-2.196,4.114-4.886,5.601-7.939c-23.755,16.468-49.945,29.591-76.721,40.727
				C613.33,224.261,613.365,224.258,613.386,224.26z"/>
			<path style="fill:#FFCBAB;" d="M651.117,102.216c-41.635-5.204-56.468,22.9-56.468,22.9s-9.351,19.005-9.61,20.566
				c-0.261,1.562,1.37,11.268,2.151,14.65c0.06,0.26-0.011,0.619-0.171,1.045c0.052,3.765-8.271,31.629-8.243,31.656
				c1.302,1.301,0,29.925,2.862,34.609c2.84,4.646,28.718-3.507,31.668-3.383c26.775-11.136,52.966-24.26,76.721-40.727
				C702.446,158.008,688.305,106.864,651.117,102.216z"/>
			<path style="fill:#FFAF84;" d="M583.896,184.186c-1.547-2.152,0.66-3.521,2.08-7.826c1.067-3.236,1.095-11.218,1.043-14.983
				c-1.917,5.112-18.363,25.487-18.123,26.928c0.254,1.529,8.217,3.155,9.771,4.628c3.839,1.839,4.896,1.122,6.229,0.622
				S586.613,187.966,583.896,184.186z"/>
			<path style="fill:#9B3D27;" d="M590.211,163.481c0,0,5.146-0.615,5.146,0c0,0.614-1.716,11.199,1.664,11.199
				c3.382,0,4.482-9.356,4.482-9.356s5.491,1.69,9.297,3.688c0,0-10.953-9.405-18.071-9.735
				C590.813,159.188,590.211,163.481,590.211,163.481z"/>
			<g>
				<path d="M582.554,202.489c0,0,0.392,0.084,1.076,0.23c0.342,0.071,0.758,0.172,1.234,0.239c0.479,0.068,1.008,0.182,1.598,0.253
					c0.591,0.063,1.226,0.175,1.903,0.199c0.339,0.021,0.685,0.043,1.041,0.065c0.355,0.003,0.718,0.006,1.087,0.01
					c0.736,0.008,1.498-0.044,2.266-0.122c0.382-0.05,0.769-0.1,1.155-0.15l1.151-0.231c0.761-0.181,1.526-0.361,2.252-0.628
					c0.739-0.229,1.433-0.547,2.113-0.829c0.659-0.334,1.316-0.616,1.903-0.96c0.602-0.316,1.15-0.65,1.653-0.967
					c0.511-0.305,0.958-0.619,1.364-0.882c0.408-0.262,0.752-0.507,1.033-0.713c0.566-0.407,0.89-0.639,0.89-0.639l0.006-0.004
					c0.087-0.063,0.208-0.042,0.271,0.044c0.06,0.083,0.044,0.199-0.034,0.263c0,0-0.311,0.255-0.854,0.702
					c-0.27,0.226-0.601,0.496-0.995,0.788c-0.394,0.294-0.824,0.644-1.336,0.969c-0.5,0.341-1.048,0.704-1.651,1.05
					c-0.589,0.372-1.25,0.697-1.928,1.042c-0.699,0.301-1.413,0.638-2.177,0.885c-0.75,0.286-1.543,0.484-2.334,0.682l-1.2,0.229
					c-0.403,0.047-0.805,0.095-1.203,0.142c-0.797,0.071-1.588,0.114-2.349,0.097c-0.381-0.01-0.755-0.02-1.121-0.03
					c-0.364-0.036-0.721-0.072-1.067-0.106c-0.695-0.052-1.34-0.191-1.939-0.277c-0.599-0.089-1.139-0.241-1.619-0.346
					c-0.483-0.104-0.888-0.23-1.225-0.324c-0.674-0.192-1.059-0.301-1.059-0.301c-0.103-0.029-0.163-0.137-0.134-0.24
					C582.354,202.528,582.455,202.469,582.554,202.489z"/>
			</g>
			<path style="fill:#FFAF84;" d="M639.802,183.925c0,8.17-6.623,14.794-14.793,14.794c-8.171,0-14.794-6.624-14.794-14.794
				c0-8.17,6.623-14.793,14.794-14.793C633.179,169.132,639.802,175.755,639.802,183.925z"/>
			<path style="fill:#9B3D27;" d="M589.56,153.574c0,0,6.762-1.236,12.491,0.74c5.729,1.976,13.346,7.866,13.346,7.866
				s-5.31-10.414-12.16-13.375c-6.848-2.961-14.53-2.293-14.53-2.293L589.56,153.574z"/>
			<path style="fill:#E85F3A;" d="M569.286,146.513c0.174-1.214,2.36-25.707,13.221-26.601c6.734-0.554,19.775,18.041,32.093,15.787
				c12.317-2.255,32.615-9.541,32.615-9.541s45.277-14.297,43.022-19.378c-2.254-5.083-22.686-35.154-53.776-27.056
				c-34.698,9.038-41.29,28.045-45.975,28.739c-4.685,0.694-12.481-1.156-18.042,3.99
				C560.821,123.207,569.286,146.513,569.286,146.513z"/>
			<path style="fill:#E85F3A;" d="M639.802,127.197c0,0-12.027,14.449-11.681,24.858c0.348,10.409,10.419,22.676,9.378,34.126
				c-1.041,11.449-7.807,32.788-12.49,42.85c-4.684,10.062-45.452,56.034-35.217,66.269c10.236,10.235,39.264-5.863,40.825-5.171
				c1.562,0.693,44.981-7.074,21.837,67.426c-3.69,11.879-5.428,21.457,10.104,18.43c24.838-4.841,31.803-8.48,63.838-43.995
				c18.557-20.572,8.049-48.485,0.86-57.621c-9.683-12.306-26.177-33.715-26.437-39.44c-0.261-5.725,25.101-58.902,21.858-79.107
				c-6.766-42.156-32.441-49.044-32.441-49.044L639.802,127.197z"/>
			<path style="fill:#FFAF84;" d="M637.123,174.106c0,0,2.792-14.49,6.309-16.159c3.517-1.669,15.121-1.165,14.464,13.108
				c-0.658,14.273-17.428,28.631-21.244,22.318C636.031,192.345,637.123,174.106,637.123,174.106z"/>
			<g>
				<path d="M640.97,183.96l0.675-0.529c0.236-0.169,0.426-0.361,0.64-0.54c0.414-0.359,0.812-0.759,1.162-1.177
					c0.174-0.211,0.366-0.409,0.512-0.636c0.153-0.222,0.324-0.435,0.438-0.673c0.131-0.231,0.261-0.462,0.338-0.708
					c0.109-0.238,0.168-0.483,0.21-0.728c0.077-0.244,0.03-0.486,0.053-0.726c-0.044-0.231-0.051-0.472-0.141-0.691
					c-0.093-0.218-0.162-0.444-0.322-0.634c-0.07-0.099-0.131-0.203-0.206-0.299l-0.267-0.265c-0.163-0.189-0.379-0.336-0.592-0.486
					c-0.2-0.162-0.431-0.292-0.671-0.412c-0.453-0.274-0.981-0.443-1.479-0.653l-0.057-0.024c-0.245-0.104-0.376-0.364-0.325-0.616
					l0.712-3.518c0.331-1.149,0.632-2.307,0.992-3.445l1.278-3.344c0.525-1.073,1.029-2.152,1.568-3.211
					c0.069-0.135,0.235-0.189,0.371-0.12c0.126,0.064,0.182,0.211,0.134,0.341l-0.007,0.019c-0.407,1.107-0.849,2.194-1.271,3.287
					l-1.093,3.337l-0.888,3.391l-0.642,3.44l-0.382-0.639c0.551,0.24,1.115,0.433,1.641,0.757c0.269,0.141,0.533,0.296,0.777,0.496
					c0.252,0.184,0.504,0.366,0.718,0.612l0.333,0.347c0.099,0.128,0.186,0.271,0.277,0.407c0.2,0.261,0.313,0.581,0.431,0.895
					c0.113,0.312,0.141,0.658,0.175,0.985c-0.032,0.327-0.01,0.669-0.115,0.974c-0.07,0.317-0.165,0.621-0.307,0.9
					c-0.113,0.295-0.276,0.556-0.439,0.815c-0.15,0.27-0.349,0.497-0.532,0.736c-0.179,0.245-0.392,0.453-0.598,0.667
					c-0.42,0.424-0.864,0.805-1.343,1.156c-0.239,0.169-0.472,0.366-0.715,0.509l-0.729,0.454c-0.129,0.081-0.3,0.042-0.381-0.088
					C640.83,184.204,640.86,184.046,640.97,183.96z"/>
			</g>
			<g>
				<path d="M642.296,126.298c0,0,0.692-0.289,1.904-0.795c1.215-0.499,2.938-1.243,5.026-2.081
					c2.089-0.837,4.515-1.844,7.137-2.864c2.619-1.025,5.413-2.119,8.207-3.213c2.784-1.109,5.568-2.218,8.18-3.258
					c1.298-0.537,2.584-0.984,3.763-1.501c1.185-0.503,2.306-0.978,3.34-1.417c2.077-0.86,3.808-1.578,5.019-2.08
					c1.214-0.499,1.908-0.784,1.908-0.784l0.011-0.005c0.141-0.058,0.302,0.01,0.359,0.15c0.057,0.137-0.006,0.293-0.138,0.354
					c0,0-0.679,0.32-1.868,0.879c-1.19,0.557-2.892,1.353-4.933,2.307c-1.025,0.469-2.136,0.977-3.311,1.514
					c-1.17,0.549-2.437,1.047-3.737,1.586c-2.606,1.066-5.387,2.204-8.167,3.341c-2.805,1.069-5.608,2.138-8.237,3.141
					c-2.636,0.984-5.096,1.902-7.205,2.689c-2.107,0.79-3.881,1.402-5.114,1.853c-1.236,0.444-1.942,0.697-1.942,0.697
					c-0.144,0.052-0.302-0.022-0.354-0.165C642.093,126.508,642.162,126.355,642.296,126.298z"/>
			</g>
			<g>
				<path d="M635.574,263.05c0,0,1.022-0.212,2.81-0.583c0.446-0.093,0.941-0.196,1.48-0.308c0.542-0.102,1.14-0.169,1.772-0.265
					c1.27-0.165,2.701-0.436,4.276-0.49c0.787-0.051,1.606-0.103,2.455-0.159c0.849-0.05,1.729-0.004,2.634-0.01
					c1.811-0.05,3.713,0.161,5.681,0.336c0.983,0.105,1.968,0.315,2.974,0.473c0.5,0.089,1.008,0.16,1.512,0.266
					c0.499,0.126,1,0.253,1.504,0.381c2.034,0.443,4.018,1.175,6.014,1.866c1.93,0.861,3.88,1.677,5.669,2.742
					c0.455,0.25,0.908,0.499,1.359,0.747c0.439,0.269,0.859,0.562,1.286,0.838c0.842,0.572,1.706,1.091,2.495,1.685
					c1.559,1.216,3.086,2.365,4.378,3.637c0.656,0.622,1.332,1.189,1.916,1.807c0.581,0.62,1.143,1.219,1.683,1.794
					c1.116,1.116,1.967,2.291,2.78,3.276c0.397,0.502,0.785,0.957,1.112,1.402c0.317,0.453,0.61,0.868,0.874,1.243
					c1.054,1.5,1.656,2.356,1.656,2.356c0.088,0.125,0.058,0.297-0.066,0.385c-0.122,0.086-0.289,0.059-0.379-0.059l-0.01-0.014
					c0,0-0.628-0.829-1.727-2.278c-0.274-0.361-0.578-0.763-0.909-1.199c-0.339-0.429-0.74-0.866-1.149-1.348
					c-0.84-0.944-1.722-2.068-2.837-3.152c-0.543-0.556-1.108-1.134-1.692-1.733c-0.587-0.596-1.264-1.139-1.92-1.737
					c-1.291-1.227-2.822-2.31-4.349-3.5c-0.775-0.577-1.626-1.077-2.452-1.632c-0.419-0.268-0.832-0.552-1.263-0.811
					c-0.442-0.239-0.887-0.479-1.333-0.721c-1.754-1.03-3.665-1.811-5.551-2.642c-1.947-0.675-3.875-1.412-5.86-1.855
					c-0.491-0.128-0.981-0.256-1.467-0.383c-0.491-0.105-0.987-0.179-1.478-0.269c-0.981-0.159-1.944-0.372-2.905-0.482
					c-1.928-0.173-3.786-0.424-5.566-0.413c-0.889-0.012-1.753-0.075-2.589-0.043c-0.837,0.037-1.644,0.073-2.42,0.107
					c-1.558,0.028-2.962,0.246-4.219,0.359c-0.627,0.07-1.215,0.114-1.758,0.195c-0.543,0.092-1.041,0.177-1.491,0.253
					c-1.8,0.306-2.829,0.48-2.829,0.48c-0.15,0.025-0.293-0.076-0.318-0.227C635.333,263.22,635.43,263.081,635.574,263.05z"/>
			</g>
			<g>
				<path d="M595.948,106.784c0,0,0.752,0.044,1.869,0.173c0.279,0.036,0.581,0.075,0.899,0.116
					c0.318,0.036,0.656,0.137,1.004,0.217c0.696,0.166,1.436,0.367,2.175,0.569c0.711,0.269,1.422,0.539,2.08,0.81
					c0.327,0.138,0.652,0.251,0.938,0.412c0.288,0.155,0.56,0.302,0.81,0.437c0.995,0.555,1.633,0.957,1.633,0.957
					c0.129,0.082,0.168,0.252,0.086,0.381c-0.068,0.109-0.2,0.154-0.317,0.116l-0.022-0.007c0,0-0.717-0.23-1.754-0.626
					c-0.257-0.102-0.536-0.212-0.83-0.33c-0.289-0.131-0.62-0.203-0.943-0.324c-0.656-0.216-1.349-0.465-2.04-0.715
					c-0.701-0.202-1.402-0.4-2.056-0.61c-0.332-0.092-0.635-0.223-0.952-0.29c-0.312-0.079-0.608-0.153-0.879-0.222
					c-1.087-0.29-1.804-0.524-1.804-0.524c-0.146-0.048-0.225-0.205-0.178-0.351C595.707,106.853,595.825,106.777,595.948,106.784z"
					/>
			</g>
			<g>
				<path d="M637.773,115.543c0,0,0.454,0.382,1.086,0.997c0.316,0.308,0.679,0.667,1.023,1.116c0.356,0.434,0.718,0.912,1.08,1.39
					c0.319,0.502,0.638,1.005,0.919,1.486c0.296,0.473,0.514,0.947,0.694,1.355c0.363,0.817,0.565,1.375,0.565,1.375
					c0.053,0.145-0.022,0.304-0.166,0.356c-0.115,0.042-0.24,0.002-0.313-0.088l-0.012-0.015c0,0-0.368-0.464-0.86-1.181
					c-0.245-0.359-0.512-0.788-0.837-1.222c-0.315-0.439-0.633-0.919-0.951-1.399c-0.337-0.46-0.675-0.92-0.975-1.367
					c-0.159-0.218-0.284-0.443-0.441-0.643c-0.148-0.204-0.289-0.396-0.419-0.574c-0.508-0.721-0.814-1.229-0.814-1.229
					c-0.08-0.132-0.037-0.304,0.096-0.384C637.554,115.454,637.685,115.468,637.773,115.543z"/>
			</g>
			<g>
				<path d="M644.773,114.21c0,0,0.259,0.154,0.597,0.425c0.337,0.273,0.744,0.673,1.113,1.105c0.319,0.51,0.593,1.056,0.76,1.476
					c0.164,0.423,0.231,0.714,0.232,0.714c0.035,0.152-0.06,0.304-0.212,0.339c-0.09,0.021-0.179-0.003-0.244-0.058l-0.036-0.03
					c0,0-0.229-0.193-0.513-0.497c-0.279-0.306-0.6-0.73-0.878-1.187c-0.368-0.433-0.698-0.898-0.915-1.274
					c-0.214-0.377-0.324-0.657-0.324-0.656c-0.06-0.15,0.014-0.319,0.164-0.379C644.604,114.155,644.699,114.166,644.773,114.21z"/>
			</g>
			<g>
				<path d="M678.497,99.655c0,0,0.178,0.31,0.382,0.79c0.202,0.481,0.418,1.135,0.585,1.802c0.165,0.667,0.28,1.347,0.329,1.866
					c0.047,0.52,0.038,0.876,0.038,0.876c-0.003,0.158-0.135,0.283-0.293,0.279c-0.104-0.002-0.194-0.061-0.242-0.146
					c0,0-0.175-0.31-0.379-0.791c-0.2-0.481-0.419-1.135-0.588-1.801c-0.166-0.667-0.284-1.346-0.332-1.865
					c-0.046-0.52-0.035-0.877-0.035-0.877c0.005-0.158,0.137-0.283,0.295-0.278C678.36,99.514,678.449,99.572,678.497,99.655z"/>
			</g>
			<g>
				<path style="fill:#FFFFFF;" d="M698.595,239.928c0,0,0.818,1.118,1.989,2.829c0.291,0.429,0.606,0.894,0.94,1.386
					c0.321,0.502,0.744,0.958,1.121,1.478c0.781,1.018,1.613,2.104,2.446,3.189c0.903,1.033,1.807,2.065,2.652,3.034
					c0.438,0.471,0.8,0.985,1.23,1.389c0.418,0.416,0.813,0.81,1.178,1.173c1.452,1.462,2.398,2.472,2.398,2.472l0.015,0.016
					c0.089,0.095,0.084,0.244-0.011,0.333c-0.088,0.082-0.223,0.084-0.313,0.009c0,0-1.063-0.89-2.622-2.277
					c-0.389-0.35-0.809-0.728-1.254-1.127c-0.457-0.39-0.857-0.879-1.303-1.355c-0.876-0.968-1.81-2-2.744-3.033
					c-0.831-1.122-1.662-2.243-2.442-3.295c-0.381-0.53-0.786-1.023-1.077-1.54c-0.307-0.508-0.598-0.989-0.865-1.433
					c-1.065-1.78-1.737-2.991-1.737-2.99c-0.064-0.114-0.023-0.258,0.091-0.322C698.394,239.802,698.525,239.833,698.595,239.928z"
					/>
			</g>
			<g>
				<path style="fill:#FFFFFF;" d="M693.541,110.869c0,0,0.312,0.218,0.856,0.6c0.529,0.406,1.335,0.9,2.213,1.645
					c0.445,0.363,0.928,0.756,1.438,1.172c0.518,0.41,1.014,0.892,1.542,1.376c0.523,0.49,1.078,0.982,1.592,1.534
					c0.524,0.541,1.057,1.09,1.59,1.64c0.493,0.585,0.987,1.171,1.473,1.747c0.5,0.564,0.929,1.171,1.361,1.745
					c0.424,0.579,0.857,1.123,1.199,1.686c0.351,0.556,0.683,1.082,0.989,1.568c0.32,0.477,0.57,0.94,0.778,1.358
					c0.216,0.413,0.403,0.773,0.559,1.07c0.303,0.596,0.476,0.936,0.476,0.936c0.059,0.116,0.013,0.258-0.104,0.317
					c-0.108,0.055-0.24,0.018-0.305-0.083l-0.01-0.015c0,0-0.203-0.319-0.559-0.876c-0.366-0.55-0.813-1.381-1.48-2.294
					c-0.324-0.462-0.674-0.963-1.045-1.493c-0.358-0.538-0.82-1.045-1.237-1.612c-0.433-0.556-0.862-1.145-1.362-1.691
					c-0.486-0.559-0.98-1.125-1.473-1.693c-0.517-0.547-1.032-1.095-1.54-1.633c-0.496-0.551-1.035-1.043-1.543-1.534
					c-0.518-0.478-0.983-0.983-1.469-1.408c-0.481-0.432-0.935-0.841-1.354-1.218c-0.828-0.764-1.584-1.355-2.082-1.791
					c-0.504-0.434-0.791-0.682-0.791-0.682c-0.1-0.085-0.11-0.234-0.025-0.333C693.307,110.816,693.443,110.801,693.541,110.869z"/>
			</g>
			<g>
				<path style="fill:#FFFFFF;" d="M658.613,128.962c0,0,0.309,0.493,0.71,1.259c0.184,0.395,0.447,0.821,0.712,1.276
					c0.27,0.456,0.519,0.958,0.803,1.447c0.288,0.489,0.576,0.979,0.832,1.447c0.248,0.474,0.505,0.899,0.727,1.264
					c0.432,0.738,0.688,1.258,0.69,1.258l0.008,0.016c0.058,0.117,0.01,0.259-0.108,0.317c-0.097,0.047-0.209,0.023-0.279-0.051
					c0,0-0.395-0.426-0.943-1.109c-0.266-0.347-0.603-0.736-0.887-1.201c-0.3-0.456-0.604-0.952-0.908-1.449
					c-0.285-0.509-0.543-1.042-0.781-1.537c-0.25-0.493-0.434-0.968-0.572-1.375c-0.285-0.816-0.436-1.378-0.436-1.378
					c-0.034-0.127,0.042-0.257,0.169-0.291C658.452,128.829,658.559,128.876,658.613,128.962z"/>
			</g>
			<g>
				<path style="fill:#FFFFFF;" d="M665.598,124.932c0,0,0.191,0.147,0.422,0.403c0.231,0.255,0.513,0.611,0.744,0.998
					c0.26,0.352,0.468,0.736,0.611,1.04c0.143,0.305,0.207,0.537,0.207,0.537l0.005,0.018c0.037,0.132-0.04,0.269-0.172,0.306
					c-0.072,0.02-0.147,0.005-0.204-0.033c0,0-0.2-0.133-0.455-0.376c-0.253-0.245-0.575-0.589-0.844-0.969
					c-0.238-0.383-0.428-0.796-0.55-1.118c-0.122-0.322-0.167-0.559-0.167-0.559c-0.025-0.137,0.064-0.269,0.201-0.294
					C665.47,124.87,665.543,124.89,665.598,124.932z"/>
			</g>
			<g>
				<path style="fill:#FFFFFF;" d="M639.367,81.321c0,0,1.051-0.218,2.636-0.48c0.397-0.063,0.826-0.132,1.28-0.205
					c0.45-0.091,0.951-0.074,1.458-0.102c1.02-0.033,2.107-0.068,3.195-0.103c1.078,0.098,2.156,0.195,3.167,0.287
					c0.504,0.054,0.995,0.075,1.449,0.184c0.454,0.101,0.883,0.195,1.279,0.283c1.583,0.361,2.62,0.64,2.62,0.64
					c0.125,0.034,0.2,0.163,0.166,0.288c-0.03,0.113-0.139,0.185-0.252,0.173l-0.025-0.003c0,0-1.066-0.114-2.64-0.343
					c-0.393-0.06-0.817-0.124-1.267-0.193c-0.448-0.08-0.935-0.054-1.427-0.106c-0.989-0.068-2.045-0.14-3.1-0.212
					c-1.052,0.011-2.104,0.022-3.089,0.033c-0.494,0.024-0.97-0.033-1.43,0.026c-0.458,0.041-0.891,0.08-1.291,0.117
					c-1.6,0.136-2.673,0.183-2.673,0.183c-0.131,0.006-0.241-0.095-0.247-0.226C639.174,81.446,639.256,81.344,639.367,81.321z"/>
			</g>
			<g>
				<path style="fill:#FFFFFF;" d="M579.332,111.329c0,0,0.334-0.116,0.92-0.317c0.293-0.098,0.649-0.217,1.059-0.353
					c0.204-0.068,0.422-0.141,0.651-0.217c0.232-0.069,0.497-0.093,0.763-0.146c0.538-0.091,1.12-0.19,1.736-0.294
					c0.619-0.136,1.272-0.079,1.949-0.111c0.678-0.01,1.379-0.05,2.083,0.064c0.705,0.084,1.427,0.142,2.14,0.253
					c0.699,0.175,1.398,0.351,2.087,0.523c0.699,0.138,1.331,0.449,1.969,0.664c0.629,0.242,1.251,0.443,1.789,0.75
					c0.548,0.282,1.065,0.547,1.543,0.793c0.488,0.226,0.894,0.508,1.256,0.75c0.363,0.24,0.68,0.449,0.94,0.622
					c0.516,0.35,0.811,0.549,0.811,0.549c0.107,0.073,0.136,0.219,0.063,0.327c-0.067,0.1-0.199,0.131-0.305,0.076l-0.02-0.01
					c0,0-0.309-0.166-0.852-0.456c-0.548-0.276-1.284-0.757-2.244-1.177c-0.477-0.215-0.993-0.448-1.539-0.694
					c-0.533-0.275-1.151-0.425-1.759-0.657c-0.62-0.197-1.234-0.49-1.908-0.609c-0.664-0.155-1.338-0.312-2.013-0.469
					c-0.682-0.108-1.369-0.18-2.044-0.272c-0.674-0.123-1.344-0.094-1.992-0.095c-0.324-0.001-0.643-0.002-0.955-0.003
					c-0.313-0.015-0.618-0.011-0.907,0.038c-0.586,0.067-1.141,0.131-1.651,0.19c-0.514,0.035-0.986,0.146-1.405,0.256
					c-0.419,0.101-0.784,0.189-1.085,0.262c-0.603,0.139-0.949,0.218-0.949,0.218c-0.127,0.029-0.254-0.05-0.282-0.177
					C579.151,111.486,579.22,111.368,579.332,111.329z"/>
			</g>
			<g>
				<path style="fill:#FFFFFF;" d="M696.131,301.532c0,0,0.252,2.199,0.82,5.442c0.261,1.629,0.649,3.519,1.012,5.555
					c0.37,2.036,0.765,4.213,1.102,6.404c0.305,2.197,0.54,4.408,0.654,6.493c0.026,1.044,0.076,2.053,0.028,3.011
					c-0.021,0.958-0.063,1.862-0.154,2.694c-0.052,0.835-0.175,1.593-0.291,2.263c-0.1,0.672-0.208,1.253-0.331,1.726
					c-0.22,0.948-0.345,1.49-0.345,1.49c-0.029,0.127-0.156,0.205-0.282,0.176c-0.122-0.028-0.2-0.147-0.18-0.269l0.003-0.017
					c0,0,0.093-0.54,0.254-1.485c0.095-0.47,0.168-1.046,0.227-1.711c0.075-0.662,0.149-1.409,0.182-2.229
					c0.063-0.816,0.074-1.705,0.064-2.645c0.021-0.939-0.074-1.93-0.102-2.953c-0.134-2.048-0.39-4.227-0.714-6.398
					c-0.32-2.175-0.683-4.349-1.032-6.388c-0.349-2.041-0.636-3.955-0.856-5.602c-0.23-1.642-0.346-3.038-0.419-3.996
					c-0.069-0.964-0.108-1.515-0.108-1.515c-0.012-0.13,0.084-0.244,0.214-0.255C696.002,301.312,696.114,301.407,696.131,301.532z"
					/>
			</g>
			<g>
				<path style="fill:#FFFFFF;" d="M614.169,261.995c0,0,0.149-0.625,0.412-1.718c0.131-0.547,0.29-1.211,0.473-1.973
					c0.091-0.381,0.188-0.786,0.291-1.213c0.122-0.423,0.283-0.861,0.435-1.322c0.31-0.921,0.646-1.919,1-2.976
					c0.336-1.065,0.839-2.12,1.295-3.243c0.473-1.114,0.935-2.279,1.512-3.41c0.554-1.143,1.117-2.304,1.68-3.465
					c0.615-1.132,1.231-2.265,1.836-3.379c0.594-1.122,1.23-2.193,1.831-3.239c1.197-2.097,2.383-4.008,3.379-5.659
					c2.028-3.277,3.381-5.462,3.381-5.462c0.067-0.111,0.213-0.147,0.324-0.079c0.108,0.065,0.144,0.207,0.084,0.316
					c0,0-1.251,2.245-3.128,5.613c-0.958,1.671-2.062,3.629-3.233,5.729c-0.588,1.048-1.214,2.123-1.793,3.242
					c-0.592,1.113-1.193,2.244-1.794,3.375c-0.567,1.146-1.135,2.293-1.693,3.421c-0.584,1.118-1.051,2.265-1.529,3.363
					c-0.451,1.107-0.987,2.145-1.346,3.177c-0.378,1.027-0.736,1.998-1.066,2.893c-0.164,0.45-0.321,0.881-0.471,1.29
					c-0.123,0.422-0.241,0.821-0.352,1.197c-0.221,0.751-0.414,1.406-0.572,1.945c-0.317,1.079-0.499,1.695-0.499,1.695
					c-0.036,0.125-0.167,0.197-0.292,0.16C614.211,262.241,614.14,262.116,614.169,261.995z"/>
			</g>
			<g>
				<path style="fill:#FFFFFF;" d="M570.373,186.917c0,0,0.607-0.988,1.571-2.431c0.49-0.716,1.041-1.567,1.67-2.45
					c0.626-0.885,1.294-1.829,1.962-2.773c0.687-0.931,1.373-1.861,2.018-2.733c0.643-0.872,1.274-1.664,1.8-2.355
					c1.067-1.369,1.813-2.257,1.813-2.257c0.083-0.1,0.232-0.113,0.333-0.029c0.091,0.077,0.109,0.208,0.048,0.307
					c0,0-0.609,0.986-1.573,2.43c-0.489,0.716-1.044,1.564-1.669,2.45c-0.626,0.886-1.294,1.83-1.961,2.774
					c-0.687,0.931-1.372,1.862-2.016,2.734c-0.641,0.875-1.275,1.665-1.8,2.355c-1.067,1.369-1.814,2.256-1.814,2.256
					c-0.084,0.1-0.232,0.112-0.333,0.028C570.33,187.146,570.313,187.015,570.373,186.917z"/>
			</g>
			<g>
				<path d="M591.136,156.129c0,0,0.14-0.074,0.385-0.203c0.124-0.061,0.274-0.135,0.446-0.22c0.17-0.088,0.36-0.188,0.621-0.236
					c0.248-0.064,0.521-0.132,0.815-0.193c0.297-0.086,0.591-0.055,0.908-0.078c0.313-0.006,0.643-0.04,0.965,0.026
					c0.324,0.046,0.656,0.083,0.983,0.141c0.317,0.091,0.634,0.182,0.946,0.271c0.317,0.076,0.597,0.227,0.881,0.339
					c0.278,0.123,0.556,0.229,0.794,0.372c0.241,0.137,0.469,0.267,0.679,0.386c0.423,0.235,0.729,0.501,0.962,0.653
					c0.227,0.165,0.351,0.266,0.351,0.266c0.12,0.097,0.138,0.272,0.041,0.392c-0.078,0.097-0.208,0.127-0.318,0.084l-0.006-0.003
					c0,0-0.146-0.057-0.4-0.157c-0.252-0.102-0.604-0.268-1.035-0.428c-0.213-0.085-0.444-0.176-0.689-0.273
					c-0.238-0.111-0.508-0.17-0.771-0.271c-0.268-0.087-0.539-0.202-0.825-0.262c-0.283-0.075-0.57-0.15-0.857-0.226
					c-0.289-0.047-0.579-0.094-0.864-0.141c-0.286-0.062-0.565-0.06-0.839-0.071c-0.268,0.007-0.55-0.059-0.78-0.012
					c-0.238,0.027-0.467,0.044-0.683,0.058c-0.428,0.014-0.834,0.175-1.095,0.217c-0.271,0.057-0.426,0.089-0.426,0.089
					c-0.151,0.032-0.299-0.065-0.33-0.216C590.967,156.308,591.029,156.186,591.136,156.129z"/>
			</g>
		</g>
	</g>
</g>
</svg>
