<?xml version="1.0" encoding="utf-8"?>
<!-- Generator: Adobe Illustrator 27.5.0, SVG Export Plug-In . SVG Version: 6.00 Build 0)  -->
<svg version="1.1" id="Слой_1" xmlns="http://www.w3.org/2000/svg" xmlns:xlink="http://www.w3.org/1999/xlink" x="0px" y="0px"
	 viewBox="0 0 3200 2000" style="enable-background:new 0 0 3200 2000;" xml:space="preserve">
<rect style="fill:#FFFFFF;" width="3200" height="2000"/>
<g>
	<path style="fill:#EBF3FA;" d="M350.629,1784.196c0,0-402.76-952.125,463.521-1129.134
		c540.526-110.447,526.399-494.436,1291.251-468.221c783.235,26.844,474.794,766.82,576.419,936.084
		c101.625,169.265,362.421,237.169,267.847,661.271H350.629z"/>
	<path style="fill:#DFEBFD;" d="M2195.198,392.928c-27.791-62.658-134.983-25.211-134.983-25.211s-57.281,125.981-78.657,132.067
		c-21.376,6.085,27.941-117.274,27.941-117.274c-42.86,2.424-142.497,70.783-142.497,70.783s27.395,132.451,5.179,133.087
		c-22.217,0.636-18.273-118.516-18.273-118.516c-38.978,18.561-69.77,72.121-69.77,72.121c-35.707,85,75.284,126.462,75.284,126.462
		s8.503,46.106-11.912,103.645l-0.002,0.002c0,0-4.943,10.804-8.936,28.489l11.142-1.718c0.449-3.128,1.007-6.17,1.69-9.114
		c-0.004-0.021,0.001-0.037,0.014-0.054c0.01-0.043,0.021-0.085,0.03-0.128c0.498-1.839,1.217-4.458,2.124-7.654
		c0.001-0.004,0.002-0.008,0.004-0.012c-0.002-0.007,0.006-0.008,0.005-0.015c2.376-7.189,3.917-12.465,4.823-16.244
		c0.004-0.012,0.006-0.023,0.006-0.035c6.975-22.49,17.466-52.009,26.384-59.236c0,0-1.5-1.544-3.172-4.743
		c1.012,1.512,2.066,3.089,3.172,4.743c25.373,37.927,121.781,30.036,173.229,10.946c51.447-19.089,25.979-30.503-6.379-50.413
		c-32.357-19.91-91.308-4.257-110.487-11.063c-19.18-6.806,5.233-20.332,41.072-23.068c35.839-2.736,59.009,29.952,117.063,26.579
		c58.055-3.372,85.055-117.712,85.055-117.712c-37.615,18.352-111.813,7.477-116.638-5.725
		c-4.825-13.203,100.278-28.013,115.995-34.621C2199.423,492.691,2222.989,455.586,2195.198,392.928z"/>
	<path style="fill:#DFEBFD;" d="M2506.158,1477.367c99.706-59.552,14.81-232.188,14.81-232.188s-223.604-70.59-238.208-105.3
		c-14.604-34.709,202.96,23.022,202.96,23.022c-12.839-71.593-148.183-225.202-148.183-225.202s-217.175,73.153-222.786,35.917
		c-5.611-37.236,195.603-54.962,195.603-54.962c-39.188-61.763-135.566-102.604-135.566-102.604
		c-150.265-42.681-197.313,152.475-197.313,152.475s-75.81,23.728-176.76,1.152l-0.003-0.002c0,0-19.183-6.106-49.745-9.206
		l5.167,18.389c5.354,0.116,10.584,0.433,15.676,0.98c0.035-0.01,0.063-0.005,0.093,0.012c0.074,0.007,0.146,0.018,0.221,0.025
		c3.195,0.461,7.747,1.136,13.307,2.008c0.007,0.002,0.014,0.002,0.021,0.004c0.012-0.003,0.015,0.008,0.026,0.005
		c12.576,2.527,21.767,4.04,28.307,4.793c0.021,0.004,0.041,0.004,0.061,0.003c39.252,7.133,91.046,18.744,105.025,32.267
		c0,0,2.291-2.84,7.328-6.306c-2.337,2.011-4.773,4.107-7.328,6.306c-58.604,50.429-25.623,210.968,17.001,293.598
		c42.625,82.63,56.616,37.459,83.489-21.033c26.872-58.493-11.506-154.445-3.98-188.096s35.267,4.646,47.195,64.364
		c11.929,59.72-38.314,105.373-20.773,202.329c17.54,96.955,215.372,118.992,215.372,118.992
		c-38.556-59.515-35.434-186.534-14.215-197.348c21.22-10.814,67.616,162.937,81.942,188.021
		C2339.227,1504.866,2406.453,1536.919,2506.158,1477.367z"/>
	<path style="fill:#CDE0FB;" d="M1027.875,778.258c55.843-80.559,196.368,0.793,196.368,0.793s46.669,192.325,75.063,206.606
		c28.394,14.281-7.792-172.224-7.792-172.224c59.553,14.901,181.174,137.646,181.174,137.646s-74.007,178.701-42.971,185.553
		c31.036,6.853,57.457-161.573,57.457-161.573c49.771,36.527,78.657,120.02,78.657,120.02
		c27.357,128.974-139.668,157.443-139.668,157.443s-24.311,62.482-11.067,148.78l0.001,0.003c0,0,4.046,16.503,4.91,42.415
		l-15.189-5.401c0.208-4.515,0.24-8.938,0.07-13.256c0.011-0.029,0.008-0.053-0.005-0.079c-0.002-0.063-0.006-0.124-0.009-0.188
		c-0.206-2.717-0.514-6.588-0.93-11.319c-0.001-0.006-0.001-0.012-0.002-0.019c0.004-0.01-0.006-0.013-0.002-0.022
		c-1.41-10.734-2.159-18.561-2.418-24.11c-0.002-0.018-0.002-0.035,0-0.051c-3.764-33.461-10.583-77.74-21.171-90.284
		c0,0,2.521-1.767,5.729-5.811c-1.827,1.853-3.731,3.785-5.729,5.811c-45.813,46.47-179.117,9.525-246.263-31.088
		c-67.146-40.613-28.31-49.815,22.481-69.103s129.398,18.511,158.165,14.097c28.766-4.415-1.897-29.963-51.504-43.42
		c-49.607-13.456-90.921,26.244-171.564,5.936c-80.643-20.309-87.899-188.159-87.899-188.159
		c47.914,35.867,155.054,40.494,165.372,23.243c10.318-17.25-133.344-66.246-153.648-79.742
		C995.183,917.257,972.032,858.816,1027.875,778.258z"/>
	<path style="fill:#FFB27D;" d="M2044.697,898.438c-0.187-0.439-0.408-0.905-0.673-1.397c-0.884-3.437-8.598-21.665-9.45-23.662
		c-2.425-5.676-6.392-2.659-6.392,1.581c0,1.31,0.561,10.668,0.233,12.022c-6.55-4.824-10.587-9.84-27.479-14.615
		c0,0-12.889-4.236-6.691,8.749c4.143,8.68,9.079,9.768,15.113,21.909c6.035,12.142,17.186,20.487,27.164,19.727l10.71,3.625
		l10.829-16.013l-6.963-4.301C2048.203,904.272,2046.029,901.57,2044.697,898.438z"/>
	<g>
		<g>
			<rect x="1393.833" y="531.792" style="fill:#FFFFFF;" width="634.35" height="912.842"/>
			<g>
				<rect x="1556.507" y="613.993" style="fill:#F99746;" width="289.141" height="15.012"/>
				<rect x="1519.138" y="648.833" style="fill:#F99746;" width="144.571" height="15.012"/>
				<rect x="1681.147" y="648.833" style="fill:#F99746;" width="212.188" height="15.012"/>
			</g>
			<g>
				<rect x="1534.69" y="987" style="fill:#AEC3FF;" width="311.952" height="11.429"/>
				<g>
					<rect x="1699.19" y="956.502" style="fill:#AEC3FF;" width="220.894" height="11.429"/>
					<rect x="1461.248" y="956.502" style="fill:#AEC3FF;" width="215.185" height="11.429"/>
				</g>
				<g>
					<rect x="1708.422" y="926.005" style="fill:#AEC3FF;" width="190.031" height="11.428"/>
					<rect x="1482.879" y="926.005" style="fill:#AEC3FF;" width="190.03" height="11.428"/>
				</g>
			</g>
			<g>
				<g>
					<path style="fill:#A8C3F7;" d="M1741.576,1099.735h-91.729c-4.162,0-7.568-3.405-7.568-7.567l0,0
						c0-4.163,3.406-7.568,7.568-7.568h91.729c4.162,0,7.568,3.405,7.568,7.568l0,0
						C1749.145,1096.33,1745.738,1099.735,1741.576,1099.735z"/>
					<path style="fill:#A8C3F7;" d="M1869.539,1099.735h-91.729c-4.162,0-7.568-3.405-7.568-7.567l0,0
						c0-4.163,3.406-7.568,7.568-7.568h91.729c4.162,0,7.568,3.405,7.568,7.568l0,0
						C1877.107,1096.33,1873.701,1099.735,1869.539,1099.735z"/>
				</g>
				<g>
					<g>
						<path style="fill:#A8C3F7;" d="M1757.498,1300.704c-45.566,0-82.638-37.071-82.638-82.637
							c0-45.566,37.071-82.638,82.638-82.638c45.565,0,82.637,37.071,82.637,82.638
							C1840.135,1263.633,1803.063,1300.704,1757.498,1300.704z M1757.498,1139.597c-43.269,0-78.471,35.202-78.471,78.471
							s35.202,78.47,78.471,78.47s78.47-35.201,78.47-78.47S1800.767,1139.597,1757.498,1139.597z"/>
					</g>
					<g>
						<path style="fill:#A8C3F7;" d="M1757.498,1284.654c-36.716,0-66.586-29.871-66.586-66.587s29.87-66.586,66.586-66.586
							s66.587,29.87,66.587,66.586S1794.214,1284.654,1757.498,1284.654z M1757.498,1155.648c-34.418,0-62.419,28.001-62.419,62.419
							s28.001,62.42,62.419,62.42s62.42-28.002,62.42-62.42S1791.916,1155.648,1757.498,1155.648z"/>
					</g>
					<g>
						<path style="fill:#A8C3F7;" d="M1758.377,1244.187c-8.65,2.804-17.089,4.267-23.724,3.714
							c-10.114-0.843-15.81-6.142-16.034-14.923c-0.182-6.967,2.712-13.068,8.38-18.015c-0.055-0.476-0.101-0.951-0.136-1.429
							c-0.372-4.911,0.677-8.176,3.118-9.698c3.95-2.463,9.816,0.905,10.063,1.049l-1.312,2.244c-1.314-0.766-5.22-2.449-7.38-1.09
							c-1.862,1.167-2.086,4.381-1.923,6.992c4.612-3.336,10.637-6.063,17.982-8.047c5.43-1.475,11.477-2.451,16.943-2.895
							c0.029-0.611,0.079-1.159,0.146-1.606c0.179-1.206,0.598-2.616,1.782-2.898c0.45-0.1,1.321-0.089,2.096,1.095
							c0.496,0.759,0.748,1.85,0.796,3.155c1.883-0.043,3.633-0.009,5.182,0.104c0.015-0.032,0.028-0.065,0.043-0.099
							c-0.377-3.079-0.112-6.704,0.4-9.046c0.657-3.008,1.735-4.528,3.248-4.676c0.908-0.083,1.697,0.405,2.06,1.274
							c0.847,2.038-0.74,7.547-3.038,12.833c0.002,0.009,0.003,0.019,0.006,0.028c2.153,0.364,3.616,0.96,4.076,1.794
							c0.347,0.626,0.391,1.595-0.524,2.437c-1.738,1.602-3.127,1.2-3.799,0.815c-0.568-0.327-1.026-0.88-1.392-1.594
							c-1.738,3.438-3.632,6.378-5.12,7.623c-1.37,1.153-2.572,0.69-3.023,0.438c-0.234-0.132-0.454-0.31-0.657-0.524
							c-0.592,1.443-1.261,2.835-1.979,4.093c-2.717,4.771-5.777,7.225-8.851,7.077c-1.258-0.058-2.372-0.559-3.314-1.468
							c-1.699,3.682-3.837,7.183-5.958,9.8c-2.16,2.663-4.914,3.641-7.76,2.751c-5.039-1.574-9.597-8.864-11.304-17.501
							c-4.307,4.211-6.403,9.199-6.258,14.917c0.194,7.489,4.788,11.661,13.654,12.4c22.378,1.863,61.616-18.942,64.591-34.252l0,0
							C1797.039,1223.51,1778.422,1237.692,1758.377,1244.187z M1729.753,1216.001c1.363,9.112,5.925,15.806,9.796,17.016
							c1.815,0.567,3.487-0.078,4.967-1.906c2.521-3.11,4.695-6.95,6.256-10.692c-0.449-0.968-0.811-2.102-1.081-3.391
							c-0.626-3.004-0.728-7.125,0.013-9.953c-4.181,1.033-8.37,2.43-12.25,4.265
							C1734.482,1212.744,1731.913,1214.3,1729.753,1216.001z M1753.642,1220.263c0.556,0.848,1.3,1.511,2.285,1.556
							c1.967,0.083,4.332-2.013,6.477-5.769c1.116-1.958,2.009-4.048,2.68-6.054c-0.432-1.629-0.655-3.531-0.729-5.281
							c-2.88,0.23-6.019,0.62-9.251,1.206C1756.787,1209.2,1755.812,1214.742,1753.642,1220.263z M1767.793,1210.042
							c0.405,1.222,0.768,1.458,0.771,1.46c1.451-1.246,3.109-3.949,4.619-7.026c-1.233-0.047-2.623-0.053-4.138-0.014
							C1768.837,1206.197,1768.398,1208.114,1767.793,1210.042z M1752.546,1206.704c-0.659,1.378-1.136,5.79-0.331,9.714
							C1753.519,1212.113,1753.785,1208.39,1752.546,1206.704z M1778.121,1205.046c0.006,0.006,0.01,0.001,0.015,0.005
							C1778.13,1205.049,1778.126,1205.048,1778.121,1205.046z M1777.738,1191.716c-0.23,0.667-0.449,1.61-0.616,2.719
							C1777.428,1193.366,1777.643,1192.435,1777.738,1191.716z"/>
					</g>
				</g>
			</g>
		</g>
		<g>
			<rect x="1516.503" y="848.15" style="fill:#AEC3FF;" width="348.325" height="11.429"/>
			<g>
				<rect x="1700.185" y="817.652" style="fill:#AEC3FF;" width="246.648" height="11.428"/>
				<rect x="1434.499" y="817.652" style="fill:#AEC3FF;" width="240.275" height="11.428"/>
			</g>
			<g>
				<rect x="1710.492" y="787.154" style="fill:#AEC3FF;" width="212.188" height="11.429"/>
				<rect x="1458.652" y="787.154" style="fill:#AEC3FF;" width="212.187" height="11.429"/>
			</g>
		</g>
	</g>
	<g>
		<path style="fill:#91CECF;" d="M2303.791,869.911c0,0,53.334,204.296-108.814,170.339
			c-43.777-9.168-160.402-125.39-160.402-125.39s11.223-17.708,25.038-15.829c0,0,112.675,36.639,130.694,49.901
			c9.981,7.346,21.378-108.398,55.892-106.751C2280.712,843.828,2303.791,869.911,2303.791,869.911z"/>
		<path style="fill:#163560;" d="M2376.86,1733.789c0,0-2.979,48.051-12.275,48.739c-1.236,0.092-47.149,0.092-47.149,0.092
			l-58.611-0.34c0,0,0.383-14.122,17.516-17.108c17.133-2.985,45.809-15.025,56.187-37.669
			C2343.444,1703.682,2376.86,1733.789,2376.86,1733.789z"/>
		<path style="fill:#2B478B;" d="M2380.238,1737.125c0,0-17.816,5.961-31.728,5.961c-15.517,0-29.62-4.228-29.62-4.228
			s-3.354-32.439-21.813-103.915c-9.679-37.464-23.499-85.634-43.162-145.489c-54.365-165.424-70.898-262.197-72.407-271.362
			c-0.08-0.481-0.112-0.723-0.112-0.723l0.177-0.08l167.142-73.386c0,0-20.657,227.991,5.698,315.503
			c3.691,12.231,6.854,26.484,9.566,41.926C2380.624,1596.388,2380.238,1737.125,2380.238,1737.125z"/>
		<path style="fill:#233862;" d="M2363.979,1501.332l-66.901,133.611c-9.679-37.464-23.499-85.634-43.162-145.489
			c-54.365-165.424-70.898-262.197-72.407-271.362c0.017-0.273,0.032-0.529,0.064-0.803l167.142-73.386
			c0,0-20.657,227.991,5.698,315.503C2358.104,1471.638,2361.266,1485.891,2363.979,1501.332z"/>
		<path style="fill:#163560;" d="M2246.314,1733.789c0,0-2.979,48.051-12.275,48.739c-1.236,0.092-47.15,0.092-47.15,0.092
			l-58.611-0.34c0,0,0.384-14.122,17.517-17.108c17.132-2.985,45.808-15.025,56.187-37.669
			C2212.898,1703.682,2246.314,1733.789,2246.314,1733.789z"/>
		<path style="fill:#2B478B;" d="M2151.551,1149.275c0,0-2.171,147.741,23.391,329.141c25.563,181.4,16.897,258.401,16.897,258.401
			s17.562,5.69,24.65,6.269c18.058,1.471,36.572-4.232,36.572-4.232s36.587-181.468,26.097-272.263
			c-10.489-90.795,50.102-311.558,50.102-311.558L2151.551,1149.275z"/>
		<path style="fill:#FFB27D;" d="M2273.286,797.715l-29.31,25.736l-47.907-2.111c0.114-3.86,0.991-19.913,1.801-34.454
			c0.052-0.858,0.104-1.716,0.147-2.554c0.705-12.377,1.32-23.009,1.32-23.009l40.883-25.39l15.243-9.466
			c-0.007,0.259,0.625,13.536,0.726,15.473C2257.936,776.342,2273.286,797.715,2273.286,797.715z"/>
		<path style="fill:#ABDDDA;" d="M2141.808,1155.669c0.671,77.979,5.868,260.408,9.696,264.119
			c40.615,39.206,219.269-10.749,228.741-53.942c9.46-43.193-35.996-553.828-105.371-574.22
			c-14.394-4.223-91.359,20.656-91.359,20.656s-12.065,31.576-19.985,71.808c-2.934,14.907-12.512,121.265-18.104,192.337
			c-1.474,18.945-2.684,35.378-3.395,46.903C2141.742,1128.093,2141.677,1139.696,2141.808,1155.669z"/>
		<path style="fill:#FCA56B;" d="M2253.002,743c-7.284,17.569-40.981,36.629-55.132,43.885c0.052-0.858,0.104-1.716,0.147-2.554
			c0.705-12.377,1.32-23.009,1.32-23.009l40.883-25.39C2249.839,734.44,2256.01,735.768,2253.002,743z"/>
		<path style="fill:#FFB27D;" d="M2184.222,763.054c0,0,73.976,6.878,77.55-39.257c3.574-46.134,15.529-76.317-31.552-82.659
			s-57.632,10.55-62.57,25.659C2162.711,681.905,2165.07,760.075,2184.222,763.054z"/>
		<path style="fill:#163560;" d="M2169.484,662.035c0,0,15.173,49.571,25.152,45.155c9.979-4.416,19.107-8.058,20.818,7.495
			c1.711,15.552-9.033,36.218,23.734,32.06c32.767-4.157,61.38-97.032,49.19-110.87
			C2253.209,595.948,2120.826,614.551,2169.484,662.035z"/>
		<path style="fill:#91CECF;" d="M2202.381,792.751c0.915-0.385,52.798-23.659,58.865-21.656
			c6.068,2.003,13.631,20.535,13.631,20.535l-91.357,20.654C2183.52,812.285,2190.71,797.665,2202.381,792.751z"/>
		<path style="fill:#91CECF;" d="M2141.808,1211.533c139.01-100.521,149.819-259.854,149.819-259.854
			c-66.139,37.312-128.944,98.986-149.324,166.782c-1.473,18.945,0.439,49.207-0.271,60.731
			C2141.742,1183.957,2141.677,1195.561,2141.808,1211.533z"/>
		<path style="fill:#FFB27D;" d="M2054.527,1160.102c0,0-1.743-1.388-5.638-1.705c-3.364-1.127-12.726-5.252-14.334-6.711
			c-5.085-4.612-6.863,0.299-3.316,5.196c0.769,1.061,3.521,2.869,4.479,3.881c-7.609,2.875-17.77,8.804-30.96,20.386
			c0,0-10.562,8.516,3.706,10.372c9.537,1.241,13.135-2.311,26.605-0.776c13.471,1.535,26.537-3.288,31.323-12.077l8.863-7.019
			l-7.554-17.794L2054.527,1160.102z"/>
		<path style="fill:#ABDDDA;" d="M2232.586,815.973c0,0,146.41-7.03,14.008,239.299c-21.176,39.396-172.482,124.999-172.482,124.999
			s-14.222-15.402-8.85-28.27c0,0,98.531-112.131,111.734-116.693c11.713-4.048,9.295-140.574,19.771-173.5
			C2207.245,828.882,2232.586,815.973,2232.586,815.973z"/>
	</g>
	<g>
		<g>
			<path style="opacity:0.5;fill:#C0D8FB;" d="M2059.358,1780.021l-106.137-0.032l-56.142-0.016
				c-21.788-0.01-39.605-17.844-39.603-39.643l0.123-392.189c0.001-21.788,17.828-39.616,39.624-39.604l49.789,0.017l112.49,0.031
				c21.788,0,39.605,17.835,39.604,39.633l-0.114,392.191C2098.982,1762.195,2081.156,1780.022,2059.358,1780.021z"/>
			<path style="fill:#AFCDFB;" d="M2081.867,1668.832l-2.815-20.642l0,0l-2.817-20.649c-0.718-5.264-3.531-9.765-7.478-12.764
				s-9.028-4.505-14.3-3.785c-0.583,0.079-1.152,0.194-1.715,0.323c1.93-2.792,3.026-5.941,3.325-9.142
				c3.583,8.592,13.002,13.615,22.332,11.383c10.35-2.477,16.786-12.962,14.31-23.311l-4.849-20.261l0,0l-4.85-20.269
				c-1.236-5.167-4.481-9.366-8.705-11.959c-4.225-2.594-9.431-3.588-14.604-2.351c-10.35,2.477-16.784,12.97-14.31,23.311
				l7.306,30.532c-1.107-1.591-2.468-3.042-4.086-4.279c-3.333-2.552-7.251-3.825-11.169-3.936c1.917-2.478,3.183-5.363,3.736-8.378
				c0.725-3.942,0.219-8.099-1.59-11.864c2.188-7.244,0.005-15.448-6.166-20.548l-32.122-26.549
				c-8.203-6.779-20.45-5.615-27.229,2.587c-6.271,7.587-5.732,18.625,0.871,25.604c-1.704-0.007-3.433,0.192-5.151,0.663
				l-20.102,5.5h-0.001l-20.094,5.498c-6.994,1.913-12.045,7.487-13.67,14.092l-2.11-5.053l0,0l-8.029-19.224
				c-4.102-9.819-15.482-14.493-25.301-10.392c-9.819,4.102-14.494,15.481-10.393,25.301l8.03,19.224l0,0l5.146,12.319
				c-6.818,2.717-11.824,9.205-12.218,16.985l-1.052,20.806l0,0l-1.053,20.814c-0.269,5.306,1.663,10.249,4.986,13.927
				c3.324,3.677,8.039,6.098,13.353,6.366c2.271,0.114,4.464-0.193,6.528-0.818c-2.003,4.02-2.559,8.658-1.536,13.07
				c-3.565,2.058-6.515,5.237-8.2,9.314l-7.957,19.253l0,0l-7.96,19.261c-2.029,4.91-1.864,10.215,0.036,14.793
				c1.9,4.577,5.533,8.437,10.451,10.469c7.671,3.171,16.259,0.976,21.601-4.801c1.261,2.979,3.27,5.684,6.01,7.781
				c8.45,6.469,20.646,4.849,27.113-3.602l12.663-16.543l0,0l12.668-16.548c1.719-2.247,2.849-4.764,3.447-7.366
				c4.404,0.442,8.978-0.598,12.887-3.294l3.318-2.288l-4.595,6.003l0,0l-12.663,16.542c-6.468,8.45-4.848,20.646,3.603,27.113
				c8.45,6.469,20.646,4.849,27.114-3.602l12.662-16.543l0,0l12.667-16.549c0.163-0.213,0.299-0.438,0.451-0.655
				c1.021,1.646,2.275,3.109,3.708,4.361l-4.51,5.891c-6.469,8.45-4.848,20.646,3.602,27.113c8.45,6.469,20.646,4.849,27.113-3.602
				l25.331-33.092c3.229-4.218,4.44-9.385,3.787-14.299c-0.652-4.913-3.164-9.58-7.39-12.814c-1.444-1.105-3.004-1.957-4.62-2.596
				c0.235-0.023,0.468-0.028,0.704-0.06C2075.862,1689.171,2083.306,1679.375,2081.867,1668.832z M1907.577,1650.375l0.358-7.098
				c1.222,2.063,2.833,3.934,4.846,5.474c0.755,0.578,1.549,1.069,2.357,1.519l-8.86,6.111
				C1907.011,1654.504,1907.471,1652.49,1907.577,1650.375z M2037.908,1632.77l3.787,27.76c-1.641-3.335-4.181-6.076-7.251-7.96
				c-3.74-2.296-8.251-3.331-12.828-2.681c1.979-1.205,3.779-2.77,5.267-4.713l10.873-14.204
				C2037.781,1631.568,2037.826,1632.167,2037.908,1632.77z M1993.918,1557.777l4.874,4.028l-5.016,3.46
				C1994.303,1562.854,1994.376,1560.318,1993.918,1557.777z M1998.122,1619.109c-0.496-3.008-1.686-5.81-3.426-8.209
				c1.439-0.541,2.841-1.241,4.161-2.151l15.242-10.512L1998.122,1619.109z M2010.772,1655.301
				c-4.085-3.412-9.386-4.969-14.58-4.398l0.412-5.208c0.92,1.122,1.966,2.165,3.165,3.083c4.282,3.278,9.525,4.471,14.499,3.757
				C2012.986,1653.321,2011.822,1654.257,2010.772,1655.301z M1971.81,1582.102c-4.249,6.398-4.465,15.021,0.146,21.707
				c0.084,0.122,0.182,0.229,0.269,0.35c-1.406,0.537-2.741,1.225-3.976,2.062c0.878-2.754,1.138-5.646,0.764-8.461
				c-0.652-4.914-3.165-9.58-7.39-12.814c-0.019-0.015-0.039-0.025-0.059-0.04L1971.81,1582.102z M1952.558,1628.606l7.46-9.745
				c-0.106,0.602-0.19,1.211-0.239,1.832l-1.414,17.893c-2.794-2.526-6.22-4.134-9.824-4.73L1952.558,1628.606L1952.558,1628.606z
				 M1917.636,1710.354l2.188-5.298c1.599-3.865,1.821-7.962,0.928-11.765c0.443-0.256,0.885-0.515,1.313-0.81l34.306-23.659
				c0.221-0.152,0.419-0.325,0.632-0.484c0.463,1.881,1.204,3.659,2.18,5.292l-6.107,4.212c-4.109,2.835-6.759,7.008-7.813,11.54
				c-6.446-0.626-13.074,1.96-17.276,7.451L1917.636,1710.354z M2008.637,1686.511l1.07,4.475c-1.725-0.773-3.527-1.277-5.357-1.518
				L2008.637,1686.511z M2049.491,1691.027l-1.491-6.23l0,0l-0.283-1.186c2.097,2.568,4.816,4.577,7.902,5.805
				C2053.511,1689.621,2051.437,1690.151,2049.491,1691.027z M1932.337,1591.385l-10.495,13.711l0,0l-12.662,16.542
				c-0.059,0.076-0.104,0.157-0.161,0.233l0.663-13.115c0.018-0.337,0.001-0.667,0-1c0.596-0.184,1.188-0.393,1.773-0.637
				c7.876-3.29,12.427-11.268,11.811-19.358C1925.915,1589.702,1929.035,1590.97,1932.337,1591.385z"/>
			<path style="opacity:0.5;fill:#AFCDFB;" d="M1953.222,1779.988l-56.142-0.016c-21.788-0.01-39.605-17.844-39.603-39.643
				l0.123-392.189c0.001-21.788,17.828-39.616,39.624-39.604l49.789,0.017c4.109,7.048,6.504,15.473,6.498,24.498l-0.131,442.979
				C1953.382,1777.366,1953.329,1778.686,1953.222,1779.988z"/>
			<path style="fill:#F99746;" d="M2096.504,1327.074l-150.739-0.046l-85.553-0.032c-4.243,0.007-7.702-3.465-7.699-7.707
				l0.01-36.933c0.001-4.232,3.466-7.702,7.707-7.699l85.433,0.024c0.009,0.001,0.009,0.001,0.018,0.002l150.844,0.043
				c4.232,0.001,7.701,3.465,7.699,7.707l-0.01,36.933C2104.21,1323.607,2100.746,1327.077,2096.504,1327.074z"/>
			<path style="fill:#EF7E29;" d="M1945.765,1327.028l-85.553-0.032c-4.243,0.007-7.702-3.465-7.699-7.707l0.01-36.933
				c0.001-4.232,3.466-7.702,7.707-7.699l85.433,0.024c0.009,0.001,0.009,0.001,0.018,0.002c4.223,0.01,7.683,3.473,7.682,7.705
				l-0.01,36.933C1953.345,1323.525,1949.95,1326.967,1945.765,1327.028z"/>
		</g>
	</g>
	<g>
		<path style="fill:#EF7E29;" d="M2651.712,1756.536c0,7.143-2.924,13.634-7.636,18.346s-11.203,7.636-18.346,7.636h-122.684
			c-14.285,0-25.973-11.696-25.973-25.981c0-7.143,2.924-13.634,7.627-18.346c4.712-4.702,11.203-7.627,18.346-7.627h122.684
			C2640.016,1730.563,2651.712,1742.251,2651.712,1756.536z"/>
		<path style="fill:#F99746;" d="M2588.424,1756.536c0,7.143-2.924,13.634-7.627,18.346c-4.713,4.712-11.203,7.636-18.346,7.636
			h-59.404c-14.285,0-25.973-11.696-25.973-25.981c0-7.143,2.924-13.634,7.627-18.346c4.712-4.702,11.203-7.627,18.346-7.627h59.404
			C2576.736,1730.563,2588.424,1742.251,2588.424,1756.536z"/>
		<path style="opacity:0.5;fill:#FFE2CC;" d="M2627.809,1744.518h-117.022c-2.024,0-3.682-1.657-3.682-3.682v-0.83
			c0-2.025,1.657-3.682,3.682-3.682h117.022c2.025,0,3.682,1.656,3.682,3.682v0.83
			C2631.49,1742.86,2629.834,1744.518,2627.809,1744.518z"/>
	</g>
	<g>
		<g>
			<g>
				<g>
					<path style="fill:#FCECDB;" d="M1532.219,1075.284v365.805c0,22.445-18.362,40.818-40.818,40.818h-217.427
						c-5.817,0-11.356-1.231-16.383-3.457c-14.352-6.34-24.436-20.732-24.436-37.361v-365.805c0-22.456,18.373-40.818,40.818-40.818
						h217.427C1513.857,1034.466,1532.219,1052.828,1532.219,1075.284z"/>
					<path style="fill:#F7E0CB;" d="M1435.904,1172.025c-22.981-8.629-34.602-34.245-25.977-57.214
						c8.625-22.97,34.233-34.606,57.214-25.978c22.969,8.625,34.602,34.245,25.977,57.214
						C1484.494,1169.018,1458.873,1180.649,1435.904,1172.025z"/>
					<path style="fill:#EFCBAB;" d="M1493.118,1146.048l-83.191-31.236c8.625-22.97,34.233-34.606,57.214-25.978
						C1490.11,1097.459,1501.743,1123.079,1493.118,1146.048z"/>
					<path style="fill:#F7E0CB;" d="M1285.755,1164.849c-19.016-15.524-21.836-43.511-6.321-62.517s43.5-21.845,62.516-6.321
						c19.006,15.516,21.837,43.511,6.321,62.517S1304.761,1180.364,1285.755,1164.849z"/>
					<path style="fill:#EFCBAB;" d="M1348.271,1158.527l-68.837-56.195c15.516-19.006,43.5-21.845,62.516-6.321
						C1360.957,1111.526,1363.787,1139.521,1348.271,1158.527z"/>
					<path style="fill:#F7E0CB;" d="M1435.904,1443.063c-22.981-8.629-34.602-34.245-25.977-57.214s34.233-34.605,57.214-25.977
						c22.969,8.624,34.602,34.244,25.977,57.214C1484.494,1440.056,1458.873,1451.688,1435.904,1443.063z"/>
					<path style="fill:#EFCBAB;" d="M1493.118,1420.106l-83.191-31.237c8.625-22.969,34.233-34.606,57.214-25.978
						C1490.11,1371.517,1501.743,1397.137,1493.118,1420.106z"/>
					<path style="fill:#F7E0CB;" d="M1285.755,1435.887c-19.016-15.523-21.836-43.511-6.321-62.517s43.5-21.845,62.516-6.32
						c19.006,15.516,21.837,43.511,6.321,62.517S1304.761,1451.402,1285.755,1435.887z"/>
					<path style="fill:#EFCBAB;" d="M1348.271,1432.585l-68.837-56.195c15.516-19.006,43.5-21.845,62.516-6.321
						C1360.957,1385.584,1363.787,1413.579,1348.271,1432.585z"/>
					<g>
						<path style="fill:#F7E0CB;" d="M1470.551,1311.145c-22.183,10.513-48.671,1.049-59.179-21.122
							c-10.508-22.171-1.061-48.665,21.122-59.179c22.171-10.508,48.671-1.049,59.179,21.122
							C1502.181,1274.137,1492.722,1300.637,1470.551,1311.145z"/>
						<path style="fill:#EFCBAB;" d="M1491.673,1251.966l-80.3,38.057c-10.508-22.171-1.061-48.665,21.122-59.179
							C1454.665,1220.336,1481.166,1229.795,1491.673,1251.966z"/>
					</g>
					<path style="fill:#F7E0CB;" d="M1272.603,1254.484c9.122-22.79,34.982-33.856,57.76-24.74
						c22.778,9.117,33.861,34.971,24.74,57.76c-9.117,22.778-34.982,33.857-57.76,24.74
						C1274.564,1303.127,1263.486,1277.263,1272.603,1254.484z"/>
					<path style="fill:#EFCBAB;" d="M1297.343,1312.244l33.02-82.5c22.778,9.117,33.861,34.971,24.74,57.76
						C1345.986,1310.282,1320.121,1321.361,1297.343,1312.244z"/>
				</g>
			</g>
			<path style="opacity:0.5;fill:#EFCBAB;" d="M1532.219,1125.346v318.32c0,21.028-16.802,38.241-37.351,38.241h-198.956
				c-5.322,0-10.391-1.153-14.991-3.239v-309.256c0-12.648,5.275-24.095,13.686-32.148c3.107-2.979,6.646-5.498,10.514-7.439
				c5.698-2.863,12.09-4.479,18.839-4.479H1532.219z"/>
		</g>
		<g>
			<g>
				<path style="fill:#FCECDB;" d="M1288.024,1534.025V1168.22c0-22.45,18.368-40.818,40.818-40.818h217.428
					c22.45,0,40.818,18.368,40.818,40.818v365.806c0,22.45-18.368,40.818-40.818,40.818h-217.428
					C1306.392,1574.844,1288.024,1556.476,1288.024,1534.025z"/>
				<path style="fill:#F7E0CB;" d="M1490.772,1264.964c-22.981-8.629-34.602-34.245-25.977-57.214s34.233-34.606,57.214-25.978
					c22.969,8.625,34.602,34.245,25.977,57.214C1539.362,1261.956,1513.742,1273.588,1490.772,1264.964z"/>
				<path style="fill:#EFCBAB;" d="M1547.986,1238.986l-83.191-31.236c8.625-22.969,34.233-34.606,57.214-25.978
					C1544.979,1190.397,1556.611,1216.018,1547.986,1238.986z"/>
				<path style="fill:#F7E0CB;" d="M1340.623,1257.787c-19.016-15.523-21.836-43.511-6.321-62.517s43.5-21.845,62.517-6.321
					c19.006,15.516,21.836,43.511,6.321,62.517S1359.629,1273.303,1340.623,1257.787z"/>
				<path style="fill:#EFCBAB;" d="M1403.14,1251.466l-68.837-56.195c15.516-19.006,43.5-21.845,62.517-6.321
					C1415.825,1204.465,1418.655,1232.46,1403.14,1251.466z"/>
				<path style="fill:#F7E0CB;" d="M1490.772,1536.002c-22.981-8.629-34.602-34.244-25.977-57.214
					c8.625-22.969,34.233-34.605,57.214-25.977c22.969,8.624,34.602,34.245,25.977,57.214
					C1539.362,1532.994,1513.742,1544.627,1490.772,1536.002z"/>
				<path style="fill:#EFCBAB;" d="M1547.986,1513.045l-83.191-31.237c8.625-22.969,34.233-34.606,57.214-25.978
					C1544.979,1464.455,1556.611,1490.075,1547.986,1513.045z"/>
				
					<ellipse transform="matrix(0.409 -0.9125 0.9125 0.409 -554.7961 2132.1614)" style="fill:#F7E0CB;" cx="1368.721" cy="1494.407" rx="44.431" ry="44.431"/>
				<path style="fill:#EFCBAB;" d="M1403.14,1525.523l-68.837-56.195c15.516-19.006,43.5-21.845,62.517-6.32
					C1415.825,1478.523,1418.655,1506.518,1403.14,1525.523z"/>
				<g>
					<path style="fill:#F7E0CB;" d="M1525.419,1404.083c-22.182,10.513-48.671,1.05-59.179-21.122
						c-10.507-22.17-1.061-48.665,21.122-59.179c22.171-10.507,48.671-1.049,59.179,21.122
						C1557.049,1367.075,1547.59,1393.575,1525.419,1404.083z"/>
					<path style="fill:#EFCBAB;" d="M1546.541,1344.904l-80.3,38.057c-10.507-22.17-1.061-48.665,21.122-59.179
						C1509.533,1313.275,1536.034,1322.733,1546.541,1344.904z"/>
				</g>
				<path style="fill:#F7E0CB;" d="M1327.471,1347.423c9.122-22.79,34.981-33.856,57.76-24.739
					c22.778,9.116,33.861,34.969,24.74,57.759c-9.117,22.778-34.981,33.857-57.76,24.74
					C1329.433,1396.066,1318.354,1370.201,1327.471,1347.423z"/>
				<path style="fill:#EFCBAB;" d="M1352.211,1405.183l33.02-82.499c22.778,9.116,33.861,34.969,24.74,57.759
					C1400.854,1403.221,1374.989,1414.3,1352.211,1405.183z"/>
			</g>
		</g>
		<g>
			<rect x="1211.942" y="1273.315" style="fill:#EF7E29;" width="341.492" height="509.635"/>
			<rect x="1259.51" y="1273.313" style="fill:#F99746;" width="341.492" height="509.638"/>
			<polygon style="fill:#D8661A;" points="1259.51,1302.888 1243.144,1328.339 1211.942,1328.339 1211.942,1273.315 
				1259.506,1273.315 			"/>
			<polygon style="fill:#F99746;" points="1230.336,1313.464 1182.772,1313.464 1211.942,1273.315 1259.506,1273.315 			"/>
			<polygon style="opacity:0.5;fill:#EFCBAB;" points="1435.638,1784.575 1259.51,1784.575 1259.51,1296.538 1435.638,1313.464 			
				"/>
			<polygon style="fill:#EF7E29;" points="1601.002,1313.464 1573.294,1328.339 1275.971,1328.339 1259.51,1302.888 
				1259.51,1273.313 			"/>
			<polygon style="fill:#F99746;" points="1625.122,1313.464 1283.63,1313.464 1259.506,1273.315 1600.998,1273.315 			"/>
		</g>
	</g>
	<g>
		<path style="fill:#ED985F;" d="M875.203,1142.299c-9.039-29.024-48.344-34.465-64.159-8.504
			c-2.844,4.668-4.643,10.034-4.801,16.179c-0.871,34.029,66.242,165.747,75.15,177.398
			c16.218,21.212,114.109,72.222,114.109,72.222l20.802-3.031c0,0-11.761-7.392-23.938-19.548
			c-25.152-25.109-61.818-65.932-68.535-71.586C912.305,1295.725,892.365,1197.404,875.203,1142.299z"/>
		<g>
			<g>
				<path style="fill:#FCECDB;" d="M1457.342,1781.754h-446.594c-27.647,0-50.268-22.621-50.268-50.269v-270.392
					c0-27.647,22.621-50.268,50.268-50.268h446.594c27.648,0,50.269,22.62,50.269,50.268v270.392
					C1507.611,1759.133,1484.99,1781.754,1457.342,1781.754z"/>
				<path style="fill:#F7E0CB;" d="M1128.691,1530.286c-10.552,28.503-41.875,42.916-69.961,32.219
					c-28.086-10.696-42.316-42.459-31.765-70.962c10.546-28.488,41.875-42.916,69.961-32.22
					C1125.013,1470.021,1139.237,1501.797,1128.691,1530.286z"/>
				<path style="fill:#EFCBAB;" d="M1096.926,1459.323l-38.196,103.182c-28.086-10.696-42.316-42.459-31.765-70.962
					C1037.511,1463.055,1068.84,1448.627,1096.926,1459.323z"/>
				<path style="fill:#F7E0CB;" d="M1119.916,1716.516c-18.982,23.585-53.205,27.083-76.445,7.839
					c-23.241-19.243-26.711-53.953-7.729-77.538c18.973-23.573,53.205-27.084,76.445-7.84
					C1135.427,1658.221,1138.888,1692.942,1119.916,1716.516z"/>
				<path style="fill:#EFCBAB;" d="M1112.186,1638.977l-68.715,85.378c-23.241-19.243-26.711-53.953-7.729-77.538
					C1054.714,1623.243,1088.946,1619.732,1112.186,1638.977z"/>
				<path style="fill:#F7E0CB;" d="M1460.116,1530.286c-10.551,28.503-41.875,42.916-69.961,32.219
					c-28.086-10.696-42.316-42.459-31.765-70.962c10.546-28.488,41.875-42.916,69.961-32.22
					C1456.438,1470.021,1470.662,1501.797,1460.116,1530.286z"/>
				<path style="fill:#EFCBAB;" d="M1428.364,1459.323l-38.196,103.182c-28.086-10.696-42.316-42.459-31.765-70.962
					C1368.949,1463.055,1400.277,1448.627,1428.364,1459.323z"/>
				<path style="fill:#F7E0CB;" d="M1451.337,1716.514c-18.327,22.775-50.866,26.821-74.009,9.721
					c-0.828-0.585-1.63-1.221-2.434-1.883c-23.244-19.238-26.706-53.947-7.727-77.537c18.966-23.576,53.199-27.088,76.442-7.837
					c0.791,0.661,1.556,1.323,2.309,2.022C1467.067,1660.569,1469.664,1693.739,1451.337,1716.514z"/>
				<path style="fill:#EFCBAB;" d="M1445.918,1641l-68.59,85.234c-0.828-0.585-1.63-1.221-2.434-1.883
					c-23.244-19.238-26.706-53.947-7.727-77.537c18.966-23.576,53.199-27.088,76.442-7.837
					C1444.4,1639.639,1445.165,1640.301,1445.918,1641z"/>
				<g>
					<path style="fill:#F7E0CB;" d="M1298.806,1487.313c12.855,27.513,1.283,60.366-25.828,73.399
						c-27.111,13.032-59.508,1.315-72.364-26.197c-12.849-27.499-1.283-60.367,25.828-73.399
						C1253.553,1448.084,1285.957,1459.814,1298.806,1487.313z"/>
					<path style="fill:#EFCBAB;" d="M1226.442,1461.116l46.536,99.597c-27.111,13.032-59.508,1.315-72.364-26.197
						C1187.766,1507.017,1199.332,1474.148,1226.442,1461.116z"/>
				</g>
				<path style="fill:#F7E0CB;" d="M1229.521,1732.828c-27.867-11.314-41.399-43.389-30.251-71.64
					c11.148-28.252,42.761-41.998,70.628-30.685c27.853,11.308,41.399,43.388,30.251,71.639
					C1289.002,1730.395,1257.375,1744.135,1229.521,1732.828z"/>
				<path style="fill:#EFCBAB;" d="M1300.15,1702.143l-100.88-40.954c11.148-28.252,42.761-41.998,70.628-30.685
					C1297.751,1641.812,1311.298,1673.892,1300.15,1702.143z"/>
			</g>
		</g>
		<path style="fill:#B5453C;" d="M903.616,975.81c0.544-2.185-47.485,21.706-49.921,24.408
			c-22.525,24.986-16.102,57.591-3.213,57.905c8.266,0.201,6.664,13.943,6.664,13.943l92.088-38.956
			C949.234,1033.11,938.146,968.454,903.616,975.81z"/>
		<path style="fill:#B5453C;" d="M914.955,980.854c0,0,3.291-35.874-36.791-35.874c0,0,12.146,3.294,18.428,9.884
			c0,0-25.565-15.009-53.385,8.053s-10.535,80.899-18.995,91.882c-8.46,10.981-41.406,13.178-37.379,48.687
			c4.027,35.508,104.561,79.981,98.105,109.359c0,0,39.398-57.915,11.226-84.346c0,0,13.731,12.935,15.13,28.31
			c0,0,3.726-30.018-15.375-39.619c-16.903-8.496-30.75-39.569-29.285-45.123C868.099,1066.513,914.955,980.854,914.955,980.854z"/>
		<path style="fill:#2B478B;" d="M802.368,1756.541l-19.928-2.929c0,0-67.004-53.247-76.983-152.604
			c-1.018-10.11-1.23-20.375-0.476-30.72c0.088-1.193-0.044-2.387-0.695-3.39c0-0.008-0.007-0.015-0.022-0.029
			c-2.145-3.287-7.482-11.523-14.708-23.238c-7.124-11.538-19.313-33.355-32.726-57.838c-24.16-44.088-52.288-96.815-61.938-113.61
			c-30.742-53.526-15.924-89.518-15.924-89.518s85.761-8.478,109.262-29.036l8.463,13.047c0,0,18.582,82.262,17.703,82.643
			c0.915,2.797,1.845,5.645,2.789,8.543c14.665,45.261,31.533,101.832,40.728,147.904c5.169,25.925,7.907,48.511,6.435,63.9
			c-0.505,5.278,0.11,13.391,1.516,23.405C774.167,1652.11,802.368,1756.541,802.368,1756.541z"/>
		<path style="fill:#233862;" d="M844.17,1781.754h-83.14c0,0-1.993-12.672,2.35-22.284c4.161-9.225,10.092-9.519,0.758-23.978
			c5.283,5.439,22.266,7.689,34.285,6.072c1.473,2.388,9.495,18.406,14.414,21.94
			C818.269,1767.409,842.497,1766.018,844.17,1781.754z"/>
		<path style="fill:#233862;" d="M717.185,1357.861c-7.263,40.055-24.416,106.715-60.356,127.932
			c-24.16-44.088-52.288-96.815-61.938-113.61c-30.742-53.526-15.924-89.518-15.924-89.518s85.761-8.478,109.262-29.036
			l8.463,13.047c0,0,18.582,82.262,17.703,82.643C715.311,1352.115,716.241,1354.963,717.185,1357.861z"/>
		<path style="fill:#2B478B;" d="M658.876,1288.851l0.282-15.55c-30.981,3.907-106.823-37.021-106.823-37.021
			s-32.412,21.558-36.849,83.121c-2.165,30.049-15.867,157.13-17.382,195.076c-0.553,13.754-0.736,23.569-0.799,27.491
			c0.007,0.02,0.005,0.029,0.004,0.038c-0.019,1.197-0.58,2.254-1.317,3.201c-6.41,8.147-11.972,16.779-16.787,25.732
			c-47.275,87.957-22.553,207.473-22.553,207.473l10.978-2.791c0,0,39.974-123.896,66.099-177.489
			c4.434-9.09,8.462-16.159,11.831-20.254c9.823-11.93,20.181-32.192,30.391-56.575c19.299-46.101,38.036-106.933,51.398-154.034
			C628.292,1367.44,658.876,1288.851,658.876,1288.851z"/>
		<path style="fill:#FFB27D;" d="M840.176,1185.069c-50.647-11.623-18.291-82.793-15.355-81.541
			c7.017-1.43,22.429-13.751,36.216-37.815l1.862,1.615l31.107,27.273c0,0-7.191,10.607-13.24,20.996
			c-4.726,8.134-8.745,16.148-8.106,18.899C875.165,1136.466,853.685,1188.174,840.176,1185.069z"/>
		<path style="fill:#91CECF;" d="M872.154,1132.203c0,0,8.905,17.573,13.656,32.795c4.751,15.223,16.638,63.635,16.638,63.635
			s-24.516,27.977-58.62,26.344c0,0-18.338-28.705-11.875-54.627S872.154,1132.203,872.154,1132.203z"/>
		<path style="fill:#ED985F;" d="M894.006,1094.608c0,0-7.193,10.595-13.239,20.997c-19.34-11.922-19.361-35.866-17.871-48.27
			L894.006,1094.608z"/>
		<path style="fill:#FFB27D;" d="M894.869,1108.269c0,0-46.959-26.131-30.237-55.124c16.723-28.993,21.924-51.893,52.613-36.435
			c30.69,15.457,30.083,29.852,26.854,40.886C940.872,1068.631,907.515,1114.318,894.869,1108.269z"/>
		<path style="fill:#B5453C;" d="M952.032,1040.686c-2.15-12.873-8.69-14.102-13.25-13.242
			c-17.343-28.68-45.675-17.487-45.675-17.487c-15.133,18.991-37.012,22.231-37.012,22.231s5.45,10.14,27.902,16.416
			c6.858,1.917,14.643,0.756,22.149-1.771c-15.577,8.685-31.867,12.012-31.867,12.012c29.588,2.708,57.739-24.342,60.659-27.235
			c1.365,4.191,3.759,12.968,2.326,19.384c-1.948,8.72-9.688,24.512-4.962,26.555
			C932.302,1077.548,955.258,1059.991,952.032,1040.686z"/>
		<path style="fill:#233862;" d="M522.767,1781.754h-83.141c0,0-1.993-12.672,2.35-22.284c4.161-9.225,10.679-13.417,9.118-24.578
			c5.283,5.439,13.893,11.53,25.913,9.913c1.473,2.389,9.507,15.166,14.426,18.7
			C496.867,1767.409,521.094,1766.018,522.767,1781.754z"/>
		<path style="fill:#ABDDDA;" d="M846.138,1241.491c-10.699,3.729-25.709,5.782-41.067,7.447
			c-21.863,2.388-44.436,4.014-56.258,8.737c-2.31,0.916-9.034,3.729-15.771,8.608v0.013c0,0-0.168,0.104-0.465,0.349
			c-2.232,1.626-4.465,3.51-6.518,5.627c-3.136,3.227-5.873,6.995-7.627,11.318c-4.336,10.712,1.407,40.409,5.085,56.646
			c1.484,6.53-1.6,13.28-7.55,16.365c-8.311,4.298-16.481,8.272-24.509,11.899c-0.426,0.193-0.839,0.374-1.265,0.567
			c0.077-1.651,0.104-3.291,0.104-4.891c0.013-11.203-1.407-20.521-1.407-20.521c-1.975,11.306-9.421,23.516-16.365,32.911
			c-111.574,44.771-189.527,25.309-188.249,3.007c4.401-77.437,56.619-143.297,56.619-143.297
			c97.39-113.252,294.39-143.065,294.39-143.065s9.434-1.136,20.817,12.545c16.378,19.708,17.191,24.845,17.191,24.845
			S877.616,1230.508,846.138,1241.491z"/>
		<path style="fill:#91CECF;" d="M805.063,1248.937c-21.861,2.387-44.433,4.019-56.256,8.734
			c-4.832-72.202,29.241-126.512,29.241-126.512S800.274,1221.613,805.063,1248.937z"/>
		<path style="fill:#FFB27D;" d="M828.023,1117.189c0,0-54.791,5.414-59.184,41.016c-4.393,35.602,52.53,180.609,60.682,193.74
			c14.841,23.904,102.231,105.844,102.231,105.844l16.107-9.762c0,0-61.987-104.938-71.585-114.758
			C861.207,1317.852,846.575,1129.522,828.023,1117.189z"/>
		<path style="fill:#ABDDDA;" d="M856.095,1185.204c0,0,5.628-91.794-64.631-69.599c-70.259,22.195,10.904,180.081,10.904,180.081
			s41.236-2.036,55.86-38.016L856.095,1185.204z"/>
		<path style="fill:#91CECF;" d="M723.516,1340.236c1.484,6.53-1.6,13.28-7.55,16.365c-8.311,4.298-16.481,8.272-24.509,11.899
			c-0.426-1.368-0.813-2.801-1.161-4.323c-1.265-5.653-1.846-12.416-1.407-20.521c1.859-34.278,25.206-60.232,37.17-71.384
			c-3.136,3.227-5.873,6.995-7.627,11.318C714.095,1294.303,719.838,1324,723.516,1340.236z"/>
		<path style="fill:#91CECF;" d="M835.284,1093.212c0,0,8.577-10.843,14.375-10.493c0,0,23.445,32.821,23.634,47.883
			C873.292,1130.602,844.05,1091.689,835.284,1093.212z"/>
		<path style="fill:#ED985F;" d="M1060.208,1410.82c0,0-12.466,0.223-15.157-0.164c-2.64-0.381-6.172-1.529-9.722-1.654
			c-3.49-0.129-6.698,1.003-9.977,1.676c-0.488,0.101-0.986,0.143-1.485,0.143h-20.676c0,0-2.074-0.99-4.344-4.641
			c-0.979-1.581-1.112-5.344-3.345-6.586c-12.519-6.987,20.802-3.031,20.802-3.031s20.919-0.381,22.851,1.062
			C1042.593,1400.209,1060.986,1409.83,1060.208,1410.82z"/>
		<path style="fill:#ED985F;" d="M1003.194,1410.826c0,0,12.693,3.664,16.142,6.016l3.643,2.3c0,0,2.107-2.353-1.212-4.966
			c-1.751-1.378-6.585-5.409-6.742-10.035C1014.867,1399.516,1000.536,1403.556,1003.194,1410.826z"/>
		<path style="fill:#FFB27D;" d="M947.859,1448.027c0,0,9.071,8.06,15.97,9.762c6.899,1.702,14.739,21.459,15.994,24.281
			c1.254,2.822-6.585-1.255-9.722-6.063c-3.136-4.809-5.278-6.69-6.193-5.646c-0.915,1.046,0.548,14.217,5.775,21.534
			c5.227,7.317,8.363,13.798,4.599,13.38c-3.763-0.418-26.133-5.854-30.732-19.443c-4.6-13.589-1.226-14.065-11.798-28.044
			C921.18,1443.812,947.859,1448.027,947.859,1448.027z"/>
	</g>
	<g>
		<g>
			<path style="fill:#2B478B;" d="M1948.54,1752.569c0,7.866-3.221,15.015-8.409,20.204c-5.189,5.189-12.338,8.41-20.205,8.41
				h-135.114c-15.733,0-28.604-12.881-28.604-28.614c0-7.866,3.221-15.015,8.4-20.204c5.188-5.18,12.338-8.399,20.204-8.399h135.114
				C1935.659,1723.966,1948.54,1736.837,1948.54,1752.569z"/>
			<path style="fill:#699FF0;" d="M1878.839,1752.569c0,7.866-3.221,15.015-8.399,20.204c-5.189,5.189-12.338,8.41-20.205,8.41
				h-65.423c-15.733,0-28.604-12.881-28.604-28.614c0-7.866,3.221-15.015,8.4-20.204c5.188-5.18,12.338-8.399,20.204-8.399h65.423
				C1865.968,1723.966,1878.839,1736.837,1878.839,1752.569z"/>
			<path style="opacity:0.4;fill:#E9F3FE;" d="M1922.215,1739.333h-128.88c-2.229,0-4.055-1.824-4.055-4.055v-0.914
				c0-2.23,1.825-4.055,4.055-4.055h128.88c2.23,0,4.055,1.824,4.055,4.055v0.914
				C1926.27,1737.509,1924.445,1739.333,1922.215,1739.333z"/>
		</g>
		<g>
			<path style="fill:#EF7E29;" d="M1833.242,1671.529c3.736,7.456,4.08,15.762,1.626,23.145c-2.454,7.384-7.7,13.831-15.155,17.567
				l-128.065,64.177c-14.911,7.473-33.229,1.377-40.702-13.534c-3.736-7.456-4.079-15.761-1.635-23.14
				c2.458-7.374,7.704-13.822,15.16-17.559l128.064-64.177C1807.447,1650.536,1825.77,1656.618,1833.242,1671.529z"/>
			<path style="fill:#F99746;" d="M1767.178,1704.636c3.736,7.456,4.08,15.762,1.636,23.14c-2.454,7.384-7.7,13.831-15.156,17.567
				l-62.01,31.075c-14.911,7.473-33.229,1.377-40.702-13.534c-3.736-7.456-4.079-15.761-1.635-23.14
				c2.458-7.374,7.704-13.822,15.16-17.559l62.01-31.074C1741.393,1683.639,1759.705,1689.725,1767.178,1704.636z"/>
			<path style="opacity:0.5;fill:#FFE2CC;" d="M1802.004,1671.487l-122.155,61.216c-2.113,1.059-4.71,0.196-5.769-1.918
				l-0.435-0.866c-1.06-2.114-0.196-4.71,1.917-5.769l122.155-61.216c2.114-1.06,4.71-0.196,5.769,1.917l0.435,0.867
				C1804.98,1667.832,1804.117,1670.428,1802.004,1671.487z"/>
		</g>
	</g>
	<path style="fill:#2E3552;" d="M3034.937,1787.764H196.134c-1.724,0-3.134-1.41-3.134-3.134v-0.866c0-1.724,1.41-3.134,3.134-3.134
		h2838.802c1.724,0,3.134,1.41,3.134,3.134v0.866C3038.07,1786.354,3036.66,1787.764,3034.937,1787.764z"/>
</g>
</svg>
