<?xml version="1.0" encoding="utf-8"?>
<!-- Generator: Adobe Illustrator 27.5.0, SVG Export Plug-In . SVG Version: 6.00 Build 0)  -->
<svg version="1.1" id="Ñëîé_1" xmlns="http://www.w3.org/2000/svg" xmlns:xlink="http://www.w3.org/1999/xlink" x="0px" y="0px"
	 viewBox="0 0 2655.205 2200" style="enable-background:new 0 0 2655.205 2200;" xml:space="preserve">
<rect style="fill:#FFFFFF;" width="2655.205" height="2200"/>
<g>
	<path style="fill:#322A28;" d="M1028.555,298.98h32.293c7.818,0,15.249,0.877,22.288,2.624c7.037,1.749,13.179,4.577,18.423,8.486
		c5.244,3.913,9.405,8.995,12.489,15.249c3.082,6.258,4.623,13.849,4.623,22.771c0,7.914-1.497,14.884-4.484,20.909
		c-2.991,6.025-7.018,11.086-12.075,15.18c-5.061,4.094-10.904,7.198-17.527,9.315c-6.625,2.118-13.572,3.174-20.84,3.174h-35.19
		V298.98z M1050.083,376.815h11.179c4.969,0,9.592-0.506,13.87-1.518c4.278-1.012,7.979-2.691,11.109-5.038
		c3.126-2.345,5.588-5.427,7.383-9.245c1.793-3.817,2.691-8.487,2.691-14.008c0-4.782-0.898-8.945-2.691-12.489
		c-1.795-3.542-4.209-6.462-7.247-8.762c-3.036-2.299-6.602-4.024-10.694-5.177c-4.096-1.148-8.397-1.724-12.904-1.724h-12.696
		V376.815z"/>
	<path style="fill:#322A28;" d="M1172.766,388.269h-0.275c-2.301,3.588-5.361,6.165-9.178,7.728
		c-3.819,1.564-7.845,2.347-12.075,2.347c-3.128,0-6.141-0.439-9.04-1.312c-2.897-0.873-5.45-2.183-7.658-3.932
		c-2.208-1.747-3.957-3.909-5.244-6.487c-1.291-2.574-1.933-5.565-1.933-8.97c0-3.865,0.712-7.129,2.139-9.797
		c1.426-2.668,3.359-4.877,5.796-6.625c2.437-1.747,5.221-3.105,8.349-4.07c3.128-0.966,6.371-1.678,9.73-2.139
		c3.357-0.46,6.716-0.735,10.075-0.827c3.357-0.09,6.462-0.139,9.315-0.139c0-3.678-1.31-6.6-3.932-8.762
		c-2.622-2.162-5.727-3.243-9.317-3.243c-3.405,0-6.51,0.714-9.315,2.139c-2.807,1.427-5.313,3.38-7.522,5.865l-11.04-11.317
		c3.865-3.588,8.372-6.279,13.526-8.074c5.15-1.793,10.488-2.691,16.007-2.691c6.073,0,11.061,0.76,14.974,2.278
		c3.909,1.518,7.037,3.749,9.384,6.693c2.347,2.947,3.978,6.556,4.9,10.834c0.918,4.278,1.379,9.224,1.379,14.836v34.086h-19.045
		V388.269z M1167.66,367.293c-1.566,0-3.518,0.069-5.865,0.206c-2.347,0.138-4.601,0.531-6.762,1.173
		c-2.162,0.644-4.003,1.61-5.521,2.899c-1.518,1.289-2.276,3.084-2.276,5.381c0,2.485,1.056,4.326,3.174,5.521
		c2.114,1.197,4.323,1.795,6.623,1.795c2.022,0,3.978-0.277,5.865-0.829c1.885-0.552,3.565-1.333,5.036-2.345
		c1.472-1.012,2.645-2.299,3.52-3.865c0.873-1.564,1.31-3.403,1.31-5.521v-4.415H1167.66z"/>
	<path style="fill:#322A28;" d="M1250.46,346.178h-18.216v22.355c0,1.843,0.09,3.52,0.275,5.038c0.185,1.518,0.598,2.83,1.243,3.932
		c0.642,1.104,1.633,1.956,2.966,2.555c1.333,0.598,3.107,0.896,5.313,0.896c1.104,0,2.555-0.115,4.348-0.344
		c1.795-0.229,3.151-0.76,4.071-1.587v17.25c-2.301,0.827-4.692,1.379-7.175,1.656c-2.484,0.275-4.923,0.414-7.314,0.414
		c-3.497,0-6.718-0.369-9.661-1.104c-2.945-0.735-5.519-1.908-7.728-3.518c-2.208-1.61-3.934-3.703-5.175-6.279
		c-1.243-2.576-1.864-5.704-1.864-9.386v-31.878h-13.248v-16.561h13.248v-19.872h20.701v19.872h18.216V346.178z"/>
	<path style="fill:#322A28;" d="M1303.039,388.269h-0.275c-2.301,3.588-5.361,6.165-9.178,7.728
		c-3.818,1.564-7.845,2.347-12.075,2.347c-3.128,0-6.14-0.439-9.04-1.312c-2.897-0.873-5.45-2.183-7.658-3.932
		c-2.208-1.747-3.957-3.909-5.244-6.487c-1.291-2.574-1.933-5.565-1.933-8.97c0-3.865,0.712-7.129,2.139-9.797
		c1.425-2.668,3.359-4.877,5.796-6.625c2.437-1.747,5.221-3.105,8.349-4.07s6.371-1.678,9.73-2.139
		c3.357-0.46,6.716-0.735,10.074-0.827c3.357-0.09,6.462-0.139,9.315-0.139c0-3.678-1.31-6.6-3.932-8.762
		c-2.622-2.162-5.727-3.243-9.317-3.243c-3.405,0-6.51,0.714-9.315,2.139c-2.807,1.427-5.313,3.38-7.522,5.865l-11.04-11.317
		c3.865-3.588,8.372-6.279,13.526-8.074c5.15-1.793,10.488-2.691,16.007-2.691c6.073,0,11.061,0.76,14.974,2.278
		c3.909,1.518,7.037,3.749,9.384,6.693c2.347,2.947,3.978,6.556,4.9,10.834c0.918,4.278,1.379,9.224,1.379,14.836v34.086h-19.045
		V388.269z M1297.933,367.293c-1.566,0-3.518,0.069-5.865,0.206c-2.347,0.138-4.601,0.531-6.762,1.173
		c-2.162,0.644-4.003,1.61-5.521,2.899c-1.518,1.289-2.276,3.084-2.276,5.381c0,2.485,1.056,4.326,3.174,5.521
		c2.114,1.197,4.323,1.795,6.623,1.795c2.022,0,3.978-0.277,5.865-0.829c1.885-0.552,3.565-1.333,5.036-2.345
		c1.472-1.012,2.645-2.299,3.52-3.865c0.873-1.564,1.31-3.403,1.31-5.521v-4.415H1297.933z"/>
	<path style="fill:#322A28;" d="M1336.984,292.357h20.701v44.438h0.277c2.391-3.22,5.45-5.496,9.176-6.831
		c3.726-1.333,7.751-2.003,12.075-2.003c4.782,0,9.061,0.991,12.835,2.968c3.771,1.98,6.97,4.623,9.592,7.935
		c2.622,3.311,4.644,7.106,6.071,11.385c1.425,4.278,2.139,8.764,2.139,13.456c0,5.059-0.783,9.707-2.345,13.937
		c-1.566,4.232-3.796,7.891-6.695,10.971c-2.897,3.084-6.371,5.475-10.419,7.177c-4.049,1.701-8.557,2.553-13.524,2.553
		c-2.393,0-4.648-0.323-6.762-0.966c-2.118-0.644-4.073-1.472-5.865-2.485c-1.795-1.01-3.361-2.139-4.692-3.38
		c-1.335-1.243-2.416-2.46-3.243-3.657h-0.277v8.832h-19.045V292.357z M1356.029,363.153c0,5.059,1.451,9.155,4.348,12.281
		c2.899,3.13,6.97,4.692,12.214,4.692c5.244,0,9.315-1.562,12.214-4.692c2.897-3.126,4.346-7.222,4.346-12.281
		c0-5.059-1.449-9.155-4.346-12.283c-2.899-3.126-6.97-4.692-12.214-4.692c-5.244,0-9.315,1.566-12.214,4.692
		C1357.48,353.998,1356.029,358.094,1356.029,363.153z"/>
	<path style="fill:#322A28;" d="M1464.084,388.269h-0.275c-2.301,3.588-5.361,6.165-9.178,7.728
		c-3.818,1.564-7.845,2.347-12.075,2.347c-3.128,0-6.141-0.439-9.039-1.312c-2.897-0.873-5.45-2.183-7.658-3.932
		c-2.208-1.747-3.957-3.909-5.244-6.487c-1.291-2.574-1.933-5.565-1.933-8.97c0-3.865,0.712-7.129,2.139-9.797
		c1.425-2.668,3.359-4.877,5.796-6.625c2.437-1.747,5.221-3.105,8.349-4.07c3.128-0.966,6.371-1.678,9.73-2.139
		c3.357-0.46,6.716-0.735,10.074-0.827c3.357-0.09,6.462-0.139,9.315-0.139c0-3.678-1.31-6.6-3.932-8.762
		c-2.622-2.162-5.727-3.243-9.317-3.243c-3.405,0-6.51,0.714-9.314,2.139c-2.807,1.427-5.313,3.38-7.522,5.865l-11.04-11.317
		c3.865-3.588,8.372-6.279,13.526-8.074c5.15-1.793,10.488-2.691,16.007-2.691c6.073,0,11.061,0.76,14.974,2.278
		c3.909,1.518,7.037,3.749,9.384,6.693c2.347,2.947,3.978,6.556,4.9,10.834c0.918,4.278,1.379,9.224,1.379,14.836v34.086h-19.045
		V388.269z M1458.978,367.293c-1.566,0-3.518,0.069-5.865,0.206c-2.347,0.138-4.602,0.531-6.762,1.173
		c-2.162,0.644-4.003,1.61-5.521,2.899c-1.518,1.289-2.276,3.084-2.276,5.381c0,2.485,1.056,4.326,3.174,5.521
		c2.114,1.197,4.323,1.795,6.623,1.795c2.022,0,3.978-0.277,5.865-0.829c1.885-0.552,3.565-1.333,5.036-2.345
		c1.472-1.012,2.645-2.299,3.52-3.865c0.873-1.564,1.31-3.403,1.31-5.521v-4.415H1458.978z"/>
	<path style="fill:#322A28;" d="M1534.051,349.352c-3.036-3.772-7.039-5.658-12.006-5.658c-1.749,0-3.451,0.414-5.105,1.241
		c-1.656,0.829-2.485,2.257-2.485,4.278c0,1.656,0.85,2.876,2.553,3.657c1.702,0.783,3.865,1.474,6.487,2.07
		c2.622,0.6,5.427,1.243,8.418,1.933c2.99,0.689,5.796,1.772,8.418,3.241c2.622,1.474,4.782,3.474,6.487,6.004
		c1.701,2.532,2.553,5.914,2.553,10.144c0,4.324-0.944,7.889-2.83,10.694c-1.885,2.809-4.301,5.061-7.245,6.764
		c-2.945,1.702-6.258,2.897-9.936,3.588c-3.68,0.691-7.314,1.035-10.902,1.035c-4.692,0-9.432-0.669-14.214-2.001
		c-4.786-1.333-8.834-3.703-12.144-7.108l12.558-13.937c1.931,2.393,4.071,4.209,6.417,5.45c2.345,1.243,5.082,1.864,8.21,1.864
		c2.391,0,4.553-0.346,6.487-1.035c1.932-0.691,2.897-1.954,2.897-3.796c0-1.747-0.85-3.059-2.553-3.934
		c-1.702-0.873-3.865-1.608-6.487-2.206c-2.622-0.598-5.429-1.243-8.418-1.933c-2.99-0.689-5.796-1.725-8.418-3.105
		s-4.784-3.334-6.485-5.865c-1.704-2.53-2.553-5.91-2.553-10.142c0-3.955,0.804-7.36,2.414-10.213
		c1.608-2.851,3.726-5.196,6.348-7.039c2.622-1.839,5.635-3.195,9.04-4.07c3.403-0.873,6.852-1.312,10.35-1.312
		c4.417,0,8.878,0.646,13.387,1.933c4.505,1.289,8.326,3.588,11.454,6.9L1534.051,349.352z"/>
	<path style="fill:#322A28;" d="M1623.476,385.095c-3.313,4.232-7.5,7.501-12.56,9.797c-5.059,2.299-10.303,3.451-15.732,3.451
		c-5.154,0-10.005-0.829-14.559-2.483c-4.553-1.656-8.51-4.024-11.869-7.108c-3.359-3.082-6.002-6.783-7.933-11.109
		c-1.933-4.323-2.899-9.153-2.899-14.489c0-5.335,0.966-10.165,2.899-14.491c1.931-4.323,4.575-8.026,7.933-11.109
		c3.359-3.082,7.316-5.45,11.869-7.106c4.553-1.656,9.405-2.485,14.559-2.485c4.782,0,9.13,0.829,13.043,2.485
		c3.909,1.656,7.22,4.024,9.936,7.106c2.713,3.084,4.806,6.787,6.279,11.109c1.47,4.326,2.208,9.157,2.208,14.491v6.485h-48.025
		c0.827,3.957,2.622,7.108,5.382,9.453c2.759,2.347,6.162,3.52,10.211,3.52c3.403,0,6.279-0.76,8.626-2.278
		c2.345-1.518,4.392-3.472,6.14-5.865L1623.476,385.095z M1605.949,355.562c0.091-3.495-1.058-6.487-3.451-8.97
		s-5.475-3.726-9.245-3.726c-2.301,0-4.326,0.369-6.071,1.104c-1.751,0.737-3.243,1.679-4.486,2.83
		c-1.243,1.15-2.208,2.484-2.897,4.001c-0.691,1.518-1.083,3.105-1.173,4.761H1605.949z"/>
</g>
<g>
	<path style="fill:#E5F0F8;" d="M459.22,2014.389c0,0-643.371-1567.517,537.284-1461.413
		c505.682,45.445,411.281,321.15,634.618,579.115c144.765,167.21,423.191,30.422,527.529,176.535s-18.276,562.737-61.287,705.762
		H459.22z"/>
	<g>
		<path style="fill:#40A87B;" d="M2100.323,2004.947c0,0,46.431-185.21,162.171-242.369s239.27,21.096,207.903,103.383
			c-27.048,70.956-138.268-16.291-224.804,18.019c-86.536,34.31-100.177,120.967-100.177,120.967H2100.323z"/>
		<path style="fill:none;stroke:#6ADB6A;stroke-width:5.2153;stroke-miterlimit:10;" d="M2448.024,1816.614
			c0,0-124.219-70.792-216.382-5.343c-92.163,65.449-121.329,193.675-121.329,193.675"/>
		
			<line style="fill:none;stroke:#6ADB6A;stroke-width:5.2153;stroke-miterlimit:10;" x1="2427.988" y1="1783.506" x2="2399.087" y2="1796.106"/>
		
			<line style="fill:none;stroke:#6ADB6A;stroke-width:5.2153;stroke-miterlimit:10;" x1="2386.248" y1="1756.508" x2="2328.684" y2="1783.506"/>
		
			<line style="fill:none;stroke:#6ADB6A;stroke-width:5.2153;stroke-miterlimit:10;" x1="2299.762" y1="1756.508" x2="2269.814" y2="1791.885"/>
		
			<line style="fill:none;stroke:#6ADB6A;stroke-width:5.2153;stroke-miterlimit:10;" x1="2242.995" y1="1780.217" x2="2229.533" y2="1812.796"/>
		
			<line style="fill:none;stroke:#6ADB6A;stroke-width:5.2153;stroke-miterlimit:10;" x1="2413.538" y1="1861.694" x2="2369.171" y2="1788.295"/>
		
			<line style="fill:none;stroke:#6ADB6A;stroke-width:5.2153;stroke-miterlimit:10;" x1="2335.158" y1="1851.175" x2="2294.466" y2="1785.825"/>
		
			<line style="fill:none;stroke:#6ADB6A;stroke-width:5.2153;stroke-miterlimit:10;" x1="2266.036" y1="1841.158" x2="2204.861" y2="1833.556"/>
		
			<line style="fill:none;stroke:#6ADB6A;stroke-width:5.2153;stroke-miterlimit:10;" x1="2194.817" y1="1878.223" x2="2159.752" y2="1889.736"/>
	</g>
	<g>
		<path style="fill:#6ADB6A;" d="M2060.502,2005.486c0,0-32.763-620.816,263.76-540.814s-231.305,414.592-230.855,540.814H2060.502z
			"/>
		<path style="fill:none;stroke:#40A87B;stroke-width:5.2153;stroke-miterlimit:10;" d="M2072.485,2005.486
			c0,0,10.353-324.356,221.724-484.739"/>
		
			<line style="fill:none;stroke:#40A87B;stroke-width:5.2153;stroke-miterlimit:10;" x1="2201.503" y1="1614.797" x2="2206.784" y2="1502.949"/>
		
			<line style="fill:none;stroke:#40A87B;stroke-width:5.2153;stroke-miterlimit:10;" x1="2367.338" y1="1568.452" x2="2224.469" y2="1587.074"/>
		
			<line style="fill:none;stroke:#40A87B;stroke-width:5.2153;stroke-miterlimit:10;" x1="2311.778" y1="1663.911" x2="2160.719" y2="1681.511"/>
		
			<line style="fill:none;stroke:#40A87B;stroke-width:5.2153;stroke-miterlimit:10;" x1="2236.249" y1="1758.51" x2="2119.574" y2="1774.999"/>
		
			<line style="fill:none;stroke:#40A87B;stroke-width:5.2153;stroke-miterlimit:10;" x1="2108.382" y1="1670.12" x2="2135.124" y2="1735.092"/>
		
			<line style="fill:none;stroke:#40A87B;stroke-width:5.2153;stroke-miterlimit:10;" x1="2152.325" y1="1564.67" x2="2175.124" y2="1656.144"/>
		
			<line style="fill:none;stroke:#40A87B;stroke-width:5.2153;stroke-miterlimit:10;" x1="2083.417" y1="1778.586" x2="2104.722" y2="1821.052"/>
		
			<line style="fill:none;stroke:#40A87B;stroke-width:5.2153;stroke-miterlimit:10;" x1="2175.124" y1="1846.205" x2="2091.517" y2="1872.565"/>
	</g>
	<path style="fill:#0775EF;" d="M2183.54,2042.357H401.74c-10.432,0-18.888-8.456-18.888-18.888v-0.855
		c0-10.432,8.456-18.888,18.888-18.888h1781.8c10.432,0,18.888,8.456,18.888,18.888v0.855
		C2202.427,2033.9,2193.971,2042.357,2183.54,2042.357z"/>
	<g>
		<g>
			<path style="fill:#BBDBF3;" d="M1232.277,844.44h794.08c11.662,0,21.383-9.06,22.022-20.705
				c2.407-43.884-2.511-142.263-94.997-142.318c-102.428-0.06-135.677,43.702-135.677,43.702s8.96-178.134-166.396-177.873
				c-161.442,0.24-220.155,165.532-220.155,165.532s-154.546-72.76-219.501,101.7C1206.259,828.964,1216.82,844.44,1232.277,844.44z
				"/>
			<polygon style="fill:#FFFFFF;" points="1629.514,612.414 1569.353,695.211 1598.428,695.211 1598.428,779.271 1660.6,779.271 
				1660.6,695.211 1689.675,695.211 			"/>
		</g>
		<g>
			<polygon style="fill:#BBDBF3;" points="2120.791,907.945 2112.246,925.03 1986.189,925.03 1986.189,1054.547 2183.457,1054.547 
				2183.457,925.03 2169.924,925.03 2169.924,907.945 			"/>
		</g>
		<g>
			<polygon style="fill:#BBDBF3;" points="1980.381,1125.862 1971.836,1142.947 1845.78,1142.947 1845.78,1272.464 
				2043.047,1272.464 2043.047,1142.947 2029.514,1142.947 2029.514,1125.862 			"/>
		</g>
		<g>
			<polygon style="fill:#BBDBF3;" points="1672.355,1125.862 1663.81,1142.947 1537.753,1142.947 1537.753,1272.464 
				1735.021,1272.464 1735.021,1142.947 1721.488,1142.947 1721.488,1125.862 			"/>
		</g>
		<g>
			<polygon style="fill:#BBDBF3;" points="1355.289,1125.862 1346.744,1142.947 1220.687,1142.947 1220.687,1272.464 
				1417.955,1272.464 1417.955,1142.947 1404.422,1142.947 1404.422,1125.862 			"/>
		</g>
		<g>
			<polygon style="fill:#BBDBF3;" points="1518.442,1326.492 1509.897,1343.577 1383.84,1343.577 1383.84,1473.093 
				1581.108,1473.093 1581.108,1343.577 1567.574,1343.577 1567.574,1326.492 			"/>
		</g>
		<g>
			<polygon style="fill:#BBDBF3;" points="1819.616,1326.492 1811.072,1343.577 1685.015,1343.577 1685.015,1473.093 
				1882.282,1473.093 1882.282,1343.577 1868.749,1343.577 1868.749,1326.492 			"/>
		</g>
		<g>
			<polygon style="fill:#BBDBF3;" points="2120.791,1326.492 2112.246,1343.577 1986.189,1343.577 1986.189,1473.093 
				2183.457,1473.093 2183.457,1343.577 2169.924,1343.577 2169.924,1326.492 			"/>
		</g>
		<g>
			<polygon style="fill:#BBDBF3;" points="1819.616,907.945 1811.072,925.03 1685.015,925.03 1685.015,1054.547 1882.282,1054.547 
				1882.282,925.03 1868.749,925.03 1868.749,907.945 			"/>
		</g>
		<g>
			<polygon style="fill:#BBDBF3;" points="1518.442,907.945 1509.897,925.03 1383.84,925.03 1383.84,1054.547 1581.108,1054.547 
				1581.108,925.03 1567.574,925.03 1567.574,907.945 			"/>
		</g>
		<g>
			<polygon style="fill:#BBDBF3;" points="1217.267,907.945 1208.722,925.03 1082.665,925.03 1082.665,1054.547 1279.933,1054.547 
				1279.933,925.03 1266.4,925.03 1266.4,907.945 			"/>
		</g>
		<polyline style="fill:none;stroke:#BBDBF3;stroke-width:3.4213;stroke-miterlimit:10;" points="1629.514,827.371 
			1629.514,881.805 1173.525,881.805 1173.525,945.465 		"/>
		
			<line style="fill:none;stroke:#BBDBF3;stroke-width:3.4213;stroke-miterlimit:10;" x1="1477.102" y1="881.805" x2="1477.102" y2="945.465"/>
		<polyline style="fill:none;stroke:#BBDBF3;stroke-width:3.4213;stroke-miterlimit:10;" points="1629.514,881.805 
			2084.823,881.805 2084.823,937.161 		"/>
		
			<line style="fill:none;stroke:#BBDBF3;stroke-width:3.4213;stroke-miterlimit:10;" x1="1776.487" y1="881.805" x2="1776.487" y2="934.393"/>
		<polyline style="fill:none;stroke:#BBDBF3;stroke-width:3.4213;stroke-miterlimit:10;" points="1477.102,1022.041 
			1477.102,1101.385 1319.321,1101.385 1319.321,1156.741 		"/>
		<polyline style="fill:none;stroke:#BBDBF3;stroke-width:3.4213;stroke-miterlimit:10;" points="1477.102,1101.385 
			1629.514,1101.385 1629.514,1151.205 		"/>
		<polyline style="fill:none;stroke:#BBDBF3;stroke-width:3.4213;stroke-miterlimit:10;" points="2084.823,1041.416 
			2084.823,1089.391 1944.413,1089.391 1944.413,1163.199 		"/>
		<polyline style="fill:none;stroke:#BBDBF3;stroke-width:3.4213;stroke-miterlimit:10;" points="1629.514,1244.978 
			1629.514,1307.125 1481.999,1307.125 1481.999,1369.806 		"/>
		<polyline style="fill:none;stroke:#BBDBF3;stroke-width:3.4213;stroke-miterlimit:10;" points="1944.413,1235.732 
			1944.413,1299.745 2079.562,1299.745 2079.562,1361.862 		"/>
		<polyline style="fill:none;stroke:#BBDBF3;stroke-width:3.4213;stroke-miterlimit:10;" points="1944.413,1299.745 
			1776.487,1299.745 1776.487,1361.862 		"/>
	</g>
	<g>
		<path style="fill:#40A87B;" d="M554.883,2003.328c0,0-46.431-185.21-162.171-242.369s-239.27,21.096-207.903,103.383
			c27.048,70.956,138.268-16.291,224.804,18.019c86.536,34.31,100.177,120.967,100.177,120.967H554.883z"/>
		<path style="fill:none;stroke:#6ADB6A;stroke-width:5.2153;stroke-miterlimit:10;" d="M207.182,1814.996
			c0,0,124.219-70.792,216.382-5.343c92.163,65.449,121.329,193.675,121.329,193.675"/>
		
			<line style="fill:none;stroke:#6ADB6A;stroke-width:5.2153;stroke-miterlimit:10;" x1="227.217" y1="1781.888" x2="256.118" y2="1794.487"/>
		
			<line style="fill:none;stroke:#6ADB6A;stroke-width:5.2153;stroke-miterlimit:10;" x1="268.957" y1="1754.89" x2="326.522" y2="1781.888"/>
		
			<line style="fill:none;stroke:#6ADB6A;stroke-width:5.2153;stroke-miterlimit:10;" x1="355.443" y1="1754.89" x2="385.391" y2="1790.266"/>
		
			<line style="fill:none;stroke:#6ADB6A;stroke-width:5.2153;stroke-miterlimit:10;" x1="412.21" y1="1778.598" x2="425.673" y2="1811.177"/>
		
			<line style="fill:none;stroke:#6ADB6A;stroke-width:5.2153;stroke-miterlimit:10;" x1="241.667" y1="1860.075" x2="286.034" y2="1786.676"/>
		
			<line style="fill:none;stroke:#6ADB6A;stroke-width:5.2153;stroke-miterlimit:10;" x1="320.047" y1="1849.557" x2="360.739" y2="1784.206"/>
		
			<line style="fill:none;stroke:#6ADB6A;stroke-width:5.2153;stroke-miterlimit:10;" x1="389.169" y1="1839.539" x2="450.344" y2="1831.937"/>
		
			<line style="fill:none;stroke:#6ADB6A;stroke-width:5.2153;stroke-miterlimit:10;" x1="460.388" y1="1876.604" x2="495.453" y2="1888.117"/>
	</g>
	<g>
		<path style="fill:#6ADB6A;" d="M594.78,2003.328c0,0,32.763-620.816-263.76-540.814s231.305,414.592,230.856,540.814H594.78z"/>
		<path style="fill:none;stroke:#40A87B;stroke-width:5.2153;stroke-miterlimit:10;" d="M582.797,2003.328
			c0,0-10.353-324.356-221.724-484.738"/>
		
			<line style="fill:none;stroke:#40A87B;stroke-width:5.2153;stroke-miterlimit:10;" x1="453.78" y1="1612.639" x2="448.499" y2="1500.791"/>
		
			<line style="fill:none;stroke:#40A87B;stroke-width:5.2153;stroke-miterlimit:10;" x1="287.944" y1="1566.294" x2="430.813" y2="1584.916"/>
		
			<line style="fill:none;stroke:#40A87B;stroke-width:5.2153;stroke-miterlimit:10;" x1="343.505" y1="1661.753" x2="494.563" y2="1679.353"/>
		
			<line style="fill:none;stroke:#40A87B;stroke-width:5.2153;stroke-miterlimit:10;" x1="419.034" y1="1756.352" x2="535.708" y2="1772.84"/>
		
			<line style="fill:none;stroke:#40A87B;stroke-width:5.2153;stroke-miterlimit:10;" x1="546.901" y1="1667.961" x2="520.159" y2="1732.934"/>
		
			<line style="fill:none;stroke:#40A87B;stroke-width:5.2153;stroke-miterlimit:10;" x1="502.958" y1="1562.512" x2="480.159" y2="1653.986"/>
		
			<line style="fill:none;stroke:#40A87B;stroke-width:5.2153;stroke-miterlimit:10;" x1="571.866" y1="1776.428" x2="550.56" y2="1818.894"/>
		
			<line style="fill:none;stroke:#40A87B;stroke-width:5.2153;stroke-miterlimit:10;" x1="480.159" y1="1844.047" x2="563.765" y2="1870.406"/>
	</g>
	<path style="fill:#E5F0F8;" d="M2156.441,555.897h-127.997c-7.627,0-13.81,6.183-13.81,13.81v73.689
		c0,7.627,6.183,13.81,13.81,13.81h51.456v16.624h-33.864c-0.663,0-1.2,0.537-1.2,1.2v4.253c0,0.663,0.537,1.2,1.2,1.2h92.814
		c0.663,0,1.2-0.537,1.2-1.2v-4.253c0-0.663-0.537-1.2-1.2-1.2h-33.864v-16.624h51.456c7.627,0,13.81-6.183,13.81-13.81v-73.689
		C2170.251,562.08,2164.068,555.897,2156.441,555.897z"/>
	<g>
		<path style="fill:#F74242;" d="M1633.672,2003.495h-448.682c-10.265,0-18.627-8.323-18.627-18.588v-160.195
			c0-10.265,8.362-18.588,18.627-18.588h448.682c-10.265,0-18.588,8.323-18.588,18.588v160.195
			C1615.085,1995.173,1623.408,2003.495,1633.672,2003.495z"/>
		<path style="fill:#B83232;" d="M1637.556,1828.596v152.427h445.789v22.472h-449.672c-10.265,0-18.588-8.323-18.588-18.588
			v-160.195c0-10.265,8.323-18.588,18.588-18.588h449.672v22.472H1637.556z"/>
		<rect x="1637.556" y="1828.596" style="fill:#E5F0F8;" width="15.853" height="152.427"/>
		<path style="fill:#FFFFFF;" d="M2073.556,1981.024H1653.41v-152.427h420.146
			C2073.556,1828.596,2057.901,1887.213,2073.556,1981.024z"/>
		
			<line style="fill:none;stroke:#E5F0F8;stroke-width:3.9633;stroke-miterlimit:10;" x1="1704.224" y1="1861.653" x2="2005.611" y2="1861.653"/>
		
			<line style="fill:none;stroke:#E5F0F8;stroke-width:3.9633;stroke-miterlimit:10;" x1="1740.294" y1="1960.245" x2="2041.681" y2="1960.245"/>
		
			<line style="fill:none;stroke:#E5F0F8;stroke-width:3.9633;stroke-miterlimit:10;" x1="1684.185" y1="1920.167" x2="1953.509" y2="1920.167"/>
		
			<line style="fill:none;stroke:#E5F0F8;stroke-width:3.9633;stroke-miterlimit:10;" x1="1714.553" y1="1896.12" x2="1983.877" y2="1896.12"/>
		
			<ellipse transform="matrix(0.1602 -0.9871 0.9871 0.1602 -822.5427 2842.8369)" style="fill:#BBDBF3;" cx="1259.406" cy="1904.81" rx="69.011" ry="69.011"/>
		<circle style="fill:#FFFFFF;" cx="1259.406" cy="1904.81" r="55.356"/>
		<rect x="1342.556" y="1835.799" style="fill:#FFFFFF;" width="226.038" height="138.022"/>
		
			<line style="fill:none;stroke:#BBDBF3;stroke-width:3.4213;stroke-linecap:round;stroke-linejoin:round;stroke-miterlimit:10;" x1="1365.159" y1="1853.836" x2="1365.159" y2="1955.784"/>
		
			<line style="fill:none;stroke:#BBDBF3;stroke-width:3.4213;stroke-linecap:round;stroke-linejoin:round;stroke-miterlimit:10;" x1="1396.643" y1="1853.836" x2="1396.643" y2="1955.784"/>
		
			<line style="fill:none;stroke:#BBDBF3;stroke-width:3.4213;stroke-linecap:round;stroke-linejoin:round;stroke-miterlimit:10;" x1="1428.127" y1="1853.836" x2="1428.127" y2="1955.784"/>
		
			<line style="fill:none;stroke:#BBDBF3;stroke-width:3.4213;stroke-linecap:round;stroke-linejoin:round;stroke-miterlimit:10;" x1="1459.611" y1="1853.836" x2="1459.611" y2="1955.784"/>
		
			<line style="fill:none;stroke:#BBDBF3;stroke-width:3.4213;stroke-linecap:round;stroke-linejoin:round;stroke-miterlimit:10;" x1="1491.095" y1="1853.836" x2="1491.095" y2="1955.784"/>
	</g>
	<g>
		<path style="fill:#F74242;" d="M1693.003,1608.343h-448.682c-10.265,0-18.627-8.323-18.627-18.588V1429.56
			c0-10.265,8.362-18.588,18.627-18.588h448.682c-10.265,0-18.588,8.323-18.588,18.588v160.195
			C1674.416,1600.02,1682.739,1608.343,1693.003,1608.343z"/>
		<path style="fill:#B83232;" d="M1696.887,1433.444v152.427h445.789v22.472h-449.673c-10.265,0-18.588-8.323-18.588-18.588V1429.56
			c0-10.265,8.323-18.588,18.588-18.588h449.673v22.472H1696.887z"/>
		<rect x="1696.887" y="1433.444" style="fill:#E5F0F8;" width="15.853" height="152.427"/>
		<path style="fill:#FFFFFF;" d="M2132.886,1585.871H1712.74v-152.427h420.146
			C2132.886,1433.444,2117.231,1492.061,2132.886,1585.871z"/>
		
			<line style="fill:none;stroke:#E5F0F8;stroke-width:3.9633;stroke-miterlimit:10;" x1="1763.555" y1="1466.501" x2="2064.941" y2="1466.501"/>
		
			<line style="fill:none;stroke:#E5F0F8;stroke-width:3.9633;stroke-miterlimit:10;" x1="1799.625" y1="1565.093" x2="2101.011" y2="1565.093"/>
		
			<line style="fill:none;stroke:#E5F0F8;stroke-width:3.9633;stroke-miterlimit:10;" x1="1743.516" y1="1525.015" x2="2012.84" y2="1525.015"/>
		
			<line style="fill:none;stroke:#E5F0F8;stroke-width:3.9633;stroke-miterlimit:10;" x1="1773.884" y1="1500.968" x2="2043.208" y2="1500.968"/>
		<circle style="fill:#BBDBF3;" cx="1318.737" cy="1509.658" r="69.011"/>
		<circle style="fill:#FFFFFF;" cx="1318.737" cy="1509.658" r="55.356"/>
		<rect x="1401.886" y="1440.647" style="fill:#FFFFFF;" width="226.038" height="138.022"/>
		
			<line style="fill:none;stroke:#BBDBF3;stroke-width:3.4213;stroke-linecap:round;stroke-linejoin:round;stroke-miterlimit:10;" x1="1424.49" y1="1458.684" x2="1424.49" y2="1560.632"/>
		
			<line style="fill:none;stroke:#BBDBF3;stroke-width:3.4213;stroke-linecap:round;stroke-linejoin:round;stroke-miterlimit:10;" x1="1455.974" y1="1458.684" x2="1455.974" y2="1560.632"/>
		
			<line style="fill:none;stroke:#BBDBF3;stroke-width:3.4213;stroke-linecap:round;stroke-linejoin:round;stroke-miterlimit:10;" x1="1487.458" y1="1458.684" x2="1487.458" y2="1560.632"/>
		
			<line style="fill:none;stroke:#BBDBF3;stroke-width:3.4213;stroke-linecap:round;stroke-linejoin:round;stroke-miterlimit:10;" x1="1518.942" y1="1458.684" x2="1518.942" y2="1560.632"/>
		
			<line style="fill:none;stroke:#BBDBF3;stroke-width:3.4213;stroke-linecap:round;stroke-linejoin:round;stroke-miterlimit:10;" x1="1550.426" y1="1458.684" x2="1550.426" y2="1560.632"/>
	</g>
	<g>
		<path style="fill:#2EC6FC;" d="M1524.645,1806.107h448.682c10.265,0,18.627-8.323,18.627-18.588v-160.195
			c0-10.265-8.363-18.588-18.627-18.588h-448.682c10.265,0,18.588,8.323,18.588,18.588v160.195
			C1543.232,1797.784,1534.909,1806.107,1524.645,1806.107z"/>
		<path style="fill:#088CFC;" d="M1520.761,1631.208v152.427h-445.789v22.472h449.673c10.265,0,18.588-8.323,18.588-18.588v-160.195
			c0-10.265-8.323-18.588-18.588-18.588h-449.673v22.472H1520.761z"/>
		<rect x="1504.908" y="1631.208" style="fill:#E5F0F8;" width="15.853" height="152.427"/>
		<path style="fill:#FFFFFF;" d="M1084.761,1783.635h420.146v-152.427h-420.146
			C1084.761,1631.208,1100.417,1689.824,1084.761,1783.635z"/>
		
			<line style="fill:none;stroke:#E5F0F8;stroke-width:3.9633;stroke-miterlimit:10;" x1="1117.749" y1="1659.186" x2="1449.595" y2="1659.186"/>
		
			<line style="fill:none;stroke:#E5F0F8;stroke-width:3.9633;stroke-miterlimit:10;" x1="1173.062" y1="1763.863" x2="1504.908" y2="1763.863"/>
		
			<line style="fill:none;stroke:#E5F0F8;stroke-width:3.9633;stroke-miterlimit:10;" x1="1137.634" y1="1687.454" x2="1469.479" y2="1687.454"/>
		
			<line style="fill:none;stroke:#E5F0F8;stroke-width:3.9633;stroke-miterlimit:10;" x1="1114.121" y1="1728.594" x2="1445.967" y2="1728.594"/>
		
			<ellipse transform="matrix(0.7071 -0.7071 0.7071 0.7071 -651.2814 1855.517)" style="fill:#BBDBF3;" cx="1914.166" cy="1713.925" rx="67.863" ry="67.863"/>
		
			<ellipse transform="matrix(0.3827 -0.9239 0.9239 0.3827 -401.8134 2826.4929)" style="fill:#FFFFFF;" cx="1914.166" cy="1713.925" rx="55.356" ry="55.356"/>
		
			<rect x="1591.293" y="1644.914" transform="matrix(-1 -1.224647e-16 1.224647e-16 -1 3408.6248 3427.8494)" style="fill:#FFFFFF;" width="226.038" height="138.022"/>
		
			<line style="fill:none;stroke:#BBDBF3;stroke-width:3.4213;stroke-linecap:round;stroke-linejoin:round;stroke-miterlimit:10;" x1="1794.728" y1="1662.951" x2="1794.728" y2="1764.899"/>
		
			<line style="fill:none;stroke:#BBDBF3;stroke-width:3.4213;stroke-linecap:round;stroke-linejoin:round;stroke-miterlimit:10;" x1="1763.244" y1="1662.951" x2="1763.244" y2="1764.899"/>
		
			<line style="fill:none;stroke:#BBDBF3;stroke-width:3.4213;stroke-linecap:round;stroke-linejoin:round;stroke-miterlimit:10;" x1="1731.76" y1="1662.951" x2="1731.76" y2="1764.899"/>
		
			<line style="fill:none;stroke:#BBDBF3;stroke-width:3.4213;stroke-linecap:round;stroke-linejoin:round;stroke-miterlimit:10;" x1="1700.276" y1="1662.951" x2="1700.276" y2="1764.899"/>
		
			<line style="fill:none;stroke:#BBDBF3;stroke-width:3.4213;stroke-linecap:round;stroke-linejoin:round;stroke-miterlimit:10;" x1="1668.792" y1="1662.951" x2="1668.792" y2="1764.899"/>
	</g>
	<g>
		<path style="fill:#E5F0F8;" d="M2094.552,1215.584h202.434c2.973,0,5.451-2.31,5.614-5.278
			c0.614-11.187-0.64-36.267-24.217-36.281c-26.112-0.015-34.588,11.141-34.588,11.141s2.284-45.412-42.419-45.345
			c-41.156,0.061-56.124,42.199-56.124,42.199s-39.398-18.549-55.957,25.926C2087.919,1211.639,2090.611,1215.584,2094.552,1215.584
			z"/>
		<polygon style="fill:#FFFFFF;" points="2195.819,1156.434 2180.483,1177.542 2187.895,1177.542 2187.895,1198.971 
			2203.744,1198.971 2203.744,1177.542 2211.156,1177.542 		"/>
	</g>
	<path style="fill:#FFFFFF;" d="M1077.106,813.775h-22.818v-31.53c0-16.785-13.655-30.441-30.441-30.441
		c-16.785,0-30.442,13.656-30.442,30.441v31.53h-22.819c-1.515,0-2.74,1.225-2.74,2.73v83.703c0,1.515,1.225,2.73,2.74,2.73h53.265
		h53.255c1.515,0,2.74-1.216,2.74-2.73v-83.703C1079.846,815,1078.62,813.775,1077.106,813.775z M1003.052,782.245
		c0-11.465,9.328-20.793,20.794-20.793c11.465,0,20.794,9.328,20.794,20.793v31.53h-20.789h-20.798V782.245z"/>
	<path style="fill:#FFFFFF;" d="M1121.972,648.603L1121.972,648.603l10.292-26.093l-5.36-2.114l-3.013,7.64l-4.856-1.915l3.013-7.64
		l-7.695-3.035l-4.047,10.26l-4.856-1.915l4.047-10.26l-7.18-2.832l-5.655,14.338l0,0l-1.262,3.2l-4.446,11.273l-0.556,1.409l0,0
		l0,0l-85.165-33.591l0.004-0.012l6.642-16.864c4.105-10.437-1.072-22.323-11.453-26.409l-19.431-7.678
		c-10.4-4.077-22.304,1.062-26.399,11.471l-0.095,0.236l-1.71,4.341l-0.048,0.142l-13.703,34.785l-0.921,2.322l-2.851,7.219
		c-1.748,4.407-1.816,9.064-0.513,13.298c-0.009,0.028-0.009,0.028-0.009,0.028c0.084,0.217,0.15,0.444,0.234,0.662
		c1.276,3.753,3.611,7.121,6.798,9.594c1.48,1.128,3.14,2.095,4.962,2.817l0.528,0.209l0.019-0.009l8.248,3.259l1.349,0.532
		l9.248,3.659c2.208,0.884,4.503,1.323,6.76,1.404c1.341,0.041,2.664-0.05,3.949-0.265c4.687-0.773,9.019-3.162,12.163-6.801
		c1.478-1.678,2.682-3.621,3.546-5.82l5.549-14.08l0.694-1.784l0.228-0.585l0.003-0.007l118.217,46.627
		c1.754,0.692,3.73-0.176,4.422-1.929l1.838-4.659l0,0l1.842-4.67c0.687-1.743-0.165-3.726-1.919-4.417l-3.08-1.215l1.188-3.013
		L1121.972,648.603z M956.096,632.592l-4.454-1.748c-0.016-0.006-0.03-0.016-0.046-0.023c-0.395-0.157-0.765-0.353-1.114-0.576
		c-0.1-0.063-0.189-0.138-0.285-0.206c-0.261-0.186-0.512-0.384-0.743-0.603c-0.082-0.077-0.16-0.159-0.238-0.24
		c-0.234-0.245-0.451-0.504-0.647-0.779c-0.048-0.067-0.098-0.132-0.143-0.2c-0.713-1.079-1.133-2.343-1.192-3.643
		c-0.004-0.088,0.001-0.176,0.001-0.263c-0.003-0.346,0.018-0.693,0.068-1.04c0.013-0.087,0.025-0.173,0.041-0.259
		c0.077-0.415,0.182-0.828,0.339-1.232l7.493-18.994l0.082-0.204l2.582-6.549l5.121-12.981l0.995-2.533l1.07-2.7l2.005-5.077
		c0.267-0.686,0.668-1.284,1.125-1.829c1.888-2.241,5.118-3.218,7.939-2.101l19.406,7.645c1.13,0.447,2.058,1.195,2.786,2.095
		c1.549,1.922,2.107,4.599,1.151,7l-10.624,26.934l-0.751,1.906l-6.376,16.166l-1.577,3.992c-0.582,1.479-1.657,2.631-2.953,3.4
		c-1.813,1.073-4.07,1.375-6.127,0.571l-10.52-4.166l-1.765-0.698L956.096,632.592z"/>
	<g>
		<ellipse style="fill:#93ACBF;" cx="872.117" cy="1905.374" rx="336.569" ry="98.351"/>
		<rect x="535.549" y="1766.224" style="fill:#93ACBF;" width="673.137" height="139.15"/>
		<ellipse style="fill:#586773;" cx="872.117" cy="1766.224" rx="336.569" ry="98.351"/>
		<path style="fill:#2EC6FC;" d="M1158.989,1672.942v111.414c0,5.466-3.228,10.406-8.248,12.567
			c-60.534,26.067-162.73,43.189-278.632,43.189c-115.858,0-218.052-17.122-278.586-43.189c-5.02-2.162-8.248-7.101-8.248-12.567
			v-111.414c0-7.547,6.119-13.666,13.666-13.666h546.382C1152.871,1659.276,1158.989,1665.395,1158.989,1672.942z"/>
		<ellipse style="fill:#93ACBF;" cx="872.117" cy="1704.854" rx="336.569" ry="98.351"/>
		<rect x="535.549" y="1565.704" style="fill:#93ACBF;" width="673.137" height="139.15"/>
		<ellipse style="fill:#586773;" cx="872.117" cy="1565.704" rx="336.569" ry="98.351"/>
		<path style="fill:#2EC6FC;" d="M1158.989,1476.814v107.715c0,6.358-3.749,12.133-9.602,14.616
			c-60.697,25.742-162.235,42.611-277.278,42.611c-114.999,0-216.535-16.869-277.232-42.611c-5.853-2.482-9.602-8.258-9.602-14.616
			v-107.715c0-8.779,7.117-15.896,15.895-15.896h541.923C1151.873,1460.919,1158.989,1468.036,1158.989,1476.814z"/>
		<ellipse style="fill:#93ACBF;" cx="872.117" cy="1508.957" rx="336.569" ry="98.351"/>
		<rect x="535.549" y="1369.806" style="fill:#93ACBF;" width="673.137" height="139.15"/>
		<path style="fill:#586773;" d="M1208.682,1369.813c0,18.86-18.167,36.472-49.693,51.45
			c-59.215,28.105-165.536,46.873-286.88,46.873c-121.298,0-227.618-18.722-286.834-46.873c-31.527-14.978-49.74-32.59-49.74-51.45
			c0-2.681,0.37-5.316,1.109-7.951c4.299-15.855,21.542-30.648,48.63-43.499c59.216-28.152,165.536-46.92,286.834-46.92
			c121.344,0,227.664,18.768,286.88,46.92c27.042,12.851,44.285,27.643,48.584,43.499
			C1208.313,1364.497,1208.682,1367.132,1208.682,1369.813z"/>
		<path style="fill:#586773;" d="M1158.989,1302.461v102.9c-59.215,28.152-165.536,46.919-286.88,46.919
			c-121.298,0-227.618-18.768-286.834-46.919v-102.9c26.164-12.435,61.481-23.067,103.269-31.018
			c52.791-10.077,115.843-15.902,183.565-15.902c67.721,0,130.774,5.824,183.564,15.902
			C1097.462,1279.394,1132.825,1290.026,1158.989,1302.461z"/>
		<path style="fill:#2EC6FC;" d="M1158.989,1285.62v110.566c0,5.67-3.346,10.801-8.557,13.037
			c-60.572,25.992-162.618,43.057-278.323,43.057c-115.661,0-217.704-17.064-278.277-43.057c-5.211-2.236-8.557-7.367-8.557-13.037
			V1285.62c0-7.83,6.347-14.177,14.177-14.177h545.36C1152.642,1271.443,1158.989,1277.791,1158.989,1285.62z"/>
		<ellipse style="fill:#93ACBF;" cx="872.117" cy="1314.553" rx="336.569" ry="98.351"/>
		<rect x="535.549" y="1175.403" style="fill:#93ACBF;" width="673.137" height="139.15"/>
		<ellipse style="fill:#BBDBF3;" cx="872.117" cy="1175.403" rx="336.569" ry="98.351"/>
		<circle style="fill:#BBDBF3;" cx="1023.846" cy="1313.753" r="12.738"/>
		<circle style="fill:#BBDBF3;" cx="1109.858" cy="1296.925" r="12.738"/>
		
			<ellipse transform="matrix(0.1608 -0.987 0.987 0.1608 -395.1441 2150.145)" style="fill:#2EC6FC;" cx="1066.852" cy="1307.443" rx="12.738" ry="12.738"/>
		<circle style="fill:#BBDBF3;" cx="1023.846" cy="1496.92" r="12.738"/>
		<circle style="fill:#586773;" cx="1109.858" cy="1480.091" r="12.738"/>
		
			<ellipse transform="matrix(0.9226 -0.3857 0.3857 0.9226 -492.3513 526.7764)" style="fill:#BBDBF3;" cx="1066.852" cy="1490.609" rx="12.738" ry="12.738"/>
		<circle style="fill:#586773;" cx="1023.846" cy="1693.954" r="12.738"/>
		
			<ellipse transform="matrix(0.9226 -0.3857 0.3857 0.9226 -560.9586 557.7924)" style="fill:#2EC6FC;" cx="1109.858" cy="1677.125" rx="12.738" ry="12.738"/>
		<circle style="fill:#BBDBF3;" cx="1066.852" cy="1687.643" r="12.738"/>
		
			<ellipse transform="matrix(0.9226 -0.3857 0.3857 0.9226 -650.0939 541.1653)" style="fill:#2EC6FC;" cx="1023.846" cy="1890.988" rx="12.738" ry="12.738"/>
		<circle style="fill:#BBDBF3;" cx="1109.858" cy="1874.159" r="12.738"/>
		<circle style="fill:#2EC6FC;" cx="1066.852" cy="1884.677" r="12.738"/>
	</g>
	<g>
		<path style="fill:#F9E181;" d="M925.779,717.709L647.093,547.245c-27.257,12.817-57.7,19.983-89.812,19.983h-0.001
			c-32.113,0-62.557-7.166-89.814-19.983L188.782,717.709c0,0-37.891,566.439,368.498,737.247c0,0,0.001-0.001,0.001-0.001
			C963.668,1284.147,925.779,717.709,925.779,717.709z"/>
		<path style="fill:#F9ECB8;" d="M871.362,755.292L637.683,612.401c-25.55,10.125-52.534,15.283-80.425,15.283v0.007
			c-27.874-0.003-54.856-5.145-80.395-15.307L243.22,755.297c-0.969,35.456-0.811,142.433,29.329,260.533
			c21.347,83.652,53.362,156.47,95.152,216.43c49.571,71.124,113.311,124.391,189.558,158.449v0.001c0,0,0.001,0,0.001-0.001
			c0.007,0.003,0.013,0.007,0.02,0.01c0.001,0,0.001,0,0.001,0v-0.019c76.259-34.052,140.01-87.298,189.576-158.45
			c41.787-59.936,73.785-132.766,95.133-216.438C872.174,897.706,872.317,790.729,871.362,755.292z"/>
		<polygon style="fill:#98EB98;" points="695.217,797.4 547.163,1052.391 545.863,1054.627 472.532,943.286 423.944,975.314 
			523.151,1125.862 547.489,1125.171 572.604,1124.476 745.534,826.607 		"/>
	</g>
	<g>
		<polygon style="fill:#2D628C;" points="1921.434,1387.938 1921.669,1352.491 1880.078,1358.628 		"/>
		<path style="fill:#FDAE97;" d="M1696.393,1219.791l-3.753-11c0,0-6.759-10.515-8.776-14.586c-1.137-2.295-4.835-8.154-5.791-8.881
			c-0.757-0.575-2.958-0.356-3.152,0.554c-0.253,1.182,1.611,7.729,2.291,10.308c0.646,2.452,2.585,9.808,2.585,9.808
			s-14.207-12.909-18.718-17.502c-2.539-2.585-9.632-10.451-11.548-8.802c-1.459,1.256,4.902,10.113,7.051,13.164
			c1.975,2.805,7.82,11.276,7.82,11.276s-9.912-10.308-13.216-13.743c-2.404-2.5-8.632-10.854-10.827-9.068
			c-2.173,1.768,4.56,9.551,6.516,12.399c2.761,4.02,11.044,16.079,11.044,16.079s-10.614-10.548-14.151-14.064
			c-1.958-1.946-7.037-8.499-8.975-6.69c-1.974,1.843,4.001,7.783,5.725,10.005c2.953,3.807,11.812,15.227,11.812,15.227
			s-7.878-7.414-10.504-9.885c-1.122-1.056-4.564-4.102-5.567-2.971c-1.365,1.54,2.976,5.996,4.267,7.648l10.667,13.653
			c0.863,1.104,1.85,2.101,2.939,2.966l18.066,18.139L1696.393,1219.791z"/>
		<path style="fill:#B86B76;" d="M1836.607,1346.662l-140.762,89.139c-4.037,1.69-7.872,4.043-11.297,7.154
			c-16.119,14.645-17.314,39.585-2.669,55.704c14.645,16.119,39.585,17.314,55.704,2.669l162.266-85.058L1836.607,1346.662z"/>
		<path style="fill:#B86B76;" d="M1671.806,1477.638c-0.257-1.818-0.435-3.661-0.435-5.551c0-21.779,17.655-39.434,39.434-39.434
			c21.779,0,39.434,17.655,39.434,39.434l-2.332,176.086h-65.619L1671.806,1477.638z"/>
		<path style="fill:#E7888B;" d="M1911.223,1415.505l-88.163,105.455c-15.563,18.615-43.527,21.113-62.142,5.55v0
			c-18.615-15.563-21.113-43.527-5.55-62.142l88.163-105.455c15.563-18.615,43.527-21.113,62.142-5.55v0
			C1924.289,1368.925,1926.786,1396.889,1911.223,1415.505z"/>
		<polygon style="fill:#E5F0F8;" points="1839.078,1177.439 1797.375,1196.217 1803.125,1365.617 1921.669,1367.453 
			1939.635,1193.196 1881.736,1174.342 		"/>
		<path style="fill:#FDAE97;" d="M1839.09,1152.973v26.455c0,0,1.581,5.713,15.03,5.768c13.422,0.028,27.62-8.874,27.62-8.874
			l-4.16-57.847L1839.09,1152.973z"/>
		<polygon style="fill:#E89780;" points="1839.078,1175.799 1866.554,1147.276 1839.078,1146.916 		"/>
		<path style="fill:#FDAE97;" d="M1827.83,1099.757c0,0,0,16.223,0,27.731V1137c0,7.515,2.107,18.663,10.566,21.242
			c8.43,2.579,20.049-0.943,28.147-9.734c8.098-8.818,26.067-48.529,1.082-63.199
			C1842.61,1070.64,1828.412,1095.875,1827.83,1099.757z"/>
		<path style="fill:#F9E181;" d="M1771.266,1331.606c-8.811,7.226-21.515,6.891-29.976-0.234l0,0l-74.154-85.814l10.183-10.729
			l18.738-19.8l2.155-2.308l76.363,85.981C1782.726,1308.655,1781.219,1323.454,1771.266,1331.606z"/>
		<path style="fill:#E7888B;" d="M1744.932,1488.772c0-21.779,17.656-39.434,39.434-39.434c21.779,0,33.731,9.081,38.482,30.802
			c11.03,50.424,34.164,184.718,34.164,184.718h-68.328l-43.316-170.535C1745.111,1492.504,1744.932,1490.661,1744.932,1488.772z"/>
		<path style="fill:#F9E181;" d="M1743.841,1332.682L1743.841,1332.682c13.044,7.399,29.77,2.781,37.169-10.262l49.19-86.713
			c7.399-13.043,2.781-29.769-10.262-37.169v0c-13.044-7.399-29.77-2.781-37.169,10.263l-49.19,86.713
			C1726.18,1308.557,1730.798,1325.282,1743.841,1332.682z"/>
		<path style="fill:#322A28;" d="M1865.03,1083.933c0,0-30.234-13.948-37.206-4.787c-6.972,9.16,4.643,12.359,4.643,12.359
			s-14.42-1.703-13.859,8.019c0.561,9.721,36.642-3.552,36.642-3.552s-11.965,5.422-5.048,9.721
			c6.917,4.3,14.827-1.309,14.827-1.309s6.86,3.922,5.738,21.938c-1.123,18.016,9.631,21.995,9.631,21.995
			s-1.288-27.295,3.982-34.586C1889.65,1106.441,1881.914,1079.373,1865.03,1083.933z"/>
		<g>
			<path style="fill:#FDAE97;" d="M1869.073,1130.5c-2.934,4.595-3.718,7.828-0.11,10.132c3.607,2.303,9.605,1.576,12.539-3.019
				c2.934-4.594,2.388-10.187-1.219-12.49C1876.676,1122.819,1872.007,1125.905,1869.073,1130.5z"/>
			<path style="fill:none;stroke:#E89780;stroke-width:0.6645;stroke-miterlimit:10;" d="M1878.49,1130.147
				c0,0-3.706-0.553-6.243,4.195c0,0,2.341-0.537,5.188,0"/>
		</g>
		<ellipse style="fill:#2C3447;" cx="1848.254" cy="1120.861" rx="2.042" ry="3.156"/>
		<path style="fill:none;stroke:#2C3447;stroke-width:0.8319;stroke-miterlimit:10;" d="M1848.985,1140.659
			c0,0-3.033,5.906-10.704,4.52"/>
		<path style="fill:none;stroke:#2C3447;stroke-width:0.8319;stroke-miterlimit:10;" d="M1841.624,1122.067l-3.847,11.131
			c-0.39,1.128,0.039,2.376,1.039,3.027l3.136,2.04"/>
		<path style="fill:none;stroke:#2C3447;stroke-width:0.8319;stroke-miterlimit:10;" d="M1853.511,1115.621
			c0,0-4.3-3.008-8.399-1.101"/>
		<path style="fill:#2C3447;" d="M1829.21,1120.861c0,1.743,0.914,3.156,2.042,3.156s2.042-1.413,2.042-3.156
			c0-1.743-0.914-3.156-2.042-3.156S1829.21,1119.118,1829.21,1120.861z"/>
		<path style="fill:none;stroke:#2C3447;stroke-width:0.8319;stroke-miterlimit:10;" d="M1827.315,1115.448
			c0,0,2.979-2.835,7.078-0.928"/>
		<path style="fill:#F9E181;" d="M1965.345,1342.626L1965.345,1342.626c14.516-3.764,23.313-18.721,19.549-33.237l-25.025-96.502
			c-3.764-14.516-18.721-23.313-33.237-19.549h0c-14.516,3.764-23.313,18.721-19.549,33.237l25.025,96.502
			C1935.873,1337.594,1950.829,1346.391,1965.345,1342.626z"/>
		<path style="fill:#E89780;" d="M1847.05,1132.371c0.536,1.602,3.553,2.035,6.737,0.969c3.184-1.067,5.331-3.229,4.794-4.831
			s-3.553-2.035-6.737-0.969C1848.66,1128.607,1846.514,1130.77,1847.05,1132.371z"/>
		<path style="fill:#E89780;" d="M1827.83,1127.488v6.184c2.606,0.305,4.742-0.416,5.103-1.775
			C1833.32,1130.289,1831.047,1128.32,1827.83,1127.488z"/>
		<polygon style="fill:#FDAE97;" points="1740.029,1674.577 1741.389,1648.173 1688.098,1648.173 1687.254,1674.577 		"/>
		<polygon style="fill:#E89780;" points="1687.607,1663.523 1741.389,1648.173 1688.098,1648.173 		"/>
		<polygon style="fill:#FDAE97;" points="1857.345,1691.262 1852.986,1664.858 1800.972,1664.858 1807.591,1691.262 		"/>
		<polygon style="fill:#F74242;" points="1846.766,1189.897 1856.418,1189.897 1857.263,1191.729 1852.816,1195.04 
			1849.021,1195.04 1845.85,1191.166 		"/>
		<polygon style="fill:#E89780;" points="1804.152,1677.543 1852.986,1664.858 1800.972,1664.858 		"/>
		<polygon style="fill:#FFFFFF;" points="1881.575,1174.038 1851.24,1185.196 1856.77,1197.858 1882.913,1176.82 		"/>
		<polygon style="fill:#FFFFFF;" points="1839.09,1177.111 1837.634,1180.079 1845.498,1196.661 1851.24,1185.196 		"/>
		<polygon style="fill:#F74242;" points="1849.021,1195.04 1834.649,1306.591 1845.85,1321.033 1860.415,1307.934 1852.816,1195.04 
					"/>
		
			<line style="fill:none;stroke:#2C3447;stroke-width:0.8319;stroke-miterlimit:10;" x1="1912.647" y1="1250.034" x2="1928.605" y2="1315.969"/>
		
			<line style="fill:none;stroke:#2C3447;stroke-width:0.8319;stroke-miterlimit:10;" x1="1800.493" y1="1290.064" x2="1799.134" y2="1250.034"/>
		<path style="fill:#403534;" d="M1857.345,1691.262l4.676,19.246h-69.804l0,0c-2.26-9.851,5.224-19.246,15.331-19.246h0.043
			H1857.345z"/>
		<path style="fill:#403534;" d="M1740.029,1674.577v20.956h-73.113l0.089-1.728c0.557-10.776,9.457-19.228,20.248-19.228l0,0
			H1740.029z"/>
		
			<path style="fill:none;stroke:#FFFFFF;stroke-width:0.4427;stroke-linecap:round;stroke-linejoin:round;stroke-miterlimit:10;" d="
			M1686.204,1678.745c0,0-1.592-6.963-5.521-5.073c-3.929,1.89,5.272,5.322,5.272,5.322l-5.471,3.78"/>
		
			<path style="fill:none;stroke:#FFFFFF;stroke-width:0.4427;stroke-linecap:round;stroke-linejoin:round;stroke-miterlimit:10;" d="
			M1686.204,1678.745c0,0,1.592-6.963,5.521-5.073c3.929,1.89-5.272,5.322-5.272,5.322l5.471,3.78"/>
		
			<path style="fill:none;stroke:#FFFFFF;stroke-width:0.4427;stroke-linecap:round;stroke-linejoin:round;stroke-miterlimit:10;" d="
			M1808.09,1696.218c0,0-1.592-6.963-5.521-5.073c-3.929,1.89,5.272,5.322,5.272,5.322l-5.471,3.78"/>
		
			<path style="fill:none;stroke:#FFFFFF;stroke-width:0.4427;stroke-linecap:round;stroke-linejoin:round;stroke-miterlimit:10;" d="
			M1808.09,1696.218c0,0,1.592-6.963,5.521-5.073c3.929,1.89-5.272,5.322-5.272,5.322l5.471,3.78"/>
		<path style="fill:#F9E181;" d="M1834.687,1179.465c0,0-2.853,29.833-7.472,74.883c-4.619,45.05-4.316,115.366-18.866,128.859
			c0,0-14.99,1.116-45.341,10.062c0,0,8.487-28.528,18.881-44.679c10.394-16.151,15.486-152.373,15.486-152.373L1834.687,1179.465z"
			/>
		<polygon style="fill:#E5F0F8;" points="1832.223,1204.668 1828.699,1239.794 1839.9,1230.249 1839.09,1205.355 		"/>
		<path style="fill:#F9E181;" d="M1892.058,1177.703c0,0-11.203,48.312-16.689,93.112c-5.486,44.801-3.626,88.124-17.742,114.432
			c0,0,56.621,10.186,56.49,33.024c0,0,15.962-17.603,16.1-41.714c0.138-24.111,9.418-183.36,9.418-183.36L1892.058,1177.703z"/>
		<g>
			<polygon style="fill:#A5BBD6;" points="1706.107,1431.893 1834.417,1431.893 1800.93,1335.811 1672.621,1335.811 			"/>
			<g>
				<polygon style="fill:#89A5C7;" points="1833.018,1427.229 1874.975,1390.117 1750.87,1390.117 1704.708,1427.229 				"/>
				<polygon style="fill:#A5BBD6;" points="1708.531,1429.767 1836.841,1429.767 1803.354,1333.684 1675.044,1333.684 				"/>
				<polygon style="fill:#89A5C7;" points="1675.044,1333.684 1672.621,1335.811 1800.93,1335.811 1834.417,1431.893 
					1836.841,1429.767 1803.354,1333.684 				"/>
				<polygon style="fill:#586773;" points="1874.975,1390.117 1876.374,1394.781 1834.417,1431.893 1832.792,1427.229 				"/>
			</g>
			<ellipse style="fill:#89A5C7;" cx="1748.109" cy="1384.945" rx="14.226" ry="6.297"/>
		</g>
		<path style="fill:#FDAE97;" d="M1849.028,1360.883l18.996,32.637l-0.106,0.066c-8.714,4.59-26.992,22.129-33.596,28.606
			c-1.518,1.438-3.698,1.811-5.584,0.917l-17.941-8.327c-2.825-1.294-4.93-3.725-5.825-6.665l-3.932-12.718
			c-0.366-1.299,0.797-2.516,2.086-2.185l10.2,2.856c1.462,0.37,3.014-0.301,3.636-1.674l5.801-12.034l-16.529,9.753
			c-0.945,0.539-2.167,0.316-2.835-0.598l-0.911-1.304c-0.667-0.914-0.524-2.185,0.346-2.924l26.14-21.205l19.175-4.556
			C1848.15,1361.528,1848.447,1361.294,1849.028,1360.883z"/>
		<path style="fill:#F9E181;" d="M1980.638,1305.503c8.023,12.091,5.818,27.844-4.898,34.912l-106.326,60.951l-26.363-45.323
			l98.559-60.982C1952.325,1287.993,1972.628,1293.354,1980.638,1305.503z"/>
		<polyline style="fill:none;stroke:#322A28;stroke-width:1.1447;stroke-miterlimit:10;" points="1869.212,1339.856 1927.162,1304 
			1914.584,1258.037 		"/>
	</g>
	<g>
		<path style="fill:#F74242;" d="M995.403,1543.2L995.403,1543.2c-11.672,6.282-26.363,1.872-32.645-9.801l-47.221-87.739
			c-6.282-11.672-1.872-26.363,9.801-32.645h0c11.672-6.282,26.363-1.872,32.645,9.801l47.221,87.739
			C1011.485,1522.228,1007.075,1536.918,995.403,1543.2z"/>
		<path style="fill:#FDAE97;" d="M963.531,1536.019c-7.303-11.139-5.233-25.527,4.599-31.973l92.149-44.258
			c2.748-2.151,5.803-4.731,8.073-7.176c5.276-5.684,21.428-19.433,23.391-17.092c1.963,2.341-7.194,14.005-5.564,14.311
			c1.63,0.307,10.345-6.68,13.824-9.954c3.479-3.274,9.807-11.494,12.555-10.997c2.749,0.497,3.084,4.598,3.084,4.598
			s2.03-3.432,3.928-1.752c1.898,1.681,0.031,7.797,0.031,7.797s0.935-2.025,2.567,0.349c1.633,2.373-4.269,10.518-4.269,10.518
			s1.692-1.099,2.685,0.87c0.993,1.969-7.942,11.811-16.372,16.604c-7.526,4.278-26.536,12.458-30.533,14.165l-78.994,62.523
			C984.854,1550.998,970.834,1547.158,963.531,1536.019z"/>
		<path style="fill:#322A28;" d="M874.948,1338.759c0,0-12.392,9.317-9.397,28.135c2.995,18.818,4.667,29.002-7.241,30.15
			s-35.892-5.611-37.593,10.37c-1.7,15.981,9.706,26.446-7.046,29.632c-16.751,3.186-18.731,24.845-18.731,24.845
			s60.528,36.891,117.039,1.377c56.512-35.514-4.602-58.546-4.602-58.546L874.948,1338.759z"/>
		<path style="fill:#0775EF;" d="M888.08,1572.392c-15.779,20.66-21.725,63.493-11.663,109.635
			c10.061,46.142,13.46,76.475,13.46,76.475c2.623,21.359,22.063,36.548,43.423,33.926c21.359-2.623,36.548-22.064,33.926-43.423
			l-16.043-176.613H888.08z"/>
		<path style="fill:#E5F0F8;" d="M884.601,1403.019l-42.178,19.103c0,0,9.378,108.579,10.347,120.456
			c0.97,11.877-2.666,29.814-2.666,29.814h101.078c0,0-1.212-58.174,5.575-74.415c4.598-11.002,7.757-17.695,5.09-30.299
			s-22.176-34.887-19.025-56.703l-22.003-7.047L884.601,1403.019z"/>
		<path style="fill:#F74242;" d="M831.401,1564.928L831.401,1564.928c-13.032-2.424-21.711-15.07-19.287-28.102l18.222-97.959
			c2.424-13.032,15.07-21.711,28.102-19.287l0,0c13.032,2.424,21.711,15.07,19.287,28.102l-18.222,97.959
			C857.079,1558.673,844.433,1567.353,831.401,1564.928z"/>
		<path style="fill:#332B27;" d="M927.956,1339.095c0,0,6.29-13.882-7.325-18.697L927.956,1339.095z"/>
		<path style="fill:#FDAE97;" d="M884.423,1403.013l0.028,0.028c0.453,0.793,8.104,13.686,22.583,12.609
			c12.808-0.964,13.771-11.731,13.771-11.731v-49.048h-31.169L884.423,1403.013z"/>
		<polygon style="fill:#E89780;" points="920.805,1398.333 899.06,1374.686 920.819,1382.86 		"/>
		<path style="fill:#FDAE97;" d="M899.74,1377.841c9.922,6.39,21.907,6.854,29.328,2.276c7.426-4.55,6.676-15.738,4.801-22.896
			c-0.006-0.028-0.006-0.028-0.013-0.055c-0.392-1.48-0.948-3.562-1.567-5.921c-2.404-9.247-5.956-22.94-5.956-22.94
			c-1.505-7.221-21.355-24.116-41.574-3.901C864.546,1344.645,889.818,1371.451,899.74,1377.841z"/>
		<path style="fill:#322A28;" d="M925.797,1325.388c0,0-0.603,8.559-12.833,13.812c-12.23,5.253-23.969,13.56-23.032,26.272
			c0.937,12.712-3.683,19.681-3.683,19.681s-1.165-15.842-8.594-29.512c-2.882-5.302-5.154-16.339,0.341-25.56
			C886.668,1315.531,907.988,1305.057,925.797,1325.388z"/>
		<path style="fill:#FDAE97;" d="M892.093,1362.833c2.431,3.917,3.059,6.66-0.016,8.569s-8.14,1.229-10.571-2.688
			c-2.431-3.917-1.909-8.64,1.166-10.549S889.662,1358.916,892.093,1362.833z"/>
		
			<path style="fill:none;stroke:#E89780;stroke-width:0.5726;stroke-linecap:round;stroke-linejoin:round;stroke-miterlimit:10;" d="
			M885.224,1365.412c2.562-1.125,4.709,0.06,4.709,0.06c-1.565-4.421-6.861-2.867-6.861-2.867"/>
		<path style="fill:#332B27;" d="M910.406,1351.885c0.409,1.734,1.65,2.925,2.771,2.66s1.699-1.884,1.29-3.618
			c-0.409-1.734-1.65-2.924-2.771-2.66C910.574,1348.531,909.997,1350.151,910.406,1351.885z"/>
		<path style="fill:#332B27;" d="M924.9,1347.045c0.409,1.734,1.65,2.924,2.771,2.66c1.122-0.265,1.699-1.884,1.29-3.618
			c-0.409-1.734-1.65-2.924-2.771-2.66C925.068,1343.691,924.491,1345.311,924.9,1347.045z"/>
		<path style="fill:#0775EF;" d="M980.233,1917.679h-79.36l-11.631-159.452l-0.301-4.606c0-21.878,18.026-39.513,40.055-38.851
			c19.862,0.572,36.504,16.732,37.677,36.594L980.233,1917.679z"/>
		<path style="fill:none;stroke:#332B27;stroke-width:0.8501;stroke-miterlimit:10;" d="M905.635,1349.333
			c0,0,2.461-5.141,6.886-4.536"/>
		<path style="fill:none;stroke:#332B27;stroke-width:0.8501;stroke-miterlimit:10;" d="M923.865,1341.304
			c0,0,2.417-1.068,5.755,1.035"/>
		<path style="fill:#088CFC;" d="M880.392,1917.679h-85.373l16.79-166.065l0.061-0.722c1.403-20.192,18.483-36.141,39.315-36.141
			c21.777,0,39.406,17.393,39.406,38.879c0,1.204-0.061,2.377-0.183,3.521L880.392,1917.679z"/>
		<path style="fill:none;stroke:#332B27;stroke-width:0.8501;stroke-miterlimit:10;" d="M919.721,1348.529
			c0,0,2.225,8.543,7.514,8.404c0,0-1.259,1.838-3.127,2.913"/>
		<path style="fill:#088CFC;" d="M850.104,1572.392c-20.022,16.581-33.69,51.962-34.266,99.185
			c-0.576,47.223-4.088,77.543-4.088,77.543c-2.249,21.402,13.276,40.575,34.678,42.824c21.402,2.249,40.575-13.277,42.824-34.678
			l30.239-184.874H850.104z"/>
		<path style="fill:#F74242;" d="M881.531,1404.41c0,0,24.744,32.984,29.496,67.807c4.751,34.824-10.614,73.538-14.748,110.713
			c-4.134,37.175-24.817,190.348-24.817,190.348h-68.812c0,0-3.434-102.2,8.883-143.908c12.317-41.708,30.89-207.248,30.89-207.248
			L881.531,1404.41z"/>
		<path style="fill:none;stroke:#332B27;stroke-width:0.8501;stroke-miterlimit:10;" d="M926.65,1366.799
			c0,0-5.044,3.683-10.53-1.542"/>
		<path style="fill:#E89780;" d="M902.811,1359.442c-0.124,1.852,2.719,3.551,6.35,3.795c3.631,0.244,6.676-1.06,6.801-2.912
			c0.124-1.852-2.719-3.551-6.35-3.795C905.98,1356.287,902.936,1357.59,902.811,1359.442z"/>
		<path style="fill:#E89780;" d="M930.051,1356.135c0.547,1.009,2.017,1.346,3.805,1.03c-0.392-1.48-0.948-3.562-1.567-5.921
			C930.311,1352.91,929.331,1354.874,930.051,1356.135z"/>
		<path style="fill:#FDAE97;" d="M896.251,1699.042c2.06-1.478-0.836-4.219-0.836-4.219s4.072,0.584,5.167-1.986
			c1.095-2.57-5.515-10.564-7.935-14.683c-2.42-4.119-7.298-14.168-6.637-15.689c0.661-1.521,10.001,9.996,12.719,8.602
			c2.718-1.394-7.102-20.195-11.472-26.602c-1.88-2.755-3.718-6.308-5.205-9.464l-22.696-99.675
			c-4.102-11.018-17.672-16.23-30.154-11.583c-12.483,4.648-19.339,17.465-15.237,28.483l43.425,90.903
			c0.778,4.276,4.532,24.628,7.033,32.916c2.802,9.284,10.414,20.181,12.555,19.65c2.141-0.531,1.445-2.425,1.445-2.425
			s6.631,7.563,9.308,6.498c2.677-1.065,0.91-2.426,0.91-2.426S894.191,1700.52,896.251,1699.042z"/>
		<path style="fill:#322A28;" d="M884.025,1310.201c5.991,4.379,5.539,15.192-1.01,24.152c-6.549,8.96-16.715,12.673-22.706,8.294
			c-5.991-4.379-5.539-15.192,1.01-24.152C867.868,1309.535,878.034,1305.822,884.025,1310.201z"/>
		<path style="fill:none;stroke:#FFFFFF;stroke-width:0.7523;stroke-miterlimit:10;" d="M893.482,1371.453
			c0.36,1.597-0.643,3.183-2.24,3.543c-1.597,0.36-3.183-0.643-3.543-2.239c-0.36-1.597,0.643-3.183,2.239-3.543
			S893.122,1369.856,893.482,1371.453z"/>
		<polygon style="fill:#FDAE97;" points="878.867,2003.609 807.244,2003.609 807.575,1996.688 808.659,1974.809 808.265,1917.679 
			860.156,1917.679 846.938,1974.809 		"/>
		<polygon style="fill:#FDAE97;" points="1000.506,2003.609 924.899,2003.609 924.789,1996.688 923.376,1974.809 917.39,1917.679 
			969.911,1917.679 968.577,1974.809 992.832,1996.688 		"/>
		<path style="fill:#322A28;" d="M807.238,2003.61h71.626c-0.159-2.788-0.677-5.497-1.553-8.047
			c-4.103-12.11-15.536-20.755-28.921-20.755h-39.717l-1.076,20.755l-0.04,1.115L807.238,2003.61z"/>
		<path style="fill:#322A28;" d="M923.362,1974.809l1.214,20.755l0.199,1.115l0.14,6.931h75.61l-0.318-1.912
			c-0.359-2.151-0.876-4.183-1.634-6.135c-1.912-5.179-5.138-9.641-9.241-13.106c-5.618-4.78-12.907-7.648-20.756-7.648H923.362z"/>
		
			<line style="fill:none;stroke:#FFFFFF;stroke-width:0.7523;stroke-miterlimit:10;" x1="849.432" y1="1983.301" x2="862.365" y2="1983.301"/>
		
			<line style="fill:none;stroke:#FFFFFF;stroke-width:0.7523;stroke-miterlimit:10;" x1="853.54" y1="1988.322" x2="866.474" y2="1988.322"/>
		
			<line style="fill:none;stroke:#FFFFFF;stroke-width:0.7523;stroke-miterlimit:10;" x1="973.481" y1="1983.301" x2="986.415" y2="1983.301"/>
		
			<line style="fill:none;stroke:#FFFFFF;stroke-width:0.7523;stroke-miterlimit:10;" x1="977.59" y1="1988.322" x2="990.523" y2="1988.322"/>
		<path style="fill:#FFFFFF;" d="M828.047,1986.649c0,3.025-2.452,5.478-5.478,5.478c-3.025,0-5.478-2.452-5.478-5.478
			c0-3.025,2.452-5.478,5.478-5.478C825.595,1981.171,828.047,1983.623,828.047,1986.649z"/>
		<path style="fill:#FFFFFF;" d="M949.512,1986.649c0,3.025-2.452,5.478-5.478,5.478c-3.025,0-5.478-2.452-5.478-5.478
			c0-3.025,2.452-5.478,5.478-5.478C947.06,1981.171,949.512,1983.623,949.512,1986.649z"/>
		<path style="fill:#F74242;" d="M925.797,1405.523c0,0,10.859,26.589,12.639,64.187s17.894,303.568,17.894,303.568h32.892
			c0,0-36.442-234.01-31.713-257.912c4.729-23.902,14.216-37.867,10.01-52.638c-4.206-14.771-24.697-51.752-24.697-51.752
			L925.797,1405.523z"/>
		<path style="fill:none;stroke:#FFFFFF;stroke-width:1.1451;stroke-miterlimit:10;" d="M955.509,1501.748
			c0,0,7.412-16.222,7.181-28.418c-0.231-12.196-8.572-22.829-8.572-22.829"/>
		<path style="fill:#FFFFFF;" d="M924.576,1995.564l0.339,8.047h75.61l-0.318-1.912c-0.359-2.151-0.876-4.183-1.634-6.135H924.576z"
			/>
		<path style="fill:#FFFFFF;" d="M807.238,2003.61h71.626c-0.159-2.788-0.677-5.497-1.553-8.047h-69.714l-0.04,1.115
			L807.238,2003.61z"/>
		<polygon style="fill:#E89780;" points="856.299,1934.35 808.289,1921.226 808.265,1917.679 860.156,1917.679 		"/>
		<polygon style="fill:#E89780;" points="969.521,1934.35 917.39,1922.235 917.39,1917.679 969.911,1917.679 		"/>
		<path style="fill:#F74242;" d="M1059.794,1456.753l22.559,38.673c0,0-66.763,64.602-100.24,53.645
			c-33.477-10.957-24.842-44.874-8.93-52.583C989.096,1488.778,1059.794,1456.753,1059.794,1456.753z"/>
		<path style="fill:#F74242;" d="M887.626,1631.787l-37.46,13.737c0,0-38.33-76.527-38.229-97.844
			c0.101-21.317,11.389-23.393,20.05-25.638c8.661-2.245,23.969-0.432,28.4,11.854
			C864.819,1546.183,887.626,1631.787,887.626,1631.787z"/>
		<polyline style="fill:none;stroke:#FFFFFF;stroke-width:1.1451;stroke-miterlimit:10;" points="876.988,1475.183 
			864.601,1547.681 884.819,1621.294 		"/>
		
			<line style="fill:none;stroke:#FFFFFF;stroke-width:1.1451;stroke-miterlimit:10;" x1="833.839" y1="1610.956" x2="821.27" y2="1581.138"/>
	</g>
</g>
</svg>
