<?xml version="1.0" encoding="utf-8"?>
<!-- Generator: Adobe Illustrator 27.5.0, SVG Export Plug-In . SVG Version: 6.00 Build 0)  -->
<svg version="1.1" xmlns="http://www.w3.org/2000/svg" xmlns:xlink="http://www.w3.org/1999/xlink" x="0px" y="0px"
	 viewBox="0 0 750 500" style="enable-background:new 0 0 750 500;" xml:space="preserve">
<g id="BACKGROUND">
	<rect style="fill:#FFFFFF;" width="750" height="500"/>
</g>
<g id="OBJECTS">
	<g>
		<path style="fill:#E0EFFF;" d="M84.828,437.416h600.929c7.924-27.948,10.819-56.414,2.155-83.818
			c-5.582-17.655-15.783-33.797-18.821-52.095c-3.548-21.366,3.062-43.013,4.029-64.666c1.9-42.542-19.111-84.495-51.364-111.258
			c-32.253-26.763-74.612-39.01-116.067-38.142c-33.559,0.702-67.306,9.483-100.356,3.463
			c-24.542-4.471-47.145-16.885-71.588-21.896c-31.656-6.49-65.689,0.228-92.748,18.307c-22.467,15.011-39.667,37.005-61.035,53.623
			c-25.046,19.479-55.476,31.312-78.511,53.254C70.1,224.051,56.344,269.723,56.815,313.637
			C57.273,356.231,69.745,397.69,84.828,437.416z"/>
		<g>
			<g>
				
					<rect x="380.058" y="111.362" style="fill:none;stroke:#FFFFFF;stroke-linejoin:round;stroke-miterlimit:10;" width="170.475" height="326.054"/>
				
					<line style="fill:none;stroke:#FFFFFF;stroke-linejoin:round;stroke-miterlimit:10;" x1="468.694" y1="111.362" x2="468.694" y2="436.341"/>
				<circle style="fill:none;stroke:#FFFFFF;stroke-linejoin:round;stroke-miterlimit:10;" cx="478.634" cy="272.107" r="3.883"/>
				
					<line style="fill:none;stroke:#FFFFFF;stroke-linejoin:round;stroke-miterlimit:10;" x1="468.694" y1="162.837" x2="380.058" y2="162.837"/>
				
					<line style="fill:none;stroke:#FFFFFF;stroke-linejoin:round;stroke-miterlimit:10;" x1="468.694" y1="219.549" x2="380.058" y2="219.549"/>
				
					<line style="fill:none;stroke:#FFFFFF;stroke-linejoin:round;stroke-miterlimit:10;" x1="468.694" y1="276.26" x2="380.058" y2="276.26"/>
				
					<line style="fill:none;stroke:#FFFFFF;stroke-linejoin:round;stroke-miterlimit:10;" x1="468.694" y1="332.971" x2="380.058" y2="332.971"/>
				<path style="fill:none;stroke:#FFFFFF;stroke-linejoin:round;stroke-miterlimit:10;" d="M394.907,153.424h57.585
					c1.943,0,3.517,1.575,3.517,3.517v1.196c0,1.943-1.575,3.517-3.517,3.517h-57.585c-1.943,0-3.517-1.575-3.517-3.517v-1.196
					C391.389,154.999,392.964,153.424,394.907,153.424z"/>
				<path style="fill:none;stroke:#FFFFFF;stroke-linejoin:round;stroke-miterlimit:10;" d="M394.907,128.734h57.585
					c1.943,0,3.517,1.575,3.517,3.517v1.196c0,1.943-1.575,3.517-3.517,3.517h-57.585c-1.943,0-3.517-1.575-3.517-3.517v-1.196
					C391.389,130.309,392.964,128.734,394.907,128.734z"/>
				<path style="fill:none;stroke:#FFFFFF;stroke-linejoin:round;stroke-miterlimit:10;" d="M386.643,323.261h72.585
					c1.943,0,3.517,1.575,3.517,3.517v1.196c0,1.943-1.575,3.517-3.517,3.517h-72.585c-1.943,0-3.517-1.575-3.517-3.517v-1.196
					C383.126,324.836,384.701,323.261,386.643,323.261z"/>
				<path style="fill:none;stroke:#FFFFFF;stroke-linejoin:round;stroke-miterlimit:10;" d="M386.643,315.031h72.585
					c1.943,0,3.517,1.575,3.517,3.517v1.196c0,1.943-1.575,3.517-3.517,3.517h-72.585c-1.943,0-3.517-1.575-3.517-3.517v-1.196
					C383.126,316.606,384.701,315.031,386.643,315.031z"/>
				<path style="fill:none;stroke:#FFFFFF;stroke-linejoin:round;stroke-miterlimit:10;" d="M386.643,306.801h72.585
					c1.943,0,3.517,1.575,3.517,3.517v1.196c0,1.943-1.575,3.517-3.517,3.517h-72.585c-1.943,0-3.517-1.575-3.517-3.517v-1.196
					C383.126,308.376,384.701,306.801,386.643,306.801z"/>
				<path style="fill:none;stroke:#FFFFFF;stroke-linejoin:round;stroke-miterlimit:10;" d="M386.643,298.571h72.585
					c1.943,0,3.517,1.575,3.517,3.517v1.196c0,1.943-1.575,3.517-3.517,3.517h-72.585c-1.943,0-3.517-1.575-3.517-3.517v-1.196
					C383.126,300.146,384.701,298.571,386.643,298.571z"/>
				<path style="fill:none;stroke:#FFFFFF;stroke-linejoin:round;stroke-miterlimit:10;" d="M386.643,290.341h72.585
					c1.943,0,3.517,1.575,3.517,3.517v1.196c0,1.943-1.575,3.517-3.517,3.517h-72.585c-1.943,0-3.517-1.575-3.517-3.517v-1.196
					C383.126,291.916,384.701,290.341,386.643,290.341z"/>
				<path style="fill:none;stroke:#FFFFFF;stroke-linejoin:round;stroke-miterlimit:10;" d="M457.357,145.194
					c-0.075-2.844-0.737-4.69-1.571-5.908c-0.491-1.351-1.774-2.322-3.295-2.322h-57.585c-1.942,0-3.517,1.575-3.517,3.517v1.196
					c0,1.943,1.575,3.517,3.517,3.517c-1.942,0-3.517,1.575-3.517,3.517v1.196c0,1.943,1.575,3.517,3.517,3.517h57.585
					c1.273,0,2.378-0.683,2.995-1.695C456.564,150.555,457.446,148.577,457.357,145.194z"/>
				
					<line style="fill:none;stroke:#FFFFFF;stroke-linejoin:round;stroke-miterlimit:10;" x1="394.504" y1="145.194" x2="438.361" y2="145.194"/>
				<path style="fill:none;stroke:#FFFFFF;stroke-linejoin:round;stroke-miterlimit:10;" d="M457.357,266.643
					c-0.075-2.844-0.737-4.69-1.571-5.908c-0.491-1.351-1.774-2.322-3.295-2.322h-57.585c-1.942,0-3.517,1.575-3.517,3.517v1.196
					c0,1.943,1.575,3.517,3.517,3.517c-1.942,0-3.517,1.575-3.517,3.517v1.196c0,1.943,1.575,3.517,3.517,3.517h57.585
					c1.273,0,2.378-0.683,2.995-1.695C456.564,272.004,457.446,270.026,457.357,266.643z"/>
				
					<line style="fill:none;stroke:#FFFFFF;stroke-linejoin:round;stroke-miterlimit:10;" x1="394.504" y1="266.643" x2="438.361" y2="266.643"/>
				<path style="fill:none;stroke:#FFFFFF;stroke-linejoin:round;stroke-miterlimit:10;" d="M449.652,158.246
					c0,0-4.483,1.371-11.29,1.371s-14.417-3.21-21.982-3.21"/>
				<path style="fill:none;stroke:#FFFFFF;stroke-linejoin:round;stroke-miterlimit:10;" d="M456.846,209.588h-65.585
					c-1.943,0-3.517,1.575-3.517,3.517v1.196c0,1.943,1.575,3.517,3.517,3.517h65.585c1.943,0,3.517-1.575,3.517-3.517v-1.196
					C460.363,211.163,458.789,209.588,456.846,209.588z"/>
				<path style="fill:none;stroke:#FFFFFF;stroke-linejoin:round;stroke-miterlimit:10;" d="M456.846,184.898h-65.585
					c-1.943,0-3.517,1.575-3.517,3.517v1.196c0,1.943,1.575,3.517,3.517,3.517h65.585c1.943,0,3.517-1.575,3.517-3.517v-1.196
					C460.363,186.473,458.789,184.898,456.846,184.898z"/>
				<path style="fill:none;stroke:#FFFFFF;stroke-linejoin:round;stroke-miterlimit:10;" d="M386.396,201.358
					c0.075-2.844,0.737-4.69,1.571-5.908c0.491-1.351,1.774-2.322,3.295-2.322h65.585c1.942,0,3.517,1.575,3.517,3.517v1.196
					c0,1.943-1.575,3.517-3.517,3.517c1.942,0,3.517,1.575,3.517,3.517v1.196c0,1.943-1.575,3.517-3.517,3.517h-65.585
					c-1.273,0-2.378-0.683-2.995-1.695C387.188,206.719,386.306,204.741,386.396,201.358z"/>
				
					<line style="fill:none;stroke:#FFFFFF;stroke-linejoin:round;stroke-miterlimit:10;" x1="457.248" y1="201.358" x2="405.392" y2="201.358"/>
				<path style="fill:none;stroke:#FFFFFF;stroke-linejoin:round;stroke-miterlimit:10;" d="M394.101,214.41
					c0,0,4.483,1.371,11.29,1.371s14.417-3.21,21.982-3.21"/>
			</g>
			<g>
				
					<rect x="222.143" y="309.801" style="fill:none;stroke:#FFFFFF;stroke-linejoin:round;stroke-miterlimit:10;" width="84.474" height="112.851"/>
				<polyline style="fill:none;stroke:#FFFFFF;stroke-linejoin:round;stroke-miterlimit:10;" points="237.091,422.651 
					230.214,437.249 222.143,437.16 222.143,422.651 				"/>
				
					<line style="fill:none;stroke:#FFFFFF;stroke-linejoin:round;stroke-miterlimit:10;" x1="222.143" y1="346.587" x2="306.618" y2="346.587"/>
				
					<rect x="227.366" y="316.07" style="fill:none;stroke:#FFFFFF;stroke-linejoin:round;stroke-miterlimit:10;" width="74.029" height="23.987"/>
				
					<line style="fill:none;stroke:#FFFFFF;stroke-linejoin:round;stroke-miterlimit:10;" x1="222.143" y1="384.619" x2="306.618" y2="384.619"/>
				
					<rect x="227.366" y="354.102" style="fill:none;stroke:#FFFFFF;stroke-linejoin:round;stroke-miterlimit:10;" width="74.029" height="23.987"/>
				
					<line style="fill:none;stroke:#FFFFFF;stroke-linejoin:round;stroke-miterlimit:10;" x1="222.143" y1="422.651" x2="306.618" y2="422.651"/>
				
					<rect x="227.366" y="392.134" style="fill:none;stroke:#FFFFFF;stroke-linejoin:round;stroke-miterlimit:10;" width="74.029" height="23.987"/>
				<circle style="fill:none;stroke:#FFFFFF;stroke-linejoin:round;stroke-miterlimit:10;" cx="264.381" cy="328.063" r="2.459"/>
			</g>
			<g>
				
					<rect x="233.257" y="116.362" style="fill:none;stroke:#FFFFFF;stroke-linejoin:round;stroke-miterlimit:10;" width="39.799" height="39.799"/>
				
					<rect x="244.535" y="127.64" transform="matrix(6.123234e-17 -1 1 6.123234e-17 116.8947 389.4172)" style="fill:none;stroke:#FFFFFF;stroke-linejoin:round;stroke-miterlimit:10;" width="17.243" height="17.243"/>
				
					<rect x="283.232" y="142.779" style="fill:none;stroke:#FFFFFF;stroke-linejoin:round;stroke-miterlimit:10;" width="39.799" height="39.799"/>
				
					<rect x="294.51" y="154.057" transform="matrix(6.123234e-17 -1 1 6.123234e-17 140.4526 465.8093)" style="fill:none;stroke:#FFFFFF;stroke-linejoin:round;stroke-miterlimit:10;" width="17.243" height="17.243"/>
			</g>
		</g>
		<g>
			<g>
				<path style="fill:#FF6862;" d="M368.644,336.399c-2.823-21.562-13.302-33.611-23.639-32.166
					c-10.337,1.445-16.822,16.566-14.089,37.44L368.644,336.399z"/>
				<circle style="fill:#FFFFFF;" cx="345.005" cy="304.233" r="6.683"/>
				<g>
					
						<line style="fill:none;stroke:#003450;stroke-width:0.414;stroke-linejoin:round;stroke-miterlimit:10;" x1="332.072" y1="337.55" x2="332.487" y2="340.524"/>
					
						<line style="fill:none;stroke:#003450;stroke-width:0.414;stroke-linejoin:round;stroke-miterlimit:10;" x1="334.064" y1="337.271" x2="334.48" y2="340.246"/>
					
						<line style="fill:none;stroke:#003450;stroke-width:0.414;stroke-linejoin:round;stroke-miterlimit:10;" x1="336.057" y1="336.993" x2="336.473" y2="339.967"/>
					
						<line style="fill:none;stroke:#003450;stroke-width:0.414;stroke-linejoin:round;stroke-miterlimit:10;" x1="338.05" y1="336.714" x2="338.466" y2="339.689"/>
					
						<line style="fill:none;stroke:#003450;stroke-width:0.414;stroke-linejoin:round;stroke-miterlimit:10;" x1="340.043" y1="336.436" x2="340.459" y2="339.41"/>
					
						<line style="fill:none;stroke:#003450;stroke-width:0.414;stroke-linejoin:round;stroke-miterlimit:10;" x1="342.036" y1="336.157" x2="342.451" y2="339.131"/>
					
						<line style="fill:none;stroke:#003450;stroke-width:0.414;stroke-linejoin:round;stroke-miterlimit:10;" x1="344.028" y1="335.878" x2="344.444" y2="338.853"/>
					
						<line style="fill:none;stroke:#003450;stroke-width:0.414;stroke-linejoin:round;stroke-miterlimit:10;" x1="346.021" y1="335.6" x2="346.437" y2="338.574"/>
					
						<line style="fill:none;stroke:#003450;stroke-width:0.414;stroke-linejoin:round;stroke-miterlimit:10;" x1="348.014" y1="335.321" x2="348.43" y2="338.296"/>
					
						<line style="fill:none;stroke:#003450;stroke-width:0.414;stroke-linejoin:round;stroke-miterlimit:10;" x1="350.007" y1="335.043" x2="350.422" y2="338.017"/>
					
						<line style="fill:none;stroke:#003450;stroke-width:0.414;stroke-linejoin:round;stroke-miterlimit:10;" x1="351.999" y1="334.764" x2="352.415" y2="337.739"/>
					
						<line style="fill:none;stroke:#003450;stroke-width:0.414;stroke-linejoin:round;stroke-miterlimit:10;" x1="353.992" y1="334.486" x2="354.408" y2="337.46"/>
					
						<line style="fill:none;stroke:#003450;stroke-width:0.414;stroke-linejoin:round;stroke-miterlimit:10;" x1="355.985" y1="334.207" x2="356.401" y2="337.181"/>
					
						<line style="fill:none;stroke:#003450;stroke-width:0.414;stroke-linejoin:round;stroke-miterlimit:10;" x1="357.978" y1="333.928" x2="358.394" y2="336.903"/>
					
						<line style="fill:none;stroke:#003450;stroke-width:0.414;stroke-linejoin:round;stroke-miterlimit:10;" x1="359.971" y1="333.65" x2="360.386" y2="336.624"/>
					
						<line style="fill:none;stroke:#003450;stroke-width:0.414;stroke-linejoin:round;stroke-miterlimit:10;" x1="361.963" y1="333.371" x2="362.379" y2="336.346"/>
					
						<line style="fill:none;stroke:#003450;stroke-width:0.414;stroke-linejoin:round;stroke-miterlimit:10;" x1="363.956" y1="333.093" x2="364.372" y2="336.067"/>
					
						<line style="fill:none;stroke:#003450;stroke-width:0.414;stroke-linejoin:round;stroke-miterlimit:10;" x1="365.949" y1="332.814" x2="366.365" y2="335.788"/>
				</g>
			</g>
			<g>
				<g>
					<g>
						<path style="fill:#3B9CFD;" d="M460.433,330.418h-88.004c-1.943,0-3.517-1.575-3.517-3.517v-1.196
							c0-1.943,1.575-3.517,3.517-3.517h88.004c1.943,0,3.517,1.575,3.517,3.517v1.196
							C463.951,328.844,462.376,330.418,460.433,330.418z"/>
						<path style="fill:#3B9CFD;" d="M460.433,322.58h-88.004c-1.943,0-3.517-1.575-3.517-3.517v-1.196
							c0-1.943,1.575-3.517,3.517-3.517h88.004c1.943,0,3.517,1.575,3.517,3.517v1.196
							C463.951,321.005,462.376,322.58,460.433,322.58z"/>
						<path style="fill:#3B9CFD;" d="M460.433,338.648h-88.004c-1.943,0-3.517-1.575-3.517-3.517v-1.196
							c0-1.943,1.575-3.517,3.517-3.517h88.004c1.943,0,3.517,1.575,3.517,3.517v1.196
							C463.951,337.074,462.376,338.648,460.433,338.648z"/>
						<path style="fill:#3B9CFD;" d="M373.027,338.648c0,0-5.243,0.125-5.463-8.23c-0.22-8.355,5.463-8.23,5.463-8.23V338.648z"/>
						<path style="fill:#3B9CFD;" d="M459.836,330.418c0,0,5.243,0.121,5.463-8.024c0.22-8.145-5.463-8.024-5.463-8.024V330.418z"/>
					</g>
					
						<line style="fill:none;stroke:#003450;stroke-width:0.414;stroke-linejoin:round;stroke-miterlimit:10;" x1="459.836" y1="330.418" x2="386.56" y2="330.418"/>
					
						<line style="fill:none;stroke:#003450;stroke-width:0.414;stroke-linejoin:round;stroke-miterlimit:10;" x1="373.027" y1="322.188" x2="450.476" y2="322.188"/>
				</g>
			</g>
			<g>
				<rect x="322.23" y="336.471" style="fill:#FFA300;" width="148.636" height="100.945"/>
				
					<line style="fill:none;stroke:#003450;stroke-width:0.414;stroke-linejoin:round;stroke-miterlimit:10;" x1="428.836" y1="336.471" x2="428.836" y2="437.416"/>
			</g>
			<g>
				<g>
					<path style="fill:#FF6862;" d="M400.455,361.528c0,0,8.888,30.451-2.784,33.006c-11.672,2.554-14.724-29.174-14.724-29.174
						L400.455,361.528z"/>
					<path style="fill:#FF6862;" d="M384.198,371.074c0,0-6.147,11.127-3.503,13.206c2.643,2.079,6.16-7.568,6.16-7.568
						L384.198,371.074z"/>
					<g>
						
							<line style="fill:none;stroke:#003450;stroke-width:0.414;stroke-linejoin:round;stroke-miterlimit:10;" x1="384.076" y1="366.033" x2="384.542" y2="368.162"/>
						
							<line style="fill:none;stroke:#003450;stroke-width:0.414;stroke-linejoin:round;stroke-miterlimit:10;" x1="385.984" y1="365.616" x2="386.45" y2="367.745"/>
						
							<line style="fill:none;stroke:#003450;stroke-width:0.414;stroke-linejoin:round;stroke-miterlimit:10;" x1="387.893" y1="365.198" x2="388.359" y2="367.327"/>
						
							<line style="fill:none;stroke:#003450;stroke-width:0.414;stroke-linejoin:round;stroke-miterlimit:10;" x1="389.802" y1="364.78" x2="390.268" y2="366.909"/>
						
							<line style="fill:none;stroke:#003450;stroke-width:0.414;stroke-linejoin:round;stroke-miterlimit:10;" x1="391.711" y1="364.363" x2="392.176" y2="366.491"/>
						
							<line style="fill:none;stroke:#003450;stroke-width:0.414;stroke-linejoin:round;stroke-miterlimit:10;" x1="393.619" y1="363.945" x2="394.085" y2="366.074"/>
						
							<line style="fill:none;stroke:#003450;stroke-width:0.414;stroke-linejoin:round;stroke-miterlimit:10;" x1="395.528" y1="363.527" x2="395.994" y2="365.656"/>
						
							<line style="fill:none;stroke:#003450;stroke-width:0.414;stroke-linejoin:round;stroke-miterlimit:10;" x1="397.437" y1="363.109" x2="397.903" y2="365.238"/>
						
							<line style="fill:none;stroke:#003450;stroke-width:0.414;stroke-linejoin:round;stroke-miterlimit:10;" x1="399.345" y1="362.692" x2="399.811" y2="364.821"/>
					</g>
					<g>
						
							<line style="fill:none;stroke:#FFFFFF;stroke-width:0.414;stroke-linejoin:round;stroke-miterlimit:10;" x1="394.512" y1="377.164" x2="396.464" y2="386.083"/>
						
							<line style="fill:none;stroke:#FFFFFF;stroke-width:0.414;stroke-linejoin:round;stroke-miterlimit:10;" x1="391.029" y1="382.6" x2="399.948" y2="380.648"/>
						
							<line style="fill:none;stroke:#FFFFFF;stroke-width:0.414;stroke-linejoin:round;stroke-miterlimit:10;" x1="391.645" y1="379.16" x2="399.332" y2="384.087"/>
						
							<line style="fill:none;stroke:#FFFFFF;stroke-width:0.414;stroke-linejoin:round;stroke-miterlimit:10;" x1="393.025" y1="385.467" x2="397.951" y2="377.78"/>
						<polyline style="fill:none;stroke:#FFFFFF;stroke-width:0.414;stroke-linejoin:round;stroke-miterlimit:10;" points="
							395.579,376.931 394.855,378.729 393.451,377.396 						"/>
						<polyline style="fill:none;stroke:#FFFFFF;stroke-width:0.414;stroke-linejoin:round;stroke-miterlimit:10;" points="
							392.234,378.241 392.993,380.025 391.058,380.075 						"/>
						<polyline style="fill:none;stroke:#FFFFFF;stroke-width:0.414;stroke-linejoin:round;stroke-miterlimit:10;" points="
							390.795,381.533 392.593,382.257 391.261,383.661 						"/>
						<polyline style="fill:none;stroke:#FFFFFF;stroke-width:0.414;stroke-linejoin:round;stroke-miterlimit:10;" points="
							392.105,384.878 393.889,384.119 393.94,386.054 						"/>
						<polyline style="fill:none;stroke:#FFFFFF;stroke-width:0.414;stroke-linejoin:round;stroke-miterlimit:10;" points="
							395.397,386.317 396.122,384.519 397.526,385.851 						"/>
						<polyline style="fill:none;stroke:#FFFFFF;stroke-width:0.414;stroke-linejoin:round;stroke-miterlimit:10;" points="
							398.742,385.007 397.983,383.223 399.918,383.172 						"/>
						<polyline style="fill:none;stroke:#FFFFFF;stroke-width:0.414;stroke-linejoin:round;stroke-miterlimit:10;" points="
							400.181,381.715 398.383,380.99 399.715,379.586 						"/>
						<polyline style="fill:none;stroke:#FFFFFF;stroke-width:0.414;stroke-linejoin:round;stroke-miterlimit:10;" points="
							398.871,378.369 397.087,379.128 397.037,377.194 						"/>
					</g>
				</g>
				<path style="fill:none;stroke:#003450;stroke-width:0.414;stroke-linejoin:round;stroke-miterlimit:10;" d="M399.362,361.606
					c0.712-5.951,1.075-11.972,0.502-17.938c-0.14-1.46-0.342-2.936-0.917-4.285c-0.575-1.349-1.57-2.575-2.921-3.145
					c-1.428-0.602-3.06-0.412-4.574-0.077c-1.514,0.335-3.027,0.806-4.576,0.734c-1.161-0.054-2.283-0.411-3.424-0.625
					c-1.142-0.214-2.372-0.274-3.417,0.233"/>
			</g>
		</g>
		<g>
			<g>
				<g>
					<path style="fill:none;stroke:#003450;stroke-miterlimit:10;" d="M514.342,436.416V217.804
						c0-10.653-8.636-19.289-19.289-19.289H362.648c-10.653,0-19.289,8.636-19.289,19.289v218.612"/>
				</g>
				<line style="fill:none;stroke:#003450;stroke-miterlimit:10;" x1="335.544" y1="436.416" x2="351.174" y2="436.416"/>
				<line style="fill:none;stroke:#003450;stroke-miterlimit:10;" x1="506.527" y1="436.416" x2="522.158" y2="436.416"/>
			</g>
			
				<line style="fill:none;stroke:#003450;stroke-linecap:round;stroke-miterlimit:10;" x1="345.754" y1="209.521" x2="511.868" y2="209.521"/>
			<g>
				<path style="fill:none;stroke:#003450;stroke-width:0.414;stroke-linejoin:round;stroke-miterlimit:10;" d="M362.669,215.283
					c0,0-0.195-7.304,5.357-7.304c4.036,0,5.278,3.493,4.34,6.437c-1.032,3.239-5.392,2.946-5.022,10.726
					c0,0-32.403,14.499-32.234,18.729c0.169,4.23,63.625,5.076,63.625,0.592s-31.391-19.321-31.391-19.321"/>
			</g>
			<g>
				<path style="fill:none;stroke:#003450;stroke-width:0.414;stroke-linejoin:round;stroke-miterlimit:10;" d="M473.381,215.283
					c0,0-0.195-7.304,5.357-7.304c4.036,0,5.278,3.493,4.34,6.437c-1.032,3.239-5.392,2.946-5.022,10.726
					c0,0-32.403,14.499-32.234,18.729c0.169,4.23,63.625,5.076,63.625,0.592s-31.391-19.321-31.391-19.321"/>
			</g>
			<g>
				<path style="fill:none;stroke:#003450;stroke-width:0.414;stroke-linejoin:round;stroke-miterlimit:10;" d="M401.448,215.283
					c0,0-0.195-7.304,5.357-7.304c4.036,0,5.278,3.493,4.34,6.437c-1.032,3.239-5.392,2.946-5.022,10.726
					c0,0-32.403,14.499-32.234,18.729c0.169,4.23,63.625,5.076,63.625,0.592s-31.391-19.321-31.391-19.321"/>
			</g>
		</g>
		<g>
			<path style="fill:#004869;" d="M573.737,193.513c-1.204,1.981-2.617,4.278-1.812,6.451c0.485,1.309,1.714,2.229,3.033,2.685
				c1.319,0.456,2.737,0.514,4.132,0.567c1.557,0.06,3.129,0.119,4.663-0.158c1.534-0.276,3.047-0.919,4.101-2.067
				c1.418-1.546,1.812-3.751,2.047-5.836c0.567-5.031,0.563-10.119,0.141-15.164c-0.126-1.507-0.303-3.058-1.039-4.379
				c-1.04-1.868-7.944-6.555-8.747-2.935c-0.5,2.253-0.471,4.654-0.97,6.935c-0.511,2.337-1.206,4.633-2.075,6.862
				C576.259,188.915,575.097,191.274,573.737,193.513z"/>
			<path style="fill:#004869;" d="M621.66,186.89c2.037,1.535,4.347,2.706,6.25,4.405s3.405,4.143,3.091,6.674
				c-0.232,1.875-1.439,3.519-2.926,4.684c-1.978,1.548-4.46,2.366-6.958,2.619c-2.499,0.254-5.024-0.03-7.49-0.508
				c-2.608-0.505-5.293-1.294-7.199-3.145c-1.89-1.835-2.759-4.468-3.35-7.035c-1.177-5.111-1.517-10.373-1.853-15.607
				c-0.154-2.403-0.3-4.878,0.469-7.16c0.771-2.291,2.474-4.253,4.634-5.338c1.487-0.747,4.569-1.671,6.148-0.698
				c1.339,0.825,0.633,3.326,0.684,4.631c0.158,4.057,1.488,8.057,3.749,11.427C618.202,183.767,619.804,185.491,621.66,186.89z"/>
			<path style="fill:#FFBC96;" d="M616.389,370.663c0,0,24.039,27.363,25.66,32.953c1.621,5.59,11.938-2.385,12.833-5.579
				c0,0-13.211-31.184-19.807-37.545L616.389,370.663z"/>
			<path style="fill:#FFBC96;" d="M578.209,375.979c0,0,3.202,38.688-1.562,42.253c-4.66,3.488,13.604,7.439,16.602,6.019
				c0,0-2.479-8.01,2.665-51.246L578.209,375.979z"/>
			<path style="fill:#3B9CFD;" d="M567.993,268.225c0,0.824-6.046,30.781-3.848,54.691c1.155,12.559,4.433,35.919,7.285,55.269
				c8.856,7.625,27.56-0.837,27.56-0.837l1.433-44.813l-4.264-61.687L567.993,268.225z"/>
			<path style="fill:#3B9CFD;" d="M589.607,266.938c0,0,3.594,46.755,6.993,70.293c0.523,3.584,1.036,6.635,1.531,8.892
				c0.755,3.477,2.751,7.623,5.453,12.001c3.389,5.528,7.889,11.449,12.435,16.938c3.872,4.697,26.133-9.844,21.832-16.894
				c-6.377-10.451-11.814-16.976-11.814-16.976s2.577-41.738,1.879-55.754c-0.707-14.026-9.851-26.521-9.851-26.521L589.607,266.938
				z"/>
			<polygon style="fill:#FFBC96;" points="604.262,174.36 604.262,198.375 594.587,211.074 586.034,196.907 588.021,183.431 			"/>
			<path style="fill:#FFFFFF;" d="M586.849,195.218c0,0,2.017,4.228,9.066,4.191c5.521-0.028,8.348-4.191,8.348-4.191l11.756,23.086
				l-1.151,33.938c0,0-8.095,10.079-19.719,10.326c-6.384,0.136-13.739-7.014-21.618-10.326l-0.509-34.899L586.849,195.218z"/>
			<path style="fill:#FFFFFF;" d="M574.7,235.548l-18.729-1.17c3.227-15.731,11.481-34.43,13.512-36.573
				c2.699-2.849,17.366-2.586,17.366-2.586l-10.606,35.799L574.7,235.548z"/>
			<path style="fill:#FFBC96;" d="M577.809,174.309c0.165,6.054,2.024,11.623,8.166,12.176c13.967,1.249,18.201-6.751,19.14-16.011
				c0.94-9.26-3.448-16.476-11.614-16.631c-8.156-0.165-13.338,4.233-13.338,4.233s-1.918,6.383-2.296,13.105
				C577.799,172.226,577.78,173.272,577.809,174.309z"/>
			<path style="fill:none;stroke:#003450;stroke-width:0.414;stroke-linejoin:round;stroke-miterlimit:10;" d="M589.645,169.123
				c-0.028,1.549-0.525,3.087-1.408,4.36c-0.129,0.186-0.268,0.372-0.324,0.591c-0.117,0.459,0.178,0.943,0.578,1.197
				s0.885,0.327,1.354,0.396"/>
			<path style="fill:none;stroke:#003450;stroke-width:0.414;stroke-linejoin:round;stroke-miterlimit:10;" d="M594.904,176.467
				c-0.701,2.037-2.668,3.576-4.813,3.768"/>
			<path style="fill:none;stroke:#003450;stroke-width:0.414;stroke-linejoin:round;stroke-miterlimit:10;" d="M595.281,179.591
				c-0.387,0.654-0.923,1.22-1.555,1.642"/>
			<path style="fill:none;stroke:#003450;stroke-width:0.414;stroke-linejoin:round;stroke-miterlimit:10;" d="M587.553,186.61
				c0,0,10.272,1.088,14.956-6.376"/>
			<path style="fill:#003450;" d="M593.334,163.516c-0.221,0.9,3.291,2.431,3.696,1.396
				C597.435,163.876,593.555,162.616,593.334,163.516z"/>
			<path style="fill:#003450;" d="M586.034,163.208c0.451,0.756-3.727,3.072-4.312,2.05S585.394,162.135,586.034,163.208z"/>
			<ellipse style="opacity:0.3;fill:#1D1D1B;" cx="599.416" cy="172.757" rx="3.241" ry="1.932"/>
			<path style="opacity:0.3;fill:#1D1D1B;" d="M577.809,174.309c0.533,0.232,1.201,0.378,1.937,0.378
				c1.782,0,3.235-0.862,3.235-1.928c0-1.065-1.453-1.937-3.235-1.937c-0.707,0-1.356,0.136-1.879,0.359
				C577.799,172.226,577.78,173.272,577.809,174.309z"/>
			<path style="fill:none;stroke:#003450;stroke-width:0.414;stroke-linejoin:round;stroke-miterlimit:10;" d="M607.239,152.927
				c0.335-1.402,2.057-2.403,4.113-2.804"/>
			<path style="fill:none;stroke:#003450;stroke-width:0.414;stroke-linejoin:round;stroke-miterlimit:10;" d="M607.251,152.883
				c0.261-1.914,0.239-3.865-0.055-5.775"/>
			<g>
				
					<rect x="543.533" y="234.701" transform="matrix(-1 -4.485624e-11 4.485624e-11 -1 1146.1902 509.4402)" style="fill:#F3B162;" width="59.124" height="40.038"/>
				
					<line style="fill:none;stroke:#003450;stroke-width:0.414;stroke-linejoin:round;stroke-miterlimit:10;" x1="543.533" y1="247.661" x2="602.508" y2="247.661"/>
				
					<rect x="560.086" y="254.66" transform="matrix(-0.9759 0.218 -0.218 -0.9759 1189.7142 386.5495)" style="fill:#FFFFFF;" width="26.887" height="8.51"/>
			</g>
			<path style="fill:#FFBC96;" d="M592.255,264.325c0,0-4.134,1.191-5.281,1.191s-6.082-2.062-9.175-0.663
				c-3.094,1.399-3.683,3.977-3.388,4.493c0.295,0.516,7.439-2.062,8.249-0.516c0.81,1.547-6.187,5.909-6.187,5.909h-6.261
				c0,0,2.283,4.329,6.555,3.004c0,0,1.624,2.21,4.679,0.737c0,0,2.55,1.841,5.528-2.21c2.978-4.051,7.268-4.563,7.268-4.563
				s34.73-8.324,42.531-16.273c0.953-0.972,1.605-3.817,1.694-5.175c0.331-5.077-4.222-18.377-4.222-18.377l-14.353,3.844
				l2.399,10.362L592.255,264.325z"/>
			<path style="fill:#FFFFFF;" d="M618.276,239.647l18.508-5.007c-2.576-14.796-10.372-34.189-12.463-36.396
				c-2.699-2.849-20.059-3.026-20.059-3.026l10.606,35.799L618.276,239.647z"/>
			<path style="fill:none;stroke:#003450;stroke-width:0.414;stroke-linejoin:round;stroke-miterlimit:10;" d="M571.709,217.303
				c0,0-1.922,14.029-2.227,15.714"/>
			
				<line style="fill:none;stroke:#003450;stroke-width:0.414;stroke-linejoin:round;stroke-miterlimit:10;" x1="615.359" y1="231.882" x2="616.018" y2="218.304"/>
			<path style="fill:#FFBC96;" d="M543.533,265.96c0,0-2.142,1.894-2.745,4.046c-0.603,2.152-1.549,6.112-0.344,8.264
				c1.205,2.152,9.125,2.81,12.31,0.716s5.423-6.246,4.304-7.398c-1.119-1.152-4.648,2.894-4.648,2.894l-0.809-0.059
				c0,0,4.632-6.708,2.609-7.401s-6.229,7.188-6.229,7.188l-1.012,0.053c0,0,3.993-6.921,2.396-7.294
				c-1.597-0.373-5.431,6.921-5.431,6.921L543.533,265.96z"/>
			<g>
				<g>
					<g>
						<path style="fill:#FFFFFF;" d="M549.99,435.779c0.01,1.017,0.455,1.637,0.455,1.637s43.607,0,43.695,0
							c0.368,0,0.542-0.804,0.601-1.637c0.01-0.174,0.019-0.349,0.029-0.513c0.029-0.63,0.019-1.182,0.019-1.346
							c0-2.152,0.121-4.286-0.005-6.447c-0.146-2.504-0.483-4.983-0.863-7.457c-0.12-0.782-0.199-1.585-0.44-2.342
							c-0.031-0.099-0.787-1.659-1.086-1.135c-7.596,13.608-11.525-3.144-15.331,0.14c0,0-1.027,1.424-4.669,4.514
							c-3.642,3.071-7.526,3.565-12.805,5.628c-6.819,2.673-9.144,6.354-9.522,8.195c-0.019,0.087-0.039,0.165-0.049,0.252
							C549.99,435.45,549.99,435.624,549.99,435.779z"/>
					</g>
				</g>
				<path style="fill:none;stroke:#003450;stroke-width:0.414;stroke-linejoin:round;stroke-miterlimit:10;" d="M571.225,422.074
					c0.671,0.824,1.341,1.647,2.012,2.471"/>
				<path style="fill:none;stroke:#003450;stroke-width:0.414;stroke-linejoin:round;stroke-miterlimit:10;" d="M568.732,423.552
					c0.671,0.824,1.341,1.647,2.012,2.471"/>
				<path style="fill:none;stroke:#003450;stroke-width:0.414;stroke-linejoin:round;stroke-miterlimit:10;" d="M565.858,424.449
					c0.671,0.824,1.341,1.647,2.012,2.471"/>
				<path style="fill:none;stroke:#003450;stroke-width:0.414;stroke-linejoin:round;stroke-miterlimit:10;" d="M562.985,425.392
					c0.671,0.824,1.341,1.647,2.012,2.471"/>
				<path style="fill:none;stroke:#003450;stroke-width:0.414;stroke-linejoin:round;stroke-miterlimit:10;" d="M592.764,423.06
					c-3.573,2.482-5.71,6.685-5.52,10.854"/>
				<path style="fill:none;stroke:#003450;stroke-width:0.414;stroke-linejoin:round;stroke-miterlimit:10;" d="M557.155,428.087
					c2.264,1.366,3.814,3.729,4.092,6.243"/>
				<path style="fill:#003450;" d="M549.99,435.779c0.01,1.017,0.455,1.637,0.455,1.637s43.607,0,43.695,0
					c0.368,0,0.542-0.804,0.601-1.637c0.01-0.174,0.019-0.349,0.029-0.513h-44.75C549.99,435.45,549.99,435.624,549.99,435.779z"/>
				<path style="fill:none;stroke:#003450;stroke-width:0.414;stroke-linejoin:round;stroke-miterlimit:10;" d="M593.47,424.708
					c-2.809,2.124-4.432,5.722-4.166,9.233"/>
			</g>
			<g>
				<g>
					<g>
						<path style="fill:#FFFFFF;" d="M634.959,433.904c0.727,0.711,1.481,0.833,1.481,0.833s30.781-30.889,30.842-30.951
							c0.26-0.261-0.187-0.952-0.735-1.581c-0.117-0.13-0.233-0.26-0.343-0.383c-0.425-0.465-0.823-0.848-0.94-0.964
							c-1.524-1.519-2.95-3.111-4.57-4.547c-1.876-1.664-3.87-3.175-5.892-4.653c-0.639-0.467-1.263-0.978-1.97-1.342
							c-0.092-0.047-1.73-0.614-1.57-0.032c4.277,14.987-10.362,5.945-10.723,10.959c0,0,0.284,1.732-0.098,6.493
							c-0.396,4.747-2.787,7.847-5.052,13.043c-2.92,6.717-1.953,10.962-0.916,12.529c0.048,0.075,0.089,0.144,0.144,0.212
							C634.726,433.671,634.849,433.794,634.959,433.904z"/>
					</g>
				</g>
				<path style="fill:none;stroke:#003450;stroke-width:0.414;stroke-linejoin:round;stroke-miterlimit:10;" d="M640.24,409.188
					c1.057,0.106,2.114,0.212,3.17,0.319"/>
				<path style="fill:none;stroke:#003450;stroke-width:0.414;stroke-linejoin:round;stroke-miterlimit:10;" d="M639.527,411.997
					c1.057,0.106,2.114,0.212,3.171,0.319"/>
				<path style="fill:none;stroke:#003450;stroke-width:0.414;stroke-linejoin:round;stroke-miterlimit:10;" d="M638.134,414.667
					c1.057,0.106,2.114,0.212,3.17,0.319"/>
				<path style="fill:none;stroke:#003450;stroke-width:0.414;stroke-linejoin:round;stroke-miterlimit:10;" d="M636.774,417.367
					c1.057,0.106,2.114,0.212,3.17,0.319"/>
				<path style="fill:none;stroke:#003450;stroke-width:0.414;stroke-linejoin:round;stroke-miterlimit:10;" d="M656.142,394.626
					c-0.764,4.283,0.705,8.763,3.793,11.572"/>
				<path style="fill:none;stroke:#003450;stroke-width:0.414;stroke-linejoin:round;stroke-miterlimit:10;" d="M634.568,423.399
					c2.566-0.64,5.334-0.069,7.311,1.508"/>
				<path style="fill:#003450;" d="M634.959,433.904c0.727,0.711,1.481,0.833,1.481,0.833s30.781-30.889,30.842-30.951
					c0.26-0.261-0.187-0.952-0.735-1.581c-0.117-0.13-0.233-0.26-0.343-0.383l-31.588,31.699
					C634.726,433.671,634.849,433.794,634.959,433.904z"/>
				<path style="fill:none;stroke:#003450;stroke-width:0.414;stroke-linejoin:round;stroke-miterlimit:10;" d="M657.808,395.29
					c-0.478,3.489,0.925,7.179,3.6,9.469"/>
			</g>
			<path style="fill:none;stroke:#003450;stroke-width:0.414;stroke-linejoin:round;stroke-miterlimit:10;" d="M624.977,274.878
				c-4.179-0.908-7.944-3.585-10.173-7.235"/>
			<path style="fill:none;stroke:#003450;stroke-width:0.414;stroke-linejoin:round;stroke-miterlimit:10;" d="M599.264,349.753
				c0,0-0.905-5.053-4.207-24.571s-3.78-28.807-3.78-28.807"/>
			
				<ellipse transform="matrix(0.9865 -0.1639 0.1639 0.9865 -49.2457 99.1533)" style="fill:none;stroke:#FFFFFF;stroke-width:0.414;stroke-linejoin:round;stroke-miterlimit:10;" cx="576.253" cy="348.009" rx="7.503" ry="11.783"/>
			<path style="fill:none;stroke:#FFFFFF;stroke-width:0.414;stroke-linejoin:round;stroke-miterlimit:10;" d="M605.296,358.33
				c0.562-0.019,1.112-0.128,1.639-0.332c3.865-1.501,5.076-7.642,2.712-13.706c-2.363-6.064-7.41-9.754-11.265-8.253"/>
			<path style="fill:#003450;" d="M595.095,168.007c0.232,0.303,0.235,0.734,0.101,1.091c-0.13,0.347-0.387,0.654-0.728,0.8
				c-0.833,0.359-1.749-0.489-1.454-1.344C593.278,167.788,594.529,167.268,595.095,168.007z"/>
			<path style="fill:#003450;" d="M586.005,168.007c0.232,0.303,0.235,0.734,0.101,1.091c-0.13,0.347-0.387,0.654-0.728,0.8
				c-0.833,0.359-1.749-0.489-1.454-1.344C584.188,167.788,585.439,167.268,586.005,168.007z"/>
			<path style="fill:#004869;" d="M605.017,169.802c-2.011-0.363-3.681-1.861-4.692-3.638c-1.011-1.777-1.449-3.817-1.77-5.835
				c-1.016,0.513-2.037,1.372-3.086,1.813c-1.049,0.441-2.266,0.648-3.319,0.217s-1.827-1.651-1.468-2.732
				c-1.531,1.539-3.612,2.429-5.708,2.996c-1.306,0.353-2.788,0.467-3.936-0.25c-1.78-1.112-2.352-3.843-2.177-5.765
				c0.24-2.624,1.392-5.157,3.177-7.091c2.426-2.628,5.941-4.156,9.511-4.384c3.274-0.21,6.381,0.668,9.288,2.115
				c1.262,0.628,2.474,1.164,3.602,2.053c0.593,0.467,1.149,0.98,1.662,1.534c0.202,0.218,1.068,1.589,1.284,1.606
				c3.256,0.265,5.86,2.551,7.371,5.448c1.511,2.897,1.552,6.475,0.279,9.484c-0.896,2.117-2.521,4.039-4.71,4.743
				C608.138,172.82,606.023,171.869,605.017,169.802z"/>
			<path style="fill:#FFBC96;" d="M604.003,171.337c0,0,3.283-5.442,5.615-2.073c1.163,1.68,1.138,4.174,0.079,5.929
				c-1.348,2.235-3.949,2.255-6.299,2.105L604.003,171.337z"/>
			<path style="fill:none;stroke:#003450;stroke-width:0.414;stroke-linejoin:round;stroke-miterlimit:10;" d="M609.058,170.347
				c-0.582-0.293-1.286-0.333-1.897-0.107c-0.611,0.226-1.12,0.715-1.371,1.316"/>
			<path style="fill:none;stroke:#003450;stroke-width:0.414;stroke-linejoin:round;stroke-miterlimit:10;" d="M606.938,170.463
				c0.618,0.543,0.983,1.363,0.972,2.186"/>
			
				<line style="fill:none;stroke:#003450;stroke-width:0.414;stroke-linejoin:round;stroke-miterlimit:10;" x1="635.429" y1="232.34" x2="618.529" y2="236.941"/>
			<path style="fill:none;stroke:#003450;stroke-width:0.414;stroke-linejoin:round;stroke-miterlimit:10;" d="M605.84,196.41
				c0,0-3.132,6.025-10.559,6.025c-7.427,0-10.234-6.025-10.234-6.025"/>
			<path style="fill:#FF6862;" d="M604.262,211.886c-6.422-1.181-8.088,5.546-8.088,5.546s-3.575-5.686-6.567-5.686
				c0,0-4.322-0.407-5.67,4.796c-1.969,10.533,11.212,16.473,11.212,16.473C607.73,228.866,610.684,213.068,604.262,211.886z"/>
		</g>
		<g>
			<rect x="446.191" y="373.677" style="fill:#FFC900;" width="89.927" height="63.739"/>
			
				<rect x="452.582" y="380.183" style="fill:none;stroke:#003450;stroke-width:0.414;stroke-linejoin:round;stroke-miterlimit:10;" width="16.112" height="20.418"/>
			<polygon style="fill:#FFC900;" points="519.417,395.41 547.817,395.41 536.117,373.677 507.718,373.677 			"/>
			<polyline style="fill:none;stroke:#003450;stroke-width:0.414;stroke-linejoin:round;stroke-miterlimit:10;" points="
				547.817,395.41 519.417,395.41 507.718,373.677 507.718,437.416 			"/>
		</g>
		<g>
			<g>
				<g>
					<path style="fill:#3B9CFD;" d="M254.539,353.298h57.585c1.943,0,3.517,1.575,3.517,3.517v1.196
						c0,1.943-1.575,3.517-3.517,3.517h-57.585c-1.943,0-3.517-1.575-3.517-3.517v-1.196
						C251.022,354.873,252.597,353.298,254.539,353.298z"/>
					<g>
						<path style="fill:#FF6862;" d="M254.539,345.068h57.585c1.943,0,3.517,1.575,3.517,3.517v1.196
							c0,1.943-1.575,3.517-3.517,3.517h-57.585c-1.943,0-3.517-1.575-3.517-3.517v-1.196
							C251.022,346.643,252.597,345.068,254.539,345.068z"/>
						<path style="fill:#FF6862;" d="M254.539,336.838h57.585c1.943,0,3.517,1.575,3.517,3.517v1.196
							c0,1.943-1.575,3.517-3.517,3.517h-57.585c-1.943,0-3.517-1.575-3.517-3.517v-1.196
							C251.022,338.413,252.597,336.838,254.539,336.838z"/>
						<path style="fill:#FF6862;" d="M311.526,336.838c0,0,5.243-0.125,5.463,8.23c0.22,8.355-5.463,8.23-5.463,8.23V336.838z"/>
					</g>
					
						<line style="fill:none;stroke:#003450;stroke-width:0.414;stroke-linejoin:round;stroke-miterlimit:10;" x1="255.137" y1="345.068" x2="297.994" y2="345.068"/>
					
						<line style="fill:none;stroke:#003450;stroke-width:0.414;stroke-linejoin:round;stroke-miterlimit:10;" x1="311.526" y1="353.298" x2="255.137" y2="353.298"/>
					<path style="fill:none;stroke:#003450;stroke-width:0.414;stroke-linejoin:round;stroke-miterlimit:10;" d="M309.284,358.12
						c0,0-4.483,1.371-11.29,1.371s-14.417-3.21-21.982-3.21"/>
				</g>
			</g>
			<g>
				<polygon style="fill:#FFC900;" points="344.288,379.799 378.888,379.799 367.189,358.066 332.588,358.066 				"/>
				<rect x="243.985" y="358.066" style="fill:#FFC900;" width="123.204" height="79.35"/>
				<polygon style="fill:#FFC900;" points="243.985,358.066 225.576,382.757 243.985,382.757 				"/>
				<rect x="256.08" y="379.919" style="fill:#FFFFFF;" width="60.417" height="21.638"/>
				<polyline style="fill:none;stroke:#003450;stroke-width:0.414;stroke-linejoin:round;stroke-miterlimit:10;" points="
					332.588,437.151 332.588,358.066 344.288,379.799 378.888,379.799 				"/>
				
					<line style="fill:none;stroke:#003450;stroke-width:0.414;stroke-linejoin:round;stroke-miterlimit:10;" x1="243.985" y1="382.757" x2="243.985" y2="358.066"/>
			</g>
		</g>
		<g>
			<g>
				<g>
					<g>
						<g>
							<path style="fill:#FF6862;" d="M222.437,435.552c-0.011,1.158-0.509,1.864-0.509,1.864s-48.734,0-48.831,0
								c-0.411,0-0.606-0.915-0.671-1.864c-0.011-0.198-0.022-0.397-0.032-0.585c-0.033-0.717-0.022-1.346-0.022-1.533
								c0-2.45-0.135-4.88,0.006-7.341c0.163-2.851,0.54-5.673,0.964-8.491c0.134-0.891,0.222-1.805,0.492-2.667
								c0.035-0.112,0.879-1.889,1.214-1.292c8.49,15.495,12.88-3.579,17.134,0.16c0,0,1.148,1.621,5.218,5.14
								c4.07,3.496,8.411,4.059,14.311,6.408c7.621,3.044,10.219,7.235,10.641,9.331c0.022,0.099,0.043,0.188,0.054,0.287
								C222.437,435.177,222.437,435.376,222.437,435.552z"/>
						</g>
					</g>
					<path style="fill:none;stroke:#003450;stroke-width:0.414;stroke-linejoin:round;stroke-miterlimit:10;" d="M198.706,419.947
						c-0.75,0.938-1.499,1.876-2.249,2.813"/>
					<path style="fill:none;stroke:#003450;stroke-width:0.414;stroke-linejoin:round;stroke-miterlimit:10;" d="M201.492,421.629
						c-0.75,0.938-1.499,1.876-2.249,2.813"/>
					<path style="fill:none;stroke:#003450;stroke-width:0.414;stroke-linejoin:round;stroke-miterlimit:10;" d="M204.704,422.651
						c-0.75,0.938-1.499,1.876-2.249,2.813"/>
					<path style="fill:none;stroke:#003450;stroke-width:0.414;stroke-linejoin:round;stroke-miterlimit:10;" d="M207.915,423.724
						c-0.75,0.938-1.499,1.876-2.249,2.813"/>
					<path style="fill:none;stroke:#003450;stroke-width:0.414;stroke-linejoin:round;stroke-miterlimit:10;" d="M174.634,421.069
						c3.993,2.826,6.381,7.612,6.168,12.359"/>
					<path style="fill:none;stroke:#003450;stroke-width:0.414;stroke-linejoin:round;stroke-miterlimit:10;" d="M214.43,426.794
						c-2.531,1.556-4.262,4.247-4.573,7.109"/>
					<path style="fill:#003450;" d="M222.437,435.552c-0.011,1.158-0.509,1.864-0.509,1.864s-48.734,0-48.831,0
						c-0.411,0-0.606-0.915-0.671-1.864c-0.011-0.198-0.022-0.397-0.032-0.585h50.011
						C222.437,435.177,222.437,435.376,222.437,435.552z"/>
				</g>
				<polygon style="fill:#FFBC96;" points="123.192,416.761 123.192,407.174 139.582,407.174 139.582,418.485 131.387,422.651 				
					"/>
				<g>
					<g>
						<g>
							<path style="fill:#FF6862;" d="M91.779,435.552c0.011,1.158,0.509,1.864,0.509,1.864s48.734,0,48.831,0
								c0.411,0,0.606-0.915,0.671-1.864c0.011-0.198,0.022-0.397,0.032-0.585c0.033-0.717,0.022-1.346,0.022-1.533
								c0-2.45,0.135-4.88-0.006-7.341c-0.163-2.851-0.54-5.673-0.964-8.491c-0.134-0.891-0.222-1.805-0.492-2.667
								c-0.035-0.112-0.879-1.889-1.214-1.292c-8.49,15.495-12.88-3.579-17.134,0.16c0,0-1.148,1.621-5.218,5.14
								c-4.07,3.496-8.411,4.059-14.311,6.408c-7.621,3.044-10.219,7.235-10.641,9.331c-0.022,0.099-0.043,0.188-0.054,0.287
								C91.779,435.177,91.779,435.376,91.779,435.552z"/>
						</g>
					</g>
					<path style="fill:none;stroke:#003450;stroke-width:0.414;stroke-linejoin:round;stroke-miterlimit:10;" d="M115.51,419.947
						c0.75,0.938,1.499,1.876,2.249,2.813"/>
					<path style="fill:none;stroke:#003450;stroke-width:0.414;stroke-linejoin:round;stroke-miterlimit:10;" d="M112.724,421.629
						c0.75,0.938,1.499,1.876,2.249,2.813"/>
					<path style="fill:none;stroke:#003450;stroke-width:0.414;stroke-linejoin:round;stroke-miterlimit:10;" d="M109.512,422.651
						c0.75,0.938,1.499,1.876,2.249,2.813"/>
					<path style="fill:none;stroke:#003450;stroke-width:0.414;stroke-linejoin:round;stroke-miterlimit:10;" d="M106.301,423.724
						c0.75,0.938,1.499,1.876,2.249,2.813"/>
					<path style="fill:none;stroke:#003450;stroke-width:0.414;stroke-linejoin:round;stroke-miterlimit:10;" d="M139.582,421.069
						c-3.993,2.826-6.381,7.612-6.168,12.359"/>
					<path style="fill:none;stroke:#003450;stroke-width:0.414;stroke-linejoin:round;stroke-miterlimit:10;" d="M99.786,426.794
						c2.531,1.556,4.262,4.247,4.573,7.109"/>
					<path style="fill:#003450;" d="M91.779,435.552c0.011,1.158,0.509,1.864,0.509,1.864s48.734,0,48.831,0
						c0.411,0,0.606-0.915,0.671-1.864c0.011-0.198,0.022-0.397,0.032-0.585H91.811C91.779,435.177,91.779,435.376,91.779,435.552z"
						/>
				</g>
				<polygon style="fill:#FFBC96;" points="191.025,416.761 191.025,407.174 174.634,407.174 174.634,418.485 182.829,422.651 				
					"/>
				<path style="fill:#004869;" d="M188.048,257.644c0,0,4.991,40.956,6.991,68.498c1.999,27.542,6.453,93.552,6.453,93.552
					s-8.99,6.835-30.623,2.34l-12.411-123.976L143.65,423.672c0,0-17.282,3.902-34.138-3.122l24.595-164.352L188.048,257.644z"/>
				<path style="fill:none;stroke:#FFFFFF;stroke-width:0.414;stroke-linejoin:round;stroke-miterlimit:10;" d="M142.643,265.278
					c-1.499,5.741-5.441,10.802-10.642,13.659"/>
				<path style="fill:#FFBC96;" d="M126.611,229.367c0,0-7.111,11.378-7.111,13.795s3.84,7.253,5.262,11.235
					c1.422,3.982,3.698,12.231,4.835,12.515c1.138,0.284,8.415-0.51,9.127,2.191c0.358,1.36-0.433,2.617-0.436,4.01
					c-0.002,1.061,0.503,2.411,0.096,3.431c-0.308,0.773-0.876,1.62-1.295,2.354c-0.326,0.57-0.689,1.164-1.283,1.481
					c-0.348,0.186-0.726,0.319-1.048,0.546c-0.425,0.299-0.724,0.74-1.07,1.128c-1.838,2.055-5.443,1.772-7.485,0.245
					c-2.091-1.563-3.338-4.054-4.599-6.273c-2.429-4.277-10.533-14.568-12.468-18.107c-1.935-3.539-6.462-9.877-5.556-17.449
					c0.905-7.572,7.984-18.766,7.984-18.766L126.611,229.367z"/>
				<path style="fill:#FFBC96;" d="M195.038,220.315c0,0,9.071,10.367,15.421,10.626c6.35,0.259,41.21-16.587,41.21-16.587
					s7.257,1.037,10.238,0.518s7.387-1.555,7.257-4.276c-0.13-2.721-6.739-0.259-8.035-0.648c-1.296-0.389-2.592-4.665-1.555-5.961
					s7.127-0.125,7.257,0.909c0.13,1.035,0.201,4.016,1.17,5.37c0.969,1.354,1.409,2.404,2.404-1.907
					c0.995-4.311,1.409-5.14,0.995-6.384c-0.415-1.244-5.638-2.985-9.037-3.979s-4.809-1.824-6.384-1.326
					c-1.575,0.497-8.705,7.876-11.192,9.617c-2.487,1.741-10.529,1.244-16.001,2.404c-5.472,1.161-14.26,4.311-15.42,4.477
					c-1.161,0.166-7.71-6.632-7.71-6.632L195.038,220.315z"/>
				<polygon style="fill:#FFBC96;" points="145.489,164.645 146.659,187.49 155.164,201.358 164.886,187.191 162.9,173.715 				"/>
				<path style="fill:#FFBC96;" d="M170.938,163.427c-0.165,6.054-1.005,12.988-7.161,13.342c-18.715,1.076-18.2-6.751-19.14-16.011
					c-0.94-9.26,3.448-16.476,11.614-16.631c8.156-0.165,13.338,4.233,13.338,4.233s1.036,3.366,1.414,10.088
					C171.07,159.493,170.967,162.39,170.938,163.427z"/>
				<path style="fill:none;stroke:#003450;stroke-width:0.414;stroke-linejoin:round;stroke-miterlimit:10;" d="M160.106,159.407
					c0.028,1.549,0.525,3.087,1.408,4.36c0.129,0.186,0.268,0.372,0.324,0.591c0.117,0.459-0.178,0.943-0.578,1.197
					c-0.401,0.253-0.885,0.327-1.354,0.396"/>
				<path style="fill:none;stroke:#003450;stroke-width:0.414;stroke-linejoin:round;stroke-miterlimit:10;" d="M153.677,167.921
					c0.701,2.037,2.668,3.576,4.814,3.768"/>
				<path style="fill:none;stroke:#003450;stroke-width:0.414;stroke-linejoin:round;stroke-miterlimit:10;" d="M154.47,171.045
					c0.387,0.654,0.923,1.22,1.555,1.642"/>
				<path style="fill:#003450;" d="M156.417,154.97c0.221,0.9-3.29,2.431-3.696,1.396
					C152.316,155.331,156.196,154.07,156.417,154.97z"/>
				<path style="fill:#003450;" d="M163.716,154.662c-0.451,0.756,3.727,3.072,4.312,2.05
					C168.614,155.691,164.357,153.589,163.716,154.662z"/>
				<path style="opacity:0.3;fill:#1D1D1B;" d="M153.577,163.041c0-1.067-1.451-1.932-3.242-1.932s-3.242,0.865-3.242,1.932
					s1.451,1.932,3.242,1.932S153.577,164.108,153.577,163.041z"/>
				<path style="opacity:0.3;fill:#1D1D1B;" d="M171.942,164.593c-0.533,0.232-1.201,0.378-1.937,0.378
					c-1.782,0-3.235-0.862-3.235-1.928c0-1.065,1.453-1.937,3.235-1.937c0.707,0,1.356,0.136,1.879,0.359
					C171.952,162.511,171.971,163.557,171.942,164.593z"/>
				<path style="fill:#003450;" d="M154.656,158.291c-0.232,0.303-0.235,0.734-0.101,1.091c0.13,0.347,0.387,0.654,0.728,0.8
					c0.833,0.359,1.749-0.489,1.454-1.344C156.473,158.073,155.222,157.553,154.656,158.291z"/>
				<path style="fill:#003450;" d="M163.746,158.291c-0.232,0.303-0.235,0.734-0.101,1.091c0.13,0.347,0.387,0.654,0.728,0.8
					c0.833,0.359,1.749-0.489,1.454-1.344C165.563,158.073,164.312,157.553,163.746,158.291z"/>
				<path style="fill:none;stroke:#003450;stroke-width:0.414;stroke-linejoin:round;stroke-miterlimit:10;" d="M163.038,176.868
					c0,0-9.819,1.256-14.123-2.842c-1.038-0.988-1.832-2.145-2.438-3.332"/>
				<path style="fill:#FFA300;" d="M165.34,151.61c0,0,2.369,6.289,6.615,6.324c4.246,0.035,6.747-6.324,3.103-14.756
					c-3.644-8.431-20.935-12.647-28.581-3.573c0,0-6.287-0.758-7.217,4.516c-0.93,5.274-0.623,12.155,1.432,17.718l3.885-1.773
					c0,0,3.542-1.955,5.114-9.029c0,0,0.822,2.572,5.555,2.429c1.972-0.06,2.676-1.793,2.827-3.796c0,0,0.761,3.939,4.121,4.011
					C165.554,153.754,165.34,151.61,165.34,151.61z"/>
				<path style="fill:#FFBC96;" d="M145.748,161.621c0,0-3.283-5.442-5.615-2.073c-1.163,1.68-1.138,4.174-0.079,5.929
					c1.348,2.235,3.949,2.255,6.299,2.105L145.748,161.621z"/>
				<path style="fill:none;stroke:#003450;stroke-width:0.414;stroke-linejoin:round;stroke-miterlimit:10;" d="M140.693,160.631
					c0.582-0.293,1.286-0.333,1.897-0.107c0.611,0.226,1.12,0.715,1.371,1.316"/>
				<path style="fill:none;stroke:#003450;stroke-width:0.414;stroke-linejoin:round;stroke-miterlimit:10;" d="M142.813,160.747
					c-0.618,0.543-0.983,1.363-0.972,2.186"/>
				<path style="fill:#FF6862;" d="M146.477,183.932c0,0,3.696,4.46,9.95,4.46c6.255,0,7.979-4.46,7.979-4.46s12.657-2.784,18.382,0
					c5.725,2.784,24.993,22.89,24.993,22.89s-1.955,11.03-12.147,15.359l-9.495-7.819c0,0,3.788,13.133,6.039,46.65
					c0,0-15.258,6.253-62.532,0c0,0,0-23.012,3.502-43.772l-5.753,14.257c0,0-12.756-1.751-18.259-10.755
					c0,0,15.258-31.266,20.51-34.017C134.899,183.973,146.477,183.932,146.477,183.932z"/>
				<polygon style="fill:#FFFFFF;" points="171.025,238.043 159.368,231.304 149.47,238.043 151.24,224.885 143.196,217.71 
					154.833,215.172 159.264,204.315 165.181,215.588 177.124,216.558 167.984,225.558 				"/>
				<path style="fill:none;stroke:#003450;stroke-width:0.414;stroke-linejoin:round;stroke-miterlimit:10;" d="M186.139,214.363
					c0,0-0.124-2.06-4.16-10.998"/>
				<path style="fill:none;stroke:#003450;stroke-width:0.414;stroke-linejoin:round;stroke-miterlimit:10;" d="M133.743,215.626
					c0.671-4.607,1.75-9.154,3.222-13.571"/>
				<path style="fill:none;stroke:#003450;stroke-width:0.414;stroke-linejoin:round;stroke-miterlimit:10;" d="M194.936,219.549
					c4.696-3.229,8.113-8.269,9.375-13.827"/>
				<path style="fill:none;stroke:#003450;stroke-width:0.414;stroke-linejoin:round;stroke-miterlimit:10;" d="M111.423,218.154
					c3.429,5.034,8.857,8.665,14.818,9.912"/>
				<path style="fill:none;stroke:#FFFFFF;stroke-width:0.414;stroke-linejoin:round;stroke-miterlimit:10;" d="M177.87,265.278
					c1.499,5.741,5.441,10.802,10.642,13.659"/>
				
					<line style="fill:none;stroke:#FFFFFF;stroke-width:0.414;stroke-linejoin:round;stroke-miterlimit:10;" x1="158.459" y1="294.399" x2="159.464" y2="265.278"/>
				<path style="fill:none;stroke:#FFFFFF;stroke-width:0.414;stroke-linejoin:round;stroke-miterlimit:10;" d="M165.022,265.747
					c0,0-0.329,13.893-0.411,15.702c-0.082,1.809-0.53,4.768-5.65,4.85"/>
			</g>
			<path style="fill:none;stroke:#003450;stroke-width:0.414;stroke-linejoin:round;stroke-miterlimit:10;" d="M276.97,226.796
				l-9.613,13.399c-0.98,1.367-3.019,1.348-3.975-0.036l-9.226-13.363"/>
			<g>
				<g>
					<path style="fill:#A8D2E6;" d="M275.127,226.074c0,0-10.133,3.602-19.566,0l0.468,8.935l9.962,7.02l7.446-7.02L275.127,226.074
						z"/>
					<g>
						<path style="fill:#FFFFFF;" d="M306.009,261.866c0,0-10.879-30.001-14.506-33.297c-3.626-3.297-16.377-2.495-16.377-2.495
							c-1.086,2.27-6.258,9.174-8.611,12.27c-0.59,0.776-1.751,0.776-2.341,0c-2.354-3.096-7.528-10-8.614-12.27
							c0,0-12.75-0.802-16.377,2.495c-3.626,3.297-14.506,33.297-14.506,33.297l15.693,5.915l-2.06,29.713
							c0,0,13.279,6.79,28.211,6.79c14.932,0,25.854-6.79,25.854-6.79l-2.06-29.713L306.009,261.866z"/>
						<g>
							
								<line style="fill:none;stroke:#003450;stroke-width:0.414;stroke-linejoin:round;stroke-miterlimit:10;" x1="240.37" y1="267.781" x2="241.574" y2="247.059"/>
							
								<line style="fill:none;stroke:#003450;stroke-width:0.414;stroke-linejoin:round;stroke-miterlimit:10;" x1="290.316" y1="267.781" x2="287.839" y2="247.059"/>
							<path style="fill:none;stroke:#003450;stroke-width:0.414;stroke-linejoin:round;stroke-miterlimit:10;" d="M287.418,276.263
								c-4.45,8.472-12.846,14.016-20.896,19.191"/>
							<path style="fill:none;stroke:#003450;stroke-width:0.414;stroke-linejoin:round;stroke-miterlimit:10;" d="M244.378,250.139
								c3.66,5.675,8.244,10.753,13.517,14.972"/>
						</g>
					</g>
				</g>
				<polygon style="fill:#FF6862;" points="295.949,236.577 293.131,237.836 295.949,244.34 300.104,246.423 				"/>
				<polygon style="fill:#FF6862;" points="295.596,235.801 292.785,237.085 292.177,235.801 294.974,234.472 				"/>
			</g>
			<g>
				<path style="fill:none;stroke:#003450;stroke-width:0.414;stroke-linejoin:round;stroke-miterlimit:10;" d="M265.985,224.401
					c0.002-3.704,4.756-5.6,5.808-8.902c0.527-1.654,0.392-3.636-0.711-5.042c-0.28-0.356-0.625-0.662-0.959-0.966"/>
				<path style="fill:none;stroke:#003450;stroke-width:0.414;stroke-linejoin:round;stroke-miterlimit:10;" d="M261.908,216.383
					c0,0-0.199-7.447,5.461-7.447"/>
				
					<line style="fill:none;stroke:#003450;stroke-width:0.414;stroke-linejoin:round;stroke-miterlimit:10;" x1="288.755" y1="223.923" x2="243.219" y2="223.923"/>
				<rect x="281.159" y="221.584" style="fill:#004869;" width="2.816" height="6.034"/>
				<rect x="246.28" y="221.584" style="fill:#004869;" width="2.816" height="6.034"/>
			</g>
		</g>
	</g>
</g>
</svg>
