<?xml version="1.0" encoding="utf-8"?>
<!-- Generator: Adobe Illustrator 27.5.0, SVG Export Plug-In . SVG Version: 6.00 Build 0)  -->
<svg version="1.1" xmlns="http://www.w3.org/2000/svg" xmlns:xlink="http://www.w3.org/1999/xlink" x="0px" y="0px"
	 viewBox="0 0 500 500" style="enable-background:new 0 0 500 500;" xml:space="preserve">
<g id="BACKGROUND">
	<rect x="-0.083" y="-0.005" style="fill:#FFFFFF;" width="500" height="500"/>
</g>
<g id="OBJECTS">
	<g>
		<g>
			<path style="fill:#FFFFFF;" d="M187.268,187.258l-0.106,2.34c-0.343,0.13-0.685,0.236-1.028,0.354
				c-0.319,0.095-0.638,0.201-0.945,0.284c-7.421,2.115-12.089,0.26-14.098-0.922c-0.768-0.449-1.146-0.804-1.146-0.804
				c0-1.134,0.012-2.245,0.036-3.309C169.979,185.202,174.706,189.811,187.268,187.258z"/>
			<path style="fill:#FFFFFF;" d="M219.966,137.91c1.808,9.052-1.572,13.483-3.9,15.386c-0.934,0.768-2.033,1.3-3.202,1.654
				c-14.37,4.42-20.184-11.663-20.184-11.663l3.262-1.82c0,0,7.433,13.779,17.607,8.012c0.579-0.331,1.04-0.803,1.359-1.359
				c0.354-0.626,0.532-1.347,0.461-2.092l-0.709-7.858l3.226,0.449C218.678,138.725,219.434,138.454,219.966,137.91z"/>
			<path style="fill:#FFFFFF;" d="M241.579,157.81c0,0,0,0.284-0.047,0.78c-0.165,1.997-1.075,7.551-5.802,12.869h-0.012
				c-0.319,0.366-0.662,0.733-1.028,1.099l-1.678-1.725c5.46-5.849,7.22-15.114,7.22-15.114
				C240.752,156.475,241.213,157.184,241.579,157.81z"/>
			<path style="fill:#AD104B;" d="M240.232,155.718c0,0-1.761,9.265-7.22,15.114l-1.193-1.229h-0.024
				c0.059-8.934-0.319-17.868-0.319-17.868c-0.284-5.4-1.843-9.075-3.687-11.557h0.012
				C227.8,140.179,236.049,149.597,240.232,155.718z"/>
			<path style="fill:#020119;" d="M219.942,110.116c-2.399,0.626-4.62-0.024-4.62-0.024c-4.833,4.136-9.855,0.591-9.855,0.591
				l-3.143,4.337l1.371,11.427h-1.666c-0.638-1.631-2.411-2.966-3.344-3.569c-0.697-0.461-1.666-0.319-2.139,0.378
				c-0.532,0.792-0.532,1.903-0.532,1.903c0,2.564,2.163,3.817,3.356,4.313l-1.784,6.251l-0.083-0.024
				c-4.219,1.548-7.102-1.773-7.102-1.773c-5.424-4.1-1.099-10.08-1.099-10.08c-5.152-2.978-4.987-8.709-4.987-8.709
				c0-6.724,6.783-9.076,6.783-9.076c-0.792-7.09,4.916-10.541,4.916-10.541c7.681-5.117,14.582,0,14.582,0l4.821-3.451
				c7.882-2.659,10.34,7.492,10.34,7.492C225.756,106.89,222.731,109.372,219.942,110.116z"/>
			<path style="fill:#020119;" d="M239.783,359.622c0.827,1.442-0.13,3.262-1.773,3.451c-12.491,1.489-18.836-3.049-18.836-3.049
				c-6.641-4.538-13.401-5.909-13.401-5.909l-0.354-8.792c11.167,6.452,18.387-2.541,18.387-2.541
				c1.276,1.276,3.072,5.495,3.982,7.752c0.39,0.957,1.087,1.749,1.997,2.233l5.968,3.238
				C237.987,357.306,239.18,358.559,239.783,359.622z"/>
			<path style="fill:#020119;" d="M198.671,375.339c0.886,4.786-0.697,7.705-2.08,9.253c-0.874,0.969-2.092,1.56-3.38,1.678
				c-9.206,0.815-11.628-6.535-11.628-6.535c-0.957-7.327,0-13.661,0-13.661c5.979,2.612,11.096,0.603,13.85-1.028L198.671,375.339z
				"/>
			<path style="fill:#FEE600;" d="M213.041,249.227l-0.65,20.633l-5.14,3.25l-1.158,0.733l0.484-23.126
				C208.94,250.291,211.091,249.794,213.041,249.227z"/>
			<path style="fill:#FEE600;" d="M231.818,234.479l-1.359,16.922c-7.173,1.217-7.705-6.275-7.705-6.275
				C230.92,240.199,231.818,234.479,231.818,234.479z"/>
			<path style="fill:#FEE600;" d="M230.459,251.4l-2.01,25.02l-4.64,66.36c0,0-7.22,9-18.39,2.54l0.72-27.22l1.18-44.87l-0.07-0.12
				l3.54-2.24l1.6-1.01l0.65-20.63v-0.02c4.04-1.15,7.22-2.58,9.72-4.08C222.759,245.13,223.289,252.62,230.459,251.4z"/>
			<path style="fill:#FEE600;" d="M206.579,250.72l-0.49,23.12l-1.73,1.1l-6.76,88.56c0,0-0.78,0.72-2.17,1.55
				c-2.3,1.36-6.26,2.99-10.98,1.95c-0.93-0.2-1.89-0.5-2.87-0.93c-0.57-0.24-1.15-0.54-1.74-0.88l1.45-66.89
				c0.02-1.06,0.01-2.12-0.04-3.18l-1.4-32.81l5.35,3.69c0.33,0.23,0.72,0.39,1.12,0.43c0.82,0.1,2.2,0.07,3.32-0.9
				c1.26-1.08,1.02-3.12-0.43-3.93l-4.27-2.39c0,0-1.18-3.06-0.21-4.77c0.45-0.79,1.65-0.63,1.88,0.26l0.66,2.53
				c0.26,0.98,1.3,1.52,2.24,1.17c0.68-0.26,1.11-0.9,1.11-1.6c0-0.1-0.01-0.21-0.03-0.32l-0.84-4.39c1.27-0.01,2.49-0.03,3.68-0.07
				C198.439,251.84,202.789,251.38,206.579,250.72z"/>
			<path style="fill:#FF3D3C;" d="M231.819,234.48c0,0-0.9,5.72-9.06,10.65c-2.5,1.5-5.68,2.93-9.72,4.08v0.02
				c-1.95,0.56-4.1,1.06-6.46,1.49c-3.75,0.66-8.05,1.11-12.99,1.29c-1.24,0.04-2.52,0.07-3.84,0.08l-0.11-0.54
				c-0.08-0.44-0.26-0.87-0.53-1.25l-2.15-3.03c-0.35-0.5-0.59-1.08-0.67-1.68l-2.35-17.47c4.62-13.04,2.19-38.17,2.19-38.17
				c0.35-0.12,0.69-0.22,1.03-0.35l0.11-2.34c-12.56,2.55-17.29-2.06-17.29-2.06c0.43-17.96,4.22-27.13,6.78-31.31
				c0.11-0.19,0.23-0.37,0.36-0.55c1.01-1.46,2.35-2.66,3.9-3.53l11.66-6.52c0,0,5.82,16.08,20.18,11.66
				c1.17-0.35,2.27-0.89,3.21-1.65c2.33-1.91,5.7-6.34,3.9-15.39c0.33-0.32,0.56-0.74,0.66-1.23c0.09-0.45,0.16-0.94,0.23-1.46
				c0,0,3.86,0.82,6.93,4.96c1.84,2.48,3.4,6.16,3.69,11.56c0,0,0.37,8.93,0.32,17.86c-0.02,3.68-0.11,7.34-0.32,10.4
				L231.819,234.48z"/>
			<path style="fill:#9C2E03;" d="M215.369,146.028c0.071,0.744-0.106,1.465-0.461,2.092c-6.098-6.098-8.686-11.392-8.686-11.392
				c0.425,0.236,0.91,0.402,1.406,0.473l7.031,0.969L215.369,146.028z"/>
			<path style="fill:#C45521;" d="M243.198,159.37l14.961-33.159c0.874-1.914,2.576-3.309,4.62-3.781l5.448-2.423
				c0.225-0.095,0.461-0.142,0.697-0.142c0.579,0,1.123,0.272,1.453,0.78c0.496,0.792,0.284,1.832-0.496,2.352l-3.474,2.316
				l0.213,0.614c0.189,0.532,0.745,0.839,1.3,0.733l2.021-0.425c0.981-0.095,1.82-0.745,2.163-1.678l2.801-7.658
				c0.402-1.111,1.454-1.796,2.553-1.796c0.53,0,1.061,0.156,1.542,0.492c0.773,0.54,1.176,1.475,1.176,2.418v2.266
				c0,0.39-0.083,0.78-0.248,1.123l-4.006,8.816c-0.508,1.099-1.43,1.962-2.564,2.387l-4.75,1.761
				c-1.453,0.544-2.647,1.631-3.321,3.013l-17.212,35.519c-1.052,2.171-3.687,3.046-5.829,1.936l-6.514-3.375
				c4.727-5.318,5.637-10.872,5.802-12.869l0.13,0.012L243.198,159.37z"/>
			<path style="fill:#C45521;" d="M219.942,110.116c0.094,0.733,2.009,16.709,0.922,25.099c-0.071,0.52-0.142,1.016-0.236,1.465
				c-0.095,0.484-0.331,0.91-0.662,1.229c-0.532,0.544-1.288,0.815-2.08,0.709l-3.226-0.449l-7.031-0.969
				c-0.496-0.071-0.981-0.236-1.406-0.473c-0.437-0.248-0.839-0.579-1.158-0.981l-4.219-5.152c-0.39-0.484-0.898-0.886-1.477-1.123
				c-1.193-0.496-3.356-1.749-3.356-4.313c0,0,0-1.111,0.532-1.903c0.473-0.697,1.442-0.839,2.139-0.378
				c0.934,0.603,2.706,1.938,3.344,3.569h1.666l-1.371-11.427l3.143-4.337c0,0,5.022,3.545,9.855-0.591
				C215.322,110.093,217.543,110.743,219.942,110.116z"/>
			<path style="fill:#C45521;" d="M214.908,148.12c-0.319,0.555-0.78,1.028-1.359,1.359c-10.174,5.767-17.607-8.012-17.607-8.012
				l1.643-5.743l1.784-6.251c0.579,0.236,1.087,0.638,1.477,1.123l4.219,5.152c0.319,0.402,0.721,0.733,1.158,0.981
				C206.222,136.728,208.81,142.022,214.908,148.12z"/>
			<path style="fill:#C45521;" d="M179.847,262.309l-2.092-1.442c-0.685-0.473-1.146-1.217-1.264-2.044l-6.086-41.998l0.685-27.51
				c2.009,1.182,6.677,3.037,14.098,0.922l-2.99,24.958l1.737,12.928l2.352,17.466c0.083,0.603,0.319,1.182,0.673,1.678l2.151,3.037
				c0.272,0.378,0.449,0.804,0.532,1.253l0.106,0.532l0.839,4.396c0.024,0.106,0.035,0.213,0.035,0.319
				c0,0.697-0.437,1.335-1.111,1.595c-0.945,0.355-1.985-0.189-2.245-1.17l-0.662-2.529c-0.225-0.886-1.43-1.052-1.879-0.26
				c-0.969,1.713,0.213,4.774,0.213,4.774l4.266,2.387c1.453,0.815,1.69,2.848,0.437,3.935c-1.123,0.969-2.505,0.993-3.321,0.898
				c-0.402-0.047-0.792-0.201-1.123-0.437L179.847,262.309z"/>
			<path style="fill:#9C2E03;" d="M241.662,158.602l1.536,0.768l2.153,1.072c2.403,1.196,5.226-0.552,5.226-3.237l3.115-21.093
				l-10.08,22.342L241.662,158.602z"/>
			<g>
				<path style="fill:#C48A08;" d="M222.754,245.127c1.006,1.763,1.847,3.265,3.021,4.284c0.576,0.512,1.224,0.928,2.014,1.208
					c0.379,0.188,0.811,0.268,1.25,0.415c0.446,0.132,0.913,0.187,1.42,0.367c-0.436,0.258-0.911,0.471-1.41,0.615
					c-0.504,0.079-1.033,0.221-1.572,0.145c-1.08-0.03-2.197-0.499-3.026-1.251c-0.842-0.744-1.405-1.727-1.686-2.731
					C222.501,247.169,222.437,246.121,222.754,245.127z"/>
			</g>
			<path style="fill:#AD104B;" d="M196.799,217.43c-1.26,5.32-1.24,11.22-1.24,16.7c-0.01,4.44,1,10.15-0.27,14.42
				c-0.3,1.03-0.91,2.22-1.7,3.46c-1.24,0.04-2.52,0.07-3.84,0.08l-0.11-0.54c-0.08-0.44-0.26-0.87-0.53-1.25l-2.15-3.03
				c-0.35-0.5-0.59-1.08-0.67-1.68l-2.35-17.47c4.62-13.04,2.19-38.17,2.19-38.17c0.35-0.12,0.69-0.22,1.03-0.35l0.11-2.34
				c-12.56,2.55-17.29-2.06-17.29-2.06c0.43-17.96,4.22-27.13,6.78-31.31c0.11-0.19,0.23-0.37,0.36-0.55
				c2.06,1.62,3.67,3.29,4.52,6.56c0.86,3.32,0.05,7.91,0.05,11.44c0,4.44,0.91,6.53,3.17,10.2c1.43,2.32,2.48,3.44,4.6,5.64
				c2.06,2.14,2.88,4.74,4.09,7.44c0.9,1.99,1.53,4.76,3.14,6.26c1.86,1.73,3.65,1.49,3.97,4.25
				C201.139,209.23,197.739,213.46,196.799,217.43z"/>
			<g>
				<path style="fill:#840B3C;" d="M187.161,189.598c-0.319-2.072-0.445-4.134-0.502-6.194c-0.056-2.06-0.043-4.116,0.049-6.169
					c0.085-2.053,0.255-4.103,0.49-6.15c0.237-2.047,0.544-4.09,1.051-6.125c0.326,2.072,0.453,4.134,0.509,6.194
					c0.055,2.06,0.044,4.117-0.052,6.17c-0.089,2.053-0.257,4.103-0.493,6.15C187.975,185.52,187.669,187.564,187.161,189.598z"/>
			</g>
			<path style="fill:#F6B406;" d="M191.679,292.88c-0.92,10.66-0.62,21.47-1.45,32.16c-0.83,10.59-1.98,20.92-1.98,31.57
				c0.01,4.47,0.41,8.51-3.8,10.39c-0.93-0.2-1.89-0.5-2.87-0.93c-0.57-0.24-1.15-0.54-1.74-0.88l1.45-66.89
				c0.02-1.06,0.01-2.12-0.04-3.18l-1.4-32.81l5.35,3.69c0.33,0.23,0.72,0.39,1.12,0.43c0.82,0.1,2.2,0.07,3.32-0.9
				c1.26-1.08,1.02-3.12-0.43-3.93l-4.27-2.39c0,0-1.18-3.06-0.21-4.77c0.45-0.79,1.65-0.63,1.88,0.26l0.66,2.53
				c0.26,0.98,1.3,1.52,2.24,1.17c0.68-0.26,1.11-0.9,1.11-1.6c0-0.1-0.01-0.21-0.03-0.32l-0.84-4.39c1.27-0.01,2.49-0.03,3.68-0.07
				C195.429,265.01,192.759,280.4,191.679,292.88z"/>
			<path style="fill:#F6B406;" d="M211.289,296.36c-0.55,5.52-0.7,17.7-5.15,21.74l1.18-44.87l-0.07-0.12l3.54-2.24
				c0.73-0.17,1.45-0.35,2.11-0.62C215.619,277.97,212.109,288.21,211.289,296.36z"/>
			<g>
				<path style="fill:#C48A08;" d="M213.041,249.215c0.229,1.725,0.368,3.449,0.448,5.173c0.088,1.724,0.134,3.448,0.135,5.171
					c0.027,1.724-0.037,3.445-0.075,5.167c-0.073,1.721-0.143,3.442-0.279,5.161l-0.04,0.502l-0.369,0.213
					c-1.373,0.793-2.762,1.561-4.179,2.285c-1.412,0.732-2.844,1.432-4.326,2.053c1.196-1.073,2.441-2.069,3.709-3.029
					c1.262-0.969,2.552-1.894,3.857-2.795l-0.409,0.715c-0.028-1.722,0.01-3.441,0.046-5.161c0.071-1.719,0.115-3.438,0.25-5.155
					c0.109-1.718,0.263-3.435,0.46-5.152C212.457,252.647,212.705,250.931,213.041,249.215z"/>
			</g>
			<g>
				<path style="fill:#C48A08;" d="M206.577,250.704c0.374,1.933,0.55,3.864,0.656,5.795c0.106,1.931,0.143,3.861,0.101,5.79
					c-0.035,1.929-0.155,3.857-0.34,5.783c-0.187,1.926-0.445,3.851-0.901,5.77c-0.376-1.937-0.553-3.869-0.659-5.799
					c-0.105-1.93-0.144-3.859-0.098-5.786c0.039-1.927,0.157-3.853,0.344-5.779C205.866,254.553,206.123,252.628,206.577,250.704z"
					/>
			</g>
		</g>
		<g>
			<path style="fill:#AFE1FA;" d="M332.725,243.627c0,0.013-0.013,0.013-0.013,0.013v-0.093
				C332.712,243.574,332.725,243.601,332.725,243.627z"/>
			<g>
				<polygon style="fill:#C2D3DA;" points="183.406,322.121 237.252,353.414 370.069,276.692 316.222,245.4 				"/>
				<polygon style="fill:#97A5B2;" points="237.269,455.638 183.426,424.339 183.413,368.145 183.413,360.001 183.4,322.126 
					237.256,353.412 237.256,399.244 				"/>
				<polygon style="fill:#445277;" points="237.252,353.414 237.274,455.633 370.09,378.911 370.069,276.692 				"/>
				<g>
					<polygon style="fill:#97A5B2;" points="237.252,437.357 237.274,444.167 370.09,367.445 370.069,360.635 					"/>
					<polygon style="fill:#2C3C60;" points="237.252,436.036 237.274,442.846 370.09,366.124 370.069,359.314 					"/>
					<polygon style="fill:#BACEDD;" points="237.256,437.372 237.256,444.2 183.413,413.101 183.413,406.272 					"/>
					<polygon style="fill:#445277;" points="237.256,436.057 237.256,442.872 183.413,411.772 183.413,404.957 					"/>
				</g>
			</g>
			<g>
				<polygon style="fill:#C2D3DA;" points="129.91,370.685 176.723,397.89 233.26,365.45 186.447,338.245 				"/>
				<polygon style="fill:#445277;" points="233.26,365.45 233.26,372.981 176.723,405.421 176.723,397.89 				"/>
				<polygon style="fill:#97A5B2;" points="129.91,370.685 129.91,378.216 176.723,405.421 176.723,397.89 				"/>
			</g>
			<g>
				<g>
					<polygon style="fill:#0794A7;" points="351.52,253.326 351.52,276.668 237.267,342.667 237.267,319.325 					"/>
					<polygon style="fill:#41AABF;" points="201.955,298.804 201.955,322.146 237.267,342.667 237.267,319.325 					"/>
				</g>
				<g>
					<polygon style="fill:#C2D3DA;" points="183.406,288.033 237.252,319.325 370.069,242.603 316.222,211.311 					"/>
					<polygon style="fill:#97A5B2;" points="183.406,288.033 183.427,295.613 237.274,326.906 237.252,319.325 					"/>
					<polygon style="fill:#445277;" points="237.252,319.325 237.274,326.906 370.09,250.184 370.069,242.603 					"/>
				</g>
				<g>
					<g>
						<polygon style="fill:#445277;" points="270.845,245.136 307.711,223.846 327.388,235.281 290.522,256.571 						"/>
						<polygon style="fill:#E0FAFB;" points="322.563,235.27 314.53,239.908 311.031,241.932 307.668,243.871 294.818,251.303 
							291.456,253.243 290.528,253.78 284.456,250.249 275.665,245.147 284.456,240.066 291.456,236.029 294.818,234.079 
							307.668,226.658 307.71,226.636 311.031,228.566 314.53,230.6 						"/>
						<polygon style="fill:#FFFFFF;" points="291.456,236.029 291.456,253.243 290.528,253.78 284.456,250.249 284.456,240.066 
													"/>
						<polygon style="fill:#FFFFFF;" points="314.53,230.6 314.53,239.908 311.031,241.932 311.031,228.566 						"/>
						<polygon style="fill:#FFFFFF;" points="307.668,226.658 307.668,243.871 294.818,251.303 294.818,234.079 						"/>
					</g>
					<g>
						<g style="enable-background:new    ;">
							<g>
								<polygon style="fill:#5B656D;" points="290.797,248.015 303.058,260.819 303.036,268.395 290.76,261.307 								"/>
							</g>
							<g>
								<polygon style="fill:#6E7E89;" points="290.797,248.015 324.237,228.582 336.498,241.386 303.058,260.819 								"/>
							</g>
							<g>
								<polygon style="fill:#313A42;" points="303.058,260.819 336.498,241.386 336.477,248.962 303.036,268.395 								"/>
							</g>
						</g>
					</g>
				</g>
				<g>
					<polygon style="fill:#E0FAFB;" points="188.707,288.04 249.99,252.601 298.54,280.815 237.257,316.255 					"/>
					<polygon style="fill:#445277;" points="249.99,252.601 188.707,288.04 190.605,289.143 249.99,254.8 					"/>
					<polygon style="fill:#97A5B2;" points="249.99,254.8 296.642,281.911 298.54,280.815 249.99,252.601 					"/>
				</g>
			</g>
			<g>
				<g>
					<g>
						<g>
							<g style="enable-background:new    ;">
								<path style="fill:#97A5B2;" d="M359.744,79.319l-0.452,163.867c0,0.013,0,0.026-0.013,0.04c0,0.08,0,0.159-0.027,0.239
									c0,0.04-0.026,0.093-0.04,0.146c0,0.013,0,0.027-0.013,0.04c0,0.013,0,0.027-0.013,0.04
									c-0.027,0.08-0.066,0.159-0.106,0.239c-0.027,0.04-0.053,0.08-0.08,0.106c-0.013,0.027-0.027,0.053-0.04,0.08
									c-0.013,0.013-0.027,0.04-0.04,0.053c-0.08,0.106-0.173,0.199-0.266,0.279c0,0.013-0.013,0.013-0.027,0.027
									c-0.08,0.08-0.186,0.146-0.292,0.213c-0.066,0.053-0.133,0.106-0.213,0.16c-0.013,0-0.026,0.013-0.04,0.026
									c-0.253,0.146-0.532,0.253-0.824,0.359c-0.027,0.013-0.053,0.027-0.093,0.04c-0.066,0.027-0.146,0.04-0.212,0.053
									c-0.133,0.04-0.279,0.08-0.412,0.106c-0.053,0.013-0.106,0.026-0.146,0.04c-0.12,0.013-0.239,0.027-0.359,0.04
									c-0.04,0.013-0.08,0.013-0.12,0.026h-0.053c-0.093,0.013-0.173,0.013-0.253,0.013c-0.066,0.013-0.146,0.013-0.213,0.013
									c-0.053,0.013-0.12,0-0.186,0c-0.04,0-0.066,0.013-0.106,0c-0.04,0-0.08,0.013-0.133,0.013
									c-0.133-0.013-0.266-0.013-0.398-0.026c-0.053,0-0.106-0.013-0.159-0.013c-0.04-0.013-0.066-0.013-0.106-0.013
									c-0.04-0.013-0.093-0.013-0.146-0.013c-0.133-0.027-0.266-0.053-0.398-0.08c-0.04,0-0.08-0.013-0.12-0.027
									c-0.04-0.013-0.08-0.013-0.12-0.027c-0.066-0.013-0.133-0.026-0.199-0.053c-0.133-0.04-0.252-0.08-0.372-0.12
									c-0.04-0.013-0.066-0.027-0.106-0.04c-0.013,0-0.013,0-0.027-0.013c-0.213-0.08-0.412-0.173-0.598-0.279
									c-0.824-0.478-1.222-1.089-1.222-1.714l0.465-163.853c0,0.611,0.398,1.236,1.222,1.701c0.186,0.119,0.399,0.213,0.624,0.292
									c0.04,0.013,0.066,0.027,0.106,0.04c0.186,0.066,0.372,0.133,0.571,0.173c0.04,0.013,0.08,0.027,0.12,0.027
									c0.226,0.053,0.438,0.093,0.664,0.12c0.04,0,0.066,0.013,0.106,0.013c0.226,0.027,0.465,0.04,0.691,0.04h0.106
									c0.239,0,0.465-0.013,0.704-0.04c0.04,0,0.08-0.013,0.12-0.013c0.173-0.027,0.332-0.053,0.505-0.093
									c0.133-0.027,0.279-0.066,0.412-0.106c0.106-0.027,0.212-0.053,0.306-0.093c0.292-0.093,0.571-0.213,0.824-0.359
									c0.093-0.053,0.159-0.12,0.252-0.173c0.093-0.08,0.213-0.146,0.292-0.226c0.133-0.12,0.239-0.239,0.332-0.359
									c0.013-0.027,0.026-0.04,0.04-0.066c0.093-0.133,0.159-0.253,0.199-0.385c0.013-0.013,0.013-0.04,0.013-0.053
									C359.717,79.612,359.744,79.465,359.744,79.319z"/>
								<g>
									<path style="fill:#303235;" d="M358.523,77.612c1.629,0.94,1.637,2.458,0.019,3.398c-1.61,0.935-4.23,0.935-5.859-0.005
										c-1.62-0.935-1.629-2.453-0.019-3.389C354.282,76.677,356.903,76.677,358.523,77.612z"/>
								</g>
								<path style="fill:#445277;" d="M359.744,79.319l-0.452,163.867c0,0.013,0,0.026-0.013,0.04c0,0.08,0,0.159-0.027,0.239
									c0,0.04-0.026,0.093-0.04,0.146c0,0.013,0,0.027-0.013,0.04c0,0.013,0,0.027-0.013,0.04
									c-0.027,0.08-0.066,0.159-0.106,0.239c-0.027,0.04-0.053,0.08-0.08,0.106c-0.013,0.027-0.027,0.053-0.04,0.08
									c-0.013,0.013-0.027,0.04-0.04,0.053c-0.08,0.106-0.173,0.199-0.266,0.279c0,0.013-0.013,0.013-0.027,0.027
									c-0.08,0.08-0.186,0.146-0.292,0.213c-0.066,0.053-0.133,0.106-0.213,0.16c-0.013,0-0.026,0.013-0.04,0.026
									c-0.253,0.146-0.532,0.253-0.824,0.359c-0.027,0.013-0.053,0.027-0.093,0.04c-0.066,0.027-0.146,0.04-0.212,0.053
									c-0.133,0.04-0.279,0.08-0.412,0.106c-0.053,0.013-0.106,0.026-0.146,0.04c-0.12,0.013-0.239,0.027-0.359,0.04
									c-0.04,0.013-0.08,0.013-0.12,0.026h-0.053c-0.093,0.013-0.173,0.013-0.253,0.013V81.711h0.066
									c0.239,0,0.465-0.013,0.704-0.04c0.04,0,0.08-0.013,0.12-0.013c0.173-0.027,0.332-0.053,0.505-0.093
									c0.133-0.027,0.279-0.066,0.412-0.106c0.106-0.027,0.212-0.053,0.306-0.093c0.292-0.093,0.571-0.213,0.824-0.359
									c0.093-0.053,0.159-0.12,0.252-0.173c0.093-0.08,0.213-0.146,0.292-0.226c0.133-0.12,0.239-0.239,0.332-0.359
									c0.013-0.027,0.026-0.04,0.04-0.066c0.093-0.133,0.159-0.253,0.199-0.385c0.013-0.013,0.013-0.04,0.013-0.053
									C359.717,79.612,359.744,79.465,359.744,79.319z"/>
							</g>
						</g>
						<g>
							<g style="enable-background:new    ;">
								<g>
									<polygon style="fill:#B2FF6E;" points="368.353,51.85 355.468,59.338 342.499,51.85 355.384,44.362 									"/>
								</g>
								<g>
									<polygon style="fill:#429B1D;" points="368.353,51.85 368.245,89.752 355.361,97.24 355.468,59.338 									"/>
								</g>
								<g>
									<polygon style="fill:#8AD751;" points="355.468,59.338 355.361,97.24 342.392,89.752 342.499,51.85 									"/>
								</g>
							</g>
						</g>
					</g>
					<g>
						<path style="fill:#97A5B2;" d="M353.487,132.325v-0.053c0-0.013,0-0.04-0.013-0.053v-0.053
							c-0.013-0.027-0.013-0.04-0.013-0.066c-0.013-0.013-0.013-0.04-0.013-0.053c-0.013-0.026-0.013-0.04-0.027-0.066
							c0-0.013,0-0.04-0.013-0.053c0,0,0,0,0-0.013c0-0.013-0.013-0.04-0.013-0.053c-0.013-0.013-0.013-0.04-0.026-0.053
							c0-0.027-0.013-0.04-0.013-0.066c-0.013-0.013-0.027-0.027-0.027-0.053c-0.013-0.013-0.013-0.04-0.026-0.053
							c-0.013-0.013-0.013-0.04-0.027-0.053c-0.013-0.027-0.013-0.04-0.027-0.066c-0.013-0.027-0.027-0.04-0.04-0.066
							c-0.013-0.027-0.027-0.053-0.04-0.08c-0.013-0.013-0.013-0.013-0.013-0.027c-0.027-0.027-0.04-0.067-0.08-0.106
							c0-0.013,0-0.013-0.013-0.027c-0.013-0.04-0.04-0.066-0.066-0.106c-0.013-0.027-0.04-0.04-0.053-0.066
							c-0.013-0.013-0.027-0.04-0.04-0.053c-0.013-0.013-0.026-0.04-0.053-0.053c-0.013-0.013-0.027-0.04-0.04-0.053h-0.013
							c-0.013-0.013-0.013-0.027-0.027-0.04c-0.027-0.027-0.04-0.04-0.053-0.053c-0.013-0.013-0.04-0.027-0.053-0.053
							c-0.013-0.013-0.027-0.027-0.053-0.04c-0.013-0.013-0.026-0.026-0.04-0.04c-0.027-0.013-0.04-0.027-0.053-0.04
							c-0.013-0.013-0.04-0.026-0.053-0.026l-0.04-0.04c-0.027-0.013-0.04-0.013-0.053-0.026h-0.013
							c-0.013-0.013-0.027-0.027-0.04-0.027c-0.013-0.013-0.026-0.013-0.04-0.027c-0.013,0-0.04-0.013-0.053-0.026
							c-0.013,0-0.026-0.013-0.04-0.013c-0.013,0-0.027-0.013-0.053-0.013c-0.013-0.013-0.027-0.013-0.04-0.013
							c-0.013-0.013-0.04-0.013-0.053-0.013c-0.013-0.013-0.027-0.013-0.04-0.013c-0.027,0-0.04-0.013-0.053-0.013h-0.173
							c-0.013,0-0.04,0-0.066,0.013c-0.027,0-0.053,0.013-0.08,0.013c-0.027,0.013-0.067,0.027-0.093,0.053l-22.265,12.939
							c-0.199,0.119-0.332,0.372-0.332,0.731c0,0.359,0.12,0.757,0.319,1.103c0.199,0.372,0.492,0.704,0.824,0.89
							c0.359,0.199,0.678,0.173,0.89-0.013c-0.013,0.04-0.04,0.066-0.08,0.08l22.278-12.939c0.08-0.04,0.146-0.106,0.199-0.199
							c0.013-0.027,0.026-0.053,0.04-0.08c0.013-0.013,0.027-0.04,0.027-0.066c0.013-0.013,0.013-0.04,0.027-0.053
							c0-0.027,0-0.04,0.013-0.066c0-0.013,0-0.027,0.013-0.053v-0.053c0-0.013,0.013-0.04,0.013-0.053v-0.226
							C353.5,132.365,353.5,132.352,353.487,132.325z"/>
						<path style="fill:#445277;" d="M353.5,132.378v0.226c0,0.013-0.013,0.04-0.013,0.053v0.053
							c-0.013,0.027-0.013,0.04-0.013,0.053c-0.013,0.026-0.013,0.04-0.013,0.066c-0.013,0.013-0.013,0.04-0.027,0.053
							c0,0.027-0.013,0.053-0.027,0.066c-0.013,0.027-0.027,0.053-0.04,0.08c-0.053,0.093-0.12,0.159-0.199,0.199l-22.278,12.939
							c0.04-0.013,0.066-0.04,0.08-0.08c-0.212,0.186-0.531,0.212-0.89,0.013c-0.332-0.186-0.624-0.518-0.824-0.89l23.819-13.976
							c0.04,0.04,0.053,0.08,0.08,0.106c0,0.013,0,0.013,0.013,0.027c0.013,0.027,0.027,0.053,0.04,0.08
							c0.013,0.027,0.027,0.04,0.04,0.066c0.013,0.027,0.013,0.04,0.027,0.066c0.013,0.013,0.013,0.04,0.027,0.053
							c0.013,0.013,0.013,0.04,0.026,0.053c0,0.027,0.013,0.04,0.027,0.053c0,0.027,0.013,0.04,0.013,0.066
							c0.013,0.013,0.013,0.04,0.026,0.053c0,0.013,0.013,0.04,0.013,0.053c0,0.013,0,0.013,0,0.013
							c0.013,0.013,0.013,0.04,0.013,0.053c0.013,0.027,0.013,0.04,0.027,0.066c0,0.013,0,0.04,0.013,0.053
							c0,0.027,0,0.04,0.013,0.066v0.053c0.013,0.013,0.013,0.04,0.013,0.053v0.053C353.5,132.352,353.5,132.365,353.5,132.378z"/>
					</g>
					<g>
						<path style="fill:#97A5B2;" d="M353.487,175.738v-0.053c0-0.013,0-0.04-0.013-0.053v-0.053
							c-0.013-0.027-0.013-0.04-0.013-0.066c-0.013-0.013-0.013-0.04-0.013-0.053c-0.013-0.027-0.013-0.04-0.027-0.066
							c0-0.013,0-0.04-0.013-0.053c0,0,0,0,0-0.013c0-0.013-0.013-0.04-0.013-0.053c-0.013-0.013-0.013-0.04-0.026-0.053
							c0-0.027-0.013-0.04-0.013-0.066c-0.013-0.013-0.027-0.027-0.027-0.053c-0.013-0.013-0.013-0.04-0.026-0.053
							c-0.013-0.013-0.013-0.04-0.027-0.053c-0.013-0.027-0.013-0.04-0.027-0.066c-0.013-0.027-0.027-0.04-0.04-0.066
							c-0.013-0.026-0.027-0.053-0.04-0.08c-0.013-0.013-0.013-0.013-0.013-0.026c-0.027-0.027-0.04-0.067-0.08-0.106
							c0-0.013,0-0.013-0.013-0.027c-0.013-0.04-0.04-0.066-0.066-0.106c-0.013-0.027-0.04-0.04-0.053-0.066
							c-0.013-0.013-0.027-0.04-0.04-0.053c-0.013-0.013-0.026-0.04-0.053-0.053c-0.013-0.013-0.027-0.04-0.04-0.053h-0.013
							c-0.013-0.013-0.013-0.027-0.027-0.04c-0.027-0.027-0.04-0.04-0.053-0.053c-0.013-0.013-0.04-0.027-0.053-0.053
							c-0.013-0.013-0.027-0.027-0.053-0.04c-0.013-0.013-0.026-0.027-0.04-0.04c-0.027-0.013-0.04-0.027-0.053-0.04
							c-0.013-0.013-0.04-0.027-0.053-0.027l-0.04-0.04c-0.027-0.013-0.04-0.013-0.053-0.026h-0.013
							c-0.013-0.013-0.027-0.027-0.04-0.027c-0.013-0.013-0.026-0.013-0.04-0.027c-0.013,0-0.04-0.013-0.053-0.027
							c-0.013,0-0.026-0.013-0.04-0.013c-0.013,0-0.027-0.013-0.053-0.013c-0.013-0.013-0.027-0.013-0.04-0.013
							c-0.013-0.013-0.04-0.013-0.053-0.013c-0.013-0.013-0.027-0.013-0.04-0.013c-0.027,0-0.04-0.013-0.053-0.013h-0.173
							c-0.013,0-0.04,0-0.066,0.013c-0.027,0-0.053,0.013-0.08,0.013c-0.027,0.013-0.067,0.027-0.093,0.053l-22.265,12.939
							c-0.199,0.119-0.332,0.372-0.332,0.731s0.12,0.757,0.319,1.103c0.199,0.372,0.492,0.704,0.824,0.89
							c0.359,0.199,0.678,0.173,0.89-0.013c-0.013,0.04-0.04,0.066-0.08,0.08l22.278-12.939c0.08-0.04,0.146-0.106,0.199-0.199
							c0.013-0.027,0.026-0.053,0.04-0.08c0.013-0.013,0.027-0.04,0.027-0.066c0.013-0.013,0.013-0.04,0.027-0.053
							c0-0.027,0-0.04,0.013-0.066c0-0.013,0-0.027,0.013-0.053v-0.053c0-0.013,0.013-0.04,0.013-0.053v-0.226
							C353.5,175.778,353.5,175.764,353.487,175.738z"/>
						<path style="fill:#445277;" d="M353.5,175.791v0.226c0,0.013-0.013,0.04-0.013,0.053v0.053
							c-0.013,0.027-0.013,0.04-0.013,0.053c-0.013,0.027-0.013,0.04-0.013,0.066c-0.013,0.013-0.013,0.04-0.027,0.053
							c0,0.027-0.013,0.053-0.027,0.066c-0.013,0.027-0.027,0.053-0.04,0.08c-0.053,0.093-0.12,0.16-0.199,0.199l-22.278,12.939
							c0.04-0.013,0.066-0.04,0.08-0.08c-0.212,0.186-0.531,0.212-0.89,0.013c-0.332-0.186-0.624-0.518-0.824-0.89l23.819-13.975
							c0.04,0.04,0.053,0.08,0.08,0.106c0,0.013,0,0.013,0.013,0.026c0.013,0.027,0.027,0.053,0.04,0.08
							c0.013,0.027,0.027,0.04,0.04,0.066c0.013,0.027,0.013,0.04,0.027,0.066c0.013,0.013,0.013,0.04,0.027,0.053
							c0.013,0.013,0.013,0.04,0.026,0.053c0,0.027,0.013,0.04,0.027,0.053c0,0.027,0.013,0.04,0.013,0.066
							c0.013,0.013,0.013,0.04,0.026,0.053c0,0.013,0.013,0.04,0.013,0.053c0,0.013,0,0.013,0,0.013
							c0.013,0.013,0.013,0.04,0.013,0.053c0.013,0.027,0.013,0.04,0.027,0.066c0,0.013,0,0.04,0.013,0.053
							c0,0.027,0,0.04,0.013,0.066v0.053c0.013,0.013,0.013,0.04,0.013,0.053v0.053C353.5,175.764,353.5,175.778,353.5,175.791z"/>
					</g>
				</g>
				<g>
					<g style="enable-background:new    ;">
						<path style="fill:#4FB2AD;" d="M281.676,225.443l-0.197-69.559l-4.682-2.721l0.197,69.559c0.006,2.057,0.73,3.503,1.901,4.183
							l4.682,2.721C282.407,228.946,281.682,227.499,281.676,225.443z"/>
						<g>
							<path style="fill:#0097AA;" d="M327.387,121.862c3.605-2.081,6.54-0.408,6.552,3.734l0.197,69.559
								c0.012,4.142-2.905,9.184-6.51,11.266l-39.398,22.746c-3.613,2.086-6.54,0.418-6.552-3.724l-0.197-69.559
								c-0.012-4.142,2.897-9.189,6.51-11.275L327.387,121.862z"/>
						</g>
						<path style="fill:#76CCC9;" d="M327.352,118.688c-0.012-0.007-0.024-0.014-0.036-0.021c-0.106-0.06-0.215-0.113-0.328-0.16
							c-0.021-0.009-0.043-0.014-0.063-0.022c-0.037-0.014-0.075-0.026-0.113-0.04c-0.056-0.02-0.111-0.043-0.169-0.06
							c-0.061-0.018-0.125-0.029-0.187-0.043c-0.039-0.009-0.077-0.019-0.117-0.027c-0.021-0.004-0.041-0.011-0.063-0.014
							c-0.129-0.022-0.26-0.038-0.395-0.046c-0.008,0-0.017,0-0.025,0c-0.03-0.002-0.063,0-0.094-0.001
							c-0.104-0.003-0.207-0.007-0.314-0.003c-0.035,0.002-0.072,0.008-0.107,0.011c-0.065,0.004-0.13,0.012-0.196,0.02
							c-0.061,0.007-0.121,0.009-0.184,0.018c-0.053,0.008-0.108,0.025-0.162,0.035c-0.089,0.017-0.177,0.035-0.268,0.057
							c-0.049,0.012-0.096,0.018-0.145,0.031c-0.048,0.013-0.098,0.036-0.146,0.05c-0.151,0.045-0.305,0.099-0.46,0.159
							c-0.055,0.021-0.107,0.033-0.163,0.056c-0.03,0.013-0.063,0.033-0.093,0.046c-0.269,0.117-0.542,0.247-0.82,0.408
							l-39.398,22.746c-0.422,0.243-0.83,0.535-1.229,0.852c-0.13,0.104-0.253,0.223-0.38,0.334
							c-0.192,0.167-0.39,0.323-0.575,0.505c-0.085,0.084-0.164,0.177-0.247,0.263c-0.073,0.076-0.145,0.152-0.217,0.231
							c-0.082,0.09-0.169,0.173-0.249,0.266c-0.182,0.208-0.358,0.424-0.53,0.645c-0.06,0.077-0.116,0.158-0.175,0.237
							c-0.031,0.042-0.061,0.083-0.092,0.125c-0.055,0.076-0.113,0.15-0.168,0.227c-0.13,0.185-0.256,0.373-0.378,0.564
							c-0.116,0.182-0.228,0.366-0.337,0.552c-0.01,0.016-0.018,0.033-0.028,0.05c-0.009,0.015-0.017,0.031-0.026,0.046
							c-0.086,0.15-0.172,0.301-0.253,0.454c-0.097,0.183-0.191,0.368-0.281,0.555c-0.082,0.171-0.16,0.343-0.236,0.516
							c-0.004,0.008-0.008,0.017-0.012,0.025c-0.004,0.008-0.008,0.017-0.012,0.026c-0.084,0.194-0.164,0.39-0.24,0.586
							c-0.079,0.205-0.152,0.41-0.221,0.616c-0.035,0.105-0.064,0.21-0.096,0.314c-0.014,0.044-0.027,0.088-0.04,0.132
							c-0.022,0.073-0.047,0.146-0.067,0.22c-0.069,0.25-0.131,0.501-0.184,0.75c-0.032,0.152-0.052,0.303-0.078,0.454
							c-0.014,0.079-0.029,0.158-0.041,0.236c-0.011,0.072-0.028,0.144-0.037,0.216c-0.056,0.433-0.085,0.861-0.084,1.279
							l4.682,2.721c-0.001-0.487,0.045-0.989,0.121-1.495c0.012-0.079,0.027-0.158,0.041-0.236c0.081-0.472,0.188-0.948,0.329-1.424
							c0.013-0.044,0.027-0.088,0.04-0.132c0.159-0.517,0.347-1.034,0.568-1.542c0.004-0.008,0.008-0.017,0.012-0.025
							c0.227-0.519,0.486-1.029,0.77-1.524c0.009-0.015,0.017-0.031,0.026-0.046c0.279-0.481,0.585-0.946,0.91-1.393
							c0.03-0.042,0.061-0.083,0.092-0.125c0.3-0.403,0.621-0.784,0.953-1.147c0.072-0.078,0.144-0.155,0.217-0.231
							c0.264-0.275,0.542-0.525,0.822-0.769c0.127-0.111,0.25-0.23,0.38-0.334c0.399-0.318,0.808-0.609,1.229-0.852l39.398-22.746
							c0.278-0.161,0.551-0.291,0.82-0.408c0.086-0.037,0.171-0.07,0.257-0.103c0.155-0.06,0.308-0.113,0.459-0.158
							c0.098-0.029,0.195-0.058,0.291-0.081c0.09-0.022,0.179-0.04,0.267-0.057c0.117-0.022,0.232-0.04,0.346-0.053
							c0.066-0.007,0.131-0.015,0.196-0.02c0.143-0.01,0.283-0.013,0.421-0.008c0.031,0.001,0.063-0.001,0.093,0.001
							c0.166,0.009,0.326,0.031,0.483,0.061c0.039,0.008,0.078,0.018,0.117,0.027c0.122,0.028,0.241,0.062,0.357,0.103
							c0.037,0.013,0.075,0.025,0.112,0.04c0.148,0.058,0.292,0.124,0.428,0.203L327.352,118.688z"/>
					</g>
					<g>
						<g>
							<g>
								<path style="fill:#97A5B2;" d="M280.223,186.637v-0.053c0-0.013,0-0.04-0.013-0.053v-0.053
									c-0.013-0.027-0.013-0.04-0.013-0.066c-0.013-0.013-0.013-0.04-0.013-0.053c-0.013-0.027-0.013-0.04-0.027-0.066
									c0-0.013,0-0.04-0.013-0.053c0,0,0,0,0-0.013c0-0.013-0.013-0.04-0.013-0.053c-0.013-0.013-0.013-0.04-0.027-0.053
									c0-0.027-0.013-0.04-0.013-0.066c-0.013-0.013-0.027-0.027-0.027-0.053c-0.013-0.013-0.013-0.04-0.026-0.053
									c-0.013-0.013-0.013-0.04-0.027-0.053c-0.013-0.027-0.013-0.04-0.027-0.066c-0.013-0.027-0.026-0.04-0.04-0.066
									c-0.013-0.027-0.027-0.053-0.04-0.08c-0.013-0.013-0.013-0.013-0.013-0.027c-0.026-0.027-0.04-0.066-0.08-0.106
									c0-0.013,0-0.013-0.013-0.027c-0.013-0.04-0.04-0.066-0.066-0.106c-0.013-0.027-0.04-0.04-0.053-0.066
									c-0.013-0.013-0.027-0.04-0.04-0.053c-0.013-0.013-0.027-0.04-0.053-0.053c-0.013-0.013-0.027-0.04-0.04-0.053h-0.013
									c-0.013-0.013-0.013-0.027-0.026-0.04c-0.027-0.027-0.04-0.04-0.053-0.053c-0.013-0.013-0.04-0.027-0.053-0.053
									c-0.013-0.013-0.026-0.027-0.053-0.04c-0.013-0.013-0.027-0.027-0.04-0.04c-0.026-0.013-0.04-0.027-0.053-0.04
									c-0.013-0.013-0.04-0.027-0.053-0.027l-0.04-0.04c-0.026-0.013-0.04-0.013-0.053-0.026h-0.013
									c-0.013-0.013-0.027-0.027-0.04-0.027c-0.013-0.013-0.027-0.013-0.04-0.027c-0.013,0-0.04-0.013-0.053-0.027
									c-0.013,0-0.027-0.013-0.04-0.013c-0.013,0-0.027-0.013-0.053-0.013c-0.013-0.013-0.027-0.013-0.04-0.013
									c-0.013-0.013-0.04-0.013-0.053-0.013c-0.013-0.013-0.027-0.013-0.04-0.013c-0.026,0-0.04-0.013-0.053-0.013h-0.173
									c-0.013,0-0.04,0-0.066,0.013c-0.027,0-0.053,0.013-0.08,0.013c-0.027,0.013-0.066,0.027-0.093,0.053l-22.265,12.939
									c-0.199,0.12-0.332,0.372-0.332,0.731s0.12,0.757,0.319,1.103c0.199,0.372,0.492,0.704,0.824,0.89
									c0.359,0.199,0.678,0.173,0.89-0.013c-0.013,0.04-0.04,0.066-0.08,0.08l22.278-12.939c0.08-0.04,0.146-0.106,0.199-0.199
									c0.013-0.027,0.027-0.053,0.04-0.08c0.013-0.013,0.027-0.04,0.027-0.066c0.013-0.013,0.013-0.04,0.027-0.053
									c0-0.027,0-0.04,0.013-0.066c0-0.013,0-0.026,0.013-0.053v-0.053c0-0.013,0.013-0.04,0.013-0.053v-0.226
									C280.236,186.677,280.236,186.663,280.223,186.637z"/>
								<path style="fill:#445277;" d="M280.236,186.69v0.226c0,0.013-0.013,0.04-0.013,0.053v0.053
									c-0.013,0.027-0.013,0.04-0.013,0.053c-0.013,0.027-0.013,0.04-0.013,0.066c-0.013,0.013-0.013,0.04-0.027,0.053
									c0,0.026-0.013,0.053-0.027,0.066c-0.013,0.027-0.027,0.053-0.04,0.08c-0.053,0.093-0.12,0.159-0.199,0.199l-22.278,12.939
									c0.04-0.013,0.066-0.04,0.08-0.08c-0.213,0.186-0.531,0.212-0.89,0.013c-0.332-0.186-0.624-0.518-0.824-0.89l23.819-13.975
									c0.04,0.04,0.053,0.08,0.08,0.106c0,0.013,0,0.013,0.013,0.027c0.013,0.027,0.027,0.053,0.04,0.08
									c0.013,0.027,0.027,0.04,0.04,0.066c0.013,0.027,0.013,0.04,0.027,0.066c0.013,0.013,0.013,0.04,0.027,0.053
									c0.013,0.013,0.013,0.04,0.026,0.053c0,0.027,0.013,0.04,0.027,0.053c0,0.027,0.013,0.04,0.013,0.066
									c0.013,0.013,0.013,0.04,0.027,0.053c0,0.013,0.013,0.04,0.013,0.053c0,0.013,0,0.013,0,0.013
									c0.013,0.013,0.013,0.04,0.013,0.053c0.013,0.027,0.013,0.04,0.027,0.066c0,0.013,0,0.04,0.013,0.053
									c0,0.027,0,0.04,0.013,0.066v0.053c0.013,0.013,0.013,0.04,0.013,0.053v0.053
									C280.236,186.663,280.236,186.677,280.236,186.69z"/>
							</g>
							<g>
								<g style="enable-background:new    ;">
									<g>
										<polygon style="fill:#76CCC9;" points="281.621,191.411 262.037,202.792 237.728,188.757 257.312,177.376 										"/>
									</g>
									<g>
										<polygon style="fill:#0097AA;" points="281.621,191.411 281.613,194.235 262.029,205.616 262.037,202.792 										"/>
									</g>
									<g>
										<polygon style="fill:#4FB2AD;" points="262.037,202.792 262.029,205.616 237.72,191.581 237.728,188.757 										"/>
									</g>
								</g>
							</g>
						</g>
						<g>
							<g style="enable-background:new    ;">
								<g>
									<polygon style="fill:#6E7E89;" points="246.441,185.538 258.398,178.589 267.747,180.511 255.789,187.46 									"/>
									<polygon style="fill:#E0FAFB;" points="249.381,185.058 258.581,179.712 264.805,180.991 255.606,186.338 									"/>
								</g>
								<g>
									<path style="fill:#5B656D;" d="M260.411,186.171c0.341,0.197,0.544,0.336,0.554,0.344l-0.036,12.768l-14.504-8.374
										l0.015-5.37l9.348,1.922C255.799,183.873,259.078,185.401,260.411,186.171z"/>
								</g>
								<path style="fill:#6E7E89;" d="M272.919,179.563c-0.005-0.003-0.04-0.026-0.054-0.035c-0.026-0.017-0.039-0.027-0.1-0.066
									c-0.005-0.003-0.004-0.003-0.009-0.006c-0.078-0.049-0.18-0.113-0.305-0.187c-0.027-0.016-0.054-0.031-0.082-0.048
									c-0.082-0.047-0.171-0.097-0.266-0.149c-0.019-0.01-0.041-0.021-0.061-0.031c-0.042-0.023-0.086-0.045-0.131-0.068
									c-0.051-0.027-0.099-0.053-0.153-0.079c-0.045-0.022-0.093-0.044-0.139-0.066c-0.038-0.018-0.075-0.036-0.114-0.054
									c-0.026-0.012-0.05-0.024-0.076-0.036c-0.1-0.045-0.202-0.089-0.307-0.13c-0.014-0.006-0.028-0.011-0.043-0.016
									c-0.02-0.008-0.04-0.015-0.06-0.022c-0.06-0.023-0.12-0.047-0.181-0.068c-0.087-0.031-0.174-0.06-0.262-0.086
									c-0.008-0.003-0.016-0.005-0.025-0.007c-0.011-0.003-0.021-0.006-0.032-0.009c-0.063-0.018-0.125-0.036-0.188-0.052
									c-0.077-0.019-0.154-0.037-0.231-0.052c-0.021-0.004-0.042-0.007-0.062-0.01c-0.015-0.003-0.03-0.005-0.045-0.007
									c-0.037-0.006-0.074-0.013-0.111-0.018c-0.07-0.01-0.139-0.017-0.207-0.021c-0.052-0.004-0.104-0.005-0.156-0.005
									c-0.008,0-0.016-0.001-0.023-0.001c-0.008,0-0.016-0.001-0.024-0.001c-0.067,0-0.133,0.003-0.198,0.009
									c-0.071,0.006-0.141,0.016-0.209,0.03c-0.009,0.002-0.018,0.006-0.027,0.008c-0.014,0.003-0.026,0.008-0.04,0.011
									c-0.057,0.014-0.114,0.027-0.168,0.046c-0.083,0.03-0.163,0.066-0.239,0.111l-11.958,6.949
									c0.126-0.073,0.263-0.122,0.407-0.157c0.013-0.003,0.026-0.008,0.04-0.011c0.146-0.032,0.3-0.046,0.459-0.045
									c0.008,0,0.016,0.001,0.024,0.001c0.155,0.002,0.314,0.019,0.474,0.046c0.014,0.002,0.028,0.005,0.042,0.007
									c0.16,0.029,0.322,0.068,0.483,0.114c0.011,0.003,0.022,0.006,0.033,0.009c0.158,0.047,0.314,0.102,0.468,0.161
									c0.02,0.008,0.04,0.015,0.06,0.023c0.146,0.057,0.288,0.119,0.425,0.182c0.039,0.018,0.077,0.036,0.115,0.054
									c0.101,0.048,0.199,0.097,0.292,0.145c0.043,0.022,0.088,0.045,0.129,0.067c0.117,0.062,0.229,0.124,0.327,0.181
									c0.167,0.097,0.3,0.178,0.394,0.239c0.079,0.05,0.125,0.081,0.144,0.094c0.002,0.001,0.016,0.01,0.016,0.011l11.957-6.949
									C272.923,179.565,272.921,179.564,272.919,179.563z"/>
								<g>
									<polygon style="fill:#313A42;" points="260.966,186.515 272.923,179.566 272.887,192.333 260.93,199.282 									"/>
								</g>
							</g>
						</g>
					</g>
				</g>
			</g>
			<g>
				<g>
					<polygon style="fill:#D56D62;" points="153.316,312.573 178.31,327.098 223.153,301.207 198.16,286.683 					"/>
				</g>
				<g>
					<g>
						<g style="enable-background:new    ;">
							<g>
								<polygon style="fill:#00ACFF;" points="187.545,304.809 187.427,346.345 173.786,354.273 173.903,312.736 								"/>
							</g>
							<g>
								<polygon style="fill:#02C0FF;" points="173.903,312.736 173.786,354.273 160.055,346.345 160.173,304.809 								"/>
							</g>
						</g>
					</g>
					<g>
						<g style="enable-background:new    ;">
							<g>
								<polygon style="fill:#00ACFF;" points="167.107,298.471 173.903,312.736 160.173,304.809 								"/>
							</g>
							<g>
								<polygon style="fill:#67E5FD;" points="167.107,298.471 180.895,290.459 187.545,304.809 173.903,312.736 								"/>
							</g>
						</g>
					</g>
					<polygon style="fill:#0094CE;" points="160.173,304.809 166.979,303.158 167.107,298.471 					"/>
					<polygon style="fill:#0073A0;" points="166.979,303.158 173.903,312.736 160.173,304.809 					"/>
					<polygon style="fill:#00ACFF;" points="167.107,296.211 167.107,298.471 180.895,290.459 180.9,288.12 					"/>
				</g>
				<g>
					<polygon style="fill:#FEC166;" points="153.316,312.573 153.421,375.283 178.414,389.807 178.31,327.098 					"/>
				</g>
				<g>
					<path style="fill:#60B533;" d="M204.263,275.831c0,0.332-0.04,0.677-0.146,1.01l-11.89,39.92
						c-0.465,1.581-1.966,2.591-3.56,2.524c-0.292,0-0.585-0.04-0.877-0.133c-1.873-0.558-2.949-2.551-2.391-4.424l11.89-39.921
						c0.558-1.886,2.537-2.962,4.424-2.391c0.226,0.066,0.452,0.159,0.651,0.266C203.546,273.294,204.263,274.516,204.263,275.831z"
						/>
					<path style="fill:#40992B;" d="M204.263,275.831c0,0.332-0.04,0.677-0.146,1.01l-11.89,39.92
						c-0.465,1.581-1.966,2.591-3.56,2.524l13.697-46.603C203.546,273.294,204.263,274.516,204.263,275.831z"/>
				</g>
				<g>
					<path style="fill:#E4606D;" d="M220.672,291.568c-0.009,0.099-0.016,0.198-0.034,0.296c-0.015,0.08-0.039,0.159-0.06,0.239
						c-0.024,0.094-0.047,0.187-0.08,0.28c-0.027,0.076-0.063,0.152-0.096,0.227c-0.042,0.098-0.085,0.195-0.136,0.291
						c-0.038,0.07-0.083,0.139-0.126,0.208c-0.068,0.109-0.139,0.218-0.219,0.326c-0.047,0.063-0.099,0.126-0.151,0.188
						c-0.12,0.145-0.253,0.287-0.397,0.427c-0.052,0.05-0.099,0.102-0.154,0.151c-0.09,0.081-0.191,0.16-0.29,0.239
						c-0.085,0.068-0.167,0.138-0.259,0.205c-0.107,0.078-0.224,0.152-0.34,0.227c-0.117,0.076-0.227,0.154-0.353,0.227
						c-0.405,0.235-0.847,0.435-1.303,0.618c-0.119,0.048-0.24,0.093-0.361,0.137c-0.283,0.103-0.58,0.184-0.877,0.268
						c-0.306,0.086-0.615,0.167-0.933,0.232c-0.376,0.077-0.755,0.147-1.142,0.196c-0.09,0.011-0.179,0.028-0.27,0.038
						c-0.52,0.056-1.046,0.083-1.574,0.087c-0.083,0.001-0.166,0.002-0.249,0.001c-0.52-0.004-1.039-0.033-1.552-0.086
						c-0.077-0.008-0.155-0.017-0.232-0.026c-0.51-0.061-1.012-0.147-1.502-0.258c-0.09-0.02-0.179-0.044-0.268-0.066
						c-0.446-0.11-0.879-0.243-1.297-0.395c-0.075-0.027-0.155-0.049-0.229-0.077c-0.502-0.194-0.982-0.416-1.426-0.673
						c-1.845-1.065-2.766-2.463-2.762-3.858l-0.046,23.172c-0.004,1.395,0.917,2.793,2.762,3.858c0.422,0.244,0.875,0.46,1.35,0.647
						c0.024,0.01,0.051,0.016,0.075,0.025c0.075,0.029,0.156,0.051,0.232,0.078c0.273,0.099,0.544,0.199,0.829,0.28
						c0.152,0.043,0.31,0.076,0.465,0.114c0.09,0.022,0.178,0.046,0.269,0.066c0.081,0.018,0.16,0.042,0.242,0.059
						c0.305,0.063,0.615,0.117,0.927,0.161c0.11,0.016,0.221,0.024,0.331,0.037c0.078,0.009,0.156,0.018,0.234,0.026
						c0.115,0.012,0.228,0.029,0.344,0.038c0.306,0.025,0.613,0.042,0.921,0.049c0.095,0.002,0.19-0.002,0.285-0.001
						c0.084,0.001,0.166,0,0.25-0.001c0.141-0.001,0.281,0.003,0.422-0.002c0.347-0.012,0.693-0.035,1.037-0.069
						c0.038-0.004,0.075-0.012,0.114-0.016c0.092-0.01,0.182-0.027,0.274-0.038c0.269-0.034,0.54-0.064,0.804-0.112
						c0.115-0.021,0.221-0.06,0.335-0.083c0.32-0.066,0.627-0.146,0.935-0.233c0.163-0.046,0.338-0.072,0.497-0.124
						c0.13-0.042,0.251-0.097,0.379-0.143c0.122-0.044,0.242-0.089,0.361-0.137c0.456-0.183,0.898-0.382,1.303-0.618
						c0.038-0.022,0.076-0.045,0.114-0.068c0.086-0.052,0.159-0.107,0.241-0.16c0.115-0.074,0.231-0.148,0.337-0.225
						c0.092-0.067,0.174-0.136,0.259-0.205c0.099-0.079,0.199-0.158,0.29-0.239c0.018-0.016,0.04-0.031,0.058-0.048
						c0.036-0.033,0.061-0.07,0.096-0.103c0.144-0.14,0.277-0.282,0.397-0.427c0.026-0.032,0.061-0.061,0.087-0.093
						c0.024-0.031,0.04-0.064,0.064-0.095c0.08-0.108,0.152-0.216,0.22-0.326c0.029-0.046,0.066-0.091,0.092-0.137
						c0.013-0.023,0.021-0.047,0.033-0.071c0.052-0.096,0.094-0.193,0.136-0.29c0.025-0.057,0.058-0.113,0.08-0.17
						c0.007-0.019,0.01-0.039,0.017-0.058c0.033-0.092,0.055-0.185,0.08-0.278c0.017-0.064,0.042-0.126,0.055-0.19
						c0.003-0.017,0.003-0.034,0.006-0.051c0.018-0.097,0.024-0.194,0.033-0.291c0.006-0.065,0.02-0.129,0.022-0.194
						c0.001-0.027,0.001-0.055,0.001-0.082l0.046-23.172C220.695,291.387,220.68,291.478,220.672,291.568z"/>
					<path style="fill:#8343BE;" d="M220.638,294.691c-0.015,0.08-0.039,0.159-0.06,0.238c-0.024,0.094-0.047,0.187-0.08,0.28
						c-0.027,0.076-0.063,0.152-0.096,0.227c-0.042,0.097-0.085,0.195-0.136,0.291c-0.038,0.07-0.083,0.139-0.126,0.208
						c-0.068,0.11-0.139,0.219-0.219,0.326c-0.047,0.063-0.099,0.126-0.151,0.188c-0.12,0.145-0.253,0.287-0.397,0.427
						c-0.052,0.05-0.099,0.102-0.154,0.151c-0.09,0.081-0.191,0.16-0.29,0.239c-0.085,0.068-0.167,0.138-0.259,0.205
						c-0.107,0.078-0.224,0.152-0.34,0.227c-0.117,0.076-0.227,0.154-0.353,0.227c-0.405,0.235-0.847,0.435-1.303,0.618
						c-0.119,0.048-0.24,0.093-0.361,0.137c-0.283,0.103-0.58,0.184-0.877,0.268c-0.306,0.086-0.615,0.167-0.933,0.232
						c-0.376,0.077-0.755,0.147-1.142,0.196c-0.09,0.011-0.179,0.028-0.27,0.038c-0.52,0.056-1.046,0.083-1.574,0.087
						c-0.083,0.001-0.166,0.002-0.249,0.001c-0.52-0.004-1.039-0.033-1.552-0.086c-0.077-0.008-0.155-0.017-0.232-0.026
						c-0.51-0.061-1.012-0.147-1.502-0.258c-0.09-0.02-0.179-0.044-0.268-0.066c-0.446-0.11-0.879-0.243-1.297-0.395
						c-0.075-0.027-0.155-0.049-0.229-0.077c-0.502-0.194-0.982-0.416-1.426-0.673c-1.845-1.065-2.766-2.463-2.762-3.858
						l-0.028,17.745c0.091,1.319,0.999,2.624,2.744,3.631c0.422,0.244,0.875,0.46,1.35,0.647c0.024,0.01,0.051,0.016,0.075,0.025
						c0.075,0.029,0.156,0.051,0.232,0.078c0.273,0.099,0.544,0.199,0.829,0.28c0.152,0.043,0.31,0.076,0.465,0.114
						c0.09,0.022,0.178,0.046,0.269,0.066c0.081,0.018,0.16,0.042,0.242,0.059c0.305,0.063,0.615,0.117,0.927,0.161
						c0.11,0.016,0.221,0.024,0.331,0.037c0.078,0.009,0.156,0.018,0.234,0.026c0.115,0.012,0.228,0.029,0.344,0.038
						c0.306,0.025,0.613,0.042,0.921,0.049c0.095,0.002,0.19-0.002,0.285-0.001c0.084,0.001,0.166,0,0.25-0.001
						c0.141-0.001,0.281,0.003,0.422-0.002c0.347-0.012,0.693-0.035,1.037-0.069c0.038-0.004,0.075-0.012,0.114-0.016
						c0.092-0.01,0.182-0.027,0.274-0.038c0.269-0.034,0.54-0.064,0.804-0.112c0.115-0.021,0.221-0.06,0.335-0.083
						c0.32-0.066,0.627-0.146,0.935-0.233c0.163-0.046,0.338-0.072,0.497-0.124c0.13-0.042,0.251-0.097,0.379-0.143
						c0.122-0.044,0.242-0.089,0.361-0.137c0.456-0.183,0.898-0.382,1.303-0.618c0.038-0.022,0.076-0.045,0.114-0.067
						c0.086-0.052,0.159-0.107,0.241-0.161c0.115-0.074,0.231-0.148,0.337-0.225c0.092-0.067,0.174-0.136,0.259-0.205
						c0.099-0.079,0.199-0.158,0.29-0.239c0.018-0.016,0.04-0.031,0.058-0.048c0.036-0.033,0.061-0.07,0.096-0.103
						c0.144-0.14,0.277-0.282,0.397-0.427c0.026-0.032,0.061-0.061,0.087-0.093c0.024-0.031,0.04-0.064,0.064-0.095
						c0.08-0.107,0.152-0.216,0.22-0.326c0.029-0.046,0.066-0.091,0.092-0.137c0.013-0.023,0.021-0.047,0.033-0.071
						c0.052-0.096,0.094-0.193,0.136-0.29c0.025-0.057,0.058-0.113,0.08-0.17c0.007-0.019,0.01-0.039,0.017-0.058
						c0.033-0.092,0.055-0.185,0.08-0.278c0.017-0.064,0.042-0.126,0.055-0.19c0.003-0.017,0.003-0.034,0.006-0.051
						c0.018-0.097,0.024-0.194,0.033-0.291c0.006-0.065,0.02-0.129,0.022-0.194c0.001-0.027,0.001-0.055,0.001-0.082l0.027-17.293
						c-0.002,0.016-0.003,0.031-0.004,0.047C220.663,294.494,220.656,294.592,220.638,294.691z"/>
					<g>
						<path style="fill:#FE916A;" d="M217.934,287.44c3.664,2.116,3.683,5.543,0.043,7.659c-3.632,2.111-9.55,2.111-13.214-0.005
							c-3.664-2.115-3.683-5.543-0.051-7.654C208.352,285.324,214.27,285.324,217.934,287.44z"/>
						<path style="fill:#B93F64;" d="M211.387,294.024c-2.01,0-3.94-0.449-5.295-1.231c-0.989-0.572-1.433-1.189-1.434-1.547
							c0-0.349,0.429-0.952,1.389-1.509c1.341-0.779,3.261-1.227,5.267-1.227c2.008,0,3.937,0.449,5.292,1.23
							c0.989,0.571,1.432,1.188,1.432,1.546c0,0.35-0.431,0.955-1.396,1.516C215.305,293.579,213.39,294.024,211.387,294.024z"/>
					</g>
				</g>
				<g>
					<path style="fill:#FA4340;" d="M202.748,307.867c-0.04-1.262-0.89-2.511-2.564-3.494c-1.236-0.704-2.75-1.169-4.331-1.355
						c-2.816-0.359-5.859,0.093-8.037,1.355c-1.647,0.97-2.497,2.219-2.524,3.481c-0.013,0.026-0.013,0.053-0.013,0.08v2.086
						l-0.027,9.831c-0.013,1.302,0.85,2.604,2.577,3.6c0.398,0.226,0.81,0.425,1.262,0.611c0.027,0,0.04,0.013,0.066,0.013
						c0.066,0.027,0.146,0.053,0.213,0.08c0.266,0.093,0.518,0.186,0.784,0.266c0.146,0.04,0.292,0.066,0.438,0.106
						c0.08,0.013,0.16,0.04,0.239,0.053c0.08,0.027,0.159,0.04,0.226,0.053c0.292,0.066,0.585,0.12,0.877,0.159
						c0.093,0.013,0.199,0.013,0.305,0.026c0.08,0.013,0.146,0.027,0.213,0.027c0.106,0.013,0.212,0.027,0.332,0.04
						c0.279,0.026,0.571,0.04,0.85,0.04c0.093,0.013,0.186,0,0.279,0h0.624c0.319-0.013,0.638-0.027,0.956-0.066
						c0.04,0,0.08-0.013,0.12-0.013l0.239-0.04h0.013c0.252-0.027,0.505-0.053,0.744-0.093c0.119-0.027,0.212-0.066,0.319-0.08
						c0.305-0.066,0.585-0.146,0.877-0.226c0.146-0.04,0.319-0.066,0.465-0.106c0.119-0.04,0.239-0.093,0.359-0.146
						c0.106-0.04,0.226-0.08,0.332-0.119c0.438-0.173,0.85-0.359,1.222-0.585c0.04-0.027,0.08-0.04,0.106-0.066
						c0.08-0.04,0.146-0.093,0.226-0.146c0.106-0.066,0.213-0.133,0.319-0.212c0.08-0.066,0.159-0.12,0.239-0.186
						c0.093-0.08,0.186-0.146,0.279-0.226c0.013-0.013,0.027-0.027,0.053-0.04c0.027-0.04,0.053-0.066,0.093-0.106
						c0.133-0.133,0.252-0.266,0.359-0.399c0.027-0.026,0.066-0.053,0.093-0.08c0.013-0.04,0.027-0.066,0.053-0.093
						c0.08-0.106,0.146-0.199,0.199-0.306c0.04-0.04,0.066-0.08,0.093-0.133c0.013-0.013,0.013-0.04,0.027-0.066
						c0.053-0.08,0.093-0.173,0.133-0.266c0.027-0.053,0.053-0.106,0.08-0.159c0-0.013,0-0.04,0.013-0.053
						c0.027-0.093,0.053-0.173,0.066-0.266c0.027-0.053,0.04-0.12,0.053-0.173c0-0.013,0-0.027,0.013-0.053
						c0.013-0.08,0.013-0.173,0.027-0.266c0-0.066,0.013-0.12,0.013-0.186c0.013-0.027,0.013-0.053,0.013-0.08l0.027-9.884v-2.019
						C202.761,307.947,202.761,307.908,202.748,307.867z"/>
					<path style="fill:#F8C401;" d="M195.853,311.255v2.152c-0.04,0.013-0.08,0.027-0.12,0.027
						c-0.027,0.013-0.066,0.013-0.106,0.013c-0.345,0.04-0.691,0.066-1.036,0.08h-0.956c-0.319-0.013-0.624-0.026-0.93-0.053
						c-0.106,0-0.226-0.027-0.332-0.04c-0.08,0-0.159-0.013-0.239-0.027c-0.106-0.013-0.226-0.013-0.332-0.027
						c-0.319-0.053-0.624-0.106-0.93-0.173c-0.08-0.013-0.159-0.04-0.239-0.053c-0.093-0.013-0.173-0.04-0.266-0.066
						c-0.159-0.04-0.319-0.066-0.465-0.12c-0.279-0.08-0.558-0.173-0.824-0.266c-0.08-0.04-0.159-0.053-0.239-0.08
						c-0.026-0.013-0.053-0.027-0.066-0.027c-0.478-0.186-0.93-0.412-1.355-0.651c-0.983-0.558-1.7-1.222-2.139-1.926
						c-0.425-0.611-0.624-1.275-0.624-1.926l0.013-2.165c0,0.651,0.199,1.315,0.624,1.926c0.439,0.704,1.156,1.368,2.139,1.926
						c0.438,0.252,0.917,0.478,1.422,0.678c0.066,0.027,0.159,0.04,0.226,0.066c0.425,0.159,0.85,0.292,1.302,0.399
						c0.08,0.026,0.173,0.053,0.266,0.066c0.492,0.106,0.983,0.199,1.501,0.252c0.066,0.013,0.146,0.027,0.226,0.027
						c0.518,0.053,1.036,0.093,1.554,0.093h0.252c0.518-0.013,1.049-0.04,1.568-0.093
						C195.787,311.268,195.813,311.255,195.853,311.255z"/>
					<g>
						<path style="fill:#FBE223;" d="M200.599,302.128c3.656,2.111,3.675,5.539,0.035,7.654c-3.632,2.111-9.55,2.111-13.206,0
							c-3.664-2.116-3.684-5.543-0.052-7.654C191.017,300.013,196.935,300.013,200.599,302.128z"/>
					</g>
					<path style="fill:#DDA60A;" d="M203.359,305.981l-0.013,2.165v0.08c0,0.066-0.013,0.133-0.026,0.186
						c0,0.106-0.013,0.199-0.027,0.306c0,0.013,0,0.026-0.013,0.04c-0.013,0.066-0.04,0.133-0.053,0.199
						c-0.027,0.093-0.04,0.186-0.08,0.279c0,0.013,0,0.04-0.013,0.053c-0.026,0.053-0.053,0.12-0.08,0.173
						c-0.04,0.093-0.08,0.186-0.133,0.292c-0.013,0.013-0.027,0.04-0.04,0.066c-0.027,0.04-0.066,0.093-0.093,0.133
						c-0.013,0.013-0.026,0.04-0.026,0.053c-0.067,0.106-0.12,0.186-0.186,0.279c-0.027,0.026-0.04,0.066-0.066,0.093
						c-0.027,0.027-0.066,0.066-0.093,0.093c-0.12,0.146-0.252,0.292-0.398,0.425c-0.027,0.04-0.053,0.08-0.093,0.106
						c-0.013,0.013-0.04,0.026-0.053,0.053c-0.093,0.08-0.186,0.159-0.292,0.239c-0.08,0.066-0.173,0.133-0.252,0.199
						c-0.106,0.08-0.226,0.146-0.345,0.226c-0.08,0.053-0.159,0.106-0.239,0.159c-0.04,0.027-0.08,0.04-0.12,0.066
						c-0.398,0.239-0.837,0.438-1.302,0.625c-0.119,0.04-0.239,0.093-0.359,0.133c-0.133,0.04-0.252,0.106-0.372,0.146
						c-0.159,0.053-0.345,0.08-0.505,0.12c-0.306,0.093-0.611,0.173-0.93,0.239c-0.12,0.013-0.226,0.053-0.332,0.08
						c-0.266,0.04-0.545,0.08-0.81,0.106c-0.053,0.013-0.106,0.013-0.159,0.013v-2.152c0.053-0.013,0.119-0.013,0.173-0.027
						c0.385-0.04,0.757-0.12,1.129-0.186c0.319-0.066,0.624-0.146,0.943-0.239c0.292-0.08,0.585-0.159,0.877-0.266
						c0.12-0.04,0.239-0.093,0.359-0.133c0.452-0.186,0.89-0.385,1.302-0.625c0.12-0.066,0.239-0.146,0.359-0.226
						c0.106-0.08,0.226-0.146,0.332-0.226c0.093-0.066,0.173-0.133,0.266-0.213c0.093-0.066,0.199-0.146,0.279-0.226
						c0.053-0.053,0.106-0.106,0.159-0.16c0.146-0.133,0.279-0.279,0.399-0.425c0.053-0.066,0.106-0.119,0.146-0.186
						c0.066-0.08,0.119-0.159,0.173-0.253c0.027-0.026,0.04-0.053,0.053-0.08c0.04-0.066,0.08-0.133,0.12-0.199
						c0.053-0.106,0.093-0.199,0.133-0.292c0.04-0.08,0.08-0.159,0.106-0.226c0.026-0.093,0.053-0.186,0.08-0.279
						c0.013-0.08,0.04-0.159,0.053-0.239c0.027-0.106,0.027-0.199,0.04-0.306C203.332,306.154,203.346,306.074,203.359,305.981z"/>
					<path style="fill:#ED2945;" d="M202.761,310.006l-0.027,9.884c0,0.026,0,0.053-0.013,0.08c0,0.066-0.013,0.12-0.013,0.186
						c-0.013,0.093-0.013,0.186-0.027,0.266c-0.013,0.027-0.013,0.04-0.013,0.053c-0.013,0.053-0.027,0.12-0.053,0.173
						c-0.013,0.093-0.04,0.173-0.066,0.266c-0.013,0.013-0.013,0.04-0.013,0.053c-0.027,0.053-0.053,0.106-0.08,0.159
						c-0.04,0.093-0.08,0.186-0.133,0.266c-0.013,0.027-0.013,0.053-0.027,0.066c-0.026,0.053-0.053,0.093-0.093,0.133
						c-0.053,0.106-0.12,0.199-0.199,0.306c-0.027,0.026-0.04,0.053-0.053,0.093c-0.027,0.027-0.066,0.053-0.093,0.08
						c-0.106,0.133-0.226,0.266-0.359,0.399c-0.04,0.04-0.066,0.066-0.093,0.106c-0.027,0.013-0.04,0.027-0.053,0.04
						c-0.093,0.08-0.186,0.146-0.279,0.226c-0.08,0.066-0.159,0.12-0.239,0.186c-0.106,0.08-0.213,0.146-0.319,0.212
						c-0.08,0.053-0.146,0.106-0.226,0.146c-0.027,0.027-0.066,0.04-0.106,0.066c-0.372,0.226-0.784,0.412-1.222,0.585
						c-0.106,0.04-0.226,0.08-0.332,0.119c-0.12,0.053-0.239,0.106-0.359,0.146c-0.146,0.04-0.319,0.066-0.465,0.106
						c-0.292,0.08-0.571,0.159-0.877,0.226c-0.106,0.013-0.199,0.053-0.319,0.08c-0.239,0.04-0.492,0.066-0.744,0.093h-0.013
						v-11.398c0.053,0,0.106,0,0.159-0.013c0.266-0.027,0.545-0.066,0.81-0.106c0.106-0.026,0.213-0.066,0.332-0.08
						c0.319-0.066,0.624-0.146,0.93-0.239c0.159-0.04,0.345-0.066,0.505-0.12c0.12-0.04,0.239-0.106,0.372-0.146
						c0.12-0.04,0.239-0.093,0.359-0.133c0.465-0.186,0.903-0.385,1.302-0.625c0.04-0.026,0.08-0.04,0.12-0.066
						c0.08-0.053,0.159-0.106,0.239-0.159c0.12-0.08,0.239-0.146,0.345-0.226c0.08-0.066,0.173-0.133,0.252-0.199
						c0.106-0.08,0.199-0.159,0.292-0.239c0.013-0.027,0.04-0.04,0.053-0.053c0.04-0.027,0.066-0.066,0.093-0.106
						c0.146-0.133,0.279-0.279,0.398-0.425c0.027-0.027,0.066-0.066,0.093-0.093c0.027-0.026,0.04-0.066,0.066-0.093
						C202.642,310.192,202.695,310.113,202.761,310.006z"/>
				</g>
				<g>
					<polygon style="fill:#F78F6C;" points="178.31,327.098 178.414,389.807 223.258,363.917 223.153,301.207 					"/>
				</g>
			</g>
			<g>
				<path style="fill:#CEEBFB;" d="M248.649,276.714v-0.08c0-0.013-0.013-0.027-0.013-0.04v-0.159c0,0,0-0.026-0.013-0.04v-0.066
					c-0.013-0.173-0.027-0.332-0.053-0.505c0-0.106-0.013-0.212-0.027-0.332c-0.013-0.04-0.013-0.066-0.013-0.12
					c0-0.013-0.013-0.027-0.013-0.04c0-0.066-0.013-0.12-0.027-0.186c-0.04-0.292-0.066-0.492-0.12-0.731v-0.013
					c0-0.027-0.013-0.04-0.013-0.066c0-0.013,0-0.013-0.013-0.027v-0.04c0-0.027-0.013-0.053-0.013-0.08l-0.026-0.12
					c-0.013-0.08-0.04-0.173-0.066-0.266c-0.027-0.12-0.04-0.239-0.08-0.345c0-0.013,0-0.013,0-0.027
					c-0.027-0.106-0.053-0.213-0.08-0.319c-0.04-0.146-0.08-0.292-0.119-0.425c-0.027-0.066-0.04-0.146-0.066-0.212
					c-0.04-0.106-0.08-0.212-0.106-0.319c-0.08-0.213-0.146-0.425-0.226-0.611c-0.053-0.146-0.106-0.279-0.159-0.412
					c-0.053-0.106-0.093-0.212-0.146-0.305c-0.106-0.253-0.226-0.505-0.345-0.744c-0.053-0.08-0.093-0.159-0.146-0.252
					c0,0,0-0.013-0.013-0.027c0-0.013-0.013-0.027-0.013-0.04l-0.013-0.013c-0.066-0.133-0.146-0.266-0.213-0.385
					c-0.611-1.023-1.262-1.86-1.926-2.524c-0.027-0.013-0.04-0.04-0.066-0.053c0-0.013-0.013-0.013-0.013-0.027
					c-0.027-0.013-0.04-0.04-0.053-0.053l-0.199-0.173c-0.04-0.053-0.093-0.093-0.133-0.146l-0.066-0.053l-0.239-0.199
					c0-0.013-0.013-0.013-0.013-0.027l-0.12-0.093c-0.027-0.013-0.04-0.04-0.066-0.053c-0.027-0.013-0.053-0.04-0.066-0.053
					l-0.372-0.279c-0.146-0.106-0.226-0.173-0.332-0.239l-0.013-0.013c-0.027-0.013-0.053-0.027-0.08-0.04
					c-0.08-0.053-0.173-0.119-0.306-0.199c-0.013,0-0.013,0-0.013,0l-0.239-0.146l-0.013-0.013l-0.053-0.026
					c-0.013,0-0.027-0.013-0.053-0.027l-0.12-0.066c-0.013,0-0.027-0.013-0.04-0.013c-0.066-0.04-0.146-0.08-0.226-0.12
					c-2.763-1.328-6.828-1.328-9.605,0.026l-0.159,0.08l-0.04,0.027c-0.027,0.013-0.04,0.013-0.053,0.026l-0.186,0.093
					c-0.186,0.106-0.438,0.253-0.717,0.452c-0.013,0-0.013,0.013-0.027,0.013c-0.027,0.026-0.053,0.04-0.093,0.066
					c-0.053,0.04-0.12,0.093-0.212,0.146l-0.04,0.04c-0.027,0.026-0.053,0.04-0.08,0.053l-0.239,0.186
					c-0.027,0.027-0.053,0.04-0.066,0.066c-0.027,0.013-0.04,0.027-0.066,0.04l-0.053,0.053c0,0,0,0,0,0.013l-0.319,0.266
					l-0.12,0.12c-0.04,0.04-0.08,0.08-0.12,0.12l-0.146,0.133c-0.027,0.013-0.04,0.04-0.066,0.066
					c-0.013,0.013-0.04,0.04-0.066,0.053l-0.146,0.16c-0.717,0.757-1.275,1.541-1.687,2.258c-0.08,0.12-0.146,0.239-0.213,0.372
					c-0.013,0.026-0.04,0.066-0.053,0.093c-0.013,0.013-0.013,0.013-0.013,0.013l-0.027,0.053c-0.013,0.027-0.027,0.053-0.04,0.08
					c-0.013,0.027-0.04,0.066-0.053,0.093c-0.013,0.04-0.04,0.08-0.066,0.12v0.013c-0.04,0.066-0.08,0.146-0.12,0.239l-0.12,0.239
					c-0.013,0.026-0.027,0.066-0.04,0.093l-0.066,0.146c-0.013,0.027-0.027,0.066-0.04,0.093c-0.027,0.066-0.053,0.12-0.08,0.186
					c-0.027,0.08-0.066,0.159-0.093,0.239c-0.013,0.027-0.04,0.066-0.04,0.093c-0.013,0.04-0.027,0.08-0.04,0.106
					c-0.053,0.146-0.106,0.279-0.159,0.425v0.013c-0.066,0.173-0.133,0.359-0.199,0.558c-0.066,0.226-0.133,0.465-0.186,0.704
					c-0.013,0.026-0.027,0.053-0.027,0.066c0,0.026-0.013,0.04-0.013,0.066c-0.013,0.053-0.027,0.093-0.04,0.146
					c-0.053,0.213-0.093,0.412-0.133,0.611l-0.027,0.106l-0.013,0.106c-0.013,0.04-0.013,0.08-0.027,0.106l-0.013,0.12
					c-0.013,0.08-0.027,0.159-0.04,0.226l-0.027,0.146v0.027l-0.013,0.053c-0.013,0.133-0.027,0.266-0.053,0.385
					c0,0,0,0.013,0,0.027c0,0,0,0.027,0,0.04c-0.04,0.279-0.066,0.545-0.08,0.797l-0.013,0.186c0,0.026-0.013,0.066-0.013,0.106
					v0.12c-0.013,0.093-0.013,0.213-0.013,0.319c-0.013,0.199-0.013,0.385-0.013,0.571v0.425c0.08,3.746,0.146,7.493,0.199,11.239
					c0.013,0.106,0.013,0.212,0.027,0.319c0,0.093,0,0.199,0.013,0.292v0.159c0.013,0.066,0.027,0.159,0.027,0.239
					c0.013,0.04,0.013,0.106,0.013,0.146l0.013,0.066c0.013,0.08,0.026,0.173,0.04,0.252c0,0.013,0,0.013,0,0.013v0.013
					c0.013,0.053,0.013,0.093,0.027,0.146c0.013,0.066,0.013,0.133,0.027,0.199c0.013,0.08,0.04,0.173,0.053,0.252
					c0.04,0.173,0.08,0.359,0.133,0.545c0,0.013,0,0.013,0,0.027c0.013,0.053,0.04,0.106,0.053,0.159
					c0,0.027,0.013,0.053,0.013,0.08l0.026,0.066c0.04,0.159,0.106,0.319,0.159,0.492l0.027,0.08c0,0.013,0.013,0.027,0.013,0.04
					l0.013,0.04c0.013,0.04,0.027,0.066,0.04,0.12l0.027,0.04c0.027,0.093,0.066,0.199,0.12,0.292
					c0.066,0.186,0.133,0.345,0.199,0.491c0.013,0.013,0.013,0.013,0.013,0.027l0.013,0.026c0.133,0.279,0.252,0.505,0.319,0.638
					c0.027,0.026,0.053,0.066,0.066,0.106c0.027,0.04,0.053,0.093,0.093,0.146c0.013,0.013,0.013,0.04,0.027,0.067
					c0.027,0.04,0.066,0.093,0.093,0.133l0.106,0.186c0.027,0.04,0.066,0.093,0.093,0.133c0.013,0.013,0.013,0.027,0.027,0.04
					c0.027,0.04,0.053,0.093,0.08,0.133l0.027,0.027c0.106,0.159,0.226,0.319,0.345,0.465l0.066,0.093l0.053,0.066
					c0.12,0.146,0.239,0.292,0.359,0.425l0.053,0.066c0.027,0.04,0.066,0.066,0.093,0.093c0.08,0.093,0.159,0.186,0.252,0.279
					l0.518,0.491c0.027,0.04,0.066,0.053,0.093,0.093c0.04,0.027,0.08,0.066,0.12,0.093c0.093,0.08,0.186,0.173,0.279,0.239
					l0.053,0.04c0.106,0.093,0.186,0.146,0.266,0.199c0.053,0.04,0.093,0.08,0.146,0.106c0.319,0.239,0.452,0.332,0.731,0.505
					c0.013,0,0.013,0,0.013,0c0.013,0.013,0.04,0.027,0.066,0.04c0,0.013,0.013,0.013,0.013,0.013h0.013l0.04,0.027
					c0.013,0,0.013,0.013,0.027,0.013l0.518,0.292c0.027,0.013,0.053,0.027,0.08,0.04c0.04,0.013,0.066,0.04,0.093,0.053
					l0.585,0.279c0.133,0.053,0.279,0.106,0.425,0.16l0.159,0.066c0.013,0,0.027,0.013,0.04,0.013
					c0.013,0.013,0.027,0.013,0.04,0.013l0.159,0.053c0.04,0.013,0.066,0.027,0.106,0.04c0.026,0.013,0.053,0.027,0.08,0.027
					c0,0,0,0,0.013,0c0.027,0.013,0.053,0.026,0.08,0.026c0.04,0.013,0.066,0.027,0.12,0.04c0.013,0,0.013,0.013,0.027,0.013
					c0.027,0,0.053,0.013,0.08,0.026c0.093,0.027,0.186,0.053,0.292,0.08c0.027,0,0.04,0,0.053,0.013
					c0.053,0.013,0.106,0.027,0.159,0.04l0.106,0.026c0.146,0.027,0.319,0.066,0.452,0.093c0.08,0.013,0.159,0.026,0.239,0.04
					l0.239,0.04c0.013,0.013,0.027,0.013,0.04,0.013h0.04l0.04,0.013c0.08,0.013,0.173,0.013,0.252,0.027l0.106,0.013l0.146,0.013
					c0.159,0.026,0.372,0.04,0.531,0.053h0.027c0.133,0,0.292,0,0.425,0.013c0.013,0,0.013,0,0.013,0c0.239,0,0.478,0,0.704-0.013
					h0.08c0.066,0,0.106-0.013,0.159-0.013c1.089-0.053,2.139-0.266,3.135-0.598c1.727-0.598,3.281-1.594,4.53-2.936
					c0.106-0.106,0.213-0.213,0.319-0.332c0.106-0.133,0.226-0.266,0.332-0.398c0.053-0.08,0.106-0.146,0.159-0.213
					c0.146-0.186,0.266-0.359,0.385-0.518c0.013-0.026,0.027-0.053,0.053-0.08c0.04-0.066,0.066-0.119,0.106-0.173
					c0-0.013,0.013-0.027,0.027-0.04c0.013-0.026,0.027-0.053,0.04-0.08c0.013,0,0.013,0,0.013-0.013
					c0.066-0.106,0.133-0.213,0.186-0.319c0.066-0.093,0.133-0.226,0.199-0.332c-0.013,0.013-0.027,0.027-0.04,0.053
					c0.053-0.093,0.119-0.213,0.159-0.292l0.04-0.08c0,0,0.013-0.013,0.013-0.027c0.08-0.173,0.159-0.332,0.239-0.505
					c0.04-0.106,0.08-0.199,0.106-0.266c0.066-0.173,0.133-0.332,0.186-0.492c0.027-0.066,0.04-0.12,0.066-0.186
					c0.013-0.027,0.013-0.053,0.026-0.08c0.013-0.026,0.013-0.04,0.013-0.053c0,0,0,0,0-0.013c0.013-0.013,0.013-0.026,0.027-0.04
					v-0.027c0.013-0.027,0.013-0.053,0.027-0.08c0.013-0.053,0.04-0.119,0.053-0.186c0.027-0.093,0.04-0.173,0.066-0.239
					c0.013-0.04,0.027-0.08,0.027-0.12c0.04-0.146,0.066-0.266,0.093-0.359c0.013-0.093,0.027-0.199,0.053-0.292
					c0-0.013,0-0.013,0-0.013c0.027-0.146,0.053-0.306,0.066-0.425l0.013-0.013c0-0.066,0.013-0.159,0.013-0.226
					c0-0.013,0-0.04,0.013-0.053c0.013-0.146,0.027-0.292,0.053-0.425c0-0.226,0.013-0.545,0.027-0.771
					c0.04-3.72,0.093-7.453,0.146-11.172v-0.306C248.676,277.351,248.662,277.032,248.649,276.714z"/>
				<path style="fill:#AFE1FA;" d="M248.676,277.71v0.306c-0.053,3.72-0.106,7.453-0.146,11.172
					c-0.013,0.226-0.027,0.545-0.027,0.771c-0.027,0.133-0.04,0.279-0.053,0.425c-0.013,0.013-0.013,0.04-0.013,0.053
					c0,0.066-0.013,0.159-0.013,0.226l-0.013,0.013c-0.013,0.12-0.04,0.279-0.066,0.425c0,0,0,0,0,0.013
					c-0.026,0.093-0.04,0.199-0.053,0.292c-0.027,0.093-0.053,0.213-0.093,0.359c0,0.04-0.013,0.08-0.027,0.12
					c-0.027,0.066-0.04,0.146-0.066,0.239c-0.013,0.066-0.04,0.133-0.053,0.186c-0.013,0.027-0.013,0.053-0.027,0.08v0.027
					c-0.013,0.013-0.013,0.026-0.027,0.04c0,0.013,0,0.013,0,0.013c0,0.013,0,0.027-0.013,0.053
					c-0.013,0.027-0.013,0.053-0.026,0.08c-0.027,0.066-0.04,0.12-0.066,0.186c-0.053,0.159-0.12,0.319-0.186,0.492
					c-0.027,0.066-0.066,0.159-0.106,0.266c-0.08,0.173-0.159,0.332-0.239,0.505c0,0.013-0.013,0.027-0.013,0.027l-0.04,0.08
					c-0.04,0.08-0.106,0.199-0.159,0.292c0.013-0.026,0.026-0.04,0.04-0.053c-0.066,0.106-0.133,0.239-0.199,0.332
					c-0.053,0.106-0.12,0.212-0.186,0.319c0,0.013,0,0.013-0.013,0.013c-0.013,0.027-0.027,0.053-0.04,0.08
					c-0.013,0.013-0.027,0.027-0.027,0.04c-0.04,0.053-0.066,0.106-0.106,0.173c-0.027,0.027-0.04,0.053-0.053,0.08
					c-0.12,0.159-0.239,0.332-0.385,0.518c-0.053,0.066-0.106,0.133-0.159,0.213c-0.106,0.133-0.226,0.266-0.332,0.398
					c-0.106,0.12-0.212,0.226-0.319,0.332c-1.249,1.342-2.803,2.338-4.53,2.936c2.83-3.122,2.63-7.107,2.63-7.107v-7.373
					c0.438-10.056-3.481-13.364-3.481-13.364l4.264-5.447l0.199,0.173c0.013,0.013,0.027,0.04,0.053,0.053
					c0,0.013,0.013,0.013,0.013,0.027c0.027,0.013,0.04,0.04,0.066,0.053c0.664,0.664,1.315,1.501,1.926,2.524
					c0.066,0.12,0.146,0.252,0.213,0.385l0.013,0.013c0,0.013,0.013,0.027,0.013,0.04c0.013,0.013,0.013,0.027,0.013,0.027
					c0.053,0.093,0.093,0.173,0.146,0.252c0.119,0.239,0.239,0.492,0.345,0.744c0.053,0.093,0.093,0.199,0.146,0.305
					c0.053,0.133,0.106,0.266,0.159,0.412c0.08,0.186,0.146,0.399,0.226,0.611c0.027,0.106,0.066,0.212,0.106,0.319
					c0.027,0.066,0.04,0.146,0.066,0.212c0.04,0.133,0.08,0.279,0.119,0.425c0.027,0.106,0.053,0.213,0.08,0.319
					c0,0.013,0,0.013,0,0.027c0.04,0.106,0.053,0.226,0.08,0.345c0.026,0.093,0.053,0.186,0.066,0.266l0.026,0.12
					c0,0.026,0.013,0.053,0.013,0.08v0.04c0.013,0.013,0.013,0.013,0.013,0.027c0,0.026,0.013,0.04,0.013,0.066v0.013
					c0.053,0.239,0.08,0.438,0.12,0.731c0.013,0.066,0.027,0.12,0.027,0.186c0,0.013,0.013,0.027,0.013,0.04
					c0,0.053,0,0.08,0.013,0.12c0.013,0.12,0.027,0.226,0.027,0.332c0.027,0.173,0.04,0.332,0.053,0.505v0.066
					c0.013,0.013,0.013,0.04,0.013,0.04v0.159c0,0.013,0.013,0.027,0.013,0.04v0.08C248.662,277.032,248.676,277.351,248.676,277.71
					z"/>
				<path style="fill:#9ECDDD;" d="M244.361,263.74c0.001,0.274-0.048,0.548-0.137,0.818c-0.005,0.016-0.008,0.032-0.013,0.047
					c-0.089,0.256-0.225,0.507-0.394,0.752c-0.02,0.028-0.035,0.057-0.056,0.086c-0.164,0.224-0.373,0.439-0.605,0.648
					c-0.115,0.103-0.253,0.2-0.385,0.299c-0.223,0.167-0.441,0.337-0.712,0.488c-0.45,0.251-0.95,0.45-1.467,0.623
					c-0.202,0.068-0.41,0.125-0.619,0.181c-0.215,0.057-0.429,0.115-0.651,0.16c-0.382,0.077-0.767,0.146-1.162,0.187
					c-0.004,0.001-0.009,0-0.013,0.001c-0.44,0.044-0.885,0.062-1.33,0.06c-0.045,0-0.09,0.002-0.135,0.001
					c-0.432-0.006-0.862-0.036-1.287-0.085c-0.048-0.006-0.096-0.009-0.143-0.015c-0.408-0.052-0.807-0.128-1.197-0.219
					c-0.074-0.018-0.149-0.034-0.222-0.053c-0.399-0.102-0.786-0.223-1.155-0.368c-0.422-0.166-0.823-0.358-1.191-0.579
					c-1.388-0.835-2.079-1.911-2.082-2.987l0.012,4.304c0.003,1.076,0.694,2.152,2.082,2.987c0.368,0.221,0.769,0.413,1.192,0.579
					c0.011,0.004,0.02,0.011,0.03,0.015c0.291,0.113,0.592,0.213,0.902,0.299c0.072,0.02,0.148,0.034,0.221,0.053
					c0.074,0.019,0.148,0.036,0.223,0.053c0.114,0.027,0.225,0.058,0.341,0.082c0.242,0.049,0.488,0.09,0.737,0.124
					c0.04,0.005,0.08,0.008,0.119,0.013c0.048,0.006,0.095,0.01,0.143,0.015c0.153,0.018,0.306,0.037,0.461,0.049
					c0.243,0.019,0.487,0.031,0.731,0.036c0.032,0.001,0.064-0.001,0.096-0.001c0.045,0.001,0.09-0.001,0.135-0.001
					c0.176,0.001,0.351,0.002,0.527-0.004c0.269-0.01,0.537-0.029,0.803-0.056c0.004,0,0.009,0,0.013-0.001c0.002,0,0.003,0,0.005,0
					c0.316-0.032,0.628-0.076,0.937-0.132c0.075-0.014,0.145-0.039,0.22-0.054c0.222-0.045,0.435-0.102,0.651-0.16
					c0.152-0.04,0.312-0.066,0.46-0.113c0.057-0.018,0.103-0.049,0.159-0.068c0.518-0.173,1.016-0.372,1.467-0.623
					c0.124-0.069,0.242-0.14,0.356-0.212c0.135-0.087,0.234-0.185,0.355-0.276c0.132-0.099,0.27-0.195,0.385-0.299
					c0.036-0.033,0.087-0.061,0.122-0.094c0.168-0.16,0.316-0.326,0.445-0.495c0.015-0.019,0.024-0.039,0.038-0.059
					c0.021-0.029,0.037-0.058,0.056-0.086c0.068-0.099,0.139-0.197,0.194-0.297c0.076-0.14,0.14-0.281,0.191-0.423
					c0.004-0.01,0.005-0.021,0.008-0.031c0.005-0.016,0.008-0.031,0.013-0.047c0.037-0.113,0.072-0.227,0.093-0.342
					c0.026-0.142,0.041-0.285,0.043-0.427c0-0.016,0-0.033,0-0.049L244.361,263.74z"/>
				<path style="fill:#B7DCED;" d="M243.561,260.719c-0.385,0.173-0.797,0.319-1.209,0.438c-0.013,0.013-0.027,0.013-0.053,0.013
					l-0.013,0.013c-0.279,0.093-0.571,0.146-0.863,0.226c-0.173,0.053-0.359,0.106-0.545,0.133
					c-0.093,0.013-0.186,0.026-0.292,0.053c-0.452,0.093-0.903,0.173-1.368,0.226c-0.013,0-0.013,0-0.027,0
					c-0.199,0.027-0.398,0.053-0.611,0.08h-0.12c-0.239,0.026-0.465,0.04-0.704,0.053c-0.146,0-0.292,0-0.425,0.013h-0.558
					c-0.425,0-0.824-0.027-1.236-0.053c-0.133-0.013-0.252-0.013-0.385-0.027c-0.186-0.013-0.385-0.027-0.571-0.053
					c-0.106-0.013-0.213-0.027-0.332-0.04c-0.332-0.04-0.664-0.106-0.996-0.173c-0.08-0.013-0.159-0.026-0.252-0.04
					c-0.12-0.027-0.252-0.053-0.385-0.08c-0.066-0.013-0.133-0.027-0.213-0.04c-0.066-0.027-0.133-0.04-0.199-0.053
					c-0.027-0.013-0.053-0.013-0.066-0.026c-0.385-0.093-0.744-0.213-1.103-0.332c-0.053-0.013-0.093-0.027-0.133-0.04
					c-0.04-0.013-0.066-0.027-0.106-0.04c-0.04-0.013-0.08-0.027-0.133-0.04c-0.053-0.027-0.119-0.04-0.173-0.066
					c-0.053-0.013-0.093-0.027-0.133-0.053c-0.027-0.013-0.053-0.013-0.08-0.026c-0.027-0.013-0.066-0.027-0.093-0.027
					c0-0.013,0-0.013,0-0.013c-0.292-0.119-0.585-0.239-0.864-0.372c-0.279-0.133-0.545-0.279-0.797-0.438
					c-0.226-0.133-0.452-0.279-0.651-0.438c-0.106-0.08-0.213-0.159-0.306-0.226c-0.305-0.226-0.585-0.465-0.824-0.731
					c-0.106-0.106-0.199-0.226-0.292-0.332s-0.173-0.199-0.239-0.306c-0.093-0.133-0.173-0.266-0.252-0.398
					c-0.239-0.372-0.412-0.757-0.505-1.142c-0.027-0.106-0.053-0.213-0.066-0.319c-0.027-0.066-0.04-0.146-0.053-0.226
					c0-0.027-0.013-0.04-0.013-0.066c0-0.053-0.013-0.106,0-0.159c-0.013-0.106-0.013-0.226-0.013-0.332v-0.279
					c0.027-0.226,0.066-0.425,0.106-0.651l-0.04,0.199c-0.027,0.08-0.04,0.199-0.066,0.279c0.013,0.013,0.013,0.027,0,0.04
					l-0.066,0.359c0,0.013-0.013,0.013-0.013,0.027c0,0.027,0,0.066-0.013,0.093c0,0.053-0.013,0.106-0.013,0.159
					c-0.013,0.066-0.027,0.146-0.04,0.212v0.066c-0.226,1.74-0.173,4.185,1.129,6.563l0.027,0.04
					c0.239,0.465,0.239,0.465,0.837,1.328l0.505,0.611c0.292,0.359,0.651,0.677,1.01,0.983c0.505,0.425,0.97,0.744,1.461,1.049
					c0.013,0.013,0.04,0.027,0.053,0.04c0.013,0,0.013,0,0.027,0.013c0,0,0.013,0,0.027,0.013c0.199,0.12,0.438,0.239,0.624,0.346
					l0.664,0.305c0.027,0.013,0.08,0.04,0.106,0.053c0.013,0,0.027,0,0.04,0.013c0.173,0.066,0.372,0.146,0.545,0.213l0.651,0.213
					c0.093,0.027,0.199,0.066,0.292,0.093c0.066,0.013,0.146,0.027,0.213,0.053c0.053,0.013,0.106,0.027,0.159,0.04l0.638,0.146
					c0.173,0.027,0.398,0.067,0.585,0.093c0.146,0.027,0.292,0.04,0.438,0.053l0.266,0.04c0.04,0,0.093,0,0.133,0.013
					c0.053,0,0.119,0,0.173,0.013c0.106,0,0.226,0.013,0.319,0.026h0.279c0.173,0.013,0.332,0.013,0.505,0.013
					c0.16,0,0.332,0,0.478-0.013h0.159c0.053,0,0.12-0.013,0.173-0.013l0.292-0.013c0.08-0.013,0.159-0.013,0.226-0.027
					c0.093-0.013,0.186-0.013,0.279-0.027c0.04,0,0.093-0.013,0.133-0.013l0.638-0.093c0.199-0.04,0.465-0.093,0.664-0.133
					l0.638-0.159c0.213-0.053,0.478-0.146,0.691-0.213c1.408-2.497,2.179-4.756,2.484-6.775
					C243.667,260.666,243.614,260.692,243.561,260.719z M248.649,256.999v0.093c0,0,0.013,0,0.013-0.013
					C248.662,257.052,248.649,257.026,248.649,256.999z"/>
				<path style="fill:#CEEBFB;" d="M248.397,254.727v-0.106c-0.013-0.04-0.013-0.08-0.013-0.12c0-0.013,0-0.027,0-0.027
					c-0.013-0.106-0.013-0.199-0.04-0.305c-0.013-0.053-0.013-0.12-0.026-0.186l-0.027-0.186l-0.053-0.306
					c-0.04-0.173-0.093-0.385-0.159-0.571v-0.013c-0.013-0.053-0.027-0.093-0.04-0.133c0-0.026-0.013-0.04-0.013-0.053l-0.013-0.04
					c-0.013-0.066-0.04-0.12-0.066-0.186c0,0,0-0.013,0-0.027v-0.013c-0.093-0.253-0.186-0.492-0.292-0.731
					c-0.013-0.04-0.027-0.066-0.04-0.106c-0.558-1.196-1.382-2.232-2.311-3.095c-0.013-0.013-0.027-0.027-0.04-0.04
					c-0.226-0.199-0.465-0.398-0.691-0.571c-0.013-0.013-0.027-0.027-0.053-0.04l-0.026-0.027c-0.013-0.013-0.027-0.026-0.04-0.026
					c-0.159-0.12-0.305-0.226-0.465-0.332c-0.04-0.04-0.093-0.08-0.133-0.106l-0.186-0.106c-0.093-0.066-0.199-0.146-0.306-0.199
					l-0.053-0.04h-0.013c-0.013-0.013-0.027-0.013-0.027-0.026c-0.133-0.066-0.266-0.146-0.412-0.226
					c-0.093-0.04-0.173-0.093-0.266-0.133c-0.013-0.013-0.04-0.027-0.053-0.04c-0.027,0-0.053-0.027-0.08-0.04
					c-0.04-0.013-0.08-0.04-0.119-0.066l-0.372-0.173c-0.053-0.013-0.106-0.053-0.173-0.066c-0.066-0.04-0.133-0.053-0.199-0.08
					c-0.199-0.093-0.425-0.173-0.624-0.252l-0.027-0.013l-0.066-0.013l-0.186-0.066c-0.013-0.013-0.027-0.013-0.053-0.013
					l-0.239-0.08c-0.027-0.013-0.066-0.013-0.106-0.027c-0.013-0.013-0.027-0.013-0.053-0.013c0-0.013-0.013-0.013-0.027-0.013
					c0-0.013,0-0.026-0.013-0.04c-0.027-0.186-0.08-0.372-0.08-0.558c0,0.146-0.04,0.305-0.106,0.452c0,0.013,0,0.013-0.013,0.013
					c0,0.013-0.013,0.027-0.013,0.04c0,0.013-0.013,0.013-0.013,0.027c-0.093-0.027-0.186-0.053-0.279-0.066l-0.531-0.119
					c-0.106-0.027-0.239-0.04-0.372-0.066l-0.226-0.04l-0.385-0.053l-0.133-0.013c-0.159-0.013-0.385-0.027-0.545-0.04l-0.385-0.013
					h-0.664l-0.518,0.04h-0.053c-0.053,0-0.106,0.013-0.159,0.013c-0.12,0.013-0.226,0.027-0.332,0.04h-0.027l-0.531,0.08
					c-0.027,0.013-0.066,0.013-0.093,0.013c-0.359,0.066-0.704,0.146-1.05,0.239c-0.093-0.173-0.146-0.345-0.146-0.531
					c0,0.212-0.053,0.399-0.093,0.584c-2.165,0.598-4.105,1.754-5.566,3.361c-0.239,0.253-0.438,0.505-0.611,0.731
					c-0.053,0.066-0.106,0.146-0.159,0.213l-0.292,0.398c-0.04,0.08-0.093,0.173-0.146,0.253c-0.093,0.146-0.173,0.292-0.266,0.452
					c-0.04,0.066-0.08,0.146-0.12,0.199l-0.027,0.053c-0.066,0.133-0.12,0.253-0.186,0.399l-0.08,0.159
					c-0.013,0.04-0.04,0.106-0.053,0.146c-0.027,0.08-0.066,0.133-0.08,0.199c-0.066,0.186-0.12,0.346-0.173,0.492
					c-0.013,0.053-0.04,0.106-0.053,0.159l-0.04,0.159c-0.146,0.531-0.213,0.943-0.252,1.408c-0.013,0.04-0.013,0.106-0.027,0.146
					c0,0.053,0,0.12-0.013,0.186c0.013,0.013,0.013,0.027,0,0.04c0.013,0.04,0.013,0.08,0,0.133v0.04
					c0,0.106-0.013,0.212-0.013,0.306c0,0.093,0,0.173,0.027,0.266c-0.013,0.08,0,0.146,0.013,0.226
					c0.013,0.186,0.053,0.359,0.12,0.545c0.093,0.385,0.266,0.771,0.505,1.142c0.08,0.133,0.159,0.266,0.252,0.398
					c0.066,0.106,0.146,0.199,0.239,0.306s0.186,0.226,0.292,0.332c0.239,0.266,0.518,0.505,0.824,0.731
					c0.093,0.066,0.199,0.146,0.306,0.226c0.199,0.159,0.425,0.306,0.651,0.438c0.252,0.159,0.518,0.306,0.797,0.438
					c0.053,0.04,0.12,0.066,0.186,0.093c0.027,0.013,0.04,0.027,0.066,0.027c0.04,0.026,0.08,0.04,0.12,0.053
					c0.027,0.013,0.053,0.027,0.08,0.04c0.04,0.027,0.093,0.04,0.133,0.053c0.027,0.013,0.066,0.04,0.106,0.053
					c0,0,0.013,0.013,0.027,0.013c0.04,0.013,0.093,0.026,0.133,0.053h0.013c0.04,0.013,0.053,0.027,0.093,0.04
					c0.026,0.013,0.04,0.013,0.053,0.026c0.013,0,0.013,0,0.027,0.013h0.013c0.066,0.027,0.133,0.053,0.199,0.08
					c0.053,0.013,0.093,0.027,0.146,0.053c0.08,0.027,0.173,0.053,0.252,0.08c0.053,0.027,0.106,0.053,0.173,0.066
					c0.067,0.027,0.133,0.04,0.199,0.053c0.093,0.027,0.186,0.066,0.279,0.093c0.013,0,0.013,0.013,0.027,0.013
					c0.027,0,0.053,0.013,0.066,0.013c0.013,0.013,0.04,0.013,0.053,0.013l0.013,0.013c0.04,0.013,0.093,0.013,0.146,0.027
					c0.066,0.027,0.146,0.04,0.213,0.066c0.04,0,0.066,0.013,0.106,0.027c0.053,0.013,0.106,0.013,0.159,0.027
					c0.066,0.027,0.12,0.04,0.186,0.053c0.027,0.013,0.053,0.013,0.08,0.027c0.08,0.013,0.146,0.026,0.213,0.04
					c0.04,0,0.08,0.013,0.12,0.027l-0.013-0.013c0.027,0.013,0.066,0.013,0.106,0.026c0.093,0.013,0.173,0.04,0.266,0.053
					c0.013,0,0.026,0,0.04,0.013c0.066,0,0.133,0.013,0.199,0.027h0.013c0.133,0.013,0.266,0.04,0.398,0.066
					c0.04,0,0.066,0.013,0.106,0.013c0.013,0,0.027,0,0.04,0.013c0.013-0.013,0.013-0.013,0.027,0c0.053,0,0.106,0.013,0.159,0.013
					c0.066,0.013,0.12,0.013,0.186,0.027c0.12,0.013,0.252,0.027,0.372,0.04c0.093,0,0.173,0.013,0.266,0.027h0.066
					c0.013,0,0.027,0.013,0.04,0.013l-0.013-0.013c0.013,0,0.013,0,0.013,0c0.053,0.013,0.106,0.013,0.159,0.013
					c0.133,0.013,0.266,0.013,0.399,0.027c0.133,0,0.252,0.013,0.385,0.013c0.053,0,0.12,0.013,0.173,0.013c0.013,0,0.013,0,0.027,0
					h0.372c0.013,0,0.027-0.013,0.04-0.013c0.093,0,0.199,0.013,0.292,0.013c0.066,0,0.133-0.013,0.213-0.013h0.266
					c0.053,0,0.106,0,0.159-0.013c0.239-0.013,0.465-0.027,0.704-0.053h0.12c0.08-0.013,0.159-0.013,0.226-0.013
					c0.013,0,0.027,0,0.04-0.013h0.013c0.106-0.013,0.226-0.04,0.332-0.053c0.013,0,0.013,0,0.027,0
					c0.372-0.04,0.744-0.08,1.103-0.146h-0.106c0.213-0.04,0.425-0.066,0.638-0.12c0.013,0,0.013,0,0.027-0.013
					c0.186-0.027,0.372-0.08,0.545-0.133c0.292-0.08,0.585-0.133,0.863-0.226c0.027,0,0.04-0.013,0.066-0.027
					c-0.013,0.013-0.027,0.013-0.053,0.013c-0.04,0-0.093,0.013-0.133,0.027c0.478-0.146,0.943-0.306,1.395-0.478
					c0.053-0.027,0.106-0.053,0.159-0.067l0.013-0.013c0.173-0.066,0.332-0.133,0.492-0.213c0.226-0.106,0.425-0.213,0.638-0.319
					c0.199-0.12,0.399-0.239,0.584-0.359c0.053-0.027,0.08-0.053,0.12-0.08c0.119-0.08,0.212-0.146,0.319-0.226
					c0.133-0.093,0.279-0.199,0.399-0.306c0.093-0.08,0.186-0.159,0.279-0.239c0.053-0.04,0.106-0.08,0.159-0.133
					c0.013-0.013,0.013-0.013,0.013-0.013c0.053-0.053,0.106-0.106,0.159-0.173c0.08-0.08,0.159-0.159,0.239-0.252
					c0.093-0.093,0.173-0.199,0.252-0.306c0.013-0.013,0.027-0.027,0.04-0.04l0.013-0.013c0,0,0-0.013,0.013-0.013
					c0.013-0.027,0.027-0.04,0.04-0.066c0.04-0.04,0.066-0.093,0.106-0.146c0.027-0.04,0.053-0.066,0.053-0.106
					c0.053-0.053,0.08-0.12,0.119-0.186c0.027-0.04,0.053-0.08,0.08-0.133c0.013,0,0.013-0.013,0.027-0.026
					c0.013-0.013,0.013-0.013,0.013-0.027c0.027-0.04,0.04-0.08,0.066-0.133c0.013-0.013,0.026-0.04,0.04-0.066c0,0,0,0,0-0.013
					c0.013-0.027,0.027-0.053,0.027-0.08c0.027-0.053,0.053-0.106,0.08-0.173c0.027-0.053,0.053-0.12,0.08-0.173
					c0-0.013,0-0.013,0-0.027c0.013-0.027,0.027-0.053,0.027-0.08c0.013-0.04,0.027-0.08,0.027-0.119
					c0.013-0.027,0.026-0.04,0.026-0.067c0.013-0.026,0.027-0.066,0.027-0.106c0.013-0.053,0.027-0.106,0.04-0.159
					c0-0.027,0.013-0.066,0.027-0.093c0-0.013,0-0.027,0-0.027s0-0.013,0.013-0.013v-0.053c0.04-0.199,0.053-0.412,0.053-0.624
					v-0.146C248.41,254.967,248.41,254.834,248.397,254.727z M236.587,246.982h-0.066c-0.252-0.013-0.478-0.053-0.717-0.093
					c-0.04-0.013-0.08-0.013-0.106-0.026c-0.04,0-0.08,0-0.106-0.013c-0.04-0.013-0.066-0.013-0.106-0.027
					c-0.027,0-0.04,0-0.066-0.013c-0.013,0-0.013,0-0.027,0c-0.332-0.106-0.664-0.212-0.93-0.385
					c-0.292-0.173-0.505-0.359-0.651-0.571c0.04-0.013,0.08-0.027,0.133-0.053c0.133-0.053,0.279-0.12,0.438-0.173
					c0.027,0,0.053-0.013,0.067-0.013c0.133-0.04,0.279-0.066,0.412-0.106c0.12-0.027,0.239-0.04,0.359-0.066
					c0.12-0.013,0.226-0.053,0.345-0.066c0.146-0.013,0.292-0.04,0.452-0.053c0.12-0.013,0.239-0.013,0.359-0.013
					c0.319-0.027,0.651-0.027,0.97-0.013c0.173,0.013,0.345,0.027,0.505,0.053c0.066,0,0.12,0,0.173,0.013
					c0.213,0.026,0.412,0.066,0.611,0.106c0.412,0.08,0.797,0.213,1.182,0.385c-0.04,0.053-0.066,0.106-0.12,0.159
					c-0.04,0.04-0.066,0.08-0.106,0.119c-0.053,0.04-0.106,0.08-0.159,0.12c-0.106,0.08-0.199,0.159-0.319,0.226
					c-0.239,0.133-0.518,0.226-0.797,0.319c-0.239,0.066-0.478,0.106-0.731,0.146c-0.133,0.013-0.252,0.026-0.372,0.04
					c-0.053,0-0.106,0-0.159,0.013C236.892,246.996,236.746,246.996,236.587,246.982z"/>
				<path style="fill:#9ECDDD;" d="M248.649,256.999v0.704c-0.013,0.106-0.013,0.252-0.027,0.425v0.04c0,0,0,0.013,0,0.027
					c-0.027,0.159-0.04,0.319-0.053,0.478c-0.013,0.053-0.013,0.106-0.027,0.146c0,0.053-0.013,0.133-0.027,0.173
					c0,0.026,0,0.066-0.013,0.093c-0.013,0.093-0.027,0.186-0.053,0.292c-0.013,0.093-0.027,0.199-0.053,0.319l-0.013,0.013
					c0,0.013,0,0.04-0.013,0.066c0,0.027-0.013,0.066-0.027,0.093c-0.026,0.159-0.08,0.319-0.119,0.478
					c-0.013,0.04-0.027,0.093-0.04,0.146c-0.013,0.053-0.04,0.133-0.053,0.186c-0.013,0.027-0.027,0.066-0.04,0.106
					c-0.027,0.093-0.066,0.186-0.093,0.279c-0.027,0.08-0.066,0.159-0.093,0.239l-0.04,0.093c0,0.013-0.013,0.04-0.027,0.053
					c0,0.013,0,0.027-0.013,0.027c-0.106,0.279-0.239,0.545-0.359,0.81c-0.013,0.013-0.027,0.026-0.027,0.04
					c-0.651,1.236-1.568,2.365-2.803,3.295c-0.106,0.093-0.213,0.173-0.319,0.252c-0.106,0.066-0.199,0.133-0.306,0.213
					c-0.252,0.159-0.505,0.319-0.744,0.438l-0.013,0.013c-0.093,0.053-0.212,0.106-0.345,0.173l-0.292,0.159
					c-0.226,0.093-0.518,0.226-0.731,0.319l-0.651,0.239c1.408-2.497,2.179-4.756,2.484-6.775l0.013-0.013
					c0.173-0.053,0.332-0.12,0.492-0.213c0.226-0.106,0.425-0.213,0.638-0.319c0.199-0.12,0.385-0.226,0.571-0.345l0.013-0.013
					c0.013-0.013,0.013-0.013,0.027-0.027c0.027-0.013,0.066-0.027,0.093-0.053c0.119-0.08,0.212-0.146,0.319-0.226
					c0.053-0.04,0.106-0.08,0.146-0.12c0.08-0.066,0.173-0.12,0.253-0.186c0.093-0.08,0.186-0.159,0.279-0.239
					c0.053-0.04,0.106-0.08,0.159-0.133c0.013-0.013,0.013-0.013,0.013-0.013c0.053-0.053,0.106-0.106,0.159-0.173
					c0.08-0.08,0.159-0.159,0.239-0.252c0.093-0.093,0.173-0.199,0.252-0.306c0.013-0.013,0.027-0.027,0.04-0.04v-0.013
					c0.08-0.106,0.159-0.213,0.226-0.332c0.053-0.053,0.08-0.12,0.119-0.186c0.027-0.04,0.053-0.08,0.08-0.133
					c0.053-0.106,0.106-0.212,0.159-0.332l0.013-0.013c0.08-0.199,0.146-0.385,0.213-0.571c0.013-0.027,0.026-0.04,0.026-0.067
					c0.013-0.026,0.027-0.066,0.027-0.106c0.013-0.053,0.027-0.106,0.04-0.159c-0.013-0.013,0-0.027,0-0.04
					c0.04-0.186,0.053-0.372,0.067-0.558v-0.106c0-0.027,0.013-0.04,0.013-0.066v-0.186c0-0.013,0-0.013,0-0.027
					c-0.013-0.292-0.053-0.585-0.133-0.877c0.013,0.053,0.04,0.12,0.053,0.173l0.027,0.133c0.013,0.066,0.027,0.146,0.04,0.212
					c0.013,0.04,0.013,0.08,0.026,0.12c0.013,0.093,0.04,0.173,0.053,0.253c0,0.027,0.013,0.053,0.013,0.08
					c0.013,0.013,0.013,0.04,0.013,0.053c0,0.027,0,0.053,0.013,0.093l0.013,0.093c0,0.066,0.013,0.146,0.027,0.239l0.013,0.027
					v0.053c0.013,0.093,0.013,0.173,0.027,0.266c0.013,0.08,0.013,0.159,0.027,0.239v0.146
					C248.649,256.601,248.649,256.8,248.649,256.999z"/>
				<path style="fill:#AFE1FA;" d="M248.277,254.209c0.08,0.292,0.12,0.585,0.133,0.877c0,0.013,0,0.013,0,0.027v0.186
					c0,0.027-0.013,0.04-0.013,0.066v0.106c-0.013,0.186-0.027,0.372-0.067,0.558c0,0.013-0.013,0.026,0,0.04
					c-0.013,0.053-0.026,0.106-0.04,0.159c0,0.04-0.013,0.08-0.027,0.106c0,0.027-0.013,0.04-0.026,0.067
					c-0.066,0.186-0.133,0.372-0.213,0.571l-0.013,0.013c-0.053,0.12-0.106,0.226-0.159,0.332c-0.027,0.053-0.053,0.093-0.08,0.133
					c-0.04,0.066-0.066,0.133-0.119,0.186c-0.066,0.12-0.146,0.226-0.226,0.332v0.013c-0.013,0.013-0.027,0.026-0.04,0.04
					c-0.08,0.106-0.159,0.212-0.252,0.306c-0.08,0.093-0.159,0.173-0.239,0.252c-0.053,0.067-0.106,0.12-0.159,0.173
					c0,0,0,0-0.013,0.013c-0.053,0.053-0.106,0.093-0.159,0.133c-0.093,0.08-0.186,0.16-0.279,0.239
					c-0.08,0.066-0.173,0.12-0.253,0.186c-0.04,0.04-0.093,0.08-0.146,0.12c-0.106,0.08-0.199,0.146-0.319,0.226
					c-0.027,0.027-0.066,0.04-0.093,0.053c-0.013,0.013-0.013,0.013-0.027,0.027l-0.013,0.013c-0.186,0.12-0.372,0.226-0.571,0.345
					c-0.213,0.106-0.412,0.213-0.638,0.319c-0.159,0.093-0.319,0.159-0.492,0.213c1.461-9.326-6.695-13.63-6.695-13.63l0.013-0.013
					l0.97-1.634l0.16-0.08l0.385,0.053l0.226,0.04c0.133,0.026,0.266,0.04,0.372,0.066l0.531,0.119
					c0.093,0.013,0.186,0.04,0.279,0.066c0-0.013,0.013-0.013,0.013-0.027c0-0.013,0.013-0.027,0.013-0.04
					c0.013,0,0.013,0,0.013-0.013c0.066-0.146,0.106-0.305,0.106-0.452c0,0.186,0.053,0.372,0.08,0.558
					c0.013,0.013,0.013,0.027,0.013,0.04c0.013,0,0.027,0,0.027,0.013c0.026,0,0.04,0,0.053,0.013
					c0.04,0.013,0.08,0.013,0.106,0.027l0.239,0.08c0.027,0,0.04,0,0.053,0.013l0.186,0.066l0.066,0.013l0.027,0.013
					c0.199,0.08,0.425,0.159,0.624,0.252c0.066,0.027,0.133,0.04,0.199,0.08c0.066,0.013,0.12,0.053,0.173,0.066l0.372,0.173
					c0.04,0.026,0.08,0.053,0.119,0.066c0.027,0.013,0.053,0.04,0.08,0.04c0.013,0.013,0.04,0.027,0.053,0.04
					c0.093,0.04,0.173,0.093,0.266,0.133c0.146,0.08,0.279,0.159,0.412,0.226c0,0.013,0.013,0.013,0.027,0.026h0.013l0.053,0.04
					c0.106,0.053,0.213,0.133,0.306,0.199l0.186,0.106c0.04,0.026,0.093,0.066,0.133,0.106c0.159,0.106,0.305,0.213,0.465,0.332
					c0.013,0,0.027,0.013,0.04,0.026l0.026,0.027c0.027,0.013,0.04,0.027,0.053,0.04c0.226,0.173,0.465,0.372,0.691,0.571
					c0.013,0.013,0.027,0.027,0.04,0.04c0.93,0.864,1.754,1.9,2.311,3.095c0.013,0.04,0.027,0.066,0.04,0.106
					c0.106,0.239,0.199,0.478,0.292,0.731v0.013c0,0.013,0,0.027,0,0.027c0.026,0.066,0.053,0.12,0.066,0.186l0.013,0.04
					c0,0.013,0.013,0.027,0.013,0.053c0.013,0.04,0.027,0.08,0.04,0.133v0.013c0.066,0.186,0.12,0.399,0.159,0.571l0.053,0.306
					l0.027,0.186c0.013,0.066,0.013,0.133,0.026,0.186c0.027,0.106,0.027,0.199,0.04,0.305c0,0,0,0.013,0,0.027
					c0,0.04,0,0.08,0.013,0.12v0.106c-0.013-0.066-0.027-0.146-0.04-0.212l-0.027-0.133
					C248.317,254.329,248.29,254.262,248.277,254.209z"/>
				<g>
					<path style="fill:#2395E5;" d="M240.094,238.255c0,0.066-0.013,0.133-0.027,0.213c-0.013,0.053-0.027,0.106-0.04,0.146
						c-0.027,0.08-0.066,0.146-0.106,0.213c-0.027,0.04-0.04,0.08-0.066,0.119c0,0,0,0.013-0.013,0.027
						c-0.053,0.08-0.133,0.146-0.213,0.226c-0.027,0.026-0.04,0.04-0.053,0.066h-0.013c-0.013,0.013-0.027,0.026-0.04,0.04
						c-0.12,0.106-0.266,0.213-0.438,0.306c-0.199,0.106-0.398,0.199-0.624,0.279h-0.013c-0.093,0.027-0.186,0.053-0.279,0.08
						c-0.013,0-0.013,0-0.027,0c-0.133,0.04-0.279,0.066-0.425,0.093c-0.066,0.013-0.146,0.027-0.226,0.04
						c-0.226,0.027-0.452,0.04-0.678,0.04c-0.332,0-0.678-0.027-0.996-0.093c-0.08-0.013-0.173-0.027-0.252-0.053
						c-0.146-0.027-0.292-0.08-0.425-0.119c-0.066-0.013-0.119-0.04-0.186-0.066c-0.186-0.066-0.359-0.159-0.518-0.252
						c-0.146-0.093-0.279-0.186-0.399-0.292c-0.08-0.08-0.146-0.146-0.199-0.226c-0.013-0.013-0.027-0.027-0.027-0.04
						c-0.053-0.04-0.08-0.093-0.106-0.146c-0.013-0.013-0.013-0.04-0.027-0.053c-0.027-0.04-0.04-0.08-0.053-0.106
						c-0.027-0.04-0.027-0.08-0.04-0.106c-0.013-0.027-0.013-0.053-0.013-0.08c-0.027-0.066-0.04-0.133-0.04-0.199
						c0-0.013,0-0.013,0-0.027c-0.027-0.505,0.319-1.023,1.01-1.408c1.116-0.624,2.803-0.704,4.052-0.239l0.08,0.027
						c0.186,0.066,0.359,0.159,0.518,0.252C239.815,237.285,240.107,237.776,240.094,238.255z"/>
				</g>
				<path style="fill:#CEEBFB;" d="M237.849,248.988c-0.013,0-0.027,0.013-0.04,0.013c-0.133,0.013-0.279,0.04-0.412,0.053h-0.013
					c-0.119,0.013-0.226,0.027-0.345,0.027h-0.332c-0.106,0-0.226-0.013-0.332-0.013c-0.066-0.013-0.133-0.013-0.199-0.027h-0.066
					c-0.013,0-0.027-0.013-0.053-0.013c-0.106-0.013-0.213-0.026-0.319-0.053c-0.053-0.013-0.093-0.027-0.146-0.04
					c-0.04,0-0.066-0.013-0.106-0.013c-0.027-0.013-0.066-0.013-0.093-0.027c-0.133-0.04-0.266-0.08-0.399-0.133c0,0,0,0-0.013,0
					c-0.186-0.08-0.359-0.16-0.518-0.266c-0.611-0.359-0.917-0.837-0.917-1.315l-0.013-3.241l-0.013-3.613
					c0,0.027,0,0.053,0.013,0.093c0.013,0.027,0.013,0.053,0.026,0.093c0,0.04,0,0.093,0.027,0.146
					c0.013,0.066,0.053,0.146,0.093,0.213c0.027,0.04,0.04,0.093,0.066,0.133c0.053,0.08,0.133,0.159,0.199,0.226
					c0.027,0.04,0.053,0.08,0.093,0.106c0.12,0.106,0.252,0.213,0.399,0.306c0.159,0.093,0.345,0.173,0.531,0.252
					c0.053,0.013,0.12,0.04,0.173,0.053c0.133,0.053,0.279,0.093,0.425,0.133c0.08,0.013,0.173,0.027,0.252,0.04
					c0.332,0.066,0.664,0.093,0.996,0.093c0.305,0,0.611-0.026,0.903-0.08v6.868C237.716,249.002,237.769,249.002,237.849,248.988z"
					/>
				<path style="fill:#1482C6;" d="M237.716,240.061v4.982c-0.106,0.013-0.213,0.027-0.319,0.04h-0.013
					c-0.119,0.013-0.226,0.027-0.345,0.027h-0.332c-0.106,0-0.226,0-0.332-0.013c-0.066,0-0.133-0.013-0.199-0.027h-0.066
					c-0.013,0-0.027,0-0.053-0.013c-0.106-0.013-0.213-0.027-0.319-0.053c-0.053-0.013-0.093-0.027-0.146-0.027
					c-0.04-0.013-0.066-0.027-0.106-0.027c-0.027-0.013-0.066-0.013-0.093-0.026c-0.133-0.04-0.266-0.08-0.399-0.133
					c0,0,0,0-0.013,0c-0.186-0.08-0.359-0.159-0.518-0.266c-0.611-0.359-0.917-0.837-0.917-1.302l-0.013-2.803v-2.112
					c0,0.04,0.013,0.093,0.026,0.12c0,0.027,0,0.053,0.013,0.08c0,0.027,0,0.053,0.013,0.08c0.013,0.027,0.013,0.066,0.04,0.106
					c0.013,0.027,0.027,0.066,0.053,0.106c0.013,0.013,0.013,0.04,0.027,0.053c0.013,0.027,0.026,0.053,0.04,0.08
					c0.013,0.027,0.04,0.053,0.066,0.066c0,0.013,0.013,0.027,0.027,0.04c0.04,0.04,0.08,0.08,0.106,0.119
					c0.027,0.04,0.053,0.066,0.093,0.106c0.12,0.106,0.252,0.199,0.399,0.292c0.159,0.106,0.332,0.186,0.518,0.252l0.013,0.013
					c0.053,0.013,0.12,0.027,0.173,0.053c0.133,0.04,0.279,0.093,0.425,0.119c0,0,0,0,0,0.013c0.08,0.013,0.173,0.027,0.252,0.04
					c0.319,0.066,0.664,0.093,0.996,0.093c0.226,0,0.452-0.013,0.678-0.04C237.57,240.088,237.649,240.074,237.716,240.061z"/>
				<path style="fill:#1482C6;" d="M240.12,243.263c-0.013,0.053-0.013,0.093-0.013,0.146v-1.568L240.12,243.263z"/>
				<path style="fill:#AFE1FA;" d="M240.12,246.159v1.01c0,0.013,0,0.013,0,0.026c0,0.053-0.013,0.12-0.013,0.186
					c-0.013,0.053-0.027,0.093-0.053,0.146c0,0.013,0,0.013,0,0.026c0,0,0,0,0,0.013c-0.027,0.053-0.053,0.12-0.093,0.186
					c-0.013,0.04-0.053,0.08-0.08,0.133c-0.013,0.013-0.013,0.013-0.026,0.027c0,0.013-0.013,0.026-0.013,0.026
					c-0.053,0.08-0.12,0.146-0.199,0.226c-0.013,0.013-0.04,0.027-0.053,0.04c-0.053,0.04-0.106,0.08-0.173,0.133
					c-0.053,0.04-0.093,0.08-0.146,0.12c-0.053,0.027-0.106,0.066-0.159,0.093c-0.199,0.106-0.425,0.199-0.651,0.279
					c-0.026,0-0.04,0.013-0.066,0.027c-0.066,0.013-0.133,0.027-0.199,0.04c-0.093,0.027-0.186,0.053-0.292,0.08
					c-0.027,0.013-0.04,0.013-0.053,0.013c-0.08,0.013-0.133,0.013-0.133,0.013v-3.959c0.027,0,0.066-0.013,0.093-0.013
					c0.027-0.013,0.066-0.026,0.093-0.026c0.106-0.027,0.199-0.053,0.292-0.066c0.066-0.027,0.133-0.04,0.199-0.053
					c0.027-0.013,0.04-0.026,0.066-0.026c0.226-0.08,0.452-0.173,0.651-0.279c0.053-0.027,0.106-0.066,0.159-0.093
					c0.053-0.04,0.093-0.08,0.146-0.12c0.066-0.04,0.119-0.093,0.173-0.133c0.013-0.013,0.04-0.027,0.053-0.04
					c0.08-0.066,0.146-0.146,0.199-0.226c0,0,0.013-0.013,0.013-0.027c0.013,0,0.013-0.013,0.026-0.027
					c0.027-0.053,0.066-0.093,0.08-0.133c0.04-0.067,0.066-0.133,0.093-0.186c0-0.013,0-0.013,0-0.013c0-0.013,0-0.013,0-0.027
					c0.027-0.053,0.04-0.093,0.053-0.146v0.518L240.12,246.159z"/>
				<path style="fill:#CEEBFB;" d="M238.46,248.829c0.226-0.08,0.452-0.173,0.651-0.279c-0.385,0.279-0.93,0.385-1.209,0.425
					c0.106-0.027,0.199-0.053,0.292-0.08c0.066-0.013,0.133-0.026,0.199-0.04C238.42,248.842,238.433,248.829,238.46,248.829z"/>
				<path style="fill:#0F73A5;" d="M240.094,238.255c0,0.066-0.013,0.133-0.027,0.213c-0.013,0.04-0.013,0.08-0.027,0.119
					c0,0.013,0,0.013,0,0.027c-0.013,0-0.013,0-0.013,0c-0.027,0.08-0.066,0.146-0.106,0.213c-0.027,0.04-0.04,0.08-0.066,0.119
					c0,0,0,0.013-0.013,0.027c-0.053,0.08-0.133,0.146-0.213,0.226c-0.027,0.026-0.04,0.04-0.053,0.066h-0.013
					c-0.013,0.013-0.027,0.026-0.04,0.04c-0.12,0.106-0.266,0.213-0.438,0.306c-0.199,0.106-0.398,0.199-0.624,0.279h-0.013
					c-0.093,0.027-0.186,0.053-0.279,0.08c-0.013,0-0.013,0-0.027,0c-0.133,0.04-0.279,0.066-0.425,0.093v4.982
					c0.027,0,0.066-0.013,0.093-0.013c0.027-0.013,0.066-0.026,0.093-0.026c0.106-0.027,0.199-0.053,0.292-0.066
					c0.066-0.027,0.133-0.04,0.199-0.053c0.027-0.013,0.04-0.026,0.066-0.026c0.226-0.08,0.452-0.173,0.651-0.279
					c0.053-0.027,0.106-0.066,0.159-0.093c0.053-0.04,0.093-0.08,0.146-0.12c0.066-0.04,0.119-0.093,0.173-0.133
					c0.013-0.013,0.04-0.027,0.053-0.04c0.08-0.066,0.146-0.146,0.199-0.226c0,0,0.013-0.013,0.013-0.027
					c0.013,0,0.013-0.013,0.026-0.027c0.027-0.053,0.066-0.093,0.08-0.133c0.04-0.067,0.066-0.133,0.093-0.186
					c0-0.013,0-0.013,0-0.013c0-0.013,0-0.013,0-0.027c0.027-0.053,0.04-0.093,0.053-0.146v-5.181
					C240.107,238.241,240.094,238.241,240.094,238.255z"/>
				<path style="fill:#CEEBFB;" d="M240.12,243.263c-0.013,0.053-0.013,0.093-0.013,0.146v-1.568L240.12,243.263z"/>
				<path style="fill:#FDDA1E;" d="M225.175,277.59c0,0,9.949,11.621,23.501,0v10.359c0,0-12.456,10.926-23.381,0L225.175,277.59z"
					/>
			</g>
		</g>
	</g>
</g>
</svg>
