<?xml version="1.0" encoding="utf-8"?>
<!-- Generator: Adobe Illustrator 27.5.0, SVG Export Plug-In . SVG Version: 6.00 Build 0)  -->
<svg version="1.1" id="Ñëîé_1" xmlns="http://www.w3.org/2000/svg" xmlns:xlink="http://www.w3.org/1999/xlink" x="0px" y="0px"
	 viewBox="0 0 3200 2000" style="enable-background:new 0 0 3200 2000;" xml:space="preserve">
<rect id="_x31_0" style="fill:#FFFFFF;" width="3200" height="2000"/>
<g>
	<g id="_x39_">
		<path style="fill:#DCE6FF;" d="M443.232,1470.349c-5.5-12.335-10.943-25.116-16.175-37.987l12.896-2.807
			c5.198,12.788,10.605,25.486,16.069,37.738L443.232,1470.349z M2750.185,1454.419l-13.352-1.207
			c2.217-13.13,4.322-26.354,6.257-39.303l13.374,1.071C2754.522,1427.975,2752.409,1441.245,2750.185,1454.419z M412.205,1394.098
			c-4.709-12.721-9.275-25.678-13.573-38.512l13.067-2.343c4.273,12.757,8.812,25.636,13.492,38.281L412.205,1394.098z
			 M2761.972,1375.478l-13.393-0.926c1.702-13.183,3.279-26.444,4.685-39.413l13.41,0.778
			C2765.264,1348.935,2763.681,1362.245,2761.972,1375.478z M386.338,1316.847c-3.886-12.96-7.583-26.064-10.989-38.95l13.209-1.869
			c3.385,12.805,7.06,25.83,10.921,38.709L386.338,1316.847z M2770.536,1296.3l-13.427-0.622
			c1.139-13.174,2.138-26.462,2.968-39.495l13.438,0.458C2772.682,1269.729,2771.68,1283.072,2770.536,1296.3z M365.708,1238.754
			c-2.992-13.119-5.762-26.347-8.232-39.319l13.324-1.359c2.454,12.885,5.206,26.025,8.178,39.058L365.708,1238.754z
			 M2775.57,1216.947l-13.448-0.286c0.525-13.232,0.886-26.535,1.075-39.539l13.453,0.104
			C2776.46,1190.291,2776.097,1203.655,2775.57,1216.947z M350.724,1159.956c-2.006-13.251-3.751-26.578-5.189-39.61l13.41-0.793
			c1.427,12.936,3.16,26.164,5.151,39.319L350.724,1159.956z M2763.252,1137.581c-0.158-13.242-0.502-26.54-1.022-39.527
			l13.448-0.288c0.521,13.053,0.868,26.419,1.027,39.728L2763.252,1137.581z M342.008,1080.632
			c-0.892-13.329-1.484-26.71-1.759-39.775l13.452-0.152c0.272,12.955,0.859,26.226,1.744,39.445L342.008,1080.632z
			 M2760.068,1058.563c-0.924-13.225-2.06-26.494-3.375-39.439l13.416-0.731c1.324,13.021,2.466,26.367,3.395,39.667
			L2760.068,1058.563z M353.828,1001.245l-13.451-0.202c0.375-13.364,1.097-26.75,2.148-39.785l13.431,0.579
			C354.914,974.748,354.199,988.006,353.828,1001.245z M2752.026,979.763c-1.797-13.222-3.833-26.428-6.048-39.252l13.347-1.235
			c2.231,12.91,4.279,26.204,6.089,39.512L2752.026,979.763z M360.221,922.534l-13.387-0.984
			c1.828-13.314,4.055-26.621,6.622-39.552l13.314,1.415C364.232,896.202,362.029,909.364,360.221,922.534z M2738.446,901.41
			c-2.799-13.139-5.872-26.228-9.133-38.904l13.22-1.822c3.289,12.777,6.386,25.969,9.206,39.209L2738.446,901.41z
			 M1147.325,900.021c-18.694-2.157-32.216-8.385-50.947-19.139l8.504-7.629c16.409,9.397,28.26,15.033,43.876,16.978
			L1147.325,900.021z M1194.001,876.596l-11.981-4.478c6.159-8.825,11.603-21.073,16.182-36.401l13.143,2.102
			C1206.452,854.201,1200.779,866.884,1194.001,876.596z M1056.894,852.645c-10.717-8.734-22.171-18.786-35.014-30.73l10.572-6.088
			c12.662,11.775,23.932,21.667,34.453,30.241L1056.894,852.645z M375.757,844.57l-13.207-1.876
			c3.485-13.141,7.429-26.244,11.721-38.945l13.06,2.364C383.093,818.653,379.199,831.592,375.757,844.57z M2718.439,823.858
			c-3.983-13.003-8.281-25.894-12.774-38.315l13.007-2.519c4.535,12.541,8.873,25.556,12.893,38.681L2718.439,823.858z
			 M1220.398,798.197l-13.343-1.257c2.066-11.752,3.918-24.621,5.661-39.343l13.403,0.85
			C1224.359,773.307,1222.488,786.308,1220.398,798.197z M988.929,790.195c-10.936-10.808-22.279-22.233-32.052-32.092l10.89-5.781
			c9.755,9.841,21.074,21.242,31.974,32.014L988.929,790.195z M1973.893,789.385c-10.477,0-20.757-2.291-30.553-6.808l7.173-8.33
			c14.716,6.799,29.193,6.814,44.825,1.391l5.788,8.887C1991.883,787.75,1982.721,789.385,1973.893,789.385z M401.642,768.172
			l-12.866-2.879c5.345-12.792,11.21-25.515,17.431-37.815l12.617,3.417C412.693,743.018,406.912,755.56,401.642,768.172z
			 M2045.119,758.786l-9.885-6.679c10.201-8.085,21.135-18.057,33.43-30.489l10.899,5.773
			C2066.952,740.142,2055.686,750.411,2045.119,758.786z M1905.085,752.016c-8.707-9.829-17.335-21.405-26.377-35.387l12.16-4.212
			c8.785,13.583,17.128,24.784,25.507,34.243L1905.085,752.016z M2690.802,747.657c-5.419-12.756-11.202-25.314-17.188-37.324
			l12.639-3.374c6.06,12.158,11.913,24.867,17.396,37.775L2690.802,747.657z M924.993,726.005
			c-12.309-12.31-22.567-22.417-32.283-31.805l10.725-5.944c9.761,9.432,20.061,19.58,32.415,31.935L924.993,726.005z
			 M1230.166,718.687l-13.426-0.636c1.02-11.535,2.058-24.499,3.172-39.635l13.434,0.53
			C1232.23,694.117,1231.189,707.117,1230.166,718.687z M438.99,694.451l-12.308-3.975c7.385-12.241,15.256-24.261,23.618-36.015
			l11.93,4.552C454.001,670.578,446.258,682.405,438.99,694.451z M2110.384,694.449l-11.242-5.409
			c9.561-10.637,19.436-21.907,29.432-33.292l11.318,5.322C2129.872,672.484,2119.986,683.764,2110.384,694.449z M1857.052,679.888
			c-6.094-11.186-12.391-23.389-19.251-37.309l12.655-3.34c6.81,13.816,13.055,25.92,19.093,37.003L1857.052,679.888z
			 M2653.822,673.748c-7.232-12.329-14.884-24.306-22.74-35.598l11.99-4.467c7.989,11.482,15.766,23.655,23.114,36.181
			L2653.822,673.748z M859.493,663.003c-12.207-11.089-23.57-20.958-34.738-30.173l10.065-6.533
			c11.31,9.332,22.808,19.318,35.151,30.53L859.493,663.003z M1236.146,639.232l-13.437-0.496
			c0.906-13.153,1.807-26.313,2.767-39.704l13.435,0.516C1237.951,612.932,1237.051,626.085,1236.146,639.232z M2169.388,627.818
			l-11.224-5.428c11.24-12.446,21.294-23.214,30.736-32.915l10.958,5.711C2190.508,604.793,2180.541,615.467,2169.388,627.818z
			 M488.911,625.039l-11.339-5.299c10.572-12.116,21.473-23.06,32.399-32.525l10.278,6.353
			C509.706,602.701,499.163,613.29,488.911,625.039z M1819.838,605.01c-6.17-13.231-12.223-26.47-17.331-37.675l12.762-3.115
			c5.101,11.189,11.144,24.407,17.301,37.61L1819.838,605.01z M787.765,604.32c-13.75-9.797-27.271-18.452-40.185-25.724
			l8.204-7.803c13.326,7.504,27.244,16.41,41.366,26.472L787.765,604.32z M2604.96,603.899c-9.64-11.512-19.748-22.4-30.042-32.361
			l10.729-5.939c10.558,10.216,20.916,21.371,30.783,33.155L2604.96,603.899z M557.983,566.783l-8.16-7.828
			c16.066-8.969,32.787-15.437,49.699-19.224l3.937,9.415C588.077,552.59,572.777,558.524,557.983,566.783z M2232.307,563.771
			l-10.452-6.199c12.616-11.393,24.572-21.196,36.55-29.969l9.517,6.958C2256.278,543.092,2244.628,552.646,2232.307,563.771z
			 M1241.926,559.9l-13.43-0.586c1.165-14.311,2.322-27.306,3.536-39.73l13.419,0.703
			C1244.241,532.671,1243.088,545.629,1241.926,559.9z M703.1,557.839c-16.788-6.114-33.3-10.016-49.079-11.598l1.826-9.755
			c17.231,1.728,35.146,5.946,53.246,12.538L703.1,557.839z M2540.309,541.924c-12.952-9.711-26.363-18.282-39.858-25.476
			l7.921-7.958c14.103,7.517,28.088,16.453,41.565,26.558L2540.309,541.924z M1785.347,529.661
			c-6.693-14.648-12.208-26.592-17.357-37.589l12.725-3.192c5.162,11.02,10.688,22.986,17.39,37.658L1785.347,529.661z
			 M2308.186,509.43l-7.711-8.067c16.545-8.471,33.257-14.745,49.672-18.646l4.155,9.364
			C2339.156,495.681,2323.641,501.518,2308.186,509.43z M2454.98,497.368c-16.662-5.143-33.528-8.326-50.13-9.461l1.25-9.803
			c17.972,1.229,36.177,4.658,54.107,10.193L2454.98,497.368z M1249.755,480.76l-13.401-0.871c1.677-13.814,3.5-27.154,5.421-39.652
			l13.37,1.101C1253.236,453.759,1251.423,467.022,1249.755,480.76z M1750.089,454.626c-6.501-13.279-12.626-25.417-18.729-37.108
			l12.568-3.513c6.136,11.755,12.293,23.956,18.826,37.3L1750.089,454.626z M1261.995,402.08l-13.316-1.408
			c2.721-13.784,5.712-27.041,8.89-39.4l13.222,1.82C1267.649,375.315,1264.688,388.432,1261.995,402.08z M1711.374,380.758
			c-7.229-12.725-14.515-24.9-21.659-36.186l12.208-4.137c7.218,11.404,14.577,23.699,21.875,36.544L1711.374,380.758z
			 M1282.216,324.565l-13.053-2.386c4.692-13.748,9.866-26.698,15.375-38.49l12.729,3.185
			C1291.881,298.404,1286.817,311.085,1282.216,324.565z M1665.822,309.238c-8.848-12.195-17.887-23.644-26.865-34.028l11.369-5.265
			c9.159,10.594,18.371,22.26,27.38,34.675L1665.822,309.238z M1317.473,250.803l-12.064-4.357
			c8.834-13.098,18.63-24.68,29.117-34.424l10.568,6.092C1335.186,227.32,1325.893,238.318,1317.473,250.803z M1608.122,243.278
			c-11.755-10.784-23.889-20.338-36.062-28.394l9.025-7.302c12.712,8.412,25.347,18.357,37.555,29.557L1608.122,243.278z
			 M1382.628,192.596l-7.253-8.292c15.938-7.464,33.496-12.318,52.19-14.426l2.048,9.73
			C1412.785,181.506,1396.977,185.876,1382.628,192.596z M1529.612,192.59c-15.672-6.183-31.996-10.41-48.521-12.563l2.359-9.693
			c17.935,2.337,35.615,6.91,52.547,13.59L1529.612,192.59z"/>
		<path style="fill:#C3D6F4;" d="M208.55,1534.501c0,0-17.573,65.259,63.319,82.687c110.644,23.838,736.223,87.793,578.445,135.386
			c-89.066,26.866,69.353,62.023,503.168,75.456c433.815,13.433,1178.209-39.201,927.88-117.08
			c-250.328-77.878,772.427-14.457,710.302-176.448H208.55z"/>
		<path style="fill:#C3D6F4;" d="M425.218,1530.258c0,0-159.74-601.415,184.816-819.045
			c154.431-97.543,322.371,164.665,521.764,55.843c177.517-96.883,63.877-323.248,236.711-432.383
			c212.574-134.229,567.655,532.193,817.109,428.814c392.401-162.618,613.238,96.459,543.307,767.76L425.218,1530.258z"/>
		<path style="fill:#CDDFF9;" d="M2843.673,1221.777c-111.642-13.56-101.536,190.233-260.675,190.233
			c-145.5,0-223.359-455.315-383.024-362.71c-641.892,372.292-142.459-261.229-574.074-273.613
			c-195.164-5.599-325.212,164.929-373.169,466.857c-69.517,272.954-230.734-208.186-396.645-163.451
			c-105.445,28.431-93.369,332.916-238.868,332.916c-159.138,0-148.655-171.368-260.297-157.807
			c-120.201,14.6-148.369,280.298-148.369,280.298h2783.115C2991.665,1534.501,2963.874,1236.377,2843.673,1221.777z"/>
		<path style="fill:#D9EAFF;" d="M2736.578,1435.578c-102.708-5.796-85.948,46.568-232.352,46.568
			c-133.856,0-130.178-117.354-219.753-142.295c-164.957-45.93-300.951,186.528-364.904,69.862
			c-121.465-309.565-475.724-464.809-639.157,0c-63.953,116.666-213.508-91.507-364.904-69.862
			c-93.19,13.323-85.897,142.295-219.753,142.295c-146.403,0-129.643-52.363-232.351-46.568
			c-110.582,6.24-143.612,98.923-143.612,98.923H2880.19C2880.19,1534.501,2847.161,1441.818,2736.578,1435.578z"/>
	</g>
	<g id="_x38_">
		<path style="fill:#8A9EDD;" d="M2470.896,520.013V1585.11c0,18.312-14.849,33.161-33.168,33.161h-820.18
			c-18.381,0.086-33.274-15.174-33.168-33.161c0,0,0-1065.097,0-1065.097c0-18.312,14.849-33.161,33.168-33.161h820.18
			C2456.046,486.852,2470.896,501.701,2470.896,520.013z"/>
		<path style="fill:#7689D6;" d="M2470.896,520.013V1585.11c0,18.312-14.849,33.161-33.168,33.161h-820.18
			c-16.997,0-30.998-12.776-32.938-29.244c1.375-2.378,2.111-3.642,2.111-3.642s821.993-38.638,821.993-1095.59l3.433-2.943
			C2438.751,485.555,2469.096,485.625,2470.896,520.013z"/>
		<rect x="1646.561" y="537.381" style="fill:#E9F4FF;" width="762.152" height="1001.532"/>
		<path style="fill:#EB5648;" d="M2173.214,1460.434c-124.477-2.232-124.458-187.22,0.004-189.434
			C2297.691,1273.232,2297.671,1458.22,2173.214,1460.434z M2173.214,1286.229c-104.463,1.873-104.445,157.116,0.003,158.974
			C2277.676,1443.331,2277.66,1288.087,2173.214,1286.229z"/>
		<path style="fill:#FCB4B4;" d="M2269.017,466.407h-89.576v-52.001c0-12.567-10.189-22.749-22.756-22.749H1898.59
			c-12.567,0-22.756,10.182-22.756,22.749v52.001c-114.185,5.242-114.87-28.522-112.323,88.244
			c-0.001,12.569,10.18,22.758,22.747,22.758h482.759c12.567,0,22.749-10.189,22.749-22.756v-65.49
			C2291.765,476.596,2281.584,466.407,2269.017,466.407z M2027.637,451.803c-19.512-0.332-19.503-29.358,0.001-29.69
			C2047.143,422.449,2047.146,451.474,2027.637,451.803z"/>
		<path style="fill:#F49F9F;" d="M2291.765,489.164v65.49c0,12.567-10.182,22.756-22.749,22.756h-482.759
			c-12.567,0-22.749-10.189-22.749-22.756c0,0,393.175,21.642,393.175-162.996c12.567,0,22.756,10.182,22.756,22.749v52.001h89.576
			C2281.584,466.407,2291.765,476.596,2291.765,489.164z"/>
		<path style="fill:#F9C0C0;" d="M2027.637,391.658c-141.228,0-151.803,74.75-151.803,74.75v-52.001
			c0-12.567,10.189-22.749,22.756-22.749H2027.637z"/>
		<path style="fill:#8A9EDD;" d="M2024.609,1448.626c-2.475,0.132-4.932-0.122-7.343-0.774
			c-12.092-3.27-21.368-15.754-27.728-37.233c-5.723,7.23-12.853,14.847-21.738,22.638c-2.028,1.776-5.114,1.575-6.89-0.452
			c-1.778-2.027-1.575-5.112,0.452-6.89c11.007-9.651,19.117-18.955,25.09-27.469c-1.716-7.932-3.128-16.792-4.234-26.573
			c-3.109-27.51,0.966-45.198,11.181-48.526c4.32-1.408,10.548-0.075,15.077,7.883c5.708,10.03,6.262,25.625,1.48,41.717
			c-2.194,7.384-6.098,16.804-13.03,27.431c2.053,8.497,4.499,15.705,7.321,21.564c4.449,9.232,9.832,14.932,15.57,16.484
			c7.635,2.067,17.013-3.153,25.076-13.963c2.341-3.14,4.386-6.498,6.102-9.937c-8.597-10.288-10.559-22.75-9.129-31.897
			c1.216-7.781,4.886-13.133,9.816-14.317c2.317-0.554,6.814-0.626,10.969,5.117c0.07,0.096,0.136,0.195,0.198,0.295
			c6.361,10.299,4.975,25.141-0.265,38.628c1.379,1.167,2.923,2.287,4.654,3.338c5.01,3.042,8.887,4.172,11.214,3.263
			c3.708-1.447,5.939-9.169,7.907-15.983c2.041-7.066,4.151-14.372,8.513-19.4c1.647-1.897,6.657-7.67,13.166-6.429
			c7.646,1.463,11.065,11.229,14.682,21.568c1.749,4.997,3.549,10.141,5.574,13.478c3.427-4.164,8.928-17.257,12.716-26.272
			c5.674-13.503,11.541-27.467,17.561-34.195c3.304-3.693,6.519-4.874,9.552-3.511c5.819,2.616,4.849,11.01,2.726,29.404
			c-1.345,11.638-3.185,27.576-0.99,33.421c0.072,0.192,0.139,0.348,0.2,0.475c2.719-1.007,8.656-7.055,12.306-10.775
			c7.441-7.582,14.469-14.743,21.424-15.113c2.693-0.143,4.992,1.923,5.135,4.616c0.143,2.693-1.923,4.992-4.616,5.135
			c-3.163,0.168-10.27,7.411-14.974,12.203c-7.948,8.097-14.812,15.093-21.622,13.651c-2.209-0.467-5.216-2.019-6.995-6.757
			c-3.025-8.054-1.269-23.265,0.43-37.975c0.495-4.287,1.09-9.439,1.394-13.616c-4.098,6.762-8.522,17.29-12.527,26.822
			c-8.893,21.165-13.875,32.253-21.198,33.177c-1.627,0.2-4.762,0.034-7.393-3.437c-3.333-4.393-5.664-11.057-7.92-17.503
			c-1.773-5.067-5.073-14.499-7.312-15.204c0.014,0.008-1.263,0.152-3.942,3.24c-2.953,3.404-4.76,9.66-6.507,15.71
			c-2.722,9.424-5.537,19.171-13.74,22.371c-5.413,2.11-11.902,0.8-19.832-4.014c-1.348-0.818-2.618-1.677-3.815-2.571
			c-1.712,3.147-3.611,6.124-5.634,8.836C2044.197,1441.727,2034.269,1448.111,2024.609,1448.626z M2053.775,1378.052
			c-0.878,0.988-2.472,4.147-2.56,9.661c-0.042,2.603,0.301,9.093,4.077,15.842c2.779-9.659,2.769-18.83-0.659-24.544
			C2054.273,1378.531,2053.982,1378.232,2053.775,1378.052z M1996.52,1332.614c-0.036,0.002-0.068,0.008-0.096,0.016
			c-1.795,0.585-7.822,8.773-4.502,38.145c0.609,5.391,1.315,10.49,2.117,15.288c3.151-6.005,5.211-11.375,6.555-15.898
			c4.756-16.005,2.805-28.113-0.606-34.106C1998.523,1333.487,1997.081,1332.584,1996.52,1332.614z"/>
		<path style="fill:#8A9EDD;" d="M2347.686,871.323h-424.24c-4.377,0-7.925-3.549-7.925-7.925c0-4.377,3.549-7.926,7.925-7.926
			h424.24c4.377,0,7.926,3.549,7.926,7.926C2355.612,867.775,2352.063,871.323,2347.686,871.323z"/>
		<path style="fill:#8A9EDD;" d="M1875.834,871.323h-168.852c-4.377,0-7.925-3.548-7.925-7.925c0-4.377,3.549-7.926,7.925-7.926
			h168.852c4.377,0,7.925,3.548,7.925,7.926C1883.76,867.775,1880.211,871.323,1875.834,871.323z"/>
		<path style="fill:#8A9EDD;" d="M2347.686,937.813h-640.703c-4.377,0-7.925-3.549-7.925-7.925c0-4.377,3.549-7.925,7.925-7.925
			h640.703c4.377,0,7.926,3.549,7.926,7.925C2355.612,934.264,2352.063,937.813,2347.686,937.813z"/>
		<path style="fill:#EB5648;" d="M2306.277,677.947h-557.279c-6.68,0-12.096-5.416-12.096-12.097
			c0-6.681,5.416-12.097,12.096-12.097h557.279c6.68,0,12.097,5.416,12.097,12.097
			C2318.374,672.531,2312.957,677.947,2306.277,677.947z"/>
		<path style="fill:#EB5648;" d="M2222.851,744.437h-390.428c-6.68,0-12.096-5.416-12.096-12.097
			c0-6.681,5.416-12.096,12.096-12.096h390.428c6.68,0,12.096,5.416,12.096,12.096
			C2234.948,739.021,2229.532,744.437,2222.851,744.437z"/>
		<path style="fill:#8A9EDD;" d="M2347.686,1004.303h-207.208c-4.377,0-7.926-3.548-7.926-7.925s3.549-7.925,7.926-7.925h207.208
			c4.377,0,7.926,3.548,7.926,7.925S2352.063,1004.303,2347.686,1004.303z"/>
		<path style="fill:#8A9EDD;" d="M2078.51,1004.303h-371.527c-4.377,0-7.925-3.548-7.925-7.925s3.549-7.925,7.925-7.925h371.527
			c4.377,0,7.926,3.548,7.926,7.925S2082.886,1004.303,2078.51,1004.303z"/>
		<path style="fill:#8A9EDD;" d="M2347.686,1070.792H2146.9c-4.377,0-7.926-3.549-7.926-7.925s3.549-7.925,7.926-7.925h200.786
			c4.377,0,7.926,3.549,7.926,7.925S2352.063,1070.792,2347.686,1070.792z"/>
		<path style="fill:#8A9EDD;" d="M2083.621,1070.792h-199.368c-4.377,0-7.925-3.549-7.925-7.925s3.549-7.925,7.925-7.925h199.368
			c4.377,0,7.926,3.549,7.926,7.925S2087.998,1070.792,2083.621,1070.792z"/>
		<path style="fill:#8A9EDD;" d="M1829.725,1070.792h-122.743c-4.377,0-7.925-3.549-7.925-7.925s3.549-7.925,7.925-7.925h122.743
			c4.377,0,7.925,3.549,7.925,7.925S1834.102,1070.792,1829.725,1070.792z"/>
		<path style="fill:#8A9EDD;" d="M2347.686,1137.282h-640.703c-4.377,0-7.925-3.549-7.925-7.925c0-4.377,3.549-7.926,7.925-7.926
			h640.703c4.377,0,7.926,3.549,7.926,7.926C2355.612,1133.733,2352.063,1137.282,2347.686,1137.282z"/>
		<path style="fill:#8A9EDD;" d="M2347.686,1203.771H2078.51c-4.377,0-7.926-3.549-7.926-7.925c0-4.377,3.549-7.926,7.926-7.926
			h269.177c4.377,0,7.926,3.549,7.926,7.926C2355.612,1200.223,2352.063,1203.771,2347.686,1203.771z"/>
		<path style="fill:#8A9EDD;" d="M2013.006,1203.771h-306.024c-4.377,0-7.925-3.549-7.925-7.925c0-4.377,3.549-7.926,7.925-7.926
			h306.024c4.377,0,7.925,3.549,7.925,7.926C2020.932,1200.223,2017.383,1203.771,2013.006,1203.771z"/>
	</g>
	<g id="_x37_">
		<path style="fill:#8A9EDD;" d="M1025.318,602.493L633.122,709.549c-45.203,12.339-71.844,58.985-59.505,104.187l202.544,742.014
			c12.338,45.203,58.985,71.844,104.187,59.505l392.196-107.056c45.202-12.339,71.843-58.985,59.504-104.188l-202.544-742.014
			C1117.166,616.796,1070.52,590.155,1025.318,602.493z"/>
		<path style="fill:#1D3F70;" d="M901.207,1412.518c-0.003,0.01-30.004,59.535-29.934,59.547c0,0,62.91,31.661,62.91,31.661
			c25.548,13.946,57.251-12.81,47.196-39.961c-2.676-8.1-8.442-15.18-16.664-19.318
			C964.709,1444.446,901.216,1412.446,901.207,1412.518z"/>
		<path style="fill:#FFFFFF;" d="M792.844,1395.559c-8.101,16.411-1.456,36.303,14.909,44.538l63.467,31.941
			c0.076,0.03,30.006-59.532,29.975-59.56C872.299,1402.109,815.887,1351.583,792.844,1395.559z"/>
		<path style="fill:#1D3F70;" d="M1193.671,1333.192c-0.003,0.01-30.004,59.535-29.934,59.547c0,0,62.91,31.661,62.91,31.661
			c25.548,13.946,57.25-12.81,47.196-39.961c-2.676-8.1-8.442-15.18-16.665-19.318
			C1257.173,1365.119,1193.679,1333.12,1193.671,1333.192z"/>
		<path style="fill:#FFFFFF;" d="M1085.307,1316.233c-8.101,16.411-1.456,36.303,14.909,44.538l63.467,31.941
			c0.075,0.03,30.006-59.531,29.975-59.56C1164.762,1322.783,1108.351,1272.256,1085.307,1316.233z"/>
		<path style="fill:#1D3F70;" d="M741.889,825.137c-0.003,0.01-30.004,59.536-29.934,59.547c0,0,62.91,31.661,62.91,31.661
			c25.548,13.946,57.251-12.81,47.196-39.961c-2.676-8.1-8.442-15.18-16.664-19.319
			C805.391,857.065,741.897,825.065,741.889,825.137z"/>
		<path style="fill:#FFFFFF;" d="M633.525,808.178c-8.101,16.411-1.456,36.303,14.909,44.538l63.467,31.941
			c0.076,0.03,30.006-59.532,29.975-59.56C712.98,814.728,656.569,764.202,633.525,808.178z"/>
		<path style="fill:#1D3F70;" d="M1034.352,745.811c-0.003,0.01-30.004,59.535-29.934,59.547c0,0,62.91,31.661,62.91,31.661
			c25.548,13.946,57.251-12.81,47.196-39.961c-2.676-8.1-8.442-15.18-16.665-19.319
			C1097.854,777.738,1034.36,745.739,1034.352,745.811z"/>
		<path style="fill:#FFFFFF;" d="M925.989,728.852c-8.101,16.411-1.456,36.303,14.909,44.538l63.467,31.941
			c0.076,0.03,30.006-59.531,29.975-59.56C1005.444,735.402,949.032,684.875,925.989,728.852z"/>
		<path style="fill:#1D3F70;" d="M794.995,1020.931c-0.003,0.01-30.004,59.536-29.934,59.547c0,0,62.91,31.661,62.91,31.661
			c25.548,13.946,57.251-12.809,47.196-39.961c-2.676-8.1-8.442-15.18-16.664-19.318
			C858.497,1052.859,795.003,1020.859,794.995,1020.931z"/>
		<path style="fill:#FFFFFF;" d="M686.631,1003.972c-8.101,16.411-1.456,36.303,14.909,44.538l63.467,31.941
			c0.075,0.03,30.006-59.532,29.975-59.56C766.087,1010.522,709.675,959.995,686.631,1003.972z"/>
		<path style="fill:#1D3F70;" d="M1087.459,941.604c-0.003,0.01-30.004,59.536-29.934,59.547c0,0,62.91,31.661,62.91,31.661
			c25.548,13.946,57.25-12.809,47.196-39.961c-2.676-8.1-8.442-15.18-16.665-19.319
			C1150.961,973.532,1087.467,941.533,1087.459,941.604z"/>
		<path style="fill:#FFFFFF;" d="M979.095,924.646c-8.101,16.411-1.456,36.303,14.909,44.538l63.467,31.941
			c0.075,0.03,30.006-59.532,29.975-59.56C1058.55,931.195,1002.139,880.669,979.095,924.646z"/>
		<path style="fill:#1D3F70;" d="M848.101,1216.725c-0.003,0.01-30.004,59.535-29.934,59.546c0,0,62.91,31.661,62.91,31.661
			c25.548,13.946,57.25-12.81,47.196-39.961c-2.676-8.1-8.442-15.18-16.664-19.318
			C911.603,1248.652,848.109,1216.653,848.101,1216.725z"/>
		<path style="fill:#FFFFFF;" d="M739.737,1199.766c-8.101,16.411-1.456,36.303,14.909,44.538l63.467,31.941
			c0.076,0.03,30.006-59.532,29.975-59.56C819.193,1206.316,762.781,1155.789,739.737,1199.766z"/>
		<path style="fill:#1D3F70;" d="M1140.565,1137.398c-0.003,0.01-30.004,59.535-29.934,59.547c0,0,62.91,31.661,62.91,31.661
			c25.548,13.946,57.25-12.81,47.196-39.961c-2.676-8.1-8.442-15.18-16.664-19.318
			C1204.067,1169.326,1140.573,1137.326,1140.565,1137.398z"/>
		<path style="fill:#FFFFFF;" d="M1032.201,1120.439c-8.101,16.411-1.456,36.303,14.909,44.538l63.467,31.941
			c0.075,0.03,30.006-59.531,29.975-59.56C1111.656,1126.989,1055.245,1076.463,1032.201,1120.439z"/>
		<path style="fill:#7689D6;" d="M842.72,702.906c-6.786,1.841-10.795,8.833-8.954,15.619l213.561,787.363
			c1.841,6.786,8.834,10.796,15.62,8.955c6.786-1.841,10.795-8.835,8.954-15.621L858.34,711.86
			C856.499,705.074,849.506,701.065,842.72,702.906z"/>
	</g>
	<g id="_x36_">
		<path style="fill:#3A72AA;" d="M1663.496,1030.242v485.387c0,56.684-45.954,102.638-102.648,102.638h-417.225
			c-56.683,0-102.638-45.954-102.638-102.638v-485.387c0-40.959,15.834-78.042,41.439-104.876
			c25.595-26.843,60.959-43.447,100.031-43.447c10.649,0,19.291-9.051,19.291-20.22v-57.483h300.991V861.7
			c0,11.169,8.631,20.22,19.281,20.22C1600.149,881.92,1663.496,948.324,1663.496,1030.242z"/>
		<path style="fill:#23659B;" d="M1663.496,1030.242v485.387c0,56.684-45.954,102.638-102.648,102.638h-417.225
			c-56.683,0-102.638-45.954-102.638-102.638C1654.046,1515.629,1663.496,1030.242,1663.496,1030.242z"/>
		<path style="fill:#23659B;" d="M1489.874,845.263h-275.272c-24.104,0-43.645-19.54-43.645-43.644v-82.59
			c0-24.104,19.54-43.645,43.645-43.645h275.272c24.104,0,43.645,19.54,43.645,43.645v82.59
			C1533.519,825.722,1513.978,845.263,1489.874,845.263z"/>
		<rect x="1121.362" y="1018.563" style="fill:#FFFFFF;" width="461.753" height="472.014"/>
		<path style="fill:#EB5648;" d="M1272.698,1166.999c-0.945-2.21-2.738-5.22-5.481-9.202c-2.765-4.013-4.851-6.589-6.37-7.867
			c-1.476-1.258-3.458-2.482-6.005-3.702c3.747-1.294,6.873-2.817,9.33-4.547c5.295-3.732,9.511-8.664,12.532-14.659
			c3.015-5.983,4.543-13.167,4.543-21.351c0-9.395-1.999-17.503-5.941-24.099c-3.985-6.665-9.322-11.299-15.863-13.776
			c-6.366-2.409-15.619-3.63-27.502-3.63h-63.26c-0.947,0-1.715,0.767-1.715,1.714v143.321c0,0.947,0.768,1.714,1.715,1.714h38.123
			c0.947,0,1.715-0.767,1.715-1.714v-56.455h1.637c3.085,0,5.775,0.963,8.195,2.919c1.241,1.047,3.361,3.708,6.42,10.458
			l20.288,43.798c0.281,0.606,0.888,0.994,1.556,0.994h42.887c0.58,0,1.12-0.293,1.437-0.779c0.317-0.486,0.366-1.099,0.131-1.629
			L1272.698,1166.999z M1208.52,1096.534h14.959c6.427,0,10.787,1.084,12.956,3.222c2.193,2.162,3.259,5.249,3.259,9.435
			c0,2.813-0.688,5.222-2.104,7.366c-1.354,2.05-3.027,3.284-5.163,3.782c-5.983,1.57-8.533,1.9-9.619,1.9h-14.289V1096.534z"/>
		<path style="fill:#EB5648;" d="M1432.876,1208.359l-41.363-73.076l37.77-68.574c0.292-0.532,0.283-1.177-0.026-1.7
			c-0.309-0.522-0.869-0.842-1.476-0.842h-41.391c-0.66,0-1.261,0.378-1.546,0.973l-19.631,40.913l-20.184-40.93
			c-0.289-0.585-0.885-0.956-1.538-0.956h-41.81c-0.609,0-1.172,0.322-1.479,0.848c-0.308,0.525-0.313,1.174-0.016,1.705
			l38.043,67.785l-41.892,73.851c-0.301,0.531-0.297,1.181,0.01,1.709c0.307,0.527,0.871,0.851,1.482,0.851h42.396
			c0.636,0,1.22-0.352,1.517-0.915l22.74-43.167l22.74,43.167c0.297,0.563,0.881,0.915,1.517,0.915h42.647
			c0.61,0,1.174-0.324,1.481-0.851C1433.172,1209.54,1433.176,1208.889,1432.876,1208.359z"/>
		<path style="fill:#8A9EDD;" d="M1540.36,1265.971h-378.523c-3.149,0-5.701-2.552-5.701-5.7c0-3.148,2.552-5.7,5.701-5.7h378.523
			c3.149,0,5.7,2.552,5.7,5.7C1546.06,1263.418,1543.508,1265.971,1540.36,1265.971z"/>
		<path style="fill:#8A9EDD;" d="M1540.36,1313.571h-211.044c-3.149,0-5.701-2.552-5.701-5.7c0-3.148,2.552-5.7,5.701-5.7h211.044
			c3.149,0,5.7,2.552,5.7,5.7C1546.06,1311.019,1543.508,1313.571,1540.36,1313.571z"/>
		<path style="fill:#8A9EDD;" d="M1287.473,1313.571h-125.637c-3.149,0-5.701-2.552-5.701-5.7c0-3.148,2.552-5.7,5.701-5.7h125.637
			c3.148,0,5.7,2.552,5.7,5.7C1293.174,1311.019,1290.622,1313.571,1287.473,1313.571z"/>
		<path style="fill:#8A9EDD;" d="M1540.36,1361.171h-378.523c-3.149,0-5.701-2.552-5.701-5.7c0-3.148,2.552-5.701,5.701-5.701
			h378.523c3.149,0,5.7,2.552,5.7,5.701C1546.06,1358.619,1543.508,1361.171,1540.36,1361.171z"/>
		<path style="fill:#8A9EDD;" d="M1540.36,1408.772h-107.261c-3.149,0-5.7-2.552-5.7-5.7c0-3.148,2.552-5.7,5.7-5.7h107.261
			c3.149,0,5.7,2.552,5.7,5.7C1546.06,1406.22,1543.508,1408.772,1540.36,1408.772z"/>
		<path style="fill:#8A9EDD;" d="M1392.24,1408.772h-230.403c-3.149,0-5.701-2.552-5.701-5.7c0-3.148,2.552-5.7,5.701-5.7h230.403
			c3.149,0,5.701,2.552,5.701,5.7C1397.94,1406.22,1395.388,1408.772,1392.24,1408.772z"/>
		<path style="fill:#8A9EDD;" d="M1540.36,1456.373h-266.218c-3.149,0-5.7-2.552-5.7-5.7c0-3.148,2.552-5.701,5.7-5.701h266.218
			c3.149,0,5.7,2.552,5.7,5.701C1546.06,1453.82,1543.508,1456.373,1540.36,1456.373z"/>
		<path style="fill:#8A9EDD;" d="M1234.591,1456.373h-72.755c-3.149,0-5.701-2.552-5.701-5.7c0-3.148,2.552-5.701,5.701-5.701
			h72.755c3.149,0,5.7,2.552,5.7,5.701C1240.292,1453.82,1237.74,1456.373,1234.591,1456.373z"/>
		<path style="fill:#3A72AA;" d="M1214.414,825.758L1214.414,825.758c-7.448,0-13.487-6.038-13.487-13.487V708.375
			c0-7.448,6.038-13.487,13.487-13.487l0,0c7.448,0,13.487,6.038,13.487,13.487v103.897
			C1227.901,819.72,1221.862,825.758,1214.414,825.758z"/>
		<path style="fill:#3A72AA;" d="M1324.673,825.758L1324.673,825.758c-7.448,0-13.487-6.038-13.487-13.487V708.375
			c0-7.448,6.038-13.487,13.487-13.487l0,0c7.448,0,13.487,6.038,13.487,13.487v103.897
			C1338.16,819.72,1332.122,825.758,1324.673,825.758z"/>
		<path style="fill:#3A72AA;" d="M1269.544,825.758L1269.544,825.758c-7.448,0-13.487-6.038-13.487-13.487V708.375
			c0-7.448,6.038-13.487,13.487-13.487l0,0c7.448,0,13.487,6.038,13.487,13.487v103.897
			C1283.03,819.72,1276.992,825.758,1269.544,825.758z"/>
		<path style="fill:#3A72AA;" d="M1379.803,825.758L1379.803,825.758c-7.448,0-13.487-6.038-13.487-13.487V708.375
			c0-7.448,6.038-13.487,13.487-13.487l0,0c7.448,0,13.487,6.038,13.487,13.487v103.897
			C1393.29,819.72,1387.251,825.758,1379.803,825.758z"/>
		<path style="fill:#3A72AA;" d="M1434.932,825.758L1434.932,825.758c-7.448,0-13.487-6.038-13.487-13.487V708.375
			c0-7.448,6.038-13.487,13.487-13.487l0,0c7.448,0,13.487,6.038,13.487,13.487v103.897
			C1448.419,819.72,1442.381,825.758,1434.932,825.758z"/>
		<path style="fill:#3A72AA;" d="M1490.062,825.758L1490.062,825.758c-7.448,0-13.487-6.038-13.487-13.487V708.375
			c0-7.448,6.038-13.487,13.487-13.487l0,0c7.448,0,13.487,6.038,13.487,13.487v103.897
			C1503.549,819.72,1497.51,825.758,1490.062,825.758z"/>
	</g>
	<g id="_x35_">
		<path style="fill:#F39200;" d="M1797.606,1582.106v45.888c0,37.029-63.939,67.048-142.813,67.048
			c-39.782,0-75.765-7.637-101.662-19.959c-25.446-12.106-41.153-28.735-41.153-47.089v-45.888H1797.606z"/>
		<path style="fill:#F9B233;" d="M1797.607,1582.105c-1.339,80.234-268.47,97.264-285.068,5.985
			c-0.61-3.349-0.782-6.591-0.545-9.725c3.961-53.136,124.483-75.144,207.827-56.033
			C1761.061,1531.787,1793.197,1551.308,1797.607,1582.105z"/>
		<path style="fill:#F39200;" d="M1720.233,1522.498l-125.301,125.42c-3.25-0.649-5.709-2.535-8.83-3.293l122.682-124.656
			C1712.033,1520.618,1717.115,1521.742,1720.233,1522.498z"/>
	</g>
	<g id="_x34_">
		<path style="fill:#EB5648;" d="M1104.605,1655.43c0.005-0.015,11.678-100.538,11.776-100.493c0,0,106.2,12.396,106.2,12.396
			c44.037,3.654,61.887,64.051,26.465,90.078c-10.157,8.035-23.38,12.196-37.261,10.576
			C1211.778,1667.982,1104.555,1655.528,1104.605,1655.43z"/>
		<path style="fill:#FFFFFF;" d="M953.055,1586.436c3.434-27.572,28.471-47.242,56.096-44.017l107.14,12.506
			c0.121,0.025-11.672,100.535-11.736,100.544C1059.261,1644.485,945.546,1661.435,953.055,1586.436z"/>
	</g>
	<g id="_x33_">
		<path style="fill:#F99370;" d="M702.109,1421.647c-5.709,86.392-16.443,172.594-28.261,258.356
			c-2.752,20.313-26.974,24.189-29.218,2.023c-2.016-22.027-1.393-42.69-3.146-64.826c-4.037-64.553-9.771-129.21-16.923-193.502
			C619.646,1367.921,704.06,1365.573,702.109,1421.647z"/>
		<path style="fill:#F99370;" d="M639.809,1429.385L569.1,1685.564c-2.277,8.562-7.946,11.648-16.485,9.364
			c-7.622-2.038-12.466,0.458-11.803-7.16l22.585-271.808C569.782,1360.561,652.559,1375.033,639.809,1429.385z"/>
		<path style="fill:#1D3F70;" d="M673.848,1680.003c32.945,1.582,42.538,12.823,45.238,20.357c0.014,0.039,0.028,0.079,0.042,0.118
			c1.167,3.293-1.345,6.741-4.831,6.753l-71.685,0.233c-1.211-2.105-1.881-4.442-2.179-6.848
			c-1.221-9.755,3.691-20.516,3.691-20.516S658.986,1683.935,673.848,1680.003z"/>
		<path style="fill:#395B96;" d="M719.085,1700.36l-78.652,0.256c0.297,2.406,0.968,4.743,2.179,6.848l71.685-0.233
			c3.485-0.011,5.997-3.46,4.831-6.753L719.085,1700.36z"/>
		<path style="fill:#1D3F70;" d="M575.922,1699.854v6.436h-41.625v-6.436c0-11.53,9.32-20.875,20.807-20.875
			C566.602,1678.979,575.922,1688.324,575.922,1699.854z"/>
		<rect x="534.297" y="1699.854" style="fill:#395B96;" width="41.625" height="6.436"/>
		<path style="fill:#163260;" d="M558.403,1054.698c-7.937,13.747-4.718,30.464,7.188,37.338
			c11.906,6.874,27.993,1.303,35.929-12.444c7.937-13.747,4.719-30.464-7.188-37.338
			C582.426,1035.38,566.34,1040.951,558.403,1054.698z"/>
		<path style="fill:#163260;" d="M591.513,1069.079c0,0-28.051-11.049-30.718-51.173c-2.799-42.106,38.411-50.569,55.011-38.599
			L591.513,1069.079z"/>
		<path style="fill:#FFFFFF;" d="M641.545,1100.398c0,0,69.492,14.942,95.987,111.016l-67.138,15.285L641.545,1100.398z"/>
		<path style="fill:#D1E0F2;" d="M671.391,1125.946c0,0,20.392,18.991,24.711,30.866c4.318,11.875-11.747,12.595-11.747,12.595
			L671.391,1125.946z"/>
		<path style="fill:#163260;" d="M607.95,975.72c40.601-11.432,67.606,47.567,48.125,78.307L607.95,975.72z"/>
		<path style="fill:#F99370;" d="M563.462,1312.13h126.739c0.654-50.116-5.13-100.78-16.902-149.447
			c-7.025-28.403-11.065-51.114-38.131-66.291c1.929-16.82-0.702-41.076-3.048-51.068c-1.234-5.396-5.095-9.477-9.435-10.832
			c-11.102-3.856-24.246,5.603-20.83,18.117c1.007-0.633,4.229,35.047,2.005,44.953c-55.01,17.556-26.969,80.054-30.728,121.985
			C572.843,1250.356,569.871,1282.01,563.462,1312.13z"/>
		<path style="fill:#E57D61;" d="M601.556,1050.985c0.077,0.542,0.173,1.093,0.299,1.624c0.726-0.481,2.758,19.206,2.776,33.495
			c13.427,6.106,28.354,3.356,31.094,2.793c0.772-19.544,1.556-49.08-13.041-54.405
			C612.205,1030.009,599.712,1039.562,601.556,1050.985z"/>
		<path style="fill:#F99370;" d="M580.459,1037.826c2.255,13.989,6.977,29.757,18.027,39.011h0.018
			c4.463,3.708,9.904,6.069,15.668,7.203c32.643,9.129,70.925-28.818,45.415-56.458c-9.27-8.566-11.237-23.74-18.625-32.26
			c-10.745-15.593-34.325-14.785-47.058-2.068C582.396,1004.753,578.462,1020.599,580.459,1037.826z"/>
		<path style="fill:#C16256;" d="M633.846,1029.199c1.28-2.431-2.568-4.386-3.776-1.918
			C628.79,1029.712,632.638,1031.667,633.846,1029.199z"/>
		<path style="fill:#C16256;" d="M651.649,1026.206c1.28-2.431-2.568-4.386-3.776-1.918
			C646.593,1026.719,650.441,1028.674,651.649,1026.206z"/>
		<path style="fill:#C16256;" d="M644.917,1044.623c3.876-0.046,9.905-2.66,5.003-6.105c-3.999-2.165-6.941-10.459-6.97-10.543
			c-4.137-3.123,1.751,9.792,6.206,11.952c3.137,1.923-3.397,3.785-6.1,2.834c-0.423-0.136-0.873,0.097-1.008,0.518
			C641.819,1044.718,643.914,1044.515,644.917,1044.623z"/>
		<path style="fill:#CE4ABF;" d="M724.691,1577.301c0,0-94.489,52.115-201.833,0.438c0,0,0.721-10.256,1.995-27.125
			c5.584-74.814,21.644-279.748,31.05-298.394c14.541,3.783,29.467,6.357,44.343,8.056c32.633,3.796,71.816,3.577,102.609,0.116
			c4.156,21.554,20.164,222.64,21.708,305.201C724.652,1569.825,724.691,1573.736,724.691,1577.301z"/>
		<path style="fill:#3A72AA;" d="M557.258,1247.493c0,0,62.177,55.107,145.604,12.894c-0.114-0.149-11.769-131.39-67.692-163.995
			c0,0,6.741,25.511-31.308,1.17C556.92,1112.972,574.61,1188.6,557.258,1247.493z"/>
		<path style="fill:#A523A2;" d="M702.864,1260.385c0,0-74.907,30.394-145.606-12.892l-7.704,19.068
			c0,0,57.735,49.217,155.69,16.461L702.864,1260.385z"/>
		<path style="fill:#FFFFFF;" d="M600.238,1260.275c-0.017,0.112-0.026,0.233-0.043,0.353c-2.963,23.26-6.562,148.382-6.562,260.077
			c0,0-4.082,0.474-10.584,0.741c-17.491,0.741-52.489,0.009-72.555-15.389c0,0,11.867-216.217,15.424-235.189
			c9.662-57.346,39.227-115.028,66.363-163.056c1.412-2.497,2.816-4.969,4.211-7.415
			C630.629,1147.537,611.313,1204.487,600.238,1260.275z"/>
		<path style="fill:#E57D61;" d="M580.459,1037.826c2.255,13.989,6.977,29.757,18.027,39.011h0.018
			c-6.124-7.603-9.943-24.613-9.943-24.613l2.894-7.566c48.573-15.677,44.445-54.816,44.445-54.816
			c-7.246-6.331-17.066-7.484-26.373-5.169C586.722,990.569,577.59,1015.197,580.459,1037.826z"/>
		<path style="fill:#163260;" d="M630.963,986.283c0,0,3.646,38.685-39.823,54.476l-15.601-8.611
			C560.324,1002.297,588.132,958.24,630.963,986.283z"/>
		<path style="fill:#FFFFFF;" d="M730.509,1515.305c-3.807,3.204-10.239,4.788-15.665,5.563v0.008
			c-5.279,0.758-9.602,0.758-9.602,0.758c-8.095-55.512-23.062-299.76-33.913-354.764c-0.043-0.215-0.086-0.431-0.129-0.637
			c-5.813-25.431-23.174-48.252-36.032-69.842c0.431,0.138,0.853,0.276,1.283,0.413c53.962,17.87,63.719,106.485,73.072,221.918
			C716.265,1401.957,730.509,1515.305,730.509,1515.305z"/>
		<path style="fill:#D1E0F2;" d="M595.234,1301.302c0,0-42.137,8.103-71.254-11.86c0,0,0.046-10.651,1.937-18.561
			c1.892-7.911,70.006,24.402,70.006,24.402L595.234,1301.302z"/>
		<path style="fill:#D1E0F2;" d="M600.238,1260.275c-0.017,0.112-0.026,0.233-0.043,0.353c-2.963,23.26-6.562,148.382-6.562,260.077
			c0,0-4.082,0.474-10.584,0.741l8.172-254.393c14.683-60.954,34.973-120.651,5.271-166.656c0,0,1.755-1.03,3.648-1.763
			c1.76-0.681,3.666-1.068,3.72-1.072C637.998,1144.703,611.313,1204.487,600.238,1260.275z"/>
		<path style="fill:#D1E0F2;" d="M714.844,1520.869v0.008c-5.279,0.758-9.602,0.758-9.602,0.758
			c-8.095-55.512-23.062-299.76-33.913-354.764c-0.043-0.215-0.086-0.431-0.129-0.637c-5.813-25.431-23.174-48.252-36.032-69.842
			c0.431,0.138,0.853,0.276,1.283,0.413c2.695,0.922,5.49,2.007,8.039,3.342c2.558,2.773,5.474,6.578,8.195,10.282
			c14.132,19.023,26.206,43.929,29.306,69.609C687.665,1225.724,709.152,1474.235,714.844,1520.869z"/>
		<path style="fill:#D1E0F2;" d="M605.386,1167.879c0,0-4.109,15.984-17.153,34.306c-13.043,18.322-34.224,55.927,12.179,56.845
			l-1.821,13.989l-51.83-6.195l10.497-71.507L605.386,1167.879z"/>
		<path style="fill:#F99370;" d="M581.357,1109.385c-34.497,25.514-67.339,73.011-70.737,115.164
			c-3.568,79.969,70.872,86.348,127.593,55.531c11.957-6.076,2.017-24.452-10.813-21.05c-9.347,2.402-15.953,4.502-25.167,4.759
			c-81.782,2.287-32.57-63.599-0.859-93.238C601.374,1170.551,604.423,1093.205,581.357,1109.385z"/>
		<path style="fill:#FFFFFF;" d="M523.61,1283.989c7.929,4.671,17.715,8.198,29.589,10.28c0,0,0.143-26.139,18.01-34.69
			c0,0-16.639-23.048,6.199-54.09c12.398-16.852,28.574-28.264,31.238-50.541c1.609-13.442-12.154-54.551-12.154-54.551
			c-13.915,3.645-51.187,17.149-75.886,55.649C492.032,1200.591,480.93,1258.85,523.61,1283.989z"/>
		<polygon style="fill:#1D3F70;" points="645.298,1310.459 737.002,1303.412 765.191,1146.432 673.487,1153.479 		"/>
		<path style="fill:#F99370;" d="M743.786,1248.516c4.02,0.785,12.012-3.667,5.904-7.269c-2.323-1.249-4.498-0.136-6.383,0.621
			l0.192,0.01C737.297,1241.597,738.306,1248.223,743.786,1248.516z"/>
		<path style="fill:#F99370;" d="M746.005,1242.444c2.739-0.315,5.8-1.332,7.102-3.959c1.749-4.225-6.959-6.621-8.5-2.885
			c0.02-0.082,0.1-0.085-0.078,0.006c-0.173,0.086-0.51,0.181-0.737,0.214c-0.006,0.003-0.115,0.014,0.034-0.001
			C737.571,1236.708,741.12,1243.123,746.005,1242.444z"/>
		<path style="fill:#F99370;" d="M748.567,1236.161l3.798-1.408c5.457-2.553-0.965-7.867-4.785-6.053c0,0-3.798,1.407-3.798,1.407
			C738.326,1232.661,744.747,1237.974,748.567,1236.161z"/>
		<path style="fill:#F99370;" d="M749.787,1230.349l3.798-1.408c5.457-2.553-0.965-7.866-4.785-6.053c0,0-3.798,1.408-3.798,1.408
			C739.546,1226.848,745.968,1232.162,749.787,1230.349z"/>
		<path style="fill:#F99370;" d="M626.281,1269.178c0.019-0.899,0.295-1.73,0.749-2.435c-1.247-1.51-2.225-5.698-0.875-7.391
			c6.596-8.271,23.26-13.104,32.815-14.464c3.799-0.542,7.645-0.677,11.444-0.449c3.698,0.137,3.763,5.946,0.009,6.105
			c-4.063,0.252-8.054,0.964-11.914,2.18c4.87-0.522,9.9-0.743,14.8-0.591c3.612-0.033,4.052,5.596,0.423,6.08
			c-6.881,0.98-13.701,2.752-20.26,5.036c6.469-0.769,12.889-1.906,19.247-3.336c3.69-0.879,5.208,4.879,1.527,5.912
			c-6.947,2.132-14.005,3.898-21.147,5.258c3.617-0.215,7.34-0.612,10.934-1.066c3.629-0.52,4.76,5.118,1.144,5.994
			c-1.322,0.351-2.643,0.717-3.972,1.057c-9.401,2.325-19.016,4.104-28.737,4.24c-4.638,0.516-7.883-5.122-4.847-8.751
			C626.769,1271.687,626.253,1270.49,626.281,1269.178z"/>
		<path style="fill:#C16256;" d="M609.137,1043.531c0.353,0,0.658-0.265,0.699-0.624c0.044-0.387-0.233-0.736-0.62-0.781
			l-17.996-2.068c-0.384-0.046-0.736,0.233-0.78,0.62c-0.044,0.387,0.233,0.736,0.62,0.781l17.996,2.068
			C609.083,1043.529,609.11,1043.531,609.137,1043.531z"/>
		<path style="fill:#C16256;" d="M602.778,1066.233c0.24,0,0.474-0.123,0.606-0.344c0.199-0.334,0.09-0.767-0.244-0.967
			l-18.293-10.918c-0.334-0.199-0.767-0.09-0.966,0.244c-0.199,0.334-0.09,0.767,0.244,0.966l18.293,10.918
			C602.53,1066.201,602.655,1066.233,602.778,1066.233z"/>
		<path style="fill:#F99370;" d="M571.574,1044.894c3.442,15.899,22.854,11.794,19.566-4.136
			C587.698,1024.86,568.286,1028.964,571.574,1044.894z"/>
		<path style="fill:#C16256;" d="M576.62,1048.18c0.528,0.006,0.929-0.531,0.766-1.036c-3.03-8.457,0.719-12.011,6.423-9.664
			c0.957,0.394,1.559-1.13,0.584-1.493c-6.676-2.729-12.156,1.499-8.538,11.625C575.959,1047.958,576.276,1048.18,576.62,1048.18z"
			/>
		<path style="fill:#C16256;" d="M584.101,1047.06c2.49-0.198-2.255-7.878-8.333-8.289c-0.43-0.028-0.824,0.305-0.853,0.747
			c-0.029,0.442,0.305,0.823,0.746,0.853C581.879,1041.013,582.629,1046.853,584.101,1047.06z"/>
		<path style="fill:#F4D4BE;" d="M580.333,1052.228c-0.034,2.334,3.632,2.334,3.598,0
			C583.965,1049.894,580.299,1049.894,580.333,1052.228z"/>
		<path style="fill:#FFFFFF;" d="M663.935,1033.362c0,0-13.388,11.432-55.985,7.396c0,0,1.229,16.272-6.576,25.009
			c0,0,21.677,16.913,46.242,12.969c0,0,17.054-7.624,20.397-22.907C671.356,1040.547,663.935,1033.362,663.935,1033.362z"/>
		<path style="fill:#C16256;" d="M622.393,1025.269c0.238,0,0.47-0.121,0.603-0.339c4.592-7.569,11.091-8.115,11.156-8.119
			c0.387-0.028,0.681-0.364,0.654-0.751c-0.026-0.387-0.359-0.677-0.748-0.655c-0.294,0.02-7.276,0.569-12.267,8.794
			c-0.202,0.333-0.096,0.766,0.237,0.968C622.142,1025.236,622.268,1025.269,622.393,1025.269z"/>
		<path style="fill:#C16256;" d="M650.911,1018.162c0.235,0,0.465-0.118,0.599-0.332c0.206-0.33,0.105-0.765-0.226-0.971
			c-0.205-0.128-5.075-3.107-10.513-1.889c-0.38,0.085-0.619,0.462-0.534,0.842c0.085,0.38,0.462,0.62,0.842,0.533
			c4.88-1.094,9.414,1.682,9.46,1.71C650.655,1018.127,650.784,1018.162,650.911,1018.162z"/>
		<path style="fill:#1D3F70;" d="M623.719,1259.991c0,0-2.271,13.076,7.465,23.674c0,0-0.829,2.568-5.431,2.465
			c0,0-8.158-11.037-7.258-24.788C618.495,1261.342,620.576,1258.773,623.719,1259.991z"/>
		<path style="fill:#A523A2;" d="M724.691,1577.301c0,0-94.489,52.115-201.833,0.438c0,0,0.721-10.256,1.995-27.125
			c9.458,1.634,21.039,6.395,34.537,16.973c40.753,31.925,65.819,4.929,92.366,0c24.179-4.491,32.196,17.166,72.807-1.995
			C724.652,1569.825,724.691,1573.736,724.691,1577.301z"/>
	</g>
	<g id="_x32_">
		<path style="fill:#F99370;" d="M2653.914,1689.728c-9.762-12.887,2.112-71.797,1.698-86.856h-44.336
			c-0.502,15.015,10.631,74.062,1.323,86.829C2609.962,1694.31,2656.563,1694.259,2653.914,1689.728z"/>
		<path style="fill:#F99370;" d="M2436.852,1707.463h77.603c4.598,0,8.201-3.947,7.781-8.526c-0.737-8.023-2.464-19.044-1.91-24.15
			c-0.308-4.699,6.459-65.612,6.964-71.914h-48.886l7.888,62.891c0.93,7.417-3.497,14.482-10.595,16.823
			c-9.589,3.163-20.509,4.535-27.723,6.393c-6.964,1.758-13.226,4.188-16.354,9.538
			C2429.302,1702.48,2432.263,1707.463,2436.852,1707.463z"/>
		<path style="fill:#395B96;" d="M2524.826,1699.276l-0.01,0.086c-0.565,4.625-4.492,8.101-9.152,8.101h-78.187
			c-4.484,0-7.765-4.351-6.398-8.622c4.121-12.875,17.035-20.849,53.649-24.056c0.002,0.002,13.464,4.009,35.599,0.002
			C2520.326,1674.787,2526.25,1687.621,2524.826,1699.276z"/>
		<path style="fill:#395B96;" d="M2650.315,1707.464h-34.096c-4.776,0-8.674-3.956-8.455-8.727
			c1.472-32.097,49.754-32.36,51.009,0.031C2658.956,1703.528,2655.078,1707.464,2650.315,1707.464z"/>
		<path style="fill:#E8C0A6;" d="M2455.873,1696.385c-0.688,0-1.339-0.41-1.613-1.086c-3.146-7.761-8.819-10.136-9.059-10.234
			c-2.091-0.807-0.797-4.088,1.284-3.233c0.295,0.116,7.266,2.953,10.999,12.16
			C2457.962,1695.103,2457.075,1696.408,2455.873,1696.385z"/>
		<path style="fill:#E8C0A6;" d="M2469.387,1694.754c-0.742,0-1.43-0.479-1.661-1.225c-2.766-8.935-10.612-13.143-10.691-13.185
			c-2.006-1.013-0.378-4.154,1.607-3.085c0.374,0.195,9.199,4.879,12.407,15.242
			C2471.409,1693.594,2470.534,1694.771,2469.387,1694.754z"/>
		<path style="fill:#E8C0A6;" d="M2484.769,1692.863c-0.72,0-1.393-0.45-1.643-1.168c-3.265-9.384-10.746-14.416-10.822-14.465
			c-1.897-1.213,0.053-4.178,1.919-2.902c0.347,0.23,8.542,5.743,12.188,16.224
			C2486.818,1691.655,2485.938,1692.883,2484.769,1692.863z"/>
		<path style="fill:#E8C0A6;" d="M2645.797,1685.19c-13.272-7.5-25.074,2.329-26.984-1.022c-1.559-3.524,15.823-8.805,27.864-2.219
			C2648.204,1682.775,2647.503,1685.255,2645.797,1685.19z"/>
		<path style="fill:#4867AA;" d="M2430.944,1699.276h93.882l-0.01,0.086c-0.565,4.625-4.492,8.101-9.152,8.101h-79.012
			c-4.171,0-7.145-4.114-5.758-8.047C2430.911,1699.37,2430.927,1699.323,2430.944,1699.276z"/>
		<path style="fill:#4867AA;" d="M2651.01,1707.464h-35.494c-4.404,0-7.978-3.646-7.793-8.047c0.002-0.047,0.004-0.094,0.006-0.141
			h51.068c0.002,0.057,0.005,0.114,0.007,0.171C2658.967,1703.837,2655.403,1707.464,2651.01,1707.464z"/>
		<path style="fill:#8C4225;" d="M2534.859,906.124c0,0-4.468-25.187,17.638-33.34l13.962,10.491L2534.859,906.124z"/>
		<path style="fill:#FFFFFF;" d="M2496.606,1094.265c-62.051,46.731-159.149,32.741-195.061-35.232l9.091-18.894
			c104.103,44.748,145.081-42.926,229.544-47.973l-17.014,21.705C2523.166,1013.871,2498.066,1092.777,2496.606,1094.265z"/>
		<path style="fill:#EB5648;" d="M2660.968,1662.82c0,0-37.313,9.063-56.535-0.676c-10.006-62.743-37.779-237.446-47.453-357.163
			c-0.37,6.981-20.693,288.511-24.562,357.163c-13.272,4.441-39.958,9.798-54.892-0.958c-6.708-72.27-28.249-310.206,4.199-504.533
			c0,0,88.92,9.892,158.361-11.092C2659.2,1207.199,2664.263,1588.848,2660.968,1662.82z"/>
		<path style="fill:#F99370;" d="M2549.832,990.52c-0.615-19.167-2.997-57.18,12.557-62.276
			c11.172-3.878,24.396,5.638,20.958,18.228c-1.013-0.637-4.255,35.263-2.017,45.226
			C2610.812,1000.541,2522.145,1029.624,2549.832,990.52z"/>
		<path style="fill:#E57D61;" d="M2583.649,944.837c-0.077,0.546-0.174,1.1-0.301,1.634c-0.73-0.484-2.775,19.323-2.793,33.698
			c-13.509,6.143-28.215,3.735-30.971,3.169c-0.753-19.842-1.965-49.553,12.808-55.095
			C2572.935,923.734,2585.505,933.344,2583.649,944.837z"/>
		<path style="fill:#F99370;" d="M2604.876,931.597c-2.269,14.074-7.02,29.938-18.136,39.248h-0.018
			c-16.205,12.271-39.943,10.964-56.426-2.565h-0.009c-12.72-11.884-16.744-27.887-10.049-40.215
			c4.38-7.267,12.445-13.661,14.621-21.943C2553.734,851.026,2612.887,881.84,2604.876,931.597z"/>
		<path style="fill:#C16256;" d="M2551.163,922.919c-1.288-2.446,2.583-4.413,3.799-1.93
			C2556.249,923.435,2552.378,925.402,2551.163,922.919z"/>
		<path style="fill:#C16256;" d="M2533.252,919.908c-1.288-2.446,2.583-4.413,3.799-1.93
			C2538.338,920.424,2534.467,922.391,2533.252,919.908z"/>
		<path style="fill:#E57D61;" d="M2604.871,931.599c-2.268,14.074-7.02,29.938-18.136,39.248h-0.018
			c-0.922,0.767-1.553,1.137-2.557,1.785c8.461-8.397,13.027-26.064,13.027-26.064l-1.99-15.252
			c-13.655-13.837-7.777-29.399-7.777-29.399c-22.837,6.407-30.531-7.685-30.531-7.685c-7.22,0.931-14.813-2.793-14.813-2.793
			C2568.054,853.856,2612.912,893.833,2604.871,931.599z"/>
		<path style="fill:#8C4225;" d="M2597.869,894.919c-9.708,3.838-13.115,26.385,9.824,41.799
			C2607.693,936.718,2618.806,899.573,2597.869,894.919z"/>
		<path style="fill:#D1E0F2;" d="M2319.348,1043.713c3.877,19.087-13.006,23.529-13.006,23.529
			c-3.219-4.834-4.802-8.221-4.798-8.209l9.091-18.894C2310.636,1040.14,2314.647,1041.49,2319.348,1043.713z"/>
		<path style="fill:#C16256;" d="M2540.025,938.437c-3.9-0.047-9.965-2.676-5.033-6.142c4.022-2.179,6.983-10.523,7.012-10.607
			c0.328-0.986,1.884-0.454,1.522,0.533c-0.128,0.367-3.197,9.016-7.766,11.492c-3.157,1.934,3.421,3.809,6.137,2.851
			c0.428-0.136,0.878,0.098,1.015,0.521C2543.141,938.532,2541.035,938.328,2540.025,938.437z"/>
		<path style="fill:#E8C0A6;" d="M2648.998,1232.692c-48.283,20.074-168.544,21.706-180.208,7.492
			c-22.807-56.306,19.28-206.405,71.385-248.01c0.458-0.128,6.339-1.63,9.642-1.635c-0.228,0.922-6.062,25.191,31.515,1.159
			c0.214,0.254,9.167,0.413,11.552,2.058C2590.185,1033.014,2666.55,1189.71,2648.998,1232.692z"/>
		<path style="fill:#D1E0F2;" d="M2494.141,1025.855l-23.338,83.552c-36.399,20.061-98.609,15.946-127.5-6.626
			c103.429,40.065,111.869-39.109,149.442-76.925H2494.141z"/>
		<path style="fill:#8C4225;" d="M2594.086,873.254c-7.602-9.018-21.442-13.426-24.611-22.605c0,0-4.697,8.793-4.151,18.617
			c-3.683-4.126-7.059-8.644-9.703-13.491c-3.731,3.766-5.726,8.081-6.326,12.511c-11.847-2.58-22.233,2.171-22.233,2.171
			c6.088,17.204,20.29,20.992,31.429,21.056c9.243,8.846,24.004,12.859,38.28,4.098l13.753,17.776
			C2630.065,879.517,2594.086,873.254,2594.086,873.254z"/>
		<path style="fill:#CE3932;" d="M2532.418,1662.144c-0.31-6.033,24.562-357.163,24.562-357.163s-11.747,6.271-14.54,43.556
			c-2.428,32.417-16.917,247.84-20.659,303.539c-25.515,5.703-45.412-3.478-45.412-3.478c0.776,8.16,1.157,12.587,1.157,12.587
			c12.217,8.799,32.294,6.814,46.463,3.37c3.44-0.798,6.115-1.649,7.461-2.096
			C2531.779,1662.354,2532.106,1662.249,2532.418,1662.144z"/>
		<path style="fill:#CE3932;" d="M2660.968,1662.82c0,0-37.313,9.063-56.535-0.676c0,0-0.794-4.856-2.181-13.545
			c0,0,26.288,7.099,59.174-0.267C2661.572,1656.803,2660.849,1662.117,2660.968,1662.82z"/>
		<path style="fill:#FFFFFF;" d="M2684.661,1485.112c-35.539,10.04-65.907,9.503-81.196,8.22c-6.767-0.563-10.576-1.27-10.576-1.27
			s-11.938-246.704-15.564-298.854c-5.851-53.799-10.131-178.139,15.564-199.45l9.508,3.051
			C2664.809,1074.263,2678.902,1447.178,2684.661,1485.112z"/>
		<path style="fill:#FFFFFF;" d="M2478.405,1494.026c0,0-3.403,0.51-8.469,0.694c-10.066,0.38-26.716-0.589-36.023-9.608
			c-1.191-19.91-17.344-467.228,94.888-491.903l0.013-0.013c3.652-0.798,7.435-1.152,11.362-1.034
			C2466.899,1061.12,2471.166,1436.091,2478.405,1494.026z"/>
		<path style="fill:#FFFFFF;" d="M2585.623,959.336c0,0.005-39.02,23.268-55.336,8.943c-14.395-12.638-16.697-27.86-10.049-40.215
			c0,0,18.358,6.395,59.842,4.642C2580.08,932.707,2577.18,951.414,2585.623,959.336z"/>
		<path style="fill:#C16256;" d="M2580.079,933.513c-0.904,0.027-1.108-1.368-0.21-1.585l17.176-4.644
			C2602.628,929.077,2579.889,933.01,2580.079,933.513z"/>
		<path style="fill:#C16256;" d="M2585.624,960.143c-0.763,0.027-1.115-1.067-0.447-1.478c0.487,0.151,16.76-12.268,16.879-10.249
			C2603.278,949.659,2586.19,959.69,2585.624,960.143z"/>
		<path style="fill:#F99370;" d="M2613.813,938.709c-3.462,15.996-22.993,11.866-19.685-4.161
			C2597.591,918.553,2617.121,922.683,2613.813,938.709z"/>
		<path style="fill:#C16256;" d="M2608.737,942.015c-0.531,0.007-0.935-0.534-0.771-1.042c3.049-8.509-0.724-12.085-6.462-9.723
			c-5.644-1.926,14.333-7.131,8.003,10.194C2609.402,941.792,2609.082,942.015,2608.737,942.015z"/>
		<path style="fill:#C16256;" d="M2601.21,940.888c-2.444-0.345,2.193-7.833,8.384-8.339c1.047-0.091,1.151,1.556,0.107,1.609
			C2603.469,934.802,2602.686,940.682,2601.21,940.888z"/>
		<path style="fill:#D1E0F2;" d="M2594.449,1040.926c-4.031,31.416,25.52,82.089-20.719,96.28l34.827,8.355l9.716-37.661
			L2594.449,1040.926z"/>
		<path style="fill:#D1E0F2;" d="M2478.405,1494.026c0,0-3.403,0.51-8.469,0.694c-6.859-65.109-4.935-148.661-3.39-189.737
			c1.61-42.411,6.767-130.034,21.009-207.238c14.255-77.204,41.246-104.536,41.246-104.536l0.013-0.013
			c3.652-0.798,7.435-1.152,11.362-1.034C2466.899,1061.12,2471.166,1436.091,2478.405,1494.026z"/>
		<path style="fill:#D1E0F2;" d="M2655.424,1180.856l0.602,5.949c-27.482,13.572-78.706,6.41-78.706,6.41
			c-0.52-7.931-1.031-15.553-1.515-22.873l72.417-21.258C2650.543,1161.784,2653.625,1167.681,2655.424,1180.856z"/>
		<path style="fill:#D1E0F2;" d="M2603.465,1493.333c-6.767-0.563-10.576-1.27-10.576-1.27s-11.938-246.704-15.564-298.854
			c-5.851-53.799-10.136-178.143,15.56-199.453l9.513,3.055c-8.644,5.1-20.687,41.245-20.36,93.591
			c0.445,70.175,7.579,155.35,11.139,214.582C2596.227,1355.771,2601.908,1463.632,2603.465,1493.333z"/>
		<path style="fill:#F99370;" d="M2490.953,1127.29c-2.75,3.394,8.666,8.109,10.667,11.644c-7.585,1.345-15.617,0.508-15.654,0.545
			c-9.153-2.693-18.143-5.877-26.993-9.468c-2.808-1.219-4.923,3.094-2.184,4.548c8.135,4.543,16.495,8.745,25.032,12.505
			c-0.02,0.079-0.015,0.059-0.034,0.138c-9.442-0.719-18.862-1.93-28.132-3.871c-1.149-0.241-2.36-0.113-3.387,0.455
			c-8.874,4.911,28.428,10.805,31.528,11.496c-0.005,0.04-0.004,0.031-0.009,0.071c-8.931,0.819-17.962,0.611-26.869-0.504
			c-1.313-0.164-2.668,0.138-3.699,0.968c-7.126,5.732,29.996,8.472,33.345,8.092c0.016,0.034,0.031,0.069,0.047,0.103
			c-6.866,1.653-13.927,2.487-20.985,2.948c-1.146,0.075-2.255,0.507-3.088,1.296c-6.839,6.482,25.352,4.325,28.467,3.741
			c3.693,0.212,14.966,4.372,31.896-1.528c5.277-1.835,7.632-26.284,2.284-27.51c-4.013-0.92-11.122-5.009-13.368-6.185
			C2506.409,1134.043,2494.721,1123.554,2490.953,1127.29z"/>
		<path style="fill:#FFFFFF;" d="M2532.527,1174.54c-3.805-1.26-7.674-2.619-11.624-4.071c-0.648-3.405-4.635-19.46,2.281-27.51
			c165.238-7.216,39.3-62.661,79.214-146.149C2720.899,1004.622,2780.174,1244.045,2532.527,1174.54z"/>
		<path style="fill:#D1E0F2;" d="M2532.531,1174.54c-3.806-1.26-7.676-2.619-11.628-4.071c-0.648-3.405-4.636-19.46,2.282-27.51
			c0,0,4.526-0.478,9.346-0.478C2532.531,1142.482,2524.38,1156.833,2532.531,1174.54z"/>
		<path style="fill:#C16256;" d="M2561.326,919.598c-0.248,0-0.486-0.142-0.596-0.382c-2.836-6.214-9.508-6.063-9.555-6.055
			c-0.346-0.006-0.665-0.271-0.677-0.632c-0.011-0.362,0.271-0.665,0.631-0.677c0.081-0.006,7.598-0.175,10.793,6.82
			c0.15,0.33,0.005,0.717-0.323,0.868C2561.51,919.579,2561.417,919.598,2561.326,919.598z"/>
		<path style="fill:#C16256;" d="M2534.49,912.074c-0.198,0-0.395-0.09-0.523-0.261c-0.217-0.289-0.161-0.697,0.126-0.914
			c0.151-0.114,3.762-2.783,9.705-0.681c0.34,0.122,0.519,0.495,0.399,0.836c-0.122,0.341-0.493,0.519-0.836,0.399
			c-5.245-1.852-8.35,0.395-8.479,0.491C2534.765,912.031,2534.627,912.074,2534.49,912.074z"/>
		<path style="fill:#D1A68F;" d="M2592.866,993.755c-8.042,7.551-57.076,40.252-52.692-1.585c0.459-0.124,6.339-1.626,9.643-1.632
			c-0.228,0.922-4.023,23.627,31.515,1.159C2581.483,991.601,2590.54,992.232,2592.866,993.755z"/>
		<path style="fill:#FCB4B4;" d="M2376.374,990.952c-0.021,12.003-2.48,697.279-2.41,680.843
			c-0.282,47.109-90.783,46.888-90.719-0.329c0.101-8.68,2.269-652.34,2.418-680.835l6.316,0.026L2376.374,990.952z"/>
		<path style="fill:#EB5648;" d="M2374.086,1637.174c0.058,5.692-0.162,28.486-0.122,34.615
			c1.137,33.846-56.072,47.333-79.053,23.985v-0.009c-16.773-11.848-10.625-41.852-11.544-58.914L2374.086,1637.174z"/>
		<path style="fill:#F49F9F;" d="M2316.715,1616.633c-6.259-2.504-4.009-626.676,2.207-629.158
			C2325.174,989.999,2322.923,1614.127,2316.715,1616.633z"/>
		<path style="fill:#FFE7D7;" d="M2376.374,990.952c-15.264-0.049-74.384-0.263-90.71-0.322
			c11.055-28.64,34.905-90.432,45.769-118.584C2342.044,900.115,2365.588,962.409,2376.374,990.952z"/>
		<path style="fill:#EB5648;" d="M2349.658,920.259c-11.474,4.097-25.553,3.989-36.782-0.13l18.556-48.082L2349.658,920.259z"/>
		<polygon style="fill:#F9C0C0;" points="2291.979,990.656 2291.979,1613.338 2283.454,1613.338 2285.664,990.63 		"/>
		<path style="fill:#CE3932;" d="M2374.052,1645.891l-0.087,25.899c1.135,33.849-56.07,47.33-79.053,23.985v-0.009
			c0,0,59.036,1.2,59.036-49.953L2374.052,1645.891z"/>
		<path style="fill:#93ABE5;" d="M2383.151,1637.844c-0.016,4.467-3.651,8.067-8.099,8.047l-21.401-0.078l-71.311-0.252
			c-10.491,0.116-10.382-16.366,0.053-16.146c-0.001,0,92.711,0.33,92.711,0.33
			C2379.567,1629.753,2383.168,1633.381,2383.151,1637.844z"/>
		<path style="fill:#93ABE5;" d="M2383.212,1621.698c-0.017,4.452-3.648,8.057-8.108,8.047l-21.41-0.078l-71.302-0.252
			c-10.47,0.109-10.389-16.357,0.062-16.155c-0.001,0,92.711,0.33,92.711,0.33
			C2379.619,1613.607,2383.221,1617.235,2383.212,1621.698z"/>
		<path style="fill:#D2E6FF;" d="M2360.645,1637.844c-0.018,4.089-3.062,7.447-6.995,7.969l-71.311-0.252
			c-4.463-0.017-8.064-3.645-8.047-8.099c0.018-4.089,3.054-7.447,6.986-7.969l71.319,0.252
			C2357.059,1629.752,2360.663,1633.384,2360.645,1637.844z"/>
		<path style="fill:#D2E6FF;" d="M2360.698,1621.698c-0.009,4.08-3.053,7.447-7.003,7.969l-71.302-0.252
			c-4.454-0.017-8.056-3.645-8.038-8.108c0.009-4.08,3.053-7.447,7.003-7.969l71.302,0.252
			C2357.113,1613.607,2360.715,1617.235,2360.698,1621.698z"/>
		<polygon style="fill:#F49F9F;" points="2376.374,990.952 2374.173,1613.364 2353.433,1613.633 2353.433,990.952 		"/>
		<path style="fill:#EDD5C5;" d="M2376.374,990.952h-22.941c-0.01-0.008-21.992-118.872-22.001-118.906
			C2342.044,900.115,2365.588,962.409,2376.374,990.952z"/>
		<path style="fill:#CE3932;" d="M2349.658,920.259c-2.827,0.983-5.802,1.749-8.891,2.271l-9.334-50.484L2349.658,920.259z"/>
		<path style="fill:#F99370;" d="M2285.598,1069.014c-13.543-2.444-8.879-17.848,2.193-8.746l-0.227-0.04
			C2294.686,1061.359,2292.2,1070.225,2285.598,1069.014z"/>
		<path style="fill:#F99370;" d="M2284.494,1060.281c-15.596-6.185-2.175-19.137,3.315-8.752c-0.104-0.195,0.54,0.428,0.769,0.462
			c0.042,0.025,0.296,0.126,0.09,0.049C2295.503,1054.592,2290.356,1062.643,2284.494,1060.281z"/>
		<path style="fill:#F99370;" d="M2283.041,1051.167l-4.096-2.947c-5.591-4.376,2.622-10.457,7.081-6.744
			c0,0,4.095,2.946,4.095,2.946C2295.712,1048.799,2287.5,1054.88,2283.041,1051.167z"/>
		<path style="fill:#F99370;" d="M2283.041,1043.06l-4.096-2.947c-5.591-4.376,2.622-10.457,7.081-6.744
			c0-0.001,4.095,2.946,4.095,2.946C2295.712,1040.692,2287.5,1046.773,2283.041,1043.06z"/>
	</g>
	<g id="_x31_">
		<polygon style="fill:#FFFFFF;" points="1494.019,474.001 1449.812,474.001 1449.812,429.794 1420.054,429.794 1420.054,474.001 
			1375.846,474.001 1375.846,503.76 1420.054,503.76 1420.054,547.966 1449.812,547.966 1449.812,503.76 1494.019,503.76 		"/>
		<polygon style="fill:#8A9EDD;" points="1042.375,387.2 998.168,387.2 998.168,342.994 968.41,342.994 968.41,387.2 924.203,387.2 
			924.203,416.959 968.41,416.959 968.41,461.166 998.168,461.166 998.168,416.959 1042.375,416.959 		"/>
		<polygon style="fill:#8A9EDD;" points="1888.812,274.712 1844.605,274.712 1844.605,230.506 1814.847,230.506 1814.847,274.712 
			1770.64,274.712 1770.64,304.471 1814.847,304.471 1814.847,348.678 1844.605,348.678 1844.605,304.471 1888.812,304.471 		"/>
	</g>
</g>
</svg>
