<?xml version="1.0" encoding="utf-8"?>
<!-- Generator: Adobe Illustrator 27.5.0, SVG Export Plug-In . SVG Version: 6.00 Build 0)  -->
<svg version="1.1" id="Слой_1" xmlns="http://www.w3.org/2000/svg" xmlns:xlink="http://www.w3.org/1999/xlink" x="0px" y="0px"
	 viewBox="0 0 3065.25 2000" style="enable-background:new 0 0 3065.25 2000;" xml:space="preserve">
<g>
	<rect style="fill:#FAFAFA;" width="3065.25" height="2000"/>
	<g>
		<g>
			<g>
				<g>
					<g>
						<g>
							<g>
								<linearGradient id="SVGID_1_" gradientUnits="userSpaceOnUse" x1="2431.4617" y1="169.3096" x2="1459.3212" y2="757.0643">
									<stop  offset="0" style="stop-color:#40D5E6"/>
									<stop  offset="1" style="stop-color:#5577FF"/>
								</linearGradient>
								<polygon style="fill:url(#SVGID_1_);" points="1227.916,879.911 1218.398,869.825 1464.562,637.558 1713.698,691.544 
									1951.67,420.165 2159.217,431.874 2320.857,208.911 2332.086,217.051 2165.998,446.147 1957.639,434.392 1718.741,706.827 
									1468.765,652.659 								"/>
							</g>
						</g>
					</g>
				</g>
				<g>
					<g>
						<g>
							<path style="fill:#FFFFFF;" d="M1752.365,691.359c4.321,19.962-8.357,39.648-28.318,43.971
								c-19.963,4.322-39.649-8.357-43.972-28.319c-4.322-19.962,8.356-39.648,28.318-43.971
								C1728.355,658.719,1748.043,671.397,1752.365,691.359z"/>
						</g>
					</g>
				</g>
				<g>
					<g>
						<g>
							
								<linearGradient id="SVGID_00000003106119989940262450000007340958548071122620_" gradientUnits="userSpaceOnUse" x1="1750.552" y1="671.8055" x2="1681.8878" y2="726.5645">
								<stop  offset="0" style="stop-color:#4F90F8"/>
								<stop  offset="1" style="stop-color:#5577FF"/>
							</linearGradient>
							<path style="fill:url(#SVGID_00000003106119989940262450000007340958548071122620_);" d="M1725.514,742.107
								c-23.668,5.125-47.092-9.961-52.215-33.628c-5.125-23.669,9.96-47.092,33.627-52.216
								c23.668-5.125,47.092,9.961,52.217,33.629C1764.266,713.56,1749.182,736.982,1725.514,742.107z M1709.861,669.817
								c-16.193,3.507-26.516,19.533-23.009,35.727c3.507,16.192,19.532,26.515,35.726,23.008
								c16.193-3.506,26.516-19.533,23.01-35.726C1742.081,676.633,1726.055,666.31,1709.861,669.817z"/>
						</g>
					</g>
				</g>
				<g>
					<g>
						<g>
							<path style="fill:#FFFFFF;" d="M1990.727,421.789c4.322,19.962-8.355,39.648-28.318,43.971
								c-19.962,4.323-39.648-8.357-43.971-28.318c-4.322-19.962,8.355-39.648,28.318-43.971
								C1966.719,389.148,1986.404,401.826,1990.727,421.789z"/>
						</g>
					</g>
				</g>
				<g>
					<g>
						<g>
							
								<linearGradient id="SVGID_00000171703047231168854360000013641649014938426284_" gradientUnits="userSpaceOnUse" x1="1992.1664" y1="406.8914" x2="1916.9974" y2="452.3384">
								<stop  offset="0" style="stop-color:#49ACF1"/>
								<stop  offset="1" style="stop-color:#5577FF"/>
							</linearGradient>
							<path style="fill:url(#SVGID_00000171703047231168854360000013641649014938426284_);" d="M1963.876,472.537
								c-23.668,5.125-47.091-9.961-52.216-33.627c-5.125-23.668,9.961-47.092,33.629-52.216
								c23.667-5.125,47.09,9.961,52.215,33.629C2002.629,443.989,1987.543,467.412,1963.876,472.537z M1948.223,400.247
								c-16.193,3.506-26.515,19.533-23.008,35.727c3.506,16.194,19.533,26.515,35.727,23.008
								c16.193-3.506,26.515-19.533,23.008-35.726C1980.443,407.061,1964.416,396.741,1948.223,400.247z"/>
						</g>
					</g>
				</g>
				<g>
					<g>
						<g>
							<path style="fill:#FFFFFF;" d="M2196.754,430.038c4.322,19.962-8.357,39.648-28.318,43.971
								c-19.963,4.322-39.649-8.356-43.972-28.318c-4.322-19.963,8.356-39.648,28.318-43.971
								C2172.744,397.397,2192.432,410.076,2196.754,430.038z"/>
						</g>
					</g>
				</g>
				<g>
					<g>
						<g>
							
								<linearGradient id="SVGID_00000029743580575134996010000014825802617175655298_" gradientUnits="userSpaceOnUse" x1="2198.1934" y1="415.14" x2="2123.0239" y2="460.5874">
								<stop  offset="0" style="stop-color:#48B3EF"/>
								<stop  offset="1" style="stop-color:#5577FF"/>
							</linearGradient>
							<path style="fill:url(#SVGID_00000029743580575134996010000014825802617175655298_);" d="M2169.902,480.786
								c-23.668,5.125-47.091-9.96-52.216-33.628c-5.125-23.668,9.961-47.091,33.628-52.215c23.668-5.126,47.092,9.96,52.217,33.628
								C2208.654,452.238,2193.569,475.661,2169.902,480.786z M2154.25,408.496c-16.193,3.507-26.516,19.533-23.009,35.728
								c3.507,16.193,19.532,26.515,35.727,23.008c16.192-3.506,26.515-19.532,23.009-35.726
								C2186.47,415.311,2170.443,404.99,2154.25,408.496z"/>
						</g>
					</g>
				</g>
				<g>
					<g>
						<g>
							<path style="fill:#FFFFFF;" d="M1502.609,640.704c4.322,19.962-8.356,39.648-28.318,43.971
								c-19.962,4.322-39.648-8.356-43.971-28.319c-4.323-19.962,8.356-39.648,28.318-43.971
								C1478.6,608.063,1498.287,620.741,1502.609,640.704z"/>
						</g>
					</g>
				</g>
				<g>
					<g>
						<g>
							
								<linearGradient id="SVGID_00000030484655819578753630000008759658495162073756_" gradientUnits="userSpaceOnUse" x1="1504.0491" y1="625.8063" x2="1428.8799" y2="671.2535">
								<stop  offset="0" style="stop-color:#40D5E6"/>
								<stop  offset="1" style="stop-color:#5577FF"/>
							</linearGradient>
							<path style="fill:url(#SVGID_00000030484655819578753630000008759658495162073756_);" d="M1475.758,691.452
								c-23.667,5.125-47.091-9.961-52.216-33.629c-5.125-23.667,9.96-47.091,33.628-52.215c23.667-5.125,47.091,9.96,52.215,33.627
								C1514.511,662.904,1499.426,686.327,1475.758,691.452z M1460.105,619.162c-16.193,3.507-26.515,19.533-23.009,35.727
								c3.506,16.194,19.533,26.516,35.727,23.009c16.194-3.506,26.515-19.533,23.009-35.727
								C1492.326,625.977,1476.299,615.656,1460.105,619.162z"/>
						</g>
					</g>
				</g>
			</g>
			<g style="opacity:0.18;">
				
					<linearGradient id="SVGID_00000133490803798994599510000010614640976599530118_" gradientUnits="userSpaceOnUse" x1="1420.8164" y1="771.4249" x2="1572.2158" y2="771.4249">
					<stop  offset="0" style="stop-color:#D5E4FF"/>
					<stop  offset="1" style="stop-color:#EDFFFE"/>
				</linearGradient>
				
					<rect x="1420.816" y="756.848" style="fill:url(#SVGID_00000133490803798994599510000010614640976599530118_);" width="151.399" height="29.154"/>
			</g>
			<g>
				
					<linearGradient id="SVGID_00000036973612893583679830000011875905192950818199_" gradientUnits="userSpaceOnUse" x1="1559.6582" y1="544.4111" x2="1711.0586" y2="544.4111">
					<stop  offset="0" style="stop-color:#D5E4FF"/>
					<stop  offset="1" style="stop-color:#EDFFFE"/>
				</linearGradient>
				
					<rect x="1559.658" y="529.834" style="opacity:0.18;fill:url(#SVGID_00000036973612893583679830000011875905192950818199_);" width="151.4" height="29.153"/>
			</g>
			<g style="opacity:0.18;">
				
					<linearGradient id="SVGID_00000086664162531031285620000013413888414828148116_" gradientUnits="userSpaceOnUse" x1="1848.8301" y1="709.8829" x2="2000.2305" y2="709.8829">
					<stop  offset="0" style="stop-color:#40D5E6"/>
					<stop  offset="1" style="stop-color:#5577FF"/>
				</linearGradient>
				
					<rect x="1848.83" y="695.306" style="fill:url(#SVGID_00000086664162531031285620000013413888414828148116_);" width="151.4" height="29.154"/>
			</g>
			<g>
				
					<linearGradient id="SVGID_00000030446342736767348500000007347640029287696558_" gradientUnits="userSpaceOnUse" x1="2122.2231" y1="263.0189" x2="1998.4437" y2="337.8557">
					<stop  offset="0" style="stop-color:#40D5E6"/>
					<stop  offset="1" style="stop-color:#5577FF"/>
				</linearGradient>
				
					<rect x="1984.634" y="285.86" style="opacity:0.18;fill:url(#SVGID_00000030446342736767348500000007347640029287696558_);" width="151.399" height="29.154"/>
			</g>
			<g style="opacity:0.18;">
				
					<linearGradient id="SVGID_00000085930514957065296030000010070149319290165379_" gradientUnits="userSpaceOnUse" x1="2204.5303" y1="544.4111" x2="2355.9297" y2="544.4111">
					<stop  offset="0" style="stop-color:#40D5E6"/>
					<stop  offset="1" style="stop-color:#5577FF"/>
				</linearGradient>
				
					<rect x="2204.53" y="529.834" style="fill:url(#SVGID_00000085930514957065296030000010070149319290165379_);" width="151.399" height="29.153"/>
			</g>
		</g>
		<g>
			<defs>
				<filter id="Adobe_OpacityMaskFilter" filterUnits="userSpaceOnUse" x="792.931" y="37.186" width="623.145" height="875.545">
					<feFlood  style="flood-color:white;flood-opacity:1" result="back"/>
					<feBlend  in="SourceGraphic" in2="back" mode="normal"/>
				</filter>
			</defs>
			
				<mask maskUnits="userSpaceOnUse" x="792.931" y="37.186" width="623.145" height="875.545" id="SVGID_00000078018372884419960820000005083761599250133662_">
				<g style="filter:url(#Adobe_OpacityMaskFilter);">
					<defs>
						
							<filter id="Adobe_OpacityMaskFilter_00000032627622171280260850000010477108841459941813_" filterUnits="userSpaceOnUse" x="792.931" y="37.186" width="623.145" height="875.545">
							<feFlood  style="flood-color:white;flood-opacity:1" result="back"/>
							<feBlend  in="SourceGraphic" in2="back" mode="normal"/>
						</filter>
					</defs>
					
						<mask maskUnits="userSpaceOnUse" x="792.931" y="37.186" width="623.145" height="875.545" id="SVGID_00000078018372884419960820000005083761599250133662_">
						<g style="filter:url(#Adobe_OpacityMaskFilter_00000032627622171280260850000010477108841459941813_);">
						</g>
					</mask>
					
						<linearGradient id="SVGID_00000163763248187730258010000011206364120457590444_" gradientUnits="userSpaceOnUse" x1="1279.678" y1="87.9222" x2="732.1516" y2="1323.7654">
						<stop  offset="0" style="stop-color:#FFFFFF"/>
						<stop  offset="1" style="stop-color:#000000"/>
					</linearGradient>
					
						<polygon style="mask:url(#SVGID_00000078018372884419960820000005083761599250133662_);fill:url(#SVGID_00000163763248187730258010000011206364120457590444_);" points="
						1385.672,138.723 1416.076,91.509 1331.719,37.186 1301.315,84.4 1284.318,73.454 1263.138,106.344 1245.511,94.993 
						811.687,768.669 829.313,780.02 792.931,836.516 911.282,912.731 947.665,856.234 965.292,867.585 1399.116,193.909 
						1381.49,182.558 1402.669,149.669 					"/>
				</g>
			</mask>
			
				<linearGradient id="SVGID_00000147911108242103826670000008521072104674926745_" gradientUnits="userSpaceOnUse" x1="1279.678" y1="87.9222" x2="732.1516" y2="1323.7654">
				<stop  offset="0" style="stop-color:#40D5E6"/>
				<stop  offset="1" style="stop-color:#5577FF"/>
			</linearGradient>
			<polygon style="fill:url(#SVGID_00000147911108242103826670000008521072104674926745_);" points="1385.672,138.723 
				1416.076,91.509 1331.719,37.186 1301.315,84.4 1284.318,73.454 1263.138,106.344 1245.511,94.993 811.687,768.669 
				829.313,780.02 792.931,836.516 911.282,912.731 947.665,856.234 965.292,867.585 1399.116,193.909 1381.49,182.558 
				1402.669,149.669 			"/>
			<defs>
				
					<filter id="Adobe_OpacityMaskFilter_00000153704735595971727170000015298429234004610439_" filterUnits="userSpaceOnUse" x="736.236" y="588.446" width="658.063" height="888.064">
					<feFlood  style="flood-color:white;flood-opacity:1" result="back"/>
					<feBlend  in="SourceGraphic" in2="back" mode="normal"/>
				</filter>
			</defs>
			
				<mask maskUnits="userSpaceOnUse" x="736.236" y="588.446" width="658.063" height="888.064" id="SVGID_00000058547953456561795160000009846991448318861247_">
				<g style="filter:url(#Adobe_OpacityMaskFilter_00000153704735595971727170000015298429234004610439_);">
					<defs>
						
							<filter id="Adobe_OpacityMaskFilter_00000179640667827964195090000016873922710232488860_" filterUnits="userSpaceOnUse" x="736.236" y="588.446" width="658.063" height="888.064">
							<feFlood  style="flood-color:white;flood-opacity:1" result="back"/>
							<feBlend  in="SourceGraphic" in2="back" mode="normal"/>
						</filter>
					</defs>
					
						<mask maskUnits="userSpaceOnUse" x="736.236" y="588.446" width="658.063" height="888.064" id="SVGID_00000058547953456561795160000009846991448318861247_">
						<g style="filter:url(#Adobe_OpacityMaskFilter_00000179640667827964195090000016873922710232488860_);">
						</g>
					</mask>
					
						<linearGradient id="SVGID_00000017487974626503690860000016322920190839660435_" gradientUnits="userSpaceOnUse" x1="1535.3083" y1="201.1756" x2="987.7792" y2="1437.025">
						<stop  offset="0" style="stop-color:#FFFFFF"/>
						<stop  offset="1" style="stop-color:#000000"/>
					</linearGradient>
					
						<path style="mask:url(#SVGID_00000058547953456561795160000009846991448318861247_);fill:url(#SVGID_00000017487974626503690860000016322920190839660435_);" d="
						M1177.896,1130.229l-2.673,0.431c57.631-53.271,93.097-113.479,105.841-180.21c35.708-186.951-129.254-355.189-136.017-362.003
						l-43.568,67.656c1.358,1.374,130.3,132.932,102.289,279.586c-17.493,91.583-95.879,170.101-233.026,233.585l-48.67-25.49
						l9.359-17.871l-185.311-97.051l-9.886,18.875l95.932,50.241l-45.11,86.135l183.125,95.905l-28.361,86.097H799.192v110.396
						h595.106v-110.396h-216.402V1130.229z"/>
				</g>
			</mask>
			
				<linearGradient id="SVGID_00000093871018704356195430000009472187612775819948_" gradientUnits="userSpaceOnUse" x1="1535.3083" y1="201.1756" x2="987.7792" y2="1437.025">
				<stop  offset="0" style="stop-color:#40D5E6"/>
				<stop  offset="1" style="stop-color:#5577FF"/>
			</linearGradient>
			<path style="fill:url(#SVGID_00000093871018704356195430000009472187612775819948_);" d="M1177.896,1130.229l-2.673,0.431
				c57.631-53.271,93.097-113.479,105.841-180.21c35.708-186.951-129.254-355.189-136.017-362.003l-43.568,67.656
				c1.358,1.374,130.3,132.932,102.289,279.586c-17.493,91.583-95.879,170.101-233.026,233.585l-48.67-25.49l9.359-17.871
				l-185.311-97.051l-9.886,18.875l95.932,50.241l-45.11,86.135l183.125,95.905l-28.361,86.097H799.192v110.396h595.106v-110.396
				h-216.402V1130.229z"/>
		</g>
		<g>
			<g>
				<g>
					<path style="fill:#40D5E6;" d="M848.616,123.217c-53.081-8.212-103.43,19.467-126.369,64.979
						c-5.554,11.018-9.501,23.081-11.491,35.939c-6.023,38.945,7.273,76.425,32.757,102.682
						c17.661,18.196,41.174,31.003,68.167,35.177c2.683,0.417,5.37,0.742,8.038,0.977c12.099,1.058,23.983,0.28,35.364-2.126
						c47.742-10.07,86.558-48.696,94.462-99.771C959.74,195.135,914.555,133.417,848.616,123.217z M919.659,256.452
						c-5.922,38.295-35.024,67.25-70.816,74.804c-8.531,1.8-17.444,2.386-26.515,1.588c-2.002-0.176-4.016-0.417-6.029-0.729
						c-20.237-3.13-37.864-12.734-51.103-26.374c-19.11-19.687-29.081-47.785-24.561-76.982c1.49-9.639,4.451-18.684,8.611-26.946
						c17.193-34.12,54.946-54.877,94.745-48.721C893.43,160.74,927.305,207.014,919.659,256.452z"/>
				</g>
			</g>
			<g>
				<g>
					<path style="fill:#1A598C;" d="M765.196,305.741l-21.684,21.076c-25.483-26.256-38.779-63.737-32.757-102.682
						c1.99-12.859,5.937-24.921,11.491-35.939l27,13.617c-4.161,8.263-7.121,17.307-8.611,26.946
						C736.116,257.956,746.086,286.055,765.196,305.741z"/>
				</g>
			</g>
			<g>
				<g>
					<path style="fill:#2273B5;" d="M822.328,332.844l-2.61,30.126c-2.668-0.234-5.355-0.56-8.038-0.977
						c-26.993-4.174-50.506-16.98-68.167-35.177l21.684-21.076c13.238,13.64,30.865,23.244,51.103,26.374
						C818.313,332.427,820.326,332.668,822.328,332.844z"/>
				</g>
			</g>
			<g>
				<g>
					<path style="fill:#3788CC;" d="M855.081,360.845c-11.381,2.406-23.265,3.183-35.364,2.126l2.61-30.126
						c9.071,0.798,17.983,0.212,26.515-1.588L855.081,360.845z"/>
				</g>
			</g>
		</g>
		<rect x="731.237" y="420.845" style="fill:#3788CC;" width="148.115" height="18.637"/>
		<rect x="731.237" y="460.458" style="fill:#3788CC;" width="171.562" height="18.637"/>
		<g>
			<path style="fill:#F5F5F5;" d="M1882.998,1625.758h-769.39c-26.581,0-48.129-21.548-48.129-48.129V881.214
				c0-26.581,21.548-48.129,48.129-48.129h769.39c26.581,0,48.129,21.548,48.129,48.129v696.414
				C1931.127,1604.21,1909.579,1625.758,1882.998,1625.758z"/>
			<g>
				<g>
					<path style="fill:#78C3FF;" d="M1386.297,1073.192c17.54-49.05,1.708-101.924-35.753-133.787
						c-8.927-7.6-19.083-13.999-30.311-18.876c-2.477-1.074-5.014-2.077-7.591-2.997c-25.921-9.272-52.908-9.223-77.299-1.587
						c-35.194,11.018-64.984,37.837-78.361,75.236c-4.416,12.349-6.715,24.933-7.089,37.363
						c-1.543,51.347,29.765,100.064,80.74,118.294C1293.958,1169.484,1363.648,1136.514,1386.297,1073.192z M1240.892,1118.147
						c-38.219-13.67-61.695-50.202-60.533-88.692c0.284-9.32,2.007-18.757,5.318-28.012c10.025-28.041,32.361-48.146,58.751-56.406
						c18.283-5.725,38.516-5.763,57.95,1.188c1.934,0.692,3.834,1.444,5.692,2.25c8.419,3.652,16.036,8.454,22.729,14.148
						c28.082,23.891,39.953,63.53,26.8,100.304C1340.618,1110.404,1288.37,1135.126,1240.892,1118.147z"/>
				</g>
				<g>
					<path style="fill:#1173C2;" d="M1244.429,945.038l-9.085-29.092c-35.194,11.018-64.984,37.837-78.361,75.236
						c-4.416,12.349-6.715,24.933-7.089,37.363l30.465,0.91c0.284-9.32,2.007-18.757,5.318-28.012
						C1195.702,973.402,1218.038,953.298,1244.429,945.038z"/>
				</g>
				<g>
					<path style="fill:#1487E3;" d="M1308.071,948.476l12.163-27.946c-2.477-1.074-5.014-2.077-7.591-2.997
						c-25.921-9.272-52.908-9.223-77.299-1.587l9.085,29.092c18.283-5.725,38.516-5.763,57.95,1.188
						C1304.313,946.918,1306.212,947.669,1308.071,948.476z"/>
				</g>
				<g>
					<path style="fill:#4AAFFF;" d="M1350.544,939.406c-8.927-7.6-19.083-13.999-30.311-18.876l-12.163,27.946
						c8.419,3.652,16.036,8.454,22.729,14.148L1350.544,939.406z"/>
				</g>
			</g>
			<g>
				<rect x="1731.604" y="1320.39" style="fill:#4AAFFF;" width="42.26" height="144.746"/>
			</g>
			<g>
				<rect x="1668.779" y="1360.984" style="fill:#4AAFFF;" width="42.26" height="104.151"/>
			</g>
			<g>
				<rect x="1792.549" y="1253.303" style="fill:#4AAFFF;" width="42.26" height="211.833"/>
			</g>
			<g>
				<polygon style="fill:#4AAFFF;" points="1827.992,1147.482 1827.244,1142.912 1715.726,1161.176 1679.57,1238.23 
					1559.332,1246.394 1520.384,1303.846 1428.461,1301.564 1428.346,1306.193 1522.798,1308.537 1561.898,1250.861 
					1682.604,1242.666 1718.882,1165.352 				"/>
			</g>
			<path style="fill:#1487E3;" d="M1690.508,954.602h122.572c6.926,0,12.539-5.613,12.539-12.538v-2.398
				c0-6.925-5.613-12.539-12.539-12.539h-122.572c-6.924,0-12.539,5.614-12.539,12.539v2.398
				C1677.969,948.989,1683.584,954.602,1690.508,954.602z"/>
			<path style="fill:#4AAFFF;" d="M1690.508,1002.533h122.572c6.926,0,12.539-5.615,12.539-12.539v-2.398
				c0-6.925-5.613-12.538-12.539-12.538h-122.572c-6.924,0-12.539,5.613-12.539,12.538v2.398
				C1677.969,996.919,1683.584,1002.533,1690.508,1002.533z"/>
			<path style="fill:#4AAFFF;" d="M1690.508,1050.462h122.572c6.926,0,12.539-5.614,12.539-12.539v-2.396
				c0-6.925-5.613-12.54-12.539-12.54h-122.572c-6.924,0-12.539,5.615-12.539,12.54v2.396
				C1677.969,1044.848,1683.584,1050.462,1690.508,1050.462z"/>
			<g>
				<polygon style="fill:#4AAFFF;" points="1474.171,978.363 1405.432,978.363 1405.432,975.726 1473.079,975.726 1509.268,939.537 
					1553.59,939.537 1553.59,942.175 1510.36,942.175 				"/>
			</g>
			<g>
				<polygon style="fill:#4AAFFF;" points="1539.31,1098.427 1450.856,1098.427 1422.194,1069.764 1424.059,1067.898 
					1451.949,1095.789 1539.31,1095.789 				"/>
			</g>
			<rect x="1515.807" y="956.998" style="fill:#1487E3;" width="91.688" height="11.252"/>
			<rect x="1487.841" y="1071.717" style="fill:#1487E3;" width="73.809" height="11.252"/>
		</g>
		<g>
			
				<linearGradient id="SVGID_00000036237364494263559890000013634149032908754563_" gradientUnits="userSpaceOnUse" x1="750.7452" y1="1539.3773" x2="995.2469" y2="1539.3773">
				<stop  offset="0" style="stop-color:#40D5E6"/>
				<stop  offset="1" style="stop-color:#5577FF"/>
			</linearGradient>
			<path style="fill:url(#SVGID_00000036237364494263559890000013634149032908754563_);" d="M772.108,1216.293
				c21.083-10.083,42.065,57.032,42.065,57.032c35.833,47.352,85.912-15.642,81.015,55.142
				c-8.569,123.859,142.567,38.949,72.841,168.261c-69.726,129.313,61.566,73.118,18.235,177.387
				c-43.33,104.268,12.832,228.628-52.365,177.524c0,0-57.407-125.889-116.61-164.837c-59.203-38.95,35.469-85.165,16.945-138.065
				c-26.905-76.838-91.729-73.82-44.989-156.393C835.985,1309.771,700.441,1250.568,772.108,1216.293z"/>
			<g>
				<path style="fill:#FFFFFF;" d="M954.544,1804.262c-28.26-19.875-61.335-158.379-63.308-240.875
					c-1.011-42.256-13.502-59.862-24.523-75.395c-10.535-14.848-19.632-27.672-14.333-57.113
					c10.128-56.267-16.5-80.555-16.771-80.793l3.082-3.514c1.186,1.038,28.918,26.088,18.288,85.135
					c-4.951,27.511,3.211,39.016,13.545,53.58c10.844,15.283,24.338,34.303,25.383,77.988
					c2.118,88.533,35.932,219.305,61.324,237.163L954.544,1804.262z"/>
			</g>
			<g>
				
					<linearGradient id="SVGID_00000170238057879597402120000012150690326158603966_" gradientUnits="userSpaceOnUse" x1="930.107" y1="1675.8102" x2="1151.2134" y2="1675.8102">
					<stop  offset="0" style="stop-color:#40D5E6"/>
					<stop  offset="1" style="stop-color:#5577FF"/>
				</linearGradient>
				<path style="fill:url(#SVGID_00000170238057879597402120000012150690326158603966_);" d="M965.119,1814.527
					c-3.646,0.002-7.609-0.418-11.95-1.297c-10.892-2.2-18.033-7.947-21.227-17.079c-7.619-21.786,10.032-57.181,24.359-74.241
					c0.237-0.285,24.217-29.59,21.659-70.211c-0.429-6.809-1.135-13.11-1.758-18.672c-1.802-16.074-3.103-27.689,3.801-35.445
					c6.084-6.838,17.831-9.799,39.277-9.898c37.611-0.177,52.482-15.748,64.431-28.262c5.075-5.314,9.868-10.332,15.691-13.513l0,0
					c18.744-10.231,38.597-11.736,47.207-3.575c4.089,3.877,7.542,11.469,0.768,25.631c-6.19,12.939-14.22,21.133-20.672,27.717
					c-8.68,8.857-14.415,14.709-11.43,26.371c0.701,2.738,1.51,5.502,2.32,8.278c5.798,19.831,12.37,42.309-21.57,57.562
					c-7.203,3.236-13.765,5.813-19.555,8.085c-23.693,9.297-37.994,14.91-54.138,48.989c-3.125,6.596-5.884,12.848-8.552,18.895
					C1001.054,1792.709,991.422,1814.525,965.119,1814.527z M1101.643,1550.012c-5.186,2.832-9.526,7.375-14.551,12.639
					c-12.56,13.152-28.192,29.521-67.789,29.707c-19.718,0.092-30.762,2.662-35.807,8.331c-5.519,6.201-4.313,16.947-2.647,31.819
					c0.629,5.613,1.342,11.975,1.778,18.896c2.679,42.541-21.701,72.262-22.74,73.508c-14.181,16.886-30.244,50.496-23.531,69.697
					c2.611,7.465,8.58,12.189,17.742,14.041c31.963,6.458,40.789-13.539,55.409-46.675c2.68-6.075,5.452-12.356,8.604-19.011
					c16.938-35.752,32.737-41.953,56.655-51.339c5.74-2.253,12.247-4.806,19.346-7.997c30.228-13.584,24.773-32.238,19-51.986
					c-0.826-2.826-1.649-5.643-2.363-8.43c-3.638-14.214,3.537-21.535,12.62-30.803c6.534-6.666,13.938-14.224,19.794-26.463
					c3.069-6.417,5.601-15.133,0.232-20.221C1136.333,1539.031,1118.381,1540.873,1101.643,1550.012L1101.643,1550.012z"/>
			</g>
			<g>
				
					<linearGradient id="SVGID_00000015354594983792498920000004109671117837082028_" gradientUnits="userSpaceOnUse" x1="949.0068" y1="1707.9634" x2="1114.9629" y2="1707.9634">
					<stop  offset="0" style="stop-color:#40D5E6"/>
					<stop  offset="1" style="stop-color:#5577FF"/>
				</linearGradient>
				<path style="fill:url(#SVGID_00000015354594983792498920000004109671117837082028_);" d="M953.674,1841.509l-4.667-0.244
					c0.23-4.386,6.118-107.748,47.619-137.999c45.531-33.188,59.886-68.854,66.723-92.792c8.057-28.21,49.06-35.749,50.802-36.056
					l0.813,4.602c-0.398,0.072-39.869,7.345-47.12,32.736c-7.026,24.604-21.769,61.25-68.464,95.287
					C959.658,1735.996,953.729,1840.458,953.674,1841.509z"/>
			</g>
			
				<linearGradient id="SVGID_00000011717139287061532720000002141366355811623568_" gradientUnits="userSpaceOnUse" x1="889.0776" y1="1574.4169" x2="1082.3486" y2="1574.4169">
				<stop  offset="0" style="stop-color:#40D5E6"/>
				<stop  offset="1" style="stop-color:#5577FF"/>
			</linearGradient>
			<path style="fill:url(#SVGID_00000011717139287061532720000002141366355811623568_);" d="M1048.563,1320.602
				c-29.498-10.113-23.37,46.74-35.833,88.805c-12.464,42.066-138.66,18.352-85.689,123.688
				c52.971,105.336-66.993,35.227-31.159,127.146c35.833,91.922,3.116,190.231,42.065,165.225
				c38.949-25.006,21.882-140.759,62.389-154.513c40.508-13.754,47.118-29.796,7.011-67.188
				c-40.107-37.392,105.093-74.513,69.26-150.015C1040.773,1378.247,1082.643,1332.287,1048.563,1320.602z"/>
			<g>
				<path style="fill:#FFFFFF;" d="M956.019,1821.059c-3.71-15.734-35.389-154.217-5.83-170.956
					c26.054-14.753,25.412-72.138,21.347-126.325c-3.598-47.969,58.007-70.387,60.631-71.316l1.563,4.404
					c-0.609,0.217-60.864,22.162-57.534,66.563c4.174,55.649,4.621,114.701-23.705,130.742
					c-22.446,12.711-1.781,124.006,8.077,165.816L956.019,1821.059z"/>
			</g>
			
				<linearGradient id="SVGID_00000078020539602553994770000000887452440691666841_" gradientUnits="userSpaceOnUse" x1="844.7261" y1="1851.6377" x2="1023.0728" y2="1851.6377">
				<stop  offset="0" style="stop-color:#FF9340"/>
				<stop  offset="1" style="stop-color:#FFCE45"/>
			</linearGradient>
			<polygon style="fill:url(#SVGID_00000078020539602553994770000000887452440691666841_);" points="1023.073,1771.748 
				980.958,1931.527 886.841,1931.527 844.726,1771.748 			"/>
			
				<linearGradient id="SVGID_00000067935044346488737020000001053549108310704266_" gradientUnits="userSpaceOnUse" x1="844.7261" y1="1851.6377" x2="1023.0728" y2="1851.6377">
				<stop  offset="0" style="stop-color:#C97332"/>
				<stop  offset="1" style="stop-color:#FFCE45"/>
			</linearGradient>
			<path style="fill:url(#SVGID_00000067935044346488737020000001053549108310704266_);" d="M1023.073,1771.748
				c0,0-92.714,17.408-92.714,159.779h-43.517l-42.115-159.779H1023.073z"/>
		</g>
		<rect x="1376.23" y="1573.394" style="fill:#E8E8E8;" width="373.243" height="15.769"/>
		<rect x="1376.23" y="1610.188" style="fill:#E8E8E8;" width="403.295" height="15.769"/>
		<rect x="1376.23" y="1646.98" style="fill:#E8E8E8;" width="261.683" height="15.769"/>
		<rect x="1376.23" y="1573.394" style="fill:#4AAFFF;" width="194.344" height="15.769"/>
		<rect x="1376.23" y="1610.188" style="fill:#4AAFFF;" width="209.993" height="15.769"/>
		<rect x="1376.23" y="1646.98" style="fill:#4AAFFF;" width="136.256" height="15.769"/>
		<g>
			<g>
				<rect x="1289.827" y="1506.78" style="fill:#E2D2CA;" width="145.369" height="8.629"/>
			</g>
			<g>
				
					<rect x="1309.309" y="1537.867" transform="matrix(-1 -1.224647e-16 1.224647e-16 -1 2631.356 3468.1777)" style="fill:#706865;" width="12.738" height="392.443"/>
			</g>
			<g>
				<rect x="1412.444" y="1504.334" style="fill:#CCBDB7;" width="101.045" height="12.324"/>
			</g>
			<g>
				<rect x="1443.835" y="1399.189" style="fill:#998E89;" width="38.264" height="116.22"/>
			</g>
			<g>
				<rect x="1237.68" y="1515.553" style="fill:#B59074;" width="559.852" height="22.315"/>
			</g>
			<g>
				<path style="fill:#F5F5F5;" d="M1130.23,1380.496c0,0-6.123,85.869,10.655,96.146c10.511,6.438,52.417,28.152,51.174,32.224
					c-1.243,4.071-23.662,36.231-23.662,36.231s-80.497-53.01-83.091-69.713c-2.536-16.322,3.961-125.73,15.025-130.77
					c8.287-3.775,12.662-0.654,23.105,7.1C1138.094,1362.598,1130.23,1380.496,1130.23,1380.496z"/>
			</g>
			<g>
				<g>
					<g>
						<path style="fill:#424773;" d="M1229.27,1876.728c0,0-2.503,17.374-2.816,19.983c-0.313,2.61-27.846-1.537-27.846-1.537
							l-2.229-20.684C1196.378,1874.49,1225.828,1874.275,1229.27,1876.728z"/>
					</g>
				</g>
			</g>
			<g>
				<g>
					<g>
						<path style="fill:#292C47;" d="M1226.747,1894.502c0,0,8.724,10.47,17.161,15.033c8.437,4.563,21.695,6.371,26.685,11.094
							c3.602,3.41,13.117,18.09-21.924,17.794s-51.937,2.073-55.691-3.556c-3.754-5.627,5.433-41.541,5.433-41.541
							S1206.708,1896.312,1226.747,1894.502z"/>
					</g>
				</g>
			</g>
			<g>
				<g>
					<g>
						<path style="fill:#424773;" d="M1405.669,1876.893c0,0-2.503,17.373-2.816,19.983c-0.313,2.61-27.845-1.537-27.845-1.537
							l-2.229-20.685C1372.778,1874.654,1402.228,1874.441,1405.669,1876.893z"/>
					</g>
				</g>
			</g>
			<g>
				<g>
					<g>
						<path style="fill:#292C47;" d="M1403.146,1894.667c0,0,8.724,10.47,17.161,15.032c8.438,4.564,39.486,8.313,44.475,13.036
							c3.602,3.409,9.591,17.136-39.714,15.853c-35.03-0.912-51.937,2.072-55.691-3.556s5.432-41.542,5.432-41.542
							S1382.627,1896.68,1403.146,1894.667z"/>
					</g>
				</g>
			</g>
			<g>
				<g>
					<g>
						<path style="fill:#292C47;" d="M1140.465,1576.602c0,0,100.098,16.938,122.707,20.486
							c22.608,3.552,145.194,34.056,160.524,43.35c12.203,7.399-6.4,185.094-10.746,252.889h-48.284l-3.5-203.365
							c-57.941,1.449-99.287-13.553-141.479-7.145c-42.192,6.408-77.368,15.516-104.178-20.447
							C1115.508,1662.369,1114.514,1584.456,1140.465,1576.602z"/>
					</g>
				</g>
			</g>
			<g>
				<g>
					<g>
						<path style="fill:#292C47;" d="M1239.128,1893.49l-47.054-2.909l-4.586-200.62c-24.943,0.624-33.494-0.957-53.679-3.406
							l-37.991-88.307c33.294,6.656,139.971,33.563,154.195,42.188C1262.218,1647.838,1243.474,1825.692,1239.128,1893.49z"/>
					</g>
				</g>
			</g>
			<g>
				<g>
					<g>
						<path style="fill:#EEA886;" d="M1186.544,1201.394c0,0,36.695-10.142,50.694,18.345c14,28.485,7.653,82.487-10.841,87.567
							c-18.493,5.081-45.086-0.771-52.764-18.499s-13.801-42.922-11.964-59.236
							C1163.506,1213.257,1176.8,1205.292,1186.544,1201.394z"/>
					</g>
				</g>
			</g>
			<g>
				<g>
					<g>
						<path style="fill:#EEA886;" d="M1216.809,1301.621c0,0-0.403,21.664,1.985,26.281c2.388,4.618-51.096,3.461-51.096,3.461
							s8.429-26.016,3.647-48.178C1166.613,1261.248,1216.809,1301.621,1216.809,1301.621z"/>
					</g>
				</g>
			</g>
			<g>
				<g>
					<g>
						<path style="fill:#3A3F47;" d="M1168.464,1274.982c0,0,2.859,5.813,16.704,4.874c13.844-0.938,32.103-17.64,37.98-19.133
							c5.877-1.491,6.227-4.837,6.227-4.837l3.11,5.529l6.022,0.916c0,0-4.092-16.738,4.824-22.633
							c8.917-5.894-4.016-53.363-49.158-41.914c0,0-34.452,6.31-34.914,25.547
							C1158.797,1242.57,1161.776,1264.792,1168.464,1274.982z"/>
					</g>
				</g>
			</g>
			<g>
				<g>
					<g>
						<path style="fill:#E2D2CA;" d="M1221.606,1327.348c0,0-0.15-8.825-4.149-9.671c-4-0.846-42.042-6.079-46.952-4.149
							l-2.106,11.652C1168.398,1325.18,1177.858,1331.002,1221.606,1327.348z"/>
					</g>
				</g>
			</g>
			<g>
				<g>
					<g>
						<path style="fill:#EEA886;" d="M1232.614,1251.942c-1.026-7.232-9.249-15.54-13.958-4.274
							c-4.709,11.264,3.179,27.67,8.462,26.791C1232.4,1273.578,1234.006,1261.756,1232.614,1251.942z"/>
					</g>
				</g>
			</g>
			<g>
				<g>
					<g>
						<path style="fill:#323657;" d="M1380.947,1431.605c-0.018-0.008-0.039-0.011-0.065-0.006
							C1381.157,1431.721,1381.196,1431.73,1380.947,1431.605z"/>
					</g>
				</g>
			</g>
			<g>
				<g>
					<g>
						<path style="fill:#3A3F47;" d="M1175.84,1206.56c0,0-44.739-2.106-7.808,67.736L1175.84,1206.56z"/>
					</g>
				</g>
			</g>
			<g>
				<g>
					<polygon style="fill:#918783;" points="1076.156,1917.288 1079.484,1926.65 1220.109,1883.078 1213.37,1864.119 					"/>
				</g>
			</g>
			<g>
				<g>
					<rect x="1208.95" y="1723.519" style="fill:#918783;" width="15.984" height="152.89"/>
				</g>
			</g>
			<g>
				<g>
					<rect x="1169.805" y="1715.395" style="fill:#5E5854;" width="94.272" height="9.01"/>
				</g>
			</g>
			<g>
				<g>
					<polygon style="fill:#918783;" points="1358.963,1917.288 1355.635,1926.65 1215.009,1883.078 1221.188,1862.93 					"/>
				</g>
			</g>
			<g>
				<g>
					<polygon style="fill:#918783;" points="1259.883,1925.648 1259.883,1936.539 1215.009,1883.078 1221.188,1862.93 					"/>
				</g>
			</g>
			<g>
				<g>
					<path style="fill:#BFB2AC;" d="M1372.104,1930.311c0,7.258-5.883,13.142-13.142,13.142s-13.142-5.884-13.142-13.142
						c0-7.259,5.884-13.143,13.142-13.143S1372.104,1923.052,1372.104,1930.311z"/>
				</g>
			</g>
			<g>
				<g>
					<path style="fill:#BFB2AC;" d="M1261,1930.311c0,7.258-5.884,13.142-13.143,13.142c-7.258,0-13.142-5.884-13.142-13.142
						c0-7.259,5.884-13.143,13.142-13.143C1255.115,1917.168,1261,1923.052,1261,1930.311z"/>
				</g>
			</g>
			<g>
				<g>
					<path style="fill:#BFB2AC;" d="M1089.298,1930.311c0,7.258-5.884,13.142-13.143,13.142c-7.258,0-13.142-5.884-13.142-13.142
						c0-7.259,5.884-13.143,13.142-13.143C1083.415,1917.168,1089.298,1923.052,1089.298,1930.311z"/>
				</g>
			</g>
			<g>
				<path style="fill:#E2D2CA;" d="M1313.852,1715.395h-192.585c-8.492,0-15.376-6.883-15.376-15.376v-3.372
					c0-8.492,6.884-15.377,15.376-15.377h192.585c8.492,0,15.375,6.885,15.375,15.377v3.372
					C1329.228,1708.512,1322.344,1715.395,1313.852,1715.395z"/>
			</g>
			<g>
				<rect x="1713.165" y="1537.867" style="fill:#706865;" width="12.738" height="392.443"/>
			</g>
			<g>
				<path style="fill:#B8ABA5;" d="M1612.831,1455.174h-299.729c-8.471,0-15.338-6.867-15.338-15.338v-202.408
					c0-8.471,6.867-15.338,15.338-15.338h299.729c8.472,0,15.339,6.867,15.339,15.338v202.408
					C1628.17,1448.307,1621.303,1455.174,1612.831,1455.174z"/>
			</g>
			<g>
				<rect x="1310.704" y="1234.689" style="fill:#F5F7FF;" width="304.525" height="183.959"/>
			</g>
			<g>
				<path style="fill:#918681;" d="M1601.697,1436.002c0,5.23-5.495,9.469-12.273,9.469c-6.779,0-12.273-4.238-12.273-9.469
					c0-5.231,5.494-9.471,12.273-9.471C1596.202,1426.531,1601.697,1430.771,1601.697,1436.002z"/>
			</g>
			<g>
				<path style="fill:#998E89;" d="M1531.367,1515.852v-4.148c0,0-5.831-25.799-47.078-25.799
					c-41.246,0-40.412,29.947-40.412,29.947H1531.367z"/>
			</g>
			<g>
				<g>
					<path style="fill:#EEA886;" d="M1443.377,1489.738c0,0,8.96-0.695,12.243-2.678c3.283-1.98,22.923-15.189,27.537-13.074
						s35.316,11.52,34.25,16.009c-1.066,4.49-3.907,4.058-6.073,3.263s-24.46-5.475-26.428-4.686c0,0,21.899,7.988,21.986,13.817
						c0.088,5.829-4.582,7.25-6.659,9.454c-2.077,2.203-4.57,7.677-10.213,8.098c-5.643,0.42-33.179-9.162-38.848-9.599
						s-16.161,0.351-16.874-0.572S1443.377,1489.738,1443.377,1489.738z"/>
				</g>
			</g>
			<g>
				<g>
					<g>
						<path style="fill:#DBDFF0;" d="M1280.247,1339.577c-28.569-5.021-58.642-12.231-58.642-12.231l-53.209-2.168
							c0,0-48.833,10.75-68.064,19.438c-1.825,0.822-1.833,43.564-6.839,54.771l15.944,33.64c0,0,9.211,66.634,11.123,96.269
							c0.877,13.605-2.481,131.48-2.481,131.48s4.78,2.36,41.094,6.362c36.314,4.003,127.048-1.446,127.619-5.735
							c0.574-4.291-17.571-159.709-18.375-167.759c-1.233-12.353,3.568-69.433,3.568-69.433c6.842,9.19,24.285,50.695,42.465,70.441
							c10.696,11.617,63.651,18.74,73.633,19.072c21.727,0.725,61.367,5.051,62.525,2.938c0.925-1.269,3.453-35.184,0.968-36.012
							c-2.175-0.727-75.779-4.963-94.637-14.968c-6.898-3.661-27.521-48.631-27.521-48.631S1296.008,1346.659,1280.247,1339.577z"/>
					</g>
				</g>
			</g>
			<g>
				<path style="fill:#E2D2CA;" d="M1178.212,1657.37h-94.971c-16.306,0-29.523-13.218-29.523-29.523v-154.268
					c0-16.306,13.217-29.522,29.523-29.522h94.971c16.305,0,29.523,13.217,29.523,29.522v154.268
					C1207.735,1644.152,1194.517,1657.37,1178.212,1657.37z"/>
			</g>
			<g>
				<path style="fill:#E2D2CA;" d="M1180.443,1706.901c-22.703,0-41.121-7.626-54.745-22.666
					c-30.788-33.992-25.256-93.747-25.005-96.274c0.468-4.709,4.671-8.152,9.372-7.682c4.708,0.467,8.146,4.66,7.683,9.367
					c-0.066,0.682-4.971,54.844,20.687,83.119c10.377,11.438,24.119,16.998,42.009,16.998c4.732,0,8.569,3.836,8.569,8.568
					S1185.175,1706.901,1180.443,1706.901z"/>
			</g>
			<g>
				<g>
					<g>
						<path style="fill:#DFE1E8;" d="M1419.299,1259.061h-84.806c-1.214,0-2.199-0.984-2.199-2.199v-5.321
							c0-1.214,0.985-2.199,2.199-2.199h84.806c1.214,0,2.199,0.985,2.199,2.199v5.321
							C1421.498,1258.076,1420.513,1259.061,1419.299,1259.061z"/>
					</g>
				</g>
			</g>
			<g>
				<g>
					<g>
						<path style="fill:#DFE1E8;" d="M1419.299,1279.907h-84.806c-1.214,0-2.199-0.984-2.199-2.199v-5.321
							c0-1.215,0.985-2.199,2.199-2.199h84.806c1.214,0,2.199,0.984,2.199,2.199v5.321
							C1421.498,1278.923,1420.513,1279.907,1419.299,1279.907z"/>
					</g>
				</g>
			</g>
			<g>
				<g>
					<g>
						<path style="fill:#DFE1E8;" d="M1414.104,1403.996h-74.416c-4.083,0-7.394-3.311-7.394-7.394v-95.113
							c0-4.083,3.311-7.394,7.394-7.394h74.416c4.084,0,7.394,3.311,7.394,7.394v95.113
							C1421.498,1400.686,1418.188,1403.996,1414.104,1403.996z"/>
					</g>
				</g>
			</g>
			<g>
				<g>
					<g>
						<path style="fill:#DFE1E8;" d="M1586.656,1403.996h-135.445c-6.464,0-11.705-5.24-11.705-11.705v-131.246
							c0-6.464,5.24-11.704,11.705-11.704h135.445c6.465,0,11.705,5.24,11.705,11.704v131.246
							C1598.361,1398.756,1593.121,1403.996,1586.656,1403.996z"/>
					</g>
				</g>
			</g>
		</g>
		<g>
			<path style="fill:#B3B7C4;" d="M1852.375,1605.784c0,0,48.154-13.618,106.97,0l-28.222-144.566
				C1931.123,1461.218,1860.665,1535.918,1852.375,1605.784z"/>
			<g>
				<g>
					<g>
						<path style="fill:#EEA987;" d="M1699.78,1356.558c0,0-10.808,7.741-14.003,6.77s-8.566,0.595-11.603,0.274
							s-10.976-4.117-14.164-3.306c-1.304,0.331-8.533,5.483-11.252,5.874c-2.719,0.389-8.316,0.516-7.941,2.83
							c0.375,2.313,5.402,3.561,5.402,3.561s-2.457,0.505-2.763,2.649c-0.595,4.168,1.59,5.628,1.59,5.628s-2.191,2.127-1.998,3.918
							c0.424,3.947,2.58,5.297,2.58,5.297s-0.942,2.078-0.059,4.629c1.131,3.264,4.566,3.75,4.566,3.75s0.461,4.422,2.896,5.018
							c2.435,0.595,4.547-0.266,6.561-0.32s19.32-6.035,29.613-15.027c10.295-8.994,22.203-14.258,22.203-14.258L1699.78,1356.558z"
							/>
					</g>
				</g>
			</g>
			<g>
				<path style="fill:#FCCCA2;" d="M1921.475,1060.777c0,0,16.141-10.355,30.695,8.054c14.557,18.409,9.319,36.104,6.278,52.632
					c-3.016,16.389-17.692,53.892-11.456,70.414c6.236,16.521-1.732,25.125-1.732,25.125s-50.054,12.816-44.219-62.469
					C1906.877,1079.248,1921.475,1060.777,1921.475,1060.777z"/>
			</g>
			<g>
				<path style="fill:#DBDFF0;" d="M1900.028,1202.94c0,0-19.058-2.61-31.851,6.978c-12.793,9.589-21.541,27.551-25.449,33.184
					c-3.908,5.635-49.583,56.051-51.855,56.964c-2.274,0.913-30.707,16.601-49.855,29.275c-19.149,12.675-49.32,27.938-49.32,27.938
					l16.365,20.069c0,0,80.626-28.864,97.398-44.47c17.915-16.668,100.75-99.382,100.75-99.382S1927.032,1216.673,1900.028,1202.94z
					"/>
			</g>
			<g>
				<path style="fill:#1D3B54;" d="M1761.365,1904.144c0,0-20.615,27.753-17.787,32.152s24.508,5.027,37.703,0
					c13.196-5.027,13.512-37.554,19.48-51.527c2.5-5.851-2.849-23.12-10.368-24.374c-7.52-1.252-15.698,2.428-15.698,2.428
					S1782.494,1882.507,1761.365,1904.144z"/>
			</g>
			<g>
				<g>
					<path style="fill:#EEA886;" d="M1774.556,1862.598c0,0-4.337,11.818-5.922,23.102c-1.314,9.361-14.687,29.231-14.059,31.745
						s17.595,4.79,24.507-1.689s11.361-25.325,12.883-36.597c1.417-10.5,3.206-15.685,3.206-15.685
						S1781.154,1855.686,1774.556,1862.598z"/>
				</g>
			</g>
			<g>
				<polygon style="fill:#1D3B54;" points="1801.314,1882.326 1801.314,1911.383 1797.544,1911.383 1797.544,1888.925 				"/>
			</g>
			<g>
				<path style="fill:#1D3B54;" d="M1940.804,1904.605c0,0-19.872,27.291-17.044,31.69s24.508,5.027,37.703,0
					c13.196-5.027,13.511-37.554,19.48-51.527c2.499-5.851-2.85-23.12-10.369-24.374c-7.52-1.252-16.338,2.694-16.338,2.694
					S1961.933,1882.967,1940.804,1904.605z"/>
			</g>
			<g>
				<g>
					<path style="fill:#EEA886;" d="M1954.236,1863.089c0,0-1.57,12.882-4.084,21.993s-16.023,29.849-15.396,32.362
						s17.595,4.79,24.507-1.689s12.254-25.24,12.882-36.597s-1.571-18.764-1.571-18.764S1960.835,1856.176,1954.236,1863.089z"/>
				</g>
			</g>
			<g>
				<polygon style="fill:#1D3B54;" points="1981.496,1882.326 1981.496,1911.383 1977.726,1911.383 1977.726,1888.925 				"/>
			</g>
			<g>
				<g>
					<path style="fill:#3B3B40;" d="M1854.934,1411.261c0,0-17.689,82.296-21.753,103.015
						c-4.063,20.721-15.438,121.072-16.657,138.135c-1.219,17.064-18.459,81.358-17.646,87.451
						c0.813,6.096-26.529,127.023-26.529,127.023s28.143,7.655,32.88,2.497c4.022-4.379,44.456-114.96,44.456-145.429
						c0-42.12,31.77-95.746,35.789-105.168c37.332-87.539,29.357-115.66,34.232-121.348c4.876-5.688,5.299,3.514,8.143,16.108
						s8.934,121.478,12.59,135.29c3.657,13.813,0.817,60.535,2.85,84.1c2.031,23.564,4.369,129.143,4.369,129.143
						s20.385,4.687,30.069,0.17c2.793-1.303,9.841-117.612,10.247-145.646c0.406-28.034,0.839-66.694,1.625-78.818
						c7.527-116.167,18.631-132.655-3.11-214.974C1944.782,1264.907,1854.934,1411.261,1854.934,1411.261z"/>
				</g>
			</g>
			<g>
				<path style="fill:#E8734D;" d="M1900.725,1191.994c0,0-18.464,8.72-24.875,10.002c-6.412,1.282-31.287,33.595-35.646,45.391
					c-4.359,11.797,0,29.492,8.976,50.266c8.976,20.771,0.513,27.695,4.616,48.469c4.104,20.772,0.211,69.46-0.559,81
					c-0.77,11.541,94.364,26.2,130.931-10.645c0,0-19.843-37.273-22.921-42.402c-3.076-5.129-0.512-33.082,2.309-40.264
					c2.821-7.18,21.596-68.244,21.596-68.244s15.36-46.896,1.484-57.672c-12.053-9.36-44.902-12.697-50.801-14.75
					C1929.936,1191.094,1912.777,1190.199,1900.725,1191.994z"/>
			</g>
			<g>
				<path style="fill:#D6C5BE;" d="M1894.826,1233.154l-11.219-13.138l9.742-34.589
					C1893.35,1185.428,1896.621,1204.689,1894.826,1233.154z"/>
			</g>
			<g>
				<path style="fill:#EEA886;" d="M1891.912,1170.688c0,0,3.684,33.873,2.914,44.9c0,0,19.186,19.227,41.008-22.443
					c0,0-9.182-17.174-2.271-40.578C1940.475,1129.165,1891.912,1170.688,1891.912,1170.688z"/>
			</g>
			<g>
				<polygon style="fill:#EEA886;" points="1894.826,1215.588 1894.826,1233.154 1916.907,1216.654 				"/>
			</g>
			<g>
				<polygon style="fill:#D6C5BE;" points="1894.826,1233.154 1903.994,1221.807 1934.876,1191.029 1944.866,1200.65 				"/>
			</g>
			<g>
				<polygon style="fill:#FAE6DE;" points="1883.607,1220.017 1869.471,1223.923 1893.35,1185.428 				"/>
			</g>
			<g>
				<polygon style="fill:#FAE6DE;" points="1903.994,1221.807 1916.907,1238.732 1943.287,1193.69 1934.104,1188.989 				"/>
			</g>
			<g>
				<path style="fill:#A77860;" d="M1892.672,1178.144l0.626,6.702c0,0,15.257,2.943,35.212-21.395
					C1928.51,1163.451,1914.366,1180.703,1892.672,1178.144z"/>
			</g>
			<g>
				<path style="fill:#EEA987;" d="M1896.542,1178.636c-6.007-0.221-22.776-2.181-31.05-40.815
					c-10.107-47.196,12.227-71.676,31.35-76.211c19.122-4.537,36.76,2.111,46.552,26.78c0,0,7.157,19.233-4.458,53.495
					C1927.319,1176.146,1902.975,1178.873,1896.542,1178.636z"/>
			</g>
			<g>
				<path style="fill:#FCCCA2;" d="M1911.885,1092.221c0,0-25.682,1.596-49.551,37.459c0,0-11.176-43.149,18.029-62.844
					c29.205-19.692,49.658-2.761,56.785,5.826c0,0,10.221,2.348,10.543,21.738c0.322,19.389,13.359,48.65-15.252,62.527
					c0,0,2.727-22.133,0.206-27.195C1930.127,1124.67,1921.385,1128.088,1911.885,1092.221z"/>
			</g>
			<g>
				<path style="fill:#EEA987;" d="M1931.24,1121.135c1.295-3.355,4.824-4.708,6.767-1.109c1.942,3.598-0.37,17.553-5.554,19.079
					C1927.271,1140.632,1928.615,1127.936,1931.24,1121.135z"/>
			</g>
			<path style="fill:#DBDFF0;" d="M1943.287,1193.69c0,0-29.006,34.696-32.047,107.642c-3.04,72.945,22.848,305.92,21.235,334.342
				l75.222-36.403c0,0-0.436-117.55-25.621-191.505c-29.551-86.776,4.057-113.244,7.129-166.62c0,0-1.395-39.081-23.178-42.63
				C1945.574,1195.184,1943.287,1193.69,1943.287,1193.69z"/>
			<path style="fill:#DBDFF0;" d="M1884.996,1198.894c0,0-11.8,1.372-15.525,5.781c-3.727,4.409-27.041,31.281-28.742,39.194
				c-1.701,7.914-7.135,13.814,4.049,50.668c10.015,33.002,7.496,69.972,5.424,84.773s-38.09,214.83-36.117,219.96
				c1.975,5.132,16.974,17.369,16.974,17.369s32.257-197.363,31.917-230.323C1862.636,1353.356,1849.727,1255.214,1884.996,1198.894
				z"/>
			<g>
				<polygon style="fill:#616161;" points="1638.247,1303.045 1663.4,1432.549 1746.52,1416.404 1724.614,1286.27 				"/>
				<polygon style="fill:#E0CEC7;" points="1644.484,1309.35 1666.824,1424.366 1740.645,1410.028 1721.19,1294.451 				"/>
				<polygon style="fill:#616161;" points="1667.887,1307.771 1666.319,1299.698 1696.164,1293.9 1698.898,1301.748 				"/>
			</g>
			<g>
				<g>
					<path style="fill:#DB9C7C;" d="M1647.598,1371.508c0,0,14.887-4.857,19.296-2.064s-0.868,4.838-0.868,4.838
						s5.187-2.108,7.237,1.771c2.051,3.881-4.253,5.954-4.253,5.954s4.346-0.563,4.893,3.993c0.546,4.558-5.054,5.107-5.054,5.107
						s6.497,2.565,2.399,6.716c-6.918,7.006-17.99,5.921-17.99,5.921s-3.471-0.416-3.688-4.842c0,0-6.566-1.369-4.372-8.744
						c0,0-5.803-5.271-0.714-9.301C1644.484,1380.857,1639.117,1374.142,1647.598,1371.508z"/>
				</g>
			</g>
			<path style="fill:#EEA886;" d="M2007.928,1445.852c0,0,2.998,14.009-3.129,23.483c-2.341,3.62-0.088,31.011,0.122,34.43
				c0.177,2.867,2.757,5.313,3.823,4.722c1.066-0.593,1.295-15.752,2.908-20.639c1.354-4.104,2.556-5.651,3.297-4.341
				c0.74,1.312-1.775,23.319-3.214,30.604c-1.438,7.284,0.364,22.641,4.147,20.161s16.422-36.57,15.485-47.954
				c-0.937-11.383-5.241-25.602-5.241-25.602L2007.928,1445.852z"/>
			<path style="fill:#DBDFF0;" d="M1947.728,1195.748c0,0,30.038-1.85,45.104,15.683s14.245,38.351,18.08,47.39
				c3.835,9.041,12.602,47.94,14.519,54.24c1.917,6.301,3.788,41.713,6.527,70.203c2.739,28.488,2.186,81.687,2.186,81.687
				l-28.739-5.21c0,0-1.158-50.711-1.889-80.113c-0.73-29.406-24.654-81.359-33.693-104.096
				C1960.781,1252.795,1924.793,1210.015,1947.728,1195.748z"/>
		</g>
		<g>
			
				<linearGradient id="SVGID_00000018198232988896204280000012756864948209294208_" gradientUnits="userSpaceOnUse" x1="1274.4365" y1="334.3567" x2="1426.6523" y2="334.3567">
				<stop  offset="0" style="stop-color:#253380"/>
				<stop  offset="1" style="stop-color:#2D899E"/>
			</linearGradient>
			<polygon style="fill:url(#SVGID_00000018198232988896204280000012756864948209294208_);" points="1278.073,450.346 
				1274.437,447.993 1423.016,218.367 1426.652,220.719 			"/>
		</g>
		<g>
			
				<linearGradient id="SVGID_00000054950213407252050540000009867445306523897021_" gradientUnits="userSpaceOnUse" x1="1214.6069" y1="73.7903" x2="1228.4562" y2="113.2393">
				<stop  offset="0" style="stop-color:#253380"/>
				<stop  offset="1" style="stop-color:#2D899E"/>
			</linearGradient>
			<polygon style="fill:url(#SVGID_00000054950213407252050540000009867445306523897021_);" points="1200.777,122.956 
				1197.14,120.602 1231.29,67.934 1250.99,80.86 1248.613,84.48 1232.558,73.942 			"/>
		</g>
		<g>
			<defs>
				
					<filter id="Adobe_OpacityMaskFilter_00000162352612313038391100000014024085989864147856_" filterUnits="userSpaceOnUse" x="1431.969" y="317.192" width="103.812" height="7.277">
					<feFlood  style="flood-color:white;flood-opacity:1" result="back"/>
					<feBlend  in="SourceGraphic" in2="back" mode="normal"/>
				</filter>
			</defs>
			
				<mask maskUnits="userSpaceOnUse" x="1431.969" y="317.192" width="103.812" height="7.277" id="SVGID_00000054250660185350577380000002644238004138787469_">
				<g style="filter:url(#Adobe_OpacityMaskFilter_00000162352612313038391100000014024085989864147856_);">
					<defs>
						
							<filter id="Adobe_OpacityMaskFilter_00000058575882556545667860000001381640545605605819_" filterUnits="userSpaceOnUse" x="1431.969" y="317.192" width="103.812" height="7.277">
							<feFlood  style="flood-color:white;flood-opacity:1" result="back"/>
							<feBlend  in="SourceGraphic" in2="back" mode="normal"/>
						</filter>
					</defs>
					
						<mask maskUnits="userSpaceOnUse" x="1431.969" y="317.192" width="103.812" height="7.277" id="SVGID_00000054250660185350577380000002644238004138787469_">
						<g style="filter:url(#Adobe_OpacityMaskFilter_00000058575882556545667860000001381640545605605819_);">
						</g>
					</mask>
					
						<linearGradient id="SVGID_00000068649965265954590520000018073417454894736538_" gradientUnits="userSpaceOnUse" x1="1529.8062" y1="207.2247" x2="1435.3868" y2="440.7588">
						<stop  offset="0" style="stop-color:#FFFFFF"/>
						<stop  offset="1" style="stop-color:#000000"/>
					</linearGradient>
					
						<polygon style="mask:url(#SVGID_00000054250660185350577380000002644238004138787469_);fill:url(#SVGID_00000068649965265954590520000018073417454894736538_);" points="
						1431.969,324.469 1535.78,324.469 1535.78,317.192 1431.969,317.192 					"/>
				</g>
			</mask>
			
				<linearGradient id="SVGID_00000050664546822344342950000013044252185009236389_" gradientUnits="userSpaceOnUse" x1="1529.8062" y1="207.2247" x2="1435.3868" y2="440.7588">
				<stop  offset="0" style="stop-color:#40D5E6"/>
				<stop  offset="1" style="stop-color:#5577FF"/>
			</linearGradient>
			<polygon style="fill:url(#SVGID_00000050664546822344342950000013044252185009236389_);" points="1431.969,324.469 
				1535.78,324.469 1535.78,317.192 1431.969,317.192 			"/>
			<defs>
				
					<filter id="Adobe_OpacityMaskFilter_00000000180423311714867640000007432709038222409874_" filterUnits="userSpaceOnUse" x="1431.969" y="330.907" width="103.812" height="30.595">
					<feFlood  style="flood-color:white;flood-opacity:1" result="back"/>
					<feBlend  in="SourceGraphic" in2="back" mode="normal"/>
				</filter>
			</defs>
			
				<mask maskUnits="userSpaceOnUse" x="1431.969" y="330.907" width="103.812" height="30.595" id="SVGID_00000018226103597987119380000017009176490029761707_">
				<g style="filter:url(#Adobe_OpacityMaskFilter_00000000180423311714867640000007432709038222409874_);">
					<defs>
						
							<filter id="Adobe_OpacityMaskFilter_00000011019521903249663730000007535419873846967431_" filterUnits="userSpaceOnUse" x="1431.969" y="330.907" width="103.812" height="30.595">
							<feFlood  style="flood-color:white;flood-opacity:1" result="back"/>
							<feBlend  in="SourceGraphic" in2="back" mode="normal"/>
						</filter>
					</defs>
					
						<mask maskUnits="userSpaceOnUse" x="1431.969" y="330.907" width="103.812" height="30.595" id="SVGID_00000018226103597987119380000017009176490029761707_">
						<g style="filter:url(#Adobe_OpacityMaskFilter_00000011019521903249663730000007535419873846967431_);">
						</g>
					</mask>
					
						<linearGradient id="SVGID_00000079445002573575911680000005927727190153040281_" gradientUnits="userSpaceOnUse" x1="1538.6248" y1="210.787" x2="1444.2031" y2="444.3268">
						<stop  offset="0" style="stop-color:#FFFFFF"/>
						<stop  offset="1" style="stop-color:#000000"/>
					</linearGradient>
					
						<polygon style="mask:url(#SVGID_00000018226103597987119380000017009176490029761707_);fill:url(#SVGID_00000079445002573575911680000005927727190153040281_);" points="
						1431.969,361.502 1535.78,361.502 1535.78,330.907 1431.969,330.907 					"/>
				</g>
			</mask>
			
				<linearGradient id="SVGID_00000078753447215291607680000005231546161785178547_" gradientUnits="userSpaceOnUse" x1="1538.6248" y1="210.787" x2="1444.2031" y2="444.3268">
				<stop  offset="0" style="stop-color:#40D5E6"/>
				<stop  offset="1" style="stop-color:#5577FF"/>
			</linearGradient>
			<polygon style="fill:url(#SVGID_00000078753447215291607680000005231546161785178547_);" points="1431.969,361.502 
				1535.78,361.502 1535.78,330.907 1431.969,330.907 			"/>
			<defs>
				
					<filter id="Adobe_OpacityMaskFilter_00000109719513844575917720000000264045743361206677_" filterUnits="userSpaceOnUse" x="1383.204" y="371.788" width="61.242" height="4.573">
					<feFlood  style="flood-color:white;flood-opacity:1" result="back"/>
					<feBlend  in="SourceGraphic" in2="back" mode="normal"/>
				</filter>
			</defs>
			
				<mask maskUnits="userSpaceOnUse" x="1383.204" y="371.788" width="61.242" height="4.573" id="SVGID_00000172439088177853178290000011954540338565105034_">
				<g style="filter:url(#Adobe_OpacityMaskFilter_00000109719513844575917720000000264045743361206677_);">
					<defs>
						
							<filter id="Adobe_OpacityMaskFilter_00000147925349373017208640000009605859913820126884_" filterUnits="userSpaceOnUse" x="1383.204" y="371.788" width="61.242" height="4.573">
							<feFlood  style="flood-color:white;flood-opacity:1" result="back"/>
							<feBlend  in="SourceGraphic" in2="back" mode="normal"/>
						</filter>
					</defs>
					
						<mask maskUnits="userSpaceOnUse" x="1383.204" y="371.788" width="61.242" height="4.573" id="SVGID_00000172439088177853178290000011954540338565105034_">
						<g style="filter:url(#Adobe_OpacityMaskFilter_00000147925349373017208640000009605859913820126884_);">
						</g>
					</mask>
					
						<linearGradient id="SVGID_00000005268936846639223420000004896205252951861121_" gradientUnits="userSpaceOnUse" x1="1488.1033" y1="190.3554" x2="1393.6796" y2="423.9003">
						<stop  offset="0" style="stop-color:#FFFFFF"/>
						<stop  offset="1" style="stop-color:#000000"/>
					</linearGradient>
					
						<polygon style="mask:url(#SVGID_00000172439088177853178290000011954540338565105034_);fill:url(#SVGID_00000005268936846639223420000004896205252951861121_);" points="
						1383.204,376.36 1444.446,376.36 1444.446,371.788 1383.204,371.788 					"/>
				</g>
			</mask>
			
				<linearGradient id="SVGID_00000054954660285125916410000002278055513297374604_" gradientUnits="userSpaceOnUse" x1="1488.1033" y1="190.3554" x2="1393.6796" y2="423.9003">
				<stop  offset="0" style="stop-color:#40D5E6"/>
				<stop  offset="1" style="stop-color:#5577FF"/>
			</linearGradient>
			<polygon style="fill:url(#SVGID_00000054954660285125916410000002278055513297374604_);" points="1383.204,376.36 
				1444.446,376.36 1444.446,371.788 1383.204,371.788 			"/>
			<defs>
				
					<filter id="Adobe_OpacityMaskFilter_00000181796377713047392650000009578577525041791414_" filterUnits="userSpaceOnUse" x="1383.204" y="378.36" width="61.242" height="12.381">
					<feFlood  style="flood-color:white;flood-opacity:1" result="back"/>
					<feBlend  in="SourceGraphic" in2="back" mode="normal"/>
				</filter>
			</defs>
			
				<mask maskUnits="userSpaceOnUse" x="1383.204" y="378.36" width="61.242" height="12.381" id="SVGID_00000013902764033052941700000007072073778930278834_">
				<g style="filter:url(#Adobe_OpacityMaskFilter_00000181796377713047392650000009578577525041791414_);">
					<defs>
						
							<filter id="Adobe_OpacityMaskFilter_00000098203239513813316780000003831100821280844472_" filterUnits="userSpaceOnUse" x="1383.204" y="378.36" width="61.242" height="12.381">
							<feFlood  style="flood-color:white;flood-opacity:1" result="back"/>
							<feBlend  in="SourceGraphic" in2="back" mode="normal"/>
						</filter>
					</defs>
					
						<mask maskUnits="userSpaceOnUse" x="1383.204" y="378.36" width="61.242" height="12.381" id="SVGID_00000013902764033052941700000007072073778930278834_">
						<g style="filter:url(#Adobe_OpacityMaskFilter_00000098203239513813316780000003831100821280844472_);">
						</g>
					</mask>
					
						<linearGradient id="SVGID_00000133494323714829097770000010662122609768486319_" gradientUnits="userSpaceOnUse" x1="1491.7404" y1="191.8368" x2="1397.3213" y2="425.3701">
						<stop  offset="0" style="stop-color:#FFFFFF"/>
						<stop  offset="1" style="stop-color:#000000"/>
					</linearGradient>
					
						<polygon style="mask:url(#SVGID_00000013902764033052941700000007072073778930278834_);fill:url(#SVGID_00000133494323714829097770000010662122609768486319_);" points="
						1383.204,390.742 1444.446,390.742 1444.446,378.36 1383.204,378.36 					"/>
				</g>
			</mask>
			
				<linearGradient id="SVGID_00000057835021831439922190000003080860154278181528_" gradientUnits="userSpaceOnUse" x1="1491.7404" y1="191.8368" x2="1397.3213" y2="425.3701">
				<stop  offset="0" style="stop-color:#40D5E6"/>
				<stop  offset="1" style="stop-color:#5577FF"/>
			</linearGradient>
			<polygon style="fill:url(#SVGID_00000057835021831439922190000003080860154278181528_);" points="1383.204,390.742 
				1444.446,390.742 1444.446,378.36 1383.204,378.36 			"/>
			<defs>
				
					<filter id="Adobe_OpacityMaskFilter_00000016780669812566725000000005199310370268399518_" filterUnits="userSpaceOnUse" x="1552.828" y="277.97" width="4.572" height="85.721">
					<feFlood  style="flood-color:white;flood-opacity:1" result="back"/>
					<feBlend  in="SourceGraphic" in2="back" mode="normal"/>
				</filter>
			</defs>
			
				<mask maskUnits="userSpaceOnUse" x="1552.828" y="277.97" width="4.572" height="85.721" id="SVGID_00000000943275820999456360000014420494847723815862_">
				<g style="filter:url(#Adobe_OpacityMaskFilter_00000016780669812566725000000005199310370268399518_);">
					<defs>
						
							<filter id="Adobe_OpacityMaskFilter_00000070841315224215209560000006287778780645018779_" filterUnits="userSpaceOnUse" x="1552.828" y="277.97" width="4.572" height="85.721">
							<feFlood  style="flood-color:white;flood-opacity:1" result="back"/>
							<feBlend  in="SourceGraphic" in2="back" mode="normal"/>
						</filter>
					</defs>
					
						<mask maskUnits="userSpaceOnUse" x="1552.828" y="277.97" width="4.572" height="85.721" id="SVGID_00000000943275820999456360000014420494847723815862_">
						<g style="filter:url(#Adobe_OpacityMaskFilter_00000070841315224215209560000006287778780645018779_);">
						</g>
					</mask>
					
						<linearGradient id="SVGID_00000036950098204696687540000007999943677784096170_" gradientUnits="userSpaceOnUse" x1="1591.0378" y1="231.9781" x2="1496.6167" y2="465.5167">
						<stop  offset="0" style="stop-color:#FFFFFF"/>
						<stop  offset="1" style="stop-color:#000000"/>
					</linearGradient>
					
						<polygon style="mask:url(#SVGID_00000000943275820999456360000014420494847723815862_);fill:url(#SVGID_00000036950098204696687540000007999943677784096170_);" points="
						1552.828,277.97 1557.4,277.97 1557.4,363.691 1552.828,363.691 					"/>
				</g>
			</mask>
			
				<linearGradient id="SVGID_00000130604470147993026360000002254768777051107511_" gradientUnits="userSpaceOnUse" x1="1591.0378" y1="231.9781" x2="1496.6167" y2="465.5167">
				<stop  offset="0" style="stop-color:#40D5E6"/>
				<stop  offset="1" style="stop-color:#5577FF"/>
			</linearGradient>
			<polygon style="fill:url(#SVGID_00000130604470147993026360000002254768777051107511_);" points="1552.828,277.97 1557.4,277.97 
				1557.4,363.691 1552.828,363.691 			"/>
		</g>
	</g>
</g>
</svg>
