<?xml version="1.0" encoding="utf-8"?>
<!-- Generator: Adobe Illustrator 27.5.0, SVG Export Plug-In . SVG Version: 6.00 Build 0)  -->
<svg version="1.1" id="Layer_1" xmlns="http://www.w3.org/2000/svg" xmlns:xlink="http://www.w3.org/1999/xlink" x="0px" y="0px"
	 viewBox="0 0 3000 2000" style="enable-background:new 0 0 3000 2000;" xml:space="preserve">
<rect style="fill:#FFFFFF;" width="3000" height="2000"/>
<g>
	<path style="fill:#EDF4FF;" d="M2011.024,796.488c-121.176,45.622-237.179-13.562-374.001-100.316
		c-13.037-7.299-27.095-16.291-42.246-27.131c-29.309-18.987-59.625-38.823-91.183-58.82
		C1156,407.317,568.524,280.298,269.56,686.173c-280.097,380.26-103.856,760.674-47.482,862.06
		c9.684,16.88,15.532,26.152,15.532,26.152l2591.388,0.688C2958.112,633.063,2345.946,670.37,2011.024,796.488z"/>
	<path style="fill:#82B378;" d="M2484.472,1570.37c-4.382-6.884-17.569-24.749-35.134-22.384
		c-19.137,2.575,21.137,15.193,33.466,22.436c-2.737,0.038-5.093-0.182-6.821-0.797c-8.242-2.938-22.359,2.696-26.873,4.674h78.474
		c-0.543-1.878-1.956-4.943-5.611-7.177c-1.288-0.788-3.878-0.897-7.222-0.644c4.666-5.5,7.906-23.072-5.083-18.551
		c-9.489,3.304-9.464,14.04-8.532,20.393c-2.02,0.316-4.066,0.636-6.089,0.927c-3.907-19.912-17.726-78.271-45.735-79.826
		c-28.395-1.577,24.078,60.522,41.551,80.383C2488.623,1570.073,2486.467,1570.276,2484.472,1570.37z"/>
	<path style="fill:#2E3552;" d="M2880.613,1580.492H124.059c-2.174,0-3.953-1.778-3.953-3.952l0,0c0-2.175,1.779-3.953,3.954-3.953
		h2756.554c2.174,0,3.953,1.778,3.953,3.952v0.001C2884.566,1578.714,2882.787,1580.492,2880.613,1580.492z"/>
	<g>
		<g>
			<polygon style="fill:#DB6161;" points="1589.904,813.398 899.958,813.398 899.958,1397.609 1672.994,1397.609 			"/>
			<polygon style="fill:#233862;" points="1559.698,833.398 777.752,833.398 777.752,1397.609 1640.789,1397.609 			"/>
			<g>
				<g>
					<g>
						<g>
							
								<rect x="1222.44" y="1289.799" transform="matrix(-1 -1.224647e-16 1.224647e-16 -1 2551.2158 2687.4082)" style="fill:#E69D43;" width="106.335" height="107.811"/>
							
								<rect x="1324.35" y="1289.799" transform="matrix(-1 -1.224647e-16 1.224647e-16 -1 2697.3818 2687.4082)" style="fill:#D57912;" width="48.683" height="107.811"/>
						</g>
					</g>
				</g>
			</g>
			<g>
				<g>
					<g>
						<g>
							
								<rect x="1216.795" y="1184.939" transform="matrix(-1 -1.224647e-16 1.224647e-16 -1 2609.9258 2476.2139)" style="fill:#E69D43;" width="176.335" height="106.335"/>
							
								<rect x="1388.705" y="1184.939" transform="matrix(-1 -1.224647e-16 1.224647e-16 -1 2826.0923 2476.2139)" style="fill:#D57912;" width="48.682" height="106.335"/>
						</g>
					</g>
				</g>
			</g>
			<path style="fill:#B65615;" d="M474.709,1438.39H247.644c-5.519,0-10.034-4.516-10.034-10.033v-89.55
				c0-5.519,4.515-10.033,10.034-10.033h227.065c5.518,0,10.033,4.515,10.033,10.033v89.55
				C484.742,1433.874,480.227,1438.39,474.709,1438.39z"/>
			
				<ellipse transform="matrix(0.9991 -0.0416 0.0416 0.9991 -60.2765 49.6597)" style="fill:#233862;" cx="1164.27" cy="1474.593" rx="99.066" ry="99.065"/>
			
				<ellipse transform="matrix(0.9951 -0.0985 0.0985 0.9951 -137.7918 159.2524)" style="fill:#233862;" cx="1543.332" cy="1474.593" rx="99.066" ry="99.065"/>
			
				<ellipse transform="matrix(0.7071 -0.7071 0.7071 0.7071 -934.1997 693.828)" style="fill:#233862;" cx="370.425" cy="1474.593" rx="99.066" ry="99.065"/>
			<circle style="fill:#D36E2A;" cx="370.425" cy="1474.593" r="50"/>
			<circle style="fill:#F59040;" cx="370.425" cy="1474.593" r="50"/>
			<path style="fill:#D36E2A;" d="M403.707,1437.29c2.809,6.249,4.384,13.173,4.384,20.47c0,27.613-22.386,50-50,50
				c-12.784,0-24.441-4.805-33.282-12.698c7.823,17.404,25.297,29.531,45.616,29.531c27.614,0,50-22.386,50-50
				C420.425,1459.763,413.962,1446.446,403.707,1437.29z"/>
			<circle style="fill:#B65615;" cx="370.425" cy="1474.593" r="15.5"/>
			<circle style="fill:#B65615;" cx="344.05" cy="1501.155" r="6"/>
			<circle style="fill:#B65615;" cx="337.05" cy="1456.593" r="6"/>
			<circle style="fill:#B65615;" cx="403.05" cy="1456.593" r="6"/>
			<circle style="fill:#B65615;" cx="398.05" cy="1501.155" r="6"/>
			<circle style="fill:#B65615;" cx="370.425" cy="1436.39" r="6"/>
			<circle style="fill:#D36E2A;" cx="1162.425" cy="1474.593" r="50"/>
			<circle style="fill:#D36E2A;" cx="1162.425" cy="1474.593" r="50"/>
			<circle style="fill:#B65615;" cx="1162.425" cy="1474.593" r="15.5"/>
			<circle style="fill:#B65615;" cx="1136.05" cy="1501.155" r="6"/>
			<circle style="fill:#B65615;" cx="1129.05" cy="1456.593" r="6"/>
			<circle style="fill:#B65615;" cx="1195.05" cy="1456.593" r="6"/>
			<circle style="fill:#B65615;" cx="1190.05" cy="1501.155" r="6"/>
			<circle style="fill:#B65615;" cx="1162.425" cy="1436.39" r="6"/>
			
				<ellipse transform="matrix(0.9991 -0.0431 0.0431 0.9991 -62.939 29.4619)" style="fill:#233862;" cx="651.896" cy="1474.593" rx="99.066" ry="99.065"/>
			<path style="fill:#D57912;" d="M369.327,939.68c0,0,53.755-81.08,115.897-81.75l-5.543,87.727L369.327,939.68z"/>
			<path style="fill:#E69D43;" d="M685.991,1310.105H255.761l35.809-290.608c5.82-47.236,45.945-82.72,93.539-82.72h300.882
				V1310.105z"/>
			<path style="fill:#D57912;" d="M435.901,1132.458H315.256l15.98-114.747c3.291-23.63,23.499-41.218,47.357-41.218h61.044
				L435.901,1132.458z"/>
			<path style="fill:#DCE7F9;" d="M426.98,1123.828h-79.432c-11.987,0-21.232-10.555-19.655-22.438l10.54-79.393
				c2.784-20.971,19.88-36.579,40.064-36.579h51.643L426.98,1123.828z"/>
			<polygon style="fill:#D15050;" points="1271.169,1397.609 443.652,1397.609 480.565,813.398 1222.262,813.398 			"/>
			<polygon style="fill:#B64C41;" points="1238.781,1375.453 474.04,1375.453 508.152,835.559 1193.582,835.559 1230.215,1273.183 
							"/>
			<path style="fill:#D57912;" d="M518.277,1310.105H255.761c-23.118,1.538-25.353,12.967-25.353,12.967l-22.446,108.572
				c0,3.71,3.411,6.745,7.579,6.745h66.004c4.169,0,7.176-3.054,8.954-6.92c0,0,10.156-12.547,16.969-17.038
				c17.064-11.25,35.59-18.626,62.957-18.626c33.649,0,63.374,10.703,81.279,27.061h66.573c8.036,0,14.61-4.193,14.61-9.319v-94.123
				C532.887,1314.299,526.313,1310.105,518.277,1310.105z"/>
			<path style="fill:#D15050;" d="M1297.736,1523.239h-83.196c-1.915-10.079-5.53-18.962-10.424-26.789
				c-25.154-40.313-83.971-52.634-117.476-56.398c-14.683-1.653-24.51-1.662-24.51-1.662h143.014
				c37.409,5.071,60.377,25.472,74.071,45.003C1293.533,1503.792,1297.736,1523.239,1297.736,1523.239z"/>
			<path style="fill:#D15050;" d="M1672.994,1523.239h-83.196c-2.177-11.471-6.566-21.399-12.517-29.974
				c-37.997-54.802-139.894-54.876-139.894-54.876h143.023c31.282,4.24,52.457,19.204,66.57,35.41
				C1667.371,1497.226,1672.994,1523.239,1672.994,1523.239z"/>
			<path style="fill:#A03C37;" d="M1279.214,1483.393c0,0-54.755-11.555-75.099,13.058c-25.154-40.313-83.971-52.634-117.476-56.398
				c-0.682-0.561-1.354-1.111-2.018-1.662h120.521C1242.552,1443.461,1265.521,1463.861,1279.214,1483.393z"/>
			<path style="fill:#A03C37;" d="M1646.98,1473.8c0,0.009,0,0.009,0,0.009s-45.797-1.027-69.699,19.457
				c-37.997-54.802-139.894-54.876-139.894-54.876h143.023C1611.692,1442.63,1632.867,1457.594,1646.98,1473.8z"/>
			<path style="fill:#A03C37;" d="M462.404,1454.27H1682.41c6.125,0,11.138-5.012,11.138-11.138v-34.386
				c0-6.125-5.013-11.137-11.138-11.137H462.404c-6.126,0-11.138,5.012-11.138,11.137v34.386
				C451.266,1449.258,456.278,1454.27,462.404,1454.27z"/>
			<path style="fill:#A03C37;" d="M740.226,1537.341H514.565c-5.905,0-10.735-4.831-10.735-10.735V1422.58
				c0-5.904,4.831-10.735,10.735-10.735h225.661c5.905,0,10.736,4.831,10.736,10.735v104.025
				C750.962,1532.51,746.131,1537.341,740.226,1537.341z"/>
			<path style="fill:#C44943;" d="M1239.778,1375.453h-764.74l34.112-539.895h133.57
				c41.818,123.333,183.262,415.721,588.493,437.624L1239.778,1375.453z"/>
			<g>
				<path style="fill:#B64C41;" d="M263.588,1076.219c0,0-10.755,57.797-10.222,67.221c0.534,9.424,9.431,14.021,16.193,14.021
					L263.588,1076.219z"/>
				<path style="fill:#D57912;" d="M296.242,1157.461h-26.139c-3.822,0-6.95-3.127-6.95-6.949v-72.166
					c0-3.822,3.127-6.949,6.95-6.949h26.139c3.822,0,6.95,3.127,6.95,6.949v72.166
					C303.192,1154.334,300.064,1157.461,296.242,1157.461z"/>
				<path style="fill:#DCE7F9;" d="M294.236,1153.277h-20.703c-3.262,0-5.931-2.669-5.931-5.931v-65.197
					c0-3.262,2.669-5.931,5.931-5.931h20.703c3.262,0,5.93,2.669,5.93,5.931v65.197
					C300.167,1150.608,297.498,1153.277,294.236,1153.277z"/>
				<g>
					<path style="fill:#B64C41;" d="M283.173,1072.967c-0.737,0-1.335-0.702-1.335-1.57v-24.293c0-0.065,0.003-0.131,0.01-0.195
						c0.015-0.14,1.665-13.968,16.218-13.521c13.31,0.411,19.043,0.006,19.1,0.002c0.737-0.055,1.369,0.604,1.415,1.47
						s-0.513,1.611-1.248,1.665c-0.235,0.018-5.908,0.42-19.337,0.003c-11.721-0.358-13.346,9.567-13.489,10.685v24.186
						C284.507,1072.265,283.91,1072.967,283.173,1072.967z"/>
				</g>
			</g>
			<path style="fill:#D57912;" d="M424.721,1169.857h-24.343c-3.409,0-6.198-2.789-6.198-6.198l0,0c0-3.409,2.789-6.198,6.198-6.198
				h24.343c3.409,0,6.198,2.789,6.198,6.198l0,0C430.919,1167.068,428.13,1169.857,424.721,1169.857z"/>
			<g>
				<g>
					<g>
						<g>
							
								<rect x="1398.94" y="1291.274" transform="matrix(-1 -1.224647e-16 1.224647e-16 -1 2904.2158 2688.8838)" style="fill:#E69D43;" width="106.335" height="106.335"/>
							
								<rect x="1500.85" y="1291.274" transform="matrix(-1 -1.224647e-16 1.224647e-16 -1 3050.3818 2688.8838)" style="fill:#D57912;" width="48.683" height="106.335"/>
						</g>
					</g>
				</g>
			</g>
			<g>
				<path style="fill:#FFFFFF;" d="M659.953,1072.256c4.686,0,8.755,0.617,12.207,1.853c3.452,1.235,6.333,2.993,8.646,5.272
					c2.311,2.28,4.085,5.035,5.32,8.266c1.235,3.229,1.979,6.84,2.232,10.829c0.253,4.688,0.253,9.374,0,14.061
					c-0.254,3.989-0.997,7.6-2.232,10.83c-1.235,3.229-2.993,5.984-5.272,8.265c-2.28,2.28-5.115,4.037-8.502,5.272
					c-3.389,1.235-7.362,1.853-11.923,1.853h-23.939c-0.698,0-1.299-0.252-1.805-0.76c-0.508-0.506-0.76-1.107-0.76-1.805v-61.37
					c0-0.696,0.252-1.298,0.76-1.806c0.506-0.506,1.107-0.76,1.805-0.76H659.953z M675.533,1098.476
					c-0.127-2.026-0.522-3.909-1.187-5.652c-0.666-1.741-1.648-3.261-2.945-4.56c-1.299-1.298-2.93-2.312-4.893-3.04
					c-1.963-0.728-4.308-1.093-7.03-1.093h-12.73v42.75h13.205c2.596,0,4.845-0.363,6.745-1.093c1.9-0.728,3.482-1.725,4.75-2.992
					c1.266-1.267,2.232-2.786,2.898-4.56c0.665-1.772,1.06-3.673,1.187-5.7C675.785,1107.85,675.785,1103.164,675.533,1098.476z"/>
				<path style="fill:#FFFFFF;" d="M745.073,1126.881c0.696,0,1.297,0.254,1.805,0.76c0.506,0.508,0.76,1.109,0.76,1.806v6.745
					c0,0.697-0.254,1.299-0.76,1.805c-0.508,0.508-1.109,0.76-1.805,0.76h-41.705c-0.698,0-1.299-0.252-1.805-0.76
					c-0.508-0.506-0.76-1.107-0.76-1.805v-61.37c0-0.696,0.252-1.298,0.76-1.806c0.506-0.506,1.107-0.76,1.805-0.76h40.945
					c0.696,0,1.297,0.254,1.805,0.76c0.506,0.508,0.76,1.109,0.76,1.806v6.745c0,0.697-0.254,1.299-0.76,1.805
					c-0.508,0.508-1.109,0.76-1.805,0.76h-30.685v15.105h28.595c0.696,0,1.297,0.254,1.805,0.76c0.506,0.508,0.76,1.108,0.76,1.805
					v6.745c0,0.698-0.254,1.299-0.76,1.805c-0.507,0.508-1.108,0.761-1.805,0.761h-28.595v15.77H745.073z"/>
				<path style="fill:#FFFFFF;" d="M803.592,1126.881c0.696,0,1.297,0.254,1.805,0.76c0.506,0.508,0.76,1.109,0.76,1.806v6.745
					c0,0.697-0.253,1.299-0.76,1.805c-0.508,0.508-1.109,0.76-1.805,0.76h-41.61c-0.698,0-1.299-0.252-1.805-0.76
					c-0.508-0.506-0.76-1.107-0.76-1.805v-61.37c0-0.696,0.252-1.298,0.76-1.806c0.506-0.506,1.107-0.76,1.805-0.76h7.695
					c0.696,0,1.298,0.254,1.805,0.76c0.506,0.508,0.76,1.109,0.76,1.806v52.06H803.592z"/>
				<path style="fill:#FFFFFF;" d="M817.841,1138.756c-0.698,0-1.298-0.252-1.805-0.76c-0.508-0.506-0.76-1.107-0.76-1.805v-61.37
					c0-0.696,0.252-1.298,0.76-1.806c0.506-0.506,1.107-0.76,1.805-0.76h7.695c0.696,0,1.297,0.254,1.805,0.76
					c0.506,0.508,0.76,1.109,0.76,1.806v61.37c0,0.697-0.254,1.299-0.76,1.805c-0.507,0.508-1.108,0.76-1.805,0.76H817.841z"/>
				<path style="fill:#FFFFFF;" d="M867.05,1119.946l15.96-45.315c0.19-0.506,0.522-1.028,0.997-1.567
					c0.475-0.537,1.188-0.808,2.137-0.808h7.22c0.696,0,1.297,0.254,1.805,0.76c0.506,0.508,0.76,1.109,0.76,1.806
					c0,0.127,0,0.237,0,0.332s-0.064,0.302-0.19,0.617l-21.28,59.755c-0.38,1.078-0.824,1.886-1.33,2.423
					c-0.508,0.539-1.268,0.808-2.28,0.808h-7.6c-1.014,0-1.774-0.269-2.28-0.808c-0.508-0.537-0.95-1.345-1.33-2.423l-21.28-59.755
					c-0.128-0.315-0.19-0.522-0.19-0.617s0-0.205,0-0.332c0-0.696,0.252-1.298,0.76-1.806c0.506-0.506,1.107-0.76,1.805-0.76h7.22
					c0.95,0,1.663,0.271,2.138,0.808c0.475,0.539,0.808,1.062,0.997,1.567L867.05,1119.946z"/>
				<path style="fill:#FFFFFF;" d="M950.268,1126.881c0.696,0,1.297,0.254,1.805,0.76c0.506,0.508,0.76,1.109,0.76,1.806v6.745
					c0,0.697-0.254,1.299-0.76,1.805c-0.508,0.508-1.109,0.76-1.805,0.76h-41.705c-0.698,0-1.299-0.252-1.805-0.76
					c-0.508-0.506-0.76-1.107-0.76-1.805v-61.37c0-0.696,0.252-1.298,0.76-1.806c0.506-0.506,1.107-0.76,1.805-0.76h40.945
					c0.696,0,1.297,0.254,1.805,0.76c0.506,0.508,0.76,1.109,0.76,1.806v6.745c0,0.697-0.254,1.299-0.76,1.805
					c-0.508,0.508-1.109,0.76-1.805,0.76h-30.685v15.105h28.595c0.696,0,1.297,0.254,1.805,0.76c0.506,0.508,0.76,1.108,0.76,1.805
					v6.745c0,0.698-0.254,1.299-0.76,1.805c-0.507,0.508-1.108,0.761-1.805,0.761h-28.595v15.77H950.268z"/>
				<path style="fill:#FFFFFF;" d="M991.688,1072.256c7.916,0,13.932,1.838,18.05,5.51c4.116,3.674,6.175,8.772,6.175,15.295
					c0,4.624-1.061,8.566-3.183,11.828c-2.123,3.263-5.241,5.685-9.357,7.268l13.11,23.465c0.19,0.38,0.285,0.729,0.285,1.045
					c0,0.57-0.206,1.062-0.617,1.473c-0.413,0.412-0.903,0.617-1.473,0.617h-8.075c-1.268,0-2.201-0.3-2.802-0.902
					c-0.602-0.602-1.03-1.155-1.283-1.662l-12.445-22.136h-12.635v22.136c0,0.697-0.254,1.299-0.76,1.805
					c-0.507,0.508-1.109,0.76-1.805,0.76h-7.695c-0.698,0-1.299-0.252-1.805-0.76c-0.508-0.506-0.76-1.107-0.76-1.805v-61.37
					c0-0.696,0.252-1.298,0.76-1.806c0.506-0.506,1.107-0.76,1.805-0.76H991.688z M977.438,1102.181h13.775
					c3.61,0,6.491-0.632,8.645-1.899c2.152-1.267,3.23-3.673,3.23-7.221c0-3.546-1.078-5.921-3.23-7.125
					c-2.154-1.202-5.035-1.805-8.645-1.805h-13.775V1102.181z"/>
				<path style="fill:#FFFFFF;" d="M1076.333,1072.256c0.696,0,1.297,0.254,1.805,0.76c0.506,0.508,0.76,1.109,0.76,1.806
					c0,0.317-0.064,0.603-0.19,0.854l-22.515,39.615v20.9c0,0.697-0.254,1.299-0.76,1.805c-0.507,0.508-1.109,0.76-1.805,0.76h-7.6
					c-0.697,0-1.299-0.252-1.805-0.76c-0.508-0.506-0.76-1.107-0.76-1.805v-20.9l-22.515-39.615c-0.127-0.252-0.19-0.537-0.19-0.854
					c0-0.696,0.252-1.298,0.76-1.806c0.506-0.506,1.107-0.76,1.805-0.76h7.125c1.267,0,2.216,0.317,2.85,0.95
					c0.632,0.634,1.012,1.108,1.14,1.425l15.39,26.885l15.39-26.885c0.126-0.316,0.506-0.791,1.14-1.425
					c0.632-0.633,1.583-0.95,2.85-0.95H1076.333z"/>
			</g>
		</g>
		<g>
			<g>
				<path style="fill:#A03C37;" d="M2184.647,1211.531c2.899-6.274,1.336-9.638,1.336-9.638s-67.073-24.875-73.58-26.543
					c-4.436-1.136-54.729-22.069-79.907-36.714c-12.49-7.266-22.185,0.549-33.604,8.536l-9.404,6.577
					c-11.355,7.941-8.579,26.686,4.698,31.695c37.394,14.111,95.136,24.596,106.154,27.182c27.354,6.422,77.159,8.11,77.159,8.11
					S2182.158,1216.917,2184.647,1211.531z"/>
			</g>
			<g>
				<path style="fill:#FFB27D;" d="M2503.464,1210.649l-8.999,0.509c0,0-15.924-6.074-24.268,10.47c0,0-2.933,7.088,2.602,7.427
					c5.535,0.338,3.461-0.591,11.254,0.057c7.794,0.648,15.191-2.352,17.72-7.487l4.921-4.188L2503.464,1210.649z"/>
				<path style="fill:#233862;" d="M2496.857,1217.081c-1.926-6.191-1.469-7.177-1.469-7.177s54.98-29.56,60.017-32.559
					s61.926-63.253,61.926-63.253l58.086,16.138c0,0-90.11,68.304-103.019,75.65c-21.332,12.143-70.679,18.925-70.679,18.925
					S2498.371,1221.944,2496.857,1217.081z"/>
			</g>
			<g>
				<g>
					<path style="fill:#D57912;" d="M2576.27,1251.383l-439.311,93.512l-58.137-273.124l439.311-93.512L2576.27,1251.383z"/>
				</g>
			</g>
			<g>
				<g>
					<path style="fill:#E69D43;" d="M2469.401,1274.131l-332.442,70.764l-58.137-273.124l332.441-70.764L2469.401,1274.131z"/>
				</g>
			</g>
			<path style="fill:#233862;" d="M2232.779,1537.499c0,0,8.868,9.781,29.452,4.462c0,0,16.595-3.781,20.234,4.495
				c0,0-20.888,13.214-27.327,16.75c-4.855,2.665-9.921,6.872-13.502,10.124c-2.834,2.573-7.248,2.225-9.664-0.746
				c-1.12-1.377-2.4-3.016-3.805-4.919c-3.924-5.318-13.068-22.497-13.068-22.497L2232.779,1537.499z"/>
			<path style="fill:#2B478B;" d="M2240.664,1532.386c0,0-8.18,18.859-27.061,15.393c0,0-38.527-31.817-64.955-64.87
				c-8.583-10.735-15.892-21.601-20.186-31.544c-17.525-40.575-64.826-101.093-94.899-131.765l75.242-27.22
				c0,0,24.101,48.481,56.168,108.032C2188.083,1443.318,2215.322,1491.975,2240.664,1532.386z"/>
			<path style="fill:#233862;" d="M2164.974,1400.412l-16.325,82.496c-8.583-10.735-15.892-21.601-20.186-31.544
				c-17.525-40.575-64.826-101.093-94.899-131.765l75.242-27.22C2108.806,1292.38,2132.906,1340.861,2164.974,1400.412z"/>
			<path style="fill:#233862;" d="M2103.47,1548.443c0,0-0.819,15.051,17.424,17.058c0,0,11.011,0.225,11.039,9.802h-53.608
				c0,0-1.539-3.863-1.913-12.14c-0.287-6.354,6.16-22.968,6.16-22.968L2103.47,1548.443z"/>
			<path style="fill:#2B478B;" d="M2084.127,1292.38c0,0,33.52,36.832,54.798,103.189c11.576,36.104-21.22,126.877-27.613,158.415
				c0,0-22.001,1.867-37.044-3.949c0,0-1.143-65.141,7.655-115.347c4.924-28.099-44.135-60.094-65.571-110.864
				c-14.583-34.54,3.158-33.953,24.961-34.783L2084.127,1292.38z"/>
			<path style="fill:#FFB07B;" d="M2045.432,1128.055c-18.649,10.531-56.829,0.818-56.829,0.818s15.505-17.726,8.459-46.273
				l14.644,7.437l15.729,7.988c0,0,1.018,5.042,1.724,14.098c0.181,2.331,0.342,4.937,0.453,7.783
				C2039.186,1122.808,2045.432,1128.055,2045.432,1128.055z"/>
			<path style="fill:#B64C41;" d="M2113.816,1290.477c0,3.278-3.775,4.848-4.578,5.007c-7.521,1.375-28.524,9.545-47.444,11.419
				c-15.932,1.669-30.722,0.084-46.972-3.179c-2.152-0.434-7.204-1.794-7.563-3.856c-0.448-2.251-62.679-126.862-14.303-180.39
				c1.136-1.255,10.687,1.007,19.419,3.079c8.065,1.913,15.463,0.847,22.069-1.804l8.189,4.31
				c10.058,5.604,29.088,25.515,31.314,41.139c1.131,7.945,5.674,13.828,6.989,20.817c0.487,2.586,0.986,5.111,1.494,7.572
				c0.991,4.827,2.013,9.42,3.063,13.789c2.844,11.816,5.85,21.989,8.798,30.776c3.139,9.33,6.217,17.092,8.966,23.583
				c3.568,8.419,6.582,14.711,8.465,19.528C2113.055,1285.66,2113.816,1288.32,2113.816,1290.477z"/>
			<path style="fill:#A03C37;" d="M2111.725,1282.268c-87.846-41.388-118.27-120.859-118.27-120.859s70.75,23.253,88.355,30.107
				c0.99,4.827,2.635,12.495,3.686,16.864c2.844,11.816,5.85,21.989,8.798,30.776c3.139,9.33,6.217,17.092,8.966,23.583
				C2106.828,1271.158,2109.842,1277.45,2111.725,1282.268z"/>
			<path style="fill:#FFB07B;" d="M2143.159,1080.495l1.678-7.909c0,0-12.797-13.521,3.165-25.372c0,0,7.072-4.472,9.483,0.656
				c2.411,5.129,0.585,3.399,4.178,10.579c3.592,7.18,2.848,14.867-2.13,18.487l-3.015,5.646L2143.159,1080.495z"/>
			<path style="fill:#EA8E50;" d="M2029.157,1112.122c-18.339,1.029-30.267-14.112-30.267-14.112s8.293-4.594,12.814-7.974
				l15.729,7.988C2027.434,1098.024,2028.451,1103.066,2029.157,1112.122z"/>
			<path style="fill:#FFB07B;" d="M2036.971,1093.293c0,0-27.787,19.941-39.939,2.445s-23.923-26.705-6.694-40.177
				c17.228-13.473,25.349-9.216,30.825-4.362C2026.639,1056.052,2043.886,1087.654,2036.971,1093.293z"/>
			<path style="fill:#233862;" d="M2024.098,1035.397c-0.997-6.726-3.237-11.458-3.237-11.458s-1.744,7.224-14.945,6.227
				c-13.202-0.995-34.124,1.299-41.099,16.343c-0.444,0.956-0.84,1.942-1.19,2.95c-1.263-3.335-1.567-8.333-1.567-8.333
				c-2.509,6.477,0,14.577,0,14.577h0.001c-0.037,0.236-0.068,0.474-0.103,0.71c-2.914,2.463-5.36,10.12-5.36,10.12
				c0.88-2.136,3.023-3.529,4.935-4.388c-0.059,11.706,4.688,23.149,13.021,26.556c12.185,4.981,12.086,1.182,24.339,9.309
				c0,0,3.288-4.078,1.046-6.817c-2.241-2.74-10.71-6.726-5.979-10.712c4.733-3.984,6.478,0.499,8.221-2.24
				c1.744-2.741-6.975-10.711,4.234-18.184C2017.621,1052.584,2025.094,1042.123,2024.098,1035.397z"/>
			<g>
				<path style="fill:#2C3A64;" d="M2788.949,1531.325c0,0,9.35,8.665,7.524,14.822c-1.824,6.157-10.262,10.262-11.402,17.787
					c-1.14,7.526-5.7,11.631-9.806,11.631c-4.104,0-19.569,0-19.569,0s-3.021-5.296,4.275-6.893
					c7.298-1.596,10.049-10.438,9.593-18.648s0.685-19.155,0.685-19.155l15.507-3.649L2788.949,1531.325z"/>
				<path style="fill:#2C3A64;" d="M2672.418,1575.246c-0.229,0.117-0.604,0.223-1.103,0.32h-51.884
					c0.417-1.819,2.037-5.462,8.291-6.476c8.172-1.324,22.342-6.073,25.501-16.533c0.101-0.335,0.19-0.678,0.269-1.029
					c2.509-11.173,20.749,3.425,20.749,3.425s0.055,0.444,0.132,1.2C2674.798,1560.248,2675.886,1573.513,2672.418,1575.246z"/>
				<path style="fill:#B64C41;" d="M2629.892,1276.372c0,0,2.771,34.569,6.027,76.123c4.427,56.447,9.749,125.784,10.275,138.92
					c0.91,22.808,4.563,59.293,4.563,59.293s8.661,8.668,25.997,5.015c0,0,15.447-52.083,19.86-107.189
					c0.068-0.902,0.137-1.813,0.205-2.723c4.104-56.099,10.487-174.228,10.487-174.228L2629.892,1276.372z"/>
				<path style="fill:#A03C37;" d="M2629.892,1276.372c0,0,2.771,34.569,6.027,76.123l60.696,96.038
					c0.068-0.902,0.137-1.813,0.205-2.723c4.104-56.099,10.487-174.228,10.487-174.228L2629.892,1276.372z"/>
				<path style="fill:#B64C41;" d="M2642.545,1280.478c0,0,49.941,125.195,82.779,184.03s43.101,75.255,43.101,75.255
					s18.813-7.525,20.524-12.656c0,0-12.559-113.585-34.55-141.273c-12.426-15.646-27.022-62.598-27.707-79.017
					s-4.446-48.916-4.446-48.916L2642.545,1280.478z"/>
			</g>
			<path style="fill:#FFB27D;" d="M2647.698,1078.574c0,0-24.913,32.863-45.272,34.885c0,0,2.405-11.828,8.296-19.359
				c-1.661-2.583-3.106-4.945-4.351-7.053c-4.126-7.027-5.973-11.239-5.973-11.239l9.09-17.127l6.168-11.62
				c1.658,4.257,3.619,7.957,5.747,11.18C2632.371,1074.833,2647.698,1078.574,2647.698,1078.574z"/>
			<path style="fill:#ED975D;" d="M2621.403,1058.24c0,0,0.049,18.13-15.032,28.807c-4.126-7.027-5.973-11.239-5.973-11.239
				l9.09-17.127C2616.964,1057.444,2621.403,1058.24,2621.403,1058.24z"/>
			<path style="fill:#FFB27D;" d="M2594.729,1077.728c0,0,31.74-7.765,26.602-27.457c-5.141-19.692-4.505-33.957-24.988-29.832
				s-22.443,12.663-22.327,19.653C2574.132,1047.081,2586.339,1079.24,2594.729,1077.728z"/>
			<path style="fill:#2B478B;" d="M2727.263,1274.715c-14.499,15.891-108.628,27.209-105.942,15.235
				c1.027-4.581,2.667-12.685,3.156-23.9c0.116-2.626,0.16-5.419,0.127-8.384c-0.201-16.228-2.981-37.427-12.091-62.747
				c-0.684-1.897-1.401-3.813-2.154-5.757c-3.827-9.844-6.839-20.112-8.862-30.03c-3.891-19.063-4.119-36.838,0.574-47.816
				c0.02-0.054,6.137-17.597,6.162-17.649c20.195-6.276,26-21.925,26-21.925s63.376,20.262,88.265,111.615
				C2722.497,1183.356,2739.875,1260.884,2727.263,1274.715z"/>
			<path style="fill:#233862;" d="M2624.477,1266.05c0.116-2.626,0.16-5.419,0.127-8.384c-0.201-16.228-2.981-37.427-12.091-62.747
				c3.793-12.473,8.104-22.692,11.924-27.042c15.521-17.688,23.465-19.722,23.465-19.722S2656.461,1232.613,2624.477,1266.05z"/>
			<path style="fill:#233862;" d="M2630.264,1016.141c0.267-0.39,0.939-0.755,2.5-1.015c0,0-1.342-0.658-3.024-0.516
				c-0.572-2.18-2.165-5.974-6.025-6.514c0,0,2.139,0.87,2.661,3.197c-4.849-4.058-14.532-6.333-40.111-1.422
				c-33.712,6.474-20.066,27.354-15.373,29.506c4.694,2.151,14.98-6.298,23.258-6.54c8.276-0.242,11.163,11.625,14.128,12.971
				s1.55-1.455,5.124-3.599c3.575-2.144,4.632,4.153,3.998,8.394s5.139,9.105,5.139,9.105s0,0,4.599-6.295s6.858-31.06,3.912-35.961
				C2630.787,1017.021,2630.529,1016.581,2630.264,1016.141z"/>
			<g>
				<path style="fill:#FFB27D;" d="M2537.262,1247.055c0,0-11.428,0.626-13.877,1.486c-2.45,0.86-10.174,6.921-10.096,7.66
					c0.08,0.739,0.652,1.201,2.188,0.887c1.536-0.313,6.328-2.322,6.179-1.634c-0.149,0.689-13.678,7.446-13.042,10.368
					c0.636,2.923,9.948,6.112,16.669,4.645c6.721-1.467,20.351-11.813,21.236-12.566
					C2547.404,1257.147,2537.262,1247.055,2537.262,1247.055z"/>
				<path style="fill:#2B478B;" d="M2537.982,1252.89c-4.234-5.443-1.916-8.38-1.916-8.38s50.979-49.527,54.869-54.396
					s16.589-77.115,16.589-77.115s7.253-17.385,23.202-22.256c13.86-4.233,21.054-10.003,28.332-2.481
					c8.673,8.965,10.866,22.375,5.679,33.718c-11.645,25.461-35.215,76.051-42.715,85.065
					c-14.479,17.404-60.736,45.332-72.745,52.43c-1.76,1.041-3.981,0.813-5.506-0.55
					C2542.032,1257.368,2539.755,1255.169,2537.982,1252.89z"/>
			</g>
			<path style="fill:#B64C41;" d="M2161.431,1078.086c0,0-2.525-3.934-8.532-5.299c-7.646-1.738-11.111-2.536-11.111-2.536
				s-38.141,63.413-41.281,69.768c-0.691,1.398-1.9,3.641-3.64,6.722c-1.328,2.352-4.078,3.517-6.687,2.816
				c-14.745-3.959-30.955-9.003-43.035-14.587c-13.561-6.268-29.469-4.551-41.384,4.463l-9.812,7.424
				c-11.847,8.963-8.264,27.622,6.063,31.552c34.621,9.496,85.131,15.037,106.251,17.479c9.568,1.109,21.195-22.626,26.962-36.02
				c-0.02-0.004-0.037-0.008-0.057-0.013C2147.515,1132.051,2161.431,1078.086,2161.431,1078.086z"/>
		</g>
		<g>
			<g>
				<g>
					<g>
						<path style="fill:#233862;" d="M1737.327,1573.09h-55.333c0.574-1.984,2.441-5.394,8.561-6.39
							c8.54-1.39,23.338-6.348,26.636-17.267c0.104-0.352,0.201-0.712,0.284-1.078c2.62-11.672,21.678,3.574,21.678,3.574
							s0.056,0.471,0.139,1.266C1739.733,1557.455,1740.854,1571.126,1737.327,1573.09z"/>
						<path style="fill:#2B478B;" d="M1692.824,1260.916c0,0,2.895,36.111,6.296,79.521c4.624,58.968,10.185,131.399,10.735,145.121
							c0.95,23.827,4.767,61.939,4.767,61.939s9.048,9.056,27.157,5.239c0,0,16.137-54.408,20.746-111.975
							c0.072-0.943,0.144-1.894,0.215-2.845c4.288-58.603,10.956-182.005,10.956-182.005L1692.824,1260.916z"/>
						<path style="fill:#233862;" d="M1692.824,1260.916c0,0,2.895,36.111,6.296,79.521l63.405,100.325
							c0.072-0.943,0.144-1.894,0.215-2.845c4.288-58.603,10.956-182.005,10.956-182.005L1692.824,1260.916z"/>
						<path style="fill:#2B478B;" d="M1706.042,1265.203c0,0,52.171,130.785,86.476,192.246
							c34.304,61.462,45.023,78.614,45.023,78.614s19.653-7.861,21.44-13.222c0,0-13.118-118.654-36.091-147.579
							c-12.981-16.344-28.229-65.393-28.944-82.544c-0.715-17.152-4.646-51.1-4.646-51.1L1706.042,1265.203z"/>
					</g>
					<path style="fill:#FFB27D;" d="M1774.685,1063.655c0,0-35.3,17.297-55.65,10.879c0,0,5.01-6.417,13.775-11.192
						c-0.704-4.148-1.252-7.749-1.565-10.802c-0.86-7.044-0.86-11.036-0.86-11.036l13.618-10.878l12.915-10.411
						C1755.899,1049.488,1774.685,1063.655,1774.685,1063.655z"/>
					<path style="fill:#B64C41;" d="M1793.286,1248.318c0.078,2.191-4.54,4.696-6.574,5.636
						c-15.107,6.73-29.195,11.427-45.162,12.993c-18.863,1.956-41.17-2.349-48.84-2.192c-0.783,0-1.487-0.313-2.113-0.86
						c-0.548-0.393-0.939-23.481-0.548-52.519c0-1.175,0-2.349,0.078-3.522v-0.391c0.156-11.35,0.548-23.246,1.096-35.144
						c1.096-26.143,3.131-51.346,6.574-65.277c4.148-16.437,13.541-27.316,22.072-35.221l7.045-6.263
						c7.043,1.41,14.479,1.019,21.915-2.659c8.14-3.992,17.045-8.471,18.455-7.376c10.645,7.906,17.705,25.846,21.54,48.544
						c2.191,13.071,3.288,27.708,3.21,43.049c0,5.636-0.157,11.428-0.47,17.142c-1.879,30.994,0,57.918,1.095,73.493
						C1792.973,1242.292,1793.207,1245.813,1793.286,1248.318z"/>
					<path style="fill:#A03C37;" d="M1792.659,1237.751c-171.019-0.233-31.542-127.5-31.542-127.5l27.707-6.184
						c2.191,13.071,3.288,27.708,3.21,43.049c0,5.636-0.157,11.428-0.47,17.142
						C1789.686,1195.252,1791.564,1222.176,1792.659,1237.751z"/>
					<g>
						
							<rect x="1582.272" y="1130.587" transform="matrix(-1 -1.224647e-16 1.224647e-16 -1 3270.8799 2367.5088)" style="fill:#E69D43;" width="106.335" height="106.335"/>
						
							<rect x="1684.182" y="1130.587" transform="matrix(-1 -1.224647e-16 1.224647e-16 -1 3417.0459 2367.5088)" style="fill:#D57912;" width="48.683" height="106.335"/>
					</g>
					<path style="fill:#FFB27D;" d="M1672.634,1185.322l-6.332-2.031c0,0-4.431-14.656-19.406-8.096c0,0-6.08,3.224-3.402,7.039
						c2.678,3.814,2.188,1.806,5.849,7.3c3.659,5.496,9.451,8.103,14.067,6.025l5.261,0.151L1672.634,1185.322z"/>
					<path style="fill:#B64C41;" d="M1774.691,1063.617c0,0,38.729,61.594-2.525,132.77c-12.878,22.219-110.147,1.102-110.147,1.102
						s-3.792-6.85,6.359-14.065c0,0,64.761-10.962,72.48-12.8c6.849-1.631,2.282-64.572,10.11-82.835
						C1758.795,1069.525,1774.691,1063.617,1774.691,1063.617z"/>
					<path style="fill:#ED985F;" d="M1757.151,1031.408c0,0-8.922,16.515-25.907,21.132c-0.86-7.044-0.86-11.036-0.86-11.036
						l13.618-10.878L1757.151,1031.408z"/>
					<path style="fill:#FFB27D;" d="M1724.174,1041.027c0,0,33.674,5.594,36.835-15.43c3.161-21.024,9.637-34.462-11.729-38.923
						c-21.367-4.461-26.761,2.932-29.522,9.693C1716.995,1003.129,1715.495,1039.03,1724.174,1041.027z"/>
					<path style="fill:#233862;" d="M1760.787,1027.048c0,0-0.68-28.163-31.362-32.683c-21.017-3.096-19.269-18.321-16.866-21.102
						c0,0,27.164,0.226,43.488,4.338C1780.734,983.822,1764.435,1022.86,1760.787,1027.048z"/>
				</g>
			</g>
			<path style="fill:#233862;" d="M1858.98,1527.251l-1.632-2.102l-18.546,10.393c-0.173,3.548-0.27,7.647-0.069,11.243
				c0.136,2.438-0.007,4.926-0.445,7.28c-0.386,1.841-2.35,9.694-8.093,11.756c-6.519,2.341-7.042,7.349,4.085,7.269
				c1.993-0.015,3.946-0.023,5.81-0.029c6.944-0.021,12.874-4.743,14.768-11.424c0.744-2.627,2.121-5.58,4.508-8.723
				c2.922-3.418,6.366-6.438,7.478-10.181C1868.751,1536.303,1858.98,1527.251,1858.98,1527.251z"/>
		</g>
	</g>
</g>
</svg>
