<?xml version="1.0" encoding="utf-8"?>
<!-- Generator: Adobe Illustrator 27.5.0, SVG Export Plug-In . SVG Version: 6.00 Build 0)  -->
<svg version="1.1" id="Layer_1" xmlns="http://www.w3.org/2000/svg" xmlns:xlink="http://www.w3.org/1999/xlink" x="0px" y="0px"
	 viewBox="0 0 900 900" style="enable-background:new 0 0 900 900;display:none;" xml:space="preserve">
<g style="display:inline;">
	<path style="fill:#CCDEF2;" d="M145.615,813.958c0-1.517,1.515-2.758,3.367-2.758h624.852c1.852,0,3.367,1.241,3.367,2.758
		s-1.515,2.758-3.367,2.758H148.982C147.13,816.716,145.615,815.474,145.615,813.958z"/>
</g>
<g style="display:inline;">
	<g>
		<g>
			<g>
				<g>
					
						<line style="fill:none;stroke:#12A8DD;stroke-width:9.7576;stroke-miterlimit:10;" x1="461.533" y1="142.466" x2="461.533" y2="119.037"/>
					
						<line style="fill:none;stroke:#1670C1;stroke-width:9.7576;stroke-miterlimit:10;" x1="461.533" y1="267.71" x2="461.533" y2="142.466"/>
					
						<line style="fill:none;stroke:#335EA3;stroke-width:9.7576;stroke-miterlimit:10;" x1="461.533" y1="726.023" x2="461.533" y2="267.71"/>
					
						<line style="fill:none;stroke:#294F87;stroke-width:9.7576;stroke-miterlimit:10;" x1="461.533" y1="802.482" x2="461.533" y2="726.023"/>
					
						<line style="fill:none;stroke:#485959;stroke-width:12;stroke-miterlimit:10;" x1="461.533" y1="816.489" x2="461.533" y2="802.482"/>
					
						<line style="fill:none;stroke:#12A8DD;stroke-width:9.7576;stroke-miterlimit:10;" x1="379.88" y1="143.796" x2="379.88" y2="119.037"/>
					
						<line style="fill:none;stroke:#1AB3E8;stroke-width:9.7576;stroke-linecap:round;stroke-miterlimit:10;" x1="379.88" y1="803.982" x2="379.88" y2="143.796"/>
					
						<line style="fill:none;stroke:#485959;stroke-width:12;stroke-miterlimit:10;" x1="379.88" y1="816.482" x2="379.88" y2="803.982"/>
				</g>
			</g>
			<g>
				<g>
					<g>
						<g>
							<g>
								<g>
									<g>
										<g>
											<g>
												<rect x="365.685" y="358.59" style="fill:#FFC697;" width="69.572" height="161.764"/>
												<rect x="424.767" y="358.59" style="fill:#D88850;" width="59.147" height="161.763"/>
												<rect x="475.144" y="458.017" style="opacity:0.8;fill:#C2D8EF;" width="6.054" height="5.508"/>
												<rect x="444.358" y="458.017" style="opacity:0.2;fill:#333332;" width="10.102" height="5.508"/>
												<rect x="437.733" y="458.017" style="opacity:0.2;fill:#333332;" width="5.201" height="5.508"/>
												<rect x="444.358" y="403.64" style="opacity:0.2;fill:#333332;" width="10.102" height="5.508"/>
												<rect x="437.733" y="403.64" style="opacity:0.2;fill:#333332;" width="5.201" height="5.508"/>
												<rect x="444.358" y="512.29" style="opacity:0.2;fill:#333332;" width="10.102" height="5.508"/>
												<rect x="437.733" y="512.29" style="opacity:0.2;fill:#333332;" width="5.201" height="5.508"/>
												<rect x="475.144" y="512.601" style="opacity:0.8;fill:#C2D8EF;" width="6.054" height="5.508"/>
												<rect x="475.144" y="404.054" style="opacity:0.8;fill:#C2D8EF;" width="6.054" height="5.508"/>
											</g>
										</g>
										<g>
											<g>
												<rect x="477.751" y="358.59" style="fill:#BA6145;" width="61.283" height="161.763"/>
												<rect x="536.833" y="358.59" style="fill:#D88850;" width="40.8" height="161.763"/>
												<rect x="497.914" y="411.855" style="fill:#A86951;" width="6.477" height="7.065"/>
												<rect x="552.78" y="458.017" style="opacity:0.3;fill:#333332;" width="5.201" height="5.508"/>
												<rect x="546.155" y="458.017" style="opacity:0.3;fill:#333332;" width="5.201" height="5.508"/>
												<rect x="539.737" y="458.017" style="opacity:0.3;fill:#333332;" width="5.201" height="5.508"/>
												<rect x="552.78" y="403.64" style="opacity:0.3;fill:#333332;" width="5.201" height="5.508"/>
												<rect x="546.155" y="403.64" style="opacity:0.3;fill:#333332;" width="5.201" height="5.508"/>
												<rect x="539.737" y="403.64" style="opacity:0.3;fill:#333332;" width="5.201" height="5.508"/>
												<rect x="552.78" y="512.29" style="opacity:0.3;fill:#333332;" width="5.201" height="5.508"/>
												<rect x="546.155" y="512.29" style="opacity:0.3;fill:#333332;" width="5.201" height="5.508"/>
												<rect x="539.737" y="512.29" style="opacity:0.3;fill:#333332;" width="5.201" height="5.508"/>
												<rect x="497.334" y="358.59" style="fill:#A86951;" width="6.477" height="5.987"/>
												<rect x="497.334" y="465.753" style="fill:#A86951;" width="6.477" height="8.838"/>
											</g>
											<g>
												<rect x="421.062" y="358.59" style="fill:#FFC697;" width="66.69" height="161.763"/>
												<rect x="487.875" y="358.59" style="fill:#CC8271;" width="45.448" height="161.763"/>
												<rect x="503.823" y="458.017" style="opacity:0.3;fill:#333332;" width="5.201" height="5.508"/>
												<rect x="497.197" y="458.017" style="opacity:0.3;fill:#333332;" width="5.201" height="5.508"/>
												<rect x="490.779" y="458.017" style="opacity:0.3;fill:#333332;" width="5.201" height="5.508"/>
												<rect x="503.823" y="403.64" style="opacity:0.3;fill:#333332;" width="5.201" height="5.508"/>
												<rect x="497.197" y="403.64" style="opacity:0.3;fill:#333332;" width="5.201" height="5.508"/>
												<rect x="490.779" y="403.64" style="opacity:0.3;fill:#333332;" width="5.201" height="5.508"/>
												<rect x="503.823" y="512.29" style="opacity:0.3;fill:#333332;" width="5.201" height="5.508"/>
												<rect x="497.197" y="512.29" style="opacity:0.3;fill:#333332;" width="5.201" height="5.508"/>
												<rect x="490.779" y="512.29" style="opacity:0.3;fill:#333332;" width="5.201" height="5.508"/>
											</g>
										</g>
									</g>
									<polyline style="opacity:0.5;fill:none;stroke:#C9804F;stroke-width:3.6049;stroke-miterlimit:10;" points="
										577.534,466.443 477.738,466.443 483.815,466.443 365.672,466.443 433.427,466.443 528.576,466.443 									"/>
									<polyline style="opacity:0.5;fill:none;stroke:#C9804F;stroke-width:3.6049;stroke-miterlimit:10;" points="
										365.685,412.517 483.815,412.517 477.751,412.517 577.534,412.517 									"/>
								</g>
								<g>
									<g>
										<g>
											<rect x="357.889" y="520.231" style="fill:#FFD797;" width="19.57" height="6.055"/>
											<rect x="377.171" y="520.231" style="fill:#CC865E;" width="117.98" height="6.24"/>
											<polygon style="fill:#72504C;" points="401.463,526.286 386.651,526.286 381.893,520.231 386.641,520.231 											"/>
											<polygon style="fill:#72504C;" points="429.424,526.286 414.612,526.286 409.853,520.231 414.703,520.231 											"/>
											<polygon style="fill:#72504C;" points="458.608,526.286 443.796,526.286 439.038,520.231 443.414,520.231 											"/>
											<polygon style="fill:#72504C;" points="487.122,526.286 472.31,526.286 467.552,520.231 471.928,520.231 											"/>
										</g>
										<g>
											<rect x="414.974" y="520.231" style="fill:#FFD797;" width="19.57" height="6.055"/>
										</g>
										<g>
											<rect x="386.432" y="520.231" style="fill:#FFD797;" width="19.57" height="6.055"/>
										</g>
										<g>
											<rect x="443.517" y="520.231" style="fill:#FFD797;" width="19.57" height="6.055"/>
										</g>
										<g>
											<rect x="484.818" y="520.231" style="fill:#C48E47;" width="98.426" height="6.3"/>
										</g>
									</g>
									<g>
										<rect x="518.175" y="530.997" style="fill:#72504C;" width="13.228" height="17.179"/>
										<rect x="557.879" y="530.997" style="fill:#72504C;" width="13.228" height="17.179"/>
										<rect x="376.071" y="543.378" style="fill:#72504C;" width="106.878" height="6.442"/>
										<rect x="376.071" y="532.641" style="fill:#B87A53;" width="12.884" height="17.179"/>
										<polygon style="fill:#72504C;" points="388.955,549.82 376.196,532.539 388.955,532.539 388.955,543.559 390.979,546.418 
																					"/>
										<rect x="470.065" y="532.641" style="fill:#72504C;" width="12.884" height="17.179"/>
										<rect x="420.555" y="532.641" style="fill:#B87A53;" width="12.884" height="17.179"/>
										<rect x="431.561" y="543.378" style="fill:#72504C;" width="101.852" height="6.442"/>
										<rect x="431.561" y="532.641" style="fill:#B87A53;" width="12.884" height="17.179"/>
										<rect x="481.071" y="532.641" style="fill:#B87A53;" width="12.884" height="17.179"/>
										<polygon style="fill:#EFBB67;" points="376.161,549.82 357.909,549.82 357.909,529.57 376.161,532.641 										"/>
										<polygon style="fill:#EFBB67;" points="431.651,549.82 413.398,549.82 413.398,529.906 431.651,532.641 										"/>
										<polygon style="fill:#EFBB67;" points="491.63,549.82 473.378,549.82 473.378,529.738 491.63,532.641 										"/>
										<polygon style="fill:#B87A53;" points="504.245,549.82 491.361,549.82 491.361,532.641 504.245,530.073 										"/>
										<polygon style="fill:#B87A53;" points="583.16,549.82 570.276,549.82 570.276,532.641 583.16,529.57 										"/>
										<polygon style="fill:#B87A53;" points="543.702,549.82 530.818,549.82 530.818,532.641 543.702,528.9 										"/>
										<rect x="357.909" y="526.199" style="fill:#EFBB67;" width="133.721" height="6.442"/>
										<rect x="491.361" y="526.199" style="fill:#B87A53;" width="91.799" height="6.442"/>
										<rect x="491.361" y="543.378" style="fill:#B87A53;" width="91.799" height="6.442"/>
										<polygon style="fill:#72504C;" points="444.535,549.82 431.776,532.539 444.535,532.539 444.535,543.409 447.097,546.719 
																					"/>
									</g>
									<rect x="471.8" y="520.231" style="fill:#FFD797;" width="19.57" height="6.116"/>
								</g>
							</g>
						</g>
					</g>
					<polyline style="opacity:0.5;fill:none;stroke:#C9804F;stroke-width:3.6049;stroke-miterlimit:10;" points="428.501,452.739 
						428.501,520.036 428.501,359.02 					"/>
				</g>
				<g>
					<g>
						<g>
							<g>
								<g>
									<g>
										<g>
											<g>
												<rect x="508.079" y="358.59" style="fill:#FFC697;" width="69.572" height="161.764"/>
												<rect x="567.161" y="358.59" style="fill:#D88850;" width="59.147" height="161.763"/>
												<rect x="617.538" y="458.017" style="opacity:0.8;fill:#C2D8EF;" width="6.054" height="5.508"/>
												<rect x="586.752" y="458.017" style="opacity:0.2;fill:#333332;" width="10.102" height="5.508"/>
												<rect x="580.127" y="458.017" style="opacity:0.2;fill:#333332;" width="5.201" height="5.508"/>
												<rect x="586.752" y="403.64" style="opacity:0.2;fill:#333332;" width="10.102" height="5.508"/>
												<rect x="580.127" y="403.64" style="opacity:0.2;fill:#333332;" width="5.201" height="5.508"/>
												<rect x="586.752" y="512.29" style="opacity:0.2;fill:#333332;" width="10.102" height="5.508"/>
												<rect x="580.127" y="512.29" style="opacity:0.2;fill:#333332;" width="5.201" height="5.508"/>
												<rect x="617.538" y="512.601" style="opacity:0.8;fill:#C2D8EF;" width="6.054" height="5.508"/>
												<rect x="617.538" y="404.054" style="opacity:0.8;fill:#C2D8EF;" width="6.054" height="5.508"/>
											</g>
										</g>
										<g>
											<g>
												<rect x="620.144" y="358.59" style="fill:#BA6145;" width="61.283" height="161.763"/>
												<rect x="679.227" y="358.59" style="fill:#CC8271;" width="40.8" height="161.763"/>
												<rect x="640.308" y="411.855" style="fill:#A86951;" width="6.477" height="7.065"/>
												<rect x="695.174" y="458.017" style="opacity:0.3;fill:#333332;" width="5.201" height="5.508"/>
												<rect x="688.549" y="458.017" style="opacity:0.3;fill:#333332;" width="5.201" height="5.508"/>
												<rect x="682.13" y="458.017" style="opacity:0.3;fill:#333332;" width="5.201" height="5.508"/>
												<rect x="695.174" y="403.64" style="opacity:0.3;fill:#333332;" width="5.201" height="5.508"/>
												<rect x="688.549" y="403.64" style="opacity:0.3;fill:#333332;" width="5.201" height="5.508"/>
												<rect x="682.13" y="403.64" style="opacity:0.3;fill:#333332;" width="5.201" height="5.508"/>
												<rect x="695.174" y="512.29" style="opacity:0.3;fill:#333332;" width="5.201" height="5.508"/>
												<rect x="688.549" y="512.29" style="opacity:0.3;fill:#333332;" width="5.201" height="5.508"/>
												<rect x="682.13" y="512.29" style="opacity:0.3;fill:#333332;" width="5.201" height="5.508"/>
												<rect x="639.728" y="358.59" style="fill:#A86951;" width="6.477" height="5.987"/>
												<rect x="639.728" y="465.753" style="fill:#A86951;" width="6.477" height="8.838"/>
											</g>
											<g>
												<rect x="563.455" y="358.59" style="fill:#FFC697;" width="66.69" height="161.763"/>
												<rect x="630.269" y="358.59" style="fill:#CC8271;" width="45.448" height="161.763"/>
												<rect x="646.216" y="458.017" style="opacity:0.3;fill:#333332;" width="5.201" height="5.508"/>
												<rect x="639.591" y="458.017" style="opacity:0.3;fill:#333332;" width="5.201" height="5.508"/>
												<rect x="633.173" y="458.017" style="opacity:0.3;fill:#333332;" width="5.201" height="5.508"/>
												<rect x="646.216" y="403.64" style="opacity:0.3;fill:#333332;" width="5.201" height="5.508"/>
												<rect x="639.591" y="403.64" style="opacity:0.3;fill:#333332;" width="5.201" height="5.508"/>
												<rect x="633.173" y="403.64" style="opacity:0.3;fill:#333332;" width="5.201" height="5.508"/>
												<rect x="646.216" y="512.29" style="opacity:0.3;fill:#333332;" width="5.201" height="5.508"/>
												<rect x="639.591" y="512.29" style="opacity:0.3;fill:#333332;" width="5.201" height="5.508"/>
												<rect x="633.173" y="512.29" style="opacity:0.3;fill:#333332;" width="5.201" height="5.508"/>
											</g>
										</g>
									</g>
									<polyline style="opacity:0.5;fill:none;stroke:#C9804F;stroke-width:3.6049;stroke-miterlimit:10;" points="
										719.928,466.443 620.132,466.443 626.209,466.443 508.066,466.443 575.821,466.443 670.97,466.443 									"/>
									<polyline style="opacity:0.5;fill:none;stroke:#C9804F;stroke-width:3.6049;stroke-miterlimit:10;" points="
										508.079,412.517 626.209,412.517 620.144,412.517 719.928,412.517 									"/>
								</g>
								<g>
									<g>
										<g>
											<rect x="500.283" y="520.231" style="fill:#FFD797;" width="19.57" height="6.055"/>
											<rect x="519.565" y="520.231" style="fill:#CC865E;" width="117.98" height="6.24"/>
											<polygon style="fill:#72504C;" points="543.857,526.286 529.045,526.286 524.287,520.231 529.035,520.231 											"/>
											<polygon style="fill:#72504C;" points="571.817,526.286 557.005,526.286 552.247,520.231 557.097,520.231 											"/>
											<polygon style="fill:#72504C;" points="601.001,526.286 586.189,526.286 581.431,520.231 585.807,520.231 											"/>
											<polygon style="fill:#72504C;" points="629.516,526.286 614.704,526.286 609.946,520.231 614.322,520.231 											"/>
										</g>
										<g>
											<rect x="557.368" y="520.231" style="fill:#FFD797;" width="19.57" height="6.055"/>
										</g>
										<g>
											<rect x="528.826" y="520.231" style="fill:#FFD797;" width="19.57" height="6.055"/>
										</g>
										<g>
											<rect x="585.911" y="520.231" style="fill:#FFD797;" width="19.57" height="6.055"/>
										</g>
										<g>
											<rect x="627.211" y="520.231" style="fill:#C48E47;" width="98.426" height="6.3"/>
										</g>
									</g>
									<g>
										<rect x="660.568" y="530.997" style="fill:#72504C;" width="13.228" height="17.179"/>
										<rect x="700.273" y="530.997" style="fill:#72504C;" width="13.228" height="17.179"/>
										<rect x="518.465" y="543.378" style="fill:#72504C;" width="106.878" height="6.442"/>
										<rect x="518.465" y="532.641" style="fill:#B87A53;" width="12.884" height="17.179"/>
										<polygon style="fill:#72504C;" points="531.349,549.82 518.59,532.539 531.349,532.539 531.349,543.559 533.373,546.418 
																					"/>
										<rect x="612.459" y="532.641" style="fill:#72504C;" width="12.884" height="17.179"/>
										<rect x="562.949" y="532.641" style="fill:#B87A53;" width="12.884" height="17.179"/>
										<rect x="573.955" y="543.378" style="fill:#72504C;" width="101.852" height="6.442"/>
										<rect x="573.955" y="532.641" style="fill:#B87A53;" width="12.884" height="17.179"/>
										<rect x="623.465" y="532.641" style="fill:#B87A53;" width="12.884" height="17.179"/>
										<polygon style="fill:#EFBB67;" points="518.555,549.82 500.302,549.82 500.302,529.57 518.555,532.641 										"/>
										<polygon style="fill:#EFBB67;" points="574.045,549.82 555.792,549.82 555.792,529.906 574.045,532.641 										"/>
										<polygon style="fill:#EFBB67;" points="634.024,549.82 615.771,549.82 615.771,529.738 634.024,532.641 										"/>
										<polygon style="fill:#B87A53;" points="646.638,549.82 633.755,549.82 633.755,532.641 646.638,530.073 										"/>
										<polygon style="fill:#B87A53;" points="725.554,549.82 712.67,549.82 712.67,532.641 725.554,529.57 										"/>
										<polygon style="fill:#B87A53;" points="686.096,549.82 673.212,549.82 673.212,532.641 686.096,528.9 										"/>
										<rect x="500.302" y="526.199" style="fill:#EFBB67;" width="133.721" height="6.442"/>
										<rect x="633.755" y="526.199" style="fill:#B87A53;" width="91.799" height="6.442"/>
										<rect x="633.755" y="543.378" style="fill:#B87A53;" width="91.799" height="6.442"/>
										<polygon style="fill:#72504C;" points="586.929,549.82 574.17,532.539 586.929,532.539 586.929,543.409 589.491,546.719 
																					"/>
									</g>
									<rect x="614.194" y="520.231" style="fill:#FFD797;" width="19.57" height="6.116"/>
								</g>
							</g>
						</g>
					</g>
					
						<line style="opacity:0.5;fill:none;stroke:#C9804F;stroke-width:3.6049;stroke-miterlimit:10;" x1="567.346" y1="520.036" x2="567.346" y2="359.02"/>
				</g>
			</g>
			<g>
				<g>
					<g>
						<g>
							<g>
								<g>
									<g>
										<g>
											<g>
												<rect x="314.966" y="129.745" style="fill:#FFC697;" width="67.163" height="161.486"/>
												<rect x="372.002" y="129.745" style="fill:#D88850;" width="57.1" height="161.485"/>
												<rect x="420.635" y="229.278" style="opacity:0.8;fill:#C2D8EF;" width="5.844" height="5.317"/>
												<rect x="390.915" y="229.278" style="opacity:0.2;fill:#333332;" width="9.752" height="5.317"/>
												<rect x="384.519" y="229.278" style="opacity:0.2;fill:#333332;" width="5.021" height="5.317"/>
												<rect x="390.915" y="175.01" style="opacity:0.2;fill:#333332;" width="9.752" height="5.317"/>
												<rect x="384.519" y="175.01" style="opacity:0.2;fill:#333332;" width="5.021" height="5.317"/>
												<rect x="390.915" y="283.447" style="opacity:0.2;fill:#333332;" width="9.752" height="5.317"/>
												<rect x="384.519" y="283.447" style="opacity:0.2;fill:#333332;" width="5.021" height="5.317"/>
												<rect x="420.635" y="283.747" style="opacity:0.8;fill:#C2D8EF;" width="5.844" height="5.317"/>
												<rect x="420.635" y="175.41" style="opacity:0.8;fill:#C2D8EF;" width="5.844" height="5.317"/>
											</g>
										</g>
										<g>
											<g>
												<rect x="423.151" y="129.745" style="fill:#BA6145;" width="59.161" height="161.485"/>
												<rect x="480.188" y="129.745" style="fill:#CC8271;" width="39.388" height="161.485"/>
												<rect x="442.616" y="182.94" style="fill:#A86951;" width="6.253" height="6.821"/>
												<rect x="495.583" y="229.278" style="opacity:0.3;fill:#333332;" width="5.021" height="5.317"/>
												<rect x="489.187" y="229.278" style="opacity:0.3;fill:#333332;" width="5.021" height="5.317"/>
												<rect x="482.991" y="229.278" style="opacity:0.3;fill:#333332;" width="5.021" height="5.317"/>
												<rect x="495.583" y="175.01" style="opacity:0.3;fill:#333332;" width="5.021" height="5.317"/>
												<rect x="489.187" y="175.01" style="opacity:0.3;fill:#333332;" width="5.021" height="5.317"/>
												<rect x="482.991" y="175.01" style="opacity:0.3;fill:#333332;" width="5.021" height="5.317"/>
												<rect x="495.583" y="283.447" style="opacity:0.3;fill:#333332;" width="5.021" height="5.317"/>
												<rect x="489.187" y="283.447" style="opacity:0.3;fill:#333332;" width="5.021" height="5.317"/>
												<rect x="482.991" y="283.447" style="opacity:0.3;fill:#333332;" width="5.021" height="5.317"/>
												<rect x="442.057" y="129.745" style="fill:#A86951;" width="6.253" height="5.779"/>
												<rect x="442.057" y="236.746" style="fill:#A86951;" width="6.253" height="8.532"/>
											</g>
											<g>
												<rect x="368.425" y="129.745" style="fill:#FFC697;" width="64.381" height="161.485"/>
												<rect x="432.925" y="129.745" style="fill:#CC8271;" width="43.874" height="161.485"/>
												<rect x="448.32" y="229.278" style="opacity:0.3;fill:#333332;" width="5.021" height="5.317"/>
												<rect x="441.924" y="229.278" style="opacity:0.3;fill:#333332;" width="5.021" height="5.317"/>
												<rect x="435.728" y="229.278" style="opacity:0.3;fill:#333332;" width="5.021" height="5.317"/>
												<rect x="448.32" y="175.01" style="opacity:0.3;fill:#333332;" width="5.021" height="5.317"/>
												<rect x="441.924" y="175.01" style="opacity:0.3;fill:#333332;" width="5.021" height="5.317"/>
												<rect x="435.728" y="175.01" style="opacity:0.3;fill:#333332;" width="5.021" height="5.317"/>
												<rect x="448.32" y="283.447" style="opacity:0.3;fill:#333332;" width="5.021" height="5.317"/>
												<rect x="441.924" y="283.447" style="opacity:0.3;fill:#333332;" width="5.021" height="5.317"/>
												<rect x="435.728" y="283.447" style="opacity:0.3;fill:#333332;" width="5.021" height="5.317"/>
											</g>
										</g>
									</g>
									<polyline style="opacity:0.5;fill:none;stroke:#C9804F;stroke-width:3.4801;stroke-miterlimit:10;" points="
										519.48,237.413 423.139,237.413 429.006,237.413 314.953,237.413 380.362,237.413 472.217,237.413 									"/>
									<polyline style="opacity:0.5;fill:none;stroke:#C9804F;stroke-width:3.4801;stroke-miterlimit:10;" points="
										314.966,183.579 429.006,183.579 423.151,183.579 519.48,183.579 									"/>
								</g>
							</g>
						</g>
					</g>
					
						<line style="opacity:0.5;fill:none;stroke:#C9804F;stroke-width:3.4801;stroke-miterlimit:10;" x1="372.741" y1="292.357" x2="372.741" y2="129.28"/>
					<g style="opacity:0.5;">
						<path style="fill:#4D5D7A;" d="M398.75,307.608h-72.716c-8.098,0-14.686-6.588-14.686-14.685v-61.019
							c0-8.097,6.588-14.685,14.686-14.685h72.716c8.098,0,14.686,6.588,14.686,14.685v61.019
							C413.435,301.02,406.847,307.608,398.75,307.608z M326.034,225.253c-3.667,0-6.65,2.984-6.65,6.65v61.019
							c0,3.667,2.983,6.651,6.65,6.651h72.716c3.667,0,6.65-2.983,6.65-6.651v-61.019c0-3.667-2.983-6.65-6.65-6.65H326.034z"/>
					</g>
				</g>
				<g>
					<g>
						<rect x="391.228" y="302.36" style="fill:#AD4618;" width="124.432" height="8.424"/>
						<g>
							<g>
								<g>
									<g>
										<g>
											<rect x="306.51" y="291.299" style="fill:#FFCE78;" width="18.996" height="5.878"/>
											<rect x="325.226" y="291.299" style="fill:#CC865E;" width="114.518" height="6.057"/>
											<polygon style="fill:#72504C;" points="348.806,297.177 334.428,297.177 329.81,291.299 334.419,291.299 											"/>
											<polygon style="fill:#72504C;" points="375.946,297.177 361.568,297.177 356.95,291.299 361.658,291.299 											"/>
											<polygon style="fill:#72504C;" points="404.273,297.177 389.896,297.177 385.278,291.299 389.525,291.299 											"/>
											<polygon style="fill:#72504C;" points="431.952,297.177 417.574,297.177 412.956,291.299 417.203,291.299 											"/>
										</g>
										<g>
											<rect x="361.921" y="291.299" style="fill:#FFCE78;" width="18.996" height="5.878"/>
										</g>
										<g>
											<rect x="334.216" y="291.299" style="fill:#FFCE78;" width="18.996" height="5.878"/>
										</g>
										<g>
											<rect x="389.625" y="291.299" style="fill:#FFCE78;" width="18.996" height="5.878"/>
										</g>
										<g>
											<rect x="429.715" y="291.22" style="fill:#C48E47;" width="95.538" height="6.116"/>
										</g>
									</g>
									<g>
										<rect x="462.093" y="301.749" style="fill:#72504C;" width="12.84" height="16.675"/>
										<rect x="500.632" y="301.749" style="fill:#72504C;" width="12.84" height="16.675"/>
										<rect x="324.159" y="313.768" style="fill:#72504C;" width="103.742" height="6.253"/>
										<rect x="324.159" y="303.346" style="fill:#B87A53;" width="12.506" height="16.675"/>
										<polygon style="fill:#72504C;" points="336.665,320.021 324.28,303.246 336.665,303.246 336.665,313.944 338.629,316.718 
																					"/>
										<rect x="415.395" y="303.346" style="fill:#72504C;" width="12.506" height="16.675"/>
										<rect x="367.338" y="303.346" style="fill:#B87A53;" width="12.506" height="16.675"/>
										<rect x="378.02" y="313.768" style="fill:#72504C;" width="98.863" height="6.253"/>
										<rect x="378.02" y="303.346" style="fill:#B87A53;" width="12.506" height="16.675"/>
										<rect x="426.078" y="303.346" style="fill:#B87A53;" width="12.506" height="16.675"/>
										<polygon style="fill:#EFBB67;" points="324.246,320.021 306.529,320.021 306.529,300.365 324.246,303.346 										"/>
										<polygon style="fill:#EFBB67;" points="378.108,320.021 360.391,320.021 360.391,300.69 378.108,303.346 										"/>
										<polygon style="fill:#EFBB67;" points="436.327,320.021 418.61,320.021 418.61,300.528 436.327,303.346 										"/>
										<polygon style="fill:#B87A53;" points="448.571,320.021 436.066,320.021 436.066,303.346 448.571,300.853 										"/>
										<polygon style="fill:#B87A53;" points="525.171,320.021 512.666,320.021 512.666,303.346 525.171,300.365 										"/>
										<polygon style="fill:#B87A53;" points="486.871,320.021 474.366,320.021 474.366,303.346 486.871,299.715 										"/>
										<rect x="306.529" y="297.093" style="fill:#EFBB67;" width="129.797" height="6.253"/>
										<rect x="436.066" y="297.093" style="fill:#B87A53;" width="89.106" height="6.253"/>
										<rect x="436.066" y="313.768" style="fill:#B87A53;" width="89.106" height="6.253"/>
										<polygon style="fill:#72504C;" points="390.614,320.021 378.229,303.246 390.614,303.246 390.614,313.798 
											393.101,317.011 										"/>
									</g>
									<rect x="417.079" y="291.299" style="fill:#FFCE78;" width="18.996" height="5.936"/>
								</g>
							</g>
						</g>
						<g>
							<g>
								<g>
									<rect x="388.59" y="303.199" style="fill:#FFC943;" width="15.379" height="7.77"/>
								</g>
							</g>
						</g>
						<g>
							<g>
								<g>
									<rect x="330.091" y="303.433" style="fill:#FFC943;" width="15.379" height="7.77"/>
								</g>
							</g>
							<g>
								<g>
									<rect x="345.066" y="303.433" style="fill:#F5A838;" width="15.379" height="7.77"/>
								</g>
							</g>
						</g>
					</g>
					<polygon style="opacity:0.5;fill:#4D5D7A;" points="353.304,302.36 353.304,242.454 342.731,231.773 339.028,231.773 
						328.055,231.773 328.055,236.225 339.028,236.225 339.028,302.36 339.028,310.785 351.843,310.785 394.893,310.785 
						394.893,302.36 					"/>
					<polygon style="opacity:0.5;fill:#4D5D7A;" points="422.872,291.229 422.872,242.454 413.406,231.773 409.703,231.773 
						398.73,231.773 398.73,236.225 409.703,236.225 409.703,291.825 					"/>
					<polygon style="fill:#AD4618;" points="343.466,302.36 343.466,229.494 333.999,229.494 330.296,229.494 319.323,229.494 
						319.323,236.225 330.296,236.225 330.296,302.36 330.296,310.785 343.111,310.785 344.23,310.785 					"/>
					<polygon style="fill:#FF9E1D;" points="323.971,229.494 320.268,229.494 313.191,229.494 313.191,236.225 320.268,236.225 
						333.438,236.693 333.438,229.494 					"/>
					<polygon style="fill:#FC5135;" points="333.438,302.36 333.438,236.693 320.268,236.225 320.268,302.36 320.268,310.785 
						333.083,310.785 333.127,310.785 333.127,302.36 					"/>
					<g>
						<rect x="391.228" y="231.203" style="fill:#AD4618;" width="12.815" height="79.582"/>
						<rect x="403.906" y="229.826" style="fill:#AD4618;" width="9.604" height="76.403"/>
						<rect x="405.01" y="302.36" style="fill:#AD4618;" width="13.61" height="8.424"/>
					</g>
					<rect x="384.821" y="229.494" style="fill:#FF9E1D;" width="22.089" height="11.286"/>
				</g>
			</g>
			<g>
				<g>
					<g>
						<g>
							<g>
								<g>
									<g>
										<g>
											<g>
												<rect x="508.079" y="132.682" style="fill:#FFC697;" width="69.572" height="161.764"/>
												<rect x="567.161" y="132.682" style="fill:#D88850;" width="59.147" height="161.763"/>
												<rect x="617.538" y="232.109" style="opacity:0.8;fill:#C2D8EF;" width="6.054" height="5.508"/>
												<rect x="586.752" y="232.109" style="opacity:0.2;fill:#333332;" width="10.102" height="5.508"/>
												<rect x="580.127" y="232.109" style="opacity:0.2;fill:#333332;" width="5.201" height="5.508"/>
												<rect x="586.752" y="177.732" style="opacity:0.2;fill:#333332;" width="10.102" height="5.508"/>
												<rect x="580.127" y="177.732" style="opacity:0.2;fill:#333332;" width="5.201" height="5.508"/>
												<rect x="586.752" y="286.382" style="opacity:0.2;fill:#333332;" width="10.102" height="5.508"/>
												<rect x="580.127" y="286.382" style="opacity:0.2;fill:#333332;" width="5.201" height="5.508"/>
												<rect x="617.538" y="286.692" style="opacity:0.8;fill:#C2D8EF;" width="6.054" height="5.508"/>
												<rect x="617.538" y="178.146" style="opacity:0.8;fill:#C2D8EF;" width="6.054" height="5.508"/>
											</g>
										</g>
										<g>
											<g>
												<rect x="620.144" y="132.682" style="fill:#BA6145;" width="61.283" height="161.763"/>
												<rect x="679.227" y="132.682" style="fill:#CC8271;" width="40.8" height="161.763"/>
												<rect x="640.308" y="185.947" style="fill:#A86951;" width="6.477" height="7.065"/>
												<rect x="695.174" y="232.109" style="opacity:0.3;fill:#333332;" width="5.201" height="5.508"/>
												<rect x="688.549" y="232.109" style="opacity:0.3;fill:#333332;" width="5.201" height="5.508"/>
												<rect x="682.13" y="232.109" style="opacity:0.3;fill:#333332;" width="5.201" height="5.508"/>
												<rect x="695.174" y="177.732" style="opacity:0.3;fill:#333332;" width="5.201" height="5.508"/>
												<rect x="688.549" y="177.732" style="opacity:0.3;fill:#333332;" width="5.201" height="5.508"/>
												<rect x="682.13" y="177.732" style="opacity:0.3;fill:#333332;" width="5.201" height="5.508"/>
												<rect x="695.174" y="286.382" style="opacity:0.3;fill:#333332;" width="5.201" height="5.508"/>
												<rect x="688.549" y="286.382" style="opacity:0.3;fill:#333332;" width="5.201" height="5.508"/>
												<rect x="682.13" y="286.382" style="opacity:0.3;fill:#333332;" width="5.201" height="5.508"/>
												<rect x="639.728" y="132.682" style="fill:#A86951;" width="6.477" height="5.987"/>
												<rect x="639.728" y="239.844" style="fill:#A86951;" width="6.477" height="8.838"/>
											</g>
											<g>
												<rect x="563.455" y="132.682" style="fill:#FFC697;" width="66.69" height="161.763"/>
												<rect x="630.269" y="132.682" style="fill:#CC8271;" width="45.448" height="161.763"/>
												<rect x="646.216" y="232.109" style="opacity:0.3;fill:#333332;" width="5.201" height="5.508"/>
												<rect x="639.591" y="232.109" style="opacity:0.3;fill:#333332;" width="5.201" height="5.508"/>
												<rect x="633.173" y="232.109" style="opacity:0.3;fill:#333332;" width="5.201" height="5.508"/>
												<rect x="646.216" y="177.732" style="opacity:0.3;fill:#333332;" width="5.201" height="5.508"/>
												<rect x="639.591" y="177.732" style="opacity:0.3;fill:#333332;" width="5.201" height="5.508"/>
												<rect x="633.173" y="177.732" style="opacity:0.3;fill:#333332;" width="5.201" height="5.508"/>
												<rect x="646.216" y="286.382" style="opacity:0.3;fill:#333332;" width="5.201" height="5.508"/>
												<rect x="639.591" y="286.382" style="opacity:0.3;fill:#333332;" width="5.201" height="5.508"/>
												<rect x="633.173" y="286.382" style="opacity:0.3;fill:#333332;" width="5.201" height="5.508"/>
											</g>
										</g>
									</g>
									<polyline style="opacity:0.5;fill:none;stroke:#C9804F;stroke-width:3.6049;stroke-miterlimit:10;" points="
										719.928,240.535 620.132,240.535 626.209,240.535 508.066,240.535 575.821,240.535 670.97,240.535 									"/>
									<polyline style="opacity:0.5;fill:none;stroke:#C9804F;stroke-width:3.6049;stroke-miterlimit:10;" points="
										508.079,186.608 626.209,186.608 620.144,186.608 719.928,186.608 									"/>
								</g>
								<g>
									<g>
										<g>
											<rect x="500.283" y="294.323" style="fill:#FFD797;" width="19.57" height="6.055"/>
											<rect x="519.565" y="294.323" style="fill:#CC865E;" width="117.98" height="6.24"/>
											<polygon style="fill:#72504C;" points="543.857,300.378 529.045,300.378 524.287,294.323 529.035,294.323 											"/>
											<polygon style="fill:#72504C;" points="571.817,300.378 557.005,300.378 552.247,294.323 557.097,294.323 											"/>
											<polygon style="fill:#72504C;" points="601.001,300.378 586.189,300.378 581.431,294.323 585.807,294.323 											"/>
											<polygon style="fill:#72504C;" points="629.516,300.378 614.704,300.378 609.946,294.323 614.322,294.323 											"/>
										</g>
										<g>
											<rect x="557.368" y="294.323" style="fill:#FFD797;" width="19.57" height="6.055"/>
										</g>
										<g>
											<rect x="528.826" y="294.323" style="fill:#FFD797;" width="19.57" height="6.055"/>
										</g>
										<g>
											<rect x="585.911" y="294.323" style="fill:#FFD797;" width="19.57" height="6.055"/>
										</g>
										<g>
											<rect x="627.211" y="294.323" style="fill:#C48E47;" width="98.426" height="6.3"/>
										</g>
									</g>
									<g>
										<rect x="660.568" y="305.088" style="fill:#72504C;" width="13.228" height="17.179"/>
										<rect x="700.273" y="305.088" style="fill:#72504C;" width="13.228" height="17.179"/>
										<rect x="518.465" y="317.47" style="fill:#72504C;" width="106.878" height="6.442"/>
										<rect x="518.465" y="306.733" style="fill:#B87A53;" width="12.884" height="17.179"/>
										<polygon style="fill:#72504C;" points="531.349,323.912 518.59,306.631 531.349,306.631 531.349,317.651 533.373,320.51 
																					"/>
										<rect x="612.459" y="306.733" style="fill:#72504C;" width="12.884" height="17.179"/>
										<rect x="562.949" y="306.733" style="fill:#B87A53;" width="12.884" height="17.179"/>
										<rect x="573.955" y="317.47" style="fill:#72504C;" width="101.852" height="6.442"/>
										<rect x="573.955" y="306.733" style="fill:#B87A53;" width="12.884" height="17.179"/>
										<rect x="623.465" y="306.733" style="fill:#B87A53;" width="12.884" height="17.179"/>
										<polygon style="fill:#EFBB67;" points="518.555,323.912 500.302,323.912 500.302,303.662 518.555,306.733 										"/>
										<polygon style="fill:#EFBB67;" points="574.045,323.912 555.792,323.912 555.792,303.997 574.045,306.733 										"/>
										<polygon style="fill:#EFBB67;" points="634.024,323.912 615.771,323.912 615.771,303.83 634.024,306.733 										"/>
										<polygon style="fill:#B87A53;" points="646.638,323.912 633.755,323.912 633.755,306.733 646.638,304.165 										"/>
										<polygon style="fill:#B87A53;" points="725.554,323.912 712.67,323.912 712.67,306.733 725.554,303.662 										"/>
										<polygon style="fill:#B87A53;" points="686.096,323.912 673.212,323.912 673.212,306.733 686.096,302.992 										"/>
										<rect x="500.302" y="300.291" style="fill:#EFBB67;" width="133.721" height="6.442"/>
										<rect x="633.755" y="300.291" style="fill:#B87A53;" width="91.799" height="6.442"/>
										<rect x="633.755" y="317.47" style="fill:#B87A53;" width="91.799" height="6.442"/>
										<polygon style="fill:#72504C;" points="586.929,323.912 574.17,306.631 586.929,306.631 586.929,317.501 589.491,320.811 
																					"/>
									</g>
									<rect x="614.194" y="294.323" style="fill:#FFD797;" width="19.57" height="6.116"/>
								</g>
							</g>
						</g>
					</g>
					<polyline style="opacity:0.5;fill:none;stroke:#C9804F;stroke-width:3.6049;stroke-miterlimit:10;" points="568.233,226.831 
						568.233,294.127 568.233,133.112 					"/>
				</g>
			</g>
		</g>
		<g>
			<g>
				<g>
					<g>
						<path style="fill:#335EA3;" d="M751.44,339.143c0,1.464-1.198,2.661-2.661,2.661H345.634c-1.464,0-2.661-1.198-2.661-2.661
							v-13.639c0-1.464,1.197-2.661,2.661-2.661h403.145c1.464,0,2.661,1.198,2.661,2.661V339.143z"/>
					</g>
					<g>
						<path style="fill:#15BDEA;" d="M625.406,322.841c1.464,0,2.661,1.198,2.661,2.661v6.317c0,1.464-1.198,2.661-2.661,2.661
							H345.634c-1.464,0-2.661-1.197-2.661-2.661v-6.317c0-1.464,1.197-2.661,2.661-2.661H625.406z"/>
					</g>
				</g>
			</g>
			<g>
				<g>
					<g>
						<path style="opacity:0.5;fill:none;stroke:#A86951;stroke-width:5.2208;stroke-miterlimit:10;" d="M681.468,553.354"/>
						<path style="opacity:0.5;fill:none;stroke:#A86951;stroke-width:5.2208;stroke-miterlimit:10;" d="M681.468,429.289"/>
					</g>
				</g>
				<g>
					<g>
						<g>
							<path style="fill:#335EA3;" d="M751.44,564.659c0,1.464-1.198,2.661-2.661,2.661H345.794c-1.464,0-2.661-1.198-2.661-2.661
								V551.02c0-1.464,1.198-2.661,2.661-2.661h402.984c1.464,0,2.661,1.198,2.661,2.661V564.659z"/>
						</g>
						<g>
							<path style="fill:#15BDEA;" d="M628.071,557.336c0,1.464-1.198,2.661-2.661,2.661H345.635c-1.464,0-2.661-1.198-2.661-2.661
								v-6.316c0-1.464,1.198-2.661,2.661-2.661H625.41c1.464,0,2.661,1.198,2.661,2.661V557.336z"/>
						</g>
					</g>
				</g>
			</g>
			<g>
				<g>
					<g>
						<polygon style="fill:#CC8271;" points="585.192,719.316 746.55,719.316 746.55,593.946 567.167,593.946 						"/>
						<rect x="366.828" y="593.946" style="fill:#FCC490;" width="245.838" height="125.37"/>
						
							<line style="opacity:0.5;fill:none;stroke:#A86951;stroke-width:5.2208;stroke-miterlimit:10;" x1="683.135" y1="593.946" x2="683.135" y2="718.01"/>
						<g>
							
								<line style="opacity:0.3;fill:none;stroke:#A86951;stroke-width:6.2094;stroke-miterlimit:10;" x1="525.399" y1="593.946" x2="525.399" y2="718.01"/>
							
								<line style="opacity:0.3;fill:none;stroke:#A86951;stroke-width:6.2094;stroke-miterlimit:10;" x1="435.804" y1="593.946" x2="435.804" y2="718.01"/>
						</g>
						<rect x="473.176" y="594.78" style="fill:#CC8271;" width="11.747" height="10.858"/>
						<rect x="562.672" y="594.78" style="fill:#CC8271;" width="11.747" height="10.858"/>
						<rect x="393.457" y="594.78" style="fill:#CC8271;" width="11.747" height="10.858"/>
					</g>
					<g>
						<g>
							<g>
								<path style="fill:#335EA3;" d="M753.106,734.723c0,1.464-1.198,2.661-2.661,2.661H370.668c-1.464,0-2.661-1.198-2.661-2.661
									v-13.639c0-1.464,1.198-2.661,2.661-2.661h379.778c1.464,0,2.661,1.198,2.661,2.661V734.723z"/>
							</g>
						</g>
					</g>
					<g>
						<path style="fill:#15BDEA;" d="M624.466,727.513c0,1.464-1.198,2.661-2.661,2.661H347.302c-1.464,0-2.661-1.198-2.661-2.661
							v-6.429c0-1.464,1.198-2.661,2.661-2.661h274.503c1.464,0,2.661,1.198,2.661,2.661V727.513z"/>
					</g>
				</g>
				<g>
					
						<line style="fill:none;stroke:#12A8DD;stroke-width:9.7576;stroke-miterlimit:10;" x1="651.475" y1="119.037" x2="651.475" y2="137.522"/>
					
						<line style="fill:#1670C1;stroke:#12A8DD;stroke-width:9.7576;stroke-miterlimit:10;" x1="733.327" y1="137.522" x2="733.327" y2="119.037"/>
					
						<line style="fill:#1670C1;stroke:#1670C1;stroke-width:9.7576;stroke-miterlimit:10;" x1="733.327" y1="800.482" x2="733.327" y2="137.522"/>
					
						<line style="fill:#1670C1;stroke:#333332;stroke-width:13;stroke-miterlimit:10;" x1="733.327" y1="816.489" x2="733.327" y2="800.482"/>
					
						<line style="fill:none;stroke:#1670C1;stroke-width:9.7576;stroke-miterlimit:10;" x1="651.475" y1="137.522" x2="651.475" y2="802.482"/>
					
						<line style="fill:none;stroke:#333332;stroke-width:13;stroke-miterlimit:10;" x1="651.475" y1="800.482" x2="651.475" y2="816.489"/>
				</g>
			</g>
			<polygon style="opacity:0.5;fill:#4D5D7A;" points="502.485,334.48 342.972,334.48 342.972,322.841 499.546,322.841 			"/>
		</g>
	</g>
	<g style="opacity:0.5;">
		<polygon style="opacity:0.5;fill:#4D5D7A;" points="366.573,594.443 370.121,593.946 413.354,593.946 424.399,593.946 
			432.471,593.946 446.234,593.946 427.743,593.946 427.743,718.423 421.533,718.423 421.533,737.384 370.121,737.384 
			361.251,737.384 349.308,737.384 349.308,718.423 366.573,718.423 		"/>
		<path style="opacity:0.5;fill:#4D5D7A;" d="M343.133,548.358v18.961h26.988h5.72v-18.56h4.436V444.789h33.548v103.527h-2.661
			v19.004h33.655v-19.004l4.436,0.443v-5.381h-4.719v-10.737h4.719V387.758h38.495v-29.166h-38.495v-0.002h-13.997v0h-5.755v0.003
			h-49.226v-0.003h-10.156h-4.225l-0.591,161.636l-7.14,0.279l-0.276,5.782l0.019,6.355v15.717H343.133z M431.65,532.641h0.201l0,0
			L431.65,532.641L431.65,532.641z M384.712,429.33v-41.572h42.129v41.47h-11.242v0.102H384.712z M376.16,532.641h0.112v0
			L376.16,532.641L376.16,532.641z"/>
	</g>
</g>
<g style="display:inline;">
	<path style="fill:#333332;" d="M335.959,802.251c-3.441,0-6.231,3.495-6.231,7.806s2.79,7.806,6.231,7.806h8.165v-12.92
		L335.959,802.251z"/>
	<ellipse style="fill:#333332;" cx="344.123" cy="810.057" rx="6.231" ry="7.806"/>
	<path style="fill:#333332;" d="M260.054,802.251c-3.441,0-6.231,3.495-6.231,7.806s2.79,7.806,6.231,7.806h8.165v-12.92
		L260.054,802.251z"/>
	<ellipse style="fill:#333332;" cx="268.219" cy="810.057" rx="6.231" ry="7.806"/>
	<path style="fill:#333332;" d="M367.451,802.251c-3.441,0-6.231,3.495-6.231,7.806s2.79,7.806,6.231,7.806h8.165v-12.92
		L367.451,802.251z"/>
	<path style="fill:#333332;" d="M369.385,810.057c0,4.311,2.79,7.806,6.231,7.806c3.441,0,6.231-3.495,6.231-7.806
		s-2.79-7.806-6.231-7.806C372.174,802.251,369.385,805.746,369.385,810.057z"/>
	<path style="fill:#333332;" d="M291.547,802.251c-3.441,0-6.231,3.495-6.231,7.806s2.79,7.806,6.231,7.806h8.165v-12.92
		L291.547,802.251z"/>
	<ellipse style="fill:#333332;" cx="299.711" cy="810.057" rx="6.231" ry="7.806"/>
	<g>
		<path style="fill:#FFAD1D;" d="M222.648,452.63c-28.854,3.273-38.716,12.062-38.716,12.062s11.689-3.518,23.376-4.844
			c11.688-1.326,14.609,0.534,14.609,0.534c4.337-1.633,14.81-5.532,15.009-7.428c0.044-0.414-1.033-3.922-1.033-3.922
			S229.525,451.85,222.648,452.63z"/>
		<path style="fill:#FFCD2C;" d="M221.674,448.857c-28.854,3.273-38.716,12.062-38.716,12.062s11.688-3.518,23.376-4.844
			c11.688-1.326,14.609,0.534,14.609,0.534C227.884,453.997,250.529,445.584,221.674,448.857z"/>
		<g>
			<path style="fill:#8E3925;" d="M185.434,486.752c-0.866-1.738-1.398,3.784-1.411,3.124c-0.222-11.6-10.156-2.964-10.94-15.807
				c-0.668-10.951-0.762-11.047-1.057-16.368c-0.587-10.573,5.554-21.789,28.15-21.615c12.579,0.097,15.806,4.982,18.642,11.389
				c5.283,11.933,1.018,27.261,1.018,27.261L185.434,486.752z"/>
			<path style="fill:#FFB287;" d="M205.77,515.689c0,0,0.172,4.463-7.099,4.463c-7.272,0-16.138-4.463-16.138-4.463l0-22.146
				l23.238-1.046L205.77,515.689z"/>
			<path style="fill:#FFB287;" d="M204.793,505.126c0.315,0,0.631,0,0.939-0.008c14.001-0.354,16.64-11.417,17.056-23.356
				l0.316-9.909l0.085-2.631l0.154-4.624c0.031-0.985,0.031-1.962-0.008-2.916c-0.338-8.393-3.639-15.256-12.263-17.471
				c-1.923-0.5-4.101-0.761-6.577-0.761c-10.87,0-17.025,5.547-17.325,20.702c-0.031,0.4-0.031,0.831-0.031,1.246l-8.686,15.486
				C178.052,492.494,189.999,505.026,204.793,505.126z"/>
			<path style="fill:#8E3925;" d="M184.885,466.059"/>
			<path style="fill:#8E3925;" d="M191.938,464.703"/>
			<path style="opacity:0.6;fill:#F97F67;" d="M205.735,505.116c13.998-0.355,16.632-11.416,17.049-23.356l0.319-9.908l0.08-2.626
				l0.16-4.533v-0.097c0.027-0.985,0.027-1.96-0.009-2.91c-0.328-8.107-3.406-14.778-11.381-17.227
				c-0.293-0.089-0.586-0.169-0.887-0.248c0.071,0.186,0.142,0.381,0.213,0.585c1.561,4.4,2.244,10.317,2.555,15.186
				c0.231,3.823,0.231,6.999,0.231,8.294v16.499c0,11.159-2.759,15.772-5.447,15.772
				C205.93,500.548,205.735,500.929,205.735,505.116z"/>
			<path style="fill:#8E3925;" d="M172.967,472.348c0.976,13.625,7.904,25.175,13.146,26.089c3.575,0.621,11.159,0.958,13.927-3.815
				c2.919-5.038,2.333-20.855,11.842-20.997c0.781-0.009,1.508-0.088,2.182-0.213c4.577-0.869,6.848-4.24,7.85-7.975
				c0.683-2.51,0.789-5.18,0.648-7.38c-0.027-0.355-3.557,0.488-8.729,1.925c-11.026,3.069-29.512,8.809-37.265,11.239h-0.009
				C174.315,471.922,172.967,472.348,172.967,472.348z"/>
			<path style="opacity:0.5;fill:#4D5D7A;" d="M172.814,470.551c1.96,0.151,7.907,0.991,10.346,1.186
				c11.266,0.887,22.85-1.135,30.905-3.459c3.291-0.958,5.996-1.96,7.85-2.839c0.559-0.257,1.038-0.514,1.428-0.745v-0.097
				c0.027-0.985,0.027-1.96-0.009-2.91c-0.328-8.107-3.406-14.778-11.381-17.227l-0.674,0.337c1.561,4.4,2.244,10.317,2.555,15.186
				C202.808,463.052,180.567,468.12,172.814,470.551z"/>
		</g>
		<path style="fill:#FFAD1D;" d="M165.579,457.266c0,0.311,0,0.63,0.017,0.958c0.034,1.47,0.118,3.1,0.244,4.714
			c0.387,4.873,1.134,9.57,1.79,9.091c2.848-0.042,5.629-0.168,8.318-0.361c31.751-2.252,51.967-13.67,50.496-13.519
			c1.37-0.109,1.613-6.386-1.361-13.074c-2.386-5.419-5.797-9.393-13.435-12.183c-0.21-0.1-1.403-1.706-3.411-2.378
			c-1.151-0.387-2.143-0.647-3.142-0.823c-0.193-0.034-0.395-0.059-0.605-0.093c-1.403-0.201-2.916-0.244-5.008-0.218
			c-0.16,0-0.311,0-0.471,0.008c-0.479,0.009-0.958,0.025-1.454,0.05c-0.101,0.009-0.202,0.017-0.294,0.025
			c-1.747,0.126-3.386,0.302-4.966,0.537c-0.034,0-0.093,0.042-0.151,0.042c-0.806,0.117-1.588,0.269-2.344,0.428
			c-1.37,0.286-2.68,0.63-3.924,1.025c-11.007,3.419-17.258,10.629-19.434,18.871C165.865,452.602,165.579,454.93,165.579,457.266z"
			/>
	</g>
	<g>
		<g>
			<g>
				<path style="fill:#333332;" d="M467.111,804.596c1.474,0,2.679-1.206,2.679-2.679v-8.846c0-1.474-1.206-2.679-2.679-2.679
					l-89.477,0c-1.473,0-2.679,1.206-2.679,2.679v8.846c0,1.474,1.206,2.679,2.679,2.679L467.111,804.596z"/>
			</g>
		</g>
	</g>
	<g>
		<g>
			<g>
				<path style="fill:#422F28;" d="M205.102,815.882c0.039,1.098-0.827,1.996-1.926,1.996h-37.402c-1.098,0-1.997-0.899-1.997-1.997
					v-3.409c0-1.099,0.898-2.024,1.996-2.057l37.094-1.112c1.098-0.033,2.029,0.838,2.068,1.936L205.102,815.882z"/>
			</g>
			<path style="fill:#A3512C;" d="M205.229,809.79c0,0,0,0,0,0.024c0,0.137,0,0.799-0.089,1.381
				c-0.04,0.226-0.081,0.436-0.129,0.646c0,0.024-0.016,0.065-0.016,0.089c-0.024,0.073-0.048,0.138-0.064,0.21
				c0,0.049-0.024,0.089-0.024,0.113c-0.04,0.073-0.065,0.138-0.089,0.21c0,0.048-0.016,0.065-0.016,0.089
				c-0.048,0.113-0.089,0.234-0.153,0.347c-0.024,0.048-0.04,0.089-0.064,0.137c-0.024,0.048-0.041,0.097-0.065,0.137
				c-0.04,0.073-0.065,0.121-0.105,0.162c-0.024,0.049-0.048,0.073-0.064,0.113c-0.048,0.072-0.113,0.161-0.178,0.234l-0.064,0.073
				c-0.04,0.065-0.081,0.113-0.129,0.162c-0.016,0.016-0.065,0.04-0.081,0.064c-0.049,0.048-0.113,0.097-0.178,0.138
				c-0.016,0-0.016,0.024-0.04,0.024c-0.065,0.073-0.153,0.113-0.234,0.137c-0.024,0.024-0.048,0.024-0.065,0.049
				c-0.064,0.024-0.129,0.048-0.194,0.065c-0.024,0-0.048,0.024-0.089,0.024c-0.089,0.024-0.17,0.048-0.258,0.048
				c-1.316,0.113-14.22,0.065-14.22,0.065l-6.654-1.284c0,0-0.743,0-1.93,0.008c-4.675,0.008-16.206,0.032-16.223-0.081
				c-0.089-1.566-0.113-2.051-0.113-3.343v-0.5c0.049-5.37-0.024-14.769-0.024-14.769s1.566-1.995,3.505-3.731
				c1.429-1.292,3.052-2.439,4.401-2.536c4.175-0.291,5.386,8.818,5.709,7.09c0.113-0.436,0.129-0.719,0.129-0.719l2.011-0.178
				l4.821-0.42l1.785-0.162l2.091,5.927c2.196,2.649,6.29,6.541,6.29,6.541s2.794,0.073,5.451,0.073c2.616,0,5.168,0.67,5.337,3.06
				C205.204,809.604,205.204,809.693,205.229,809.79z"/>
		</g>
		<path style="fill:#FF811A;" d="M269.336,573.461c3.432-0.202,6.662-0.505,8.195,3.432c1.755,4.505,3.648,12.987-2.274,17.025
			c-0.945,0.644-2.37-7.94-2.37-7.94l-4.172-1.884l0.135-3.028l-0.019-6.695L269.336,573.461z"/>
		
			<line style="fill:none;stroke:#3C4949;stroke-width:8.0348;stroke-linecap:round;stroke-linejoin:round;stroke-miterlimit:10;" x1="407.889" y1="241.16" x2="315.913" y2="241.16"/>
		
			<line style="fill:none;stroke:#3C4949;stroke-width:8.0348;stroke-linecap:round;stroke-linejoin:round;stroke-miterlimit:10;" x1="407.153" y1="290.703" x2="315.913" y2="290.703"/>
		<g>
			
				<path style="fill:none;stroke:#3C4949;stroke-width:8.0348;stroke-linecap:round;stroke-linejoin:round;stroke-miterlimit:10;" d="
				M313.997,297.18c0,5.867,4.8,10.668,10.668,10.668h72.716c5.867,0,10.668-4.8,10.668-10.668v-78.358
				c0-5.867-4.8-10.668-10.668-10.668h-72.716c-5.867,0-10.668,4.8-10.668,10.668V297.18z"/>
		</g>
		<g>
			<polygon style="fill:#333332;" points="333.71,551.654 313.825,559.729 313.825,241.397 333.71,241.397 			"/>
			<rect x="313.825" y="241.397" style="fill:#485959;" width="8.004" height="318.332"/>
			<polygon style="fill:#333332;" points="403.155,551.654 383.27,559.729 383.27,241.397 403.155,241.397 			"/>
			<rect x="383.27" y="241.397" style="fill:#485959;" width="8.004" height="318.332"/>
			<rect x="369.272" y="408.732" style="fill:#333332;" width="24.73" height="382.339"/>
			<rect x="302.532" y="408.732" style="fill:#333332;" width="24.73" height="382.339"/>
			<rect x="302.532" y="408.732" style="fill:#485959;" width="8.004" height="219.436"/>
			<rect x="314.684" y="559.22" style="fill:#333332;" width="73.45" height="15.563"/>
			<rect x="314.684" y="408.834" style="fill:#333332;" width="73.45" height="15.563"/>
			<rect x="339.805" y="751.212" style="fill:#333332;" width="48.33" height="15.563"/>
			<rect x="368.746" y="408.732" style="fill:#485959;" width="8.004" height="219.436"/>
		</g>
		<g>
			<g>
				<g>
					<g>
						<g>
							<path style="fill:#602C34;" d="M236.034,665.818c-0.011-0.061-0.023-0.123-0.033-0.184
								C236.011,665.695,236.023,665.756,236.034,665.818z"/>
							<path style="fill:#602C34;" d="M235.872,664.803c-0.004-0.028-0.007-0.056-0.01-0.085
								C235.865,664.747,235.868,664.775,235.872,664.803z"/>
						</g>
					</g>
				</g>
			</g>
			<g>
				<g>
					<path style="fill:#C44E1A;" d="M300.448,782.708c-2.428,0-5.058-2.272-5.412-4.674l-21.643-147.118
						c-0.073-0.497-0.074-1.189,0.337-1.664c0.411-0.476,1.095-0.576,1.597-0.576H387.04c1.943,0,3.584,1.641,3.584,3.584v146.864
						c0,1.943-1.641,3.584-3.584,3.584H300.448z"/>
					<path style="fill:#333332;" d="M382.261,637.039v137.307h-79.315l-20.2-137.307H382.261 M387.04,620.314H275.327
						c-6.57,0-11.164,5.319-10.208,11.819l21.643,147.118c0.956,6.5,7.115,11.819,13.685,11.819h86.592
						c6.57,0,11.946-5.376,11.946-11.946V632.26C398.986,625.69,393.61,620.314,387.04,620.314L387.04,620.314z"/>
				</g>
				<path style="fill:#FF811A;" d="M267.841,626.15c-0.103,0-0.206,0.02-0.309,0.049c-1.563-0.17-3.444,0.498-5.447,2.122
					l-22.779,38.836c-4.773,6.971-9.279,13.701-9.279,23.391v88.576c0,6.57,5.376,11.946,11.946,11.946h47.712
					c6.438,0,11.558-5.161,11.577-11.547l50.042,1.463l5.249-8.075l10.813-101.946l9.993-44.816
					C377.357,626.15,270.566,626.15,267.841,626.15z"/>
				<path style="fill:#FF9E1D;" d="M230.631,684.627c1.376-6.697,4.938-12.012,8.675-17.47l22.779-38.836
					c2.003-1.625,3.884-2.292,5.447-2.122c0.104-0.029,0.207-0.049,0.309-0.049c2.725,0,109.516,0,109.516,0l-9.83,44.087
					l-13.162,4.336c0.591,2.365-8.871-1.183-11.236,4.731c-2.365,5.914-7.688,5.322-14.193,5.322c-6.505,0-83.975,0-83.975,0
					S237.754,684.627,230.631,684.627z"/>
				<path style="fill:#DD5712;" d="M382.352,779.13c0.199,6.567-0.591,11.941-7.162,11.941h-22.591
					c-6.57,0-11.946-5.376-11.946-11.946V690.01c0-6.57,3.698-13.997,9.279-22.852l22.779-38.836c5.104-4.138,9.442-2.15,9.64,4.417
					V779.13z"/>
			</g>
			<g>
				<path style="fill:#333332;" d="M394.971,805.819c0,2.628-2.15,4.779-4.779,4.779H230.966c-2.628,0-4.779-2.15-4.779-4.779
					v-9.793c0-2.628,2.15-4.779,4.779-4.779h159.227c2.628,0,4.779,2.15,4.779,4.779V805.819z"/>
			</g>
			<g>
				<path style="fill:#333332;" d="M404.529,793.46c0,2.628-2.15,4.779-4.779,4.779H227.636c-2.628,0-4.779-2.15-4.779-4.779
					v-13.831c0-2.628,2.15-4.779,4.779-4.779H399.75c2.628,0,4.779,2.15,4.779,4.779V793.46z"/>
			</g>
			<g>
				<path style="fill:#485959;" d="M348.208,793.46c0,2.628-2.15,4.779-4.779,4.779H225.247c-2.628,0-4.778-2.15-4.778-4.779
					v-14.013c0-2.628,2.15-4.779,4.778-4.779h118.182c2.628,0,4.779,2.15,4.779,4.779V793.46z"/>
			</g>
			<path style="opacity:0.3;fill:#333332;" d="M220.47,779.446v14.012c0,2.626,2.152,4.778,4.778,4.778h93.085
				c-10.27-16.573-8.779-23.72-8.779-23.72h-7.743c-11.914-26.096-46.44-101.212-55.558-119.198l-6.948,11.842
				c-4.769,6.966-9.279,13.7-9.279,23.39v84.118h-4.778C222.622,774.668,220.47,776.821,220.47,779.446z"/>
		</g>
		<g>
			<g>
				<path style="fill:#333332;" d="M303.242,779.124v-92.497c0-6.57,4.176-15.332,9.279-19.47l18.941-32.78
					c2.003-1.624,3.884-2.292,5.447-2.122c0.103-0.029,0.207-0.049,0.309-0.049c-24.452,0-47.214,0-48.453,0
					c-0.102,0-0.206,0.02-0.309,0.049c-1.563-0.17-3.444,0.498-5.447,2.122l-18.941,32.78c-5.104,4.138-9.279,12.899-9.279,19.47
					v92.497c0,6.57,5.376,11.946,11.946,11.946h47.711c0.126,0,0.249-0.015,0.374-0.018
					C308.42,790.854,303.242,785.57,303.242,779.124z"/>
			</g>
		</g>
		<g>
			<path style="fill:#485959;" d="M311.586,779.124v-86.423c0-6.57,1.542-13.189,8.54-27.455l18.724-30.062
				c1.901-1.464,1.935-2.978-1.632-2.978c-12.521,0-39.315,0-40.109,0c-0.103,0-0.206,0.02-0.309,0.049
				c-1.563-0.17-3.444,0.498-5.447,2.122l-18.941,32.78c-5.104,4.138-9.279,12.899-9.279,19.47v92.497
				c0,6.57,5.376,11.946,11.946,11.946h47.711c0.126,0,0.249-0.015,0.374-0.018C316.764,790.854,311.586,785.57,311.586,779.124z"/>
			<path style="opacity:0.3;fill:#333332;" d="M263.133,779.124v-88.416c13.66,29.225,30.938,66.857,38.677,83.809h10.047v16.554
				H275.08C268.509,791.07,263.133,785.694,263.133,779.124z"/>
			<path style="opacity:0.5;fill:#333332;" d="M291.354,634.377c-3.258,1.53-19.858,152.8-19.858,152.8l3.499,1.077l-9.195,2.494
				l-7.224-10.569l1.346-98.514l10.228-16.419l13.909-28.531L291.354,634.377z"/>
		</g>
		
			<line style="fill:#B7BAC4;stroke:#333332;stroke-width:15.5002;stroke-linecap:round;stroke-linejoin:round;stroke-miterlimit:10;" x1="282.884" y1="749.983" x2="255.51" y2="605.685"/>
		<g>
			<path style="fill:#333332;" d="M248.552,568.743c1.442,0,2.851,0.166,3.959,0.507l7.822,2.404
				c2.512,0.772,4.967,3.517,5.454,6.099l2.266,12.007c0.487,2.583-0.828,5.994-2.923,7.581l-5.707,4.323
				c-1.229,0.931-2.983,1.42-4.694,1.42c-1.205,0-2.389-0.243-3.352-0.745l-10.099-5.269c-2.33-1.216-4.635-4.323-5.123-6.906
				l-2.266-12.007c-0.487-2.583,1.127-5.452,3.587-6.377l5.994-2.253C244.846,569.01,246.725,568.743,248.552,568.743
				 M248.553,561.576L248.553,561.576c-1.605,0-4.728,0.161-7.603,1.242l-5.994,2.253c-5.765,2.167-9.251,8.365-8.108,14.416
				l2.266,12.007c0.902,4.777,4.541,9.683,8.85,11.932l10.1,5.269c1.954,1.02,4.259,1.559,6.667,1.559
				c3.371,0,6.575-1.021,9.022-2.875l5.706-4.323c4.257-3.225,6.629-9.375,5.638-14.624l-2.266-12.008
				c-0.978-5.184-5.349-10.072-10.392-11.622l-7.822-2.404C252.405,561.718,250.098,561.576,248.553,561.576L248.553,561.576z"/>
		</g>
		
			<line style="fill:none;stroke:#333332;stroke-width:5.6525;stroke-linecap:round;stroke-linejoin:round;stroke-miterlimit:10;" x1="247.78" y1="565.386" x2="255.82" y2="603.174"/>
		<g>
			<path style="fill:#333332;" d="M284.086,634.377c2.003-1.624,3.884-2.292,5.447-2.122c0.103-0.029,0.207-0.049,0.309-0.049
				c0.794,0,34.856,0,47.377,0c3.566,0,3.533,1.514,1.632,2.978l-2.282,1.868c-12.77,0-45.841,0-46.622,0
				c-1.211,0-2.523,0.555-3.987,1.665C284.496,639.827,284.086,634.377,284.086,634.377z"/>
			<path style="fill:#485959;" d="M311.586,779.124v4.845c0,2.659,0.891,5.113,2.376,7.101h8.829c0.126,0,0.249-0.015,0.374-0.018
				C316.764,790.854,311.586,785.57,311.586,779.124z"/>
		</g>
		<g>
			<path style="fill:#333332;" d="M270.15,791.068v-37.132c0-5.329,4.361-9.69,9.69-9.69h14.131c5.329,0,9.69,4.36,9.69,9.69v37.132
				"/>
		</g>
		<rect x="306.608" y="559.22" style="fill:#485959;" width="66.648" height="6.68"/>
		<g>
			<path style="fill:#993030;" d="M229.45,624.873l-71.57,9.017v15.03c0.343,7.941,7.984,14.185,15.844,13.007h41.523
				c7.86-1.178,14.281-9.144,14.268-17.092L229.45,624.873z"/>
			<path style="fill:#FFC229;" d="M179.069,514.524l32.719,0c10.596,0.086,17.919,9.717,17.919,21.021
				c0,0-1.993,88.944-2.252,96.181c-0.027,0.746-0.863,2.22-0.863,2.22s4.94-3.444-22.796-3.226
				c-32.615,0.256-45.65,7.271-45.65,7.271l0-103.04C158.146,523.648,168.473,514.438,179.069,514.524z"/>
			<polygon style="opacity:0.7;fill:#C97D17;" points="209.739,548.16 209.739,612.019 198.801,622.718 227.029,622.455 
				227.029,568.218 			"/>
			<path style="fill:#993030;" d="M229.458,638.061c1.663-0.908-71.972-8.18-71.315,1.993c-0.059-0.858-0.255-3.069-0.255-3.069
				v-15.342l68.255-0.121c0,0,0-67.607,0-76.192h3.316C229.458,586.449,229.872,605.497,229.458,638.061z"/>
			<path style="fill:#602C34;" d="M213.76,644.559c-0.002-0.038-0.003-0.075-0.004-0.112
				C213.757,644.485,213.758,644.522,213.76,644.559z"/>
			<path style="fill:#602C34;" d="M213.732,643.435c0,0.014,0.001,0.028,0.001,0.042
				C213.732,643.463,213.732,643.449,213.732,643.435z"/>
			<path style="fill:#602C34;" d="M213.749,642.374c-0.001,0.021-0.001,0.042-0.002,0.063
				C213.747,642.416,213.748,642.395,213.749,642.374z"/>
			<path style="fill:#602C34;" d="M213.841,645.732c-0.005-0.056-0.011-0.112-0.016-0.167
				C213.83,645.62,213.836,645.676,213.841,645.732z"/>
			<path style="fill:#993030;" d="M203.576,512.523c0,0,5.548-0.305,7.579-0.016c0.071,0.01,0.148,0.022,0.22,0.032v0.935
				c0,0-0.013,0.334,0.106,0.833c-9.029,3.323-11.194,18.41-11.059,29.015l-0.158,63.58h-10.845l0.158-63.58
				C189.423,531.104,191.968,512.523,203.576,512.523z"/>
			<path style="fill:#993030;" d="M178.741,512.523l3.761,0.016l0.074,0.735c0,0-0.004,0.728-0.004,1.246
				c-8.132,0-7.928,18.196-7.794,28.802v63.58l-10.073,4.31l0.035-67.89C164.588,531.104,164.017,512.523,178.741,512.523z"/>
			<g>
				<g>
					<path style="fill:#FFB287;" d="M234.476,617.169c-1.799,0-3.565-0.418-5.181-1.257c-3.324-1.725-5.559-4.991-6.133-8.961
						l-8.145-56.339c-0.59-4.084,2.242-7.874,6.326-8.465c4.084-0.59,9.248,1.391,9.839,5.476l6.124,38.289l1.85,13.189
						l23.047-15.544c3.679-1.868,8.177-0.4,10.046,3.28c1.868,3.68,0.399,8.177-3.28,10.046l-28.815,18.887
						C238.315,616.701,236.377,617.169,234.476,617.169z"/>
					<path style="opacity:0.5;fill:#E5785C;" d="M218.673,575.916v-0.008c0.751-4.239,1.865-10.401,2.132-10.925
						c0.291-0.581,10.029,1.26,14.212,3.028l2.355,18.034l-18.045-5.639L218.673,575.916z"/>
				</g>
				<path style="fill:#FFC229;" d="M217.806,515.678c-10.699-3.553-8.197,16.625-8.037,25.217
					c0.223,11.967,4.657,37.815,4.657,37.815l21.6-3.836l-3.578-33.459C232.449,541.416,232.43,520.534,217.806,515.678z"/>
			</g>
			<polygon style="fill:#993030;" points="199.37,602.111 199.37,588.537 167.393,588.537 167.393,602.111 157.879,621.621 
				182.058,629.125 209.691,621.621 			"/>
		</g>
		<path style="fill:#993030;" d="M157.936,638.725l1.596,132.535l0.062,5.322l0.053,4.737l0.071,5.322l0.124,10.618h32.422
			l0.266-10.618l0.142-5.322l0.115-4.737l0.142-5.322l0.763-30.063l1.597-62.795l0.053-2.147l0.958-37.531
			c0-2.581-1.437-5.012-3.673-7.123c-4.914-4.657-13.67-7.815-19.347-7.815C165.041,623.787,157.936,630.466,157.936,638.725z"/>
		<path style="fill:#993030;" d="M174.226,693.995c1.38-0.828,6.723,2.571,6.723-9.852c0-5.762,4.557-6.021,8.741-6.007
			c4.837,0.016,9.904,1.132,10.811,7.89l4.091-31.783h-35.335L174.226,693.995z"/>
		<path style="fill:none;stroke:#FF811A;stroke-width:5.6525;stroke-linecap:round;stroke-miterlimit:10;" d="M267.572,582.613
			c-1.884-6.998,0.774-8.142,3.6-10.161"/>
		<path style="fill:#FF811A;" d="M260.05,584.968l-0.404,0.807l3.23,4.441l0.726,10.161c0,0,9.69-5.047,11.238-6.056
			c1.548-1.009,3.163-5.047,2.961-8.882c-0.202-3.836-3.365-6.864-4.441-6.46c-1.077,0.404-3.163,1.009-3.634,1.009
			s-3.095-2.019-3.297-1.951c-0.202,0.067,1.582-6.829-0.134-5.249C262.054,576.691,259.512,583.151,260.05,584.968z"/>
		<g>
			<g>
				<g>
					<path style="fill:#422F28;" d="M261.828,815.882c0.039,1.098-0.827,1.996-1.926,1.996h-37.401
						c-1.098,0-1.997-0.899-1.997-1.997v-3.409c0-1.099,0.899-2.024,1.997-2.057l37.094-1.112c1.098-0.033,2.029,0.838,2.068,1.936
						L261.828,815.882z"/>
				</g>
				<path style="fill:#A3512C;" d="M261.955,809.79c0,0,0,0,0,0.024c0,0.137,0,0.799-0.089,1.381
					c-0.04,0.226-0.081,0.436-0.129,0.646c0,0.024-0.016,0.065-0.016,0.089c-0.024,0.073-0.048,0.138-0.064,0.21
					c0,0.049-0.024,0.089-0.024,0.113c-0.04,0.073-0.065,0.138-0.089,0.21c0,0.048-0.016,0.065-0.016,0.089
					c-0.048,0.113-0.089,0.234-0.153,0.347c-0.024,0.048-0.04,0.089-0.064,0.137c-0.024,0.048-0.041,0.097-0.065,0.137
					c-0.04,0.073-0.065,0.121-0.105,0.162c-0.024,0.049-0.048,0.073-0.064,0.113c-0.049,0.072-0.113,0.161-0.178,0.234l-0.064,0.073
					c-0.04,0.065-0.081,0.113-0.129,0.162c-0.016,0.016-0.065,0.04-0.081,0.064c-0.048,0.048-0.113,0.097-0.178,0.138
					c-0.016,0-0.016,0.024-0.04,0.024c-0.065,0.073-0.153,0.113-0.234,0.137c-0.024,0.024-0.048,0.024-0.065,0.049
					c-0.064,0.024-0.129,0.048-0.194,0.065c-0.024,0-0.048,0.024-0.089,0.024c-0.089,0.024-0.17,0.048-0.258,0.048
					c-1.316,0.113-14.22,0.065-14.22,0.065l-6.654-1.284c0,0-0.743,0-1.93,0.008c-4.675,0.008-16.206,0.032-16.223-0.081
					c-0.089-1.566-0.113-2.051-0.113-3.343v-0.5c0.048-5.37-0.024-14.769-0.024-14.769s1.566-1.995,3.505-3.731
					c1.429-1.292,3.052-2.439,4.401-2.536c4.175-0.291,5.386,8.818,5.709,7.09c0.113-0.436,0.129-0.719,0.129-0.719l2.011-0.178
					l4.821-0.42l1.785-0.162l2.092,5.927c2.196,2.649,6.29,6.541,6.29,6.541s2.794,0.073,5.451,0.073c2.616,0,5.168,0.67,5.337,3.06
					C261.931,809.604,261.931,809.693,261.955,809.79z"/>
			</g>
			<g>
				<path style="fill:#993030;" d="M186.774,642.956c0.044,0.124,4.125,12.046,8.569,33.3c0.505,2.422,1.011,4.959,1.526,7.611
					c3.717,19.382,14.707,50.642,18.77,87.393c0.195,1.765,0.372,3.531,0.532,5.322c0.142,1.57,0.275,3.149,0.381,4.737
					c0.133,1.765,0.24,3.54,0.328,5.322c0.195,3.797,0.293,7.629,0.293,11.505l29.876-1.011c0-3.54-0.027-7.043-0.089-10.494
					c-0.018-1.783-0.053-3.557-0.098-5.322c-0.035-1.588-0.071-3.167-0.124-4.737c-0.044-1.792-0.106-3.566-0.177-5.322
					c-3.114-82.993-20.26-135.782-21.068-138.115c-2.714-7.779-11.212-11.896-19.001-9.19c-3.912,1.357-9.562,4.187-13.865,7.646
					C188.38,635.034,185.435,639.079,186.774,642.956z"/>
			</g>
		</g>
	</g>
	<path style="fill:none;stroke:#FFFFFF;stroke-width:3.5482;stroke-linecap:round;stroke-linejoin:round;stroke-miterlimit:10;" d="
		M258.435,585.17c2.422,0.606,3.936,2.12,5.047,8.075c0.915,4.91,0.12,7.133,0.12,7.133"/>
	<path style="fill:#7A2929;" d="M181.858,673.321l11.036,96.092l3.079-90.235C191.466,667.025,181.858,673.321,181.858,673.321z"/>
	<path style="fill:#E5785C;" d="M212.197,470.792c-1.841-0.543-5.254-0.533-6.891,2.639c-2.451,4.749-0.962,13.655,3.462,13.848
		C213.191,487.47,212.197,470.792,212.197,470.792z"/>
	<path style="fill:#FFB287;" d="M215.925,473.238c-1.346-1.539-5.385-4.808-8.078-0.192c-2.693,4.616-0.962,13.655,3.462,13.848
		C215.733,487.086,215.925,473.238,215.925,473.238z"/>
	<path style="fill:#FFCD2C;" d="M165.579,457.266c0,0.311,0,0.63,0.017,0.958c0.034,1.47,0.118,3.1,0.244,4.714
		c0.387,4.873,1.134,9.57,1.79,9.091c2.848-0.042,8.106-0.335,10.795-0.528c-0.332-1.422-1.239-4.004-1.239-4.004
		s1.34-0.718,1.335-1.525c-0.011-1.632-0.798-3.806-0.942-6.201c-1.092-18.191,10.419-29.13,21.434-30.382
		c-0.479,0.009-0.958,0.025-1.454,0.05c-0.101,0.009-0.202,0.017-0.294,0.025c-1.747,0.126-3.386,0.302-4.966,0.537
		c-0.034,0-0.093,0.042-0.151,0.042c-0.806,0.117-1.588,0.269-2.344,0.428c-1.37,0.286-2.68,0.63-3.924,1.025
		c-11.007,3.419-17.258,10.629-19.434,18.871C165.865,452.602,165.579,454.93,165.579,457.266z"/>
</g>
<g style="display:inline;">
	
		<line style="fill:none;stroke:#333332;stroke-width:3.5482;stroke-linecap:round;stroke-linejoin:round;stroke-miterlimit:10;" x1="352.601" y1="757.6" x2="352.601" y2="745.182"/>
	
		<line style="fill:none;stroke:#333332;stroke-width:3.5482;stroke-linecap:round;stroke-linejoin:round;stroke-miterlimit:10;" x1="359.106" y1="757.6" x2="359.106" y2="745.182"/>
	
		<line style="fill:none;stroke:#333332;stroke-width:3.5482;stroke-linecap:round;stroke-linejoin:round;stroke-miterlimit:10;" x1="365.611" y1="757.6" x2="365.611" y2="745.182"/>
	
		<line style="fill:none;stroke:#333332;stroke-width:3.5482;stroke-linecap:round;stroke-linejoin:round;stroke-miterlimit:10;" x1="372.116" y1="757.6" x2="372.116" y2="745.182"/>
</g>
<path style="display:inline;fill:none;stroke:#FFCD2C;stroke-width:2.9064;stroke-linecap:round;stroke-miterlimit:10;" d="
	M189.584,464.238c-7.061,1.185-14.806,1.928-20.28,1.762"/>
<g style="display:inline;">
	
		<line style="fill:none;stroke:#1670C1;stroke-width:9.7576;stroke-miterlimit:10;" x1="731.713" y1="157.544" x2="653.213" y2="157.544"/>
</g>
<g style="display:inline;">
	
		<line style="fill:none;stroke:#1670C1;stroke-width:9.7576;stroke-miterlimit:10;" x1="731.713" y1="382.4" x2="653.213" y2="382.4"/>
</g>
<g style="display:inline;">
	
		<line style="fill:none;stroke:#1670C1;stroke-width:9.7576;stroke-miterlimit:10;" x1="731.713" y1="584.196" x2="653.213" y2="584.196"/>
</g>
<g style="display:inline;">
	<path style="fill:#FFFFFF;" d="M216.553,781.319c0.133,1.765,0.24,3.54,0.328,5.322h30.08c-0.018-1.783-0.053-3.557-0.098-5.322
		H216.553z"/>
	<polygon style="fill:#FFFFFF;" points="159.648,781.319 159.719,786.641 192.531,786.641 192.673,781.319 	"/>
</g>
<g style="display:inline;">
	<path style="fill:#FFFFFF;" d="M215.639,771.26c0.195,1.765,0.372,3.531,0.532,5.322h30.568c-0.044-1.792-0.106-3.566-0.177-5.322
		H215.639z"/>
	<polygon style="fill:#FFFFFF;" points="159.595,776.582 192.789,776.582 192.93,771.26 159.533,771.26 	"/>
</g>
<polygon style="display:inline;opacity:0.4;fill:#FFFFFF;" points="310.536,447.504 302.532,442.923 302.532,426.728 
	310.536,431.31 "/>
<polygon style="display:inline;opacity:0.3;fill:#FFFFFF;" points="321.869,296.316 313.865,291.734 313.865,268.561 
	321.869,273.143 "/>
<polygon style="display:inline;opacity:0.3;fill:#FFFFFF;" points="391.203,314.359 383.198,309.778 383.198,286.605 
	391.203,291.187 "/>
<polygon style="display:inline;opacity:0.4;fill:#FFFFFF;" points="310.536,460.467 302.532,455.886 302.532,448.498 
	310.536,453.079 "/>
<polygon style="display:inline;opacity:0.4;fill:#FFFFFF;" points="376.906,469.482 368.902,464.901 368.902,448.498 
	376.906,453.079 "/>
</svg>
