<?xml version="1.0" encoding="utf-8"?>
<!-- Generator: Adobe Illustrator 27.5.0, SVG Export Plug-In . SVG Version: 6.00 Build 0)  -->
<svg version="1.1" xmlns="http://www.w3.org/2000/svg" xmlns:xlink="http://www.w3.org/1999/xlink" x="0px" y="0px"
	 viewBox="0 0 500 500" style="enable-background:new 0 0 500 500;" xml:space="preserve">
<g id="Background_Complete">
	<g>
		<rect y="382.398" style="fill:#EBEBEB;" width="500" height="0.25"/>
		<rect x="416.779" y="398.494" style="fill:#EBEBEB;" width="33.122" height="0.25"/>
		<rect x="322.527" y="401.208" style="fill:#EBEBEB;" width="8.693" height="0.25"/>
		<rect x="396.586" y="389.208" style="fill:#EBEBEB;" width="19.192" height="0.25"/>
		<rect x="52.459" y="390.888" style="fill:#EBEBEB;" width="43.193" height="0.25"/>
		<rect x="104.556" y="390.888" style="fill:#EBEBEB;" width="6.333" height="0.25"/>
		<rect x="131.471" y="395.111" style="fill:#EBEBEB;" width="93.676" height="0.25"/>
		<path style="fill:#EBEBEB;" d="M237.014,337.8H43.915c-3.147,0-5.708-2.561-5.708-5.708V60.66c0-3.147,2.561-5.708,5.708-5.708
			h193.099c3.146,0,5.707,2.561,5.707,5.708v271.432C242.721,335.239,240.16,337.8,237.014,337.8z M43.915,55.203
			c-3.01,0-5.458,2.448-5.458,5.458v271.432c0,3.01,2.448,5.458,5.458,5.458h193.099c3.009,0,5.457-2.448,5.457-5.458V60.66
			c0-3.009-2.448-5.458-5.457-5.458H43.915z"/>
		<path style="fill:#EBEBEB;" d="M453.31,337.8H260.212c-3.147,0-5.707-2.561-5.707-5.708V60.66c0-3.147,2.561-5.708,5.707-5.708
			H453.31c3.148,0,5.708,2.561,5.708,5.708v271.432C459.019,335.239,456.458,337.8,453.31,337.8z M260.212,55.203
			c-3.009,0-5.457,2.448-5.457,5.458v271.432c0,3.01,2.448,5.458,5.457,5.458H453.31c3.01,0,5.458-2.448,5.458-5.458V60.66
			c0-3.009-2.448-5.458-5.458-5.458H260.212z"/>
	</g>
	<g>
		<g>
			<g>
				<rect x="98.603" y="307.004" style="fill:#E6E6E6;" width="104.424" height="64.387"/>
			</g>
			<g>
				<g>
					<rect x="106.893" y="310.007" style="fill:#F0F0F0;" width="43.121" height="33.071"/>
				</g>
				<g>
					<rect x="151.615" y="310.007" style="fill:#F0F0F0;" width="43.121" height="33.071"/>
				</g>
			</g>
			<g>
				<g>
					<path style="fill:#E0E0E0;" d="M98.603,313.145L98.603,313.145c-2.406,0-4.356-1.95-4.356-4.356v-4.356h8.712v4.356
						C102.959,311.195,101.008,313.145,98.603,313.145z"/>
				</g>
				<g>
					<path style="fill:#FAFAFA;" d="M107.295,313.145L107.295,313.145c-2.406,0-4.356-1.95-4.356-4.356v-4.356h8.712v4.356
						C111.65,311.195,109.7,313.145,107.295,313.145z"/>
				</g>
				<g>
					<path style="fill:#E0E0E0;" d="M116.007,313.145L116.007,313.145c-2.406,0-4.356-1.95-4.356-4.356v-4.356h8.712v4.356
						C120.363,311.195,118.412,313.145,116.007,313.145z"/>
				</g>
				<g>
					<path style="fill:#FAFAFA;" d="M124.699,313.145L124.699,313.145c-2.406,0-4.356-1.95-4.356-4.356v-4.356h8.712v4.356
						C129.055,311.195,127.104,313.145,124.699,313.145z"/>
				</g>
				<g>
					<path style="fill:#E0E0E0;" d="M133.411,313.145L133.411,313.145c-2.406,0-4.356-1.95-4.356-4.356v-4.356h8.712v4.356
						C137.767,311.195,135.816,313.145,133.411,313.145z"/>
				</g>
				<g>
					<path style="fill:#FAFAFA;" d="M142.102,313.145L142.102,313.145c-2.406,0-4.356-1.95-4.356-4.356v-4.356h8.712v4.356
						C146.459,311.195,144.508,313.145,142.102,313.145z"/>
				</g>
				<g>
					<path style="fill:#E0E0E0;" d="M150.815,313.145L150.815,313.145c-2.406,0-4.356-1.95-4.356-4.356v-4.356h8.712v4.356
						C155.171,311.195,153.22,313.145,150.815,313.145z"/>
				</g>
				<g>
					<path style="fill:#FAFAFA;" d="M159.507,313.145L159.507,313.145c-2.406,0-4.356-1.95-4.356-4.356v-4.356h8.712v4.356
						C163.863,311.195,161.912,313.145,159.507,313.145z"/>
				</g>
				<g>
					<path style="fill:#E0E0E0;" d="M168.219,313.145L168.219,313.145c-2.406,0-4.356-1.95-4.356-4.356v-4.356h8.712v4.356
						C172.575,311.195,170.624,313.145,168.219,313.145z"/>
				</g>
				<g>
					<path style="fill:#FAFAFA;" d="M176.911,313.145L176.911,313.145c-2.406,0-4.356-1.95-4.356-4.356v-4.356h8.712v4.356
						C181.267,311.195,179.316,313.145,176.911,313.145z"/>
				</g>
				<g>
					<path style="fill:#E0E0E0;" d="M185.623,313.145L185.623,313.145c-2.406,0-4.356-1.95-4.356-4.356v-4.356h8.712v4.356
						C189.979,311.195,188.029,313.145,185.623,313.145z"/>
				</g>
				<g>
					<path style="fill:#E0E0E0;" d="M203.027,313.145L203.027,313.145c-2.406,0-4.356-1.95-4.356-4.356v-4.356h8.712v4.356
						C207.383,311.195,205.432,313.145,203.027,313.145z"/>
				</g>
				<g>
					<path style="fill:#FAFAFA;" d="M194.315,313.145L194.315,313.145c-2.406,0-4.356-1.95-4.356-4.356v-4.356h8.712v4.356
						C198.671,311.195,196.721,313.145,194.315,313.145z"/>
				</g>
			</g>
			<g>
				<rect x="102.088" y="340.172" style="fill:#E0E0E0;" width="97.453" height="5.813"/>
			</g>
			<g>
				<g>
					<polygon style="fill:#E0E0E0;" points="102.959,281.006 94.246,304.433 102.959,304.433 110.329,281.006 					"/>
				</g>
				<g>
					<polygon style="fill:#FAFAFA;" points="110.312,281.006 102.938,304.433 111.65,304.433 117.682,281.006 					"/>
				</g>
				<g>
					<polygon style="fill:#E0E0E0;" points="117.682,281.006 111.65,304.433 120.362,304.433 125.052,281.006 					"/>
				</g>
				<g>
					<polygon style="fill:#FAFAFA;" points="125.035,281.006 120.342,304.433 129.055,304.433 132.406,281.006 					"/>
				</g>
				<g>
					<polygon style="fill:#E0E0E0;" points="132.406,281.006 129.055,304.433 137.767,304.433 139.776,281.006 					"/>
				</g>
				<g>
					<polygon style="fill:#FAFAFA;" points="139.759,281.006 137.746,304.433 146.458,304.433 147.129,281.006 					"/>
				</g>
				<g>
					<polygon style="fill:#E0E0E0;" points="147.129,281.006 146.458,304.433 155.171,304.433 154.5,281.006 					"/>
				</g>
				<g>
					<polygon style="fill:#FAFAFA;" points="154.483,281.006 155.15,304.433 163.863,304.433 161.853,281.006 					"/>
				</g>
				<g>
					<polygon style="fill:#E0E0E0;" points="161.853,281.006 163.863,304.433 172.575,304.433 169.223,281.006 					"/>
				</g>
				<g>
					<polygon style="fill:#FAFAFA;" points="169.206,281.006 172.555,304.433 181.267,304.433 176.577,281.006 					"/>
				</g>
				<g>
					<polygon style="fill:#E0E0E0;" points="176.577,281.006 181.267,304.433 189.979,304.433 183.947,281.006 					"/>
				</g>
				<g>
					<polygon style="fill:#E0E0E0;" points="191.3,281.006 198.671,304.433 207.383,304.433 198.671,281.006 					"/>
				</g>
				<g>
					<polygon style="fill:#FAFAFA;" points="183.93,281.006 189.958,304.433 198.671,304.433 191.3,281.006 					"/>
				</g>
			</g>
			<g>
				<rect x="129.065" y="271.993" style="fill:#EBEBEB;" width="43.5" height="23.257"/>
			</g>
			<g>
				<g>
					<path style="fill:#FAFAFA;" d="M132.639,275.139v2.555h4.054v1.319h-4.054v3.214h-1.559v-8.396h6.128v1.308H132.639z"/>
					<path style="fill:#FAFAFA;" d="M144.217,282.227l-1.715-2.459c-0.108,0.013-0.216,0.013-0.324,0.013h-1.895v2.446h-1.559
						v-8.396h3.454c2.207,0,3.574,1.128,3.574,2.986c0,1.271-0.648,2.207-1.787,2.65l1.931,2.759H144.217z M142.106,275.15h-1.823
						v3.347h1.823c1.368,0,2.075-0.624,2.075-1.68C144.181,275.762,143.474,275.15,142.106,275.15z"/>
					<path style="fill:#FAFAFA;" d="M153.792,280.919v1.308h-6.296v-8.396h6.128v1.308h-4.569v2.183h4.054v1.283h-4.054v2.314
						H153.792z"/>
					<path style="fill:#FAFAFA;" d="M154.828,281.339l0.54-1.211c0.672,0.539,1.739,0.923,2.77,0.923
						c1.307,0,1.859-0.468,1.859-1.091c0-1.812-4.989-0.624-4.989-3.742c0-1.355,1.08-2.507,3.382-2.507
						c1.007,0,2.063,0.264,2.794,0.744l-0.492,1.211c-0.756-0.443-1.583-0.659-2.315-0.659c-1.295,0-1.823,0.503-1.823,1.139
						c0,1.787,4.977,0.624,4.977,3.706c0,1.344-1.091,2.495-3.394,2.495C156.831,282.347,155.523,281.939,154.828,281.339z"/>
					<path style="fill:#FAFAFA;" d="M170.544,273.831v8.396h-1.559v-3.598h-4.342v3.598h-1.559v-8.396h1.559v3.466h4.342v-3.466
						H170.544z"/>
				</g>
				<g>
					<path style="fill:#FAFAFA;" d="M134.667,285.398v2.555h4.054v1.319h-4.054v3.214h-1.559v-8.396h6.128v1.308H134.667z"/>
					<path style="fill:#FAFAFA;" d="M140.056,288.289c0-2.483,1.919-4.318,4.521-4.318c2.603,0,4.521,1.823,4.521,4.318
						c0,2.494-1.919,4.317-4.521,4.317C141.975,292.606,140.056,290.772,140.056,288.289z M147.528,288.289
						c0-1.716-1.259-2.951-2.95-2.951c-1.691,0-2.951,1.235-2.951,2.951c0,1.715,1.259,2.95,2.951,2.95
						C146.269,291.239,147.528,290.004,147.528,288.289z"/>
					<path style="fill:#FAFAFA;" d="M150.16,288.289c0-2.483,1.919-4.318,4.521-4.318c2.603,0,4.521,1.823,4.521,4.318
						c0,2.494-1.919,4.317-4.521,4.317C152.079,292.606,150.16,290.772,150.16,288.289z M157.632,288.289
						c0-1.716-1.259-2.951-2.95-2.951c-1.691,0-2.951,1.235-2.951,2.951c0,1.715,1.26,2.95,2.951,2.95
						C156.373,291.239,157.632,290.004,157.632,288.289z"/>
					<path style="fill:#FAFAFA;" d="M160.864,284.091h3.67c2.723,0,4.581,1.679,4.581,4.198c0,2.518-1.859,4.197-4.581,4.197h-3.67
						V284.091z M164.462,291.167c1.871,0,3.082-1.14,3.082-2.878c0-1.739-1.211-2.879-3.082-2.879h-2.039v5.757H164.462z"/>
				</g>
			</g>
		</g>
		<g>
			<g>
				<path style="fill:#EBEBEB;" d="M440.88,367.79v13.7h-386v-13.7c0-2.38,1.66-4.3,4.04-4.3h377.92
					C439.22,363.49,440.88,365.41,440.88,367.79z"/>
			</g>
			<g>
				<g>
					<rect x="76.88" y="363.49" style="fill:#F5F5F5;" width="24" height="18"/>
				</g>
				<g>
					<rect x="122.88" y="363.49" style="fill:#F5F5F5;" width="23" height="18"/>
				</g>
				<g>
					<rect x="167.88" y="363.49" style="fill:#F5F5F5;" width="24" height="18"/>
				</g>
				<g>
					<rect x="213.88" y="363.49" style="fill:#F5F5F5;" width="23" height="18"/>
				</g>
				<g>
					<rect x="258.88" y="363.49" style="fill:#F5F5F5;" width="23" height="18"/>
				</g>
				<g>
					<rect x="303.88" y="363.49" style="fill:#F5F5F5;" width="24" height="18"/>
				</g>
				<g>
					<rect x="349.88" y="363.49" style="fill:#F5F5F5;" width="23" height="18"/>
				</g>
				<g>
					<rect x="394.88" y="363.49" style="fill:#F5F5F5;" width="24" height="18"/>
				</g>
			</g>
		</g>
		<g>
			
				<ellipse transform="matrix(0.9239 -0.3827 0.3827 0.9239 -36.4342 58.0528)" style="fill:#FAFAFA;" cx="127.709" cy="120.61" rx="27.787" ry="27.787"/>
		</g>
		<g>
			<path style="fill:#F0F0F0;" d="M113.294,120.297c0-2.668-2.163-4.83-4.83-4.83c-0.482,0-0.947,0.073-1.387,0.205
				c0.07-0.484,0.108-0.979,0.108-1.483c0-5.649-4.58-10.229-10.229-10.229c-0.644,0-1.273,0.063-1.884,0.176
				c-1.572-2.573-4.398-4.296-7.634-4.296c-4.898,0-8.871,3.935-8.944,8.816c-0.05-0.001-0.099-0.007-0.149-0.007
				c-4.551,0-8.24,3.689-8.24,8.24c0,4.551,3.689,8.24,8.24,8.24h30.261l-0.006-0.007
				C111.204,125.048,113.294,122.919,113.294,120.297z"/>
		</g>
		<g>
			<path style="fill:#F0F0F0;" d="M421.89,196.283c0-2.668-2.163-4.83-4.83-4.83c-0.482,0-0.947,0.073-1.387,0.204
				c0.07-0.484,0.108-0.979,0.108-1.483c0-5.649-4.58-10.229-10.229-10.229c-0.644,0-1.273,0.062-1.884,0.176
				c-1.572-2.573-4.398-4.296-7.634-4.296c-4.898,0-8.871,3.935-8.944,8.816c-0.05-0.001-0.099-0.008-0.149-0.008
				c-4.551,0-8.24,3.689-8.24,8.24c0,4.551,3.689,8.24,8.24,8.24h30.26l-0.006-0.007C419.8,201.034,421.89,198.905,421.89,196.283z"
				/>
		</g>
		<g>
			<path style="fill:#F0F0F0;" d="M260.03,138.57c0-4.221,3.422-7.643,7.643-7.643c0.763,0,1.499,0.115,2.195,0.324
				c-0.111-0.766-0.172-1.549-0.172-2.347c0-8.938,7.246-16.184,16.184-16.184c1.019,0,2.014,0.099,2.981,0.279
				c2.487-4.071,6.959-6.798,12.079-6.798c7.749,0,14.036,6.227,14.151,13.949c0.079-0.001,0.156-0.012,0.236-0.012
				c7.2,0,13.037,5.837,13.037,13.037c0,7.201-5.837,13.038-13.037,13.038h-47.879l0.01-0.011
				C263.337,146.087,260.03,142.718,260.03,138.57z"/>
		</g>
		<g>
			<path style="fill:#F0F0F0;" d="M122.794,204.178c0-5.079,4.118-9.197,9.197-9.197c0.919,0,1.804,0.139,2.641,0.389
				c-0.134-0.922-0.206-1.864-0.206-2.824c0-10.757,8.72-19.477,19.477-19.477c1.226,0,2.424,0.119,3.588,0.336
				c2.994-4.899,8.375-8.18,14.536-8.18c9.326,0,16.891,7.493,17.029,16.786c0.095-0.002,0.188-0.014,0.284-0.014
				c8.665,0,15.689,7.024,15.689,15.689c0,8.665-7.024,15.689-15.689,15.689h-57.618l0.012-0.013
				C126.774,213.224,122.794,209.17,122.794,204.178z"/>
		</g>
		<g>
			<path style="fill:#F0F0F0;" d="M173.903,134.768c0-1.659-1.345-3.003-3.003-3.003c-0.3,0-0.589,0.045-0.862,0.127
				c0.044-0.301,0.067-0.609,0.067-0.922c0-3.512-2.847-6.36-6.359-6.36c-0.4,0-0.792,0.039-1.171,0.11
				c-0.977-1.6-2.735-2.671-4.746-2.671c-3.045,0-5.515,2.447-5.56,5.481c-0.031-0.001-0.061-0.005-0.093-0.005
				c-2.829,0-5.123,2.294-5.123,5.123c0,2.829,2.294,5.123,5.123,5.123h18.813l-0.004-0.004
				C172.603,137.722,173.903,136.398,173.903,134.768z"/>
		</g>
		<g>
			<path style="fill:#F0F0F0;" d="M375.214,102.367c0-1.659,1.345-3.003,3.003-3.003c0.3,0,0.589,0.045,0.862,0.127
				c-0.044-0.301-0.067-0.609-0.067-0.922c0-3.512,2.847-6.359,6.359-6.359c0.4,0,0.792,0.039,1.171,0.109
				c0.977-1.6,2.735-2.671,4.746-2.671c3.045,0,5.515,2.447,5.56,5.481c0.031-0.001,0.061-0.005,0.093-0.005
				c2.829,0,5.123,2.294,5.123,5.123c0,2.829-2.293,5.123-5.123,5.123h-18.813l0.004-0.004
				C376.513,105.321,375.214,103.997,375.214,102.367z"/>
		</g>
	</g>
</g>
<g id="Background_Simple" style="display:none;">
	<g style="display:inline;">
		<path style="fill:#407BFF;" d="M253.237,94.742c-76.725,34.52-7.075,96.044-51.376,129.552s-164.75-5.229-118.833,81.781
			c53.935,102.206,290.123,88.013,341.048-37.349S329.962,60.222,253.237,94.742z"/>
		<path style="opacity:0.9;fill:#FFFFFF;" d="M253.237,94.742c-76.725,34.52-7.075,96.044-51.376,129.552
			s-164.75-5.229-118.833,81.781c53.935,102.206,290.123,88.013,341.048-37.349S329.962,60.222,253.237,94.742z"/>
	</g>
</g>
<g id="Shadow_1_">
	<ellipse id="_x3C_Path_x3E__359_" style="fill:#F5F5F5;" cx="250" cy="416.238" rx="193.889" ry="11.323"/>
</g>
<g id="Plant">
	<g>
		<path style="fill:#407BFF;" d="M95.849,394.445c0,0-4.75-10.364,0.677-20.581c5.427-10.217,7.001-12.624,3.541-14.717
			s-5.047,8.173-5.047,8.173s-2.916-7.063-0.508-14.454c2.408-7.392,3.918-19.431,0.63-20.722
			c-3.289-1.291-0.628,15.019-3.481,20.578c0,0-2.397-6.189-2.791-12.126c-0.394-5.937,0.222-15.417-2.375-17.849
			c-2.597-2.432-4.261-0.749-1.708,12.352c2.552,13.102,2.533,23.752,2.533,23.752s-5.637-17.186-9.42-17.688
			c-3.783-0.501-3.778,5.065-0.54,9.892c3.238,4.827,9.483,13.476,10.507,17.926c0,0-6.187-12.934-11.753-8.97
			c-5.566,3.964,4.844,11.776,9.484,14.599c4.64,2.823,7.862,20.518,7.862,20.518L95.849,394.445z"/>
		<path style="opacity:0.2;enable-background:new    ;" d="M95.849,394.445c0,0-4.75-10.364,0.677-20.581
			c5.427-10.217,7.001-12.624,3.541-14.717s-5.047,8.173-5.047,8.173s-2.916-7.063-0.508-14.454
			c2.408-7.392,3.918-19.431,0.63-20.722c-3.289-1.291-0.628,15.019-3.481,20.578c0,0-2.397-6.189-2.791-12.126
			c-0.394-5.937,0.222-15.417-2.375-17.849c-2.597-2.432-4.261-0.749-1.708,12.352c2.552,13.102,2.533,23.752,2.533,23.752
			s-5.637-17.186-9.42-17.688c-3.783-0.501-3.778,5.065-0.54,9.892c3.238,4.827,9.483,13.476,10.507,17.926
			c0,0-6.187-12.934-11.753-8.97c-5.566,3.964,4.844,11.776,9.484,14.599c4.64,2.823,7.862,20.518,7.862,20.518L95.849,394.445z"/>
		<path style="fill:#407BFF;" d="M92.099,398.695c0,0,4.625-10.434-0.924-20.569c-5.549-10.135-7.151-12.518-3.717-14.663
			c3.434-2.145,5.145,8.097,5.145,8.097s2.831-7.106,0.335-14.461c-2.497-7.355-4.151-19.371-0.878-20.711
			c3.273-1.34,0.808,15.008,3.728,20.525c0,0,2.322-6.224,2.645-12.167c0.323-5.942-0.406-15.412,2.161-17.883
			c2.567-2.47,4.251-0.813,1.856,12.326c-2.395,13.139-2.248,23.788-2.248,23.788s5.43-17.269,9.207-17.827
			c3.777-0.558,3.839,5.008,0.659,9.883c-3.18,4.876-9.321,13.616-10.292,18.081c0,0,6.032-13.025,11.644-9.144
			c5.613,3.881-4.703,11.847-9.308,14.739c-4.606,2.892-7.615,20.633-7.615,20.633L92.099,398.695z"/>
		<g>
			<polygon style="fill:#263238;" points="113.433,391.258 75.221,391.258 78.314,418.601 110.34,418.601 			"/>
		</g>
	</g>
</g>
<g id="Device">
	<g>
		<path style="fill:#263238;" d="M411.273,418.601H263.63c-5.551,0-10.052-4.5-10.052-10.051V126.939
			c0-5.551,4.5-10.051,10.052-10.051h147.643c5.551,0,10.052,4.5,10.052,10.052V408.55
			C421.325,414.101,416.825,418.601,411.273,418.601z"/>
		<g>
			<path style="fill:#407BFF;" d="M415.666,126.99v280.961c0,2.309-1.865,4.107-4.174,4.107H262.967c-2.126,0-3.73-1.643-3.73-3.768
				V126.661c0-1.845,1.353-3.45,3.189-3.45h37.134c1.053,0,2,0.676,2.396,1.672l1.536,3.778c0.386,0.986,1.343,1.652,2.387,1.652
				h63.223c1.044,0,2-0.647,2.387-1.623l1.536-3.807c0.396-0.986,1.343-1.672,2.396-1.672h36.602
				C414.043,123.212,415.666,124.97,415.666,126.99z"/>
			<path style="opacity:0.1;fill:#FFFFFF;" d="M407.569,123.212c-13.847,38.332-58.865,143.626-148.332,186.567V126.661
				c0-1.845,1.353-3.45,3.189-3.45h37.134c1.053,0,2,0.676,2.396,1.672l1.536,3.778c0.386,0.986,1.343,1.652,2.387,1.652h63.223
				c1.044,0,2-0.647,2.387-1.623l1.536-3.807c0.396-0.986,1.343-1.672,2.396-1.672H407.569z"/>
			<path style="opacity:0.1;fill:#FFFFFF;" d="M415.666,260.953v146.998c0,2.309-1.865,4.107-4.174,4.107H262.967
				c-2.126,0-3.73-1.643-3.73-3.768v-66.808C300.565,287.081,371.585,267.804,415.666,260.953z"/>
		</g>
		<g>
			<path style="opacity:0.6;fill:#FFFFFF;enable-background:new    ;" d="M337.426,123.578c0,1.186-0.961,2.147-2.147,2.147
				s-2.147-0.961-2.147-2.147s0.961-2.147,2.147-2.147S337.426,122.393,337.426,123.578z"/>
			<path style="opacity:0.6;fill:#FFFFFF;enable-background:new    ;" d="M341.772,123.578c0,0.76-0.616,1.375-1.375,1.375
				c-0.76,0-1.376-0.616-1.376-1.375c0-0.76,0.616-1.375,1.376-1.375C341.156,122.203,341.772,122.819,341.772,123.578z"/>
		</g>
		<g>
			<rect x="260.706" y="141.191" style="opacity:0.5;fill:#FFFFFF;" width="151.912" height="257.761"/>
			<rect x="264.825" y="171.837" style="fill:#FFFFFF;" width="143.675" height="36.997"/>
			<rect x="264.825" y="210.862" style="fill:#FFFFFF;" width="143.675" height="36.997"/>
			<rect x="264.825" y="146.662" style="fill:#407BFF;" width="143.675" height="22.147"/>
			<g>
				<g style="opacity:0.5;">
					<path d="M313.228,194.344l-1.643-2.219l-1.655,2.219h-1.655l2.495-3.25l-2.387-3.154h1.667l1.571,2.099l1.571-2.099h1.619
						l-2.399,3.13l2.507,3.274H313.228z"/>
					<path d="M321.711,193.024v1.319h-6.188V193.3l3.334-3.166c0.815-0.78,0.959-1.271,0.959-1.739c0-0.768-0.528-1.211-1.559-1.211
						c-0.815,0-1.499,0.276-1.967,0.876l-1.091-0.839c0.647-0.876,1.811-1.391,3.19-1.391c1.823,0,2.999,0.923,2.999,2.411
						c0,0.815-0.228,1.559-1.392,2.65l-2.243,2.135H321.711z"/>
				</g>
				<g>
					<path style="fill:#407BFF;" d="M378.638,190.834c0,3.69-2.992,6.682-6.682,6.682c-3.69,0-6.682-2.992-6.682-6.682
						c0-3.69,2.992-6.682,6.682-6.682C375.646,184.152,378.638,187.144,378.638,190.834z"/>
					<g>
						<line style="fill:none;stroke:#FFFFFF;stroke-miterlimit:10;" x1="371.956" y1="187.097" x2="371.956" y2="194.572"/>
						<line style="fill:none;stroke:#FFFFFF;stroke-miterlimit:10;" x1="375.693" y1="190.834" x2="368.218" y2="190.834"/>
					</g>
					<path style="fill:#407BFF;" d="M398.65,190.834c0,3.69-2.992,6.682-6.682,6.682c-3.69,0-6.682-2.992-6.682-6.682
						c0-3.69,2.992-6.682,6.682-6.682C395.659,184.152,398.65,187.144,398.65,190.834z"/>
					<g>
						<line style="fill:#407BFF;stroke:#FFFFFF;stroke-miterlimit:10;" x1="395.706" y1="190.834" x2="388.231" y2="190.834"/>
					</g>
				</g>
				<g>
					<path style="fill:#407BFF;" d="M276.903,196.969c0,0-0.863,0.313-1.21,0.596c-0.346,0.283-0.276,2.405,0.219,2.794
						c0.495,0.389,5.871,1.309,8.665,1.096c2.794-0.212,5.552-0.008,8.559,0.031c3.006,0.039,8.735-0.456,9.089-1.092
						s0.408-2.164,0-2.62c-0.408-0.457-2.617-1.705-4.456-1.452C295.93,196.575,276.903,196.969,276.903,196.969z"/>
					<path style="opacity:0.3;fill:#FFFFFF;enable-background:new    ;" d="M276.903,196.969c0,0-0.863,0.313-1.21,0.596
						c-0.346,0.283-0.276,2.405,0.219,2.794c0.495,0.389,5.871,1.309,8.665,1.096c2.794-0.212,5.552-0.008,8.559,0.031
						c3.006,0.039,8.735-0.456,9.089-1.092s0.408-2.164,0-2.62c-0.408-0.457-2.617-1.705-4.456-1.452
						C295.93,196.575,276.903,196.969,276.903,196.969z"/>
					<g>
						<path style="fill:#263238;" d="M276.655,195.193c-0.081,0.537-0.283,1.736,0,2.018s2.334,0.99,5.199,0.707
							c2.865-0.283,2.582-0.212,5.906-0.212c3.324,0,4.704,0.141,5.376,0.035c0.672-0.106,1.592-0.212,2.794-0.283
							c1.202-0.071,2.9-0.212,3.36-0.212s0.707,0.318,1.309-0.035c0.601-0.354,1.218-0.623,1.218-0.623s-0.051-0.721-0.263-0.827
							c-0.212-0.106-0.354,0.003-0.389-0.246c-0.035-0.249,0.035-0.178-0.141-0.408c-0.177-0.23-0.424-0.531-0.424-0.531
							L276.655,195.193z"/>
						<path style="opacity:0.2;fill:#FFFFFF;enable-background:new    ;" d="M276.655,195.193c-0.081,0.537-0.283,1.736,0,2.018
							s2.334,0.99,5.199,0.707c2.865-0.283,2.582-0.212,5.906-0.212c3.324,0,4.704,0.141,5.376,0.035
							c0.672-0.106,1.592-0.212,2.794-0.283c1.202-0.071,2.9-0.212,3.36-0.212s0.707,0.318,1.309-0.035
							c0.601-0.354,1.218-0.623,1.218-0.623s-0.051-0.721-0.263-0.827c-0.212-0.106-0.354,0.003-0.389-0.246
							c-0.035-0.249,0.035-0.178-0.141-0.408c-0.177-0.23-0.424-0.531-0.424-0.531L276.655,195.193z"/>
					</g>
					<path style="fill:#407BFF;" d="M286.24,195.582c1.485,0.498,2.193,0.568,3.289,0.533c1.096-0.035,1.627-0.055,2.476,0.008
						c0.849,0.063,0.53-0.301,1.485,0.199c0.955,0.5,0.92,1.031,2.44,0.253c1.521-0.778,1.698-0.849,2.334-0.849
						s0.854,0.067,1.399-0.143c0.546-0.21,2.153-0.741,2.153-0.741s0.055-0.743-1.324-0.778c-1.379-0.035-15.986,0.424-16.41,0.778
						C283.658,195.196,286.24,195.582,286.24,195.582z"/>
					<path style="opacity:0.2;enable-background:new    ;" d="M286.24,195.582c1.485,0.498,2.193,0.568,3.289,0.533
						c1.096-0.035,1.627-0.055,2.476,0.008c0.849,0.063,0.53-0.301,1.485,0.199c0.955,0.5,0.92,1.031,2.44,0.253
						c1.521-0.778,1.698-0.849,2.334-0.849s0.854,0.067,1.399-0.143c0.546-0.21,2.153-0.741,2.153-0.741s0.055-0.743-1.324-0.778
						c-1.379-0.035-15.986,0.424-16.41,0.778C283.658,195.196,286.24,195.582,286.24,195.582z"/>
					<path style="fill:#407BFF;" d="M278.105,194.064c0,0-2.334,0.354-2.405,0.778c-0.071,0.424,0.385,0.455,0.723,0.74
						c0.338,0.285,0.476,0.639,0.476,0.639s0.923-0.672,1.737-0.283c0.813,0.389,1.202,0.424,1.415,0.283
						c0.212-0.141,0.679,0.187,1.383,0.076c0.704-0.111,0.775-0.019,1.234,0.023c0.46,0.042,1.132-0.812,1.521-0.739
						c0.389,0.073,2.193-0.74,2.193-0.74L278.105,194.064z"/>
					<path style="fill:#263238;" d="M276.549,190.766c0,0-0.283,0.532,0,1.588c0.283,1.056,0,2.336,0,2.336s1.91-0.426,3.82,0
						c1.91,0.426,2.334,1.194,4.173,0.768c1.839-0.426,1.273-0.426,2.688-0.426c1.415,0,3.324-0.597,5.022-0.341
						c1.698,0.256,3.835-0.256,3.898,0s3.317,0,3.317,0s1.556-0.341,1.556-0.682s-0.212-3.897-0.212-3.897L276.549,190.766z"/>
					<path style="fill:#407BFF;" d="M281.433,193.852c0,0,7.141-0.283,8.095-0.283c0.955,0,1.768,0.141,3.395,0.141
						c1.627,0,1.91,0.283,3.501,0.141c1.592-0.141,3.006,0.04,3.218-0.122c0.212-0.161-1.309,0.263-1.98,0.334
						c-0.672,0.071-1.309,0.354-1.874,0.212c-0.566-0.141-1.309-0.283-1.415-0.212c-0.106,0.071-0.99,0.007-1.203,0.251
						c-0.212,0.244-0.283,1.3-0.389,1.267c-0.106-0.033-0.389-0.671-1.238-1.006c-0.849-0.335-2.176-0.83-2.361-0.512
						c-0.185,0.318-1.388,0.104-1.777,0.512c-0.389,0.408-1.118,0.615-1.308,0.617C285.908,195.196,281.433,193.852,281.433,193.852
						z"/>
					<g>
						<path style="fill:#263238;" d="M276.328,190.678c-0.081,0.537-0.283,1.736,0,2.019c0.283,0.283,2.334,0.99,5.199,0.707
							c2.865-0.283,2.582-0.212,5.906-0.212c3.324,0,4.704,0.141,5.376,0.035c0.672-0.106,1.591-0.212,2.794-0.283
							c1.202-0.071,2.9-0.212,3.36-0.212c0.46,0,0.707,0.318,1.309-0.035s1.218-0.623,1.218-0.623s-0.051-0.721-0.263-0.827
							c-0.212-0.106-0.354,0.003-0.389-0.246c-0.035-0.249,0.035-0.178-0.141-0.408c-0.177-0.23-0.424-0.531-0.424-0.531
							L276.328,190.678z"/>
						<path style="opacity:0.2;fill:#FFFFFF;enable-background:new    ;" d="M276.328,190.678c-0.081,0.537-0.283,1.736,0,2.019
							c0.283,0.283,2.334,0.99,5.199,0.707c2.865-0.283,2.582-0.212,5.906-0.212c3.324,0,4.704,0.141,5.376,0.035
							c0.672-0.106,1.591-0.212,2.794-0.283c1.202-0.071,2.9-0.212,3.36-0.212c0.46,0,0.707,0.318,1.309-0.035
							s1.218-0.623,1.218-0.623s-0.051-0.721-0.263-0.827c-0.212-0.106-0.354,0.003-0.389-0.246
							c-0.035-0.249,0.035-0.178-0.141-0.408c-0.177-0.23-0.424-0.531-0.424-0.531L276.328,190.678z"/>
					</g>
					<g>
						<polygon style="fill:#407BFF;" points="283.767,189.426 292.818,194.842 300.598,189.183 						"/>
						<polygon style="opacity:0.6;fill:#FFFFFF;enable-background:new    ;" points="283.767,189.426 292.818,194.842 
							300.598,189.183 						"/>
					</g>
					<g>
						<polygon style="fill:#407BFF;" points="275.693,189.289 278.636,194.241 290.731,189.537 						"/>
						<polygon style="opacity:0.6;fill:#FFFFFF;enable-background:new    ;" points="275.693,189.289 278.636,194.241 
							290.731,189.537 						"/>
					</g>
					<path style="fill:#407BFF;" d="M276.337,189.608c0,0-1.556,1.485-1.061,1.91c0.495,0.424-0.097,1.061-0.097,1.061
						s1.653-0.566,2.927,0c1.273,0.566,3.324,0.283,4.244,0c0.919-0.283,2.971-0.354,3.678-0.849
						c0.707-0.495,2.193-2.546,2.193-2.546L276.337,189.608z"/>
					<path style="fill:#407BFF;" d="M290.483,189.183c0,0,2.476,2.617,4.315,2.829c1.839,0.212,2.051-0.212,4.173,0
						c2.122,0.212,2.334,0.83,2.688,0.061c0.354-0.769,0-3.244,0-3.244L290.483,189.183z"/>
					<path style="opacity:0.2;enable-background:new    ;" d="M276.337,189.608c0,0-1.556,1.485-1.061,1.91
						c0.495,0.424-0.097,1.061-0.097,1.061s1.653-0.566,2.927,0c1.273,0.566,3.324,0.283,4.244,0
						c0.919-0.283,2.971-0.354,3.678-0.849c0.707-0.495,2.193-2.546,2.193-2.546L276.337,189.608z"/>
					<path style="opacity:0.2;enable-background:new    ;" d="M290.483,189.183c0,0,2.476,2.617,4.315,2.829
						c1.839,0.212,2.051-0.212,4.173,0c2.122,0.212,2.334,0.83,2.688,0.061c0.354-0.769,0-3.244,0-3.244L290.483,189.183z"/>
					<g>
						<path style="fill:#407BFF;" d="M276.054,196.969c0,0,1.415-0.465,1.804-0.323c0.389,0.141,4.909,0.566,5.354,0.566
							s1.259-0.283,2.143,0c0.884,0.283,0.778,0.495,2.051,0.248c1.273-0.248,1.592-0.377,2.264-0.366s0.813-0.189,1.309,0
							c0.495,0.189,1.379,0.33,2.193,0.33c0.814,0,0.757,0.466,1.953,0.091c1.195-0.374,1.443-0.576,2.115-0.546
							c0.672,0.03,1.521-0.066,1.839,0c0.318,0.066,0.127-0.134,0.92,0c0.793,0.134,1.241-0.105,1.241-0.105
							s0.347,0.312,0.579,0.453c0.232,0.142-1.077,0.262-1.537,0.343c-0.46,0.081,0.141,0.071-1.026,0.324
							c-1.167,0.253-0.814,0.43-1.698,0.394c-0.884-0.035-0.798,0.08-1.407,0.005s-0.397,0.304-1.529,0.026
							c-1.132-0.278-2.26-0.465-2.439-0.425c-0.179,0.04,0.564-0.101-0.532,0.182c-1.096,0.283-0.318,0.056-1.698,0.346
							c-1.379,0.29-1.132,0.609-1.98,0.255c-0.849-0.354-0.99-0.424-1.415-0.318c-0.424,0.106-0.071,0.106-0.672,0.141
							s-0.354-0.035-1.026,0.035c-0.672,0.071-2.051,0.347-2.723,0.298c-0.672-0.05-1.591-0.404-2.051-0.404
							c-0.46,0-0.955-0.212-1.662-0.318c-0.707-0.106-1.203-0.046-1.415-0.217C276.797,197.813,276.054,196.969,276.054,196.969z"/>
						<path style="opacity:0.2;enable-background:new    ;" d="M276.054,196.969c0,0,1.415-0.465,1.804-0.323
							c0.389,0.141,4.909,0.566,5.354,0.566s1.259-0.283,2.143,0c0.884,0.283,0.778,0.495,2.051,0.248
							c1.273-0.248,1.592-0.377,2.264-0.366s0.813-0.189,1.309,0c0.495,0.189,1.379,0.33,2.193,0.33
							c0.814,0,0.757,0.466,1.953,0.091c1.195-0.374,1.443-0.576,2.115-0.546c0.672,0.03,1.521-0.066,1.839,0
							c0.318,0.066,0.127-0.134,0.92,0c0.793,0.134,1.241-0.105,1.241-0.105s0.347,0.312,0.579,0.453
							c0.232,0.142-1.077,0.262-1.537,0.343c-0.46,0.081,0.141,0.071-1.026,0.324c-1.167,0.253-0.814,0.43-1.698,0.394
							c-0.884-0.035-0.798,0.08-1.407,0.005s-0.397,0.304-1.529,0.026c-1.132-0.278-2.26-0.465-2.439-0.425
							c-0.179,0.04,0.564-0.101-0.532,0.182c-1.096,0.283-0.318,0.056-1.698,0.346c-1.379,0.29-1.132,0.609-1.98,0.255
							c-0.849-0.354-0.99-0.424-1.415-0.318c-0.424,0.106-0.071,0.106-0.672,0.141s-0.354-0.035-1.026,0.035
							c-0.672,0.071-2.051,0.347-2.723,0.298c-0.672-0.05-1.591-0.404-2.051-0.404c-0.46,0-0.955-0.212-1.662-0.318
							c-0.707-0.106-1.203-0.046-1.415-0.217C276.797,197.813,276.054,196.969,276.054,196.969z"/>
					</g>
					<path style="fill:#407BFF;" d="M302.773,190.315c0.382-0.186,0.16-0.834,0.16-1.265c0-4.899-6.318-8.871-14.111-8.871
						s-14.111,3.972-14.111,8.871c0,0.43-0.148,0.972,0.159,1.265c1.057,1.005,7.389-0.128,13.966-0.212
						C294.91,190.025,301.239,191.063,302.773,190.315z"/>
					<path style="opacity:0.3;fill:#FFFFFF;enable-background:new    ;" d="M302.773,190.315c0.382-0.186,0.16-0.834,0.16-1.265
						c0-4.899-6.318-8.871-14.111-8.871s-14.111,3.972-14.111,8.871c0,0.43-0.148,0.972,0.159,1.265
						c1.057,1.005,7.389-0.128,13.966-0.212C294.91,190.025,301.239,191.063,302.773,190.315z"/>
					<path style="fill:#407BFF;" d="M288.836,181.827c0,0,0.333,0.743,0,0.743S288.836,181.827,288.836,181.827z"/>
					<path style="fill:#407BFF;" d="M292.926,181.827c0,0,1.413,0.212,1.2,0.371C293.914,182.358,292.926,181.827,292.926,181.827z"
						/>
					<path style="fill:#407BFF;" d="M285.303,181.827c0,0-0.832,0.537-1.044,0.401C284.047,182.092,285.303,181.827,285.303,181.827
						z"/>
				</g>
			</g>
			<g>
				<g style="opacity:0.5;">
					<path d="M310.766,233.067l-1.643-2.219l-1.655,2.219h-1.655l2.495-3.251l-2.387-3.154h1.667l1.571,2.099l1.571-2.099h1.619
						l-2.399,3.13l2.507,3.275H310.766z"/>
					<path d="M316.131,224.671v8.396h-1.559v-7.088h-1.775v-1.308H316.131z"/>
				</g>
				<g>
					<path style="fill:#407BFF;" d="M376.176,229.557c0,3.69-2.992,6.682-6.682,6.682c-3.69,0-6.682-2.992-6.682-6.682
						c0-3.69,2.992-6.682,6.682-6.682C373.185,222.876,376.176,225.867,376.176,229.557z"/>
					<g>
						<line style="fill:none;stroke:#FFFFFF;stroke-miterlimit:10;" x1="369.494" y1="225.82" x2="369.494" y2="233.295"/>
						<line style="fill:none;stroke:#FFFFFF;stroke-miterlimit:10;" x1="373.232" y1="229.557" x2="365.757" y2="229.557"/>
					</g>
					<path style="fill:#407BFF;" d="M396.189,229.557c0,3.69-2.992,6.682-6.682,6.682c-3.69,0-6.682-2.992-6.682-6.682
						c0-3.69,2.992-6.682,6.682-6.682C393.197,222.876,396.189,225.867,396.189,229.557z"/>
					<g>
						<line style="fill:#407BFF;stroke:#FFFFFF;stroke-miterlimit:10;" x1="393.244" y1="229.557" x2="385.77" y2="229.557"/>
					</g>
				</g>
				<g>
					<path style="fill:#407BFF;" d="M289.167,217.894h-5.585c-3.116,1.127-5.358,4.076-5.427,7.565h16.439
						C294.525,221.97,292.282,219.022,289.167,217.894z"/>
					<path style="opacity:0.6;fill:#FFFFFF;enable-background:new    ;" d="M289.167,217.894h-5.585
						c-3.116,1.127-5.358,4.076-5.427,7.565h16.439C294.525,221.97,292.282,219.022,289.167,217.894z"/>
					
						<rect x="285.699" y="213.333" transform="matrix(0.9841 -0.1774 0.1774 0.9841 -34.8926 54.305)" style="opacity:0.2;" width="1.167" height="17.948"/>
					<polygon style="fill:#407BFF;" points="293.345,243.742 294.844,225.621 277.905,225.621 279.403,243.742 					"/>
					<polygon style="fill:#407BFF;" points="295.612,226.828 277.136,226.828 277.453,224.172 295.295,224.172 					"/>
					<polygon style="opacity:0.4;fill:#FFFFFF;enable-background:new    ;" points="295.612,226.828 277.136,226.828 
						277.453,224.172 295.295,224.172 					"/>
				</g>
			</g>
			<rect x="264.825" y="251.728" style="fill:#407BFF;" width="143.675" height="22.147"/>
			<g>
				<path style="fill:#FFFFFF;" d="M316.769,260.853c0,1.848-1.368,2.986-3.574,2.986h-1.895v2.423h-1.559v-8.396h3.454
					C315.401,257.867,316.769,258.995,316.769,260.853z M315.197,260.853c0-1.055-0.708-1.667-2.075-1.667h-1.823v3.334h1.823
					C314.49,262.521,315.197,261.909,315.197,260.853z"/>
				<path style="fill:#FFFFFF;" d="M323.489,262.509v3.754h-1.416v-0.779c-0.36,0.552-1.055,0.863-2.015,0.863
					c-1.463,0-2.387-0.804-2.387-1.919c0-1.067,0.719-1.907,2.663-1.907h1.655v-0.096c0-0.875-0.528-1.391-1.595-1.391
					c-0.719,0-1.463,0.239-1.943,0.636l-0.587-1.092c0.684-0.527,1.679-0.792,2.71-0.792
					C322.422,259.786,323.489,260.662,323.489,262.509z M321.99,264.26v-0.743h-1.547c-1.02,0-1.295,0.384-1.295,0.852
					c0,0.539,0.456,0.888,1.223,0.888C321.103,265.256,321.738,264.92,321.99,264.26z"/>
				<path style="fill:#FFFFFF;" d="M331.289,259.858l-2.998,6.92c-0.588,1.451-1.403,1.896-2.471,1.896
					c-0.636,0-1.307-0.216-1.715-0.588l0.6-1.104c0.288,0.276,0.695,0.444,1.103,0.444c0.528,0,0.84-0.252,1.128-0.888l0.108-0.252
					l-2.794-6.429h1.559l2.015,4.737l2.027-4.737H331.289z"/>
				<path style="fill:#FFFFFF;" d="M342.938,262.593v3.67h-1.499v-3.478c0-1.14-0.528-1.691-1.439-1.691
					c-0.983,0-1.668,0.647-1.668,1.919v3.25h-1.499v-3.478c0-1.14-0.528-1.691-1.439-1.691c-0.996,0-1.667,0.647-1.667,1.919v3.25
					h-1.499v-6.404h1.427v0.815c0.48-0.575,1.223-0.888,2.099-0.888c0.936,0,1.715,0.349,2.159,1.067
					c0.516-0.659,1.379-1.067,2.398-1.067C341.859,259.786,342.938,260.662,342.938,262.593z"/>
				<path style="fill:#FFFFFF;" d="M350.92,263.54h-5.025c0.18,0.936,0.96,1.535,2.075,1.535c0.72,0,1.283-0.228,1.739-0.695
					l0.803,0.924c-0.576,0.684-1.475,1.043-2.579,1.043c-2.147,0-3.538-1.379-3.538-3.286c0-1.907,1.403-3.274,3.311-3.274
					c1.871,0,3.238,1.308,3.238,3.311C350.944,263.217,350.933,263.397,350.92,263.54z M345.883,262.545h3.634
					c-0.12-0.924-0.828-1.559-1.811-1.559C346.735,260.985,346.027,261.609,345.883,262.545z"/>
				<path style="fill:#FFFFFF;" d="M358.696,262.593v3.67h-1.499v-3.478c0-1.14-0.564-1.691-1.523-1.691
					c-1.067,0-1.787,0.647-1.787,1.931v3.238h-1.499v-6.404h1.427v0.827c0.492-0.587,1.271-0.899,2.207-0.899
					C357.557,259.786,358.696,260.662,358.696,262.593z"/>
				<path style="fill:#FFFFFF;" d="M364.458,265.915c-0.36,0.288-0.899,0.432-1.439,0.432c-1.403,0-2.207-0.743-2.207-2.158v-3.083
					h-1.056v-1.199h1.056v-1.463h1.499v1.463h1.715v1.199h-1.715v3.047c0,0.623,0.312,0.959,0.888,0.959
					c0.312,0,0.611-0.084,0.839-0.264L364.458,265.915z"/>
			</g>
			<rect x="264.825" y="276.903" style="fill:#FFFFFF;" width="143.675" height="41.108"/>
			<g>
				<g style="opacity:0.5;">
					<g>
						<path d="M337.743,297.61l1.367,0.755l-0.468,0.815l-1.391-0.815l0.012,1.548h-0.911l0.012-1.535l-1.379,0.803l-0.479-0.815
							l1.379-0.755l-1.379-0.756l0.479-0.828l1.379,0.816l-0.012-1.535h0.911l-0.012,1.547l1.391-0.828l0.468,0.828L337.743,297.61z
							"/>
						<path d="M342.975,297.61l1.367,0.755l-0.468,0.815l-1.391-0.815l0.012,1.548h-0.911l0.012-1.535l-1.379,0.803l-0.48-0.815
							l1.379-0.755l-1.379-0.756l0.48-0.828l1.379,0.816l-0.012-1.535h0.911l-0.012,1.547l1.391-0.828l0.468,0.828L342.975,297.61z"
							/>
						<path d="M348.206,297.61l1.367,0.755l-0.468,0.815l-1.391-0.815l0.012,1.548h-0.911l0.012-1.535l-1.379,0.803l-0.48-0.815
							l1.379-0.755l-1.379-0.756l0.48-0.828l1.379,0.816l-0.012-1.535h0.911l-0.012,1.547l1.391-0.828l0.468,0.828L348.206,297.61z"
							/>
						<path d="M353.438,297.61l1.367,0.755l-0.468,0.815l-1.391-0.815l0.012,1.548h-0.911l0.012-1.535l-1.379,0.803l-0.48-0.815
							l1.379-0.755l-1.379-0.756l0.48-0.828l1.379,0.816l-0.012-1.535h0.911l-0.012,1.547l1.391-0.828l0.468,0.828L353.438,297.61z"
							/>
						<path d="M361.741,297.61l1.367,0.755l-0.468,0.815l-1.391-0.815l0.012,1.548h-0.911l0.012-1.535l-1.379,0.803l-0.48-0.815
							l1.379-0.755l-1.379-0.756l0.48-0.828l1.379,0.816l-0.012-1.535h0.911l-0.012,1.547l1.391-0.828l0.468,0.828L361.741,297.61z"
							/>
						<path d="M366.973,297.61l1.367,0.755l-0.468,0.815l-1.391-0.815l0.012,1.548h-0.911l0.012-1.535l-1.379,0.803l-0.479-0.815
							l1.379-0.755l-1.379-0.756l0.479-0.828l1.379,0.816l-0.012-1.535h0.911l-0.012,1.547l1.391-0.828l0.468,0.828L366.973,297.61z
							"/>
						<path d="M372.205,297.61l1.367,0.755l-0.468,0.815l-1.391-0.815l0.012,1.548h-0.911l0.012-1.535l-1.379,0.803l-0.479-0.815
							l1.379-0.755l-1.379-0.756l0.479-0.828l1.379,0.816l-0.012-1.535h0.911l-0.012,1.547l1.391-0.828l0.468,0.828L372.205,297.61z
							"/>
						<path d="M377.436,297.61l1.367,0.755l-0.468,0.815l-1.391-0.815l0.012,1.548h-0.911l0.012-1.535l-1.379,0.803l-0.48-0.815
							l1.379-0.755l-1.379-0.756l0.48-0.828l1.379,0.816l-0.012-1.535h0.911l-0.012,1.547l1.391-0.828l0.468,0.828L377.436,297.61z"
							/>
						<path d="M385.74,297.61l1.367,0.755l-0.468,0.815l-1.391-0.815l0.012,1.548h-0.911l0.012-1.535l-1.379,0.803l-0.48-0.815
							l1.379-0.755l-1.379-0.756l0.48-0.828l1.379,0.816l-0.012-1.535h0.911l-0.012,1.547l1.391-0.828l0.468,0.828L385.74,297.61z"
							/>
						<path d="M390.972,297.61l1.367,0.755l-0.468,0.815l-1.391-0.815l0.012,1.548h-0.911l0.012-1.535l-1.379,0.803l-0.48-0.815
							l1.379-0.755l-1.379-0.756l0.48-0.828l1.379,0.816l-0.012-1.535h0.911l-0.012,1.547l1.391-0.828l0.468,0.828L390.972,297.61z"
							/>
						<path d="M396.204,297.61l1.367,0.755l-0.468,0.815l-1.391-0.815l0.012,1.548h-0.911l0.012-1.535l-1.379,0.803l-0.479-0.815
							l1.379-0.755l-1.379-0.756l0.479-0.828l1.379,0.816l-0.012-1.535h0.911l-0.012,1.547l1.391-0.828l0.468,0.828L396.204,297.61z
							"/>
					</g>
				</g>
				<g>
					<path style="fill:#407BFF;" d="M298.678,306.257h-20.393c-1.505,0-2.725-1.22-2.725-2.725v-11.675
						c0-1.505,1.22-2.725,2.725-2.725h20.393c1.505,0,2.725,1.22,2.725,2.725v11.675
						C301.403,305.037,300.183,306.257,298.678,306.257z"/>
					<g style="opacity:0.5;">
						<rect x="275.56" y="298.364" width="25.844" height="4.272"/>
					</g>
					<g style="opacity:0.5;">
						<path d="M299.325,295.312c0,0.71-0.576,1.286-1.286,1.286s-1.286-0.576-1.286-1.286c0-0.71,0.576-1.286,1.286-1.286
							S299.325,294.602,299.325,295.312z"/>
					</g>
					<path style="fill:#FFFFFF;" d="M297.643,295.312c0,0.71-0.576,1.286-1.286,1.286c-0.71,0-1.286-0.576-1.286-1.286
						c0-0.71,0.576-1.286,1.286-1.286C297.068,294.026,297.643,294.602,297.643,295.312z"/>
				</g>
			</g>
			<path style="fill:#407BFF;" d="M369,370.307h-64.675c-8.096,0-14.659-6.563-14.659-14.659v0c0-8.096,6.563-14.659,14.659-14.659
				H369c8.096,0,14.659,6.563,14.659,14.659v0C383.659,363.744,377.096,370.307,369,370.307z"/>
			<g>
				<path style="fill:#FFFFFF;" d="M307.591,354.745c0-3.244,2.507-5.642,5.908-5.642c3.401,0,5.908,2.382,5.908,5.642
					c0,3.259-2.507,5.641-5.908,5.641C310.098,360.386,307.591,357.988,307.591,354.745z M317.354,354.745
					c0-2.241-1.646-3.855-3.855-3.855c-2.209,0-3.855,1.614-3.855,3.855c0,2.24,1.646,3.855,3.855,3.855
					C315.708,358.6,317.354,356.985,317.354,354.745z"/>
				<path style="fill:#FFFFFF;" d="M328.741,360.229l-2.241-3.213c-0.141,0.016-0.282,0.016-0.423,0.016h-2.476v3.197h-2.037v-10.97
					h4.513c2.883,0,4.67,1.474,4.67,3.902c0,1.661-0.846,2.883-2.335,3.463l2.523,3.604H328.741z M325.982,350.983h-2.382v4.372
					h2.382c1.787,0,2.711-0.815,2.711-2.193C328.693,351.783,327.769,350.983,325.982,350.983z"/>
				<path style="fill:#FFFFFF;" d="M333.013,349.26h4.795c3.558,0,5.986,2.194,5.986,5.485c0,3.29-2.429,5.484-5.986,5.484h-4.795
					V349.26z M337.714,358.506c2.445,0,4.027-1.489,4.027-3.761c0-2.272-1.582-3.762-4.027-3.762h-2.664v7.522H337.714z"/>
				<path style="fill:#FFFFFF;" d="M354.179,358.522v1.708h-8.227v-10.97h8.008v1.708h-5.971v2.853h5.297v1.677h-5.297v3.024
					H354.179z"/>
				<path style="fill:#FFFFFF;" d="M363.624,360.229l-2.241-3.213c-0.141,0.016-0.282,0.016-0.423,0.016h-2.476v3.197h-2.037v-10.97
					h4.513c2.883,0,4.67,1.474,4.67,3.902c0,1.661-0.846,2.883-2.335,3.463l2.523,3.604H363.624z M360.865,350.983h-2.382v4.372
					h2.382c1.787,0,2.711-0.815,2.711-2.193C363.576,351.783,362.652,350.983,360.865,350.983z"/>
			</g>
			<g>
				<path style="fill:#FFFFFF;" d="M316.358,152.801h3.67c2.723,0,4.582,1.679,4.582,4.198c0,2.519-1.859,4.198-4.582,4.198h-3.67
					V152.801z M319.957,159.877c1.871,0,3.082-1.139,3.082-2.878c0-1.739-1.212-2.878-3.082-2.878h-2.039v5.757H319.957z"/>
				<path style="fill:#FFFFFF;" d="M332.123,158.474h-5.025c0.18,0.936,0.959,1.535,2.075,1.535c0.72,0,1.283-0.228,1.739-0.695
					l0.803,0.923c-0.576,0.684-1.475,1.044-2.579,1.044c-2.147,0-3.538-1.379-3.538-3.286c0-1.907,1.403-3.274,3.311-3.274
					c1.871,0,3.238,1.308,3.238,3.311C332.147,158.15,332.135,158.331,332.123,158.474z M327.085,157.479h3.634
					c-0.12-0.924-0.828-1.56-1.811-1.56C327.937,155.919,327.229,156.544,327.085,157.479z"/>
				<path style="fill:#FFFFFF;" d="M337.44,160.849c-0.36,0.288-0.899,0.432-1.439,0.432c-1.403,0-2.207-0.744-2.207-2.159v-3.083
					h-1.056v-1.199h1.056v-1.463h1.499v1.463h1.715v1.199h-1.715v3.046c0,0.624,0.312,0.959,0.888,0.959
					c0.311,0,0.611-0.084,0.839-0.264L337.44,160.849z"/>
				<path style="fill:#FFFFFF;" d="M344.04,157.443v3.754h-1.416v-0.78c-0.36,0.552-1.055,0.864-2.015,0.864
					c-1.463,0-2.387-0.804-2.387-1.919c0-1.067,0.72-1.907,2.663-1.907h1.655v-0.096c0-0.876-0.527-1.391-1.595-1.391
					c-0.719,0-1.463,0.24-1.943,0.636l-0.587-1.092c0.684-0.527,1.679-0.792,2.71-0.792
					C342.972,154.72,344.04,155.596,344.04,157.443z M342.54,159.194v-0.744h-1.547c-1.02,0-1.295,0.384-1.295,0.852
					c0,0.539,0.455,0.888,1.223,0.888C341.653,160.189,342.288,159.854,342.54,159.194z"/>
				<path style="fill:#FFFFFF;" d="M345.758,152.837c0-0.504,0.408-0.899,0.96-0.899c0.551,0,0.959,0.372,0.959,0.863
					c0,0.528-0.396,0.936-0.959,0.936C346.166,153.737,345.758,153.341,345.758,152.837z M345.962,154.792h1.499v6.404h-1.499
					V154.792z"/>
				<path style="fill:#FFFFFF;" d="M349.43,152.298h1.499v8.899h-1.499V152.298z"/>
				<path style="fill:#FFFFFF;" d="M352.166,160.561l0.576-1.139c0.564,0.372,1.427,0.636,2.23,0.636
					c0.948,0,1.343-0.264,1.343-0.708c0-1.223-3.957-0.072-3.957-2.626c0-1.211,1.091-2.003,2.818-2.003
					c0.852,0,1.823,0.204,2.399,0.552l-0.576,1.14c-0.611-0.36-1.223-0.48-1.835-0.48c-0.911,0-1.343,0.3-1.343,0.72
					c0,1.295,3.958,0.144,3.958,2.65c0,1.199-1.104,1.979-2.902,1.979C353.809,161.281,352.742,160.969,352.166,160.561z"/>
			</g>
		</g>
		<g>
			<g>
				
					<rect x="276.478" y="131.955" transform="matrix(-1 -1.224647e-16 1.224647e-16 -1 554.8882 266.4859)" style="opacity:0.6;fill:#FFFFFF;enable-background:new    ;" width="1.932" height="2.576"/>
				
					<rect x="273.329" y="131.096" transform="matrix(-1 -1.224647e-16 1.224647e-16 -1 548.5904 265.6266)" style="opacity:0.6;fill:#FFFFFF;enable-background:new    ;" width="1.932" height="3.435"/>
				
					<rect x="270.18" y="130.236" transform="matrix(-1 -1.224647e-16 1.224647e-16 -1 542.2928 264.7674)" style="opacity:0.6;fill:#FFFFFF;enable-background:new    ;" width="1.932" height="4.294"/>
				
					<rect x="267.031" y="129.377" transform="matrix(-1 -1.224647e-16 1.224647e-16 -1 535.9952 263.908)" style="opacity:0.6;fill:#FFFFFF;enable-background:new    ;" width="1.932" height="5.154"/>
			</g>
			<g>
				<rect x="396.816" y="131.015" style="opacity:0.6;fill:#FFFFFF;enable-background:new    ;" width="1.145" height="2.576"/>
				
					<rect x="398.748" y="130.075" transform="matrix(-1 -1.224647e-16 1.224647e-16 -1 806.6205 264.6059)" style="opacity:0.6;fill:#FFFFFF;enable-background:new    ;" width="9.125" height="4.456"/>
			</g>
		</g>
	</g>
</g>
<g id="Character">
	<g>
		<polygon style="fill:#B55B52;" points="249.627,317.175 248.724,324.355 231.91,324.332 232.813,317.152 		"/>
		<path style="fill:#407BFF;" d="M248.434,325.596c0.003,0.007,0.005,0.015,0.007,0.022c0.245,1.161,0.554,3.229-0.136,4.037
			c-0.208,0.243-0.486,0.357-0.827,0.339c-0.203-0.012-0.361-0.106-0.457-0.273c-0.506-0.872,0.936-3.808,1.101-4.14
			c0.033-0.065,0.102-0.103,0.174-0.095C248.359,325.493,248.412,325.536,248.434,325.596z M247.288,329.485
			c0.008,0.022,0.017,0.043,0.028,0.062c0.039,0.068,0.094,0.099,0.184,0.104c0.231,0.013,0.41-0.059,0.546-0.218
			c0.387-0.454,0.442-1.646,0.158-3.238C247.673,327.354,247.094,328.943,247.288,329.485z"/>
		<path style="fill:#407BFF;" d="M248.434,325.596c0.015,0.04,0.014,0.086-0.004,0.126c-0.38,0.881-1.917,2.644-2.733,2.529
			c-0.192-0.027-0.43-0.159-0.485-0.628c-0.039-0.349,0.055-0.671,0.281-0.957c0.742-0.936,2.679-1.172,2.762-1.181
			c0.06-0.007,0.12,0.019,0.156,0.068C248.421,325.566,248.428,325.581,248.434,325.596z M245.589,327.755
			c0.051,0.141,0.128,0.152,0.159,0.156c0.49,0.069,1.699-1.132,2.222-2.035c-0.566,0.105-1.723,0.387-2.21,1.002
			c-0.17,0.214-0.238,0.444-0.208,0.703C245.56,327.655,245.573,327.711,245.589,327.755z"/>
		<path style="fill:#263238;" d="M247.43,324.904l-0.094-7.902c-0.003-0.296,0.198-0.556,0.485-0.626l6.386-1.564
			c0.662-0.162,1.297,0.331,1.294,1.014c-0.014,2.852-0.131,6.974-0.089,10.557c0.05,4.189-0.195,6.849-0.137,11.762
			c0.036,2.971-2.944,3.858-3.23,2.62c-1.3-5.635-0.972-9.301-4.033-14.129C247.679,326.111,247.437,325.529,247.43,324.904z"/>
		<path style="opacity:0.5;fill:#FFFFFF;" d="M247.43,324.904l-0.094-7.902c-0.003-0.296,0.198-0.556,0.485-0.626l6.386-1.564
			c0.662-0.162,1.297,0.331,1.294,1.014c-0.014,2.852-0.131,6.974-0.089,10.557c0.05,4.189-0.195,6.849-0.137,11.762
			c0.036,2.971-2.944,3.858-3.23,2.62c-1.3-5.635-0.972-9.301-4.033-14.129C247.679,326.111,247.437,325.529,247.43,324.904z"/>
		<polygon style="opacity:0.2;" points="231.915,324.331 240.581,324.344 241.485,317.161 232.818,317.148 		"/>
		<polygon style="fill:#263238;" points="238.785,328.375 240.401,313.862 235.728,313.384 233.71,329.312 		"/>
		<g>
			<path style="fill:#B65B52;" d="M221.693,205.787c-2.452,4.213-5.004,8.265-7.706,12.306c-2.752,4.031-5.483,7.964-8.915,11.941
				c-0.444,0.5-0.906,1.003-1.423,1.525c-0.527,0.525-1.074,1.06-1.902,1.697c-0.238,0.174-0.446,0.329-0.771,0.529l-0.227,0.138
				l-0.297,0.161l-0.304,0.152c-0.122,0.056-0.288,0.124-0.433,0.178c-1.185,0.484-2.783,0.53-3.918,0.183
				c-1.158-0.33-1.911-0.84-2.483-1.284c-0.581-0.459-0.946-0.871-1.292-1.279c-1.264-1.587-1.828-2.876-2.409-4.164
				c-0.559-1.273-0.963-2.517-1.351-3.743c-1.487-4.905-2.319-9.672-2.817-14.617l5.276-1.246c1.793,4.308,3.588,8.731,5.538,12.724
				c0.487,0.991,1.013,1.945,1.519,2.805c0.492,0.835,1.095,1.651,1.402,1.865c0.056,0.031,0.105,0.051,0.004-0.052
				c-0.098-0.087-0.326-0.291-0.907-0.468c-0.56-0.191-1.535-0.173-2.167,0.087c-0.076,0.027-0.171,0.071-0.226,0.096l-0.107,0.047
				l-0.1,0.054l-0.04,0.017c-0.071,0.044-0.044,0.01-0.044,0.01c0.103-0.11,0.402-0.419,0.689-0.764
				c0.296-0.35,0.613-0.75,0.93-1.167c1.283-1.683,2.59-3.587,3.848-5.51c1.268-1.928,2.534-3.89,3.772-5.878l7.46-11.95
				L221.693,205.787z"/>
		</g>
		<g>
			<path style="fill:#407BFF;" d="M225.495,201.01c2.058,6.609-11.347,24.756-11.347,24.756l-13.968-8.8c0,0,3.908-9.239,9.305-16.3
				C215.027,193.415,223.237,193.756,225.495,201.01z"/>
			<path style="opacity:0.7;fill:#FFFFFF;" d="M225.495,201.01c2.058,6.609-11.347,24.756-11.347,24.756l-13.968-8.8
				c0,0,3.908-9.239,9.305-16.3C215.027,193.415,223.237,193.756,225.495,201.01z"/>
		</g>
		<path style="opacity:0.2;" d="M216.681,210.163c-3.497,1.636-7.195,7.63-7.704,12.344l5.174,3.259c0,0,5.15-6.969,8.574-13.843
			C221.642,210.247,220.686,208.289,216.681,210.163z"/>
		<g>
			<path style="fill:#407BFF;" d="M255.713,191.08c-1.724,8.561-2.547,16.998-2.884,24.778c-0.241,5.641-0.214,10.951-0.065,15.722
				c0.341,11.084,1.338,19.375,1.233,22.208c-5.881,0.129-27.072,0.588-38.02,0.821c-8.828-36.671-1.614-58.108-1.614-58.108
				s3.995-1.604,8.783-2.821c0.636-0.166,1.287-0.315,1.95-0.458c4.329-0.937,11.604-1.695,16.735-2.101
				c1.09-0.085,2.198-0.145,3.281-0.186C250.683,190.732,255.713,191.08,255.713,191.08z"/>
			<path style="opacity:0.7;fill:#FFFFFF;" d="M252.759,231.58c0.35,11.08,1.34,19.38,1.24,22.21c-5.88,0.13-27.07,0.59-38.02,0.82
				c-8.83-36.67-1.62-58.11-1.62-58.11s4-1.6,8.79-2.82c0.63-0.16,1.28-0.31,1.95-0.46c4.33-0.93,11.6-1.69,16.73-2.1
				c1.09-0.08,2.2-0.14,3.28-0.18c5.57-0.21,10.6,0.14,10.6,0.14c-1.33,6.6-2.12,13.14-2.56,19.35c-0.14,1.84-0.24,3.65-0.32,5.43
				c-0.12,2.66-0.17,5.26-0.18,7.75C252.639,226.4,252.689,229.06,252.759,231.58z"/>
		</g>
		<g>
			<path style="fill:#B55B52;" d="M232.292,174.76c0.313,5.36,1.727,14.974,6.198,17.495c-1.935,3.352-5.241,6.614-11.038,7.917
				c-4.44,0.998-5.455-2.021-4.911-3.967c5.371-2.778,4.132-6.97,2.109-10.695L232.292,174.76z"/>
			<path style="opacity:0.2;" d="M229.178,179.146l-4.523,6.359c0.482,0.881,0.914,1.788,1.22,2.698
				c2.105-0.856,4.491-3.99,4.134-6.327C229.831,180.71,229.5,179.63,229.178,179.146z"/>
		</g>
		<g>
			<path style="fill:#263238;" d="M209.796,165.296c-0.361,2.891,1.137,8.423,4.623,5.899
				C217.906,168.671,210.417,160.326,209.796,165.296z"/>
			<path style="fill:#B55B52;" d="M230.174,165.391c1.704,6.951,3.057,10.936,0.685,15.479c-3.567,6.834-13.003,6.252-16.76-0.068
				c-3.382-5.689-5.601-16.1,0.264-20.833C220.141,155.307,228.469,158.44,230.174,165.391z"/>
			<path style="fill:#263238;" d="M233.172,157.495h-7.966v4.572c0.147-0.092,0.312-0.183,0.449-0.276c0,0,0.811,6.639,4.716,8.743
				C235.346,166.366,236.56,159.872,233.172,157.495z"/>
			<path style="fill:#B55B52;" d="M234.576,170.257c0.001,1.926-0.893,3.666-2.036,4.759c-1.721,1.645-3.72,0.375-4.196-1.834
				c-0.428-1.988-0.049-5.24,2.136-6.048C232.634,166.339,234.575,168.055,234.576,170.257z"/>
			<path style="fill:#263238;" d="M220.369,170.424c0.173,0.556,0.018,1.095-0.347,1.205c-0.365,0.11-0.801-0.252-0.974-0.808
				c-0.173-0.556-0.018-1.095,0.347-1.205S220.196,169.869,220.369,170.424z"/>
			<path style="fill:#263238;" d="M214.06,172.321c0.173,0.556,0.018,1.095-0.347,1.205c-0.365,0.11-0.801-0.252-0.974-0.808
				c-0.173-0.556-0.018-1.095,0.347-1.205C213.451,171.403,213.887,171.765,214.06,172.321z"/>
			<path style="fill:#A02724;" d="M216.152,171.994c0,0-0.34,3.477-1.284,5.399c1.245,0.575,2.792-0.35,2.792-0.35L216.152,171.994z
				"/>
			<path style="fill:#263238;" d="M221.314,178.27c-0.22,0.1-0.456,0.189-0.712,0.266c-0.09,0.027-0.187-0.024-0.215-0.114
				c-0.029-0.091,0.025-0.186,0.113-0.212c2.451-0.74,3.063-2.784,3.069-2.805c0.026-0.09,0.121-0.142,0.212-0.116
				c0.091,0.027,0.144,0.121,0.118,0.212C223.876,175.583,223.348,177.347,221.314,178.27z"/>
			<path style="fill:#263238;" d="M221.683,167.811c-0.109,0.049-0.24,0.04-0.345-0.035c-1.244-0.895-2.427-0.463-2.439-0.458
				c-0.177,0.067-0.376-0.021-0.444-0.197c-0.069-0.176,0.02-0.373,0.196-0.44c0.062-0.024,1.546-0.566,3.088,0.545
				c0.154,0.111,0.189,0.324,0.079,0.476C221.781,167.751,221.735,167.788,221.683,167.811z"/>
			<path style="fill:#263238;" d="M210.669,170.977c-0.059,0.027-0.127,0.037-0.196,0.026c-0.187-0.03-0.316-0.205-0.288-0.391
				c0.287-1.865,1.723-2.508,1.783-2.545c0.173-0.076,0.376,0.001,0.454,0.173c0.078,0.171,0.003,0.372-0.168,0.449
				c-0.061,0.024-1.161,0.534-1.391,2.031C210.846,170.838,210.769,170.932,210.669,170.977z"/>
			<path style="fill:#263238;" d="M228.188,163.388c0,0-0.167,0.168-0.466,0.359c-0.596,0.382-1.715,0.856-3.064,0.268
				c-2.024-0.882-2.902-6.472-8.394-3.355c0,0-1.952-0.492-3.319,1.348c-1.367,1.84-0.07,8.27-3.201,7.516
				c-3.132-0.754-2.637-1.732-2.637-1.732s0.89,0.508,1.385,0.051c0,0-1.681-1.271-0.989-3.188c0,0,0.791,0.852,1.286,0.654
				c0,0-1.088-3.264,0.494-7.813c1.583-4.549,12.599-4.055,12.599-4.055s1.278-2.374,6.307-0.989c5.029,1.385,7.565,7.25,6.899,9.89
				"/>
		</g>
		<path style="fill:#407BFF;" d="M242.709,329.58c-9.48,1.91-17.6,3.26-24.52,4.11c-31.7,3.88-38.36-2.84-35.76-15.48
			c3.6-17.55,32.75-53.8,32.75-53.8V250h6.57l10.15-0.76l0.22,21.09l0.22,20.4c0,0-7.7,6.82-14.48,13.46
			c-5.87,5.75-11.05,11.35-9.95,12.27c0.79,0.66,4.71,0.76,9.58,0.61c9.71-0.3,23.2-1.63,23.2-1.63L242.709,329.58z"/>
		<path style="opacity:0.2;" d="M232.339,290.73c0,0-7.7,6.82-14.48,13.46c0.16-14.07,10.78-37.19,10.78-37.19s1.3,1.24,3.48,3.33
			L232.339,290.73z"/>
		<path style="opacity:0.2;" d="M242.709,329.58c-9.48,1.91-17.6,3.26-24.52,4.11c-1.31-6.41-1.16-12.33-0.7-16.62
			c9.71-0.3,23.2-1.63,23.2-1.63L242.709,329.58z"/>
		<path style="fill:#407BFF;" d="M253.579,286.25c-1.83,16.93-19.81,110.6-19.81,110.6h-13.17l5.48-113.33l-4.33-33.52l32.59-2.44
			c0,0,0.23,3.17,0.35,8.24c0.04,1.46,0.06,3.07,0.07,4.82C254.809,267.71,254.589,276.93,253.579,286.25z"/>
		<polygon style="fill:#B55B52;" points="221.44,411.229 228.661,411.229 230.71,394.507 223.489,394.507 		"/>
		<polygon style="opacity:0.2;" points="223.487,394.512 230.711,394.512 229.651,403.131 222.427,403.131 		"/>
		<polygon style="fill:#263238;" points="234.723,398.952 219.15,398.952 219.197,394.299 235.455,393.36 		"/>
		<g>
			<path style="fill:#407BFF;" d="M218.579,411.654c-0.55,0-1.065-0.093-1.394-0.368c-0.261-0.217-0.383-0.521-0.363-0.904
				c0.015-0.284,0.165-0.42,0.288-0.483c0.793-0.412,3.138,1.021,3.403,1.185c0.059,0.037,0.09,0.104,0.08,0.173
				c-0.01,0.068-0.061,0.122-0.127,0.139C219.965,411.516,219.246,411.654,218.579,411.654z M217.49,410.159
				c-0.089,0-0.164,0.014-0.221,0.043c-0.046,0.024-0.099,0.068-0.106,0.201c-0.014,0.272,0.064,0.475,0.239,0.621
				c0.398,0.331,1.342,0.376,2.565,0.13C219.147,410.683,218.045,410.159,217.49,410.159z"/>
			<path style="fill:#407BFF;" d="M220.425,411.4c-0.028,0-0.056-0.007-0.082-0.02c-0.751-0.406-2.212-1.988-2.067-2.793
				c0.026-0.146,0.131-0.398,0.54-0.449c0.266-0.03,0.511,0.042,0.73,0.22c0.846,0.685,1.039,2.769,1.047,2.858
				c0.005,0.063-0.024,0.123-0.076,0.157C220.49,411.391,220.458,411.4,220.425,411.4z M218.938,408.473
				c-0.025,0-0.051,0.001-0.077,0.005c-0.222,0.027-0.24,0.129-0.248,0.173c-0.085,0.475,0.847,1.671,1.595,2.235
				c-0.09-0.608-0.333-1.823-0.875-2.262C219.209,408.522,219.079,408.473,218.938,408.473z"/>
			<path style="fill:#263238;" d="M220.954,410.393h8.803c0.295,0,0.553,0.205,0.62,0.493l1.491,6.418
				c0.155,0.666-0.362,1.296-1.044,1.284c-2.833-0.049-4.901-0.215-8.469-0.215c-2.195,0-8.811,0.228-11.842,0.228
				c-2.964,0-3.457-2.997-2.219-3.268c5.551-1.217,9.727-2.895,11.492-4.496C220.104,410.548,220.522,410.393,220.954,410.393z"/>
			<path style="opacity:0.5;fill:#FFFFFF;" d="M220.954,410.393h8.803c0.295,0,0.553,0.205,0.62,0.493l1.491,6.418
				c0.155,0.666-0.362,1.296-1.044,1.284c-2.833-0.049-4.901-0.215-8.469-0.215c-2.195,0-8.811,0.228-11.842,0.228
				c-2.964,0-3.457-2.997-2.219-3.268c5.551-1.217,9.727-2.895,11.492-4.496C220.104,410.548,220.522,410.393,220.954,410.393z"/>
		</g>
		<g>
			<path style="fill:#FFFFFF;" d="M227.336,200.198c0,0,2.2,1.723,4.682,3.353c2.534-2.239,8.353-7.997,7.17-11.76
				c-0.646-1.025-2.285-1.348-2.285-1.348S233.579,195.556,227.336,200.198z"/>
		</g>
		<g>
			<path style="fill:#FFFFFF;" d="M227.336,200.198c0,0-1.837,2.4-2.773,5.118c-2.444-0.962-2.955-8.366-2.352-9.341
				c1.438-1.476,2.617-1.627,2.617-1.627S223.799,200.168,227.336,200.198z"/>
		</g>
		<path style="opacity:0.2;" d="M254.759,260.62c-1.45,1-3.34,1.56-3.34,1.56l-3.83-8.55c0,0,4.16-0.13,7.1,2.17
			C254.729,257.26,254.749,258.87,254.759,260.62z"/>
		<path style="opacity:0.2;" d="M253.149,210.43c-0.14,1.84-0.24,3.65-0.32,5.43c-0.12,2.66-0.17,5.26-0.18,7.75
			c-3.47-4.6-2.46-13.84-2.46-13.84C251.259,209.69,252.249,209.94,253.149,210.43z"/>
		<g>
			<path style="fill:#B65B52;" d="M260.339,196.454c2.584,4.988,4.785,9.927,6.73,15.184c0.952,2.627,1.849,5.299,2.557,8.13
				c0.356,1.417,0.676,2.869,0.915,4.413c0.23,1.549,0.391,3.17,0.278,5.101c-0.032,0.486-0.089,0.998-0.183,1.541
				c-0.056,0.284-0.1,0.545-0.182,0.849l-0.117,0.441l-0.105,0.3c-0.281,0.783-0.565,1.621-0.875,2.274
				c-0.603,1.416-1.269,2.668-1.935,3.92c-1.323,2.494-2.768,4.821-4.229,7.129c-2.949,4.6-6.089,8.981-9.478,13.253l-4.596-2.875
				l6.752-14.405c1.115-2.375,2.183-4.769,3.155-7.103c0.48-1.162,0.932-2.34,1.287-3.42c0.221-0.575,0.305-1.025,0.446-1.509
				l0.049-0.177l-0.001-0.046l0.008-0.135c0.005-0.118,0.008-0.272,0.003-0.454c-0.016-0.743-0.172-1.792-0.411-2.871
				c-0.232-1.088-0.548-2.235-0.909-3.392c-0.736-2.317-1.615-4.693-2.577-7.056c-1.916-4.712-4.116-9.529-6.321-14.097
				L260.339,196.454z"/>
		</g>
		<g>
			<path style="fill:#407BFF;" d="M257.818,191.575c6.368,2.716,12.48,22.44,12.48,22.44l-16.749,5.745c0,0-3.994-8.49-6.05-17.201
				C245.258,193.071,250.103,188.285,257.818,191.575z"/>
			<path style="opacity:0.7;fill:#FFFFFF;" d="M257.818,191.575c6.368,2.716,12.48,22.44,12.48,22.44l-16.749,5.745
				c0,0-3.994-8.49-6.05-17.201C245.258,193.071,250.103,188.285,257.818,191.575z"/>
		</g>
		<path style="fill:#407BFF;" d="M246.824,253.132c0,0,7.025,4.459,8.676,7.076c0,0-1.133,11.82-5.873,10.976
			C244.887,270.341,243.222,262.429,246.824,253.132z"/>
		<path style="fill:#FFFFFF;" d="M234.576,211.396l9.124-1.252v10.88c0,0-4.943,2.834-8.604,0.856L234.576,211.396z"/>
		<g>
			<path style="fill:#263238;" d="M199.271,207.719c0.132,0.412-0.107,0.814-0.534,0.899l-7.591,1.51
				c-0.426,0.085-0.879-0.18-1.011-0.592l-4.675-14.644c-0.132-0.412,0.087-0.918,0.513-1.003l7.59-1.51
				c0.427-0.085,0.9,0.284,1.032,0.695L199.271,207.719z"/>
			<path style="opacity:0.3;fill:#FFFFFF;" d="M193.734,193.144l4.727,14.784c0.133,0.417-0.031,0.751-0.455,0.835l-6.436,1.281
				c-0.432,0.086-1.27,0.006-1.404-0.411l-4.737-14.836c-0.133-0.417,0.536-0.905,0.967-0.991l6.437-1.281
				C193.256,192.441,193.6,192.727,193.734,193.144z"/>
		</g>
		<g>
			<path style="fill:#B55B52;" d="M185.743,212.729l-0.414-7.349l7.552,3.101c0,0-0.026,6.579-3.415,6.423L185.743,212.729z"/>
			<polygon style="fill:#B55B52;" points="188.765,198.951 194.353,203.822 192.88,208.482 185.329,205.381 			"/>
		</g>
	</g>
</g>
</svg>
