<?xml version="1.0" encoding="utf-8"?>
<!-- Generator: Adobe Illustrator 27.5.0, SVG Export Plug-In . SVG Version: 6.00 Build 0)  -->
<svg version="1.1" xmlns="http://www.w3.org/2000/svg" xmlns:xlink="http://www.w3.org/1999/xlink" x="0px" y="0px"
	 viewBox="0 0 750 500" style="enable-background:new 0 0 750 500;" xml:space="preserve">
<g id="BACKGROUND">
	<g>
		<rect style="fill:#FFFFFF;" width="750" height="500"/>
	</g>
</g>
<g id="OBJECTS">
	<g>
		<path style="fill:#474747;" d="M484.794,430.042c-31.222,1.186-62.444,1.824-93.667,2.348
			c-15.611,0.214-31.222,0.474-46.833,0.569l-23.417,0.199l-23.417,0.089c-15.611,0.036-31.222,0.13-46.833,0.023
			c-7.806-0.043-15.611-0.033-23.417-0.121l-23.417-0.277c-15.611-0.251-31.222-0.54-46.833-1.002
			c-15.611-0.447-31.222-0.98-46.833-1.828c-0.207-0.011-0.366-0.188-0.355-0.395c0.01-0.193,0.166-0.344,0.355-0.355
			c15.611-0.848,31.222-1.38,46.833-1.828c15.611-0.463,31.222-0.751,46.833-1.002l23.417-0.277
			c7.806-0.088,15.611-0.077,23.417-0.121c15.611-0.107,31.222-0.013,46.833,0.023l23.417,0.089l23.417,0.199
			c15.611,0.095,31.222,0.355,46.833,0.569c31.222,0.524,62.444,1.162,93.667,2.348c0.207,0.008,0.369,0.182,0.361,0.389
			C485.147,429.878,484.987,430.034,484.794,430.042z"/>
	</g>
	<linearGradient id="SVGID_1_" gradientUnits="userSpaceOnUse" x1="126.25" y1="499.25" x2="580.75" y2="44.75">
		<stop  offset="0.0252" style="stop-color:#FFFFFF"/>
		<stop  offset="0.5351" style="stop-color:#ADC5FF"/>
		<stop  offset="1" style="stop-color:#FAFBFF"/>
	</linearGradient>
	<path style="fill:url(#SVGID_1_);" d="M31.083,372H750V214h-28.075v37h-19.051v-79h-34.091v55h-12.032v-91h-27.072v64l-5.013-5v-25
		h-52.139v29h-13.035v-42h-25.067v81h-11.029v-45h-18.048v69h-12.032v-55.333H461.23V251h-10.027v-69h-30.08v25h-33.088v24h-10.027
		v-85h-34.091v56h-11.029v-92h-26.069c0,0,0,45,0,46s-23.062,0-23.062,0v30h-23.061v-44h-24.064v19h-10.027v-29h-17.045v67h-25.067
		v-91h-18.048v69h-28.075v-34h-21.056v14h-15.04v32H76.203v25H48.128v-51H27.072v-34H0v244L31.083,372z"/>
	<g>
		<path style="fill:#050505;" d="M346.794,429h107.333c11.184,0,20.25-9.066,20.25-20.25v-281.5c0-11.184-9.066-20.25-20.25-20.25
			H346.794c-11.184,0-20.25,9.066-20.25,20.25v281.5C326.544,419.934,335.61,429,346.794,429z"/>
		<path style="fill:#1C1C1C;" d="M377.741,412.089h45.439c1.041,0,1.893-0.852,1.893-1.893l0,0c0-1.041-0.852-1.893-1.893-1.893
			h-45.439c-1.041,0-1.893,0.852-1.893,1.893l0,0C375.848,411.237,376.7,412.089,377.741,412.089z"/>
		<g>
			<defs>
				
					<rect id="SVGID_00000057833710288927836230000006654199187007149985_" x="334.026" y="144.108" transform="matrix(-1 -4.488955e-11 4.488955e-11 -1 800.9209 536)" width="132.87" height="247.784"/>
			</defs>
			<use xlink:href="#SVGID_00000057833710288927836230000006654199187007149985_"  style="overflow:visible;fill:#FFFFFF;"/>
			<clipPath id="SVGID_00000170263631402038659440000002258762731686429336_">
				<use xlink:href="#SVGID_00000057833710288927836230000006654199187007149985_"  style="overflow:visible;"/>
			</clipPath>
			<g style="clip-path:url(#SVGID_00000170263631402038659440000002258762731686429336_);">
				<polygon style="fill:#D8D8D8;" points="469.439,294.634 421.957,257.925 463.055,203.66 505.35,236.778 				"/>
				<path style="fill:#D8D8D8;" d="M455.873,200.867c-1.197,0.399-39.103,53.068-39.103,53.068l-49.477-36.709l37.906-47.083
					L455.873,200.867z"/>
				<polygon style="fill:#D8D8D8;" points="418.366,268.299 464.651,303.412 426.346,355.283 381.657,318.973 				"/>
				<polygon style="fill:#D8D8D8;" points="410.785,262.713 374.475,310.993 327.392,273.885 364.899,227.999 				"/>
				<path style="fill:#D8D8D8;" d="M421.558,362.465c-0.798-1.197-97.358-80.999-98.555-81.398
					c-1.197-0.399-47.482,56.26-47.482,56.26l106.934,77.009L421.558,362.465z"/>
				<path style="fill:#D8D8D8;" d="M470.237,308.599l-17.157,26.733c0,0,41.896,32.32,43.093,32.32s5.187-36.31,5.187-36.31
					L470.237,308.599z"/>
				<path style="fill:#D8D8D8;" d="M448.292,341.318L408.79,392.79c0,0,64.24,23.541,65.836,23.142
					c1.596-0.399,19.551-44.29,19.551-44.29L448.292,341.318z"/>
				<path style="fill:#D8D8D8;" d="M396.421,164.158c-1.197,0.798-34.714,49.078-35.911,48.679
					c-1.197-0.399-46.285-31.123-46.285-31.123l41.098-49.477L396.421,164.158z"/>
				<polygon style="fill:#D8D8D8;" points="323.402,199.271 354.126,224.009 319.811,264.309 293.476,238.374 				"/>
				<polygon style="fill:#D8D8D8;" points="471.035,174.133 460.262,187.699 410.785,160.966 434.725,130.641 473.03,133.035 				
					"/>
				<path style="fill:#D8D8D8;" d="M423.553,126.252l-23.941,29.128l-41.098-28.729c0,0,29.527-13.167,30.724-12.768
					c1.197,0.399,35.911,14.364,35.911,14.364"/>
			</g>
			
				<path style="clip-path:url(#SVGID_00000170263631402038659440000002258762731686429336_);fill:none;stroke:#FF7224;stroke-width:2;stroke-linecap:round;stroke-linejoin:round;stroke-miterlimit:10;" d="
				M388.341,413.139c0.898,0,38.005-50.874,38.005-50.874l-50.874-42.794l43.991-56.26l-26.933-21.547"/>
		</g>
		<path style="fill:#182B5C;" d="M396.071,123.282c0,2.424,1.965,4.389,4.389,4.389c2.424,0,4.389-1.965,4.389-4.389
			c0-2.424-1.965-4.389-4.389-4.389C398.036,118.893,396.071,120.858,396.071,123.282z"/>
		<g>
			<path style="fill:#FF7224;" d="M374.043,192.693c0,20.757,26.418,41.514,26.418,41.514s26.418-20.218,26.418-41.514
				c0-14.59-11.828-26.418-26.418-26.418C385.87,166.275,374.043,178.103,374.043,192.693z"/>
			<circle style="fill:#FFFFFF;" cx="400.46" cy="192.963" r="15.905"/>
		</g>
		<g>
			<path style="fill:#14223F;" d="M357.333,287.125h86.255c5.27,0,9.542-4.272,9.542-9.542v-8.348c0-5.27-4.272-9.542-9.542-9.542
				h-86.255c-5.27,0-9.542,4.272-9.542,9.542v8.349C347.791,282.853,352.063,287.125,357.333,287.125z"/>
			
				<text transform="matrix(1 0 0 1 368.4864 278.5459)" style="fill:#FFFFFF; font-family:'Quicksand-Regular'; font-size:14.3643px;">It’s here</text>
		</g>
		<g>
			<path style="fill:#FFFFFF;" d="M471.572,126.205c-0.218-1.024-0.522-2.028-0.884-3.008c-0.334-0.989-0.741-1.953-1.197-2.89
				c-0.912-1.876-2.087-3.616-3.482-5.152c-1.359-1.575-3.071-2.824-4.931-3.741c-0.475-0.21-0.937-0.458-1.424-0.638l-1.495-0.456
				c-0.491-0.189-1.008-0.264-1.524-0.349l-1.549-0.266c2.095-0.025,4.298,0.185,6.285,1.098c2.018,0.808,3.831,2.14,5.317,3.729
				c1.465,1.616,2.619,3.486,3.468,5.458c0.396,1.001,0.736,2.018,0.999,3.051c0.225,1.044,0.426,2.093,0.443,3.16L471.572,126.205z
				"/>
		</g>
	</g>
	<g>
		<path style="fill:#14223F;" d="M406.127,404.938l-256,1.333l-35.667-9.667c0,0-1.333-19.333,10.333-28.667
			c25.333-9.667,47-16.667,47-16.667l188.667,7.667l32.333,9C392.794,367.938,405.46,406.271,406.127,404.938z"/>
		<g>
			
				<ellipse transform="matrix(0.3361 -0.9418 0.9418 0.3361 -137.2059 611.6884)" style="fill:#1C1C1C;" cx="365.278" cy="403.167" rx="25.833" ry="25.833"/>
			<circle style="fill:#969696;" cx="365.278" cy="403.167" r="17.875"/>
			
				<ellipse transform="matrix(0.3366 -0.9416 0.9416 0.3366 -137.3261 611.3985)" style="fill:none;stroke:#2D2D2D;stroke-miterlimit:10;" cx="365.278" cy="403.167" rx="14.458" ry="14.458"/>
			<path style="fill:#CECECE;" d="M362.07,403.167c0,1.772,1.436,3.208,3.208,3.208s3.208-1.436,3.208-3.208
				c0-1.772-1.436-3.208-3.208-3.208S362.07,401.395,362.07,403.167z"/>
			<g>
				<ellipse style="fill:#2D2D2D;" cx="365.278" cy="412.688" rx="3.917" ry="2.417"/>
				<ellipse style="fill:#2D2D2D;" cx="365.278" cy="393.938" rx="3.917" ry="2.417"/>
				<path style="fill:#2D2D2D;" d="M355.778,407.083c1.335,0,2.417-1.754,2.417-3.917c0-2.163-1.082-3.917-2.417-3.917
					c-1.335,0-2.417,1.754-2.417,3.917C353.361,405.33,354.443,407.083,355.778,407.083z"/>
				<path style="fill:#2D2D2D;" d="M375.278,407.083c1.335,0,2.417-1.754,2.417-3.917c0-2.163-1.082-3.917-2.417-3.917
					c-1.335,0-2.417,1.754-2.417,3.917C372.861,405.33,373.943,407.083,375.278,407.083z"/>
			</g>
		</g>
		<g>
			
				<ellipse transform="matrix(0.3069 -0.9517 0.9517 0.3069 -283.0182 417.7052)" style="fill:#1C1C1C;" cx="145.278" cy="403.167" rx="25.833" ry="25.833"/>
			<circle style="fill:#969696;" cx="145.278" cy="403.167" r="17.875"/>
			
				<ellipse transform="matrix(0.3074 -0.9516 0.9516 0.3074 -283.0253 417.4949)" style="fill:none;stroke:#2D2D2D;stroke-miterlimit:10;" cx="145.278" cy="403.167" rx="14.458" ry="14.458"/>
			<path style="fill:#CECECE;" d="M142.07,403.167c0,1.772,1.436,3.208,3.208,3.208c1.772,0,3.208-1.436,3.208-3.208
				c0-1.772-1.436-3.208-3.208-3.208C143.506,399.958,142.07,401.395,142.07,403.167z"/>
			<g>
				<ellipse style="fill:#2D2D2D;" cx="145.278" cy="412.688" rx="3.917" ry="2.417"/>
				<ellipse style="fill:#2D2D2D;" cx="145.278" cy="393.938" rx="3.917" ry="2.417"/>
				<path style="fill:#2D2D2D;" d="M135.778,407.083c1.335,0,2.417-1.754,2.417-3.917c0-2.163-1.082-3.917-2.417-3.917
					s-2.417,1.754-2.417,3.917C133.361,405.33,134.443,407.083,135.778,407.083z"/>
				<path style="fill:#2D2D2D;" d="M155.278,407.083c1.335,0,2.417-1.754,2.417-3.917c0-2.163-1.082-3.917-2.417-3.917
					s-2.417,1.754-2.417,3.917C152.861,405.33,153.943,407.083,155.278,407.083z"/>
			</g>
		</g>
		<path style="fill:#0D3688;" d="M111.457,365.601v35.34l5,3c0,0-1.33-28.34,19.67-31c21-2.67,30.33,3,36.33,16
			s3.67,23.33,3.67,23.33h159.36c-0.45-2.31-0.69-4.71-0.69-7.17c0-18.87,13.95-34.16,31.16-34.16c17.22,0,31.17,15.29,31.17,34.16
			c0,1.89-0.14,3.75-0.42,5.56l2.42-0.06c0,0,13,0.34,18.33-2.33c5.34-2.67,11.67-8.67,1.67-35.67c-0.51-1.39-1.09-2.72-1.72-4
			c-2.46-5-5.75-9.16-9.41-12.62c-13.58-12.88-56.42-17.7-56.42-17.7l-0.12-0.01c0,0-20.26-17.85-69.45-34.81
			c-2.44-0.84-4.96-1.68-7.55-2.52c-54.66-17.67-133.33,2.33-133.33,1.33s-2.33,10-2.33,10c-0.6,0.72-1.2,1.48-1.8,2.27
			c-6.23,8.13-12.55,19.46-16.62,32.23c-1.37,4.25-2.48,8.66-3.25,13.17C115.457,362.441,112.327,363.291,111.457,365.601z"/>
		<path style="fill:none;stroke:#CECECE;stroke-miterlimit:10;" d="M111.457,400.941c0.919,2.742,2.66,3.569,5,3"/>
		<path style="fill:#050505;" d="M319.127,346.271l-84.667-7.667l-3.528-29.581c-0.432-3.621,2.469-6.779,6.113-6.634
			C256.961,303.179,313.374,308.739,319.127,346.271z"/>
		<path style="fill:#14223F;" d="M225.377,339.271c0,0-33.5,0-49.75-5.75s-16.75-17.25-16.75-19s-2-13.75,63.75-14"/>
		<path style="fill:#050505;" d="M216.127,308.604v20.333c0,0-0.333,5-9.667,5c-9.333,0-34-3.667-39.333-9
			c-5.333-5.333-4.976-13.412,0.333-16c5.311-2.589,31.042-4.667,40.167-5.292C209.252,303.521,215.877,302.396,216.127,308.604z"/>
		<path style="fill:#14223F;" d="M328.794,348.938c0.667,0,9-3.5,10.333-4c1.333-0.5,0.667-2-2.167-4.333
			c-2.833-2.333-9.5-8.167-9.833-7.333c-0.333,0.833,0.167,11.667,0.167,12.667S326.794,348.938,328.794,348.938z"/>
		<g>
			<path style="fill:#14223F;" d="M327.294,336.438c1.123,4.361-5.167,6.667-8.5,6.5c-3.333-0.167-10.333-1.5-9.833-7.5
				S324.46,325.438,327.294,336.438z"/>
			<path style="opacity:0.35;fill:#0D3688;" d="M321.252,331.271c-1.79-0.068-3.459,0.306-5.009,1.12
				c-1.612,0.524-3.006,1.42-4.184,2.688c-1.116,1.037-1.927,2.252-2.467,3.626c-0.482-0.898-0.741-1.967-0.632-3.267
				c0.405-4.863,10.336-8.41,15.593-3.723L321.252,331.271z"/>
			<path style="fill:#14223F;" d="M332.585,342.938c-0.329,1.973-12.5,5-14.833-0.167c-2.333-5.167,6.333-1.5,6.333-1.5
				S332.919,340.938,332.585,342.938z"/>
		</g>
		<path style="fill:#050505;" d="M426.627,384.271c0.504,4.286-2.75,7-7.25,7.25s-6.25,0-6.25,0l-4.75-13h13
			C421.377,378.521,426.127,380.021,426.627,384.271z"/>
		<path style="fill:#FF7224;" d="M120.377,346.771h22.25c-0.833-12.604,0.092-25.925,2.25-39.75c0,0-3.59,3.36-7.88,7.52
			C130.767,322.671,124.447,334.001,120.377,346.771z"/>
		<path style="fill:#FF7224;" d="M389.797,356.601c-2.78,0.224,0.098,4.218,8.66,12h18.95c-2.46-5-5.75-9.16-9.41-12.62
			L389.797,356.601z"/>
		<path style="fill:#050505;" d="M280.297,304.771l11.83,3.5c0,0,6.593,3.182,8,3.67c9.25,3.205,26.67,13.83,26.67,13.83
			s13.66,10.17,16.66,12.33c3,2.17,4,1.5,4,1.5l4.12-1.32l-0.12-0.01c0,0-20.26-17.85-69.45-34.81L280.297,304.771z"/>
		<g>
			<path style="fill:none;stroke:#2254BA;stroke-miterlimit:10;" d="M145.127,302.021c0,0-5.119,33.829-1.077,63.689"/>
			<path style="fill:none;stroke:#2254BA;stroke-miterlimit:10;" d="M223.127,293.771c0,0,5.75,70.5,4.25,104.75"/>
			<line style="fill:none;stroke:#2254BA;stroke-miterlimit:10;" x1="170.46" y1="374.271" x2="329.877" y2="379.521"/>
			<path style="fill:none;stroke:#2254BA;stroke-miterlimit:10;" d="M351.457,338.271l-6.08,1.75c0,0-44-43.75-122.25-43.5
				c-43.61,0.14-69.36,6.65-83.61,12.38"/>
			<path style="fill:none;stroke:#2254BA;stroke-miterlimit:10;" d="M345.294,339.771c20.333,1.053,40.167,13.684,43.5,16.667"/>
			<path style="fill:none;stroke:#2254BA;stroke-miterlimit:10;" d="M358.627,335.104"/>
			<path style="fill:none;stroke:#2254BA;stroke-miterlimit:10;" d="M329.877,348.271c0,0,3.5,28.5-4.25,50.25h-142.75
				c0,0-1.25-32.5-40.25-32.75c-14.96-0.1-24.76,4.07-31.17,9.25"/>
		</g>
		<path style="fill:#1C1C1C;" d="M314.127,343.333l-66.217-5.912c-4.887-0.436-8.757-4.318-9.177-9.207l-1.94-22.548
			C236.794,305.667,249.794,331.667,314.127,343.333z"/>
		<path style="fill:#1C1C1C;" d="M208.46,331c0,0-27.667-1.667-34.667-5.333c-7-3.667-5.333-14.333-5.333-14.333L208.46,331z"/>
		<polygon style="fill:#2254BA;" points="318.794,350 235.794,343 319.127,357.667 		"/>
	</g>
	<g>
		<path style="fill:#474747;" d="M595.451,430.042c-5.667,0.686-11.333,1.044-17,1.28c-2.833,0.15-5.667,0.176-8.5,0.27l-8.5,0.07
			c-5.667-0.033-11.333-0.108-17-0.368c-5.667-0.241-11.333-0.589-17-1.252c-0.207-0.024-0.355-0.212-0.331-0.419
			c0.021-0.177,0.161-0.311,0.331-0.331c5.667-0.663,11.333-1.011,17-1.252c5.667-0.259,11.333-0.335,17-0.368l8.5,0.07
			c2.833,0.094,5.667,0.12,8.5,0.27c5.667,0.236,11.333,0.594,17,1.28c0.207,0.025,0.355,0.213,0.33,0.42
			C595.76,429.888,595.62,430.021,595.451,430.042z"/>
	</g>
	<g>
		<path style="fill:#1C1C1C;" d="M582.292,214.373c0,0-12.424-3.04-25.206,0.408c-3.385,2.135,10.031,24.385,10.031,24.385
			l16.167-3.333l-0.5-20.667"/>
		<path style="fill:#E6B0A5;" d="M586.618,219.267c0,0-12.5-7.5-32.333-0.333c-19.833,7.167,30,11.333,30,11.333L586.618,219.267z"
			/>
		<polygon style="fill:#E6B0A5;" points="567.698,207.604 567.698,222.934 573.368,223.604 573.368,207.604 		"/>
		<polygon style="fill:#E68673;" points="567.698,208.704 567.698,211.764 572.498,209.514 		"/>
		<path style="fill:#E6B0A5;" d="M572.948,297.66c-0.395-0.741-0.517-2.2-0.47-1.832l0-0.107l0.017,0.153l0.029,0.504l0.045,1.14
			l0.067,2.381l0.098,4.833l0.145,9.716l0.219,19.465l0.329,38.953l0.018-0.241l-4.029,54.684l-0.004,0.053
			c-0.026,0.355,0.241,0.664,0.596,0.69l0.015,0.001l4.607,0.23c0.276,0.014,0.511-0.199,0.525-0.475
			c0.013-0.263-0.181-0.489-0.438-0.521l-4.578-0.567l0.607,0.744l8.669-54.142l0.018-0.241l2.989-38.862l1.441-19.446l0.686-9.742
			l0.319-4.897l0.142-2.484l0.059-1.293l0.02-0.713l0-0.455l-0.019-0.41c0.046,0.267-0.1-1.292-0.511-2.133
			c-1.385-3.207-5.107-4.683-8.314-3.298C573.039,290.731,571.563,294.453,572.948,297.66z"/>
		<path style="fill:#E6B0A5;" d="M552.516,292.266c-0.119,0.386-0.23,0.777-0.332,1.169l-0.147,0.589l-0.063,0.271l-0.032,0.161
			l-0.254,1.289l-0.499,2.562l-0.973,5.088l-1.922,10.161l-3.813,20.313l-7.582,40.627l-0.045,0.241
			c-0.058,0.312-0.047,0.631,0.018,0.922c1.078,4.726,2.275,9.366,3.479,14.005l3.637,13.88c1.2,4.623,2.392,9.246,3.451,13.885
			c0.517,2.317,1.033,4.65,1.336,6.963c0.069,0.573,0.126,1.157,0.111,1.683c-0.004,0.131-0.016,0.251-0.032,0.355l-0.014,0.064
			l-0.006,0.033c0.004-0.014,0.023-0.059,0.043-0.082c0.038-0.051,0.02-0.016-0.02,0.008c-0.16,0.116-0.432,0.249-0.685,0.363
			c-1.049,0.46-2.188,0.845-3.306,1.206l-0.008,0.003c-0.263,0.085-0.407,0.367-0.322,0.629c0.083,0.257,0.355,0.4,0.612,0.327
			c1.167-0.332,2.31-0.669,3.468-1.125c0.294-0.124,0.573-0.232,0.909-0.45c0.084-0.059,0.182-0.121,0.312-0.289
			c0.038-0.055,0.078-0.131,0.097-0.179l0.026-0.075l0.049-0.151c0.049-0.188,0.08-0.363,0.1-0.53
			c0.076-0.666,0.064-1.279,0.046-1.896c-0.105-2.449-0.42-4.829-0.735-7.215c-0.656-4.762-1.442-9.489-2.235-14.211l-2.408-14.143
			c-0.79-4.706-1.572-9.417-2.215-14.09l-0.027,1.163l10.925-39.849l10.732-38.812l0.372-1.347c0.924-3.341-1.036-6.799-4.377-7.722
			C556.908,287.151,553.512,289.034,552.516,292.266z"/>
		<path style="fill:#14223F;" d="M585.069,296.355l0.02-0.713v-0.455l-0.019-0.41c0.046,0.266-0.1-1.292-0.51-2.133
			c-1.385-3.207-5.107-4.683-8.314-3.298c-2.698,1.166-4.164,3.986-3.738,6.762l0.016,0.271l0.045,1.14l0.066,2.381l0.098,4.833
			l0.145,9.716l0.219,19.465l0.329,38.953l0.018-0.241l-1.472,19.98c1.434,0.119,2.862,0.263,4.286,0.425l3.156-19.709l0.018-0.241
			l2.99-38.862l1.441-19.446l0.686-9.742l0.319-4.897l0.142-2.484L585.069,296.355z M572.494,295.874l0.012,0.205
			c-0.039-0.259-0.047-0.394-0.028-0.251l0-0.107L572.494,295.874z M572.948,297.66c-0.159-0.298-0.272-0.71-0.349-1.076
			C572.683,296.946,572.795,297.306,572.948,297.66z"/>
		<path style="fill:#14223F;" d="M569.588,424.973l0.946,0.127c0.201,0.008,0.394-0.011,0.592-0.014l-0.276,1.721l3.866,0.479
			c0.257,0.033,0.451,0.258,0.438,0.521c-0.014,0.276-0.249,0.489-0.525,0.475l-4.607-0.23l-0.015-0.001
			c-0.355-0.026-0.622-0.335-0.596-0.69l0.004-0.053L569.588,424.973z"/>
		<path style="fill:#14223F;" d="M564.193,297.128l-10.732,38.812l-10.795,39.376c0.624,4.448,1.36,8.925,2.112,13.401l0.608,3.573
			c-1.433,0.06-2.864,0.127-4.294,0.201l-0.741-2.827c-1.204-4.639-2.4-9.278-3.479-14.005c-0.065-0.291-0.076-0.611-0.018-0.922
			l0.045-0.241l7.582-40.627l3.813-20.313l1.922-10.161l0.973-5.088l0.499-2.562l0.254-1.289l0.032-0.161l0.063-0.271l0.147-0.589
			c0.102-0.392,0.213-0.782,0.332-1.169c0.996-3.232,4.392-5.115,7.673-4.207c3.341,0.924,5.301,4.381,4.377,7.722L564.193,297.128z
			"/>
		<path style="fill:#14223F;" d="M544.859,428.024l0.008-0.003c1.118-0.361,2.257-0.746,3.306-1.206
			c0.249-0.112,0.515-0.242,0.676-0.357l0.006-0.028c0.016-0.104,0.028-0.224,0.032-0.355c0.011-0.414-0.027-0.864-0.075-1.316
			l0.056,0.008c0.439,0.016,0.869,0.005,1.293-0.031c0.008,0.469,0.007,0.941-0.051,1.446c-0.02,0.167-0.051,0.342-0.1,0.53
			l-0.049,0.151l-0.026,0.075c-0.019,0.048-0.059,0.124-0.097,0.179c-0.13,0.168-0.229,0.23-0.312,0.289
			c-0.336,0.217-0.615,0.326-0.909,0.45c-1.158,0.457-2.3,0.794-3.468,1.125c-0.258,0.073-0.529-0.07-0.612-0.327
			C544.452,428.391,544.596,428.109,544.859,428.024z"/>
		<path style="fill:#FF7224;" d="M540.758,237.393l5.37,30.04l3.68,20.56c1.34,7.49,7.85,12.94,15.45,12.94h8.03
			c7.47,0,13.9-5.26,15.39-12.57l4.25-20.93l6.03-29.67c1.771-8.701-3.992-16.899-12.333-18.535
			c-7.57,3.767-29.383,2.705-32.953-0.093C545.19,220.504,539.181,228.625,540.758,237.393z"/>
		<g>
			<path style="fill:#14223F;" d="M546.128,267.434l3.68,20.56c1.34,7.49,7.85,12.94,15.45,12.94h8.03c7.47,0,13.9-5.26,15.39-12.57
				l4.25-20.93H546.128z"/>
			<g>
				<line style="fill:none;stroke:#0D3688;stroke-miterlimit:10;" x1="569.118" y1="300.6" x2="569.118" y2="267.434"/>
				<path style="fill:none;stroke:#0D3688;stroke-miterlimit:10;" d="M565.368,267.517c0,0,0.083,17.833,0.083,21.25
					c0,3.417,3.833,3.583,3.833,3.583"/>
				<g>
					<line style="fill:none;stroke:#0D3688;stroke-miterlimit:10;" x1="592.451" y1="270.517" x2="546.951" y2="270.517"/>
					<path style="fill:none;stroke:#0D3688;stroke-miterlimit:10;" d="M554.285,270.35c0,0.25-0.833,6.917-5.917,6.917"/>
					<path style="fill:none;stroke:#0D3688;stroke-miterlimit:10;" d="M584.951,270.684c0,0-0.583,6.75,5.25,6.75"/>
				</g>
			</g>
		</g>
		<g>
			<path style="fill:#1C1C1C;" d="M594.618,282.5h-12.667l0.5-65.333c0,0,7.5,2,11.667,5.667c4.167,3.667,6.333,10.167,6.333,10.167
				l-6,48.833"/>
			<path style="fill:#1C1C1C;" d="M544.951,282.5h12.667l-0.5-65.333c0,0-7.5,2-11.667,5.667C541.285,226.5,539.118,233,539.118,233
				l6,48.833"/>
			<g>
				<line style="fill:none;stroke:#333333;stroke-miterlimit:10;" x1="597.785" y1="242" x2="583.618" y2="242"/>
				<line style="fill:none;stroke:#333333;stroke-miterlimit:10;" x1="555.951" y1="242.167" x2="543.951" y2="242.167"/>
				<line style="fill:none;stroke:#333333;stroke-miterlimit:10;" x1="590.451" y1="242.5" x2="588.618" y2="282"/>
				<line style="fill:none;stroke:#333333;stroke-miterlimit:10;" x1="550.785" y1="242.5" x2="552.118" y2="282.167"/>
				<line style="fill:none;stroke:#333333;stroke-miterlimit:10;" x1="594.951" y1="274.5" x2="589.618" y2="268.167"/>
				<line style="fill:none;stroke:#333333;stroke-miterlimit:10;" x1="551.951" y1="268.833" x2="545.451" y2="275.667"/>
			</g>
		</g>
		<g>
			<path style="fill:#FF7224;" d="M588.485,233.473c0.774,0.715,1.69,1.926,2.52,3.195c0.85,1.281,1.688,2.669,2.508,4.094
				c1.627,2.862,3.105,5.903,4.569,8.969c0.727,1.537,1.439,3.087,2.137,4.646c0.669,1.568,1.317,3.146,1.951,4.728
				c1.26,3.158,2.484,6.373,3.507,9.491c0.251,0.768,0.489,1.548,0.668,2.2l0.116,0.412c0.036,0.073,0.044,0.218,0.097-0.074
				c0.018-0.077,0.04-0.216,0.119-0.462l0.092-0.259c0.037-0.088,0.07-0.168,0.161-0.35l0.128-0.226l0.182-0.271
				c0.184-0.249,0.354-0.434,0.625-0.668c0.139-0.118,0.288-0.227,0.444-0.323c0.143-0.092,0.354-0.195,0.423-0.226
				c0.198-0.092,0.408-0.165,0.618-0.218c0.138-0.035,0.245-0.056,0.371-0.074c0.142-0.019,0.218-0.023,0.276-0.027l0.206-0.003
				l0.124,0.006c0.087,0.007,0.148,0.016,0.177,0.021c0.298,0.067,0.135,0.081,0.051,0.079c-0.525-0.026-1.373-0.243-2.131-0.477
				c-0.79-0.22-1.574-0.523-2.366-0.82c-1.588-0.589-3.17-1.252-4.747-1.931c-1.58-0.675-3.195-1.292-4.791-1.958l-9.738-3.718
				l-4.863-1.901l-4.902-1.836l-0.06-0.023c-0.258-0.097-0.544,0.034-0.641,0.292c-0.089,0.238,0.016,0.501,0.235,0.615
				c6.143,3.225,12.307,6.401,18.521,9.489c3.11,1.539,6.228,3.062,9.397,4.496c1.598,0.704,3.161,1.427,4.889,1.964
				c0.225,0.061,0.443,0.123,0.725,0.153c0.071,0.007,0.147,0.012,0.247,0.005c0.098-0.017,0.217,0.001,0.439-0.165
				c0.307-0.341,0.233-0.47,0.28-0.618c0.051-0.539-0.003-0.962-0.046-1.414c-0.1-0.885-0.247-1.746-0.406-2.605
				c-1.344-6.843-3.189-13.536-5.195-20.188c-1.017-3.321-2.099-6.624-3.298-9.891c-1.218-3.259-2.481-6.51-4.221-9.586
				l-0.777-1.373c-1.514-2.676-4.911-3.617-7.586-2.103c-2.676,1.514-3.617,4.91-2.103,7.586
				C587.705,232.633,588.08,233.095,588.485,233.473z"/>
			<path style="fill:#E6B0A5;" d="M576.548,256.374c6.15,3.23,12.31,6.4,18.52,9.49c3.11,1.54,6.23,3.06,9.4,4.5
				c0.67,0.29,1.33,0.59,2,0.87c0.03,0.06,0.04,0.11,0.06,0.03c0.91,0.39,1.84,0.75,2.83,1.06c0.23,0.06,0.44,0.12,0.73,0.15
				c0.07,0.01,0.14,0.02,0.24,0.01c0.1-0.02,0.22,0,0.44-0.17c0.31-0.34,0.23-0.47,0.28-0.61c0.05-0.54,0-0.97-0.04-1.42
				c-0.08-0.73-0.2-1.45-0.33-2.17c0,0.02-0.07,0.02-0.12,0.02c-0.19-0.01-0.42-0.05-0.68-0.09c0.05-0.01,0.09-0.01,0.12-0.01
				l0.21-0.01l0.12,0.01c0.09,0,0.15,0.01,0.18,0.02c0.1,0.02,0.14,0.04,0.16,0.05c-0.02-0.14-0.04-0.28-0.07-0.42
				c-1.34-6.85-3.19-13.54-5.19-20.19c-0.45-1.48-0.92-2.95-1.4-4.42c-2.18,1.26-4.88,2.76-7.2,4.03c0.43,0.87,0.85,1.75,1.27,2.63
				c0.73,1.53,1.44,3.08,2.14,4.64c0.67,1.57,1.32,3.15,1.95,4.73c0.97,2.43,1.92,4.88,2.77,7.31c-1.21-0.48-2.42-0.99-3.63-1.51
				c-1.58-0.67-3.19-1.29-4.79-1.96l-9.74-3.72l-4.86-1.9l-4.9-1.83l-0.06-0.02c-0.26-0.1-0.54,0.03-0.64,0.29
				C576.228,255.994,576.328,256.263,576.548,256.374z"/>
		</g>
		<path style="fill:#1C1C1C;" d="M604.686,266.297c0.08,0.031,0.16,0.063,0.24,0.094c-0.031-0.088-0.061-0.176-0.092-0.264
			c-0.338-0.959-0.693-1.92-1.057-2.883c-0.138-0.366-0.277-0.732-0.417-1.098c-0.391-1.016-0.787-2.032-1.191-3.044
			c-0.534-1.338-1.09-2.674-1.652-4.006c-0.101-0.239-0.195-0.481-0.297-0.72c-0.05-0.112-0.103-0.221-0.153-0.333
			c-0.652-1.448-1.31-2.889-1.988-4.31c-0.42-0.88-0.84-1.76-1.27-2.63c0.002-0.001,0.003-0.002,0.005-0.003
			c-1.057-2.166-2.14-4.299-3.3-6.339c-0.82-1.424-1.658-2.813-2.508-4.093c-0.83-1.269-1.746-2.48-2.52-3.195
			c-0.406-0.378-0.781-0.84-1.068-1.348c-1.514-2.676-0.572-6.072,2.103-7.586c2.676-1.514,6.072-0.572,7.586,2.103l0.777,1.373
			c1.741,3.076,3.003,6.328,4.221,9.586c0.666,1.815,1.29,3.643,1.893,5.477c0.003-0.002,0.007-0.004,0.01-0.006
			c0.48,1.47,0.95,2.94,1.4,4.42c1.967,6.54,3.783,13.121,5.118,19.853c0.022,0.112,0.05,0.222,0.072,0.335
			c0.027,0.144,0.05,0.29,0.076,0.434c0-0.001,0.005-0.001,0.005-0.002c0.13,0.72,0.25,1.44,0.33,2.17
			c0.015,0.162,0.026,0.326,0.037,0.49c-1.461-2.062-3.584-3.66-6.343-4.43C604.696,266.328,604.692,266.313,604.686,266.297z"/>
		<path style="fill:#1C1C1C;" d="M610.654,268.098c-0.005-0.003-0.013-0.005-0.02-0.009c-0.026-0.01-0.062-0.021-0.125-0.035
			c0,0,0,0,0,0c-0.03-0.01-0.09-0.02-0.18-0.02l-0.058-0.005l-0.067-0.003l-0.06,0.001l-0.145,0.007
			c-0.02,0-0.052,0.004-0.081,0.007c0.061,0.012,0.128,0.028,0.185,0.038c0.004,0.001,0.009,0.001,0.013,0.002
			c0.162,0.027,0.311,0.045,0.44,0.052c0.037,0.001,0.083-0.003,0.105-0.011c0.003-0.002,0.01-0.002,0.011-0.005
			C610.676,268.112,610.668,268.105,610.654,268.098z"/>
		<g>
			<path style="fill:#FF7224;" d="M551.12,233.473c-0.774,0.715-1.69,1.926-2.52,3.195c-0.85,1.281-1.688,2.669-2.508,4.094
				c-1.627,2.862-3.105,5.903-4.569,8.969c-0.727,1.537-1.439,3.087-2.137,4.646c-0.669,1.568-1.317,3.146-1.951,4.728
				c-1.26,3.158-2.484,6.373-3.507,9.491c-0.251,0.768-0.489,1.548-0.668,2.2l-0.116,0.412c-0.036,0.073-0.044,0.218-0.097-0.074
				c-0.018-0.077-0.04-0.216-0.119-0.462l-0.092-0.259c-0.037-0.088-0.07-0.168-0.161-0.35l-0.128-0.226l-0.182-0.271
				c-0.184-0.249-0.354-0.434-0.625-0.668c-0.139-0.118-0.289-0.227-0.445-0.323c-0.143-0.092-0.354-0.195-0.423-0.226
				c-0.198-0.092-0.408-0.165-0.618-0.218c-0.138-0.035-0.245-0.056-0.371-0.074c-0.142-0.019-0.218-0.023-0.276-0.027l-0.206-0.003
				l-0.124,0.006c-0.087,0.007-0.148,0.016-0.177,0.021c-0.298,0.067-0.135,0.081-0.05,0.079c0.524-0.026,1.373-0.243,2.131-0.477
				c0.79-0.22,1.574-0.523,2.366-0.82c1.588-0.589,3.17-1.252,4.747-1.931c1.58-0.675,3.195-1.292,4.791-1.958l9.738-3.718
				l4.863-1.901l4.902-1.836l0.061-0.023c0.258-0.097,0.544,0.034,0.641,0.292c0.089,0.238-0.016,0.501-0.235,0.615
				c-6.143,3.225-12.307,6.401-18.521,9.489c-3.11,1.539-6.228,3.062-9.397,4.496c-1.598,0.704-3.161,1.427-4.889,1.964
				c-0.226,0.061-0.443,0.123-0.724,0.153c-0.071,0.007-0.147,0.012-0.247,0.005c-0.098-0.017-0.217,0.001-0.439-0.165
				c-0.307-0.341-0.233-0.47-0.28-0.618c-0.051-0.539,0.003-0.962,0.046-1.414c0.1-0.885,0.247-1.746,0.406-2.605
				c1.344-6.843,3.189-13.536,5.195-20.188c1.017-3.321,2.099-6.624,3.298-9.891c1.218-3.259,2.481-6.51,4.221-9.586l0.777-1.373
				c1.514-2.676,4.91-3.617,7.586-2.103c2.676,1.514,3.617,4.91,2.103,7.586C551.9,232.633,551.526,233.095,551.12,233.473z"/>
			<path style="fill:#E6B0A5;" d="M563.057,256.374c-6.15,3.23-12.31,6.4-18.52,9.49c-3.11,1.54-6.23,3.06-9.4,4.5
				c-0.67,0.29-1.33,0.59-2,0.87c-0.03,0.06-0.04,0.11-0.06,0.03c-0.91,0.39-1.84,0.75-2.83,1.06c-0.23,0.06-0.44,0.12-0.73,0.15
				c-0.07,0.01-0.14,0.02-0.24,0.01c-0.1-0.02-0.22,0-0.44-0.17c-0.31-0.34-0.23-0.47-0.28-0.61c-0.05-0.54,0-0.97,0.04-1.42
				c0.08-0.73,0.2-1.45,0.33-2.17c0,0.02,0.07,0.02,0.12,0.02c0.19-0.01,0.42-0.05,0.68-0.09c-0.05-0.01-0.09-0.01-0.12-0.01
				l-0.21-0.01l-0.12,0.01c-0.09,0-0.15,0.01-0.18,0.02c-0.1,0.02-0.14,0.04-0.16,0.05c0.02-0.14,0.04-0.28,0.07-0.42
				c1.34-6.85,3.19-13.54,5.19-20.19c0.45-1.48,0.92-2.95,1.4-4.42c2.18,1.26,4.88,2.76,7.2,4.03c-0.43,0.87-0.85,1.75-1.27,2.63
				c-0.73,1.53-1.44,3.08-2.14,4.64c-0.67,1.57-1.32,3.15-1.95,4.73c-0.97,2.43-1.92,4.88-2.77,7.31c1.21-0.48,2.42-0.99,3.63-1.51
				c1.58-0.67,3.19-1.29,4.79-1.96l9.74-3.72l4.86-1.9l4.9-1.83l0.06-0.02c0.26-0.1,0.54,0.03,0.64,0.29
				C563.377,255.994,563.277,256.263,563.057,256.374z"/>
		</g>
		<path style="fill:#1C1C1C;" d="M551.12,233.473c-0.774,0.715-1.69,1.926-2.52,3.195c-0.85,1.281-1.688,2.669-2.508,4.093
			c-1.16,2.04-2.242,4.173-3.3,6.339c0.002,0.001,0.003,0.002,0.005,0.003c-0.43,0.87-0.85,1.75-1.27,2.63
			c-0.671,1.407-1.323,2.835-1.968,4.268c-0.057,0.126-0.116,0.249-0.173,0.375c-0.125,0.292-0.24,0.588-0.363,0.88
			c-0.539,1.279-1.073,2.562-1.586,3.846c-0.403,1.01-0.798,2.024-1.189,3.038c-0.142,0.369-0.282,0.739-0.421,1.108
			c-0.361,0.955-0.713,1.91-1.049,2.862c-0.002,0.006-0.004,0.012-0.006,0.018c-0.127,0.128-0.249,0.261-0.381,0.382
			c-2.082,1.515-4.127,3.021-5.84,4.891c-0.003-0.14-0.013-0.287-0.007-0.417c0.011-0.24,0.033-0.469,0.053-0.702
			c0.08-0.73,0.2-1.45,0.33-2.17c0,0.001,0.004,0.001,0.005,0.002c0.026-0.145,0.049-0.29,0.076-0.434
			c0.022-0.112,0.05-0.223,0.072-0.335c1.334-6.732,3.151-13.313,5.118-19.853c0.45-1.48,0.92-2.95,1.4-4.42
			c0.003,0.002,0.007,0.004,0.01,0.006c0.603-1.834,1.227-3.662,1.893-5.477c1.218-3.259,2.481-6.51,4.221-9.586l0.777-1.373
			c1.514-2.676,4.911-3.617,7.586-2.103c2.676,1.514,3.617,4.91,2.103,7.586C551.9,232.633,551.526,233.095,551.12,233.473z"/>
		<path style="fill:#333333;" d="M549.656,218.162l7.496-3.414l0.305,35.173c0,0-6.372-17.075-6.544-17.577
			c-0.172-0.502,3.442-5.961,3.442-5.961L549.656,218.162z"/>
		<g>
			<path style="fill:#14223F;" d="M573.013,257.641c0.091-2.12,0.171-7.202,0.202-9.305c0.008-0.521-0.406-0.947-0.926-0.959
				l-6.804-0.166c-0.572-0.014-1.027,0.478-0.968,1.047l0.952,9.162c0.048,0.466,0.43,0.828,0.898,0.85l5.651,0.274
				C572.544,258.57,572.99,258.167,573.013,257.641z"/>
			<g>
				<g>
					<g>
						<path style="fill:#E6B0A5;" d="M567.71,252.22c-0.939,0.269-1.878,0.539-2.816,0.81c-0.474,0.137-0.958,0.246-1.299,0.631
							c-0.317,0.357-0.607,0.743-0.91,1.112c-0.248,0.303-0.319,0.768,0,1.061c0.275,0.252,0.796,0.324,1.061,0
							c0.287-0.352,0.57-0.708,0.862-1.055c0.031-0.039,0.063-0.076,0.096-0.113c0.064-0.063,0.071-0.07,0.021-0.021
							c-0.016,0.005-0.032,0.01-0.047,0.015c0.046-0.017,0.093-0.033,0.141-0.047c0.216-0.068,0.435-0.126,0.652-0.189
							c0.879-0.254,1.758-0.507,2.638-0.759c0.377-0.108,0.649-0.534,0.524-0.923C568.508,252.36,568.114,252.104,567.71,252.22
							L567.71,252.22z"/>
					</g>
				</g>
				<g>
					<g>
						<path style="fill:#E6B0A5;" d="M570.484,254.486c-2.235,0.607-4.462,1.238-6.683,1.893c-0.924,0.273-0.53,1.721,0.399,1.446
							c2.221-0.656,4.448-1.287,6.683-1.893C571.813,255.68,571.418,254.232,570.484,254.486L570.484,254.486z"/>
					</g>
				</g>
				<g>
					<g>
						<path style="fill:#E6B0A5;" d="M571.235,256.138c-2.193,1.197-4.756,1.461-7.215,1.348c-0.965-0.044-0.963,1.456,0,1.5
							c2.725,0.125,5.549-0.23,7.973-1.553C572.839,256.971,572.083,255.675,571.235,256.138L571.235,256.138z"/>
					</g>
				</g>
				<g>
					<g>
						<path style="fill:#E6B0A5;" d="M570.292,257.874c-1.038,0.427-2.098,0.819-3.229,0.881c-1.091,0.06-2.158-0.116-3.174-0.518
							c-0.377-0.149-0.823,0.163-0.923,0.524c-0.117,0.426,0.146,0.773,0.524,0.923c1.125,0.445,2.364,0.638,3.572,0.571
							c1.276-0.07,2.455-0.452,3.628-0.935c0.374-0.154,0.64-0.498,0.524-0.923C571.118,258.043,570.669,257.719,570.292,257.874
							L570.292,257.874z"/>
					</g>
				</g>
				<g>
					<g>
						<path style="fill:#E6B0A5;" d="M563.532,251.732c-0.02-0.096-0.014-0.079-0.007,0.01c0.006,0.069,0.052-0.129-0.01,0.007
							c-0.036,0.078-0.028,0.036,0.004-0.008c-0.03,0.041-0.056,0.093-0.084,0.136c-0.054,0.086,0.108-0.104-0.029,0.026
							c-0.033,0.031-0.064,0.063-0.097,0.093c-0.141,0.132,0.06-0.025-0.037,0.03c-0.052,0.029-0.1,0.066-0.151,0.097
							c-0.386,0.231-0.84,0.342-1.217,0.582c-0.349,0.223-0.527,0.6-0.442,1.011c0.044,0.211,0.133,0.41,0.176,0.624
							c0.016,0.082,0.001-0.097,0.002,0.044c0,0.058,0.005,0.116,0.005,0.174c0,0.058-0.004,0.116-0.007,0.174
							c-0.003,0.065-0.01,0.086,0.003,0.009c-0.019,0.116-0.045,0.23-0.079,0.342c-0.014,0.045-0.029,0.09-0.045,0.134
							c-0.075,0.212,0.061-0.121-0.038,0.083c-0.171,0.352-0.108,0.827,0.269,1.026c0.336,0.178,0.843,0.108,1.026-0.269
							c0.22-0.454,0.354-0.923,0.37-1.43c0.008-0.241-0.022-0.484-0.065-0.721c-0.017-0.092-0.039-0.184-0.066-0.273
							c-0.017-0.057-0.037-0.112-0.057-0.168c-0.008-0.021-0.016-0.041-0.023-0.062c-0.019-0.056-0.017-0.037,0.008,0.055
							c-0.034,0.126-0.068,0.252-0.102,0.379c-0.2,0.161-0.244,0.207-0.132,0.136c0.016-0.008,0.031-0.016,0.047-0.024
							c0.065-0.033,0.133-0.062,0.2-0.092c0.135-0.06,0.271-0.118,0.405-0.178c0.295-0.132,0.574-0.28,0.831-0.478
							c0.589-0.455,0.942-1.117,0.788-1.869c-0.079-0.385-0.555-0.643-0.923-0.524C563.647,250.942,563.447,251.32,563.532,251.732
							L563.532,251.732z"/>
					</g>
				</g>
				<g>
					<g>
						<path style="fill:#E6B0A5;" d="M575.562,253.224c-0.065,0.055-0.063,0.055,0.003,0c-0.035,0.024-0.071,0.047-0.108,0.068
							c-0.056,0.033-0.114,0.061-0.172,0.091c-0.079,0.036-0.08,0.036-0.003,0.003c-0.031,0.012-0.062,0.024-0.094,0.035
							c-0.074,0.027-0.148,0.052-0.223,0.075c-0.318,0.101-0.641,0.189-0.963,0.275c-0.678,0.18-1.363,0.333-2.053,0.464
							c-0.386,0.073-0.641,0.559-0.524,0.923c0.134,0.413,0.509,0.602,0.923,0.524c0.74-0.14,1.474-0.306,2.2-0.503
							c0.732-0.198,1.486-0.388,2.074-0.893c0.298-0.257,0.283-0.801,0-1.061C576.305,252.932,575.88,252.95,575.562,253.224
							L575.562,253.224z"/>
					</g>
				</g>
				<g>
					<g>
						<path style="fill:#E6B0A5;" d="M576.358,252.378c-0.215-0.057-0.426-0.127-0.631-0.213c0.06,0.025,0.119,0.05,0.179,0.076
							c-0.265-0.114-0.517-0.253-0.745-0.429c0.051,0.039,0.101,0.078,0.152,0.117c-0.158-0.124-0.299-0.264-0.423-0.423
							c0.039,0.051,0.078,0.101,0.117,0.152c-0.096-0.127-0.176-0.263-0.239-0.409c0.025,0.06,0.05,0.119,0.076,0.179
							c-0.05-0.123-0.086-0.248-0.106-0.379c0.009,0.066,0.018,0.133,0.027,0.199c-0.003-0.022-0.005-0.043-0.007-0.065
							c-0.021-0.204-0.07-0.38-0.22-0.53c-0.13-0.13-0.344-0.228-0.53-0.22c-0.194,0.009-0.395,0.072-0.53,0.22
							c-0.127,0.138-0.24,0.336-0.22,0.53c0.038,0.37,0.131,0.709,0.321,1.033c0.16,0.273,0.375,0.528,0.619,0.73
							c0.516,0.425,1.117,0.707,1.763,0.879c0.379,0.101,0.832-0.127,0.923-0.524C576.972,252.907,576.764,252.487,576.358,252.378
							L576.358,252.378z"/>
					</g>
				</g>
				<g>
					<g>
						<path style="fill:#E6B0A5;" d="M575.648,254.47c0.17-0.135-0.015,0.009-0.051,0.034c-0.056,0.039-0.113,0.076-0.171,0.112
							c-0.117,0.073-0.238,0.139-0.362,0.2c-0.06,0.029-0.126,0.069-0.19,0.087c0.027-0.012,0.055-0.023,0.082-0.035
							c-0.033,0.013-0.065,0.026-0.098,0.038c-0.133,0.05-0.268,0.093-0.404,0.131c-0.138,0.038-0.277,0.069-0.418,0.094
							c-0.051,0.009-0.109,0.012-0.159,0.025c0.206-0.054-0.014-0.001-0.069,0.004c-0.288,0.024-0.576,0.021-0.863-0.008
							c-0.392-0.039-0.767,0.372-0.75,0.75c0.02,0.439,0.33,0.709,0.75,0.75c1.349,0.133,2.707-0.284,3.764-1.123
							c0.14-0.111,0.22-0.36,0.22-0.53c0-0.184-0.082-0.404-0.22-0.53C576.381,254.169,575.977,254.208,575.648,254.47
							L575.648,254.47z"/>
					</g>
				</g>
				<g>
					<g>
						<path style="fill:#E6B0A5;" d="M576.375,255.019c-0.25,0.097-0.447,0.21-0.647,0.391c-0.11,0.1-0.205,0.216-0.311,0.32
							c-0.055,0.054-0.113,0.104-0.171,0.155c-0.073,0.064-0.009-0.004,0.03-0.02c-0.034,0.014-0.074,0.054-0.106,0.076
							c-0.131,0.091-0.268,0.171-0.411,0.242c-0.032,0.016-0.064,0.032-0.097,0.047c-0.018,0.008-0.131,0.059-0.034,0.016
							c0.105-0.047-0.04,0.014-0.062,0.022c-0.034,0.013-0.068,0.025-0.103,0.036c-0.156,0.053-0.316,0.095-0.478,0.127
							c-0.036,0.007-0.073,0.013-0.109,0.02c-0.144,0.027,0.103-0.008,0.007,0.001c-0.074,0.007-0.147,0.015-0.221,0.019
							c-0.176,0.01-0.353,0.007-0.529-0.006c-0.392-0.03-0.767,0.366-0.75,0.75c0.019,0.432,0.33,0.718,0.75,0.75
							c0.772,0.059,1.534-0.105,2.237-0.418c0.335-0.149,0.634-0.353,0.917-0.585c0.12-0.099,0.228-0.208,0.335-0.322
							c0.054-0.058,0.111-0.113,0.167-0.17c0.085-0.086-0.013,0.027-0.028,0.018c-0.015-0.01,0.242-0.112,0.013-0.023
							c0.364-0.142,0.657-0.51,0.524-0.923C577.183,255.188,576.766,254.867,576.375,255.019L576.375,255.019z"/>
					</g>
				</g>
				<g>
					<g>
						<path style="fill:#E6B0A5;" d="M575.753,256.496c-0.213,0.191-0.429,0.378-0.65,0.56c-0.064,0.051-0.056,0.045,0.024-0.018
							c-0.029,0.022-0.057,0.043-0.087,0.065c-0.044,0.032-0.088,0.064-0.132,0.095c-0.119,0.082-0.241,0.16-0.367,0.231
							c-0.11,0.062-0.242,0.151-0.366,0.182c0.186-0.046,0.033-0.016-0.013,0.001c-0.065,0.024-0.131,0.045-0.197,0.065
							c-0.067,0.02-0.134,0.037-0.201,0.052c-0.044,0.01-0.163,0.055-0.205,0.039c0.113-0.014,0.128-0.017,0.044-0.008
							c-0.035,0.003-0.07,0.006-0.104,0.008c-0.07,0.004-0.14,0.004-0.21,0.003c-0.392-0.007-0.768,0.35-0.75,0.75
							c0.018,0.412,0.329,0.742,0.75,0.75c0.688,0.012,1.365-0.193,1.966-0.522c0.575-0.315,1.073-0.757,1.559-1.192
							c0.293-0.262,0.287-0.797,0-1.061C576.5,256.208,576.065,256.216,575.753,256.496L575.753,256.496z"/>
					</g>
				</g>
			</g>
			<path style="fill:#E6B0A5;" d="M575.576,252.267c0,0,3.583,0.432,3.375,3.847c-0.208,3.415-3.875,1.254-3.875,1.254
				L575.576,252.267z"/>
			<path style="fill:#E6B0A5;" d="M565.618,259.434l-1.667-4.917l-2.125-0.792l-0.417,1.667c0,0-0.75,4.083,2.333,4.292
				C566.826,259.892,565.618,259.434,565.618,259.434z"/>
		</g>
		<g>
			<g>
				<path style="fill:#050505;" d="M555.548,190.393c0.872-0.242,1.798-0.118,2.694,0.009c-0.391-0.315-0.759-0.657-1.101-1.024
					c-0.159-0.17-0.315-0.351-0.388-0.572c-0.159-0.482,0.142-1.021,0.572-1.289c0.431-0.267,0.958-0.321,1.465-0.338
					c1.825-0.062,3.816,0.34,5.002,1.729c-0.648-0.894-0.976-2.015-0.912-3.117c0.035-0.602,0.21-1.24,0.675-1.624
					c0.808-0.668,2.031-0.272,2.934,0.261c1.474,0.869,2.774,2.033,3.8,3.403c0.268,0.358,0.518,0.751,0.645,1.173
					c-0.176-1.08-0.196-2.186-0.037-3.269c0.08-0.545,0.247-1.146,0.725-1.419c0.258-0.147,0.571-0.172,0.867-0.135
					c0.775,0.097,1.458,0.588,1.945,1.199c0.487,0.611,0.802,1.338,1.098,2.061c1.14,2.786,1.877,5.846,1.877,8.752
					c0,2.907,0.139,4.634-0.042,5.99c-0.25,1.875-1.375,3.75-1.375,3.75s-10.125,1-11.5-0.625c-1.695-0.356-1.864-4.597-1.78-7.476
					c-2.789-0.327-5.486-1.466-7.608-3.309c-0.684-0.594-1.355-1.371-1.296-2.274C553.868,191.347,554.676,190.635,555.548,190.393z
					"/>
			</g>
			<path style="fill:#E68673;" d="M574.901,204.203c-0.218,0.953,0.178,1.857,0.884,2.019c0.707,0.162,1.456-0.48,1.674-1.433
				c0.218-0.953-0.178-1.857-0.884-2.019S575.119,203.25,574.901,204.203z"/>
			<path style="fill:#E68673;" d="M563.113,204.943c0.333,0.92,1.155,1.465,1.837,1.219c0.682-0.247,0.965-1.192,0.632-2.112
				c-0.333-0.92-1.155-1.465-1.837-1.219C563.063,203.077,562.78,204.023,563.113,204.943z"/>
			<path style="fill:#E6B0A5;" d="M570.118,210.1L570.118,210.1c3.3,0,6-2.7,6-6v-2.333c0-3.3-2.7-6-6-6l0,0c-3.3,0-6,2.7-6,6v2.333
				C564.118,207.4,566.818,210.1,570.118,210.1z"/>
			<path style="fill:#050505;" d="M575.076,197.809c-0.125-0.042-8.227,0.923-12.363,0.024c-4.137-0.899,1.28-5.107,1.613-5.19
				c0.333-0.083,4.208-0.708,4.208-0.708l3.625,0.917l2.458,1.333L575.076,197.809z"/>
			<path style="fill:#050505;" d="M572.243,203.475c0,0.506,0.41,0.917,0.917,0.917c0.506,0,0.917-0.41,0.917-0.917
				c0-0.506-0.41-0.917-0.917-0.917C572.653,202.559,572.243,202.969,572.243,203.475z"/>
			<path style="fill:#050505;" d="M566.118,203.475c0,0.506,0.41,0.917,0.917,0.917c0.506,0,0.917-0.41,0.917-0.917
				c0-0.506-0.41-0.917-0.917-0.917C566.528,202.559,566.118,202.969,566.118,203.475z"/>
			
				<polyline style="fill:none;stroke:#E68673;stroke-width:0.75;stroke-linecap:round;stroke-linejoin:round;stroke-miterlimit:10;" points="
				570.576,206.184 568.993,206.184 569.493,202.267 			"/>
			<path style="fill:none;stroke:#161616;stroke-width:0.75;stroke-linecap:round;stroke-linejoin:round;stroke-miterlimit:10;" d="
				M572.118,200.892c0,0,1.208-0.5,2.208,0"/>
			<path style="fill:none;stroke:#161616;stroke-width:0.75;stroke-linecap:round;stroke-linejoin:round;stroke-miterlimit:10;" d="
				M568.285,200.85c0,0-1.5-0.792-2.458,0.042"/>
			<path style="fill:#FFFFFF;" d="M571.16,207.434h-2.458c0,0,0.417,1.583,1.292,1.583S571.16,207.434,571.16,207.434z"/>
		</g>
		<path style="fill:#333333;" d="M589.789,217.787l-7.496-3.414l-0.305,35.173c0,0,6.372-17.075,6.544-17.577
			c0.172-0.502-3.442-5.961-3.442-5.961L589.789,217.787z"/>
	</g>
</g>
</svg>
