<?xml version="1.0" encoding="utf-8"?>
<!-- Generator: Adobe Illustrator 27.5.0, SVG Export Plug-In . SVG Version: 6.00 Build 0)  -->
<svg version="1.1" xmlns="http://www.w3.org/2000/svg" xmlns:xlink="http://www.w3.org/1999/xlink" x="0px" y="0px"
	 viewBox="0 0 750 500" style="enable-background:new 0 0 750 500;" xml:space="preserve">
<g id="BACKGROUND">
	<rect style="fill:#E7FAF9;" width="750" height="500"/>
</g>
<g id="OBJECT">
	<g>
		<g>
			<path style="fill:#D1F4F5;" d="M711.243,318.603c-4.353-65.929-46.898-120.225-104.628-142.755
				c-36.537-14.259-68.513-37.873-93.152-68.388c-29.602-36.662-74.915-60.11-125.705-60.11
				c-59.948,0-112.262,32.668-140.119,81.172c-15.379,26.777-43.878,43.341-74.756,43.49c-0.515,0.003-1.03,0.008-1.546,0.016
				C96.447,173.219,36.164,235.389,37.18,310.283c1.009,74.455,61.68,134.501,136.374,134.501
				c44.347,0,83.745-21.167,108.651-53.949c15.933-20.97,42.535-30.954,68.161-24.88c0.918,0.218,1.84,0.428,2.764,0.629
				c19.896,4.346,36.732,17.422,45.733,35.69c11.457,23.252,28.202,43.301,48.564,58.698h198.463
				C688.702,428.544,715.026,375.89,711.243,318.603z"/>
			<path style="fill:#5FA5CC;" d="M712.058,460.973H37.942c-0.796,0-1.442,0.646-1.442,1.442c0,0.796,0.646,1.442,1.442,1.442
				h674.116c0.796,0,1.442-0.646,1.442-1.442C713.5,461.619,712.854,460.973,712.058,460.973z"/>
		</g>
		<g>
			
				<ellipse transform="matrix(0.7071 -0.7071 0.7071 0.7071 -95.2965 193.0054)" style="fill:#FDF7E7;" cx="185.33" cy="211.536" rx="44.287" ry="44.287"/>
			<g>
				<g>
					<g>
						<path style="fill:#5195A8;" d="M190.69,213.931l-2.291-2.291l-6.28,6.28l4.137,4.642
							C188.554,220.475,189.854,217.249,190.69,213.931z"/>
						<path style="fill:#5195A8;" d="M182.549,224.94l-3.725-3.725l-5.846,5.846l2.854,2.854
							C178.363,228.706,180.664,227.016,182.549,224.94z"/>
						<path style="fill:#5195A8;" d="M186.256,222.562l-4.137-4.642l-3.295,3.295l3.725,3.725c-1.886,2.076-4.186,3.766-6.717,4.975
							l10.101,10.101c1.222,1.222,5.664-1.24,9.922-5.498c4.258-4.258,6.72-8.7,5.498-9.922l-10.665-10.665
							C189.854,217.249,188.554,220.475,186.256,222.562z"/>
					</g>
					<path style="fill:#5195A8;" d="M158.569,215.811l18.264-18.264l8.184,8.184c5.044,5.044,5.044,13.221,0,18.264l0,0
						c-5.043,5.044-13.221,5.044-18.264,0L158.569,215.811z"/>
					<path style="fill:#5195A8;" d="M158.569,215.811l-11.327-11.327c-0.911-0.911-0.911-2.388,0-3.299l0,0
						c0.864-0.863,2.247-0.915,3.172-0.118l12.305,10.595L158.569,215.811z"/>
					<path style="fill:#5195A8;" d="M149.33,196.809l13.895,14.347l4.477-4.477l-15.037-13.353
						c-0.955-0.848-2.405-0.805-3.308,0.098l0,0C148.426,194.356,148.413,195.863,149.33,196.809z"/>
					<path style="fill:#5195A8;" d="M152.728,189.809l15.427,16.417l4.171-4.171l-16.079-15.699
						c-0.966-0.943-2.511-0.934-3.466,0.021l0,0C151.839,187.319,151.816,188.839,152.728,189.809z"/>
					<path style="fill:#5195A8;" d="M160.109,187.331l12.638,14.303l4.087-4.087l-13.37-13.37c-0.9-0.9-2.358-0.9-3.258,0l0,0
						C159.345,185.038,159.303,186.419,160.109,187.331z"/>
					<path style="fill:#5195A8;" d="M188.79,215.327l-1.3-22.009c-0.092-1.559-1.414-2.759-2.975-2.7l0,0
						c-1.555,0.058-2.781,1.345-2.764,2.901l0.138,12.455L188.79,215.327z"/>
					<g>
						<g>
							<path style="fill:#468094;" d="M179.427,224.208c-0.993-1.14-1.904-2.582-2.48-4.244c-0.58-1.655-0.825-3.519-0.585-5.322
								c0.245-1.801,0.975-3.535,1.972-4.977c0.995-1.451,2.256-2.601,3.515-3.437c-1.456,0.396-3.066,1.322-4.359,2.765
								c-1.297,1.43-2.272,3.37-2.553,5.456c-0.281,2.087,0.145,4.216,1.018,5.938C176.821,222.122,178.128,223.441,179.427,224.208
								z"/>
						</g>
						<g>
							<path style="fill:#468094;" d="M178.103,204.736c-2.395,0.631-5.373,2.066-7.957,4.059c-2.596,1.977-4.757,4.479-5.989,6.627
								c1.846-1.655,4.192-3.776,6.706-5.691C173.367,207.802,176.025,206.088,178.103,204.736z"/>
						</g>
						<g>
							<path style="fill:#468094;" d="M175.258,208.547c-1.429,1.364-2.965,3.499-4.039,5.866c-1.088,2.361-1.697,4.92-1.794,6.893
								c0.712-1.845,1.594-4.21,2.649-6.502C173.118,212.507,174.329,210.292,175.258,208.547z"/>
						</g>
						<g>
							<path style="fill:#468094;" d="M198.981,223.482c-1.265,2.333-3.123,5.144-5.492,7.507c-2.348,2.384-5.146,4.261-7.471,5.542
								c1.301-0.255,2.775-0.763,4.23-1.552c1.456-0.785,2.89-1.848,4.136-3.1c1.244-1.255,2.297-2.695,3.072-4.157
								C198.236,226.262,198.735,224.785,198.981,223.482z"/>
						</g>
						<g>
							<path style="fill:#468094;" d="M194.343,221.373c-0.497,1.888-1.242,4.255-2.339,6.471c-1.081,2.224-2.496,4.262-3.685,5.811
								c1.615-1.094,3.388-3.068,4.519-5.402C193.991,225.93,194.467,223.319,194.343,221.373z"/>
						</g>
						<g>
							<path style="fill:#468094;" d="M190.572,226.327c-1.328,0.888-3.013,2.036-4.781,3.049c-1.763,1.022-3.6,1.905-5.034,2.61
								c1.581-0.218,3.597-0.897,5.414-1.952C187.993,228.991,189.591,227.586,190.572,226.327z"/>
						</g>
					</g>
				</g>
				<g>
					<path style="fill:#6CA8BC;" d="M223.788,223.836l-10.665-10.665l-2.291-2.291l-6.28,6.28l-3.295,3.295l-5.846,5.846
						l2.854,2.854l10.101,10.101c1.222,1.222,5.664-1.24,9.922-5.498C222.548,229.5,225.009,225.057,223.788,223.836z"/>
					<path style="fill:#6CA8BC;" d="M181.003,215.051l18.264-18.264l8.184,8.184c5.044,5.043,5.044,13.221,0,18.264h0
						c-5.044,5.044-13.221,5.044-18.264,0L181.003,215.051z"/>
					<path style="fill:#6CA8BC;" d="M181.003,215.051l-11.327-11.327c-0.911-0.911-0.911-2.388,0-3.3l0,0
						c0.863-0.864,2.247-0.915,3.172-0.118l12.305,10.595L181.003,215.051z"/>
					<path style="fill:#6CA8BC;" d="M171.763,196.049l13.895,14.347l4.477-4.477l-15.037-13.352
						c-0.955-0.848-2.405-0.805-3.308,0.098l0,0C170.859,193.596,170.847,195.103,171.763,196.049z"/>
					<path style="fill:#6CA8BC;" d="M175.161,189.049l15.427,16.417l4.171-4.171l-16.079-15.699
						c-0.966-0.943-2.511-0.934-3.466,0.021l0,0C174.273,186.559,174.249,188.079,175.161,189.049z"/>
					<path style="fill:#6CA8BC;" d="M182.542,186.571l12.638,14.303l4.087-4.087l-13.37-13.37c-0.9-0.9-2.358-0.9-3.257,0l0,0
						C181.779,184.277,181.736,185.659,182.542,186.571z"/>
					<path style="fill:#6CA8BC;" d="M211.223,214.567l-1.3-22.009c-0.092-1.559-1.414-2.759-2.975-2.7l0,0
						c-1.555,0.059-2.781,1.345-2.764,2.902l0.138,12.455L211.223,214.567z"/>
					<g>
						<g>
							<path style="fill:#5195A8;" d="M221.414,222.722c-1.265,2.333-3.123,5.144-5.492,7.507c-2.348,2.384-5.146,4.261-7.471,5.542
								c1.301-0.255,2.775-0.763,4.23-1.552c1.456-0.785,2.89-1.848,4.136-3.1c1.244-1.255,2.297-2.695,3.072-4.157
								C220.67,225.502,221.168,224.025,221.414,222.722z"/>
						</g>
						<g>
							<path style="fill:#5195A8;" d="M216.777,220.613c-0.497,1.888-1.242,4.255-2.34,6.471c-1.081,2.224-2.496,4.262-3.685,5.811
								c1.615-1.094,3.388-3.068,4.519-5.402C216.424,225.17,216.9,222.559,216.777,220.613z"/>
						</g>
						<g>
							<path style="fill:#5195A8;" d="M213.005,225.567c-1.328,0.888-3.013,2.036-4.781,3.049c-1.763,1.022-3.6,1.906-5.034,2.61
								c1.581-0.218,3.597-0.897,5.414-1.952C210.427,228.231,212.024,226.826,213.005,225.567z"/>
						</g>
					</g>
					<g>
						<g>
							<path style="fill:#5195A8;" d="M198.66,206.83c-1.759,1.285-3.77,3.354-5.38,5.714c-1.622,2.353-2.827,4.973-3.392,7.077
								c1.198-1.822,2.665-4.194,4.247-6.491C195.708,210.827,197.392,208.603,198.66,206.83z"/>
						</g>
						<g>
							<path style="fill:#5195A8;" d="M203.129,205.172c-1.843,1.916-3.776,4.886-5.054,8.145c-1.297,3.251-1.918,6.74-1.884,9.398
								c0.803-2.537,1.805-5.781,3.061-8.933C200.491,210.624,201.979,207.572,203.129,205.172z"/>
						</g>
					</g>
				</g>
			</g>
			<g>
				<path style="fill:#D4CFBE;" d="M220.214,245.764c-8.88,9.048-21.234,14.675-34.884,14.675
					c-26.965,0-48.903-21.938-48.903-48.903c0-13.649,5.627-26.004,14.675-34.883l-2.949-2.949
					c-9.804,9.635-15.898,23.033-15.898,37.832c0,29.266,23.809,53.076,53.075,53.076c14.799,0,28.197-6.095,37.832-15.898
					L220.214,245.764z"/>
				<path style="fill:#E4E4E0;" d="M185.33,162.633c26.965,0,48.903,21.938,48.903,48.903c0,13.316-5.356,25.4-14.02,34.228
					l2.949,2.949c9.419-9.583,15.243-22.71,15.243-37.177c0-29.266-23.809-53.075-53.076-53.075
					c-14.466,0-27.593,5.824-37.177,15.243l2.949,2.949C159.93,167.989,172.014,162.633,185.33,162.633z"/>
			</g>
		</g>
		<g>
			<g>
				
					<ellipse transform="matrix(0.7071 -0.7071 0.7071 0.7071 4.687 228.9772)" style="fill:#FDF7E7;" cx="278.743" cy="108.831" rx="49.762" ry="49.762"/>
				<g>
					<path style="fill:#D4CFBE;" d="M317.94,147.291c-9.978,10.167-23.86,16.49-39.196,16.49c-30.299,0-54.949-24.65-54.949-54.949
						c0-15.337,6.322-29.218,16.489-39.196l-3.313-3.313c-11.016,10.827-17.864,25.88-17.864,42.509
						c0,32.884,26.753,59.637,59.637,59.637c16.629,0,31.683-6.848,42.51-17.864L317.94,147.291z"/>
					<path style="fill:#E4E4E0;" d="M278.743,53.882c30.299,0,54.949,24.65,54.949,54.949c0,14.963-6.019,28.541-15.753,38.46
						l3.313,3.313c10.583-10.768,17.128-25.518,17.128-41.773c0-32.884-26.753-59.637-59.637-59.637
						c-16.255,0-31.005,6.544-41.773,17.127l3.313,3.313C250.203,59.901,263.781,53.882,278.743,53.882z"/>
				</g>
			</g>
			<g>
				<g>
					<path style="fill:#E1E1E1;" d="M249.464,121.836c-0.107,0-0.214-0.001-0.324-0.004c-4.418-0.097-8.682-2.005-11.698-5.236
						c-3.015-3.231-4.626-7.616-4.42-12.03c0.158-3.359,1.465-6.232,3.589-7.882c2.468-1.918,6.166-2.282,9.653-0.95
						c2.966,1.134,5.422,3.232,7.588,5.083l-1.827,2.139c-2.091-1.786-4.253-3.633-6.766-4.594c-2.016-0.77-4.894-1.032-6.922,0.543
						c-1.473,1.145-2.386,3.257-2.505,5.794c-0.169,3.608,1.201,7.338,3.666,9.979c2.465,2.641,6.092,4.264,9.704,4.344
						c1.334,0.032,2.369-0.161,3.168-0.582c0.841-0.443,1.429-1.212,1.497-1.959l2.801,0.256c-0.155,1.697-1.3,3.303-2.988,4.192
						C252.522,121.537,251.14,121.836,249.464,121.836z"/>
				</g>
				<g>
					<path style="fill:#E1E1E1;" d="M308.023,121.836c-1.675,0-3.057-0.298-4.217-0.909c-1.687-0.889-2.832-2.495-2.988-4.191
						l2.802-0.257c0.068,0.748,0.656,1.517,1.497,1.96c0.8,0.422,1.838,0.609,3.168,0.582c3.611-0.079,7.239-1.703,9.703-4.344
						c2.465-2.64,3.836-6.371,3.667-9.979c-0.119-2.537-1.033-4.648-2.505-5.794c-2.026-1.577-4.904-1.313-6.923-0.543
						c-2.512,0.96-4.674,2.807-6.764,4.594l-1.827-2.139c2.166-1.85,4.621-3.949,7.589-5.083c3.484-1.331,7.185-0.969,9.653,0.95
						c2.122,1.65,3.43,4.523,3.587,7.882c0.207,4.415-1.404,8.8-4.42,12.03c-3.016,3.231-7.28,5.14-11.698,5.236
						C308.238,121.835,308.13,121.836,308.023,121.836z"/>
				</g>
				<g>
					<path style="fill:#FFFFFF;" d="M287.406,90.802c-5.625-1.859-11.699-1.859-17.324,0l-18.997,6.278v3.689l18.997-6.279
						c5.625-1.859,11.699-1.859,17.324,0l18.997,6.279V97.08L287.406,90.802z"/>
					<path style="fill:#7BC1BA;" d="M270.082,94.491l-18.997,6.279v23.501l6.508,1.594c6.49,1.59,13.107,2.391,19.742,2.391h1.409
						h1.409c6.635,0,13.252-0.801,19.742-2.391l6.507-1.594v-23.501l-18.997-6.279C281.781,92.632,275.707,92.632,270.082,94.491z"
						/>
				</g>
				<g>
					<g>
						<path style="fill:#5DAFA5;" d="M295.776,104.894c-9.407-1.51-24.658-1.51-34.065,0
							C271.118,106.404,286.37,106.404,295.776,104.894z"/>
					</g>
					<g>
						<path style="fill:#5DAFA5;" d="M298.199,110.206c-10.745-1.51-28.165-1.51-38.909,0
							C270.034,111.716,287.454,111.716,298.199,110.206z"/>
					</g>
					<g>
						<path style="fill:#5DAFA5;" d="M300.23,115.519c-11.867-1.51-31.106-1.51-42.972,0
							C269.124,117.029,288.363,117.029,300.23,115.519z"/>
					</g>
					<g>
						<path style="fill:#5DAFA5;" d="M295.776,120.832c-9.407-1.51-24.658-1.51-34.065,0
							C271.118,122.342,286.37,122.342,295.776,120.832z"/>
					</g>
				</g>
			</g>
		</g>
		<g>
			<g>
				
					<ellipse transform="matrix(0.2396 -0.9709 0.9709 0.2396 215.604 567.5902)" style="fill:#FDF7E7;" cx="470.143" cy="146.157" rx="39.689" ry="39.689"/>
				<g>
					<path style="fill:#D4CFBE;" d="M501.405,176.831c-7.958,8.109-19.03,13.152-31.262,13.152
						c-24.166,0-43.826-19.661-43.826-43.826c0-12.232,5.043-23.304,13.152-31.262l-2.643-2.643
						c-8.786,8.635-14.248,20.642-14.248,33.904c0,26.228,21.338,47.565,47.565,47.565c13.263,0,25.27-5.462,33.905-14.248
						L501.405,176.831z"/>
					<path style="fill:#E4E4E0;" d="M470.143,102.331c24.166,0,43.826,19.66,43.826,43.826c0,11.934-4.8,22.763-12.564,30.675
						l2.643,2.643c8.441-8.588,13.661-20.352,13.661-33.317c0-26.227-21.338-47.565-47.565-47.565
						c-12.964,0-24.729,5.22-33.317,13.66l2.643,2.643C447.38,107.131,458.209,102.331,470.143,102.331z"/>
				</g>
			</g>
			<g>
				<path style="fill:#EBA7AC;" d="M475.391,129.018h-10.496l-3.259,1.432c-5.433,2.386-8.941,7.759-8.941,13.693v28.621
					c0,1.652,1.339,2.991,2.991,2.991H484.6c1.652,0,2.991-1.339,2.991-2.991v-28.621c0-5.934-3.508-11.307-8.941-13.693
					L475.391,129.018z"/>
				<rect x="464.895" y="125.84" style="fill:#5195A8;" width="10.496" height="3.178"/>
				<rect x="464.098" y="118.237" style="fill:#6CA8BC;" width="12.089" height="7.602"/>
				<path style="fill:#94CBCA;" d="M464.098,118.237h12.089l0,0c0-1.79-1.451-3.241-3.24-3.241h-5.608
					C465.549,114.996,464.098,116.447,464.098,118.237L464.098,118.237z"/>
				<path style="fill:#5195A8;" d="M464.098,120.293h-4.834c-1.813,0-3.551,0.72-4.833,2.002l-0.522,0.522l1.558,1.558l0,0
					c1.282-1.282,3.02-2.002,4.833-2.002h3.798V120.293z"/>
			</g>
			<g>
				<circle style="fill:#FFFFFF;" cx="470.143" cy="152.987" r="13.959"/>
				<g>
					<g>
						<path style="fill:#F6DCC5;" d="M477.606,161.532v-3.706v-0.796h-2.182h-1.145h-2.032v0.992v3.51c0,0.425,1.2,0.769,2.68,0.769
							S477.606,161.956,477.606,161.532z"/>
						<path style="fill:#F6DCC5;" d="M471.002,151.113h7.715v3.457c0,2.131-1.727,3.858-3.858,3.858l0,0
							c-2.13,0-3.858-1.727-3.858-3.858V151.113z"/>
						<path style="fill:#F6DCC5;" d="M471.002,151.113v-4.785c0-0.385,0.312-0.697,0.697-0.697l0,0c0.365,0,0.668,0.281,0.695,0.645
							l0.361,4.837H471.002z"/>
						<path style="fill:#F6DCC5;" d="M473.064,145.148l-0.095,5.965h1.891l-0.356-5.996c-0.023-0.381-0.338-0.678-0.719-0.678l0,0
							C473.391,144.439,473.07,144.755,473.064,145.148z"/>
						<path style="fill:#F6DCC5;" d="M475.26,144.387l-0.209,6.726h1.762l-0.08-6.712c-0.005-0.403-0.333-0.728-0.736-0.728l0,0
							C475.598,143.674,475.272,143.99,475.26,144.387z"/>
						<path style="fill:#F6DCC5;" d="M477.342,145.423l-0.352,5.69h1.726v-5.648c0-0.38-0.308-0.688-0.688-0.688l0,0
							C477.665,144.777,477.365,145.06,477.342,145.423z"/>
						<path style="fill:#F6DCC5;" d="M477.487,157.394l4.374-4.923c0.31-0.349,0.284-0.881-0.058-1.199l0,0
							c-0.341-0.316-0.871-0.303-1.197,0.029l-2.602,2.66L477.487,157.394z"/>
						<g>
							<g>
								<path style="fill:#F0BF9C;" d="M477.766,153.279c-0.433-0.084-0.964-0.078-1.505,0.07c-0.54,0.145-1.085,0.431-1.532,0.837
									c-0.447,0.406-0.784,0.922-0.979,1.445c-0.199,0.524-0.256,1.052-0.213,1.491c0.098-0.431,0.255-0.904,0.501-1.361
									c0.244-0.458,0.574-0.899,0.975-1.263c0.401-0.364,0.872-0.651,1.351-0.85C476.842,153.447,477.327,153.335,477.766,153.279
									z"/>
							</g>
							<g>
								<path style="fill:#F0BF9C;" d="M477.222,152.026c-0.727,0.033-1.658,0.125-2.589,0.209
									c-0.931,0.086-1.863,0.163-2.585,0.262c0.716,0.132,1.67,0.171,2.616,0.083C475.61,152.495,476.542,152.286,477.222,152.026
									z"/>
							</g>
							<g>
								<path style="fill:#F0BF9C;" d="M475.63,153.023c-0.818,0.036-2.101,0.301-2.866,0.592
									C473.581,153.579,474.865,153.314,475.63,153.023z"/>
							</g>
						</g>
					</g>
					<g>
						<path style="fill:#F6DCC5;" d="M462.681,161.532v-3.706v-0.796h2.182h1.145h2.032v0.992v3.51c0,0.425-1.2,0.769-2.68,0.769
							C463.88,162.301,462.681,161.956,462.681,161.532z"/>
						<path style="fill:#F6DCC5;" d="M469.285,151.113h-7.715v3.457c0,2.131,1.727,3.858,3.858,3.858l0,0
							c2.13,0,3.858-1.727,3.858-3.858V151.113z"/>
						<path style="fill:#F6DCC5;" d="M469.285,151.113v-4.785c0-0.385-0.312-0.697-0.697-0.697l0,0
							c-0.365,0-0.668,0.281-0.695,0.645l-0.361,4.837H469.285z"/>
						<path style="fill:#F6DCC5;" d="M467.223,145.148l0.095,5.965h-1.891l0.356-5.996c0.023-0.381,0.338-0.678,0.719-0.678l0,0
							C466.895,144.439,467.216,144.755,467.223,145.148z"/>
						<path style="fill:#F6DCC5;" d="M465.026,144.387l0.209,6.726h-1.762l0.08-6.712c0.005-0.403,0.333-0.728,0.736-0.728l0,0
							C464.688,143.674,465.014,143.99,465.026,144.387z"/>
						<path style="fill:#F6DCC5;" d="M462.944,145.423l0.352,5.69h-1.726v-5.648c0-0.38,0.308-0.688,0.688-0.688l0,0
							C462.621,144.777,462.922,145.06,462.944,145.423z"/>
						<path style="fill:#F6DCC5;" d="M462.799,157.394l-4.374-4.923c-0.31-0.349-0.284-0.881,0.058-1.199l0,0
							c0.341-0.316,0.871-0.303,1.197,0.029l2.602,2.66L462.799,157.394z"/>
						<g>
							<g>
								<path style="fill:#F0BF9C;" d="M462.521,153.279c0.433-0.084,0.964-0.078,1.504,0.07c0.54,0.145,1.085,0.431,1.532,0.837
									c0.447,0.406,0.783,0.922,0.979,1.445c0.199,0.524,0.256,1.052,0.213,1.491c-0.098-0.431-0.255-0.904-0.501-1.361
									c-0.244-0.458-0.574-0.899-0.975-1.263c-0.401-0.364-0.872-0.651-1.351-0.85
									C463.445,153.447,462.959,153.335,462.521,153.279z"/>
							</g>
							<g>
								<path style="fill:#F0BF9C;" d="M463.064,152.026c0.727,0.033,1.658,0.125,2.589,0.209c0.931,0.086,1.863,0.163,2.585,0.262
									c-0.716,0.132-1.67,0.171-2.616,0.083C464.676,152.495,463.744,152.286,463.064,152.026z"/>
							</g>
							<g>
								<path style="fill:#F0BF9C;" d="M464.656,153.023c0.818,0.036,2.101,0.301,2.866,0.592
									C466.705,153.579,465.421,153.314,464.656,153.023z"/>
							</g>
						</g>
					</g>
				</g>
			</g>
		</g>
		<g>
			<g>
				<polygon style="fill:#5DABFF;" points="636.564,271.89 567.361,271.89 567.361,182.167 601.237,174.691 636.564,182.167 				"/>
				<g>
					<g>
						<path style="fill:#5297F4;" d="M626.487,213.121c-3.561-0.645-7.597-1.388-11.827-2.378
							c-4.231-0.985-8.653-2.215-12.998-3.682c-4.342-1.474-8.603-3.183-12.562-4.97c-3.962-1.782-7.62-3.644-10.841-5.294
							c2.538,2.572,5.814,5.219,9.628,7.571c3.809,2.357,8.149,4.416,12.671,5.951c4.525,1.528,9.223,2.528,13.681,2.969
							C618.698,213.736,622.908,213.623,626.487,213.121z"/>
					</g>
					<g>
						<path style="fill:#5297F4;" d="M615.593,220.424c-4.344-0.178-9.914-0.193-15.48-0.392c-5.567-0.179-11.125-0.542-15.471-0.66
							c4.087,1.472,9.718,2.544,15.401,2.726C605.725,222.302,611.415,221.615,615.593,220.424z"/>
					</g>
					<g>
						<path style="fill:#5297F4;" d="M623.095,229.251c-3.012,1.291-6.36,3.002-9.978,4.446c-3.605,1.451-7.548,2.556-11.493,2.615
							c-3.939,0.11-7.708-1.151-11.051-3.075c-3.344-1.906-6.295-4.237-8.96-6.137c1.936,2.632,4.361,5.572,7.675,8.09
							c1.662,1.237,3.549,2.373,5.672,3.127c2.111,0.78,4.436,1.149,6.708,1.112c4.571-0.069,8.899-1.619,12.456-3.622
							C617.707,233.799,620.641,231.415,623.095,229.251z"/>
					</g>
					<g>
						<path style="fill:#5297F4;" d="M603.269,247.64c-4.538-2.228-10.288-5.128-15.695-8.609
							c-5.428-3.449-10.472-7.452-14.398-10.638c2.723,4.253,7.47,9.089,13.103,12.663
							C591.885,244.671,598.266,246.952,603.269,247.64z"/>
					</g>
					<g>
						<path style="fill:#5297F4;" d="M627.339,230.378c-3.334,2.701-7.815,5.805-12.766,8.004
							c-4.933,2.241-10.229,3.528-14.463,4.226c2.121,0.315,4.637,0.35,7.283-0.032c2.645-0.375,5.413-1.165,8.017-2.332
							c2.601-1.171,5.03-2.715,7.068-4.444C624.52,234.077,626.165,232.173,627.339,230.378z"/>
					</g>
				</g>
			</g>
			<g>
				<polygon style="fill:#5297F4;" points="592.964,172.01 610.454,172.01 604.869,184.609 598.549,184.609 				"/>
				<g>
					<path style="fill:#F0BF9C;" d="M594.102,174.577v1.688l7.607,14.273l7.607-14.138v-17.649
						c-0.702,3.809-2.271,7.435-4.833,10.317C601.828,172.057,598.033,174.103,594.102,174.577z"/>
					<path style="fill:#422C4F;" d="M594.102,158.577v16c3.931-0.473,7.727-2.52,10.382-5.508c2.561-2.883,4.131-6.508,4.833-10.317
						v-0.175H594.102z"/>
				</g>
				<g>
					<g>
						<path style="fill:#EBA588;" d="M583.117,153.53c0,3.044-2.468,5.512-5.512,5.512s-5.512-2.468-5.512-5.512
							c0-3.044,2.468-5.512,5.512-5.512S583.117,150.486,583.117,153.53z"/>
						<path style="fill:#E78882;" d="M580.876,153.53c0,1.806-1.464,3.271-3.271,3.271c-1.807,0-3.271-1.465-3.271-3.271
							c0-1.806,1.464-3.271,3.271-3.271C579.412,150.259,580.876,151.723,580.876,153.53z"/>
					</g>
					<path style="fill:#F0BF9C;" d="M594.617,125.715L594.617,125.715c-9.395,0-17.011,7.616-17.011,17.011v10.584
						c0,9.395,7.616,17.011,17.011,17.011h0c9.395,0,17.011-7.616,17.011-17.011v-10.584
						C611.628,133.331,604.011,125.715,594.617,125.715z"/>
					<g>
						<path style="fill:#6A3649;" d="M596.096,139.747c-2.016-0.014-3.809,0.939-4.953,2.42l9.872,0.067
							C599.891,140.738,598.112,139.761,596.096,139.747z"/>
					</g>
					<g>
						<path style="fill:#6A3649;" d="M581.918,139.747c-1.755-0.014-3.316,0.939-4.313,2.42l8.596,0.067
							C585.223,140.738,583.673,139.761,581.918,139.747z"/>
					</g>
					<path style="fill:#EBA588;" d="M591.143,154.458h-5.232c0.402,0.683,0.851,1.408,1.547,1.787
						c0.669,0.364,1.504,0.408,2.208,0.117C590.371,156.07,590.926,155.188,591.143,154.458z"/>
					<path style="fill:#FFFFFF;" d="M597.761,158.577c-4.574,1.092-9.327,1.428-14.009,0.992c0.674,1.205,1.565,2.625,2.631,3.502
						c1.066,0.877,2.384,1.485,3.763,1.555c1.672,0.086,3.317-0.626,4.606-1.694C596.041,161.865,596.932,160.031,597.761,158.577z"
						/>
					<g>
						<path style="fill:#7A4259;" d="M575.677,130.895c0.976-2.008,2.696-3.553,4.495-4.875c6.141-4.511,13.737-7.007,21.357-7.017
							c1.403-0.002,2.842,0.086,4.129,0.645c1.188,0.516,2.225,1.508,2.555,2.747c0.078-2.259-1.344-4.677-3.5-5.208
							c-2.954-0.727-6.141-0.826-9.159-0.556c-6.032,0.54-11.925,2.834-16.628,6.67c-1.856,1.514-3.594,3.352-4.242,5.658
							c-0.507,1.805-0.271,3.664,0.275,5.424C574.897,133.196,575.156,131.967,575.677,130.895z"/>
						<path style="fill:#7A4259;" d="M618.257,129.698c-0.462-2.255-1.633-4.446-3.553-5.716c-1.633-1.08-4.05-1.432-5.863-0.657
							c2.652-0.122,5.195,1.563,6.642,3.816c1.516,2.361,2.026,5.225,2.251,8.021c0.105,1.295,0.14,2.595,0.137,3.894
							c0.14-0.826,0.267-1.654,0.375-2.485C618.543,134.29,618.719,131.954,618.257,129.698z"/>
						<path style="fill:#6A3649;" d="M615.483,127.142c-1.447-2.253-3.99-3.937-6.642-3.816c-0.319,0.136-0.625,0.297-0.898,0.506
							c0.168-0.457,0.254-0.943,0.271-1.437c-0.33-1.238-1.367-2.23-2.555-2.747c-1.287-0.559-2.725-0.647-4.129-0.645
							c-7.62,0.01-15.216,2.506-21.357,7.017c-1.799,1.322-3.519,2.866-4.495,4.875c-0.521,1.073-0.78,2.301-0.718,3.489
							c0.113,0.363,0.233,0.724,0.369,1.077c0.607,1.582,1.039,2.874,2.364,5.53c0.088-1.735,1.48-5.291,1.48-5.291
							c3.096,2.318,7.388,2.496,11.099,1.405c3.71-1.091,6.979-3.293,10.18-5.463l2.631,8.891c0.325,1.098,1.034,2.042,1.998,2.661
							c1.367,0.877,2.194,2.39,2.194,4.014v2.676c0,1.98,1.209,3.758,3.05,4.487l1.233,0.488l1.665-0.292
							c2.181-4.951,3.743-10.174,4.648-15.508c0.003-1.299-0.032-2.599-0.137-3.894
							C617.508,132.366,616.999,129.503,615.483,127.142z"/>
					</g>
					<g>
						<polygon style="fill:#E1E1E1;" points="603.629,156.795 603.155,155.916 613.691,150.819 614.165,151.697 						"/>
					</g>
					<g>
						
							<rect x="599.722" y="160.541" transform="matrix(0.7183 -0.6958 0.6958 0.7183 59.1534 468.1692)" style="fill:#E1E1E1;" width="15.919" height="0.999"/>
					</g>
					<g>
						<path style="fill:#F0BF9C;" d="M620.34,153.53c0,3.044-2.468,5.512-5.512,5.512c-3.044,0-5.512-2.468-5.512-5.512
							c0-3.044,2.468-5.512,5.512-5.512C617.872,148.018,620.34,150.486,620.34,153.53z"/>
						<path style="fill:#EBA588;" d="M618.099,153.53c0,1.806-1.464,3.271-3.271,3.271c-1.806,0-3.271-1.465-3.271-3.271
							c0-1.806,1.464-3.271,3.271-3.271C616.635,150.259,618.099,151.723,618.099,153.53z"/>
					</g>
					<g>
						<path style="fill:#FFFFFF;" d="M591.342,151.464c-1.587-0.339-3.23-0.259-4.781,0.231l-8.956,2.831v1.498
							c0,0.273,0.025,0.54,0.039,0.809l8.916-2.818c1.551-0.49,3.193-0.569,4.781-0.231l14.35,3.061v-2.32L591.342,151.464z"/>
						<path style="fill:#7BC1BA;" d="M586.561,154.015l-8.916,2.818c0.405,8.051,6.76,14.455,14.562,14.455h1.051l0,0
							c6.867,0,12.434-5.819,12.434-12.998v-1.444l-14.35-3.061C589.754,153.446,588.112,153.525,586.561,154.015z"/>
					</g>
					<g>
						<path style="fill:#422C4F;" d="M596.121,145.314c-1.418-0.033-2.552,0.919-2.788,2.024c1.744-0.673,3.778-0.632,5.492,0.112
							C598.633,146.337,597.54,145.339,596.121,145.314z"/>
					</g>
					<g>
						<path style="fill:#422C4F;" d="M582.307,145.314c1.34-0.033,2.411,0.919,2.635,2.024c-1.647-0.673-3.569-0.632-5.189,0.112
							C579.933,146.337,580.967,145.339,582.307,145.314z"/>
					</g>
				</g>
				<polygon style="fill:#6BC5FF;" points="598.549,184.609 592.964,172.01 591.138,178.073 593.525,193.622 				"/>
				<polygon style="fill:#6BC5FF;" points="604.869,184.609 610.454,172.01 612.279,178.073 609.893,193.622 				"/>
				<polygon style="fill:#E4737B;" points="598.549,184.609 601.709,190.538 600.129,191.351 597.157,187.105 				"/>
				<polygon style="fill:#E4737B;" points="604.869,184.609 601.709,190.538 603.289,191.351 606.26,187.105 				"/>
				<polygon style="fill:#E4737B;" points="598.045,188.374 605.372,188.374 603.985,194.038 599.712,194.038 				"/>
				<path style="fill:#E4737B;" d="M599.712,194.038c-1.055,21.006-3.594,42.05-5.801,62.966l7.791,7.284l6.073-7l-3.79-63.25
					H599.712z"/>
			</g>
			<polygon style="fill:#E1E1E1;" points="599.967,293.357 591.905,336.333 604.68,336.333 			"/>
			<g>
				<path style="fill:#454F6B;" d="M631.656,360.411l4.907-88.521h-36.597h-32.606l-6.316,78.396
					c-0.29,3.595-0.353,7.205-0.189,10.808l6.716,80.971h20.37l0.014-84.671l12.012-64.036l16.308,148.707H636.9L631.656,360.411z"
					/>
				<polygon style="fill:#422C4F;" points="567.361,271.89 636.564,271.89 636.206,278.349 566.84,278.349 				"/>
				<g>
					<path style="fill:#FFFFFF;" d="M548.039,456.676c-0.978,1.204-1.788,2.558-2.385,4.032l-0.108,0.266h44.05l-1.026-4.298
						H548.039z"/>
					<path style="fill:#422C4F;" d="M585.084,442.064h-15.471l-5.162,5.034c-2.1,2.048-4.727,3.471-7.589,4.113
						c-3.516,0.788-6.606,2.739-8.822,5.466h40.532L585.084,442.064z"/>
				</g>
				<g>
					<path style="fill:#422C4F;" d="M634.393,442.064h-15.471l-5.162,5.034c-2.1,2.048-4.727,3.471-7.589,4.113
						c-3.516,0.788-6.606,2.739-8.822,5.466h40.532L634.393,442.064z"/>
					<path style="fill:#FFFFFF;" d="M597.348,456.676c-0.978,1.204-1.788,2.558-2.385,4.032l-0.108,0.266h44.05l-1.026-4.298
						H597.348z"/>
				</g>
				<polygon style="fill:#422C4F;" points="588.288,271.89 580.213,344.796 561.487,344.796 567.361,271.89 				"/>
				<polygon style="fill:#422C4F;" points="611.646,271.89 615.593,344.796 632.522,344.796 636.564,271.89 				"/>
			</g>
			<g>
				<path style="fill:#FFFFFF;" d="M585.911,178.073l5.349,54.388c0.75,7.628,0.567,15.319-0.546,22.903l-12.538,85.421h-25.323
					l11.174-94.26l-1.719-64.801L585.911,178.073z"/>
				<path style="fill:#E1E1E1;" d="M585.911,178.073l-12.384,17.407c-0.924,1.299-0.46,3.117,0.974,3.814l4.335,2.106l-5.221,6.419
					c-0.775,0.953-0.77,2.32,0.011,3.268l17.634,21.374L585.911,178.073z"/>
				<path style="fill:#FFFFFF;" d="M585.911,178.073l-9.502,15.574c-0.799,1.31-0.285,3.023,1.103,3.676l4.706,2.215l-5.115,7.018
					c-0.63,0.864-0.661,2.026-0.079,2.923l14.113,21.743L585.911,178.073z"/>
			</g>
			<g>
				<path style="fill:#FFFFFF;" d="M617.218,178.073l-6.752,55.552c-0.765,6.292-0.893,12.645-0.382,18.962l7.134,88.198h27.602
					l-6.647-95.979l2.063-61.885L617.218,178.073z"/>
				<path style="fill:#E1E1E1;" d="M610.466,233.624l6.752-55.552l11.284,19.56c0.786,1.363,0.179,3.105-1.283,3.685l-3.457,1.371
					l3.917,4.231c0.843,0.911,0.918,2.293,0.178,3.289L610.466,233.624z"/>
				<path style="fill:#FFFFFF;" d="M610.758,231.221l6.46-53.148l8.625,17.791c0.659,1.359,0.013,2.992-1.398,3.533l-4.105,1.573
					l4.162,5.01c0.712,0.857,0.793,2.074,0.201,3.018L610.758,231.221z"/>
				<polygon style="fill:#E1E1E1;" points="639.743,194.458 634.025,238.038 610.466,259.071 637.843,238.881 				"/>
				<polygon style="fill:#E1E1E1;" points="638.851,254.593 612.008,276.368 613.201,291.114 639.302,261.108 				"/>
			</g>
			<g>
				<path style="fill:#E1E1E1;" d="M525.348,201.829l2.11-1.545c3.746-2.743,8.517-3.677,13.021-2.552l2.632,0.658l-6.733,8.38
					L525.348,201.829z"/>
				<path style="fill:#FFFFFF;" d="M562.307,181.724L562.307,181.724c-4.53,2.549-7.822,6.837-9.115,11.871l-11.906,46.365
					c-0.782,3.045,0.587,6.234,3.334,7.764l0,0c5.221,2.909,11.777,0.044,13.19-5.763l5.495-22.589L562.307,181.724z"/>
				<path style="fill:#FFFFFF;" d="M544.62,247.724l-1.61-0.897c-1.963-1.094-3.449-2.879-4.168-5.009l-13.495-39.989l6.316,1.679
					c2.679,0.712,5.536,0.046,7.623-1.777l3.824-3.339l14.699,43.57l0,0C556.397,247.768,549.841,250.633,544.62,247.724z"/>
				<path style="fill:#E1E1E1;" d="M548.136,213.286l3.731,6.355c3.892,6.629,5.943,14.176,5.943,21.862v0.459L548.136,213.286z"/>
				<g>
					<path style="fill:#F0BF9C;" d="M539.48,201.563l-1-7.105l1.324-12.971l-2.678-12.936l0,0c-1.556,0-2.759,1.365-2.564,2.909
						l0.985,7.771l-3.045-9.588l-6.28,1.727c-1.458,0.401-2.236,1.987-1.66,3.386l2.864,6.956l-0.291,5.18
						c-0.173,3.085,1.003,6.093,3.224,8.242l0,0l1.305,8.374l0,0c2.679,0.712,5.536,0.046,7.623-1.777L539.48,201.563z"/>
					<path style="fill:#EBA588;" d="M539.429,185.16l-6.919-7.97l0,0c-1.039,1.531-1.052,3.537-0.033,5.082l1.609,2.439l-0.355,0.79
						c-1.035,2.299-0.93,4.951,0.284,7.161l0,0l4.465,1.796L539.429,185.16z"/>
				</g>
				<path style="fill:#E1E1E1;" d="M563.305,219.372l-0.661-24.914l0,0c-2.303,8.221-2.926,16.821-1.832,25.287l0.833,6.451
					L563.305,219.372z"/>
			</g>
			<g>
				<path style="fill:#C4C4C4;" d="M603.391,264.288l0.995,5.381c0.41,2.217,1.652,4.193,3.472,5.524l6.969,5.095l-1.041-7.359
					c-0.467-3.305-2.758-6.064-5.921-7.131L603.391,264.288z"/>
				<path style="fill:#FFFFFF;" d="M640.236,182.92L640.236,182.92c6.045,3.53,9.85,9.921,10.073,16.917l1.249,39.152
					c0.138,4.321-1.595,8.491-4.755,11.442l-31.975,29.857l-1.041-7.359c-0.467-3.305-2.758-6.064-5.921-7.131l-4.474-1.509
					l34.452-25.407L640.236,182.92z"/>
				<g>
					<path style="fill:#F0BF9C;" d="M604.561,266.467l-4.444,2.154h-12.974c-1.058,0-2.039,0.55-2.592,1.452l-3.185,5.201
						c-0.306,0.499-0.468,1.074-0.468,1.659v5.479c1.706,0.609,3.5-0.655,3.5-2.467v-1.783l2.25-3.624l-1,4.249l0.668,6.525
						l4.354,1.789c1.924,0.791,4.022-0.669,3.95-2.747l-0.097-2.816l1.125-2.625l2.099,0.303c2.428,0.351,4.85-0.682,6.276-2.678
						l5.872-2.171c-0.143-1.369-0.438-2.713-1.016-3.957C608.034,268.585,606.477,267.008,604.561,266.467z"/>
					<path style="fill:#EBA588;" d="M607.866,265.798l-1.134-0.383l-2.17,1.052c1.915,0.54,3.472,2.118,4.32,3.943
						c0.578,1.244,0.872,2.588,1.016,3.957l3.89-1.438C613.32,269.624,611.029,266.865,607.866,265.798z"/>
				</g>
			</g>
		</g>
		<g>
			<g>
				<path style="fill:#454F6B;" d="M330.148,360.411l-4.907-88.521h36.597h32.606l19.781,72.906
					c0.29,3.595,16.186,69.177,16.186,69.177l-24.437,10.739l-13.637-69.06l-30.499-62.295l-10.606,136.536h-27.601L330.148,360.411
					z"/>
				<polygon style="fill:#422C4F;" points="394.444,271.89 325.241,271.89 325.599,278.349 394.965,278.349 				"/>
				<polygon style="fill:#797C99;" points="321.855,442.064 351.795,442.064 352.433,429.894 322.493,429.894 				"/>
				<g>
					<path style="fill:#FFFFFF;" d="M454.845,427.012c1.447,0.56,2.821,1.335,4.071,2.318l0.225,0.177l-38.252,21.844l-1.241-4.241
						L454.845,427.012z"/>
					<path style="fill:#CC6164;" d="M415.43,432.694l13.435-7.672l6.979,1.811c2.839,0.737,5.827,0.67,8.63-0.192
						c3.443-1.059,7.095-0.898,10.371,0.372l-35.197,20.1L415.43,432.694z"/>
				</g>
				<g>
					<path style="fill:#CC6164;" d="M327.412,442.064h15.471l5.162,5.034c2.1,2.048,4.727,3.471,7.589,4.113
						c3.516,0.788,6.606,2.739,8.822,5.466h-40.532L327.412,442.064z"/>
					<path style="fill:#FFFFFF;" d="M364.457,456.676c0.978,1.204,1.788,2.558,2.385,4.032l0.108,0.266H322.9l1.025-4.298H364.457z"
						/>
				</g>
				<polygon style="fill:#797C99;" points="407.452,437.032 436.263,424.371 432.598,413.011 403.787,425.673 				"/>
			</g>
			<g>
				<path style="fill:#CC6164;" d="M384.2,180.585L384.2,180.585c6.452,2.175,11.512,7.249,13.668,13.708l3.17,9.495h-14.235
					L384.2,180.585z"/>
				<path style="fill:#CC6164;" d="M325.241,271.89h69.203L384.2,180.585l-23.631-5.895l-11.449,2.423
					c-13.92,2.946-23.878,15.232-23.878,29.46V271.89z"/>
				<path style="opacity:0.2;fill:#422C4F;" d="M386.803,203.788l-1.848-16.474l0,0c2.636,3.219,4.636,6.91,5.892,10.877
					l1.772,5.597H386.803z"/>
				<g style="opacity:0.2;">
					<g>
						<path style="fill:#422C4F;" d="M370.317,181.285c-1.296,0.947-2.857,1.866-4.623,2.53c-1.762,0.668-3.721,1.08-5.688,1.112
							c-1.967,0.028-3.938-0.324-5.719-0.937c-1.786-0.609-3.374-1.48-4.699-2.387c0.971,1.275,2.429,2.542,4.255,3.442
							c1.817,0.907,3.993,1.442,6.186,1.408c2.193-0.034,4.352-0.635,6.14-1.597C367.967,183.9,369.386,182.589,370.317,181.285z"/>
					</g>
					<g>
						<path style="fill:#422C4F;" d="M350.341,199.266c2.078,0.627,4.631,0.962,7.352,0.783c2.719-0.17,5.592-0.851,8.265-2.009
							c2.67-1.164,5.128-2.8,7.108-4.672c1.988-1.867,3.484-3.962,4.444-5.909c-1.526,1.552-3.339,3.206-5.434,4.715
							c-2.089,1.513-4.452,2.882-6.942,3.969c-2.494,1.079-5.107,1.872-7.639,2.367C354.963,199.012,352.517,199.21,350.341,199.266
							z"/>
					</g>
					<g>
						<path style="fill:#422C4F;" d="M377.57,209.905c-5.312-0.488-12.007-1.529-18.393-3.697
							c-6.402-2.117-12.373-5.321-16.906-8.133c1.725,2.031,4.034,4.132,6.794,5.976c2.754,1.848,5.951,3.435,9.306,4.563
							c3.357,1.122,6.865,1.782,10.176,1.967C371.86,210.772,374.969,210.486,377.57,209.905z"/>
					</g>
					<g>
						<path style="fill:#422C4F;" d="M383.052,234.665c-3.31,1.925-7.163,3.89-11.427,5.455c-4.257,1.573-8.914,2.747-13.645,3.298
							c-4.732,0.546-9.533,0.468-14.038-0.09c-4.509-0.549-8.71-1.58-12.372-2.698c3.123,2.206,7.202,4.186,11.858,5.38
							c4.646,1.206,9.852,1.618,14.97,1.025c5.118-0.593,10.092-2.185,14.339-4.421
							C376.998,240.387,380.516,237.526,383.052,234.665z"/>
					</g>
					<g>
						<path style="fill:#422C4F;" d="M377.695,243.521c-5.834,2.609-12.926,6.886-20.505,9.397c-3.772,1.241-7.698,1.989-11.44,2.1
							c-3.745,0.126-7.287-0.439-10.324-1.439c2.562,1.904,6.201,3.332,10.239,3.716c4.035,0.41,8.401-0.146,12.478-1.492
							c4.07-1.347,7.827-3.383,11.098-5.578C372.517,248.024,375.343,245.679,377.695,243.521z"/>
					</g>
				</g>
			</g>
			<g>
				<g>
					<path style="fill:#EBA58E;" d="M357.322,169.069c2.655,2.988,6.451,5.034,10.382,5.508v4.258l0,0
						c-4.34,3.851-10.874,3.851-15.215,0l0,0v-20.083C353.191,162.561,354.76,166.186,357.322,169.069z"/>
					<path style="fill:#422C4F;" d="M357.322,169.069c-2.561-2.883-4.13-6.508-4.833-10.317v-0.175h15.215v16
						C363.772,174.103,359.977,172.057,357.322,169.069z"/>
				</g>
				<g>
					<g>
						<path style="fill:#EBA588;" d="M378.688,153.53c0,3.044,2.468,5.512,5.512,5.512c3.044,0,5.512-2.468,5.512-5.512
							c0-3.044-2.468-5.512-5.512-5.512C381.155,148.018,378.688,150.486,378.688,153.53z"/>
						<path style="fill:#E78882;" d="M380.929,153.53c0,1.806,1.464,3.271,3.271,3.271c1.806,0,3.271-1.465,3.271-3.271
							c0-1.806-1.464-3.271-3.271-3.271C382.393,150.259,380.929,151.723,380.929,153.53z"/>
					</g>
					<path style="fill:#EBA58E;" d="M367.189,125.715L367.189,125.715c9.395,0,17.011,7.616,17.011,17.011v10.584
						c0,9.395-7.616,17.011-17.011,17.011l0,0c-9.395,0-17.011-7.616-17.011-17.011v-10.584
						C350.177,133.331,357.794,125.715,367.189,125.715z"/>
					<path style="fill:#8C404C;" d="M348.839,156.218l2.687-1.26c2.629-1.232,4.308-3.874,4.308-6.777v-2.67
						c0-1.439,0.572-2.819,1.589-3.836l0,0c1.018-1.018,1.589-2.398,1.589-3.837v-6.331c0,0,15.061-0.788,20.961,0
						c1.66,0.222,3.229,0.035,4.768-0.625c1.539-0.66,2.829-1.883,3.572-3.383c0.5-1.011,0.751-2.216,0.347-3.269
						c-0.559-1.458-2.245-2.229-3.806-2.199c-1.561,0.03-3.032,0.693-4.446,1.355c1.124-1.429,1.707-3.089,1.105-4.705
						c-0.602-1.616-2.402-2.693-4.111-2.459c-2.025,0.276-3.461,2.058-5.242,3.06c-2.739,1.54-6.13,1.149-9.201,0.481
						c-3.071-0.668-6.23-1.572-9.304-0.916c-4.478,0.955-7.727,5.151-8.782,9.606c-1.054,4.456-0.291,9.134,0.796,13.582
						C346.756,146.482,348.586,151.646,348.839,156.218z"/>
					<path style="fill:#A35564;" d="M374.124,119.451c-1.296,1.038-2.62,2.102-4.185,2.655c-2.166,0.766-4.56,0.473-6.797-0.047
						c-2.238-0.52-4.447-1.262-6.742-1.374c-3.42-0.168-6.888,1.15-9.334,3.547c-0.443,0.434-0.838,0.912-1.209,1.409
						c1.534-3.299,4.285-6.045,7.798-6.794c3.073-0.656,6.233,0.248,9.304,0.916c3.071,0.668,6.462,1.059,9.201-0.481
						c1.781-1.001,3.217-2.783,5.242-3.06c0.72-0.098,1.452,0.047,2.108,0.356c-0.402,0.048-0.799,0.135-1.177,0.261
						C376.757,117.361,375.42,118.413,374.124,119.451z"/>
					<g>
						<path style="fill:#8C404C;" d="M365.709,139.747c2.016-0.014,3.809,0.939,4.953,2.42l-9.872,0.067
							C361.914,140.738,363.693,139.761,365.709,139.747z"/>
					</g>
					<path style="fill:#422C4F;" d="M364.263,146.751c0,0.808,0.655,1.462,1.462,1.462c0.808,0,1.463-0.655,1.463-1.462
						c0-0.808-0.655-1.463-1.463-1.463C364.918,145.289,364.263,145.943,364.263,146.751z"/>
					<g>
						<path style="fill:#8C404C;" d="M379.887,139.747c1.755-0.014,3.316,0.939,4.313,2.42l-8.596,0.067
							C376.582,140.738,378.132,139.761,379.887,139.747z"/>
					</g>
					<path style="fill:#422C4F;" d="M378.628,146.751c0,0.808,0.57,1.462,1.274,1.462c0.703,0,1.273-0.655,1.273-1.462
						c0-0.808-0.57-1.463-1.273-1.463C379.198,145.289,378.628,145.943,378.628,146.751z"/>
					<path style="fill:#E78882;" d="M370.662,154.458h5.232c-0.402,0.683-0.851,1.408-1.547,1.787
						c-0.67,0.364-1.504,0.408-2.208,0.117C371.434,156.07,370.879,155.188,370.662,154.458z"/>
					<path style="fill:#FFFFFF;" d="M364.044,158.577c4.574,1.092,9.327,1.428,14.009,0.992c-0.674,1.205-1.565,2.625-2.631,3.502
						s-2.384,1.485-3.763,1.555c-1.672,0.086-3.317-0.626-4.606-1.694C365.764,161.865,364.872,160.031,364.044,158.577z"/>
					<g>
						<polygon style="fill:#E1E1E1;" points="358.871,155.77 359.346,154.891 348.81,149.794 348.335,150.673 						"/>
					</g>
					<g>
						
							<rect x="354.32" y="152.057" transform="matrix(0.6958 -0.7183 0.7183 0.6958 -6.9852 303.5414)" style="fill:#E1E1E1;" width="0.999" height="15.919"/>
					</g>
					<g>
						<path style="fill:#FFFFFF;" d="M371.159,150.44c1.587-0.339,3.23-0.259,4.781,0.231l8.956,2.831v1.498
							c0,0.273-0.026,0.54-0.039,0.809l-8.917-2.818c-1.551-0.49-3.194-0.569-4.781-0.231l-14.35,3.061v-2.32L371.159,150.44z"/>
						<path style="fill:#7BC1BA;" d="M375.94,152.991l8.917,2.818c-0.405,8.051-6.76,14.455-14.562,14.455h-1.051h0
							c-6.867,0-12.434-5.819-12.434-12.998v-1.444l14.35-3.061C372.746,152.421,374.389,152.501,375.94,152.991z"/>
					</g>
					<g>
						<path style="fill:#EBA58E;" d="M341.465,153.53c0,3.044,2.468,5.512,5.512,5.512c3.044,0,5.512-2.468,5.512-5.512
							c0-3.044-2.468-5.512-5.512-5.512C343.933,148.018,341.465,150.486,341.465,153.53z"/>
						<path style="fill:#E78882;" d="M343.706,153.53c0,1.806,1.465,3.271,3.271,3.271c1.806,0,3.271-1.465,3.271-3.271
							c0-1.806-1.464-3.271-3.271-3.271C345.17,150.259,343.706,151.723,343.706,153.53z"/>
					</g>
				</g>
			</g>
			<path style="fill:#EBA58E;" d="M431.267,276.538h-4.817c-3.298,0-6.341-1.776-7.963-4.648l0,0h20.375l0,0
				C437.404,274.743,434.471,276.538,431.267,276.538z"/>
			<g>
				<g>
					<rect x="362.335" y="200.988" style="fill:#F4D071;" width="51.89" height="70.902"/>
					<rect x="414.225" y="200.988" style="fill:#E8916A;" width="51.89" height="70.902"/>
				</g>
				<rect x="381.363" y="200.988" style="fill:#FDF7E7;" width="13.833" height="22.302"/>
				<rect x="436.673" y="200.988" style="fill:#FBEED1;" width="10.764" height="22.302"/>
			</g>
			<g>
				<path style="opacity:0.2;fill:#422C4F;" d="M329.156,192.118L329.156,192.118c-2.003,4.85-2.175,10.263-0.485,15.231
					l9.04,26.576c3.142,9.238,10.103,16.68,19.109,20.434l33.024,13.763l2.774-5.809l-35.809-25.874L329.156,192.118z"/>
				<g>
					<path style="fill:#EBA58E;" d="M361.458,232.907l-15.519-39.782c-2.038-5.225-7.808-7.425-12.603-4.516
						c-3.755,2.278-5.162,6.907-3.471,10.822l15.799,36.592c2.066,4.784,5.575,8.804,10.037,11.496l34.145,20.602l4.6-9.631
						L361.458,232.907z"/>
					<path style="fill:#EBA58E;" d="M394.444,258.491l-4.6,9.631l3.709,5.336c1.342,1.93,3.543,3.081,5.894,3.081h4.167
						c1.846,0,3.569-0.925,4.589-2.463l1.45-2.185h-4.391l-1.78-6.327l2.948,0.691c1.742,0.409,3.536-0.434,4.334-2.035l0.246-0.494
						L394.444,258.491z"/>
					<g>
						<path style="fill:#CC6164;" d="M333.517,187.396L333.517,187.396c4.342-2.593,9.969-1.063,12.399,3.372l8.528,15.559
							l-19.125,13.433l-6.698-18.71C326.782,195.913,328.833,190.193,333.517,187.396z"/>
						<path style="fill:#E56770;" d="M351.81,208.176l2.633-1.85l-8.528-15.559c-2.431-4.435-8.058-5.965-12.399-3.372l-0.649,0.388
							l0,0c4.405-1.816,9.46,0.149,11.481,4.464L351.81,208.176z"/>
					</g>
				</g>
			</g>
		</g>
		<g>
			<g>
				
					<rect x="257.593" y="390.071" transform="matrix(-1 -1.224647e-16 1.224647e-16 -1 567.0753 851.0445)" style="fill:#F4D071;" width="51.89" height="70.902"/>
				
					<rect x="205.703" y="390.071" transform="matrix(-1 -1.224647e-16 1.224647e-16 -1 463.2952 851.0445)" style="fill:#E8916A;" width="51.89" height="70.902"/>
				
					<rect x="276.621" y="390.071" transform="matrix(-1 -1.224647e-16 1.224647e-16 -1 567.0753 802.4447)" style="fill:#FDF7E7;" width="13.833" height="22.302"/>
				
					<rect x="224.381" y="390.071" transform="matrix(-1 -1.224647e-16 1.224647e-16 -1 459.5257 802.4447)" style="fill:#FBEED1;" width="10.764" height="22.302"/>
				<path style="fill:#ECA85E;" d="M309.483,460.973h-51.89v-70.902h3.209v37.806c0,11.993,9.723,21.716,21.716,21.716h26.965
					V460.973z"/>
				<path style="fill:#DD775B;" d="M205.703,460.973h51.89v-70.902h-3.209v37.806c0,11.993-9.723,21.716-21.716,21.716h-26.965
					V460.973z"/>
			</g>
			<g>
				
					<rect x="189.593" y="390.071" transform="matrix(-1 -1.224647e-16 1.224647e-16 -1 431.0753 851.0445)" style="fill:#F4D071;" width="51.89" height="70.902"/>
				
					<rect x="137.703" y="390.071" transform="matrix(-1 -1.224647e-16 1.224647e-16 -1 327.2952 851.0445)" style="fill:#E8916A;" width="51.89" height="70.902"/>
				
					<rect x="208.621" y="390.071" transform="matrix(-1 -1.224647e-16 1.224647e-16 -1 431.0753 802.4447)" style="fill:#FDF7E7;" width="13.833" height="22.302"/>
				
					<rect x="156.381" y="390.071" transform="matrix(-1 -1.224647e-16 1.224647e-16 -1 323.5257 802.4447)" style="fill:#FBEED1;" width="10.764" height="22.302"/>
				<path style="fill:#ECA85E;" d="M241.483,460.973h-51.89v-70.902h3.209v37.806c0,11.993,9.722,21.716,21.716,21.716h26.965
					V460.973z"/>
				<path style="fill:#DD775B;" d="M137.703,460.973h51.89v-70.902h-3.209v37.806c0,11.993-9.723,21.716-21.716,21.716h-26.965
					V460.973z"/>
			</g>
			<g>
				
					<rect x="126.779" y="390.071" transform="matrix(-1 -1.224647e-16 1.224647e-16 -1 305.4489 851.0445)" style="fill:#F4D071;" width="51.89" height="70.902"/>
				
					<rect x="74.889" y="390.071" transform="matrix(-1 -1.224647e-16 1.224647e-16 -1 201.6688 851.0445)" style="fill:#E8916A;" width="51.89" height="70.902"/>
				
					<rect x="145.808" y="390.071" transform="matrix(-1 -1.224647e-16 1.224647e-16 -1 305.4489 802.4447)" style="fill:#FDF7E7;" width="13.833" height="22.302"/>
				
					<rect x="93.568" y="390.071" transform="matrix(-1 -1.224647e-16 1.224647e-16 -1 197.8993 802.4447)" style="fill:#FBEED1;" width="10.764" height="22.302"/>
				<path style="fill:#ECA85E;" d="M178.669,460.973h-51.89v-70.902h3.209v37.806c0,11.993,9.723,21.716,21.716,21.716h26.965
					V460.973z"/>
				<path style="fill:#DD775B;" d="M74.889,460.973h51.89v-70.902h-3.209v37.806c0,11.993-9.722,21.716-21.716,21.716H74.889
					V460.973z"/>
			</g>
			<g>
				
					<rect x="236.492" y="319.169" transform="matrix(-1 -1.224647e-16 1.224647e-16 -1 524.8751 709.24)" style="fill:#F4D071;" width="51.89" height="70.902"/>
				
					<rect x="184.602" y="319.169" transform="matrix(-1 -1.224647e-16 1.224647e-16 -1 421.095 709.24)" style="fill:#E8916A;" width="51.89" height="70.902"/>
				
					<rect x="255.521" y="319.169" transform="matrix(-1 -1.224647e-16 1.224647e-16 -1 524.8751 660.6403)" style="fill:#FDF7E7;" width="13.833" height="22.302"/>
				
					<rect x="203.281" y="319.169" transform="matrix(-1 -1.224647e-16 1.224647e-16 -1 417.3256 660.6403)" style="fill:#FBEED1;" width="10.764" height="22.302"/>
				<path style="fill:#ECA85E;" d="M288.383,390.071h-51.89v-70.902h3.209v37.806c0,11.993,9.723,21.716,21.716,21.716h26.965
					V390.071z"/>
				<path style="fill:#DD775B;" d="M184.602,390.071h51.89v-70.902h-3.209v37.806c0,11.993-9.723,21.716-21.716,21.716h-26.965
					V390.071z"/>
			</g>
			<g>
				
					<rect x="257.593" y="248.267" transform="matrix(-1 -1.224647e-16 1.224647e-16 -1 567.0753 567.4355)" style="fill:#F4D071;" width="51.89" height="70.902"/>
				
					<rect x="205.703" y="248.267" transform="matrix(-1 -1.224647e-16 1.224647e-16 -1 463.2952 567.4355)" style="fill:#E8916A;" width="51.89" height="70.902"/>
				
					<rect x="276.621" y="248.267" transform="matrix(-1 -1.224647e-16 1.224647e-16 -1 567.0753 518.8357)" style="fill:#FDF7E7;" width="13.833" height="22.302"/>
				
					<rect x="224.381" y="248.267" transform="matrix(-1 -1.224647e-16 1.224647e-16 -1 459.5257 518.8357)" style="fill:#FBEED1;" width="10.764" height="22.302"/>
				<path style="fill:#ECA85E;" d="M309.483,319.169h-51.89v-70.902h3.209v37.806c0,11.993,9.723,21.716,21.716,21.716h26.965
					V319.169z"/>
				<path style="fill:#DD775B;" d="M205.703,319.169h51.89v-70.902h-3.209v37.806c0,11.993-9.723,21.716-21.716,21.716h-26.965
					V319.169z"/>
			</g>
			<g>
				
					<rect x="184.602" y="248.267" transform="matrix(-1 -1.224647e-16 1.224647e-16 -1 421.095 567.4355)" style="fill:#F4D071;" width="51.89" height="70.902"/>
				
					<rect x="132.712" y="248.267" transform="matrix(-1 -1.224647e-16 1.224647e-16 -1 317.3149 567.4355)" style="fill:#E8916A;" width="51.89" height="70.902"/>
				
					<rect x="203.631" y="248.267" transform="matrix(-1 -1.224647e-16 1.224647e-16 -1 421.095 518.8357)" style="fill:#FDF7E7;" width="13.833" height="22.302"/>
				
					<rect x="151.391" y="248.267" transform="matrix(-1 -1.224647e-16 1.224647e-16 -1 313.5455 518.8357)" style="fill:#FBEED1;" width="10.764" height="22.302"/>
				<path style="fill:#ECA85E;" d="M236.492,319.169h-51.89v-70.902h3.209v37.806c0,11.993,9.723,21.716,21.716,21.716h26.965
					V319.169z"/>
				<path style="fill:#DD775B;" d="M132.712,319.169h51.89v-70.902h-3.209v37.806c0,11.993-9.723,21.716-21.716,21.716h-26.965
					V319.169z"/>
			</g>
			<g>
				
					<rect x="152.725" y="319.169" transform="matrix(-1 -1.224647e-16 1.224647e-16 -1 357.339 709.24)" style="fill:#F4D071;" width="51.89" height="70.902"/>
				
					<rect x="100.834" y="319.169" transform="matrix(-1 -1.224647e-16 1.224647e-16 -1 253.5589 709.24)" style="fill:#E8916A;" width="51.89" height="70.902"/>
				
					<rect x="171.753" y="319.169" transform="matrix(-1 -1.224647e-16 1.224647e-16 -1 357.339 660.6403)" style="fill:#FDF7E7;" width="13.833" height="22.302"/>
				
					<rect x="119.513" y="319.169" transform="matrix(-1 -1.224647e-16 1.224647e-16 -1 249.7893 660.6403)" style="fill:#FBEED1;" width="10.764" height="22.302"/>
				<path style="fill:#ECA85E;" d="M204.615,390.071h-51.89v-70.902h3.209v37.806c0,11.993,9.723,21.716,21.716,21.716h26.965
					V390.071z"/>
				<path style="fill:#DD775B;" d="M100.834,390.071h51.89v-70.902h-3.209v37.806c0,11.993-9.723,21.716-21.716,21.716h-26.965
					V390.071z"/>
			</g>
		</g>
	</g>
</g>
</svg>
