<?xml version="1.0" encoding="utf-8"?>
<!-- Generator: Adobe Illustrator 27.5.0, SVG Export Plug-In . SVG Version: 6.00 Build 0)  -->
<svg version="1.1" xmlns="http://www.w3.org/2000/svg" xmlns:xlink="http://www.w3.org/1999/xlink" x="0px" y="0px"
	 viewBox="0 0 3710 3710" style="enable-background:new 0 0 3710 3710;" xml:space="preserve">
<g id="Background">
	<g>
		<g>
			<rect style="fill:#FFFFFF;" width="3710" height="3710"/>
		</g>
	</g>
</g>
<g id="Illustration">
	<g>
		
			<linearGradient id="SVGID_1_" gradientUnits="userSpaceOnUse" x1="1370.3512" y1="3649.2593" x2="-568.5457" y2="1585.2727" gradientTransform="matrix(-1 0 0 1 1590.1516 0)">
			<stop  offset="0" style="stop-color:#B37CFF"/>
			<stop  offset="1" style="stop-color:#F895E7"/>
		</linearGradient>
		<path style="opacity:0.3;fill:url(#SVGID_1_);" d="M801.953,2821.196c71.576,73.779,135.62,117.148,184.654,149.888
			c478.221,319.313,1024.879,227.279,1193.893,195.822c272.682-50.752,502.863-86.555,700.63-265.229
			c449.386-406.003,427.529-1252.955,84.143-1777.604c-40.715-62.208-383.581-570.442-931.423-642.057
			c-13.399-1.751-23.397-2.749-32.154-3.676c-84.75-8.973-609.928-56.331-1038.158,302.44
			c-61.299,51.356-159.947,143.99-251.426,285.271C377.624,1582.64,376.564,2382.723,801.953,2821.196z"/>
		<g>
			
				<linearGradient id="SVGID_00000022549127778747794020000000264703167813426361_" gradientUnits="userSpaceOnUse" x1="604.5273" y1="-199.9489" x2="887.2815" y2="486.7408">
				<stop  offset="0" style="stop-color:#B37CFF"/>
				<stop  offset="1" style="stop-color:#F895E7"/>
			</linearGradient>
			<path style="fill:url(#SVGID_00000022549127778747794020000000264703167813426361_);" d="M1429.865,905.483
				c8.03,7.918,8.12,20.846,0.203,28.876s-20.845,8.121-28.876,0.203c-124.265-122.528-325.045-121.114-447.573,3.151
				s-121.114,325.045,3.151,447.573c8.03,7.918,8.12,20.846,0.203,28.876s-20.845,8.121-28.876,0.203
				c-140.299-138.337-141.895-365.025-3.558-505.324C1062.878,768.742,1289.566,767.146,1429.865,905.483z"/>
			
				<linearGradient id="SVGID_00000081617703636397379700000010789693593209258916_" gradientUnits="userSpaceOnUse" x1="607.3478" y1="-201.1082" x2="890.1013" y2="485.58">
				<stop  offset="0" style="stop-color:#B37CFF"/>
				<stop  offset="1" style="stop-color:#F895E7"/>
			</linearGradient>
			<path style="fill:url(#SVGID_00000081617703636397379700000010789693593209258916_);" d="M1376.104,960.006
				c8.03,7.918,8.12,20.846,0.203,28.876c-7.917,8.029-20.845,8.121-28.876,0.203c-94.201-92.883-246.405-91.813-339.289,2.389
				c-92.884,94.201-91.812,246.406,2.389,339.289c8.03,7.918,8.12,20.846,0.203,28.876c-7.917,8.029-20.845,8.121-28.876,0.203
				c-110.235-108.694-111.489-286.805-2.795-397.04S1265.869,851.313,1376.104,960.006z"/>
			
				<linearGradient id="SVGID_00000181068000612801483670000007576039528891914900_" gradientUnits="userSpaceOnUse" x1="610.1674" y1="-202.2696" x2="892.9213" y2="484.4195">
				<stop  offset="0" style="stop-color:#B37CFF"/>
				<stop  offset="1" style="stop-color:#F895E7"/>
			</linearGradient>
			<path style="fill:url(#SVGID_00000181068000612801483670000007576039528891914900_);" d="M1322.344,1014.529
				c8.03,7.918,8.12,20.846,0.203,28.876s-20.845,8.121-28.876,0.203c-64.136-63.24-167.765-62.511-231.005,1.626
				c-63.241,64.137-62.51,167.766,1.626,231.005c8.03,7.918,8.12,20.846,0.203,28.876c-7.917,8.029-20.845,8.121-28.876,0.203
				c-80.171-79.05-81.083-208.586-2.033-288.757S1242.172,935.479,1322.344,1014.529z"/>
			
				<linearGradient id="SVGID_00000006674089368157845090000017021865137321031820_" gradientUnits="userSpaceOnUse" x1="978.0564" y1="169.323" x2="1098.7236" y2="776.9672">
				<stop  offset="0" style="stop-color:#A737D5"/>
				<stop  offset="1" style="stop-color:#EF497A"/>
			</linearGradient>
			
				<circle style="fill:url(#SVGID_00000006674089368157845090000017021865137321031820_);" cx="1172.346" cy="1147.708" r="91.499"/>
		</g>
		<g>
			<g>
				<g>
					
						<linearGradient id="SVGID_00000005975504896245147720000004860206326013335717_" gradientUnits="userSpaceOnUse" x1="3986.3145" y1="1754.4342" x2="5759.5439" y2="1754.4342" gradientTransform="matrix(-1 0 0 1 7226.8052 0)">
						<stop  offset="0" style="stop-color:#2B3582"/>
						<stop  offset="1" style="stop-color:#150E42"/>
					</linearGradient>
					<path style="fill:url(#SVGID_00000005975504896245147720000004860206326013335717_);" d="M3211.485,582.027
						c9.337,416.002,39.614,1850.948,25.161,2359.448c-1.531,53.871-40.626,97.11-89.393,98.873
						c-241.196,8.718-1125.407,30.818-1519.922,12.535c-82.172-3.81-147.518-77.333-149.222-168.164
						c-8.199-436.648-26.286-1664.769,16.704-2227.371c5.152-67.408,53.047-121.088,113.983-127.822
						c262.673-29.027,1150.687-99.981,1491.525-75.549C3161.791,458.382,3209.96,514.002,3211.485,582.027z"/>
					
						<linearGradient id="SVGID_00000036932308853383841010000002019442134608830643_" gradientUnits="userSpaceOnUse" x1="4728.6895" y1="1601.5944" x2="4927.5747" y2="777.185" gradientTransform="matrix(-1 0 0 1 7226.8052 0)">
						<stop  offset="0" style="stop-color:#A737D5"/>
						<stop  offset="1" style="stop-color:#EF497A"/>
					</linearGradient>
					<path style="fill:url(#SVGID_00000036932308853383841010000002019442134608830643_);" d="M3056.1,822.438v399.85
						c0,76.678-39.642,138.837-88.543,138.837H1749.2c-48.901,0-88.543-62.159-88.543-138.837v-399.85
						c0-76.677,39.642-138.837,88.543-138.837h1218.356C3016.458,683.601,3056.1,745.761,3056.1,822.438z"/>
					<path style="opacity:0.2;fill:#FFFFFF;" d="M1725.358,809.71c10.965-17.281,25.833-27.063,41.329-27.187l1140.245-9.289
						c30.484-0.25,55.794,36.323,58.106,83.951l19.271,396.943c1.578,32.503-32.792,59.268-76.234,59.368L1787.13,1316
						c-43.375,0.096-78.935-26.438-78.933-58.896l0.031-382.463C1708.23,850.348,1714.392,826.986,1725.358,809.71z"/>
				</g>
				
					<linearGradient id="SVGID_00000004536764198745026640000018311532409176098698_" gradientUnits="userSpaceOnUse" x1="4271.3799" y1="3656.1248" x2="5601.0347" y2="2376.0239" gradientTransform="matrix(-1 0 0 1 7226.8052 0)">
					<stop  offset="0" style="stop-color:#FDF53F"/>
					<stop  offset="1" style="stop-color:#D93C65"/>
				</linearGradient>
				<path style="fill:url(#SVGID_00000004536764198745026640000018311532409176098698_);" d="M1749.019,2651.002
					c0,55.745,45.19,100.935,100.935,100.935h122.878c55.745,0,100.935-45.19,100.935-100.935l0,0
					c0-55.745-45.19-100.935-100.935-100.935h-122.878C1794.209,2550.067,1749.019,2595.257,1749.019,2651.002L1749.019,2651.002z"
					/>
				
					<linearGradient id="SVGID_00000089563977832097485800000000091383749769746847_" gradientUnits="userSpaceOnUse" x1="3055.074" y1="2154.0591" x2="2654.9602" y2="2920.1326">
					<stop  offset="0" style="stop-color:#53D8FF"/>
					<stop  offset="1" style="stop-color:#3840F7"/>
				</linearGradient>
				<path style="fill:url(#SVGID_00000089563977832097485800000000091383749769746847_);" d="M2633.151,2651.002
					c0,55.746,45.19,100.935,100.936,100.935h122.877c55.745,0,100.936-45.19,100.936-100.935l0,0
					c0-55.745-45.19-100.935-100.936-100.935h-122.877C2678.341,2550.066,2633.151,2595.257,2633.151,2651.002L2633.151,2651.002z"
					/>
				
					<linearGradient id="SVGID_00000052793704178185474890000005093818957375882380_" gradientUnits="userSpaceOnUse" x1="4356.2637" y1="3145.717" x2="5685.9194" y2="1865.6152" gradientTransform="matrix(-1 0 0 1 7226.8052 0)">
					<stop  offset="0" style="stop-color:#A737D5"/>
					<stop  offset="1" style="stop-color:#EF497A"/>
				</linearGradient>
				<path style="fill:url(#SVGID_00000052793704178185474890000005093818957375882380_);" d="M2194.301,2651.002
					c0,55.746,45.19,100.935,100.935,100.935h122.878c55.745,0,100.935-45.19,100.935-100.935l0,0
					c0-55.745-45.19-100.935-100.935-100.935h-122.878C2239.491,2550.066,2194.301,2595.257,2194.301,2651.002L2194.301,2651.002z"
					/>
				
					<linearGradient id="SVGID_00000009591649069388139180000001257161536723443114_" gradientUnits="userSpaceOnUse" x1="2700.2908" y1="1895.1184" x2="3782.3157" y2="853.4187">
					<stop  offset="0" style="stop-color:#53D8FF"/>
					<stop  offset="1" style="stop-color:#3840F7"/>
				</linearGradient>
				<path style="opacity:0.63;fill:url(#SVGID_00000009591649069388139180000001257161536723443114_);" d="M2943.072,1815.522
					h-155.61c-12.889,0-23.435-10.546-23.435-23.435v-111.592c0-12.889,10.546-23.435,23.435-23.435h155.61
					c12.889,0,23.435,10.546,23.435,23.435v111.592C2966.507,1804.976,2955.961,1815.522,2943.072,1815.522z"/>
				
					<linearGradient id="SVGID_00000135651020647606543610000010914460371720370816_" gradientUnits="userSpaceOnUse" x1="2700.2908" y1="2165.0918" x2="3782.3157" y2="1123.3922">
					<stop  offset="0" style="stop-color:#53D8FF"/>
					<stop  offset="1" style="stop-color:#3840F7"/>
				</linearGradient>
				<path style="opacity:0.63;fill:url(#SVGID_00000135651020647606543610000010914460371720370816_);" d="M2943.072,2085.495
					h-155.61c-12.889,0-23.435-10.546-23.435-23.435v-111.592c0-12.889,10.546-23.435,23.435-23.435h155.61
					c12.889,0,23.435,10.546,23.435,23.435v111.592C2966.507,2074.949,2955.961,2085.495,2943.072,2085.495z"/>
				
					<linearGradient id="SVGID_00000057126202716138707610000009299764703397552553_" gradientUnits="userSpaceOnUse" x1="2700.2908" y1="2435.0654" x2="3782.3157" y2="1393.3656">
					<stop  offset="0" style="stop-color:#53D8FF"/>
					<stop  offset="1" style="stop-color:#3840F7"/>
				</linearGradient>
				<path style="opacity:0.63;fill:url(#SVGID_00000057126202716138707610000009299764703397552553_);" d="M2943.072,2355.469
					h-155.61c-12.889,0-23.435-10.546-23.435-23.435v-111.592c0-12.889,10.546-23.435,23.435-23.435h155.61
					c12.889,0,23.435,10.546,23.435,23.435v111.592C2966.507,2344.923,2955.961,2355.469,2943.072,2355.469z"/>
				
					<linearGradient id="SVGID_00000181791254050414390710000001160915201217105577_" gradientUnits="userSpaceOnUse" x1="2371.6274" y1="1895.1184" x2="3453.6523" y2="853.4187">
					<stop  offset="0" style="stop-color:#53D8FF"/>
					<stop  offset="1" style="stop-color:#3840F7"/>
				</linearGradient>
				<path style="opacity:0.63;fill:url(#SVGID_00000181791254050414390710000001160915201217105577_);" d="M2614.409,1815.522
					h-155.61c-12.889,0-23.435-10.546-23.435-23.435v-111.592c0-12.889,10.546-23.435,23.435-23.435h155.61
					c12.889,0,23.435,10.546,23.435,23.435v111.592C2637.844,1804.976,2627.298,1815.522,2614.409,1815.522z"/>
				
					<linearGradient id="SVGID_00000038407328990642466800000009501623737325115293_" gradientUnits="userSpaceOnUse" x1="2371.6274" y1="2165.0918" x2="3453.6523" y2="1123.3922">
					<stop  offset="0" style="stop-color:#53D8FF"/>
					<stop  offset="1" style="stop-color:#3840F7"/>
				</linearGradient>
				<path style="opacity:0.63;fill:url(#SVGID_00000038407328990642466800000009501623737325115293_);" d="M2614.409,2085.495
					h-155.61c-12.889,0-23.435-10.546-23.435-23.435v-111.592c0-12.889,10.546-23.435,23.435-23.435h155.61
					c12.889,0,23.435,10.546,23.435,23.435v111.592C2637.844,2074.949,2627.298,2085.495,2614.409,2085.495z"/>
				
					<linearGradient id="SVGID_00000162309769624243047910000015524064902970544815_" gradientUnits="userSpaceOnUse" x1="2368.6929" y1="2435.0654" x2="3450.718" y2="1393.3656">
					<stop  offset="0" style="stop-color:#53D8FF"/>
					<stop  offset="1" style="stop-color:#3840F7"/>
				</linearGradient>
				<path style="opacity:0.63;fill:url(#SVGID_00000162309769624243047910000015524064902970544815_);" d="M2611.474,2355.469
					h-155.61c-12.889,0-23.435-10.546-23.435-23.435v-111.592c0-12.889,10.546-23.435,23.435-23.435h155.61
					c12.889,0,23.435,10.546,23.435,23.435v111.592C2634.91,2344.923,2624.364,2355.469,2611.474,2355.469z"/>
				
					<linearGradient id="SVGID_00000023977713909294214520000010430253474089405884_" gradientUnits="userSpaceOnUse" x1="2040.0297" y1="1895.1184" x2="3122.0544" y2="853.4189">
					<stop  offset="0" style="stop-color:#53D8FF"/>
					<stop  offset="1" style="stop-color:#3840F7"/>
				</linearGradient>
				<path style="opacity:0.63;fill:url(#SVGID_00000023977713909294214520000010430253474089405884_);" d="M2282.811,1815.522
					h-155.61c-12.889,0-23.435-10.546-23.435-23.435v-111.592c0-12.889,10.546-23.435,23.435-23.435h155.61
					c12.889,0,23.435,10.546,23.435,23.435v111.592C2306.246,1804.976,2295.7,1815.522,2282.811,1815.522z"/>
				
					<linearGradient id="SVGID_00000103238734453239214280000006273340707346470072_" gradientUnits="userSpaceOnUse" x1="2040.0297" y1="2165.0918" x2="3122.0544" y2="1123.3923">
					<stop  offset="0" style="stop-color:#53D8FF"/>
					<stop  offset="1" style="stop-color:#3840F7"/>
				</linearGradient>
				<path style="opacity:0.63;fill:url(#SVGID_00000103238734453239214280000006273340707346470072_);" d="M2282.811,2085.495
					h-155.61c-12.889,0-23.435-10.546-23.435-23.435v-111.592c0-12.889,10.546-23.435,23.435-23.435h155.61
					c12.889,0,23.435,10.546,23.435,23.435v111.592C2306.246,2074.949,2295.7,2085.495,2282.811,2085.495z"/>
				
					<linearGradient id="SVGID_00000149359764234990409230000011815025964224581507_" gradientUnits="userSpaceOnUse" x1="2040.0297" y1="2435.0654" x2="3122.0544" y2="1393.3657">
					<stop  offset="0" style="stop-color:#53D8FF"/>
					<stop  offset="1" style="stop-color:#3840F7"/>
				</linearGradient>
				<path style="opacity:0.63;fill:url(#SVGID_00000149359764234990409230000011815025964224581507_);" d="M2282.811,2355.469
					h-155.61c-12.889,0-23.435-10.546-23.435-23.435v-111.592c0-12.889,10.546-23.435,23.435-23.435h155.61
					c12.889,0,23.435,10.546,23.435,23.435v111.592C2306.246,2344.923,2295.7,2355.469,2282.811,2355.469z"/>
				
					<linearGradient id="SVGID_00000118368059740233521130000008872572394530015402_" gradientUnits="userSpaceOnUse" x1="1678.6042" y1="1895.1184" x2="2760.6292" y2="853.4187">
					<stop  offset="0" style="stop-color:#53D8FF"/>
					<stop  offset="1" style="stop-color:#3840F7"/>
				</linearGradient>
				<path style="opacity:0.63;fill:url(#SVGID_00000118368059740233521130000008872572394530015402_);" d="M1921.386,1815.522
					h-155.61c-12.889,0-23.435-10.546-23.435-23.435v-111.592c0-12.889,10.546-23.435,23.435-23.435h155.61
					c12.889,0,23.435,10.546,23.435,23.435v111.592C1944.821,1804.976,1934.275,1815.522,1921.386,1815.522z"/>
				
					<linearGradient id="SVGID_00000029746792457929294880000017166411356977162646_" gradientUnits="userSpaceOnUse" x1="1678.6042" y1="2165.0918" x2="2760.6292" y2="1123.3922">
					<stop  offset="0" style="stop-color:#53D8FF"/>
					<stop  offset="1" style="stop-color:#3840F7"/>
				</linearGradient>
				<path style="opacity:0.63;fill:url(#SVGID_00000029746792457929294880000017166411356977162646_);" d="M1921.386,2085.495
					h-155.61c-12.889,0-23.435-10.546-23.435-23.435v-111.592c0-12.889,10.546-23.435,23.435-23.435h155.61
					c12.889,0,23.435,10.546,23.435,23.435v111.592C1944.821,2074.949,1934.275,2085.495,1921.386,2085.495z"/>
				
					<linearGradient id="SVGID_00000054252977172849364990000000087880964757256585_" gradientUnits="userSpaceOnUse" x1="1678.6042" y1="2435.0654" x2="2760.6292" y2="1393.3656">
					<stop  offset="0" style="stop-color:#53D8FF"/>
					<stop  offset="1" style="stop-color:#3840F7"/>
				</linearGradient>
				<path style="opacity:0.63;fill:url(#SVGID_00000054252977172849364990000000087880964757256585_);" d="M1921.386,2355.469
					h-155.61c-12.889,0-23.435-10.546-23.435-23.435v-111.592c0-12.889,10.546-23.435,23.435-23.435h155.61
					c12.889,0,23.435,10.546,23.435,23.435v111.592C1944.821,2344.923,1934.275,2355.469,1921.386,2355.469z"/>
				
					<linearGradient id="SVGID_00000009568354070485871430000006594332461736912514_" gradientUnits="userSpaceOnUse" x1="2278.8533" y1="653.8931" x2="1626.9067" y2="1918.473">
					<stop  offset="0" style="stop-color:#53D8FF"/>
					<stop  offset="1" style="stop-color:#3840F7"/>
				</linearGradient>
				<path style="opacity:0.63;fill:url(#SVGID_00000009568354070485871430000006594332461736912514_);" d="M1918.149,1580.762
					h-200.992c-5.251,0-9.548-4.297-9.548-9.548v-45.464c0-5.251,4.296-9.548,9.548-9.548h200.992c5.251,0,9.548,4.297,9.548,9.548
					v45.464C1927.697,1576.466,1923.4,1580.762,1918.149,1580.762z"/>
				
					<linearGradient id="SVGID_00000133492998708984267750000016387251725177475248_" gradientUnits="userSpaceOnUse" x1="2559.677" y1="820.684" x2="1907.7303" y2="2085.2639">
					<stop  offset="0" style="stop-color:#53D8FF"/>
					<stop  offset="1" style="stop-color:#3840F7"/>
				</linearGradient>
				<path style="opacity:0.63;fill:url(#SVGID_00000133492998708984267750000016387251725177475248_);" d="M2284.961,1580.762
					h-200.992c-5.251,0-9.548-4.297-9.548-9.548v-45.464c0-5.251,4.297-9.548,9.548-9.548h200.992c5.251,0,9.548,4.297,9.548,9.548
					v45.464C2294.508,1576.466,2290.212,1580.762,2284.961,1580.762z"/>
				
					<linearGradient id="SVGID_00000176757519037860484390000017308161019888289944_" gradientUnits="userSpaceOnUse" x1="2818.0342" y1="974.1329" x2="2166.0876" y2="2238.7126">
					<stop  offset="0" style="stop-color:#53D8FF"/>
					<stop  offset="1" style="stop-color:#3840F7"/>
				</linearGradient>
				<path style="opacity:0.63;fill:url(#SVGID_00000176757519037860484390000017308161019888289944_);" d="M2622.427,1580.762
					h-200.992c-5.251,0-9.548-4.297-9.548-9.548v-45.464c0-5.251,4.297-9.548,9.548-9.548h200.992c5.251,0,9.548,4.297,9.548,9.548
					v45.464C2631.975,1576.466,2627.679,1580.762,2622.427,1580.762z"/>
				
					<linearGradient id="SVGID_00000139990463160523787370000000379321193530378411_" gradientUnits="userSpaceOnUse" x1="3098.8579" y1="1140.9237" x2="2446.9111" y2="2405.5037">
					<stop  offset="0" style="stop-color:#53D8FF"/>
					<stop  offset="1" style="stop-color:#3840F7"/>
				</linearGradient>
				<path style="opacity:0.63;fill:url(#SVGID_00000139990463160523787370000000379321193530378411_);" d="M2989.239,1580.762
					h-200.992c-5.251,0-9.548-4.297-9.548-9.548v-45.464c0-5.251,4.296-9.548,9.548-9.548h200.992c5.251,0,9.548,4.297,9.548,9.548
					v45.464C2998.787,1576.466,2994.49,1580.762,2989.239,1580.762z"/>
			</g>
		</g>
		<g>
			
				<linearGradient id="SVGID_00000127726561158660851720000000725100306450146234_" gradientUnits="userSpaceOnUse" x1="1863.4231" y1="1823.675" x2="2168.21" y2="1469.9049">
				<stop  offset="0" style="stop-color:#FDF53F"/>
				<stop  offset="1" style="stop-color:#D93C65"/>
			</linearGradient>
			
				<circle style="fill:url(#SVGID_00000127726561158660851720000000725100306450146234_);" cx="2174.366" cy="1462.759" r="227.23"/>
			
				<linearGradient id="SVGID_00000108272034947104191530000007485327644679589041_" gradientUnits="userSpaceOnUse" x1="2340.4346" y1="1211.8777" x2="1439.1715" y2="2573.4292">
				<stop  offset="0" style="stop-color:#FDF53F"/>
				<stop  offset="1" style="stop-color:#D93C65"/>
			</linearGradient>
			
				<circle style="fill:url(#SVGID_00000108272034947104191530000007485327644679589041_);" cx="2174.366" cy="1462.759" r="219.674"/>
			<path style="fill:#FFFFFF;" d="M1993.222,1374.978c-0.526,0-1.06-0.119-1.562-0.373c-1.712-0.865-2.399-2.953-1.534-4.662
				c35.319-69.973,105.916-113.441,184.24-113.441c12.5,0,25.018,1.126,37.206,3.35c1.887,0.343,3.138,2.15,2.794,4.039
				c-0.342,1.889-2.156,3.147-4.039,2.791c-11.78-2.146-23.878-3.235-35.961-3.235c-75.688,0-143.909,42.006-178.041,109.622
				C1995.714,1374.279,1994.492,1374.978,1993.222,1374.978z"/>
			
				<ellipse transform="matrix(0.7071 -0.7071 0.7071 0.7071 -399.4521 1970.7277)" style="opacity:0.78;fill:#FFFFFF;" cx="2179.153" cy="1467.545" rx="185.927" ry="185.927"/>
			<g>
				
					<linearGradient id="SVGID_00000065759739908920865050000000145647482425413301_" gradientUnits="userSpaceOnUse" x1="2313.5488" y1="1250.8904" x2="1833.6448" y2="2056.5696">
					<stop  offset="0" style="stop-color:#FDF53F"/>
					<stop  offset="1" style="stop-color:#D93C65"/>
				</linearGradient>
				<path style="fill:url(#SVGID_00000065759739908920865050000000145647482425413301_);" d="M2160.907,1605.766v-20.228
					c-21.087-0.844-41.944-5.821-56.758-12.306c-5.29-2.316-7.986-8.252-6.467-13.823l5.139-18.842
					c1.885-6.912,9.402-10.487,16.01-7.718c14.695,6.16,32.839,11.034,52.404,11.034c20.31,0,35.457-6.886,35.457-21
					c0-12.737-11.704-20.309-39.932-27.882c-40.276-11.016-69.194-28.573-69.194-64.03c0-32.017,23.41-56.458,64.03-62.997v-20.231
					c0-6.509,5.277-11.786,11.786-11.786h11.885c6.509,0,11.786,5.277,11.786,11.786v18.163c19.512,0.781,33.716,4.117,44.988,8.079
					c5.775,2.029,8.931,8.25,7.329,14.158l-4.726,17.425c-1.822,6.719-9.004,10.4-15.516,7.938
					c-10.378-3.924-25.051-8.011-44.123-8.011c-24.098,0-30.981,9.982-30.981,18.933c0,11.016,14.458,18.589,45.784,28.229
					c44.753,13.425,63.341,32.014,63.341,65.406c0,30.638-22.72,58.178-66.783,65.064v22.638c0,6.509-5.277,11.786-11.786,11.786
					h-11.886C2166.184,1617.552,2160.907,1612.275,2160.907,1605.766z"/>
			</g>
		</g>
		<g>
			
				<linearGradient id="SVGID_00000137838092009935977800000013615516185379883154_" gradientUnits="userSpaceOnUse" x1="2224.6194" y1="1405.1707" x2="2485.7412" y2="1102.0833">
				<stop  offset="0" style="stop-color:#FDF53F"/>
				<stop  offset="1" style="stop-color:#D93C65"/>
			</linearGradient>
			
				<circle style="fill:url(#SVGID_00000137838092009935977800000013615516185379883154_);" cx="2491.016" cy="1095.961" r="194.676"/>
			
				<linearGradient id="SVGID_00000165228897928817391390000017269202865967003564_" gradientUnits="userSpaceOnUse" x1="2633.2922" y1="881.0222" x2="1861.1481" y2="2047.5117">
				<stop  offset="0" style="stop-color:#FDF53F"/>
				<stop  offset="1" style="stop-color:#D93C65"/>
			</linearGradient>
			
				<circle style="fill:url(#SVGID_00000165228897928817391390000017269202865967003564_);" cx="2491.016" cy="1095.961" r="188.203"/>
			<path style="fill:#FFFFFF;" d="M2335.823,1020.756c-0.45,0-0.908-0.102-1.338-0.32c-1.467-0.741-2.055-2.53-1.314-3.994
				c30.259-59.949,90.742-97.189,157.845-97.189c10.709,0,21.433,0.965,31.876,2.87c1.616,0.293,2.688,1.842,2.394,3.46
				c-0.293,1.618-1.848,2.696-3.46,2.391c-10.092-1.839-20.457-2.771-30.809-2.771c-64.845,0-123.292,35.988-152.534,93.917
				C2337.958,1020.157,2336.911,1020.756,2335.823,1020.756z"/>
			
				<ellipse transform="matrix(0.7071 -0.7071 0.7071 0.7071 -47.0584 2086.5142)" style="opacity:0.78;fill:#FFFFFF;" cx="2495.116" cy="1100.062" rx="159.29" ry="159.29"/>
			<g>
				
					<linearGradient id="SVGID_00000181777971219717870350000009518782832004282045_" gradientUnits="userSpaceOnUse" x1="2610.2581" y1="914.4458" x2="2199.1074" y2="1604.6995">
					<stop  offset="0" style="stop-color:#FDF53F"/>
					<stop  offset="1" style="stop-color:#D93C65"/>
				</linearGradient>
				<path style="fill:url(#SVGID_00000181777971219717870350000009518782832004282045_);" d="M2479.485,1218.48v-17.33
					c-18.066-0.723-35.935-4.987-48.626-10.543c-4.532-1.984-6.842-7.07-5.54-11.843l4.403-16.142
					c1.615-5.922,8.055-8.985,13.716-6.612c12.589,5.278,28.135,9.453,44.896,9.453c17.4,0,30.377-5.899,30.377-17.992
					c0-10.912-10.027-17.4-34.211-23.887c-34.506-9.438-59.281-24.48-59.281-54.857c0-27.43,20.056-48.369,54.857-53.971v-17.332
					c0-5.576,4.521-10.097,10.098-10.097h10.182c5.576,0,10.098,4.521,10.098,10.097v15.561c16.717,0.669,28.885,3.528,38.542,6.921
					c4.948,1.738,7.651,7.068,6.279,12.13l-4.049,14.929c-1.561,5.757-7.714,8.91-13.293,6.8
					c-8.891-3.362-21.462-6.863-37.802-6.863c-20.646,0-26.543,8.552-26.543,16.22c0,9.438,12.386,15.926,39.225,24.185
					c38.341,11.502,54.267,27.427,54.267,56.036c0,26.249-19.465,49.843-57.215,55.743v19.394c0,5.577-4.521,10.098-10.098,10.098
					h-10.183C2484.005,1228.578,2479.485,1224.057,2479.485,1218.48z"/>
			</g>
		</g>
		<g>
			
				<linearGradient id="SVGID_00000040534458135752443820000000898412416338835368_" gradientUnits="userSpaceOnUse" x1="2956.6218" y1="1536.4935" x2="2277.3232" y2="3208.2402">
				<stop  offset="0" style="stop-color:#CB236D"/>
				<stop  offset="1" style="stop-color:#4C246D"/>
			</linearGradient>
			<path style="fill:url(#SVGID_00000040534458135752443820000000898412416338835368_);" d="M2984.347,2549.476l-12.517,529.71
				l-1.943,82.018c0,10.707-8.78,19.47-19.487,19.47H1897.163c-10.707,0-19.486-8.763-19.486-19.47l-1.19-82.018l-7.573-523.242
				c0-10.707,12.616-31.601,35.723-30.026l1029.344-26.642c13.438-0.335,26.44,4.826,35.958,14.326
				C2979.454,2523.086,2984.666,2536.055,2984.347,2549.476z"/>
			
				<linearGradient id="SVGID_00000157305951192917141960000011558777064823094659_" gradientUnits="userSpaceOnUse" x1="2839.0586" y1="2403.7549" x2="1148.0369" y2="4248.9424">
				<stop  offset="0" style="stop-color:#CB236D"/>
				<stop  offset="1" style="stop-color:#4C246D"/>
			</linearGradient>
			<path style="fill:url(#SVGID_00000157305951192917141960000011558777064823094659_);" d="M2944.133,3144.645
				c0,9.987-8.349,18.158-18.554,18.158H1922.255c-10.205,0-18.554-8.171-18.554-18.158l-8.349-564.842
				c0-9.987,12.011-29.485,34.024-28.02l980.559-24.855c12.804-0.324,25.184,4.503,34.25,13.357
				c9.067,8.854,14.028,20.958,13.726,33.49L2944.133,3144.645z"/>
			<path style="fill:#FFFFFF;" d="M2924.977,3167.718h-112.052c-1.859,0-3.366-1.506-3.366-3.366s1.507-3.366,3.366-3.366h112.052
				c13.325,0,25.012-12.061,25.012-25.808v-344.246c0-1.861,1.507-3.366,3.366-3.366s3.366,1.505,3.366,3.366v344.246
				C2956.722,3152.511,2941.888,3167.718,2924.977,3167.718z"/>
			<path style="fill:#FFFFFF;" d="M1896.936,2791.106c-1.859,0-3.366-1.506-3.366-3.366v-202.004
				c0-21.946,16.666-39.134,37.941-39.134h89.898c1.859,0,3.366,1.505,3.366,3.366s-1.507,3.366-3.366,3.366h-89.898
				c-17.792,0-31.209,13.931-31.209,32.402v202.004C1900.302,2789.601,1898.795,2791.106,1896.936,2791.106z"/>
			<g>
				
					<linearGradient id="SVGID_00000173879078036031545300000004509424490587519156_" gradientUnits="userSpaceOnUse" x1="2442.8789" y1="2682.054" x2="2010.8647" y2="2846.449">
					<stop  offset="0" style="stop-color:#E92556"/>
					<stop  offset="1" style="stop-color:#F9C342"/>
				</linearGradient>
				<path style="fill:url(#SVGID_00000173879078036031545300000004509424490587519156_);" d="M2149.073,2776.906
					c0-10.761-8.724-19.485-19.485-19.485h-130.184c-10.761,0-19.485,8.724-19.485,19.485v98.269
					c0,10.761,8.724,19.485,19.485,19.485h130.184c10.761,0,19.485-8.724,19.485-19.485V2776.906z"/>
				<g>
					<path style="opacity:0.8;fill:#FFFFFF;" d="M2082.514,2851.749h-39.228c-5.12,0-9.285-4.165-9.285-9.286v-31.249
						c0-5.121,4.165-9.286,9.285-9.286h39.228c5.12,0,9.285,4.165,9.285,9.286v31.249
						C2091.798,2847.584,2087.633,2851.749,2082.514,2851.749z M2043.285,2808.66c-1.407,0-2.552,1.147-2.552,2.554v31.249
						c0,1.407,1.146,2.554,2.552,2.554h39.228c1.407,0,2.552-1.147,2.552-2.554v-31.249c0-1.407-1.146-2.554-2.552-2.554H2043.285z"
						/>
					<g>
						<path style="fill:#FFFFFF;" d="M2037.367,2819.833h-57.449c-1.859,0-3.366-1.506-3.366-3.366c0-1.86,1.507-3.366,3.366-3.366
							h57.449c1.859,0,3.366,1.506,3.366,3.366C2040.733,2818.328,2039.226,2819.833,2037.367,2819.833z"/>
						<path style="fill:#FFFFFF;" d="M2037.367,2832.598h-57.449c-1.859,0-3.366-1.506-3.366-3.366s1.507-3.366,3.366-3.366h57.449
							c1.859,0,3.366,1.506,3.366,3.366S2039.226,2832.598,2037.367,2832.598z"/>
					</g>
					<g>
						<path style="fill:#FFFFFF;" d="M2149.072,2819.833h-60.64c-1.859,0-3.366-1.506-3.366-3.366c0-1.86,1.507-3.366,3.366-3.366
							h60.64c1.859,0,3.366,1.506,3.366,3.366C2152.438,2818.328,2150.931,2819.833,2149.072,2819.833z"/>
						<path style="fill:#FFFFFF;" d="M2149.072,2832.598h-60.64c-1.859,0-3.366-1.506-3.366-3.366s1.507-3.366,3.366-3.366h60.64
							c1.859,0,3.366,1.506,3.366,3.366S2150.931,2832.598,2149.072,2832.598z"/>
					</g>
					<g>
						<g>
							<path style="fill:#FFFFFF;" d="M2046.226,2808.568c-1.524,0-2.906-1.042-3.272-2.59l-11.468-48.417
								c-0.429-1.808,0.69-3.623,2.5-4.05c1.805-0.434,3.622,0.687,4.052,2.498l11.468,48.417c0.429,1.808-0.69,3.623-2.5,4.05
								C2046.744,2808.539,2046.484,2808.568,2046.226,2808.568z"/>
							<path style="fill:#FFFFFF;" d="M2077.236,2808.568c-0.266,0-0.536-0.03-0.805-0.099c-1.806-0.44-2.911-2.265-2.467-4.07
								l11.892-48.417c0.444-1.808,2.267-2.929,4.071-2.466c1.806,0.441,2.911,2.265,2.467,4.07l-11.892,48.418
								C2080.124,2807.539,2078.75,2808.568,2077.236,2808.568z"/>
						</g>
						<g>
							<path style="fill:#FFFFFF;" d="M2034.765,2899.03c-0.258,0-0.518-0.03-0.779-0.092c-1.81-0.427-2.929-2.242-2.5-4.05
								l11.468-48.414c0.429-1.811,2.247-2.939,4.052-2.498c1.81,0.427,2.929,2.242,2.5,4.05l-11.468,48.414
								C2037.671,2897.988,2036.288,2899.03,2034.765,2899.03z"/>
							<path style="fill:#FFFFFF;" d="M2089.121,2899.03c-1.514,0-2.888-1.029-3.266-2.564l-11.892-48.415
								c-0.444-1.804,0.661-3.629,2.466-4.069c1.806-0.46,3.629,0.661,4.073,2.465l11.892,48.414
								c0.444,1.805-0.661,3.629-2.465,4.07C2089.657,2899,2089.387,2899.03,2089.121,2899.03z"/>
						</g>
					</g>
				</g>
			</g>
			<path style="opacity:0.6;fill:#FFFFFF;" d="M2150.668,2628.959c0,12.78-10.36,23.139-23.139,23.139h-145.218
				c-12.779,0-23.139-10.36-23.139-23.139l0,0c0-12.779,10.36-23.139,23.139-23.139h145.218
				C2140.309,2605.82,2150.668,2616.18,2150.668,2628.959L2150.668,2628.959z"/>
			<g style="opacity:0.6;">
				<path style="fill:#FFFFFF;" d="M2163.435,2976.274c0,12.213-9.9,22.113-22.113,22.113h-160.037
					c-12.213,0-22.113-9.9-22.113-22.113v-0.457c0-12.213,9.9-22.113,22.113-22.113h160.037c12.213,0,22.113,9.9,22.113,22.113
					V2976.274z"/>
				<path style="fill:#FFFFFF;" d="M2396.421,2976.274c0,12.213-9.9,22.113-22.113,22.113h-160.037
					c-12.213,0-22.113-9.9-22.113-22.113v-0.457c0-12.213,9.9-22.113,22.113-22.113h160.037c12.213,0,22.113,9.9,22.113,22.113
					V2976.274z"/>
				<path style="fill:#FFFFFF;" d="M2629.408,2976.274c0,12.213-9.9,22.113-22.113,22.113h-160.037
					c-12.213,0-22.113-9.9-22.113-22.113v-0.457c0-12.213,9.9-22.113,22.113-22.113h160.037c12.213,0,22.113,9.9,22.113,22.113
					V2976.274z"/>
				<path style="fill:#FFFFFF;" d="M2862.395,2976.274c0,12.213-9.9,22.113-22.113,22.113h-160.036
					c-12.213,0-22.113-9.9-22.113-22.113v-0.457c0-12.213,9.9-22.113,22.113-22.113h160.036c12.213,0,22.113,9.9,22.113,22.113
					V2976.274z"/>
			</g>
			<g style="opacity:0.6;">
				<path style="fill:#FFFFFF;" d="M2318.227,3074.986c0,9.695-7.859,17.554-17.554,17.554h-298.415
					c-9.695,0-17.554-7.859-17.554-17.554l0,0c0-9.695,7.859-17.554,17.554-17.554h298.415
					C2310.368,3057.432,2318.227,3065.291,2318.227,3074.986L2318.227,3074.986z"/>
				<path style="fill:#FFFFFF;" d="M2838.458,3068.602c0,9.695-7.859,17.554-17.554,17.554h-130.856
					c-9.695,0-17.554-7.859-17.554-17.554l0,0c0-9.695,7.859-17.554,17.554-17.554h130.856
					C2830.599,3051.049,2838.458,3058.908,2838.458,3068.602L2838.458,3068.602z"/>
			</g>
		</g>
		<g>
			<g>
				
					<linearGradient id="SVGID_00000178200232216692470810000007573082576246547387_" gradientUnits="userSpaceOnUse" x1="521.1195" y1="2781.6875" x2="1341.7112" y2="1157.8397" gradientTransform="matrix(0.9848 -0.1735 0.1735 0.9848 -83.3804 158.6002)">
					<stop  offset="0" style="stop-color:#2B3582"/>
					<stop  offset="1" style="stop-color:#150E42"/>
				</linearGradient>
				<path style="fill:url(#SVGID_00000178200232216692470810000007573082576246547387_);" d="M943.713,2342.873
					c-61.39-348.429,56.97-675.38,276.159-830.672c-72.487-19.874-147.662-23.617-223.19-11.138
					c-387.498,64.026-560.669,471.497-482.101,917.419c78.567,445.921,421.794,758.161,766.619,697.406
					c75.389-13.283,144.613-43.296,205.943-86.747C1228.078,2958.113,1005.104,2691.302,943.713,2342.873z"/>
				<g>
					
						<linearGradient id="SVGID_00000080889273818404310080000003964303217886414523_" gradientUnits="userSpaceOnUse" x1="248.0304" y1="2551.907" x2="1018.0435" y2="1028.1482" gradientTransform="matrix(0.9848 -0.1735 0.1735 0.9848 -83.3804 158.6002)">
						<stop  offset="0" style="stop-color:#2B3582"/>
						<stop  offset="1" style="stop-color:#150E42"/>
					</linearGradient>
					<path style="fill:url(#SVGID_00000080889273818404310080000003964303217886414523_);" d="M1219.872,1512.202
						c-72.487-19.874-147.662-23.617-223.19-11.138c-348.864,57.643-523.999,393.662-498.12,785.493
						c4.533,68.629,62.278,119.528,122.935,108.841l215.486-37.967c57.123-10.065,96.942-66.152,92.769-130.787
						C910.166,1923.255,1025.27,1650.074,1219.872,1512.202z"/>
				</g>
				<g>
					
						<linearGradient id="SVGID_00000171678732881469925320000003068119952540853147_" gradientUnits="userSpaceOnUse" x1="655.9737" y1="1749.0643" x2="383.5012" y2="2378.7776" gradientTransform="matrix(0.9848 -0.1735 0.1735 0.9848 -83.3804 158.6002)">
						<stop  offset="0" style="stop-color:#2B3582"/>
						<stop  offset="1" style="stop-color:#150E42"/>
					</linearGradient>
					<path style="fill:url(#SVGID_00000171678732881469925320000003068119952540853147_);" d="M1219.872,1512.202
						c-72.487-19.874-147.662-23.617-223.19-11.138c-348.864,57.643-523.999,393.662-498.12,785.493
						c4.533,68.629,62.278,119.528,122.935,108.841l215.486-37.967c57.123-10.065,96.942-66.152,92.769-130.787
						C910.166,1923.255,1025.27,1650.074,1219.872,1512.202z"/>
				</g>
				
					<linearGradient id="SVGID_00000055708690166695570930000001836742092736066495_" gradientUnits="userSpaceOnUse" x1="505.4594" y1="1998.0039" x2="288.6693" y2="2392.4414" gradientTransform="matrix(0.9848 -0.1735 0.1735 0.9848 -83.3804 158.6002)">
					<stop  offset="0" style="stop-color:#2B3582"/>
					<stop  offset="1" style="stop-color:#150E42"/>
				</linearGradient>
				<path style="fill:url(#SVGID_00000055708690166695570930000001836742092736066495_);" d="M808.847,2170.197
					c7.316,41.521-30.87,82.953-85.289,92.541c-54.419,9.588-104.465-16.299-111.781-57.819
					c-7.316-41.521,30.87-82.953,85.289-92.541S801.532,2128.676,808.847,2170.197z"/>
				<g>
					
						<linearGradient id="SVGID_00000092419084631929443840000002514852740448153222_" gradientUnits="userSpaceOnUse" x1="1280.1278" y1="2013.9945" x2="353.051" y2="3185.4836" gradientTransform="matrix(-0.9924 -0.123 -0.123 0.9924 2183.1594 198.8441)">
						<stop  offset="0" style="stop-color:#CB236D"/>
						<stop  offset="1" style="stop-color:#4C246D"/>
					</linearGradient>
					<path style="fill:url(#SVGID_00000092419084631929443840000002514852740448153222_);" d="M564.642,1974.072
						c-1.196-10.003,11.842-14.971,17.57-6.684c55.38,80.118,207.178,285.653,360.839,369.575
						c250.196,136.643,482.341,418.421,423.563,625.94C1366.614,2962.903,694.955,3063.954,564.642,1974.072z"/>
					<path style="opacity:0.43;fill:#FFFFFF;" d="M628.873,2093.52c1.016,2.078,2.406,4.546,3.662,6.864l3.951,7.012l8.062,13.949
						l16.418,27.744c11.091,18.412,22.411,36.686,33.896,54.851c22.912,36.368,46.47,72.327,70.74,107.793
						c48.686,70.82,99.334,140.314,153.558,206.943c27.246,33.188,54.69,66.228,83.464,98.096
						c28.783,31.847,58.288,63.051,89.007,93.022c30.727,29.945,62.262,59.113,95.41,86.377
						c33.071,27.353,67.475,53.073,103.227,76.911l0.015,0.011c0.774,0.516,0.983,1.56,0.467,2.334
						c-0.503,0.754-1.512,0.97-2.278,0.501c-36.776-22.527-71.874-47.722-105.821-74.349
						c-33.766-26.878-65.932-55.682-97.307-85.292c-62.134-59.884-119.962-124.113-174.093-191.217
						c-27.136-33.507-53.156-67.886-78.673-102.614c-25.487-34.752-50.239-70.043-73.987-105.995
						c-23.795-35.918-47.05-72.193-69.31-109.075c-11.096-18.461-22.023-37.022-32.716-55.719
						c-5.315-9.368-10.628-18.736-15.798-28.186l-7.659-14.232l-3.756-7.166c-1.22-2.456-2.452-4.688-3.674-7.505
						c-0.366-0.846,0.021-1.828,0.868-2.194c0.82-0.355,1.769,0,2.16,0.794L628.873,2093.52z"/>
				</g>
				<g>
					
						<linearGradient id="SVGID_00000047758057964983720260000006109738325708754847_" gradientUnits="userSpaceOnUse" x1="-159.434" y1="1945.5144" x2="-797.9229" y2="2752.333" gradientTransform="matrix(-0.8765 -0.4814 -0.4814 0.8765 2028.1194 480.637)">
						<stop  offset="0" style="stop-color:#A737D5"/>
						<stop  offset="1" style="stop-color:#EF497A"/>
					</linearGradient>
					<path style="fill:url(#SVGID_00000047758057964983720260000006109738325708754847_);" d="M1183.85,2194.823
						c1.783-6.705,11.391-6.563,12.945,0.199c15.025,65.374,59.794,235.561,136.737,328.406
						c125.282,151.173,202.039,390.615,111.562,508.426C1445.094,3031.854,989.576,2925.402,1183.85,2194.823z"/>
					<path style="opacity:0.43;fill:#FFFFFF;" d="M1195.042,2287.649c0.135,1.468,0.404,3.445,0.631,5.23l0.777,5.483l1.68,10.961
						l3.552,21.906c2.48,14.589,5.141,29.146,7.935,43.676c5.521,29.072,11.497,58.054,18.085,86.893
						c13.326,57.633,27.961,114.974,45.763,171.347c9.03,28.132,18.081,56.266,28.344,83.966
						c10.25,27.698,21.165,55.152,33.096,82.156c23.653,54.088,51.365,106.454,84.645,155.356c0.529,0.762,0.34,1.811-0.424,2.342
						c-0.738,0.513-1.754,0.337-2.298-0.363c-18.016-23.652-34.185-48.679-49.294-74.31c-14.87-25.78-28.226-52.39-40.87-79.319
						c-24.613-54.172-45.393-110.022-62.913-166.812c-8.807-28.387-16.675-57.045-24.13-85.795
						c-7.444-28.755-14.255-57.673-20.182-86.77c-5.981-29.082-11.558-58.246-16.282-87.554
						c-2.324-14.659-4.512-29.338-6.519-44.044c-0.975-7.358-1.958-14.714-2.812-22.089l-1.202-11.076l-0.541-5.552
						c-0.141-1.9-0.353-3.6-0.403-5.833c-0.021-0.919,0.707-1.681,1.627-1.703c0.879-0.02,1.614,0.646,1.696,1.507
						L1195.042,2287.649z"/>
				</g>
				
					<linearGradient id="SVGID_00000074442903066412914440000008730455855229095073_" gradientUnits="userSpaceOnUse" x1="-845.6941" y1="-146.9334" x2="2.8103" y2="-1826.0165" gradientTransform="matrix(-0.9848 0.1735 -0.1735 -0.9848 655.3071 1763.0226)">
					<stop  offset="0" style="stop-color:#2B3582"/>
					<stop  offset="1" style="stop-color:#150E42"/>
				</linearGradient>
				<path style="fill:url(#SVGID_00000074442903066412914440000008730455855229095073_);" d="M1546.893,2236.598
					c61.39,348.429-72.652,726.481-291.841,881.773c105.344-16.437,163.483-26.681,238.873-39.964
					c344.824-60.755,560.669-471.498,482.101-917.419c-78.567-445.921-421.795-758.16-766.619-697.405
					c-75.389,13.283-239.208,27.281-321.389,56.626C1228.863,1557.844,1485.503,1888.169,1546.893,2236.598z"/>
				
					<linearGradient id="SVGID_00000016060310992244648340000002961254314933943177_" gradientUnits="userSpaceOnUse" x1="373.9257" y1="3005.886" x2="1060.9294" y2="1646.3923" gradientTransform="matrix(0.9848 -0.1735 0.1735 0.9848 -83.3804 158.6002)">
					<stop  offset="0" style="stop-color:#53D8FF"/>
					<stop  offset="1" style="stop-color:#3840F7"/>
				</linearGradient>
				<path style="fill:url(#SVGID_00000016060310992244648340000002961254314933943177_);" d="M875.939,1562.667L875.939,1562.667
					c0.984-0.174,1.958-0.339,2.946-0.501c65.377-10.719,132.236-2.036,198.721,25.806c65.333,27.359,127.672,71.97,185.285,132.592
					c58.415,61.467,108.989,136.257,150.318,222.292c43.072,89.666,74.178,187.724,92.454,291.451
					c18.463,104.787,23.991,208.355,16.432,307.825c-7.343,96.624-26.67,185.196-57.445,263.256
					c-30.652,77.746-71.25,141.397-120.667,189.185c-50.635,48.965-109.018,79.556-173.529,90.922
					c-65.16,11.481-133.076,2.951-201.862-25.353c-67.719-27.865-132.789-73.299-193.402-135.039
					c-61.601-62.746-114.812-138.502-158.154-225.163c-45.402-90.779-77.633-189.084-95.799-292.186
					c-17.927-101.75-20.895-204.371-8.819-305.013c11.352-94.612,35.325-183.001,71.254-262.709
					c34.302-76.099,79.026-141.571,129.339-189.34C763.908,1602.366,818.726,1572.75,875.939,1562.667L875.939,1562.667z
					 M869.043,1523.533C610.407,1569.114,408.908,1975,486.242,2413.919c77.665,440.802,399.684,762.056,691.106,710.71
					c291.423-51.346,458.456-453.457,380.791-894.26c-77.666-440.802-393.76-755.278-685.776-707.401
					C871.251,1523.15,870.153,1523.337,869.043,1523.533L869.043,1523.533z"/>
				
					<linearGradient id="SVGID_00000039096369190242534860000013338561793614818955_" gradientUnits="userSpaceOnUse" x1="467.7292" y1="2038.8289" x2="582.5432" y2="1815.2437" gradientTransform="matrix(0.9848 -0.1735 0.1735 0.9848 -83.3804 158.6002)">
					<stop  offset="0" style="stop-color:#2B3582"/>
					<stop  offset="1" style="stop-color:#150E42"/>
				</linearGradient>
				<path style="fill:url(#SVGID_00000039096369190242534860000013338561793614818955_);" d="M870.198,1936.402
					c7.316,41.521-30.87,82.953-85.289,92.541c-54.419,9.588-104.465-16.298-111.781-57.819
					c-7.316-41.521,30.87-82.953,85.289-92.541C812.836,1868.995,862.882,1894.882,870.198,1936.402z"/>
				
					<linearGradient id="SVGID_00000033357850973008145030000010189663827790598823_" gradientUnits="userSpaceOnUse" x1="611.3491" y1="1839.3647" x2="716.62" y2="1634.3634" gradientTransform="matrix(0.9848 -0.1735 0.1735 0.9848 -83.3804 158.6002)">
					<stop  offset="0" style="stop-color:#2B3582"/>
					<stop  offset="1" style="stop-color:#150E42"/>
				</linearGradient>
				<path style="fill:url(#SVGID_00000033357850973008145030000010189663827790598823_);" d="M973.646,1725.984
					c6.414,36.401-32.503,73.684-86.922,83.272c-54.419,9.588-103.734-12.148-110.148-48.55
					c-6.414-36.402,32.502-73.684,86.922-83.272C917.917,1667.846,967.232,1689.582,973.646,1725.984z"/>
			</g>
			<g>
				
					<linearGradient id="SVGID_00000177447430586565304940000014907603054286319544_" gradientUnits="userSpaceOnUse" x1="2387.8262" y1="684.0521" x2="2037.7488" y2="1404.4031">
					<stop  offset="0" style="stop-color:#53D8FF"/>
					<stop  offset="1" style="stop-color:#3840F7"/>
				</linearGradient>
				<path style="fill:url(#SVGID_00000177447430586565304940000014907603054286319544_);" d="M1432.272,2836.645l645.308-105.294
					c53.879-8.877,75.436-54.836,66.262-110.295l-153.086-925.52c-9.01-54.474-58.571-92.061-111.702-84.716l-658.269,84.896
					c-56.094,7.754-93.937,62.311-82.928,119.553l180.731,939.723C1329.003,2809.147,1379.413,2845.354,1432.272,2836.645z"/>
				
					<linearGradient id="SVGID_00000085940480911265801080000006152588886072622222_" gradientUnits="userSpaceOnUse" x1="2031.8901" y1="1658.9413" x2="873.9454" y2="3463.1797">
					<stop  offset="0" style="stop-color:#53D8FF"/>
					<stop  offset="1" style="stop-color:#3840F7"/>
				</linearGradient>
				<path style="fill:url(#SVGID_00000085940480911265801080000006152588886072622222_);" d="M2081.188,2698.265
					c40.76-6.716,68.197-46.797,61.159-89.347l-149.244-902.318c-6.979-42.195-44.237-70.866-84.82-65.271l-631.658,80.98
					c-0.642,0.088-1.283,0.185-1.92,0.29c-20.088,3.31-37.511,14.697-49.06,32.064c-11.543,17.358-15.689,38.432-11.676,59.341
					l175.861,916.221c8.048,41.932,45.963,69.57,86.316,62.922L2081.188,2698.265z"/>
				<path style="opacity:0.36;fill:#FFFFFF;" d="M2080.152,2634.42c8.02-1.322,13.434-9.114,12.069-17.368l-149.248-902.317
					c-1.399-8.46-8.403-13.772-16.655-12.631l-640.966,82.51c-4.039,0.665-7.277,2.766-9.625,6.242
					c-2.342,3.468-3.12,7.343-2.318,11.517l176.2,916.164c1.617,8.406,8.745,13.526,16.95,12.175L2080.152,2634.42z"/>
				
					<linearGradient id="SVGID_00000005968948508834437310000005748986753225294479_" gradientUnits="userSpaceOnUse" x1="-2835.7537" y1="-332.8406" x2="-3448.3877" y2="636.6028" gradientTransform="matrix(-0.6824 -0.731 -0.731 0.6824 -220.2352 785.5939)">
					<stop  offset="0" style="stop-color:#A737D5"/>
					<stop  offset="1" style="stop-color:#EF497A"/>
				</linearGradient>
				<path style="fill:url(#SVGID_00000005968948508834437310000005748986753225294479_);" d="M1943.938,2565.179
					c-14.366,13.775-15.029,37.022-1.481,51.922c13.548,14.901,36.176,15.813,50.542,2.037
					c14.366-13.775,15.029-37.021,1.481-51.922C1980.933,2552.316,1958.304,2551.404,1943.938,2565.179z"/>
				
					<linearGradient id="SVGID_00000008129957601930027300000005903933391047966638_" gradientUnits="userSpaceOnUse" x1="-2735.8359" y1="-269.6979" x2="-3348.4697" y2="699.7448" gradientTransform="matrix(-0.6824 -0.731 -0.731 0.6824 -220.2352 785.5939)">
					<stop  offset="0" style="stop-color:#A737D5"/>
					<stop  offset="1" style="stop-color:#EF497A"/>
				</linearGradient>
				<path style="fill:url(#SVGID_00000008129957601930027300000005903933391047966638_);" d="M1816.098,2586.759
					c-14.366,13.776-15.029,37.022-1.481,51.922c13.548,14.9,36.177,15.813,50.543,2.037c14.366-13.776,15.029-37.021,1.481-51.922
					C1853.093,2573.896,1830.464,2572.984,1816.098,2586.759z"/>
				<path style="opacity:0.61;fill:#FFFFFF;" d="M1688.259,2608.34c-14.366,13.775-15.029,37.021-1.481,51.922
					c13.548,14.9,36.177,15.813,50.542,2.037c14.366-13.775,15.029-37.021,1.481-51.922
					C1725.253,2595.477,1702.624,2594.565,1688.259,2608.34z"/>
				
					<ellipse transform="matrix(0.9848 -0.1736 0.1736 0.9848 -437.1473 315.4673)" style="opacity:0.61;fill:#FFFFFF;" cx="1584.949" cy="2656.9" rx="35.722" ry="36.774"/>
				<path style="opacity:0.61;fill:#FFFFFF;" d="M1527.965,1791.3c-9.394,9.008-9.828,24.209-0.969,33.953
					c8.859,9.744,23.656,10.34,33.051,1.332c9.394-9.008,9.828-24.209,0.969-33.953
					C1552.156,1782.889,1537.359,1782.292,1527.965,1791.3z"/>
				<path style="opacity:0.61;fill:#FFFFFF;" d="M1444.368,1805.412c-9.394,9.008-9.828,24.209-0.969,33.953
					c8.859,9.743,23.656,10.34,33.051,1.332c9.394-9.008,9.828-24.209,0.969-33.953
					C1468.559,1797.001,1453.762,1796.405,1444.368,1805.412z"/>
				<path style="opacity:0.61;fill:#FFFFFF;" d="M1360.771,1819.524c-9.394,9.008-9.828,24.209-0.969,33.953
					c8.859,9.744,23.657,10.34,33.051,1.332c9.394-9.008,9.828-24.209,0.968-33.953
					C1384.962,1811.113,1370.165,1810.516,1360.771,1819.524z"/>
			</g>
		</g>
		<g>
			
				<linearGradient id="SVGID_00000153678240802972527300000013764658701318790280_" gradientUnits="userSpaceOnUse" x1="873.667" y1="2136.0056" x2="791.983" y2="2386.3838" gradientTransform="matrix(-1 0 0 1 2397.9988 0)">
				<stop  offset="0" style="stop-color:#F9B776"/>
				<stop  offset="1" style="stop-color:#F47960"/>
			</linearGradient>
			<path style="fill:url(#SVGID_00000153678240802972527300000013764658701318790280_);" d="M1603.862,2154.521
				c0,0,113.637,145.493-16.015,293.471l-48.743-4.542c0,0,93.83-150.661,52.038-270.758l-69.046,5.041l-38.182-24.887
				L1603.862,2154.521z"/>
			
				<linearGradient id="SVGID_00000036224789030827219540000009825876756497275828_" gradientUnits="userSpaceOnUse" x1="856.3745" y1="3025.7354" x2="1028.4872" y2="3025.7354" gradientTransform="matrix(-1 0 0 1 2397.9988 0)">
				<stop  offset="0" style="stop-color:#F9B776"/>
				<stop  offset="1" style="stop-color:#F47960"/>
			</linearGradient>
			<path style="fill:url(#SVGID_00000036224789030827219540000009825876756497275828_);" d="M1541.624,2866.85
				c0,0-92.07,200.669-140.376,283.786c0,0-9.594,52.299,0,68.744l8.176,3.634l-38.16-1.136c0,0-3.39-70.347-0.743-74.277
				s7.942-3.672,7.942-3.672s16.363-129.633,63.749-157.299l45.924-158.175L1541.624,2866.85z"/>
			
				<linearGradient id="SVGID_00000026846941000570847300000017689773194817014167_" gradientUnits="userSpaceOnUse" x1="1092.9479" y1="2640.8391" x2="1007.7125" y2="3194.8669" gradientTransform="matrix(-1 0 0 1 2397.9988 0)">
				<stop  offset="0" style="stop-color:#53D8FF"/>
				<stop  offset="1" style="stop-color:#3840F7"/>
			</linearGradient>
			<path style="fill:url(#SVGID_00000026846941000570847300000017689773194817014167_);" d="M1425.722,3232.866
				c0.057,0.92-29.797,0.5-46.015,0.203c-5.988-0.109-11.093-4.318-12.369-10.17l-12.247-64.342
				c-1.164-6.115,2.719-12.054,8.787-13.441l6.836-1.563c0,0,9.752,13.377,6.682,25.972s-5.802,45.22,1.956,49.022
				s30.073,4.466,30.073,4.466S1425.212,3224.58,1425.722,3232.866z"/>
			
				<linearGradient id="SVGID_00000062178669496243091940000017173348480061403307_" gradientUnits="userSpaceOnUse" x1="912.5988" y1="2613.0935" x2="827.363" y2="3167.1235" gradientTransform="matrix(-1 0 0 1 2397.9988 0)">
				<stop  offset="0" style="stop-color:#53D8FF"/>
				<stop  offset="1" style="stop-color:#3840F7"/>
			</linearGradient>
			<path style="fill:url(#SVGID_00000062178669496243091940000017173348480061403307_);" d="M1628.891,3234.034
				c3.02,1.72,1.774,6.331-1.701,6.296c-27.139-0.273-87.952-1.132-93.356-3.379c-6.977-2.901,2.543-27.971,12.561-36.456
				l55.316,18.054L1628.891,3234.034z"/>
			
				<linearGradient id="SVGID_00000169528521972744580810000014448028566587530147_" gradientUnits="userSpaceOnUse" x1="751.9375" y1="3038.533" x2="851.6044" y2="3038.533" gradientTransform="matrix(-1 0 0 1 2397.9988 0)">
				<stop  offset="0" style="stop-color:#F9B776"/>
				<stop  offset="1" style="stop-color:#F47960"/>
			</linearGradient>
			<path style="fill:url(#SVGID_00000169528521972744580810000014448028566587530147_);" d="M1646.061,2854.052
				c0,0-59.498,287.83-76.329,343.977l39.817,24.986c0,0-19.953-3.394-34.749-4.466c-14.796-1.072-28.406-18.054-28.406-18.054
				l4.77-7.608c0,0,14.92-286.263,11.288-318.768L1646.061,2854.052z"/>
			
				<linearGradient id="SVGID_00000004536730448230665370000011039204876882480528_" gradientUnits="userSpaceOnUse" x1="537.2366" y1="2290.7668" x2="732.3529" y2="2290.7668" gradientTransform="matrix(-1 0 0 1 2397.9988 0)">
				<stop  offset="0" style="stop-color:#F9B776"/>
				<stop  offset="1" style="stop-color:#F47960"/>
			</linearGradient>
			<path style="fill:url(#SVGID_00000004536730448230665370000011039204876882480528_);" d="M1793.756,2182.687
				c0,0,8.207,149.727-128.11,226.237l32.819,74.85c0,0,123.417-74.649,118.853-278.246c-0.131-5.843,1.977-11.517,5.792-15.944
				l26.23-30.43c9.994-11.594,13.728-27.322,10.013-42.171l-3.453-13.801c-1.156-4.62-6.418-6.844-10.537-4.451l-2.743,1.593
				c-8.732,5.072-15.649,12.76-19.773,21.978l-12.88,28.791c-4.811,10.755-15.903,17.284-27.641,16.271l-7.964-0.688
				L1793.756,2182.687z"/>
			
				<linearGradient id="SVGID_00000060007905670690387100000006555181787828401825_" gradientUnits="userSpaceOnUse" x1="751.0508" y1="2396.8362" x2="1116.8521" y2="3121.3359" gradientTransform="matrix(-1 0 0 1 2397.9988 0)">
				<stop  offset="0" style="stop-color:#FDF53F"/>
				<stop  offset="1" style="stop-color:#D93C65"/>
			</linearGradient>
			<path style="fill:url(#SVGID_00000060007905670690387100000006555181787828401825_);" d="M1670.391,2397.704
				c-22.806,6.324-100.068,26.649-148.301,25.819l29.614,167.118l-2.357,27.258l96.555-0.433c0,0,27.181-63.125,48.626-94.597
				c6.194-9.09,1.584-19.931-1.926-30.355l4.823-3.211c4.908-3.268,7.036-9.406,5.205-15.01l-23.513-71.939
				C1677.896,2398.727,1674.078,2396.682,1670.391,2397.704z"/>
			
				<linearGradient id="SVGID_00000063626491722622828040000002749433575341978761_" gradientUnits="userSpaceOnUse" x1="663.9411" y1="2588.2795" x2="983.5732" y2="2948.7534" gradientTransform="matrix(-1 0 0 1 2397.9988 0)">
				<stop  offset="0" style="stop-color:#2B3582"/>
				<stop  offset="1" style="stop-color:#150E42"/>
			</linearGradient>
			<path style="fill:url(#SVGID_00000063626491722622828040000002749433575341978761_);" d="M1653.639,2603.202l-1.899,16.513
				c0,0,27.286,81.716-13.644,272.575c0,0-88.644,25.113-161.5-34.979c0,0,20.552-180.141,26.165-188.532
				c27.96-41.795,46.586-50.881,46.586-50.881l0.84-18.041C1550.187,2599.857,1628.112,2613.946,1653.639,2603.202z"/>
			
				<linearGradient id="SVGID_00000031165777393277600750000017350847126291877819_" gradientUnits="userSpaceOnUse" x1="782.1519" y1="2386.5601" x2="843.1426" y2="2386.5601" gradientTransform="matrix(-1 0 0 1 2397.9988 0)">
				<stop  offset="0" style="stop-color:#F9B776"/>
				<stop  offset="1" style="stop-color:#F47960"/>
			</linearGradient>
			<path style="fill:url(#SVGID_00000031165777393277600750000017350847126291877819_);" d="M1615.843,2411.173
				c0.339-0.447-20.158-61.882-20.158-61.882l-29.36,2.664l-11.469,69.695C1554.856,2421.649,1600.869,2430.936,1615.843,2411.173z"
				/>
			
				<linearGradient id="SVGID_00000180362122033792738090000014226641895668608415_" gradientUnits="userSpaceOnUse" x1="879.0853" y1="2307.7422" x2="1323.019" y2="2337.9297" gradientTransform="matrix(-1 0 0 1 2397.9988 0)">
				<stop  offset="0" style="stop-color:#F9B776"/>
				<stop  offset="1" style="stop-color:#F47960"/>
			</linearGradient>
			<path style="fill:url(#SVGID_00000180362122033792738090000014226641895668608415_);" d="M1573.354,2252.407
				c1.958,1.219,62.738,26.337,49.679,89.438c-0.772,3.729-3.26,6.889-6.737,8.44c-8.919,3.978-28.12,10.79-51.087,8.457
				c-31.84-3.236-52.704-58.798-51.817-74.966C1514.279,2267.607,1553.951,2240.325,1573.354,2252.407z"/>
			
				<linearGradient id="SVGID_00000081608707939486503270000003096753194691575957_" gradientUnits="userSpaceOnUse" x1="952.0524" y1="2280.9827" x2="795.7881" y2="2593.5103" gradientTransform="matrix(-1 0 0 1 2397.9988 0)">
				<stop  offset="0" style="stop-color:#2B3582"/>
				<stop  offset="1" style="stop-color:#150E42"/>
			</linearGradient>
			<path style="fill:url(#SVGID_00000081608707939486503270000003096753194691575957_);" d="M1554.856,2227.875
				c1.598,0.21,35.124,11.886,18.498,36.18c-16.626,24.294-22.863,38.595-14.999,49.263c7.164,9.719,23.035,4.18,21.65,24.4
				c-0.277,4.047,1.473,7.977,4.833,10.251c14.955,10.124,51.443,41.283,15.292,85.721c-2.938,3.612-3.544,8.598-1.276,12.665
				c10.588,18.991,32.828,74.625-47.69,105.486c-79.565,30.495-108.292-21.515-116.318-42.303
				c-1.736-4.496-6.163-7.249-10.977-7.021c-8.742,0.413-21.132-1.042-20.562-12.725c0.346-7.096,4.774-13.456,10.007-18.555
				c5.179-5.046,4.156-13.883-2.131-17.455c-4.749-2.698-8.953-6.911-10.726-13.484c-4.822-17.868,4.805-71.292,56.014-80.346
				c4.272-0.755,8.745-4.76,9.367-9.053c0.009-0.064,0.019-0.127,0.03-0.191c0.687-4.152-0.718-8.397-4.111-10.886
				c-8.177-5.999-18.663-18.075-10.146-37.441c7.554-17.176,22.042-22.97,32.804-24.817c6.318-1.084,10.473-7.06,9.141-13.331
				C1489.923,2247.144,1493.087,2219.777,1554.856,2227.875z"/>
			<g>
				
					<linearGradient id="SVGID_00000104704832061543244750000008486298952820030899_" gradientUnits="userSpaceOnUse" x1="1957.8265" y1="2384.3528" x2="2399.7314" y2="1871.428" gradientTransform="matrix(1 0 0 1 -748 0)">
					<stop  offset="0" style="stop-color:#FDF53F"/>
					<stop  offset="1" style="stop-color:#D93C65"/>
				</linearGradient>
				
					<circle style="fill:url(#SVGID_00000104704832061543244750000008486298952820030899_);" cx="1660.657" cy="1861.068" r="329.457"/>
				
					<linearGradient id="SVGID_00000129901420338572302690000000006358202646341789_" gradientUnits="userSpaceOnUse" x1="2649.4368" y1="1497.3192" x2="1342.7122" y2="3471.4075" gradientTransform="matrix(1 0 0 1 -748 0)">
					<stop  offset="0" style="stop-color:#FDF53F"/>
					<stop  offset="1" style="stop-color:#D93C65"/>
				</linearGradient>
				
					<circle style="fill:url(#SVGID_00000129901420338572302690000000006358202646341789_);" cx="1660.658" cy="1861.068" r="318.501"/>
				<path style="fill:#FFFFFF;" d="M1398.02,1733.795c-0.762,0-1.536-0.172-2.264-0.541c-2.483-1.254-3.478-4.282-2.225-6.76
					c51.208-101.453,153.566-164.475,267.125-164.475c18.124,0,36.273,1.632,53.944,4.857c2.736,0.496,4.55,3.117,4.051,5.855
					c-0.497,2.738-3.127,4.562-5.855,4.046c-17.079-3.112-34.621-4.69-52.14-4.69c-109.74,0-208.651,60.903-258.138,158.939
					C1401.634,1732.782,1399.861,1733.795,1398.02,1733.795z"/>
				
					<ellipse transform="matrix(0.7071 -0.7071 0.7071 0.7071 -832.4523 1726.2958)" style="opacity:0.78;fill:#FFFFFF;" cx="1667.597" cy="1868.007" rx="269.572" ry="269.572"/>
				<g>
					
						<linearGradient id="SVGID_00000156568701288052636220000015230576063438614691_" gradientUnits="userSpaceOnUse" x1="2610.4556" y1="1553.8829" x2="1914.6517" y2="2722.0222" gradientTransform="matrix(1 0 0 1 -748 0)">
						<stop  offset="0" style="stop-color:#FDF53F"/>
						<stop  offset="1" style="stop-color:#D93C65"/>
					</linearGradient>
					<path style="fill:url(#SVGID_00000156568701288052636220000015230576063438614691_);" d="M1641.143,2068.411v-29.328
						c-30.574-1.224-60.814-8.44-82.292-17.842c-7.67-3.358-11.579-11.965-9.376-20.042l7.451-27.318
						c2.733-10.021,13.632-15.205,23.212-11.189c21.306,8.932,47.613,15.998,75.98,15.998c29.447,0,51.408-9.984,51.408-30.448
						c0-18.467-16.969-29.446-57.897-40.425c-58.396-15.972-100.323-41.428-100.323-92.836c0-46.421,33.942-81.857,92.836-91.338
						v-29.332c0-9.437,7.651-17.088,17.089-17.088h17.232c9.437,0,17.089,7.651,17.089,17.088v26.335
						c28.291,1.132,48.884,5.97,65.227,11.713c8.373,2.942,12.949,11.962,10.626,20.528l-6.852,25.265
						c-2.642,9.742-13.055,15.079-22.497,11.508c-15.047-5.69-36.321-11.615-63.973-11.615c-34.939,0-44.919,14.473-44.919,27.451
						c0,15.972,20.962,26.952,66.381,40.929c64.886,19.465,91.837,46.416,91.837,94.831c0,44.422-32.941,84.351-96.827,94.335
						v32.822c0,9.437-7.651,17.089-17.089,17.089h-17.233C1648.794,2085.499,1641.143,2077.848,1641.143,2068.411z"/>
				</g>
			</g>
		</g>
		<g>
			<g>
				<g>
					<g>
						<g>
							<g>
								<path style="fill:#FFFFFF;" d="M1864.038,922.76l-16.864-62.313l-49.18-26.795l-6.555,11.994l44.018,23.76l52.458,192.339
									l1.621,5.714h214.025c20.846,0,40.035-10.231,51.348-27.746l9.596-12.666c10.326-16,17.137-34.393,17.137-53.442V922.76
									H1864.038z M2166.137,973.604c0,16.388-5.166,32.335-14.065,46.097l-8.485,14.262c-8.758,13.568-23.869,23.16-40.028,23.16
									h-203.523l-11.137-41.112l-21.11-77.747h298.347V973.604z"/>
							</g>
							<g>
								<path style="fill:#FFFFFF;" d="M2152.792,1137.232c0,3.788-3.083,7.743-6.889,7.743h-251.117
									c-3.807,0-7.71-5.945-7.71-9.733v-118.413c0-1.304,0.772-1.034,1.406-2.073l11.555,42.367h2.543v72.349h243.324
									C2149.709,1129.472,2152.792,1133.426,2152.792,1137.232z"/>
							</g>
						</g>
						<g>
							<rect x="2013.38" y="929.644" style="fill:#FFFFFF;" width="9.167" height="128.902"/>
							<g>
								<rect x="1932.411" y="929.644" style="fill:#FFFFFF;" width="9.166" height="128.902"/>
								<rect x="2092.439" y="929.644" style="fill:#FFFFFF;" width="9.167" height="128.902"/>
							</g>
						</g>
						<g>
							<rect x="1871.272" y="967.561" style="fill:#FFFFFF;" width="298.146" height="8.197"/>
							<rect x="1884.287" y="1012.431" style="fill:#FFFFFF;" width="277.663" height="8.198"/>
						</g>
					</g>
					<path style="fill:#FFFFFF;" d="M1926.949,1153.821c-16.353,0-29.609,13.256-29.609,29.608
						c0,16.353,13.256,29.609,29.609,29.609c16.352,0,29.608-13.256,29.608-29.609
						C1956.558,1167.077,1943.301,1153.821,1926.949,1153.821z M1926.949,1201.3c-9.87,0-17.871-8.001-17.871-17.871
						c0-9.869,8.002-17.871,17.871-17.871c9.87,0,17.871,8.001,17.871,17.871C1944.82,1193.299,1936.819,1201.3,1926.949,1201.3z"/>
					<path style="fill:#FFFFFF;" d="M2110.945,1153.821c-16.353,0-29.609,13.256-29.609,29.608
						c0,16.353,13.256,29.609,29.609,29.609c16.352,0,29.608-13.256,29.608-29.609
						C2140.554,1167.077,2127.297,1153.821,2110.945,1153.821z M2110.945,1201.3c-9.869,0-17.871-8.001-17.871-17.871
						c0-9.869,8.001-17.871,17.871-17.871c9.87,0,17.871,8.001,17.871,17.871C2128.816,1193.299,2120.815,1201.3,2110.945,1201.3z"
						/>
				</g>
				<path style="fill:#FFFFFF;" d="M1828.499,845.599c0,7.682-6.228,13.91-13.911,13.91h-46.287c-7.682,0-13.911-6.228-13.911-13.91
					l0,0c0-7.683,6.228-13.911,13.911-13.911h46.287C1822.27,831.689,1828.499,837.916,1828.499,845.599L1828.499,845.599z"/>
			</g>
		</g>
	</g>
</g>
</svg>
