<?xml version="1.0" encoding="utf-8"?>
<!-- Generator: Adobe Illustrator 27.5.0, SVG Export Plug-In . SVG Version: 6.00 Build 0)  -->
<svg version="1.1" xmlns="http://www.w3.org/2000/svg" xmlns:xlink="http://www.w3.org/1999/xlink" x="0px" y="0px"
	 viewBox="0 0 3710 3710" style="enable-background:new 0 0 3710 3710;" xml:space="preserve">
<g id="Background">
	<g>
		<g>
			<rect style="fill:#FFFFFF;" width="3710" height="3710"/>
		</g>
	</g>
</g>
<g id="Illustration">
	<g>
		<linearGradient id="SVGID_1_" gradientUnits="userSpaceOnUse" x1="3371.5571" y1="3533.4602" x2="1365.1058" y2="1367.7666">
			<stop  offset="0" style="stop-color:#B37CFF"/>
			<stop  offset="1" style="stop-color:#F895E7"/>
		</linearGradient>
		<path style="opacity:0.3;fill:url(#SVGID_1_);" d="M3099.19,2296.675c-277.343,641.084-1009.439,916.445-1583.047,869.495
			c-156.619-12.819-471.738-38.612-717.787-268.717C325.838,2455.552,398.61,1531.853,850.946,988.03
			c58.251-70.033,461.46-539.248,1089.784-532.967c460.025,4.599,782.912,261.585,822.174,293.601
			c49.598,40.444,158.992,136.553,257.582,289.023C3252.139,1395.939,3272.502,1896.061,3099.19,2296.675z"/>
		<g>
			<g>
				
					<linearGradient id="SVGID_00000116226510280776377480000002594421056824769180_" gradientUnits="userSpaceOnUse" x1="1929.0807" y1="1307.7014" x2="1804.4143" y2="3812.3401">
					<stop  offset="0" style="stop-color:#53D8FF"/>
					<stop  offset="1" style="stop-color:#3840F7"/>
				</linearGradient>
				<path style="fill:url(#SVGID_00000116226510280776377480000002594421056824769180_);" d="M3235.902,3003.074H469.501
					c-2.485,0-4.5-2.015-4.5-4.5v-312.706c0-2.485,2.015-4.5,4.5-4.5h2766.401c2.485,0,4.5,2.015,4.5,4.5v312.706
					C3240.402,3001.06,3238.387,3003.074,3235.902,3003.074z"/>
				
					<linearGradient id="SVGID_00000179614112402005962350000018054623782904766386_" gradientUnits="userSpaceOnUse" x1="1821.3527" y1="3557.7693" x2="1927.4298" y2="1743.8412">
					<stop  offset="0" style="stop-color:#53D8FF"/>
					<stop  offset="1" style="stop-color:#3840F7"/>
				</linearGradient>
				<path style="fill:url(#SVGID_00000179614112402005962350000018054623782904766386_);" d="M3269.158,3049.293H440.842
					c-4.174,0-7.558-3.384-7.558-7.558v-118.676c0-4.174,3.384-7.558,7.558-7.558h2828.316c4.174,0,7.558,3.384,7.558,7.558v118.676
					C3276.716,3045.91,3273.332,3049.293,3269.158,3049.293z"/>
				
					<linearGradient id="SVGID_00000126313045479679609200000013286161843372126384_" gradientUnits="userSpaceOnUse" x1="2761.3418" y1="-395.5713" x2="836.144" y2="3415.3752">
					<stop  offset="0" style="stop-color:#53D8FF"/>
					<stop  offset="1" style="stop-color:#3840F7"/>
				</linearGradient>
				<path style="fill:url(#SVGID_00000126313045479679609200000013286161843372126384_);" d="M3159.776,1454.134H530.443
					c-39.524,0-49.891-54.627-13.115-69.107l1314.666-517.631c8.428-3.318,17.802-3.318,26.229,0l1314.667,517.631
					C3209.667,1399.507,3199.3,1454.134,3159.776,1454.134z"/>
				<g>
					<g>
						<g>
							
								<linearGradient id="SVGID_00000098206066635327253200000008499511081169005744_" gradientUnits="userSpaceOnUse" x1="2059.7676" y1="-749.9866" x2="134.5708" y2="3060.9578">
								<stop  offset="0" style="stop-color:#53D8FF"/>
								<stop  offset="1" style="stop-color:#3840F7"/>
							</linearGradient>
							
								<rect x="617.389" y="1530.694" style="fill:url(#SVGID_00000098206066635327253200000008499511081169005744_);" width="56.383" height="1037.432"/>
							
								<linearGradient id="SVGID_00000000905368197691313090000001643721111136355240_" gradientUnits="userSpaceOnUse" x1="2127.1458" y1="-715.9497" x2="201.9498" y2="3094.9932">
								<stop  offset="0" style="stop-color:#53D8FF"/>
								<stop  offset="1" style="stop-color:#3840F7"/>
							</linearGradient>
							
								<rect x="701.962" y="1530.694" style="fill:url(#SVGID_00000000905368197691313090000001643721111136355240_);" width="56.382" height="1037.432"/>
							
								<linearGradient id="SVGID_00000080914411064357197240000014935772078052541579_" gradientUnits="userSpaceOnUse" x1="2194.5251" y1="-681.9139" x2="269.3291" y2="3129.0291">
								<stop  offset="0" style="stop-color:#53D8FF"/>
								<stop  offset="1" style="stop-color:#3840F7"/>
							</linearGradient>
							
								<rect x="786.535" y="1530.694" style="fill:url(#SVGID_00000080914411064357197240000014935772078052541579_);" width="56.382" height="1037.432"/>
						</g>
						
							<linearGradient id="SVGID_00000070089214691642075400000001809796264738557363_" gradientUnits="userSpaceOnUse" x1="1898.7402" y1="-831.3259" x2="-26.4575" y2="2979.6204">
							<stop  offset="0" style="stop-color:#53D8FF"/>
							<stop  offset="1" style="stop-color:#3840F7"/>
						</linearGradient>
						<polygon style="fill:url(#SVGID_00000070089214691642075400000001809796264738557363_);" points="904.938,1474.313 
							555.369,1474.313 555.369,1489.493 606.113,1513.78 854.194,1513.78 904.938,1489.493 						"/>
						
							<linearGradient id="SVGID_00000060032451347635509290000004234006216917544357_" gradientUnits="userSpaceOnUse" x1="2363.4614" y1="-596.5544" x2="438.2672" y2="3214.3848">
							<stop  offset="0" style="stop-color:#53D8FF"/>
							<stop  offset="1" style="stop-color:#3840F7"/>
						</linearGradient>
						<polygon style="fill:url(#SVGID_00000060032451347635509290000004234006216917544357_);" points="907.756,2658.338 
							558.187,2658.338 558.187,2603.69 608.931,2579.402 857.013,2579.402 907.756,2603.69 						"/>
					</g>
					<g>
						<g>
							
								<linearGradient id="SVGID_00000064352105829909206350000017685914469350557371_" gradientUnits="userSpaceOnUse" x1="2414.6252" y1="-570.7201" x2="489.4292" y2="3240.2229">
								<stop  offset="0" style="stop-color:#53D8FF"/>
								<stop  offset="1" style="stop-color:#3840F7"/>
							</linearGradient>
							
								<rect x="1062.808" y="1530.694" style="fill:url(#SVGID_00000064352105829909206350000017685914469350557371_);" width="56.382" height="1037.432"/>
							
								<linearGradient id="SVGID_00000080166379588278249380000008322533969749781661_" gradientUnits="userSpaceOnUse" x1="2482.0044" y1="-536.6841" x2="556.8085" y2="3274.2588">
								<stop  offset="0" style="stop-color:#53D8FF"/>
								<stop  offset="1" style="stop-color:#3840F7"/>
							</linearGradient>
							
								<rect x="1147.381" y="1530.694" style="fill:url(#SVGID_00000080166379588278249380000008322533969749781661_);" width="56.382" height="1037.432"/>
							
								<linearGradient id="SVGID_00000149382010651054549220000000455552917866364054_" gradientUnits="userSpaceOnUse" x1="2549.3796" y1="-502.64" x2="624.1834" y2="3308.303">
								<stop  offset="0" style="stop-color:#53D8FF"/>
								<stop  offset="1" style="stop-color:#3840F7"/>
							</linearGradient>
							
								<rect x="1231.954" y="1530.694" style="fill:url(#SVGID_00000149382010651054549220000000455552917866364054_);" width="56.382" height="1037.432"/>
						</g>
						
							<linearGradient id="SVGID_00000026862780456667310040000016135025670062472883_" gradientUnits="userSpaceOnUse" x1="2253.6011" y1="-652.066" x2="328.4027" y2="3158.8813">
							<stop  offset="0" style="stop-color:#53D8FF"/>
							<stop  offset="1" style="stop-color:#3840F7"/>
						</linearGradient>
						<polygon style="fill:url(#SVGID_00000026862780456667310040000016135025670062472883_);" points="1350.356,1474.313 
							1000.787,1474.313 1000.787,1489.493 1051.531,1513.78 1299.612,1513.78 1350.356,1489.493 						"/>
						
							<linearGradient id="SVGID_00000102527391331979321020000001294363309368107925_" gradientUnits="userSpaceOnUse" x1="2718.3269" y1="-417.3024" x2="793.1327" y2="3393.6367">
							<stop  offset="0" style="stop-color:#53D8FF"/>
							<stop  offset="1" style="stop-color:#3840F7"/>
						</linearGradient>
						<polygon style="fill:url(#SVGID_00000102527391331979321020000001294363309368107925_);" points="1353.176,2658.338 
							1003.607,2658.338 1003.607,2603.69 1054.35,2579.402 1302.432,2579.402 1353.176,2603.69 						"/>
					</g>
					<g>
						<g>
							
								<linearGradient id="SVGID_00000005988979365705955980000005290572205221265057_" gradientUnits="userSpaceOnUse" x1="2769.4841" y1="-391.4555" x2="844.2872" y2="3419.489">
								<stop  offset="0" style="stop-color:#53D8FF"/>
								<stop  offset="1" style="stop-color:#3840F7"/>
							</linearGradient>
							
								<rect x="1508.226" y="1530.694" style="fill:url(#SVGID_00000005988979365705955980000005290572205221265057_);" width="56.383" height="1037.432"/>
							
								<linearGradient id="SVGID_00000029751462151439498140000007995569823082198667_" gradientUnits="userSpaceOnUse" x1="2836.8633" y1="-357.4195" x2="911.6665" y2="3453.5249">
								<stop  offset="0" style="stop-color:#53D8FF"/>
								<stop  offset="1" style="stop-color:#3840F7"/>
							</linearGradient>
							
								<rect x="1592.8" y="1530.694" style="fill:url(#SVGID_00000029751462151439498140000007995569823082198667_);" width="56.383" height="1037.432"/>
							
								<linearGradient id="SVGID_00000008143187701268945790000009091715496019546761_" gradientUnits="userSpaceOnUse" x1="2904.2375" y1="-323.3744" x2="979.0413" y2="3487.5686">
								<stop  offset="0" style="stop-color:#53D8FF"/>
								<stop  offset="1" style="stop-color:#3840F7"/>
							</linearGradient>
							
								<rect x="1677.373" y="1530.694" style="fill:url(#SVGID_00000008143187701268945790000009091715496019546761_);" width="56.382" height="1037.432"/>
						</g>
						
							<linearGradient id="SVGID_00000140720349686682922390000003584136070221337226_" gradientUnits="userSpaceOnUse" x1="2608.4622" y1="-472.8055" x2="683.2639" y2="3338.1418">
							<stop  offset="0" style="stop-color:#53D8FF"/>
							<stop  offset="1" style="stop-color:#3840F7"/>
						</linearGradient>
						<polygon style="fill:url(#SVGID_00000140720349686682922390000003584136070221337226_);" points="1795.776,1474.313 
							1446.206,1474.313 1446.206,1489.493 1496.95,1513.78 1745.032,1513.78 1795.776,1489.493 						"/>
						
							<linearGradient id="SVGID_00000055705457872538478930000014356642056380498873_" gradientUnits="userSpaceOnUse" x1="3073.1826" y1="-238.0313" x2="1147.9889" y2="3572.907">
							<stop  offset="0" style="stop-color:#53D8FF"/>
							<stop  offset="1" style="stop-color:#3840F7"/>
						</linearGradient>
						<polygon style="fill:url(#SVGID_00000055705457872538478930000014356642056380498873_);" points="1798.595,2658.338 
							1449.026,2658.338 1449.026,2603.69 1499.769,2579.402 1747.851,2579.402 1798.595,2603.69 						"/>
					</g>
					<g>
						<g>
							
								<linearGradient id="SVGID_00000161633020528153668200000001231456521850334379_" gradientUnits="userSpaceOnUse" x1="3124.3418" y1="-212.189" x2="1199.1458" y2="3598.7542">
								<stop  offset="0" style="stop-color:#53D8FF"/>
								<stop  offset="1" style="stop-color:#3840F7"/>
							</linearGradient>
							
								<rect x="1953.646" y="1530.694" style="fill:url(#SVGID_00000161633020528153668200000001231456521850334379_);" width="56.382" height="1037.432"/>
							
								<linearGradient id="SVGID_00000010292347125938515430000000095856023340743592_" gradientUnits="userSpaceOnUse" x1="3191.7212" y1="-178.153" x2="1266.525" y2="3632.7898">
								<stop  offset="0" style="stop-color:#53D8FF"/>
								<stop  offset="1" style="stop-color:#3840F7"/>
							</linearGradient>
							
								<rect x="2038.219" y="1530.694" style="fill:url(#SVGID_00000010292347125938515430000000095856023340743592_);" width="56.382" height="1037.432"/>
							
								<linearGradient id="SVGID_00000118363518530288786190000015344164432148171397_" gradientUnits="userSpaceOnUse" x1="3259.0959" y1="-144.1087" x2="1333.9" y2="3666.8342">
								<stop  offset="0" style="stop-color:#53D8FF"/>
								<stop  offset="1" style="stop-color:#3840F7"/>
							</linearGradient>
							
								<rect x="2122.792" y="1530.694" style="fill:url(#SVGID_00000118363518530288786190000015344164432148171397_);" width="56.382" height="1037.432"/>
						</g>
						
							<linearGradient id="SVGID_00000173883540092595083090000011951398085308077245_" gradientUnits="userSpaceOnUse" x1="2963.3149" y1="-293.5297" x2="1038.1166" y2="3517.4177">
							<stop  offset="0" style="stop-color:#53D8FF"/>
							<stop  offset="1" style="stop-color:#3840F7"/>
						</linearGradient>
						<polygon style="fill:url(#SVGID_00000173883540092595083090000011951398085308077245_);" points="2241.194,1474.313 
							1891.625,1474.313 1891.625,1489.493 1942.369,1513.78 2190.451,1513.78 2241.194,1489.493 						"/>
						
							<linearGradient id="SVGID_00000103253200061534590610000014836237178652601525_" gradientUnits="userSpaceOnUse" x1="3428.0381" y1="-58.7609" x2="1502.8444" y2="3752.1775">
							<stop  offset="0" style="stop-color:#53D8FF"/>
							<stop  offset="1" style="stop-color:#3840F7"/>
						</linearGradient>
						<polygon style="fill:url(#SVGID_00000103253200061534590610000014836237178652601525_);" points="2244.013,2658.338 
							1894.444,2658.338 1894.444,2603.69 1945.188,2579.402 2193.27,2579.402 2244.013,2603.69 						"/>
					</g>
					<g>
						<g>
							
								<linearGradient id="SVGID_00000009586326768586620710000015700447331756521649_" gradientUnits="userSpaceOnUse" x1="3479.2004" y1="-32.9234" x2="1554.0044" y2="3778.0195">
								<stop  offset="0" style="stop-color:#53D8FF"/>
								<stop  offset="1" style="stop-color:#3840F7"/>
							</linearGradient>
							
								<rect x="2399.065" y="1530.694" style="fill:url(#SVGID_00000009586326768586620710000015700447331756521649_);" width="56.382" height="1037.432"/>
							
								<linearGradient id="SVGID_00000117640533162464139780000010194344382160660378_" gradientUnits="userSpaceOnUse" x1="3546.5798" y1="1.1117" x2="1621.3829" y2="3812.0562">
								<stop  offset="0" style="stop-color:#53D8FF"/>
								<stop  offset="1" style="stop-color:#3840F7"/>
							</linearGradient>
							
								<rect x="2483.637" y="1530.694" style="fill:url(#SVGID_00000117640533162464139780000010194344382160660378_);" width="56.383" height="1037.432"/>
							
								<linearGradient id="SVGID_00000062878134045136347020000011011025347206375592_" gradientUnits="userSpaceOnUse" x1="3613.9541" y1="35.1567" x2="1688.7578" y2="3846.0999">
								<stop  offset="0" style="stop-color:#53D8FF"/>
								<stop  offset="1" style="stop-color:#3840F7"/>
							</linearGradient>
							
								<rect x="2568.211" y="1530.694" style="fill:url(#SVGID_00000062878134045136347020000011011025347206375592_);" width="56.382" height="1037.432"/>
						</g>
						
							<linearGradient id="SVGID_00000126298256284412492370000003999022934048270213_" gradientUnits="userSpaceOnUse" x1="3318.1753" y1="-114.2677" x2="1392.9771" y2="3696.6797">
							<stop  offset="0" style="stop-color:#53D8FF"/>
							<stop  offset="1" style="stop-color:#3840F7"/>
						</linearGradient>
						<polygon style="fill:url(#SVGID_00000126298256284412492370000003999022934048270213_);" points="2686.614,1474.313 
							2337.044,1474.313 2337.044,1489.493 2387.788,1513.78 2635.869,1513.78 2686.614,1489.493 						"/>
						
							<linearGradient id="SVGID_00000047061027884400821640000014852657498085442750_" gradientUnits="userSpaceOnUse" x1="3782.8943" y1="120.5096" x2="1857.7006" y2="3931.4478">
							<stop  offset="0" style="stop-color:#53D8FF"/>
							<stop  offset="1" style="stop-color:#3840F7"/>
						</linearGradient>
						<polygon style="fill:url(#SVGID_00000047061027884400821640000014852657498085442750_);" points="2689.433,2658.338 
							2339.864,2658.338 2339.864,2603.69 2390.608,2579.402 2638.689,2579.402 2689.433,2603.69 						"/>
					</g>
					<g>
						<g>
							
								<linearGradient id="SVGID_00000124844253456637432770000000280943134709815178_" gradientUnits="userSpaceOnUse" x1="3834.0583" y1="146.3422" x2="1908.8623" y2="3957.2852">
								<stop  offset="0" style="stop-color:#53D8FF"/>
								<stop  offset="1" style="stop-color:#3840F7"/>
							</linearGradient>
							
								<rect x="2844.483" y="1530.694" style="fill:url(#SVGID_00000124844253456637432770000000280943134709815178_);" width="56.382" height="1037.432"/>
							
								<linearGradient id="SVGID_00000142880029844400122800000016252523098512754876_" gradientUnits="userSpaceOnUse" x1="3901.4377" y1="180.378" x2="1976.2415" y2="3991.321">
								<stop  offset="0" style="stop-color:#53D8FF"/>
								<stop  offset="1" style="stop-color:#3840F7"/>
							</linearGradient>
							
								<rect x="2929.057" y="1530.694" style="fill:url(#SVGID_00000142880029844400122800000016252523098512754876_);" width="56.382" height="1037.432"/>
							
								<linearGradient id="SVGID_00000007390388517190780410000014294604945522517404_" gradientUnits="userSpaceOnUse" x1="3968.8125" y1="214.4224" x2="2043.6166" y2="4025.3652">
								<stop  offset="0" style="stop-color:#53D8FF"/>
								<stop  offset="1" style="stop-color:#3840F7"/>
							</linearGradient>
							
								<rect x="3013.63" y="1530.694" style="fill:url(#SVGID_00000007390388517190780410000014294604945522517404_);" width="56.382" height="1037.432"/>
						</g>
						
							<linearGradient id="SVGID_00000036223685242635416230000003202430078631410834_" gradientUnits="userSpaceOnUse" x1="3673.0332" y1="64.9993" x2="1747.8354" y2="3875.9456">
							<stop  offset="0" style="stop-color:#53D8FF"/>
							<stop  offset="1" style="stop-color:#3840F7"/>
						</linearGradient>
						<polygon style="fill:url(#SVGID_00000036223685242635416230000003202430078631410834_);" points="3132.033,1474.313 
							2782.463,1474.313 2782.463,1489.493 2833.207,1513.78 3081.289,1513.78 3132.033,1489.493 						"/>
						
							<linearGradient id="SVGID_00000183948565920088499000000008686171249454973338_" gradientUnits="userSpaceOnUse" x1="4137.7598" y1="299.7606" x2="2212.5652" y2="4110.7007">
							<stop  offset="0" style="stop-color:#53D8FF"/>
							<stop  offset="1" style="stop-color:#3840F7"/>
						</linearGradient>
						<polygon style="fill:url(#SVGID_00000183948565920088499000000008686171249454973338_);" points="3134.852,2658.338 
							2785.282,2658.338 2785.282,2603.69 2836.026,2579.402 3084.107,2579.402 3134.852,2603.69 						"/>
					</g>
				</g>
				
					<linearGradient id="SVGID_00000070095053101958633060000018210976700958690706_" gradientUnits="userSpaceOnUse" x1="1833.2769" y1="-104.5865" x2="1856.9921" y2="3128.2246">
					<stop  offset="0" style="stop-color:#53D8FF"/>
					<stop  offset="1" style="stop-color:#3840F7"/>
				</linearGradient>
				<path style="fill:url(#SVGID_00000070095053101958633060000018210976700958690706_);" d="M3239.603,2742.194H468.273
					c-1.816,0-3.287-1.472-3.287-3.287v-53.961c0-1.816,1.472-3.287,3.287-3.287h2771.33c1.816,0,3.287,1.472,3.287,3.287v53.961
					C3242.89,2740.722,3241.419,2742.194,3239.603,2742.194z"/>
			</g>
			<g>
				<path style="fill:#FFFFFF;" d="M1449.865,1090.726h68.016c27.717,0,47.895,5.38,60.54,16.138
					c12.642,10.758,18.964,27.871,18.964,51.331c0,15.439-3.345,28.356-10.029,38.75c-6.687,10.394-15.804,16.686-27.353,18.874
					v1.821c15.073,3.77,25.954,10.821,32.641,21.154c6.684,10.333,10.029,24.07,10.029,41.209c0,24.194-6.473,43.128-19.42,56.804
					c-12.947,13.676-30.666,20.514-53.155,20.514h-80.234V1090.726z M1496.547,1197.947h22.794c10.454,0,17.808-2.794,22.064-8.388
					c4.254-5.588,6.382-13.918,6.382-24.982c0-11.061-2.433-18.992-7.294-23.795c-4.864-4.803-12.522-7.204-22.976-7.204h-20.97
					V1197.947z M1496.547,1239.34v74.581h24.982c10.331,0,18.021-3.161,23.067-9.482c5.043-6.318,7.567-16.106,7.567-29.357
					c0-23.827-10.457-35.742-31.364-35.742H1496.547z"/>
				<path style="fill:#FFFFFF;" d="M1765.33,1357.321l-15.317-67.287h-69.475l-15.317,67.287h-49.599l66.01-267.689h67.287
					l66.193,267.689H1765.33z M1740.713,1246.089l-14.223-61.999c-0.852-3.767-2.767-13.22-5.744-28.356
					c-2.98-15.133-4.772-25.256-5.379-30.362c-1.582,10.457-3.588,21.974-6.018,34.556c-2.433,12.582-8.752,41.304-18.964,86.161
					H1740.713z"/>
				<path style="fill:#FFFFFF;" d="M2025.36,1357.321h-60.541l-82.422-193.108h-2.37c3.037,14.709,4.559,30.515,4.559,47.412
					v145.696h-45.952v-266.595h60.905l81.692,191.102h2.006c-2.311-12.764-3.464-27.958-3.464-45.588v-145.514h45.588V1357.321z"/>
				<path style="fill:#FFFFFF;" d="M2238.526,1357.321h-52.881l-43.763-113.969l-19.876,19.876v94.093h-49.599v-266.595h49.599
					v132.202l17.323-39.933l45.405-92.269h53.063l-61.634,115.426L2238.526,1357.321z"/>
			</g>
		</g>
		<g>
			<g>
				
					<linearGradient id="SVGID_00000124159541250879046410000015102896132947714472_" gradientUnits="userSpaceOnUse" x1="1959.0332" y1="1655.2585" x2="2750.4641" y2="3283.0271">
					<stop  offset="0" style="stop-color:#2B3582"/>
					<stop  offset="1" style="stop-color:#150E42"/>
				</linearGradient>
				<path style="fill:url(#SVGID_00000124159541250879046410000015102896132947714472_);" d="M2721.508,3149.673h-738.293
					c-15.275,0-27.657-12.382-27.657-27.657V1806.449c0-15.275,12.382-27.657,27.657-27.657h738.293
					c15.275,0,27.657,12.382,27.657,27.657v1315.567C2749.165,3137.291,2736.783,3149.673,2721.508,3149.673z"/>
				
					<linearGradient id="SVGID_00000071547306383101926000000007765062083837657988_" gradientUnits="userSpaceOnUse" x1="2329.772" y1="2420.6738" x2="3203.9011" y2="4121.1514">
					<stop  offset="0" style="stop-color:#53D8FF"/>
					<stop  offset="1" style="stop-color:#3840F7"/>
				</linearGradient>
				<path style="fill:url(#SVGID_00000071547306383101926000000007765062083837657988_);" d="M2685.181,3107.758h-665.679
					c-15.275,0-27.657-12.383-27.657-27.657V1849.057c0-15.275,12.382-27.657,27.657-27.657h665.679
					c15.275,0,27.657,12.382,27.657,27.657v1231.044C2712.838,3095.375,2700.456,3107.758,2685.181,3107.758z"/>
				
					<linearGradient id="SVGID_00000071530642351100128840000017490481557873989054_" gradientUnits="userSpaceOnUse" x1="2327.1611" y1="1786.7634" x2="2468.1392" y2="2061.0137">
					<stop  offset="0" style="stop-color:#2B3582"/>
					<stop  offset="1" style="stop-color:#150E42"/>
				</linearGradient>
				<path style="fill:url(#SVGID_00000071530642351100128840000017490481557873989054_);" d="M2570.091,1861.096h-430.802
					c-1.665,0-3.027-1.362-3.027-3.027v-35.505c0-1.665,1.362-3.027,3.027-3.027h430.802c1.665,0,3.027,1.362,3.027,3.027v35.505
					C2573.118,1859.734,2571.756,1861.096,2570.091,1861.096z"/>
				
					<linearGradient id="SVGID_00000043424505667621500920000005248587949746865308_" gradientUnits="userSpaceOnUse" x1="2480.8311" y1="1631.2344" x2="2071.4109" y2="2312.6667">
					<stop  offset="0" style="stop-color:#53D8FF"/>
					<stop  offset="1" style="stop-color:#3840F7"/>
				</linearGradient>
				<path style="fill:url(#SVGID_00000043424505667621500920000005248587949746865308_);" d="M2491.826,1840.317H2227.72
					c-0.609,0-1.107-0.498-1.107-1.106v-12.978c0-0.609,0.498-1.107,1.107-1.107h264.106c0.609,0,1.107,0.498,1.107,1.107v12.978
					C2492.933,1839.819,2492.435,1840.317,2491.826,1840.317z"/>
			</g>
			<g>
				<g>
					
						<linearGradient id="SVGID_00000135655098467513883870000016947302493151624865_" gradientUnits="userSpaceOnUse" x1="2381.2451" y1="2038.1064" x2="2355.9128" y2="2468.7512">
						<stop  offset="0" style="stop-color:#FDF53F"/>
						<stop  offset="1" style="stop-color:#D93C65"/>
					</linearGradient>
					<path style="fill:url(#SVGID_00000135655098467513883870000016947302493151624865_);" d="M2523.912,2464.322
						c0,34.781-28.196,62.977-62.977,62.977h-209.478c-34.781,0-62.977-28.196-62.977-62.977v-0.765
						c0-34.781,28.196-62.977,62.977-62.977h209.478c34.781,0,62.977,28.196,62.977,62.977V2464.322z"/>
					<g>
						<path style="fill:#FFFFFF;" d="M2262.054,2428.291c4.203-0.861,11.855-1.509,19.293-1.509c9.806,0,15.844,1.186,20.801,4.635
							c4.526,2.694,7.543,7.436,7.543,13.579c0,6.682-4.203,12.825-12.073,15.735v0.216c7.652,1.94,14.658,7.974,14.658,17.998
							c0,6.466-2.799,11.532-7.006,14.981c-5.171,4.526-13.686,6.788-26.94,6.788c-7.329,0-12.932-0.538-16.276-0.97V2428.291z
							 M2275.204,2456.957h6.788c9.16,0,14.336-4.31,14.336-10.453c0-6.791-5.175-9.914-13.581-9.914
							c-3.88,0-6.143,0.216-7.542,0.538V2456.957z M2275.204,2490.367c1.722,0.216,3.989,0.323,7.006,0.323
							c8.511,0,16.058-3.233,16.058-12.177c0-8.406-7.329-11.855-16.489-11.855h-6.575V2490.367z"/>
						<path style="fill:#FFFFFF;" d="M2337.268,2427.32v42.354c0,14.227,5.929,20.801,14.876,20.801
							c9.592,0,15.303-6.575,15.303-20.801v-42.354h13.254v41.493c0,22.417-11.532,32.331-28.989,32.331
							c-16.812,0-27.699-9.376-27.699-32.224v-41.6H2337.268z"/>
						<path style="fill:#FFFFFF;" d="M2412.376,2499.959v-30.284l-22.955-42.354h15.086l8.729,18.645
							c2.481,5.389,4.312,9.483,6.252,14.44h0.218c1.831-4.633,3.876-9.16,6.357-14.44l8.729-18.645h14.981l-24.141,42.032v30.607
							H2412.376z"/>
					</g>
				</g>
				<g style="opacity:0.8;">
					<path style="fill:#FFFFFF;" d="M2525.428,2044.154c-2.122-2.608-5.449-3.691-8.979-3.617l-321.35,6.741l-8.118-25.786
						c-1.128-3.592-4.506-5.893-8.327-5.792l-44.121,1.159c-4.731,0.124-8.563,3.414-8.563,8.136s3.831,7.82,8.563,7.709
						l37.704-0.891l68.224,218.006c1.149,3.669,4.594,6.193,8.499,6.246l225.554,3.028c5.293,0.071,9.591-3.251,9.591-8.256
						c0-5.004-4.297-8.431-9.591-8.488l-218.973-2.36l-17.574-56.604l240.633,0.365c4.927,0.008,9.27-3.217,10.651-7.688
						l37.979-122.798C2528.219,2050.062,2527.552,2046.764,2525.428,2044.154z"/>
					<path style="fill:#FFFFFF;" d="M2281.957,2269.513c-18.558-0.289-33.572,14.156-33.572,32.197s15.014,33.113,33.572,33.601
						c18.67,0.49,33.944-13.948,33.944-32.189S2300.627,2269.803,2281.957,2269.513z M2281.957,2317.764
						c-8.674-0.203-15.713-7.238-15.713-15.681c0-8.444,7.039-15.184,15.713-15.024c8.698,0.16,15.794,7.196,15.794,15.683
						C2297.751,2311.229,2290.656,2317.968,2281.957,2317.764z"/>
					<path style="fill:#FFFFFF;" d="M2432.314,2271.85c-19.478-0.303-35.234,14.488-35.234,32.969s15.757,33.93,35.234,34.442
						c19.598,0.515,35.633-14.269,35.633-32.96S2451.912,2272.155,2432.314,2271.85z M2432.314,2321.284
						c-9.104-0.213-16.492-7.424-16.492-16.073c0-8.65,7.388-15.552,16.492-15.384c9.13,0.168,16.579,7.38,16.579,16.076
						S2441.444,2321.498,2432.314,2321.284z"/>
				</g>
			</g>
		</g>
		<g>
			<g>
				
					<linearGradient id="SVGID_00000105385961735160755720000015308164255273449894_" gradientUnits="userSpaceOnUse" x1="2483.97" y1="2775.1001" x2="2807.4072" y2="2399.6826">
					<stop  offset="0" style="stop-color:#FDF53F"/>
					<stop  offset="1" style="stop-color:#D93C65"/>
				</linearGradient>
				
					<circle style="fill:url(#SVGID_00000105385961735160755720000015308164255273449894_);" cx="2813.94" cy="2392.099" r="241.134"/>
				
					<linearGradient id="SVGID_00000113331989923812612900000014562738303417938309_" gradientUnits="userSpaceOnUse" x1="2990.1704" y1="2125.8662" x2="2033.7578" y2="3570.7329">
					<stop  offset="0" style="stop-color:#FDF53F"/>
					<stop  offset="1" style="stop-color:#D93C65"/>
				</linearGradient>
				
					<circle style="fill:url(#SVGID_00000113331989923812612900000014562738303417938309_);" cx="2813.94" cy="2392.099" r="233.116"/>
				<path style="fill:#FFFFFF;" d="M2621.71,2302.073c-1.032,0-2.079-0.234-3.063-0.731c-3.357-1.694-4.706-5.789-3.011-9.146
					c38.015-75.313,114.001-122.097,198.305-122.097c13.452,0,26.925,1.211,40.043,3.603c3.698,0.674,6.152,4.219,5.477,7.919
					c-0.674,3.702-4.229,6.152-7.919,5.477c-12.315-2.243-24.964-3.382-37.6-3.382c-79.134,0-150.462,43.918-186.147,114.616
					C2626.596,2300.705,2624.197,2302.073,2621.71,2302.073z"/>
				
					<ellipse transform="matrix(0.7071 -0.7071 0.7071 0.7071 -869.3898 2695.4653)" style="opacity:0.78;fill:#FFFFFF;" cx="2819.02" cy="2397.179" rx="197.304" ry="197.305"/>
				<g>
					
						<linearGradient id="SVGID_00000049214990580217523100000003495719027510850694_" gradientUnits="userSpaceOnUse" x1="2961.6394" y1="2167.2661" x2="2452.3694" y2="3022.2463">
						<stop  offset="0" style="stop-color:#FDF53F"/>
						<stop  offset="1" style="stop-color:#D93C65"/>
					</linearGradient>
					<path style="fill:url(#SVGID_00000049214990580217523100000003495719027510850694_);" d="M2799.658,2543.857v-21.466
						c-22.378-0.896-44.511-6.177-60.231-13.059c-5.614-2.457-8.476-8.757-6.863-14.669l5.453-19.994
						c2-7.335,9.978-11.129,16.989-8.19c15.595,6.537,34.849,11.709,55.612,11.709c21.553,0,37.626-7.307,37.626-22.286
						c0-13.515-12.42-21.552-42.375-29.588c-42.741-11.69-73.428-30.322-73.428-67.949c0-33.975,24.843-59.912,67.949-66.851
						v-21.468c0-6.907,5.6-12.507,12.507-12.507h12.612c6.908,0,12.507,5.6,12.507,12.507v19.275
						c20.707,0.829,35.779,4.37,47.741,8.573c6.129,2.153,9.478,8.755,7.777,15.025l-5.015,18.492
						c-1.933,7.131-9.555,11.037-16.465,8.424c-11.013-4.165-26.584-8.501-46.823-8.501c-25.572,0-32.877,10.593-32.877,20.092
						c0,11.69,15.342,19.726,48.585,29.956c47.491,14.247,67.217,33.973,67.217,69.409c0,32.512-24.11,61.738-70.869,69.045v24.023
						c0,6.907-5.6,12.507-12.507,12.507h-12.614C2805.257,2556.365,2799.658,2550.765,2799.658,2543.857z"/>
				</g>
			</g>
			<g>
				
					<linearGradient id="SVGID_00000014629469746009412220000018418999707248052906_" gradientUnits="userSpaceOnUse" x1="2956.5898" y1="2479.6514" x2="2598.4414" y2="3053.9788">
					<stop  offset="0" style="stop-color:#FDF53F"/>
					<stop  offset="1" style="stop-color:#D93C65"/>
				</linearGradient>
				<path style="fill:url(#SVGID_00000014629469746009412220000018418999707248052906_);" d="M3055.051,2750.579H2572.83
					c-2.338,0-4.234-1.896-4.234-4.234v-75.881c0-2.339,1.896-4.234,4.234-4.234h482.222c2.338,0,4.234,1.896,4.234,4.234v75.88
					C3059.285,2748.683,3057.39,2750.579,3055.051,2750.579z"/>
			</g>
			<g>
				
					<linearGradient id="SVGID_00000155114253938921353170000015683176438168796079_" gradientUnits="userSpaceOnUse" x1="2956.5898" y1="2573.3267" x2="2598.4414" y2="3147.6541">
					<stop  offset="0" style="stop-color:#FDF53F"/>
					<stop  offset="1" style="stop-color:#D93C65"/>
				</linearGradient>
				<path style="fill:url(#SVGID_00000155114253938921353170000015683176438168796079_);" d="M3055.051,2844.254H2572.83
					c-2.338,0-4.234-1.896-4.234-4.234v-75.881c0-2.339,1.896-4.234,4.234-4.234h482.222c2.338,0,4.234,1.896,4.234,4.234v75.881
					C3059.285,2842.358,3057.39,2844.254,3055.051,2844.254z"/>
			</g>
			<g>
				
					<linearGradient id="SVGID_00000056387899621631515520000001505484712116141203_" gradientUnits="userSpaceOnUse" x1="2956.5898" y1="2667.002" x2="2598.4414" y2="3241.3293">
					<stop  offset="0" style="stop-color:#FDF53F"/>
					<stop  offset="1" style="stop-color:#D93C65"/>
				</linearGradient>
				<path style="fill:url(#SVGID_00000056387899621631515520000001505484712116141203_);" d="M3055.051,2937.929H2572.83
					c-2.338,0-4.234-1.896-4.234-4.234v-75.881c0-2.339,1.896-4.234,4.234-4.234h482.222c2.338,0,4.234,1.896,4.234,4.234v75.881
					C3059.285,2936.034,3057.39,2937.929,3055.051,2937.929z"/>
			</g>
			<g>
				
					<linearGradient id="SVGID_00000138534609974181613200000011517027600909952438_" gradientUnits="userSpaceOnUse" x1="2956.5898" y1="2760.6772" x2="2598.4412" y2="3335.0054">
					<stop  offset="0" style="stop-color:#FDF53F"/>
					<stop  offset="1" style="stop-color:#D93C65"/>
				</linearGradient>
				<path style="fill:url(#SVGID_00000138534609974181613200000011517027600909952438_);" d="M3055.051,3031.605H2572.83
					c-2.338,0-4.234-1.896-4.234-4.234v-75.881c0-2.338,1.896-4.234,4.234-4.234h482.222c2.338,0,4.234,1.896,4.234,4.234v75.881
					C3059.285,3029.709,3057.39,3031.605,3055.051,3031.605z"/>
			</g>
			<g>
				
					<linearGradient id="SVGID_00000133498937457318418370000003667680513731843481_" gradientUnits="userSpaceOnUse" x1="2956.5898" y1="2854.3525" x2="2598.4412" y2="3428.6807">
					<stop  offset="0" style="stop-color:#FDF53F"/>
					<stop  offset="1" style="stop-color:#D93C65"/>
				</linearGradient>
				<path style="fill:url(#SVGID_00000133498937457318418370000003667680513731843481_);" d="M3055.051,3125.281H2572.83
					c-2.338,0-4.234-1.896-4.234-4.234v-75.881c0-2.338,1.896-4.234,4.234-4.234h482.222c2.338,0,4.234,1.896,4.234,4.234v75.881
					C3059.285,3123.385,3057.39,3125.281,3055.051,3125.281z"/>
			</g>
			<g>
				
					<linearGradient id="SVGID_00000063632349280354047700000017330058621564325273_" gradientUnits="userSpaceOnUse" x1="2956.5898" y1="2948.0283" x2="2598.4414" y2="3522.3557">
					<stop  offset="0" style="stop-color:#FDF53F"/>
					<stop  offset="1" style="stop-color:#D93C65"/>
				</linearGradient>
				<path style="fill:url(#SVGID_00000063632349280354047700000017330058621564325273_);" d="M3055.051,3218.956H2572.83
					c-2.338,0-4.234-1.896-4.234-4.234v-75.881c0-2.338,1.896-4.234,4.234-4.234h482.222c2.338,0,4.234,1.896,4.234,4.234v75.881
					C3059.285,3217.06,3057.39,3218.956,3055.051,3218.956z"/>
			</g>
		</g>
		<g>
			
				<linearGradient id="SVGID_00000059303585262998199940000002846296680280181664_" gradientUnits="userSpaceOnUse" x1="430.8839" y1="3361.7664" x2="643.0095" y2="2725.3879" gradientTransform="matrix(0.9999 0.0136 -0.0136 0.9999 1203.8451 -246.6702)">
				<stop  offset="0" style="stop-color:#CB236D"/>
				<stop  offset="1" style="stop-color:#4C246D"/>
			</linearGradient>
			<path style="fill:url(#SVGID_00000059303585262998199940000002846296680280181664_);" d="M2155.739,2629.705l-16.806,451.514
				l-2.607,69.911c-0.124,9.129-7.712,16.5-16.841,16.376l-898.047-12.196c-9.129-0.124-16.514-7.698-16.39-16.827l-0.065-69.947
				l-0.398-446.232c0.124-9.129,11.124-26.799,30.807-25.188l877.983-10.797c11.462-0.13,22.489,4.421,30.493,12.632
				C2151.873,2607.146,2156.166,2618.265,2155.739,2629.705z"/>
			
				<linearGradient id="SVGID_00000139287991060341881320000002294600041264577155_" gradientUnits="userSpaceOnUse" x1="1532.1086" y1="3011.198" x2="2471.0376" y2="2181.7153">
				<stop  offset="0" style="stop-color:#CB236D"/>
				<stop  offset="1" style="stop-color:#4C246D"/>
			</linearGradient>
			<path style="fill:url(#SVGID_00000139287991060341881320000002294600041264577155_);" d="M2114.559,3136.712
				c-0.116,8.516-7.329,15.386-16.03,15.268l-855.489-11.618c-8.701-0.118-15.725-7.182-15.61-15.698l-0.578-481.711
				c0.116-8.516,10.583-25.001,29.335-23.497l836.366-9.839c10.921-0.128,21.421,4.131,29.049,11.785
				c7.628,7.654,11.719,18.033,11.315,28.714L2114.559,3136.712z"/>
			<path style="fill:#FFFFFF;" d="M2098.26,3157.324c-0.105,0-0.211-0.002-0.318-0.003l-95.768-1.301
				c-1.746-0.023-3.145-1.459-3.12-3.207c0.024-1.746,1.388-3.185,3.207-3.12l95.767,1.301c0.077,0,0.156,0.002,0.234,0.002
				c11.254,0,22.376-10.958,22.532-22.273l3.978-292.913c0.023-1.746,1.434-3.108,3.207-3.12c1.747,0.023,3.145,1.458,3.12,3.207
				l-3.978,292.913C2126.921,3143.559,2112.94,3157.324,2098.26,3157.324z"/>
			<path style="fill:#FFFFFF;" d="M1225.09,2826.757c-0.015,0-0.03-0.002-0.045-0.002c-1.746-0.023-3.145-1.459-3.12-3.207
				l2.384-175.572c0.264-19.494,15.518-35.784,33.4-35.784c0.132,0,0.264,0.002,0.398,0.003l76.076,1.034
				c1.746,0.023,3.145,1.459,3.12,3.207c-0.025,1.746-1.474,3.046-3.207,3.12l-76.076-1.034c-0.099,0-0.201-0.002-0.3-0.002
				c-14.25,0-26.87,13.722-27.085,29.543l-2.384,175.572C1228.229,2825.367,1226.817,2826.756,1225.09,2826.757z"/>
			<g>
				
					<linearGradient id="SVGID_00000085966721917662990010000016434945774923367607_" gradientUnits="userSpaceOnUse" x1="530.0837" y1="2975.2827" x2="161.396" y2="3115.5801" gradientTransform="matrix(0.9999 0.0136 -0.0136 0.9999 1203.8451 -246.6702)">
					<stop  offset="0" style="stop-color:#E92556"/>
					<stop  offset="1" style="stop-color:#F9C342"/>
				</linearGradient>
				<path style="fill:url(#SVGID_00000085966721917662990010000016434945774923367607_);" d="M1441.503,2812.795
					c0.125-9.176-7.213-16.715-16.388-16.84l-110.924-1.506c-9.176-0.125-16.715,7.213-16.839,16.388l-1.146,84.37
					c-0.125,9.176,7.213,16.715,16.388,16.839l110.924,1.506c9.176,0.125,16.715-7.213,16.839-16.388L1441.503,2812.795z"/>
				<g>
					<path style="opacity:0.8;fill:#FFFFFF;" d="M1378.767,2878.168c-0.037,0-0.074,0-0.11-0.002l-31.637-0.43
						c-2.193-0.03-4.242-0.912-5.773-2.484c-1.531-1.571-2.355-3.645-2.325-5.838l0.378-27.841c0.062-4.528,3.74-8.225,8.322-8.098
						l31.635,0.43c4.525,0.058,8.158,3.792,8.098,8.32c0,0,0,0,0,0.002l-0.378,27.842
						C1386.915,2874.556,1383.242,2878.168,1378.767,2878.168z M1347.508,2839.802c-0.492,0-0.957,0.189-1.311,0.534
						c-0.36,0.351-0.562,0.821-0.57,1.325l-0.378,27.842c-0.007,0.502,0.182,0.977,0.534,1.338c0.351,0.36,0.821,0.562,1.325,0.57
						l31.635,0.43c0.965,0.065,1.892-0.82,1.909-1.858l0.378-27.84c0.013-1.039-0.82-1.895-1.857-1.91l-31.637-0.43
						C1347.527,2839.802,1347.518,2839.802,1347.508,2839.802z M1384.192,2842.184h0.033H1384.192z"/>
					<g>
						<path style="fill:#FFFFFF;" d="M1342.38,2851.115c-0.015,0-0.03-0.002-0.045-0.002l-45.523-0.617
							c-1.746-0.024-3.145-1.459-3.12-3.207c0.023-1.746,1.505-3.172,3.207-3.12l45.523,0.617c1.746,0.023,3.145,1.459,3.12,3.207
							C1345.518,2849.724,1344.106,2851.115,1342.38,2851.115z"/>
						<path style="fill:#FFFFFF;" d="M1342.224,2862.496c-0.015,0-0.03-0.002-0.045-0.002l-45.521-0.619
							c-1.746-0.023-3.145-1.459-3.12-3.207c0.025-1.747,1.465-3.136,3.207-3.12l45.521,0.619c1.746,0.023,3.145,1.459,3.12,3.207
							C1345.362,2861.106,1343.95,2862.496,1342.224,2862.496z"/>
					</g>
					<g>
						<path style="fill:#FFFFFF;" d="M1441.009,2852.454c-0.015,0-0.03-0.002-0.045-0.002l-49.315-0.669
							c-1.746-0.023-3.145-1.459-3.12-3.207c0.023-1.747,1.475-3.105,3.207-3.12l49.315,0.669c1.746,0.023,3.145,1.458,3.12,3.207
							C1444.147,2851.064,1442.735,2852.454,1441.009,2852.454z"/>
						<path style="fill:#FFFFFF;" d="M1440.855,2863.834c-0.015,0-0.03-0.001-0.045-0.001l-49.315-0.669
							c-1.746-0.023-3.145-1.459-3.12-3.207c0.023-1.746,1.435-3.069,3.207-3.12l49.315,0.669c1.746,0.023,3.145,1.458,3.12,3.207
							C1443.993,2862.444,1442.582,2863.834,1440.855,2863.834z"/>
					</g>
					<g>
						<g>
							<path style="fill:#FFFFFF;" d="M1352.885,2840.052c-1.45,0-2.757-1.004-3.085-2.478l-9.217-41.416
								c-0.38-1.706,0.694-3.396,2.4-3.775c1.699-0.38,3.397,0.696,3.775,2.4l9.217,41.416c0.38,1.706-0.694,3.396-2.401,3.775
								C1353.345,2840.027,1353.112,2840.052,1352.885,2840.052z"/>
							<path style="fill:#FFFFFF;" d="M1379.324,2840.412c-0.263,0-0.53-0.033-0.798-0.102c-1.691-0.44-2.706-2.168-2.267-3.859
								l10.701-41.145c0.44-1.689,2.151-2.7,3.859-2.267c1.691,0.44,2.707,2.168,2.267,3.859l-10.701,41.145
								C1382.014,2839.467,1380.731,2840.412,1379.324,2840.412z"/>
						</g>
						<g>
							<path style="fill:#FFFFFF;" d="M1342.063,2917.053c-0.254,0-0.514-0.032-0.773-0.095c-1.694-0.427-2.723-2.146-2.298-3.841
								l10.339-41.15c0.427-1.691,2.136-2.707,3.841-2.298c1.695,0.427,2.723,2.146,2.298,3.841l-10.339,41.15
								C1344.77,2916.094,1343.48,2917.053,1342.063,2917.053z"/>
							<path style="fill:#FFFFFF;" d="M1388.412,2917.682c-1.438,0-2.742-0.989-3.079-2.452l-9.58-41.419
								c-0.393-1.703,0.667-3.401,2.37-3.795c1.694-0.4,3.402,0.667,3.796,2.37l9.58,41.419c0.393,1.703-0.667,3.401-2.37,3.795
								C1388.889,2917.655,1388.648,2917.682,1388.412,2917.682z"/>
						</g>
					</g>
				</g>
			</g>
			
				<linearGradient id="SVGID_00000097497937803534971790000002141404205537116861_" gradientUnits="userSpaceOnUse" x1="621.0413" y1="509.5838" x2="364.0935" y2="1979.3289" gradientTransform="matrix(0.9999 0.0136 -0.0136 0.9999 1203.8451 -246.6702)">
				<stop  offset="0" style="stop-color:#A737D5"/>
				<stop  offset="1" style="stop-color:#EF497A"/>
			</linearGradient>
			<path style="fill:url(#SVGID_00000097497937803534971790000002141404205537116861_);" d="M1443.182,2689.201
				c-0.148,10.896-9.101,19.61-19.997,19.462l-123.661-1.679c-10.896-0.148-19.609-9.101-19.462-19.997l0.031-2.269
				c0.148-10.896,9.101-19.61,19.997-19.461l123.661,1.679c10.896,0.148,19.609,9.101,19.462,19.997L1443.182,2689.201z"/>
			<g>
				
					<linearGradient id="SVGID_00000139289052664526751450000017468107178398172084_" gradientUnits="userSpaceOnUse" x1="677.0958" y1="519.356" x2="420.1462" y2="1989.1112" gradientTransform="matrix(0.9999 0.0136 -0.0136 0.9999 1203.8451 -246.6702)">
					<stop  offset="0" style="stop-color:#A737D5"/>
					<stop  offset="1" style="stop-color:#EF497A"/>
				</linearGradient>
				<path style="fill:url(#SVGID_00000139289052664526751450000017468107178398172084_);" d="M1450.532,2986.152
					c-0.141,10.397-8.684,18.711-19.081,18.569l-136.85-1.858c-10.397-0.141-18.711-8.684-18.569-19.081l0.004-0.284
					c0.141-10.397,8.684-18.711,19.081-18.57l136.85,1.859c10.397,0.141,18.711,8.684,18.57,19.081L1450.532,2986.152z"/>
				
					<linearGradient id="SVGID_00000179633343859761826680000009240380830405508236_" gradientUnits="userSpaceOnUse" x1="868.5253" y1="552.8192" x2="611.5759" y2="2022.5736" gradientTransform="matrix(0.9999 0.0136 -0.0136 0.9999 1203.8451 -246.6702)">
					<stop  offset="0" style="stop-color:#A737D5"/>
					<stop  offset="1" style="stop-color:#EF497A"/>
				</linearGradient>
				<path style="fill:url(#SVGID_00000179633343859761826680000009240380830405508236_);" d="M1647.792,2988.83
					c-0.141,10.397-8.684,18.711-19.081,18.57l-136.85-1.858c-10.397-0.141-18.711-8.684-18.569-19.081l0.004-0.285
					c0.141-10.397,8.684-18.71,19.081-18.569l136.85,1.858c10.397,0.141,18.711,8.684,18.57,19.081L1647.792,2988.83z"/>
				
					<linearGradient id="SVGID_00000096752903484676515660000003412350637903727794_" gradientUnits="userSpaceOnUse" x1="1059.9558" y1="586.2768" x2="803.006" y2="2056.0337" gradientTransform="matrix(0.9999 0.0136 -0.0136 0.9999 1203.8451 -246.6702)">
					<stop  offset="0" style="stop-color:#A737D5"/>
					<stop  offset="1" style="stop-color:#EF497A"/>
				</linearGradient>
				<path style="fill:url(#SVGID_00000096752903484676515660000003412350637903727794_);" d="M1845.053,2991.509
					c-0.141,10.397-8.684,18.711-19.081,18.569l-136.85-1.858c-10.397-0.141-18.711-8.684-18.569-19.081l0.004-0.284
					c0.141-10.397,8.684-18.711,19.081-18.57l136.85,1.858c10.397,0.141,18.711,8.684,18.57,19.081L1845.053,2991.509z"/>
				
					<linearGradient id="SVGID_00000049906836546793975770000012067706026392162453_" gradientUnits="userSpaceOnUse" x1="1255.0653" y1="620.3914" x2="998.1159" y2="2090.1458" gradientTransform="matrix(0.9999 0.0136 -0.0136 0.9999 1203.8451 -246.6702)">
					<stop  offset="0" style="stop-color:#A737D5"/>
					<stop  offset="1" style="stop-color:#EF497A"/>
				</linearGradient>
				<path style="fill:url(#SVGID_00000049906836546793975770000012067706026392162453_);" d="M2046.108,2994.24
					c-0.141,10.397-8.684,18.711-19.081,18.57l-136.85-1.858c-10.397-0.141-18.711-8.684-18.569-19.081l0.004-0.285
					c0.141-10.397,8.684-18.71,19.081-18.569l136.849,1.858c10.397,0.141,18.711,8.684,18.57,19.081L2046.108,2994.24z"/>
			</g>
			<g style="opacity:0.8;">
				
					<linearGradient id="SVGID_00000008133635274809201520000017096531408643813791_" gradientUnits="userSpaceOnUse" x1="763.0548" y1="534.3099" x2="506.0988" y2="2004.1023" gradientTransform="matrix(0.9999 0.0136 -0.0136 0.9999 1203.8451 -246.6702)">
					<stop  offset="0" style="stop-color:#A737D5"/>
					<stop  offset="1" style="stop-color:#EF497A"/>
				</linearGradient>
				<path style="fill:url(#SVGID_00000008133635274809201520000017096531408643813791_);" d="M1578.376,3071.424
					c-0.112,8.266-6.905,14.876-15.171,14.764l-254.576-3.457c-8.266-0.112-14.876-6.904-14.764-15.17l0.006-0.413
					c0.112-8.266,6.904-14.876,15.17-14.764l254.576,3.457c8.266,0.112,14.876,6.905,14.764,15.17L1578.376,3071.424z"/>
				
					<linearGradient id="SVGID_00000168808491987937609140000016157288884914405520_" gradientUnits="userSpaceOnUse" x1="1262.4174" y1="621.6724" x2="1005.4675" y2="2091.4292" gradientTransform="matrix(0.9999 0.0136 -0.0136 0.9999 1203.8451 -246.6702)">
					<stop  offset="0" style="stop-color:#A737D5"/>
					<stop  offset="1" style="stop-color:#EF497A"/>
				</linearGradient>
				<path style="fill:url(#SVGID_00000168808491987937609140000016157288884914405520_);" d="M2022.315,3069.865
					c-0.112,8.266-6.904,14.876-15.17,14.764l-110.424-1.5c-8.266-0.112-14.876-6.905-14.764-15.17l0.006-0.414
					c0.112-8.266,6.904-14.876,15.17-14.764l110.424,1.5c8.266,0.112,14.876,6.905,14.764,15.17L2022.315,3069.865z"/>
			</g>
		</g>
		<g>
			
				<linearGradient id="SVGID_00000058567676491493077550000017037724068445281159_" gradientUnits="userSpaceOnUse" x1="2599.6826" y1="3273.6802" x2="3190.9465" y2="1920.942" gradientTransform="matrix(0.996 -0.0891 0.0891 0.996 -71.0622 -18.8377)">
				<stop  offset="0" style="stop-color:#CB236D"/>
				<stop  offset="1" style="stop-color:#4C246D"/>
			</linearGradient>
			<path style="fill:url(#SVGID_00000058567676491493077550000017037724068445281159_);" d="M2832.958,2854.488
				c-14.262,65.155-49.463,91.836-80.636,85.013c-31.874-6.975-50.507-45.939-37.848-105.458
				c12.8-58.499,46.098-91.574,81.125-83.91C2831.676,2758.03,2845.135,2798.847,2832.958,2854.488z M2724.608,3069.483
				l201.991-290.677l24.52,5.365l-201.994,290.677L2724.608,3069.483z M2747.813,2839.344c-8.154,35.593-4.42,63.818,12.74,67.572
				c17.167,3.758,30.979-19.133,39.2-56.7c7.496-34.243,6.528-63.357-12.037-67.42
				C2770.205,2778.962,2755.41,2804.626,2747.813,2839.344z M2961.771,3017.236c-14.153,64.674-49.111,91.908-80.636,85.01
				c-31.521-6.898-50.503-45.939-37.39-105.86c12.698-58.018,46.097-91.571,80.773-83.983
				C2960.598,2920.3,2973.951,2961.595,2961.771,3017.236z M2876.633,3002.088c-8.052,35.115-4.427,63.818,12.737,67.572
				c17.512,3.834,30.983-19.133,39.204-56.701c7.597-34.717,6.524-63.357-12.037-67.419
				C2899.021,2941.706,2884.23,2967.375,2876.633,3002.088z"/>
		</g>
	</g>
</g>
</svg>
