<?xml version="1.0" encoding="utf-8"?>
<!-- Generator: Adobe Illustrator 27.5.0, SVG Export Plug-In . SVG Version: 6.00 Build 0)  -->
<svg version="1.1" xmlns="http://www.w3.org/2000/svg" xmlns:xlink="http://www.w3.org/1999/xlink" x="0px" y="0px"
	 viewBox="0 0 750 500" style="enable-background:new 0 0 750 500;" xml:space="preserve">
<g id="BACKGROUND">
	<rect style="fill:#F8FFFF;" width="750" height="500"/>
</g>
<g id="OBJECTS">
	<g>
		<path style="fill:#CDF5F9;" d="M208.238,108.691c0,0,33.951-34.034,79.028-24.399c45.077,9.635,64.398,39.005,99.871,48.933
			c35.472,9.929,92.48-7.412,111.75-12.459c19.269-5.047,95.659-30.051,156.22,33.836c60.561,63.887,30.969,186.233-10.323,222.784
			s-106.287,62.244-162.108,61.326s-120.806-25.127-207.773-27.459C187.934,408.922,88.119,220.267,208.238,108.691z"/>
		<path style="opacity:0.5;fill:#B1E5E5;" d="M168.795,402.871c0,0-78.469,25.748-78.698,37.217
			c-0.229,11.47,54.6,12.846,113.325,12.388c58.724-0.459,120.143-11.47,120.143-11.47s-8.855,13.831,21.811,28.479
			s64.044,9.372,52.574-7.833c0,0,26.99,6.194,50.313-1.147c0,0,17.589,19.499,58.192,20.187
			c40.604,0.688,51.271-7.226,51.271-7.226s19.873,6.882,53.293,4.817c33.42-2.065,41.273-13.133,25.85-25.077
			c-15.424-11.944-83.272-23.097-104.606-24.99c-21.334-1.893-254.518-72.102-254.518-72.102L168.795,402.871z"/>
		<g style="opacity:0.7;">
			<path style="opacity:0.38;fill:#7FCBDD;" d="M636.374,137.888c-7.264,5.953-24.453,17.856-47.731,19.816
				c-31.26,2.633-59.476,3.894-80.122,13.242c-20.646,9.348-51.385,31.87-101.05,29.039c-49.665-2.83-51.901-37.538-93.795-47.884
				c-41.894-10.346-66.44-1.314-66.44-1.314v74.241c0,0,50.152,8.588,96.018-7.923c45.865-16.51,85.093,3.099,101.781,10.155
				c16.689,7.056,40.087,16.605,74.956,5.293c34.869-11.312,55.952-37.464,91.405-32.99c34.215,4.317,36.42,31.384,73.938,13.781
				c-4.964-21.823-14.58-42.236-30.227-58.743C648.998,148.16,642.728,142.635,636.374,137.888z"/>
			<path style="opacity:0.38;fill:#7FCBDD;" d="M661.988,254.047c-18.811-7.57-22.726-12.617-42.906-5.506
				c-20.179,7.111-50.426,27.812-63.633,34.437c-13.207,6.625-23.989,6.68-46.241,0c-22.252-6.68-39.098-14.724-66.067-9.656
				c-26.969,5.068-41.648-13.139-41.648-13.139l-18.604,43.854c0,0,14.161,7.531,44.432,8.248
				c30.272,0.717,60.782,31.345,88.539,32.605c27.757,1.26,38.08-17.102,55.629-28.223c17.549-11.121,27.75-29.358,43.639-24.369
				c15.89,4.989,13.366,35.385,28.736,41.578c10.795,4.35,21.25-0.123,30.333-2.219c8.75-21.712,14.536-47.614,15.255-73.836
				C684.325,258.667,674.538,259.098,661.988,254.047z"/>
			<path style="opacity:0.38;fill:#7FCBDD;" d="M498.885,120.766c-4.238,1.11-10.304,2.815-17.563,4.694
				c7.39,2.317,24.823,7.006,44.861,7.006c23.28,0,44.535-14.222,57.365-18.088C544.935,106.779,510.867,117.628,498.885,120.766z"
				/>
			<path style="opacity:0.38;fill:#7FCBDD;" d="M243.393,87.445l2.236,16.805c0,0,18.753-3.269,41.808,12.732
				c23.055,16,35.041,22.862,65.206,19.288c15.318-1.815,24.1-3.327,31.198-4.035c-33.416-10.762-52.915-38.61-96.576-47.942
				C270.78,80.768,255.786,83.088,243.393,87.445z"/>
			<path style="opacity:0.38;fill:#7FCBDD;" d="M274.901,411.253c86.968,2.332,151.953,26.542,207.773,27.459
				c50.15,0.824,107.696-19.837,148.815-50.547c-5.266,0.354-13.123,0.503-20.471-0.838c-12.574-2.294-32.532-14.911-55.243-6.194
				c-22.711,8.717-37.83,19.499-96.452,14.681c-58.622-4.817-76.031,11.241-76.031,11.241s-16.465,10.879-54.22-8.717
				c-27.097-14.064-77.259-24.94-120.271-21.804C229.003,397.551,252.382,410.65,274.901,411.253z"/>
		</g>
		<g>
			<path style="fill:#2F273D;" d="M54.07,52.849l45.395,376.789c0.525,4.358,4.517,7.441,8.866,6.848l12.276-1.674l179.091-43.815
				l-48.125-349.45c-0.64-4.647-4.693-8.056-9.381-7.89L75.187,39.559l-13.798,3.003C56.661,43.591,53.492,48.046,54.07,52.849z"/>
			<path style="fill:#4AAFF4;" d="M78.664,54.696l42.239,363.363c0.467,4.013,4.359,6.698,8.276,5.708l154.767-39.108
				c3.271-0.827,5.413-3.962,4.994-7.31L247.762,48.183c-0.428-3.424-3.393-5.959-6.843-5.851L85.092,47.244
				C81.181,47.368,78.212,50.81,78.664,54.696z"/>
			<path style="opacity:0.7;fill:#C3F4FC;" d="M105.926,190.385l16.814,121.428c0.716,5.168,5.566,8.718,10.709,7.838l123.391-21.13
				c5.163-0.884,8.733-5.651,8.129-10.854l-13.376-115.286C251.594,172.381,132.077,167.097,105.926,190.385z"/>
			<g>
				<path style="fill:#353438;" d="M247.762,48.183c-0.428-3.424-3.393-5.959-6.843-5.851L85.093,47.244
					c-3.911,0.123-6.88,3.565-6.428,7.452l1.223,10.52L249.1,58.882L247.762,48.183z"/>
				<path style="fill:#353438;" d="M129.18,423.768l154.767-39.108c3.271-0.827,5.413-3.962,4.994-7.31l-2.888-23.088
					l-168.201,37.541l3.052,26.256C121.37,422.073,125.263,424.758,129.18,423.768z"/>
			</g>
			<path style="fill:#504F6B;" d="M117.148,427.376L72.182,51.065c-0.425-3.555,0.634-7.129,2.928-9.878l1.397-1.674l-1.32,0.047
				l-13.798,3.003c-4.727,1.029-7.897,5.484-7.318,10.288l45.395,376.789c0.525,4.358,4.517,7.441,8.866,6.848l12.276-1.674
				l1.177-0.288C119.215,432.988,117.503,430.349,117.148,427.376z"/>
			<path style="fill:#2F273D;" d="M73.249,103.695l5.94,46.177c0.053,0.41-0.225,0.79-0.632,0.864l-6.586,1.197
				c-0.436,0.079-0.849-0.221-0.909-0.659l-6.325-46.162c-0.057-0.415,0.225-0.8,0.637-0.871l6.971-1.212
				C72.782,102.952,73.193,103.256,73.249,103.695z"/>
			<path style="fill:#211C2D;" d="M77.297,150.965l1.26-0.229c0.407-0.074,0.685-0.454,0.632-0.864l-0.526-4.09l-5.414-42.088
				c-0.057-0.439-0.468-0.742-0.904-0.666l-1.127,0.196L77.297,150.965z"/>
			<polygon style="fill:#211C2D;" points="67.454,124.944 75.684,122.619 75.883,124.171 67.682,126.607 			"/>
			<path style="fill:#2F273D;" d="M72.362,165.903l3.735,22.846c0.084,0.513,0.562,0.865,1.076,0.793l6.721-0.941
				c0.526-0.074,0.892-0.562,0.813-1.088l-3.416-22.96c-0.078-0.523-0.565-0.883-1.088-0.805l-7.041,1.055
				C72.636,164.882,72.276,165.377,72.362,165.903z"/>
			<path style="fill:#211C2D;" d="M80.204,163.748l-1.503,0.225l3.937,24.804l1.257-0.176c0.526-0.074,0.892-0.562,0.813-1.088
				l-3.416-22.96C81.214,164.03,80.727,163.67,80.204,163.748z"/>
			<path style="fill:#242326;" d="M135.889,55.531c0.31,0.345,0.758,0.535,1.222,0.518l60.752-2.24
				c0.594-0.022,1.125-0.379,1.369-0.921l3.74-8.292c0.162-0.36,0.168-0.733,0.071-1.07l-75.446,2.378
				c0.04,0.291,0.164,0.579,0.389,0.829L135.889,55.531z"/>
			<path style="fill:#A6F467;" d="M215.423,49.693l1.12,5.622c0.08,0.4,0.441,0.681,0.848,0.66l21.469-1.119
				c0.495-0.026,0.855-0.481,0.765-0.969l-0.964-5.227c-0.074-0.4-0.429-0.686-0.835-0.672l-21.625,0.724
				C215.694,48.728,215.324,49.195,215.423,49.693z"/>
			<path style="fill:#F6F9EB;" d="M237.826,47.987l-7.128,0.239l6.819,6.7l1.343-0.07c0.495-0.026,0.855-0.481,0.765-0.969
				l-0.964-5.227C238.588,48.259,238.233,47.973,237.826,47.987z"/>
			
				<text transform="matrix(0.9993 -0.0371 0.0371 0.9993 85.3852 59.7813)" style="fill:#F6F9EB; font-family:'Montserrat-SemiBold'; font-size:11.0766px;">10:00</text>
			<path style="fill:#F74D31;" d="M110.532,84.03l114.856-5.221c0.36-0.016,0.715,0.034,1.055,0.154
				c2.066,0.728,9.379,3.803,10.411,11.178c0.956,6.825-2.963,10.293-4.622,11.435c-0.419,0.288-0.908,0.448-1.416,0.477
				l-117.367,6.634c-0.447,0.025-0.894-0.052-1.302-0.238c-1.937-0.883-7.558-4.025-8.975-11.253
				c-1.419-7.239,4.031-11.472,5.982-12.732C109.567,84.197,110.043,84.053,110.532,84.03z"/>
			<path style="fill:#E2331B;" d="M115.101,108.593c0,0-8.085-3.853-8.028-12.487c0.057-8.634,5.058-12.148,5.058-12.148l0,0
				l-1.598,0.073c-0.49,0.022-0.965,0.167-1.377,0.433c-1.951,1.26-7.402,5.493-5.982,12.732c1.417,7.228,7.038,10.37,8.975,11.253
				c0.408,0.186,0.855,0.263,1.302,0.238L115.101,108.593L115.101,108.593z"/>
			
				<text transform="matrix(0.9993 -0.0371 0.0371 0.9993 117.2352 100.4415)" style="fill:#F6F9EB; font-family:'Montserrat-Bold'; font-size:14.5579px;">ONLINE SHOP</text>
			<path style="fill:#F74D31;" d="M88.119,136.03l174.956-10.97c0,0,28.09,12.315,34.399,42.32c0,0-6.423,12.571-25.521,3.968
				c0,0-5.907,13.649-24.718,6.079c0,0-9.635,13.305-27.528,3.212c0,0-7.341,12.611-25.463,3.782c0,0-5.964,11.817-27.528,2.182
				c0,0-12.617,11.699-28.216,2.753c0,0-8.65,8.935-21.186-0.579c0,0-6.985,13.733-22.243,7.064L88.119,136.03z"/>
			<g>
				<path style="fill:#F7EEEB;" d="M166.717,186.604c21.563,9.635,27.528-2.182,27.528-2.182s0.407-36.018-18.384-53.893
					l-31.38,1.967C151.465,137.136,169.117,152.355,166.717,186.604z"/>
				<path style="fill:#F7EEEB;" d="M116.04,134.279l-24.329,1.525c0,0,26.211,18.442,25.604,52.973
					c12.536,9.514,21.185,0.579,21.185,0.579S138.497,149.642,116.04,134.279z"/>
				<path style="fill:#F7EEEB;" d="M297.474,167.38c-6.309-30.005-34.399-42.32-34.399-42.32l-14.586,0.914
					c6.611,5.949,23.189,23.065,23.464,45.374C291.051,179.951,297.474,167.38,297.474,167.38z"/>
				<path style="fill:#F7EEEB;" d="M224.282,127.492l-23.515,1.474c5.938,6.576,19.844,24.917,18.94,51.672
					c17.893,10.094,27.528-3.212,27.528-3.212S247.025,142.828,224.282,127.492z"/>
			</g>
			<g>
				
					<path style="fill:none;stroke:#FFFEFD;stroke-width:1.1773;stroke-linecap:round;stroke-linejoin:round;stroke-miterlimit:10;" d="
					M204.695,223.029c0,0,1.042-13.657,15.972-9.57c14.582,3.991,12.152,18.929,12.152,18.929"/>
				<path style="fill:#E8513D;" d="M190.966,220.509l-17.292,48.251c-0.646,1.803,0.383,3.774,2.232,4.274L230,287.654
					c1.851,0.5,3.735-0.687,4.082-2.572l8.858-48.06c0.298-1.618-0.649-3.208-2.214-3.715l-45.659-14.81
					C193.38,217.948,191.564,218.84,190.966,220.509z"/>
				
					<path style="fill:none;stroke:#FFFEFD;stroke-width:1.1773;stroke-linecap:round;stroke-linejoin:round;stroke-miterlimit:10;" d="
					M204.794,227.319c0,0-6.862,11.383,5.374,19.221c12.235,7.837,22.686-9.728,22.686-9.728"/>
				<path style="fill:#FFFEFD;" d="M206.152,227.628c-0.62,0.541-1.561,0.477-2.102-0.142c-0.541-0.62-0.477-1.561,0.142-2.103
					c0.62-0.541,1.561-0.477,2.103,0.143C206.836,226.145,206.772,227.087,206.152,227.628z"/>
				<path style="fill:#FFFEFD;" d="M234.064,237.46c-0.62,0.541-1.561,0.478-2.102-0.142c-0.541-0.62-0.477-1.561,0.142-2.102
					c0.62-0.541,1.561-0.478,2.102,0.142C234.747,235.977,234.684,236.919,234.064,237.46z"/>
				<path style="fill:#D6472B;" d="M184.024,258.992l13.03-39.852l-1.988-0.645c-1.687-0.547-3.503,0.345-4.101,2.014
					l-17.292,48.251c-0.646,1.803,0.383,3.774,2.232,4.274L230,287.654c1.416,0.383,2.846-0.227,3.598-1.377l-43.852-15.626
					C184.994,268.957,182.456,263.786,184.024,258.992z"/>
			</g>
			<g>
				
					<path style="fill:none;stroke:#FFFEFD;stroke-width:1.147;stroke-linecap:round;stroke-linejoin:round;stroke-miterlimit:10;" d="
					M141.941,227.398c0,0-9.355-9.516,3.212-17.854c12.273-8.144,21.678,3.212,21.678,3.212"/>
				<path style="fill:#F9B826;" d="M131.294,235.859l24.33,43.609c0.909,1.63,3.015,2.137,4.567,1.1l45.392-30.329
					c1.553-1.038,1.889-3.181,0.728-4.644l-29.595-37.297c-0.997-1.256-2.77-1.579-4.145-0.756l-40.127,24.018
					C130.961,232.446,130.452,234.35,131.294,235.859z"/>
				
					<path style="fill:none;stroke:#FFFEFD;stroke-width:1.147;stroke-linecap:round;stroke-linejoin:round;stroke-miterlimit:10;" d="
					M145.153,230.075c0,0,3.957,12.33,17.549,8.373c13.592-3.957,7.398-22.883,7.398-22.883"/>
				<path style="fill:#FFFEFD;" d="M146.25,229.275c0,0.802-0.65,1.452-1.452,1.452c-0.802,0-1.452-0.65-1.452-1.452
					c0-0.802,0.65-1.452,1.452-1.452C145.6,227.824,146.25,228.474,146.25,229.275z"/>
				<circle style="fill:#FFFEFD;" cx="169.899" cy="215.092" r="1.452"/>
				<path style="fill:#EFA91D;" d="M155.087,265.613l-20.897-35.1l-1.747,1.046c-1.482,0.887-1.991,2.791-1.15,4.3l24.33,43.609
					c0.909,1.63,3.015,2.137,4.567,1.1l45.392-30.329c1.189-0.794,1.657-2.234,1.295-3.523l-39.568,22.169
					C163.022,271.287,157.601,269.836,155.087,265.613z"/>
			</g>
			<path style="opacity:0.2;fill:#1B1D1E;" d="M82.169,48.028c-2.343,1.248-3.834,3.837-3.505,6.668l42.239,363.364
				c0.466,4.013,4.359,6.698,8.276,5.708l154.767-39.108c3.271-0.827,5.413-3.962,4.994-7.31l-0.127-1.017l-137.455,30.394
				c-11.015,2.436-21.757-5.071-23.257-16.252L82.169,48.028z"/>
			<path style="fill:#4DD839;" d="M144.818,336.697l4.233,24.341c0.978,5.621,6.375,9.347,11.978,8.268l86.443-16.645
				c5.404-1.041,9.015-6.172,8.169-11.61l-3.788-24.366c-0.586-3.771-4.126-6.348-7.895-5.748l-91.098,14.503
				C147.509,326.291,143.889,331.358,144.818,336.697z"/>
			
				<text transform="matrix(0.986 -0.1668 0.1668 0.986 163.2652 351.4199)" style="fill:#F6F9EB; font-family:'Montserrat-Bold'; font-size:14.558px;">DELIVERED</text>
			<path style="fill:#3DBF26;" d="M164.005,368.733c-5.693-0.587-9.791-7.557-9.791-7.557l-3.785-23.743
				c-0.615-5.688,1.6-9.923,3.13-12.105l-0.698,0.111c-5.352,0.852-8.972,5.919-8.043,11.258l4.233,24.34
				c0.978,5.621,6.375,9.347,11.978,8.268L164.005,368.733L164.005,368.733z"/>
		</g>
		<g>
			<path style="fill:#EDAF8C;" d="M583.189,441.465c0,0,1.778,3.326,1.778,4.645c0,1.319-10.495,14.624-10.495,14.624
				s-1.663,4.531,2.351,4.817c4.014,0.287,11.413-3.556,11.413-3.556l15.133-4.244l2.646-19.04l-9.001-13.426L583.189,441.465z"/>
			<path style="fill:#F38B82;" d="M597.014,425.287l-13.824,16.178c0,0,0.604,1.131,1.108,2.336
				c3.37-0.842,11.401-3.584,15.065-11.175v-3.837L597.014,425.287z"/>
			<path style="fill:#991D4A;" d="M583.918,448.073c-2.655,4.054-9.445,12.662-9.445,12.662s-1.663,4.531,2.351,4.817
				c4.014,0.287,11.413-3.556,11.413-3.556l14.265-4v-12.569l-11.311,7.307C589.686,448.705,586.002,448.083,583.918,448.073z"/>
			<path style="fill:#F6B994;" d="M601.599,442.584v0.488v5.62c0,0-18.366,10.438-19.534,13.879
				c-1.169,3.441,8.122,4.014,19.534,2.523c11.413-1.491,21.105-7.341,21.42-7.914c0.315-0.574-3.47-16.631-3.47-16.631"/>
			<path style="fill:#F38B82;" d="M619.549,440.548l-17.951,2.036v0.488v3.111c3.84,0.502,11.942,1.057,18.841-1.798
				C619.93,442.163,619.549,440.548,619.549,440.548z"/>
			<path style="fill:#2A2F54;" d="M623.965,405.163c-0.516-11.871,0.516-53.335,0.86-61.766c0.344-8.43-0.172-33.55-0.172-33.55
				s1.29-2.925,1.634-4.645c0.344-1.72,0.172-29.076,0.172-32.259s-1.29-7.828-3.613-9.549c-2.323-1.72-63.392,1.092-63.392,1.092
				l-0.008,23.052c0,0-10.323,34.41-17.893,84.419c0,0,21.793,48.174,29.134,58.267c7.341,10.094,7.513,14.165,7.513,14.165
				s15.14-2.753,19.097-16.173l0.86,16.173c0,0,17.205,0.516,28.732-5.334C626.89,439.057,624.481,417.034,623.965,405.163z
				 M571.49,369.721c2.237-4.301,14.796-50.238,14.796-50.238l9.807,97.38C589.555,402.41,571.49,369.721,571.49,369.721z"/>
			<path style="fill:#242947;" d="M569.997,268.123c0,0,6.047,6.642,15.513,7.279c0,0-7.543-0.182-15.513-2.697
				c0,0-2.98,4.023-9.604,3.248l2.495-10.581C562.888,265.373,568.159,264.336,569.997,268.123z"/>
			<path style="fill:#242947;" d="M605.911,444.126c6.021-0.474,14.418-1.74,20.979-5.069c0,0-2.409-22.022-2.925-33.894
				c-0.516-11.871,0.516-53.335,0.86-61.766c0.344-8.43-0.172-33.55-0.172-33.55s1.29-2.925,1.634-4.645
				c0.344-1.72,0.172-29.076,0.172-32.259s-1.29-7.828-3.613-9.549c-0.197-0.146-0.827-0.259-1.798-0.344l-4.941,1.892
				c0.344,8.258-12.739,10.001-12.739,10.001c3.491,4.538,13.427,4.861,13.427,4.861c1.606,10.618,0.344,28.609,0.344,28.609
				c0.229,0.573,2.523,6.309,2.523,6.309s-2.638,35.901-2.638,52.188s0.918,61.307,0.918,61.307
				C617.214,437.369,611.303,441.894,605.911,444.126z"/>
			<path style="fill:#242947;" d="M596.008,416.021l0.085,0.841c-6.538-14.452-24.603-47.141-24.603-47.141
				c2.237-4.301,14.796-50.238,14.796-50.238l5.235,51.979l-2.487-57.212c-0.058-1.34-0.768-2.583-1.926-3.26
				c-4.176-2.445-5.099-8.544-5.099-8.544c-4.736-0.922-5.529-14.906-5.529-14.906c-0.812,6.757,1.978,22.051,1.978,22.051
				l3.083,0.704l-17.506,59.599c2.712,8.763,27.005,54.52,31.382,62.734c0.758-1.324,1.403-2.787,1.881-4.409l0.036,0.683
				c-0.012-3.912-1.241-12.339-1.241-12.339L596.008,416.021z"/>
			
				<path style="fill:none;stroke:#1A1F35;stroke-width:0.7169;stroke-linecap:round;stroke-linejoin:round;stroke-miterlimit:10;" d="
				M561.339,274.291c0,0,5.152,0.676,7.422-2.042"/>
			
				<path style="fill:none;stroke:#1A1F35;stroke-width:0.7169;stroke-linecap:round;stroke-linejoin:round;stroke-miterlimit:10;" d="
				M562.888,268.614c0,0,3.613,4.932,18.753,6.48c15.14,1.548,29.764-1.09,32.288-1.893c2.523-0.803,11.011-4.588,11.011-4.588"/>
			<path style="fill:#F6B994;" d="M546.027,282.148c0,0-0.172,1.778,0,4.416c0,0-3.785,11.183-3.67,16.918
				c0.115,5.735,5.133,12.043,5.649,12.043c0.516,0,2.151-1.893,2.237-2.667c0,0,2.925-0.774,2.925-3.613
				c0,0,1.721-0.559,2.409-2.538l6.796-19.915C562.371,286.793,556.694,275.496,546.027,282.148z"/>
			<g style="opacity:0.4;">
				<path style="fill:#F38B82;" d="M552.693,298.149c0,0.263-0.019,0.493-0.031,0.733
					C552.713,298.447,552.693,298.149,552.693,298.149z"/>
				<path style="fill:#F38B82;" d="M552.662,298.882c-0.135,1.143-0.78,3.256-3.71,3.568c0,0-2.058-11.011-2.577-18.151l-0.415,0.65
					c0.01,0.492,0.029,1.028,0.068,1.615c0,0-0.498,1.472-1.126,3.619l2.862,12.733c0.167,0.745,0.888,1.232,1.64,1.1
					C550.699,303.787,552.461,302.755,552.662,298.882z"/>
			</g>
			<path style="fill:#F38B82;" d="M546.027,282.148c0,0-0.068,0.709-0.076,1.893c2.238-0.628,8.814-1.716,13.667,5.247h1.901
				l0.851-2.495C562.371,286.793,556.694,275.496,546.027,282.148z"/>
			<path style="fill:#2F273D;" d="M541.381,207.536l-5.228-8.799c-0.283-0.476-0.031-1.091,0.504-1.233l14.365-3.796
				c0.435-0.115,0.893,0.079,1.112,0.472l8.998,16.108L541.381,207.536z"/>
			<path style="fill:#504F6B;" d="M558.128,209.87l3.005,0.419l-8.998-16.108c-0.219-0.393-0.677-0.587-1.112-0.472l-1.629,0.431
				L558.128,209.87z"/>
			<path style="fill:#F6B994;" d="M557.267,202.776c0,0,0.344,3.893,2.638,6.19l-20.007-2.958c-0.481-0.071-0.89,0.344-0.812,0.824
				c0.271,1.654,1.161,5.019,4.015,6.668c0,0,2.637,9.803,11.871,13.936l2.867,8.55h15.14l3.556-27.02L557.267,202.776z"/>
			<path style="fill:#F38B82;" d="M559.906,208.967l2.294,0.52c0,0-2.987-2.858-4.105-6.444l-0.827-0.266
				C557.267,202.776,557.612,206.669,559.906,208.967z"/>
			<path style="fill:#F38B82;" d="M573.813,229.668v-11.092h-3.47c0.057,2.323-2.38,8.861-8.66,9.119
				c-3.883,0.16-9.167-2.388-12.637-4.357c1.578,1.568,3.528,3.025,5.927,4.099l2.867,8.55h10.614l4.762-1.788L573.813,229.668z"/>
			<path style="fill:#C93660;" d="M561.397,192.224c0,0-2.523,1.835-4.129,10.552c0,0,3.212,2.982,7.455,4.359
				c0,0,3.212,5.276,5.62,15.484c0,0-2.409,6.997-11.585,8.258l-3.785-3.441c0,0-1.147,13.076-1.835,23.972
				c0,0-5.219,13.19-7.111,30.739c0,0,8.717-3.556,13.42,5.391l5.505-21.449l2.093,0.201c0,0,4.33,3.928,13.965,4.502
				c9.635,0.573,22.825-2.065,28.331-2.294c0,0,12.388-3.212,15.484-5.276c3.097-2.065,2.753-11.183-0.516-14.452
				c0,0,4.301-30.739,4.416-34.754c0,0,3.326-8.602,1.606-15.14c-1.721-6.538-4.473-8.12-4.473-8.12s-7.111-4.611-14.796-5.414
				C603.376,184.539,569.081,179.951,561.397,192.224z"/>
			<path style="opacity:0.8;fill:#B72E5C;" d="M593.91,232.025c-8.441-5.355-20.938-9.436-23.796-10.332
				c0.077,0.309,0.155,0.608,0.23,0.926c0,0-0.023,0.062-0.058,0.149c13.509,4.578,25.891,14.414,25.891,14.414
				c2.434-1.38,9.91-1.736,9.91-1.736c-2.48-1.625-7.756-1.701-7.756-1.701l8.595-24.778L593.91,232.025z"/>
			<path style="opacity:0.8;fill:#B72E5C;" d="M606.76,251.695c-3.097,2.925-6.538,2.065-11.214,1.549
				c-3.357-0.371-22.692-14.992-33.329-23.208c-1.032,0.367-2.172,0.665-3.459,0.842l-3.785-3.441c0,0-0.114,1.302-0.292,3.423
				l4.077,3c0,0-0.115,1.491,1.95,8.029c2.065,6.538,0.803,11.814,0.803,11.814c-4.129,8.488-1.262,13.305-1.262,13.305
				l-4.801,15.97c1.449,0.927,2.844,2.366,3.998,4.561l5.505-21.449l2.093,0.201c0,0,0.96,0.86,2.951,1.832
				c-2.75-4.998-1.206-10.624-0.243-13.163c0.364-0.96,0.388-2.011,0.08-2.99l-1.854-5.883c-0.192-0.608,0.507-1.107,1.016-0.723
				c4.711,3.551,18.27,13.645,22.757,15.623c5.466,2.409,13.632,4.129,18.965-2.07c3.678-4.274,11.842-21.707,16.558-32.122
				c0.728-5.644,1.329-10.63,1.434-12.456C623.115,224.837,609.387,249.215,606.76,251.695z"/>
			<path style="fill:#F7E5E4;" d="M570.888,185.371c0,0,1.734,8.672,9.279,11.299c0.609,0.212,1.287,0.079,1.751-0.368l5.752-5.551
				c0,0,2.623,3.589,6.356,6.037c0.583,0.382,1.332,0.398,1.925,0.033c2.553-1.57,9.567-6.218,12.357-11.45
				C611.75,178.919,580.379,178.517,570.888,185.371z"/>
			<path style="fill:#F6B994;" d="M576.307,184.08c0,0,2.294,6.079,10.438,6.653c8.144,0.574,15.37-9.52,15.37-9.52h9.119
				l0.86-24.66c0,0-7.742-12.215-25.635-13.592c-17.893-1.376-21.965,6.948-23.341,9.352c-1.376,2.404-2.638,10.548-1.606,19.265
				C562.544,180.295,576.307,184.08,576.307,184.08z"/>
			<path style="opacity:0.7;fill:#F38B82;" d="M601.487,167.309c0,0,3.203,0.298,3.851-1.637c0.648-1.936-0.988-1.717-0.988-1.717
				S601.935,166.58,601.487,167.309z"/>
			<path style="opacity:0.7;fill:#F38B82;" d="M574.2,171.349c0,0,3.14-1.051,4.746,0.249
				C578.945,171.597,576.107,173.356,574.2,171.349z"/>
			<path style="fill:#5B3C48;" d="M564.952,151.047c0,0-0.344,2.925,2.151,3.355c2.495,0.43,12.56-4.989,12.56-4.989
				s-1.721,2.667-1.721,3.957s7.054-1.893,8.688-5.162c0,0,1.606,12.932,12.158,13.85c0,0,2.237-5.104,6.882-4.416
				c4.645,0.688,5.907,7.169,2.925,11.298c-2.982,4.129-8.946,5.219-8.946,5.219s0.401,12.502-2.351,17.406
				c0,0,4.301,3.011,7.054,1.549s12.13-9.635,12.13-9.635s2.667-10.581-2.151-27.614c-4.817-17.033-12.732-20.818-27.012-20.302
				c-14.28,0.516-22.94,8.947-25.807,18.008c-4.651,14.698,0.344,34.639-0.115,38.654c0,0,7.685-6.767,18.352-8.029v-2.437
				c0,0-11.738-3.169-15.255-13.277C561.098,158.723,564.952,151.047,564.952,151.047z"/>
			<g>
				<path style="fill:#442A34;" d="M561.397,192.224c0,0,7.685-6.767,18.352-8.029v-2.437c0,0-11.738-3.169-15.255-13.277
					c-2.578-7.409-0.979-13.608-0.058-16.168c-1.032,2.224-2.537,3.876-3.886,5.018
					C557.657,171.472,561.817,188.543,561.397,192.224z"/>
				<path style="fill:#442A34;" d="M608.595,168.94c-2.982,4.129-8.946,5.219-8.946,5.219s0.401,12.502-2.351,17.406
					c0,0,4.301,3.011,7.054,1.549s12.13-9.635,12.13-9.635s1.918-7.621-0.444-20.335c-1.994,0.379-3.97,0.53-5.836,0.536
					C610.243,165.476,609.725,167.376,608.595,168.94z"/>
			</g>
			<path style="fill:#2D1A22;" d="M571.048,162.477c0.163,1.24-0.328,2.328-1.098,2.429c-0.769,0.101-1.525-0.822-1.688-2.063
				c-0.163-1.24,0.328-2.328,1.098-2.429C570.129,160.313,570.885,161.237,571.048,162.477z"/>
			<path style="fill:#2D1A22;" d="M571.048,162.477c0.163,1.24-0.328,2.328-1.098,2.429c-0.769,0.101-1.525-0.822-1.688-2.063
				c-0.163-1.24,0.328-2.328,1.098-2.429C570.129,160.313,570.885,161.237,571.048,162.477z"/>
			<path style="fill:#2D1A22;" d="M584.162,161.645c0.163,1.24-0.328,2.328-1.098,2.429c-0.769,0.101-1.525-0.822-1.688-2.063
				c-0.163-1.24,0.328-2.328,1.098-2.429S583.999,160.405,584.162,161.645z"/>
			<g>
				<path style="fill:#D1937D;" d="M575.247,164.524c-0.008,1.157-0.044,2.309-0.12,3.466c-0.086,1.16-0.17,2.308-0.472,3.5l0,0.001
					l-0.331-0.604c0.536,0.177,1.146,0.303,1.735,0.361c0.594,0.057,1.196,0.041,1.77-0.103l0.006-0.001
					c0.115-0.029,0.231,0.041,0.26,0.156c0.026,0.105-0.03,0.211-0.127,0.25c-0.613,0.249-1.271,0.359-1.923,0.39
					c-0.659,0.025-1.294-0.009-1.97-0.131c-0.24-0.043-0.399-0.272-0.357-0.512l0.013-0.053l0.012-0.039l0-0.001
					c0.339-1.018,0.518-2.166,0.679-3.287c0.156-1.129,0.274-2.272,0.364-3.411c0.008-0.127,0.118-0.223,0.245-0.215
					C575.153,164.3,575.246,164.404,575.247,164.524z"/>
			</g>
			<g>
				<path style="fill:#D1937D;" d="M584.071,174.651c0.529-0.403,1.053-0.858,1.556-1.312c0.498-0.464,0.99-0.934,1.44-1.439
					c0.906-1.004,1.685-2.109,2.194-3.339l0.005-0.012c0.066-0.158,0.247-0.233,0.405-0.168c0.145,0.06,0.22,0.217,0.182,0.364
					c-0.183,0.708-0.478,1.381-0.84,2.01c-0.381,0.615-0.808,1.197-1.28,1.737c-0.963,1.065-2.026,2.005-3.243,2.78
					c-0.174,0.111-0.406,0.06-0.516-0.115c-0.105-0.165-0.065-0.381,0.088-0.497L584.071,174.651z"/>
			</g>
			<path style="fill:#F38B82;" d="M579.748,181.758c0,0,5.047,1.176,9.233-0.373c4.187-1.549,10.667-7.226,10.667-7.226v1.262
				c0,0-9.004,9.921-14.223,10.782c-5.219,0.86-5.678-2.007-5.678-2.007V181.758z"/>
			
				<path style="fill:none;stroke:#D1937D;stroke-width:0.7169;stroke-linecap:round;stroke-linejoin:round;stroke-miterlimit:10;" d="
				M601.082,167.85c0,0,2.294-3.154,3.785-4.359"/>
			
				<path style="fill:none;stroke:#D1937D;stroke-width:0.7169;stroke-linecap:round;stroke-linejoin:round;stroke-miterlimit:10;" d="
				M606.645,164.753c0,0-2.249,2.087-4.221,1.359"/>
			<path style="fill:none;stroke:#F7F7F7;stroke-width:0.4779;stroke-miterlimit:10;" d="M573.899,163.205
				c0,2.866-2.523,5.19-5.635,5.19c-3.112,0-5.635-2.324-5.635-5.19c0-2.867,2.523-5.19,5.635-5.19
				C571.376,158.015,573.899,160.339,573.899,163.205z"/>
			<path style="fill:none;stroke:#F7F7F7;stroke-width:0.4779;stroke-miterlimit:10;" d="M590.651,162.037
				c0,3.211-2.688,5.814-6.003,5.814c-3.316,0-6.003-2.603-6.003-5.814c0-3.211,2.688-5.814,6.003-5.814
				C587.964,156.223,590.651,158.826,590.651,162.037z"/>
			<path style="fill:none;stroke:#F7F7F7;stroke-width:0.4779;stroke-miterlimit:10;" d="M573.753,162.037c0,0,1.905-0.906,4.891,0"
				/>
			
				<line style="fill:none;stroke:#F7F7F7;stroke-width:0.4779;stroke-linecap:round;stroke-linejoin:round;stroke-miterlimit:10;" x1="590.412" y1="160.423" x2="604.868" y2="157.284"/>
			
				<path style="opacity:0.8;fill:none;stroke:#A52556;stroke-width:0.7169;stroke-linecap:round;stroke-linejoin:round;stroke-miterlimit:10;" d="
				M558.758,230.878c0,0,0.459,1.147,1.032,1.663c0.574,0.516,30.281,23.37,34.668,25.176c4.387,1.807,9.635,1.376,12.732,0
				s17.733-28.758,21.871-44.66"/>
			
				<path style="opacity:0.8;fill:none;stroke:#A52556;stroke-width:0.7169;stroke-linecap:round;stroke-linejoin:round;stroke-miterlimit:10;" d="
				M570.343,222.619c0,0,14.796,5.276,26.954,15.484"/>
			
				<path style="opacity:0.8;fill:none;stroke:#A52556;stroke-width:0.7169;stroke-linecap:round;stroke-linejoin:round;stroke-miterlimit:10;" d="
				M608.079,206.332c0,0-9.581,21.702-12.533,30.35"/>
			
				<path style="opacity:0.8;fill:none;stroke:#A52556;stroke-width:0.7169;stroke-linecap:round;stroke-linejoin:round;stroke-miterlimit:10;" d="
				M608.079,235.689c0,0-6.936-1.095-12.185,0"/>
			
				<path style="opacity:0.8;fill:none;stroke:#A52556;stroke-width:0.7169;stroke-linecap:round;stroke-linejoin:round;stroke-miterlimit:10;" d="
				M564.952,266.09c0,0-3.011-0.803-2.667-5.276c0.344-4.473,3.183-8.344,3.183-8.344s-0.2-5.764-1.605-9.893
				c-1.406-4.129-1.605-8.114-1.605-8.114"/>
			
				<path style="fill:none;stroke:#D1937D;stroke-width:0.7169;stroke-linecap:round;stroke-linejoin:round;stroke-miterlimit:10;" d="
				M546.314,282.148c0,0,0,9.692,2.638,20.302c0,0,2.98-0.401,3.411-2.409c0.431-2.007,0.317-10.495,0.317-10.495"/>
			
				<path style="fill:none;stroke:#1A1F35;stroke-width:0.7169;stroke-linecap:round;stroke-linejoin:round;stroke-miterlimit:10;" d="
				M619.082,271.16c0,0,2.646,23.949,1.04,37.025l1.606,5.276c0,0-1.376,62.798-1.376,70.368c0,7.57,0.803,42.955,0.918,45.708
				c0.115,2.753,1.749,10.294,1.749,10.294"/>
			
				<path style="fill:none;stroke:#1A1F35;stroke-width:0.7169;stroke-linecap:round;stroke-linejoin:round;stroke-miterlimit:10;" d="
				M602.947,274.986c0,0,6.408,6.172,16.896,4.545"/>
			
				<line style="fill:none;stroke:#1A1F35;stroke-width:0.7169;stroke-linecap:round;stroke-linejoin:round;stroke-miterlimit:10;" x1="596.093" y1="415.773" x2="597.297" y2="428.218"/>
			
				<path style="fill:none;stroke:#1A1F35;stroke-width:0.7169;stroke-linecap:round;stroke-linejoin:round;stroke-miterlimit:10;" d="
				M596.758,422.645c0,0-21.999-38.816-24.838-43.547c-2.839-4.731-4.989-9.463-4.473-11.871
				c0.516-2.409,16.345-53.163,16.345-53.163s-1.218-3.699-1.727-10.753c-0.509-7.054-0.093-20.56,0-22.624
				c0.093-2.065,2.158-5.113,2.158-5.113"/>
			
				<path style="fill:none;stroke:#1A1F35;stroke-width:0.7169;stroke-linecap:round;stroke-linejoin:round;stroke-miterlimit:10;" d="
				M577.77,277.933c0,0-1.462,7.742-1.462,13.42c0,5.678,2.151,18.237,2.151,18.237s5.936,0.86,7.914,3.355
				c0,0,0.101,6.172,0.401,9.153"/>
			<path style="fill:#A8224E;" d="M601.599,465.093c11.413-1.491,21.105-7.341,21.42-7.914c0.134-0.244-0.475-3.298-1.219-6.723
				c-3.713,3.688-11.499,5.947-14.718,6.757c-0.754,0.19-1.547-0.178-1.871-0.885c-1.667-3.644-5.92-4.616-8.298-4.874
				c-5.525,3.341-14.064,8.805-14.849,11.117C580.895,466.011,590.186,466.585,601.599,465.093z"/>
		</g>
		<g>
			<path style="fill:#C97B0A;" d="M420.146,416.92h25.724l45.617-66.812c0,0,2.867-12.759-19.184-15.756
				C450.253,331.354,421.237,394.209,420.146,416.92z"/>
			<polyline style="fill:#E2AA50;" points="274.304,272.055 270.634,270.908 271.953,189.672 327.869,185.457 343.927,285.704 
				321.331,290.521 274.901,274.162 			"/>
			<polygon style="fill:#EFB765;" points="327.869,185.457 271.953,189.672 329.735,197.109 			"/>
			<polygon style="opacity:0.5;fill:#F7E8D5;" points="294.939,192.63 294.939,212.64 303.782,214.189 303.782,193.769 
				326.148,190.159 326.148,187.98 			"/>
			<polygon style="fill:#D89E48;" points="322.019,285.704 328.213,197.109 348.146,197.109 348.146,290.521 			"/>
			<path style="opacity:0.05;fill:#383633;" d="M270.76,263.122l-0.126,7.786l3.67,1.147l0.597,2.108l46.43,16.359l22.596-4.817
				l-14.909-93.073h-9.063C322.938,245.744,286.385,259.623,270.76,263.122z"/>
			<polygon style="fill:#FFCE04;" points="302.979,290.521 276.254,278.936 274.304,272.055 304.986,281.116 			"/>
			<path style="fill:#343436;" d="M287.724,389.564c0,0,0,23.685,21.391,29.019c19.435,4.846,29.076-7.57,29.936-12.732
				C339.912,400.69,311.926,385.607,287.724,389.564z"/>
			<path style="fill:#FFF9EE;" d="M292.599,391.915c0,0,2.237,15.656,13.076,18.925c9.798,2.955,18.553-10.782,20.288-15.026
				S292.599,391.915,292.599,391.915z"/>
			<path style="fill:#FFCE04;" d="M278.102,366.711l-5.116,3.01c0,0-2.007,7.627-0.631,13.707c0,0,18.887,12.171,28.92,14.911
				c11.34,3.097,27.799,0,27.799,0v-18.581L278.102,366.711z"/>
			<path style="fill:#FFDB06;" d="M310.492,386.066c-8.291-2.073-31.386-12.716-37.672-15.647c-0.45,2.01-1.594,8.026-0.465,13.009
				c0,0,18.887,12.171,28.92,14.911c9.248,2.525,21.897,0.932,26.251,0.258v-14.08C327.525,384.517,320.127,388.474,310.492,386.066
				z"/>
			<path style="fill:#F9BB10;" d="M324.924,379.757l1.454,22.481c0,0,9.637,7.111,24.088,9.635l5.734-25.922L324.924,379.757z"/>
			<path style="fill:#FF697B;" d="M289.674,316.73c0,0-9.176-1.204-11.011,0c-1.835,1.204-7.455,19.097-7.455,21.621
				s8.258,6.423,8.258,6.423S283.595,327.225,289.674,316.73z"/>
			<path style="fill:#424144;" d="M303.897,301.991c0,0-8.545-13.305,1.09-20.875l17.033,4.588l11.355-1.491l13.354,16.521v23.395
				C346.728,324.128,307.061,316.319,303.897,301.991z"/>
			<path style="fill:#FFF3F4;" d="M277.745,341.218c0,0,4.359-27.987,26.151-39.227c0,0,9.768,7.391,16.058,9.176v21.563
				C319.955,332.73,288.699,346.265,277.745,341.218z"/>
			<path style="fill:#FFCE04;" d="M347.024,318.851l-27.069-7.684c0,0-16.746,3.441-25.004,13.305
				c-8.258,9.864-12.846,16.975-17.205,16.746c0,0-3.441,18.122-2.753,22.252c0.688,4.129,29.941,18.928,50.927,18.295
				C325.919,381.764,354.033,343.355,347.024,318.851z"/>
			<path style="fill:#FFB304;" d="M347.941,389.564c0,0-11.241-2.81-22.022-7.799c0,0,2.87-24.777-0.827-37.921
				c-0.578-2.053,0.37-4.222,2.267-5.197l22.28-11.45C349.639,327.196,372.946,358.308,347.941,389.564z"/>
			<path style="fill:#FFCE04;" d="M350.466,337.032l-17.435,11.699c0,0-7.054,20.015,1.032,28.159c0,0,7.658,4.687,18.281,6.415
				C362.967,385.033,364.288,346.322,350.466,337.032z"/>
			<path style="opacity:0.6;fill:#F9BB10;" d="M352.344,383.305c1.014,0.165,1.944-0.041,2.783-0.553
				c-6.387-4.592-13.04-11.088-12.921-18.177c0.134-7.935,6.384-17.702,11.556-24.454c-0.985-1.224-2.081-2.273-3.296-3.089
				l-17.435,11.699c0,0-7.054,20.015,1.032,28.159C334.063,376.89,341.72,381.577,352.344,383.305z"/>
			<path style="fill:#F6B994;" d="M392.731,144.509c0,0,6.939,17.549-10.724,26.495v5.854h-23.685l-1.893-11.446
				c0,0-0.946-1.462-1.892-3.613c-0.946-2.151-0.327-25.549-0.327-25.549S384.473,136.079,392.731,144.509z"/>
			<path style="opacity:0.3;fill:#F38B82;" d="M360.816,159.903c0.073-3.799-1.159-10.213-0.526-16.172
				c0.175-1.646,1.804-2.731,3.4-2.294c6.242,1.711,21.185,5.678,30.033,6.937c-0.398-2.353-0.992-3.865-0.992-3.865
				c-7.02-7.166-29.929-8.116-36.645-8.24c-0.553,1.34-1.295,3.28-1.993,5.567c-0.119,7.064-0.205,18.492,0.443,19.964
				c0.946,2.151,1.892,3.613,1.892,3.613S360.73,164.371,360.816,159.903z"/>
			<path style="opacity:0.6;fill:#F38B82;" d="M380,158.273c0,0-5.595,0.258-6.54,3.183C373.46,161.456,378.451,162.316,380,158.273
				z"/>
			<path style="fill:#2D1A22;" d="M371.751,149.201c-0.577,1.23-1.582,1.976-2.244,1.665c-0.662-0.311-0.732-1.56-0.155-2.79
				c0.577-1.23,1.582-1.976,2.244-1.665C372.259,146.721,372.328,147.971,371.751,149.201z"/>
			<path style="fill:#2D1A22;" d="M384.999,152.384c-0.577,1.23-1.582,1.976-2.244,1.665c-0.662-0.311-0.732-1.56-0.155-2.79
				c0.577-1.23,1.582-1.976,2.244-1.665C385.507,149.904,385.576,151.153,384.999,152.384z"/>
			<g>
				<path style="fill:#D1937D;" d="M376.645,151.162c0.181,0.498,0.484,1.186,0.751,1.76c0.278,0.6,0.572,1.192,0.88,1.775
					c0.615,1.159,1.285,2.315,2.095,3.275l0,0l0.019,0.024c0.128,0.157,0.128,0.377,0.013,0.533
					c-0.291,0.396-0.59,0.694-0.931,0.989c-0.338,0.288-0.708,0.538-1.102,0.743c-0.783,0.422-1.689,0.609-2.562,0.563
					c-0.142-0.007-0.251-0.129-0.244-0.271c0.007-0.134,0.115-0.238,0.246-0.244l0.009,0c0.782-0.031,1.541-0.261,2.185-0.686
					c0.324-0.207,0.624-0.452,0.894-0.727c0.265-0.269,0.523-0.591,0.698-0.88l0.032,0.557l0,0c-0.831-1.14-1.414-2.353-1.963-3.581
					c-0.272-0.615-0.528-1.234-0.766-1.86l-0.347-0.944c-0.109-0.343-0.22-0.578-0.308-1.027c-0.02-0.103,0.047-0.203,0.15-0.223
					c0.093-0.018,0.183,0.035,0.215,0.121L376.645,151.162z"/>
			</g>
			<path style="fill:#D36262;" d="M365.634,157.628c0,0,4.339,5.29,9.224,6.495c0,0-2.118,1.319-5.198,1.29
				C369.659,165.413,365.634,165.241,365.634,157.628z"/>
			<path style="opacity:0.34;fill:#F4F2EA;" d="M398.982,146.23l-1.262,24.431c0,0-21.162,3.613-40.604-7.914v-27.184
				L398.982,146.23z"/>
			<path style="opacity:0.3;fill:#FFFFFF;" d="M394.218,171.037c2.218-0.158,3.502-0.376,3.502-0.376l1.262-24.431l-2.059-0.525
				L394.218,171.037z"/>
			<path style="fill:#FFCE04;" d="M359.182,138.229c0,0,32.689,8.689,44.962,9.721c0,0-1.491-2.581-4.014-4.473
				c0,0-10.883-9.979-21.442-11.183C368.128,131.089,359.182,138.229,359.182,138.229z"/>
			<path style="fill:#4AAFF4;" d="M335.611,299.697c0,0-7.054-6.022-3.785-19.958c0,0-6.366-14.655-3.613-28.145
				c0,0-17.434,6.008-22.252,4.059c-4.817-1.95-6.308-15.026-2.638-22.137c0,0,2.179-26.266,14.223-31.657
				c0,0,1.262-13.535,10.782-20.761c9.52-7.226,24.546-4.703,24.546-4.703s-2.466-7.369,3.556-10.982c0,0,6.079,6.624,13.305,7.427
				c7.226,0.803,12.273-1.835,12.273-1.835s1.376,2.638,0.803,7.914c0,0,11.814,2.925,20.417,10.495
				c8.602,7.57,11.747,26.668,10.433,35.098c0,0,5.215,4.429,3.417,16.345c0,0,10.707,8.762,14.83,19.12l-11.647,14.474
				c0,0-9.004-1.823-10.954-3.772c0,0,2.523,6.825-3.67,15.083L335.611,299.697z"/>
			<path style="fill:#34A6CE;" d="M376.773,176.707c2.504-0.381,4.508-1.023,6.117-1.786c-0.205-2.607-0.883-3.917-0.883-3.917
				s-5.047,2.638-12.273,1.835c-7.226-0.803-13.305-7.427-13.305-7.427S365.689,178.395,376.773,176.707z"/>
			<path style="opacity:0.8;fill:#34A6CE;" d="M424.953,268.617c-5.059-2.048-11.777-7.48-11.777-7.48
				c-0.029-10.516-7.181-26.258-7.181-26.258c3.077-15.627-4.717-40.047-4.717-40.047l-1.148,5.076
				c4.129,20.358,0.803,38.768,0.803,38.768c4.588,7.226,6.538,26.954,6.538,26.954c0.631,1.491,2.075,4.93,2.075,4.93l0.425,0.616
				c2.783,1.751,10.289,3.274,10.289,3.274L424.953,268.617z"/>
			<path style="fill:#34A6CE;" d="M348.61,194.833l1.74,7.141l-9.857,16.884l6.129,0.493l0.207,1.721l4.826-2.495l0.946-3.484
				l-3.371,0.549c-1.648,0.268-2.888-1.469-2.1-2.94l4.646-8.671c0.516-0.964,0.523-2.12,0.018-3.09L348.61,194.833z"/>
			<path style="opacity:0.8;fill:#34A6CE;" d="M379.155,282.941c-26.136-0.239-28.962-13.611-28.962-13.611
				c-12.2-0.545-14.582-14.366-14.582-14.366c10.38-5.047,23.513-18.237,23.513-18.237l3.613-3.441c0,0,1.95-0.115,2.409-0.731
				c0.459-0.616,9.785-7.751,12.292-11.542c2.508-3.791,1.529-6.825,1.529-6.825l-24.758,19.42c0,0-29.266,16.71-40.535,15.334
				c-11.269-1.376-10.236-16.554-10.236-16.554h0c-0.082,0.72-0.116,1.127-0.116,1.127c-3.67,7.111-2.179,20.187,2.638,22.137
				c4.817,1.95,22.252-4.059,22.252-4.059c-2.753,13.491,3.613,28.145,3.613,28.145c-3.269,13.936,3.785,19.958,3.785,19.958
				l43.544-8.666V282.941z"/>
			
				<path style="fill:none;stroke:#2FA1C9;stroke-width:0.9558;stroke-linecap:round;stroke-linejoin:round;stroke-miterlimit:10;" d="
				M409.212,269.331c0,0,2.09-9.377,11.128-14.797"/>
			
				<path style="fill:none;stroke:#2FA1C9;stroke-width:0.9558;stroke-linecap:round;stroke-linejoin:round;stroke-miterlimit:10;" d="
				M401.13,237.894c0,0,6.904-2.812,12.529-11.395"/>
			
				<path style="fill:none;stroke:#2FA1C9;stroke-width:0.9558;stroke-linecap:round;stroke-linejoin:round;stroke-miterlimit:10;" d="
				M402.251,218.391c0,0,5.449-2.495,9.578-9.686"/>
			
				<path style="fill:none;stroke:#2FA1C9;stroke-width:0.9558;stroke-linecap:round;stroke-linejoin:round;stroke-miterlimit:10;" d="
				M346.42,208.706c0,0,15.277,0.606,27.325,5.425c0,0,17.974-2.994,28.431,2.977"/>
			
				<path style="fill:none;stroke:#2FA1C9;stroke-width:0.9558;stroke-linecap:round;stroke-linejoin:round;stroke-miterlimit:10;" d="
				M343.927,243.678c0,0,19.323-4.882,29.701,0.093c0,0,8.399-4.903,29.58,0.306"/>
			
				<path style="fill:none;stroke:#2FA1C9;stroke-width:0.9558;stroke-linecap:round;stroke-linejoin:round;stroke-miterlimit:10;" d="
				M334.584,279.739c0,0,19.023-18.355,45.982-16.979c0,0,3.264-1.029,9.865-0.8c6.602,0.229,17.039,3.67,17.039,3.67"/>
			
				<path style="fill:none;stroke:#2FA1C9;stroke-width:0.9558;stroke-linecap:round;stroke-linejoin:round;stroke-miterlimit:10;" d="
				M341.742,244.847c0,0-10.177-6.961-6.262-24.917"/>
			
				<path style="fill:none;stroke:#2FA1C9;stroke-width:0.9558;stroke-linecap:round;stroke-linejoin:round;stroke-miterlimit:10;" d="
				M322.363,224.31c-9.377-3.239-17.377,2.439-17.377,2.439"/>
			
				<path style="fill:none;stroke:#2FA1C9;stroke-width:0.9558;stroke-linecap:round;stroke-linejoin:round;stroke-miterlimit:10;" d="
				M319.482,253.416c0,0-10.366-14.635,2.624-28.84"/>
			
				<path style="fill:none;stroke:#2FA1C9;stroke-width:0.9558;stroke-linecap:round;stroke-linejoin:round;stroke-miterlimit:10;" d="
				M318.062,203.281c0,0,16.144,0.123,25.191,10.849"/>
			
				<path style="fill:none;stroke:#248EBC;stroke-width:0.9558;stroke-linecap:round;stroke-linejoin:round;stroke-miterlimit:10;" d="
				M401.735,190.962c0,0-0.344,5.047-1.606,8.947c0,0,4.588,24.89,0.803,38.768c0,0,7.341,15.14,6.538,26.954
				c0,0,2.556,3.743,2.31,7.69"/>
			
				<path style="fill:none;stroke:#248EBC;stroke-width:0.9558;stroke-linecap:round;stroke-linejoin:round;stroke-miterlimit:10;" d="
				M374.064,173.413c0,0,3.871,4.215,3.785,5.419c-0.075,1.051-4.893,17.992-6.115,22.277c-0.181,0.634-0.2,1.3-0.054,1.943
				c1.118,4.93,5.866,27.582,1.948,40.718c-0.318,1.065-0.15,2.212,0.479,3.128c2.216,3.229,7.123,11.238,6.409,17.929
				c0,0,3.094,5.276,2.751,10.782"/>
			<path style="fill:#2F273D;" d="M366.59,198.36l3.647-8.828c0.217-0.525,0.723-0.872,1.291-0.886l14.678-0.346
				c0.662-0.016,1.117,0.662,0.853,1.269l-6.658,15.271l-20.617,4.531L366.59,198.36z"/>
			<path style="fill:#504F6B;" d="M371.529,188.646c-0.568,0.014-1.074,0.361-1.291,0.886l-3.647,8.828l-4.14,6.697v2.25h3.441
				l6.609-18.684L371.529,188.646z"/>
			<path style="fill:#F6B994;" d="M350.809,218.261c0,0,5.018-14.739,6.137-15.857c1.118-1.118,9.645-4.043,9.645-4.043
				l-1.903,5.936c0,0,14.796-9.549,15.57-9.463c0.774,0.086,2.581,0.86,2.667,1.979c0.086,1.118-2.839,4.129-2.839,4.129
				s2.753,1.835,0.516,5.606c0,0,1.376,4.029-1.634,7.642c0,0,0.21,3.153-1.529,5.017c-1.74,1.865-12.493,10.811-13.353,11.413
				c-0.86,0.602-2.495,0.774-2.495,0.774S350.866,229.817,350.809,218.261z"/>
			<path style="fill:#F38B82;" d="M360.29,207.307l5.083-3.415l0.016-0.048c-0.443,0.285-0.702,0.452-0.702,0.452l1.14-3.555
				L360.29,207.307z"/>
			<path style="opacity:0.5;fill:#F38B82;" d="M372.746,223.417c-2.803,1.667-5.987,3.186-8.747,3.561
				c-4.767,0.646-10.242-3.941-13.064-6.711c1.202,9.735,10.655,11.127,10.655,11.127s1.634-0.172,2.495-0.774
				C364.626,230.241,369.082,226.56,372.746,223.417z"/>
			<path style="fill:#E9F9FF;" d="M346.829,220.362l3.98-2.101c0,0,3.212,10.896,10.782,13.133l-4.645,4.301
				C356.945,235.695,348.687,230.935,346.829,220.362z"/>
			<path style="fill:#181719;" d="M335.611,429.25l-1.892,8.086c0,0,10.438,13.764,13.764,18.467
				c3.187,4.506,13.221,16.175,22.531,13.205c0.852-0.272,1.493-0.974,1.735-1.835c0.849-3.026,1.831-11.563-8.781-23.413
				C349.203,428.39,335.611,429.25,335.611,429.25z"/>
			<path style="fill:#2A2F54;" d="M335.611,299.697c0,0,8.485-16.799,46.625-22.795c0,0,11.355-2.669,25.979,4.729
				c14.624,7.398,18.237,18.065,18.237,18.065v85.852h-26.668c0,0,10.667-39.915,18.065-52.475v-6.366
				c0,0-12.904-10.495-21.85-13.592l-13.764,96.691l-11.011,7.742l-6.538,27.184c0,0-4.645,6.022-14.452,0.688
				c-9.807-5.333-14.624-16.172-14.624-16.172s11.871-60.1,19.27-68.589L335.611,299.697z"/>
			<path style="fill:#242947;" d="M386.882,295.74l3.167,59.189L396,313.117c8.947,3.097,21.85,13.592,21.85,13.592v6.366
				c-6.008,10.199-14.17,38.435-17.027,48.69h7.564l14.28-60.544l-32.089-29.062L386.882,295.74z"/>
			<path style="fill:#181719;" d="M405.872,364.575c-3.504,11.312-6.087,20.974-6.087,20.974h26.266v-18.524h-4.244
				C413.011,368.04,407.936,365.815,405.872,364.575z"/>
			<path style="fill:#242947;" d="M345.506,301.553c10.275-6.608,12.863-14.48,13.493-18.612
				c-18.588,7.261-23.388,16.756-23.388,16.756l19.27,60.964c-7.398,8.489-19.27,68.589-19.27,68.589s4.817,10.839,14.624,16.172
				c9.807,5.334,14.452-0.688,14.452-0.688l0.633-2.633c-31.163-17.44-11.326-65.883-5.977-77.529
				c0.771-1.678,0.89-3.576,0.338-5.337L343.403,307.3C342.723,305.131,343.594,302.783,345.506,301.553z"/>
			<path style="fill:#FFCE04;" d="M377.534,389.851l4.014-14.682l0.688-46.338h15.828c0,0,2.179,2.753,2.523,3.67
				c0.337,0.898-4.715,29.289,2.612,41.24c0.49,0.799,0.827,1.683,1.051,2.594c0.045,0.184,0.087,0.371,0.122,0.555l2.38,4.875
				v9.463C406.753,391.227,381.864,394.84,377.534,389.851z"/>
			<path style="fill:#FFB304;" d="M376.387,394.496l1.147-4.645c0,0,16.173,1.72,25.463-3.097c0,0,2.638-4.817,1.376-9.864
				c0,0,6.423,5.047,17.434,2.982v22.366h-39.399L376.387,394.496z"/>
			<path style="fill:#FFCE04;" d="M429.808,262.993c0,0-7.484-1.95-13.936-16.631c0,0,9.16-19.83,28.302-13.248
				c0,0,7.742,9.936,3.613,23.378L429.808,262.993z"/>
			<path style="fill:#FFF3F4;" d="M446.333,236.816c-1.116-2.359-2.16-3.702-2.16-3.702c-19.142-6.583-28.302,13.248-28.302,13.248
				c0.279,0.635,0.561,1.239,0.843,1.827C429.308,236.18,441.413,236.178,446.333,236.816z"/>
			<path style="fill:#686364;" d="M464.065,237.256l7.256-14.796c0.175-0.356,0.709-0.25,0.729,0.146
				c0.15,3.018,0.295,9.932-1.296,12.766L464.065,237.256z"/>
			<path style="fill:#494243;" d="M466.746,231.788l-2.682,5.469l6.689-1.883c0.462-0.824,0.775-1.999,0.987-3.317
				C469.334,233.133,467.712,232.535,466.746,231.788z"/>
			<path style="fill:#A5A5A9;" d="M452.948,251.351c0,0,5.189-10.667,5.72-11.355c0.531-0.688,12.574-5.964,12.574-5.964
				s-0.172,1.262-0.803,1.663c-0.631,0.401-10.036,5.62-10.036,5.62l-2.81,12.358C457.594,253.673,458.167,251.925,452.948,251.351z
				"/>
			<path style="fill:#F6B994;" d="M452.948,251.351c0,0,7.57-1.462,8.516,2.065c0,0,3.441-2.667,5.42,0.516
				c0,0,3.441-1.29,4.989,1.634c1.548,2.925-0.86,6.366-0.86,6.366h-16.603L452.948,251.351z"/>
			<g style="opacity:0.5;">
				<path style="fill:#F38B82;" d="M466.884,253.932c-0.031-0.05-0.065-0.086-0.097-0.132c0.411,1.544,0.81,3.81,0.6,6.383h0.956
					c0,0,0.63-3.39-0.224-6.51C467.4,253.741,466.884,253.932,466.884,253.932z"/>
				<path style="fill:#F38B82;" d="M462.671,259.782c0,0,0.556-3.365-0.584-6.761c-0.383,0.212-0.622,0.395-0.622,0.395
					c-0.273-1.018-1.105-1.611-2.14-1.953c0.932,1.289,2.495,4.118,2.169,8.319H462.671z"/>
			</g>
			<path style="fill:#A5A5A9;" d="M420.259,245.158l7.398-21.764c0,0-2.323-12.387-4.817-15.656l1.118-2.064
				c0,0,5.85,11.355,5.85,17.979l-4.774,23.675L420.259,245.158z"/>
			<path style="fill:#494243;" d="M445.034,255.022l6.505-4.449c0.286-0.195,0.635-0.271,0.975-0.205
				c1.353,0.263,4.836,1.152,5.684,3.449c1.059,2.867,0,5.448,0,5.448h-8.404L445.034,255.022z"/>
			<path style="fill:#3A3335;" d="M416.732,243.351c0,0-1.749,0.43-2.839,5.936c-1.09,5.506,1.979,7.474,1.979,7.474
				S422.725,250.262,416.732,243.351z"/>
			<path style="fill:#494243;" d="M436.26,257.201c0,0-24.087-5.506-40.087-7.742v-6.108c0,0,43.012,3.699,52.475,11.957
				L436.26,257.201z"/>
			
				<ellipse transform="matrix(0.9999 -0.016 0.016 0.9999 -6.6907 7.8572)" style="fill:#343436;" cx="488.371" cy="422.645" rx="47.144" ry="47.143"/>
			<circle style="fill:#FFF9EE;" cx="485.94" cy="425.075" r="37.677"/>
			
				<ellipse transform="matrix(0.2448 -0.9696 0.9696 0.2448 -43.289 790.7528)" style="fill:#E3E4DF;" cx="485.94" cy="423.164" rx="29.921" ry="29.921"/>
			
				<ellipse transform="matrix(0.6475 -0.762 0.762 0.6475 -153.3195 517.0439)" style="fill:#A5A5A9;" cx="482.282" cy="424.265" rx="16.833" ry="16.833"/>
			<path style="fill:#686364;" d="M456.733,384.059l18.065,48.46c0,0,7.914-0.172,11.871-6.882l-17.631-48.251
				C469.039,377.386,458.11,382.052,456.733,384.059z"/>
			<path style="fill:#494243;" d="M474.282,328.482c0.106,0.299,0.326,0.541,0.6,0.7c1.824,1.057,9.189,5.094,15.319,5.169
				c7.054,0.086,9.377-15.312,0.516-17.549c-7.92-1.999-14.672,3.837-16.016,5.098c-0.17,0.16-0.291,0.35-0.364,0.572
				C474.042,323.369,473.371,325.92,474.282,328.482z"/>
			<path style="fill:#FFF30D;" d="M490.717,316.802c-0.233-0.059-0.461-0.089-0.691-0.134c-4.216,1.019-7.351,4.806-7.351,9.335
				c0,3.325,1.688,6.255,4.254,7.981c1.104,0.216,2.207,0.354,3.272,0.367C497.255,334.437,499.578,319.039,490.717,316.802z"/>
			<path style="fill:#FFB304;" d="M472.304,345.892l3.997,0.502c1.064,0.134,1.983,0.805,2.434,1.778l0.538,1.161
				c0,0,33.033-3.527,49.206,30.539c0,0-0.459,3.785-9.52,2.294c-9.061-1.491-40.804-5.269-55.643,0.348
				c-14.839,5.617-26.023,29.892-26.023,29.892h-4.13c0,0-1.702-26.23,15.314-47.158c0,0,1.557-2.809-2.146-5.319
				c0,0,4.039-13.313,25.373-19.481L472.304,345.892z"/>
			<path style="fill:#EF9B06;" d="M476.3,346.394l-3.997-0.502l-0.21-1.902c-6.664-0.328-15.36,4.053-15.36,4.053l2.576,3.542
				c0.953,1.311,1.214,2.997,0.729,4.544c-4.064,12.973-1.408,23.657,0.049,27.93c1.054-0.602,2.129-1.13,3.226-1.545
				c1.869-0.707,4.008-1.265,6.334-1.698c-6.436-32.878,9.624-31.483,9.624-31.483l-0.538-1.161
				C478.284,347.2,477.364,346.528,476.3,346.394z"/>
			<path style="fill:#686364;" d="M471.702,340.448l0.602,5.445l-17.979,3.441C454.325,349.333,458.282,341.283,471.702,340.448z"/>
			<path style="fill:#686364;" d="M435.17,258.988v-2.906c0,0,0.918-1.548,6.251-1.548c5.334,0,12.216,0,12.216,0
				s2.151,0.391,2.151,4.454H435.17z"/>
			<path style="fill:#FFCE04;" d="M455.701,258.233h-20.818c0,0-19.27,9.291-21.334,30.625c-2.065,21.334,6.194,86.197,6.194,86.197
				l-8.086,19.441c0,0-21.506,3.728-35.27,0l-5.161,23.055c0,0,18.696,5.333,34.525,5.104s35.442-4.358,35.442-4.358
				s0.402-4.875,0.516-5.907l-15.312,0.057c0,0,12.846-61.594,43.815-69.852c0,0,13.879-4.703,21.277,7.513
				c0,0-0.172-19.958-2.237-34.926c-2.065-14.968-8.258-34.066-8.258-34.066s1.72-12.646-6.28-18.581
				C474.713,262.535,471.358,258.233,455.701,258.233z"/>
			<path style="fill:#FFDF0B;" d="M485.876,344.27c2.04,1.28,3.982,3.148,5.611,5.837c0,0-0.172-19.958-2.237-34.926
				c-2.065-14.968-8.258-34.066-8.258-34.066s0.241-1.772,0.123-4.3c-1.687,1.776-3.286,4.009-4.711,6.824
				C476.404,283.639,487.749,310.39,485.876,344.27z"/>
			<path style="fill:#FFF3F4;" d="M434.793,258.278c-0.927,0.466-9.582,5-15.606,14.382c13.206,5.653,25.102,29.102,30.492,37.016
				c5.391,7.914,11.785,10.753,17.033,10.839c5.247,0.086,9.291-1.118,12.13-7.484c2.839-6.365,3.37-27.967,3.37-27.968
				c0-0.001-0.001-0.002-0.001-0.003l-1.219-3.944c0,0-2.88,12.079-12.56,12.559c-10.409,0.516-15.886-0.975-15.886-0.975
				c-10.552-3.097-16.058-15.37-17.778-22.252c-1.72-6.882,0.688-12.215,0.688-12.215
				C435.23,258.242,435.014,258.263,434.793,258.278z"/>
			<path style="fill:#FFFFFF;" d="M477.96,287.802c0.933,2.693,2.173,6.612,3.404,11.495c0.674-7.215,0.848-14.234,0.848-14.234
				c0-0.001-0.001-0.002-0.001-0.003l-1.219-3.944C480.992,281.116,480.178,284.531,477.96,287.802z"/>
			<ellipse style="fill:#494243;" cx="467.388" cy="276.556" rx="14.439" ry="16.774"/>
			<ellipse style="fill:#FFF30D;" cx="468.344" cy="276.556" rx="11.358" ry="13.195"/>
			<path style="fill:#F4E206;" d="M470.638,288.503c-6.273,0-11.358-5.908-11.358-13.195c0-4.77,2.186-8.936,5.451-11.254
				c-4.499,1.755-7.745,6.683-7.745,12.501c0,7.287,5.085,13.195,11.358,13.195c2.167,0,4.185-0.718,5.908-1.941
				C473.115,288.253,471.902,288.503,470.638,288.503z"/>
			<path style="fill:#FFFFFF;" d="M434.553,258.403c-0.017,0.009-0.039,0.021-0.057,0.03c-0.1,0.053-0.219,0.117-0.355,0.192
				c-0.019,0.01-0.038,0.021-0.057,0.032c-2.379,1.322-9.638,5.815-14.896,14.003c1.109,0.475,2.208,1.085,3.295,1.791
				c5.224-14.752,12.974-16.217,12.974-16.217c-0.222,0.013-0.456,0.037-0.684,0.056
				C434.72,258.316,434.646,258.353,434.553,258.403z"/>
			<path style="opacity:0.6;fill:#F9BB10;" d="M425.218,386.504c-1.556,2.228-5.011,0.41-4.065-2.138l2.762-7.441
				c0.863-2.324,1.063-4.842,0.603-7.278c-9.935-52.671-7.236-80.515-2.036-95.197c0,0,0,0,0,0
				c-1.088-0.706-2.186-1.316-3.295-1.791c5.257-8.188,12.516-12.681,14.896-14.003c0.002-0.001,0.005-0.003,0.007-0.004
				c-3.612,2-18.724,11.436-20.54,30.205c-2.065,21.334,6.194,86.197,6.194,86.197l-8.086,19.441c0,0-21.506,3.728-35.27,0
				l-5.161,23.055c0,0,18.696,5.333,34.525,5.104s35.442-4.358,35.442-4.358s0.402-4.875,0.516-5.907l-15.312,0.057
				c0,0,9.485-45.477,31.803-63.517C446.317,358.044,433.865,374.126,425.218,386.504z"/>
			<path style="fill:#F6CB06;" d="M522.225,382.498c5.898,0.179,6.253-2.626,6.253-2.626
				c-16.173-34.066-49.206-30.539-49.206-30.539S508.365,351.445,522.225,382.498z"/>
			<path style="fill:#494243;" d="M430.578,333.314c0.106,0.299,0.326,0.541,0.6,0.7c1.824,1.056,9.188,5.094,15.318,5.169
				c7.054,0.086,9.377-15.312,0.516-17.549c-7.92-1.999-14.672,3.837-16.016,5.099c-0.17,0.16-0.291,0.35-0.364,0.572
				C430.337,328.2,429.667,330.751,430.578,333.314z"/>
			<path style="fill:#FFF30D;" d="M447.013,321.633c-0.233-0.059-0.46-0.089-0.691-0.134c-4.216,1.019-7.351,4.806-7.351,9.335
				c0,3.325,1.688,6.255,4.254,7.981c1.104,0.216,2.207,0.354,3.272,0.367C453.551,339.268,455.873,323.87,447.013,321.633z"/>
			<circle style="fill:#FFF3F4;" cx="478.326" cy="423.916" r="2.495"/>
			<path style="fill:#686364;" d="M416.732,243.351c0,0,5.076,4.97-0.86,13.41l9.721,0.956c0,0,6.366-7.527,0.774-12.861
				L416.732,243.351z"/>
			<path style="fill:#686364;" d="M385.391,241.387l10.992,0.39c0.44,0.016,0.813,0.329,0.895,0.761
				c0.321,1.692,0.857,5.923-1.115,8.644c-0.227,0.313-0.609,0.473-0.987,0.391l-10.499-2.272c-0.302-0.065-0.552-0.27-0.672-0.555
				c-0.519-1.234-1.663-4.709,0.688-7.096C384.874,241.467,385.134,241.378,385.391,241.387z"/>
			<path style="fill:#686364;" d="M418.252,216.655c0,0,4.806-7.363,6.075-9.908c0.057-0.115,0.078-0.231,0.068-0.359
				c-0.117-1.497-1.022-11.347-4.744-14.238c-0.386-0.3-0.956-0.085-1.089,0.385c-0.81,2.853-3.172,12.296-2.623,23.738
				c0.013,0.263,0.163,0.513,0.406,0.615C416.734,217.051,417.397,217.161,418.252,216.655z"/>
			<path style="fill:#494243;" d="M416.345,216.888c0.389,0.163,1.052,0.273,1.907-0.233c0,0,4.806-7.363,6.075-9.908
				c0.057-0.115,0.078-0.231,0.068-0.359c-0.019-0.238-0.06-0.704-0.127-1.302c-1.735,2.421-4.715,6.29-6.073,6.35
				c-1.192,0.052-1.794-2.608-2.086-4.735c-0.235,2.934-0.334,6.16-0.17,9.572C415.951,216.536,416.102,216.786,416.345,216.888z"/>
			<path style="fill:#424144;" d="M398.065,328.831c0,0,2.667-0.746,3.355-4.703c0.688-3.957-3.355-22.538-14.538-28.388
				l-4.129,3.957l-0.516,29.134H398.065z"/>
			
				<line style="fill:none;stroke:#1A1F35;stroke-width:0.7169;stroke-linecap:round;stroke-linejoin:round;stroke-miterlimit:10;" x1="391.484" y1="291.396" x2="382.236" y2="299.181"/>
			
				<path style="fill:none;stroke:#1A1F35;stroke-width:0.7169;stroke-linecap:round;stroke-linejoin:round;stroke-miterlimit:10;" d="
				M342.206,299.927c0,0,11.585-7.914,13.534-14.223"/>
			
				<path style="fill:none;stroke:#248EBC;stroke-width:0.9558;stroke-linecap:round;stroke-linejoin:round;stroke-miterlimit:10;" d="
				M321.331,224.856c12.904-7.054,25.291-5.506,25.291-5.506c1.893,10.495,10.323,16.345,10.323,16.345
				c-8.603,6.538-28.732,15.899-28.732,15.899"/>
			
				<path style="fill:none;stroke:#248EBC;stroke-width:0.9558;stroke-linecap:round;stroke-linejoin:round;stroke-miterlimit:10;" d="
				M340.215,219.334l10.135-17.36c0,0-1.835-15.943-12.846-21.334"/>
			
				<line style="fill:none;stroke:#D1937D;stroke-width:0.7169;stroke-linecap:round;stroke-linejoin:round;stroke-miterlimit:10;" x1="359.01" y1="208.167" x2="366.59" y2="203.074"/>
			
				<line style="fill:none;stroke:#D1937D;stroke-width:0.7169;stroke-linecap:round;stroke-linejoin:round;stroke-miterlimit:10;" x1="380.086" y1="200.941" x2="373.46" y2="205.621"/>
			
				<line style="fill:none;stroke:#D1937D;stroke-width:0.7169;stroke-linecap:round;stroke-linejoin:round;stroke-miterlimit:10;" x1="380.602" y1="206.92" x2="376.773" y2="210.49"/>
			<path style="fill:#FFB304;" d="M353.271,164.679c2.776,0.08,5.347-1.776,5.812-4.513c0.063-0.373,0.099-0.774,0.099-1.204
				c0-4.301-1.634-14.538,0-20.732c0,0,21.162-6.624,40.948,5.248c0,0-1.407-19.728-23.357-24.087
				c-21.95-4.358-34.578,18.352-35.031,28.904C341.321,158.104,343.373,164.395,353.271,164.679z"/>
			<g style="opacity:0.6;">
				<path style="fill:#EF9B06;" d="M381.663,134.358c-10.316-0.376-16.433,1.381-20.571,3.378c5.621-1.286,22.789-4.009,39.038,5.74
					c0,0-0.049-0.677-0.266-1.804C396.501,137.903,390.93,134.696,381.663,134.358z"/>
				<path style="fill:#EF9B06;" d="M353.271,164.679c2.776,0.079,5.347-1.776,5.812-4.513c0.063-0.373,0.099-0.774,0.099-1.204
					c0-4.169-1.526-13.903-0.133-20.138c-3.889,2.249-5.831,4.378-8.857,3.794c-3.172-0.612-4.734-2.736-5.507-4.677
					c-1.817,3.821-2.822,7.526-2.943,10.355C341.32,158.104,343.373,164.395,353.271,164.679z"/>
			</g>
			<circle style="fill:#FFF3F4;" cx="350.192" cy="153.241" r="2.452"/>
			<path style="fill:#F2E2E4;" d="M350.565,155.305c-1.354,0-2.452-1.098-2.452-2.452c0-0.561,0.196-1.072,0.513-1.485
				c-0.538,0.45-0.887,1.117-0.887,1.873c0,1.354,1.098,2.452,2.452,2.452c0.793,0,1.49-0.383,1.939-0.966
				C351.705,155.082,351.164,155.305,350.565,155.305z"/>
			<path style="opacity:0.6;fill:#F9BB10;" d="M278.868,341.101c-0.377,0.084-0.751,0.137-1.123,0.117
				c0,0-3.441,18.122-2.753,22.252c0.628,3.77,25.06,16.424,45.277,18.12C294.716,372.344,282.821,350.245,278.868,341.101z"/>
		</g>
		<g>
			
				<line style="fill:none;stroke:#FFFFFF;stroke-linecap:round;stroke-linejoin:round;stroke-miterlimit:10;" x1="391.484" y1="187.189" x2="434.567" y2="154.599"/>
			
				<ellipse transform="matrix(0.282 -0.9594 0.9594 0.282 236.8208 541.7282)" style="fill:#FFFFFF;" cx="480.342" cy="112.643" rx="66.513" ry="66.513"/>
			
				<ellipse transform="matrix(0.1391 -0.9903 0.9903 0.1391 301.9781 572.6462)" style="fill:#95DD57;" cx="480.342" cy="112.643" rx="60.987" ry="60.987"/>
			<g>
				<path style="fill:#74B238;" d="M447.083,163.752c1.191,0.777,2.408,1.516,3.654,2.209l33.75-51.185h22.871l11.676,45.006
					c1.237-1.017,2.424-2.091,3.577-3.201l-10.846-41.805h29.51c0.025-0.71,0.054-1.418,0.054-2.134
					c0-0.716-0.029-1.424-0.054-2.133h-59.084L447.083,163.752z"/>
				<path style="fill:#74B238;" d="M423.525,90.482l44.835,8.226l0.771-4.196l-43.88-8.051
					C424.626,87.774,424.057,89.119,423.525,90.482z"/>
				<path style="fill:#74B238;" d="M491.714,89.009l32.281-18.935c-1.033-1.06-2.104-2.081-3.212-3.064l-31.227,18.317
					L491.714,89.009z"/>
			</g>
			<path style="fill:#EA4747;" d="M479.115,77.472c-8.944,0-16.193,7.25-16.193,16.194c0,0.785,0.075,1.55,0.183,2.304
				l16.011,38.915l16.011-38.915c0.108-0.755,0.183-1.52,0.183-2.304C495.309,84.722,488.059,77.472,479.115,77.472z
				 M479.115,98.754c-3.199,0-5.793-2.593-5.793-5.792c0-3.199,2.593-5.793,5.793-5.793s5.793,2.593,5.793,5.793
				C484.908,96.16,482.314,98.754,479.115,98.754z"/>
			<path style="fill:#4AAFF4;" d="M444.216,115.657c0,3.494-2.832,6.326-6.326,6.326c-3.494,0-6.326-2.832-6.326-6.326
				c0-3.494,2.832-6.326,6.326-6.326C441.384,109.331,444.216,112.163,444.216,115.657z"/>
			<path style="fill:#FFCE04;" d="M501.293,150.356c0,2.747-2.227,4.974-4.974,4.974c-2.747,0-4.974-2.227-4.974-4.974
				c0-2.747,2.227-4.974,4.974-4.974C499.066,145.382,501.293,147.609,501.293,150.356z"/>
			<polygon style="fill:#EF8637;" points="525.711,96.866 511.118,90.017 520.847,83.168 			"/>
			<path style="opacity:0.15;fill:#2F302E;" d="M486.444,163.913c-33.682,0-60.987-27.305-60.987-60.987
				c0-9.855,2.352-19.156,6.503-27.395c-7.898,10.282-12.605,23.144-12.605,37.112c0,33.682,27.305,60.987,60.987,60.987
				c23.827,0,44.448-13.672,54.484-33.591C523.677,154.55,506.158,163.913,486.444,163.913z"/>
		</g>
		<g>
			<path style="fill:#FFCE04;" d="M331.224,148.294L331.224,148.294L331.224,148.294c-0.001-0.001-4.748-4.353-5.935-9.893
				c-1.187,5.54-5.935,9.892-5.936,9.893h0h0h0h0c0.001,0,4.748,4.353,5.936,9.893C326.475,152.647,331.223,148.295,331.224,148.294
				L331.224,148.294L331.224,148.294z"/>
			<path style="fill:#FFCE04;" d="M338.849,161.026L338.849,161.026L338.849,161.026c0,0-3.05-2.796-3.813-6.355
				c-0.762,3.558-3.812,6.354-3.813,6.355l0,0l0,0l0,0l0,0c0.001,0,3.05,2.796,3.813,6.355
				C335.799,163.822,338.849,161.026,338.849,161.026L338.849,161.026L338.849,161.026z"/>
			<path style="fill:#FFCE04;" d="M543.99,178.623L543.99,178.623L543.99,178.623c0,0-3.05-2.796-3.813-6.355
				c-0.763,3.559-3.812,6.354-3.813,6.355l0,0l0,0v0l0,0c0,0,3.05,2.796,3.813,6.355C540.94,181.42,543.99,178.624,543.99,178.623
				L543.99,178.623L543.99,178.623z"/>
			<path style="fill:#FFCE04;" d="M552.694,163.205L552.694,163.205L552.694,163.205c0,0-2.64-2.42-3.3-5.5
				c-0.66,3.08-3.3,5.5-3.3,5.5l0,0l0,0l0,0l0,0c0,0,2.64,2.42,3.3,5.5C550.054,165.625,552.693,163.205,552.694,163.205
				L552.694,163.205L552.694,163.205z"/>
			<path style="fill:#FFCE04;" d="M623.251,148.896L623.251,148.896L623.251,148.896c0,0-2.64-2.42-3.3-5.5
				c-0.66,3.08-3.3,5.5-3.3,5.5l0,0l0,0l0,0l0,0c0,0,2.64,2.42,3.3,5.5C620.61,151.317,623.25,148.897,623.251,148.896
				L623.251,148.896L623.251,148.896z"/>
		</g>
	</g>
</g>
</svg>
