<?xml version="1.0" encoding="utf-8"?>
<!-- Generator: Adobe Illustrator 27.5.0, SVG Export Plug-In . SVG Version: 6.00 Build 0)  -->
<svg version="1.1" xmlns="http://www.w3.org/2000/svg" xmlns:xlink="http://www.w3.org/1999/xlink" x="0px" y="0px"
	 viewBox="0 0 500 500" style="enable-background:new 0 0 500 500;" xml:space="preserve">
<g id="File_00000067927759010913964870000011458683559435974815_">
	<g id="File">
		
			<path style="fill:#303030;stroke:#303030;stroke-width:1.5;stroke-linecap:round;stroke-linejoin:round;stroke-miterlimit:10;" d="
			M231.838,204.423l-1.286-8.399c-0.499-3.261-3.305-5.67-6.604-5.67h-92.942c-3.299,0-6.105,2.408-6.604,5.67l-1.286,8.399
			c-0.499,3.261-3.305,5.67-6.604,5.67l0,0c-3.69,0-6.681,2.991-6.681,6.681v190.852c0,3.69,2.991,6.681,6.681,6.681h268.241
			c3.69,0,6.681-2.991,6.681-6.681V216.774c0-3.69-2.991-6.681-6.681-6.681H238.442
			C235.143,210.093,232.337,207.685,231.838,204.423z"/>
		<g>
			
				<path style="fill:#FFFFFF;stroke:#303030;stroke-width:1.5;stroke-linecap:round;stroke-linejoin:round;stroke-miterlimit:10;" d="
				M444.292,388.222H254.333c-4.048,0-7.329-3.282-7.329-7.329V136.801c0-4.048,3.281-7.329,7.329-7.329h189.959
				c4.048,0,7.329,3.281,7.329,7.329v244.092C451.621,384.941,448.34,388.222,444.292,388.222z"/>
			<g>
				<path style="fill:#F55571;" d="M308.363,198.219h-41.54c-3.415,0-6.184-2.769-6.184-6.184v-41.54
					c0-3.415,2.768-6.183,6.184-6.183h41.54c3.415,0,6.183,2.768,6.183,6.183v41.54C314.546,195.45,311.778,198.219,308.363,198.219
					z"/>
				<g>
					<circle style="fill:#FFFFFF;" cx="287.593" cy="161.035" r="9.986"/>
					<path style="fill:#FFFFFF;" d="M306.516,191.482h-37.847l2.042-7.188c1.57-5.526,6.617-9.339,12.362-9.339h9.04
						c5.745,0,10.792,3.813,12.362,9.339L306.516,191.482z"/>
				</g>
			</g>
			<g>
				<path style="fill:#00826F;" d="M438.111,149.529h-108.72c-1.37,0-2.481-1.111-2.481-2.481v-0.256
					c0-1.37,1.111-2.481,2.481-2.481h108.72c1.37,0,2.481,1.111,2.481,2.481v0.256C440.592,148.419,439.481,149.529,438.111,149.529
					z"/>
				
					<line style="fill:none;stroke:#303030;stroke-width:1.5;stroke-linecap:round;stroke-linejoin:round;stroke-miterlimit:10;" x1="326.91" y1="159.267" x2="440.592" y2="159.267"/>
				
					<line style="fill:none;stroke:#303030;stroke-width:1.5;stroke-linecap:round;stroke-linejoin:round;stroke-miterlimit:10;" x1="326.91" y1="169.005" x2="440.592" y2="169.005"/>
				
					<line style="fill:none;stroke:#303030;stroke-width:1.5;stroke-linecap:round;stroke-linejoin:round;stroke-miterlimit:10;" x1="326.91" y1="178.743" x2="440.592" y2="178.743"/>
				
					<line style="fill:none;stroke:#303030;stroke-width:1.5;stroke-linecap:round;stroke-linejoin:round;stroke-miterlimit:10;" x1="326.91" y1="188.481" x2="440.592" y2="188.481"/>
				
					<line style="fill:none;stroke:#303030;stroke-width:1.5;stroke-linecap:round;stroke-linejoin:round;stroke-miterlimit:10;" x1="326.91" y1="198.219" x2="370.615" y2="198.219"/>
			</g>
			<g>
				
					<line style="fill:none;stroke:#303030;stroke-width:1.5;stroke-linecap:round;stroke-linejoin:round;stroke-miterlimit:10;" x1="260.639" y1="229.75" x2="440.592" y2="229.75"/>
				
					<line style="fill:none;stroke:#303030;stroke-width:1.5;stroke-linecap:round;stroke-linejoin:round;stroke-miterlimit:10;" x1="260.639" y1="239.488" x2="440.592" y2="239.488"/>
				
					<line style="fill:none;stroke:#303030;stroke-width:1.5;stroke-linecap:round;stroke-linejoin:round;stroke-miterlimit:10;" x1="260.639" y1="249.226" x2="404.491" y2="249.226"/>
				
					<line style="fill:none;stroke:#303030;stroke-width:1.5;stroke-linecap:round;stroke-linejoin:round;stroke-miterlimit:10;" x1="293.767" y1="268.702" x2="440.592" y2="268.702"/>
				
					<line style="fill:none;stroke:#303030;stroke-width:1.5;stroke-linecap:round;stroke-linejoin:round;stroke-miterlimit:10;" x1="293.767" y1="278.44" x2="440.592" y2="278.44"/>
				
					<line style="fill:none;stroke:#303030;stroke-width:1.5;stroke-linecap:round;stroke-linejoin:round;stroke-miterlimit:10;" x1="293.767" y1="288.177" x2="440.592" y2="288.177"/>
				
					<line style="fill:none;stroke:#303030;stroke-width:1.5;stroke-linecap:round;stroke-linejoin:round;stroke-miterlimit:10;" x1="293.767" y1="297.915" x2="440.592" y2="297.915"/>
				
					<line style="fill:none;stroke:#303030;stroke-width:1.5;stroke-linecap:round;stroke-linejoin:round;stroke-miterlimit:10;" x1="293.767" y1="307.653" x2="440.592" y2="307.653"/>
				
					<line style="fill:none;stroke:#303030;stroke-width:1.5;stroke-linecap:round;stroke-linejoin:round;stroke-miterlimit:10;" x1="293.767" y1="317.391" x2="440.592" y2="317.391"/>
				
					<line style="fill:none;stroke:#303030;stroke-width:1.5;stroke-linecap:round;stroke-linejoin:round;stroke-miterlimit:10;" x1="293.767" y1="327.129" x2="422.868" y2="327.129"/>
				
					<line style="fill:none;stroke:#303030;stroke-width:1.5;stroke-linecap:round;stroke-linejoin:round;stroke-miterlimit:10;" x1="260.639" y1="346.605" x2="440.592" y2="346.605"/>
				
					<line style="fill:none;stroke:#303030;stroke-width:1.5;stroke-linecap:round;stroke-linejoin:round;stroke-miterlimit:10;" x1="260.639" y1="356.342" x2="440.592" y2="356.342"/>
				
					<line style="fill:none;stroke:#303030;stroke-width:1.5;stroke-linecap:round;stroke-linejoin:round;stroke-miterlimit:10;" x1="260.639" y1="366.08" x2="440.592" y2="366.08"/>
				
					<line style="fill:none;stroke:#303030;stroke-width:1.5;stroke-linecap:round;stroke-linejoin:round;stroke-miterlimit:10;" x1="260.639" y1="375.818" x2="390.491" y2="375.818"/>
				
					<line style="fill:none;stroke:#303030;stroke-width:1.5;stroke-linecap:round;stroke-linejoin:round;stroke-miterlimit:10;" x1="260.639" y1="210.274" x2="440.592" y2="210.274"/>
				
					<line style="fill:none;stroke:#303030;stroke-width:1.5;stroke-linecap:round;stroke-linejoin:round;stroke-miterlimit:10;" x1="260.639" y1="220.012" x2="440.592" y2="220.012"/>
			</g>
			
				<rect x="260.639" y="268.702" style="fill:#00826F;stroke:#00826F;stroke-width:1.5;stroke-linecap:round;stroke-linejoin:round;stroke-miterlimit:10;" width="24.056" height="9.738"/>
			
				<rect x="260.639" y="288.177" style="fill:#00826F;stroke:#00826F;stroke-width:1.5;stroke-linecap:round;stroke-linejoin:round;stroke-miterlimit:10;" width="24.056" height="9.738"/>
			
				<rect x="260.639" y="307.653" style="fill:#00826F;stroke:#00826F;stroke-width:1.5;stroke-linecap:round;stroke-linejoin:round;stroke-miterlimit:10;" width="24.056" height="9.738"/>
		</g>
		
			<path style="fill:#00826F;stroke:#00826F;stroke-width:1.5;stroke-linecap:round;stroke-linejoin:round;stroke-miterlimit:10;" d="
			M138.937,227.505L138.937,227.505c-3.69,0-6.822,2.736-6.997,6.111l-9.015,174.626c-0.178,3.45-2.944,6.065-6.414,6.065l0,0
			l6.101,0h274.922c3.69,0,6.822-2.736,6.996-6.111l9.013-174.58c0.174-3.375-2.676-6.111-6.366-6.111
			C407.178,227.505,142.236,227.505,138.937,227.505z"/>
		<path id="HR" style="fill:#FFFFFF;" d="M350.382,260.417h-17.125l0.46-11.904c0.081-2.109-1.562-3.818-3.671-3.818l0,0
			c-2.109,0-3.884,1.709-3.965,3.818l-1.229,31.836c-0.082,2.109,1.562,3.818,3.671,3.818l0,0c2.109,0,3.884-1.709,3.965-3.818
			l0.509-13.195h17.125l-0.509,13.195c-0.082,2.109,1.562,3.818,3.67,3.818l0,0c2.109,0,3.884-1.709,3.965-3.818l1.229-31.836
			c0.081-2.109-1.562-3.818-3.671-3.818l0,0c-2.109,0-3.884,1.709-3.965,3.818L350.382,260.417z M383.444,267.508
			c1.659-0.203,3.185-0.619,4.558-1.28c1.982-0.954,3.541-2.282,4.673-3.986c1.132-1.703,1.744-3.714,1.834-6.036
			c0.087-2.245-0.371-4.23-1.371-5.951c-1-1.722-2.445-3.078-4.335-4.07c-1.889-0.992-4.107-1.488-6.651-1.488h-7.805h-2.022h-5.614
			l-1.384,35.859c-0.077,1.995,1.478,3.613,3.474,3.613h0.41c1.995,0,3.675-1.618,3.752-3.613l0.498-12.895l0,0
			c0.836,0,1.61,0.39,2.091,1.055l10.167,14.032c0.649,0.896,1.691,1.421,2.817,1.421l0,0c3.022,0,4.844-3.49,3.057-5.858
			L383.444,267.508z M373.69,261.708l0.416-10.78h7.131c1.871,0,3.301,0.515,4.292,1.544c0.989,1.03,1.455,2.311,1.396,3.846
			c-0.065,1.685-0.632,3.004-1.697,3.959c-1.067,0.954-2.536,1.432-4.407,1.432H373.69z"/>
	</g>
</g>
<g id="Ring_Binders_00000092428234909322167800000015121618295108423833_">
	<g id="Ring_Binders">
		<g>
			<rect x="407.803" y="343.175" style="fill:#303030;" width="21.722" height="112.998"/>
			<rect x="429.525" y="343.175" style="fill:#00826F;" width="34.997" height="112.998"/>
			
				<circle style="fill:#FFFFFF;stroke:#303030;stroke-width:1.5;stroke-linecap:round;stroke-linejoin:round;stroke-miterlimit:10;" cx="447.023" cy="364.681" r="10.129"/>
			<circle style="fill:#303030;" cx="447.023" cy="364.681" r="6.492"/>
			
				<path style="fill:#FFFFFF;stroke:#303030;stroke-width:1.5;stroke-linecap:round;stroke-linejoin:round;stroke-miterlimit:10;" d="
				M453.766,442.592H440.28c-1.87,0-3.386-1.516-3.386-3.386v-52.019c0-1.87,1.516-3.386,3.386-3.386h13.486
				c1.87,0,3.386,1.516,3.386,3.386v52.019C457.152,441.076,455.636,442.592,453.766,442.592z"/>
			<g>
				
					<line style="fill:none;stroke:#303030;stroke-width:1.5;stroke-linecap:round;stroke-linejoin:round;stroke-miterlimit:10;" x1="440.531" y1="401.321" x2="453.515" y2="401.321"/>
				
					<line style="fill:none;stroke:#303030;stroke-width:1.5;stroke-linecap:round;stroke-linejoin:round;stroke-miterlimit:10;" x1="440.531" y1="409.238" x2="453.515" y2="409.238"/>
				
					<line style="fill:none;stroke:#303030;stroke-width:1.5;stroke-linecap:round;stroke-linejoin:round;stroke-miterlimit:10;" x1="440.531" y1="417.155" x2="453.515" y2="417.155"/>
				
					<line style="fill:none;stroke:#303030;stroke-width:1.5;stroke-linecap:round;stroke-linejoin:round;stroke-miterlimit:10;" x1="440.531" y1="425.073" x2="453.515" y2="425.073"/>
			</g>
		</g>
		<g>
			<rect x="370.773" y="343.175" style="fill:#303030;" width="21.722" height="112.998"/>
			<rect x="392.495" y="343.175" style="fill:#FF95FB;" width="34.997" height="112.998"/>
			
				<circle style="fill:#FFFFFF;stroke:#303030;stroke-width:1.5;stroke-linecap:round;stroke-linejoin:round;stroke-miterlimit:10;" cx="409.993" cy="364.681" r="10.129"/>
			<circle style="fill:#303030;" cx="409.993" cy="364.681" r="6.492"/>
			
				<path style="fill:#FFFFFF;stroke:#303030;stroke-width:1.5;stroke-linecap:round;stroke-linejoin:round;stroke-miterlimit:10;" d="
				M416.736,442.592H403.25c-1.87,0-3.386-1.516-3.386-3.386v-52.019c0-1.87,1.516-3.386,3.386-3.386h13.486
				c1.87,0,3.386,1.516,3.386,3.386v52.019C420.122,441.076,418.607,442.592,416.736,442.592z"/>
			<g>
				
					<line style="fill:none;stroke:#303030;stroke-width:1.5;stroke-linecap:round;stroke-linejoin:round;stroke-miterlimit:10;" x1="403.501" y1="401.321" x2="416.485" y2="401.321"/>
				
					<line style="fill:none;stroke:#303030;stroke-width:1.5;stroke-linecap:round;stroke-linejoin:round;stroke-miterlimit:10;" x1="403.501" y1="409.238" x2="416.485" y2="409.238"/>
				
					<line style="fill:none;stroke:#303030;stroke-width:1.5;stroke-linecap:round;stroke-linejoin:round;stroke-miterlimit:10;" x1="403.501" y1="417.155" x2="416.485" y2="417.155"/>
				
					<line style="fill:none;stroke:#303030;stroke-width:1.5;stroke-linecap:round;stroke-linejoin:round;stroke-miterlimit:10;" x1="403.501" y1="425.073" x2="416.485" y2="425.073"/>
			</g>
		</g>
		<g>
			<rect x="333.743" y="343.175" style="fill:#303030;" width="21.722" height="112.998"/>
			<rect x="355.465" y="343.175" style="fill:#F55571;" width="34.997" height="112.998"/>
			
				<circle style="fill:#FFFFFF;stroke:#303030;stroke-width:1.5;stroke-linecap:round;stroke-linejoin:round;stroke-miterlimit:10;" cx="372.963" cy="364.681" r="10.129"/>
			<circle style="fill:#303030;" cx="372.963" cy="364.681" r="6.492"/>
			
				<path style="fill:#FFFFFF;stroke:#303030;stroke-width:1.5;stroke-linecap:round;stroke-linejoin:round;stroke-miterlimit:10;" d="
				M379.707,442.592H366.22c-1.87,0-3.386-1.516-3.386-3.386v-52.019c0-1.87,1.516-3.386,3.386-3.386h13.486
				c1.87,0,3.386,1.516,3.386,3.386v52.019C383.092,441.076,381.577,442.592,379.707,442.592z"/>
			<g>
				
					<line style="fill:none;stroke:#303030;stroke-width:1.5;stroke-linecap:round;stroke-linejoin:round;stroke-miterlimit:10;" x1="366.471" y1="401.321" x2="379.455" y2="401.321"/>
				
					<line style="fill:none;stroke:#303030;stroke-width:1.5;stroke-linecap:round;stroke-linejoin:round;stroke-miterlimit:10;" x1="366.471" y1="409.238" x2="379.455" y2="409.238"/>
				
					<line style="fill:none;stroke:#303030;stroke-width:1.5;stroke-linecap:round;stroke-linejoin:round;stroke-miterlimit:10;" x1="366.471" y1="417.155" x2="379.455" y2="417.155"/>
				
					<line style="fill:none;stroke:#303030;stroke-width:1.5;stroke-linecap:round;stroke-linejoin:round;stroke-miterlimit:10;" x1="366.471" y1="425.073" x2="379.455" y2="425.073"/>
			</g>
		</g>
	</g>
</g>
<g id="User_icons">
	<g id="Icons_00000044892299692528464960000010861451439410988196_">
		<g>
			
				<ellipse transform="matrix(0.2298 -0.9732 0.9732 0.2298 159.2066 345.3491)" style="fill:#00826F;" cx="297.787" cy="72.091" rx="10.851" ry="10.851"/>
			<path style="fill:#00826F;" d="M314.913,105.176h-34.252c-1.723,0-2.969-1.648-2.498-3.306l1.28-4.504
				c1.706-6.005,7.19-10.148,13.432-10.148h9.823c6.242,0,11.727,4.143,13.432,10.148l1.28,4.504
				C317.882,103.528,316.636,105.176,314.913,105.176z"/>
		</g>
		<g>
			
				<ellipse transform="matrix(0.2298 -0.9732 0.9732 0.2298 199.8976 396.7645)" style="fill:#FF95FB;" cx="350.616" cy="72.091" rx="10.851" ry="10.851"/>
			<path style="fill:#FF95FB;" d="M367.742,105.176H333.49c-1.723,0-2.969-1.648-2.498-3.306l1.279-4.504
				c1.706-6.005,7.19-10.148,13.433-10.148h9.823c6.243,0,11.727,4.143,13.433,10.148l1.279,4.504
				C370.71,103.528,369.465,105.176,367.742,105.176z"/>
		</g>
		<g>
			
				<ellipse transform="matrix(0.7071 -0.7071 0.7071 0.7071 67.1898 306.3934)" style="fill:#F55571;" cx="403.444" cy="72.091" rx="10.851" ry="10.851"/>
			<path style="fill:#F55571;" d="M420.57,105.176h-34.252c-1.723,0-2.969-1.648-2.498-3.306l1.28-4.504
				c1.706-6.005,7.19-10.148,13.433-10.148h9.823c6.242,0,11.727,4.143,13.432,10.148l1.28,4.504
				C423.539,103.528,422.294,105.176,420.57,105.176z"/>
		</g>
	</g>
</g>
<g id="Speech_Bubble">
	<g id="Speech_Bubble_00000051384466043542648140000009538247561551118992_">
		
			<path style="fill:#FFFFFF;stroke:#303030;stroke-width:1.5;stroke-linecap:round;stroke-linejoin:round;stroke-miterlimit:10;" d="
			M163.792,28.862c-15.223,0-27.564,11.068-27.564,24.722c0,9.845,6.417,18.344,15.704,22.321l-0.002-0.001
			c0.525,3.058-2.492,6.698-4.583,8.097c-1.063,0.712,0.565,1.615,4.522,0.315c3.6-1.182,6.448-3.124,8.76-6.173l-0.031-0.008
			c1.048,0.109,2.113,0.17,3.194,0.17c15.223,0,27.565-11.068,27.565-24.722S179.015,28.862,163.792,28.862z"/>
		<path style="fill:#FF95FB;" d="M160.285,65.037c-0.897,0-1.763-0.345-2.415-0.967l-7.436-7.088
			c-1.399-1.334-1.452-3.549-0.118-4.948c1.332-1.399,3.548-1.454,4.948-0.118l4.787,4.563l12.046-13.812
			c1.271-1.456,3.482-1.608,4.939-0.337c1.456,1.271,1.607,3.481,0.337,4.938l-14.45,16.568c-0.628,0.72-1.522,1.151-2.476,1.195
			C160.392,65.036,160.338,65.037,160.285,65.037z"/>
	</g>
</g>
<g id="Character">
	<g id="Character_00000072970266918453384040000010492534929659865489_">
		<g id="Legs_00000050634185950226984760000011605048110025139596_">
			<g id="Leg_00000147204521034416423310000016469325560031153029_">
				<path style="fill:#FFC4B0;" d="M144.231,302.331c1.807-21.054,7.741-78.617-7.525-111.977H82.582
					c-6.232,11.659-13.555,37.183,9.073,56.86c0,0,12.327,46.999,12.528,60.439c-3.622,23.16-3.765,38.985-2.066,53.835
					c1.855,16.224,4.613,25.963,1.575,38.186c-2.352,9.465-7.323,15.742-3.536,25.179c1.409,3.511,8.649,4.117,13.273,4.117
					c7.012,0,11.184,1.835,16.857,11.504c1.76,3,3.224,6.129,6.104,8.078c1.948,1.318,6.789,1.357,9.132,1.559
					c3.878,0.336,15.799,0.114,24.571,0.114c2.275,0,1.435-4.306-0.382-5.675s-8.411-6.122-10.025-7.209
					c-6.667-4.491-7.107-5.844-11.652-11.361c-3.152-3.826-8.602-11.391-12.677-21.835c-1.745-4.472-3.979-9.497-2.942-16.695
					C136.48,359.219,142.116,326.973,144.231,302.331z"/>
				<g>
					<path style="fill:#F55571;" d="M166.043,445.815h-14.57c-9.271,0-16.958-0.678-20.35-3.103
						c-3.392-2.424-9.045-12.725-13.115-15.905c-1.145-0.894-2.967-1.515-5.109-1.955v6.298c4.516,1.061,10.786,13.56,14.379,17.469
						c3.617,3.936,16.054,4.138,24.647,4.138h14.314c1.979,0,3.572-1.656,3.467-3.658
						C169.608,447.223,167.923,445.815,166.043,445.815z"/>
					<path style="fill:#303030;" d="M165.425,440.139c-1.915-1.056-7.083-4.283-11.442-7.179c0.132,3.25-8.612,3.032-15.866-1.706
						c-8.221-5.369-11.832-11.001-16.962-17.468c-5.869-7.397-7.184-11.434-18.535-14.112c-0.205,6.475-6.133,13.411-4.114,24.91
						c0,0,6.42,2.344,11.8,3.302c5.379,0.958,9.032,2.004,11.855,5.537c2.405,3.01,7.173,9.209,12.797,13.452
						c2.607,1.967,5.954,1.807,13.531,2.008c11.925,0.316,24.14,0.217,24.14,0.217C172.629,445.362,172.402,443.986,165.425,440.139
						z"/>
					<path style="fill:#303030;" d="M168.965,445.815h-14.57c-9.271,0-16.958-0.678-20.35-3.103
						c-3.392-2.424-9.044-12.725-13.115-15.905c-4.07-3.18-16.552-2.989-22.5-2.989c0,1.065,0.645,2.839,1.055,4.016
						c0.984,2.82,4.535,6.896,4.535,24.924h7.24c0-9.817-0.522-21.997,4.47-21.633c4.522,0.912,10.854,13.559,14.471,17.495
						c3.617,3.936,16.054,4.138,24.647,4.138h14.314c1.979,0,3.572-1.656,3.467-3.658
						C172.53,447.223,170.845,445.815,168.965,445.815z"/>
				</g>
			</g>
			<g id="Leg_00000029026332024795912990000010445744888487171469_">
				<path style="fill:#FFC4B0;" d="M135.828,190.354H82.582c-24.365,33.237-19.164,57.687-20.345,92.633
					c-0.589,17.441-2.33,29.281-6.961,44.805c-6.532,21.897-7.792,27.626-8.786,49.35c-0.32,7.004-0.224,12.798-0.21,18.667
					c-2.618,8.11-11.861,12.714-11.163,21.168c0.419,5.067,6.93,7.179,9.54,12.056c3.189,5.957,1.167,19.418,4.891,24.048
					c3.463,4.306,23.665,9.372,28.428,9.372c5.108,0,0.467-5.027-3.159-12.258c-1.689-3.368-3.104-10.21-3.308-11.817
					c-0.812-6.38-1.085-8.718-1.419-13.983c-0.335-5.265-0.539-15.009,2.64-25.866c5.508-18.815,17.13-49.237,22.652-63.364
					c11.934-30.529,19.451-76.626,19.451-76.626S137.578,216.811,135.828,190.354z"/>
				<g>
					<path style="fill:#F55571;" d="M35.118,416.977c-1.013,5.053,2.399,8.3,0.796,16.297c-0.935,4.664-3.192,15.923-3.192,15.923
						l6.478,1.299c2.698-13.461,4.097-21.112,7.855-20.359C47.055,430.136,41.013,413.05,35.118,416.977z"/>
					<path style="fill:#303030;" d="M33.622,416.677c-1.013,5.053,2.399,8.3,0.796,16.297c-0.935,4.664-3.192,15.923-3.192,15.923
						l6.478,1.299c2.698-13.461,4.097-21.112,7.855-20.359C45.559,429.836,39.517,412.751,33.622,416.677z"/>
					<path style="fill:#303030;" d="M46.281,395.809c-0.596,5.665-0.701,9.526,1.373,19.253c2.074,9.727,4.1,17.901,6.693,25.092
						c1.748,4.846,7.007,5.278,11.619,5.526c4.612,0.248,6.452-0.054,5.544-7.303c1.327,6.711,4.509,11.192,6.378,14.017
						c1.062,1.605,3.095,4.432,3.902,7.01c0.456,1.457,0.302,3.41-0.4,5.267c-0.532,1.407-1.932,2.286-3.436,2.242
						c-4.027-0.117-11.761-1.442-17.258-3.171c-11.688-3.676-15.012-8.769-15.611-15.445c-0.599-6.677,0.498-15.784-3.758-22.059
						c-4.256-6.275-7.309-3.104-7.679-9.434C35.206,405.25,43.726,401.694,46.281,395.809z"/>
				</g>
			</g>
			<g id="Skirt">
				
					<path style="fill:#FFFFFF;stroke:#303030;stroke-width:1.5;stroke-linecap:round;stroke-linejoin:round;stroke-miterlimit:10;" d="
					M138.456,190.619l-58.854,0.611c-12.799,14.681-19.658,29.89-22.519,55.983c-2.488,22.696-0.971,22.003-3.261,49.662
					c-1.967,23.755-8.264,43.134-8.264,43.134s13.695,16.64,52.528,16.332c38.834-0.307,50.11-7.654,50.11-7.654s0-52.132,0-76.116
					S152.88,222.831,138.456,190.619z"/>
				<g>
					
						<path style="fill:none;stroke:#303030;stroke-width:1.5;stroke-linecap:round;stroke-linejoin:round;stroke-miterlimit:10;" d="
						M138.066,318.112c0.267,11.457,0.267,23.457-0.346,34.285"/>
					
						<path style="fill:none;stroke:#303030;stroke-width:1.5;stroke-linecap:round;stroke-linejoin:round;stroke-miterlimit:10;" d="
						M63.423,314.698c-1.392,11.134-3.227,22.498-7.299,33.009"/>
					
						<path style="fill:none;stroke:#303030;stroke-width:1.5;stroke-linecap:round;stroke-linejoin:round;stroke-miterlimit:10;" d="
						M74.384,317.668c-1.172,11.423-2.116,24.177-7.055,34.729"/>
					
						<path style="fill:none;stroke:#303030;stroke-width:1.5;stroke-linecap:round;stroke-linejoin:round;stroke-miterlimit:10;" d="
						M86.486,319.191c-0.91,11.904-1.188,24.662-4.437,36.229"/>
					
						<path style="fill:none;stroke:#303030;stroke-width:1.5;stroke-linecap:round;stroke-linejoin:round;stroke-miterlimit:10;" d="
						M98.893,319.88c-1.56,11.688-0.56,24.688-4.102,36.389"/>
					
						<path style="fill:none;stroke:#303030;stroke-width:1.5;stroke-linecap:round;stroke-linejoin:round;stroke-miterlimit:10;" d="
						M112.303,319.283c0.03,12.286-0.97,25.286-3.771,36.789"/>
					
						<path style="fill:none;stroke:#303030;stroke-width:1.5;stroke-linecap:round;stroke-linejoin:round;stroke-miterlimit:10;" d="
						M125.393,319.28c-0.345,11.83-0.458,23.735-1.399,35.537"/>
				</g>
				
					<path style="fill:#FFFFFF;stroke:#303030;stroke-width:1.5;stroke-linecap:round;stroke-linejoin:round;stroke-miterlimit:10;" d="
					M79.14,182.064l0.463,9.167c0,0,9.876,6.104,34.057,4.828c22.134-1.169,24.797-5.439,24.797-5.439v-8.555H79.14z"/>
			</g>
		</g>
		<g id="Arm_00000018196275059153501170000008853214026269697933_">
			<g id="Arm_00000085236988337482464790000011708221374914155186_">
				<path style="fill:#FFC4B0;" d="M207.661,136.985c-0.424-0.807-1.296-1.387-2.204-1.312c0.986-0.604,1.387-2.003,0.87-3.037
					c-0.517-1.035-1.877-1.553-2.952-1.127c0.653-0.476,1.654-2.234,0.396-3.949c-1.184-1.614-3.337-0.175-3.393-0.246
					c0,0,2.614-4.084,3.156-4.905c1.03-1.56,1.434-2.277,1.728-3.451c0.34-1.353-0.814-2.438-2.148-1.824
					c-1.424,0.656-2.208,1.938-3.466,3.527c-1.539,1.945-4.025,5.475-5.928,7.743c-1.042,1.242-1.383,1.826-1.707,1.725
					c-0.684-0.212-0.329-2.015-0.135-2.759c0.295-1.135,0.677-2.287,0.553-3.476c-0.089-0.849-0.924-1.936-1.895-1.65
					c-0.232,0.069-0.426,0.23-0.592,0.406c-0.828,0.878-1.26,2.425-1.755,3.522c-0.592,1.313-1.132,2.648-1.62,4.003
					c-0.674,1.87-1.31,3.721-2.246,5.668c-0.936,1.947-2.964,3.854-4.25,4.776c-5.442,3.9-9.955,6.223-15.869,9.314
					c-6.114-7.412-10.95-13.727-15.036-18.855c-4.082-5.123-6.11-6.771-8.742-7.683c-2.757-0.955-4.301-1.397-7.78-2.018
					c-3.868,5.874-2.313,18.541,6.727,32.212c2.684,4.058,8.052,10.563,11.099,13.743c3.047,3.181,8.115,9.782,17.894,3.211
					c11.009-7.397,17.885-16.106,21.22-18.69c3.336-2.584,7.293-4.652,11.008-6.996c1.57-0.99,3.05-2.122,4.549-3.214
					c1.272-0.926,2.992-2.053,2.771-3.862C207.88,137.503,207.792,137.233,207.661,136.985z"/>
				<path style="fill:none;stroke:#303030;stroke-width:1.5;stroke-linecap:round;stroke-linejoin:round;stroke-miterlimit:10;" d="
					M195.13,133.902c0.343,3.926-2.162,6.598-4.273,8.53"/>
				<g>
					
						<path style="fill:none;stroke:#303030;stroke-width:1.5;stroke-linecap:round;stroke-linejoin:round;stroke-miterlimit:10;" d="
						M202.515,131.964c-1.212,0.864-2.498,1.624-3.839,2.271c-1.371,0.662-2.531,1.082-3.227,0.24s-0.514-2.081,0.234-2.968
						c1.082-1.284,2.978-2.94,4.695-4.194"/>
					
						<path style="fill:none;stroke:#303030;stroke-width:1.5;stroke-linecap:round;stroke-linejoin:round;stroke-miterlimit:10;" d="
						M204.589,136.631c-1.212,0.864-2.498,1.624-3.839,2.271c-1.371,0.662-2.531,1.082-3.227,0.241
						c-0.696-0.841-0.514-2.081,0.234-2.969c1.082-1.284,2.978-2.939,4.695-4.194"/>
					
						<path style="fill:none;stroke:#303030;stroke-width:1.5;stroke-linecap:round;stroke-linejoin:round;stroke-miterlimit:10;" d="
						M202.887,143.553c-1.371,0.662-2.531,1.082-3.227,0.24s-0.514-2.081,0.234-2.968c1.082-1.284,2.978-2.94,4.695-4.194"/>
				</g>
				<g>
					<path style="fill:#303030;" d="M191.488,150.492c-0.561,0.369-1.09,0.745-1.605,1.147c-0.174,2.71-1.37,4.888-3.358,5.579
						c-0.864,0.306-1.792,0.29-2.711,0.012c-2.373-0.706-4.699-3.189-5.885-6.579c-0.808-2.323-0.952-4.716-0.409-6.733
						c0.239-0.896,0.608-1.651,1.074-2.262c0.535-0.715,1.206-1.221,1.984-1.493c0.047-0.011,0.083-0.024,0.129-0.035
						c0.586-0.472,1.235-1.072,1.848-1.745c-0.864-0.1-1.709-0.008-2.51,0.269c-1.908,0.678-3.338,2.327-4.019,4.685
						c-0.023,0.049-0.038,0.111-0.051,0.163c-0.629,2.326-0.477,5.049,0.441,7.684c1.227,3.488,3.581,6.131,6.138,7.255
						c0.397,0.173,0.811,0.317,1.215,0.415c1.108,0.268,2.222,0.242,3.29-0.135C189.959,157.71,191.599,154.379,191.488,150.492z"/>
				</g>
				<path style="fill:none;stroke:#303030;stroke-width:1.5;stroke-linecap:round;stroke-linejoin:round;stroke-miterlimit:10;" d="
					M164.194,149.938c-2.633,1.776-4.798,4.508-6.16,7.057"/>
			</g>
			<g>
				<path style="fill:#00826F;" d="M145.999,164.174c3.956-7.602,9.081-14.973,16.275-17.416c0,0-11.613-16.512-15.704-20.465
					c-4.951-4.785-6.523-4.987-14.967-6.806c-0.013-0.003,0.006-0.012,0,0c-4.846,9.413-0.336,26.066,1.323,29.276L145.999,164.174z
					"/>
			</g>
		</g>
		<g id="Head_00000169523258286548971270000011038531833531726771_">
			<path style="fill:#303030;" d="M131.266,94.953c-2.199-10.379-7.839-20.073-7.839-20.074c3.238-8.589-8.399-14.421-19.67-13.49
				c-7.049,0.582-13.879,4.958-17.395,9.299l-0.033,0.01c-3.294,0.35-8.205,5.79-7.003,15.153c1.203,9.363,0.511,13.509,1.148,19.88
				c0.675,6.754-0.128,9.88-0.128,9.88c22.691,4.48,37.187,0.947,44.365-1.933c0.831-3.414,1.696-6.088,1.302-12.92
				c1.787,2.729,2.974,7.445,3.101,10.861C129.114,111.618,133.382,104.944,131.266,94.953z"/>
			<path style="fill:#FFC4B0;" d="M91.552,70.667c1.547,7.336-4.388,16.761-4.388,16.761c0.959,1.836,1.69,3.781,2.173,5.781
				c-1.576-2.067-3.945-3.717-6.614-3.921c-2.669-0.203-5.543,1.348-6.221,3.823c-0.671,2.446,0.976,5.105,3.336,6.248
				c2.361,1.144,5.594,1.213,8.507-0.285l0.004-0.002c1.099,2.436,3.426,4.868,6.747,6.468l-0.52,11.05l-3.154,0.802l22.94,12.574
				l0.246-12.112l-3.725-0.956l-1.01-8.911c4.472-0.465,17.465-4.567,15.229-21.584c-0.449-3.417-1.591-6.55-3.183-9.251l-0.001,0
				C118.048,71.626,112.478,65.469,91.552,70.667z"/>
			<g>
				<path style="fill:none;stroke:#303030;stroke-width:1.5;stroke-linecap:round;stroke-linejoin:round;stroke-miterlimit:10;" d="
					M79.758,93.334c0.623-0.415,2.136-0.711,3.647-0.27c1.51,0.441,2.744,1.66,3.156,3.116"/>
				<path style="fill:none;stroke:#303030;stroke-width:1.5;stroke-linecap:round;stroke-linejoin:round;stroke-miterlimit:10;" d="
					M82.315,95.04c0.459-0.303,2.066-1.064,3.596-0.193"/>
			</g>
			<g>
				<path style="fill:#303030;" d="M100.495,107.134c0,0,3.544,1.448,9.381,0.852l0.282,2.493
					C110.158,110.479,104.494,110.834,100.495,107.134z"/>
				<path style="fill:none;stroke:#303030;stroke-width:1.5;stroke-linecap:round;stroke-linejoin:round;stroke-miterlimit:10;" d="
					M106.095,79.203c0.112,1.937,0.625,4.286,2.872,7.882c0.261,0.418,0.543,0.838,0.65,1.319c0.16,0.721-0.104,1.485-0.544,2.078
					c-0.44,0.593-1.04,1.044-1.639,1.476"/>
				<g>
					<g>
						<path style="fill:#FFFFFF;" d="M119.36,84.393c-0.643-1.563-2.306-2.648-4.059-2.647c-1.753,0.001-4.189,1.022-4.451,3.494
							C111.694,87.639,117.277,87.931,119.36,84.393z"/>
						<path style="fill:#303030;" d="M117.237,85.705c-0.503,1.2-1.932,1.753-3.191,1.235c-1.259-0.518-1.872-1.91-1.369-3.11
							c0.503-1.2,1.931-1.753,3.191-1.235C117.127,83.113,117.74,84.505,117.237,85.705z"/>
						<polygon style="fill:#FFFFFF;" points="112.503,83.773 114.957,84.768 112.247,85.106 						"/>
						
							<path style="fill:none;stroke:#303030;stroke-width:1.5;stroke-linecap:round;stroke-linejoin:round;stroke-miterlimit:10;" d="
							M110.851,85.24c0.987-2.116,2.611-2.727,4.153-2.983c1.691-0.28,2.981,0.099,4.385,1.541"/>
					</g>
					
						<path style="fill:none;stroke:#303030;stroke-width:1.5;stroke-linecap:round;stroke-linejoin:round;stroke-miterlimit:10;" d="
						M120.984,82.654c-0.268,0.627-0.913,1.075-1.594,1.108"/>
					
						<path style="fill:none;stroke:#303030;stroke-width:1.5;stroke-linecap:round;stroke-linejoin:round;stroke-miterlimit:10;" d="
						M112.428,76.795c2.328-1.036,4.843-0.961,7.003-0.011"/>
				</g>
				<g>
					<g>
						<path style="fill:#FFFFFF;" d="M94.336,86.109c0.438-1.633,1.948-2.921,3.686-3.145c1.738-0.224,4.285,0.478,4.861,2.896
							C102.355,88.348,96.855,89.352,94.336,86.109z"/>
						<path style="fill:#303030;" d="M100.588,86.43c-0.278,1.271-1.584,2.072-2.916,1.79c-1.332-0.282-2.186-1.542-1.908-2.812
							c0.278-1.271,1.584-2.072,2.916-1.79C100.012,83.9,100.866,85.159,100.588,86.43z"/>
						<polygon style="fill:#FFFFFF;" points="95.583,85.383 98.176,85.919 95.572,86.74 						"/>
						
							<path style="fill:none;stroke:#303030;stroke-width:1.5;stroke-linecap:round;stroke-linejoin:round;stroke-miterlimit:10;" d="
							M102.884,85.86c-1.249-1.972-2.938-2.371-4.5-2.427c-1.713-0.061-2.944,0.479-4.151,2.089"/>
					</g>
					
						<path style="fill:none;stroke:#303030;stroke-width:1.5;stroke-linecap:round;stroke-linejoin:round;stroke-miterlimit:10;" d="
						M92.503,84.593c0.346,0.588,1.043,0.949,1.723,0.894"/>
					
						<path style="fill:none;stroke:#303030;stroke-width:1.5;stroke-linecap:round;stroke-linejoin:round;stroke-miterlimit:10;" d="
						M100.738,77.295c-3.082-0.28-5.593,0.135-7.464,1.709"/>
				</g>
				<g>
					<path style="fill:#303030;" d="M105.747,95.868c1.386-0.006,3.085,0.166,3.651,1.342c0.604-1.495,1.667-1.985,1.667-1.985
						s-1.359-0.646-2.775-0.41C106.875,95.051,105.747,95.868,105.747,95.868z"/>
					<path style="fill:#FFFFFF;" d="M103.492,96.658c0.48,0.633,2.354,2.102,5.133,1.519c0.603-0.146,0.604-0.53,0.774-0.967
						c-0.136-0.573-1.157-1.608-3.651-1.342C105.119,96.338,104.161,96.59,103.492,96.658z"/>
					
						<path style="fill:none;stroke:#303030;stroke-width:1.5;stroke-linecap:round;stroke-linejoin:round;stroke-miterlimit:10;" d="
						M112.409,95.188c-1.377,0.146-2.746-0.556-4.118-0.374c-1.07,0.142-1.988,0.799-2.962,1.265
						c-0.973,0.466-2.198,0.727-3.084,0.11"/>
					
						<path style="fill:none;stroke:#303030;stroke-width:1.5;stroke-linecap:round;stroke-linejoin:round;stroke-miterlimit:10;" d="
						M111.193,95.255c-0.877,0.543-1.567,1.246-1.897,2.223c-0.053,0.158-0.127,0.538-0.672,0.698c-1,0.294-3.825,0.205-5.193-1.595
						"/>
				</g>
			</g>
			<path style="fill:#F55571;" d="M90.254,99.803c0.08,1.381-0.975,2.564-2.355,2.644c-1.381,0.08-2.564-0.975-2.644-2.355
				c-0.08-1.381,0.975-2.564,2.355-2.644C88.991,97.368,90.175,98.422,90.254,99.803z"/>
		</g>
		<g id="Chest_00000072981710376492998930000000191108434531914889_">
			<path id="Chest_00000023245316927167740620000011777624045523818648_" style="fill:#00826F;" d="M131.603,119.487l-14.24-3.209
				c-2.211-4.486-4.446-4.944-7.133-5.131l0.652,5.751c1.679,4.809-0.639,10.454-0.639,10.454S98.149,120.1,94.574,116.59
				l0.213-4.522c0,0-4.867-0.517-6.417,6.333l-13.412,5.402c0,0-4.386,13.203-2.633,29.451c1.099,10.193,1.222,21.383,1.677,27.892
				c0.312,4.467,5.351,6.045,9.716,7.041c5.98,1.364,16.741,3.175,30.349,2.39c11.844-0.684,19.836-2.231,24.108-4.217
				c3.723-1.73,3.797-4.706,4.149-11.398c0.541-10.281,0.651-16.053,0.178-21.627C141.239,138.461,131.603,119.487,131.603,119.487z
				"/>
			<path style="fill:none;stroke:#303030;stroke-width:1.5;stroke-linecap:round;stroke-linejoin:round;stroke-miterlimit:10;" d="
				M112.445,133.327c3.672,11.827,8.339,25.215,7.873,55.821"/>
			<path style="fill:none;stroke:#FFFFFF;stroke-width:1.5;stroke-linecap:round;stroke-linejoin:round;stroke-miterlimit:10;" d="
				M100.992,131.755c6.587,3.536,14.875,1.329,17.842-2.586"/>
			<path style="fill:none;stroke:#303030;stroke-width:1.5;stroke-linecap:round;stroke-linejoin:round;stroke-miterlimit:10;" d="
				M106.732,129.152l-3.886-2.744l-4.809,8.997c0,0-9.215-6.452-9.118-15.841"/>
			<path style="fill:none;stroke:#303030;stroke-width:1.5;stroke-linecap:round;stroke-linejoin:round;stroke-miterlimit:10;" d="
				M112.913,128.732l1.802-3.722c0,0,3.407,2.983,6.725,7.287c1.495-6.391-3.487-14.82-3.487-14.82"/>
			<g id="Arm_00000085951607158127837730000001878448696929585301_">
				<path style="fill:none;stroke:#303030;stroke-width:1.5;stroke-linecap:round;stroke-linejoin:round;stroke-miterlimit:10;" d="
					M135.828,134.021c3.325,5.591,7.602,11.133,6.496,30.663"/>
			</g>
		</g>
		<g id="Arm_00000113325127783630003380000001593485042571939736_">
			<path style="fill:#D48983;" d="M114.854,166.692c2.259-0.249,3.657-0.515,5.354-2.38c1.697-1.865,6.894-3.72,9.805-4.351
				c2.911-0.631,4.558-1.164,4.995-2.568c0.316-1.017-0.346-2.209-2.328-2.542c-1.982-0.333-19.043,2.474-19.043,2.474
				L114.854,166.692z"/>
			<g id="Pen_00000110462719342297001290000009862290358649771450_">
				
					<path style="fill:#303030;stroke:#303030;stroke-width:1.5;stroke-linecap:round;stroke-linejoin:round;stroke-miterlimit:10;" d="
					M141.669,143.421c-0.52-1.503-1.556-2.182-3.03-2.162c-0.389,0.006-0.75,0.21-0.98,0.525l-0.641,0.879l3.838,2.832l0.643-0.881
					C141.75,144.269,141.808,143.823,141.669,143.421z"/>
				
					<path style="fill:#303030;stroke:#303030;stroke-width:1.5;stroke-linecap:round;stroke-linejoin:round;stroke-miterlimit:10;" d="
					M120.963,172.357c-1.693-0.106-2.848-0.949-3.465-2.528c-0.066-0.168-0.035-0.36,0.071-0.505l19.447-26.66
					c0.23-0.315,0.59-0.519,0.979-0.524c1.474-0.021,2.51,0.659,3.03,2.162c0.139,0.403,0.082,0.849-0.17,1.193l-19.434,26.641
					C121.316,172.281,121.143,172.368,120.963,172.357z"/>
				
					<path style="fill:#FF95FB;stroke:#303030;stroke-width:1.5;stroke-linecap:round;stroke-linejoin:round;stroke-miterlimit:10;" d="
					M162.16,113.598c-0.67-0.444-3.284-2.177-3.96-2.625c-1.949-1.292-4.108-2.054-6.332-2.324
					c-6.204-0.755-12.908,2.315-16.928,8.38c-5.462,8.239-3.903,18.887,3.481,23.782c0.67,0.444,3.284,2.177,3.96,2.625
					c1.949,1.292,4.108,2.054,6.332,2.324c6.203,0.755,12.908-2.315,16.928-8.38C171.104,129.141,169.545,118.493,162.16,113.598z
					 M142.562,139.309c-4.448-4.328-5.021-11.906-1.037-17.916c3.18-4.797,8.581-7.49,13.76-6.86l0,0
					c1.096,0.133,2.144,0.414,3.134,0.831c4.448,4.328,5.021,11.906,1.037,17.916c-3.18,4.798-8.581,7.491-13.759,6.861
					C144.601,140.007,143.553,139.727,142.562,139.309z"/>
				<path style="fill:none;stroke:#303030;stroke-width:1.5;stroke-linecap:round;stroke-linejoin:round;stroke-miterlimit:10;" d="
					M158.42,115.364c0.87,0.562,1.115,0.822,1.663,1.345c4.448,4.328,5.021,11.906,1.037,17.916
					c-3.18,4.798-8.581,7.491-13.759,6.86c-1.097-0.133-2.145-0.414-3.135-0.831"/>
				
					<path style="fill:#FFFFFF;stroke:#303030;stroke-width:1.5;stroke-linecap:round;stroke-linejoin:round;stroke-miterlimit:10;" d="
					M155.286,114.533c1.826,0.222,3.519,0.843,5.031,1.846c2.844,1.885,4.7,4.907,5.227,8.509c0.536,3.665-0.361,7.483-2.527,10.751
					c-3.18,4.798-8.581,7.491-13.759,6.86c-1.826-0.222-3.519-0.843-5.032-1.846c-5.925-3.928-7.136-12.568-2.7-19.261
					C144.706,116.596,150.106,113.903,155.286,114.533L155.286,114.533 M155.828,111.273c-6.203-0.755-12.908,2.315-16.928,8.38
					c-5.462,8.239-3.903,18.887,3.481,23.782c1.949,1.292,4.108,2.054,6.332,2.324c6.203,0.755,12.908-2.315,16.928-8.38
					c5.462-8.239,3.903-18.887-3.481-23.782C160.211,112.306,158.053,111.544,155.828,111.273L155.828,111.273z"/>
				<g>
					
						<line style="fill:#FFFFFF;stroke:#303030;stroke-width:1.5;stroke-linecap:round;stroke-linejoin:round;stroke-miterlimit:10;" x1="159.509" y1="124.398" x2="141.52" y2="129.894"/>
					
						<line style="fill:#FFFFFF;stroke:#303030;stroke-width:1.5;stroke-linecap:round;stroke-linejoin:round;stroke-miterlimit:10;" x1="157.46" y1="119.912" x2="144.635" y2="123.83"/>
					
						<line style="fill:#FFFFFF;stroke:#303030;stroke-width:1.5;stroke-linecap:round;stroke-linejoin:round;stroke-miterlimit:10;" x1="156.751" y1="130.646" x2="143.926" y2="134.564"/>
				</g>
			</g>
			<g>
				<path style="fill:#FFC4B0;" d="M68.343,174.493c-10.689-32.665-10.487-43.861,4.182-48.418
					c4.613,1.727,4.606,13.204,8.209,23.887c3.603,10.683,4.676,13.865,4.676,13.865s17.521-4.253,21.365-6.387
					c3.843-2.134,4.576-4.168,5.441-5.639c1.229-2.09,1.352-2.886,2.818-3.646s1.543-0.793,2.686-1.693
					c1.214-0.956,1.799-2.185,3.747-2.073c1.195,0.068,4.626,1.501,6.435,2.291c0.867,0.379,1.529,0.683,2.876,2.287
					c1.347,1.604,3.21,3.962,3.757,4.887s-0.135,2.01-1.609,2.069c-1.017,0.04-1.894-0.493-3.373-1.968
					c-1.889-1.883-2.95-2.742-3.932-3.184c2.074,1.663,3.198,2.795,4.18,5.499c0.655,1.804,0.645,4.099-0.629,4.938
					c-1.579,1.04-2.905,0.049-2.905,0.049l0,0c0.628-0.856,0.706-2.013,0.154-2.92c-0.437-0.718-0.785-0.885-0.785-0.885
					c0.745,2.584,0.879,3.888,0.3,4.7c-0.495,0.694-2.01,1.628-3.162,1.017c-0.697,2.018-1.554,3.11-3.581,2.432
					c-2.356-0.787-2.435-1.864-1.936-3.187c0,0-0.268-1.158-0.866-0.7c0.417,1.947,1.171,4.191-0.717,6.312
					c-1.592,1.789-3.519,1.711-6.918,3.546c-3.398,1.835-15.925,11.56-26.442,14.471C74.837,188.112,71.434,183.938,68.343,174.493z
					"/>
				<g>
					<g>
						<g>
							<path style="fill:#303030;" d="M121.018,149.101c4.321,1.755,9.109,5.527,8.397,10.771c-0.055,0.404,0.098,0.8,0.524,0.923
								c0.349,0.1,0.868-0.123,0.923-0.524c0.393-2.899-0.562-5.637-2.41-7.867c-1.786-2.156-4.474-3.709-7.035-4.749
								c-0.378-0.154-0.82,0.167-0.923,0.524C120.371,148.606,120.645,148.95,121.018,149.101L121.018,149.101z"/>
						</g>
					</g>
					<g>
						<g>
							<path style="fill:#303030;" d="M119.063,152.974c0.435,0.257,0.879,0.499,1.323,0.741c1.118,0.608,2.388,1.094,3.343,1.947
								c0.396,0.354,0.769,0.729,0.999,1.213c0.234,0.493,0.364,1.038,0.491,1.566c0.22,0.918,0.375,1.733,0.454,2.56
								c0.039,0.403,0.317,0.75,0.75,0.75c0.376,0,0.789-0.344,0.75-0.75c-0.093-0.974-0.262-1.926-0.488-2.878
								c-0.153-0.646-0.332-1.284-0.608-1.89c-0.256-0.563-0.649-1.026-1.092-1.452c-1.034-0.993-2.342-1.553-3.588-2.224
								c-0.529-0.285-1.059-0.572-1.576-0.878C118.987,151.188,118.231,152.484,119.063,152.974L119.063,152.974z"/>
						</g>
					</g>
					<g>
						<g>
							<path style="fill:#303030;" d="M117.085,156.883c1.012,0.781,2.061,1.526,3.119,2.242c0.703,0.476,1.511,0.917,2.076,1.565
								c0.572,0.656,0.118,1.788-0.141,2.524c-0.135,0.382,0.153,0.821,0.524,0.923c0.414,0.114,0.788-0.14,0.923-0.524
								c0.39-1.109,0.718-2.356,0.136-3.461c-0.455-0.865-1.47-1.464-2.26-1.988c-1.232-0.817-2.45-1.672-3.62-2.576
								c-0.321-0.248-0.84-0.049-1.026,0.269C116.589,156.244,116.763,156.635,117.085,156.883L117.085,156.883z"/>
						</g>
					</g>
					<g>
						<g>
							<path style="fill:#303030;" d="M120.147,162.526c-0.253-0.042-0.498-0.135-0.736-0.229c-0.042-0.017-0.084-0.035-0.126-0.051
								c-0.071-0.027,0.182,0.08,0.031,0.013c-0.083-0.036-0.166-0.073-0.249-0.111c-0.165-0.076-0.329-0.154-0.492-0.236
								c-0.315-0.158-0.626-0.326-0.929-0.508c-0.128-0.077-0.255-0.156-0.378-0.241c-0.05-0.034-0.099-0.071-0.148-0.106
								c-0.099-0.07,0.15,0.124,0.067,0.051c-0.024-0.021-0.049-0.04-0.072-0.061c-0.294-0.26-0.775-0.311-1.061,0
								c-0.261,0.285-0.313,0.783,0,1.061c0.516,0.458,1.151,0.792,1.764,1.099c0.373,0.187,0.754,0.359,1.141,0.515
								c0.254,0.103,0.518,0.205,0.79,0.25c0.386,0.064,0.826-0.101,0.923-0.524C120.753,163.087,120.561,162.595,120.147,162.526
								L120.147,162.526z"/>
						</g>
					</g>
					<g>
						<g>
							<path style="fill:#303030;" d="M120.206,163.763c-0.06-0.053-0.115-0.112-0.164-0.175c0.039,0.051,0.078,0.101,0.117,0.152
								c-0.077-0.102-0.14-0.213-0.191-0.33c0.025,0.06,0.05,0.12,0.076,0.179c-0.056-0.134-0.096-0.274-0.117-0.418
								c0.009,0.066,0.018,0.133,0.027,0.199c-0.012-0.089-0.017-0.178-0.01-0.268c0.013-0.184-0.093-0.404-0.22-0.53
								c-0.13-0.13-0.343-0.228-0.53-0.22c-0.194,0.009-0.395,0.072-0.53,0.22c-0.039,0.05-0.078,0.101-0.117,0.152
								c-0.068,0.117-0.102,0.243-0.102,0.379c-0.012,0.166,0.015,0.335,0.042,0.499c0.018,0.113,0.049,0.224,0.09,0.331
								c0.063,0.165,0.132,0.332,0.229,0.48c0.097,0.147,0.208,0.295,0.342,0.412c0.15,0.132,0.325,0.22,0.53,0.22
								c0.184,0,0.404-0.082,0.53-0.22c0.131-0.143,0.229-0.331,0.22-0.53C120.418,164.102,120.355,163.894,120.206,163.763
								L120.206,163.763z"/>
						</g>
					</g>
					<g>
						<g>
							<path style="fill:#303030;" d="M115.572,161.052c0.175,1.33,0.493,2.661,0.532,4c0.034,1.159-0.308,2.121-1.013,3.101
								c-0.236,0.329-0.057,0.835,0.269,1.026c0.378,0.221,0.789,0.061,1.026-0.269c0.784-1.091,1.227-2.33,1.221-3.679
								c-0.006-1.403-0.353-2.794-0.535-4.179c-0.053-0.401-0.307-0.75-0.75-0.75C115.958,160.302,115.519,160.648,115.572,161.052
								L115.572,161.052z"/>
						</g>
					</g>
					<g>
						<g>
							<path style="fill:#303030;" d="M120.994,158.56c0.152,0.421,0.313,0.837,0.485,1.25c0.023,0.098,0.068,0.183,0.134,0.255
								c0.053,0.082,0.123,0.146,0.211,0.193c0.161,0.094,0.398,0.134,0.578,0.076c0.181-0.059,0.357-0.171,0.448-0.345
								c0.025-0.06,0.05-0.119,0.076-0.179c0.036-0.133,0.036-0.266,0-0.399c-0.171-0.413-0.333-0.83-0.484-1.25
								c-0.067-0.187-0.169-0.346-0.345-0.448c-0.161-0.094-0.398-0.134-0.578-0.076c-0.182,0.059-0.357,0.171-0.448,0.345
								C120.979,158.153,120.926,158.372,120.994,158.56L120.994,158.56z"/>
						</g>
					</g>
					
						<path style="fill:none;stroke:#303030;stroke-width:1.5;stroke-linecap:round;stroke-linejoin:round;stroke-miterlimit:10;" d="
						M134.406,155.563c-0.889,0.665-2.347,0.778-3.565-0.328c-1.218-1.106-2.863-2.497-3.93-3.357"/>
				</g>
			</g>
			<g>
				<path style="fill:#00826F;" d="M74.959,123.802c2.245,3.406,4.33,9.186,7.356,17.075l5.995,22.225
					c0,0-13.463,4.693-20.077,16.98c-2.435-7.519-5.115-16.825-7.203-24.096C56.582,140.504,58.076,131.342,74.959,123.802z"/>
			</g>
			<path style="fill:none;stroke:#303030;stroke-width:1.5;stroke-linecap:round;stroke-linejoin:round;stroke-miterlimit:10;" d="
				M68.233,180.082c2.923-5.027,7.142-10.23,20.077-16.98c0,0-3.52-13.64-5.151-19.096"/>
		</g>
	</g>
</g>
</svg>
