<?xml version="1.0" encoding="utf-8"?>
<!-- Generator: Adobe Illustrator 27.5.0, SVG Export Plug-In . SVG Version: 6.00 Build 0)  -->
<svg version="1.1" xmlns="http://www.w3.org/2000/svg" xmlns:xlink="http://www.w3.org/1999/xlink" x="0px" y="0px"
	 viewBox="0 0 500 500" style="enable-background:new 0 0 500 500;" xml:space="preserve">
<g id="BACKGROUND">
	<rect style="fill:#ECF0F1;" width="500" height="500"/>
</g>
<g id="OBJECTS">
	<g>
		<g style="opacity:0.7;">
			<g>
				<path style="fill:#D7DBDD;" d="M454.66,193.7c0.86-5.76,0.75-11.51-0.22-17.07l12.09-5.43l-9.8-21.81l-11.57,5.19
					c-3.6-5.03-8.11-9.48-13.39-13.06l4.76-12.52l-22.35-8.51l-4.69,12.34c-6.41-0.96-12.83-0.71-18.96,0.59l-5.51-12.26l-21.82,9.8
					l5.62,12.52c-4.4,3.4-8.3,7.51-11.51,12.25l-12.53-4.77l-8.5,22.36l12.34,4.69c-0.79,5.31-0.76,10.62,0.02,15.78l-13.54,6.08
					l9.79,21.82l12.5-5.61c3.72,5.46,8.48,10.28,14.12,14.1l-4.76,12.53l22.35,8.5l4.7-12.34c6.84,1.02,13.69,0.68,20.21-0.87
					l5.4,12.03l21.81-9.8l-5.75-12.81c3.99-3.24,7.54-7.07,10.5-11.44l12.53,4.76l8.5-22.35L454.66,193.7z M427.12,195.7
					c-5.39,14.17-21.25,21.29-35.42,15.9c-14.18-5.39-21.3-21.25-15.91-35.43c5.39-14.17,21.26-21.29,35.43-15.9
					S432.51,181.52,427.12,195.7z"/>
			</g>
		</g>
		<g style="opacity:0.7;">
			<g>
				<path style="fill:#D7DBDD;" d="M177.62,171.95c1.1-7.42,0.97-14.85-0.29-22.02l15.6-7l-12.64-28.16l-14.93,6.7
					c-4.66-6.49-10.47-12.23-17.29-16.84l6.15-16.17l-28.84-10.97l-6.06,15.92c-8.27-1.23-16.54-0.92-24.47,0.77l-7.1-15.83
					L59.6,90.99l7.25,16.16c-5.68,4.39-10.71,9.69-14.85,15.8l-16.17-6.15l-10.97,28.85l15.92,6.05
					c-1.02,6.86-0.98,13.72,0.02,20.37l-17.47,7.85l12.64,28.15l16.13-7.24c4.8,7.05,10.94,13.27,18.22,18.2l-6.15,16.17
					l28.85,10.97l6.06-15.92c8.83,1.31,17.67,0.87,26.07-1.13l6.97,15.52L160.28,232l-7.42-16.53c5.14-4.18,9.72-9.13,13.54-14.77
					l16.17,6.15l10.97-28.84L177.62,171.95z M142.08,174.53c-6.95,18.29-27.42,27.48-45.71,20.52
					c-18.29-6.95-27.48-27.42-20.53-45.71c6.96-18.29,27.43-27.48,45.72-20.52C139.85,135.77,149.04,156.24,142.08,174.53z"/>
			</g>
		</g>
		<g style="opacity:0.7;">
			<g>
				<path style="fill:#D7DBDD;" d="M156.84,354.9c0.86-5.75,0.75-11.5-0.22-17.06l12.09-5.43l-9.8-21.82l-11.57,5.2
					c-3.61-5.04-8.11-9.48-13.39-13.06l4.76-12.53l-22.35-8.5l-4.7,12.34c-6.41-0.96-12.82-0.72-18.96,0.59l-5.5-12.26l-21.82,9.8
					L71,304.69c-4.4,3.4-8.3,7.51-11.51,12.24l-12.53-4.76l-8.5,22.35l12.34,4.69c-0.79,5.32-0.77,10.63,0.01,15.79l-13.53,6.08
					l9.79,21.82l12.5-5.61c3.72,5.46,8.48,10.27,14.12,14.1l-4.76,12.53l22.35,8.5l4.69-12.34c6.85,1.02,13.7,0.68,20.21-0.87
					l5.4,12.03l21.82-9.8l-5.75-12.81c3.99-3.24,7.54-7.07,10.5-11.44l12.53,4.76l8.5-22.35L156.84,354.9z M129.3,356.9
					c-5.39,14.18-21.25,21.3-35.42,15.91c-14.18-5.39-21.3-21.26-15.91-35.43c5.39-14.17,21.25-21.29,35.43-15.9
					C127.57,326.87,134.69,342.73,129.3,356.9z"/>
			</g>
		</g>
	</g>
	<g>
		<g>
			<g>
				<g>
					<g>
						<path style="fill:#2C3E50;" d="M273.603,348.27l5.823,38.027l4.216,27.533h-85.358l8.957-58.146l1.142-7.414H273.603
							 M274.032,347.77h-66.078c-3.418,22.186-6.835,44.373-10.253,66.56c28.841,0,57.682,0,86.523,0
							C280.827,392.143,277.43,369.956,274.032,347.77L274.032,347.77z"/>
					</g>
				</g>
				<g>
					<path style="fill:#2C3E50;" d="M313.325,414.348v8.989H168.601v-8.989H313.325 M313.825,413.848H168.101v9.989h145.724V413.848
						L313.825,413.848z"/>
				</g>
				<g>
					<path style="fill:#212E3A;" d="M392.67,196.52v137.04c0,10.22-8.29,18.51-18.51,18.51H107.61c-10.23,0-18.52-8.29-18.52-18.51
						V196.52c0-10.23,8.29-18.52,18.52-18.52h266.55C384.38,178,392.67,186.29,392.67,196.52z"/>
				</g>
				<g>
					<path style="fill:#FFFFFF;" d="M366.926,351.611H115.06c-10.226,0-18.516-8.29-18.516-18.516V204.471
						c0-10.226,8.29-18.516,18.516-18.516h251.866c10.226,0,18.516,8.29,18.516,18.516v128.624
						C385.443,343.321,377.152,351.611,366.926,351.611z"/>
				</g>
				<line style="fill:none;stroke:#FFFFFF;stroke-miterlimit:10;" x1="189.117" y1="338.99" x2="280.947" y2="339.318"/>
				<line style="fill:none;stroke:#FFFFFF;stroke-miterlimit:10;" x1="203.715" y1="343.6" x2="295.546" y2="343.928"/>
				<path style="fill:#2C3E50;" d="M392.67,328v5.56c0,10.22-8.29,18.51-18.51,18.51H107.61c-10.23,0-18.52-8.29-18.52-18.51V328
					H392.67z"/>
			</g>
			
				<line style="fill:none;stroke:#2C3E50;stroke-width:0.5;stroke-miterlimit:10;" x1="88.398" y1="423.836" x2="407.268" y2="423.836"/>
			
				<line style="fill:none;stroke:#2C3E50;stroke-width:0.5;stroke-miterlimit:10;" x1="64.58" y1="428.446" x2="240.993" y2="428.446"/>
			<line style="fill:none;stroke:#2C3E50;stroke-width:0.5;stroke-miterlimit:10;" x1="246.734" y1="433" x2="423.148" y2="433"/>
		</g>
		<text transform="matrix(1 0 0 1 120.4517 232.8779)" style="fill:#F6B93B; font-family:'OpenSans-Bold'; font-size:37.0316px;">CMS</text>
		<g>
			<g>
				<rect x="123.318" y="250.719" style="fill:#FFFFFF;" width="61.736" height="50.979"/>
				<path style="fill:#2C3E50;" d="M184.804,250.969v50.479h-61.236v-50.479H184.804 M185.304,250.469h-62.236v51.479h62.236
					V250.469L185.304,250.469z"/>
			</g>
			<text transform="matrix(1 0 0 1 129.6377 270.2402)" style="fill:#E74C3C; font-family:'OpenSans'; font-size:13.5238px;">Aa</text>
			<g>
				<rect x="147.142" y="269.678" style="fill:#E74C3C;" width="28.942" height="0.768"/>
			</g>
			<g>
				<rect x="129.983" y="278.898" style="fill:#E0E0E2;" width="46.869" height="0.768"/>
			</g>
			<g>
				<rect x="129.983" y="285.813" style="fill:#E0E0E2;" width="31.502" height="0.768"/>
			</g>
			<g>
				<rect x="129.983" y="292.728" style="fill:#E0E0E2;" width="46.869" height="0.768"/>
			</g>
		</g>
		<g>
			<g>
				<rect x="296" y="247.042" style="fill:#E0E0E2;" width="62" height="0.911"/>
				<rect x="296" y="252.507" style="fill:#E0E0E2;" width="62" height="0.911"/>
				<rect x="296" y="257.972" style="fill:#E0E0E2;" width="62" height="0.911"/>
			</g>
			<g>
				<g>
					<polygon style="fill:#E74C3C;" points="321.428,273.017 321.428,301.467 295.237,301.467 295.237,265.753 313.568,265.753 
											"/>
				</g>
				<g>
					<polygon style="fill:#2C3E50;" points="321.455,273.041 321.428,273.044 313.038,274.142 313.467,265.753 313.473,265.663 
						313.568,265.753 321.428,273.017 					"/>
				</g>
			</g>
			<g>
				<g>
					<polygon style="fill:#E74C3C;" points="358.428,273.017 358.428,301.467 332.237,301.467 332.237,265.753 350.568,265.753 
											"/>
				</g>
				<g>
					<polygon style="fill:#2C3E50;" points="358.455,273.041 358.428,273.044 350.038,274.142 350.467,265.753 350.473,265.663 
						350.568,265.753 358.428,273.017 					"/>
				</g>
			</g>
		</g>
		<g>
			<g>
				<rect x="213" y="266.042" style="fill:#E0E0E2;" width="62" height="0.911"/>
				<rect x="213" y="271.507" style="fill:#E0E0E2;" width="38" height="0.911"/>
				<rect x="213" y="283.042" style="fill:#E0E0E2;" width="62" height="0.911"/>
				<rect x="213" y="299.042" style="fill:#E0E0E2;" width="62" height="0.911"/>
				<rect x="213" y="288.507" style="fill:#E0E0E2;" width="38" height="0.911"/>
				<rect x="213" y="293.507" style="fill:#E0E0E2;" width="38" height="0.911"/>
				<rect x="213" y="276.972" style="fill:#E0E0E2;" width="62" height="0.911"/>
			</g>
		</g>
		<g>
			<g>
				<g>
					<g>
						<path style="fill:#2C3E50;" d="M276.894,208.303v42.603h-61.352v-42.603H276.894 M277.394,207.803h-62.352v43.603h62.352
							V207.803L277.394,207.803z"/>
					</g>
				</g>
				<g>
					<polygon style="fill:#2C3E50;" points="238.579,218.703 216.655,251.405 260.502,251.405 					"/>
				</g>
				<g>
					<path style="fill:#FED330;" d="M227.687,216.523c0,2.408-1.952,4.36-4.36,4.36s-4.36-1.952-4.36-4.36
						c0-2.408,1.952-4.36,4.36-4.36S227.687,214.115,227.687,216.523z"/>
				</g>
				<g>
					<polygon style="fill:#2C3E50;" points="216.213,251.419 228.435,251.419 238.578,218.717 					"/>
				</g>
				<g>
					<polygon style="fill:#1ABC9C;" points="249.492,218.703 227.127,251.405 271.857,251.405 					"/>
				</g>
				<g>
					<polygon style="fill:#16A085;" points="227.127,251.405 239.349,251.405 249.492,218.703 					"/>
				</g>
			</g>
		</g>
	</g>
	<g>
		<g>
			<g>
				<g>
					<g>
						<g>
							<rect x="96.624" y="93.885" style="fill:#FFFFFF;" width="83.254" height="58.22"/>
						</g>
						<g>
							<g>
								<path style="fill:#2C3E50;" d="M174.768,98.227v57.22H92.513v-57.22H174.768 M175.268,97.727H92.013v58.22h83.254V97.727
									L175.268,97.727z"/>
							</g>
						</g>
						<g>
							<polygon style="fill:#FED330;" points="120.895,118.673 106.899,126.753 120.895,134.833 120.895,140.22 101.456,128.998 
								101.456,124.507 120.895,113.286 							"/>
							<polygon style="fill:#FED330;" points="145.931,119.295 159.926,127.375 145.931,135.455 145.931,140.842 165.369,129.62 
								165.369,125.129 145.931,113.908 							"/>
							
								<rect x="130.655" y="105.051" transform="matrix(0.9063 -0.4226 0.4226 0.9063 -40.9887 68.0973)" style="fill:#FED330;" width="4.863" height="42.879"/>
						</g>
					</g>
				</g>
				<g>
					<g>
						<rect x="99.782" y="92.459" style="fill:#2C3E50;" width="86.823" height="10.757"/>
					</g>
					<g>
						<path style="fill:#EB2F06;" d="M105.929,97.837c0,0.849-0.688,1.537-1.537,1.537s-1.537-0.688-1.537-1.537
							c0-0.849,0.688-1.537,1.537-1.537S105.929,96.988,105.929,97.837z"/>
					</g>
					<g>
						<path style="fill:#F6B93B;" d="M111.307,97.837c0,0.849-0.688,1.537-1.537,1.537c-0.849,0-1.537-0.688-1.537-1.537
							c0-0.849,0.688-1.537,1.537-1.537C110.619,96.3,111.307,96.988,111.307,97.837z"/>
					</g>
					<g>
						<path style="fill:#2BCBBA;" d="M116.686,97.837c0,0.849-0.688,1.537-1.537,1.537c-0.849,0-1.537-0.688-1.537-1.537
							c0-0.849,0.688-1.537,1.537-1.537C115.998,96.3,116.686,96.988,116.686,97.837z"/>
					</g>
				</g>
			</g>
			<g>
				<g>
					<g>
						<rect x="353.871" y="176.59" style="fill:#FFFFFF;" width="77.265" height="71.033"/>
						<path style="fill:#2C3E50;" d="M430.885,176.84v70.533h-76.764V176.84H430.885 M431.385,176.34h-77.764v71.533h77.764V176.34
							L431.385,176.34z"/>
					</g>
				</g>
				<g>
					<g>
						<path style="fill:#2C3E50;" d="M426.332,181.394v70.533h-76.764v-70.533H426.332 M426.832,180.894h-77.764v71.533h77.764
							V180.894L426.832,180.894z"/>
					</g>
				</g>
				<g>
					<g>
						<path style="fill:#1ABC9C;" d="M414.08,213.97c0,2.1-0.3,4.12-0.87,6.03c-1.06,3.66-3.09,6.91-5.78,9.48
							c-3.77,3.58-8.84,5.8-14.42,5.88c-0.11,0.01-0.21,0.01-0.33,0.01c-0.11,0-0.21,0-0.33-0.01c-5.58-0.08-10.64-2.3-14.41-5.88
							c-2.69-2.57-4.72-5.82-5.78-9.48c-0.57-1.91-0.87-3.93-0.87-6.03c0-1.01,0.07-2,0.21-2.97c0.7-5.07,3.17-9.57,6.78-12.85
							c3.72-3.4,8.66-5.49,14.07-5.57c0.12-0.01,0.22-0.01,0.33-0.01c0.12,0,0.22,0,0.33,0.01c5.42,0.08,10.35,2.17,14.07,5.57
							c3.61,3.28,6.09,7.78,6.78,12.85C414.01,211.97,414.08,212.96,414.08,213.97z"/>
					</g>
					<path style="fill:none;stroke:#2C3E50;stroke-width:0.5;stroke-miterlimit:10;" d="M410.08,213.97c0,2.1-0.3,4.12-0.87,6.03
						c-1.06,3.66-3.09,6.91-5.78,9.48c-3.77,3.58-8.84,5.8-14.42,5.88c-0.11,0.01-0.21,0.01-0.33,0.01c-0.11,0-0.21,0-0.33-0.01
						c-5.58-0.08-10.64-2.3-14.41-5.88c-2.69-2.57-4.72-5.82-5.78-9.48c-0.57-1.91-0.87-3.93-0.87-6.03c0-1.01,0.07-2,0.21-2.97
						c0.7-5.07,3.17-9.57,6.78-12.85c3.72-3.4,8.66-5.49,14.07-5.57c0.12-0.01,0.22-0.01,0.33-0.01c0.12,0,0.22,0,0.33,0.01
						c5.42,0.08,10.35,2.17,14.07,5.57c3.61,3.28,6.09,7.78,6.78,12.85C410.01,211.97,410.08,212.96,410.08,213.97z"/>
					<path style="fill:none;stroke:#2C3E50;stroke-width:0.5;stroke-miterlimit:10;" d="M403.085,198.155
						c-1.271,1.166-2.692,2.177-4.217,3.008c-3.027,1.643-6.5,2.574-10.184,2.574c-3.684,0-7.157-0.93-10.184-2.574
						c-1.526-0.831-2.946-1.842-4.217-3.008c3.721-3.405,8.658-5.495,14.072-5.576c0.112-0.006,0.217-0.006,0.329-0.006
						c0.112,0,0.217,0,0.329,0.006C394.427,192.66,399.363,194.75,403.085,198.155z"/>
					<path style="fill:none;stroke:#2C3E50;stroke-width:0.5;stroke-miterlimit:10;" d="M403.426,229.475
						c-3.765,3.585-8.832,5.805-14.414,5.886c-0.112,0.006-0.217,0.006-0.329,0.006c-0.112,0-0.217,0-0.329-0.006
						c-5.582-0.081-10.649-2.301-14.414-5.886c1.302-1.24,2.76-2.313,4.341-3.2c3.076-1.712,6.63-2.692,10.401-2.692
						c3.771,0,7.325,0.98,10.401,2.692C400.666,227.162,402.123,228.235,403.426,229.475z"/>
					<path style="fill:none;stroke:#2C3E50;stroke-width:0.5;stroke-miterlimit:10;" d="M401.398,213.97
						c0,4.577-0.856,8.826-2.313,12.305c-2.245,5.359-5.911,8.906-10.072,9.086c-0.112,0.006-0.217,0.006-0.329,0.006
						c-0.112,0-0.217,0-0.329-0.006c-4.162-0.18-7.827-3.727-10.072-9.086c-1.457-3.479-2.313-7.728-2.313-12.305
						c0-4.8,0.943-9.235,2.531-12.807c2.257-5.08,5.824-8.41,9.855-8.584c0.112-0.006,0.217-0.006,0.329-0.006
						c0.112,0,0.217,0,0.329,0.006c4.031,0.174,7.598,3.504,9.855,8.584C400.455,204.735,401.398,209.17,401.398,213.97z"/>
					
						<line style="fill:none;stroke:#2C3E50;stroke-width:0.5;stroke-miterlimit:10;" x1="388.684" y1="192.573" x2="388.684" y2="235.367"/>
					
						<line style="fill:none;stroke:#2C3E50;stroke-width:0.5;stroke-miterlimit:10;" x1="367.286" y1="213.97" x2="410.081" y2="213.97"/>
				</g>
			</g>
			<g>
				<g>
					<path style="fill:#F6B93B;" d="M143.001,319.85v41.349c0,3.671-2.978,6.649-6.649,6.649h-22.787l-7.477,12.969
						c-1.466,2.532-5.128,2.532-6.594,0l-7.478-12.969H69.501c-3.67,0-6.649-2.978-6.649-6.649V319.85
						c0-3.671,2.978-6.649,6.649-6.649h66.851C140.023,313.202,143.001,316.18,143.001,319.85z"/>
				</g>
				<g>
					<path style="fill:#E74C3C;" d="M128.001,314.85v41.349c0,3.671-2.978,6.649-6.649,6.649H98.565l-7.477,12.969
						c-1.466,2.532-5.128,2.532-6.594,0l-7.478-12.969H54.501c-3.67,0-6.649-2.978-6.649-6.649V314.85
						c0-3.671,2.978-6.649,6.649-6.649h66.851C125.023,308.202,128.001,311.18,128.001,314.85z"/>
				</g>
				<g>
					<g>
						<path style="fill:#2C3E50;" d="M113.611,312.8c3.39,0,6.149,2.758,6.149,6.149v41.349c0,3.39-2.758,6.149-6.149,6.149H90.823
							h-0.289l-0.144,0.25l-7.477,12.969c-0.598,1.033-1.669,1.65-2.864,1.65c-1.195,0-2.266-0.617-2.864-1.649l-7.478-12.969
							l-0.144-0.25h-0.289H46.76c-3.39,0-6.149-2.758-6.149-6.149v-41.349c0-3.39,2.758-6.149,6.149-6.149H113.611 M113.611,312.3
							H46.76c-3.67,0-6.649,2.978-6.649,6.649v41.349c0,3.671,2.978,6.649,6.649,6.649h22.514l7.478,12.969
							c0.733,1.266,2.015,1.899,3.297,1.899s2.564-0.633,3.297-1.899l7.477-12.969h22.788c3.67,0,6.649-2.978,6.649-6.649v-41.349
							C120.259,315.278,117.281,312.3,113.611,312.3L113.611,312.3z"/>
					</g>
				</g>
				<g>
					<path style="fill:#2C3E50;" d="M64.247,334.248c2.211,0,4.009,1.799,4.009,4.009c0,2.211-1.799,4.009-4.009,4.009
						c-2.211,0-4.009-1.799-4.009-4.009C60.237,336.047,62.036,334.248,64.247,334.248 M64.247,333.248
						c-2.767,0-5.009,2.243-5.009,5.009c0,2.767,2.243,5.009,5.009,5.009c2.767,0,5.009-2.243,5.009-5.009
						C69.256,335.491,67.013,333.248,64.247,333.248L64.247,333.248z"/>
				</g>
				<g>
					<path style="fill:#2C3E50;" d="M86.105,334.248c2.211,0,4.009,1.799,4.009,4.009c0,2.211-1.799,4.009-4.009,4.009
						s-4.009-1.799-4.009-4.009C82.096,336.047,83.895,334.248,86.105,334.248 M86.105,333.248c-2.767,0-5.009,2.243-5.009,5.009
						c0,2.767,2.243,5.009,5.009,5.009c2.767,0,5.009-2.243,5.009-5.009C91.115,335.491,88.872,333.248,86.105,333.248
						L86.105,333.248z"/>
				</g>
				<g>
					<path style="fill:#2C3E50;" d="M107.964,334.248c2.211,0,4.009,1.799,4.009,4.009c0,2.211-1.799,4.009-4.009,4.009
						s-4.009-1.799-4.009-4.009C103.954,336.047,105.753,334.248,107.964,334.248 M107.964,333.248
						c-2.767,0-5.009,2.243-5.009,5.009c0,2.767,2.243,5.009,5.009,5.009c2.767,0,5.009-2.243,5.009-5.009
						C112.973,335.491,110.73,333.248,107.964,333.248L107.964,333.248z"/>
				</g>
			</g>
			<g>
				<g>
					<g>
						<path style="fill:#1ABC9C;" d="M118.652,251.8c0,6.148-4.982,11.13-11.13,11.13c-0.064,0-0.137,0-0.2-0.009v0.009H50.043
							c-0.483,0-0.956-0.027-1.421-0.091c-5.483-0.701-9.718-5.374-9.718-11.039c0-6.148,4.982-11.13,11.139-11.13
							c1.375,0,2.687,0.246,3.898,0.701c-0.301-1.266-0.465-2.587-0.465-3.944c0-9.39,7.614-17.004,17.004-17.004
							c7.414,0,13.716,4.745,16.039,11.357c1.822-1.284,4.035-2.04,6.43-2.04c6.148,0,11.13,4.982,11.13,11.13
							c0,0.118,0,0.228-0.009,0.346c1.084-0.355,2.25-0.547,3.452-0.547C113.67,240.671,118.652,245.653,118.652,251.8z"/>
					</g>
					<g>
						<path style="fill:#1ABC9C;" d="M50.043,262.93h-1.421v-0.091C49.087,262.903,49.561,262.93,50.043,262.93z"/>
					</g>
				</g>
				<g>
					<g>
						<path style="fill:#2C3E50;" d="M65.017,223.656c6.995,0,13.251,4.43,15.567,11.023l0.219,0.624l0.541-0.381
							c1.808-1.275,3.932-1.949,6.142-1.949c5.861,0,10.63,4.768,10.63,10.63c0,0.105,0.001,0.202-0.008,0.308l-0.058,0.747
							l0.712-0.233c1.056-0.346,2.165-0.521,3.296-0.521c5.861,0,10.63,4.768,10.63,10.63c0,5.861-4.768,10.63-10.63,10.63
							c-0.016,0-0.032,0-0.049,0c-0.027,0-0.055-0.001-0.08-0.004l-0.571-0.073v0.077H44.579c-0.486,0-0.929-0.028-1.357-0.087
							c-5.291-0.677-9.281-5.209-9.281-10.543c0-5.861,4.773-10.63,10.639-10.63c1.288,0,2.541,0.225,3.722,0.669l0.88,0.331
							l-0.217-0.914c-0.299-1.26-0.451-2.548-0.451-3.828C48.512,231.06,55.916,223.656,65.017,223.656 M65.017,223.156
							c-9.39,0-17.004,7.614-17.004,17.004c0,1.357,0.164,2.678,0.464,3.944c-1.211-0.455-2.523-0.701-3.898-0.701
							c-6.157,0-11.139,4.982-11.139,11.13c0,5.665,4.235,10.337,9.718,11.039c0.464,0.064,0.938,0.091,1.421,0.091h57.278v-0.009
							c0.064,0.009,0.137,0.009,0.2,0.009c6.148,0,11.13-4.982,11.13-11.13c0-6.148-4.982-11.13-11.13-11.13
							c-1.202,0-2.368,0.191-3.452,0.546c0.009-0.118,0.009-0.228,0.009-0.346c0-6.148-4.982-11.13-11.13-11.13
							c-2.395,0-4.608,0.756-6.43,2.04C78.733,227.902,72.43,223.156,65.017,223.156L65.017,223.156z"/>
					</g>
					<g>
						<path style="fill:#2C3E50;" d="M43.158,265.571v0.091h1.421C44.096,265.662,43.622,265.635,43.158,265.571L43.158,265.571z"/>
					</g>
				</g>
				<g>
					<g>
						<path style="fill:#2C3E50;" d="M68.314,238.895l6.656,7.668h-4.224h-0.5v0.5v12.231h-3.56v-12.231v-0.5h-0.5h-4.528
							L68.314,238.895 M68.314,238.133l-7.752,8.93h5.624v12.731h4.56v-12.731h5.32L68.314,238.133L68.314,238.133z"/>
					</g>
					<g>
						<path style="fill:#2C3E50;" d="M87.347,238.633v12.231v0.5h0.5h4.224l-6.656,7.668l-6.656-7.668h4.528h0.5v-0.5v-12.231
							H87.347 M87.847,238.133h-4.56v12.731h-5.624l7.752,8.93l7.752-8.93h-5.32V238.133L87.847,238.133z"/>
					</g>
				</g>
			</g>
			<g>
				<g>
					<g>
						<rect x="338.86" y="93.917" style="fill:#FFFFFF;" width="83.254" height="58.22"/>
					</g>
					<g>
						<g>
							<path style="fill:#2C3E50;" d="M417.004,98.259v57.22H334.75v-57.22H417.004 M417.504,97.759H334.25v58.22h83.254V97.759
								L417.504,97.759z"/>
						</g>
					</g>
					<path style="fill:#E0E0E2;stroke:#2C3E50;stroke-width:0.5;stroke-miterlimit:10;" d="M384.928,111.112
						c5.24,2.208,8.919,7.392,8.919,13.435c0,8.048-6.524,14.572-14.572,14.572s-14.572-6.524-14.572-14.572
						s6.524-14.572,14.572-14.572"/>
					<g>
						<g>
							<polygon style="fill:#EB2F06;" points="389.293,123.072 374.08,131.855 374.08,114.289 							"/>
						</g>
					</g>
				</g>
				<g>
					<rect x="343.743" y="146.758" style="fill:#0C2461;" width="86.823" height="2.305"/>
				</g>
				<g>
					<rect x="343.743" y="146.758" style="fill:#EB2F06;" width="47.637" height="2.305"/>
				</g>
				<g>
					<g>
						<rect x="343.743" y="90.669" style="fill:#2C3E50;" width="86.823" height="10.757"/>
					</g>
					<g>
						<path style="fill:#E74C3C;" d="M349.89,96.047c0,0.849-0.688,1.537-1.537,1.537s-1.537-0.688-1.537-1.537
							c0-0.849,0.688-1.537,1.537-1.537S349.89,95.199,349.89,96.047z"/>
					</g>
					<g>
						<path style="fill:#FED330;" d="M355.268,96.047c0,0.849-0.688,1.537-1.537,1.537c-0.849,0-1.537-0.688-1.537-1.537
							c0-0.849,0.688-1.537,1.537-1.537C354.58,94.51,355.268,95.199,355.268,96.047z"/>
					</g>
					<g>
						<path style="fill:#1ABC9C;" d="M360.647,96.047c0,0.849-0.688,1.537-1.537,1.537s-1.537-0.688-1.537-1.537
							c0-0.849,0.688-1.537,1.537-1.537S360.647,95.199,360.647,96.047z"/>
					</g>
				</g>
			</g>
			<g>
				<g>
					<g>
						<rect x="348.86" y="309.917" style="fill:#FFFFFF;" width="83.254" height="58.22"/>
					</g>
					<g>
						<g>
							<path style="fill:#2C3E50;" d="M427.004,314.259v57.22H344.75v-57.22H427.004 M427.504,313.759H344.25v58.22h83.254V313.759
								L427.504,313.759z"/>
						</g>
					</g>
					<path style="fill:#E0E0E2;stroke:#2C3E50;stroke-width:0.5;stroke-miterlimit:10;" d="M394.928,327.112
						c5.24,2.208,8.919,7.392,8.919,13.435c0,8.048-6.524,14.572-14.572,14.572s-14.572-6.524-14.572-14.572
						s6.524-14.572,14.572-14.572"/>
					<g>
						<g>
							<polygon style="fill:#EB2F06;" points="399.293,339.072 384.08,347.855 384.08,330.289 							"/>
						</g>
					</g>
				</g>
				<g>
					<rect x="353.743" y="362.758" style="fill:#0C2461;" width="86.823" height="2.305"/>
				</g>
				<g>
					<rect x="353.743" y="362.758" style="fill:#EB2F06;" width="47.637" height="2.305"/>
				</g>
				<g>
					<g>
						<rect x="353.743" y="306.669" style="fill:#2C3E50;" width="86.823" height="10.757"/>
					</g>
					<g>
						<path style="fill:#E74C3C;" d="M359.89,312.047c0,0.849-0.688,1.537-1.537,1.537s-1.537-0.688-1.537-1.537
							c0-0.849,0.688-1.537,1.537-1.537S359.89,311.198,359.89,312.047z"/>
					</g>
					<g>
						<path style="fill:#FED330;" d="M365.268,312.047c0,0.849-0.688,1.537-1.537,1.537c-0.849,0-1.537-0.688-1.537-1.537
							c0-0.849,0.688-1.537,1.537-1.537C364.58,310.51,365.268,311.198,365.268,312.047z"/>
					</g>
					<g>
						<path style="fill:#1ABC9C;" d="M370.647,312.047c0,0.849-0.688,1.537-1.537,1.537s-1.537-0.688-1.537-1.537
							c0-0.849,0.688-1.537,1.537-1.537S370.647,311.198,370.647,312.047z"/>
					</g>
				</g>
			</g>
		</g>
		<g>
			<g>
				<path style="fill:#FFFFFF;" d="M291.575,120.314c0,9.257-3.71,17.648-9.76,23.751c-6.12,6.206-14.632,10.055-24.045,10.055
					c-8.72,0-16.677-3.311-22.676-8.72c-6.831-6.206-11.13-15.135-11.13-25.085c0-18.671,15.134-33.806,33.806-33.806
					C276.44,86.509,291.575,101.643,291.575,120.314z"/>
			</g>
			<g>
				<g>
					<path style="fill:#2C3E50;" d="M257.71,81.009c22.191,0,40.246,18.054,40.246,40.246c0,10.676-4.126,20.717-11.62,28.276
						c-7.611,7.719-17.777,11.97-28.625,11.97c-9.984,0-19.572-3.687-26.995-10.38c-8.421-7.651-13.251-18.537-13.251-29.865
						C217.464,99.063,235.518,81.009,257.71,81.009 M257.71,80.509c-22.504,0-40.746,18.242-40.746,40.746
						c0,11.994,5.182,22.755,13.415,30.235c7.23,6.519,16.821,10.51,27.331,10.51c11.346,0,21.606-4.639,28.982-12.119
						c7.292-7.355,11.764-17.469,11.764-28.627C298.455,98.75,280.214,80.509,257.71,80.509L257.71,80.509z"/>
				</g>
			</g>
			<g>
				<g>
					<circle style="fill:#0A3D62;" cx="259.043" cy="110.018" r="13.002"/>
				</g>
				<g>
					<path style="fill:#0A3D62;" d="M281.814,144.065c-6.12,6.206-14.632,10.055-24.045,10.055c-8.72,0-16.677-3.311-22.676-8.72
						c2.167-8.998,9.015-16.053,17.7-18.272c1.872-0.485,3.831-0.745,5.842-0.745c1.595,0,3.173,0.156,4.681,0.468
						C272.106,128.635,279.197,135.327,281.814,144.065z"/>
				</g>
			</g>
		</g>
	</g>
</g>
</svg>
