<?xml version="1.0" encoding="utf-8"?>
<!-- Generator: Adobe Illustrator 27.5.0, SVG Export Plug-In . SVG Version: 6.00 Build 0)  -->
<svg version="1.1" xmlns="http://www.w3.org/2000/svg" xmlns:xlink="http://www.w3.org/1999/xlink" x="0px" y="0px"
	 viewBox="0 0 500 500" style="enable-background:new 0 0 500 500;" xml:space="preserve">
<g id="BACKGROUND">
	<rect style="fill:#FFFFFF;" width="500" height="500"/>
</g>
<g id="OBJECTS">
	<path style="fill:#D4DEF4;" d="M455.205,192.849c-9.061-17.316-26.831-29.436-45.805-31.239
		c-18.586-1.767-36.982,5.732-55.637,5.124c-30.71-1.002-56.279-23.147-83.718-37.43c-37.933-19.745-84.128-24.602-123.258-7.531
		c-39.13,17.071-69.068,57.783-69.186,101.664c-0.053,19.778,5.512,40.113-0.25,58.974c-5.376,17.597-19.672,30.613-28.118,46.872
		c-14.899,28.681-8.625,67.396,14.504,89.5l358.193-0.93c18.534-21.26,24.091-53.658,13.757-80.203
		c-3.869-9.937-9.829-19.371-10.463-30.062c-1.327-22.371,20.021-38.24,30.192-58.038
		C464.347,232.162,464.266,210.165,455.205,192.849z"/>
	<g>
		<path style="fill:#D4F4F2;" d="M442.255,316.878c-6.491-14.088-19.741-25.325-21.762-40.705
			c-2.213-16.85,9.776-31.93,14.548-48.241c5.021-17.165,1.56-36.596-9.079-50.971c-10.639-14.376-28.211-23.364-46.094-23.577
			c-24.896-0.298-48.568,15.257-73.26,12.06c-26.023-3.369-44.456-25.989-65.754-41.317c-39.366-28.332-96.472-31.342-136.56-4.041
			c-40.088,27.301-57.945,84.56-37.153,128.379c8.637,18.203,23.457,36.469,18.471,55.991c-4.363,17.083-22.195,26.776-31.97,41.449
			c-9.453,14.19-10.645,33.486-3.01,48.732c7.635,15.245,23.801,25.849,40.826,26.778l310.045-2.089
			c13.742-14.001,27.694-28.29,36.651-45.745C447.111,356.124,450.465,334.696,442.255,316.878z"/>
	</g>
	<g>
		<g>
			<path style="fill:#FCFCFC;" d="M365.58,250.564h88.864c2.607-4.107,0.208-7.995-3.833-10.704
				c-4.041-2.708-9.785-2.175-13.649,0.781c4.919-7.494,3.783-18.388-2.575-24.707c-6.358-6.319-17.258-7.387-24.722-2.422
				c-7.464,4.965-10.691,15.431-7.32,23.737c-0.169-4.158-5.644-6.737-9.311-4.769c-3.667,1.968-4.853,7.123-3.088,10.893
				c-3.79-2.977-9.056-3.97-13.669-2.576C371.663,242.191,367.088,245.987,365.58,250.564z"/>
		</g>
		<g>
			<path style="fill:#FCFCFC;" d="M190.651,207.935h88.864c2.607-4.107,0.208-7.995-3.833-10.704
				c-4.041-2.709-9.785-2.175-13.649,0.781c4.919-7.494,3.784-18.388-2.575-24.707c-6.358-6.319-17.258-7.387-24.722-2.422
				c-7.464,4.965-10.691,15.431-7.32,23.737c-0.169-4.158-5.644-6.737-9.311-4.769c-3.667,1.968-4.853,7.123-3.088,10.893
				c-3.79-2.977-9.055-3.97-13.669-2.576C196.734,199.561,192.159,203.358,190.651,207.935z"/>
		</g>
		<g>
			<path style="fill:#FCFCFC;" d="M128.566,145.172h88.864c2.607-4.107,0.208-7.995-3.833-10.704
				c-4.041-2.709-9.785-2.175-13.649,0.781c4.919-7.494,3.783-18.388-2.575-24.707c-6.358-6.319-17.259-7.387-24.722-2.422
				c-7.464,4.965-10.691,15.431-7.32,23.737c-0.169-4.158-5.644-6.737-9.311-4.769c-3.667,1.968-4.853,7.123-3.088,10.893
				c-3.79-2.977-9.055-3.97-13.669-2.576C134.649,136.798,130.074,140.595,128.566,145.172z"/>
		</g>
		<g>
			<path style="fill:#FCFCFC;" d="M38.054,332.822h72.333c2.122-3.343,0.169-6.508-3.12-8.713c-3.289-2.205-7.965-1.77-11.11,0.636
				c4.004-6.1,3.08-14.967-2.096-20.111c-5.175-5.144-14.048-6.013-20.123-1.971c-6.075,4.041-8.702,12.56-5.958,19.322
				c-0.138-3.385-4.594-5.484-7.579-3.882c-2.985,1.602-3.95,5.798-2.514,8.866c-3.085-2.423-7.371-3.231-11.126-2.097
				C43.005,326.007,39.281,329.097,38.054,332.822z"/>
		</g>
	</g>
	<g>
		<g>
			<g>
				<path style="fill:#88D3CC;" d="M471.1,264.998c0.448-0.554,0.871-1.134,1.281-1.724c0.416-0.582,0.814-1.183,1.196-1.801
					c0.757-1.248,1.492-2.507,2.179-3.838c0.345-0.669,0.688-1.336,1.03-2c0.34-0.672,0.676-1.354,1.009-2.043
					c0.685-1.382,1.366-2.756,2.043-4.124c-5.224-0.712-10.717-1.138-15.923,0.22c-2.603,0.671-5.143,2.009-7.421,3.715
					c-0.576,0.418-1.118,0.882-1.65,1.352c-0.531,0.472-1.045,0.959-1.539,1.458c-0.975,1.013-1.86,2.081-2.649,3.153
					c-3.956,5.532-5.955,10.315-7.001,14.465c1.31-0.131,2.88-0.256,4.183-0.356c1.3-0.105,2.379-0.147,2.707-0.166
					c1.104-0.047,2.167-0.121,3.202-0.214c1.043-0.085,2.048-0.199,3.017-0.35c0.963-0.157,1.914-0.325,2.823-0.544
					c0.455-0.109,0.901-0.229,1.338-0.362c0.219-0.066,0.434-0.136,0.649-0.208c0.217-0.069,0.433-0.141,0.646-0.216
					c0.852-0.301,1.669-0.654,2.453-1.069c0.792-0.405,1.56-0.859,2.291-1.389c0.726-0.537,1.45-1.106,2.135-1.768
					c0.344-0.329,0.68-0.678,1.01-1.048C470.444,265.781,470.775,265.401,471.1,264.998z"/>
			</g>
			<g>
				<g>
					<path style="fill:#FFFFFF;" d="M389.878,415.885c0.052,0.019,0.308-0.572,0.743-1.706c0.225-0.563,0.465-1.276,0.743-2.116
						c0.137-0.421,0.296-0.867,0.439-1.355c0.143-0.487,0.296-1.005,0.458-1.554c0.577-2.212,1.41-4.863,2.126-7.996
						c0.183-0.782,0.351-1.596,0.534-2.43c0.172-0.839,0.338-1.705,0.532-2.589c0.184-0.887,0.373-1.8,0.567-2.737
						c0.174-0.943,0.369-1.902,0.538-2.894c0.674-3.964,1.37-8.305,2.048-13c0.673-4.717,1.391-9.759,2.148-15.065
						c0.423-2.661,0.865-5.4,1.344-8.204c0.459-2.808,1.027-5.669,1.666-8.584c0.32-1.458,0.645-2.93,1.005-4.412
						c0.174-0.742,0.352-1.487,0.548-2.233c0.194-0.746,0.383-1.495,0.608-2.241c0.838-2.997,1.816-6.02,2.863-9.045
						c0.554-1.503,1.091-3.003,1.706-4.46c0.301-0.731,0.594-1.462,0.9-2.186c0.313-0.72,0.625-1.437,0.936-2.152
						c0.156-0.357,0.312-0.713,0.467-1.069c0.163-0.352,0.326-0.703,0.489-1.054c0.326-0.701,0.65-1.399,0.973-2.095
						c0.347-0.683,0.693-1.364,1.038-2.042c0.345-0.677,0.684-1.353,1.048-2.013c0.358-0.662,0.715-1.322,1.07-1.978
						c0.175-0.329,0.357-0.654,0.543-0.975c0.184-0.322,0.368-0.644,0.551-0.964c0.369-0.64,0.726-1.282,1.1-1.91
						c0.378-0.626,0.753-1.249,1.127-1.868c0.191-0.307,0.381-0.614,0.57-0.919c0.196-0.302,0.391-0.603,0.586-0.902
						c0.391-0.599,0.779-1.194,1.165-1.786c0.38-0.596,0.792-1.166,1.182-1.744c0.395-0.575,0.788-1.147,1.178-1.715
						c0.803-1.121,1.591-2.23,2.403-3.298c0.41-0.53,0.818-1.057,1.223-1.58c0.404-0.523,0.807-1.041,1.223-1.543
						c1.635-2.029,3.263-3.961,4.884-5.784c0.827-0.897,1.622-1.791,2.445-2.632c0.407-0.424,0.809-0.844,1.208-1.26
						c0.2-0.207,0.399-0.414,0.597-0.619c0.202-0.201,0.403-0.402,0.603-0.601c0.399-0.399,0.795-0.793,1.186-1.184
						c0.391-0.391,0.776-0.778,1.171-1.148c0.792-0.734,1.567-1.453,2.324-2.154c3.068-2.758,5.921-5.154,8.523-7.115
						c1.309-0.975,2.507-1.898,3.651-2.695c0.565-0.406,1.106-0.794,1.622-1.164c0.524-0.357,1.034-0.682,1.51-0.998
						c1.896-1.271,3.41-2.193,4.407-2.858c1.008-0.65,1.536-0.996,1.506-1.047c-0.026-0.045-0.609,0.209-1.675,0.77
						c-1.054,0.577-2.628,1.417-4.587,2.615c-0.491,0.298-1.016,0.607-1.559,0.944c-0.531,0.354-1.089,0.726-1.671,1.115
						c-1.174,0.771-2.409,1.662-3.754,2.607c-2.674,1.908-5.602,4.259-8.743,6.989c-0.781,0.687-1.568,1.405-2.381,2.134
						c-0.404,0.368-0.801,0.75-1.2,1.14c-0.401,0.388-0.805,0.781-1.214,1.177c-0.827,0.787-1.627,1.629-2.463,2.472
						c-0.841,0.839-1.658,1.729-2.504,2.626c-0.84,0.903-1.65,1.858-2.49,2.817c-0.848,0.954-1.658,1.964-2.504,2.973
						c-0.21,0.254-0.42,0.509-0.631,0.764c-0.206,0.26-0.412,0.521-0.619,0.783c-0.413,0.525-0.83,1.054-1.249,1.587
						c-0.424,0.53-0.819,1.086-1.231,1.637c-0.405,0.556-0.813,1.115-1.224,1.678c-0.398,0.572-0.799,1.147-1.202,1.726
						c-0.399,0.582-0.817,1.157-1.206,1.756c-0.394,0.596-0.791,1.196-1.189,1.799c-0.199,0.302-0.399,0.605-0.599,0.909
						c-0.193,0.308-0.387,0.616-0.582,0.926c-0.38,0.625-0.763,1.253-1.147,1.884c-0.382,0.633-0.745,1.282-1.121,1.927
						c-0.369,0.649-0.759,1.292-1.116,1.957c-0.362,0.662-0.726,1.328-1.091,1.996c-0.37,0.667-0.716,1.349-1.067,2.034
						c-0.351,0.685-0.703,1.372-1.056,2.063c-0.328,0.703-0.658,1.409-0.989,2.118c-0.165,0.355-0.331,0.71-0.497,1.066
						c-0.158,0.359-0.317,0.72-0.476,1.081c-0.316,0.723-0.632,1.448-0.95,2.177c-0.31,0.731-0.608,1.472-0.913,2.211
						c-0.623,1.475-1.168,2.993-1.728,4.515c-1.058,3.063-2.046,6.128-2.891,9.16c-0.226,0.756-0.415,1.513-0.61,2.267
						c-0.197,0.755-0.374,1.507-0.548,2.257c-0.177,0.749-0.354,1.496-0.514,2.238c-0.162,0.742-0.335,1.483-0.486,2.217
						c-0.634,2.942-1.192,5.824-1.638,8.65c-0.464,2.822-0.89,5.574-1.296,8.244c-0.735,5.355-1.371,10.4-2.001,15.09
						c-0.619,4.695-1.247,9.027-1.845,12.988c-0.15,0.99-0.322,1.949-0.477,2.891c-0.175,0.936-0.345,1.847-0.511,2.733
						c-0.174,0.883-0.316,1.752-0.47,2.589c-0.161,0.835-0.305,1.651-0.469,2.432c-0.625,3.138-1.369,5.798-1.852,8.03
						c-0.136,0.555-0.264,1.079-0.385,1.57c-0.123,0.492-0.254,0.946-0.367,1.373c-0.114,0.428-0.22,0.822-0.317,1.183
						c-0.096,0.362-0.197,0.684-0.279,0.976C389.98,415.238,389.825,415.867,389.878,415.885z"/>
				</g>
			</g>
			<g>
				<g>
					<path style="fill:#88D3CC;" d="M462.944,299.676c1.114-0.073,2.204-0.182,3.28-0.315c1.062-0.13,2.145-0.262,3.247-0.397
						c1.075-0.129,2.186-0.224,3.298-0.299c0.557-0.036,1.113-0.069,1.679-0.085c0.57-0.011,1.144-0.013,1.721-0.001
						c-1.601-1.792-3.38-3.893-5.384-5.805c-1-0.984-2.053-1.882-3.153-2.737c-0.55-0.427-1.111-0.802-1.682-1.173
						c-0.571-0.364-1.153-0.717-1.741-1c-1.182-0.607-2.434-1.079-3.734-1.437c-1.299-0.357-2.649-0.602-3.993-0.728
						c-1.334-0.11-2.667-0.093-3.959,0.027c-1.289,0.123-2.512,0.372-3.666,0.686c-0.736,0.207-1.414,0.459-2.053,0.734
						c-0.641,0.274-1.243,0.571-1.811,0.884c-1.129,0.631-2.093,1.347-2.963,2.063c-0.86,0.724-1.582,1.502-2.267,2.205
						c-0.337,0.368-0.646,0.735-0.945,1.09c-0.3,0.354-0.591,0.694-0.878,1.018c1.153,0.271,2.484,0.588,3.595,0.911
						c1.117,0.329,1.995,0.61,2.271,0.701c1.839,0.628,3.566,1.22,5.214,1.735c1.652,0.517,3.209,0.946,4.753,1.286
						c1.541,0.339,3.034,0.564,4.535,0.665C459.819,299.815,461.353,299.812,462.944,299.676z"/>
				</g>
			</g>
			<g>
				<g>
					<path style="fill:#FFFFFF;" d="M463.14,294.428c0.001-0.092-0.633-0.349-1.799-0.722c-0.292-0.09-0.617-0.19-0.973-0.299
						c-0.353-0.098-0.738-0.186-1.153-0.286c-0.83-0.191-1.783-0.426-2.839-0.586c-0.531-0.085-1.087-0.174-1.667-0.267
						c-0.582-0.087-1.175-0.128-1.8-0.192c-1.249-0.136-2.582-0.174-3.998-0.209c-1.395,0.007-2.867,0.068-4.396,0.2
						c-1.521,0.138-3.077,0.364-4.68,0.667c-1.586,0.324-3.107,0.735-4.58,1.185c-1.451,0.466-2.837,0.984-4.149,1.525
						c-1.274,0.585-2.502,1.143-3.605,1.76c-0.547,0.308-1.083,0.595-1.579,0.904c-0.495,0.315-0.97,0.617-1.423,0.905
						c-0.919,0.567-1.665,1.181-2.352,1.695c-0.338,0.262-0.657,0.502-0.939,0.737c-0.279,0.24-0.522,0.468-0.744,0.671
						c-0.879,0.822-1.329,1.318-1.254,1.399c0.086,0.094,0.659-0.268,1.66-0.93c0.25-0.165,0.527-0.348,0.83-0.548
						c0.309-0.195,0.643-0.406,1.002-0.633c0.719-0.449,1.535-0.952,2.446-1.482c0.464-0.255,0.949-0.523,1.455-0.801
						c0.505-0.276,1.049-0.529,1.597-0.807c1.092-0.567,2.333-1.059,3.594-1.596c0.636-0.256,1.306-0.497,1.99-0.731
						c0.684-0.235,1.383-0.462,2.095-0.68c0.707-0.221,1.448-0.42,2.196-0.608c0.749-0.188,1.509-0.365,2.279-0.526
						c0.767-0.16,1.549-0.283,2.309-0.397c0.762-0.113,1.513-0.209,2.249-0.29c0.732-0.084,1.469-0.14,2.184-0.186
						c0.716-0.046,1.416-0.078,2.097-0.099c1.362-0.019,2.67-0.021,3.891,0.061c0.61,0.035,1.194,0.052,1.758,0.103
						c0.564,0.052,1.102,0.103,1.624,0.162c2.077,0.24,3.738,0.518,4.882,0.706C462.503,294.433,463.139,294.536,463.14,294.428z"/>
				</g>
			</g>
			<g>
				<g>
					<path style="fill:#88D3CC;" d="M446.163,317.158c0.258-0.093,0.514-0.188,0.767-0.285c0.255-0.096,0.512-0.192,0.77-0.289
						c0.51-0.196,1.012-0.398,1.511-0.605c0.982-0.412,1.982-0.832,2.999-1.259c0.504-0.204,1.004-0.41,1.515-0.608
						c0.517-0.195,1.037-0.386,1.56-0.572c0.523-0.186,1.05-0.365,1.583-0.536c0.54-0.166,1.091-0.32,1.645-0.464
						c-1.97-1.384-4.187-3.025-6.582-4.406c-1.201-0.719-2.436-1.337-3.705-1.898c-0.635-0.28-1.268-0.504-1.91-0.721
						c-0.643-0.212-1.285-0.404-1.918-0.525c-1.276-0.278-2.606-0.413-3.953-0.42c-1.354-0.011-2.698,0.123-4.019,0.365
						c-0.66,0.125-1.313,0.28-1.953,0.463c-0.642,0.181-1.251,0.402-1.855,0.639c-1.199,0.479-2.351,1.038-3.357,1.676
						c-0.643,0.412-1.239,0.841-1.792,1.282c-0.557,0.439-1.041,0.907-1.505,1.371c-0.46,0.466-0.882,0.938-1.271,1.41
						c-0.38,0.477-0.722,0.957-1.04,1.431c-0.318,0.474-0.606,0.949-0.874,1.415c-0.262,0.468-0.496,0.931-0.728,1.373
						c-0.433,0.915-0.836,1.767-1.198,2.566c0.587-0.023,1.219-0.048,1.848-0.063c0.635-0.013,1.266-0.017,1.844-0.006
						c1.163,0.027,2.084,0.072,2.37,0.087c0.952,0.062,1.881,0.122,2.794,0.181c0.901,0.054,1.779,0.104,2.641,0.143
						c1.718,0.077,3.339,0.1,4.884,0.024C440.352,318.791,443.165,318.253,446.163,317.158z"/>
				</g>
			</g>
			<g>
				<g>
					<path style="fill:#FFFFFF;" d="M445.009,311.848c-0.02-0.091-0.701-0.185-1.9-0.238c-0.301-0.01-0.636-0.022-1.001-0.035
						c-0.365-0.003-0.757,0.01-1.182,0.021c-0.846,0.03-1.826,0.047-2.882,0.169c-0.527,0.06-1.079,0.122-1.654,0.188
						c-0.576,0.072-1.163,0.185-1.781,0.289c-0.618,0.099-1.26,0.223-1.901,0.374c-0.642,0.151-1.301,0.32-1.982,0.494
						c-0.673,0.189-1.362,0.395-2.064,0.622c-0.698,0.229-1.394,0.484-2.107,0.757c-0.711,0.274-1.432,0.568-2.159,0.885
						c-0.72,0.32-1.435,0.668-2.16,1.036c-0.717,0.375-1.429,0.76-2.108,1.163c-0.674,0.405-1.333,0.821-1.975,1.245
						c-1.295,0.842-2.466,1.737-3.576,2.627c-0.272,0.229-0.54,0.456-0.805,0.68c-0.263,0.225-0.514,0.453-0.764,0.678
						c-0.498,0.451-0.975,0.899-1.418,1.353c-0.449,0.449-0.897,0.872-1.282,1.314c-0.386,0.445-0.757,0.871-1.112,1.279
						c-0.36,0.404-0.688,0.804-0.985,1.192c-0.287,0.393-0.559,0.764-0.813,1.11c-0.25,0.35-0.489,0.673-0.694,0.98
						c-0.197,0.313-0.377,0.6-0.539,0.857c-0.616,1.046-0.905,1.655-0.811,1.712c0.108,0.067,0.556-0.445,1.327-1.369
						c0.396-0.455,0.88-1.011,1.441-1.655c0.564-0.637,1.196-1.358,1.947-2.119c0.373-0.378,0.763-0.773,1.17-1.185
						c0.409-0.408,0.85-0.809,1.315-1.226c0.914-0.846,1.935-1.679,3.016-2.544c0.556-0.419,1.128-0.839,1.717-1.257
						c0.591-0.417,1.187-0.835,1.827-1.236c0.634-0.404,1.283-0.802,1.946-1.192c0.331-0.195,0.666-0.388,1.005-0.578
						c0.345-0.188,0.694-0.372,1.046-0.554c1.418-0.715,2.799-1.359,4.194-1.904c1.388-0.548,2.713-1.034,4.029-1.43
						c1.321-0.373,2.547-0.739,3.741-0.982c0.597-0.126,1.165-0.263,1.721-0.361c0.555-0.095,1.088-0.186,1.597-0.273
						c1.011-0.165,1.947-0.282,2.766-0.375c0.818-0.093,1.522-0.163,2.095-0.221c0.573-0.058,1.017-0.104,1.314-0.15
						C444.868,311.945,445.022,311.902,445.009,311.848z"/>
				</g>
			</g>
			<g>
				<g>
					<path style="fill:#88D3CC;" d="M436.722,341.757c0.912-0.569,1.824-1.15,2.702-1.747c0.432-0.298,0.868-0.599,1.308-0.903
						c0.439-0.299,0.882-0.6,1.329-0.904c0.443-0.293,0.889-0.588,1.338-0.885c0.457-0.29,0.924-0.576,1.391-0.857
						c0.469-0.281,0.942-0.557,1.422-0.826c0.48-0.269,0.99-0.522,1.495-0.77c-2.217-0.937-4.731-2.073-7.362-2.923
						c-1.325-0.452-2.661-0.799-4.019-1.084c-0.679-0.142-1.344-0.231-2.017-0.31c-0.666-0.073-1.335-0.128-1.977-0.117
						c-2.603-0.02-5.321,0.557-7.779,1.576c-0.617,0.256-1.22,0.541-1.805,0.85c-0.576,0.312-1.129,0.649-1.665,1.004
						c-0.535,0.355-1.049,0.729-1.539,1.116c-0.494,0.386-0.935,0.794-1.366,1.205c-0.538,0.533-1.026,1.073-1.469,1.616
						c-0.436,0.547-0.82,1.1-1.17,1.649c-0.353,0.547-0.653,1.1-0.923,1.644c-0.268,0.546-0.514,1.08-0.718,1.611
						c-0.412,1.063-0.711,2.097-0.973,3.061c-0.23,0.988-0.444,1.907-0.644,2.765c1.146-0.284,2.464-0.614,3.601-0.834
						c1.143-0.217,2.055-0.37,2.338-0.415c1.907-0.286,3.698-0.558,5.395-0.855c1.695-0.298,3.276-0.645,4.784-1.05
						c1.508-0.409,2.915-0.909,4.29-1.496c0.688-0.294,1.351-0.632,2.028-0.976C435.391,342.552,436.058,342.172,436.722,341.757z"
						/>
				</g>
			</g>
			<g>
				<g>
					<path style="fill:#FFFFFF;" d="M434.422,336.903c-0.044-0.085-0.716-0.032-1.898,0.16c-0.296,0.051-0.624,0.108-0.983,0.171
						c-0.356,0.071-0.736,0.165-1.147,0.262c-0.815,0.204-1.776,0.418-2.766,0.758c-0.5,0.167-1.025,0.341-1.571,0.523
						c-0.546,0.189-1.094,0.42-1.673,0.649c-1.175,0.441-2.342,1.038-3.6,1.664c-0.621,0.324-1.24,0.679-1.87,1.052
						c-0.628,0.375-1.269,0.767-1.905,1.188c-1.267,0.844-2.559,1.77-3.814,2.798c-2.507,2.065-4.682,4.292-6.509,6.433
						c-0.893,1.089-1.738,2.124-2.451,3.15c-0.361,0.509-0.722,0.991-1.038,1.476c-0.311,0.487-0.609,0.954-0.894,1.4
						c-0.58,0.883-1.024,1.729-1.429,2.458c-0.198,0.367-0.388,0.705-0.548,1.024c-0.15,0.323-0.288,0.618-0.411,0.884
						c-0.482,1.065-0.699,1.671-0.599,1.717c0.232,0.108,1.528-2.124,3.962-5.523c0.308-0.422,0.63-0.864,0.966-1.324
						c0.337-0.459,0.72-0.917,1.096-1.401c0.746-0.976,1.618-1.963,2.52-3.007c1.852-2.051,4.014-4.194,6.454-6.218
						c2.46-2.007,4.976-3.677,7.334-5.029c1.201-0.65,2.336-1.259,3.437-1.754c0.555-0.246,1.079-0.496,1.599-0.706
						c0.52-0.206,1.02-0.404,1.497-0.593c0.478-0.183,0.934-0.352,1.366-0.508c0.436-0.155,0.854-0.295,1.242-0.424
						c0.777-0.258,1.448-0.468,1.993-0.641C433.875,337.197,434.466,337.001,434.422,336.903z"/>
				</g>
			</g>
			<g>
				<g>
					<path style="fill:#88D3CC;" d="M423.653,369.999c1.236-2.078,2.257-4.249,3.29-6.438c1.052-2.162,2.117-4.363,3.403-6.44
						c-2.385-0.001-5.128-0.07-7.835,0.244c-1.375,0.133-2.709,0.385-4.035,0.707c-0.662,0.162-1.289,0.37-1.916,0.595
						c-0.622,0.228-1.24,0.473-1.805,0.773c-2.323,1.147-4.445,2.929-6.23,4.963c-1.773,2.049-3.141,4.384-4.086,6.628
						c-1.168,2.881-1.575,5.512-1.688,7.856c-0.055,1.173-0.018,2.287,0.01,3.319c0.053,1.048,0.128,2.026,0.153,2.94
						c1.025-0.549,2.196-1.203,3.223-1.72c1.039-0.513,1.858-0.918,2.111-1.043c0.867-0.406,1.708-0.809,2.522-1.217
						c0.809-0.406,1.591-0.815,2.346-1.235c1.513-0.843,2.896-1.712,4.171-2.682C419.832,375.324,421.884,373.04,423.653,369.999z"
						/>
				</g>
			</g>
			<g>
				<g>
					<path style="fill:#FFFFFF;" d="M419.534,365.454c-0.075-0.076-0.656,0.273-1.648,0.976c-0.246,0.18-0.52,0.379-0.82,0.597
						c-0.293,0.225-0.598,0.483-0.931,0.755c-0.658,0.55-1.428,1.166-2.206,1.916c-0.395,0.37-0.808,0.757-1.238,1.16
						c-0.429,0.408-0.844,0.858-1.289,1.311c-0.9,0.896-1.787,1.925-2.728,2.991c-1.84,2.174-3.74,4.653-5.551,7.348
						c-1.786,2.709-3.327,5.361-4.631,7.794c-0.613,1.234-1.249,2.38-1.735,3.495c-0.261,0.551-0.53,1.073-0.752,1.59
						c-0.109,0.259-0.216,0.513-0.321,0.762c-0.109,0.246-0.216,0.487-0.321,0.723c-0.216,0.467-0.399,0.92-0.565,1.352
						c-0.169,0.43-0.328,0.836-0.476,1.215c-0.146,0.38-0.288,0.73-0.402,1.06c-0.102,0.334-0.209,0.633-0.3,0.905
						c-0.358,1.088-0.506,1.708-0.403,1.749c0.224,0.089,1.324-2.176,3.186-5.824c0.237-0.454,0.488-0.931,0.733-1.433
						c0.25-0.5,0.544-1.007,0.828-1.541c0.274-0.539,0.568-1.09,0.885-1.654c0.159-0.282,0.32-0.568,0.484-0.858
						c0.159-0.292,0.32-0.588,0.484-0.887c0.687-1.186,1.406-2.43,2.194-3.709c0.771-1.281,1.608-2.598,2.486-3.932
						c1.785-2.655,3.621-5.12,5.363-7.306c0.898-1.073,1.726-2.113,2.571-3.033c0.416-0.463,0.801-0.925,1.199-1.347
						c0.398-0.421,0.78-0.825,1.145-1.211C417.711,367.346,419.707,365.628,419.534,365.454z"/>
				</g>
			</g>
			<g>
				<g>
					<path style="fill:#88D3CC;" d="M428.323,249.041c0.487-1.33,1.074-2.618,1.7-3.919c0.315-0.648,0.635-1.305,0.976-1.953
						c0.343-0.646,0.695-1.295,1.054-1.95c0.354-0.655,0.71-1.315,1.068-1.978c0.368-0.66,0.739-1.324,1.111-1.991
						c0.371-0.671,0.742-1.351,1.11-2.039c0.377-0.678,0.75-1.366,1.118-2.065c1.321,2.016,2.911,4.273,4.149,6.759
						c0.658,1.243,1.182,2.529,1.656,3.858c0.237,0.665,0.41,1.335,0.579,2.011c0.161,0.675,0.309,1.358,0.379,2.034
						c0.09,0.679,0.143,1.374,0.162,2.077c0.018,0.702,0.005,1.416-0.03,2.141c-0.074,1.446-0.265,2.906-0.545,4.332
						c-0.273,1.444-0.652,2.849-1.109,4.183c-0.444,1.346-0.953,2.632-1.517,3.807c-0.367,0.749-0.734,1.465-1.124,2.127
						c-0.386,0.667-0.796,1.28-1.197,1.872c-0.798,1.188-1.652,2.207-2.479,3.138c-0.822,0.936-1.679,1.747-2.454,2.513
						c-0.801,0.762-1.561,1.46-2.248,2.134c-0.317-1.15-0.667-2.496-1.006-3.63c-0.352-1.146-0.629-2.048-0.714-2.327
						c-1.207-3.74-2.132-7.18-2.343-10.559c-0.056-0.85-0.075-1.701-0.041-2.554c0.039-0.848,0.124-1.703,0.259-2.574
						c0.137-0.869,0.317-1.761,0.563-2.665C427.651,250.923,427.957,249.999,428.323,249.041z"/>
				</g>
			</g>
			<g>
				<g>
					<path style="fill:#FFFFFF;" d="M434.943,248.575c0.114-0.002,0.174,0.731,0.2,2.05c0.004,0.33,0.009,0.696,0.015,1.096
						c-0.004,0.4-0.027,0.834-0.043,1.299c-0.047,0.925-0.048,1.998-0.151,3.166c-0.041,0.583-0.084,1.194-0.129,1.83
						c-0.045,0.636-0.139,1.283-0.195,1.971c-0.105,1.37-0.315,2.812-0.505,4.318c-0.206,1.517-0.447,3.093-0.737,4.7
						c-0.264,1.63-0.588,3.279-0.94,4.962c-0.178,0.843-0.365,1.669-0.561,2.475c-0.198,0.8-0.394,1.592-0.587,2.374
						c-0.197,0.776-0.399,1.531-0.606,2.264c-0.21,0.731-0.399,1.46-0.605,2.154c-0.217,0.689-0.429,1.36-0.635,2.014
						c-0.202,0.654-0.401,1.288-0.619,1.888c-0.211,0.602-0.396,1.189-0.609,1.737c-0.207,0.552-0.405,1.082-0.595,1.588
						c-0.356,1.019-0.782,1.887-1.096,2.68c-0.166,0.392-0.314,0.758-0.466,1.088c-0.161,0.325-0.308,0.623-0.44,0.89
						c-0.135,0.266-0.257,0.5-0.366,0.702c-0.106,0.204-0.198,0.375-0.278,0.511c-0.16,0.272-0.268,0.403-0.319,0.38
						c-0.23-0.106,0.632-2.578,1.908-6.661c0.157-0.513,0.322-1.051,0.494-1.611c0.175-0.559,0.334-1.147,0.516-1.753
						c0.19-0.603,0.365-1.236,0.54-1.893c0.174-0.658,0.367-1.323,0.563-2.014c0.183-0.694,0.364-1.411,0.544-2.148
						c0.188-0.731,0.38-1.477,0.564-2.245c0.181-0.775,0.365-1.561,0.551-2.355c0.189-0.795,0.373-1.609,0.55-2.439
						c0.689-3.323,1.273-6.539,1.767-9.508c0.102-0.75,0.223-1.472,0.337-2.176c0.113-0.705,0.218-1.394,0.299-2.066
						c0.094-0.67,0.187-1.328,0.274-1.944c0.08-0.624,0.158-1.224,0.231-1.796c0.141-1.162,0.267-2.207,0.378-3.123
						c0.121-0.922,0.224-1.714,0.309-2.364C434.684,249.31,434.812,248.576,434.943,248.575z"/>
				</g>
			</g>
			<g>
				<g>
					<path style="fill:#88D3CC;" d="M404.749,276.974c0.281-1.383,0.626-2.771,1.024-4.165c0.414-1.382,0.872-2.778,1.352-4.2
						c0.489-1.41,0.986-2.842,1.487-4.285c0.518-1.441,1.03-2.912,1.51-4.422c1.633,1.779,3.573,3.749,5.21,6.003
						c0.855,1.12,1.592,2.307,2.278,3.538c0.342,0.616,0.622,1.245,0.899,1.881c0.268,0.636,0.525,1.282,0.712,1.941
						c0.41,1.314,0.684,2.712,0.843,4.142c0.04,0.358,0.072,0.716,0.1,1.078c0.03,0.364,0.054,0.729,0.071,1.095
						c0.034,0.732,0.042,1.465,0.027,2.194c-0.049,1.452-0.171,2.914-0.391,4.31c-0.229,1.391-0.506,2.751-0.858,4.012
						c-0.481,1.597-1.005,3.05-1.621,4.341c-0.311,0.644-0.612,1.268-0.934,1.854c-0.32,0.587-0.651,1.143-0.988,1.67
						c-0.667,1.059-1.353,2.024-1.996,2.912c-0.17,0.221-0.337,0.438-0.501,0.651c-0.16,0.216-0.318,0.428-0.472,0.636
						c-0.309,0.417-0.606,0.821-0.886,1.217c-0.511-1.083-1.089-2.355-1.618-3.419c-0.534-1.068-0.954-1.909-1.084-2.169
						c-0.913-1.746-1.754-3.44-2.443-5.097c-0.687-1.656-1.25-3.294-1.65-4.96c-0.389-1.66-0.602-3.337-0.635-5.116
						c-0.015-0.888,0.036-1.787,0.126-2.726C404.406,278.956,404.54,277.978,404.749,276.974z"/>
				</g>
			</g>
			<g>
				<g>
					<path style="fill:#FFFFFF;" d="M411.201,275.41c0.114-0.02,0.288,0.689,0.528,1.985c0.061,0.326,0.128,0.688,0.202,1.085
						c0.065,0.397,0.117,0.831,0.18,1.295c0.118,0.93,0.28,1.978,0.369,3.146c0.06,0.585,0.122,1.197,0.187,1.836
						c0.063,0.636,0.089,1.299,0.138,1.981c0.028,0.341,0.051,0.687,0.07,1.039c0.02,0.352,0.04,0.712,0.06,1.078
						c0.032,0.723,0.066,1.472,0.1,2.238c0.078,3.052,0.101,6.391-0.036,9.833c-0.047,0.856-0.076,1.714-0.133,2.545
						c-0.05,0.834-0.122,1.645-0.184,2.446c-0.059,0.803-0.127,1.587-0.204,2.35c-0.08,0.759-0.159,1.504-0.237,2.233
						c-0.094,0.721-0.186,1.424-0.275,2.109c-0.049,0.339-0.097,0.673-0.145,1.003c-0.046,0.331-0.095,0.655-0.15,0.972
						c-0.103,0.635-0.182,1.249-0.296,1.831c-0.059,0.29-0.116,0.575-0.173,0.853c-0.05,0.28-0.1,0.554-0.148,0.822
						c-0.176,1.072-0.427,2.017-0.621,2.85c-0.094,0.419-0.175,0.809-0.266,1.164c-0.101,0.352-0.193,0.674-0.276,0.964
						c-0.171,0.577-0.316,1.02-0.432,1.316c-0.11,0.298-0.192,0.449-0.247,0.436c-0.062-0.015-0.081-0.19-0.07-0.511
						c0.017-0.319,0.069-0.783,0.142-1.379c0.075-0.598,0.166-1.329,0.271-2.175c0.113-0.846,0.254-1.805,0.386-2.877
						c0.066-0.535,0.126-1.101,0.214-1.682c0.082-0.582,0.131-1.196,0.206-1.829c0.086-0.63,0.134-1.296,0.21-1.969
						c0.068-0.68,0.138-1.378,0.21-2.094c0.233-2.885,0.482-6.068,0.618-9.478c0.073-1.695,0.106-3.37,0.123-4.996
						c0.036-1.615,0.027-3.2,0.026-4.707c-0.027-1.502-0.018-2.948-0.087-4.305c-0.019-0.674-0.013-1.329-0.042-1.959
						c-0.028-0.633-0.055-1.24-0.08-1.82c-0.101-2.352-0.182-4.231-0.238-5.541C411.053,276.168,411.075,275.435,411.201,275.41z"/>
				</g>
			</g>
			<g>
				<g>
					<path style="fill:#88D3CC;" d="M383.776,320.123c-0.197-2.845-0.093-5.752,0.127-8.758c0.189-2.991,0.478-6.075,0.66-9.246
						c2.035,1.298,4.415,2.702,6.575,4.458c1.113,0.861,2.129,1.819,3.107,2.83c0.486,0.505,0.921,1.042,1.359,1.589
						c0.429,0.549,0.849,1.109,1.195,1.696c0.736,1.164,1.348,2.44,1.881,3.784c0.54,1.348,0.98,2.756,1.325,4.171
						c0.353,1.425,0.606,2.865,0.753,4.269c0.163,1.41,0.247,2.795,0.232,4.102c-0.014,0.837-0.043,1.643-0.116,2.411
						c-0.066,0.769-0.181,1.504-0.289,2.209c-0.112,0.704-0.25,1.378-0.406,2.025c-0.154,0.646-0.314,1.263-0.494,1.855
						c-0.364,1.186-0.765,2.272-1.146,3.281c-0.41,1.011-0.795,1.944-1.133,2.829c-0.774-0.897-1.662-1.954-2.451-2.822
						c-0.802-0.875-1.434-1.564-1.629-1.777c-1.35-1.422-2.609-2.798-3.716-4.199c-0.557-0.699-1.083-1.401-1.575-2.113
						c-0.489-0.714-0.933-1.442-1.346-2.186c-0.409-0.747-0.799-1.504-1.116-2.3c-0.323-0.794-0.608-1.615-0.854-2.472
						C384.212,324.038,383.921,322.195,383.776,320.123z"/>
				</g>
			</g>
			<g>
				<g>
					<path style="fill:#FFFFFF;" d="M389.592,316.878c0.102-0.051,0.464,0.595,1.042,1.791c0.143,0.299,0.301,0.632,0.474,0.996
						c0.165,0.367,0.326,0.773,0.508,1.205c0.178,0.432,0.368,0.891,0.572,1.383c0.207,0.492,0.418,1.015,0.618,1.57
						c0.209,0.549,0.428,1.125,0.656,1.724c0.228,0.599,0.416,1.229,0.653,1.879c0.485,1.295,0.906,2.698,1.373,4.15
						c0.907,2.919,1.814,6.092,2.607,9.389c0.774,3.301,1.342,6.411,1.735,9.225c0.167,1.409,0.345,2.739,0.421,3.984
						c0.043,0.623,0.105,1.222,0.129,1.797c0.018,0.575,0.036,1.127,0.053,1.654c0.052,1.051,0.008,1.998-0.01,2.829
						c-0.013,0.415-0.018,0.8-0.041,1.154c-0.032,0.353-0.062,0.676-0.089,0.966c-0.118,1.159-0.234,1.79-0.345,1.783
						c-0.252-0.02-0.271-2.572-0.648-6.716c-0.049-0.519-0.1-1.063-0.154-1.629c-0.054-0.567-0.15-1.154-0.219-1.767
						c-0.129-1.225-0.359-2.529-0.56-3.914c-0.467-2.762-1.08-5.812-1.834-9.063c-0.778-3.245-1.656-6.37-2.462-9.271
						c-0.227-0.718-0.421-1.428-0.616-2.12c-0.196-0.692-0.393-1.365-0.605-2.013c-0.197-0.652-0.389-1.291-0.57-1.89
						c-0.191-0.604-0.373-1.185-0.548-1.738c-0.35-1.109-0.692-2.127-0.966-3.013c-0.278-0.894-0.517-1.662-0.713-2.293
						C389.666,317.66,389.473,316.934,389.592,316.878z"/>
				</g>
			</g>
			<g>
				<g>
					<path style="fill:#88D3CC;" d="M376.746,363.063c-0.174-0.574-0.335-1.152-0.484-1.732c-0.149-0.584-0.286-1.181-0.416-1.777
						c-0.262-1.186-0.486-2.427-0.71-3.677c-0.461-2.513-0.917-5.124-1.526-7.874c2.282,0.764,4.923,1.562,7.431,2.719
						c1.281,0.56,2.493,1.223,3.683,1.942c0.594,0.361,1.139,0.759,1.684,1.167c0.539,0.411,1.071,0.836,1.536,1.299
						c0.969,0.908,1.859,1.941,2.655,3.061c0.798,1.118,1.511,2.309,2.125,3.541c1.218,2.457,1.985,5.072,2.34,7.464
						c0.412,3.062,0.125,5.673-0.425,7.884c-0.271,1.109-0.638,2.12-0.964,3.057c-0.377,0.931-0.726,1.796-1.053,2.604
						c-0.784-0.843-1.704-1.825-2.516-2.612c-0.821-0.79-1.487-1.402-1.698-1.594c-2.839-2.524-5.32-4.759-7.278-7.169
						c-0.492-0.604-0.95-1.216-1.375-1.844c-0.427-0.635-0.821-1.289-1.185-1.966c-0.363-0.674-0.696-1.385-1-2.133
						C377.267,364.676,376.992,363.903,376.746,363.063z"/>
				</g>
			</g>
			<g>
				<g>
					<path style="fill:#FFFFFF;" d="M381.824,359.794c0.091-0.054,0.568,0.443,1.357,1.393c0.195,0.239,0.412,0.505,0.649,0.796
						c0.229,0.295,0.462,0.628,0.718,0.975c0.504,0.702,1.102,1.492,1.672,2.411c0.292,0.454,0.598,0.93,0.917,1.425
						c0.315,0.497,0.606,1.03,0.926,1.576c0.65,1.081,1.247,2.276,1.885,3.528c1.215,2.522,2.377,5.348,3.292,8.393
						c0.893,3.049,1.426,6.006,1.699,8.72c0.048,0.677,0.108,1.344,0.138,1.987c0.03,0.643,0.048,1.269,0.038,1.875
						c0.001,0.608-0.002,1.188-0.033,1.75c-0.041,0.559-0.068,1.101-0.116,1.612c-0.078,1.023-0.224,1.949-0.365,2.751
						c-0.073,0.401-0.135,0.777-0.209,1.119c-0.085,0.34-0.162,0.65-0.231,0.93c-0.312,1.107-0.535,1.704-0.642,1.676
						c-0.124-0.031-0.078-0.674,0.033-1.808c0.093-1.141,0.246-2.775,0.289-4.795c0.014-0.502,0.013-1.033,0.013-1.583
						c-0.001-0.55-0.038-1.122-0.058-1.712c-0.043-1.188-0.17-2.44-0.32-3.765c-0.167-1.316-0.407-2.702-0.692-4.116
						c-0.302-1.425-0.653-2.88-1.091-4.368c-0.892-2.966-1.984-5.729-3.104-8.225c-0.587-1.23-1.129-2.424-1.717-3.501
						c-0.287-0.539-0.547-1.078-0.829-1.579c-0.283-0.5-0.554-0.981-0.813-1.439C383.129,362.151,381.615,359.913,381.824,359.794z"
						/>
				</g>
			</g>
		</g>
		<g>
			<g>
				<path style="fill:#88D3CC;" d="M202.352,261.882c-5.399-2.121-11.495-2.381-17.491-2.62c1.327,4.997,2.683,10.062,5.285,14.292
					c2.602,4.23,7.227,7.466,11.768,9.255c2.887,1.139,5.524,1.964,7.894,2.53c2.376,0.571,4.524,0.913,6.526,1.137
					c-0.377-2.487-1.078-5.966-1.205-6.607c-0.415-2.137-0.949-4.138-1.616-5.983c-0.666-1.843-1.476-3.535-2.478-5.057
					C209.034,265.785,206.265,263.419,202.352,261.882z"/>
			</g>
			<g>
				<g>
					<path style="fill:#FFFFFF;" d="M274.191,417.397c0.052-0.019-0.132-0.602-0.528-1.69c-0.4-1.087-0.995-2.684-1.812-4.716
						c-0.439-1.006-0.88-2.14-1.347-3.385c-0.232-0.622-0.473-1.272-0.724-1.948c-0.262-0.672-0.534-1.37-0.816-2.092
						c-0.566-1.442-1.17-2.981-1.812-4.617c-0.618-1.643-1.258-3.38-1.952-5.197c-2.82-7.25-6.017-15.921-9.678-25.515
						c-0.871-2.414-1.796-4.879-2.738-7.397c-0.477-1.256-0.959-2.528-1.43-3.817c-0.469-1.29-0.943-2.593-1.421-3.907
						c-0.484-1.313-0.973-2.637-1.465-3.972c-0.491-1.335-1.005-2.677-1.479-4.043c-0.977-2.724-1.969-5.488-2.973-8.286
						c-1.014-2.797-1.942-5.586-2.906-8.322c-0.477-1.369-0.95-2.728-1.42-4.076c-0.451-1.352-0.896-2.687-1.345-3.996
						c-0.894-2.623-1.798-5.158-2.758-7.585c-0.927-2.439-1.912-4.771-2.984-6.972c-1.085-2.193-2.208-4.28-3.434-6.215
						c-1.225-1.933-2.551-3.717-3.967-5.38c-1.388-1.683-2.847-3.245-4.316-4.704c-0.737-0.727-1.473-1.432-2.208-2.111
						c-0.726-0.69-1.446-1.359-2.162-2.004c-2.848-2.596-5.59-4.827-7.908-6.896c-1.171-1.02-2.262-1.969-3.265-2.842
						c-0.503-0.435-0.984-0.852-1.443-1.249c-0.451-0.406-0.88-0.793-1.287-1.158c-1.628-1.461-2.901-2.587-3.776-3.337
						c-0.875-0.75-1.353-1.124-1.39-1.082c-0.037,0.041,0.369,0.496,1.175,1.325c0.806,0.828,2.014,2.031,3.581,3.567
						c0.392,0.383,0.807,0.788,1.242,1.214c0.445,0.414,0.912,0.849,1.4,1.303c0.979,0.906,2.042,1.89,3.184,2.947
						c2.268,2.139,4.958,4.432,7.74,7.066c0.7,0.654,1.402,1.331,2.109,2.028c0.717,0.685,1.432,1.394,2.148,2.124
						c1.428,1.461,2.839,3.017,4.171,4.685c1.364,1.645,2.628,3.393,3.794,5.286c1.17,1.896,2.243,3.942,3.287,6.098
						c1.033,2.163,1.984,4.463,2.882,6.879c0.936,2.401,1.821,4.92,2.698,7.537c0.443,1.305,0.883,2.64,1.33,3.994
						c0.467,1.351,0.938,2.713,1.412,4.084c0.961,2.742,1.887,5.534,2.902,8.334c1.007,2.798,2.002,5.564,2.983,8.289
						c0.476,1.366,0.994,2.708,1.489,4.042c0.497,1.334,0.99,2.658,1.479,3.969c0.484,1.312,0.963,2.613,1.438,3.901
						c0.478,1.287,0.967,2.557,1.451,3.81c0.96,2.512,1.902,4.971,2.789,7.378c3.738,9.565,7.044,18.191,10.002,25.392
						c0.722,1.808,1.409,3.529,2.059,5.158c0.34,0.811,0.669,1.598,0.989,2.36c0.324,0.763,0.637,1.502,0.94,2.216
						c0.303,0.715,0.596,1.406,0.878,2.071c0.273,0.668,0.536,1.31,0.788,1.925c0.51,1.229,0.996,2.348,1.48,3.339
						c0.905,2.001,1.597,3.563,2.095,4.614C273.854,416.872,274.139,417.417,274.191,417.397z"/>
				</g>
			</g>
			<g>
				<g>
					<path style="fill:#88D3CC;" d="M242.225,266.825c-0.206-0.704-0.44-1.423-0.681-2.119c-0.24-0.692-0.497-1.386-0.769-2.084
						c-0.263-0.681-0.539-1.362-0.827-2.051c-0.286-0.684-0.566-1.347-0.863-2.032c-1.13-2.693-2.273-5.351-3.149-8.034
						c-1.555,1.838-3.389,3.897-4.921,6.206c-0.8,1.152-1.486,2.359-2.118,3.607c-0.315,0.624-0.571,1.255-0.822,1.895
						c-0.244,0.639-0.476,1.286-0.626,1.939c-0.69,2.613-0.822,5.511-0.573,8.384c0.262,2.867,0.954,5.67,1.807,8.135
						c1.129,3.136,2.509,5.601,3.855,7.709c0.341,0.52,0.676,1.032,1.009,1.517c0.168,0.242,0.332,0.48,0.494,0.713
						c0.159,0.237,0.314,0.471,0.466,0.699c0.162,0.226,0.322,0.448,0.478,0.667c0.154,0.22,0.298,0.441,0.443,0.656
						c0.288,0.431,0.565,0.846,0.82,1.253c0.574-1.052,1.202-2.303,1.763-3.36c0.571-1.06,1.014-1.912,1.15-2.172
						c0.474-0.874,0.917-1.74,1.327-2.602c0.205-0.431,0.401-0.861,0.588-1.291c0.185-0.425,0.361-0.849,0.528-1.273
						c0.333-0.849,0.627-1.701,0.876-2.56c0.249-0.86,0.45-1.704,0.602-2.574C243.697,274.582,243.471,270.948,242.225,266.825z"/>
				</g>
			</g>
			<g>
				<g>
					<path style="fill:#FFFFFF;" d="M235.413,265.485c-0.116-0.013-0.246,0.697-0.393,2.009c-0.035,0.327-0.075,0.69-0.117,1.087
						c-0.034,0.398-0.053,0.829-0.082,1.295c-0.043,0.941-0.128,2.007-0.13,3.179c-0.008,0.595-0.019,1.217-0.037,1.86
						c-0.013,0.645,0.011,1.308,0.009,2.011c-0.009,0.698,0.003,1.416,0.02,2.15c0.016,0.745,0.036,1.509,0.043,2.284
						c0.093,3.118,0.211,6.528,0.251,10.01c0.064,3.487-0.005,6.645-0.109,9.42c-0.009,0.693-0.026,1.359-0.059,2.01
						c-0.03,0.651-0.038,1.263-0.051,1.865c-0.015,0.6-0.052,1.175-0.051,1.719c-0.007,0.546-0.014,1.07-0.02,1.571
						c-0.013,0.495-0.017,0.969-0.011,1.414c0.009,0.441,0.017,0.859,0.024,1.248c0.005,0.392,0.003,0.755,0.018,1.086
						c0.024,0.329,0.046,0.63,0.065,0.901c0.075,1.089,0.165,1.675,0.274,1.663c0.125-0.015,0.214-0.623,0.333-1.728
						c0.059-0.553,0.113-1.22,0.185-2.008c0.065-0.791,0.138-1.689,0.219-2.677c0.036-0.5,0.074-1.024,0.114-1.569
						c0.043-0.552,0.099-1.121,0.141-1.72c0.016-0.299,0.038-0.604,0.064-0.916c0.022-0.312,0.044-0.628,0.067-0.948
						c0.042-0.642,0.109-1.32,0.129-2.006c0.191-2.769,0.318-5.908,0.269-9.37c-0.016-3.469-0.168-6.859-0.333-9.952
						c-0.023-0.782-0.066-1.531-0.105-2.264c-0.04-0.733-0.078-1.461-0.097-2.142c-0.026-0.687-0.082-1.358-0.102-2.004
						c-0.019-0.643-0.041-1.251-0.066-1.841c-0.087-2.368-0.156-4.255-0.204-5.572C235.609,266.238,235.541,265.492,235.413,265.485
						z"/>
				</g>
			</g>
			<g>
				<g>
					<path style="fill:#88D3CC;" d="M262.167,300.919c0.366-2.737,0.385-5.642,0.167-8.807c-0.205-3.151-0.651-6.553-1.221-10.183
						c-2.038,1.282-4.418,2.68-6.523,4.495c-1.092,0.886-2.064,1.885-3.014,2.938c-0.475,0.526-0.892,1.086-1.31,1.651
						c-0.41,0.568-0.811,1.147-1.139,1.754c-1.387,2.404-2.427,5.243-3.208,8.037c-0.774,2.806-1.236,5.588-1.411,8.067
						c-0.189,3.164,0.143,5.747,0.686,7.956c0.266,1.103,0.612,2.115,0.916,3.048c0.345,0.938,0.678,1.8,0.961,2.615
						c0.811-0.848,1.743-1.84,2.57-2.648c0.844-0.81,1.51-1.448,1.715-1.645c1.42-1.315,2.753-2.563,3.949-3.834
						c1.199-1.267,2.283-2.531,3.205-3.875C260.37,307.804,261.645,304.88,262.167,300.919z"/>
				</g>
			</g>
			<g>
				<g>
					<path style="fill:#FFFFFF;" d="M256.461,297.402c-0.108-0.058-0.467,0.581-1.098,1.739c-0.155,0.29-0.327,0.613-0.515,0.966
						c-0.18,0.356-0.359,0.75-0.56,1.167c-0.393,0.839-0.893,1.765-1.346,2.821c-0.232,0.526-0.49,1.068-0.76,1.629
						c-0.266,0.563-0.507,1.159-0.777,1.765c-0.28,0.602-0.555,1.226-0.825,1.87c-0.269,0.645-0.542,1.305-0.837,1.973
						c-1.095,2.702-2.23,5.624-3.208,8.694c-0.955,3.071-1.635,6.016-2.093,8.706c-0.197,1.346-0.403,2.624-0.493,3.82
						c-0.052,0.598-0.122,1.175-0.15,1.729c-0.024,0.554-0.046,1.085-0.068,1.592c-0.058,1.014-0.023,1.926-0.012,2.726
						c0.01,0.4,0.014,0.772,0.034,1.113c0.03,0.34,0.057,0.65,0.082,0.929c0.11,1.115,0.223,1.721,0.333,1.709
						c0.251-0.029,0.274-2.508,0.682-6.512c0.054-0.5,0.11-1.025,0.168-1.571c0.059-0.546,0.159-1.114,0.238-1.702
						c0.145-1.176,0.395-2.43,0.628-3.749c0.529-2.636,1.236-5.516,2.175-8.525c0.961-3.007,2.037-5.881,3.054-8.549
						c0.264-0.667,0.522-1.321,0.772-1.953c0.246-0.639,0.487-1.264,0.742-1.863c0.25-0.601,0.465-1.195,0.694-1.762
						c0.231-0.569,0.454-1.115,0.666-1.637c0.837-2.104,1.522-3.853,1.951-5.099c0.218-0.621,0.381-1.111,0.475-1.453
						C256.5,297.629,256.521,297.433,256.461,297.402z"/>
				</g>
			</g>
			<g>
				<g>
					<path style="fill:#88D3CC;" d="M274.708,330.727c0.686-2.315,1.145-4.686,1.593-7.117c0.472-2.41,0.939-4.909,1.614-7.419
						c-2.268,0.807-4.89,1.665-7.388,2.855c-1.276,0.578-2.484,1.253-3.666,1.987c-0.591,0.367-1.134,0.768-1.677,1.179
						c-0.537,0.414-1.067,0.842-1.532,1.303c-1.932,1.819-3.532,4.138-4.753,6.579c-1.206,2.448-1.968,5.04-2.331,7.409
						c-0.427,3.032-0.179,5.601,0.309,7.796c0.239,1.1,0.564,2.112,0.855,3.049c0.33,0.94,0.655,1.809,0.927,2.629
						c0.822-0.838,1.767-1.815,2.604-2.612c0.844-0.798,1.526-1.425,1.739-1.618c2.888-2.567,5.392-4.917,7.35-7.434
						C272.319,336.795,273.74,334.097,274.708,330.727z"/>
				</g>
			</g>
			<g>
				<g>
					<path style="fill:#FFFFFF;" d="M269.679,327.706c-0.09-0.049-0.562,0.46-1.342,1.426c-0.193,0.243-0.407,0.513-0.642,0.808
						c-0.227,0.3-0.457,0.633-0.711,0.989c-0.499,0.715-1.089,1.521-1.654,2.452c-0.289,0.462-0.593,0.947-0.909,1.451
						c-0.313,0.507-0.601,1.046-0.92,1.602c-0.649,1.105-1.247,2.319-1.892,3.591c-0.615,1.281-1.221,2.637-1.802,4.054
						c-0.584,1.42-1.141,2.9-1.652,4.426c-0.991,3.054-1.722,6.004-2.227,8.68c-0.218,1.34-0.456,2.615-0.574,3.808
						c-0.066,0.596-0.15,1.171-0.191,1.723c-0.037,0.551-0.072,1.081-0.106,1.586c-0.08,1.009-0.075,1.921-0.087,2.718
						c-0.002,0.399-0.009,0.77,0.001,1.11c0.02,0.339,0.038,0.649,0.055,0.928c0.077,1.113,0.171,1.72,0.281,1.711
						c0.25-0.021,0.354-2.487,0.87-6.476c0.065-0.498,0.134-1.02,0.205-1.564c0.072-0.544,0.185-1.109,0.277-1.695
						c0.171-1.172,0.454-2.423,0.709-3.738c0.572-2.622,1.335-5.511,2.306-8.506c1-2.992,2.145-5.817,3.274-8.352
						c0.596-1.26,1.139-2.468,1.727-3.573c0.288-0.555,0.546-1.099,0.826-1.609c0.28-0.51,0.549-0.999,0.806-1.466
						C268.389,330.063,269.887,327.817,269.679,327.706z"/>
				</g>
			</g>
			<g>
				<g>
					<path style="fill:#88D3CC;" d="M279.203,363.71c0.086-2.375-0.058-4.759-0.248-7.208c-0.084-1.216-0.174-2.449-0.242-3.702
						c-0.068-1.254-0.116-2.526-0.124-3.809c-2.041,1.246-4.42,2.608-6.592,4.265c-1.118,0.818-2.144,1.713-3.129,2.658
						c-0.492,0.473-0.928,0.968-1.362,1.471c-0.427,0.505-0.843,1.021-1.186,1.556c-0.726,1.064-1.334,2.227-1.841,3.448
						c-0.509,1.222-0.912,2.498-1.212,3.782c-0.575,2.569-0.703,5.183-0.484,7.511c0.079,0.742,0.198,1.447,0.338,2.122
						c0.138,0.675,0.305,1.318,0.494,1.93c0.379,1.224,0.849,2.328,1.356,3.332c0.503,1.007,1.057,1.921,1.569,2.767
						c0.549,0.844,1.077,1.621,1.542,2.362c0.626-0.945,1.344-2.049,1.995-2.962c0.658-0.916,1.193-1.641,1.36-1.865
						c0.572-0.747,1.123-1.478,1.648-2.199c0.523-0.719,1.016-1.425,1.483-2.126c0.933-1.402,1.751-2.783,2.424-4.186
						c0.338-0.702,0.642-1.412,0.902-2.13c0.259-0.717,0.48-1.447,0.664-2.198C278.926,367.028,279.143,365.442,279.203,363.71z"/>
				</g>
			</g>
			<g>
				<g>
					<path style="fill:#FFFFFF;" d="M273.412,361.774c-0.102-0.029-0.443,0.554-0.974,1.635c-0.13,0.271-0.275,0.573-0.434,0.902
						c-0.149,0.332-0.294,0.697-0.456,1.088c-0.312,0.782-0.701,1.673-1.035,2.677c-0.174,0.5-0.357,1.024-0.548,1.57
						c-0.187,0.546-0.341,1.121-0.521,1.712c-0.375,1.182-0.664,2.454-1.008,3.796c-0.616,2.689-1.113,5.644-1.436,8.754
						c-0.071,0.776-0.126,1.542-0.166,2.295c-0.038,0.752-0.066,1.494-0.09,2.224c-0.042,1.458-0.031,2.857,0.02,4.183
						c0.091,1.321,0.125,2.585,0.273,3.75c0.065,0.583,0.109,1.149,0.191,1.686c0.085,0.536,0.168,1.051,0.246,1.542
						c0.137,0.985,0.336,1.863,0.498,2.634c0.085,0.385,0.157,0.744,0.241,1.071c0.094,0.324,0.179,0.621,0.256,0.888
						c0.319,1.064,0.547,1.637,0.655,1.612c0.247-0.057-0.188-2.457-0.528-6.385c-0.045-0.49-0.092-1.004-0.142-1.539
						c-0.048-0.535-0.061-1.097-0.098-1.676c-0.092-1.155-0.073-2.407-0.123-3.711c-0.025-2.617,0.092-5.519,0.354-8.565
						c0.148-1.524,0.355-3.02,0.568-4.458c0.213-1.438,0.458-2.828,0.719-4.153c0.144-0.662,0.286-1.309,0.422-1.936
						c0.135-0.626,0.273-1.233,0.43-1.819c0.149-0.586,0.272-1.157,0.424-1.701c0.153-0.544,0.301-1.067,0.441-1.566
						c0.58-1.999,1.086-3.607,1.426-4.728C273.359,362.438,273.53,361.807,273.412,361.774z"/>
				</g>
			</g>
			<g>
				<g>
					<path style="fill:#88D3CC;" d="M194.974,305.868c-0.55-0.032-1.117-0.089-1.671-0.15c-0.554-0.062-1.141-0.156-1.709-0.246
						c-1.153-0.191-2.335-0.434-3.52-0.675c-2.369-0.461-4.802-0.949-7.342-1.259c1.558-1.832,3.29-3.978,5.281-5.881
						c0.99-0.984,2.043-1.867,3.142-2.703c0.549-0.418,1.112-0.778,1.684-1.135c0.572-0.35,1.154-0.688,1.744-0.952
						c2.36-1.134,5.057-1.767,7.731-1.993c2.68-0.206,5.278,0.027,7.472,0.546c2.791,0.701,4.839,1.877,6.379,3.143
						c0.385,0.316,0.731,0.645,1.065,0.97c0.329,0.326,0.623,0.652,0.914,0.96c0.286,0.326,0.53,0.649,0.782,0.954
						c0.253,0.306,0.479,0.603,0.704,0.883c-0.526,0.179-1.079,0.374-1.639,0.582c-0.56,0.207-1.112,0.423-1.612,0.636
						c-0.999,0.431-1.799,0.804-2.044,0.921c-0.813,0.402-1.606,0.793-2.385,1.178c-0.761,0.372-1.507,0.737-2.247,1.099
						c-1.472,0.695-2.845,1.319-4.216,1.815C200.75,305.557,198.154,306.075,194.974,305.868z"/>
				</g>
			</g>
			<g>
				<g>
					<path style="fill:#FFFFFF;" d="M194.215,300.108c-0.014-0.105,0.629-0.351,1.779-0.731c0.288-0.092,0.609-0.194,0.959-0.306
						c0.35-0.103,0.738-0.195,1.144-0.305c0.806-0.215,1.746-0.474,2.755-0.679c0.507-0.108,1.038-0.222,1.591-0.341
						c0.549-0.116,1.112-0.2,1.704-0.303c0.596-0.108,1.189-0.201,1.811-0.28c0.614-0.073,1.25-0.149,1.902-0.227
						c2.584-0.238,5.371-0.316,8.198-0.018c2.808,0.321,5.366,1.008,7.564,1.93c0.137,0.061,0.272,0.121,0.407,0.181
						c0.131,0.063,0.261,0.125,0.391,0.187c0.26,0.128,0.517,0.253,0.77,0.378c0.505,0.256,0.968,0.539,1.419,0.826
						c0.458,0.277,0.883,0.571,1.286,0.868c0.198,0.153,0.392,0.303,0.582,0.45c0.185,0.154,0.366,0.305,0.543,0.453
						c0.358,0.293,0.695,0.581,0.989,0.879c0.293,0.301,0.569,0.585,0.827,0.85c0.26,0.266,0.492,0.524,0.696,0.77
						c0.196,0.253,0.376,0.483,0.537,0.691c0.628,0.847,0.915,1.363,0.827,1.423c-0.106,0.076-0.545-0.331-1.317-1.044
						c-0.395-0.348-0.86-0.784-1.419-1.258c-0.568-0.465-1.196-1-1.937-1.519c-0.371-0.259-0.743-0.54-1.156-0.799
						c-0.409-0.263-0.851-0.51-1.297-0.767c-0.45-0.253-0.925-0.491-1.413-0.724c-0.497-0.225-1.018-0.435-1.534-0.654
						c-2.148-0.804-4.619-1.405-7.32-1.699c-2.71-0.273-5.386-0.222-7.88-0.051c-0.628,0.058-1.242,0.114-1.837,0.169
						c-0.603,0.058-1.19,0.122-1.757,0.208c-0.564,0.08-1.128,0.131-1.659,0.218c-0.267,0.044-0.528,0.087-0.784,0.129
						c-0.26,0.04-0.515,0.08-0.763,0.119c-1.006,0.172-1.91,0.326-2.704,0.462c-0.797,0.145-1.506,0.263-2.083,0.358
						C194.885,300.147,194.227,300.226,194.215,300.108z"/>
				</g>
			</g>
			<g>
				<g>
					<path style="fill:#88D3CC;" d="M207.311,317.417c-1.469-0.241-2.681-0.384-3.794-0.325c-1.125,0.084-2.349,0.139-3.842,0.292
						c0.873-0.818,1.812-1.697,2.794-2.586c0.977-0.89,1.999-1.786,3.057-2.629c1.064-0.867,2.156-1.647,3.269-2.373
						c0.552-0.363,1.097-0.676,1.654-0.979c0.552-0.298,1.124-0.581,1.662-0.798c2.192-0.929,4.486-1.356,6.685-1.191
						c2.192,0.179,4.219,1.048,5.811,2.224c2.01,1.534,3.2,3.467,3.946,5.313c0.189,0.461,0.347,0.921,0.483,1.383
						c0.137,0.46,0.262,0.898,0.376,1.335c0.195,0.901,0.376,1.738,0.546,2.52c-0.556-0.099-1.155-0.205-1.752-0.303
						c-0.598-0.094-1.194-0.174-1.743-0.236c-1.105-0.117-1.982-0.191-2.257-0.205c-1.844-0.088-3.561-0.173-5.17-0.23
						c-1.605-0.083-3.102-0.132-4.485-0.257c-1.392-0.087-2.669-0.248-3.868-0.404c-0.3-0.039-0.592-0.103-0.883-0.136
						c-0.29-0.039-0.576-0.082-0.856-0.131C208.383,317.588,207.837,317.521,207.311,317.417z"/>
				</g>
			</g>
			<g>
				<g>
					<path style="fill:#FFFFFF;" d="M209.889,313.406c0.048-0.072,0.6-0.256,1.607-0.486c0.251-0.053,0.534-0.12,0.842-0.172
						c0.304-0.045,0.629-0.078,0.984-0.114c0.353-0.033,0.738-0.069,1.146-0.095c0.407-0.02,0.832-0.017,1.275,0.003
						c0.445,0.02,0.921,0.027,1.413,0.076c0.491,0.049,0.985,0.135,1.514,0.216c0.267,0.036,0.534,0.087,0.802,0.15
						c0.269,0.06,0.54,0.127,0.816,0.198c0.275,0.071,0.555,0.148,0.839,0.227c0.282,0.09,0.568,0.182,0.858,0.274
						c2.293,0.791,4.755,2.038,7.152,3.755c2.381,1.732,4.46,3.739,6.221,5.708c0.855,1.002,1.681,1.969,2.371,2.929
						c0.351,0.477,0.706,0.928,1.013,1.382c0.304,0.456,0.595,0.894,0.874,1.312c0.57,0.827,1.004,1.622,1.404,2.308
						c0.195,0.345,0.382,0.663,0.538,0.964c0.148,0.305,0.282,0.584,0.404,0.835c0.474,1.008,0.688,1.586,0.589,1.636
						c-0.229,0.113-1.507-1.983-3.899-5.155c-0.302-0.394-0.618-0.807-0.947-1.238c-0.33-0.43-0.705-0.856-1.073-1.31
						c-0.363-0.459-0.757-0.916-1.169-1.38c-0.412-0.466-0.843-0.938-1.278-1.416c-1.792-1.886-3.854-3.82-6.175-5.513
						c-2.338-1.678-4.704-2.93-6.892-3.775c-0.559-0.193-1.094-0.386-1.617-0.55c-0.527-0.153-1.038-0.289-1.54-0.399
						c-0.123-0.029-0.246-0.058-0.368-0.086c-0.122-0.024-0.243-0.048-0.362-0.072c-0.239-0.046-0.473-0.089-0.706-0.123
						c-0.468-0.063-0.908-0.137-1.333-0.165c-1.697-0.153-3.05-0.069-3.959-0.001C210.314,313.43,209.838,313.492,209.889,313.406z"
						/>
				</g>
			</g>
			<g>
				<g>
					<path style="fill:#88D3CC;" d="M219.753,346.534c-1.743-1.541-3.331-3.255-4.941-5.028c-1.624-1.75-3.294-3.577-5.149-5.312
						c2.333-0.573,4.992-1.299,7.716-1.676c1.376-0.218,2.744-0.317,4.121-0.352c0.688-0.017,1.353,0.021,2.023,0.067
						c0.666,0.052,1.334,0.119,1.963,0.251c2.567,0.466,5.105,1.531,7.383,2.912c2.273,1.397,4.226,3.156,5.732,4.955
						c1.896,2.322,2.955,4.625,3.634,6.742c0.342,1.059,0.555,2.088,0.765,3.035c0.178,0.971,0.324,1.878,0.492,2.717
						c-1.117-0.277-2.409-0.604-3.518-0.833c-1.116-0.226-2.007-0.391-2.285-0.44c-3.732-0.623-7.034-1.246-9.951-2.284
						C224.814,350.254,222.263,348.792,219.753,346.534z"/>
				</g>
			</g>
			<g>
				<g>
					<path style="fill:#FFFFFF;" d="M222.508,341.297c0.052-0.09,0.71,0.076,1.861,0.455c0.287,0.097,0.605,0.205,0.954,0.324
						c0.344,0.126,0.709,0.279,1.104,0.438c0.785,0.326,1.692,0.674,2.641,1.143c0.479,0.229,0.981,0.468,1.504,0.718
						c0.521,0.253,1.039,0.549,1.588,0.84c1.106,0.571,2.226,1.265,3.406,1.982c2.32,1.483,4.782,3.249,7.148,5.289
						c1.176,1.029,2.281,2.076,3.304,3.121c1.018,1.045,1.96,2.087,2.824,3.104c0.839,1.036,1.646,2.013,2.307,2.985
						c0.338,0.482,0.68,0.937,0.976,1.396c0.292,0.46,0.572,0.902,0.839,1.324c0.55,0.835,0.96,1.638,1.334,2.331
						c0.183,0.349,0.359,0.671,0.506,0.975c0.137,0.308,0.263,0.59,0.376,0.843c0.441,1.018,0.636,1.6,0.535,1.645
						c-0.236,0.108-1.436-2.026-3.732-5.234c-0.291-0.398-0.596-0.816-0.914-1.251c-0.318-0.434-0.681-0.865-1.037-1.323
						c-0.699-0.924-1.526-1.856-2.383-2.848c-1.76-1.948-3.789-4.008-6.101-6.022c-2.319-1.997-4.693-3.755-6.922-5.269
						c-1.135-0.732-2.197-1.448-3.253-2.053c-0.523-0.307-1.015-0.621-1.509-0.895c-0.495-0.273-0.97-0.535-1.423-0.786
						C224.8,342.556,222.385,341.501,222.508,341.297z"/>
				</g>
			</g>
			<g>
				<g>
					<path style="fill:#88D3CC;" d="M234.69,380.055c-1.655-1.547-3.18-3.242-4.708-4.994c-0.768-0.862-1.557-1.741-2.377-2.617
						c-0.818-0.875-1.663-1.747-2.556-2.597c2.341-0.531,5.012-1.205,7.738-1.535c1.378-0.193,2.744-0.269,4.118-0.28
						c0.687-0.005,1.349,0.043,2.016,0.1c0.663,0.063,1.327,0.141,1.952,0.283c2.553,0.505,5.038,1.615,7.267,3.044
						c2.227,1.441,4.097,3.252,5.53,5.092c0.448,0.593,0.849,1.184,1.2,1.77c0.347,0.587,0.651,1.169,0.918,1.743
						c0.533,1.148,0.917,2.266,1.206,3.331c0.287,1.067,0.442,2.102,0.602,3.053c0.126,0.974,0.223,1.882,0.345,2.722
						c-1.101-0.334-2.373-0.724-3.467-1.005c-1.101-0.279-1.981-0.484-2.255-0.546c-1.849-0.397-3.573-0.783-5.209-1.21
						c-1.636-0.427-3.164-0.896-4.593-1.459c-1.435-0.563-2.759-1.219-4.033-2.019C237.106,382.131,235.888,381.188,234.69,380.055z
						"/>
				</g>
			</g>
			<g>
				<g>
					<path style="fill:#FFFFFF;" d="M237.659,375.022c0.055-0.086,0.705,0.091,1.839,0.491c0.283,0.103,0.596,0.217,0.94,0.342
						c0.338,0.133,0.698,0.292,1.083,0.458c0.766,0.34,1.656,0.711,2.581,1.202c0.468,0.24,0.958,0.492,1.469,0.754
						c0.509,0.267,1.013,0.575,1.549,0.88c0.54,0.301,1.083,0.632,1.632,0.982c0.546,0.351,1.101,0.721,1.673,1.099
						c2.245,1.559,4.619,3.411,6.865,5.558c1.115,1.081,2.176,2.177,3.125,3.276c0.954,1.098,1.832,2.191,2.635,3.257
						c0.782,1.081,1.512,2.11,2.111,3.124c0.305,0.503,0.618,0.981,0.883,1.458c0.261,0.48,0.512,0.94,0.751,1.379
						c0.499,0.871,0.835,1.706,1.163,2.426c0.158,0.362,0.31,0.697,0.435,1.012c0.115,0.318,0.22,0.609,0.315,0.871
						c0.367,1.05,0.52,1.647,0.415,1.685c-0.243,0.091-1.289-2.138-3.344-5.503c-0.264-0.417-0.542-0.854-0.83-1.309
						c-0.289-0.454-0.623-0.908-0.948-1.388c-0.642-0.966-1.391-1.951-2.192-2.988c-1.647-2.043-3.53-4.21-5.739-6.32
						c-1.108-1.048-2.22-2.034-3.332-2.955c-1.12-0.92-2.228-1.776-3.302-2.567c-1.1-0.768-2.113-1.514-3.145-2.145
						c-0.509-0.32-0.986-0.646-1.467-0.931c-0.482-0.284-0.944-0.557-1.386-0.818C239.899,376.296,237.529,375.222,237.659,375.022z
						"/>
				</g>
			</g>
		</g>
	</g>
	<g>
		<path style="fill:#4779C4;" d="M328.416,160.47l-24.63-0.977l20.019,16.677c2.723,2.268,6.5,2.268,9.223,0l20.019-16.677
			L328.416,160.47z"/>
	</g>
	<g>
		<path style="fill:#4779C4;" d="M380.973,157.542H275.859c-6.914,0-12.572,5.657-12.572,12.572v234.919
			c0,6.915,5.657,12.572,12.572,12.572h105.115c6.914,0,12.572-5.657,12.572-12.572V170.114
			C393.545,163.2,387.888,157.542,380.973,157.542z"/>
		<path style="fill:#E7F4F7;" d="M380.973,162.505H275.859c-4.196,0-7.609,3.413-7.609,7.609v234.919
			c0,4.196,3.414,7.609,7.609,7.609h105.115c4.196,0,7.609-3.414,7.609-7.609V170.114
			C388.582,165.919,385.169,162.505,380.973,162.505z"/>
		<g>
			<circle style="fill:#FCFCFC;" cx="328.416" cy="168.874" r="3.469"/>
		</g>
		<g>
			<path style="fill:#B5E0EA;" d="M378.271,204.191h-96.208c-2.873,0-5.223,2.35-5.223,5.223v60.549c0,2.872,2.35,5.223,5.223,5.223
				h96.208c2.872,0,5.223-2.35,5.223-5.223v-60.549C383.493,206.542,381.143,204.191,378.271,204.191z"/>
			<path style="fill:#FFFFFF;" d="M377.414,200.922H279.65c-2.445,0-4.445,2-4.445,4.445v62.105c0,2.445,2,4.445,4.445,4.445h97.764
				c2.445,0,4.445-2,4.445-4.445v-62.105C381.859,202.922,379.858,200.922,377.414,200.922z"/>
			<path style="fill:#FF7BB7;" d="M351.991,230.46h-18.633c-0.398,0-0.723,0.325-0.723,0.723v9.521c0,0.398,0.326,0.723,0.723,0.723
				h18.633c0.398,0,0.723-0.325,0.723-0.723v-9.521C352.715,230.786,352.389,230.46,351.991,230.46z"/>
			<g>
				<g>
					<g>
						<rect x="292.898" y="200.515" style="fill:#6C8AF4;" width="0.58" height="71.553"/>
					</g>
					<g>
						<rect x="312.783" y="200.515" style="fill:#6C8AF4;" width="0.58" height="71.553"/>
					</g>
					<g>
						<rect x="332.667" y="200.515" style="fill:#6C8AF4;" width="0.58" height="71.553"/>
					</g>
					<g>
						<rect x="352.552" y="200.515" style="fill:#6C8AF4;" width="0.58" height="71.553"/>
					</g>
					<g>
						<rect x="371.543" y="200.515" style="fill:#6C8AF4;" width="0.58" height="71.553"/>
					</g>
					<g>
						<rect x="274.921" y="206.024" style="fill:#6C8AF4;" width="106.99" height="0.58"/>
					</g>
					<g>
						<rect x="274.921" y="218.163" style="fill:#6C8AF4;" width="106.99" height="0.58"/>
					</g>
					<g>
						<rect x="274.921" y="229.982" style="fill:#6C8AF4;" width="106.99" height="0.58"/>
					</g>
					<g>
						<rect x="274.921" y="241.482" style="fill:#6C8AF4;" width="106.99" height="0.58"/>
					</g>
					<g>
						<rect x="274.921" y="252.981" style="fill:#6C8AF4;" width="106.99" height="0.58"/>
					</g>
					<g>
						<rect x="274.921" y="264.481" style="fill:#6C8AF4;" width="106.99" height="0.58"/>
					</g>
				</g>
				<text transform="matrix(1 0 0 1 294.8068 209.4954)" style="fill:#6C8AF4; font-family:'ActionMan-Bold'; font-size:3.7715px;">1</text>
				<text transform="matrix(1 0 0 1 315.1134 209.4954)" style="fill:#6C8AF4; font-family:'ActionMan-Bold'; font-size:3.7715px;">2</text>
				<text transform="matrix(1 0 0 1 335.4201 209.4954)" style="fill:#6C8AF4; font-family:'ActionMan-Bold'; font-size:3.7715px;">3</text>
				<text transform="matrix(1 0 0 1 354.8634 209.4954)" style="fill:#6C8AF4; font-family:'ActionMan-Bold'; font-size:3.7715px;">4</text>
				<text transform="matrix(1 0 0 1 374.091 209.4954)" style="fill:#6C8AF4; font-family:'ActionMan-Bold'; font-size:3.7715px;">5</text>
				<text transform="matrix(1 0 0 1 294.8068 222.0374)" style="fill:#6C8AF4; font-family:'ActionMan-Bold'; font-size:3.7715px;">7</text>
				<text transform="matrix(1 0 0 1 277.3322 222.0374)" style="fill:#6C8AF4; font-family:'ActionMan-Bold'; font-size:3.7715px;">6</text>
				<g>
					
						<text transform="matrix(1 0 0 1 315.1134 222.0374)" style="fill:#6C8AF4; font-family:'ActionMan-Bold'; font-size:3.7715px;">8</text>
				</g>
				<g>
					
						<text transform="matrix(1 0 0 1 335.4201 222.0374)" style="fill:#6C8AF4; font-family:'ActionMan-Bold'; font-size:3.7715px;">9</text>
				</g>
				<g>
					
						<text transform="matrix(1 0 0 1 354.8634 222.0374)" style="fill:#6C8AF4; font-family:'ActionMan-Bold'; font-size:3.7715px;">10</text>
				</g>
				<text transform="matrix(1 0 0 1 374.091 222.0374)" style="fill:#6C8AF4; font-family:'ActionMan-Bold'; font-size:3.7715px;">11</text>
				<text transform="matrix(1 0 0 1 294.8068 234.4026)" style="fill:#6C8AF4; font-family:'ActionMan-Bold'; font-size:3.7715px;">13</text>
				<text transform="matrix(1 0 0 1 277.3322 234.4026)" style="fill:#6C8AF4; font-family:'ActionMan-Bold'; font-size:3.7715px;">12</text>
				<text transform="matrix(1 0 0 1 315.1134 234.4026)" style="fill:#6C8AF4; font-family:'ActionMan-Bold'; font-size:3.7715px;">14</text>
				<text transform="matrix(1 0 0 1 335.4201 234.4026)" style="fill:#6C8AF4; font-family:'ActionMan-Bold'; font-size:3.7715px;">15</text>
				<text transform="matrix(1 0 0 1 354.8634 234.4026)" style="fill:#6C8AF4; font-family:'ActionMan-Bold'; font-size:3.7715px;">16</text>
				<text transform="matrix(1 0 0 1 374.091 234.4026)" style="fill:#6C8AF4; font-family:'ActionMan-Bold'; font-size:3.7715px;">17</text>
				<text transform="matrix(1 0 0 1 294.8068 245.139)" style="fill:#6C8AF4; font-family:'ActionMan-Bold'; font-size:3.7715px;">19</text>
				<text transform="matrix(1 0 0 1 277.3322 245.139)" style="fill:#6C8AF4; font-family:'ActionMan-Bold'; font-size:3.7715px;">18</text>
				<text transform="matrix(1 0 0 1 315.1134 245.139)" style="fill:#6C8AF4; font-family:'ActionMan-Bold'; font-size:3.7715px;">20</text>
				<text transform="matrix(1 0 0 1 335.4201 245.139)" style="fill:#6C8AF4; font-family:'ActionMan-Bold'; font-size:3.7715px;">21</text>
				<text transform="matrix(1 0 0 1 354.8634 245.139)" style="fill:#6C8AF4; font-family:'ActionMan-Bold'; font-size:3.7715px;">22</text>
				<text transform="matrix(1 0 0 1 374.091 245.139)" style="fill:#6C8AF4; font-family:'ActionMan-Bold'; font-size:3.7715px;">23</text>
				<text transform="matrix(1 0 0 1 294.8068 257.3568)" style="fill:#6C8AF4; font-family:'ActionMan-Bold'; font-size:3.7715px;">25</text>
				<text transform="matrix(1 0 0 1 277.3322 257.3568)" style="fill:#6C8AF4; font-family:'ActionMan-Bold'; font-size:3.7715px;">24</text>
				<text transform="matrix(1 0 0 1 315.1134 257.3568)" style="fill:#6C8AF4; font-family:'ActionMan-Bold'; font-size:3.7715px;">26</text>
				<text transform="matrix(1 0 0 1 335.4201 257.3568)" style="fill:#6C8AF4; font-family:'ActionMan-Bold'; font-size:3.7715px;">27</text>
				<text transform="matrix(1 0 0 1 354.8634 257.3568)" style="fill:#6C8AF4; font-family:'ActionMan-Bold'; font-size:3.7715px;">28</text>
				<text transform="matrix(1 0 0 1 374.091 257.3568)" style="fill:#6C8AF4; font-family:'ActionMan-Bold'; font-size:3.7715px;">29</text>
			</g>
			<text transform="matrix(1 0 0 1 310.9289 191.9778)" style="fill:#6C8AF4; font-family:'ActionMan-Italic'; font-size:9.207px;">January</text>
			<g>
				<g>
					<path style="fill:#6C8AF4;" d="M301.005,191.212c-0.076,0-0.152-0.033-0.204-0.096l-2.116-2.542l2.284-2.289
						c0.104-0.104,0.272-0.104,0.376-0.001c0.104,0.104,0.104,0.272,0.001,0.376l-1.942,1.946l1.806,2.17
						c0.094,0.113,0.079,0.28-0.034,0.374C301.125,191.192,301.065,191.212,301.005,191.212z"/>
				</g>
				<g>
					<path style="fill:#6C8AF4;" d="M355.241,191.212c-0.075,0-0.15-0.032-0.202-0.094c-0.095-0.112-0.082-0.279,0.03-0.374
						l2.292-1.948l-2.156-2.135c-0.104-0.103-0.105-0.272-0.002-0.376c0.104-0.104,0.272-0.105,0.376-0.002l2.567,2.543
						l-2.734,2.323C355.363,191.191,355.302,191.212,355.241,191.212z"/>
				</g>
			</g>
			<g>
				<path style="fill:#3884F2;" d="M342.837,239.314c-0.305,0-0.59-0.13-0.791-0.363l-1.873-2.169
					c-0.254-0.295-0.222-0.74,0.073-0.994c0.295-0.254,0.74-0.221,0.994,0.073l1.559,1.806l3.603-5.503
					c0.213-0.326,0.65-0.417,0.975-0.204c0.326,0.213,0.417,0.65,0.204,0.975l-3.866,5.904c-0.182,0.278-0.476,0.449-0.807,0.471
					C342.884,239.313,342.86,239.314,342.837,239.314z"/>
			</g>
		</g>
		<g>
			<path style="fill:#FCFCFC;" d="M383.143,294.371H273.689c-0.808,0-1.469-0.661-1.469-1.469l0,0c0-0.808,0.661-1.469,1.469-1.469
				h109.455c0.808,0,1.469,0.661,1.469,1.469l0,0C384.613,293.71,383.951,294.371,383.143,294.371z"/>
		</g>
		<g>
			<path style="fill:#F47676;" d="M379.053,303.924h-0.506c-0.936,0-1.703,0.766-1.703,1.703v0.506c0,0.784,0.537,1.446,1.261,1.642
				v38.56c0,0.382,0.312,0.694,0.694,0.694c0.382,0,0.694-0.312,0.694-0.694v-38.56c0.724-0.196,1.261-0.859,1.261-1.642v-0.506
				C380.755,304.691,379.989,303.924,379.053,303.924z"/>
		</g>
		<g>
			<path style="fill:#F47676;" d="M379.053,361.57h-0.506c-0.936,0-1.703,0.766-1.703,1.703v0.506c0,0.784,0.537,1.446,1.261,1.642
				v38.56c0,0.382,0.312,0.694,0.694,0.694c0.382,0,0.694-0.312,0.694-0.694v-38.56c0.724-0.196,1.261-0.859,1.261-1.642v-0.506
				C380.755,362.336,379.989,361.57,379.053,361.57z"/>
		</g>
		<g>
			<g>
				<path style="fill:#9CB4F7;" d="M371.868,314.701h-33.837c-0.949,0-1.726-0.777-1.726-1.726l0,0c0-0.949,0.777-1.726,1.726-1.726
					h33.837c0.95,0,1.726,0.777,1.726,1.726l0,0C373.595,313.924,372.818,314.701,371.868,314.701z"/>
			</g>
			<g>
				<path style="fill:#9CB4F7;" d="M371.868,324.806h-52.925c-0.949,0-1.726-0.777-1.726-1.726l0,0c0-0.949,0.777-1.726,1.726-1.726
					h52.925c0.95,0,1.726,0.777,1.726,1.726l0,0C373.595,324.029,372.818,324.806,371.868,324.806z"/>
			</g>
			<g>
				<path style="fill:#9CB4F7;" d="M371.868,334.911h-65.787c-0.949,0-1.726-0.777-1.726-1.726l0,0c0-0.95,0.777-1.726,1.726-1.726
					h65.787c0.95,0,1.726,0.777,1.726,1.726l0,0C373.595,334.134,372.818,334.911,371.868,334.911z"/>
			</g>
			<g>
				<path style="fill:#9CB4F7;" d="M371.868,345.017h-26.911c-0.95,0-1.726-0.777-1.726-1.726l0,0c0-0.949,0.777-1.726,1.726-1.726
					h26.911c0.95,0,1.726,0.777,1.726,1.726l0,0C373.595,344.24,372.818,345.017,371.868,345.017z"/>
			</g>
		</g>
		<g>
			<g>
				<path style="fill:#9CB4F7;" d="M371.868,371.397h-33.837c-0.949,0-1.726-0.777-1.726-1.726l0,0c0-0.949,0.777-1.726,1.726-1.726
					h33.837c0.95,0,1.726,0.777,1.726,1.726l0,0C373.595,370.62,372.818,371.397,371.868,371.397z"/>
			</g>
			<g>
				<path style="fill:#9CB4F7;" d="M371.868,381.502h-52.925c-0.949,0-1.726-0.777-1.726-1.726l0,0c0-0.949,0.777-1.726,1.726-1.726
					h52.925c0.95,0,1.726,0.777,1.726,1.726l0,0C373.595,380.726,372.818,381.502,371.868,381.502z"/>
			</g>
			<g>
				<path style="fill:#9CB4F7;" d="M371.868,391.608h-65.787c-0.949,0-1.726-0.777-1.726-1.726l0,0c0-0.95,0.777-1.726,1.726-1.726
					h65.787c0.95,0,1.726,0.777,1.726,1.726l0,0C373.595,390.831,372.818,391.608,371.868,391.608z"/>
			</g>
			<g>
				<path style="fill:#9CB4F7;" d="M371.868,401.713h-26.911c-0.95,0-1.726-0.777-1.726-1.726v0c0-0.949,0.777-1.726,1.726-1.726
					h26.911c0.95,0,1.726,0.777,1.726,1.726v0C373.595,400.936,372.818,401.713,371.868,401.713z"/>
			</g>
		</g>
		<g>
			<g>
				<path style="fill:#B3D7E0;" d="M379.703,173.068H368.18c-0.396,0-0.72,0.324-0.72,0.72c0,0.396,0.324,0.72,0.72,0.72h11.523
					c0.396,0,0.72-0.324,0.72-0.72C380.423,173.393,380.099,173.068,379.703,173.068z"/>
			</g>
			<g>
				<path style="fill:#B3D7E0;" d="M379.703,177.03H368.18c-0.396,0-0.72,0.324-0.72,0.72c0,0.396,0.324,0.72,0.72,0.72h11.523
					c0.396,0,0.72-0.324,0.72-0.72C380.423,177.354,380.099,177.03,379.703,177.03z"/>
			</g>
			<g>
				<path style="fill:#B3D7E0;" d="M379.703,180.991H368.18c-0.396,0-0.72,0.324-0.72,0.72c0,0.396,0.324,0.72,0.72,0.72h11.523
					c0.396,0,0.72-0.324,0.72-0.72C380.423,181.315,380.099,180.991,379.703,180.991z"/>
			</g>
		</g>
		<g>
			<path style="fill:#B3D7E0;" d="M282.191,172.753l-6.369,5.959h2.466v4.036h2.375v-1.651c0-0.841,0.688-1.529,1.529-1.529
				c0.841,0,1.529,0.688,1.529,1.529v1.651h2.375v-4.036h2.466L282.191,172.753z"/>
		</g>
	</g>
	<g>
		<g>
			<path style="fill:#C9CCDC;" d="M223.659,175.518h-8.504c-1.257,0-2.212-1.13-2.003-2.369l3.003-17.812
				c0.165-0.978,1.011-1.694,2.003-1.694h8.504c1.257,0,2.212,1.13,2.003,2.369l-3.003,17.812
				C225.497,174.803,224.651,175.518,223.659,175.518z"/>
		</g>
		<g>
			<g>
				<path style="fill:#EDEFF9;" d="M214.72,171.591c-0.19-0.045,0.456-3.437,1.17-7.629c0.721-4.191,1.241-7.605,1.434-7.584
					c0.183,0.019-0.033,3.484-0.758,7.7C215.848,168.294,214.899,171.634,214.72,171.591z"/>
			</g>
		</g>
		<g>
			<g>
				<path style="fill:#4A516B;" d="M220.991,156.732c-0.116,0.691-0.747,1.252-1.408,1.252s-1.103-0.56-0.987-1.252
					c0.116-0.691,0.747-1.251,1.408-1.251S221.107,156.04,220.991,156.732z"/>
			</g>
			<g>
				<path style="fill:#4A516B;" d="M222.555,156.732c-0.057,0.341-0.368,0.617-0.694,0.617s-0.544-0.276-0.486-0.617
					c0.057-0.341,0.368-0.617,0.694-0.617C222.395,156.115,222.612,156.391,222.555,156.732z"/>
			</g>
		</g>
		<g>
			<path style="fill:#FFB088;" d="M221.237,180.582c-1.401-2.035-1.811-4.72-1.081-7.081c0.371-1.2,1.026-2.387,0.852-3.63
				c-0.195-1.385-1.558-2.41-2.381-3.541c-0.216-0.297-0.438-0.609-0.493-0.973c-0.054-0.363,0.121-0.789,0.474-0.89
				c-0.191-0.446-0.213-0.985-0.232-1.47c-0.008-0.192,0.003-0.399,0.118-0.554c0.124-0.167,0.348-0.236,0.556-0.226
				c0.208,0.01,0.406,0.088,0.6,0.165c-0.096-0.243-0.04-0.611-0.069-0.871c-0.029-0.26,0.019-0.538,0.185-0.74
				c0.225-0.273,0.625-0.349,0.971-0.276c0.346,0.073,0.652,0.269,0.947,0.465c-0.115-0.266-0.158-0.645-0.155-0.935
				c0.003-0.29,0.16-0.599,0.436-0.687c0.351-0.111,0.698,0.162,0.966,0.414c1.202,1.133,2.404,2.267,3.607,3.4
				c0.653,0.615,1.326,1.26,1.648,2.098c0.394,1.024,0.203,2.174-0.064,3.239c-0.395,1.579-0.945,3.12-1.258,4.718
				c-0.313,1.598-0.379,3.291,0.181,4.819c-0.891,1.11-1.847,2.141-3.135,2.745c-0.436,0.204-0.905,0.377-1.385,0.346
				C222.104,181.089,221.476,180.93,221.237,180.582z"/>
		</g>
		<g>
			<path style="fill:#C7CADA;" d="M124.4,392.444c-1.993,3.328-3.976,7.3-5.27,10.957c5.403,6.779,13.008,11.666,21.373,13.94
				c1.224,0.333,2.762,0.514,3.552-0.479c0.608-0.765,0.439-1.924-0.1-2.738c-0.539-0.815-1.371-1.379-2.142-1.979
				c-5.191-4.038-8.266-10.656-8.005-17.227C130.992,394.091,127.216,393.271,124.4,392.444z"/>
		</g>
		<g>
			<path style="fill:#C7CADA;" d="M181.44,400.461c-0.55,3.84-1.327,10.218-1.106,14.091c5.702,1.774,16.992,3.779,25.586,2.64
				c1.258-0.167,2.746-0.594,3.09-1.815c0.265-0.94-0.339-1.944-1.151-2.486c-0.812-0.542-1.798-0.741-2.741-0.996
				c-6.348-1.716-11.744-6.629-14.045-12.79C188.156,399.431,184.357,400.135,181.44,400.461z"/>
		</g>
		<g>
			<path style="fill:#2E3E56;" d="M152.94,263.703c0,0-4.376,43.684-3.725,59.302c0,0-17.245,40.997-26.355,70.281
				c0,0,7.158,7.158,14.642,8.134c0,0,26.291-42.489,28.923-58.811c2.633-16.322,13.689-52.652,13.689-52.652
				s1.579,42.648,0.526,56.864c-1.053,14.216-2.106,55.284-2.106,55.284s16.849,3.686,20.008,0.526
				c0,0,17.695-100.443,3.846-146.574C202.388,256.058,154.725,239.555,152.94,263.703z"/>
		</g>
		<g>
			<path style="fill:#FFB088;" d="M155.576,262.812c0.443,0.842,0.886,1.684,1.329,2.526c3.224-0.458,6.359-3.088,7.352-6.189
				c-0.883-1.641-2.51-3.031-4.327-3.444C157.675,257.26,156.254,260.157,155.576,262.812z"/>
		</g>
		<g>
			<path style="fill:#FFB088;" d="M180.676,153.76c0,0-0.028,3.497-0.59,5.482c-0.562,1.986,2.922,7.096-1.432,12.164
				c0,0-1.57,2.342-3.732,2.757l0.477,7.221c0,0-6.963,2.75-11.319,0.034l-1.273-32.719
				C162.806,148.701,177.146,143.895,180.676,153.76z"/>
		</g>
		<g>
			<path style="fill:#F29D77;" d="M172.272,176.674c-1.834-1.623-3.336-3.581-4.826-5.525c2.035,1.856,4.742,2.883,7.49,3.028
				l0.296,4.578C174.169,178.189,173.175,177.473,172.272,176.674z"/>
		</g>
		<g>
			<g>
				<g>
					<path style="fill:#A86B4C;" d="M173.189,156.162c-1.598-0.873-3.477-1.135-5.253-0.74c-0.209,0.047-0.287-0.277-0.078-0.324
						c1.867-0.416,3.831-0.135,5.508,0.782C173.554,155.982,173.377,156.264,173.189,156.162L173.189,156.162z"/>
				</g>
			</g>
			<g>
				<path style="fill:#A86B4C;" d="M171.354,157.151c0.409,0.045,0.683,0.594,0.614,1.227c-0.07,0.633-0.457,1.109-0.866,1.064
					c-0.408-0.045-0.683-0.594-0.614-1.227C170.558,157.582,170.946,157.106,171.354,157.151z"/>
			</g>
			<g>
				<g>
					<path style="fill:#A86B4C;" d="M179.755,155.082c-1.301-0.119-2.624,0.232-3.683,1.002c-0.171,0.125-0.401-0.117-0.228-0.243
						c1.131-0.822,2.527-1.219,3.922-1.092C179.978,154.768,179.969,155.102,179.755,155.082L179.755,155.082z"/>
				</g>
			</g>
			<g>
				<path style="fill:#A86B4C;" d="M178.214,156.916c0.409,0.045,0.683,0.594,0.614,1.227c-0.07,0.633-0.457,1.109-0.866,1.064
					c-0.408-0.045-0.683-0.594-0.614-1.227C177.417,157.347,177.805,156.871,178.214,156.916z"/>
			</g>
			<g>
				<g>
					<path style="fill:#F27766;" d="M171.467,167.862c1.136,1.853,3.573,2.47,5.445,1.347c0.273-0.164,0.035-0.599-0.24-0.435
						c-1.634,0.979-3.771,0.478-4.77-1.153C171.736,167.351,171.3,167.589,171.467,167.862L171.467,167.862z"/>
				</g>
			</g>
			<g>
				<g>
					<path style="fill:#F27766;" d="M174.68,157.018c0.13,1.581,0.269,3.182,0.731,4.707c0.222,0.732,0.52,1.445,0.923,2.098
						c0.205,0.333,0.48,0.635,0.645,0.99c0.085,0.183,0.128,0.391,0.073,0.589c-0.077,0.281-0.292,0.371-0.564,0.385
						c-0.742,0.037-1.735,0.013-2.218-0.647c-0.093-0.127-0.312-0.009-0.217,0.12c0.436,0.595,1.161,0.746,1.86,0.773
						c0.345,0.014,0.805,0.071,1.102-0.143c0.251-0.18,0.338-0.516,0.301-0.811c-0.056-0.439-0.372-0.784-0.609-1.137
						c-0.249-0.37-0.462-0.763-0.644-1.169c-0.372-0.834-0.606-1.725-0.768-2.621c-0.187-1.034-0.279-2.082-0.365-3.128
						C174.915,156.866,174.667,156.858,174.68,157.018L174.68,157.018z"/>
				</g>
			</g>
		</g>
		<g>
			<path style="fill:#F49F42;" d="M159.652,156.881c-0.521-1.204-1.392-2.256-1.739-3.521c-0.508-1.852,0.307-3.988,1.919-5.031
				c1.613-1.043,3.693-0.972,5.497-1.632c2.786-1.02,4.895-3.768,7.853-4.006c2.621-0.211,4.964,1.647,7.568,2.012
				c2.094,0.294,4.548-0.298,6.102,1.136c0.856,0.79,1.175,2.051,1.007,3.204c-0.168,1.153-0.771,2.204-1.516,3.099
				c-1.057,1.27-2.555,2.324-4.207,2.287c-1.609-0.036-2.993-1.072-4.341-1.95c-1.348-0.879-2.991-1.663-4.515-1.147
				c-1.766,0.598-2.856,2.795-4.72,2.814c-1.123,0.012-2.274-0.813-3.291-0.338c-1.026,0.479-1.105,1.882-1.034,3.012
				c0.077,1.213,0.154,2.425,0.231,3.637c0.039,0.619-0.176,1.494-0.79,1.405c-0.453-0.066-0.603-0.624-0.798-1.038
				c-0.597-1.267-2.533-1.469-3.472-0.491C160.263,159.415,160.116,157.953,159.652,156.881z"/>
		</g>
		<g>
			<path style="fill:#FFB088;" d="M161.597,159.464c-1.034-0.327-2.361,0.005-2.793,0.998c-0.369,0.847,0.026,1.847,0.616,2.559
				c0.59,0.711,1.375,1.258,2.247,1.563c0.54,0.189,1.126,0.287,1.687,0.175c0.561-0.111,1.094-0.454,1.342-0.97
				C165.586,161.935,163.111,159.943,161.597,159.464z"/>
		</g>
		<g>
			<path style="fill:#4779C4;" d="M161.161,181.161c-0.056-1.196,0.17-2.571,1.181-3.212c1.261-0.799,2.877-0.005,4.23,0.627
				c2.335,1.09,5.032,1.68,7.499,0.938c0.74-0.223,1.445-0.56,2.2-0.725c0.755-0.165,1.603-0.133,2.223,0.328
				c0.62,0.461,0.876,1.443,0.378,2.034c7.723-0.824,15.192,4.094,21.023,9.225c5.832,5.131,10.907,11.247,17.587,15.21
				c1.008-0.409,1.063-1.803,0.815-2.862c-0.249-1.059-0.833-2.037-0.927-3.121c-0.202-2.315,1.843-4.301,1.938-6.623
				c0.064-1.57-0.773-3.034-0.986-4.591c-0.326-2.39,0.831-4.706,1.953-6.842c-0.256-0.819-0.583-1.568-0.84-2.387
				c2.98-1.141,6.197-1.698,9.383-1.511c0.848,2.667,1.979,5.225,2.827,7.892c0.715,2.25,1.44,4.572,1.235,6.924
				c-0.213,2.451-1.428,4.785-1.293,7.242c0.143,2.602,1.787,4.949,1.893,7.553c0.086,2.112-0.844,4.11-1.481,6.125
				c-0.921,2.912-1.256,6.007-2.447,8.819c-1.191,2.812-3.559,5.431-6.602,5.681c-2.727,0.224-5.202-1.463-7.416-3.071
				c-6.39-4.644-12.78-9.287-19.171-13.93c-1.16,5.122,1.83,10.293,1.388,15.526c-0.127,1.51-0.536,2.999-0.492,4.513
				c0.06,2.069,0.954,4.006,1.585,5.978c0.701,2.192,1.083,4.471,1.463,6.74c0.693,4.139,1.386,8.278,2.079,12.417
				c-5.021,3.82-10.452,7.227-16.69,8.165c-3.346,0.503-6.763,0.099-10.092-0.51c-2.878-0.527-5.756-1.216-8.382-2.507
				c-2.626-1.291-10.765-6.922-13.377-11.07c2.872-19.737,0.519-40.059-6.582-58.697C151.65,187.529,155.88,183.735,161.161,181.161
				z"/>
		</g>
		<g>
			<path style="fill:#3A6AAF;" d="M170.458,185.837c1.79-0.155,4.091-1.868,5.376-3.124c-3.768,1.286-7.493,0.847-11.057-0.07
				c-1.275-0.328-2.582-0.775-3.619-1.555c0.001,0.024,0.001,0.049,0.002,0.073c-1.323,0.645-2.58,1.367-3.79,2.147
				c1.395,0.79,2.893,1.404,4.438,1.835C164.698,185.952,167.468,186.096,170.458,185.837z"/>
		</g>
		<g>
			<path style="fill:#4779C4;" d="M154.498,184.993c-4.982,3.4-8.907,8.172-12.028,13.334c-3.12,5.162-5.486,10.738-7.84,16.292
				c-2.445,5.768-4.941,11.849-4.292,18.079c0.566,5.44,3.482,10.342,6.686,14.775c3.546,4.905,7.536,9.489,11.905,13.678
				c1.16,1.112,2.433,2.242,4.01,2.553c2.276,0.448,4.589-0.998,5.858-2.94c1.908-2.919,4.613-4.815,1.128-9.217
				c-2.165-2.734-4.327-4.878-6.603-7.52s-4.138-7.274-5.888-10.289c6.19-13.212,9.768-27.804,10.665-42.367
				c0.082-1.336,0.138-2.705-0.247-3.987C157.468,186.101,155.782,185.374,154.498,184.993z"/>
		</g>
		<g>
			<g>
				<path style="fill:#2E5F99;" d="M153.472,216.16c-0.187-0.064,0.806-3.361,1.808-7.477c1.014-4.114,1.657-7.496,1.852-7.467
					c0.179,0.024-0.164,3.48-1.186,7.63C154.934,212.999,153.642,216.222,153.472,216.16z"/>
			</g>
		</g>
		<g>
			<g>
				<path style="fill:#2E5F99;" d="M159.267,206.889c0.083,0.023,0.042,0.542-0.239,1.327c-0.136,0.394-0.347,0.843-0.611,1.325
					c-0.271,0.477-0.603,0.982-0.986,1.482c-0.771,0.997-1.576,1.796-2.182,2.341c-0.608,0.544-1.023,0.839-1.09,0.773
					c-0.068-0.067,0.225-0.483,0.739-1.109c0.513-0.627,1.246-1.462,1.989-2.423c0.369-0.482,0.701-0.953,0.989-1.39
					c0.28-0.441,0.524-0.846,0.709-1.196C158.964,207.32,159.169,206.86,159.267,206.889z"/>
			</g>
		</g>
		<g>
			<g>
				<path style="fill:#2E5F99;" d="M194.924,212.478c-0.204-0.045,0.396-2.808,0.21-6.242c-0.154-3.435-1.025-6.126-0.826-6.191
					c0.083-0.029,0.409,0.61,0.751,1.713c0.173,0.551,0.336,1.22,0.476,1.972c0.132,0.753,0.237,1.589,0.283,2.471
					c0.041,0.882,0.02,1.725-0.038,2.487c-0.065,0.762-0.161,1.444-0.279,2.009C195.271,211.831,195.009,212.499,194.924,212.478z"
					/>
			</g>
		</g>
		<g>
			<g>
				<path style="fill:#2E5F99;" d="M195.972,208.813c-0.139-0.147,0.956-1.295,1.728-3.035c0.797-1.729,0.937-3.309,1.14-3.301
					c0.089,0.002,0.173,0.41,0.133,1.075c-0.018,0.332-0.078,0.725-0.18,1.154c-0.107,0.427-0.26,0.89-0.468,1.355
					c-0.212,0.464-0.459,0.883-0.709,1.246c-0.255,0.36-0.511,0.664-0.748,0.896C196.394,208.672,196.032,208.878,195.972,208.813z"
					/>
			</g>
		</g>
		<g>
			<g>
				<path style="fill:#2E5F99;" d="M189.042,251.496c-0.048-0.091,0.5-0.455,1.342-1.078c0.21-0.157,0.44-0.327,0.678-0.521
					c0.244-0.186,0.492-0.401,0.757-0.621c0.521-0.452,1.076-0.966,1.628-1.537c0.547-0.576,1.037-1.153,1.465-1.692
					c0.208-0.274,0.412-0.531,0.588-0.783c0.184-0.247,0.344-0.484,0.491-0.7c0.587-0.867,0.927-1.431,1.02-1.387
					c0.079,0.036-0.108,0.679-0.603,1.635c-0.125,0.238-0.265,0.498-0.434,0.766c-0.16,0.274-0.353,0.552-0.555,0.846
					c-0.415,0.579-0.909,1.192-1.477,1.789c-0.572,0.593-1.163,1.113-1.724,1.552c-0.285,0.214-0.555,0.419-0.822,0.591
					c-0.261,0.18-0.514,0.332-0.747,0.466C189.716,251.359,189.082,251.573,189.042,251.496z"/>
			</g>
		</g>
		<g>
			<g>
				<path style="fill:#2E5F99;" d="M188.244,254.76c-0.041-0.196,1.818-0.696,3.95-1.681c2.139-0.969,3.733-2.049,3.855-1.89
					c0.055,0.072-0.277,0.441-0.906,0.928c-0.627,0.487-1.559,1.079-2.664,1.585c-1.105,0.505-2.163,0.823-2.941,0.979
					C188.759,254.838,188.263,254.848,188.244,254.76z"/>
			</g>
		</g>
		<g>
			<g>
				<path style="fill:#2E5F99;" d="M190.127,259.186c0.005,0.046-0.501,0.152-1.423,0.293c-0.922,0.138-2.261,0.314-3.927,0.445
					c-1.665,0.128-3.663,0.212-5.881,0.058c-2.214-0.153-4.654-0.561-7.082-1.443c-1.211-0.444-2.355-0.988-3.403-1.612
					c-1.045-0.63-1.986-1.349-2.815-2.094c-1.657-1.498-2.929-3.038-4.002-4.31c-1.068-1.277-1.923-2.319-2.502-3.048
					c-0.579-0.73-0.883-1.148-0.847-1.179c0.036-0.031,0.407,0.328,1.048,1.004c0.641,0.676,1.552,1.669,2.666,2.905
					c1.118,1.23,2.419,2.724,4.054,4.154c0.819,0.713,1.73,1.391,2.741,1.991c1.014,0.594,2.12,1.115,3.294,1.545
					c1.176,0.424,2.358,0.747,3.517,0.981c1.16,0.232,2.293,0.383,3.379,0.476c2.173,0.186,4.148,0.154,5.803,0.088
					c1.657-0.069,2.999-0.17,3.927-0.226C189.605,259.155,190.122,259.138,190.127,259.186z"/>
			</g>
		</g>
		<g>
			<g>
				<path style="fill:#2E5F99;" d="M182.105,257.289c0.03,0.076-0.6,0.429-1.737,0.609c-1.13,0.19-2.75,0.122-4.423-0.371
					c-1.671-0.491-3.061-1.217-4.033-1.77c-0.971-0.561-1.536-0.962-1.493-1.045c0.044-0.086,0.693,0.166,1.711,0.611
					c1.019,0.439,2.41,1.076,4.006,1.544c1.595,0.468,3.1,0.605,4.183,0.547C181.404,257.367,182.072,257.187,182.105,257.289z"/>
			</g>
		</g>
		<g>
			<g>
				<path style="fill:#1E2B3D;" d="M183.613,265.613c0.102-0.017,0.408,1.435,0.573,3.835c0.018,0.3,0.036,0.615,0.055,0.942
					c0.017,0.328,0.018,0.669,0.027,1.023c0.023,0.708,0.002,1.464-0.014,2.26c-0.06,1.591-0.2,3.339-0.461,5.155
					c-0.271,1.814-0.637,3.519-1.035,5.047c-0.212,0.759-0.408,1.483-0.632,2.144c-0.109,0.332-0.207,0.655-0.317,0.959
					c-0.112,0.303-0.219,0.594-0.321,0.871c-0.842,2.21-1.545,3.47-1.637,3.417c-0.118-0.065,0.392-1.425,1.078-3.663
					c0.085-0.28,0.173-0.573,0.265-0.879c0.092-0.306,0.173-0.629,0.266-0.96c0.192-0.661,0.359-1.379,0.547-2.131
					c0.349-1.511,0.684-3.186,0.95-4.962c0.255-1.779,0.416-3.486,0.517-5.044c0.037-0.78,0.084-1.521,0.091-2.217
					c0.006-0.348,0.022-0.684,0.022-1.007c0-0.323,0-0.633,0-0.929C183.577,267.106,183.483,265.632,183.613,265.613z"/>
			</g>
		</g>
		<g>
			<g>
				<path style="fill:#1E2B3D;" d="M164.162,259.165c0.078,0.032-0.105,0.773-0.678,1.863c-0.287,0.543-0.682,1.169-1.212,1.798
					c-0.528,0.63-1.203,1.256-2.016,1.769c-0.822,0.508-1.7,0.824-2.521,0.968c-0.822,0.143-1.584,0.126-2.202,0.005
					c-0.619-0.118-1.094-0.311-1.395-0.487c-0.302-0.175-0.443-0.309-0.422-0.347c0.052-0.104,0.722,0.257,1.881,0.354
					c0.576,0.052,1.27,0.018,2.014-0.144c0.743-0.164,1.535-0.47,2.28-0.93c1.5-0.943,2.52-2.255,3.175-3.235
					C163.725,259.791,164.067,259.123,164.162,259.165z"/>
			</g>
		</g>
		<g>
			<g>
				<path style="fill:#3A6AAF;" d="M229.031,180.196c0.041,0.08-0.314,0.37-0.967,0.705c-0.651,0.335-1.609,0.696-2.713,0.909
					c-1.104,0.211-2.127,0.231-2.856,0.162c-0.731-0.069-1.168-0.206-1.159-0.296c0.02-0.201,1.784-0.125,3.886-0.54
					C227.328,180.742,228.938,180.017,229.031,180.196z"/>
			</g>
		</g>
		<g>
			<g>
				<path style="fill:#3A6AAF;" d="M151.267,259.349c-0.021-0.102,0.441-0.262,1.132-0.592c0.173-0.084,0.361-0.174,0.555-0.286
					c0.199-0.102,0.4-0.233,0.614-0.362c0.419-0.275,0.862-0.602,1.293-0.986c0.426-0.39,0.796-0.797,1.113-1.186
					c0.151-0.2,0.302-0.386,0.423-0.574c0.132-0.182,0.241-0.36,0.341-0.523c0.399-0.654,0.605-1.097,0.704-1.066
					c0.081,0.023,0.038,0.531-0.272,1.286c-0.078,0.188-0.169,0.392-0.288,0.6c-0.109,0.215-0.252,0.427-0.4,0.653
					c-0.311,0.441-0.699,0.897-1.16,1.319c-0.466,0.416-0.959,0.755-1.43,1.02c-0.24,0.125-0.466,0.246-0.691,0.332
					c-0.219,0.097-0.432,0.167-0.626,0.226C151.792,259.44,151.282,259.432,151.267,259.349z"/>
			</g>
		</g>
		<g>
			<g>
				<path style="fill:#F29E79;" d="M222.859,169.094c-0.097,0.027-0.256-0.306-0.577-0.774c-0.316-0.473-0.821-1.07-1.469-1.659
					c-0.649-0.59-1.292-1.097-1.727-1.51c-0.439-0.41-0.672-0.713-0.611-0.785c0.061-0.073,0.395,0.092,0.905,0.399
					c0.506,0.311,1.203,0.76,1.897,1.39c0.695,0.63,1.202,1.353,1.434,1.936C222.95,168.675,222.945,169.074,222.859,169.094z"/>
			</g>
		</g>
		<g>
			<g>
				<path style="fill:#F29E79;" d="M223.882,167.658c-0.102,0.001-0.157-0.397-0.39-0.955c-0.118-0.278-0.283-0.593-0.521-0.902
					c-0.238-0.311-0.552-0.621-0.908-0.942c-1.465-1.291-2.571-2.458-2.444-2.6c0.126-0.14,1.422,0.785,2.904,2.091
					c0.372,0.336,0.716,0.7,0.965,1.088c0.252,0.389,0.396,0.786,0.467,1.122C224.092,167.242,223.967,167.663,223.882,167.658z"/>
			</g>
		</g>
		<g>
			<g>
				<path style="fill:#F29E79;" d="M225.864,166.28c-0.1,0.015-0.213-0.367-0.501-0.898c-0.145-0.266-0.337-0.56-0.596-0.862
					c-0.257-0.305-0.578-0.62-0.92-0.97c-1.359-1.396-2.351-2.634-2.216-2.766c0.136-0.132,1.348,0.892,2.707,2.288
					c0.338,0.347,0.668,0.697,0.927,1.061c0.262,0.362,0.444,0.739,0.544,1.061C226.011,165.847,225.951,166.271,225.864,166.28z"/>
			</g>
		</g>
	</g>
	<g>
		<g>
			<g>
				<path style="fill:#FCFCFC;" d="M150.637,174.345l-18.386-19.919c-2.433-14.153-14.764-24.922-29.611-24.922
					c-16.595,0-30.049,13.453-30.049,30.049c0,16.595,13.453,30.049,30.049,30.049c12.636,0,23.448-7.8,27.889-18.847
					L150.637,174.345z"/>
			</g>
		</g>
		<g>
			<g>
				<g>
					<path style="fill:#3884F2;" d="M102.38,179.95c-11.612,0-21.059-9.447-21.059-21.059s9.447-21.059,21.059-21.059
						c11.612,0,21.059,9.447,21.059,21.059S113.992,179.95,102.38,179.95z M102.38,139.62c-10.627,0-19.272,8.645-19.272,19.272
						s8.645,19.272,19.272,19.272c10.626,0,19.272-8.645,19.272-19.272S113.006,139.62,102.38,139.62z"/>
				</g>
			</g>
			<g>
				<g>
					<path style="fill:#3884F2;" d="M105.784,158.892c0,1.88-1.524,3.404-3.404,3.404c-1.88,0-3.404-1.524-3.404-3.404
						c0-1.88,1.524-3.404,3.404-3.404C104.26,155.488,105.784,157.012,105.784,158.892z"/>
				</g>
			</g>
			<g>
				<g>
					<path style="fill:#3884F2;" d="M103.111,161.031l-11.178-5.836c-0.437-0.228-0.607-0.768-0.378-1.205
						c0.228-0.437,0.768-0.607,1.205-0.378l9.373,4.894l4.844-13.23c0.17-0.463,0.682-0.701,1.146-0.532
						c0.463,0.17,0.701,0.683,0.532,1.146L103.111,161.031z"/>
				</g>
			</g>
		</g>
	</g>
	<g>
		<path style="fill:#4779C4;" d="M458.495,426.084H24.53c-2.403,0-4.369-1.966-4.369-4.369l0,0c0-2.403,1.966-4.369,4.369-4.369
			h433.965c2.403,0,4.369,1.966,4.369,4.369l0,0C462.863,424.118,460.897,426.084,458.495,426.084z"/>
	</g>
	<g>
		<g>
			<path style="fill:#88D3CC;" d="M408.492,205.429c-2.3,0-4.171-1.871-4.171-4.171c0-2.3,1.871-4.171,4.171-4.171
				s4.171,1.871,4.171,4.171C412.663,203.558,410.792,205.429,408.492,205.429z M408.492,198.079c-1.753,0-3.179,1.426-3.179,3.179
				c0,1.753,1.426,3.179,3.179,3.179c1.753,0,3.179-1.426,3.179-3.179C411.671,199.505,410.245,198.079,408.492,198.079z"/>
		</g>
		<g>
			<path style="fill:#88D3CC;" d="M126.988,270.109c-2.3,0-4.171-1.871-4.171-4.171c0-2.3,1.871-4.171,4.171-4.171
				c2.3,0,4.171,1.871,4.171,4.171C131.16,268.238,129.288,270.109,126.988,270.109z M126.988,262.759
				c-1.753,0-3.179,1.426-3.179,3.179c0,1.753,1.426,3.179,3.179,3.179c1.753,0,3.179-1.426,3.179-3.179
				C130.167,264.185,128.741,262.759,126.988,262.759z"/>
		</g>
		<g>
			<path style="fill:#88D3CC;" d="M56.036,365.559c-2.3,0-4.171-1.871-4.171-4.171c0-2.3,1.871-4.171,4.171-4.171
				c2.3,0,4.171,1.871,4.171,4.171C60.207,363.688,58.336,365.559,56.036,365.559z M56.036,358.209
				c-1.753,0-3.179,1.426-3.179,3.179c0,1.753,1.426,3.178,3.179,3.178c1.753,0,3.179-1.426,3.179-3.178
				C59.215,359.635,57.789,358.209,56.036,358.209z"/>
		</g>
		<g>
			<path style="fill:#88D3CC;" d="M44.468,408.632c-8.35,0-15.143-6.793-15.143-15.143c0-8.35,6.793-15.143,15.143-15.143
				s15.143,6.793,15.143,15.143C59.611,401.839,52.818,408.632,44.468,408.632z M44.468,379.338
				c-7.803,0-14.151,6.348-14.151,14.151c0,7.803,6.348,14.151,14.151,14.151c7.803,0,14.151-6.348,14.151-14.151
				C58.619,385.686,52.271,379.338,44.468,379.338z"/>
		</g>
		<g>
			<path style="fill:#88D3CC;" d="M107.878,259.819c-4.732,0-8.581-3.85-8.581-8.581s3.85-8.581,8.581-8.581
				c4.732,0,8.581,3.85,8.581,8.581S112.61,259.819,107.878,259.819z M107.878,243.649c-4.184,0-7.589,3.404-7.589,7.589
				c0,4.184,3.404,7.589,7.589,7.589c4.185,0,7.589-3.404,7.589-7.589C115.467,247.053,112.063,243.649,107.878,243.649z"/>
		</g>
		<g>
			<path style="fill:#88D3CC;" d="M247.528,146.63c-2.3,0-4.171-1.871-4.171-4.171c0-2.3,1.871-4.171,4.171-4.171
				c2.3,0,4.171,1.871,4.171,4.171C251.699,144.758,249.828,146.63,247.528,146.63z M247.528,139.28
				c-1.753,0-3.179,1.426-3.179,3.179c0,1.753,1.426,3.179,3.179,3.179c1.753,0,3.179-1.426,3.179-3.179
				C250.707,140.706,249.281,139.28,247.528,139.28z"/>
		</g>
		<g>
			<path style="fill:#88D3CC;" d="M416.577,232.128c0,2.03-1.645,3.675-3.675,3.675c-2.03,0-3.675-1.645-3.675-3.675
				c0-2.03,1.645-3.675,3.675-3.675C414.931,228.453,416.577,230.098,416.577,232.128z"/>
		</g>
		<g>
			<path style="fill:#88D3CC;" d="M112.441,277.039c0,1.666-1.35,3.016-3.016,3.016c-1.666,0-3.016-1.35-3.016-3.016
				c0-1.666,1.35-3.016,3.016-3.016C111.09,274.023,112.441,275.373,112.441,277.039z"/>
		</g>
		<g>
			<path style="fill:#88D3CC;" d="M246.869,402.571c0,1.666-1.35,3.016-3.016,3.016c-1.666,0-3.016-1.35-3.016-3.016
				s1.35-3.016,3.016-3.016C245.518,399.555,246.869,400.905,246.869,402.571z"/>
		</g>
		<g>
			<path style="fill:#88D3CC;" d="M73.294,376.695c0,1.666-1.35,3.016-3.016,3.016c-1.666,0-3.016-1.35-3.016-3.016
				c0-1.666,1.35-3.016,3.016-3.016C71.943,373.679,73.294,375.03,73.294,376.695z"/>
		</g>
	</g>
	<g>
		<g>
			<path style="fill:#B3D7E0;" d="M326.829,312.437c2.132-1.223,1.309-4.642-1.118-4.642h-18.027h-70.285
				c-1.293,0-2.34,1.106-2.34,2.471v53.366c0,1.365,1.048,2.471,2.34,2.471h67.945c1.293,0,2.341-1.106,2.341-2.471v-38.74
				c0-0.906,0.469-1.739,1.223-2.171L326.829,312.437z"/>
		</g>
		<g>
			<path style="fill:#FCFCFC;" d="M324.617,312.233c2.132-1.159,1.309-4.397-1.118-4.397h-18.027h-70.285
				c-1.293,0-2.34,1.048-2.34,2.34v50.545c0,1.293,1.048,2.34,2.34,2.34h67.945c1.293,0,2.341-1.048,2.341-2.34v-36.692
				c0-0.858,0.469-1.647,1.223-2.056L324.617,312.233z"/>
		</g>
		<g>
			<g>
				<path style="fill:#F25353;" d="M277.594,321.059c0-5.168-4.311-9.33-9.533-9.085c-4.724,0.221-8.565,4.177-8.657,8.905
					c-0.055,2.835,1.187,5.381,3.173,7.085c1.029,0.884,1.871,1.968,2.555,3.14c1.164,1.995,2.002,4.107,2.551,5.728
					c0.265,0.782,1.366,0.782,1.631,0c0.538-1.589,1.353-3.649,2.482-5.609c0.707-1.228,1.587-2.361,2.657-3.288
					C276.376,326.267,277.594,323.805,277.594,321.059z"/>
			</g>
			<g>
				<path style="fill:#FCFCFC;" d="M273.389,320.903c0,2.701-2.19,4.891-4.891,4.891c-2.701,0-4.891-2.19-4.891-4.891
					c0-2.701,2.19-4.891,4.891-4.891C271.199,316.012,273.389,318.202,273.389,320.903z"/>
			</g>
			<g>
				<path style="fill:#F25353;" d="M270.694,320.903c0,1.213-0.983,2.197-2.197,2.197s-2.197-0.983-2.197-2.197
					s0.983-2.197,2.197-2.197S270.694,319.69,270.694,320.903z"/>
			</g>
		</g>
		<g>
			<path style="fill:#D5E7F7;" d="M232.847,360.721c0,1.293,1.048,2.34,2.34,2.34h67.945c1.293,0,2.341-1.048,2.341-2.34v-20.383
				h-72.626V360.721z"/>
		</g>
		<g>
			<path style="fill:#FCFCFC;" d="M275.145,348.438h-34.008c-0.912,0-1.659-0.746-1.659-1.659l0,0c0-0.912,0.747-1.659,1.659-1.659
				h34.008c0.912,0,1.659,0.746,1.659,1.659l0,0C276.803,347.691,276.057,348.438,275.145,348.438z"/>
		</g>
		<g>
			<path style="fill:#FCFCFC;" d="M297.618,355.627h-56.481c-0.912,0-1.659-0.747-1.659-1.659v0c0-0.912,0.747-1.659,1.659-1.659
				h56.481c0.912,0,1.659,0.746,1.659,1.659v0C299.277,354.88,298.53,355.627,297.618,355.627z"/>
		</g>
	</g>
	<g>
		<g>
			<path style="fill:#B3D7E0;" d="M334.651,235.752l-9.466-1.872c-0.217-0.116-0.353-0.342-0.353-0.588v-8.282
				c0-0.368-0.298-0.666-0.666-0.666H244.75c-0.368,0-0.666,0.298-0.666,0.666v27.056c0,0.368,0.298,0.666,0.666,0.666h79.417
				c0.368,0,0.666-0.298,0.666-0.666v-6.099c0-0.242,0.131-0.464,0.342-0.582l9.487-8.464
				C335.122,236.665,335.116,236,334.651,235.752z"/>
		</g>
		<g>
			<path style="fill:#A4E8F7;" d="M334.651,235.503l-9.466-5.048c-0.217-0.116-0.353-0.342-0.353-0.588v-8.282
				c0-0.368-0.298-0.666-0.666-0.666H244.75c-0.368,0-0.666,0.298-0.666,0.666v27.056c0,0.368,0.298,0.666,0.666,0.666h79.417
				c0.368,0,0.666-0.298,0.666-0.666v-6.099c0-0.242,0.131-0.464,0.342-0.582l9.487-5.288
				C335.122,236.416,335.116,235.751,334.651,235.503z"/>
		</g>
		<g>
			<path style="fill:#FFFFFF;" d="M244.75,220.919c-0.368,0-0.666,0.298-0.666,0.666v27.056c0,0.368,0.298,0.666,0.666,0.666h27.941
				v-28.388H244.75z"/>
		</g>
		<g>
			<g>
				<path style="fill:#3884F2;" d="M256.452,244.836c-0.798,0-1.545-0.341-2.072-0.951l-4.905-5.682
					c-0.666-0.771-0.58-1.937,0.191-2.603c0.772-0.666,1.937-0.58,2.603,0.191l4.083,4.731l9.437-14.413
					c0.558-0.853,1.702-1.091,2.555-0.533c0.853,0.558,1.091,1.702,0.533,2.555l-10.126,15.465
					c-0.476,0.727-1.247,1.177-2.114,1.235C256.576,244.834,256.514,244.836,256.452,244.836z"/>
			</g>
		</g>
		<g>
			<path style="fill:#FFFFFF;" d="M307.819,229.86h-28.322c-0.519,0-0.944-0.425-0.944-0.944l0,0c0-0.519,0.425-0.944,0.944-0.944
				h28.322c0.519,0,0.944,0.425,0.944,0.944l0,0C308.763,229.435,308.338,229.86,307.819,229.86z"/>
		</g>
		<g>
			<path style="fill:#FFFFFF;" d="M317.678,236.333h-38.137c-0.544,0-0.988-0.445-0.988-0.988l0,0c0-0.544,0.445-0.988,0.988-0.988
				h38.137c0.544,0,0.988,0.445,0.988,0.988l0,0C318.666,235.889,318.222,236.333,317.678,236.333z"/>
		</g>
		<g>
			<path style="fill:#FFFFFF;" d="M317.678,242.268h-38.137c-0.544,0-0.988-0.445-0.988-0.988l0,0c0-0.544,0.445-0.988,0.988-0.988
				h38.137c0.544,0,0.988,0.445,0.988,0.988l0,0C318.666,241.823,318.222,242.268,317.678,242.268z"/>
		</g>
	</g>
</g>
</svg>
