<?xml version="1.0" encoding="utf-8"?>
<!-- Generator: Adobe Illustrator 27.5.0, SVG Export Plug-In . SVG Version: 6.00 Build 0)  -->
<svg version="1.1" id="Layer_1" xmlns="http://www.w3.org/2000/svg" xmlns:xlink="http://www.w3.org/1999/xlink" x="0px" y="0px"
	 viewBox="0 0 900 900" style="enable-background:new 0 0 900 900;" xml:space="preserve">

<g>
	<path style="fill:#BCC6D9;" d="M617.954,413.99v-6.422c5.194,0,9.419-4.225,9.419-9.419c0-5.193-4.225-9.419-9.419-9.419v-6.422
		c8.735,0,15.841,7.106,15.841,15.84C633.795,406.884,626.689,413.99,617.954,413.99z"/>
</g>
<g>
	<path style="fill:#BCC6D9;" d="M566.454,413.99v-6.422c5.194,0,9.419-4.225,9.419-9.419c0-5.193-4.225-9.419-9.419-9.419v-6.422
		c8.735,0,15.841,7.106,15.841,15.84C582.295,406.884,575.189,413.99,566.454,413.99z"/>
</g>
<path style="fill:#B74937;" d="M556.621,326.482c0,2.75,2.25,5,5,5h51c2.75,0,5-2.25,5-5v-9c0-2.75-2.25-5-5-5h-51
	c-2.75,0-5,2.25-5,5V326.482z"/>
<g>
	<path style="fill:none;stroke:#AF9F9A;stroke-width:4;stroke-linejoin:round;stroke-miterlimit:10;" d="M612.288,344.149
		c0,1.65,1.35,3,3,3h3.667c1.65,0,3-1.35,3-3v-10c0-1.65-1.35-3-3-3h-3.667c-1.65,0-3,1.35-3,3V344.149z"/>
	<path style="fill:none;stroke:#AF9F9A;stroke-width:4;stroke-linejoin:round;stroke-miterlimit:10;" d="M612.288,373.26
		c0,1.65,1.35,3,3,3h3.667c1.65,0,3-1.35,3-3v-10c0-1.65-1.35-3-3-3h-3.667c-1.65,0-3,1.35-3,3V373.26z"/>
	<path style="fill:none;stroke:#AF9F9A;stroke-width:4;stroke-linejoin:round;stroke-miterlimit:10;" d="M614.288,358.705
		c0,1.65,1.275,3,2.833,3c1.558,0,2.833-1.35,2.833-3v-10c0-1.65-1.275-3-2.833-3c-1.558,0-2.833,1.35-2.833,3V358.705z"/>
	<path style="fill:none;stroke:#AF9F9A;stroke-width:4;stroke-linejoin:round;stroke-miterlimit:10;" d="M614.288,387.816
		c0,1.65,1.275,3,2.833,3c1.558,0,2.833-1.35,2.833-3v-10c0-1.65-1.275-3-2.833-3c-1.558,0-2.833,1.35-2.833,3V387.816z"/>
</g>
<g>
	<path style="fill:none;stroke:#AF9F9A;stroke-width:4;stroke-linejoin:round;stroke-miterlimit:10;" d="M588.788,243.649
		c0,1.65,1.35,3,3,3h3.667c1.65,0,3-1.35,3-3v-10c0-1.65-1.35-3-3-3h-3.667c-1.65,0-3,1.35-3,3V243.649z"/>
	<path style="fill:none;stroke:#AF9F9A;stroke-width:4;stroke-linejoin:round;stroke-miterlimit:10;" d="M588.788,272.76
		c0,1.65,1.35,3,3,3h3.667c1.65,0,3-1.35,3-3v-10c0-1.65-1.35-3-3-3h-3.667c-1.65,0-3,1.35-3,3V272.76z"/>
	<path style="fill:none;stroke:#AF9F9A;stroke-width:4;stroke-linejoin:round;stroke-miterlimit:10;" d="M590.788,258.205
		c0,1.65,1.275,3,2.833,3c1.558,0,2.833-1.35,2.833-3v-10c0-1.65-1.275-3-2.833-3c-1.558,0-2.833,1.35-2.833,3V258.205z"/>
	<path style="fill:none;stroke:#AF9F9A;stroke-width:4;stroke-linejoin:round;stroke-miterlimit:10;" d="M590.788,287.316
		c0,1.65,1.275,3,2.833,3c1.558,0,2.833-1.35,2.833-3v-10c0-1.65-1.275-3-2.833-3c-1.558,0-2.833,1.35-2.833,3V287.316z"/>
</g>
<g>
	<path style="fill:none;stroke:#AF9F9A;stroke-width:4;stroke-linejoin:round;stroke-miterlimit:10;" d="M561.621,344.149
		c0,1.65,1.35,3,3,3h3.667c1.65,0,3-1.35,3-3v-10c0-1.65-1.35-3-3-3h-3.667c-1.65,0-3,1.35-3,3V344.149z"/>
	<path style="fill:none;stroke:#AF9F9A;stroke-width:4;stroke-linejoin:round;stroke-miterlimit:10;" d="M561.621,373.26
		c0,1.65,1.35,3,3,3h3.667c1.65,0,3-1.35,3-3v-10c0-1.65-1.35-3-3-3h-3.667c-1.65,0-3,1.35-3,3V373.26z"/>
	<path style="fill:none;stroke:#AF9F9A;stroke-width:4;stroke-linejoin:round;stroke-miterlimit:10;" d="M563.621,358.705
		c0,1.65,1.275,3,2.833,3c1.558,0,2.833-1.35,2.833-3v-10c0-1.65-1.275-3-2.833-3c-1.558,0-2.833,1.35-2.833,3V358.705z"/>
	<path style="fill:none;stroke:#AF9F9A;stroke-width:4;stroke-linejoin:round;stroke-miterlimit:10;" d="M563.621,387.816
		c0,1.65,1.275,3,2.833,3c1.558,0,2.833-1.35,2.833-3v-10c0-1.65-1.275-3-2.833-3c-1.558,0-2.833,1.35-2.833,3V387.816z"/>
</g>
<g>
	<path style="fill:#BCC6D9;" d="M566.454,413.99c-8.735,0-15.841-7.106-15.841-15.841c0-8.734,7.106-15.84,15.841-15.84v6.422
		c-5.194,0-9.419,4.225-9.419,9.419c0,5.194,4.225,9.419,9.419,9.419V413.99z"/>
</g>
<g>
	<path style="fill:#BCC6D9;" d="M617.954,413.99c-8.735,0-15.841-7.106-15.841-15.841c0-8.734,7.106-15.84,15.841-15.84v6.422
		c-5.194,0-9.419,4.225-9.419,9.419c0,5.194,4.225,9.419,9.419,9.419V413.99z"/>
</g>
<path style="fill:#3E3B44;" d="M575.121,331.482c0,2.75,2.25,5,5,5h17c2.75,0,5-2.25,5-5v-39c0-2.75-2.25-5-5-5h-17
	c-2.75,0-5,2.25-5,5V331.482z"/>
<path style="fill:#FF7D50;" d="M565.621,326.482c0,2.75,2.25,5,5,5h51c2.75,0,5-2.25,5-5v-9c0-2.75-2.25-5-5-5h-51
	c-2.75,0-5,2.25-5,5V326.482z"/>
<g>
	<g>
		<rect x="401.419" y="521.278" style="fill:#FF5F45;" width="20.076" height="127.96"/>
		<rect x="728.842" y="576.118" style="fill:#FF5F45;" width="20.076" height="73.119"/>
		<rect x="728.936" y="584.273" style="fill:#6D5E5C;" width="20.076" height="7.796"/>
		<polygon style="fill:#B74937;" points="728.842,602.642 748.918,596.549 748.918,592.158 728.842,592.158 		"/>
		<rect x="727.964" y="575.845" style="fill:#756863;" width="26.016" height="8.482"/>
		<rect x="693.471" y="521.278" style="fill:#FF5F45;" width="20.076" height="127.96"/>
		<polygon style="fill:#B74937;" points="693.471,558.196 713.547,553.537 713.547,542.784 693.471,542.784 		"/>
		<rect x="693.471" y="544.486" style="opacity:0.5;fill:#4A4751;" width="20.076" height="7.796"/>
		<g>
			<g>
				<path style="fill:#69B22F;" d="M743.821,556.069l9.081-0.001h8.566c0,6.673,0,13.346,0,20.928c-8.362,0.275-12.087,0-29.623,0
					v29.76h-31.674V556.34l7.657-0.271L743.821,556.069z"/>
				<path style="fill:#28736C;" d="M619.459,496.757l123.48,13.285l10.737,48.713l-20.401,1.611l-4.99,27.442
					c-4.835-30.212-15.878-50.822-37.927-50.822c-22.45,0-35.358,23.244-39.075,58.808H455.42H131.261v-94.206L619.459,496.757z"/>
				<path style="opacity:0.3;fill:#0F5A53;" d="M475.16,516.337h150.498l11.919-17.63l105.363,11.336l10.737,48.713l-20.401,1.611
					l-4.99,27.441c-4.835-30.212-15.878-50.821-37.927-50.821c-22.45,0-35.359,23.243-39.075,58.808h-26.782l0.472-64.523H475.16
					V516.337z"/>
				<g>
					<g style="opacity:0.2;">
						<path style="fill:#546070;" d="M683.411,542.96c0,1.673,1.369,3.042,3.042,3.042h14.009c1.673,0,3.042-1.369,3.042-3.042
							v-12.271c0-1.673-1.369-3.042-3.042-3.042h-14.009c-1.673,0-3.042,1.369-3.042,3.042V542.96z"/>
					</g>
					<path style="fill:#635654;" d="M678.416,543.22c0,1.673,1.369,3.042,3.042,3.042h14.009c1.673,0,3.042-1.369,3.042-3.042
						v-13.347c0-1.673-1.369-3.042-3.042-3.042h-14.009c-1.673,0-3.042,1.369-3.042,3.042V543.22z"/>
					<rect x="687.546" y="538.466" style="fill:#756863;" width="28.201" height="7.796"/>
					<path style="fill:#1D5D56;" d="M725.208,576.603c-3.165-18.021-12.231-31.904-21.888-38.151l12.602-5.203l12.428,39.652
						L725.208,576.603z"/>
				</g>
				<path style="opacity:0.7;fill:#3E3B44;" d="M524.572,503.512h-8.829v-3.316h-3.109v-3.375l107.491-1.064l123.48,13.285
					l9.349,51.44l-35.063-5.426c-6.305-11.361-14.295-19.07-26.867-19.07c-18.811,0-30.919,16.325-36.538,42.538
					c-2.581,0.751-2.278,9.436-1.199,11.958c2.482,5.807-9.49,7.489-12,0.667c-0.286,0.008-17.964,6.807-7.667-4.333
					c1.693-1.832-5.965-0.707-8.333-1.333c-7.083-0.792-32.877,9.087-37.333,4l-13.46-20.091c-5.646,0-10.57-3.04-13.262-7.564
					h-40.771v-4.974h6.528v-0.104h-1.012c0.588-0.222,1.012-0.787,1.012-1.451v-0.104c0-0.854-0.678-1.728-1.506-1.939l-6.314-1.614
					c0,0,0,0-0.001,0l-1.505-0.385v-18.185h-0.003v-4.695h-5.162l-0.448-6.209l0.003-0.008l4.797-11.194h6.372l0.478-1.053
					l2.371-5.212c-0.323-0.214-0.64-0.442-0.948-0.694C524.934,503.853,524.755,503.68,524.572,503.512z"/>
				<path style="fill:#A8E53E;" d="M393.436,492.328l76.964,13.965c0,0,7.862,1.011,12.477,12.391l32.748,0.001
					c2.639,0,2.931,2.409,3.273,5.352l6.608,32.065h-10.323l-2.727-24.819c-0.342-2.944-2.781-5.352-5.42-5.352l-32.748-0.001
					v-2.416c-4.615-11.38-12.477-12.391-12.477-12.391l-92.534-15.777L393.436,492.328z"/>
				<path style="fill:#69B22F;" d="M724.966,556.104l2.77-25.208c0.347-2.99,2.824-5.436,5.505-5.436l20.851-3.771
					c2.681,0,4.617-2.849,5.18,0.92c0.08,0.535,1.08-0.613,2.726-0.613c0,0-2.772-8.996-5.453-8.996l1.045,5.098
					c-2.681,0-5.474,0-6.207,0c-0.733,0,0.836,0-1.845,0l-23.931,0.002c-2.681,0-5.158,2.446-5.505,5.436l-4.53,32.568H724.966z"/>
				<polygon style="fill:#69B22F;" points="641.47,497.763 625.901,515.88 493.294,515.88 488.999,499.575 630.554,499.575 
					633.775,491.926 				"/>
				<path style="fill:#69B22F;" d="M738.644,518.094c5.011,0,17.797,0,17.797,0s1.172-5.636-5.986-7.247l-116.68-18.922
					l-5.369,7.649L738.644,518.094z"/>
				<rect x="551.276" y="573.853" style="fill:#69B22F;" width="22.012" height="32.61"/>
				<g>
					<path style="fill:#A8E53E;" d="M285.611,494.736l19.681-2.196l11.97-70.637c0,0,35.647-20.01-0.865-20.01
						c41.432,0,212.948,0,225.094,0c25.558,0,39.965,21.809,39.965,21.809l60.299,63.439l112.549,19.152
						c0,0,8.528,1.066,13.034,13.813v5.737l-22.252-3.49v-6.273l-113.038-16.506H474.862l20.055,58.546l57.518-2.183h40.369v50.818
						h-33.285v-29.811c-16.296,0-30.6-1.837-38.653-1.837c-8.052,0-100.927,1.837-105.759,1.837c-4.832,0-6.442,38.043-6.442,38.043
						l1.609,3.846H259.876c0,0,0-64.091,0-91.009C259.876,500.908,285.611,494.736,285.611,494.736z"/>
				</g>
				<path style="fill:#69B22F;" d="M576.923,556.104l-2.727-24.819c-0.342-2.944-2.781-5.352-5.42-5.352l-51.479-0.002
					c-2.639,0-5.39,0-6.112,0c-0.475,0-1.832,0-3.454,0l-0.426-1.998c-0.617-2.887,1.039-5.249,3.678-5.249h1.606
					c2.639,0,5.39,0,6.111,0c0.722,0,3.472,0,6.112,0l52.553,0.002c2.639,0,5.078,2.409,5.42,5.352l4.461,32.065H576.923z"/>
				
					<rect x="410.816" y="537.016" style="fill:#28736C;stroke:#28736C;stroke-width:7.6343;stroke-linejoin:round;stroke-miterlimit:10;" width="91.268" height="54.659"/>
				
					<rect x="143.386" y="537.016" style="opacity:0.6;fill:#0F5A53;stroke:#0F5A53;stroke-width:7.6343;stroke-linejoin:round;stroke-miterlimit:10;" width="91.268" height="54.659"/>
				<path style="fill:#7EBF40;" d="M145.98,487.471l38.697-8.234l41.57-57.333c0,0,11.276-20.01,27.926-20.01
					c41.432,0,64.189,0,76.335,0c20.183,0,33.409,21.809,33.409,21.809l45.938,63.439l116.844,19.152c0,0,8.308,1.034,12.857,13.315
					h-14.094h-2.381h-10.161l7.781,36.459l7.743,0.001h14.009c0,6.368,0,13.547,0,20.853H493.73
					c-5.863-24.591-17.771-39.935-35.925-39.935c-27,0-40.212,37.902-40.212,86.148H219.312c0-46.244-13.206-86.148-40.214-86.148
					c-27,0-40.212,33.601-40.212,81.847H126.92c0,0,0-75.84,0-102.758C126.92,489.159,145.98,487.471,145.98,487.471z"/>
				<g>
					<g>
						<g>
							<g>
								<path style="fill:#28736C;" d="M431.597,487.543c-4.322,0-9.904-2.846-12.442-6.345l-44.22-60.949
									c-0.315-0.434-0.578-0.872-0.78-1.302c-0.505-1.069-0.486-2.312,0.051-3.365c0.537-1.053,1.533-1.798,2.694-2.017
									c0.466-0.088,0.974-0.132,1.51-0.132h170.973c4.305,0,10.217,2.541,13.179,5.663l58.815,62.002
									c1.05,1.107,1.34,2.733,0.738,4.134s-1.981,2.31-3.507,2.31H431.597z"/>
								<path style="fill:#28736C;" d="M549.384,417.251c3.285,0,8.149,2.09,10.41,4.473l58.815,62.002H431.598
									c-3.084,0-7.542-2.273-9.353-4.77l-44.22-60.949c-0.2-0.276-0.333-0.509-0.419-0.69c0.197-0.037,0.464-0.066,0.805-0.066
									H549.384L549.384,417.251z M549.384,409.617H378.411c-0.774,0-1.519,0.066-2.216,0.197c-2.325,0.438-4.315,1.927-5.39,4.035
									c-1.074,2.107-1.111,4.594-0.1,6.732c0.302,0.64,0.685,1.281,1.138,1.906l44.223,60.954
									c3.221,4.441,10.044,7.92,15.532,7.92h187.011c3.051,0,5.809-1.817,7.014-4.62c1.205-2.803,0.625-6.055-1.475-8.268
									l-58.815-62.002C561.625,412.564,554.769,409.617,549.384,409.617L549.384,409.617z"/>
							</g>
							<path style="fill:#28736C;stroke:#28736C;stroke-width:7.6343;stroke-linejoin:round;stroke-miterlimit:10;" d="
								M382.263,606.53V475.549l-29.223-44.185c-9.7-15.138-14.539-15.976-25.328-15.976h-76.534
								c-8.231,0-12.795,11.515-12.838,11.632l-0.284,0.778l-23.033,45.96v50.368l40.877,82.403H382.263z"/>
							<path style="fill:#FFFFFF;" d="M250.547,427.504c-2.348,0-6.189,1.707-7.903,3.514l-23.853,50.364H385.81v-7.439
								l-30.865-46.439H250.547z"/>
							<polygon style="fill:#278780;" points="294.283,492.076 301.872,492.076 307.853,412.014 296.431,412.014 							"/>
							<polygon style="fill:#28736C;" points="291.953,494.318 317.816,494.318 324.114,412.974 297.934,412.974 							"/>
							<polygon style="fill:#A8E53E;" points="292.222,494.318 309.811,494.318 315.821,411.408 298.231,411.408 							"/>
							<rect x="292.222" y="493.329" style="fill:#A8E53E;" width="17.59" height="117.539"/>
							<polygon style="fill:#69B22F;" points="285.242,494.318 302.832,494.318 312.034,409.772 294.444,409.772 							"/>
							<rect x="285.242" y="493.329" style="fill:#69B22F;" width="17.59" height="118.746"/>
							<path style="fill:#FFFFFF;" d="M553.463,428.514c2.348,0,6.189,1.707,7.903,3.514l47.776,50.364v9.871H431.184
								c-5.095,0-11.61-3.478-14.831-7.919l-7.579-10.446l14.001-45.385H553.463z"/>
							<polygon style="fill:#28736C;" points="493.811,492.239 509.408,492.239 503.26,415.794 487.664,415.794 							"/>
							<polygon style="fill:#FFFFFF;" points="394.676,453.988 375.434,427.504 403.961,427.504 							"/>
						</g>
						<polygon style="fill:#A8E53E;" points="284.988,610.689 285.257,602.324 259.722,602.324 219.319,525.341 211.352,477.231 
							211.352,477.381 211.352,525.341 253.496,610.689 						"/>
					</g>
					<path style="fill:#278780;stroke:#278780;stroke-width:7.6343;stroke-linejoin:round;stroke-miterlimit:10;" d="
						M408.721,516.631h11.935c1.186,0,2.147,1.082,2.147,2.416v9.373c0,1.334-0.961,2.415-2.147,2.415h-11.935
						c-1.186,0-2.148-1.081-2.148-2.415v-9.373C406.573,517.712,407.535,516.631,408.721,516.631z"/>
				</g>
				<path style="fill:#A8E53E;" d="M751.337,556.069l9.081-0.001h8.566c0,6.673,0,13.346,0,20.928c-8.362,0.275-12.087,0-29.623,0
					v29.76h-31.674v-50.687h7.657L751.337,556.069z"/>
				<g>
					<g>
						<polygon style="fill:#90ADAC;" points="680.337,442.679 694.015,442.679 694.015,412.837 670.17,413.424 						"/>
						<polygon style="fill:#B8E0E0;" points="693.808,442.679 707.485,442.679 707.485,412.837 683.446,412.837 						"/>
						<path style="fill:#B8E0E0;" d="M670.183,407.449c0-0.855,0.699-1.554,1.554-1.554h34.194c0.855,0,1.554,0.699,1.554,1.554
							v4.456c0,0.855-0.699,1.548-1.554,1.541l-34.194-0.285c-0.855-0.007-1.554-0.712-1.554-1.567V407.449z"/>
						<path style="fill:#90ADAC;" d="M670.183,413.459v-4.145c0-0.855,0.699-1.554,1.554-1.554h10.425
							c0.855,0,1.554,0.699,1.554,1.554v7.253L670.183,413.459z"/>
						<polygon style="fill:#A3C9C8;" points="707.485,419.236 707.485,442.679 693.808,442.679 685.668,419.236 						"/>
						<path style="fill:#FFFFFF;" d="M697.642,419.987c0,0.855,0.699,1.554,1.554,1.554h4.559c0.855,0,1.554-0.699,1.554-1.554
							v-9.222c0-0.855-0.699-1.554-1.554-1.554h-4.559c-0.855,0-1.554,0.699-1.554,1.554V419.987z"/>
						<rect x="683.239" y="399.674" style="fill:#FFCD5C;" width="16.32" height="6.217"/>
						<rect x="692.237" y="399.674" style="opacity:0.3;fill:#FFBC64;" width="7.321" height="6.217"/>
						<rect x="683.239" y="404.648" style="fill:#488593;" width="16.32" height="1.243"/>
					</g>
					<g>
						<path style="fill:#444444;" d="M517.874,455.372h-5.595v-8.497c0-1.545,1.252-2.798,2.798-2.798h4.663v5.595h-1.865V455.372z"
							/>
					</g>
					<g>
						<path style="fill:#545659;" d="M514.61,451.953h-5.285v-7.15c0-2.314,1.883-4.197,4.197-4.197h13.781v5.284H514.61V451.953z"
							/>
					</g>
					<rect x="537.354" y="405.325" style="fill:#666A7F;" width="77.092" height="35.438"/>
					<path style="fill:#ABB3C9;" d="M594.241,432.991c0,4.274,3.497,7.771,7.771,7.771h71.455c4.274,0,7.771-3.497,7.771-7.771
						v-19.895c0-4.274-3.497-7.771-7.771-7.771h-71.455c-4.274,0-7.771,3.497-7.771,7.771V432.991z"/>
					<path style="fill:#666A7F;" d="M618.513,426.672c0,1.65,1.35,3,3,3h40.303c1.65,0,3-1.35,3-3v-18.247c0-1.65-1.35-3-3-3
						h-40.303c-1.65,0-3,1.35-3,3V426.672z"/>
					<g style="opacity:0.4;">
						<path style="fill:#545659;" d="M539.53,412.136c-1.197,0-2.176-0.979-2.176-2.176v-4.636c0-1.197,0.978-2.221,2.174-2.276
							l49.741-2.287c1.195-0.055,3.153-0.1,4.35-0.1h40.413c1.197,0,3.155,0,4.352,0h41.409c1.197,0,2.176,0.979,2.176,2.176v13.502
							c0,1.197-0.979,2.176-2.176,2.176h-83.371c-1.197,0-2.176-0.979-2.176-2.176v-2.027c0-1.197-0.979-2.176-2.176-2.176H539.53z"
							/>
					</g>
					<path style="fill:#545659;" d="M537.009,406.852c-1.197,0-1.699-0.855-1.117-1.901l2.544-4.564
						c0.583-1.045,2.039-1.901,3.235-1.901h49.771c1.197,0,3.155,0,4.352,0h40.414c1.197,0,3.155,0,4.352,0h42.274
						c1.197,0,2.518,0.918,2.936,2.039l4.387,11.775c0.418,1.122-0.22,2.039-1.416,2.039h-87.039c-1.197,0-2.518-0.918-2.936-2.039
						l-1.27-3.41c-0.418-1.121-1.739-2.039-2.936-2.039H537.009z"/>
					<g style="opacity:0.5;">
						<path style="fill:#4A4751;" d="M537.009,406.852c-1.197,0-1.699-0.855-1.117-1.901l2.544-4.564
							c0.583-1.045,2.039-1.901,3.235-1.901h49.771c1.197,0,3.007,0,4.022,0c1.015,0,2.825,0,4.022,0h3.066
							c1.197,0,2.518,0.918,2.936,2.039l4.387,11.775c0.418,1.122-0.22,2.039-1.416,2.039h-6.758c-1.197,0-2.518-0.918-2.936-2.039
							l-1.27-3.41c-0.418-1.121-1.739-2.039-2.936-2.039H537.009z"/>
					</g>
					<g>
						<path style="fill:#3E3B44;" d="M572.956,423.134c-0.608,0-1.157-0.418-1.299-1.036c-0.849-3.7-4.302-11.187-6.985-12.119
							c-0.416-0.145-0.736-0.081-1.106,0.216c-1.216,0.977-1.772,1.957-2.31,2.904c-1.205,2.122-2.383,3.557-6.604,2.683
							c-0.721-0.15-1.185-0.855-1.035-1.577c0.149-0.721,0.856-1.185,1.577-1.035c2.643,0.548,2.877,0.138,3.743-1.388
							c0.568-1,1.346-2.37,2.959-3.666c1.094-0.879,2.357-1.105,3.651-0.656c4.534,1.574,8.104,11.402,8.71,14.042
							c0.165,0.718-0.283,1.433-1.001,1.598C573.155,423.123,573.055,423.134,572.956,423.134z"/>
					</g>
					<g>
						<path style="fill:#3E3B44;" d="M562.384,423.134c-0.608,0-1.157-0.418-1.299-1.036c-0.849-3.7-4.301-11.187-6.985-12.119
							c-0.415-0.145-0.736-0.082-1.106,0.216c-1.216,0.977-1.772,1.957-2.31,2.904c-1.205,2.122-2.383,3.557-6.604,2.683
							c-0.721-0.15-1.185-0.855-1.035-1.577c0.149-0.721,0.856-1.185,1.577-1.035c2.644,0.548,2.876,0.138,3.743-1.388
							c0.568-1,1.345-2.37,2.959-3.666c1.093-0.879,2.356-1.106,3.651-0.656c4.534,1.574,8.104,11.402,8.71,14.042
							c0.165,0.718-0.284,1.433-1.002,1.598C562.583,423.123,562.483,423.134,562.384,423.134z"/>
					</g>
					<polygon style="fill:#545659;" points="587.402,414.443 589.267,423.748 569.372,425.634 567.714,417.137 					"/>
					<path style="opacity:0.5;fill:#4A4751;" d="M587.626,415.56c-1.189,1.856-5.002,4.923-9.964,5.618l-0.725,2.694l-7.774,0.684
						l-1.448-7.419l6.88-0.941l12.985-0.865L587.626,415.56z"/>
					<rect x="636.121" y="425.149" style="fill:#545659;" width="30" height="12.833"/>
					<path style="fill:#ABB3C9;" d="M688.948,488.323c0,7.875,0,18.962,0,18.962c0,4.274-3.497,7.771-7.771,7.771h-14.299
						c-4.274,0-10.541-2.136-13.925-4.746l-12.146-9.367c-3.385-2.61-3.891-7.412-1.125-10.671l5.07-5.973
						c2.766-3.259,8.519-5.707,12.785-5.44l20.961,1.31c4.266,0.267,8.915,3.784,10.332,7.817L688.948,488.323z"/>
					<path style="fill:#8893B0;" d="M554.828,504.514c-8.527,0-15.439,6.912-15.439,15.439s6.912,15.439,15.439,15.439h79.166
						v-29.013L554.828,504.514z"/>
					<rect x="581.185" y="442.783" style="fill:#BCC6D9;" width="20.205" height="23.625"/>
					<g>
						
							<ellipse transform="matrix(0.9732 -0.2298 0.2298 0.9732 -95.0413 154.6237)" style="fill:#3E3B44;" cx="616.477" cy="485.446" rx="32.086" ry="32.086"/>
						<path style="fill:#8893B0;" d="M626.53,490.037c0-0.855-0.7-1.554-1.554-1.554h-72.749c-0.855,0-1.914-0.599-2.355-1.332
							l-3.476-5.785c-0.44-0.733-0.801-2.032-0.801-2.886v-1.243c0-0.855,0.62-1.877,1.378-2.272l7.19-3.745
							c0.758-0.395,1.378-0.019,1.378,0.836v3.958c0,0.855-0.699,1.554-1.554,1.554h-35.437c-0.855,0-1.554,0.699-1.554,1.554
							v31.583c0,0.855,0.678,1.728,1.506,1.939l6.314,1.614c0.828,0.212,1.506,1.084,1.506,1.939v0.103
							c0,0.855-0.233,1.554-0.517,1.554c-0.285,0-0.471,0.698-0.413,1.551l0.125,1.872c0.057,0.853,0.803,1.551,1.658,1.551h97.801
							c0.855,0,1.554-0.7,1.554-1.554V490.037z"/>
						<g>
							<g style="opacity:0.5;">
								<path style="fill:#959FBA;" d="M573.994,508.686c0.769,0,1.399-0.699,1.399-1.554v-8.595c0-0.855-0.629-1.554-1.399-1.554
									c-0.769,0-1.399,0.699-1.399,1.554v8.595C572.595,507.986,573.224,508.686,573.994,508.686z"/>
							</g>
							<g style="opacity:0.5;">
								<path style="fill:#959FBA;" d="M563.844,508.686c0.769,0,1.399-0.699,1.399-1.554v-8.595c0-0.855-0.629-1.554-1.399-1.554
									s-1.399,0.699-1.399,1.554v8.595C562.445,507.986,563.074,508.686,563.844,508.686z"/>
							</g>
							<g style="opacity:0.5;">
								<path style="fill:#959FBA;" d="M553.693,508.686c0.769,0,1.399-0.699,1.399-1.554v-8.595c0-0.855-0.629-1.554-1.399-1.554
									s-1.399,0.699-1.399,1.554v8.595C552.295,507.986,552.924,508.686,553.693,508.686z"/>
							</g>
							<g style="opacity:0.5;">
								<path style="fill:#959FBA;" d="M543.544,508.686c0.769,0,1.399-0.699,1.399-1.554v-8.595c0-0.855-0.629-1.554-1.399-1.554
									s-1.399,0.699-1.399,1.554v8.595C542.145,507.986,542.774,508.686,543.544,508.686z"/>
							</g>
							<g style="opacity:0.5;">
								<path style="fill:#959FBA;" d="M533.393,508.686c0.769,0,1.399-0.699,1.399-1.554v-8.595c0-0.855-0.629-1.554-1.399-1.554
									s-1.399,0.699-1.399,1.554v8.595C531.995,507.986,532.624,508.686,533.393,508.686z"/>
							</g>
							<g style="opacity:0.5;">
								<path style="fill:#959FBA;" d="M523.244,508.686c0.769,0,1.399-0.699,1.399-1.554v-8.595c0-0.855-0.629-1.554-1.399-1.554
									c-0.769,0-1.399,0.699-1.399,1.554v8.595C521.845,507.986,522.474,508.686,523.244,508.686z"/>
							</g>
						</g>
						<rect x="516.993" y="484.282" style="opacity:0.3;fill:#403E38;" width="68.854" height="9.792"/>
						<path style="fill:#666A7F;" d="M611.234,511.533v6.217H525.31c0.589-0.222,1.012-0.787,1.012-1.451v-0.103
							c0-0.855-0.678-1.728-1.506-1.939l-6.314-1.614c-0.554-0.142-1.035-0.581-1.296-1.11H611.234z"/>
						<path style="fill:#959FBA;" d="M511.719,487.829c0.061,0.853,0.811,1.55,1.666,1.55h79.419c0.855,0,1.554-0.699,1.554-1.554
							v-21.137c0-0.855-0.699-1.554-1.554-1.554h-65.587c-0.855,0-1.844,0.637-2.198,1.415l-1.822,4.004
							c-0.354,0.778-1.343,1.415-2.198,1.415h-3.263c-0.855,0-1.83,0.643-2.166,1.429l-3.576,8.345
							c-0.337,0.786-0.562,2.126-0.5,2.979L511.719,487.829z"/>
						<path style="fill:#BCC6D9;" d="M592.804,465.134c0.855,0,1.554,0.699,1.554,1.554v14.92c0,0.855-0.699,1.554-1.554,1.554
							H512.94c-0.855,0-1.279-0.643-0.942-1.429l3.573-8.337c0.337-0.786,1.311-1.429,2.166-1.429H521
							c0.855,0,1.844-0.637,2.198-1.415l1.821-4.004c0.354-0.778,1.343-1.415,2.198-1.415H592.804z"/>
						<polygon style="fill:#8088A1;" points="574.553,465.134 574.553,470.915 523.034,470.915 525.663,465.134 						"/>
						<path style="fill:#CFD9E8;" d="M567.86,442.335c-0.3,1.683,0.854,3.06,2.564,3.06h55.329c1.71,0,3.109-1.399,3.109-3.108
							v-17.562c0-1.71-1.399-3.109-3.109-3.109h-51.096c-1.71,0-3.354,1.377-3.653,3.06L567.86,442.335z"/>
						<path style="fill:#959FBA;" d="M533.938,445.114c0,7.927,1.551,13.522,7.771,19.118l0.155,0.155
							c-2.487,3.109-11.464,5.482-17.408,0.622c-5.132-4.197-7.771-13.367-7.771-19.895H533.938z"/>
						<path style="fill:#959FBA;" d="M546.528,445.114c0,7.927,1.551,13.522,7.771,19.118l0.155,0.155
							c-2.487,3.109-11.464,5.482-17.408,0.622c-5.132-4.197-7.771-13.367-7.771-19.895H546.528z"/>
						<path style="fill:#959FBA;" d="M559.117,445.114c0,7.927,1.551,13.522,7.771,19.118l0.155,0.155
							c-2.487,3.109-11.464,5.482-17.408,0.622c-5.132-4.197-7.771-13.367-7.771-19.895H559.117z"/>
						<path style="fill:#959FBA;" d="M571.707,445.114c0,7.927,1.551,13.522,7.771,19.118l0.155,0.155
							c-2.487,3.109-11.464,5.482-17.408,0.622c-5.132-4.197-7.771-13.367-7.771-19.895H571.707z"/>
						<path style="opacity:0.5;fill:#CFD9E8;" d="M574.726,465.009c-5.132-4.197-7.772-13.367-7.772-19.895h-2.75
							c0,6.528,2.639,15.698,7.772,19.895c2.865,2.342,6.431,2.995,9.639,2.704C579.218,467.497,576.789,466.696,574.726,465.009z"
							/>
						<path style="opacity:0.5;fill:#CFD9E8;" d="M561.226,465.009c-5.132-4.197-7.772-13.367-7.772-19.895h-2.75
							c0,6.528,2.639,15.698,7.772,19.895c2.865,2.342,6.431,2.995,9.639,2.704C565.718,467.497,563.289,466.696,561.226,465.009z"
							/>
						<path style="opacity:0.5;fill:#CFD9E8;" d="M547.726,465.009c-5.132-4.197-7.772-13.367-7.772-19.895h-2.75
							c0,6.528,2.639,15.698,7.772,19.895c2.865,2.342,6.431,2.995,9.639,2.704C552.218,467.497,549.789,466.696,547.726,465.009z"
							/>
						<path style="opacity:0.5;fill:#CFD9E8;" d="M535.559,465.009c-5.132-4.197-7.771-13.367-7.771-19.895h-2.75
							c0,6.528,2.639,15.698,7.771,19.895c2.865,2.342,6.431,2.995,9.639,2.704C540.052,467.497,537.623,466.696,535.559,465.009z"
							/>
						<path style="fill:#959FBA;" d="M584.297,445.114c0,7.927,1.551,13.522,7.771,19.118l0.155,0.155
							c-2.487,3.109-11.464,5.482-17.408,0.622c-5.132-4.197-7.771-13.367-7.771-19.895H584.297z"/>
						<path style="opacity:0.5;fill:#CFD9E8;" d="M587.059,465.009c-5.132-4.197-7.771-13.367-7.771-19.895h-2.75
							c0,6.528,2.639,15.698,7.771,19.895c2.865,2.342,6.431,2.995,9.639,2.704C591.552,467.497,589.123,466.696,587.059,465.009z"
							/>
						<path style="fill:#B0B0B3;" d="M614.601,445.114c0,6.528,3.73,12.59,7.771,19.118l0.156,0.155
							c-2.487,3.109-13.367,7.15-17.408,0.622c-4.041-6.528-7.771-13.367-7.771-19.895H614.601z"/>
						<polygon style="fill:#666A7F;" points="631.538,509.999 668.016,509.999 673.612,494.456 688.647,494.456 688.647,476.869 
							627.303,476.869 						"/>
						<path style="fill:#ABB3C9;" d="M632.565,488.941c-0.107-0.848-0.893-1.542-1.748-1.542h-17.465
							c-0.855,0-2.091-0.449-2.746-0.997l-2.693-2.254c-0.656-0.549-1.153-1.696-1.106-2.549l0.243-4.365
							c0.047-0.854,0.707-1.875,1.465-2.27l7.19-3.745c0.758-0.395,1.871-1.214,2.474-1.821l4.809-4.841
							c0.603-0.607,0.396-1.103-0.459-1.103h-35.437c-0.855,0-1.554,0.699-1.554,1.554v45.696c0,0.855,0.678,1.728,1.506,1.939
							l6.314,1.614c0.828,0.212,1.506,1.084,1.506,1.939v0.103c0,0.855-0.7,1.554-1.554,1.554h-3.419
							c-0.855,0-1.554,0.7-1.554,1.554v1.865c0,0.855,0.699,1.554,1.554,1.554h45.385c0.855,0,1.467-0.694,1.36-1.542
							L632.565,488.941z"/>
						<polygon style="fill:#CFD9E8;" points="630.229,491.295 692.17,491.555 692.17,456.586 630.121,456.586 						"/>
						<rect x="652.215" y="456.586" style="opacity:0.4;fill:#8893B0;" width="19.283" height="34.969"/>
						<path style="opacity:0.7;fill:#666A7F;" d="M611.185,435.736h11.39l-0.007,0.137c10.147,1.158,18.031,9.77,18.031,20.227
							c0,11.146-2.997,20.195-14.104,20.356l1.125,0.008h-16.436c-11.246,0-11.91-9.117-11.91-20.363
							C599.275,444.853,599.939,435.736,611.185,435.736z"/>
						<rect x="627.826" y="442.493" style="fill:#363638;" width="64.344" height="34.969"/>
						<g>
							<path style="fill:#4D4D4F;" d="M693.403,485.836H661.8v-12.434h31.603c3.428,0,6.217-2.789,6.217-6.217v-34.816h12.434
								v34.816C712.054,477.469,703.688,485.836,693.403,485.836z"/>
						</g>
						
							<ellipse transform="matrix(0.8051 -0.5932 0.5932 0.8051 -156.4246 476.0298)" style="fill:#36333B;" cx="646.053" cy="476.01" rx="20.707" ry="20.708"/>
						<path style="fill:#959FBA;" d="M685.176,474.338c4.224,0,7.649-3.425,7.649-7.649s-3.425-7.649-7.649-7.649h-29.801v15.087
							L685.176,474.338z"/>
						<g>
							<path style="fill:#CFD9E8;" d="M684.544,487.39h-2.176v-4.487c0-0.253-0.214-0.466-0.466-0.466h-11.191
								c-0.253,0-0.466,0.214-0.466,0.466v3.01h-2.176v-3.01c0-1.457,1.185-2.642,2.642-2.642h11.191
								c1.457,0,2.642,1.185,2.642,2.642V487.39z"/>
						</g>
						<path style="fill:#646C82;" d="M621.907,504.953c0,0.855-0.699,1.554-1.554,1.554h-11.035c-0.855,0-1.242-0.626-0.859-1.39
							l4.205-8.41c0.382-0.765,1.394-1.39,2.249-1.39h5.44c0.855,0,1.554,0.7,1.554,1.554V504.953z"/>
						<path style="opacity:0.7;fill:#666A7F;" d="M661.935,430.986h11.39l-0.007,0.137c10.147,1.158,18.031,9.77,18.031,20.227
							c0,11.146-8.956,20.195-20.063,20.356l0,0.008h-9.351c-11.246,0-11.91-9.117-11.91-20.363
							C650.025,440.103,650.689,430.986,661.935,430.986z"/>
						<g>
							
								<ellipse transform="matrix(0.8507 -0.5257 0.5257 0.8507 -153.2543 412.5512)" style="fill:#3E3B44;" cx="649.492" cy="476.014" rx="20.654" ry="20.654"/>
							<polygon style="fill:#666A7F;" points="648.121,495.232 638.788,495.232 632.621,475.149 643.704,475.149 650.954,457.816 
								655.788,460.316 648.788,477.816 							"/>
							<polygon style="fill:#959FBA;" points="652.621,495.232 637.288,495.232 630.121,477.149 647.204,477.066 655.454,457.816 
								660.288,460.316 653.288,477.816 							"/>
							<path style="fill:#5C5F63;" d="M649.334,460.615c8.489,0,15.395,6.907,15.395,15.396c0,8.489-6.906,15.395-15.395,15.395
								c-8.489,0-15.395-6.907-15.395-15.396C633.939,467.521,640.845,460.614,649.334,460.615L649.334,460.615z M649.334,455.302
								c-11.437,0-20.707,9.271-20.707,20.707s9.271,20.708,20.708,20.708c11.437,0,20.707-9.27,20.707-20.707
								C670.042,464.574,660.771,455.303,649.334,455.302L649.334,455.302z"/>
						</g>
						<g style="opacity:0.5;">
							<g>
								<path style="fill:#5B6068;" d="M708.013,467.133c-1.116,0-2.021-0.905-2.021-2.021v-2.746c0-1.116,0.905-2.021,2.021-2.021
									c1.116,0,2.02,0.905,2.02,2.021v2.746C710.034,466.228,709.129,467.133,708.013,467.133z"/>
							</g>
						</g>
						<g style="opacity:0.5;">
							<g>
								<path style="fill:#5B6068;" d="M708.013,458.403c-1.116,0-2.021-0.905-2.021-2.021v-24.014c0-1.116,0.905-2.02,2.021-2.02
									c1.116,0,2.02,0.904,2.02,2.02v24.014C710.034,457.499,709.129,458.403,708.013,458.403z"/>
							</g>
						</g>
						<path style="opacity:0.5;fill:#966556;" d="M672.005,472.088c-12.61-0.922-25.135-6.356-26.51-18.469
							c0.154-0.002,0.306-0.01,0.461-0.01C658.926,453.609,669.712,461.572,672.005,472.088z"/>
						<g style="opacity:0.5;">
							<path style="fill:#403E38;" d="M640.828,522.828h-29.034c-1.154-3.056-1.787-6.368-1.787-9.828
								c0-15.051,11.947-27.309,26.875-27.814L640.828,522.828z"/>
						</g>
						
							<ellipse transform="matrix(0.9868 -0.162 0.162 0.9868 -62.9438 114.2788)" style="fill:#959FBA;" cx="669.202" cy="443.065" rx="21.305" ry="21.304"/>
						<path style="fill:#56595E;" d="M695.692,432.651c0,0.855,0.699,1.554,1.554,1.554h16.941c0.855,0,1.554-0.699,1.554-1.554
							v-8.082c0-0.855-0.7-1.554-1.554-1.554h-16.941c-0.855,0-1.554,0.699-1.554,1.554V432.651z"/>
						<path style="fill:#CFD9E8;" d="M631.781,423.493H623.7c-13.133,0-22.815,8.77-22.815,21.903h-24.053l13.056-23.823
							c0,0,35.903,0,39.634,0C632.476,421.572,631.781,423.493,631.781,423.493z"/>
						<path style="fill:#FC5938;" d="M695.692,429.053v-4.484c0-0.855,0.699-1.554,1.554-1.554h16.941
							c0.855,0,1.554,0.699,1.554,1.554v4.484H695.692z"/>
						<rect x="695.615" y="428.95" style="fill:#363638;" width="20.169" height="1.762"/>
						<polygon style="fill:#666A7F;" points="610.094,431.903 604.965,429.571 577.713,451.398 599.214,457.393 						"/>
						<rect x="699.66" y="434.234" style="fill:#363638;" width="12.351" height="4.559"/>
						<g>
							<path style="fill:#BCC6D9;" d="M674.644,462.869c-5.29,0-10.264-2.06-14.005-5.8c-3.741-3.741-5.801-8.714-5.801-14.004
								c0-5.29,2.06-10.263,5.8-14.004c3.741-3.741,8.714-5.801,14.004-5.801c5.29,0,10.264,2.06,14.004,5.8
								s5.801,8.714,5.801,14.004C694.45,453.984,685.565,462.868,674.644,462.869L674.644,462.869z"/>
							<g>
								<path style="fill:#CFD9E8;" d="M674.645,424.76c10.093,0,18.304,8.211,18.304,18.304c0,4.889-1.904,9.486-5.361,12.943
									c-3.458,3.458-8.055,5.361-12.944,5.361c-10.093,0-18.305-8.211-18.305-18.304c0-4.889,1.904-9.486,5.361-12.943
									C665.158,426.664,669.755,424.76,674.645,424.76L674.645,424.76z M674.645,421.76
									C674.644,421.76,674.644,421.76,674.645,421.76c-11.767,0-21.306,9.539-21.306,21.305c0,11.766,9.539,21.304,21.305,21.304
									c0.001,0,0,0,0,0c11.767,0,21.306-9.538,21.305-21.305C695.949,431.298,686.41,421.76,674.645,421.76L674.645,421.76z"/>
							</g>
						</g>
						<circle style="opacity:0.2;fill:#403E38;" cx="674.089" cy="444.619" r="14.01"/>
						<circle style="fill:#444444;" cx="676.887" cy="443.064" r="12.161"/>
						<path style="fill:#3E3B44;" d="M688.616,443.064c0-7.122-5.774-12.896-12.897-12.895c-7.122,0-12.896,5.774-12.896,12.896
							c0,7.122,5.774,12.896,12.897,12.895C682.843,455.96,688.616,450.186,688.616,443.064z"/>
						<circle style="fill:#D3AB90;" cx="676.887" cy="443.064" r="8.295"/>
						<path style="fill:#959FBA;" d="M620.935,471.04c-13.133,0-23.779-10.646-23.779-23.779c0-13.133,10.646-23.779,23.779-23.779
							h10.751l0.168,47.558H620.935z"/>
						<path style="opacity:0.4;fill:#666A7F;" d="M619.316,471.019c-17.408-1.658-21.272-14.865-22.2-22.692l11.346-1.632
							l0.078,1.321h25.296l-0.893,23.003H619.316z"/>
						<circle style="fill:#CFD9E8;" cx="631.504" cy="447.26" r="23.779"/>
						<g>
							<polygon style="fill:#444444;" points="631.502,447.265 645.986,430.003 639.21,426.088 631.503,447.263 							"/>
							<polygon style="fill:#444444;" points="631.496,447.267 653.687,451.18 653.69,443.354 631.498,447.267 							"/>
							<polygon style="fill:#444444;" points="631.491,447.263 639.198,468.438 645.977,464.526 631.492,447.265 							"/>
							<polygon style="fill:#444444;" points="631.492,447.257 617.008,464.518 623.784,468.433 631.491,447.259 							"/>
							<polygon style="fill:#444444;" points="631.498,447.254 609.307,443.341 609.305,451.167 631.496,447.254 							"/>
							<polygon style="fill:#444444;" points="631.503,447.258 623.796,426.084 617.017,429.995 631.502,447.257 							"/>
							<g>
								<path style="fill:#D8E1EF;" d="M631.504,427.501c10.895,0,19.759,8.864,19.759,19.76c0,10.895-8.864,19.759-19.759,19.759
									c-10.896,0-19.76-8.864-19.76-19.759C611.744,436.365,620.608,427.501,631.504,427.501L631.504,427.501z M631.504,423.501
									c-13.122,0-23.76,10.638-23.76,23.76c0,13.122,10.638,23.759,23.76,23.759c13.122,0,23.759-10.638,23.759-23.759
									C655.263,434.139,644.626,423.501,631.504,423.501L631.504,423.501z"/>
							</g>
						</g>
						
							<ellipse transform="matrix(0.7071 -0.7071 0.7071 0.7071 -174.0322 603.9828)" style="fill:#3E3B44;" cx="642.056" cy="512.067" rx="27.832" ry="27.832"/>
						<path style="fill:#646C82;" d="M593.404,504.983c0,0.855,0.699,1.554,1.554,1.554h4.339c0.855,0,1.872-0.623,2.26-1.385
							l5.662-11.101c0.388-0.762,0.19-1.856-0.442-2.432l-3.009-2.746c-0.632-0.576-1.658-0.569-2.281,0.017l-6.95,6.529
							c-0.623,0.585-1.133,1.764-1.133,2.618V504.983z"/>
						<circle style="fill:#959FBA;" cx="631.504" cy="447.26" r="14.269"/>
						<path style="opacity:0.4;fill:#666A7F;" d="M559.293,445.114c0,6.528,2.639,15.698,7.771,19.895
							c1.549,1.267,3.305,2.039,5.098,2.438c-3.617,0.759-6.046,0.362-9.47-2.438c-5.132-4.197-7.771-13.367-7.771-19.895H559.293z"
							/>
						<path style="opacity:0.4;fill:#666A7F;" d="M574.349,445.114c0,6.528,2.639,15.698,7.771,19.895
							c1.549,1.267,3.305,2.039,5.098,2.438c-3.617,0.759-8.046,0.362-11.47-2.438c-5.132-4.197-7.771-13.367-7.771-19.895H574.349z
							"/>
						
							<ellipse transform="matrix(0.2298 -0.9732 0.9732 0.2298 49.2366 959.778)" style="opacity:0.4;fill:#403E38;" cx="630.983" cy="448.782" rx="7.309" ry="7.309"/>
						<g style="opacity:0.5;">
							<path style="fill:#403E38;" d="M607.143,476.79c0,12.042-9.629,21.828-21.606,22.097v-37.609h15.246
								C604.714,465.27,607.143,470.746,607.143,476.79z"/>
						</g>
						<path style="fill:#3E3B44;" d="M688.844,472.635c-3.284,0-5.945-2.662-5.945-5.945s2.662-5.945,5.945-5.945h5.509
							L688.844,472.635L688.844,472.635z"/>
						<path style="fill:#3E3B44;" d="M632.159,454.316c-3.553,0-6.433-2.88-6.433-6.433c0-3.553,2.88-6.433,6.433-6.433h3.553
							v12.865H632.159z"/>
						<g>
							<g>
								
									<rect x="653.374" y="494.562" transform="matrix(0.3374 -0.9414 0.9414 0.3374 -16.2443 970.0461)" style="fill:#433F4C;" width="55.142" height="4"/>
							</g>
							<g>
								
									<rect x="582.883" y="444.478" transform="matrix(0.9815 -0.1915 0.1915 0.9815 -74.2506 124.7615)" style="fill:#433F4C;" width="50.762" height="4"/>
							</g>
							<g>
								<path style="fill:#433F4C;" d="M638.402,446.872c-0.196-1.95-1.826-3.421-3.79-3.421c-0.369,0-0.734,0.052-1.083,0.156
									l-1.135-3.836c0.718-0.212,1.464-0.32,2.218-0.32c4.027,0,7.367,3.018,7.77,7.021L638.402,446.872z"/>
							</g>
							<g>
								<path style="fill:#433F4C;" d="M625.911,534.312l-50.151-41.758c-6.836-5.468-10.173-12.056-10.173-20.115
									c0-11.176,7.577-20.813,18.426-23.435l0.94,3.888c-9.047,2.187-15.366,10.225-15.366,19.547
									c0,6.86,2.765,12.267,8.702,17.017l50.182,41.783L625.911,534.312z"/>
							</g>
							<g>
								
									<rect x="640.791" y="446.01" transform="matrix(0.9879 -0.1549 0.1549 0.9879 -63.7999 105.1548)" style="fill:#433F4C;" width="4" height="31.837"/>
							</g>
							<g>
								
									<rect x="677.841" y="447.563" transform="matrix(0.6974 -0.7167 0.7167 0.6974 -125.5358 626.0441)" style="fill:#36333B;" width="1.554" height="28.248"/>
							</g>
							<g>
								
									<rect x="692.982" y="436.974" transform="matrix(0.9136 -0.4065 0.4065 0.9136 -123.4845 320.9867)" style="fill:#36333B;" width="1.554" height="28.325"/>
							</g>
							<g>
								
									<rect x="650.159" y="469.304" transform="matrix(0.899 -0.438 0.438 0.899 -138.4669 342.2448)" style="fill:#433F4C;" width="45.114" height="4"/>
							</g>
							<g>
								<path style="fill:#36333B;" d="M668.122,452.582c-2.652-2.444-4.174-5.913-4.174-9.517c0-7.134,5.804-12.938,12.938-12.938
									c5.593,0,10.53,3.565,12.286,8.87l-1.476,0.488c-1.545-4.668-5.889-7.804-10.81-7.804c-6.277,0-11.384,5.107-11.384,11.384
									c0,3.172,1.339,6.224,3.673,8.374L668.122,452.582z"/>
							</g>
							<g>
								<path style="fill:#433F4C;" d="M645.806,541.899c-7.406,0-14.509-2.733-19.999-7.696l2.683-2.967
									c4.753,4.297,10.903,6.664,17.317,6.664c10.677,0,20.111-6.415,24.034-16.343l3.72,1.47
									C669.03,534.491,658.135,541.899,645.806,541.899z"/>
							</g>
						</g>
						<path style="opacity:0.2;fill:#3E3B44;" d="M654.981,477.847c0-3.857-3.127-6.985-6.984-6.985s-6.984,3.127-6.984,6.985
							c0,3.857,3.127,6.984,6.984,6.984S654.981,481.705,654.981,477.847z"/>
						
							<ellipse transform="matrix(0.7071 -0.7071 0.7071 0.7071 -126.7664 627.3373)" style="fill:#C29F7F;" cx="693.88" cy="466.689" rx="7.649" ry="7.649"/>
						
							<ellipse transform="matrix(0.9871 -0.1602 0.1602 0.9871 -65.7767 117.4054)" style="fill:#E5CDB5;" cx="695.331" cy="466.689" rx="7.649" ry="7.649"/>
						
							<ellipse transform="matrix(0.9732 -0.2298 0.2298 0.9732 -100.373 162.0744)" style="fill:#CFD9E8;" cx="645.806" cy="512.067" rx="27.832" ry="27.832"/>
						<g style="opacity:0.2;">
							<path style="fill:#4A4C4F;" d="M673.638,512.067c0,0.448-0.012,0.893-0.033,1.336l-31.888,0.825l4.685-29.985
								C661.498,484.56,673.638,496.895,673.638,512.067z"/>
							<polygon style="fill:#4A4C4F;" points="641.717,514.228 641.49,515.678 628.961,518.906 633.719,514.435 							"/>
						</g>
						
							<ellipse transform="matrix(0.7071 -0.7071 0.7071 0.7071 -172.9337 606.6348)" style="fill:#545659;" cx="645.806" cy="512.067" rx="22.031" ry="22.031"/>
						<path style="opacity:0.1;fill:#3E3B44;" d="M643.74,514.629v1.545l-2.707,17.325c-9.726-2.18-16.996-10.861-16.996-21.245
							c0-0.477,0.021-0.949,0.051-1.419l17.624-0.456L643.74,514.629z"/>
						<path style="opacity:0.3;fill:#403E38;" d="M649.88,513.31c0-2.822-2.288-5.11-5.11-5.11c-2.822,0-5.11,2.288-5.11,5.11
							c0,2.822,2.288,5.11,5.11,5.11C647.592,518.42,649.88,516.133,649.88,513.31z"/>
						<path style="fill:#3E3B44;" d="M650.761,512.067c0-2.822-2.288-5.11-5.11-5.11c-2.822,0-5.11,2.288-5.11,5.11
							c0,2.822,2.288,5.11,5.11,5.11C648.473,517.177,650.761,514.889,650.761,512.067z"/>
						<path style="fill:#B3B3B6;" d="M652.16,512.067c0-2.822-2.288-5.11-5.11-5.11c-2.822,0-5.11,2.288-5.11,5.11
							c0,2.822,2.288,5.11,5.11,5.11C649.872,517.177,652.16,514.889,652.16,512.067z"/>
						<path style="fill:#FFFFFF;stroke:#D3AB90;stroke-width:2.4868;stroke-miterlimit:10;" d="M639.833,447.632
							c0,2.993-2.426,5.42-5.42,5.42c-2.993,0-5.42-2.426-5.42-5.42c0-2.993,2.427-5.42,5.42-5.42
							C637.406,442.213,639.833,444.639,639.833,447.632z"/>
						<path style="fill:#3E3B44;" d="M650.05,482.998c-3.857,0-6.984-3.127-6.984-6.985c0-3.857,3.127-6.984,6.984-6.984h1.854
							v14.009L650.05,482.998z"/>
						<circle style="fill:#CFD9E8;" cx="652.33" cy="476.014" r="6.985"/>
						<path style="fill:#959FBA;" d="M657.427,476.014c0-2.815-2.282-5.097-5.097-5.097c-2.815,0-5.097,2.282-5.097,5.097
							c0,2.815,2.282,5.097,5.097,5.097C655.145,481.111,657.427,478.829,657.427,476.014z"/>
						<path style="fill:#FFFFFF;" d="M649.108,512.067c0-1.137-0.921-2.059-2.058-2.06c-1.137-0.001-2.058,0.921-2.058,2.058
							c0,1.137,0.921,2.059,2.058,2.06S649.108,513.203,649.108,512.067z"/>
						<path style="opacity:0.1;fill:#403E38;" d="M666.593,513.621c0-12.167-9.863-22.031-22.031-22.031
							c-6.611,0-12.538,2.916-16.576,7.527c4.005-5.502,10.493-9.082,17.819-9.082c12.167,0,22.031,9.863,22.031,22.031
							c0,5.556-2.061,10.628-5.455,14.503C665.028,522.935,666.593,518.462,666.593,513.621z"/>
						<path style="opacity:0.5;fill:#959FBA;" d="M520.827,477.122c-0.745,2.179,0.418,3.946,2.597,3.946s4.55-1.767,5.295-3.946
							c0.745-2.179-0.418-3.946-2.597-3.946S521.572,474.943,520.827,477.122z"/>
						<path style="opacity:0.5;fill:#959FBA;" d="M532.156,477.122c-0.745,2.179,0.418,3.946,2.597,3.946s4.55-1.767,5.295-3.946
							c0.745-2.179-0.418-3.946-2.597-3.946S532.901,474.943,532.156,477.122z"/>
						<path style="opacity:0.5;fill:#959FBA;" d="M543.485,477.122c-0.745,2.179,0.418,3.946,2.597,3.946s4.55-1.767,5.295-3.946
							c0.745-2.179-0.418-3.946-2.597-3.946S544.23,474.943,543.485,477.122z"/>
						<path style="opacity:0.5;fill:#959FBA;" d="M554.814,477.122c-0.745,2.179,0.418,3.946,2.597,3.946s4.55-1.767,5.295-3.946
							c0.745-2.179-0.418-3.946-2.597-3.946S555.559,474.943,554.814,477.122z"/>
					</g>
					<path style="fill:#959FBA;" d="M511.909,442.335c-0.3,1.683,0.854,3.06,2.564,3.06h61.546c1.71,0,3.108-1.399,3.108-3.108
						v-17.562c0-1.71-1.399-3.109-3.108-3.109h-57.314c-1.71,0-3.354,1.377-3.653,3.06L511.909,442.335z"/>
					<path style="opacity:0.4;fill:#666A7F;" d="M523.058,445.425c0,6.528,2.639,15.387,7.771,19.584
						c1.549,1.267,3.305,2.039,5.098,2.438c-3.617,0.759-6.046,0.362-9.47-2.438c-5.132-4.197-7.771-13.056-7.771-19.584H523.058z"
						/>
					<path style="opacity:0.4;fill:#666A7F;" d="M535.285,445.425c0,6.528,2.639,15.387,7.771,19.584
						c1.549,1.267,3.305,2.039,5.098,2.438c-3.617,0.759-6.046,0.362-9.47-2.438c-5.132-4.197-7.771-13.056-7.771-19.584H535.285z"
						/>
					<path style="opacity:0.4;fill:#666A7F;" d="M547.719,445.425c0,6.528,2.639,15.387,7.771,19.584
						c1.549,1.267,3.305,2.039,5.098,2.438c-3.617,0.759-6.046,0.362-9.47-2.438c-5.132-4.197-7.771-13.056-7.771-19.584H547.719z"
						/>
					<path style="opacity:0.2;fill:#666A7F;" d="M568.906,452.419c0,0,0.933-3.316,5.44-4.922c3.499-1.247,8.289-2.072,8.289-2.072
						h-14.662c0,0,0.104,2.098,0.285,3.368C568.44,450.062,568.906,452.419,568.906,452.419z"/>
					<path style="opacity:0.2;fill:#666A7F;" d="M555.85,452.419c0,0,0.933-3.316,5.44-4.922c3.499-1.247,8.289-2.072,8.289-2.072
						h-14.662c0,0,0.104,2.098,0.285,3.368C555.384,450.062,555.85,452.419,555.85,452.419z"/>
					<path style="opacity:0.2;fill:#666A7F;" d="M542.25,452.419c0,0,0.933-3.316,5.44-4.922c3.499-1.247,8.289-2.072,8.289-2.072
						h-14.662c0,0,0.104,2.098,0.285,3.368C541.784,450.062,542.25,452.419,542.25,452.419z"/>
					<path style="opacity:0.2;fill:#666A7F;" d="M529.738,452.419c0,0,0.933-3.316,5.44-4.922c3.499-1.247,8.289-2.072,8.289-2.072
						h-14.662c0,0,0.104,2.098,0.285,3.368C529.272,450.062,529.738,452.419,529.738,452.419z"/>
					<path style="opacity:0.2;fill:#666A7F;" d="M517.693,452.419c0,0,0.933-3.316,5.44-4.922c3.499-1.247,8.289-2.072,8.289-2.072
						H516.76c0,0,0.104,2.098,0.285,3.368C517.226,450.062,517.693,452.419,517.693,452.419z"/>
					<path style="fill:#828AA2;" d="M546.473,462.159c0.466,1.243-3.678,3.005-5.544,0.751c-1.262-1.525-2.953,2.098-1.606,2.772
						c1.347,0.674,4.663,2.746,11.502,0.466L546.473,462.159z"/>
					<path style="fill:#828AA2;" d="M534.031,462.084c0.466,1.243-3.678,3.005-5.544,0.751c-1.262-1.525-2.953,2.098-1.606,2.772
						c1.347,0.674,4.865,3.014,11.463,0.44L534.031,462.084z"/>
					<path style="fill:#828AA2;" d="M559.634,461.647c0.514,1.37-4.578,3.359-6.633,0.875c-1.391-1.681-2.729,2.264-1.245,3.007
						c1.484,0.742,5.138,3.026,12.674,0.514L559.634,461.647z"/>
					<circle style="opacity:0.3;fill:#666A7F;" cx="580.389" cy="478.631" r="20.833"/>
					<g>
						<path style="fill:#6C7787;" d="M557.846,468.721c-1.998,0-4.107-0.372-6.122-1.315c-3.134,1.366-8.097,2.102-12.589,0
							c-4.228,1.847-10.656,2.096-15.268-1.676c-0.399-0.326-0.458-0.914-0.132-1.312c0.326-0.399,0.914-0.458,1.312-0.132
							c4.136,3.382,10,3.017,13.698,1.247c0.262-0.125,0.568-0.122,0.827,0.011c3.924,2.003,8.736,1.438,11.763-0.011
							c0.263-0.125,0.568-0.122,0.827,0.011c3.924,2.003,8.736,1.438,11.763-0.011c0.262-0.125,0.568-0.122,0.827,0.011
							c5.297,2.704,11.585,0.759,13.795-1.351c0.01-0.226,0.1-0.449,0.273-0.621c0.365-0.364,0.955-0.363,1.319,0.001l0.155,0.155
							c0.336,0.336,0.365,0.871,0.068,1.242c-2.354,2.942-9.861,5.327-16.048,2.436
							C562.585,468.159,560.301,468.721,557.846,468.721z"/>
					</g>
					<path style="fill:#3E3B44;" d="M584.257,494.548c-12.211,0-22.109-9.899-22.109-22.109s9.899-22.109,22.109-22.109h6.994
						v44.219H584.257z"/>
					<circle style="fill:#CFD9E8;" cx="589.696" cy="472.439" r="22.109"/>
					<circle style="fill:#545659;" cx="589.696" cy="472.439" r="17.526"/>
					<path style="opacity:0.2;fill:#3E3B44;" d="M592.548,473.148c0-2.479-2.098-4.488-4.685-4.488c-2.588,0-4.685,2.01-4.685,4.488
						c0,2.479,2.098,4.488,4.685,4.487C590.45,477.636,592.548,475.627,592.548,473.148z"/>
					<path style="opacity:0.3;fill:#4A4751;" d="M589.191,476.767c-2.394,0-4.335-1.941-4.335-4.336
						c0-2.394,1.941-4.335,4.335-4.334l3.222,0v8.684l-2.682,0L589.191,476.767z"/>
					<path style="fill:#C6CCD6;" d="M595.781,472.433c0-2.394-1.941-4.335-4.335-4.335s-4.335,1.94-4.335,4.334
						c0,2.394,1.941,4.335,4.335,4.336C593.84,476.767,595.781,474.827,595.781,472.433z"/>
					<path style="opacity:0.1;fill:#3E3B44;" d="M606.29,473.06c0-9.679-7.847-17.526-17.526-17.526
						c-3.378,0-6.531,0.958-9.207,2.614c2.863-2.035,6.36-3.236,10.14-3.236c9.679,0,17.526,7.847,17.526,17.526
						c0,6.301-3.327,11.823-8.319,14.912C603.372,484.174,606.29,478.96,606.29,473.06z"/>
					<path style="fill:#FFFFFF;" d="M593.358,472.432c0-1.056-0.856-1.912-1.911-1.912c-1.056,0-1.912,0.856-1.912,1.911
						c0,1.056,0.856,1.912,1.912,1.912C592.502,474.344,593.358,473.488,593.358,472.432z"/>
					<path style="fill:#959FBA;" d="M636.147,447.632c0,0.958-0.776,1.734-1.734,1.734c-0.958,0-1.734-0.776-1.734-1.734
						c0-0.957,0.776-1.734,1.734-1.734C635.371,445.898,636.147,446.675,636.147,447.632z"/>
					<path style="fill:#FFFFFF;" d="M678.857,443.064c0-1.088-0.882-1.971-1.971-1.971c-1.089,0-1.971,0.882-1.971,1.971
						s0.882,1.971,1.971,1.971C677.975,445.035,678.857,444.153,678.857,443.064z"/>
					<polygon style="fill:#666A7F;" points="514.973,446.202 597.038,446.202 597.038,444.648 512.382,444.648 					"/>
					<path style="fill:#F2A24C;" d="M566.249,418.376c0.563,1.246,3.161,1.982,7.093,1.791c5.773-0.28,12.235-2.451,14.434-4.849
						c0.79-0.862,0.922-1.636,0.499-2.26l-0.59-3.026l-22.271,4.76L566.249,418.376z"/>
					<path style="fill:#FFCD5C;" d="M566.077,412.842c-2.199,2.398,0.699,4.116,6.472,3.836c5.773-0.28,12.235-2.451,14.434-4.849
						c2.199-2.398-0.699-4.116-6.472-3.836C574.738,408.273,568.276,410.444,566.077,412.842z"/>
					<g>
						<path style="fill:#3E3B44;" d="M551.605,423.134c-0.608,0-1.157-0.418-1.299-1.036c-0.849-3.7-4.301-11.187-6.985-12.119
							c-0.415-0.145-0.736-0.082-1.106,0.216c-1.216,0.977-1.772,1.957-2.31,2.904c-1.205,2.122-2.384,3.557-6.604,2.683
							c-0.721-0.15-1.185-0.855-1.035-1.577c0.15-0.721,0.857-1.185,1.577-1.035c2.643,0.548,2.876,0.138,3.743-1.388
							c0.568-1,1.346-2.37,2.959-3.666c1.094-0.879,2.357-1.106,3.651-0.656c4.534,1.574,8.104,11.402,8.71,14.042
							c0.165,0.718-0.284,1.433-1.001,1.598C551.804,423.123,551.704,423.134,551.605,423.134z"/>
					</g>
					<g>
						<path style="fill:#89685B;" d="M533.506,416.989c0.278,0,2.421-0.079,2.421-0.079l1.191,4.683h-8.731l-0.675-2.857
							L533.506,416.989z"/>
						<g>
							<path style="fill:#89685B;" d="M527.97,417.935c-0.815,0.888,0.259,1.525,2.398,1.421c2.139-0.104,4.533-0.908,5.347-1.796
								c0.815-0.888-0.259-1.525-2.398-1.421C531.178,416.243,528.784,417.047,527.97,417.935z"/>
							<path style="fill:#959FBA;" d="M527.965,415.378c-0.688,0.75,0.219,1.288,2.025,1.2c1.806-0.088,3.828-0.767,4.516-1.518
								c0.688-0.75-0.219-1.288-2.025-1.2C530.674,413.948,528.652,414.628,527.965,415.378z"/>
						</g>
					</g>
					<path style="fill:#F2A24C;" d="M567.908,413.095c0.421,0.931,2.361,1.48,5.297,1.338c4.311-0.209,9.138-1.83,10.78-3.621
						c0.59-0.643,0.688-1.221,0.373-1.688l-0.44-2.26l-16.632,3.555L567.908,413.095z"/>
					<path style="fill:#FFCD5C;" d="M567.78,408.963c-1.642,1.791,0.522,3.074,4.834,2.865c4.312-0.209,9.138-1.83,10.78-3.621
						c1.642-1.791-0.522-3.074-4.834-2.865C574.248,405.55,569.422,407.172,567.78,408.963z"/>
					<g>
						<path style="fill:#89685B;" d="M555.873,416.989c0.278,0,2.421-0.079,2.421-0.079l1.191,4.683h-8.731l-0.675-2.857
							L555.873,416.989z"/>
						<g>
							<path style="fill:#89685B;" d="M550.338,417.935c-0.815,0.888,0.259,1.525,2.398,1.421c2.139-0.104,4.533-0.908,5.347-1.796
								c0.815-0.888-0.259-1.525-2.398-1.421C553.546,416.243,551.152,417.047,550.338,417.935z"/>
							<path style="fill:#959FBA;" d="M550.332,415.378c-0.688,0.75,0.219,1.288,2.025,1.2c1.806-0.088,3.828-0.767,4.516-1.518
								c0.688-0.75-0.219-1.288-2.025-1.2C553.042,413.948,551.02,414.628,550.332,415.378z"/>
						</g>
					</g>
					<g>
						<path style="fill:#89685B;" d="M544.284,416.989c0.278,0,2.421-0.079,2.421-0.079l1.191,4.683h-8.731l-0.675-2.857
							L544.284,416.989z"/>
						<g>
							<path style="fill:#89685B;" d="M538.749,417.935c-0.815,0.888,0.259,1.525,2.398,1.421c2.139-0.104,4.533-0.908,5.347-1.796
								c0.815-0.888-0.259-1.525-2.398-1.421C541.957,416.243,539.563,417.047,538.749,417.935z"/>
							<path style="fill:#959FBA;" d="M538.743,415.378c-0.688,0.75,0.219,1.288,2.025,1.2c1.806-0.088,3.828-0.767,4.516-1.518
								c0.688-0.75-0.219-1.288-2.025-1.2C541.453,413.948,539.431,414.628,538.743,415.378z"/>
							<path style="fill:#959FBA;" d="M527.76,415.917l-0.461-1.96l6.968-1.49l0.385,1.785c0.051,0.076,0.067,0.16,0.065,0.248
								l0.008-0.001l0.385,1.785c0.132,0.196,0.091,0.438-0.156,0.708c-0.688,0.75-2.709,1.43-4.516,1.518
								c-1.23,0.06-2.043-0.17-2.219-0.561l-0.462-1.96l0.046-0.01C527.789,415.958,527.77,415.939,527.76,415.917z"/>
							<path style="fill:#959FBA;" d="M550.128,415.917l-0.461-1.96l6.968-1.49l0.385,1.785c0.051,0.076,0.067,0.16,0.065,0.248
								l0.009-0.001l0.385,1.785c0.132,0.196,0.091,0.438-0.156,0.708c-0.688,0.75-2.71,1.43-4.516,1.518
								c-1.23,0.06-2.043-0.17-2.219-0.561l-0.461-1.96l0.045-0.01C550.157,415.958,550.138,415.939,550.128,415.917z"/>
							<path style="fill:#959FBA;" d="M538.539,415.917l-0.461-1.96l6.968-1.49l0.385,1.785c0.051,0.076,0.067,0.16,0.065,0.248
								l0.008-0.001l0.385,1.785c0.132,0.196,0.091,0.438-0.156,0.708c-0.688,0.75-2.71,1.43-4.516,1.518
								c-1.23,0.06-2.043-0.17-2.219-0.561l-0.461-1.96l0.045-0.01C538.568,415.958,538.549,415.939,538.539,415.917z"/>
						</g>
					</g>
					<g>
						<path style="fill:#B5977D;" d="M549.788,466.222h-33.158c-1.8,0-3.264-1.464-3.264-3.264v-7.586h3.419v7.43h33.002V466.222z"
							/>
					</g>
					<g>
						<path style="fill:#CFD9E8;" d="M539.53,462.906h-26.008c-1.8,0-3.264-1.464-3.264-3.264v-7.586h3.419v7.43h25.853V462.906z"/>
					</g>
					<g>
						<path style="fill:#4A4751;" d="M558.185,470.811v-5.988c0-0.888-0.409-2.953-4.197-2.953h-4.822
							c-1.459,0-2.642,1.183-2.642,2.642c0,1.459,1.183,2.642,2.642,2.642h3.734v3.657H558.185z"/>
					</g>
					<g>
						<path style="fill:#545659;" d="M548.079,470.811v-7.854c0-2.314-1.883-4.197-4.197-4.197h-4.822
							c-1.459,0-2.642,1.183-2.642,2.642s1.183,2.642,2.642,2.642h3.734v6.766H548.079z"/>
					</g>
					<path style="fill:#545659;" d="M508.755,451.642c0,0.627,0.699,1.14,1.554,1.14h3.316c0.855,0,1.554-0.513,1.554-1.14
						s-0.699-1.14-1.554-1.14h-3.316C509.455,450.502,508.755,451.015,508.755,451.642z"/>
					<path style="fill:#CFD9E8;" d="M526.008,438.897c0,0.769,0.699,1.399,1.554,1.399h51.913c0.855,0,1.554-0.63,1.554-1.399
						c0-0.769-0.699-1.399-1.554-1.399h-51.913C526.707,437.498,526.008,438.128,526.008,438.897z"/>
					<path style="fill:#BCC6D9;" d="M539.323,423.015c0,0.769,0.699,1.399,1.554,1.399h46.733c0.855,0,1.554-0.63,1.554-1.399
						c0-0.769-0.699-1.399-1.554-1.399h-46.733C540.022,421.616,539.323,422.246,539.323,423.015z"/>
					<path style="fill:#BCC6D9;" d="M531.241,423.015c0,0.769,0.699,1.399,1.554,1.399h2.331c0.855,0,1.554-0.63,1.554-1.399
						c0-0.769-0.7-1.399-1.554-1.399h-2.331C531.94,421.616,531.241,422.246,531.241,423.015z"/>
					<path style="fill:#FFFFFF;" d="M653.955,476.013c0-0.897-0.728-1.623-1.625-1.622c-0.898,0.001-1.625,0.728-1.625,1.625
						c0,0.897,0.728,1.623,1.625,1.622C653.227,477.637,653.955,476.91,653.955,476.013z"/>
				</g>
				<polygon style="fill:#A8E53E;" points="590.468,606.756 730.054,606.756 723.611,580.715 590.468,580.715 				"/>
				<path style="fill:#69B22F;" d="M443.365,492.328l76.964,13.965c0,0,7.862,1.011,12.477,12.391l39.19,0.001
					c2.639,0,5.078,2.409,5.42,5.352l4.461,32.065h-10.323l-2.727-24.819c-0.342-2.944-2.781-5.352-5.42-5.352l-39.19-0.001v-2.416
					c-4.615-11.38-12.477-12.391-12.477-12.391l-92.534-15.777L443.365,492.328z"/>
				<path style="fill:#A8E53E;" d="M732.247,556.104l2.727-24.819c0.342-2.944,2.781-5.352,5.42-5.352l23.562-0.002
					c2.639,0,1.095,0,1.817,0c0.475,0,1.672,0,3.293,0c0,0-3.087-12.266-5.727-12.266l1.029,5.019c-2.639,0-5.39,0-6.111,0
					c-0.722,0,0.823-0.562-1.817-0.562l-23.562,0.002c-2.639,0-5.078,2.971-5.42,5.915l-4.461,32.065H732.247z"/>
				<path style="fill:#A8E53E;" d="M448.734,492.328l76.964,13.965c0,0,7.862,1.011,12.477,12.391l39.19,0.001
					c2.639,0,5.078,2.409,5.42,5.352l4.461,32.065l-9.16,4.884l-3.891-29.703c-0.342-2.944-2.781-5.352-5.42-5.352l-39.19-0.001
					v-2.416c-4.615-11.38-12.477-12.391-12.477-12.391l-92.534-15.777L448.734,492.328z"/>
				<path style="fill:#A8E53E;" d="M452.928,496.008c-6.979,1.812-9.949,2.704-23.975,0.103
					c-14.499-2.688-15.342-2.519-20.711-9.766c-5.369-7.247,5.056-4.682,6.567-3.321c2.684,2.415,2.819,5.435,15.032,8.303
					c6.185,1.453,23.891,0.755,23.891,0.755L452.928,496.008z"/>
				<g>
					<path style="fill:#69B22F;" d="M552.283,555.964c0,6.369,0,13.652,0,20.958h-16.578c0-7.306,5.841-14.589,5.841-20.958H552.283
						z"/>
					<path style="fill:#A9D940;" d="M456.805,536.986c1.858,0,3.647,0.169,5.375,0.484c-23.384,4.216-34.85,40.732-34.85,85.664
						h-10.737C416.593,574.888,429.805,536.986,456.805,536.986z"/>
					<path style="fill:#A9D940;" d="M178.098,536.986c1.834,0,3.598,0.178,5.305,0.499c-23.337,4.267-34.78,36.461-34.78,81.348
						h-10.737C137.886,570.587,151.098,536.986,178.098,536.986z"/>
				</g>
			</g>
			<polygon style="fill:#A8E53E;" points="331.696,610.991 308.074,593.378 308.074,610.991 			"/>
			<polygon style="fill:#A8E53E;" points="330.111,411.207 311.833,424.837 311.832,411.207 			"/>
			<rect x="551.276" y="576.939" style="fill:#69B22F;" width="14.542" height="29.523"/>
			<rect x="700.09" y="591.097" style="fill:#69B22F;" width="7.85" height="15.771"/>
			<g style="opacity:0.7;">
				<path style="fill:#FFFFFF;" d="M709.761,426.053c-0.55,0-1-0.45-1-1v-0.038c0-0.55,0.45-1,1-1h2.98c0.55,0,1,0.45,1,1v0.038
					c0,0.55-0.45,1-1,1H709.761z"/>
			</g>
		</g>
		<g style="opacity:0.4;">
			<path style="fill:#546070;" d="M452.755,546.799c0,1.673,1.369,3.042,3.042,3.042h14.009c1.673,0,3.042-1.369,3.042-3.042
				v-13.347c0-1.673-1.369-3.042-3.042-3.042h-14.009c-1.673,0-3.042,1.369-3.042,3.042V546.799z"/>
		</g>
		<rect x="455.432" y="542.784" style="fill:#FF5F45;" width="20.076" height="106.454"/>
		<rect x="175.826" y="542.784" style="fill:#FF5F45;" width="20.076" height="106.454"/>
		<rect x="175.826" y="542.784" style="fill:#B74937;" width="20.076" height="106.24"/>
		<polygon style="fill:#B74937;" points="455.432,640.851 475.508,634.937 475.508,543.859 455.432,543.859 		"/>
		<polygon style="fill:#B74937;" points="401.419,635.147 421.495,629.232 421.495,623.135 401.419,623.135 		"/>
		<rect x="540.514" y="576.118" style="fill:#FF5F45;" width="20.076" height="73.119"/>
		<polygon style="fill:#B74937;" points="540.514,609.453 560.59,604.793 560.59,584.362 540.514,584.362 		"/>
		<rect x="138.065" y="644.936" style="fill:#B74937;" width="413.921" height="27.958"/>
		<path style="fill:#635654;" d="M445.983,546.799c0,1.673,1.369,3.042,3.042,3.042h14.009c1.673,0,3.042-1.369,3.042-3.042v-13.347
			c0-1.673-1.369-3.042-3.042-3.042h-14.009c-1.673,0-3.042,1.369-3.042,3.042V546.799z"/>
		<path style="fill:#756863;" d="M445.075,546.799c0,1.673,1.369,3.042,3.042,3.042h11.81c1.673,0,3.042-1.369,3.042-3.042v-13.347
			c0-1.673-1.369-3.042-3.042-3.042h-11.81c-1.673,0-3.042,1.369-3.042,3.042V546.799z"/>
		<rect x="454.715" y="542.044" style="fill:#756863;" width="28.201" height="7.796"/>
		<path style="opacity:0.3;fill:#C25B5B;" d="M480.549,542.044l2.367,7.554v0.242h-10.914c0-3.293-0.714-5.696-3.405-7.796H480.549z
			"/>
		<rect x="455.432" y="549.863" style="opacity:0.5;fill:#4A4751;" width="20.076" height="7.796"/>
		<rect x="540.514" y="584.273" style="opacity:0.5;fill:#4A4751;" width="20.076" height="7.796"/>
		<path style="fill:#69B22F;" d="M492.397,575.922c-3.991-16.74-10.783-29.195-20.44-35.441l11.155-7.912l12.428,39.652
			L492.397,575.922z"/>
		<g style="opacity:0.4;">
			<path style="fill:#546070;" d="M171.237,546.799c0,1.673,1.369,3.042,3.042,3.042h14.009c1.673,0,3.042-1.369,3.042-3.042
				v-13.347c0-1.673-1.369-3.042-3.042-3.042h-14.009c-1.673,0-3.042,1.369-3.042,3.042V546.799z"/>
		</g>
		<path style="fill:#635654;" d="M165.979,546.799c0,1.673,1.369,3.042,3.042,3.042h14.009c1.673,0,3.042-1.369,3.042-3.042v-13.347
			c0-1.673-1.369-3.042-3.042-3.042h-14.009c-1.673,0-3.042,1.369-3.042,3.042V546.799z"/>
		<path style="fill:#756863;" d="M165.47,546.799c0,1.673,1.369,3.042,3.042,3.042h11.81c1.673,0,3.042-1.369,3.042-3.042v-13.347
			c0-1.673-1.369-3.042-3.042-3.042h-11.81c-1.673,0-3.042,1.369-3.042,3.042V546.799z"/>
		<rect x="175.109" y="542.044" style="fill:#756863;" width="28.201" height="7.796"/>
		<path style="opacity:0.4;fill:#6D5E5C;" d="M200.943,542.044l2.368,7.554v0.242h-10.914c0-3.293-0.714-5.696-3.405-7.796H200.943z
			"/>
		<rect x="175.826" y="549.863" style="opacity:0.5;fill:#4A4751;" width="20.076" height="7.796"/>
		<path style="fill:#69B22F;" d="M213.915,575.912c-4.211-16.685-12.238-29.489-20.905-35.168l-11.726-16.527l30.068,1.124
			l32.105,65.017L213.915,575.912z"/>
		<rect x="537.723" y="575.917" style="fill:#756863;" width="26.016" height="8.482"/>
		<rect x="536.767" y="575.917" style="fill:#635654;" width="13.061" height="8.482"/>
		<rect x="525.218" y="644.936" style="fill:#FF5543;" width="245.687" height="27.958"/>
		<rect x="593.73" y="590.097" style="fill:#69B22F;" width="114.877" height="6.452"/>
		<path style="fill:#756863;" d="M677.907,543.22c0,1.673,1.369,3.042,3.042,3.042h11.81c1.673,0,3.042-1.369,3.042-3.042v-13.347
			c0-1.673-1.369-3.042-3.042-3.042h-11.81c-1.673,0-3.042,1.369-3.042,3.042V543.22z"/>
	</g>
</g>
<circle style="fill:#756863;" cx="595.116" cy="207.687" r="4.819"/>
<rect x="279.471" y="303.632" style="opacity:0.4;fill:#756863;" width="11.693" height="22.195"/>
<rect x="326.471" y="303.632" style="opacity:0.2;fill:#FFFFFF;" width="11.693" height="22.195"/>
<g>
	<g>
		<g>
			<path style="fill:#9CA4B5;" d="M370.342,259.544c-0.834,0-1.677-0.25-2.408-0.771c-1.873-1.332-2.311-3.93-0.979-5.803
				l9.699-13.636c1.332-1.873,3.93-2.311,5.803-0.979c1.873,1.332,2.311,3.93,0.979,5.803l-9.699,13.636
				C372.926,258.936,371.644,259.544,370.342,259.544z"/>
		</g>
		<path style="fill:#B74937;" d="M382.777,249.994c1.526,0,2.774-1.248,2.774-2.774v-16.646c0-1.526-1.249-2.774-2.774-2.774
			h-18.109c-1.526,0-2.774,1.249-2.774,2.774v16.646c0,1.526,1.249,2.774,2.774,2.774H382.777z"/>
		<path style="fill:#B74937;" d="M593.43,218.772c1.526,0,2.774-1.248,2.774-2.774v-16.646c0-1.526-1.248-2.774-2.774-2.774h-18.109
			c-1.526,0-2.774,1.248-2.774,2.774v16.646c0,1.526,1.248,2.774,2.774,2.774H593.43z"/>
		<path style="fill:#9CA4B5;" d="M299.546,218.772c1.526,0,2.707-1.247,2.625-2.77l-1.55-28.677c-0.082-1.524-1.398-2.77-2.924-2.77
			l-14.41,0c-1.526,0-2.842,1.247-2.924,2.77l-1.55,28.677c-0.082,1.524,1.099,2.77,2.625,2.77H299.546z"/>
		
			<ellipse transform="matrix(0.9732 -0.2298 0.2298 0.9732 -35.7746 72.694)" style="fill:#5B504D;" cx="294.281" cy="189.973" rx="17.95" ry="17.95"/>
		<g>
			<path style="fill:#ADB6C9;" d="M357.073,278.201c-0.835,0-1.677-0.25-2.408-0.771c-1.873-1.332-2.311-3.93-0.979-5.803
				l13.27-18.656c1.331-1.873,3.93-2.311,5.803-0.979c1.873,1.332,2.311,3.931,0.979,5.803l-13.27,18.656
				C359.656,277.592,358.374,278.201,357.073,278.201z"/>
		</g>
		<rect x="282.168" y="308.256" style="fill:#ADB6C9;" width="27.744" height="89.643"/>
		<rect x="285.867" y="225.025" style="fill:#ADB6C9;" width="20.345" height="139.643"/>
		<g style="opacity:0.6;">
			<path style="fill:#FFFFFF;" d="M297.269,367.399c0,1.65,1.35,3,3,3h2.785c1.65,0,3-1.35,3-3v-26.203c0-1.65-1.35-3-3-3h-2.785
				c-1.65,0-3,1.35-3,3V367.399z"/>
		</g>
		<g style="opacity:0.6;">
			<path style="fill:#FFFFFF;" d="M297.269,295.482c0,1.65,1.302,3,2.893,3s2.893-1.35,2.893-3v-17.5c0-1.65-1.302-3-2.893-3
				s-2.893,1.35-2.893,3V295.482z"/>
		</g>
		<g style="opacity:0.3;">
			<path style="fill:#756863;" d="M306.213,271.189v-46.423c0-1.65-1.35-3-3-3h-14.345c-1.65,0-3,1.35-3,3v51.216L306.213,271.189z"
				/>
		</g>
		
			<ellipse transform="matrix(0.9732 -0.2298 0.2298 0.9732 -35.5272 74.8188)" style="fill:#756863;" cx="303.529" cy="189.973" rx="17.95" ry="17.95"/>
		<g style="opacity:0.3;">
			<path style="fill:#756863;" d="M309.912,333.842v-17.019c0-1.65-1.35-3-3-3h-21.744c-1.65,0-3,1.35-3,3v23.16L309.912,333.842z"
				/>
		</g>
		<path style="fill:#FF7D50;" d="M276.619,259.941c0,1.65,1.35,3,3,3h32.841c1.65,0,3-1.35,3-3v-25.927c0-1.65-1.35-3-3-3h-32.841
			c-1.65,0-3,1.35-3,3V259.941z"/>
		<rect x="272.92" y="390.501" style="fill:#FF6845;" width="46.239" height="287.671"/>
		<path style="fill:#FF7D50;" d="M604.527,218.772c1.526,0,2.774-1.248,2.774-2.774v-16.646c0-1.526-1.248-2.774-2.774-2.774
			h-18.109c-1.526,0-2.774,1.248-2.774,2.774v16.646c0,1.526,1.249,2.774,2.774,2.774H604.527z"/>
		<path style="fill:#C6CDE0;" d="M314.315,218.772c1.526,0,2.707-1.247,2.625-2.77l-1.55-28.677c-0.082-1.524-1.398-2.77-2.924-2.77
			l-14.41,0c-1.526,0-2.842,1.247-2.924,2.77l-1.55,28.677c-0.082,1.524,1.099,2.77,2.625,2.77H314.315z"/>
		<path style="fill:#FF7D50;" d="M388.326,249.994c1.526,0,2.774-1.248,2.774-2.774v-16.646c0-1.526-1.249-2.774-2.774-2.774
			h-18.109c-1.526,0-2.774,1.249-2.774,2.774v16.646c0,1.526,1.249,2.774,2.774,2.774H388.326z"/>
		<circle style="fill:#756863;" cx="379.733" cy="242.596" r="4.065"/>
		<g style="opacity:0.3;">
			<rect x="367.442" y="219.784" style="fill:#B74937;" width="23.658" height="22.195"/>
		</g>
		<g style="opacity:0.5;">
			<polygon style="fill:#B74937;" points="276.85,231.014 276.85,219.784 315.267,219.784 315.267,241.98 304.802,241.98 
				293.266,262.941 276.62,262.941 276.62,231.014 			"/>
		</g>
		
			<rect x="319.852" y="278.856" transform="matrix(0.6021 -0.7984 0.7984 0.6021 -91.8417 391.531)" style="fill:#FF7D50;" width="54.103" height="18.109"/>
		<polygon style="opacity:0.6;fill:#B74937;" points="337.955,315.295 359.234,286.369 345.516,297.621 328.177,297.621 
			322.833,304.749 		"/>
		<path style="fill:#545659;" d="M622.797,232.644c1.65,0,3-1.35,3-3v-9.721c0-1.65-1.35-3-3-3H273.366c-1.65,0-3,1.35-3,3v9.721
			c0,1.65,1.35,3,3,3H622.797z"/>
		<path style="fill:#FF7D50;" d="M501.822,235.418c1.65,0,3-1.35,3-3v-15.27c0-1.65-1.35-3-3-3l-229.381,0c-1.65,0-3,1.35-3,3v15.27
			c0,1.65,1.35,3,3,3L501.822,235.418z"/>
		<path style="fill:#B74937;" d="M282.747,235.418c1.65,0,3-1.35,3-3v-15.27c0-1.65-1.35-3-3-3l-10.305,0c-1.65,0-3,1.35-3,3v15.27
			c0,1.65,1.35,3,3,3L282.747,235.418z"/>
		<rect x="272.189" y="303.632" style="fill:#FF7D50;" width="72.865" height="22.195"/>
		<rect x="272.92" y="390.501" style="opacity:0.4;fill:#756863;" width="14.797" height="287.671"/>
	</g>
	<path style="fill:#FFCF22;" d="M295.551,638.299c0,1.65,1.35,3,3,3h9.774c1.65,0,3-1.35,3-3V462.613c0-1.65-1.35-3-3-3h-9.774
		c-1.65,0-3,1.35-3,3V638.299z"/>
	<path style="fill:#FF7D50;" d="M272.92,390.501v287.671V390.501z"/>
	<g>
		<polygon style="fill:#FFFFFF;" points="295.551,625.578 311.325,637.6 311.325,621.76 295.551,609.738 		"/>
		<polygon style="fill:#FFFFFF;" points="295.551,589.511 311.325,601.533 311.325,585.693 295.551,573.671 		"/>
		<polygon style="fill:#FFFFFF;" points="295.551,553.444 311.325,565.466 311.325,549.626 295.551,537.604 		"/>
		<polygon style="fill:#FFFFFF;" points="295.551,517.377 311.325,529.4 311.325,513.56 295.551,501.537 		"/>
		<polygon style="fill:#FFFFFF;" points="295.551,481.31 311.325,493.333 311.325,477.493 295.551,465.47 		"/>
	</g>
	<path style="fill:#756863;" d="M269.954,393.05c0,1.65,1.35,3,3,3h48.754c1.65,0,3-1.35,3-3v-9.721c0-1.65-1.35-3-3-3h-48.754
		c-1.65,0-3,1.35-3,3V393.05z"/>
	<g style="opacity:0.5;">
		<path style="fill:#FFFFFF;" d="M305.577,390.05c0,1.65,1.35,3,3,3h9.088c1.65,0,3-1.35,3-3v-3.721c0-1.65-1.35-3-3-3h-9.088
			c-1.65,0-3,1.35-3,3V390.05z"/>
	</g>
	<g style="opacity:0.5;">
		<path style="fill:#4A4751;" d="M269.954,393.05c0,1.65,1.35,3,3,3h10.754c1.65,0,3-1.35,3-3v-9.721c0-1.65-1.35-3-3-3h-10.754
			c-1.65,0-3,1.35-3,3V393.05z"/>
	</g>
</g>
<circle style="fill:#FFFFFF;" cx="695.331" cy="466.689" r="4.166"/>
<path style="fill:#545659;" d="M582.621,331.482c0,2.75,2.25,5,5,5h17c2.75,0,5-2.25,5-5v-39c0-2.75-2.25-5-5-5h-17
	c-2.75,0-5,2.25-5,5V331.482z"/>
<circle style="fill:#CFD9E8;" cx="596.121" cy="321.232" r="4.819"/>
<path style="fill:#CFD9E8;" d="M600.071,224.899c0-2.181-1.768-3.95-3.95-3.95s-3.95,1.768-3.95,3.95c0,2.181,1.768,3.95,3.95,3.95
	S600.071,227.081,600.071,224.899z"/>
<circle style="fill:#756863;" cx="306.121" cy="191.982" r="3.95"/>
<path style="fill:#BCC6D9;" d="M527.506,413.347c-0.688,0.75,0.219,1.288,2.025,1.2c1.806-0.088,3.828-0.767,4.516-1.517
	c0.688-0.75-0.219-1.288-2.025-1.2C530.216,411.917,528.194,412.596,527.506,413.347z"/>
<path style="fill:#BCC6D9;" d="M549.874,413.347c-0.688,0.75,0.219,1.288,2.025,1.2c1.806-0.088,3.828-0.767,4.516-1.517
	c0.688-0.75-0.219-1.288-2.025-1.2C552.584,411.917,550.562,412.596,549.874,413.347z"/>
<path style="fill:#BCC6D9;" d="M538.285,413.347c-0.688,0.75,0.219,1.288,2.025,1.2c1.806-0.088,3.828-0.767,4.516-1.517
	c0.688-0.75-0.219-1.288-2.025-1.2C540.995,411.917,538.973,412.596,538.285,413.347z"/>
<g>
	<g>
		<path style="fill:#424242;" d="M272.92,657.933c-4.212,0-7.353-1.246-9.336-3.704c-4.724-5.855-2.241-17.332,1.197-33.216
			c1.762-8.146,3.76-17.378,5.051-27.218c4.574-34.873,6.614-61.777,6.614-87.232h4c0,25.636-2.051,52.7-6.648,87.752
			c-1.312,10.004-3.328,19.323-5.107,27.544c-3.082,14.242-5.516,25.491-1.993,29.858c1.203,1.491,3.238,2.216,6.223,2.216V657.933z
			"/>
	</g>
	<g>
		<path style="fill:#424242;" d="M275.061,473.421l-2.921-2.732c5.857-6.263,5.044-19.801,4.326-31.745
			c-0.232-3.865-0.452-7.515-0.452-10.845h4c0,3.21,0.216,6.802,0.444,10.605C281.224,451.452,282.093,465.902,275.061,473.421z"/>
	</g>
	<path style="fill:#424242;" d="M284.212,452.986c0,1.65-1.35,3-3,3h-6.398c-1.65,0-3-1.35-3-3v-49.774c0-1.65,1.35-3,3-3h6.398
		c1.65,0,3,1.35,3,3V452.986z"/>
	<path style="fill:#756863;" d="M279.799,433.986c0,1.65-1.35,3-3,3h-6.398c-1.65,0-3-1.35-3-3v-26.774c0-1.65,1.35-3,3-3h6.398
		c1.65,0,3,1.35,3,3V433.986z"/>
	<rect x="268.183" y="466.389" style="fill:#ADB6C9;" width="19.029" height="85.774"/>
	<rect x="282.289" y="466.389" style="fill:#C7D0DD;" width="4.924" height="85.774"/>
</g>
<rect x="263.672" y="666.15" style="fill:#BCBCBC;" width="64.735" height="15.722"/>
<rect x="263.672" y="666.15" style="fill:#756863;" width="25.894" height="15.722"/>
<polygon style="fill:#424242;" points="276.283,415.389 275.255,418.022 267.902,430.429 262.204,424.149 264.204,418.022 
	275.255,414.316 "/>
<path style="fill:#D85E3D;" d="M272.92,477.902c0-1.199,0.972-2.17,2.17-2.17c1.199,0,2.17,0.972,2.17,2.17
	c0,1.198-0.972,2.17-2.17,2.17C273.892,480.072,272.92,479.1,272.92,477.902z"/>
<path style="fill:#499AF2;" d="M272.92,487.212c0-1.198,0.972-2.17,2.17-2.17c1.199,0,2.17,0.972,2.17,2.17
	c0,1.199-0.972,2.17-2.17,2.17C273.892,489.383,272.92,488.411,272.92,487.212z"/>
<g>
	<rect x="270.711" y="495.333" style="opacity:0.3;fill:#424242;" width="9.088" height="2.483"/>
	<rect x="270.711" y="500.333" style="opacity:0.3;fill:#424242;" width="9.088" height="2.483"/>
	<rect x="270.711" y="505.333" style="opacity:0.3;fill:#424242;" width="9.088" height="2.483"/>
	<rect x="270.711" y="510.333" style="opacity:0.3;fill:#424242;" width="9.088" height="2.483"/>
	<rect x="270.711" y="515.333" style="opacity:0.3;fill:#424242;" width="9.088" height="2.483"/>
</g>
<g>
	<rect x="132.755" y="658.943" style="fill:#995323;" width="20.366" height="13.979"/>
	<rect x="179.911" y="658.943" style="fill:#995323;" width="20.366" height="13.979"/>
	<g>
		<path style="fill:#FFB7A9;" d="M113.525,487.193c-4.467,0.308-8.338-3.064-8.646-7.533l-3.136-45.491
			c-0.492-7.131,1.357-17.419,4.3-23.932l16.895-37.383c1.844-4.081,6.649-5.895,10.728-4.049c4.081,1.845,5.893,6.649,4.049,10.73
			l-16.895,37.383c-1.822,4.031-3.204,11.721-2.899,16.135l3.136,45.491C121.364,483.013,117.992,486.885,113.525,487.193z"/>
		<path style="opacity:0.5;fill:#E67F92;" d="M121.056,478.544l-3.136-45.491c-0.304-4.414,1.078-12.104,2.899-16.135l16.895-37.383
			c1.82-4.028,0.075-8.753-3.893-10.65c-1.663,0.796-3.065,2.158-3.884,3.969l-17.886,24.087l10.063,10.498l-3.073,6.798
			c-2.943,6.513-4.792,16.801-4.3,23.932l3.136,45.491c0.208,3.018-3.956,1.531-1.412,2.753
			C119.375,485.018,121.291,481.958,121.056,478.544z"/>
		<path style="fill:#FFB81A;" d="M129.805,405.615l-20.105-9.823l11.492-29.558c2.215-5.639,9.542-6.913,15.182-4.697l8.718,5.845
			L129.805,405.615z"/>
		<g>
			
				<ellipse transform="matrix(0.8981 -0.4397 0.4397 0.8981 -204.3245 99.9533)" style="fill:#FFB7A9;" cx="113.584" cy="491.006" rx="13.02" ry="13.021"/>
			<path style="fill:#BF7E37;" d="M222.243,686.081v-10.448c0-4.625-3.784-8.408-8.408-8.408h-32.37
				c-4.625,0-8.408,3.784-8.408,8.409l0,10.448H222.243z"/>
			<g>
				<path style="fill:#2882DB;" d="M204.987,664.23l-31.94-0.198c0.434-70.085-8.504-110.465-14.417-137.186
					c-3.203-14.472-5.733-25.903-5.733-36.811h31.941c0,7.415,2.088,16.85,4.978,29.908
					C196.039,548.062,205.443,590.553,204.987,664.23z"/>
			</g>
			<g>
				<path style="fill:#FFB7A9;" d="M153.246,365.498c-6.585,0-11.924-5.339-11.924-11.925v-28.619
					c0-6.586,5.339-11.925,11.924-11.925c6.586,0,11.924,5.339,11.924,11.924v28.619
					C165.171,360.159,159.832,365.498,153.246,365.498z"/>
			</g>
			<path style="fill:#AD6331;" d="M162.575,686.081v-10.448c0-4.625-3.784-8.408-8.408-8.408h-22.37
				c-4.625,0-8.409,3.784-8.409,8.409v10.448H162.575z"/>
			<g>
				<path style="fill:#1A75C1;" d="M126.38,664.132V502.886c0-8.82,7.15-15.97,15.97-15.97c8.82,0,15.97,7.15,15.97,15.97v161.246
					H126.38z"/>
			</g>
			<path style="fill:#FFB7A9;" d="M133.82,321.783c0,10.494,8.586,19.079,19.079,19.079h11.364c10.494,0,19.079-8.586,19.079-19.079
				v-30.221c0-10.494-8.586-7.845-19.079-7.845h-11.364c-10.494,0-19.079,2.586-19.079,13.079V321.783z"/>
			<path style="opacity:0.3;fill:#E67F92;" d="M172.479,279.481c0,0,0,15.033,0,28.366c0,36.25-17.333,33.314-17.333,33.314
				c22.75,1.436,28.197-10.195,28.197-19.938v-29.661C183.342,281.819,181.936,280.59,172.479,279.481z"/>
			<g style="opacity:0.4;">
				<path style="fill:#E67F92;" d="M166.421,314.968c-0.452,0.007-0.961,0.012-1.508,0.012
					C164.357,314.979,165.117,314.975,166.421,314.968z"/>
			</g>
			<polygon style="fill:#DE7F97;" points="133.82,305.239 150.498,298.243 150.498,283.717 133.82,283.717 			"/>
			<path style="fill:#A45666;" d="M152.899,268.453h11.364c10.494,0,19.079,3.816,19.079,14.309v10.641h-5.636
				c-9.606,0-8.468,18.031-17.459,28.71c-5.07,6.022-21.158,9.396-26.427-1.373v-37.978
				C133.82,272.269,142.406,268.453,152.899,268.453z"/>
			<path style="fill:#FFBB33;" d="M119.439,471.342c0,11,9,20,20,20h25.241c11,0,20-9,20-20v-96.902c0-11-3.913-20-14.913-20
				l-30.328,0c-11,0-20,9-20,20V471.342z"/>
			<g>
				<path style="fill:#FFB7A9;" d="M219.212,432.858c-8.899,0-18.005-5.926-21.473-14.109l-19.755-46.622
					c-1.747-4.123,0.179-8.883,4.303-10.63c4.121-1.746,8.882,0.178,10.63,4.302l19.755,46.622c0.917,2.163,4.381,4.327,6.714,4.215
					l28.632-1.397c4.468-0.219,8.275,3.231,8.494,7.704c0.218,4.473-3.231,8.276-7.704,8.494l-28.632,1.397
					C219.855,432.85,219.534,432.858,219.212,432.858z"/>
				<path style="opacity:0.5;fill:#E67F92;" d="M192.75,365.632c-1.748-4.124-6.508-6.049-10.63-4.302
					c-4.124,1.747-6.05,6.506-4.303,10.63l16.366,38.115l8.835-20.433l-1.921-4.466L192.75,365.632z"/>
			</g>
		</g>
		<path style="fill:#2882DB;" d="M184.869,432.945v57.56c0,13.117-10.732,23.849-23.849,23.849l-17.731,0
			c-13.117,0-23.849-10.732-23.849-23.849v-57.56L184.869,432.945z"/>
		<path style="fill:#2882DB;" d="M122.518,481.342c0,5.5,4.5,10,10,10h15.241c5.5,0,10-4.5,10-10v-67.902c0-5.5-4.5-10-10-10
			l-15.241,0c-5.5,0-10,4.5-10,10V481.342z"/>
		<rect x="156.964" y="354.483" style="fill:#FFBB33;" width="26.373" height="11.777"/>
		<g>
			<path style="fill:#2882DB;" d="M151.909,426.939c-1.933,0-3.5-1.567-3.5-3.5v-34.093c0-13.963,2.766-37.593,13.132-37.593h9.632
				c1.933,0,3.5,1.567,3.5,3.5c0,1.933-1.567,3.5-3.5,3.5h-9.483c-2.234,1.228-6.281,12.59-6.281,30.593v34.093
				C155.409,425.372,153.842,426.939,151.909,426.939z"/>
		</g>
		<g>
			<path style="fill:#2882DB;" d="M128.69,416.939c-1.933,0-3.5-1.567-3.5-3.5v-29.093c0-7.939,0.562-15.455,1.582-21.163
				c1.01-5.652,2.646-11.43,7.118-11.43h5.2c1.933,0,3.5,1.567,3.5,3.5c0,1.933-1.567,3.5-3.5,3.5h-3.948
				c-1.189,2.622-2.951,11.471-2.951,25.593v29.093C132.19,415.372,130.623,416.939,128.69,416.939z"/>
		</g>
		<polygon style="opacity:0.3;fill:#E67F92;" points="174.603,376.964 184.68,432.945 184.68,398.855 		"/>
	</g>
	<rect x="173.171" y="680.816" style="opacity:0.5;fill:#4A4751;" width="49.187" height="5.238"/>
	<rect x="123.385" y="680.816" style="opacity:0.5;fill:#4A4751;" width="39.305" height="5.238"/>
	
		<ellipse transform="matrix(0.8981 -0.4397 0.4397 0.8981 -159.7362 156.2087)" style="fill:#FFB7A9;" cx="257.304" cy="422.891" rx="13.02" ry="13.021"/>
	<g>
		<path style="fill:#FFB7A9;" d="M262.201,419.483c-1.85,0-3.395-1.45-3.492-3.318c-0.101-1.93,1.383-3.577,3.313-3.677
			l11.396-0.594c1.934-0.102,3.577,1.383,3.677,3.313c0.101,1.93-1.383,3.577-3.313,3.677l-11.396,0.594
			C262.324,419.481,262.262,419.483,262.201,419.483z"/>
	</g>
	<path style="fill:#FFCD50;" d="M184.538,399.488l19.749-10.522l-12.522-29.137c-2.412-5.558-9.779-6.574-15.337-4.162l-8.508,6.147
		L184.538,399.488z"/>
	<path style="fill:#FFCD50;" d="M159.204,362.857c1.125-3.125,3.625-6.146,5-6.875s5.13-1.499,10.25-1.499
		c5.119,0,8.125-0.044,8.125-0.044l-5.24,8.418H159.204z"/>
</g>
<path style="fill:#FFCD50;" d="M156.011,354.483c-3.25,0-12.742,0-13.544,0c-0.803,0-6.539,0.363-8.059,6.369h18.117
	c0,0,0.619-2.015,1.717-3.908C155.464,354.837,156.011,354.483,156.011,354.483z"/>
<path style="fill:#FFBB33;" d="M157.759,431.945c0,5.288,0.119,18.132,14.657,18.132s12.264-18.132,12.264-18.132H157.759z"/>
<path style="fill:#FFBB33;" d="M119.439,445.831c3.187-4.25,3.174-10.485,3.032-12.886l-3.032-3.609V445.831z"/>
</svg>
