<?xml version="1.0" encoding="utf-8"?>
<!-- Generator: Adobe Illustrator 27.5.0, SVG Export Plug-In . SVG Version: 6.00 Build 0)  -->
<svg version="1.1" xmlns="http://www.w3.org/2000/svg" xmlns:xlink="http://www.w3.org/1999/xlink" x="0px" y="0px"
	 viewBox="0 0 500 500" style="enable-background:new 0 0 500 500;" xml:space="preserve">

<g id="OBJECTS">
	<g>
		<g>
			<path style="fill:#2D3B53;" d="M432.26,107.386c0,0-0.161-2.406,0.645-2.799s5.566-0.393,6.01,0.196
				c0.444,0.589,0.889,2.876,0.04,3.241c-0.849,0.365-1.977-0.54-2.743,0C435.446,108.565,432.266,108.213,432.26,107.386z"/>
			<g>
				<path style="fill:#D44332;" d="M446.097,118.439c-1.623-3.253-4.594-2.711-5.632-3.943c-1.159-1.375-2.07-4.534-2.383-7.161
					c-0.031-0.258-0.216-0.446-0.441-0.457h-4.351c-0.225,0.011-0.41,0.199-0.441,0.457c-0.313,2.627-1.224,5.786-2.383,7.161
					c-1.039,1.233-3.126,0.357-4.749,3.61c-1.623,3.253-1.307,37.678-0.498,42.239c0.866,4.879,3.949,7.443,5.139,7.318
					c1.19-0.125,1.352-1.376,2.543-0.438c0.748,0.589,1.581,0.759,2.097,0.804c0.22,0.019,0.404-0.142,0.468-0.37
					c0.064,0.228,0.248,0.389,0.468,0.37c0.516-0.045,1.349-0.215,2.097-0.804c1.19-0.938,1.352,0.313,2.543,0.438
					c1.19,0.125,4.274-2.439,5.139-7.318C446.521,155.784,447.72,121.692,446.097,118.439z"/>
				<path style="fill:#FAE8E6;" d="M446.902,131.408h-22.263c-0.089,4.123-0.104,8.698-0.063,12.991h22.093
					C446.809,140.097,446.9,135.517,446.902,131.408z"/>
			</g>
		</g>
		<g>
			<path style="fill:#2D3B53;" d="M460.195,95.56c0,0-0.193-2.875,0.771-3.345c0.964-0.47,6.652-0.47,7.182,0.235
				c0.53,0.704,1.062,3.437,0.048,3.873c-1.014,0.436-2.362-0.646-3.278,0S460.203,96.548,460.195,95.56z"/>
			<g>
				<path style="fill:#D44332;" d="M476.73,108.769c-1.939-3.887-5.489-3.239-6.73-4.712c-1.385-1.644-2.474-5.418-2.847-8.558
					c-0.037-0.308-0.258-0.533-0.527-0.546h-5.2c-0.269,0.013-0.49,0.237-0.527,0.546c-0.374,3.14-1.462,6.914-2.847,8.558
					c-1.241,1.473-3.736,0.427-5.675,4.314c-1.939,3.887-1.563,45.026-0.596,50.476c1.034,5.83,4.719,8.895,6.142,8.746
					c1.422-0.15,1.616-1.645,3.038-0.523c0.893,0.704,1.889,0.907,2.506,0.961c0.263,0.023,0.483-0.17,0.559-0.443
					c0.077,0.273,0.296,0.466,0.559,0.443c0.617-0.053,1.612-0.256,2.506-0.961c1.422-1.121,1.616,0.374,3.038,0.523
					c1.422,0.149,5.107-2.915,6.142-8.746C477.238,153.396,478.67,112.655,476.73,108.769z"/>
				<path style="fill:#FAE8E6;" d="M477.693,124.266h-26.604c-0.107,4.927-0.124,10.395-0.075,15.524h26.401
					C477.582,134.65,477.69,129.177,477.693,124.266z"/>
			</g>
		</g>
		<g>
			<path style="fill:#355641;" d="M398.576,194.328l-0.77,21.454c0,0-5.358,1.912-9.772,1.572c-4.414-0.34-7.031-1.622-7.031-1.622
				l-0.534-21.405H398.576z"/>
			<path style="fill:#F7E8D5;" d="M398.576,194.328c0,0.947-4.053,1.714-9.053,1.714c-5,0-9.053-0.767-9.053-1.714
				c0-0.946,4.053-1.714,9.053-1.714C394.522,192.614,398.576,193.381,398.576,194.328z"/>
			<path style="fill:#8C8481;" d="M396.141,194.328c0,0.692-2.964,1.253-6.619,1.253c-3.656,0-6.619-0.561-6.619-1.253
				c0-0.692,2.963-1.253,6.619-1.253C393.178,193.075,396.141,193.636,396.141,194.328z"/>
			<path style="fill:#F7E8D5;" d="M394.732,194.328c0,0.545-2.333,0.986-5.21,0.986c-2.877,0-5.21-0.441-5.21-0.986
				c0-0.545,2.332-0.986,5.21-0.986C392.399,193.342,394.732,193.783,394.732,194.328z"/>
			<path style="fill:#F7E8D5;" d="M398.145,206.325l0.247-6.891c-0.813-0.496-4.025,2.488-7.571,4.745
				c-4.268,2.716-2.231-3.395-6.111-2.522c-1.571,0.354-2.935,1.286-4.002,2.271l0.144,5.761c1.271-0.338,2.596-0.071,3.46,1.549
				c1.542,2.889,3.017-0.27,9.225-3.266C395.903,206.831,397.308,206.41,398.145,206.325z"/>
		</g>
		<g>
			<path style="fill:#D04332;" d="M342.399,339.106c0-12.436-3.748-14.309-6.473-15.843c-2.726-1.533-4.088-15.863-4.088-15.863
				l-4.94-0.341l-4.94,0.341c0,0-1.363,14.329-4.088,15.863c-2.726,1.533-6.473,3.407-6.473,15.843
				c0,12.436-0.171,36.819,3.407,38.182c3.577,1.363,12.095,1.533,12.095,1.533s8.518-0.17,12.095-1.533
				C342.569,375.926,342.399,351.542,342.399,339.106z"/>
			<path style="fill:#2D3B53;" d="M333.307,303.465l-12.779,0.799c-0.692,0.038-1.197,0.668-1.083,1.352l0.306,1.836
				c0.094,0.56,0.578,0.971,1.147,0.971h12.473c0.642,0,1.162-0.52,1.162-1.162v-2.635
				C334.533,303.958,333.972,303.428,333.307,303.465z"/>
			<path style="fill:#FFB74D;" d="M339.053,361.164l-0.567-25.793c-0.061-2.764-2.703-4.974-5.933-4.957
				c-3.8,0.02-7.875,0.056-12.012,0.121c-3.219,0.05-5.8,2.297-5.8,5.052v25.549c0,2.756,2.582,5.002,5.802,5.052
				c4.344,0.068,8.618,0.104,12.577,0.123C336.437,366.327,339.116,364.002,339.053,361.164z"/>
			<path style="fill:#D34231;" d="M465.935,339.106c0-12.436-3.748-14.309-6.473-15.843c-2.726-1.533-4.088-10.903-4.088-10.903
				l-4.94-0.341l-4.94,0.341c0,0-1.363,9.369-4.089,10.903s-6.473,3.407-6.473,15.843c0,12.436-0.171,36.819,3.407,38.182
				c3.577,1.363,12.095,1.533,12.095,1.533s8.518-0.17,12.095-1.533C466.106,375.926,465.935,351.542,465.935,339.106z"/>
			<path style="fill:#355641;" d="M456.843,308.425l-12.779,0.799c-0.692,0.038-1.197,0.669-1.083,1.352l0.306,1.836
				c0.094,0.561,0.578,0.971,1.147,0.971h12.473c0.642,0,1.162-0.52,1.162-1.162v-2.635
				C458.069,308.918,457.509,308.388,456.843,308.425z"/>
			<path style="fill:#FAE8E6;" d="M459.886,333.367l-19.044,0.418c-2.041,0.045-3.673,1.996-3.66,4.381
				c0.015,2.805,0.041,5.814,0.089,8.869c0.037,2.377,1.696,4.283,3.73,4.283h18.864c2.035,0,3.693-1.907,3.73-4.284
				c0.05-3.207,0.077-6.363,0.091-9.286C463.698,335.299,461.982,333.321,459.886,333.367z"/>
			<path style="fill:#FFB74D;" d="M260.592,339.106c0-12.436-3.748-14.309-6.473-15.843c-2.726-1.533-4.089-5.943-4.089-5.943
				l-4.94-0.341l-4.94,0.341c0,0-1.363,4.409-4.088,5.943c-2.726,1.533-6.473,3.407-6.473,15.843
				c0,12.436-0.171,36.819,3.407,38.182c3.577,1.363,12.095,1.533,12.095,1.533s8.518-0.17,12.095-1.533
				C260.762,375.926,260.592,351.542,260.592,339.106z"/>
			<path style="fill:#2D3B53;" d="M251.499,313.385l-12.779,0.799c-0.692,0.038-1.197,0.668-1.083,1.352l0.306,1.836
				c0.094,0.561,0.578,0.971,1.147,0.971h12.473c0.642,0,1.162-0.52,1.162-1.162v-2.635
				C252.725,313.879,252.165,313.348,251.499,313.385z"/>
			<path style="fill:#FAE8E6;" d="M254.543,333.367l-19.044,0.418c-2.041,0.045-3.673,1.996-3.66,4.381
				c0.014,2.805,0.041,5.814,0.089,8.869c0.037,2.377,1.696,4.283,3.73,4.283h18.864c2.035,0,3.693-1.907,3.73-4.284
				c0.05-3.207,0.077-6.363,0.091-9.286C258.355,335.299,256.638,333.321,254.543,333.367z"/>
			<g>
				<path style="fill:#548C3E;" d="M424.539,336.103c-0.096-1.542-4.625-1.895-5.203-2.762c-0.578-0.867-0.385-7.131-0.385-7.131
					h-8.672h-9.186c0,0,0.193,6.263-0.385,7.131c-0.578,0.867-3.629,0.963-3.726,2.505c-0.096,1.542-0.674,32.376-0.674,36.231
					c0,3.854,2.505,6.745,4.625,6.745s9.347,0,9.347,0s7.227,0,9.347,0c2.12,0,4.625-2.891,4.625-6.745
					C424.25,368.222,424.635,337.644,424.539,336.103z"/>
				<path style="fill:#3C4F6E;" d="M419.384,321.105h-18.117c-0.506,0-0.911,0.421-0.891,0.927l0.161,4.076
					c0.019,0.478,0.412,0.856,0.891,0.856h17.875c0.486,0,0.882-0.389,0.892-0.874l0.081-4.075
					C420.286,321.515,419.884,321.105,419.384,321.105z"/>
			</g>
			<ellipse style="fill:#FAE8E6;" cx="411.203" cy="355.12" rx="9.073" ry="13.674"/>
			<g>
				<path style="fill:#545B8C;" d="M388.774,337.285c-0.12-1.927-5.781-2.368-6.503-3.452c-0.723-1.084-0.482-15.25-0.482-15.25
					H370.95h-11.481c0,0,0.241,14.166-0.482,15.25c-0.723,1.084-4.536,1.204-4.657,3.131c-0.121,1.927-0.843,27.931-0.843,32.749
					c0,4.817,3.131,8.43,5.781,8.43c2.65,0,11.682,0,11.682,0s9.032,0,11.682,0c2.65,0,5.781-3.613,5.781-8.43
					C388.413,364.895,388.894,339.212,388.774,337.285z"/>
				<path style="fill:#3C4F6E;" d="M382.332,312.202h-22.644c-0.633,0-1.138,0.526-1.114,1.159l0.202,5.094
					c0.024,0.598,0.515,1.07,1.114,1.07h22.341c0.607,0,1.102-0.486,1.114-1.092l0.101-5.094
					C383.458,312.714,382.956,312.202,382.332,312.202z"/>
			</g>
			<g>
				<path style="fill:#355641;" d="M302.502,337.285c-0.12-1.927-5.781-2.368-6.503-3.452c-0.723-1.084-0.482-4.903-0.482-4.903
					h-10.839h-11.481c0,0,0.241,3.82-0.482,4.903c-0.722,1.084-4.536,1.204-4.657,3.131c-0.121,1.927-0.843,27.931-0.843,32.749
					c0,4.817,3.131,8.43,5.781,8.43c2.649,0,11.682,0,11.682,0s9.032,0,11.682,0c2.65,0,5.781-3.613,5.781-8.43
					C302.141,364.895,302.622,339.212,302.502,337.285z"/>
				<path style="fill:#3C4F6E;" d="M296.06,322.549h-22.644c-0.633,0-1.138,0.526-1.114,1.159l0.202,5.094
					c0.024,0.598,0.515,1.07,1.114,1.07h22.341c0.607,0,1.102-0.486,1.114-1.092l0.101-5.094
					C297.186,323.061,296.684,322.549,296.06,322.549z"/>
			</g>
			<ellipse style="fill:#548C3E;" cx="284.363" cy="357.892" rx="14.632" ry="11.514"/>
			<path style="fill:#FAE8E6;" d="M354.19,340.84c-0.142,4.513-0.352,12.057-0.505,18.412l31.972,17.461
				c1.549-1.486,2.756-4.01,2.756-7c0-2.872,0.171-13.157,0.284-21.406C378.81,346.151,362.492,342.601,354.19,340.84z"/>
		</g>
		<path style="fill:#2D3B53;" d="M205.886,283.028c1.55-0.198,294.114,0.627,294.114,0.627v7.194l-294.354-2.875L205.886,283.028z"
			/>
		<path style="fill:#2D3B53;" d="M205.886,216.278c1.55-0.198,294.114,0.627,294.114,0.627v7.194l-294.354-2.876L205.886,216.278z"
			/>
		<path style="fill:#2D3B53;" d="M205.886,164.81c1.55-0.198,294.114,0.627,294.114,0.627v7.194l-294.354-2.876L205.886,164.81z"/>
		<path style="fill:#2D3B53;" d="M205.886,376.94c1.55-0.198,294.114,0.627,294.114,0.627v7.194l-294.354-2.875L205.886,376.94z"/>
		<g>
			<path style="fill:#979799;" d="M400.333,281.36c0.173,0.003,10.651-0.658,15.653,0.366c0.336,0.069,0.155,1.271-0.543,1.261
				c-0.698-0.01-10.925,0.194-15.186-0.223C399.907,282.729,399.123,281.337,400.333,281.36z"/>
			<path style="fill:#548C3E;" d="M416.423,237.635l-15.169-0.762c-0.498-0.025-0.918,0.366-0.928,0.865l-0.869,42.776
				c-0.01,0.489,0.379,0.893,0.868,0.902l15.287,0.271c0.488,0.009,0.891-0.38,0.899-0.868l0.75-42.285
				C417.27,238.057,416.899,237.659,416.423,237.635z"/>
			<path style="fill:#979799;" d="M401.38,235.473c0.173,0.009,10.667-0.28,15.63,0.921c0.334,0.081,0.11,1.276-0.587,1.241
				c-0.697-0.035-15.169-0.762-15.169-0.762S400.172,235.408,401.38,235.473z"/>
		</g>
		<g>
			<path style="fill:#979799;" d="M354.702,281.322c0.14,0.003,8.614-0.533,12.659,0.296c0.272,0.056,0.125,1.028-0.439,1.02
				c-0.564-0.008-8.835,0.157-12.281-0.18C354.358,282.43,353.724,281.304,354.702,281.322z"/>
			<path style="fill:#FFB74D;" d="M367.715,245.96l-12.267-0.616c-0.402-0.02-0.742,0.296-0.75,0.699l-0.703,34.595
				c-0.008,0.395,0.306,0.722,0.702,0.729l12.363,0.219c0.395,0.007,0.72-0.307,0.727-0.702l0.607-34.198
				C368.4,246.301,368.1,245.98,367.715,245.96z"/>
			<path style="fill:#979799;" d="M355.549,244.212c0.14,0.008,8.627-0.226,12.641,0.745c0.27,0.065,0.089,1.032-0.475,1.004
				c-0.564-0.028-12.267-0.616-12.267-0.616S354.572,244.159,355.549,244.212z"/>
		</g>
		<path style="fill:#FAE8E6;" d="M366.087,263.887c0,5.353-2.358,9.693-5.267,9.693c-2.909,0-5.267-4.339-5.267-9.693
			c0-5.353,2.358-9.693,5.267-9.693C363.729,254.194,366.087,258.534,366.087,263.887z"/>
		<g>
			<path style="fill:#979799;" d="M332.982,281.322c0.14,0.003,8.614-0.533,12.659,0.296c0.272,0.056,0.125,1.028-0.439,1.02
				c-0.564-0.008-8.835,0.157-12.282-0.18C332.638,282.43,332.004,281.304,332.982,281.322z"/>
			<path style="fill:#D04332;" d="M345.995,245.96l-12.267-0.616c-0.403-0.02-0.742,0.296-0.75,0.699l-0.703,34.595
				c-0.008,0.395,0.307,0.722,0.702,0.729l12.363,0.219c0.395,0.007,0.72-0.307,0.727-0.702l0.607-34.198
				C346.68,246.301,346.38,245.98,345.995,245.96z"/>
			<path style="fill:#979799;" d="M333.829,244.212c0.14,0.008,8.627-0.226,12.641,0.745c0.27,0.065,0.089,1.032-0.475,1.004
				c-0.564-0.028-12.267-0.616-12.267-0.616S332.852,244.159,333.829,244.212z"/>
		</g>
		<path style="fill:#FAE8E6;" d="M344.367,263.887c0,5.353-2.358,9.693-5.267,9.693c-2.909,0-5.267-4.339-5.267-9.693
			c0-5.353,2.358-9.693,5.267-9.693C342.009,254.194,344.367,258.534,344.367,263.887z"/>
		<g>
			<path style="fill:#979799;" d="M314.214,281.322c0.14,0.003,8.614-0.533,12.659,0.296c0.272,0.056,0.125,1.028-0.439,1.02
				c-0.564-0.008-8.835,0.157-12.282-0.18C313.87,282.43,313.236,281.304,314.214,281.322z"/>
			<path style="fill:#545B8C;" d="M327.227,245.96l-12.267-0.616c-0.403-0.02-0.742,0.296-0.75,0.699l-0.703,34.595
				c-0.008,0.395,0.307,0.722,0.702,0.729l12.363,0.219c0.395,0.007,0.72-0.307,0.727-0.702l0.607-34.198
				C327.912,246.301,327.612,245.98,327.227,245.96z"/>
			<path style="fill:#979799;" d="M315.061,244.212c0.14,0.008,8.627-0.226,12.641,0.745c0.27,0.065,0.089,1.032-0.475,1.004
				c-0.564-0.028-12.267-0.616-12.267-0.616S314.084,244.159,315.061,244.212z"/>
		</g>
		<path style="fill:#FAE8E6;" d="M325.599,263.887c0,5.353-2.358,9.693-5.267,9.693c-2.909,0-5.267-4.339-5.267-9.693
			c0-5.353,2.358-9.693,5.267-9.693C323.241,254.194,325.599,258.534,325.599,263.887z"/>
		<g>
			<path style="fill:#FFB74D;" d="M416.603,275.649l0.077-4.314c-5.867-1.747-13.794-6.111-16.812-11.051l-0.138,6.805
				C404.584,272.55,411.764,274.76,416.603,275.649z"/>
			<path style="fill:#FFB74D;" d="M416.855,261.473c-5.757-1.675-13.602-5.923-16.791-10.781l-0.136,6.712
				c4.91,5.365,12.078,7.507,16.852,8.363L416.855,261.473z"/>
		</g>
		<g>
			<path style="fill:#979799;" d="M421.234,281.36c0.173,0.003,10.651-0.658,15.653,0.366c0.336,0.069,0.155,1.271-0.543,1.261
				c-0.698-0.01-10.925,0.194-15.186-0.223C420.809,282.729,420.025,281.337,421.234,281.36z"/>
			<path style="fill:#545B8C;" d="M437.324,237.635l-15.169-0.762c-0.498-0.025-0.918,0.366-0.928,0.865l-0.869,42.776
				c-0.01,0.489,0.379,0.893,0.868,0.902l15.287,0.271c0.488,0.009,0.891-0.38,0.899-0.868l0.751-42.285
				C438.172,238.057,437.8,237.659,437.324,237.635z"/>
			<path style="fill:#979799;" d="M422.281,235.473c0.173,0.009,10.667-0.28,15.63,0.921c0.334,0.081,0.11,1.276-0.587,1.241
				c-0.697-0.035-15.169-0.762-15.169-0.762S421.073,235.408,422.281,235.473z"/>
		</g>
		<g>
			<path style="fill:#FFB74D;" d="M437.505,275.649l0.077-4.314c-5.867-1.747-13.794-6.111-16.812-11.051l-0.138,6.805
				C425.485,272.55,432.665,274.76,437.505,275.649z"/>
			<path style="fill:#FFB74D;" d="M437.756,261.473c-5.757-1.675-13.602-5.923-16.791-10.781l-0.136,6.712
				c4.911,5.365,12.078,7.507,16.852,8.363L437.756,261.473z"/>
		</g>
		<g>
			<path style="fill:#979799;" d="M442.135,281.36c0.173,0.003,10.651-0.658,15.653,0.366c0.336,0.069,0.155,1.271-0.543,1.261
				c-0.698-0.01-10.924,0.194-15.186-0.223C441.71,282.729,440.926,281.337,442.135,281.36z"/>
			<path style="fill:#FFB74D;" d="M458.225,237.635l-15.169-0.762c-0.498-0.025-0.918,0.366-0.928,0.865l-0.869,42.776
				c-0.01,0.489,0.379,0.893,0.868,0.902l15.287,0.271c0.488,0.009,0.89-0.38,0.899-0.868l0.751-42.285
				C459.073,238.057,458.702,237.659,458.225,237.635z"/>
			<path style="fill:#979799;" d="M443.182,235.473c0.173,0.009,10.667-0.28,15.63,0.921c0.334,0.081,0.11,1.276-0.587,1.241
				c-0.697-0.035-15.169-0.762-15.169-0.762S441.975,235.408,443.182,235.473z"/>
		</g>
		<g>
			<path style="fill:#D04332;" d="M458.406,275.649l0.076-4.314c-5.867-1.747-13.794-6.111-16.811-11.051l-0.138,6.805
				C446.387,272.55,453.567,274.76,458.406,275.649z"/>
			<path style="fill:#D04332;" d="M458.657,261.473c-5.757-1.675-13.602-5.923-16.791-10.781l-0.136,6.712
				c4.91,5.365,12.078,7.507,16.852,8.363L458.657,261.473z"/>
		</g>
		<g>
			<path style="fill:#979799;" d="M463.037,281.36c0.173,0.003,10.651-0.658,15.653,0.366c0.336,0.069,0.155,1.271-0.543,1.261
				c-0.698-0.01-10.924,0.194-15.186-0.223C462.611,282.729,461.827,281.337,463.037,281.36z"/>
			<path style="fill:#D04332;" d="M479.127,237.635l-15.168-0.762c-0.498-0.025-0.918,0.366-0.928,0.865l-0.869,42.776
				c-0.01,0.489,0.379,0.893,0.868,0.902l15.287,0.271c0.488,0.009,0.891-0.38,0.899-0.868l0.751-42.285
				C479.974,238.057,479.603,237.659,479.127,237.635z"/>
			<path style="fill:#979799;" d="M464.084,235.473c0.173,0.009,10.668-0.28,15.63,0.921c0.334,0.081,0.11,1.276-0.587,1.241
				c-0.697-0.035-15.168-0.762-15.168-0.762S462.876,235.408,464.084,235.473z"/>
		</g>
		<g>
			<path style="fill:#FFB74D;" d="M479.307,275.649l0.076-4.314c-5.867-1.747-13.794-6.111-16.811-11.051l-0.138,6.805
				C467.288,272.55,474.468,274.76,479.307,275.649z"/>
			<path style="fill:#FFB74D;" d="M479.559,261.473c-5.757-1.675-13.602-5.923-16.791-10.781l-0.136,6.712
				c4.91,5.365,12.078,7.507,16.852,8.363L479.559,261.473z"/>
		</g>
		<path style="fill:#545B8C;" d="M337.346,193.148l-0.77,21.454c0,0-5.359,1.912-9.772,1.572c-4.413-0.34-7.031-1.622-7.031-1.622
			l-0.533-21.404H337.346z"/>
		<path style="fill:#F7E8D5;" d="M336.039,193.148c0,0.946-4.053,1.714-9.053,1.714s-9.053-0.767-9.053-1.714
			s4.053-1.714,9.053-1.714S336.039,192.201,336.039,193.148z"/>
		<path style="fill:#8C8481;" d="M333.604,193.148c0,0.692-2.964,1.253-6.619,1.253c-3.656,0-6.619-0.561-6.619-1.253
			c0-0.692,2.963-1.253,6.619-1.253C330.641,191.895,333.604,192.456,333.604,193.148z"/>
		<path style="fill:#F7E8D5;" d="M332.195,193.148c0,0.545-2.332,0.986-5.21,0.986c-2.877,0-5.21-0.441-5.21-0.986
			c0-0.545,2.333-0.986,5.21-0.986C329.863,192.161,332.195,192.603,332.195,193.148z"/>
		<path style="fill:#F7E8D5;" d="M335.608,205.145l0.247-6.891c-0.813-0.496-4.025,2.488-7.571,4.745
			c-4.268,2.716-2.231-3.395-6.111-2.522c-1.571,0.353-2.935,1.286-4.002,2.271l0.144,5.761c1.271-0.338,2.596-0.071,3.461,1.549
			c1.542,2.889,3.017-0.27,9.225-3.266C333.366,205.651,334.772,205.23,335.608,205.145z"/>
		<g>
			<path style="fill:#D34231;" d="M282.019,134.502l-1.026,28.591c0,0-7.141,2.548-13.023,2.095
				c-5.882-0.452-9.371-2.161-9.371-2.161l-0.711-28.526H282.019z"/>
			<ellipse style="fill:#F7E8D5;" cx="269.954" cy="134.502" rx="12.065" ry="2.284"/>
			<ellipse style="fill:#8C8481;" cx="269.954" cy="134.502" rx="8.821" ry="1.67"/>
			<path style="fill:#F7E8D5;" d="M276.897,134.502c0,0.726-3.108,1.314-6.943,1.314c-3.835,0-6.943-0.588-6.943-1.314
				c0-0.726,3.109-1.314,6.943-1.314C273.788,133.188,276.897,133.776,276.897,134.502z"/>
			<path style="fill:#F7E8D5;" d="M281.445,150.491l0.33-9.184c-1.084-0.661-5.364,3.316-10.09,6.324
				c-5.688,3.62-2.973-4.524-8.144-3.361c-2.094,0.471-3.911,1.714-5.334,3.027l0.191,7.678c1.694-0.45,3.46-0.094,4.612,2.064
				c2.055,3.85,4.021-0.36,12.294-4.352C278.457,151.165,280.33,150.604,281.445,150.491z"/>
		</g>
		<path style="fill:#FFB74D;" d="M308.418,193.471l-0.77,21.454c0,0-5.358,1.912-9.772,1.572c-4.413-0.34-7.031-1.622-7.031-1.622
			l-0.534-21.404H308.418z"/>
		<path style="fill:#F7E8D5;" d="M308.418,193.471c0,0.946-4.053,1.714-9.053,1.714s-9.053-0.767-9.053-1.714
			c0-0.946,4.053-1.714,9.053-1.714S308.418,192.525,308.418,193.471z"/>
		<path style="fill:#8C8481;" d="M305.984,193.471c0,0.692-2.964,1.253-6.619,1.253c-3.656,0-6.619-0.561-6.619-1.253
			c0-0.692,2.963-1.253,6.619-1.253C303.02,192.218,305.984,192.779,305.984,193.471z"/>
		<path style="fill:#F7E8D5;" d="M304.574,193.471c0,0.545-2.333,0.986-5.21,0.986c-2.877,0-5.21-0.442-5.21-0.986
			c0-0.545,2.333-0.986,5.21-0.986C302.242,192.485,304.574,192.926,304.574,193.471z"/>
		<polygon style="fill:#F6E6D6;" points="307.823,210.058 308.057,203.527 290.562,203.527 290.725,210.058 		"/>
		<g>
			<path style="fill:#FFB74D;" d="M313.88,134.454l-1.004,27.992c0,0-6.992,2.494-12.75,2.051c-5.758-0.443-9.174-2.116-9.174-2.116
				l-0.696-27.927H313.88z"/>
			<path style="fill:#F7E8D5;" d="M313.88,134.454c0,1.235-5.288,2.236-11.812,2.236c-6.524,0-11.812-1.001-11.812-2.236
				c0-1.235,5.288-2.236,11.812-2.236C308.592,132.219,313.88,133.219,313.88,134.454z"/>
			<ellipse style="fill:#8C8481;" cx="302.068" cy="134.454" rx="8.636" ry="1.635"/>
			<path style="fill:#F7E8D5;" d="M308.866,134.454c0,0.711-3.043,1.287-6.797,1.287c-3.754,0-6.798-0.576-6.798-1.287
				s3.043-1.287,6.798-1.287C305.822,133.168,308.866,133.744,308.866,134.454z"/>
			<polygon style="fill:#F6E6D6;" points="313.104,156.096 313.41,147.574 290.583,147.574 290.796,156.096 			"/>
		</g>
		<path style="fill:#355641;" d="M279.007,193.148l-0.77,21.454c0,0-5.358,1.912-9.772,1.572c-4.414-0.34-7.031-1.622-7.031-1.622
			l-0.534-21.404H279.007z"/>
		<path style="fill:#F7E8D5;" d="M279.007,193.148c0,0.946-4.053,1.714-9.053,1.714c-5,0-9.053-0.767-9.053-1.714
			s4.053-1.714,9.053-1.714C274.954,191.434,279.007,192.201,279.007,193.148z"/>
		<path style="fill:#8C8481;" d="M276.573,193.148c0,0.692-2.964,1.253-6.619,1.253c-3.656,0-6.619-0.561-6.619-1.253
			c0-0.692,2.964-1.253,6.619-1.253C273.609,191.895,276.573,192.456,276.573,193.148z"/>
		<path style="fill:#F7E8D5;" d="M275.164,193.148c0,0.545-2.332,0.986-5.21,0.986c-2.877,0-5.21-0.441-5.21-0.986
			c0-0.545,2.333-0.986,5.21-0.986C272.831,192.161,275.164,192.603,275.164,193.148z"/>
		<path style="fill:#B2CF7D;" d="M261.319,209.948c4.76,3.776,13.383,3.484,16.971,3.168l0.319-8.886
			c-5.947,0.104-14.394-5.411-17.624-7.691L261.319,209.948z"/>
		<path style="fill:#2C2B33;" d="M253.85,193.148l-0.77,21.454c0,0-5.359,1.912-9.772,1.572c-4.413-0.34-7.031-1.622-7.031-1.622
			l-0.534-21.404H253.85z"/>
		<path style="fill:#F7E8D5;" d="M253.85,193.148c0,0.946-4.053,1.714-9.053,1.714s-9.053-0.767-9.053-1.714
			s4.053-1.714,9.053-1.714S253.85,192.201,253.85,193.148z"/>
		<path style="fill:#8C8481;" d="M251.416,193.148c0,0.692-2.964,1.253-6.619,1.253c-3.656,0-6.619-0.561-6.619-1.253
			c0-0.692,2.964-1.253,6.619-1.253C248.452,191.895,251.416,192.456,251.416,193.148z"/>
		<path style="fill:#F7E8D5;" d="M250.007,193.148c0,0.545-2.333,0.986-5.21,0.986s-5.21-0.441-5.21-0.986
			c0-0.545,2.333-0.986,5.21-0.986S250.007,192.603,250.007,193.148z"/>
		<path style="fill:#F6D9D6;" d="M250.007,205.756c0,4.16-2.505,7.532-5.596,7.532c-3.09,0-5.596-3.372-5.596-7.532
			c0-4.16,2.505-7.532,5.596-7.532C247.501,198.224,250.007,201.596,250.007,205.756z"/>
		<g>
			<path style="fill:#2C2B33;" d="M253.85,135.458l-1.02,28.419c0,0-7.098,2.532-12.945,2.083c-5.846-0.45-9.314-2.148-9.314-2.148
				l-0.707-28.354H253.85z"/>
			<ellipse style="fill:#F7E8D5;" cx="241.857" cy="135.458" rx="11.993" ry="2.27"/>
			<path style="fill:#8C8481;" d="M250.625,135.458c0,0.917-3.926,1.66-8.768,1.66c-4.842,0-8.768-0.743-8.768-1.66
				c0-0.917,3.926-1.66,8.768-1.66C246.7,133.798,250.625,134.541,250.625,135.458z"/>
			<path style="fill:#F7E8D5;" d="M248.759,135.458c0,0.721-3.09,1.306-6.902,1.306c-3.811,0-6.901-0.585-6.901-1.306
				c0-0.721,3.09-1.306,6.901-1.306C245.669,134.152,248.759,134.737,248.759,135.458z"/>
			<ellipse style="fill:#F6D9D6;" cx="241.346" cy="152.16" rx="7.413" ry="9.977"/>
		</g>
		<path style="fill:#FBADA0;" d="M335.206,171.219c0,0,0-12.598-3.987-16.428c-3.987-3.831-18.294-5.16-20.796-2.111
			c-2.502,3.049-3.362,10.632-3.362,10.632s0.164,3.503,0.278,5.394c-0.547,4.137-1.783,11.498,0.097,11.512
			c0.368,0.003,0.709,0.005,1.021,0.006c0.812,0.003,1.548,0.463,1.916,1.187c0.188,0.37,0.387,0.723,0.597,1.056
			c4.883,7.71,4.098,8.097,8.171,7.243c1.683-0.353,5.397-3.439,6.543-4.419c0.206-0.176,0.498-0.201,0.731-0.06
			c1.849,1.117,9.758,5.724,11.137,3.725c1.564-2.267,3.362-14.307,3.362-14.307L335.206,171.219z"/>
		<g>
			<path style="fill:#D44332;" d="M130.848,289.755c-1.233-1.233-1.644-7.399-1.644-7.399h-7.81h-7.81c0,0-0.411,6.166-1.644,7.399
				c-1.233,1.233-8.427,2.261-6.988,11.098c1.209,7.426,6.916,26.171,8.709,31.97c0.327,1.056,1.246,1.817,2.345,1.943h10.777
				c1.099-0.126,2.018-0.886,2.345-1.943c1.792-5.798,7.5-24.544,8.709-31.97C139.274,292.016,132.081,290.988,130.848,289.755z"/>
			<path style="fill:#FAE8E6;" d="M128.305,300.339c-1.558-2.799-4.07-4.624-6.912-4.624c-2.842,0-5.354,1.826-6.912,4.624h-9.6
				c0.022,0.17,0.041,0.338,0.07,0.514c0.482,2.961,1.68,7.722,3.059,12.743h6.471c1.558,2.799,4.07,4.624,6.912,4.624
				c2.842,0,5.354-1.826,6.912-4.624h6.471c1.379-5.021,2.577-9.782,3.059-12.743c0.029-0.176,0.048-0.344,0.07-0.514H128.305z"/>
			<path style="fill:#2D3B53;" d="M130.334,277.629h-17.881c-0.851,0-1.541,0.69-1.541,1.542v2.261c0,0.851,0.69,1.541,1.541,1.541
				h17.881c0.851,0,1.542-0.69,1.542-1.541v-2.261C131.875,278.319,131.185,277.629,130.334,277.629z"/>
		</g>
		<g>
			<path style="fill:#548C3E;" d="M101.167,294.025c0-10.002-3.014-11.51-5.207-12.743c-2.192-1.233-3.288-8.769-3.288-8.769
				l-3.974-0.274l-3.974,0.274c0,0-1.096,7.536-3.288,8.769c-2.192,1.233-5.207,2.74-5.207,12.743
				c0,10.002-0.137,38.776,2.74,39.872c2.877,1.096,9.728,1.233,9.728,1.233s6.851-0.137,9.728-1.233
				C101.304,332.801,101.167,304.027,101.167,294.025z"/>
			<path style="fill:#2D3B53;" d="M93.854,269.347l-10.279,0.642c-0.556,0.031-0.963,0.538-0.871,1.087l0.246,1.477
				c0.075,0.451,0.465,0.781,0.922,0.781h10.032c0.516,0,0.935-0.419,0.935-0.935v-2.12
				C94.84,269.744,94.389,269.318,93.854,269.347z"/>
			<path style="fill:#FAE8E6;" d="M76.405,313.653h24.586c0.136-5.119,0.168-10.332,0.175-14.505l-24.935,0.469
				C76.239,303.707,76.275,308.724,76.405,313.653z"/>
		</g>
		<path style="fill:#548C3E;" d="M72.536,288.693c-0.103-1.644-4.933-2.021-5.549-2.946c-0.617-0.925-0.411-7.604-0.411-7.604
			h-9.249H47.53c0,0,0.205,6.68-0.411,7.604c-0.617,0.925-3.871,1.028-3.973,2.672c-0.103,1.644-0.719,34.529-0.719,38.639
			c0,4.11,2.672,7.193,4.933,7.193c2.261,0,9.968,0,9.968,0s7.707,0,9.968,0c2.261,0,4.933-3.083,4.933-7.193
			C72.227,322.948,72.638,290.337,72.536,288.693z"/>
		<g>
			<path style="fill:#2D3B53;" d="M163.984,117.501c-1.837-3.682-4.274-3.985-5.45-5.381c-1.312-1.557-2.343-5.132-2.697-8.106
				c-0.035-0.292-0.244-0.505-0.499-0.517h-4.925c-0.255,0.012-0.464,0.225-0.499,0.517c-0.354,2.974-1.385,6.549-2.697,8.106
				c-1.176,1.395-3.613,1.699-5.45,5.381c-1.837,3.681-0.925,11.398-0.925,13.522s1.66,3.54,1.66,11.894
				c0,7.813-1.071,10.858-1.21,11.219c-0.012,0.032-0.019,0.057-0.026,0.091c-0.108,0.514-0.904,4.624,0.011,9.787
				c0.98,5.522,4.47,8.425,5.817,8.283c1.347-0.142,1.531-1.558,2.878-0.496c0.846,0.667,1.789,0.859,2.374,0.91
				c0.249,0.022,0.457-0.161,0.529-0.419c0.073,0.258,0.281,0.441,0.529,0.419c0.584-0.051,1.527-0.243,2.373-0.91
				c1.347-1.062,1.531,0.354,2.878,0.496c1.347,0.142,4.837-2.761,5.817-8.283c0.916-5.162,0.119-9.273,0.012-9.787
				c-0.007-0.034-0.014-0.059-0.026-0.091c-0.138-0.361-1.21-3.406-1.21-11.219c0-8.354,1.66-9.77,1.66-11.894
				S165.821,121.182,163.984,117.501z"/>
			<path style="fill:#D74434;" d="M149.246,104.073c0,0-0.167-2.723,0.669-3.168c0.837-0.445,5.774-0.445,6.234,0.222
				c0.46,0.667,0.922,3.255,0.042,3.668c-0.88,0.413-2.05-0.611-2.845,0C152.552,105.407,149.253,105.009,149.246,104.073z"/>
			<path style="fill:#EC1C24;" d="M142.503,142.917c0,1.969-0.068,3.634-0.172,5.031h21.091c-0.104-1.397-0.172-3.061-0.172-5.031
				c0-4.365,0.453-6.834,0.886-8.501h-22.518C142.049,136.083,142.503,138.552,142.503,142.917z"/>
		</g>
		<g>
			<path style="fill:#EC1C24;" d="M91.277,103.611c0,0-0.183-2.723,0.73-3.168c0.913-0.445,6.3-0.445,6.802,0.222
				c0.502,0.667,1.006,3.255,0.046,3.668c-0.96,0.413-2.237-0.611-3.104,0C94.884,104.945,91.284,104.547,91.277,103.611z"/>
			<g>
				<path style="fill:#D44332;" d="M106.938,116.122c-1.837-3.682-5.199-3.068-6.375-4.463c-1.312-1.557-2.343-5.132-2.697-8.105
					c-0.035-0.292-0.244-0.505-0.499-0.517h-4.925c-0.255,0.012-0.464,0.225-0.499,0.517c-0.354,2.974-1.385,6.549-2.697,8.105
					c-1.176,1.395-3.538,0.404-5.375,4.086c-1.837,3.681-1.48,42.646-0.564,47.808c0.98,5.522,4.47,8.425,5.817,8.283
					c1.347-0.142,1.531-1.557,2.878-0.496c0.846,0.667,1.789,0.859,2.373,0.91c0.249,0.021,0.457-0.161,0.53-0.419
					c0.072,0.258,0.28,0.441,0.529,0.419c0.584-0.051,1.527-0.243,2.373-0.91c1.347-1.062,1.531,0.354,2.878,0.496
					c1.347,0.142,4.837-2.761,5.817-8.283C107.419,158.39,108.775,119.803,106.938,116.122z"/>
				<path style="fill:#FAE8E6;" d="M107.85,130.8H82.651c-0.101,4.667-0.118,9.845-0.071,14.704h25.006
					C107.745,140.635,107.847,135.451,107.85,130.8z"/>
			</g>
		</g>
		<g>
			<path style="fill:#548C3E;" d="M136.39,116.122c-1.837-3.682-5.199-3.068-6.375-4.463c-1.312-1.557-2.343-5.132-2.697-8.105
				c-0.035-0.292-0.244-0.505-0.499-0.517h-4.925c-0.255,0.012-0.464,0.225-0.499,0.517c-0.354,2.974-1.385,6.549-2.697,8.105
				c-1.176,1.395-3.538,0.404-5.375,4.086c-1.837,3.681,0.66,18.357,0.66,26.711c0,7.814-1.071,10.858-1.21,11.22
				c-0.012,0.032-0.019,0.057-0.026,0.091c-0.108,0.514-0.904,4.624,0.011,9.787c0.98,5.522,4.47,8.425,5.817,8.283
				c1.347-0.142,1.531-1.557,2.878-0.496c0.846,0.667,1.789,0.859,2.374,0.91c0.249,0.021,0.457-0.161,0.529-0.419
				c0.073,0.258,0.281,0.441,0.529,0.419c0.584-0.051,1.527-0.243,2.373-0.91c1.347-1.062,1.531,0.354,2.878,0.496
				c1.347,0.142,4.837-2.761,5.817-8.283c0.916-5.162,0.119-9.273,0.012-9.787c-0.007-0.034-0.014-0.059-0.026-0.091
				c-0.139-0.361-1.21-3.406-1.21-11.22C134.73,134.101,138.226,119.803,136.39,116.122z"/>
			<path style="fill:#3B5B44;" d="M120.728,103.611c0,0-0.183-2.723,0.73-3.168c0.913-0.445,6.3-0.445,6.802,0.222
				c0.502,0.667,1.006,3.255,0.046,3.668c-0.961,0.413-2.237-0.611-3.104,0C124.335,104.945,120.735,104.547,120.728,103.611z"/>
			<path style="fill:#3B5B44;" d="M113.983,142.455c0,1.969-0.068,3.634-0.172,5.031h21.091c-0.104-1.397-0.172-3.062-0.172-5.031
				c0-2.958,0.439-6.662,0.924-10.376h-22.297C113.676,135.817,113.983,139.525,113.983,142.455z"/>
		</g>
		<g>
			<path style="fill:#548C3E;" d="M72.09,116.122c-1.837-3.682-5.199-3.068-6.375-4.463c-1.312-1.557-2.343-5.132-2.697-8.105
				c-0.035-0.292-0.244-0.505-0.499-0.517h-4.925c-0.255,0.012-0.464,0.225-0.499,0.517c-0.354,2.974-1.385,6.549-2.697,8.105
				c-1.176,1.395-3.538,0.404-5.375,4.086c-1.837,3.681,0.661,18.357,0.661,26.711c0,7.814-1.071,10.858-1.21,11.22
				c-0.012,0.032-0.019,0.057-0.026,0.091c-0.108,0.514-0.904,4.624,0.011,9.787c0.98,5.522,4.47,8.425,5.817,8.283
				c1.347-0.142,1.531-1.557,2.878-0.496c0.846,0.667,1.789,0.859,2.373,0.91c0.249,0.021,0.457-0.161,0.53-0.419
				c0.073,0.258,0.281,0.441,0.529,0.419c0.584-0.051,1.527-0.243,2.374-0.91c1.347-1.062,1.531,0.354,2.878,0.496
				c1.347,0.142,4.837-2.761,5.817-8.283c0.916-5.162,0.119-9.273,0.012-9.787c-0.007-0.034-0.014-0.059-0.026-0.091
				c-0.139-0.361-1.21-3.406-1.21-11.22C70.43,134.101,73.927,119.803,72.09,116.122z"/>
			<path style="fill:#3B5B44;" d="M56.429,103.611c0,0-0.183-2.723,0.73-3.168c0.913-0.445,6.3-0.445,6.802,0.222
				c0.502,0.667,1.006,3.255,0.046,3.668c-0.961,0.413-2.237-0.611-3.104,0C60.036,104.945,56.436,104.547,56.429,103.611z"/>
			<path style="fill:#3B5B44;" d="M49.684,142.455c0,1.969-0.068,3.634-0.172,5.031h21.091c-0.104-1.397-0.172-3.062-0.172-5.031
				c0-2.958,0.439-6.662,0.924-10.376H49.057C49.377,135.817,49.684,139.525,49.684,142.455z"/>
		</g>
		<g>
			<path style="fill:#2D3B53;" d="M165.319,219.627c-1.131-2.266-2.63-2.453-3.354-3.311c-0.807-0.958-1.442-3.158-1.66-4.988
				c-0.021-0.18-0.15-0.311-0.307-0.318h-3.031c-0.157,0.007-0.286,0.138-0.307,0.318c-0.218,1.83-0.852,4.03-1.66,4.988
				c-0.723,0.859-2.223,1.046-3.354,3.311c-1.13,2.266-0.569,7.015-0.569,8.322s1.022,2.178,1.022,7.32
				c0,4.809-0.659,6.683-0.745,6.905c-0.008,0.02-0.012,0.035-0.016,0.056c-0.066,0.316-0.557,2.846,0.007,6.023
				c0.603,3.398,2.751,5.185,3.58,5.098c0.829-0.087,0.942-0.958,1.771-0.305c0.521,0.411,1.101,0.529,1.461,0.56
				c0.153,0.013,0.281-0.099,0.326-0.258c0.045,0.159,0.173,0.271,0.326,0.258c0.36-0.031,0.94-0.149,1.461-0.56
				c0.829-0.654,0.942,0.218,1.771,0.305c0.829,0.087,2.977-1.699,3.58-5.098c0.564-3.177,0.074-5.707,0.007-6.023
				c-0.004-0.021-0.009-0.036-0.016-0.056c-0.085-0.222-0.745-2.096-0.745-6.905c0-5.141,1.022-6.013,1.022-7.32
				S166.45,221.893,165.319,219.627z"/>
			<path style="fill:#D74434;" d="M156.249,211.363c0,0-0.103-1.676,0.412-1.95c0.515-0.274,3.553-0.274,3.837,0.137
				c0.283,0.411,0.568,2.003,0.026,2.258c-0.542,0.254-1.262-0.376-1.751,0C158.283,212.184,156.253,211.939,156.249,211.363z"/>
			<path style="fill:#EC1C24;" d="M152.099,235.269c0,1.212-0.042,2.236-0.106,3.096h12.98c-0.064-0.86-0.106-1.884-0.106-3.096
				c0-2.686,0.279-4.206,0.545-5.232h-13.859C151.82,231.063,152.099,232.583,152.099,235.269z"/>
		</g>
		<g>
			<path style="fill:#FF8B8B;" d="M82.917,219.627c-1.131-2.266-2.63-2.453-3.354-3.311c-0.807-0.958-1.442-3.158-1.66-4.988
				c-0.021-0.18-0.15-0.311-0.307-0.318h-3.031c-0.157,0.007-0.286,0.138-0.307,0.318c-0.218,1.83-0.852,4.03-1.66,4.988
				c-0.723,0.859-2.223,1.046-3.354,3.311c-1.131,2.266-0.569,7.015-0.569,8.322s1.022,2.178,1.022,7.32
				c0,4.809-0.659,6.683-0.745,6.905c-0.008,0.02-0.012,0.035-0.016,0.056c-0.066,0.316-0.557,2.846,0.007,6.023
				c0.603,3.398,2.751,5.185,3.58,5.098c0.829-0.087,0.942-0.958,1.771-0.305c0.521,0.411,1.101,0.529,1.461,0.56
				c0.153,0.013,0.281-0.099,0.326-0.258c0.045,0.159,0.173,0.271,0.326,0.258c0.36-0.031,0.94-0.149,1.461-0.56
				c0.829-0.654,0.942,0.218,1.771,0.305c0.829,0.087,2.977-1.699,3.58-5.098c0.564-3.177,0.074-5.707,0.007-6.023
				c-0.004-0.021-0.009-0.036-0.016-0.056c-0.085-0.222-0.744-2.096-0.744-6.905c0-5.141,1.022-6.013,1.022-7.32
				S84.048,221.893,82.917,219.627z"/>
			<path style="fill:#D74434;" d="M73.848,211.363c0,0-0.103-1.676,0.412-1.95c0.515-0.274,3.553-0.274,3.837,0.137
				c0.283,0.411,0.567,2.003,0.026,2.258c-0.542,0.254-1.262-0.376-1.751,0C75.882,212.184,73.852,211.939,73.848,211.363z"/>
			<path style="fill:#EC1C24;" d="M69.697,235.269c0,1.212-0.042,2.236-0.106,3.096h12.98c-0.064-0.86-0.106-1.884-0.106-3.096
				c0-2.686,0.279-4.206,0.545-5.232H69.152C69.418,231.063,69.697,232.583,69.697,235.269z"/>
		</g>
		<g>
			<path style="fill:#2D3B53;" d="M53.77,218.213c-1.13-2.266-2.63-2.453-3.354-3.311c-0.807-0.958-1.442-3.158-1.66-4.988
				c-0.021-0.18-0.15-0.311-0.307-0.318h-3.031c-0.157,0.008-0.286,0.138-0.307,0.318c-0.218,1.83-0.852,4.03-1.66,4.988
				c-0.724,0.859-2.223,1.046-3.354,3.311c-1.131,2.266-0.569,7.015-0.569,8.322c0,1.307,1.022,2.179,1.022,7.32
				c0,4.809-0.659,6.682-0.745,6.905c-0.008,0.02-0.012,0.035-0.016,0.056c-0.066,0.316-0.557,2.846,0.007,6.023
				c0.603,3.399,2.751,5.185,3.58,5.098c0.829-0.087,0.942-0.959,1.771-0.305c0.521,0.411,1.101,0.529,1.461,0.56
				c0.153,0.013,0.281-0.099,0.326-0.258c0.045,0.159,0.173,0.271,0.326,0.258c0.359-0.031,0.94-0.149,1.461-0.56
				c0.829-0.654,0.942,0.218,1.771,0.305c0.829,0.087,2.977-1.699,3.58-5.098c0.564-3.177,0.073-5.707,0.007-6.023
				c-0.004-0.021-0.009-0.036-0.016-0.056c-0.085-0.222-0.745-2.096-0.745-6.905c0-5.141,1.022-6.013,1.022-7.32
				C54.34,225.228,54.901,220.478,53.77,218.213z"/>
			<path style="fill:#D74434;" d="M44.701,209.949c0,0-0.103-1.676,0.412-1.95c0.515-0.274,3.553-0.274,3.836,0.137
				c0.283,0.411,0.567,2.003,0.026,2.258c-0.542,0.254-1.262-0.376-1.751,0C46.735,210.77,44.705,210.525,44.701,209.949z"/>
			<path style="fill:#EC1C24;" d="M40.55,233.855c0,1.212-0.042,2.236-0.106,3.096h12.98c-0.064-0.86-0.106-1.884-0.106-3.096
				c0-2.686,0.279-4.206,0.545-5.232H40.005C40.271,229.649,40.55,231.168,40.55,233.855z"/>
		</g>
		<g>
			<path style="fill:#EC1C24;" d="M120.573,211.587c0,0-0.112-1.676,0.45-1.95c0.562-0.274,3.877-0.274,4.186,0.137
				c0.309,0.41,0.619,2.003,0.028,2.258c-0.591,0.254-1.377-0.376-1.911,0C122.792,212.408,120.577,212.163,120.573,211.587z"/>
			<g>
				<path style="fill:#D44332;" d="M130.211,219.287c-1.131-2.266-3.2-1.888-3.923-2.747c-0.807-0.958-1.442-3.158-1.66-4.988
					c-0.021-0.18-0.15-0.311-0.307-0.318h-3.031c-0.157,0.007-0.286,0.138-0.307,0.318c-0.218,1.83-0.852,4.03-1.66,4.988
					c-0.724,0.859-2.178,0.249-3.308,2.514c-1.131,2.266-0.911,26.246-0.347,29.423c0.603,3.398,2.751,5.185,3.58,5.098
					s0.942-0.958,1.771-0.305c0.521,0.411,1.101,0.529,1.461,0.56c0.153,0.013,0.281-0.099,0.326-0.258
					c0.045,0.159,0.173,0.271,0.326,0.258c0.36-0.031,0.94-0.149,1.461-0.56c0.829-0.654,0.942,0.218,1.771,0.305
					c0.829,0.087,2.977-1.699,3.58-5.098C130.507,245.3,131.342,221.553,130.211,219.287z"/>
				<path style="fill:#FAE8E6;" d="M130.772,228.32h-15.508c-0.062,2.872-0.072,6.059-0.043,9.049h15.389
					C130.707,234.373,130.771,231.183,130.772,228.32z"/>
			</g>
		</g>
		<g>
			<g>
				<path style="fill:#3C4F6E;" d="M99.719,219.287c-1.131-2.266-3.2-1.888-3.923-2.747c-0.807-0.958-1.442-3.158-1.66-4.988
					c-0.021-0.18-0.15-0.311-0.307-0.318h-3.031c-0.157,0.007-0.286,0.138-0.307,0.318c-0.218,1.83-0.852,4.03-1.66,4.988
					c-0.723,0.859-2.178,0.249-3.308,2.514c-1.131,2.266-0.911,26.246-0.347,29.423c0.603,3.398,2.751,5.185,3.58,5.098
					c0.829-0.087,0.942-0.958,1.771-0.305c0.521,0.411,1.101,0.529,1.461,0.56c0.153,0.013,0.281-0.099,0.326-0.258
					c0.045,0.159,0.173,0.271,0.326,0.258c0.36-0.031,0.94-0.149,1.461-0.56c0.829-0.654,0.942,0.218,1.771,0.305
					c0.829,0.087,2.977-1.699,3.58-5.098C100.015,245.3,100.85,221.553,99.719,219.287z"/>
				<path style="fill:#FAE8E6;" d="M100.28,228.32H84.772c-0.062,2.872-0.072,6.059-0.044,9.049h15.39
					C100.215,234.373,100.279,231.183,100.28,228.32z"/>
			</g>
		</g>
		<g>
			<path style="fill:#548C3E;" d="M148.337,219.287c-1.131-2.266-3.2-1.888-3.923-2.747c-0.807-0.958-1.442-3.158-1.66-4.988
				c-0.021-0.18-0.15-0.311-0.307-0.318h-3.031c-0.157,0.007-0.286,0.138-0.307,0.318c-0.218,1.83-0.852,4.03-1.66,4.988
				c-0.723,0.859-2.178,0.249-3.308,2.514c-1.131,2.266,0.406,11.297,0.406,16.439c0,4.809-0.659,6.683-0.744,6.905
				c-0.008,0.02-0.012,0.035-0.016,0.056c-0.066,0.316-0.557,2.846,0.007,6.023c0.603,3.398,2.751,5.185,3.58,5.098
				s0.942-0.958,1.771-0.305c0.521,0.411,1.101,0.529,1.461,0.56c0.153,0.013,0.281-0.099,0.326-0.258
				c0.045,0.159,0.173,0.271,0.326,0.258c0.36-0.031,0.94-0.149,1.461-0.56c0.829-0.654,0.942,0.218,1.771,0.305
				c0.829,0.087,2.977-1.699,3.58-5.098c0.564-3.177,0.074-5.707,0.007-6.023c-0.005-0.021-0.009-0.036-0.016-0.056
				c-0.085-0.222-0.745-2.096-0.745-6.905C147.315,230.352,149.467,221.553,148.337,219.287z"/>
			<path style="fill:#3B5B44;" d="M138.698,211.587c0,0-0.112-1.676,0.45-1.95c0.562-0.274,3.877-0.274,4.186,0.137
				c0.309,0.41,0.619,2.003,0.028,2.258c-0.591,0.254-1.377-0.376-1.911,0C140.918,212.408,138.702,212.163,138.698,211.587z"/>
			<path style="fill:#3B5B44;" d="M134.547,235.493c0,1.212-0.042,2.236-0.106,3.096h12.98c-0.064-0.86-0.106-1.884-0.106-3.096
				c0-1.821,0.27-4.1,0.568-6.386h-13.722C134.358,231.408,134.547,233.69,134.547,235.493z"/>
		</g>
		<g>
			<path style="fill:#1176B5;" d="M115.092,219.287c-1.131-2.266-3.2-1.888-3.923-2.747c-0.808-0.958-1.442-3.158-1.66-4.988
				c-0.021-0.18-0.15-0.311-0.307-0.318h-3.031c-0.157,0.007-0.286,0.138-0.307,0.318c-0.218,1.83-0.852,4.03-1.66,4.988
				c-0.724,0.859-2.178,0.249-3.308,2.514c-1.13,2.266,0.407,11.297,0.407,16.439c0,4.809-0.659,6.683-0.745,6.905
				c-0.008,0.02-0.012,0.035-0.016,0.056c-0.066,0.316-0.557,2.846,0.007,6.023c0.603,3.398,2.751,5.185,3.58,5.098
				c0.829-0.087,0.942-0.958,1.771-0.305c0.521,0.411,1.101,0.529,1.461,0.56c0.153,0.013,0.281-0.099,0.326-0.258
				c0.045,0.159,0.173,0.271,0.326,0.258c0.36-0.031,0.94-0.149,1.461-0.56c0.829-0.654,0.942,0.218,1.771,0.305
				c0.829,0.087,2.977-1.699,3.58-5.098c0.564-3.177,0.074-5.707,0.007-6.023c-0.005-0.021-0.009-0.036-0.016-0.056
				c-0.085-0.222-0.745-2.096-0.745-6.905C114.07,230.352,116.222,221.553,115.092,219.287z"/>
			<path style="fill:#3B5B44;" d="M105.453,211.587c0,0-0.112-1.676,0.45-1.95c0.562-0.274,3.877-0.274,4.186,0.137
				c0.309,0.41,0.619,2.003,0.028,2.258c-0.591,0.254-1.377-0.376-1.911,0C107.673,212.408,105.458,212.163,105.453,211.587z"/>
			<path style="fill:#2D3B53;" d="M101.302,235.493c0,1.212-0.042,2.236-0.106,3.096h12.98c-0.064-0.86-0.106-1.884-0.106-3.096
				c0-1.821,0.27-4.1,0.568-6.386h-13.722C101.113,231.408,101.302,233.69,101.302,235.493z"/>
		</g>
		<path style="fill:#2D3B53;" d="M186.009,66.69c-3.365-2.573-128.52-1.378-161.607-1.155c-2.696,0.018-4.919,2.097-4.967,4.793
			l-5.767,321.815c-0.109,6.106,4.81,11.115,10.917,11.115h154.451c6.014,0,10.896-4.862,10.919-10.876
			C190.172,335.392,189.352,69.246,186.009,66.69z M169.007,332.564c-0.023,1.21-1.007,2.174-2.217,2.175
			c-16.914,0.01-133.582,0.561-133.954-2.223c-0.778-5.838,1.286-70.429,1.286-70.429c1.926-0.826,133.466-6.054,134.842,0
			C170.192,267.487,169.23,321.051,169.007,332.564z M169.007,251.384c-0.023,1.21-1.007,2.174-2.217,2.175
			c-16.914,0.011-126.9,0.796-130.202-3.522c-3.577-4.678-2.465-69.13-2.465-69.13c1.926-0.826,133.466-6.054,134.842,0
			C170.192,186.307,169.23,239.871,169.007,251.384z M169.007,170.204c-0.023,1.209-1.007,2.174-2.217,2.175
			c-16.914,0.011-126.889-0.087-130.191-4.405c-3.577-4.678-2.477-68.246-2.477-68.246c1.926-0.826,133.466-6.054,134.842,0
			C170.192,105.127,169.23,158.691,169.007,170.204z"/>
		<path style="fill:#3D5F46;" d="M68.19,234.273c-0.462-1.243-3.308-4.139-3.372-7.655c-0.063-3.516-0.169-4.468-0.169-4.468
			l-2.531-0.041l-2.531-0.041c0,0-0.136,0.948-0.313,4.46c-0.178,3.512-3.116,6.315-3.618,7.542
			c-0.502,1.227-1.226,16.131,0.319,17.486c1.545,1.355,5.649,1.042,5.649,1.042s4.091,0.446,5.68-0.858
			C68.893,250.435,68.652,235.515,68.19,234.273z"/>
		<path style="fill:#112129;" d="M89.709,211.587c0,0-0.112-1.676,0.45-1.95c0.562-0.274,3.877-0.274,4.187,0.137
			c0.309,0.41,0.619,2.003,0.028,2.258c-0.591,0.254-1.377-0.376-1.911,0C91.929,212.408,89.714,212.163,89.709,211.587z"/>
		<path style="fill:#548C3E;" d="M65.305,221.822l-0.084-0.605c-0.113-0.813-0.73-1.423-1.472-1.454l-2.98-0.124
			c-0.757-0.031-1.423,0.548-1.575,1.37l-0.144,0.782c-0.071,0.382,0.193,0.74,0.545,0.74h5.16
			C65.096,222.532,65.357,222.195,65.305,221.822z"/>
		<ellipse style="fill:#F4695E;" cx="61.959" cy="243.062" rx="4.47" ry="6.341"/>
		<path style="fill:#EC1C24;" d="M67.038,272.699H47.717c-0.54,0-0.972,0.449-0.95,0.988l0.172,4.346
			c0.02,0.51,0.44,0.913,0.95,0.913h19.063c0.518,0,0.941-0.414,0.951-0.932l0.086-4.346C68,273.136,67.571,272.699,67.038,272.699z
			"/>
		
			<ellipse transform="matrix(0.7071 -0.7071 0.7071 0.7071 -201.3553 131.2527)" style="fill:#FAE8E6;" cx="57.758" cy="308.684" rx="10.992" ry="10.992"/>
		<g>
			<path style="fill:#548C3E;" d="M164.224,299.892c-0.077-1.24-3.72-1.524-4.185-2.222c-0.465-0.698-0.31-5.735-0.31-5.735h-6.975
				h-7.389c0,0,0.155,5.038-0.31,5.735c-0.465,0.698-2.919,0.775-2.997,2.015c-0.078,1.24-0.543,26.041-0.543,29.141
				c0,3.1,2.015,5.425,3.72,5.425c1.705,0,7.518,0,7.518,0s5.813,0,7.518,0c1.705,0,3.72-2.325,3.72-5.425
				C163.991,325.726,164.301,301.132,164.224,299.892z"/>
			<path style="fill:#3C4F6E;" d="M160.078,287.829h-14.572c-0.407,0-0.733,0.339-0.717,0.745l0.13,3.278
				c0.015,0.385,0.332,0.689,0.717,0.689h14.377c0.391,0,0.709-0.313,0.717-0.703l0.065-3.278
				C160.803,288.159,160.48,287.829,160.078,287.829z"/>
			<g>
				<path style="fill:#FAE8E6;" d="M141.828,309.863c-0.043,2.202-0.087,4.552-0.128,6.827l22.434-2.781
					c0.028-2.759,0.055-5.489,0.074-7.8C157.107,307.308,146.746,309.053,141.828,309.863z"/>
				<path style="fill:#FAE8E6;" d="M164.022,324.812c0.021-2.163,0.05-4.934,0.08-7.841c-6.749,1.139-17.069,2.879-22.473,3.773
					c-0.049,2.877-0.087,5.353-0.104,6.857L164.022,324.812z"/>
			</g>
		</g>
		<path style="fill:#FAE8E6;" d="M159.78,75.827c-0.005,0-0.01,0-0.015,0L49.042,74.342c-0.615-0.008-1.107-0.513-1.099-1.128
			c0.008-0.61,0.505-1.099,1.113-1.099c0.005,0,0.01,0,0.015,0L159.794,73.6c0.615,0.008,1.107,0.513,1.099,1.128
			C160.885,75.338,160.388,75.827,159.78,75.827z"/>
		<path style="fill:#FAE8E6;" d="M159.78,84.126c-0.005,0-0.01,0-0.015,0L49.042,82.641c-0.615-0.008-1.107-0.513-1.099-1.128
			c0.008-0.61,0.505-1.099,1.113-1.099c0.005,0,0.01,0,0.015,0l110.723,1.485c0.615,0.008,1.107,0.513,1.099,1.128
			C160.885,83.637,160.388,84.126,159.78,84.126z"/>
		<path style="fill:#FAE8E6;" d="M159.78,92.426c-0.005,0-0.01,0-0.015,0L49.042,90.941c-0.615-0.008-1.107-0.513-1.099-1.128
			c0.008-0.61,0.505-1.099,1.113-1.099c0.005,0,0.01,0,0.015,0l110.723,1.485c0.615,0.008,1.107,0.513,1.099,1.128
			C160.885,91.937,160.388,92.426,159.78,92.426z"/>
		<path style="fill:#1D1D15;" d="M382.844,407.02c-3.4,0.361-9.746,1.042-9.903,9.434c-0.156,8.391,6.723,10.528,10.216,10.424
			c3.492-0.104,9.694-2.815,9.434-10.424C392.33,408.845,386.805,406.6,382.844,407.02z"/>
		<path style="fill:#666666;" d="M382.816,410.807c-2.101,0.223-6.021,0.644-6.118,5.828c-0.097,5.184,4.154,6.504,6.311,6.44
			s5.989-1.739,5.828-6.44C388.676,411.934,385.263,410.547,382.816,410.807z"/>
		<path style="fill:#1D1D15;" d="M382.801,412.726c-1.442,0.153-4.133,0.442-4.2,4.001c-0.066,3.559,2.851,4.465,4.332,4.421
			s4.111-1.194,4.001-4.421C386.824,413.499,384.481,412.547,382.801,412.726z"/>
		<path style="fill:#1D1D15;" d="M245.091,407.02c3.4,0.361,9.746,1.042,9.903,9.434c0.156,8.391-6.723,10.528-10.215,10.424
			c-3.492-0.104-9.694-2.815-9.434-10.424C235.605,408.845,241.13,406.6,245.091,407.02z"/>
		<path style="fill:#666666;" d="M245.12,410.807c2.101,0.223,6.021,0.644,6.118,5.828c0.097,5.184-4.154,6.504-6.311,6.44
			c-2.157-0.064-5.989-1.739-5.828-6.44C239.26,411.934,242.673,410.547,245.12,410.807z"/>
		<path style="fill:#1D1D15;" d="M245.135,412.726c1.442,0.153,4.133,0.442,4.2,4.001c0.066,3.559-2.851,4.465-4.332,4.421
			c-1.481-0.044-4.111-1.194-4.001-4.421C241.112,413.499,243.455,412.547,245.135,412.726z"/>
		<path style="fill:#FBADA0;" d="M282.435,208.734c0,0-3.246-1.251-7.388-2.932c-0.712-0.541-6.763-4.045-7.427-4.613
			c-1.876-1.603-4.339-2.228-7.232-3.244c-2.893-1.016-3.753-0.665-3.284,0c0.469,0.664,3.127,1.759,4.767,3.205
			c1.283,1.131,3.945,7.331,4.028,7.806c0.086,0.493-0.869,1.166-1.361,1.26c-1.104,0.209-2.735,0.649-2.666,1.41
			c0.104,1.147,2.554,1.72,5.785,1.981c3.231,0.261,5.173-0.457,6.372-0.196c1.199,0.261,5.16,2.606,5.16,2.606l3.062-2.618
			L282.435,208.734z"/>
		<path style="fill:#2A2931;" d="M360.537,404.262c0,0,0.625,9.486,0,12.665c-0.625,3.179-0.625,3.179-0.625,3.179
			s-28.77,2.189-33.461,1.042c-4.691-1.147-4.639-3.648-1.408-5.525c3.231-1.876,7.662-3.69,11.519-4.17
			c9.62-1.196,14.802-8.87,14.802-8.87L360.537,404.262z"/>
		<path style="fill:#2A2931;" d="M435.944,387.716c0,0,8.371,4.506,10.733,6.724c2.362,2.218,2.362,2.218,2.362,2.218
			s-8.346,17.364-11.808,20.73c-0.775,0.753-4.456,3.76-10.815,4.092c-6.56,0.343-8.888,0.493-7.245-3.545
			c1.407-3.458,8.446-6.36,10.58-9.609c2.397-3.649-0.099-13.728-0.099-13.728L435.944,387.716z"/>
		<path style="fill:#3C4F6E;" d="M366.322,276.36c0,0-15.792,106.793-17.199,114.768c-1.407,7.974-4.081,15.339,1.095,15.167
			c4.691-0.156,11.101,0.782,12.978-5.16c1.876-5.942,26.425-99.914,26.425-99.914l-3.44-32.21l-17.444,1.407L366.322,276.36z"/>
		<path style="fill:#3C4F6E;" d="M408.07,251.186c0,0,2.026,22.047,1.56,47.377c-0.466,25.33-1.247,30.959,2.192,35.806
			c3.44,4.847,27.832,49.566,25.956,53.944c-1.876,4.378-5.942,10.632-9.694,7.349c-3.753-3.283-37.526-48.002-42.53-58.009
			c-5.004-10.007-8.443-64.107-8.443-64.107L408.07,251.186z"/>
		<path style="fill:#D34231;" d="M407.028,243.837c-7.505-11.675-8.339-13.752-8.339-13.752s11.154-15.643,5.837-23.149
			c-5.316-7.505-32.314-21.473-39.507-27.102c-7.193-5.629-21.369-6.88-21.369-6.88l-1.305-1.282
			c-0.798-0.784-2.136-0.514-2.567,0.518l-8.887,21.275c-0.173,0.413-0.162,0.88,0.029,1.285c0.192,0.406,0.472,0.998,0.828,1.75
			c-5.045,7.314-14.845,21.033-17.423,21.097c-7.169,0.179-32.803-10.036-33.637-10.14c-0.834-0.104-4.691,7.088-3.336,8.86
			c1.355,1.772,34.868,20.714,38.777,21.056c8.162,0.716,19.078-12.288,25.216-20.638c7.738,16.275,16.955,35.557,17.731,36.691
			c1.355,1.98,1.668,2.502,1.668,2.502s3.544,6.984,3.648,14.385c0.104,7.401-2.398,16.47,2.502,15.427
			c4.899-1.042,10.945-14.385,24.392-13.134C404.734,273.858,414.533,255.512,407.028,243.837z"/>
		<path style="fill:#E5616B;" d="M401.771,252.539h7.85c-0.019-0.776-0.085-1.549-0.203-2.314h-7.647v-12.15h1.601
			c-0.535-0.857-1.009-1.625-1.43-2.314h-0.171v-0.28c-1.131-1.855-1.854-3.102-2.314-3.926v4.206h-12.15v-12.15h12.15v5.331
			c0.579-0.892,1.424-2.253,2.314-3.895v-1.436h0.751c0.371-0.737,0.74-1.513,1.09-2.314h-1.842v-12.15h3.809
			c-0.232-0.791-0.575-1.534-1.054-2.21c-0.024-0.034-0.052-0.07-0.077-0.104h-2.677v-2.827c-0.694-0.62-1.469-1.263-2.314-1.924
			v4.752h-12.15v-12.15h1.372c-0.454-0.287-0.913-0.574-1.372-0.861v-0.001c-0.069-0.043-0.138-0.086-0.207-0.128
			c-0.676-0.422-1.355-0.843-2.035-1.262c-0.024-0.015-0.048-0.03-0.072-0.045v0c-0.009-0.005-0.017-0.011-0.026-0.016h-12.124
			v-7.37c-0.807-0.496-1.58-0.975-2.314-1.437v8.807h-12.15v-12.15h7.145c-0.176-0.131-0.347-0.26-0.505-0.384
			c-0.909-0.711-1.93-1.353-3.019-1.93h-3.621v-1.621c-0.765-0.291-1.54-0.558-2.314-0.803v2.424h-12.15v-4.923
			c-0.172-0.018-0.265-0.026-0.265-0.026l-1.305-1.282c-0.218-0.214-0.476-0.347-0.745-0.41v6.641h-4.208l-0.967,2.314h5.175v12.15
			h-10.25l-0.459,1.098c-0.163,0.391-0.157,0.827,0.005,1.216H341.6v12.15h-12.15v-7.034c-0.734,1.041-1.512,2.135-2.314,3.247
			v3.786h-2.781c-0.589,0.786-1.178,1.561-1.761,2.314h4.541v12.15h-12.15v-3.917c-0.254,0.137-0.476,0.214-0.66,0.218
			c-0.474,0.012-1.031-0.023-1.654-0.096v3.795h-12.15v-6.874c-0.768-0.244-1.541-0.496-2.314-0.751v7.625h-12.15v-11.902
			c-0.418-0.154-0.818-0.301-1.198-0.441c-2.393-0.882-3.974-1.471-4.171-1.496c-0.264-0.033-0.83,0.665-1.438,1.689h4.492v11.345
			c0.436,0.26,0.893,0.53,1.359,0.805h-0.001c0.276,0.162,0.558,0.328,0.844,0.495c0.038,0.022,0.074,0.044,0.112,0.066v0
			c0.964,0.563,1.978,1.15,3.029,1.753h9.121v5.103c0.776,0.424,1.549,0.843,2.314,1.255v-6.359h12.15v12.15h-0.802
			c2.073,0.958,3.596,1.556,4.261,1.614c1.965,0.172,4.09-0.452,6.269-1.614h-7.414v-12.15h12.15v8.912
			c0.776-0.635,1.548-1.313,2.314-2.024v-6.888h6.492c0.656-0.775,1.292-1.55,1.906-2.314h-8.398v-12.15h12.15v8.124
			c0.631,1.327,1.272,2.674,1.916,4.026l0,0c0.022,0.045,0.043,0.091,0.065,0.136c0.111,0.234,0.222,0.467,0.334,0.701v0
			c0.234,0.492,0.469,0.984,0.703,1.477h11.447v12.15h-5.643c0.376,0.786,0.747,1.558,1.11,2.314h4.533v9.382
			c0.508,1.04,0.963,1.968,1.359,2.768h0c0.081,0.164,0.159,0.321,0.235,0.474c0.01,0.021,0.02,0.041,0.03,0.061
			c0.164,0.328,0.315,0.63,0.453,0.904c0.014,0.028,0.029,0.057,0.043,0.085c0.063,0.124,0.123,0.242,0.179,0.354
			c0.005,0.009,0.01,0.02,0.015,0.029v0c0.075,0.147,0.146,0.284,0.21,0.408h11.94v12.15h-6.804
			c0.159,0.748,0.298,1.522,0.408,2.314h6.396v12.15h-6.615c-0.047,0.821-0.073,1.598-0.064,2.314h6.679v1.934
			c0.643-0.589,1.321-1.257,2.037-1.961c0.747-0.735,1.538-1.511,2.384-2.287h-2.106v-12.15h12.15v6.112
			c0.742-0.198,1.514-0.35,2.314-0.451v-5.661h12.15v3.88c0.808-0.439,1.581-0.951,2.314-1.525v-2.355h2.497
			c0.641-0.723,1.235-1.497,1.775-2.314h-4.272V252.539z M399.457,238.075v12.15h-12.15v-12.15H399.457z M384.993,250.225h-12.15
			v-12.15h12.15V250.225z M384.993,235.76h-12.15v-12.15h12.15V235.76z M372.843,209.146h12.15v12.15h-12.15V209.146z
			 M370.529,221.296h-12.15v-12.15h12.15V221.296z M399.457,209.146v12.15h-12.15v-12.15H399.457z M384.993,194.682v12.15h-12.15
			v-12.15H384.993z M370.529,194.682v12.15h-12.15v-12.15H370.529z M343.914,180.217h12.15v12.15h-12.15V180.217z M343.914,194.682
			h12.15v12.15h-12.15V194.682z M343.914,221.296v-12.15h12.15v12.15H343.914z M358.379,223.61h12.15v12.15h-12.15V223.61z
			 M358.379,250.225v-12.15h12.15v12.15H358.379z M372.843,264.689v-12.15h12.15v12.15H372.843z M387.307,264.689v-12.15h12.15
			v12.15H387.307z"/>
		<g>
			<rect x="370.529" y="235.76" style="fill:#ED7785;" width="2.314" height="2.314"/>
			<rect x="370.529" y="264.689" style="fill:#ED7785;" width="2.314" height="2.314"/>
			<rect x="370.529" y="221.296" style="fill:#ED7785;" width="2.314" height="2.314"/>
			<rect x="370.529" y="250.225" style="fill:#ED7785;" width="2.314" height="2.314"/>
			<rect x="384.993" y="206.832" style="fill:#ED7785;" width="2.314" height="2.314"/>
			<rect x="399.457" y="221.296" style="fill:#ED7785;" width="2.314" height="2.314"/>
			<rect x="370.529" y="206.832" style="fill:#ED7785;" width="2.314" height="2.314"/>
			<rect x="370.529" y="192.368" style="fill:#ED7785;" width="2.314" height="2.314"/>
			<path style="fill:#ED7785;" d="M384.993,192.384v2.298h2.314v-0.863C386.539,193.339,385.767,192.86,384.993,192.384z"/>
			<rect x="399.457" y="235.76" style="fill:#ED7785;" width="2.314" height="2.314"/>
			<rect x="399.457" y="250.225" style="fill:#ED7785;" width="2.314" height="2.314"/>
			<rect x="384.993" y="221.296" style="fill:#ED7785;" width="2.314" height="2.314"/>
			<rect x="399.457" y="264.689" style="fill:#ED7785;" width="2.314" height="2.314"/>
			<path style="fill:#ED7785;" d="M372.843,279.153h-2.314v2.314h2.009c0.101-0.099,0.202-0.199,0.305-0.299V279.153z"/>
			<rect x="384.993" y="235.76" style="fill:#ED7785;" width="2.314" height="2.314"/>
			<rect x="384.993" y="250.225" style="fill:#ED7785;" width="2.314" height="2.314"/>
			<rect x="384.993" y="264.689" style="fill:#ED7785;" width="2.314" height="2.314"/>
			<path style="fill:#ED7785;" d="M286.057,221.296h-0.956c0.313,0.184,0.631,0.371,0.956,0.561V221.296z"/>
			<rect x="327.136" y="221.296" style="fill:#ED7785;" width="2.314" height="2.314"/>
			<path style="fill:#ED7785;" d="M283.743,208.541v0.605h1.641C284.791,208.928,284.242,208.725,283.743,208.541z"/>
			<rect x="327.136" y="206.832" style="fill:#ED7785;" width="2.314" height="2.314"/>
			<rect x="356.064" y="177.903" style="fill:#ED7785;" width="2.314" height="2.314"/>
			<rect x="312.672" y="221.296" style="fill:#ED7785;" width="2.314" height="2.314"/>
			<rect x="298.207" y="221.296" style="fill:#ED7785;" width="2.314" height="2.314"/>
			<path style="fill:#ED7785;" d="M358.379,250.225h-0.955c0.375,0.758,0.696,1.399,0.955,1.906V250.225z"/>
			<path style="fill:#ED7785;" d="M314.986,235.76h-2.314v0.364c0.918,0.41,1.701,0.733,2.314,0.947V235.76z"/>
			<rect x="341.6" y="206.832" style="fill:#ED7785;" width="2.314" height="2.314"/>
			<rect x="399.457" y="206.832" style="fill:#ED7785;" width="2.314" height="2.314"/>
			<path style="fill:#ED7785;" d="M343.914,221.296h-0.399c0.133,0.279,0.266,0.558,0.399,0.837V221.296z"/>
			<rect x="341.6" y="192.368" style="fill:#ED7785;" width="2.314" height="2.314"/>
			<rect x="341.6" y="177.903" style="fill:#ED7785;" width="2.314" height="2.314"/>
			<rect x="356.064" y="192.368" style="fill:#ED7785;" width="2.314" height="2.314"/>
			<rect x="356.064" y="221.296" style="fill:#ED7785;" width="2.314" height="2.314"/>
			<rect x="356.064" y="206.832" style="fill:#ED7785;" width="2.314" height="2.314"/>
			<rect x="356.064" y="235.76" style="fill:#ED7785;" width="2.314" height="2.314"/>
		</g>
		<path style="fill:#FBADA0;" d="M373.883,249.466l-1.722,2.319c-0.593,0.799-1.34,1.472-2.196,1.979l-4.118,2.44
			c-0.702,0-3.911,4.713-2.307,8.524s5.134,6.518,6.378,2.407c1.244-4.112,1.344-2.708,1.344-2.708s1.404,2.507,3.008,0.201
			c1.605-2.306,3.51-3.309,3.71-6.418c0.201-3.109,1.304-5.215,1.304-5.215L373.883,249.466z"/>
		<path style="fill:#63728B;" d="M367.625,260.515c0,0-20.327,2.815-21.578,6.046c-1.251,3.231-17.825,79.118-17.2,85.268
			c0.626,6.15,1.459,12.613,12.405,16.47c10.945,3.857,25.435,7.714,24.705,16.678c-0.73,8.965-4.17,9.903-15.01,10.841
			c-10.841,0.938-99.549-1.459-107.263-1.251c-7.714,0.208-5.837,2.919-5.942,4.482c-0.104,1.564,118.937,7.714,128.632-1.147
			c9.694-8.86,4.482-19.701,0.521-24.079c-3.961-4.378-26.581-10.528-29.396-15.323c-2.814-4.795,8.548-62.648,10.737-73.906
			c2.189-11.258,1.876-13.864,7.609-15.427c5.733-1.564,11.883-1.876,14.354-3.753C371.785,264.21,373.775,260.411,367.625,260.515z
			"/>
		<path style="fill:#63728B;" d="M247.332,404.939c0.266-0.007,8.548-0.104,8.704,0.938c0.156,1.042-10.684,13.707-12.092,13.03
			c-1.407-0.678-0.469-3.909,0.365-7.349C245.143,408.119,246.447,404.961,247.332,404.939z"/>
		<polygon style="fill:#63728B;" points="249.157,399.467 247.854,406.972 253.483,406.086 254.681,398.216 		"/>
		<path style="fill:#63728B;" d="M380.603,404.939c-0.266-0.007-8.548-0.104-8.704,0.938s10.685,13.707,12.092,13.03
			c1.407-0.678,0.469-3.909-0.365-7.349C382.792,408.119,381.489,404.961,380.603,404.939z"/>
		<path style="fill:#63728B;" d="M369.606,390.346c0,0,9.382,5.316,10.163,9.303c0.782,3.987,0.834,5.29,0.834,5.29l-6.561,0.245
			c0,0-1.309-5.379-9.049-8.115L369.606,390.346z"/>
		<path style="fill:#63728B;" d="M344.901,276.36c0,0-132.072,14.072-132.072,17.512c0,3.44,6.984,52.224,9.277,52.954
			c2.293,0.73,3.648,0,3.648,0l-0.625-49.41l118.312-13.76L344.901,276.36z"/>
		<path style="fill:#63728B;" d="M331.141,351.621l-108.409-7.922c0,0,1.131,3.466,1.461,3.449
			c0.33-0.017,106.74,9.894,106.948,9.581C331.35,356.416,331.141,351.621,331.141,351.621z"/>
		<path style="fill:#63728B;" d="M234.198,293.559c0,0-0.73,53.915,0,53.591c0.73-0.324,2.502,0.741,2.814,0
			c0.313-0.741,0.6-54.529,0.6-54.529L234.198,293.559z"/>
		<path style="fill:#63728B;" d="M251.085,291.831c0,0-0.73,56.409,0,56.07c0.73-0.339,2.502,0.776,2.814,0s0.6-57.051,0.6-57.051
			L251.085,291.831z"/>
		<path style="fill:#63728B;" d="M272.867,349.187c0,0,0.888-59.424,0.157-59.069c-0.731,0.355-2.5-0.824-2.814-0.008
			c-0.315,0.816-0.76,60.101-0.76,60.101L272.867,349.187z"/>
		<path style="fill:#63728B;" d="M290.75,350.939c0,0,0.899-63.381,0.168-63.001c-0.731,0.379-2.499-0.878-2.814-0.007
			c-0.315,0.87-0.771,64.103-0.771,64.103L290.75,350.939z"/>
		<path style="fill:#63728B;" d="M308.635,351.708c0,0,0.908-67.073,0.178-66.671c-0.731,0.401-2.499-0.929-2.814-0.008
			c-0.315,0.921-0.781,67.837-0.781,67.837L308.635,351.708z"/>
		<path style="fill:#63728B;" d="M326.517,353.535c0,0,0.916-69.945,0.185-69.526c-0.731,0.419-2.499-0.968-2.814-0.008
			c-0.315,0.961-0.789,70.741-0.789,70.741L326.517,353.535z"/>
		<path style="fill:#C0272D;" d="M333.121,195.981c-0.357,0-0.666-0.265-0.713-0.628c-0.051-0.394,0.229-0.755,0.622-0.805
			c3.148-0.403,6.652-0.944,7.676-1.231c0.275-1.93,1.569-11.909,2.438-18.682c0.051-0.395,0.416-0.676,0.806-0.622
			c0.394,0.051,0.673,0.411,0.622,0.805c-0.564,4.387-2.411,18.734-2.518,19.16c-0.134,0.537-0.223,0.893-8.841,1.998
			C333.183,195.979,333.152,195.981,333.121,195.981z"/>
		<path style="fill:#C0272D;" d="M380.545,254.265c-0.131,0-0.255-0.026-0.371-0.079c-0.362-0.164-0.522-0.591-0.357-0.952
			c0.128-0.284,0.416-0.443,0.711-0.42c0.179-0.074,1.028-0.549,2.86-3.351c2.641-4.037,12.906-17.831,13.342-18.416
			c0.237-0.318,0.687-0.385,1.007-0.148c0.319,0.238,0.384,0.688,0.147,1.007c-0.107,0.143-10.675,14.344-13.292,18.344
			C382.848,252.919,381.49,254.265,380.545,254.265z M380.767,252.875c0.001,0,0.002,0.001,0.003,0.001
			C380.769,252.876,380.768,252.875,380.767,252.875z M380.765,252.874c0.001,0,0.001,0.001,0.002,0.001
			C380.766,252.875,380.766,252.874,380.765,252.874z M380.763,252.873c0,0.001,0.001,0.001,0.002,0.001
			C380.764,252.874,380.763,252.874,380.763,252.873z M380.761,252.872c0.001,0.001,0.002,0.001,0.002,0.001
			S380.762,252.873,380.761,252.872z M380.759,252.871c0.001,0.001,0.001,0.001,0.002,0.001
			C380.76,252.872,380.76,252.872,380.759,252.871z M380.757,252.87C380.757,252.871,380.757,252.871,380.757,252.87
			C380.757,252.871,380.757,252.871,380.757,252.87z M380.493,252.826L380.493,252.826L380.493,252.826z"/>
		<path style="fill:#C0272D;" d="M373.264,248.616c-0.19,0-0.378-0.077-0.517-0.23c-0.268-0.296-2.475-3.142,2.57-11.791
			c4.246-7.279,9.548-18.132,10.853-20.827c-4.304-2.295-28.622-15.333-31.999-18.637c-3.745-3.664-4.26-9.513-4.279-9.76
			c-0.033-0.396,0.262-0.742,0.658-0.775c0.406-0.036,0.743,0.262,0.776,0.658c0.005,0.055,0.497,5.566,3.852,8.848
			c3.482,3.406,31.991,18.567,32.278,18.72l0.61,0.324l-0.298,0.623c-0.063,0.131-6.323,13.179-11.208,21.551
			c-4.489,7.698-2.747,10.096-2.729,10.119c0.238,0.305,0.2,0.755-0.096,1.003C373.595,248.558,373.429,248.616,373.264,248.616z"/>
		<path style="fill:#C0272D;" d="M339.819,214.067c-0.278,0-0.543-0.163-0.661-0.435l-5.863-13.603
			c-0.157-0.365,0.011-0.788,0.376-0.946c0.363-0.156,0.788,0.011,0.945,0.376l5.863,13.603c0.157,0.365-0.011,0.788-0.376,0.946
			C340.011,214.048,339.914,214.067,339.819,214.067z"/>
		<rect x="348.977" y="210.014" style="fill:#EC1C24;" width="0" height="0"/>
		<path style="fill:none;stroke:#223249;stroke-width:3;stroke-linecap:round;stroke-miterlimit:10;" d="M377.501,279.153
			c0,0,2.583,33.464,4.514,43.564"/>
		<path style="fill:#D44332;" d="M384.711,132.646c-0.875-0.875-1.167-5.249-1.167-5.249h-5.541h-5.541c0,0-0.292,4.374-1.167,5.249
			c-0.875,0.875-5.978,1.604-4.957,7.874c0.858,5.268,4.907,18.567,6.178,22.681c0.232,0.75,0.884,1.289,1.664,1.378h7.645
			c0.78-0.089,1.432-0.629,1.664-1.378c1.272-4.114,5.321-17.412,6.178-22.681C390.689,134.25,385.586,133.521,384.711,132.646z"/>
		<path style="fill:#FAE8E6;" d="M382.908,140.155c-1.106-1.986-2.887-3.281-4.904-3.281c-2.016,0-3.798,1.295-4.904,3.281h-6.811
			c0.016,0.121,0.03,0.24,0.05,0.365c0.342,2.1,1.192,5.478,2.17,9.04h4.591c1.106,1.986,2.887,3.281,4.904,3.281
			c2.016,0,3.798-1.295,4.904-3.281h4.591c0.978-3.562,1.828-6.94,2.17-9.04c0.02-0.125,0.034-0.244,0.05-0.365H382.908z"/>
		<path style="fill:#2D3B53;" d="M384.347,124.043h-12.685c-0.604,0-1.094,0.49-1.094,1.094v1.604c0,0.604,0.49,1.093,1.094,1.093
			h12.685c0.604,0,1.094-0.49,1.094-1.093v-1.604C385.44,124.533,384.951,124.043,384.347,124.043z"/>
		<path style="fill:#548C3E;" d="M343.187,135.934c0-7.096-2.139-8.165-3.694-9.04s-2.333-6.221-2.333-6.221l-2.819-0.194
			l-2.819,0.194c0,0-0.778,5.346-2.333,6.221c-1.555,0.875-3.694,1.944-3.694,9.04c0,7.096-0.097,27.509,1.944,28.287
			c2.041,0.778,6.902,0.875,6.902,0.875s4.86-0.097,6.902-0.875C343.284,163.443,343.187,143.03,343.187,135.934z"/>
		<path style="fill:#2D3B53;" d="M337.999,118.426l-7.292,0.456c-0.395,0.022-0.683,0.381-0.618,0.771l0.175,1.048
			c0.053,0.32,0.33,0.554,0.654,0.554h7.117c0.366,0,0.663-0.297,0.663-0.663v-1.504
			C338.698,118.708,338.379,118.406,337.999,118.426z"/>
		<path style="fill:#FAE8E6;" d="M325.62,149.859h17.443c0.096-3.632,0.119-7.33,0.124-10.291l-17.69,0.333
			C325.503,142.803,325.527,146.362,325.62,149.859z"/>
		<path style="fill:#D44332;" d="M413.69,137.154c-0.775-0.774-1.033-4.647-1.033-4.647h-4.905h-4.905c0,0-0.258,3.872-1.033,4.647
			c-0.774,0.774-5.292,1.42-4.389,6.97c0.759,4.664,4.344,16.437,5.469,20.078c0.205,0.664,0.783,1.141,1.473,1.22h6.768
			c0.69-0.079,1.268-0.557,1.473-1.22c1.126-3.642,4.71-15.414,5.469-20.078C418.982,138.574,414.465,137.928,413.69,137.154z"/>
		<path style="fill:#FAE8E6;" d="M412.093,143.801c-0.979-1.758-2.556-2.904-4.341-2.904c-1.785,0-3.362,1.146-4.341,2.904h-6.03
			c0.014,0.107,0.026,0.212,0.044,0.323c0.303,1.859,1.055,4.85,1.921,8.003h4.064c0.979,1.758,2.556,2.904,4.341,2.904
			c1.785,0,3.362-1.146,4.341-2.904h4.064c0.866-3.153,1.618-6.144,1.921-8.003c0.018-0.11,0.03-0.216,0.044-0.323H412.093z"/>
		<path style="fill:#2D3B53;" d="M413.367,129.538h-11.23c-0.535,0-0.968,0.433-0.968,0.968v1.42c0,0.535,0.434,0.968,0.968,0.968
			h11.23c0.535,0,0.968-0.433,0.968-0.968v-1.42C414.335,129.971,413.902,129.538,413.367,129.538z"/>
		<path style="fill:#548C3E;" d="M361.536,142.256c0-5.763-1.737-6.632-3-7.342c-1.263-0.71-1.895-5.052-1.895-5.052l-2.289-0.158
			l-2.289,0.158c0,0-0.632,4.342-1.895,5.052c-1.263,0.711-3,1.579-3,7.342c0,5.763-0.079,22.342,1.579,22.973
			c1.658,0.632,5.605,0.71,5.605,0.71s3.947-0.079,5.605-0.71C361.615,164.598,361.536,148.019,361.536,142.256z"/>
		<path style="fill:#2D3B53;" d="M357.322,128.037l-5.922,0.37c-0.32,0.018-0.555,0.31-0.502,0.626l0.142,0.851
			c0.043,0.26,0.268,0.45,0.531,0.45h5.78c0.297,0,0.539-0.241,0.539-0.539v-1.221C357.891,128.266,357.631,128.02,357.322,128.037z
			"/>
		<path style="fill:#FAE8E6;" d="M347.269,153.565h14.166c0.078-2.95,0.097-5.953,0.101-8.358l-14.367,0.27
			C347.173,147.835,347.194,150.725,347.269,153.565z"/>
		<g>
			<path style="fill:#979799;" d="M257.058,281.24c0.114,0.002,7.015-0.434,10.309,0.241c0.221,0.045,0.102,0.837-0.357,0.831
				c-0.46-0.007-7.195,0.128-10.002-0.147C256.778,282.142,256.261,281.226,257.058,281.24z"/>
			<path style="fill:#548C3E;" d="M267.655,252.443l-9.99-0.502c-0.328-0.017-0.604,0.241-0.611,0.569l-0.572,28.173
				c-0.007,0.322,0.25,0.588,0.572,0.594l10.068,0.179c0.321,0.006,0.587-0.25,0.592-0.572l0.494-27.85
				C268.213,252.72,267.969,252.459,267.655,252.443z"/>
			<path style="fill:#979799;" d="M257.747,251.019c0.114,0.006,7.026-0.184,10.294,0.607c0.22,0.053,0.072,0.84-0.387,0.817
				c-0.459-0.023-9.99-0.502-9.99-0.502S256.952,250.976,257.747,251.019z"/>
		</g>
		<g>
			<path style="fill:#979799;" d="M240.458,281.905c0.114,0.002,7.015-0.434,10.309,0.241c0.221,0.045,0.102,0.837-0.358,0.831
				c-0.46-0.007-7.195,0.128-10.002-0.147C240.178,282.807,239.661,281.89,240.458,281.905z"/>
			<path style="fill:#FFB74D;" d="M251.055,253.107l-9.99-0.502c-0.328-0.016-0.604,0.241-0.611,0.57l-0.572,28.173
				c-0.007,0.322,0.25,0.588,0.572,0.594l10.068,0.179c0.321,0.006,0.587-0.25,0.592-0.572l0.494-27.85
				C251.613,253.385,251.368,253.123,251.055,253.107z"/>
			<path style="fill:#979799;" d="M241.147,251.683c0.114,0.006,7.026-0.184,10.294,0.607c0.22,0.053,0.072,0.84-0.387,0.817
				c-0.459-0.023-9.99-0.502-9.99-0.502S240.352,251.64,241.147,251.683z"/>
		</g>
		<path style="fill:#362B2F;" d="M308.613,156.269c0,0-4.991-3.517-2.34-5.909c2.651-2.393,5.109-1.875,5.109-1.875
			s7.954-3.621,16.037-0.194c8.083,3.427,8.019,3.815,8.083,9.441c0.065,5.626-0.296,13.487-0.296,13.487s-3.39,4.684-4.619,4.167
			c-1.229-0.517-2.651-1.746-2.651-1.746s4.009-4.721,1.293-7.243c-2.716-2.522-4.85-2.522-6.208,0.388
			c-1.358,2.91-1.293,4.139-1.293,4.139l-1.225-0.129c0,0,0.707-5.755-0.392-6.919c-1.099-1.164-3.621-2.651-3.815-4.656
			c-0.194-2.005,0.97-4.268,0.97-4.268S310.759,156.746,308.613,156.269z"/>
		<path style="fill:#F16A44;" d="M312.473,184.374c0.074,0.046,3.904-1.14,4.826-4.05c0.211-0.667,0.218-1.879-0.412-0.388
			C315.431,183.38,311.77,183.938,312.473,184.374z"/>
		<path style="fill:#362B2F;" d="M310.509,167.884c0.115-0.319,0.921-0.873,1.358,0c0.437,0.873-0.227,1.939-0.566,2.086
			C310.816,170.18,310.072,169.097,310.509,167.884z"/>
		<path style="fill:#362B2F;" d="M308.666,164.683c0,0,0.97-2.393,3.169-2.199c2.199,0.194,3.104,1.746,2.942,2.199
			c-0.162,0.453-2.037-1.196-3.363-1.132c-1.326,0.065-2.554,2.069-2.748,1.94C308.472,165.362,308.666,164.683,308.666,164.683z"/>
		<g>
			<path style="fill:#D34231;" d="M227.689,194.328l-0.77,21.454c0,0-5.359,1.912-9.772,1.572c-4.413-0.34-7.031-1.622-7.031-1.622
				l-0.533-21.405H227.689z"/>
			<path style="fill:#F7E8D5;" d="M227.689,194.328c0,0.947-4.053,1.714-9.053,1.714c-5,0-9.053-0.767-9.053-1.714
				c0-0.946,4.053-1.714,9.053-1.714C223.636,192.614,227.689,193.381,227.689,194.328z"/>
			<path style="fill:#8C8481;" d="M225.255,194.328c0,0.692-2.963,1.253-6.619,1.253c-3.656,0-6.619-0.561-6.619-1.253
				c0-0.692,2.964-1.253,6.619-1.253C222.291,193.075,225.255,193.636,225.255,194.328z"/>
			<path style="fill:#F7E8D5;" d="M223.846,194.328c0,0.545-2.333,0.986-5.21,0.986c-2.877,0-5.21-0.441-5.21-0.986
				c0-0.545,2.333-0.986,5.21-0.986C221.513,193.342,223.846,193.783,223.846,194.328z"/>
			<path style="fill:#F7E8D5;" d="M227.258,206.325l0.247-6.891c-0.813-0.496-4.025,2.488-7.571,4.745
				c-4.268,2.716-2.231-3.395-6.111-2.522c-1.571,0.354-2.935,1.286-4.002,2.271l0.144,5.761c1.271-0.338,2.596-0.071,3.461,1.549
				c1.542,2.889,3.017-0.27,9.225-3.266C225.016,206.831,226.422,206.41,227.258,206.325z"/>
		</g>
		<path style="fill:#FFB74D;" d="M479.304,193.471l-0.77,21.454c0,0-5.359,1.912-9.772,1.572c-4.413-0.34-7.031-1.622-7.031-1.622
			l-0.533-21.404H479.304z"/>
		<path style="fill:#F7E8D5;" d="M479.304,193.471c0,0.946-4.053,1.714-9.053,1.714s-9.053-0.767-9.053-1.714
			c0-0.946,4.053-1.714,9.053-1.714S479.304,192.525,479.304,193.471z"/>
		<path style="fill:#8C8481;" d="M476.87,193.471c0,0.692-2.964,1.253-6.619,1.253c-3.656,0-6.619-0.561-6.619-1.253
			c0-0.692,2.964-1.253,6.619-1.253C473.907,192.218,476.87,192.779,476.87,193.471z"/>
		<path style="fill:#F7E8D5;" d="M475.461,193.471c0,0.545-2.333,0.986-5.21,0.986c-2.877,0-5.21-0.442-5.21-0.986
			c0-0.545,2.333-0.986,5.21-0.986C473.128,192.485,475.461,192.926,475.461,193.471z"/>
		<path style="fill:#545B8C;" d="M449.893,193.148l-0.77,21.454c0,0-5.358,1.912-9.772,1.572c-4.414-0.34-7.031-1.622-7.031-1.622
			l-0.533-21.404H449.893z"/>
		<path style="fill:#F7E8D5;" d="M449.893,193.148c0,0.946-4.053,1.714-9.053,1.714s-9.053-0.767-9.053-1.714
			s4.053-1.714,9.053-1.714S449.893,192.201,449.893,193.148z"/>
		<path style="fill:#8C8481;" d="M447.459,193.148c0,0.692-2.964,1.253-6.619,1.253c-3.656,0-6.619-0.561-6.619-1.253
			c0-0.692,2.963-1.253,6.619-1.253C444.496,191.895,447.459,192.456,447.459,193.148z"/>
		<path style="fill:#F7E8D5;" d="M446.05,193.148c0,0.545-2.332,0.986-5.21,0.986c-2.877,0-5.21-0.441-5.21-0.986
			c0-0.545,2.333-0.986,5.21-0.986C443.717,192.161,446.05,192.603,446.05,193.148z"/>
		<path style="fill:#FFB74D;" d="M432.206,209.948c4.76,3.776,13.383,3.484,16.971,3.168l0.319-8.886
			c-5.947,0.104-14.394-5.411-17.624-7.691L432.206,209.948z"/>
		<path style="fill:#D44332;" d="M424.736,193.148l-0.77,21.454c0,0-5.358,1.912-9.772,1.572c-4.413-0.34-7.031-1.622-7.031-1.622
			l-0.534-21.404H424.736z"/>
		<path style="fill:#F7E8D5;" d="M424.736,193.148c0,0.946-4.053,1.714-9.053,1.714c-5,0-9.053-0.767-9.053-1.714
			s4.053-1.714,9.053-1.714C420.683,191.434,424.736,192.201,424.736,193.148z"/>
		<path style="fill:#8C8481;" d="M422.302,193.148c0,0.692-2.964,1.253-6.619,1.253c-3.656,0-6.619-0.561-6.619-1.253
			c0-0.692,2.964-1.253,6.619-1.253C419.339,191.895,422.302,192.456,422.302,193.148z"/>
		<path style="fill:#F7E8D5;" d="M420.893,193.148c0,0.545-2.333,0.986-5.21,0.986c-2.877,0-5.21-0.441-5.21-0.986
			c0-0.545,2.333-0.986,5.21-0.986C418.56,192.161,420.893,192.603,420.893,193.148z"/>
		<path style="fill:#548C3E;" d="M420.893,205.756c0,4.16-2.505,7.532-5.596,7.532c-3.09,0-5.596-3.372-5.596-7.532
			c0-4.16,2.505-7.532,5.596-7.532C418.388,198.224,420.893,201.596,420.893,205.756z"/>
		<path style="fill:#FAE8E6;" d="M249.729,267.706c0,4.359-1.92,7.893-4.289,7.893c-2.369,0-4.289-3.534-4.289-7.893
			c0-4.359,1.92-7.893,4.289-7.893C247.809,259.812,249.729,263.346,249.729,267.706z"/>
		<g>
			<path style="fill:#979799;" d="M222.77,281.905c0.114,0.002,7.015-0.434,10.309,0.241c0.222,0.045,0.102,0.837-0.357,0.831
				c-0.46-0.007-7.195,0.128-10.002-0.147C222.49,282.807,221.973,281.89,222.77,281.905z"/>
			<path style="fill:#D04332;" d="M233.367,253.107l-9.99-0.502c-0.328-0.016-0.604,0.241-0.611,0.57l-0.572,28.173
				c-0.007,0.322,0.25,0.588,0.572,0.594l10.068,0.179c0.321,0.006,0.586-0.25,0.592-0.572l0.494-27.85
				C233.925,253.385,233.681,253.123,233.367,253.107z"/>
			<path style="fill:#979799;" d="M223.459,251.683c0.114,0.006,7.026-0.184,10.294,0.607c0.22,0.053,0.072,0.84-0.387,0.817
				c-0.459-0.023-9.99-0.502-9.99-0.502S222.664,251.64,223.459,251.683z"/>
		</g>
		<ellipse style="fill:#FAE8E6;" cx="227.752" cy="267.706" rx="4.289" ry="7.893"/>
		<g>
			<path style="fill:#FFB74D;" d="M267.774,277.479l0.05-2.841c-3.864-1.151-9.085-4.025-11.072-7.279l-0.091,4.482
				C259.858,275.438,264.587,276.894,267.774,277.479z"/>
			<path style="fill:#FFB74D;" d="M267.939,268.143c-3.791-1.103-8.958-3.901-11.059-7.1l-0.09,4.421
				c3.234,3.533,7.954,4.944,11.099,5.508L267.939,268.143z"/>
		</g>
		<g>
			<path style="fill:#979799;" d="M270.824,281.24c0.114,0.002,7.015-0.434,10.309,0.241c0.221,0.045,0.102,0.837-0.357,0.831
				c-0.46-0.007-7.195,0.128-10.002-0.147C270.543,282.142,270.027,281.226,270.824,281.24z"/>
			<path style="fill:#545B8C;" d="M281.421,252.443l-9.99-0.502c-0.328-0.017-0.605,0.241-0.611,0.569l-0.572,28.173
				c-0.007,0.322,0.25,0.588,0.572,0.594l10.068,0.179c0.322,0.006,0.587-0.25,0.592-0.572l0.494-27.85
				C281.979,252.72,281.734,252.459,281.421,252.443z"/>
			<path style="fill:#979799;" d="M271.513,251.019c0.114,0.006,7.026-0.184,10.294,0.607c0.22,0.053,0.072,0.84-0.387,0.817
				c-0.459-0.023-9.99-0.502-9.99-0.502S270.718,250.976,271.513,251.019z"/>
		</g>
		<g>
			<path style="fill:#FFB74D;" d="M281.54,277.479l0.05-2.841c-3.864-1.151-9.085-4.025-11.072-7.279l-0.091,4.482
				C273.624,275.438,278.352,276.894,281.54,277.479z"/>
			<path style="fill:#FFB74D;" d="M281.705,268.143c-3.791-1.103-8.958-3.901-11.059-7.1l-0.09,4.421
				c3.234,3.533,7.954,4.944,11.099,5.508L281.705,268.143z"/>
		</g>
		<g>
			<path style="fill:#979799;" d="M284.59,281.24c0.114,0.002,7.015-0.434,10.309,0.241c0.221,0.045,0.102,0.837-0.357,0.831
				c-0.46-0.007-7.195,0.128-10.002-0.147C284.309,282.142,283.793,281.226,284.59,281.24z"/>
			<path style="fill:#FFB74D;" d="M295.187,252.443l-9.99-0.502c-0.328-0.017-0.604,0.241-0.611,0.569l-0.572,28.173
				c-0.007,0.322,0.25,0.588,0.572,0.594l10.068,0.179c0.321,0.006,0.586-0.25,0.592-0.572l0.494-27.85
				C295.745,252.72,295.5,252.459,295.187,252.443z"/>
			<path style="fill:#979799;" d="M285.279,251.019c0.114,0.006,7.026-0.184,10.294,0.607c0.22,0.053,0.072,0.84-0.387,0.817
				c-0.459-0.023-9.99-0.502-9.99-0.502S284.484,250.976,285.279,251.019z"/>
		</g>
		<g>
			<path style="fill:#D04332;" d="M295.306,277.479l0.05-2.841c-3.864-1.151-9.085-4.025-11.072-7.279l-0.091,4.482
				C287.389,275.438,292.118,276.894,295.306,277.479z"/>
			<path style="fill:#D04332;" d="M295.471,268.143c-3.791-1.103-8.958-3.901-11.059-7.1l-0.09,4.421
				c3.234,3.533,7.954,4.944,11.099,5.508L295.471,268.143z"/>
		</g>
		<g>
			<path style="fill:#979799;" d="M298.355,281.24c0.114,0.002,7.015-0.434,10.309,0.241c0.221,0.045,0.102,0.837-0.357,0.831
				c-0.46-0.007-7.195,0.128-10.002-0.147C298.075,282.142,297.559,281.226,298.355,281.24z"/>
			<path style="fill:#D04332;" d="M308.953,252.443l-9.99-0.502c-0.328-0.017-0.605,0.241-0.611,0.569l-0.572,28.173
				c-0.007,0.322,0.25,0.588,0.572,0.594l10.068,0.179c0.321,0.006,0.586-0.25,0.592-0.572l0.494-27.85
				C309.511,252.72,309.266,252.459,308.953,252.443z"/>
			<path style="fill:#979799;" d="M299.045,251.019c0.114,0.006,7.026-0.184,10.294,0.607c0.22,0.053,0.072,0.84-0.387,0.817
				c-0.459-0.023-9.99-0.502-9.99-0.502S298.25,250.976,299.045,251.019z"/>
		</g>
		<g>
			<path style="fill:#FFB74D;" d="M309.072,277.479l0.05-2.841c-3.864-1.151-9.085-4.025-11.072-7.279l-0.091,4.482
				C301.155,275.438,305.884,276.894,309.072,277.479z"/>
			<path style="fill:#FFB74D;" d="M309.237,268.143c-3.791-1.103-8.958-3.901-11.059-7.1l-0.09,4.421
				c3.234,3.533,7.954,4.944,11.099,5.508L309.237,268.143z"/>
		</g>
		<rect x="199.832" y="164.81" style="fill:#2D3B53;" width="6.053" height="239.846"/>
	</g>
</g>
<g id="DESIGNED_BY_FREEPIK">
	<g>
	
	</g>
</g>
</svg>
