<?xml version="1.0" encoding="utf-8"?>
<!-- Generator: Adobe Illustrator 27.5.0, SVG Export Plug-In . SVG Version: 6.00 Build 0)  -->
<svg version="1.1" xmlns="http://www.w3.org/2000/svg" xmlns:xlink="http://www.w3.org/1999/xlink" x="0px" y="0px"
	 viewBox="0 0 500 500" style="enable-background:new 0 0 500 500;" xml:space="preserve">
<g id="Background_Complete">
	<g>
		<rect y="382.398" style="fill:#EBEBEB;" width="500" height="0.25"/>
		<rect x="416.779" y="398.494" style="fill:#EBEBEB;" width="33.122" height="0.25"/>
		<rect x="322.527" y="401.208" style="fill:#EBEBEB;" width="8.693" height="0.25"/>
		<rect x="396.586" y="389.208" style="fill:#EBEBEB;" width="19.192" height="0.25"/>
		<rect x="52.459" y="390.888" style="fill:#EBEBEB;" width="43.193" height="0.25"/>
		<rect x="104.556" y="390.888" style="fill:#EBEBEB;" width="6.333" height="0.25"/>
		<rect x="131.471" y="395.111" style="fill:#EBEBEB;" width="93.676" height="0.25"/>
		<path style="fill:#EBEBEB;" d="M237.014,337.8H43.915c-3.147,0-5.708-2.561-5.708-5.708V60.66c0-3.147,2.561-5.708,5.708-5.708
			h193.099c3.146,0,5.707,2.561,5.707,5.708v271.432C242.721,335.239,240.16,337.8,237.014,337.8z M43.915,55.203
			c-3.01,0-5.458,2.448-5.458,5.458v271.432c0,3.01,2.448,5.458,5.458,5.458h193.099c3.009,0,5.457-2.448,5.457-5.458V60.66
			c0-3.009-2.448-5.458-5.457-5.458H43.915z"/>
		<path style="fill:#EBEBEB;" d="M453.31,337.8H260.212c-3.147,0-5.707-2.561-5.707-5.708V60.66c0-3.147,2.561-5.708,5.707-5.708
			H453.31c3.148,0,5.708,2.561,5.708,5.708v271.432C459.019,335.239,456.458,337.8,453.31,337.8z M260.212,55.203
			c-3.009,0-5.457,2.448-5.457,5.458v271.432c0,3.01,2.448,5.458,5.457,5.458H453.31c3.01,0,5.458-2.448,5.458-5.458V60.66
			c0-3.009-2.448-5.458-5.458-5.458H260.212z"/>
	</g>
	<g>
		<path style="fill:#F0F0F0;" d="M252.012,158.693c-1.623-7.831-4.726-15.112-8.97-21.578l7.726-9.332l-16.518-16.519l-9.333,7.725
			c-6.466-4.242-13.747-7.346-21.577-8.97l-1.133-12.029h-23.36l-1.134,12.029c-7.83,1.624-15.111,4.728-21.577,8.97l-9.333-7.725
			l-16.519,16.519l7.726,9.333c-4.243,6.465-7.346,13.746-8.971,21.577l-12.029,1.134v23.359l12.029,1.134
			c1.624,7.83,4.727,15.109,8.971,21.576l-7.726,9.333l16.519,16.519l9.333-7.727c6.465,4.245,13.747,7.347,21.577,8.971
			l1.134,12.029h23.36l1.133-12.028c7.83-1.623,15.111-4.727,21.577-8.972l9.333,7.727l16.518-16.519l-7.726-9.332
			c4.244-6.468,7.347-13.747,8.97-21.577l12.028-1.134v-23.359L252.012,158.693z M222.151,171.506
			c0,17.465-14.159,31.624-31.625,31.624c-17.466,0-31.624-14.159-31.624-31.624c0-17.466,14.159-31.624,31.624-31.624
			C207.992,139.882,222.151,154.041,222.151,171.506z"/>
		<path style="fill:#F0F0F0;" d="M319.012,270.806l0.814,8.643h16.785l0.813-8.642c5.627-1.168,10.859-3.397,15.504-6.446
			l6.706,5.553l11.868-11.869l-5.552-6.705c3.05-4.646,5.278-9.878,6.446-15.503l8.641-0.814v-16.784l-8.641-0.815
			c-1.167-5.627-3.396-10.859-6.446-15.503l5.552-6.706l-11.868-11.87l-6.706,5.551c-4.646-3.047-9.877-5.279-15.504-6.446
			l-0.813-8.64l-16.785-0.002l-0.814,8.643c-5.626,1.168-10.858,3.398-15.504,6.445l-6.705-5.551l-11.869,11.87l5.551,6.706
			c-3.049,4.645-5.279,9.875-6.445,15.503l-8.642,0.815v16.784l8.643,0.814c1.166,5.625,3.396,10.857,6.445,15.503l-5.551,6.705
			l11.869,11.869l6.705-5.553C308.154,267.41,313.385,269.64,319.012,270.806z M328.217,249.352
			c-12.548,0-22.721-10.173-22.721-22.722c0-12.548,10.173-22.721,22.721-22.721c12.55,0,22.722,10.173,22.722,22.721
			C350.939,239.179,340.767,249.352,328.217,249.352z"/>
		<path style="fill:#F0F0F0;" d="M229.882,388.342h19.984l0.969-10.289c6.698-1.389,12.926-4.045,18.457-7.674l7.983,6.609
			l14.13-14.129l-6.608-7.984c3.629-5.531,6.283-11.759,7.673-18.458l10.289-0.969v-19.983l-10.289-0.969
			c-1.389-6.699-4.044-12.926-7.673-18.458l6.608-7.984l-14.13-14.129l-7.983,6.608c-5.531-3.629-11.759-6.285-18.457-7.674
			l-0.969-10.289h-19.984l-0.969,10.289c-6.699,1.389-12.926,4.045-18.458,7.674l-7.983-6.608l-14.131,14.129l6.61,7.984
			c-3.63,5.531-6.285,11.759-7.674,18.458l-10.289,0.969v19.983l10.289,0.969c1.389,6.699,4.044,12.928,7.674,18.457l-6.61,7.985
			l14.131,14.129l7.983-6.609c5.533,3.629,11.76,6.285,18.458,7.674L229.882,388.342z M239.873,352.507
			c-14.941,0-27.052-12.111-27.052-27.052c0-14.939,12.111-27.051,27.052-27.051c14.94,0,27.052,12.112,27.052,27.051
			C266.925,340.397,254.814,352.507,239.873,352.507z"/>
		<g>
			<path style="fill:#F0F0F0;" d="M334.865,145.524c2.271,3.934,0.922,8.963-3.011,11.234c-3.934,2.27-8.963,0.922-11.233-3.012
				c-2.271-3.934-0.922-8.963,3.011-11.234C327.565,140.242,332.594,141.591,334.865,145.524z"/>
			<g>
				<path style="fill:#E0E0E0;" d="M325.671,148.913c0.254,0.44,0.764,0.414,1.385,0.263l-0.941-1.63
					C325.523,148.022,325.438,148.51,325.671,148.913z"/>
				<path style="fill:#E0E0E0;" d="M328.558,150.044l0.936,1.621c0.611-0.487,0.715-0.962,0.487-1.356
					C329.722,149.86,329.197,149.882,328.558,150.044z"/>
				<path style="fill:#E0E0E0;" d="M324.233,143.556c-3.358,1.938-4.509,6.231-2.57,9.589c1.938,3.358,6.231,4.508,9.589,2.57
					c3.358-1.938,4.509-6.231,2.57-9.589C331.884,142.769,327.591,141.618,324.233,143.556z M330.07,152.663l0.592,1.026
					l-0.751,0.434l-0.587-1.017c-0.93,0.463-1.969,0.672-2.683,0.535l-0.122-1.163c0.66,0.107,1.501-0.024,2.234-0.361l-1.057-1.832
					c-1.159,0.339-2.44,0.639-3.175-0.635c-0.539-0.934-0.332-2.14,1.018-3.102l-0.597-1.035l0.751-0.434l0.587,1.017
					c0.699-0.354,1.502-0.549,2.182-0.515l0.158,1.142c-0.65-0.004-1.252,0.137-1.769,0.362l1.068,1.85
					c1.159-0.34,2.453-0.659,3.188,0.615C331.645,150.484,331.423,151.687,330.07,152.663z"/>
			</g>
		</g>
		<g>
			<path style="fill:#F0F0F0;" d="M122.707,360.622c-2.256,7.04-9.792,10.917-16.832,8.661c-7.04-2.256-10.918-9.792-8.661-16.832
				c2.256-7.04,9.792-10.918,16.832-8.661C121.085,346.047,124.963,353.583,122.707,360.622z"/>
			<g>
				<path style="fill:#E0E0E0;" d="M108.565,353.252c-0.252,0.787,0.337,1.373,1.199,1.956l0.935-2.918
					C109.476,352.098,108.796,352.53,108.565,353.252z"/>
				<path style="fill:#E0E0E0;" d="M110.361,357.967l-0.93,2.901c1.255,0.203,1.941-0.191,2.167-0.896
					C111.855,359.168,111.255,358.56,110.361,357.967z"/>
				<path style="fill:#E0E0E0;" d="M113.447,345.657c-6.009-1.926-12.441,1.384-14.367,7.393
					c-1.926,6.009,1.384,12.441,7.393,14.367c6.009,1.926,12.441-1.384,14.367-7.393
					C122.766,354.015,119.456,347.583,113.447,345.657z M108.858,362.655l-0.588,1.836l-1.344-0.431l0.583-1.819
					c-1.575-0.614-2.964-1.637-3.58-2.648l1.268-1.419c0.593,0.913,1.671,1.783,2.879,2.297l1.051-3.278
					c-1.677-1.026-3.439-2.241-2.709-4.52c0.536-1.672,2.216-2.742,4.852-2.168l0.594-1.852l1.344,0.431l-0.583,1.819
					c1.192,0.455,2.306,1.209,3.007,2.067l-1.203,1.44c-0.706-0.787-1.534-1.36-2.372-1.736l-1.061,3.311
					c1.678,1.026,3.477,2.235,2.747,4.514C113.207,362.169,111.516,363.217,108.858,362.655z"/>
			</g>
		</g>
		<g>
			<path style="fill:#F0F0F0;" d="M436.266,277.027c3.786,6.349,1.709,14.566-4.64,18.352c-6.349,3.786-14.566,1.709-18.352-4.641
				c-3.786-6.349-1.709-14.566,4.64-18.352C424.263,268.6,432.479,270.678,436.266,277.027z"/>
			<g>
				<path style="fill:#E0E0E0;" d="M421.382,282.756c0.423,0.71,1.252,0.656,2.26,0.396l-1.569-2.631
					C421.121,281.309,420.994,282.105,421.382,282.756z"/>
				<path style="fill:#E0E0E0;" d="M426.107,284.528l1.56,2.616c0.982-0.806,1.141-1.582,0.761-2.218
					C427.996,284.203,427.143,284.251,426.107,284.528z"/>
				<path style="fill:#E0E0E0;" d="M418.918,274.07c-5.419,3.232-7.193,10.245-3.961,15.664c3.232,5.42,10.245,7.193,15.664,3.961
					c5.42-3.232,7.193-10.245,3.961-15.664C431.35,272.612,424.337,270.838,418.918,274.07z M428.628,288.756l0.988,1.656
					l-1.212,0.723l-0.979-1.641c-1.502,0.775-3.189,1.14-4.354,0.933l-0.225-1.89c1.077,0.159,2.442-0.073,3.627-0.64l-1.763-2.957
					c-1.879,0.579-3.956,1.096-5.182-0.959c-0.899-1.508-0.59-3.476,1.584-5.073l-0.996-1.671l1.212-0.723l0.979,1.641
					c1.129-0.593,2.432-0.929,3.539-0.888l0.284,1.855c-1.057,0.009-2.035,0.251-2.871,0.63l1.781,2.986
					c1.879-0.579,3.976-1.129,5.202,0.926C431.141,285.174,430.808,287.136,428.628,288.756z"/>
			</g>
		</g>
		<g>
			<path style="fill:#F0F0F0;" d="M295.519,114.561c-4.443,5.909-12.834,7.097-18.743,2.654c-5.908-4.443-7.097-12.834-2.654-18.743
				c4.443-5.908,12.834-7.097,18.743-2.654C298.774,100.261,299.962,108.652,295.519,114.561z"/>
			<g>
				<path style="fill:#E0E0E0;" d="M284.581,102.955c-0.497,0.66-0.133,1.407,0.49,2.242l1.841-2.449
					C285.821,102.165,285.036,102.35,284.581,102.955z"/>
				<path style="fill:#E0E0E0;" d="M284.73,107.998l-1.831,2.435c1.118,0.604,1.896,0.457,2.341-0.135
					C285.747,109.624,285.379,108.853,284.73,107.998z"/>
				<path style="fill:#E0E0E0;" d="M291.687,97.385c-5.043-3.792-12.206-2.778-15.998,2.265c-3.792,5.043-2.778,12.206,2.265,15.998
					c5.044,3.792,12.206,2.778,15.998-2.265C297.745,108.34,296.731,101.177,291.687,97.385z M281.771,111.933l-1.159,1.541
					l-1.128-0.848l1.148-1.527c-1.286-1.097-2.262-2.52-2.512-3.677l1.664-0.924c0.26,1.057,0.992,2.232,1.966,3.115l2.069-2.751
					c-1.248-1.52-2.513-3.246-1.074-5.159c1.055-1.403,2.994-1.862,5.295-0.454l1.169-1.554l1.128,0.848l-1.148,1.527
					c0.976,0.821,1.781,1.899,2.162,2.94l-1.609,0.965c-0.409-0.975-1.003-1.788-1.67-2.419l-2.09,2.779
					c1.248,1.52,2.55,3.253,1.112,5.165C286.039,112.902,284.097,113.337,281.771,111.933z"/>
			</g>
		</g>
		<g>
			<path style="fill:#F0F0F0;" d="M93.045,156.861c4.384,2.321,6.056,7.757,3.734,12.14c-2.321,4.384-7.756,6.056-12.14,3.734
				c-4.384-2.321-6.056-7.757-3.735-12.14C83.226,156.212,88.662,154.54,93.045,156.861z"/>
			<g>
				<path style="fill:#E0E0E0;" d="M86.508,165.333c0.49,0.26,0.947-0.06,1.434-0.561l-1.817-0.962
					C85.853,164.595,86.058,165.095,86.508,165.333z"/>
				<path style="fill:#E0E0E0;" d="M89.834,164.703l1.807,0.957c0.282-0.805,0.103-1.305-0.336-1.537
					C90.804,163.858,90.332,164.182,89.834,164.703z"/>
				<path style="fill:#E0E0E0;" d="M82.067,161.211c-1.981,3.742-0.554,8.381,3.188,10.362c3.742,1.982,8.381,0.554,10.363-3.188
					c1.981-3.742,0.554-8.381-3.188-10.362C88.688,156.042,84.049,157.469,82.067,161.211z M92.753,166.249l1.144,0.605
					l-0.443,0.837l-1.133-0.6c-0.591,0.968-1.431,1.765-2.172,2.052l-0.788-1.005c0.673-0.284,1.374-0.893,1.857-1.631l-2.041-1.081
					c-0.875,0.987-1.886,2.007-3.305,1.256c-1.041-0.551-1.549-1.787-0.859-3.461l-1.153-0.611l0.443-0.837l1.133,0.6
					c0.441-0.734,1.071-1.38,1.72-1.743l0.809,0.965c-0.603,0.373-1.079,0.853-1.427,1.362l2.062,1.092
					c0.875-0.987,1.886-2.033,3.306-1.282C92.946,163.319,93.439,164.56,92.753,166.249z"/>
			</g>
		</g>
		<g>
			<path style="fill:#F0F0F0;" d="M253.997,237.614c4.176,2.211,5.768,7.388,3.557,11.564c-2.211,4.175-7.388,5.768-11.564,3.557
				c-4.176-2.211-5.768-7.388-3.557-11.564C244.644,236.996,249.821,235.403,253.997,237.614z"/>
			<g>
				<path style="fill:#E0E0E0;" d="M247.769,245.684c0.467,0.247,0.902-0.058,1.366-0.534l-1.731-0.916
					C247.146,244.98,247.341,245.457,247.769,245.684z"/>
				<path style="fill:#E0E0E0;" d="M250.938,245.083l1.721,0.911c0.269-0.767,0.098-1.243-0.32-1.464
					C251.862,244.278,251.412,244.588,250.938,245.083z"/>
				<path style="fill:#E0E0E0;" d="M243.54,241.758c-1.887,3.564-0.528,7.983,3.036,9.87c3.564,1.887,7.983,0.528,9.87-3.036
					c1.887-3.564,0.528-7.983-3.036-9.87C249.846,236.834,245.427,238.194,243.54,241.758z M253.718,246.556l1.089,0.577
					l-0.422,0.797l-1.079-0.571c-0.563,0.922-1.363,1.681-2.068,1.955l-0.75-0.958c0.641-0.27,1.309-0.851,1.769-1.553l-1.944-1.03
					c-0.834,0.94-1.797,1.912-3.149,1.196c-0.992-0.525-1.476-1.703-0.818-3.297l-1.099-0.582l0.422-0.797l1.079,0.571
					c0.42-0.699,1.02-1.315,1.638-1.66l0.771,0.919c-0.575,0.356-1.028,0.813-1.359,1.297l1.964,1.04
					c0.834-0.94,1.797-1.936,3.149-1.221C253.902,243.765,254.371,244.947,253.718,246.556z"/>
			</g>
		</g>
		<g>
			<path style="fill:#F0F0F0;" d="M380.494,348.045c-3.287,10.257-14.267,15.907-24.524,12.62
				c-10.257-3.287-15.907-14.267-12.619-24.525c3.287-10.257,14.267-15.907,24.524-12.62
				C378.131,326.808,383.781,337.789,380.494,348.045z"/>
			<g>
				<path style="fill:#E0E0E0;" d="M359.888,337.306c-0.368,1.147,0.491,2,1.746,2.851l1.362-4.251
					C361.217,335.626,360.225,336.255,359.888,337.306z"/>
				<path style="fill:#E0E0E0;" d="M362.505,344.176l-1.355,4.227c1.828,0.296,2.828-0.278,3.157-1.306
					C364.683,345.927,363.808,345.041,362.505,344.176z"/>
				<path style="fill:#E0E0E0;" d="M367.003,326.241c-8.755-2.806-18.127,2.016-20.933,10.771
					c-2.806,8.755,2.017,18.127,10.772,20.933c8.755,2.806,18.127-2.016,20.933-10.772
					C380.58,338.419,375.758,329.047,367.003,326.241z M360.316,351.006l-0.858,2.676l-1.958-0.628l0.85-2.651
					c-2.295-0.894-4.319-2.385-5.216-3.858l1.848-2.068c0.864,1.33,2.434,2.597,4.195,3.346l1.531-4.776
					c-2.444-1.495-5.011-3.266-3.947-6.586c0.781-2.436,3.229-3.995,7.07-3.159l0.865-2.699l1.958,0.628l-0.85,2.651
					c1.736,0.663,3.36,1.762,4.382,3.011l-1.753,2.098c-1.029-1.147-2.235-1.981-3.456-2.53l-1.546,4.824
					c2.444,1.494,5.066,3.256,4.002,6.577C366.653,350.299,364.189,351.827,360.316,351.006z"/>
			</g>
		</g>
		<g>
			<path style="fill:#F0F0F0;" d="M89.576,281.181c-9.44,5.188-21.297,1.741-26.484-7.699c-5.187-9.439-1.741-21.297,7.699-26.484
				c9.439-5.188,21.297-1.741,26.484,7.699C102.462,264.136,99.015,275.994,89.576,281.181z"/>
			<g>
				<path style="fill:#E0E0E0;" d="M81.997,259.216c-1.055,0.58-1.019,1.79-0.692,3.271l3.912-2.15
					C84.118,258.909,82.965,258.684,81.997,259.216z"/>
				<path style="fill:#E0E0E0;" d="M79.174,266.004l-3.89,2.138c1.124,1.472,2.245,1.742,3.191,1.223
					C79.552,268.772,79.525,267.527,79.174,266.004z"/>
				<path style="fill:#E0E0E0;" d="M94.771,256.073c-4.428-8.057-14.549-10.999-22.606-6.571
					c-8.057,4.428-10.999,14.549-6.571,22.606c4.428,8.057,14.549,10.999,22.606,6.571C96.257,274.251,99.199,264.13,94.771,256.073
					z M72.889,269.458l-2.462,1.353l-0.99-1.802l2.44-1.341c-1.051-2.227-1.496-4.702-1.135-6.388l2.763-0.231
					c-0.287,1.56-0.018,3.559,0.746,5.314l4.396-2.416c-0.747-2.766-1.394-5.817,1.662-7.496c2.242-1.232,5.091-0.681,7.305,2.567
					l2.484-1.365l0.99,1.802l-2.439,1.341c0.805,1.675,1.228,3.59,1.111,5.199l-2.715,0.319c0.041-1.54-0.261-2.975-0.77-4.213
					l-4.44,2.44c0.747,2.766,1.44,5.848-1.616,7.527C77.976,273.301,75.136,272.716,72.889,269.458z"/>
			</g>
		</g>
	</g>
</g>
<g id="Background_Simple" style="display:none;">
	<g style="display:inline;">
		<path style="fill:#407BFF;" d="M86.914,133.543c27.919-59.449,127.059-51.062,165.317-9.255
			c38.258,41.806,50.696,68.599,85.208,52.983c34.512-15.616,78.518-11.44,81.043,38.164s-37.913,108.263-102.09,125.615
			c-64.177,17.352-64.161,78.759-149.1,66.368c-46.31-6.756-47.365-56.86-40.825-98.301S54.536,202.486,86.914,133.543z"/>
		<path style="opacity:0.9;fill:#FFFFFF;" d="M86.914,133.543c27.919-59.449,127.059-51.062,165.317-9.255
			c38.258,41.806,50.696,68.599,85.208,52.983c34.512-15.616,78.518-11.44,81.043,38.164s-37.913,108.263-102.09,125.615
			c-64.177,17.352-64.161,78.759-149.1,66.368c-46.31-6.756-47.365-56.86-40.825-98.301S54.536,202.486,86.914,133.543z"/>
	</g>
</g>
<g id="Shadow_1_">
	<ellipse id="_x3C_Path_x3E__359_" style="fill:#F5F5F5;" cx="250" cy="416.238" rx="193.889" ry="11.323"/>
</g>
<g id="Device">
	<g>
		<path style="fill:#263238;" d="M327.155,417.04H184.846c-5.351,0-9.688-4.338-9.688-9.688V135.917
			c0-5.351,4.338-9.688,9.688-9.688h142.308c5.351,0,9.688,4.338,9.688,9.688v271.435
			C336.843,412.703,332.505,417.04,327.155,417.04z"/>
		<path style="opacity:0.4;fill:#FFFFFF;" d="M327.155,417.04H184.846c-5.351,0-9.688-4.338-9.688-9.688V135.917
			c0-5.351,4.338-9.688,9.688-9.688h142.308c5.351,0,9.688,4.338,9.688,9.688v271.435
			C336.843,412.703,332.505,417.04,327.155,417.04z"/>
		<g>
			<path style="opacity:0.6;enable-background:new    ;" d="M255.975,132.678c0,1.143-0.926,2.069-2.069,2.069
				c-1.143,0-2.069-0.926-2.069-2.069c0-1.143,0.926-2.069,2.069-2.069C255.049,130.609,255.975,131.535,255.975,132.678z"/>
			<path style="opacity:0.6;enable-background:new    ;" d="M260.164,132.678c0,0.732-0.594,1.326-1.326,1.326
				c-0.732,0-1.326-0.593-1.326-1.326c0-0.732,0.594-1.326,1.326-1.326C259.57,131.352,260.164,131.945,260.164,132.678z"/>
		</g>
		<g>
			<path style="fill:#263238;" d="M331.386,135.971v270.807c0,2.227-1.79,3.958-4.018,3.958H184.204
				c-2.047,0-3.589-1.585-3.589-3.632V135.645c0-1.773,1.302-3.324,3.076-3.324h35.791c1.011,0,1.928,0.66,2.304,1.61l1.482,3.649
				c0.377,0.942,1.294,1.594,2.305,1.594h60.934c1.011,0,1.927-0.625,2.305-1.568l1.482-3.667c0.377-0.951,1.294-1.619,2.304-1.619
				h35.277C329.827,132.321,331.386,134.017,331.386,135.971z"/>
			<rect x="180.614" y="149.24" style="opacity:0.3;fill:#FFFFFF;enable-background:new    ;" width="150.772" height="243.545"/>
			<rect x="184.335" y="180.68" style="fill:#407BFF;enable-background:new    ;" width="143.332" height="208.657"/>
			<rect x="184.335" y="180.68" style="opacity:0.7;fill:#FFFFFF;enable-background:new    ;" width="143.332" height="208.657"/>
			<g>
				<path style="fill:#FFFFFF;" d="M257.188,404.12h-2.374c-1.251,0-2.268-1.018-2.268-2.268v-2.374
					c0-1.251,1.018-2.268,2.268-2.268h2.374c1.251,0,2.269,1.018,2.269,2.268v2.374C259.456,403.103,258.439,404.12,257.188,404.12z
					 M254.813,398.141c-0.737,0-1.336,0.6-1.336,1.337v2.374c0,0.737,0.6,1.337,1.336,1.337h2.374c0.737,0,1.337-0.6,1.337-1.337
					v-2.374c0-0.737-0.6-1.337-1.337-1.337H254.813z"/>
			</g>
			<g>
				<rect x="184.335" y="154.014" style="fill:#407BFF;enable-background:new    ;" width="143.332" height="24.563"/>
				<g>
					<path style="fill:#FFFFFF;" d="M320.746,162.104c0,0.607-0.492,1.099-1.099,1.099c-0.607,0-1.099-0.492-1.099-1.099
						c0-0.607,0.492-1.099,1.099-1.099C320.254,161.005,320.746,161.497,320.746,162.104z"/>
					<path style="fill:#FFFFFF;" d="M320.746,166.295c0,0.607-0.492,1.099-1.099,1.099c-0.607,0-1.099-0.492-1.099-1.099
						c0-0.607,0.492-1.099,1.099-1.099C320.254,165.196,320.746,165.688,320.746,166.295z"/>
					<path style="fill:#FFFFFF;" d="M320.746,170.486c0,0.607-0.492,1.099-1.099,1.099c-0.607,0-1.099-0.492-1.099-1.099
						c0-0.607,0.492-1.099,1.099-1.099C320.254,169.387,320.746,169.879,320.746,170.486z"/>
				</g>
			</g>
			<g>
				<path style="fill:#FFFFFF;" d="M230.549,170.121l0.714-1.604c0.89,0.715,2.304,1.223,3.669,1.223
					c1.731,0,2.462-0.62,2.462-1.445c0-2.399-6.608-0.826-6.608-4.956c0-1.795,1.429-3.32,4.479-3.32
					c1.335,0,2.732,0.349,3.701,0.985l-0.651,1.604c-1.001-0.587-2.097-0.874-3.065-0.874c-1.716,0-2.415,0.667-2.415,1.509
					c0,2.367,6.592,0.826,6.592,4.908c0,1.779-1.446,3.304-4.496,3.304C233.202,171.455,231.47,170.915,230.549,170.121z"/>
				<path style="fill:#FFFFFF;" d="M248.685,168.723h-5.56l-1.096,2.573H239.9l5.004-11.119h2.033l5.02,11.119h-2.161
					L248.685,168.723z M248.001,167.103l-2.097-4.861l-2.081,4.861H248.001z"/>
				<path style="fill:#FFFFFF;" d="M253.366,160.177h2.065v9.372h5.813v1.747h-7.878V160.177z"/>
				<path style="fill:#FFFFFF;" d="M271.215,169.565v1.732h-8.339v-11.119h8.117v1.732h-6.052v2.891h5.369v1.7h-5.369v3.065H271.215
					z"/>
				<path style="fill:#FFFFFF;" d="M272.577,170.121l0.715-1.604c0.889,0.715,2.303,1.223,3.669,1.223
					c1.732,0,2.462-0.62,2.462-1.445c0-2.399-6.608-0.826-6.608-4.956c0-1.795,1.429-3.32,4.479-3.32
					c1.335,0,2.732,0.349,3.701,0.985l-0.651,1.604c-1.001-0.587-2.097-0.874-3.065-0.874c-1.716,0-2.415,0.667-2.415,1.509
					c0,2.367,6.592,0.826,6.592,4.908c0,1.779-1.446,3.304-4.496,3.304C275.229,171.455,273.498,170.915,272.577,170.121z"/>
			</g>
			<g>
				<path style="fill:#407BFF;enable-background:new    ;" d="M320.938,283.229H191.063c-2.427,0-4.395,1.968-4.395,4.395v101.713
					h138.665V287.624C325.333,285.197,323.365,283.229,320.938,283.229z"/>
				<path style="opacity:0.2;fill:#FFFFFF;enable-background:new    ;" d="M320.938,283.229H191.063
					c-2.427,0-4.395,1.968-4.395,4.395v101.713h138.665V287.624C325.333,285.197,323.365,283.229,320.938,283.229z"/>
			</g>
			<g>
				<g>
					<path style="fill:#FFFFFF;" d="M256,384.669c-0.075,0-0.15-0.019-0.218-0.055l-5.895-3.126
						c-0.227-0.12-0.313-0.402-0.193-0.629c0.121-0.229,0.401-0.315,0.63-0.193l5.676,3.01l5.676-3.01
						c0.229-0.121,0.509-0.034,0.63,0.193c0.12,0.227,0.034,0.509-0.193,0.629l-5.895,3.126
						C256.15,384.65,256.076,384.669,256,384.669z"/>
				</g>
				<g>
					<path style="fill:#FFFFFF;" d="M256,380.941c-0.075,0-0.15-0.018-0.218-0.055l-5.895-3.126
						c-0.227-0.12-0.313-0.402-0.193-0.629c0.121-0.229,0.401-0.315,0.63-0.193l5.676,3.01l5.676-3.01
						c0.229-0.121,0.509-0.034,0.63,0.193c0.12,0.227,0.034,0.509-0.193,0.629l-5.895,3.126
						C256.15,380.923,256.076,380.941,256,380.941z"/>
				</g>
			</g>
			<g>
				<g>
					
						<rect x="197.23" y="140.752" transform="matrix(-1 -1.224647e-16 1.224647e-16 -1 396.3217 283.9863)" style="opacity:0.6;fill:#FFFFFF;enable-background:new    ;" width="1.862" height="2.483"/>
					
						<rect x="194.195" y="139.923" transform="matrix(-1 -1.224647e-16 1.224647e-16 -1 390.2516 283.158)" style="opacity:0.6;fill:#FFFFFF;enable-background:new    ;" width="1.862" height="3.311"/>
					
						<rect x="191.16" y="139.095" transform="matrix(-1 -1.224647e-16 1.224647e-16 -1 384.1815 282.3299)" style="opacity:0.6;fill:#FFFFFF;enable-background:new    ;" width="1.862" height="4.139"/>
					
						<rect x="188.124" y="138.267" transform="matrix(-1 -1.224647e-16 1.224647e-16 -1 378.1115 281.5016)" style="opacity:0.6;fill:#FFFFFF;enable-background:new    ;" width="1.862" height="4.967"/>
				</g>
				<g>
					<rect x="313.219" y="139.846" style="opacity:0.6;fill:#FFFFFF;enable-background:new    ;" width="1.104" height="2.483"/>
					
						<rect x="315.082" y="138.94" transform="matrix(-1 -1.224647e-16 1.224647e-16 -1 638.9577 282.1742)" style="opacity:0.6;fill:#FFFFFF;enable-background:new    ;" width="8.795" height="4.295"/>
				</g>
			</g>
			<g>
				<g>
					<g style="opacity:0.4;">
						<path style="fill:#FFFFFF;" d="M205.125,317.107c-1.122,0-2.035,0.913-2.035,2.036c0,1.122,0.913,2.035,2.035,2.035
							s2.035-0.913,2.035-2.035C207.161,318.02,206.248,317.107,205.125,317.107z M205.125,320.2c-0.583,0-1.057-0.475-1.057-1.057
							c0-0.583,0.475-1.058,1.057-1.058c0.583,0,1.058,0.474,1.058,1.058C206.183,319.725,205.708,320.2,205.125,320.2z"/>
						<path style="fill:#FFFFFF;" d="M221.544,317.107c-1.122,0-2.035,0.913-2.035,2.036c0,1.122,0.913,2.035,2.035,2.035
							s2.035-0.913,2.035-2.035C223.579,318.02,222.666,317.107,221.544,317.107z M221.544,320.2c-0.583,0-1.057-0.475-1.057-1.057
							c0-0.583,0.474-1.058,1.057-1.058c0.583,0,1.057,0.474,1.057,1.058C222.601,319.725,222.127,320.2,221.544,320.2z"/>
						<path style="fill:#FFFFFF;" d="M222.416,316.819c0.27,0,0.489-0.219,0.489-0.489c0-0.27-0.219-0.489-0.489-0.489h-18.164
							c-0.27,0-0.489,0.219-0.489,0.489c0,0.27,0.219,0.489,0.489,0.489H222.416z"/>
						<path style="fill:#FFFFFF;" d="M227.044,301.534h-4.051h-19.317c-0.147,0-0.286,0.066-0.379,0.18
							c-0.093,0.114-0.13,0.263-0.101,0.407l2.61,12.807c0.046,0.228,0.247,0.391,0.479,0.391h14.096
							c0.232,0,0.433-0.164,0.479-0.391l2.531-12.416h3.652c0.27,0,0.489-0.219,0.489-0.489
							C227.533,301.753,227.314,301.534,227.044,301.534z M221.723,305.803h-4.858l0.168-3.291h5.36L221.723,305.803z
							 M220.853,310.072h-4.206l0.168-3.291h4.708L220.853,310.072z M211.001,310.072l-0.168-3.291h5.004l-0.168,3.291H211.001z
							 M215.618,311.05l-0.168,3.291h-4.231l-0.168-3.291H215.618z M205.145,306.781h4.708l0.168,3.291h-4.206L205.145,306.781z
							 M210.783,305.803l-0.168-3.291h5.44l-0.168,3.291H210.783z M209.635,302.512l0.168,3.291h-4.858l-0.671-3.291H209.635z
							 M206.015,311.05h4.057l0.168,3.291h-3.554L206.015,311.05z M219.983,314.341h-3.554l0.168-3.291h4.057L219.983,314.341z"/>
					</g>
					<path style="opacity:0.3;" d="M230.671,329.503h-34.72c-0.987,0-1.787-0.8-1.787-1.787v-34.72c0-0.987,0.8-1.787,1.787-1.787
						h34.72c0.987,0,1.787,0.8,1.787,1.787v34.72C232.459,328.703,231.658,329.503,230.671,329.503z"/>
					<g>
						<path style="fill:#FFFFFF;" d="M202.757,311.987l0.336-0.755c0.419,0.337,1.084,0.576,1.727,0.576
							c0.815,0,1.159-0.292,1.159-0.681c0-1.129-3.11-0.389-3.11-2.333c0-0.845,0.673-1.563,2.108-1.563
							c0.628,0,1.286,0.165,1.742,0.464l-0.307,0.755c-0.471-0.276-0.987-0.411-1.443-0.411c-0.807,0-1.136,0.314-1.136,0.71
							c0,1.114,3.103,0.389,3.103,2.31c0,0.838-0.681,1.556-2.116,1.556C204.006,312.616,203.191,312.361,202.757,311.987z"/>
						<path style="fill:#FFFFFF;" d="M207.523,309.924c0-1.548,1.196-2.691,2.819-2.691c1.622,0,2.818,1.137,2.818,2.691
							c0,1.556-1.196,2.692-2.818,2.692C208.719,312.616,207.523,311.472,207.523,309.924z M212.181,309.924
							c0-1.069-0.785-1.839-1.839-1.839s-1.839,0.77-1.839,1.839c0,1.069,0.785,1.84,1.839,1.84S212.181,310.993,212.181,309.924z"
							/>
						<path style="fill:#FFFFFF;" d="M214.186,307.308h0.972v4.411h2.736v0.822h-3.708V307.308z"/>
						<path style="fill:#FFFFFF;" d="M218.66,307.308h2.288c1.697,0,2.856,1.047,2.856,2.616c0,1.57-1.159,2.617-2.856,2.617h-2.288
							V307.308z M220.903,311.719c1.167,0,1.921-0.711,1.921-1.795c0-1.084-0.755-1.794-1.921-1.794h-1.271v3.589H220.903z"/>
					</g>
				</g>
				<g>
					<g style="opacity:0.4;">
						<path style="fill:#FFFFFF;" d="M247.448,317.107c-1.122,0-2.035,0.913-2.035,2.036c0,1.122,0.913,2.035,2.035,2.035
							c1.122,0,2.035-0.913,2.035-2.035C249.483,318.02,248.57,317.107,247.448,317.107z M247.448,320.2
							c-0.583,0-1.057-0.475-1.057-1.057c0-0.583,0.475-1.058,1.057-1.058c0.583,0,1.057,0.474,1.057,1.058
							C248.505,319.725,248.031,320.2,247.448,320.2z"/>
						<path style="fill:#FFFFFF;" d="M263.866,317.107c-1.122,0-2.035,0.913-2.035,2.036c0,1.122,0.913,2.035,2.035,2.035
							c1.122,0,2.035-0.913,2.035-2.035C265.901,318.02,264.988,317.107,263.866,317.107z M263.866,320.2
							c-0.583,0-1.057-0.475-1.057-1.057c0-0.583,0.474-1.058,1.057-1.058s1.057,0.474,1.057,1.058
							C264.923,319.725,264.449,320.2,263.866,320.2z"/>
						<path style="fill:#FFFFFF;" d="M264.739,316.819c0.27,0,0.489-0.219,0.489-0.489c0-0.27-0.219-0.489-0.489-0.489h-18.164
							c-0.27,0-0.489,0.219-0.489,0.489c0,0.27,0.219,0.489,0.489,0.489H264.739z"/>
						<path style="fill:#FFFFFF;" d="M269.366,301.534h-4.051h-19.317c-0.147,0-0.286,0.066-0.379,0.18
							c-0.093,0.114-0.13,0.263-0.101,0.407l2.61,12.807c0.047,0.228,0.247,0.391,0.479,0.391h14.096
							c0.233,0,0.433-0.164,0.479-0.391l2.531-12.416h3.651c0.27,0,0.489-0.219,0.489-0.489
							C269.855,301.753,269.636,301.534,269.366,301.534z M264.046,305.803h-4.858l0.168-3.291h5.36L264.046,305.803z
							 M263.176,310.072h-4.206l0.168-3.291h4.708L263.176,310.072z M253.323,310.072l-0.168-3.291h5.004l-0.168,3.291H253.323z
							 M257.94,311.05l-0.168,3.291h-4.231l-0.168-3.291H257.94z M247.467,306.781h4.708l0.168,3.291h-4.206L247.467,306.781z
							 M253.105,305.803l-0.168-3.291h5.44l-0.168,3.291H253.105z M251.957,302.512l0.168,3.291h-4.858l-0.671-3.291H251.957z
							 M248.337,311.05h4.057l0.168,3.291h-3.554L248.337,311.05z M262.306,314.341h-3.554l0.168-3.291h4.057L262.306,314.341z"/>
					</g>
					<path style="opacity:0.3;" d="M272.994,329.503h-34.72c-0.987,0-1.787-0.8-1.787-1.787v-34.72c0-0.987,0.8-1.787,1.787-1.787
						h34.72c0.987,0,1.787,0.8,1.787,1.787v34.72C274.781,328.703,273.981,329.503,272.994,329.503z"/>
					<g>
						<path style="fill:#FFFFFF;" d="M245.08,311.987l0.336-0.755c0.419,0.337,1.084,0.576,1.727,0.576
							c0.815,0,1.159-0.292,1.159-0.681c0-1.129-3.11-0.389-3.11-2.333c0-0.845,0.673-1.563,2.108-1.563
							c0.628,0,1.286,0.165,1.742,0.464l-0.307,0.755c-0.471-0.276-0.987-0.411-1.443-0.411c-0.807,0-1.136,0.314-1.136,0.71
							c0,1.114,3.103,0.389,3.103,2.31c0,0.838-0.681,1.556-2.116,1.556C246.328,312.616,245.513,312.361,245.08,311.987z"/>
						<path style="fill:#FFFFFF;" d="M249.845,309.924c0-1.548,1.196-2.691,2.819-2.691c1.622,0,2.818,1.137,2.818,2.691
							c0,1.556-1.196,2.692-2.818,2.692C251.042,312.616,249.845,311.472,249.845,309.924z M254.503,309.924
							c0-1.069-0.785-1.839-1.839-1.839c-1.054,0-1.839,0.77-1.839,1.839c0,1.069,0.785,1.84,1.839,1.84
							C253.718,311.764,254.503,310.993,254.503,309.924z"/>
						<path style="fill:#FFFFFF;" d="M256.508,307.308h0.972v4.411h2.736v0.822h-3.708V307.308z"/>
						<path style="fill:#FFFFFF;" d="M260.982,307.308h2.288c1.697,0,2.856,1.047,2.856,2.616c0,1.57-1.159,2.617-2.856,2.617
							h-2.288V307.308z M263.225,311.719c1.167,0,1.921-0.711,1.921-1.795c0-1.084-0.755-1.794-1.921-1.794h-1.271v3.589H263.225z"
							/>
					</g>
				</g>
				<g>
					<g style="opacity:0.4;">
						<path style="fill:#FFFFFF;" d="M289.77,317.107c-1.122,0-2.035,0.913-2.035,2.036c0,1.122,0.913,2.035,2.035,2.035
							c1.122,0,2.035-0.913,2.035-2.035C291.805,318.02,290.892,317.107,289.77,317.107z M289.77,320.2
							c-0.583,0-1.057-0.475-1.057-1.057c0-0.583,0.474-1.058,1.057-1.058s1.057,0.474,1.057,1.058
							C290.827,319.725,290.353,320.2,289.77,320.2z"/>
						<path style="fill:#FFFFFF;" d="M306.188,317.107c-1.122,0-2.035,0.913-2.035,2.036c0,1.122,0.913,2.035,2.035,2.035
							c1.122,0,2.035-0.913,2.035-2.035C308.224,318.02,307.311,317.107,306.188,317.107z M306.188,320.2
							c-0.583,0-1.057-0.475-1.057-1.057c0-0.583,0.474-1.058,1.057-1.058s1.057,0.474,1.057,1.058
							C307.246,319.725,306.771,320.2,306.188,320.2z"/>
						<path style="fill:#FFFFFF;" d="M307.061,316.819c0.27,0,0.489-0.219,0.489-0.489c0-0.27-0.219-0.489-0.489-0.489h-18.164
							c-0.27,0-0.489,0.219-0.489,0.489c0,0.27,0.219,0.489,0.489,0.489H307.061z"/>
						<path style="fill:#FFFFFF;" d="M311.689,301.534h-4.051H288.32c-0.147,0-0.286,0.066-0.379,0.18
							c-0.093,0.114-0.13,0.263-0.1,0.407l2.61,12.807c0.047,0.228,0.247,0.391,0.479,0.391h14.096c0.233,0,0.433-0.164,0.479-0.391
							l2.531-12.416h3.651c0.27,0,0.489-0.219,0.489-0.489C312.178,301.753,311.959,301.534,311.689,301.534z M306.368,305.803
							h-4.858l0.168-3.291h5.36L306.368,305.803z M305.498,310.072h-4.206l0.168-3.291h4.708L305.498,310.072z M295.646,310.072
							l-0.168-3.291h5.004l-0.168,3.291H295.646z M300.263,311.05l-0.168,3.291h-4.231l-0.168-3.291H300.263z M289.789,306.781
							h4.708l0.168,3.291h-4.206L289.789,306.781z M295.427,305.803l-0.168-3.291h5.44l-0.168,3.291H295.427z M294.28,302.512
							l0.168,3.291h-4.858l-0.671-3.291H294.28z M290.659,311.05h4.057l0.168,3.291h-3.554L290.659,311.05z M304.628,314.341h-3.554
							l0.168-3.291h4.057L304.628,314.341z"/>
					</g>
					<path style="opacity:0.3;" d="M315.316,329.503h-34.72c-0.987,0-1.787-0.8-1.787-1.787v-34.72c0-0.987,0.8-1.787,1.787-1.787
						h34.72c0.987,0,1.787,0.8,1.787,1.787v34.72C317.103,328.703,316.303,329.503,315.316,329.503z"/>
					<g>
						<path style="fill:#FFFFFF;" d="M287.402,311.987l0.336-0.755c0.418,0.337,1.084,0.576,1.727,0.576
							c0.815,0,1.159-0.292,1.159-0.681c0-1.129-3.11-0.389-3.11-2.333c0-0.845,0.673-1.563,2.108-1.563
							c0.628,0,1.286,0.165,1.742,0.464l-0.307,0.755c-0.471-0.276-0.987-0.411-1.443-0.411c-0.807,0-1.136,0.314-1.136,0.71
							c0,1.114,3.103,0.389,3.103,2.31c0,0.838-0.681,1.556-2.116,1.556C288.65,312.616,287.835,312.361,287.402,311.987z"/>
						<path style="fill:#FFFFFF;" d="M292.168,309.924c0-1.548,1.196-2.691,2.819-2.691c1.622,0,2.818,1.137,2.818,2.691
							c0,1.556-1.196,2.692-2.818,2.692C293.364,312.616,292.168,311.472,292.168,309.924z M296.825,309.924
							c0-1.069-0.785-1.839-1.839-1.839s-1.839,0.77-1.839,1.839c0,1.069,0.785,1.84,1.839,1.84S296.825,310.993,296.825,309.924z"
							/>
						<path style="fill:#FFFFFF;" d="M298.83,307.308h0.972v4.411h2.736v0.822h-3.708V307.308z"/>
						<path style="fill:#FFFFFF;" d="M303.304,307.308h2.288c1.697,0,2.856,1.047,2.856,2.616c0,1.57-1.159,2.617-2.856,2.617
							h-2.288V307.308z M305.547,311.719c1.167,0,1.921-0.711,1.921-1.795c0-1.084-0.755-1.794-1.921-1.794h-1.271v3.589H305.547z"
							/>
					</g>
				</g>
				<g>
					<g style="opacity:0.4;">
						<path style="fill:#FFFFFF;" d="M205.125,359.109c-1.122,0-2.035,0.913-2.035,2.036c0,1.122,0.913,2.035,2.035,2.035
							s2.035-0.913,2.035-2.035C207.161,360.023,206.248,359.109,205.125,359.109z M205.125,362.202
							c-0.583,0-1.057-0.474-1.057-1.057c0-0.583,0.475-1.058,1.057-1.058c0.583,0,1.058,0.474,1.058,1.058
							C206.183,361.728,205.708,362.202,205.125,362.202z"/>
						<path style="fill:#FFFFFF;" d="M221.544,359.109c-1.122,0-2.035,0.913-2.035,2.036c0,1.122,0.913,2.035,2.035,2.035
							s2.035-0.913,2.035-2.035C223.579,360.023,222.666,359.109,221.544,359.109z M221.544,362.202
							c-0.583,0-1.057-0.474-1.057-1.057c0-0.583,0.474-1.058,1.057-1.058c0.583,0,1.057,0.474,1.057,1.058
							C222.601,361.728,222.127,362.202,221.544,362.202z"/>
						<path style="fill:#FFFFFF;" d="M222.416,358.821c0.27,0,0.489-0.219,0.489-0.489c0-0.27-0.219-0.489-0.489-0.489h-18.164
							c-0.27,0-0.489,0.219-0.489,0.489c0,0.27,0.219,0.489,0.489,0.489H222.416z"/>
						<path style="fill:#FFFFFF;" d="M227.044,343.537h-4.051h-19.317c-0.147,0-0.286,0.066-0.379,0.18
							c-0.093,0.114-0.13,0.263-0.101,0.407l2.61,12.807c0.046,0.228,0.247,0.391,0.479,0.391h14.096
							c0.232,0,0.433-0.164,0.479-0.391l2.531-12.416h3.652c0.27,0,0.489-0.219,0.489-0.489
							C227.533,343.756,227.314,343.537,227.044,343.537z M221.723,347.806h-4.858l0.168-3.291h5.36L221.723,347.806z
							 M220.853,352.075h-4.206l0.168-3.291h4.708L220.853,352.075z M211.001,352.075l-0.168-3.291h5.004l-0.168,3.291H211.001z
							 M215.618,353.053l-0.168,3.291h-4.231l-0.168-3.291H215.618z M205.145,348.784h4.708l0.168,3.291h-4.206L205.145,348.784z
							 M210.783,347.806l-0.168-3.291h5.44l-0.168,3.291H210.783z M209.635,344.515l0.168,3.291h-4.858l-0.671-3.291H209.635z
							 M206.015,353.053h4.057l0.168,3.291h-3.554L206.015,353.053z M219.983,356.344h-3.554l0.168-3.291h4.057L219.983,356.344z"/>
					</g>
					<path style="opacity:0.3;" d="M230.671,371.506h-34.72c-0.987,0-1.787-0.8-1.787-1.787v-34.72c0-0.987,0.8-1.787,1.787-1.787
						h34.72c0.987,0,1.787,0.8,1.787,1.787v34.72C232.459,370.706,231.658,371.506,230.671,371.506z"/>
					<g>
						<path style="fill:#FFFFFF;" d="M202.757,353.989l0.336-0.755c0.419,0.337,1.084,0.576,1.727,0.576
							c0.815,0,1.159-0.292,1.159-0.681c0-1.129-3.11-0.389-3.11-2.333c0-0.845,0.673-1.563,2.108-1.563
							c0.628,0,1.286,0.165,1.742,0.464l-0.307,0.755c-0.471-0.276-0.987-0.411-1.443-0.411c-0.807,0-1.136,0.314-1.136,0.71
							c0,1.114,3.103,0.389,3.103,2.31c0,0.838-0.681,1.556-2.116,1.556C204.006,354.618,203.191,354.363,202.757,353.989z"/>
						<path style="fill:#FFFFFF;" d="M207.523,351.926c0-1.548,1.196-2.691,2.819-2.691c1.622,0,2.818,1.137,2.818,2.691
							c0,1.556-1.196,2.692-2.818,2.692C208.719,354.618,207.523,353.474,207.523,351.926z M212.181,351.926
							c0-1.069-0.785-1.839-1.839-1.839s-1.839,0.77-1.839,1.839c0,1.069,0.785,1.84,1.839,1.84S212.181,352.995,212.181,351.926z"
							/>
						<path style="fill:#FFFFFF;" d="M214.186,349.31h0.972v4.411h2.736v0.822h-3.708V349.31z"/>
						<path style="fill:#FFFFFF;" d="M218.66,349.31h2.288c1.697,0,2.856,1.047,2.856,2.616c0,1.57-1.159,2.617-2.856,2.617h-2.288
							V349.31z M220.903,353.721c1.167,0,1.921-0.711,1.921-1.795c0-1.084-0.755-1.794-1.921-1.794h-1.271v3.589H220.903z"/>
					</g>
				</g>
				<g>
					<g style="opacity:0.4;">
						<path style="fill:#FFFFFF;" d="M247.448,359.109c-1.122,0-2.035,0.913-2.035,2.036c0,1.122,0.913,2.035,2.035,2.035
							c1.122,0,2.035-0.913,2.035-2.035C249.483,360.023,248.57,359.109,247.448,359.109z M247.448,362.202
							c-0.583,0-1.057-0.474-1.057-1.057c0-0.583,0.475-1.058,1.057-1.058c0.583,0,1.057,0.474,1.057,1.058
							C248.505,361.728,248.031,362.202,247.448,362.202z"/>
						<path style="fill:#FFFFFF;" d="M263.866,359.109c-1.122,0-2.035,0.913-2.035,2.036c0,1.122,0.913,2.035,2.035,2.035
							c1.122,0,2.035-0.913,2.035-2.035C265.901,360.023,264.988,359.109,263.866,359.109z M263.866,362.202
							c-0.583,0-1.057-0.474-1.057-1.057c0-0.583,0.474-1.058,1.057-1.058s1.057,0.474,1.057,1.058
							C264.923,361.728,264.449,362.202,263.866,362.202z"/>
						<path style="fill:#FFFFFF;" d="M264.739,358.821c0.27,0,0.489-0.219,0.489-0.489c0-0.27-0.219-0.489-0.489-0.489h-18.164
							c-0.27,0-0.489,0.219-0.489,0.489c0,0.27,0.219,0.489,0.489,0.489H264.739z"/>
						<path style="fill:#FFFFFF;" d="M269.366,343.537h-4.051h-19.317c-0.147,0-0.286,0.066-0.379,0.18
							c-0.093,0.114-0.13,0.263-0.101,0.407l2.61,12.807c0.047,0.228,0.247,0.391,0.479,0.391h14.096
							c0.233,0,0.433-0.164,0.479-0.391l2.531-12.416h3.651c0.27,0,0.489-0.219,0.489-0.489
							C269.855,343.756,269.636,343.537,269.366,343.537z M264.046,347.806h-4.858l0.168-3.291h5.36L264.046,347.806z
							 M263.176,352.075h-4.206l0.168-3.291h4.708L263.176,352.075z M253.323,352.075l-0.168-3.291h5.004l-0.168,3.291H253.323z
							 M257.94,353.053l-0.168,3.291h-4.231l-0.168-3.291H257.94z M247.467,348.784h4.708l0.168,3.291h-4.206L247.467,348.784z
							 M253.105,347.806l-0.168-3.291h5.44l-0.168,3.291H253.105z M251.957,344.515l0.168,3.291h-4.858l-0.671-3.291H251.957z
							 M248.337,353.053h4.057l0.168,3.291h-3.554L248.337,353.053z M262.306,356.344h-3.554l0.168-3.291h4.057L262.306,356.344z"/>
					</g>
					<path style="opacity:0.3;" d="M272.994,371.506h-34.72c-0.987,0-1.787-0.8-1.787-1.787v-34.72c0-0.987,0.8-1.787,1.787-1.787
						h34.72c0.987,0,1.787,0.8,1.787,1.787v34.72C274.781,370.706,273.981,371.506,272.994,371.506z"/>
					<g>
						<path style="fill:#FFFFFF;" d="M245.08,353.989l0.336-0.755c0.419,0.337,1.084,0.576,1.727,0.576
							c0.815,0,1.159-0.292,1.159-0.681c0-1.129-3.11-0.389-3.11-2.333c0-0.845,0.673-1.563,2.108-1.563
							c0.628,0,1.286,0.165,1.742,0.464l-0.307,0.755c-0.471-0.276-0.987-0.411-1.443-0.411c-0.807,0-1.136,0.314-1.136,0.71
							c0,1.114,3.103,0.389,3.103,2.31c0,0.838-0.681,1.556-2.116,1.556C246.328,354.618,245.513,354.363,245.08,353.989z"/>
						<path style="fill:#FFFFFF;" d="M249.845,351.926c0-1.548,1.196-2.691,2.819-2.691c1.622,0,2.818,1.137,2.818,2.691
							c0,1.556-1.196,2.692-2.818,2.692C251.042,354.618,249.845,353.474,249.845,351.926z M254.503,351.926
							c0-1.069-0.785-1.839-1.839-1.839c-1.054,0-1.839,0.77-1.839,1.839c0,1.069,0.785,1.84,1.839,1.84
							C253.718,353.766,254.503,352.995,254.503,351.926z"/>
						<path style="fill:#FFFFFF;" d="M256.508,349.31h0.972v4.411h2.736v0.822h-3.708V349.31z"/>
						<path style="fill:#FFFFFF;" d="M260.982,349.31h2.288c1.697,0,2.856,1.047,2.856,2.616c0,1.57-1.159,2.617-2.856,2.617h-2.288
							V349.31z M263.225,353.721c1.167,0,1.921-0.711,1.921-1.795c0-1.084-0.755-1.794-1.921-1.794h-1.271v3.589H263.225z"/>
					</g>
				</g>
				<g>
					<g style="opacity:0.4;">
						<path style="fill:#FFFFFF;" d="M289.77,359.109c-1.122,0-2.035,0.913-2.035,2.036c0,1.122,0.913,2.035,2.035,2.035
							c1.122,0,2.035-0.913,2.035-2.035C291.805,360.023,290.892,359.109,289.77,359.109z M289.77,362.202
							c-0.583,0-1.057-0.474-1.057-1.057c0-0.583,0.474-1.058,1.057-1.058s1.057,0.474,1.057,1.058
							C290.827,361.728,290.353,362.202,289.77,362.202z"/>
						<path style="fill:#FFFFFF;" d="M306.188,359.109c-1.122,0-2.035,0.913-2.035,2.036c0,1.122,0.913,2.035,2.035,2.035
							c1.122,0,2.035-0.913,2.035-2.035C308.224,360.023,307.311,359.109,306.188,359.109z M306.188,362.202
							c-0.583,0-1.057-0.474-1.057-1.057c0-0.583,0.474-1.058,1.057-1.058s1.057,0.474,1.057,1.058
							C307.246,361.728,306.771,362.202,306.188,362.202z"/>
						<path style="fill:#FFFFFF;" d="M307.061,358.821c0.27,0,0.489-0.219,0.489-0.489c0-0.27-0.219-0.489-0.489-0.489h-18.164
							c-0.27,0-0.489,0.219-0.489,0.489c0,0.27,0.219,0.489,0.489,0.489H307.061z"/>
						<path style="fill:#FFFFFF;" d="M311.689,343.537h-4.051H288.32c-0.147,0-0.286,0.066-0.379,0.18
							c-0.093,0.114-0.13,0.263-0.1,0.407l2.61,12.807c0.047,0.228,0.247,0.391,0.479,0.391h14.096c0.233,0,0.433-0.164,0.479-0.391
							l2.531-12.416h3.651c0.27,0,0.489-0.219,0.489-0.489C312.178,343.756,311.959,343.537,311.689,343.537z M306.368,347.806
							h-4.858l0.168-3.291h5.36L306.368,347.806z M305.498,352.075h-4.206l0.168-3.291h4.708L305.498,352.075z M295.646,352.075
							l-0.168-3.291h5.004l-0.168,3.291H295.646z M300.263,353.053l-0.168,3.291h-4.231l-0.168-3.291H300.263z M289.789,348.784
							h4.708l0.168,3.291h-4.206L289.789,348.784z M295.427,347.806l-0.168-3.291h5.44l-0.168,3.291H295.427z M294.28,344.515
							l0.168,3.291h-4.858l-0.671-3.291H294.28z M290.659,353.053h4.057l0.168,3.291h-3.554L290.659,353.053z M304.628,356.344
							h-3.554l0.168-3.291h4.057L304.628,356.344z"/>
					</g>
					<path style="opacity:0.3;" d="M315.316,371.506h-34.72c-0.987,0-1.787-0.8-1.787-1.787v-34.72c0-0.987,0.8-1.787,1.787-1.787
						h34.72c0.987,0,1.787,0.8,1.787,1.787v34.72C317.103,370.706,316.303,371.506,315.316,371.506z"/>
					<g>
						<path style="fill:#FFFFFF;" d="M287.402,353.989l0.336-0.755c0.418,0.337,1.084,0.576,1.727,0.576
							c0.815,0,1.159-0.292,1.159-0.681c0-1.129-3.11-0.389-3.11-2.333c0-0.845,0.673-1.563,2.108-1.563
							c0.628,0,1.286,0.165,1.742,0.464l-0.307,0.755c-0.471-0.276-0.987-0.411-1.443-0.411c-0.807,0-1.136,0.314-1.136,0.71
							c0,1.114,3.103,0.389,3.103,2.31c0,0.838-0.681,1.556-2.116,1.556C288.65,354.618,287.835,354.363,287.402,353.989z"/>
						<path style="fill:#FFFFFF;" d="M292.168,351.926c0-1.548,1.196-2.691,2.819-2.691c1.622,0,2.818,1.137,2.818,2.691
							c0,1.556-1.196,2.692-2.818,2.692C293.364,354.618,292.168,353.474,292.168,351.926z M296.825,351.926
							c0-1.069-0.785-1.839-1.839-1.839s-1.839,0.77-1.839,1.839c0,1.069,0.785,1.84,1.839,1.84S296.825,352.995,296.825,351.926z"
							/>
						<path style="fill:#FFFFFF;" d="M298.83,349.31h0.972v4.411h2.736v0.822h-3.708V349.31z"/>
						<path style="fill:#FFFFFF;" d="M303.304,349.31h2.288c1.697,0,2.856,1.047,2.856,2.616c0,1.57-1.159,2.617-2.856,2.617h-2.288
							V349.31z M305.547,353.721c1.167,0,1.921-0.711,1.921-1.795c0-1.084-0.755-1.794-1.921-1.794h-1.271v3.589H305.547z"/>
					</g>
				</g>
			</g>
			<g>
				<g style="enable-background:new    ;">
					
						<ellipse transform="matrix(0.7071 -0.7071 0.7071 0.7071 -89.4655 249.1354)" style="fill:#407BFF;" cx="256" cy="232.562" rx="42.017" ry="42.017"/>
					<path style="fill:#FFFFFF;" d="M256,275.579c-23.72,0-43.017-19.297-43.017-43.017c0-23.72,19.297-43.018,43.017-43.018
						c23.72,0,43.017,19.297,43.017,43.018C299.018,256.282,279.72,275.579,256,275.579z M256,191.545
						c-22.617,0-41.017,18.4-41.017,41.018c0,22.616,18.4,41.017,41.017,41.017s41.017-18.4,41.017-41.017
						C297.018,209.945,278.617,191.545,256,191.545z"/>
				</g>
				<g style="opacity:0.5;">
					<rect x="263.215" y="229.654" style="fill:#FFFFFF;" width="13.515" height="1.821"/>
					<rect x="263.215" y="232.56" style="fill:#FFFFFF;" width="13.515" height="0.979"/>
					<polygon style="fill:#FFFFFF;" points="263.215,229.15 276.73,229.15 276.73,216.724 282.123,216.724 269.973,203.905 
						257.822,216.724 263.215,216.724 					"/>
					<rect x="263.215" y="234.913" style="fill:#FFFFFF;" width="13.515" height="0.489"/>
				</g>
				<g>
					<path style="fill:#FFFFFF;" d="M235.329,248.854c-1.991,0-3.612,1.62-3.612,3.612c0,1.991,1.62,3.611,3.612,3.611
						c1.991,0,3.612-1.62,3.612-3.611C238.94,250.474,237.32,248.854,235.329,248.854z M235.329,254.342
						c-1.035,0-1.876-0.842-1.876-1.876c0-1.035,0.842-1.877,1.876-1.877c1.034,0,1.876,0.842,1.876,1.877
						C237.205,253.5,236.363,254.342,235.329,254.342z"/>
					<path style="fill:#FFFFFF;" d="M264.461,248.854c-1.991,0-3.612,1.62-3.612,3.612c0,1.991,1.62,3.611,3.612,3.611
						c1.991,0,3.611-1.62,3.611-3.611C268.072,250.474,266.452,248.854,264.461,248.854z M264.461,254.342
						c-1.035,0-1.876-0.842-1.876-1.876c0-1.035,0.842-1.877,1.876-1.877c1.034,0,1.876,0.842,1.876,1.877
						C266.337,253.5,265.495,254.342,264.461,254.342z"/>
					<path style="fill:#FFFFFF;" d="M266.009,248.343c0.479,0,0.868-0.389,0.868-0.868c0-0.479-0.388-0.868-0.868-0.868H233.78
						c-0.479,0-0.868,0.389-0.868,0.868c0,0.479,0.389,0.868,0.868,0.868H266.009z"/>
					<path style="fill:#FFFFFF;" d="M274.22,221.223h-7.188h-34.275c-0.261,0-0.507,0.117-0.672,0.319s-0.23,0.467-0.178,0.722
						l4.632,22.724c0.083,0.404,0.438,0.694,0.85,0.694H262.4c0.413,0,0.768-0.29,0.85-0.694l4.49-22.03h6.479
						c0.479,0,0.868-0.389,0.868-0.868C275.088,221.612,274.699,221.223,274.22,221.223z M264.779,228.798h-8.619l0.299-5.84h9.511
						L264.779,228.798z M263.236,236.373h-7.463l0.299-5.839h8.354L263.236,236.373z M245.754,236.373l-0.299-5.839h8.878
						l-0.299,5.839H245.754z M253.947,238.108l-0.299,5.84h-7.507l-0.299-5.84H253.947z M235.363,230.533h8.354l0.299,5.839h-7.463
						L235.363,230.533z M245.367,228.798l-0.299-5.84h9.653l-0.298,5.84H245.367z M243.33,222.958l0.299,5.84h-8.619l-1.19-5.84
						H243.33z M236.907,238.108h7.198l0.299,5.84h-6.306L236.907,238.108z M261.692,243.948h-6.306l0.299-5.84h7.198
						L261.692,243.948z"/>
				</g>
			</g>
		</g>
		<g>
			<path style="opacity:0.2;fill:#FFFFFF;enable-background:new    ;" d="M323.25,132.317L180.614,274.953V135.641
				c0-1.77,1.304-3.325,3.074-3.325h35.792c1.015,0,1.928,0.661,2.31,1.611l1.481,3.651c0.372,0.941,1.295,1.593,2.301,1.593h60.938
				c1.006,0,1.928-0.624,2.301-1.565l1.481-3.67c0.382-0.95,1.295-1.62,2.31-1.62H323.25z"/>
			<polygon style="opacity:0.2;fill:#FFFFFF;enable-background:new    ;" points="331.39,158.758 331.39,170.465 180.614,321.232 
				180.614,309.534 			"/>
		</g>
	</g>
</g>
<g id="Shopping_bag">
	<g>
		<path style="fill:#263238;" d="M141.582,332.01c-0.678-8.065-7.449-14.425-15.687-14.425s-15.008,6.359-15.687,14.425
			c-0.563,0.183-0.972,0.706-0.972,1.329c0,0.776,0.629,1.404,1.404,1.404c0.776,0,1.404-0.629,1.404-1.404
			c0-0.574-0.346-1.066-0.839-1.284c0.654-7.536,6.987-13.47,14.689-13.47s14.036,5.934,14.689,13.47
			c-0.494,0.218-0.839,0.71-0.839,1.284c0,0.776,0.629,1.404,1.404,1.404c0.775,0,1.404-0.629,1.404-1.404
			C142.554,332.716,142.145,332.193,141.582,332.01z"/>
		<path style="opacity:0.5;fill:#FFFFFF;enable-background:new    ;" d="M141.582,332.01c-0.678-8.065-7.449-14.425-15.687-14.425
			s-15.008,6.359-15.687,14.425c-0.563,0.183-0.972,0.706-0.972,1.329c0,0.776,0.629,1.404,1.404,1.404
			c0.776,0,1.404-0.629,1.404-1.404c0-0.574-0.346-1.066-0.839-1.284c0.654-7.536,6.987-13.47,14.689-13.47
			s14.036,5.934,14.689,13.47c-0.494,0.218-0.839,0.71-0.839,1.284c0,0.776,0.629,1.404,1.404,1.404
			c0.775,0,1.404-0.629,1.404-1.404C142.554,332.716,142.145,332.193,141.582,332.01z"/>
		<polygon style="fill:#407BFF;" points="165.36,417.04 94.601,417.04 99.5,354.54 99.48,354.54 99.48,330.91 160.49,330.91 
			160.49,354.54 160.46,354.54 		"/>
		<polygon style="opacity:0.2;" points="113.04,417.04 103.82,406.06 94.601,417.04 99.5,354.54 99.48,354.54 99.48,330.91 
			109.02,330.91 109.02,354.54 109,354.54 		"/>
		<polygon style="opacity:0.2;" points="113.04,417.04 103.82,406.06 103.82,330.91 109.02,330.91 109.02,354.54 109,354.54 		"/>
		<path style="fill:#263238;" d="M149.583,332.01c-0.678-8.065-7.449-14.425-15.687-14.425s-15.009,6.359-15.687,14.425
			c-0.563,0.183-0.972,0.706-0.972,1.329c0,0.776,0.629,1.404,1.404,1.404c0.776,0,1.404-0.629,1.404-1.404
			c0-0.574-0.346-1.066-0.839-1.284c0.654-7.536,6.987-13.47,14.69-13.47c7.702,0,14.036,5.934,14.689,13.47
			c-0.494,0.218-0.839,0.71-0.839,1.284c0,0.776,0.629,1.404,1.404,1.404c0.775,0,1.404-0.629,1.404-1.404
			C150.554,332.716,150.145,332.193,149.583,332.01z"/>
		<path style="opacity:0.7;fill:#FFFFFF;enable-background:new    ;" d="M149.583,332.01c-0.678-8.065-7.449-14.425-15.687-14.425
			s-15.009,6.359-15.687,14.425c-0.563,0.183-0.972,0.706-0.972,1.329c0,0.776,0.629,1.404,1.404,1.404
			c0.776,0,1.404-0.629,1.404-1.404c0-0.574-0.346-1.066-0.839-1.284c0.654-7.536,6.987-13.47,14.69-13.47
			c7.702,0,14.036,5.934,14.689,13.47c-0.494,0.218-0.839,0.71-0.839,1.284c0,0.776,0.629,1.404,1.404,1.404
			c0.775,0,1.404-0.629,1.404-1.404C150.554,332.716,150.145,332.193,149.583,332.01z"/>
	</g>
	<g>
		<path style="fill:#263238;" d="M175.958,347.658c-0.549-6.588-6.076-11.783-12.803-11.783c-6.727,0-12.253,5.195-12.803,11.782
			c-0.457,0.151-0.792,0.567-0.792,1.075c0,0.633,0.513,1.146,1.146,1.146s1.146-0.513,1.146-1.146c0-0.468-0.283-0.868-0.685-1.046
			c0.533-6.151,5.701-10.995,11.988-10.995c6.287,0,11.455,4.844,11.988,10.995c-0.402,0.178-0.685,0.578-0.685,1.046
			c0,0.633,0.513,1.146,1.146,1.146c0.633,0,1.146-0.513,1.146-1.146C176.75,348.225,176.415,347.808,175.958,347.658z"/>
		<polygon style="fill:#407BFF;" points="195.362,417.04 137.615,417.04 141.614,366.034 141.598,366.034 141.598,346.75 
			191.388,346.75 191.388,366.034 191.363,366.034 		"/>
		<polygon style="opacity:0.7;fill:#FFFFFF;enable-background:new    ;" points="195.362,417.04 137.615,417.04 141.614,366.034 
			141.598,366.034 141.598,346.75 191.388,346.75 191.388,366.034 191.363,366.034 		"/>
		<polygon style="opacity:0.2;" points="152.664,417.04 145.14,408.079 137.615,417.04 141.614,366.034 141.598,366.034 
			141.598,346.75 149.383,346.75 149.383,366.034 149.367,366.034 		"/>
		<polygon style="opacity:0.2;" points="152.664,417.04 145.14,408.079 145.14,346.75 149.383,346.75 149.383,366.034 
			149.367,366.034 		"/>
		<path style="fill:#263238;" d="M182.487,347.658c-0.549-6.588-6.076-11.783-12.803-11.783c-6.727,0-12.253,5.195-12.802,11.782
			c-0.457,0.151-0.793,0.567-0.793,1.075c0,0.633,0.513,1.146,1.146,1.146c0.633,0,1.146-0.513,1.146-1.146
			c0-0.468-0.283-0.868-0.685-1.046c0.533-6.151,5.701-10.995,11.988-10.995c6.287,0,11.455,4.844,11.988,10.995
			c-0.402,0.178-0.685,0.578-0.685,1.046c0,0.633,0.513,1.146,1.146,1.146c0.633,0,1.146-0.513,1.146-1.146
			C183.279,348.225,182.944,347.808,182.487,347.658z"/>
		<path style="opacity:0.2;fill:#FFFFFF;enable-background:new    ;" d="M182.487,347.658c-0.549-6.588-6.076-11.783-12.803-11.783
			c-6.727,0-12.253,5.195-12.802,11.782c-0.457,0.151-0.793,0.567-0.793,1.075c0,0.633,0.513,1.146,1.146,1.146
			c0.633,0,1.146-0.513,1.146-1.146c0-0.468-0.283-0.868-0.685-1.046c0.533-6.151,5.701-10.995,11.988-10.995
			c6.287,0,11.455,4.844,11.988,10.995c-0.402,0.178-0.685,0.578-0.685,1.046c0,0.633,0.513,1.146,1.146,1.146
			c0.633,0,1.146-0.513,1.146-1.146C183.279,348.225,182.944,347.808,182.487,347.658z"/>
	</g>
</g>
<g id="Speech_bubble_2">
	<g>
		<g>
			
				<ellipse transform="matrix(0.7071 -0.7071 0.7071 0.7071 18.3843 320.131)" style="fill:#407BFF;" cx="395.624" cy="137.874" rx="17.955" ry="17.955"/>
		</g>
		<g>
			<path style="fill:#FFFFFF;" d="M398.281,134.061c0-1.511-1.295-2.536-3.372-2.536c-1.997,0-3.453,0.755-4.397,2.077l-2.617-1.7
				c1.511-2.05,3.939-3.292,7.311-3.292c3.965,0,6.609,1.808,6.609,4.91c0,4.397-4.613,4.802-4.613,7.985h-3.426
				C393.775,137.515,398.281,136.759,398.281,134.061z M393.344,145.851c0-1.16,0.891-2.077,2.158-2.077
				c1.241,0,2.131,0.917,2.131,2.077c0,1.16-0.89,2.104-2.131,2.104C394.234,147.955,393.344,147.011,393.344,145.851z"/>
		</g>
		<g>
			<polygon style="fill:#407BFF;" points="395.624,150.698 393.167,154.026 395.624,161.354 398.082,154.026 			"/>
		</g>
	</g>
</g>
<g id="Character_2">
	<g>
		<g>
			<path style="fill:#B65B52;" d="M379.749,216.52c-4.377,2.601-8.728,4.891-13.48,6.909c-1.185,0.508-2.394,0.991-3.661,1.435
				c-1.269,0.447-2.57,0.872-4.064,1.226c-0.753,0.175-1.551,0.325-2.547,0.411c-0.491,0.041-1.053,0.064-1.746,0.014
				c-0.693-0.068-1.536-0.144-2.746-0.715c-0.326-0.17-0.608-0.323-0.936-0.565c-0.332-0.252-0.631-0.495-0.932-0.839
				c-0.298-0.33-0.558-0.683-0.768-1.066l-0.155-0.289c-0.056-0.116-0.076-0.138-0.178-0.391c-0.165-0.412-0.284-0.854-0.35-1.289
				c-0.046-0.348-0.054-0.627-0.048-0.946c0.004-0.145,0.014-0.329,0.028-0.439l0.044-0.302c0.034-0.201,0.076-0.4,0.126-0.597
				l0.127-0.406l0.141-0.382l0.125-0.281c0.089-0.197,0.176-0.367,0.249-0.494c0.324-0.587,0.594-0.954,0.862-1.316
				c0.264-0.349,0.519-0.66,0.765-0.942c0.992-1.126,1.939-2.031,2.893-2.92c0.954-0.882,1.9-1.723,2.862-2.536
				c1.933-1.61,3.855-3.174,5.832-4.663c3.926-3.01,7.945-5.817,12.105-8.498c1.264-0.814,2.949-0.45,3.764,0.814
				c0.702,1.089,0.528,2.491-0.341,3.379l-0.019,0.019c-3.388,3.462-6.822,6.916-10.218,10.317
				c-1.681,1.721-3.382,3.407-4.991,5.134c-0.808,0.857-1.612,1.706-2.365,2.558c-0.752,0.845-1.476,1.712-2.024,2.471
				c-0.14,0.188-0.255,0.361-0.345,0.506c-0.083,0.135-0.154,0.273-0.11,0.226c-0.002,0.005,0.019-0.027,0.05-0.084l0.032-0.072
				l0.067-0.166l0.057-0.189c0.036-0.121,0.064-0.246,0.084-0.372l0.023-0.189c0.008-0.072,0.023-0.218,0.026-0.326
				c0.008-0.243-0.004-0.446-0.042-0.719c-0.046-0.362-0.145-0.731-0.289-1.07l-0.129-0.289l-0.098-0.19
				c-0.143-0.245-0.306-0.481-0.501-0.699c-0.393-0.43-0.795-0.705-1.136-0.87c-0.658-0.308-0.887-0.292-0.975-0.326
				c-0.086-0.019-0.038-0.024,0.075-0.055c0.214-0.048,0.608-0.159,1.031-0.295c1.756-0.551,3.863-1.547,5.906-2.521
				c4.1-2.029,8.348-4.322,12.416-6.555l0.084-0.046c2.646-1.453,5.969-0.485,7.422,2.161
				C383.169,211.779,382.266,215.021,379.749,216.52z"/>
		</g>
		<path style="fill:#263238;" d="M377.111,205.977c-4.516,1.109-8.389,4.154-8.389,4.154l3.873-3.893l-5.957-6.387
			c0,0-22.213,14.32-19.745,23.234c2.043,7.377,16.574,2.579,24.805-1.293L377.111,205.977z"/>
		<path style="opacity:0.2;fill:#FFFFFF;" d="M377.109,205.98l-3.47,10.14l-1.94,5.67c-0.66,0.31-1.35,0.62-2.08,0.94
			c-8.38,3.62-20.84,7.14-22.73,0.36c-2.46-8.92,19.75-23.24,19.75-23.24l5.96,6.39l-3.87,3.88
			C368.96,209.94,372.74,207.06,377.109,205.98z"/>
		<path style="opacity:0.2;" d="M368.722,210.131c0,0-6.127,6.529-7.467,8.827C359.914,221.256,367.764,215.091,368.722,210.131z"/>
		<path style="opacity:0.2;" d="M373.64,216.12l-1.94,5.67c-0.66,0.31-1.35,0.62-2.08,0.94
			C370.72,219.99,372.479,217.55,373.64,216.12z"/>
		<g>
			<path style="fill:#B65B52;" d="M419.27,213.811c3.306,3.802,6.219,7.631,8.92,11.927c1.35,2.143,2.606,4.376,3.722,6.932
				c0.555,1.292,1.065,2.655,1.422,4.375l0.123,0.658c0.036,0.233,0.062,0.492,0.088,0.736c0.063,0.461,0.063,1.078,0.051,1.641
				c-0.04,0.538-0.106,1.103-0.202,1.585c-0.107,0.446-0.208,0.955-0.347,1.339c-0.522,1.652-1.205,2.939-1.899,4.146
				c-0.704,1.19-1.443,2.282-2.199,3.333c-1.542,2.068-3.145,3.973-4.824,5.779c-3.347,3.63-6.888,6.884-10.706,9.971
				c-1.169,0.945-2.883,0.764-3.828-0.405c-0.807-0.997-0.793-2.391-0.046-3.366l0.044-0.057c2.815-3.674,5.623-7.465,8.221-11.21
				c1.285-1.887,2.53-3.772,3.594-5.66c0.535-0.934,1.029-1.866,1.44-2.766c0.403-0.888,0.705-1.771,0.836-2.396
				c0.053-0.177,0.026-0.26,0.057-0.389c0.004-0.1-0.016-0.128-0.012-0.179c-0.035-0.029-0.015-0.006-0.06-0.13l-0.038-0.143
				l-0.071-0.209c-0.188-0.586-0.574-1.43-1.016-2.283c-0.902-1.731-2.11-3.558-3.359-5.372c-1.27-1.809-2.616-3.625-4.004-5.42
				c-1.35-1.802-2.845-3.614-4.198-5.313l-0.109-0.137c-1.88-2.361-1.49-5.799,0.871-7.679
				C414.038,211.294,417.36,211.621,419.27,213.811z"/>
		</g>
		<path style="fill:#263238;" d="M409.733,278.944c0,0-18.858-2.76-45.497-1.993c0,0,7.88-52.195,10.381-59.072
			c2.501-6.877,39.061,5.948,39.061,5.948s-4.966,20.712-6.15,33.735C406.345,270.584,411.646,276.928,409.733,278.944z"/>
		<path style="opacity:0.2;" d="M409.733,278.944c0,0-18.858-2.76-45.497-1.993c0,0,7.88-52.195,10.381-59.072
			c2.501-6.877,39.061,5.948,39.061,5.948s-4.966,20.712-6.15,33.735C406.345,270.584,411.646,276.928,409.733,278.944z"/>
		<polygon style="fill:#B55B52;" points="352.089,410.208 358.918,412.142 360.544,401.513 361.42,395.828 354.59,393.894 
			353.426,401.513 		"/>
		<polygon style="fill:#B55B52;" points="391.355,410.766 398.396,411.699 398.463,401.513 398.511,395.183 391.46,394.26 
			391.412,401.513 		"/>
		<polygon style="opacity:0.2;" points="391.46,394.26 391.412,401.513 398.463,401.513 398.511,395.183 		"/>
		<polygon style="opacity:0.2;" points="353.426,401.513 360.544,401.513 361.42,395.828 354.59,393.894 		"/>
		<g>
			<path style="fill:#263238;" d="M352.172,409.143l7.756-0.209c0.29-0.008,0.549,0.186,0.622,0.466l1.629,6.246
				c0.169,0.648-0.306,1.278-0.977,1.285c-2.8,0.028-6.848-0.026-10.365,0.069c-4.112,0.111-6.726-0.091-11.548,0.039
				c-2.916,0.079-3.831-2.834-2.62-3.132c5.512-1.36,9.116-1.091,13.811-4.167C350.992,409.405,351.559,409.159,352.172,409.143z"/>
			<path style="fill:#407BFF;" d="M351.508,410.138c-0.007,0.003-0.014,0.005-0.022,0.007c-1.135,0.258-3.161,0.591-3.965-0.074
				c-0.242-0.201-0.358-0.472-0.345-0.806c0.008-0.199,0.099-0.356,0.262-0.453c0.848-0.51,3.752,0.862,4.081,1.019
				c0.065,0.031,0.103,0.099,0.096,0.17C351.608,410.063,351.567,410.116,351.508,410.138z M347.673,409.071
				c-0.022,0.008-0.042,0.017-0.06,0.028c-0.066,0.04-0.096,0.094-0.1,0.182c-0.009,0.227,0.064,0.401,0.222,0.533
				c0.451,0.374,1.622,0.409,3.181,0.108C349.771,409.418,348.202,408.872,347.673,409.071z"/>
			<path style="fill:#407BFF;" d="M351.508,410.138c-0.039,0.015-0.084,0.015-0.124-0.002c-0.871-0.36-2.624-1.843-2.523-2.646
				c0.024-0.189,0.149-0.425,0.61-0.485c0.342-0.044,0.659,0.044,0.943,0.262c0.93,0.714,1.19,2.613,1.2,2.694
				c0.008,0.059-0.017,0.118-0.064,0.154C351.538,410.125,351.523,410.133,351.508,410.138z M349.346,407.377
				c-0.138,0.052-0.147,0.128-0.151,0.158c-0.06,0.482,1.137,1.652,2.03,2.152c-0.111-0.554-0.405-1.686-1.016-2.155
				c-0.213-0.163-0.44-0.227-0.693-0.194C349.445,407.347,349.389,407.361,349.346,407.377z"/>
		</g>
		<g>
			<path style="fill:#263238;" d="M391.636,409.143l7.756-0.209c0.29-0.008,0.549,0.186,0.622,0.466l1.629,6.246
				c0.169,0.648-0.306,1.278-0.976,1.285c-2.8,0.028-6.848-0.026-10.365,0.069c-4.112,0.111-6.726-0.091-11.548,0.039
				c-2.916,0.079-3.831-2.834-2.62-3.132c5.512-1.36,9.116-1.091,13.811-4.167C390.456,409.405,391.023,409.159,391.636,409.143z"/>
			<path style="fill:#407BFF;" d="M390.972,410.138c-0.007,0.003-0.014,0.005-0.022,0.007c-1.136,0.258-3.161,0.591-3.965-0.074
				c-0.242-0.201-0.358-0.472-0.345-0.806c0.008-0.199,0.099-0.356,0.262-0.453c0.848-0.51,3.752,0.862,4.081,1.019
				c0.065,0.031,0.103,0.099,0.095,0.17C391.072,410.063,391.031,410.116,390.972,410.138z M387.137,409.071
				c-0.022,0.008-0.042,0.017-0.06,0.028c-0.066,0.04-0.096,0.094-0.1,0.182c-0.009,0.227,0.064,0.401,0.222,0.533
				c0.451,0.374,1.622,0.409,3.181,0.108C389.235,409.418,387.666,408.872,387.137,409.071z"/>
			<path style="fill:#407BFF;" d="M390.972,410.138c-0.039,0.015-0.084,0.015-0.124-0.002c-0.871-0.36-2.624-1.843-2.523-2.646
				c0.024-0.189,0.149-0.425,0.61-0.485c0.342-0.044,0.659,0.044,0.943,0.262c0.93,0.714,1.19,2.613,1.2,2.694
				c0.008,0.059-0.017,0.118-0.064,0.154C391.001,410.125,390.987,410.133,390.972,410.138z M388.81,407.377
				c-0.138,0.052-0.147,0.128-0.151,0.158c-0.06,0.482,1.137,1.652,2.03,2.152c-0.111-0.554-0.405-1.686-1.016-2.155
				c-0.213-0.163-0.44-0.227-0.693-0.194C388.909,407.347,388.853,407.361,388.81,407.377z"/>
		</g>
		<g>
			<path style="fill:#407BFF;" d="M405.881,255.95c3.73,16.175-2.671,143.389-2.671,143.389h-12.372l-5.289-106.019L366.064,399.34
				l-13.223-0.962c8.644-82.127,16.285-131.159,16.285-131.159l-0.018-6.196L405.881,255.95z"/>
			<path style="opacity:0.3;" d="M405.881,255.95c3.73,16.175-2.671,143.389-2.671,143.389h-12.372l-5.289-106.019L366.064,399.34
				l-13.223-0.962c8.644-82.127,16.285-131.159,16.285-131.159l-0.018-6.196L405.881,255.95z"/>
			<path style="opacity:0.2;" d="M381.399,315.882l4.146-22.557l-0.798-11.937C384.746,281.388,379.061,302.088,381.399,315.882z"/>
			<g>
				<polygon style="fill:#263238;" points="406.644,261.619 395.624,261.619 395.624,264.319 407.044,264.289 				"/>
				<polygon style="fill:#263238;" points="394.615,261.619 375.254,261.619 375.254,264.369 394.615,264.319 				"/>
				<polygon style="fill:#263238;" points="368.664,261.619 368.664,264.389 374.254,264.379 374.254,261.619 				"/>
				<path style="fill:none;stroke:#FFFFFF;stroke-width:0.5;stroke-linecap:round;stroke-linejoin:round;stroke-miterlimit:10;" d="
					M382.93,264.354h2.868c0.369,0,0.668-0.299,0.668-0.667v-1.399c0-0.369-0.299-0.668-0.668-0.668h-2.868
					c-0.369,0-0.668,0.299-0.668,0.668v1.399C382.262,264.055,382.561,264.354,382.93,264.354z"/>
				
					<line style="fill:none;stroke:#FFFFFF;stroke-width:0.5;stroke-linecap:round;stroke-linejoin:round;stroke-miterlimit:10;" x1="384.042" y1="262.987" x2="382.905" y2="262.987"/>
			</g>
		</g>
		<g>
			<path style="fill:#407BFF;" d="M416.629,210.618c-2.626,6.669-4.492,13.517-5.862,19.988c-0.999,4.735-1.723,9.269-2.266,13.389
				c-1.276,9.656-2.246,17.217-2.246,17.217s-25.277-0.128-37.146-0.19c-2.488-35.433,8.461-53.514,8.461-53.514l9.425-2.012
				c0,0,1.277,0.029,1.924,0.062c4.185,0.209,10.958,1.236,15.619,2.053c0.98,0.173,1.969,0.37,2.93,0.577
				C412.358,209.246,416.629,210.618,416.629,210.618z"/>
		</g>
		<g style="opacity:0.6;">
			<path style="fill:#FFFFFF;" d="M416.629,210.618c-2.626,6.669-4.492,13.517-5.862,19.988c-0.999,4.735-1.723,9.269-2.266,13.389
				c-1.276,9.656-2.246,17.217-2.246,17.217s-25.277-0.128-37.146-0.19c-2.488-35.433,8.461-53.514,8.461-53.514l9.425-2.012
				c0,0,1.277,0.029,1.924,0.062c4.185,0.209,10.958,1.236,15.619,2.053c0.98,0.173,1.969,0.37,2.93,0.577
				C412.358,209.246,416.629,210.618,416.629,210.618z"/>
		</g>
		<g>
			<path style="fill:#B55B52;" d="M403.22,208.31c0,0-4.783,4.227-12.387,3.309c-3.799-0.458-3.368-4.031-3.368-4.031
				c1.432-0.276,2.509-0.745,3.289-1.36c2.363-1.829,2.201-4.93,1.571-7.907l9.968-7.816c-0.472,2.007-0.962,4.699-1.161,7.425
				c-0.003,0.009-0.003,0.009-0.003,0.009C400.819,202.015,401.172,206.184,403.22,208.31z"/>
			<path style="opacity:0.2;" d="M401.132,197.93c-0.003,0.009-0.003,0.009-0.003,0.009c-1.99,4.1-5.319,8.533-10.375,8.289
				c2.363-1.829,2.201-4.93,1.571-7.907l9.968-7.816C401.822,192.511,401.331,195.203,401.132,197.93z"/>
		</g>
		<g>
			<path style="fill:#263238;" d="M386.857,178.134c-1.548,2.332-2.626,7.729,1.452,7.05
				C392.386,184.506,389.518,174.127,386.857,178.134z"/>
			<path style="fill:#B55B52;" d="M404.34,186.94c-1.51,6.7-2.05,10.71-6.04,13.6c-3.32,2.41-7.21,2.09-10.11,0.13
				c-2.03-1.37-3.57-3.54-4.1-6.14c-0.08-0.4-0.14-0.81-0.17-1.22c-0.47-6.34,2.08-16.24,9.14-17.8
				C400.03,173.97,405.85,180.23,404.34,186.94z"/>
			<path style="fill:#263238;" d="M400.751,182.017l2.126-7.365c0,0,8.007,1.681,6.5,5.592c3.72,3.407-0.728,12.552-7.516,14.18
				c-2.458-3.481,0.133-12.519,0.133-12.519C401.605,181.96,401.184,181.993,400.751,182.017z"/>
			<path style="fill:#B55B52;" d="M406.042,193.004c-0.823,1.656-2.336,2.77-3.788,3.221c-2.183,0.678-3.359-1.27-2.823-3.372
				c0.483-1.893,2.2-4.526,4.425-4.286C406.048,188.803,406.982,191.11,406.042,193.004z"/>
			<path style="fill:#263238;" d="M393.754,187.068c-0.089,0.552-0.453,0.949-0.814,0.887c-0.361-0.062-0.581-0.559-0.492-1.111
				c0.089-0.552,0.454-0.949,0.814-0.887C393.623,186.019,393.843,186.516,393.754,187.068z"/>
			<path style="fill:#263238;" d="M387.517,185.999c-0.089,0.552-0.453,0.949-0.814,0.887c-0.361-0.062-0.581-0.559-0.492-1.111
				c0.089-0.552,0.453-0.949,0.814-0.887C387.386,184.949,387.607,185.447,387.517,185.999z"/>
			<path style="fill:#A02724;" d="M389.456,186.613c0,0-1.78,2.844-3.414,4.093c0.824,1.027,2.551,0.894,2.551,0.894
				L389.456,186.613z"/>
			<path style="fill:#263238;" d="M391.209,194.218c-0.232-0.008-0.473-0.032-0.726-0.076c-0.089-0.016-0.15-0.1-0.136-0.19
				c0.014-0.09,0.101-0.149,0.188-0.134c2.424,0.413,3.825-1.083,3.839-1.098c0.061-0.067,0.165-0.07,0.232-0.009
				c0.067,0.062,0.072,0.166,0.011,0.233C394.562,193.004,393.353,194.295,391.209,194.218z"/>
			<path style="fill:#263238;" d="M396.002,185.383c-0.114-0.004-0.224-0.068-0.282-0.178c-0.686-1.302-1.889-1.437-1.901-1.438
				c-0.18-0.018-0.314-0.179-0.297-0.36c0.016-0.18,0.177-0.312,0.356-0.294c0.064,0.006,1.571,0.175,2.422,1.79
				c0.085,0.161,0.024,0.36-0.136,0.443C396.112,185.374,396.057,185.385,396.002,185.383z"/>
			<path style="fill:#263238;" d="M385.176,183.392c-0.063-0.002-0.125-0.022-0.18-0.061c-0.148-0.106-0.184-0.311-0.08-0.459
				c1.045-1.481,2.555-1.419,2.623-1.425c0.181,0.008,0.323,0.162,0.317,0.343c-0.007,0.18-0.157,0.32-0.337,0.314
				c-0.063-0.005-1.226-0.038-2.065,1.151C385.388,183.348,385.282,183.396,385.176,183.392z"/>
			<path style="fill:#263238;" d="M389.456,180.788l5.473-1.191l-2.245,1.634l7.145-0.442l-1.702,0.659c0,0,3.788,1.756,7.612-0.217
				c3.824-1.973,3.639-0.986,3.639-0.986s1.401-4.733-8.627-8.563s-18.786,3.116-13.3,7.728l0.975-0.749
				C388.425,178.66,387.934,179.596,389.456,180.788z"/>
		</g>
		<g>
			<path style="fill:#263238;" d="M405.32,207.685c0,0-4.183,12.117-5.112,27.101c0.001,0.03-0.002,0.039-0.002,0.039
				c-0.77,12.396-0.685,47.543-0.685,47.543s10.72-0.293,11.608-1.528c0.886-1.225-1.92-13.38-0.918-26.841
				c1.021-13.723,8.171-42.528,8.171-42.528s-3.069-1.54-8.715-2.897C408.357,208.265,406.904,207.954,405.32,207.685z"/>
			<path style="opacity:0.2;fill:#FFFFFF;" d="M418.379,211.47c0,0-1.38,5.56-3.01,12.96c-0.48,2.16-0.98,4.48-1.47,6.86
				c-1.66,8.03-3.25,16.78-3.69,22.71c-1,13.46,1.81,25.62,0.92,26.84c-0.89,1.24-11.61,1.53-11.61,1.53s-0.08-35.15,0.69-47.54
				c0,0,0-0.01,0-0.04c0.93-14.99,5.11-27.11,5.11-27.11c1.58,0.27,3.04,0.58,4.35,0.9C415.32,209.93,418.379,211.47,418.379,211.47
				z"/>
			<path style="fill:#263238;" d="M405.32,207.685c0,0-4.183,12.117-5.112,27.101c0.001,0.03-0.002,0.039-0.002,0.039l11.066-17.273
				l-4.797-1.902l5.775-1.471l-2.581-5.606C408.357,208.265,406.904,207.954,405.32,207.685z"/>
		</g>
		<g>
			<path style="fill:#263238;" d="M363.478,278.683l2.564,2.275c0,0-0.725-21.073,7.568-46.912c0.401-1.246,0.798-2.443,1.18-3.584
				c7.333-21.771,11.914-24.789,12.206-24.965l-3.513,0.163l-6.371,0.316C367.234,225.383,363.478,278.683,363.478,278.683z"/>
			<path style="opacity:0.2;fill:#FFFFFF;" d="M363.478,278.683l2.564,2.275c0,0-0.725-21.073,7.568-46.912
				c0.401-1.246,0.798-2.443,1.18-3.584c7.333-21.771,11.914-24.789,12.206-24.965l-3.513,0.163l-6.371,0.316
				C367.234,225.383,363.478,278.683,363.478,278.683z"/>
			<path style="fill:#263238;" d="M381.319,212.224l-4.323,1.23c0,0-2.174,11.058-2.206,17.007
				c7.333-21.771,11.914-24.789,12.206-24.965l-3.513,0.163c-1.631,0.859-4.201,2.398-5.991,4.393L381.319,212.224z"/>
		</g>
		<path style="opacity:0.2;" d="M415.37,224.43c-0.48,2.16-0.98,4.48-1.47,6.86c-1.65-3.524-0.218-9.333-0.218-9.333
			C414.151,221.918,414.979,224.35,415.37,224.43z"/>
		<path style="fill:#B55B52;" d="M411.773,260.907l1.932,3.809c0.814,4.714-5.428,4.712-5.428,4.712l-3.002,1.212
			c-1.018,0.411-2.243-0.085-2.895-1.172l-1.639-2.729c-0.747-1.244-0.479-2.804,0.594-3.458l2.412-1.471
			c0.702-0.428,1.499-0.676,2.319-0.721L411.773,260.907z"/>
		<path style="fill:#263238;" d="M418.383,211.472c3.148,1.826,13.531,17.911,16.595,26.592
			c3.064,8.681-16.595,24.425-16.595,24.425l-6.05-5.532c0,0,9.368-11.457,10.645-16.111c0,0-5.679-10.395-8.456-13.568
			c0,0-1.556-4.533-0.844-9.299C414.39,213.213,418.383,211.472,418.383,211.472z"/>
		<path style="opacity:0.2;fill:#FFFFFF;" d="M418.383,211.472c3.148,1.826,13.531,17.911,16.595,26.592
			c3.064,8.681-16.595,24.425-16.595,24.425l-6.05-5.532c0,0,9.368-11.457,10.645-16.111c0,0-5.679-10.395-8.456-13.568
			c0,0-1.556-4.533-0.844-9.299C414.39,213.213,418.383,211.472,418.383,211.472z"/>
		<path style="opacity:0.2;" d="M388.19,200.67c-2.03-1.37-3.57-3.54-4.1-6.14c1,0.18,2.297,0.49,3.096,1.289
			C387.984,196.617,388.16,199.02,388.19,200.67z"/>
		<path style="fill:#B55B52;" d="M375.148,196.266l-0.607,4.228c0.742,4.726,6.653,2.721,6.653,2.721l3.232,0.184
			c1.096,0.062,2.097-0.801,2.366-2.039l0.676-3.11c0.308-1.418-0.446-2.809-1.672-3.085l-2.756-0.619
			c-0.802-0.18-1.636-0.159-2.428,0.061L375.148,196.266z"/>
	</g>
</g>
<g id="Speech_bubble_1">
	<g>
		<g>
			<path style="fill:#407BFF;" d="M163.322,88.267h-32.521c-6.176,0-11.183,5.006-11.183,11.183v13.495
				c0,6.176,5.007,11.182,11.182,11.182h5.478l1.298,8.029l6.223-8.029h19.522c6.176,0,11.182-5.007,11.182-11.182V99.449
				C174.505,93.273,169.498,88.267,163.322,88.267z"/>
		</g>
		<g>
			<path style="fill:#FFFFFF;" d="M134.389,105.425c0,1.247-1.011,2.259-2.259,2.259c-1.247,0-2.259-1.011-2.259-2.259
				c0-1.248,1.011-2.259,2.259-2.259C133.378,103.166,134.389,104.178,134.389,105.425z"/>
			<path style="fill:#FFFFFF;" d="M144.343,105.425c0,1.247-1.011,2.259-2.259,2.259s-2.259-1.011-2.259-2.259
				c0-1.248,1.011-2.259,2.259-2.259S144.343,104.178,144.343,105.425z"/>
			<path style="fill:#FFFFFF;" d="M154.297,105.425c0,1.247-1.011,2.259-2.259,2.259c-1.247,0-2.259-1.011-2.259-2.259
				c0-1.248,1.011-2.259,2.259-2.259C153.286,103.166,154.297,104.178,154.297,105.425z"/>
			<path style="fill:#FFFFFF;" d="M164.251,105.425c0,1.247-1.011,2.259-2.259,2.259c-1.248,0-2.259-1.011-2.259-2.259
				c0-1.248,1.011-2.259,2.259-2.259C163.24,103.166,164.251,104.178,164.251,105.425z"/>
		</g>
	</g>
</g>
<g id="Character_1">
	<g>
		
			<ellipse transform="matrix(0.1602 -0.9871 0.9871 0.1602 -87.1143 262.8658)" style="fill:#407BFF;" cx="110.924" cy="182.628" rx="48.668" ry="48.668"/>
		<g>
			
				<path style="fill:none;stroke:#263238;stroke-linecap:round;stroke-linejoin:round;stroke-dasharray:2.1426,10.7132,53.5661,5.3566,21.4264,16.0698;" d="
				M110.921,234.822c-6.551,0-12.942-1.202-18.996-3.573c-20.159-7.876-33.186-26.96-33.186-48.618
				c0-28.778,23.409-52.191,52.182-52.191c28.778,0,52.191,23.413,52.191,52.191c0,18.215-9.708,35.365-25.337,44.758
				C129.685,232.251,120.399,234.822,110.921,234.822z"/>
		</g>
		<path style="opacity:0.7;fill:#FFFFFF;enable-background:new    ;" d="M159.59,182.631c0,17.72-9.47,33.23-23.63,41.74
			c-7.32,4.4-15.88,6.93-25.04,6.93c-6.25,0-12.22-1.18-17.71-3.33c-18.12-7.08-30.95-24.71-30.95-45.34
			c0-26.88,21.78-48.67,48.66-48.67C137.8,133.961,159.59,155.751,159.59,182.631z"/>
		<g>
			<g>
				<path style="fill:#EBC0BB;" d="M129.554,185.477c4.97-0.582,10.109-1.131,15.05-1.808c2.469-0.349,4.929-0.72,7.208-1.182
					c1.129-0.229,2.226-0.512,3.078-0.766c0.408-0.119,0.783-0.274,0.8-0.259c-0.004,0.032-0.065,0.047-0.437,0.458
					c-0.099,0.112-0.225,0.27-0.314,0.419c-0.146,0.211-0.266,0.432-0.384,0.712c-0.308,0.731-0.354,1.226-0.368,1.665
					c-0.007,0.904,0.238,1.386,0.324,1.568c0.094,0.187,0.16,0.218,0.128,0.16c-0.03-0.098-0.271-0.424-0.556-0.742
					c-0.592-0.662-1.437-1.415-2.33-2.14c-1.806-1.462-3.829-2.93-5.905-4.34c-4.149-2.843-8.544-5.611-12.84-8.414l-0.056-0.037
					c-1.466-0.957-1.879-2.92-0.922-4.386c0.793-1.215,2.281-1.705,3.6-1.293c5.139,1.608,10.044,3.551,14.949,5.861
					c2.441,1.181,4.876,2.418,7.322,3.966c1.227,0.786,2.456,1.618,3.764,2.74c0.657,0.578,1.331,1.189,2.066,2.145
					c0.359,0.462,0.758,1.056,1.131,1.831c0.359,0.771,0.778,1.899,0.755,3.454c-0.024,0.763-0.133,1.582-0.566,2.614
					c-0.188,0.426-0.394,0.786-0.622,1.137c-0.19,0.275-0.412,0.565-0.618,0.8c-0.808,0.897-1.408,1.29-1.96,1.67
					c-1.09,0.705-1.916,1.069-2.721,1.419c-1.583,0.672-2.998,1.097-4.394,1.498c-2.778,0.788-5.446,1.356-8.116,1.847
					c-5.345,0.974-10.554,1.662-15.955,2.051c-3.497,0.252-6.537-2.378-6.789-5.876c-0.245-3.398,2.231-6.363,5.579-6.76
					L129.554,185.477z"/>
			</g>
			<path style="fill:#407BFF;" d="M122.635,182.184c5.325,0.903,26.39,0,26.39,0l5.478,14.851c0,0-14.854,4.394-22.204,3.986
				L122.635,182.184z"/>
			<g>
				<path style="fill:#EEC1BB;" d="M137.758,167.92l-3.424-11.136l-9.133,4.51c0,0,1.3,8.121,7.931,9.552L137.758,167.92z"/>
				<polygon style="fill:#EEC1BB;" points="128.461,150.929 122.458,155.921 125.201,161.294 134.334,156.784 				"/>
			</g>
			<g>
				<path style="fill:#263238;" d="M125.942,153.644c0.776,3.634-0.489,7.156-2.826,7.867c-2.337,0.711-4.861-1.659-5.637-5.293
					c-0.777-3.634,0.489-7.156,2.826-7.867C122.642,147.64,125.166,150.01,125.942,153.644z"/>
				<path style="opacity:0.2;fill:#FFFFFF;" d="M125.942,153.644c0.776,3.634-0.489,7.156-2.826,7.867
					c-2.337,0.711-4.861-1.659-5.637-5.293c-0.777-3.634,0.489-7.156,2.826-7.867C122.642,147.64,125.166,150.01,125.942,153.644z"
					/>
				<path style="fill:none;stroke:#263238;stroke-width:0.7494;stroke-miterlimit:10;" d="M123.12,158.317
					c0,0,2.699,3.666,2.975,5.318c0.276,1.653-1.551,2.132-2.948,2.336"/>
			</g>
			<path style="fill:#407BFF;" d="M135.96,224.371c-7.32,4.4-15.88,6.93-25.04,6.93c-6.25,0-12.22-1.18-17.71-3.33
				c-0.18-3.14-0.42-6.16-0.69-9.05c-0.43-4.65-0.97-8.96-1.52-12.82c-1.85-12.68-3.98-20.59-3.98-20.59
				c22.14-10.69,42.95-0.89,42.95-0.89C135.6,192.761,136.42,210.011,135.96,224.371z"/>
			<path style="opacity:0.2;" d="M91,206.102c0.552,3.863,1.091,8.169,1.523,12.823c1.859-3.695,4.059-12.523,1.156-21.891
				L91,206.102z"/>
			<g>
				<path style="fill:#263238;" d="M96.564,189.597c-3.092-2.525-0.425-6.355-0.425-6.355c-0.683-2.345,2.727-6.905,10.733-6.616
					c9.312,0.336,15.203,3.164,15.203,5.853c0,0,3.842,2.784,4.464,3.994c2.135,4.152-4.459,10.561-4.459,10.561
					S107.38,198.43,96.564,189.597z"/>
				<path style="opacity:0.2;fill:#FFFFFF;" d="M123.756,195.166c-0.924,1.14-1.679,1.871-1.679,1.871s-2.183,0.204-5.494-0.048
					c-5.266-0.396-13.375-1.955-20.02-7.389c-3.095-2.531-0.42-6.358-0.42-6.358c-0.684-2.351,2.723-6.909,10.736-6.622
					c9.309,0.336,15.198,3.167,15.198,5.854c0,0,3.838,2.783,4.462,3.995C127.954,189.216,125.543,192.947,123.756,195.166z"/>
				<path style="opacity:0.2;" d="M123.756,195.166c-0.924,1.14-1.679,1.871-1.679,1.871s-2.183,0.204-5.494-0.048
					c0.864-1.463,2.291-2.615,2.567-2.831c-12.919-1.667-19.049-10.532-19.505-12.271c-0.468-1.823,5.782-3.755,5.842-3.683
					c0,0,7.581-0.54,13.423,3.287c5.062,3.323,2.855,10.544,2.171,12.415C122.34,193.955,123.18,194.458,123.756,195.166z"/>
				<path style="fill:#263238;" d="M122.088,195.652c0,0,2.076,2.61,3.025,9.076c0.949,6.466,0.356,10.698,0.356,10.698
					s-2.313-0.08-3.381-0.792c-1.068-0.712-2.469-0.555-2.469-0.555s0.848-5.495,0.621-9.766
					C120.011,200.041,119.774,196.126,122.088,195.652z"/>
				<path style="opacity:0.2;fill:#FFFFFF;" d="M125.471,215.426c0,0-2.315-0.084-3.383-0.792c-1.068-0.708-2.471-0.552-2.471-0.552
					s0.276-1.823,0.48-4.186c0.144-1.739,0.24-3.779,0.144-5.59c-0.192-3.503-0.384-6.766,0.84-8.085
					c0.252-0.288,0.588-0.492,1.007-0.576c0,0,0.072,0.096,0.204,0.3c0,0,0,0,0,0.012c0.564,0.852,2.051,3.563,2.819,8.769
					C126.059,211.192,125.471,215.426,125.471,215.426z"/>
				<path style="opacity:0.2;" d="M122.292,195.958c0,0.192,0.024,1.811-1.043,3.335c0,0,0.408,5.674,0,8.685
					c-0.096,0.744-0.54,1.38-1.152,1.919c0.144-1.739,0.24-3.779,0.144-5.59c-0.192-3.503-0.384-6.766,0.84-8.085
					c0.384-0.228,0.792-0.324,1.211-0.276C122.292,195.946,122.292,195.946,122.292,195.958z"/>
				<path style="fill:#263238;" d="M120.545,195.355c0,0-2.491-0.415-3.559,2.136c-1.068,2.551-1.068,7.534-1.068,7.534
					s0.771-1.068,1.72,0.533c0.949,1.602,2.907,1.068,2.907,1.068s-0.387-8.136,0.429-9.14
					C121.791,196.482,120.545,195.355,120.545,195.355z"/>
				<path style="opacity:0.2;fill:#FFFFFF;" d="M120.545,195.355c0,0-2.491-0.415-3.559,2.136c-1.068,2.551-1.068,7.534-1.068,7.534
					s0.771-1.068,1.72,0.533c0.949,1.602,2.907,1.068,2.907,1.068s-0.387-8.136,0.429-9.14
					C121.791,196.482,120.545,195.355,120.545,195.355z"/>
				<g>
					<path style="fill:#263238;" d="M122.234,194.673c0,0-0.983-1.258-3.037-0.548c0,0,1.589,2.011,1.589,3.976h0.12
						C120.906,198.101,122.911,196.241,122.234,194.673z"/>
					<path style="opacity:0.3;fill:#FFFFFF;" d="M122.234,194.673c0,0-0.983-1.258-3.037-0.548c0,0,1.589,2.011,1.589,3.976h0.12
						C120.906,198.101,122.911,196.241,122.234,194.673z"/>
				</g>
			</g>
			<path style="fill:#EEC1BB;" d="M120.905,194.362c-16.431-2.61-20.765-12.007-20.765-12.007c3.987-4.093,1.949-15.333,0.29-21.468
				l12.448,9.993c-0.836,4.766-0.635,9.842,6.328,11.475c0,0,2.86,1.115,2.87,7.558
				C122.081,193.014,120.924,194.366,120.905,194.362z"/>
			<path style="opacity:0.2;" d="M105.505,164.965l7.368,5.91c-0.202,1.128-0.339,2.272-0.336,3.384
				c-2.642-0.378-6.445-3.246-6.926-5.983C105.37,166.912,105.329,165.601,105.505,164.965z"/>
			<g>
				<circle style="fill:#263238;" cx="90.481" cy="138.793" r="10.187"/>
				<path style="fill:#263238;" d="M103.792,131.506c12.365-0.728,24.243,10.464,18.284,24.839
					c-5.96,14.374-24.398,13.146-31.076,0.656C86.124,147.881,89.665,132.337,103.792,131.506z"/>
				<path style="fill:#EEC1BB;" d="M95.191,148.575c1.861,9.905,2.439,14.126,8.091,18.877c8.502,7.146,20.183,3.366,21.299-6.733
					c1.005-9.09-2.208-23.761-12.415-27.032C102.111,130.466,93.33,138.67,95.191,148.575z"/>
				<path style="fill:#263238;" d="M103.708,141.419c-5.466,7.054,5.761,15.165-5.466,14.695c-11.227-0.47-6.666-16.323,0-19.926
					C104.907,132.584,103.708,141.419,103.708,141.419z"/>
				<path style="fill:#263238;" d="M110.882,150.226c0.12,0.838,0.653,1.485,1.189,1.446c0.536-0.04,0.874-0.751,0.754-1.589
					c-0.12-0.838-0.653-1.485-1.189-1.446C111.099,148.676,110.761,149.388,110.882,150.226z"/>
				<path style="fill:#263238;" d="M120.999,149.629c0.12,0.838,0.653,1.485,1.189,1.446c0.537-0.04,0.874-0.751,0.754-1.589
					c-0.12-0.838-0.653-1.485-1.189-1.446C121.216,148.08,120.879,148.791,120.999,149.629z"/>
				<path style="fill:#263238;" d="M121.522,148.104l1.889-0.726C123.411,147.378,122.625,149.025,121.522,148.104z"/>
				<path style="fill:#D4827D;" d="M118.382,151.211c0,0,1.911,3.505,3.694,5.133c-0.936,1.113-2.846,0.776-2.846,0.776
					L118.382,151.211z"/>
				<path style="fill:#EEC1BB;" d="M94.229,158.127c1.015,2.031,2.68,3.283,4.212,3.69c2.305,0.612,3.305-2.031,2.538-4.671
					c-0.691-2.376-2.723-5.557-4.975-4.983C93.785,152.729,93.069,155.805,94.229,158.127z"/>
				<path style="fill:#263238;" d="M108.057,145.721c0.129,0.002,0.254-0.047,0.344-0.148c1.404-1.571,3.185-1.235,3.206-1.231
					c0.264,0.051,0.51-0.119,0.544-0.387c0.034-0.267-0.156-0.527-0.423-0.581c-0.093-0.018-2.328-0.443-4.071,1.508
					c-0.174,0.194-0.148,0.507,0.057,0.698C107.814,145.672,107.937,145.719,108.057,145.721z"/>
				<path style="fill:#263238;" d="M123.273,144.816c0.122,0.009,0.244-0.026,0.339-0.11c0.196-0.172,0.203-0.482,0.017-0.691
					c-1.869-2.099-4.097-1.879-4.192-1.868c-0.266,0.03-0.442,0.272-0.392,0.542c0.049,0.269,0.304,0.463,0.57,0.435
					c0.087-0.01,1.819-0.156,3.304,1.514C123.016,144.745,123.145,144.806,123.273,144.816z"/>
				<path style="fill:#263238;" d="M111.405,148.7l1.889-0.725C113.294,147.975,112.508,149.622,111.405,148.7z"/>
				<path style="fill:#263238;" d="M108.451,136.446c0,0-2.991,13.276-12.766,14.765c-9.775,1.488-7.483-12.925,5.548-18.235
					c13.031-5.309,21.554,4.099,22.429,6.872c1.095,3.474-0.251,5.872-0.251,5.872S118.66,136.705,108.451,136.446z"/>
				<g>
					<path style="fill:#263238;" d="M119.45,159.618c-0.655,1.365-1.323,3.932-1.323,3.932c-0.243-0.019-0.487-0.037-0.729-0.068
						c-3.296-0.335-4.714-1.58-5.286-2.857c-0.311-0.7-0.36-1.418-0.324-1.996c0.035-0.669,0.212-1.138,0.212-1.138
						c1.641,1.222,4.689,1.771,6.33,1.996C119.014,159.588,119.45,159.618,119.45,159.618z"/>
					<path style="fill:#FFFFFF;" d="M118.328,159.486l-0.42,1.149c-3.103-0.323-5.245-0.967-6.121-2.007
						c0.035-0.669,0.212-1.138,0.212-1.138C113.64,158.712,116.688,159.261,118.328,159.486z"/>
					<path style="fill:#DE5753;" d="M117.398,163.481c-3.296-0.335-4.714-1.58-5.286-2.857c1.119,0.158,2.45,0.472,3.586,1.098
						C116.568,162.196,117.079,162.845,117.398,163.481z"/>
				</g>
			</g>
			<g>
				<path style="fill:#263238;" d="M101.485,154.971c0.776,3.634-0.489,7.156-2.826,7.867c-2.337,0.711-4.861-1.659-5.637-5.293
					c-0.776-3.634,0.489-7.156,2.826-7.867C98.184,148.967,100.708,151.337,101.485,154.971z"/>
				<path style="opacity:0.2;fill:#FFFFFF;" d="M101.485,154.971c0.776,3.634-0.489,7.156-2.826,7.867
					c-2.337,0.711-4.861-1.659-5.637-5.293c-0.776-3.634,0.489-7.156,2.826-7.867C98.184,148.967,100.708,151.337,101.485,154.971z"
					/>
				<path style="fill:#263238;" d="M96.824,153.15c0,0-0.532-17.912,8.689-21.581c0,0-1.201-0.317-2.526,0.186
					c-1.325,0.503-9.266,3.21-9.129,21.05L96.824,153.15z"/>
				<path style="opacity:0.4;fill:#FFFFFF;" d="M96.855,151.051c-0.055,1.303-0.032,2.101-0.032,2.101l-2.966-0.351
					c-0.005-0.383-0.003-0.759,0.006-1.126c0.197-16.824,7.831-19.428,9.125-19.922c1.324-0.499,2.528-0.18,2.528-0.18
					C98.246,134.462,97.036,146.212,96.855,151.051z"/>
				<path style="fill:#263238;" d="M124.103,166.484l-1.727,0.252c-0.294,0.043-0.567-0.161-0.61-0.455l-0.031-0.213
					c-0.043-0.294,0.161-0.567,0.455-0.61l1.727-0.252c0.294-0.043,0.567,0.161,0.61,0.455l0.031,0.213
					C124.601,166.168,124.397,166.441,124.103,166.484z"/>
				<path style="opacity:0.2;fill:#FFFFFF;" d="M124.103,166.484l-1.727,0.252c-0.294,0.043-0.567-0.161-0.61-0.455l-0.031-0.213
					c-0.043-0.294,0.161-0.567,0.455-0.61l1.727-0.252c0.294-0.043,0.567,0.161,0.61,0.455l0.031,0.213
					C124.601,166.168,124.397,166.441,124.103,166.484z"/>
				<path style="opacity:0.2;" d="M96.824,153.152l-2.966-0.351c-0.005-0.383-0.003-0.759,0.006-1.126c0,0,0.891-1.416,2.992-0.623
					C96.8,152.355,96.824,153.152,96.824,153.152z"/>
				<path style="fill:#263238;" d="M99.149,155.891c0.584,2.732-0.367,5.381-2.125,5.915c-1.757,0.535-3.655-1.247-4.239-3.98
					c-0.584-2.732,0.367-5.381,2.125-5.915C96.667,151.377,98.565,153.159,99.149,155.891z"/>
				<path style="opacity:0.4;fill:#FFFFFF;" d="M99.149,155.891c0.584,2.732-0.367,5.381-2.125,5.915
					c-1.757,0.535-3.655-1.247-4.239-3.98c-0.584-2.732,0.367-5.381,2.125-5.915C96.667,151.377,98.565,153.159,99.149,155.891z"/>
			</g>
			<g>
				<path style="fill:#EEC1BB;" d="M106.42,212.704l11.367-2.557l-3.794-9.453c0,0-8.197,0.67-10.134,7.172L106.42,212.704z"/>
				<polygon style="fill:#EEC1BB;" points="124.077,204.742 119.562,198.373 113.993,200.694 117.787,210.147 				"/>
			</g>
			<g>
				<path style="fill:#EBC0BB;" d="M93.31,196.343c-1.786,4.674-3.681,9.483-5.369,14.175c-0.835,2.35-1.645,4.701-2.291,6.935
					c-0.32,1.107-0.578,2.21-0.747,3.083c-0.084,0.416-0.12,0.821-0.141,0.829c-0.027-0.019-0.012-0.079-0.204-0.599
					c-0.053-0.14-0.135-0.325-0.226-0.472c-0.12-0.227-0.26-0.435-0.453-0.67c-0.505-0.612-0.923-0.881-1.305-1.098
					c-0.798-0.425-1.339-0.43-1.539-0.439c-0.209-0.003-0.268,0.041-0.201,0.039c0.101,0.019,0.501-0.043,0.915-0.149
					c0.861-0.218,1.92-0.618,2.976-1.073c2.132-0.923,4.37-2.036,6.581-3.223c4.442-2.36,8.931-4.972,13.406-7.481l0.059-0.033
					c1.527-0.856,3.459-0.312,4.314,1.215c0.71,1.266,0.454,2.811-0.522,3.79c-3.806,3.809-7.8,7.256-12.119,10.533
					c-2.177,1.615-4.401,3.201-6.907,4.651c-1.265,0.723-2.572,1.427-4.171,2.066c-0.817,0.315-1.67,0.628-2.859,0.837
					c-0.575,0.104-1.287,0.183-2.146,0.154c-0.849-0.039-2.043-0.19-3.411-0.932c-0.666-0.375-1.34-0.851-2.055-1.713
					c-0.291-0.364-0.514-0.713-0.719-1.078c-0.156-0.296-0.31-0.627-0.423-0.919c-0.42-1.132-0.492-1.845-0.572-2.511
					c-0.12-1.292-0.06-2.193,0.002-3.069c0.138-1.714,0.416-3.165,0.708-4.588c0.589-2.827,1.321-5.454,2.123-8.048
					c1.613-5.188,3.417-10.123,5.573-15.089c1.397-3.216,5.136-4.691,8.352-3.294c3.125,1.357,4.605,4.925,3.407,8.076
					L93.31,196.343z"/>
			</g>
			<path style="fill:#407BFF;" d="M87.018,185.506c0,0,8.051,3.349,8.949,12.595l-9.225,17.741l-15.237,1.496
				C71.505,217.338,78.949,187.323,87.018,185.506z"/>
		</g>
	</g>
</g>
</svg>
