<?xml version="1.0" encoding="utf-8"?>
<!-- Generator: Adobe Illustrator 27.5.0, SVG Export Plug-In . SVG Version: 6.00 Build 0)  -->
<svg version="1.1" xmlns="http://www.w3.org/2000/svg" xmlns:xlink="http://www.w3.org/1999/xlink" x="0px" y="0px"
	 viewBox="0 0 2500 2500" style="enable-background:new 0 0 2500 2500;" xml:space="preserve">
<g id="Background">
	<rect style="fill:#FFFFFF;" width="2500" height="2500"/>
</g>
<g id="Illustration">
	<g id="Food_nutritional_quality_1_">
		<circle style="fill:#F2E6DC;" cx="1250" cy="1249.927" r="914.927"/>
		<g>
			<rect x="474.078" y="485.036" style="fill:#E6D0BE;" width="1065.014" height="1174.202"/>
			<g>
				<g>
					<path style="fill:#D3BBA3;" d="M848.298,679.523h-4c-0.553,0-1-0.448-1-1c0-0.552,0.447-1,1-1h4c0.553,0,1,0.448,1,1
						C849.298,679.075,848.851,679.523,848.298,679.523z"/>
					<path style="fill:#D3BBA3;" d="M1298.03,679.523h-7.995c-0.553,0-1-0.448-1-1c0-0.552,0.447-1,1-1h7.995c0.553,0,1,0.448,1,1
						C1299.03,679.075,1298.583,679.523,1298.03,679.523z M1280.041,679.523h-7.995c-0.553,0-1-0.448-1-1c0-0.552,0.447-1,1-1h7.995
						c0.553,0,1,0.448,1,1C1281.041,679.075,1280.594,679.523,1280.041,679.523z M1262.052,679.523h-7.995c-0.553,0-1-0.448-1-1
						c0-0.552,0.447-1,1-1h7.995c0.553,0,1,0.448,1,1C1263.052,679.075,1262.604,679.523,1262.052,679.523z M1244.063,679.523
						h-7.995c-0.553,0-1-0.448-1-1c0-0.552,0.447-1,1-1h7.995c0.553,0,1,0.448,1,1
						C1245.063,679.075,1244.615,679.523,1244.063,679.523z M1226.073,679.523h-7.995c-0.553,0-1-0.448-1-1c0-0.552,0.447-1,1-1
						h7.995c0.553,0,1,0.448,1,1C1227.073,679.075,1226.626,679.523,1226.073,679.523z M1208.084,679.523h-7.995
						c-0.553,0-1-0.448-1-1c0-0.552,0.447-1,1-1h7.995c0.553,0,1,0.448,1,1C1209.084,679.075,1208.637,679.523,1208.084,679.523z
						 M1190.095,679.523h-7.995c-0.553,0-1-0.448-1-1c0-0.552,0.447-1,1-1h7.995c0.553,0,1,0.448,1,1
						C1191.095,679.075,1190.647,679.523,1190.095,679.523z M1172.105,679.523h-7.995c-0.553,0-1-0.448-1-1c0-0.552,0.447-1,1-1
						h7.995c0.553,0,1,0.448,1,1C1173.105,679.075,1172.658,679.523,1172.105,679.523z M1154.116,679.523h-7.995
						c-0.553,0-1-0.448-1-1c0-0.552,0.447-1,1-1h7.995c0.553,0,1,0.448,1,1C1155.116,679.075,1154.669,679.523,1154.116,679.523z
						 M1136.127,679.523h-7.995c-0.553,0-1-0.448-1-1c0-0.552,0.447-1,1-1h7.995c0.553,0,1,0.448,1,1
						C1137.127,679.075,1136.68,679.523,1136.127,679.523z M1118.138,679.523h-7.995c-0.553,0-1-0.448-1-1c0-0.552,0.447-1,1-1
						h7.995c0.553,0,1,0.448,1,1C1119.138,679.075,1118.69,679.523,1118.138,679.523z M1100.148,679.523h-7.996
						c-0.553,0-1-0.448-1-1c0-0.552,0.447-1,1-1h7.996c0.553,0,1,0.448,1,1C1101.148,679.075,1100.701,679.523,1100.148,679.523z
						 M1082.159,679.523h-7.996c-0.553,0-1-0.448-1-1c0-0.552,0.447-1,1-1h7.996c0.553,0,1,0.448,1,1
						C1083.159,679.075,1082.712,679.523,1082.159,679.523z M1064.17,679.523h-7.996c-0.553,0-1-0.448-1-1c0-0.552,0.447-1,1-1
						h7.996c0.553,0,1,0.448,1,1C1065.17,679.075,1064.723,679.523,1064.17,679.523z M1046.18,679.523h-7.995c-0.553,0-1-0.448-1-1
						c0-0.552,0.447-1,1-1h7.995c0.553,0,1,0.448,1,1C1047.18,679.075,1046.732,679.523,1046.18,679.523z M1028.19,679.523h-7.995
						c-0.553,0-1-0.448-1-1c0-0.552,0.447-1,1-1h7.995c0.553,0,1,0.448,1,1C1029.19,679.075,1028.743,679.523,1028.19,679.523z
						 M1010.201,679.523h-7.995c-0.553,0-1-0.448-1-1c0-0.552,0.447-1,1-1h7.995c0.553,0,1,0.448,1,1
						C1011.201,679.075,1010.754,679.523,1010.201,679.523z M992.212,679.523h-7.995c-0.553,0-1-0.448-1-1c0-0.552,0.447-1,1-1
						h7.995c0.553,0,1,0.448,1,1C993.212,679.075,992.765,679.523,992.212,679.523z M974.223,679.523h-7.995c-0.553,0-1-0.448-1-1
						c0-0.552,0.447-1,1-1h7.995c0.553,0,1,0.448,1,1C975.223,679.075,974.775,679.523,974.223,679.523z M956.233,679.523h-7.995
						c-0.553,0-1-0.448-1-1c0-0.552,0.447-1,1-1h7.995c0.553,0,1,0.448,1,1C957.233,679.075,956.786,679.523,956.233,679.523z
						 M938.244,679.523h-7.995c-0.553,0-1-0.448-1-1c0-0.552,0.447-1,1-1h7.995c0.553,0,1,0.448,1,1
						C939.244,679.075,938.797,679.523,938.244,679.523z M920.255,679.523h-7.995c-0.553,0-1-0.448-1-1c0-0.552,0.447-1,1-1h7.995
						c0.553,0,1,0.448,1,1C921.255,679.075,920.808,679.523,920.255,679.523z M902.266,679.523h-7.995c-0.553,0-1-0.448-1-1
						c0-0.552,0.447-1,1-1h7.995c0.553,0,1,0.448,1,1C903.266,679.075,902.818,679.523,902.266,679.523z M884.276,679.523h-7.995
						c-0.553,0-1-0.448-1-1c0-0.552,0.447-1,1-1h7.995c0.553,0,1,0.448,1,1C885.276,679.075,884.829,679.523,884.276,679.523z
						 M866.287,679.523h-7.995c-0.553,0-1-0.448-1-1c0-0.552,0.447-1,1-1h7.995c0.553,0,1,0.448,1,1
						C867.287,679.075,866.84,679.523,866.287,679.523z"/>
					<path style="fill:#D3BBA3;" d="M1312.024,679.523h-4c-0.553,0-1-0.448-1-1c0-0.552,0.447-1,1-1h4c0.553,0,1,0.448,1,1
						C1313.024,679.075,1312.577,679.523,1312.024,679.523z"/>
				</g>
				<g>
					<path style="fill:#D3BBA3;" d="M921.065,851.234h-4c-0.553,0-1-0.448-1-1s0.447-1,1-1h4c0.553,0,1,0.448,1,1
						S921.617,851.234,921.065,851.234z"/>
					<path style="fill:#D3BBA3;" d="M1298.051,851.234h-7.979c-0.553,0-1-0.448-1-1s0.447-1,1-1h7.979c0.553,0,1,0.448,1,1
						S1298.604,851.234,1298.051,851.234z M1280.1,851.234h-7.979c-0.553,0-1-0.448-1-1s0.447-1,1-1h7.979c0.553,0,1,0.448,1,1
						S1280.652,851.234,1280.1,851.234z M1262.147,851.234h-7.979c-0.553,0-1-0.448-1-1s0.447-1,1-1h7.979c0.553,0,1,0.448,1,1
						S1262.7,851.234,1262.147,851.234z M1244.196,851.234h-7.979c-0.553,0-1-0.448-1-1s0.447-1,1-1h7.979c0.553,0,1,0.448,1,1
						S1244.749,851.234,1244.196,851.234z M1226.244,851.234h-7.979c-0.553,0-1-0.448-1-1s0.447-1,1-1h7.979c0.553,0,1,0.448,1,1
						S1226.797,851.234,1226.244,851.234z M1208.292,851.234h-7.979c-0.553,0-1-0.448-1-1s0.447-1,1-1h7.979c0.553,0,1,0.448,1,1
						S1208.845,851.234,1208.292,851.234z M1190.341,851.234h-7.979c-0.553,0-1-0.448-1-1s0.447-1,1-1h7.979c0.553,0,1,0.448,1,1
						S1190.894,851.234,1190.341,851.234z M1172.389,851.234h-7.979c-0.553,0-1-0.448-1-1s0.447-1,1-1h7.979c0.553,0,1,0.448,1,1
						S1172.941,851.234,1172.389,851.234z M1154.438,851.234h-7.979c-0.553,0-1-0.448-1-1s0.447-1,1-1h7.979c0.553,0,1,0.448,1,1
						S1154.99,851.234,1154.438,851.234z M1136.485,851.234h-7.979c-0.553,0-1-0.448-1-1s0.447-1,1-1h7.979c0.553,0,1,0.448,1,1
						S1137.038,851.234,1136.485,851.234z M1118.533,851.234h-7.979c-0.553,0-1-0.448-1-1s0.447-1,1-1h7.979c0.553,0,1,0.448,1,1
						S1119.086,851.234,1118.533,851.234z M1100.582,851.234h-7.979c-0.553,0-1-0.448-1-1s0.447-1,1-1h7.979c0.553,0,1,0.448,1,1
						S1101.135,851.234,1100.582,851.234z M1082.63,851.234h-7.979c-0.553,0-1-0.448-1-1s0.447-1,1-1h7.979c0.553,0,1,0.448,1,1
						S1083.183,851.234,1082.63,851.234z M1064.678,851.234h-7.979c-0.553,0-1-0.448-1-1s0.447-1,1-1h7.979c0.553,0,1,0.448,1,1
						S1065.23,851.234,1064.678,851.234z M1046.727,851.234h-7.979c-0.553,0-1-0.448-1-1s0.447-1,1-1h7.979c0.553,0,1,0.448,1,1
						S1047.279,851.234,1046.727,851.234z M1028.774,851.234h-7.979c-0.553,0-1-0.448-1-1s0.447-1,1-1h7.979c0.553,0,1,0.448,1,1
						S1029.327,851.234,1028.774,851.234z M1010.823,851.234h-7.979c-0.553,0-1-0.448-1-1s0.447-1,1-1h7.979c0.553,0,1,0.448,1,1
						S1011.376,851.234,1010.823,851.234z M992.871,851.234h-7.979c-0.553,0-1-0.448-1-1s0.447-1,1-1h7.979c0.553,0,1,0.448,1,1
						S993.424,851.234,992.871,851.234z M974.919,851.234h-7.978c-0.553,0-1-0.448-1-1s0.447-1,1-1h7.978c0.553,0,1,0.448,1,1
						S975.472,851.234,974.919,851.234z M956.968,851.234h-7.978c-0.553,0-1-0.448-1-1s0.447-1,1-1h7.978c0.553,0,1,0.448,1,1
						S957.521,851.234,956.968,851.234z M939.016,851.234h-7.979c-0.553,0-1-0.448-1-1s0.447-1,1-1h7.979c0.553,0,1,0.448,1,1
						S939.568,851.234,939.016,851.234z"/>
					<path style="fill:#D3BBA3;" d="M1312.024,851.234h-4c-0.553,0-1-0.448-1-1s0.447-1,1-1h4c0.553,0,1,0.448,1,1
						S1312.577,851.234,1312.024,851.234z"/>
				</g>
				<g>
					<path style="fill:#D3BBA3;" d="M872.554,1022.946h-4c-0.553,0-1-0.448-1-1s0.447-1,1-1h4c0.553,0,1,0.448,1,1
						S873.106,1022.946,872.554,1022.946z"/>
					<path style="fill:#D3BBA3;" d="M1298.173,1022.946h-7.882c-0.553,0-1-0.448-1-1s0.447-1,1-1h7.882c0.553,0,1,0.448,1,1
						S1298.726,1022.946,1298.173,1022.946z M1280.438,1022.946h-7.882c-0.553,0-1-0.448-1-1s0.447-1,1-1h7.882c0.553,0,1,0.448,1,1
						S1280.991,1022.946,1280.438,1022.946z M1262.704,1022.946h-7.882c-0.553,0-1-0.448-1-1s0.447-1,1-1h7.882c0.553,0,1,0.448,1,1
						S1263.257,1022.946,1262.704,1022.946z M1244.97,1022.946h-7.882c-0.553,0-1-0.448-1-1s0.447-1,1-1h7.882c0.553,0,1,0.448,1,1
						S1245.522,1022.946,1244.97,1022.946z M1227.236,1022.946h-7.882c-0.553,0-1-0.448-1-1s0.447-1,1-1h7.882c0.553,0,1,0.448,1,1
						S1227.789,1022.946,1227.236,1022.946z M1209.502,1022.946h-7.882c-0.553,0-1-0.448-1-1s0.447-1,1-1h7.882c0.553,0,1,0.448,1,1
						S1210.055,1022.946,1209.502,1022.946z M1191.768,1022.946h-7.882c-0.553,0-1-0.448-1-1s0.447-1,1-1h7.882c0.553,0,1,0.448,1,1
						S1192.32,1022.946,1191.768,1022.946z M1174.034,1022.946h-7.882c-0.553,0-1-0.448-1-1s0.447-1,1-1h7.882c0.553,0,1,0.448,1,1
						S1174.587,1022.946,1174.034,1022.946z M1156.3,1022.946h-7.882c-0.553,0-1-0.448-1-1s0.447-1,1-1h7.882c0.553,0,1,0.448,1,1
						S1156.853,1022.946,1156.3,1022.946z M1138.565,1022.946h-7.882c-0.553,0-1-0.448-1-1s0.447-1,1-1h7.882c0.553,0,1,0.448,1,1
						S1139.118,1022.946,1138.565,1022.946z M1120.831,1022.946h-7.882c-0.553,0-1-0.448-1-1s0.447-1,1-1h7.882c0.553,0,1,0.448,1,1
						S1121.384,1022.946,1120.831,1022.946z M1103.098,1022.946h-7.882c-0.553,0-1-0.448-1-1s0.447-1,1-1h7.882c0.553,0,1,0.448,1,1
						S1103.65,1022.946,1103.098,1022.946z M1085.363,1022.946h-7.882c-0.553,0-1-0.448-1-1s0.447-1,1-1h7.882c0.553,0,1,0.448,1,1
						S1085.916,1022.946,1085.363,1022.946z M1067.629,1022.946h-7.882c-0.553,0-1-0.448-1-1s0.447-1,1-1h7.882c0.553,0,1,0.448,1,1
						S1068.182,1022.946,1067.629,1022.946z M1049.896,1022.946h-7.882c-0.553,0-1-0.448-1-1s0.447-1,1-1h7.882c0.553,0,1,0.448,1,1
						S1050.448,1022.946,1049.896,1022.946z M1032.161,1022.946h-7.882c-0.553,0-1-0.448-1-1s0.447-1,1-1h7.882c0.553,0,1,0.448,1,1
						S1032.714,1022.946,1032.161,1022.946z M1014.427,1022.946h-7.882c-0.553,0-1-0.448-1-1s0.447-1,1-1h7.882c0.553,0,1,0.448,1,1
						S1014.979,1022.946,1014.427,1022.946z M996.692,1022.946h-7.882c-0.553,0-1-0.448-1-1s0.447-1,1-1h7.882c0.553,0,1,0.448,1,1
						S997.245,1022.946,996.692,1022.946z M978.959,1022.946h-7.882c-0.553,0-1-0.448-1-1s0.447-1,1-1h7.882c0.553,0,1,0.448,1,1
						S979.512,1022.946,978.959,1022.946z M961.225,1022.946h-7.882c-0.553,0-1-0.448-1-1s0.447-1,1-1h7.882c0.553,0,1,0.448,1,1
						S961.777,1022.946,961.225,1022.946z M943.49,1022.946h-7.882c-0.553,0-1-0.448-1-1s0.447-1,1-1h7.882c0.553,0,1,0.448,1,1
						S944.043,1022.946,943.49,1022.946z M925.756,1022.946h-7.882c-0.553,0-1-0.448-1-1s0.447-1,1-1h7.882c0.553,0,1,0.448,1,1
						S926.309,1022.946,925.756,1022.946z M908.023,1022.946h-7.882c-0.553,0-1-0.448-1-1s0.447-1,1-1h7.882c0.553,0,1,0.448,1,1
						S908.575,1022.946,908.023,1022.946z M890.288,1022.946h-7.882c-0.553,0-1-0.448-1-1s0.447-1,1-1h7.882c0.553,0,1,0.448,1,1
						S890.841,1022.946,890.288,1022.946z"/>
					<path style="fill:#D3BBA3;" d="M1312.024,1022.946h-4c-0.553,0-1-0.448-1-1s0.447-1,1-1h4c0.553,0,1,0.448,1,1
						S1312.577,1022.946,1312.024,1022.946z"/>
				</g>
				<g>
					<path style="fill:#D3BBA3;" d="M848.298,1194.657h-4c-0.553,0-1-0.448-1-1s0.447-1,1-1h4c0.553,0,1,0.448,1,1
						S848.851,1194.657,848.298,1194.657z"/>
					<path style="fill:#D3BBA3;" d="M1298.03,1194.657h-7.995c-0.553,0-1-0.448-1-1s0.447-1,1-1h7.995c0.553,0,1,0.448,1,1
						S1298.583,1194.657,1298.03,1194.657z M1280.041,1194.657h-7.995c-0.553,0-1-0.448-1-1s0.447-1,1-1h7.995c0.553,0,1,0.448,1,1
						S1280.594,1194.657,1280.041,1194.657z M1262.052,1194.657h-7.995c-0.553,0-1-0.448-1-1s0.447-1,1-1h7.995c0.553,0,1,0.448,1,1
						S1262.604,1194.657,1262.052,1194.657z M1244.063,1194.657h-7.995c-0.553,0-1-0.448-1-1s0.447-1,1-1h7.995c0.553,0,1,0.448,1,1
						S1244.615,1194.657,1244.063,1194.657z M1226.073,1194.657h-7.995c-0.553,0-1-0.448-1-1s0.447-1,1-1h7.995c0.553,0,1,0.448,1,1
						S1226.626,1194.657,1226.073,1194.657z M1208.084,1194.657h-7.995c-0.553,0-1-0.448-1-1s0.447-1,1-1h7.995c0.553,0,1,0.448,1,1
						S1208.637,1194.657,1208.084,1194.657z M1190.095,1194.657h-7.995c-0.553,0-1-0.448-1-1s0.447-1,1-1h7.995c0.553,0,1,0.448,1,1
						S1190.647,1194.657,1190.095,1194.657z M1172.105,1194.657h-7.995c-0.553,0-1-0.448-1-1s0.447-1,1-1h7.995c0.553,0,1,0.448,1,1
						S1172.658,1194.657,1172.105,1194.657z M1154.116,1194.657h-7.995c-0.553,0-1-0.448-1-1s0.447-1,1-1h7.995c0.553,0,1,0.448,1,1
						S1154.669,1194.657,1154.116,1194.657z M1136.127,1194.657h-7.995c-0.553,0-1-0.448-1-1s0.447-1,1-1h7.995c0.553,0,1,0.448,1,1
						S1136.68,1194.657,1136.127,1194.657z M1118.138,1194.657h-7.995c-0.553,0-1-0.448-1-1s0.447-1,1-1h7.995c0.553,0,1,0.448,1,1
						S1118.69,1194.657,1118.138,1194.657z M1100.148,1194.657h-7.996c-0.553,0-1-0.448-1-1s0.447-1,1-1h7.996c0.553,0,1,0.448,1,1
						S1100.701,1194.657,1100.148,1194.657z M1082.159,1194.657h-7.996c-0.553,0-1-0.448-1-1s0.447-1,1-1h7.996c0.553,0,1,0.448,1,1
						S1082.712,1194.657,1082.159,1194.657z M1064.17,1194.657h-7.996c-0.553,0-1-0.448-1-1s0.447-1,1-1h7.996c0.553,0,1,0.448,1,1
						S1064.723,1194.657,1064.17,1194.657z M1046.18,1194.657h-7.995c-0.553,0-1-0.448-1-1s0.447-1,1-1h7.995c0.553,0,1,0.448,1,1
						S1046.732,1194.657,1046.18,1194.657z M1028.19,1194.657h-7.995c-0.553,0-1-0.448-1-1s0.447-1,1-1h7.995c0.553,0,1,0.448,1,1
						S1028.743,1194.657,1028.19,1194.657z M1010.201,1194.657h-7.995c-0.553,0-1-0.448-1-1s0.447-1,1-1h7.995c0.553,0,1,0.448,1,1
						S1010.754,1194.657,1010.201,1194.657z M992.212,1194.657h-7.995c-0.553,0-1-0.448-1-1s0.447-1,1-1h7.995c0.553,0,1,0.448,1,1
						S992.765,1194.657,992.212,1194.657z M974.223,1194.657h-7.995c-0.553,0-1-0.448-1-1s0.447-1,1-1h7.995c0.553,0,1,0.448,1,1
						S974.775,1194.657,974.223,1194.657z M956.233,1194.657h-7.995c-0.553,0-1-0.448-1-1s0.447-1,1-1h7.995c0.553,0,1,0.448,1,1
						S956.786,1194.657,956.233,1194.657z M938.244,1194.657h-7.995c-0.553,0-1-0.448-1-1s0.447-1,1-1h7.995c0.553,0,1,0.448,1,1
						S938.797,1194.657,938.244,1194.657z M920.255,1194.657h-7.995c-0.553,0-1-0.448-1-1s0.447-1,1-1h7.995c0.553,0,1,0.448,1,1
						S920.808,1194.657,920.255,1194.657z M902.266,1194.657h-7.995c-0.553,0-1-0.448-1-1s0.447-1,1-1h7.995c0.553,0,1,0.448,1,1
						S902.818,1194.657,902.266,1194.657z M884.276,1194.657h-7.995c-0.553,0-1-0.448-1-1s0.447-1,1-1h7.995c0.553,0,1,0.448,1,1
						S884.829,1194.657,884.276,1194.657z M866.287,1194.657h-7.995c-0.553,0-1-0.448-1-1s0.447-1,1-1h7.995c0.553,0,1,0.448,1,1
						S866.84,1194.657,866.287,1194.657z"/>
					<path style="fill:#D3BBA3;" d="M1312.024,1194.657h-4c-0.553,0-1-0.448-1-1s0.447-1,1-1h4c0.553,0,1,0.448,1,1
						S1312.577,1194.657,1312.024,1194.657z"/>
				</g>
				<g>
					<path style="fill:#D3BBA3;" d="M848.298,1366.369h-4c-0.553,0-1-0.448-1-1s0.447-1,1-1h4c0.553,0,1,0.448,1,1
						S848.851,1366.369,848.298,1366.369z"/>
					<path style="fill:#D3BBA3;" d="M1298.03,1366.369h-7.995c-0.553,0-1-0.448-1-1s0.447-1,1-1h7.995c0.553,0,1,0.448,1,1
						S1298.583,1366.369,1298.03,1366.369z M1280.041,1366.369h-7.995c-0.553,0-1-0.448-1-1s0.447-1,1-1h7.995c0.553,0,1,0.448,1,1
						S1280.594,1366.369,1280.041,1366.369z M1262.052,1366.369h-7.995c-0.553,0-1-0.448-1-1s0.447-1,1-1h7.995c0.553,0,1,0.448,1,1
						S1262.604,1366.369,1262.052,1366.369z M1244.063,1366.369h-7.995c-0.553,0-1-0.448-1-1s0.447-1,1-1h7.995c0.553,0,1,0.448,1,1
						S1244.615,1366.369,1244.063,1366.369z M1226.073,1366.369h-7.995c-0.553,0-1-0.448-1-1s0.447-1,1-1h7.995c0.553,0,1,0.448,1,1
						S1226.626,1366.369,1226.073,1366.369z M1208.084,1366.369h-7.995c-0.553,0-1-0.448-1-1s0.447-1,1-1h7.995c0.553,0,1,0.448,1,1
						S1208.637,1366.369,1208.084,1366.369z M1190.095,1366.369h-7.995c-0.553,0-1-0.448-1-1s0.447-1,1-1h7.995c0.553,0,1,0.448,1,1
						S1190.647,1366.369,1190.095,1366.369z M1172.105,1366.369h-7.995c-0.553,0-1-0.448-1-1s0.447-1,1-1h7.995c0.553,0,1,0.448,1,1
						S1172.658,1366.369,1172.105,1366.369z M1154.116,1366.369h-7.995c-0.553,0-1-0.448-1-1s0.447-1,1-1h7.995c0.553,0,1,0.448,1,1
						S1154.669,1366.369,1154.116,1366.369z M1136.127,1366.369h-7.995c-0.553,0-1-0.448-1-1s0.447-1,1-1h7.995c0.553,0,1,0.448,1,1
						S1136.68,1366.369,1136.127,1366.369z M1118.138,1366.369h-7.995c-0.553,0-1-0.448-1-1s0.447-1,1-1h7.995c0.553,0,1,0.448,1,1
						S1118.69,1366.369,1118.138,1366.369z M1100.148,1366.369h-7.996c-0.553,0-1-0.448-1-1s0.447-1,1-1h7.996c0.553,0,1,0.448,1,1
						S1100.701,1366.369,1100.148,1366.369z M1082.159,1366.369h-7.996c-0.553,0-1-0.448-1-1s0.447-1,1-1h7.996c0.553,0,1,0.448,1,1
						S1082.712,1366.369,1082.159,1366.369z M1064.17,1366.369h-7.996c-0.553,0-1-0.448-1-1s0.447-1,1-1h7.996c0.553,0,1,0.448,1,1
						S1064.723,1366.369,1064.17,1366.369z M1046.18,1366.369h-7.995c-0.553,0-1-0.448-1-1s0.447-1,1-1h7.995c0.553,0,1,0.448,1,1
						S1046.732,1366.369,1046.18,1366.369z M1028.19,1366.369h-7.995c-0.553,0-1-0.448-1-1s0.447-1,1-1h7.995c0.553,0,1,0.448,1,1
						S1028.743,1366.369,1028.19,1366.369z M1010.201,1366.369h-7.995c-0.553,0-1-0.448-1-1s0.447-1,1-1h7.995c0.553,0,1,0.448,1,1
						S1010.754,1366.369,1010.201,1366.369z M992.212,1366.369h-7.995c-0.553,0-1-0.448-1-1s0.447-1,1-1h7.995c0.553,0,1,0.448,1,1
						S992.765,1366.369,992.212,1366.369z M974.223,1366.369h-7.995c-0.553,0-1-0.448-1-1s0.447-1,1-1h7.995c0.553,0,1,0.448,1,1
						S974.775,1366.369,974.223,1366.369z M956.233,1366.369h-7.995c-0.553,0-1-0.448-1-1s0.447-1,1-1h7.995c0.553,0,1,0.448,1,1
						S956.786,1366.369,956.233,1366.369z M938.244,1366.369h-7.995c-0.553,0-1-0.448-1-1s0.447-1,1-1h7.995c0.553,0,1,0.448,1,1
						S938.797,1366.369,938.244,1366.369z M920.255,1366.369h-7.995c-0.553,0-1-0.448-1-1s0.447-1,1-1h7.995c0.553,0,1,0.448,1,1
						S920.808,1366.369,920.255,1366.369z M902.266,1366.369h-7.995c-0.553,0-1-0.448-1-1s0.447-1,1-1h7.995c0.553,0,1,0.448,1,1
						S902.818,1366.369,902.266,1366.369z M884.276,1366.369h-7.995c-0.553,0-1-0.448-1-1s0.447-1,1-1h7.995c0.553,0,1,0.448,1,1
						S884.829,1366.369,884.276,1366.369z M866.287,1366.369h-7.995c-0.553,0-1-0.448-1-1s0.447-1,1-1h7.995c0.553,0,1,0.448,1,1
						S866.84,1366.369,866.287,1366.369z"/>
					<path style="fill:#D3BBA3;" d="M1312.024,1366.369h-4c-0.553,0-1-0.448-1-1s0.447-1,1-1h4c0.553,0,1,0.448,1,1
						S1312.577,1366.369,1312.024,1366.369z"/>
				</g>
				<g>
					<path style="fill:#D3BBA3;" d="M848.298,1531.334h-4c-0.553,0-1-0.448-1-1s0.447-1,1-1h4c0.553,0,1,0.448,1,1
						S848.851,1531.334,848.298,1531.334z"/>
					<path style="fill:#D3BBA3;" d="M1298.03,1531.334h-7.995c-0.553,0-1-0.448-1-1s0.447-1,1-1h7.995c0.553,0,1,0.448,1,1
						S1298.583,1531.334,1298.03,1531.334z M1280.041,1531.334h-7.995c-0.553,0-1-0.448-1-1s0.447-1,1-1h7.995c0.553,0,1,0.448,1,1
						S1280.594,1531.334,1280.041,1531.334z M1262.052,1531.334h-7.995c-0.553,0-1-0.448-1-1s0.447-1,1-1h7.995c0.553,0,1,0.448,1,1
						S1262.604,1531.334,1262.052,1531.334z M1244.063,1531.334h-7.995c-0.553,0-1-0.448-1-1s0.447-1,1-1h7.995c0.553,0,1,0.448,1,1
						S1244.615,1531.334,1244.063,1531.334z M1226.073,1531.334h-7.995c-0.553,0-1-0.448-1-1s0.447-1,1-1h7.995c0.553,0,1,0.448,1,1
						S1226.626,1531.334,1226.073,1531.334z M1208.084,1531.334h-7.995c-0.553,0-1-0.448-1-1s0.447-1,1-1h7.995c0.553,0,1,0.448,1,1
						S1208.637,1531.334,1208.084,1531.334z M1190.095,1531.334h-7.995c-0.553,0-1-0.448-1-1s0.447-1,1-1h7.995c0.553,0,1,0.448,1,1
						S1190.647,1531.334,1190.095,1531.334z M1172.105,1531.334h-7.995c-0.553,0-1-0.448-1-1s0.447-1,1-1h7.995c0.553,0,1,0.448,1,1
						S1172.658,1531.334,1172.105,1531.334z M1154.116,1531.334h-7.995c-0.553,0-1-0.448-1-1s0.447-1,1-1h7.995c0.553,0,1,0.448,1,1
						S1154.669,1531.334,1154.116,1531.334z M1136.127,1531.334h-7.995c-0.553,0-1-0.448-1-1s0.447-1,1-1h7.995c0.553,0,1,0.448,1,1
						S1136.68,1531.334,1136.127,1531.334z M1118.138,1531.334h-7.995c-0.553,0-1-0.448-1-1s0.447-1,1-1h7.995c0.553,0,1,0.448,1,1
						S1118.69,1531.334,1118.138,1531.334z M1100.148,1531.334h-7.996c-0.553,0-1-0.448-1-1s0.447-1,1-1h7.996c0.553,0,1,0.448,1,1
						S1100.701,1531.334,1100.148,1531.334z M1082.159,1531.334h-7.996c-0.553,0-1-0.448-1-1s0.447-1,1-1h7.996c0.553,0,1,0.448,1,1
						S1082.712,1531.334,1082.159,1531.334z M1064.17,1531.334h-7.996c-0.553,0-1-0.448-1-1s0.447-1,1-1h7.996c0.553,0,1,0.448,1,1
						S1064.723,1531.334,1064.17,1531.334z M1046.18,1531.334h-7.995c-0.553,0-1-0.448-1-1s0.447-1,1-1h7.995c0.553,0,1,0.448,1,1
						S1046.732,1531.334,1046.18,1531.334z M1028.19,1531.334h-7.995c-0.553,0-1-0.448-1-1s0.447-1,1-1h7.995c0.553,0,1,0.448,1,1
						S1028.743,1531.334,1028.19,1531.334z M1010.201,1531.334h-7.995c-0.553,0-1-0.448-1-1s0.447-1,1-1h7.995c0.553,0,1,0.448,1,1
						S1010.754,1531.334,1010.201,1531.334z M992.212,1531.334h-7.995c-0.553,0-1-0.448-1-1s0.447-1,1-1h7.995c0.553,0,1,0.448,1,1
						S992.765,1531.334,992.212,1531.334z M974.223,1531.334h-7.995c-0.553,0-1-0.448-1-1s0.447-1,1-1h7.995c0.553,0,1,0.448,1,1
						S974.775,1531.334,974.223,1531.334z M956.233,1531.334h-7.995c-0.553,0-1-0.448-1-1s0.447-1,1-1h7.995c0.553,0,1,0.448,1,1
						S956.786,1531.334,956.233,1531.334z M938.244,1531.334h-7.995c-0.553,0-1-0.448-1-1s0.447-1,1-1h7.995c0.553,0,1,0.448,1,1
						S938.797,1531.334,938.244,1531.334z M920.255,1531.334h-7.995c-0.553,0-1-0.448-1-1s0.447-1,1-1h7.995c0.553,0,1,0.448,1,1
						S920.808,1531.334,920.255,1531.334z M902.266,1531.334h-7.995c-0.553,0-1-0.448-1-1s0.447-1,1-1h7.995c0.553,0,1,0.448,1,1
						S902.818,1531.334,902.266,1531.334z M884.276,1531.334h-7.995c-0.553,0-1-0.448-1-1s0.447-1,1-1h7.995c0.553,0,1,0.448,1,1
						S884.829,1531.334,884.276,1531.334z M866.287,1531.334h-7.995c-0.553,0-1-0.448-1-1s0.447-1,1-1h7.995c0.553,0,1,0.448,1,1
						S866.84,1531.334,866.287,1531.334z"/>
					<path style="fill:#D3BBA3;" d="M1312.024,1531.334h-4c-0.553,0-1-0.448-1-1s0.447-1,1-1h4c0.553,0,1,0.448,1,1
						S1312.577,1531.334,1312.024,1531.334z"/>
				</g>
				<path style="fill:#D3BBA3;" d="M904.981,706.625H593.779c-9.814,0-17.77-7.956-17.77-17.77V671.25
					c0-9.814,7.956-17.77,17.77-17.77h311.202c9.814,0,17.77,7.956,17.77,17.77v17.604
					C922.751,698.669,914.795,706.625,904.981,706.625z"/>
				<path style="fill:#D3BBA3;" d="M1005.149,878.336h-411.37c-9.814,0-17.77-7.956-17.77-17.77v-17.604
					c0-9.814,7.956-17.77,17.77-17.77h411.37c9.814,0,17.77,7.956,17.77,17.77v17.604
					C1022.919,870.38,1014.964,878.336,1005.149,878.336z"/>
				<path style="fill:#D3BBA3;" d="M937.949,1050.048H591.204c-8.392,0-15.195-6.803-15.195-15.195v-22.756
					c0-8.392,6.803-15.195,15.195-15.195h346.745c8.392,0,15.195,6.803,15.195,15.195v22.756
					C953.144,1043.245,946.341,1050.048,937.949,1050.048z"/>
				<path style="fill:#D3BBA3;" d="M904.981,1221.76H593.779c-9.814,0-17.77-7.956-17.77-17.77v-17.604
					c0-9.814,7.956-17.77,17.77-17.77h311.202c9.814,0,17.77,7.956,17.77,17.77v17.604
					C922.751,1213.803,914.795,1221.76,904.981,1221.76z"/>
				<path style="fill:#D3BBA3;" d="M904.981,1393.471H593.779c-9.814,0-17.77-7.956-17.77-17.77v-17.604
					c0-9.814,7.956-17.77,17.77-17.77h311.202c9.814,0,17.77,7.956,17.77,17.77v17.604
					C922.751,1385.515,914.795,1393.471,904.981,1393.471z"/>
				<path style="fill:#D3BBA3;" d="M904.981,1558.437H593.779c-9.814,0-17.77-7.956-17.77-17.77v-17.604
					c0-9.814,7.956-17.77,17.77-17.77h311.202c9.814,0,17.77,7.956,17.77,17.77v17.604
					C922.751,1550.481,914.795,1558.437,904.981,1558.437z"/>
				<path style="fill:#D3BBA3;" d="M1417.489,706.625h-66.63c-9.814,0-17.77-7.956-17.77-17.77V671.25
					c0-9.814,7.956-17.77,17.77-17.77h66.63c9.814,0,17.77,7.956,17.77,17.77v17.604
					C1435.259,698.669,1427.303,706.625,1417.489,706.625z"/>
				<path style="fill:#D3BBA3;" d="M1417.489,878.336h-66.63c-9.814,0-17.77-7.956-17.77-17.77v-17.604
					c0-9.814,7.956-17.77,17.77-17.77h66.63c9.814,0,17.77,7.956,17.77,17.77v17.604
					C1435.259,870.38,1427.303,878.336,1417.489,878.336z"/>
				<path style="fill:#D3BBA3;" d="M1417.489,1050.048h-66.63c-9.814,0-17.77-7.956-17.77-17.77v-17.604
					c0-9.814,7.956-17.77,17.77-17.77h66.63c9.814,0,17.77,7.956,17.77,17.77v17.604
					C1435.259,1042.092,1427.303,1050.048,1417.489,1050.048z"/>
				<path style="fill:#D3BBA3;" d="M1417.489,1221.76h-66.63c-9.814,0-17.77-7.956-17.77-17.77v-17.604
					c0-9.814,7.956-17.77,17.77-17.77h66.63c9.814,0,17.77,7.956,17.77,17.77v17.604
					C1435.259,1213.803,1427.303,1221.76,1417.489,1221.76z"/>
				<path style="fill:#D3BBA3;" d="M1417.489,1393.471h-66.63c-9.814,0-17.77-7.956-17.77-17.77v-17.604
					c0-9.814,7.956-17.77,17.77-17.77h66.63c9.814,0,17.77,7.956,17.77,17.77v17.604
					C1435.259,1385.515,1427.303,1393.471,1417.489,1393.471z"/>
				<path style="fill:#D3BBA3;" d="M1417.489,1558.437h-66.63c-9.814,0-17.77-7.956-17.77-17.77v-17.604
					c0-9.814,7.956-17.77,17.77-17.77h66.63c9.814,0,17.77,7.956,17.77,17.77v17.604
					C1435.259,1550.481,1427.303,1558.437,1417.489,1558.437z"/>
			</g>
		</g>
		<path style="fill:#D3BBA3;" d="M451.923,1698.564c156.862,277.399,455.808,464.818,798.813,464.818
			s641.95-187.419,798.813-464.818H451.923z"/>
		<g>
			<g>
				<path style="fill:#363E44;" d="M790.395,1878.289c61.043-28.096,97.849-128.445,15.737-196.539
					c-43.583-36.142-109.575-42.199-185.897-91.893c-153.779-100.125-200.816-213.631-242.117-192.466
					c-34.611,17.738-28.261,112.686-17.703,164.787c30.012,148.1,152.207,237.753,199.194,269.121
					C579.607,1844.651,694.591,1922.385,790.395,1878.289z"/>
				<path style="fill:#8B865C;" d="M447.29,1437.995c-24.508-32.858-50.881-54.289-75.158-43.408
					c-28.09,12.59-28.1,53.169-19.679,101.007c2.416-16.758,11.908-32.467,22.143-35.126c11.045-2.87,23.299,4.432,30.068,16.556
					c-4.115-17.257,1.697-34.399,13.544-41.865C431.322,1426.895,445.737,1437.156,447.29,1437.995z"/>
				<path style="fill:#8B865C;" d="M384.908,1420.776c-0.354,0-0.696-0.188-0.878-0.52c-10.458-19.102-17.4-40.686-20.074-62.418
					c-4.211-34.205,2.568-62.134,8.996-79.54c0.192-0.518,0.772-0.783,1.285-0.591c0.518,0.191,0.783,0.767,0.592,1.285
					c-6.353,17.198-13.05,44.796-8.889,78.603c2.645,21.484,9.506,42.82,19.844,61.702c0.266,0.485,0.088,1.092-0.397,1.357
					C385.235,1420.736,385.07,1420.776,384.908,1420.776z"/>
				<path style="fill:#40484C;" d="M473.639,1494.292c5.608-5.54,49.856,68.591,146.403,130.026
					c89.021,56.645,158.854,61.994,157.808,70.095c-1.189,9.21-93.365,17.352-177.814-36.443
					C511.766,1601.74,467.416,1500.441,473.639,1494.292z"/>
			</g>
			<g>
				<g>
					<polygon style="fill:#FFFFFF;" points="1514.536,1457.441 1463.291,1377.469 1412.823,1358.835 1384.872,1367.375 
						1346.051,1356.505 1336.733,1316.907 1291.701,1301.379 1252.103,1310.696 1225.704,1285.074 1186.883,1273.427 
						1158.155,1285.85 1142.626,1263.334 1110.016,1272.651 1098.37,1300.603 1057.219,1285.85 1014.516,1291.285 998.211,1323.119 
						953.954,1319.237 926.779,1339.424 914.356,1367.375 853.018,1348.741 814.197,1389.115 806.433,1418.62 762.953,1431.042 
						748.977,1476.075 1037.808,1505.58 1396.518,1494.71 					"/>
					<g>
						<path style="fill:#B77250;" d="M911.681,1690.757h416.412c85.439-50.561,150.933-131.259,181.784-227.493H729.898
							C760.749,1559.499,826.242,1640.197,911.681,1690.757z"/>
						<path style="fill:#FFFFFF;" d="M893.672,1643.496c-0.238,0-0.478-0.085-0.669-0.257c-11.62-10.46-22.759-21.701-33.108-33.409
							c-0.366-0.414-0.327-1.045,0.087-1.411c0.415-0.366,1.047-0.327,1.411,0.087c10.3,11.651,21.385,22.836,32.948,33.247
							c0.41,0.37,0.443,1.002,0.074,1.412C894.218,1643.384,893.945,1643.496,893.672,1643.496z"/>
						<rect x="912.027" y="1674.841" style="fill:#B77250;" width="423.93" height="57.165"/>
					</g>
					<path style="fill:#363E44;" d="M1226.222,1690.852H931.179c-0.553,0-1-0.448-1-1s0.447-1,1-1h295.043c0.553,0,1,0.448,1,1
						S1226.774,1690.852,1226.222,1690.852z"/>
				</g>
			</g>
			<g>
				<path style="fill:#EFBC73;" d="M1289.606,1670.865c14.707,78.43-156.111,131.379-371.501,171.769
					c-215.389,40.389-393.786,52.924-408.493-25.506c-14.707-78.43,139.845-218.124,355.235-258.514
					C1080.236,1518.225,1274.9,1592.435,1289.606,1670.865z"/>
				<path style="fill:#E0AA63;" d="M715.171,1683.464c51.702,35.746,66.233,82.408,75.187,78.539
					c10.382-4.488,5.7-73.648-39.391-116.456c-18.209-17.287-38.68-26.168-54.963-30.91c-22.365,11.023-43.163,22.944-62.14,35.414
					C657.627,1654.656,686.869,1663.898,715.171,1683.464z"/>
				<path style="fill:#E0AA63;" d="M916.823,1718.789c11.793-1.47,24.58-62.388,1.587-116.343
					c-8.669-20.341-20.826-35.932-32.294-47.455c-7.064,1.088-14.155,2.288-21.27,3.622c-21.576,4.046-42.529,9.104-62.776,14.981
					c15.452,8.136,34.794,20.62,53.049,39.747C903.344,1663.866,905.304,1720.221,916.823,1718.789z"/>
				<path style="fill:#E0AA63;" d="M1031.395,1586.136c42.096,58.784,40.385,115.38,52.755,114.926
					c11.885-0.435,26.829-53.171,16.66-103.562c-3.253-16.119-8.733-30.297-15.061-42.488c-28.058-4.531-58.063-7.234-89.408-7.687
					C1007.936,1557.62,1020.124,1570.395,1031.395,1586.136z"/>
				<path style="fill:#FFD092;" d="M776.489,1602.244c0.293,1.561-1.843,3.271-4.769,3.82c-2.926,0.549-5.536-0.272-5.829-1.832
					c-0.293-1.561,1.843-3.271,4.769-3.82C773.587,1599.862,776.196,1600.683,776.489,1602.244z"/>
				<path style="fill:#FFD092;" d="M803.049,1637.553c1.47,0.601,1.748,3.322,0.622,6.078c-1.127,2.756-3.232,4.503-4.701,3.902
					c-1.47-0.601-1.748-3.322-0.622-6.078C799.474,1638.699,801.579,1636.952,803.049,1637.553z"/>
				<path style="fill:#FFD092;" d="M785.073,1615.198c1.02,1.217-0.003,3.754-2.284,5.667s-4.959,2.477-5.979,1.26
					c-1.02-1.217,0.003-3.754,2.285-5.667S784.053,1613.981,785.073,1615.198z"/>
				<path style="fill:#FFD092;" d="M825.531,1632.955c1.576-0.197,3.152,2.039,3.521,4.993c0.369,2.955-0.609,5.509-2.185,5.706
					s-3.152-2.039-3.521-4.993C822.977,1635.706,823.956,1633.151,825.531,1632.955z"/>
				<path style="fill:#FFD092;" d="M805.41,1678.295c1.244-0.988,3.753,0.102,5.604,2.434c1.852,2.332,2.345,5.022,1.101,6.01
					s-3.753-0.102-5.604-2.434C804.659,1681.974,804.166,1679.283,805.41,1678.295z"/>
				<path style="fill:#FFD092;" d="M812.857,1664.656c0.6-1.47,3.321-1.751,6.078-0.626s4.505,3.229,3.906,4.699
					c-0.6,1.47-3.321,1.751-6.078,0.626C814.006,1668.23,812.258,1666.126,812.857,1664.656z"/>
				<path style="fill:#FFD092;" d="M809.67,1620.588c-0.91-1.302,0.331-3.74,2.772-5.445c2.44-1.706,5.156-2.033,6.066-0.732
					c0.91,1.302-0.331,3.74-2.772,5.445C813.296,1621.562,810.58,1621.889,809.67,1620.588z"/>
				<path style="fill:#FFD092;" d="M873.888,1686.088c-1.58,0.156-3.098-2.12-3.39-5.083c-0.292-2.963,0.753-5.492,2.333-5.647
					c1.58-0.156,3.098,2.12,3.39,5.083C876.513,1683.404,875.469,1685.932,873.888,1686.088z"/>
				<path style="fill:#FFD092;" d="M856.161,1700.659c-1.301,0.91-3.74-0.329-5.447-2.769c-1.707-2.44-2.036-5.155-0.735-6.066
					c1.301-0.91,3.74,0.329,5.447,2.769C857.133,1697.033,857.462,1699.749,856.161,1700.659z"/>
				<path style="fill:#FFD092;" d="M852.761,1651.171c-0.638,1.454-3.366,1.663-6.092,0.467c-2.727-1.196-4.42-3.345-3.782-4.799
					c0.638-1.454,3.365-1.663,6.092-0.467C851.706,1647.568,853.399,1649.717,852.761,1651.171z"/>
				<path style="fill:#FFD092;" d="M852.551,1666.71c0.157,1.58-2.118,3.1-5.081,3.394c-2.963,0.294-5.492-0.749-5.649-2.329
					c-0.157-1.58,2.118-3.1,5.081-3.394C849.865,1664.087,852.394,1665.13,852.551,1666.71z"/>
				<path style="fill:#FFD092;" d="M875.963,1704.181c1.413,0.726,1.455,3.461,0.094,6.109c-1.36,2.648-3.608,4.207-5.021,3.482
					c-1.412-0.726-1.455-3.461-0.094-6.109C872.302,1705.014,874.55,1703.455,875.963,1704.181z"/>
				<path style="fill:#FFD092;" d="M815.488,1715.802c1.47,0.601,1.748,3.322,0.622,6.078c-1.127,2.756-3.232,4.503-4.702,3.902
					c-1.47-0.601-1.748-3.322-0.621-6.078C811.913,1716.948,814.018,1715.201,815.488,1715.802z"/>
				<path style="fill:#FFD092;" d="M837.97,1711.204c1.576-0.197,3.152,2.039,3.521,4.993c0.369,2.955-0.609,5.509-2.185,5.706
					s-3.152-2.039-3.521-4.993S836.394,1711.401,837.97,1711.204z"/>
				<path style="fill:#FFD092;" d="M817.848,1756.545c1.244-0.988,3.753,0.102,5.604,2.434c1.852,2.332,2.345,5.022,1.101,6.01
					c-1.244,0.988-3.753-0.102-5.604-2.434C817.098,1760.223,816.605,1757.532,817.848,1756.545z"/>
				<path style="fill:#FFD092;" d="M825.296,1742.905c0.6-1.47,3.321-1.75,6.078-0.626c2.757,1.125,4.505,3.229,3.906,4.699
					c-0.6,1.47-3.321,1.75-6.078,0.626C826.445,1746.479,824.696,1744.376,825.296,1742.905z"/>
				<path style="fill:#FFD092;" d="M822.109,1698.837c-0.91-1.302,0.331-3.74,2.772-5.445c2.44-1.706,5.156-2.033,6.066-0.732
					c0.91,1.302-0.331,3.74-2.772,5.445C825.734,1699.811,823.019,1700.139,822.109,1698.837z"/>
				<path style="fill:#FFD092;" d="M979.249,1691.301c0.981-1.248-0.121-3.752-2.461-5.592c-2.341-1.84-5.034-2.32-6.015-1.071
					c-0.981,1.248,0.121,3.752,2.461,5.592C975.574,1692.07,978.268,1692.55,979.249,1691.301z"/>
				<path style="fill:#FFD092;" d="M1001.069,1684.196c1.467-0.607,1.734-3.33,0.596-6.081c-1.138-2.751-3.251-4.49-4.718-3.882
					c-1.467,0.607-1.734,3.33-0.596,6.081C997.489,1683.065,999.601,1684.803,1001.069,1684.196z"/>
				<path style="fill:#FFD092;" d="M961.18,1654.708c1.569,0.245,3.213-1.942,3.671-4.884c0.459-2.942-0.442-5.525-2.011-5.77
					c-1.569-0.245-3.213,1.942-3.671,4.884C958.711,1651.88,959.611,1654.464,961.18,1654.708z"/>
				<path style="fill:#FFD092;" d="M974.392,1662.89c1.248,0.982,3.752-0.118,5.594-2.458c1.842-2.339,2.323-5.032,1.076-6.015
					c-1.248-0.982-3.752,0.118-5.594,2.458C973.626,1659.215,973.144,1661.908,974.392,1662.89z"/>
				<path style="fill:#FFD092;" d="M993.385,1702.783c-0.148,1.581,2.135,3.088,5.099,3.366c2.965,0.278,5.488-0.778,5.636-2.359
					c0.148-1.581-2.135-3.088-5.099-3.366C996.056,1700.146,993.533,1701.202,993.385,1702.783z"/>
				<path style="fill:#FFD092;" d="M1016.876,1614.113c-1.451,0.645-1.647,3.374-0.437,6.094c1.21,2.721,3.366,4.403,4.818,3.758
					c1.451-0.645,1.647-3.374,0.437-6.094C1020.484,1615.151,1018.327,1613.468,1016.876,1614.113z"/>
				<path style="fill:#FFD092;" d="M994.266,1610.198c-1.581-0.149-3.089,2.133-3.369,5.098c-0.279,2.964,0.776,5.488,2.357,5.637
					s3.089-2.133,3.369-5.098C996.902,1612.87,995.846,1610.347,994.266,1610.198z"/>
				<path style="fill:#FFD092;" d="M1015.75,1654.909c-1.273-0.949-3.748,0.216-5.528,2.602c-1.78,2.387-2.191,5.091-0.919,6.041
					s3.748-0.216,5.528-2.602C1016.611,1658.563,1017.023,1655.858,1015.75,1654.909z"/>
				<path style="fill:#FFD092;" d="M1007.893,1641.501c-0.644-1.451-3.372-1.649-6.094-0.442c-2.722,1.208-4.406,3.363-3.762,4.815
					c0.644,1.452,3.372,1.649,6.094,0.442C1006.853,1645.108,1008.537,1642.953,1007.893,1641.501z"/>
				<path style="fill:#FFD092;" d="M1009.745,1597.356c0.87-1.329-0.444-3.728-2.935-5.359c-2.491-1.631-5.216-1.876-6.085-0.548
					c-0.87,1.328,0.444,3.728,2.935,5.359C1006.15,1598.44,1008.875,1598.685,1009.745,1597.356z"/>
				<path style="fill:#FFD092;" d="M951.42,1617.118c0.981-1.249-0.121-3.752-2.461-5.592c-2.341-1.84-5.034-2.32-6.015-1.071
					s0.121,3.752,2.461,5.592C947.745,1617.886,950.439,1618.366,951.42,1617.118z"/>
				<path style="fill:#FFD092;" d="M973.24,1610.013c1.467-0.607,1.734-3.33,0.596-6.081c-1.138-2.751-3.251-4.49-4.718-3.882
					c-1.467,0.607-1.734,3.33-0.596,6.081C969.66,1608.882,971.772,1610.62,973.24,1610.013z"/>
				<path style="fill:#FFD092;" d="M933.351,1580.525c1.569,0.245,3.213-1.942,3.671-4.884c0.459-2.942-0.442-5.525-2.011-5.77
					c-1.569-0.245-3.213,1.942-3.671,4.884C930.882,1577.697,931.782,1580.28,933.351,1580.525z"/>
				<path style="fill:#FFD092;" d="M946.563,1588.706c1.248,0.982,3.752-0.118,5.594-2.458c1.842-2.339,2.323-5.032,1.076-6.015
					c-1.248-0.982-3.752,0.118-5.594,2.458C945.797,1585.031,945.315,1587.724,946.563,1588.706z"/>
				<path style="fill:#FFD092;" d="M965.556,1628.599c-0.148,1.581,2.135,3.088,5.099,3.366c2.964,0.278,5.488-0.778,5.636-2.359
					c0.148-1.581-2.135-3.088-5.099-3.366C968.227,1625.962,965.704,1627.018,965.556,1628.599z"/>
			</g>
			<g>
				<polygon style="fill:#B77250;" points="1928.84,1058.556 1800.313,1058.556 1779.328,872.602 1949.825,872.602 				"/>
				<path style="fill:#363E44;" d="M2070.822,1774.662H1666.63c-0.508,0-0.935-0.38-0.993-0.885l-41.97-362.225
					c-0.037-0.321,0.083-0.641,0.323-0.857l139.166-125.636l16.056-238.529l-36.961-72.292c-0.158-0.31-0.145-0.68,0.038-0.977
					c0.182-0.297,0.504-0.478,0.853-0.478h209.2c0.526,0,0.962,0.408,0.998,0.933l20.957,311.343l139.164,125.636
					c0.24,0.217,0.36,0.536,0.323,0.857l-41.969,362.225C2071.757,1774.282,2071.33,1774.662,2070.822,1774.662z M1667.521,1772.662
					h402.411l41.807-360.828l-139.082-125.562c-0.192-0.174-0.311-0.416-0.328-0.675l-20.921-310.814h-206.631l36.343,71.083
					c0.082,0.161,0.119,0.342,0.107,0.522l-16.102,239.209c-0.018,0.259-0.135,0.501-0.328,0.675l-139.084,125.562
					L1667.521,1772.662z"/>
				<path style="fill:#363E44;" d="M1971.788,1264.653c-0.374,0-0.732-0.21-0.903-0.57c-0.238-0.499-0.026-1.095,0.473-1.333
					c50.094-23.863,88.002-50.098,112.672-77.977c25.797-29.154,37.135-59.774,34.659-93.61
					c-2.061-28.168-29.867-45.246-52.831-54.613c-28.926-11.802-65.78-17.786-109.539-17.786c-0.104,0-0.207,0-0.312,0
					c-0.001,0-0.001,0-0.001,0c-0.552,0-1-0.447-1-1c0-0.552,0.447-1,0.999-1c0.103,0,0.211,0,0.313,0
					c44.022,0,81.126,6.033,110.295,17.934c23.487,9.58,51.935,27.127,54.069,56.319c2.517,34.401-8.982,65.503-35.155,95.081
					c-24.85,28.082-62.973,54.479-113.311,78.458C1972.078,1264.622,1971.932,1264.653,1971.788,1264.653z"/>
				<path style="fill:#363E44;" d="M1993.468,1302.607c-0.372,0-0.729-0.208-0.901-0.565c-0.24-0.497-0.032-1.095,0.465-1.335
					c54.218-26.198,95.847-55.458,123.73-86.969c33.535-37.898,48.849-80.211,45.516-125.764
					c-2.882-39.413-31.262-72.047-79.91-91.893c-35.207-14.365-80.373-21.785-130.569-21.432c-0.002,0-0.005,0-0.007,0
					c-0.549,0-0.996-0.443-1-0.993c-0.004-0.552,0.44-1.003,0.993-1.007c50.443-0.358,95.89,7.117,131.339,21.58
					c49.39,20.147,78.208,53.388,81.148,93.599c3.374,46.109-12.106,88.917-46.012,127.234c-28.061,31.71-69.9,61.13-124.357,87.444
					C1993.762,1302.575,1993.613,1302.607,1993.468,1302.607z"/>
				<polygon style="fill:#8B865C;" points="1946.134,1246.562 1791.318,1246.562 1786.243,1317.757 1661.577,1428.815 
					1697.198,1736.251 2040.253,1736.251 2075.875,1428.815 1951.209,1317.757 				"/>
				<polygon style="fill:#9E9569;" points="1702.598,1425.944 1716.954,1559.257 1755.923,1557.206 1766.178,1425.944 				"/>
				<polygon style="fill:#9E9569;" points="1716.726,1574.07 1721.284,1616.912 1751.365,1614.178 1754.1,1571.791 				"/>
			</g>
			<g>
				<g>
					<path style="fill:#8B865C;" d="M1484.959,1212.491c0,0-16.745-59.784-64.369-105.336
						c-47.624-45.552-108.093-59.623-108.093-59.623s16.745,59.784,64.369,105.336S1484.959,1212.491,1484.959,1212.491z"/>
					<path style="fill:#776E42;" d="M1484.801,1211.954c0.099,0.331,0.158,0.536,0.158,0.536s-60.469-14.07-108.093-59.622
						c-47.625-45.553-64.369-105.337-64.369-105.337s0.208,0.05,0.542,0.134L1484.801,1211.954z"/>
				</g>
				<g>
					<path style="fill:#8B865C;" d="M1510.406,1317.344c0,0-31.707-53.377-89.534-84.987
						c-57.826-31.609-119.874-29.481-119.874-29.481s31.707,53.377,89.534,84.987
						C1448.358,1319.472,1510.406,1317.344,1510.406,1317.344z"/>
					<path style="fill:#776E42;" d="M1510.114,1316.867c0.182,0.294,0.292,0.477,0.292,0.477s-62.048,2.129-119.874-29.481
						c-57.827-31.61-89.534-84.987-89.534-84.987s0.213-0.006,0.558-0.012L1510.114,1316.867z"/>
				</g>
				<g>
					<path style="fill:#8B865C;" d="M1569.701,1407.618c0,0-55.143-28.526-120.937-24.762
						c-65.794,3.764-117.325,38.392-117.325,38.392s55.143,28.526,120.938,24.762
						C1518.17,1442.246,1569.701,1407.618,1569.701,1407.618z"/>
					<path style="fill:#776E42;" d="M1569.201,1407.368c0.31,0.153,0.5,0.25,0.5,0.25s-51.53,34.628-117.324,38.392
						c-65.795,3.764-120.938-24.762-120.938-24.762s0.178-0.118,0.467-0.305L1569.201,1407.368z"/>
				</g>
				<g>
					<path style="fill:#8B865C;" d="M1611.965,1578.281c0,0-35.437-50.978-95.372-78.378
						c-59.935-27.401-121.673-20.848-121.673-20.848s35.437,50.978,95.372,78.378S1611.965,1578.281,1611.965,1578.281z"/>
					<path style="fill:#776E42;" d="M1611.64,1577.826c0.203,0.28,0.325,0.454,0.325,0.454s-61.738,6.553-121.673-20.848
						c-59.936-27.401-95.372-78.379-95.372-78.379s0.212-0.021,0.556-0.052L1611.64,1577.826z"/>
				</g>
				<g>
					<path style="fill:#8B865C;" d="M1493.269,1264.894c0,0,60.637-13.329,108.815-58.294s65.655-104.539,65.655-104.539
						s-60.637,13.329-108.815,58.294C1510.745,1205.32,1493.269,1264.894,1493.269,1264.894z"/>
					<path style="fill:#776E42;" d="M1493.813,1264.767c-0.336,0.081-0.544,0.128-0.544,0.128s17.476-59.574,65.654-104.539
						c48.179-44.966,108.816-58.294,108.816-58.294s-0.061,0.204-0.164,0.533L1493.813,1264.767z"/>
				</g>
				<g>
					<path style="fill:#8B865C;" d="M1532.194,1360.905c0,0,61.514-8.4,113.159-49.337c51.645-40.937,73.865-98.909,73.865-98.909
						s-61.514,8.4-113.159,49.337C1554.413,1302.933,1532.194,1360.905,1532.194,1360.905z"/>
					<path style="fill:#776E42;" d="M1532.747,1360.822c-0.341,0.053-0.553,0.083-0.553,0.083s22.219-57.972,73.864-98.909
						c51.646-40.937,113.159-49.337,113.159-49.337s-0.077,0.199-0.206,0.518L1532.747,1360.822z"/>
				</g>
				<g>
					<path style="fill:#8B865C;" d="M1589.385,1427.282c0,0,61.514-8.4,113.159-49.337c51.645-40.937,73.865-98.909,73.865-98.909
						s-61.514,8.4-113.159,49.337C1611.605,1369.31,1589.385,1427.282,1589.385,1427.282z"/>
					<path style="fill:#776E42;" d="M1589.938,1427.199c-0.341,0.053-0.553,0.083-0.553,0.083s22.219-57.972,73.864-98.909
						c51.646-40.938,113.159-49.337,113.159-49.337s-0.077,0.199-0.206,0.518L1589.938,1427.199z"/>
				</g>
				<path style="fill:#363E44;" d="M1537.269,1674.619c-0.268,0-0.534-0.106-0.731-0.318c-0.376-0.403-0.354-1.036,0.049-1.413
					c64.419-60.131,93.828-117.292,87.41-169.893c-4.397-36.045-24.579-59.032-47.947-85.648
					c-16.274-18.537-34.721-39.547-50.948-68.372c-38.051-67.59-48.881-153.098-32.188-254.148c0.09-0.545,0.597-0.911,1.149-0.824
					c0.545,0.09,0.913,0.605,0.823,1.15c-16.616,100.59-5.864,185.658,31.957,252.841c16.126,28.644,34.499,49.57,50.709,68.034
					c23.587,26.865,43.957,50.067,48.429,86.726c6.501,53.271-23.117,111.005-88.029,171.597
					C1537.758,1674.53,1537.513,1674.619,1537.269,1674.619z"/>
				<path style="fill:#363E44;" d="M1493.898,1095.989c-0.001,0-0.002,0-0.002,0c-0.288,0-0.563-0.125-0.752-0.343l-83.476-95.76
					c-0.363-0.417-0.319-1.048,0.097-1.411c0.414-0.362,1.047-0.32,1.411,0.097l82.726,94.899l67.677-76.926
					c0.367-0.415,0.999-0.454,1.411-0.09c0.415,0.365,0.455,0.997,0.091,1.412l-68.432,77.784
					C1494.459,1095.866,1494.186,1095.989,1493.898,1095.989z"/>
				<path style="fill:#363E44;" d="M1493.853,1093.957c-0.518,0-0.956-0.399-0.996-0.923l-8.103-105.231
					c-0.042-0.551,0.37-1.031,0.92-1.074c0.563-0.044,1.031,0.371,1.074,0.92l8.103,105.231c0.042,0.551-0.37,1.031-0.92,1.074
					C1493.904,1093.956,1493.878,1093.957,1493.853,1093.957z"/>
				<g>
					
						<ellipse transform="matrix(0.7942 -0.6077 0.6077 0.7942 -305.4961 1042.6932)" style="fill:#363E44;" cx="1386.437" cy="972.309" rx="41.692" ry="64.695"/>
					<path style="fill:#FFFFFF;" d="M1349.036,936.534c-1.844,0.392-2.255,17.177,3.795,33.471
						c12.542,33.78,47.05,49.815,48.356,48.241c1.054-1.27-19.989-13.344-36.025-42.413
						C1353.394,954.502,1350.997,936.117,1349.036,936.534z"/>
				</g>
				<g>
					
						<ellipse transform="matrix(0.9936 -0.1126 0.1126 0.9936 -97.2607 173.0199)" style="fill:#363E44;" cx="1483.507" cy="947.78" rx="41.692" ry="64.695"/>
					<path style="fill:#FFFFFF;" d="M1469.839,897.862c-1.783-0.612-10.77,13.569-13.964,30.654
						c-6.623,35.42,14.719,66.922,16.648,66.244c1.557-0.547-10.276-21.726-9.073-54.903
						C1464.333,915.511,1471.735,898.513,1469.839,897.862z"/>
				</g>
				<g>
					
						<ellipse transform="matrix(0.7084 -0.7059 0.7059 0.7084 -249.0513 1404.6361)" style="fill:#9E9569;" cx="1575.249" cy="1003.699" rx="64.695" ry="41.692"/>
					<path style="fill:#FFFFFF;" d="M1605.853,961.962c-0.629-1.777-17.324-0.001-32.692,8.117
						c-31.862,16.83-43.271,53.13-41.54,54.221c1.396,0.88,10.63-21.555,37.366-41.237
						C1588.605,968.62,1606.522,963.852,1605.853,961.962z"/>
				</g>
			</g>
			<g>
				<polygon style="fill:#EFBC73;" points="1851.085,1855.194 1336.38,1952.717 1336.38,1641.352 1851.085,1543.829 				"/>
				<polygon style="fill:#E0AA63;" points="1336.38,1641.352 1542.897,1457.075 1851.615,1543.653 1336.38,1952.717 				"/>
				<polygon style="fill:#EFBC73;" points="1336.38,1641.352 1851.085,1543.829 1851.085,1855.194 1336.38,1952.717 				"/>
				<g>
					<path style="fill:#E0AA63;" d="M1763.183,1649.824c-0.496,10.661-1.059,23.035-21.976,31.772
						c-2.501,1.045-8.097,1.8-10.624,1.199c-14.92-3.55-26.017-16.964-26.017-32.971c0-16.028,11.126-29.457,26.076-32.985
						c2.508-0.592,6.182-0.495,8.711,0.419C1758.417,1624.142,1763.712,1638.439,1763.183,1649.824z"/>
					<path style="fill:#FFD092;" d="M1738.456,1615.934c-2.806,0-5.518,0.379-8.127,1.022c14.785,3.646,25.764,16.958,25.764,32.868
						c0,15.911-10.979,29.223-25.764,32.869c2.609,0.643,5.321,1.022,8.127,1.022c18.717,0,33.891-15.174,33.891-33.891
						C1772.347,1631.107,1757.173,1615.934,1738.456,1615.934z"/>
				</g>
				<g>
					<path style="fill:#E0AA63;" d="M1675.454,1741.352c-0.65,13.968-1.388,30.178-28.79,41.625
						c-3.277,1.369-10.608,2.358-13.919,1.571c-19.547-4.65-34.085-22.225-34.085-43.195c0-20.998,14.576-38.591,34.163-43.214
						c3.286-0.776,8.099-0.648,11.413,0.548C1669.21,1707.706,1676.147,1726.437,1675.454,1741.352z"/>
					<path style="fill:#FFD092;" d="M1643.059,1696.952c-3.677,0-7.229,0.497-10.647,1.339c19.37,4.777,33.753,22.216,33.753,43.06
						c0,20.845-14.384,38.285-33.753,43.061c3.418,0.842,6.97,1.339,10.647,1.339c24.521,0,44.401-19.879,44.401-44.401
						C1687.46,1716.831,1667.581,1696.952,1643.059,1696.952z"/>
				</g>
				<g>
					<path style="fill:#E0AA63;" d="M1478.499,1733.144c-0.39,8.387-0.833,18.121-17.288,24.994
						c-1.968,0.822-6.37,1.416-8.358,0.943c-11.737-2.792-20.467-13.345-20.467-25.937c0-12.609,8.753-23.173,20.513-25.948
						c1.973-0.466,4.863-0.389,6.853,0.329C1474.75,1712.941,1478.915,1724.188,1478.499,1733.144z"/>
					<path style="fill:#FFD092;" d="M1459.047,1706.484c-2.208,0-4.341,0.298-6.393,0.804c11.631,2.868,20.268,13.34,20.268,25.856
						c0,12.517-8.637,22.989-20.268,25.857c2.052,0.506,4.185,0.804,6.393,0.804c14.724,0,26.661-11.937,26.661-26.661
						C1485.708,1718.42,1473.771,1706.484,1459.047,1706.484z"/>
				</g>
				<g>
					<path style="fill:#E0AA63;" d="M1454.621,1842.343c-0.479,10.292-1.022,22.237-21.214,30.671
						c-2.414,1.009-7.817,1.738-10.256,1.157c-14.403-3.427-25.116-16.377-25.116-31.829c0-15.473,10.741-28.436,25.173-31.842
						c2.422-0.571,5.968-0.478,8.409,0.404C1450.02,1817.551,1455.132,1831.353,1454.621,1842.343z"/>
					<path style="fill:#FFD092;" d="M1430.751,1809.627c-2.709,0-5.327,0.366-7.845,0.987c14.273,3.52,24.871,16.37,24.871,31.729
						c0,15.36-10.599,28.21-24.871,31.73c2.518,0.621,5.136,0.987,7.845,0.987c18.069,0,32.717-14.648,32.717-32.717
						C1463.468,1824.275,1448.82,1809.627,1430.751,1809.627z"/>
				</g>
				<g>
					<path style="fill:#E0AA63;" d="M1771.656,1818.48c-0.353,7.58-0.753,16.376-15.623,22.588c-1.778,0.743-5.757,1.28-7.553,0.852
						c-10.607-2.524-18.496-12.061-18.496-23.44c0-11.395,7.91-20.942,18.538-23.45c1.783-0.421,4.395-0.352,6.193,0.298
						C1768.268,1800.222,1772.033,1810.386,1771.656,1818.48z"/>
					<path style="fill:#FFD092;" d="M1754.077,1794.386c-1.995,0-3.923,0.27-5.778,0.727c10.511,2.592,18.316,12.056,18.316,23.367
						c0,11.312-7.806,20.775-18.316,23.367c1.855,0.457,3.782,0.727,5.778,0.727c13.307,0,24.094-10.787,24.094-24.094
						C1778.172,1805.174,1767.384,1794.386,1754.077,1794.386z"/>
				</g>
			</g>
			<g>
				<path style="fill:#F7F1EB;" d="M1435.547,1994.332c85.375,14.272,158.302-1.536,172.974-84.157
					c12.815-72.164-50.821-121.57-136.196-135.843c-85.375-14.272-166.876,39.584-172.974,84.158
					C1292.582,1907.972,1350.172,1980.059,1435.547,1994.332z"/>
				<path style="fill:#F7F1EB;" d="M1179.801,2015.705c86.279-6.967,153.153-40.074,147.245-123.78
					c-5.16-73.111-78.92-105.517-165.198-98.55s-152.195,79.064-147.245,123.78
					C1020.098,1966.796,1093.522,2022.672,1179.801,2015.705z"/>
				<path style="fill:#FFFFFF;" d="M1305.482,2040.666c85.448,13.827,158.149-1.482,171.958-81.506
					c12.061-69.895-52.029-117.75-137.478-131.577s-166.324,38.334-171.958,81.506
					C1161.751,1957.015,1220.034,2026.839,1305.482,2040.666z"/>
			</g>
			<g>
				<path style="fill:#776E42;" d="M683.322,1957.421c19.799-0.482,58.559,1.258,100.848,22.138
					c51.003,25.182,102.015,119.54,112.477,136.546c20.663-15.803,41.69-66.594,62.354-82.398
					c-15.258-13.372-65.301-60.395-80.975-101.366c-26.95-70.438-5.083-133.437,1.511-150.569
					c-11.329-0.67-88.63-3.945-146.121,56.491C688.376,1885.611,684.007,1942.089,683.322,1957.421z"/>
				<path style="fill:#9E9569;" d="M882.839,1752.638c-17.728-23.179-50.889-27.601-74.069-9.873
					c-8.923,6.824-15.034,15.943-18.203,25.891c-0.395-0.612-0.795-1.22-1.244-1.807c-9.002-11.77-25.836-14.012-37.604-5.012
					c-4.043,3.092-6.933,7.119-8.658,11.536c-21.624-26.028-60.129-30.565-87.252-9.821c-27.816,21.273-33.119,61.067-11.846,88.882
					c0.33,0.432,0.679,0.843,1.016,1.263c-7.814,11.127-8.557,26.107-1.332,38.091c-0.966,0.638-1.938,1.261-2.872,1.975
					c-22.11,16.91-26.325,48.54-9.415,70.651c16.909,22.109,48.539,26.324,70.649,9.415c8.942-6.839,14.901-16.099,17.776-26.151
					c15.77,10.688,37.213,10.703,53.177-1.506c9.124-6.978,14.831-16.739,16.928-27.18c14.536,13.261,36.895,14.671,53.074,2.297
					c14.521-11.106,19.626-29.924,14.024-46.322c4.263-1.441,8.374-3.555,12.144-6.438c15.861-12.131,20.698-33.281,12.907-50.753
					C896.921,1799.257,897.917,1772.353,882.839,1752.638z"/>
				<path style="fill:#8B865C;" d="M673.916,1973.934c-15.474,0-30.78-6.941-40.885-20.153c-8.488-11.099-11.823-22.343-9.913-33.42
					c1.837-10.648,8.726-20.803,19.922-29.366c0.654-0.5,4.887-3.227,9.165-5.976c0.625-0.401,1.172-0.753,1.591-1.023
					c-6.731-11.569-11.63-28.488-4.354-40.029c-0.384-0.202-0.847-0.434-1.21-0.616c-1.831-0.917-2.327-1.194-2.599-1.549
					c-21.574-28.208-16.176-68.709,12.033-90.284c27.115-20.736,65.256-16.815,87.571,8.736c1.893-4.118,4.752-7.707,8.339-10.45
					c5.903-4.515,13.205-6.462,20.579-5.479c7.367,0.981,13.911,4.774,18.426,10.678c0.05,0.064,0.099,0.129,0.147,0.194
					c3.502-9.736,9.659-18.164,17.898-24.466c23.579-18.033,57.435-13.521,75.471,10.06c14.956,19.555,14.749,46.564-0.436,65.896
					c7.839,18.246,2.355,39.304-13.456,51.397c-3.457,2.644-7.32,4.748-11.496,6.263c5.385,17.035-0.439,35.611-14.673,46.497
					c-15.864,12.132-37.91,11.537-53.068-1.224c-2.486,10.4-8.453,19.622-16.934,26.108c-15.553,11.894-36.768,12.752-53.213,2.284
					c-3.19,10.167-9.302,18.918-17.74,25.372C695.783,1970.494,684.808,1973.933,673.916,1973.934z M647.174,1840.522
					c0.275,0.199,1.279,0.702,1.953,1.039c1.753,0.877,2.229,1.143,2.497,1.475c0.279,0.347,0.295,0.837,0.039,1.202
					c-7.252,10.326-3.046,27.309,4.34,39.559c0.277,0.459,0.142,1.056-0.306,1.351c-0.268,0.176-1.192,0.77-2.411,1.553
					c-2.931,1.883-8.387,5.389-9.031,5.882c-10.789,8.251-17.416,17.974-19.166,28.118c-1.812,10.506,1.394,21.227,9.53,31.865
					c16.548,21.636,47.614,25.776,69.248,9.228c8.451-6.463,14.475-15.327,17.421-25.631c0.089-0.308,0.319-0.556,0.62-0.665
					c0.304-0.108,0.639-0.067,0.903,0.112c15.88,10.764,36.78,10.172,52.009-1.473c8.546-6.537,14.425-15.977,16.555-26.583
					c0.071-0.354,0.327-0.641,0.669-0.753c0.346-0.112,0.721-0.032,0.985,0.211c14.46,13.192,36.24,14.133,51.793,2.241
					c13.813-10.564,19.313-28.73,13.685-45.204c-0.086-0.251-0.068-0.527,0.049-0.765c0.118-0.238,0.325-0.42,0.577-0.505
					c4.328-1.463,8.317-3.578,11.857-6.285c15.234-11.651,20.416-32.027,12.601-49.551c-0.153-0.342-0.102-0.741,0.134-1.034
					c14.979-18.643,15.303-44.92,0.784-63.904c-17.366-22.705-49.964-27.05-72.668-9.686c-8.448,6.461-14.623,15.245-17.856,25.4
					c-0.118,0.369-0.438,0.637-0.821,0.688c-0.379,0.054-0.763-0.124-0.973-0.45c-0.348-0.539-0.755-1.163-1.197-1.74
					c-4.191-5.48-10.265-9-17.102-9.911c-6.833-0.909-13.618,0.895-19.1,5.086c-3.729,2.853-6.611,6.692-8.334,11.105
					c-0.129,0.33-0.423,0.567-0.771,0.624c-0.354,0.056-0.702-0.077-0.93-0.348c-21.463-25.834-59.184-30.078-85.875-9.666
					C631.571,1773.994,626.328,1813.193,647.174,1840.522z"/>
				<path style="fill:#9E9569;" d="M821.356,1979.116c-1.662,0-4.419-1.977-9.762-5.808c-5.982-4.29-15.024-10.773-26.713-17.115
					c-13.26-7.192-27.434-12.87-42.128-16.874c-0.533-0.145-0.848-0.695-0.702-1.228c0.144-0.534,0.7-0.846,1.227-0.702
					c14.844,4.045,29.161,9.78,42.556,17.046c11.8,6.401,20.902,12.928,26.926,17.248c3.659,2.624,7.131,5.113,8.338,5.389
					c-0.06-2.831-9.901-17.361-24.463-29.899c-9.691-8.344-20.757-15.125-32.89-20.154c-0.511-0.211-0.753-0.796-0.541-1.307
					c0.211-0.511,0.799-0.751,1.307-0.541c12.329,5.11,23.576,12.002,33.429,20.486c13.309,11.459,24.946,26.85,25.139,31.413
					c0.027,0.647-0.143,1.163-0.506,1.533C822.237,1978.946,821.844,1979.116,821.356,1979.116z"/>
				<path style="fill:#9E9569;" d="M853.4,1958.918c-4.9,0-15.361-14.332-20.066-22.861c-6.048-10.963-9.626-23.239-10.634-36.489
					c-0.042-0.55,0.37-1.031,0.921-1.073c0.569-0.042,1.031,0.371,1.073,0.921c0.986,12.961,4.483,24.964,10.392,35.674
					c7.189,13.032,16.708,22.629,18.335,21.835c0.849-0.763-1.05-7.068-2.575-12.134c-1.13-3.751-2.41-8.002-3.52-12.545
					c-4.646-19.028-5.295-39.79-1.927-61.708c0.084-0.545,0.597-0.919,1.14-0.836c0.546,0.084,0.921,0.594,0.837,1.14
					c-3.327,21.659-2.69,42.158,1.893,60.93c1.097,4.491,2.368,8.716,3.491,12.443c2.559,8.499,3.968,13.18,1.621,14.465
					C854.088,1958.842,853.759,1958.918,853.4,1958.918z"/>
				<path style="fill:#8B865C;" d="M731.091,1927.203c-0.267,0-0.532-0.106-0.729-0.315c-6.946-7.396-11.164-17.054-11.875-27.194
					c-1.709-24.355,16.715-45.56,41.069-47.27c4.221-0.297,8.439,0.005,12.534,0.896c0.539,0.117,0.882,0.65,0.765,1.189
					c-0.118,0.54-0.643,0.883-1.191,0.765c-3.907-0.85-7.933-1.139-11.968-0.855c-23.255,1.632-40.847,21.879-39.216,45.135
					c0.68,9.682,4.707,18.903,11.338,25.965c0.379,0.402,0.358,1.036-0.044,1.414
					C731.582,1927.113,731.337,1927.203,731.091,1927.203z"/>
				<g>
					<path style="fill:#8B865C;" d="M741.797,1859.083c-0.399,0-0.777-0.242-0.932-0.637c-1.123-2.875-1.95-5.892-2.456-8.967
						c-2.173-13.188,1.663-26.503,10.523-36.532c0.366-0.414,0.997-0.452,1.411-0.087c0.414,0.366,0.453,0.998,0.087,1.412
						c-8.46,9.576-12.122,22.29-10.049,34.882c0.484,2.938,1.273,5.819,2.347,8.565c0.201,0.514-0.054,1.094-0.567,1.295
						C742.041,1859.06,741.918,1859.083,741.797,1859.083z"/>
				</g>
				<path style="fill:#8B865C;" d="M690.335,1906.785c-0.162,0-0.326-0.039-0.479-0.123c-14.406-7.872-22.01-24.581-18.49-40.633
					c3.725-16.986,18.979-29.257,36.323-29.257c0.079,0,0.157,0,0.237,0.001c0.552,0.003,0.997,0.454,0.993,1.006
					c-0.004,0.55-0.45,0.994-1,0.994c-0.051,0.006-0.153,0-0.23-0.001c-16.413,0-30.846,11.61-34.37,27.686
					c-3.33,15.189,3.864,31,17.496,38.449c0.484,0.265,0.663,0.872,0.398,1.357C691.032,1906.597,690.688,1906.785,690.335,1906.785
					z"/>
				<path style="fill:#8B865C;" d="M853.611,1826.759c-0.469,0-0.887-0.33-0.98-0.807c-0.61-3.104-1.665-6.114-3.135-8.947
					c-4.108-7.921-11.055-13.768-19.561-16.464c-8.507-2.697-17.554-1.917-25.474,2.19c-6.808,3.531-12.231,9.344-15.27,16.369
					c-0.218,0.506-0.802,0.741-1.315,0.521c-0.507-0.219-0.739-0.808-0.521-1.315c3.221-7.446,8.969-13.607,16.186-17.35
					c8.396-4.354,17.981-5.178,26.998-2.321c9.015,2.857,16.378,9.055,20.732,17.45c1.558,3.001,2.675,6.192,3.322,9.482
					c0.106,0.542-0.247,1.067-0.788,1.174C853.74,1826.753,853.675,1826.759,853.611,1826.759z"/>
				<g>
					<path style="fill:#8B865C;" d="M645.141,1954.901c-0.068,0-0.138-0.007-0.207-0.021c-0.54-0.113-0.886-0.644-0.773-1.184
						c0.459-2.187,1.168-4.331,2.108-6.373c4.021-8.754,11.939-15.039,21.725-17.242c0.538-0.119,1.074,0.217,1.195,0.756
						s-0.217,1.074-0.756,1.195c-9.172,2.064-16.588,7.942-20.347,16.126c-0.877,1.907-1.539,3.908-1.968,5.948
						C646.019,1954.578,645.604,1954.901,645.141,1954.901z"/>
				</g>
			</g>
			<g>
				<path style="fill:#776E42;" d="M795.568,1866.609c18.031,8.193,52.16,26.648,81.126,63.868
					c34.934,44.889,39.736,152.046,41.742,171.911c25.484-5.221,66.541-41.775,92.026-46.996
					c-7.907-18.684-32.46-82.814-28.717-126.521c6.434-75.143,53.566-122.318,66.966-134.866
					c-9.905-5.54-78.056-42.169-156.135-12.821C831.406,1804.177,802.865,1853.108,795.568,1866.609z"/>
				<path style="fill:#9E9569;" d="M1064.377,1769.221c-5.857-28.588-33.778-47.016-62.366-41.16
					c-11.005,2.255-20.479,7.799-27.665,15.373c-0.088-0.723-0.184-1.445-0.332-2.168c-2.974-14.516-17.15-23.869-31.663-20.896
					c-4.987,1.022-9.342,3.386-12.819,6.611c-8.122-32.849-40.803-53.71-74.255-46.857c-34.306,7.028-56.418,40.535-49.39,74.839
					c0.109,0.532,0.243,1.054,0.365,1.579c-11.882,6.61-19.078,19.77-17.796,33.704c-1.148,0.153-2.293,0.291-3.445,0.527
					c-27.269,5.586-44.845,32.219-39.258,59.489c5.586,27.268,32.219,44.844,59.488,39.257c11.028-2.259,20.427-7.998,27.394-15.792
					c9.537,16.492,28.831,25.848,48.52,21.815c11.253-2.305,20.643-8.604,27.08-17.089c7.306,18.27,26.816,29.281,46.771,25.193
					c17.909-3.669,30.704-18.383,32.806-35.583c4.465,0.56,9.086,0.449,13.736-0.503c19.562-4.008,33.132-20.938,33.731-40.058
					C1056.74,1817.318,1069.359,1793.536,1064.377,1769.221z"/>
				<path style="fill:#8B865C;" d="M953.767,1896.453c-16.498,0-31.777-9.651-38.679-25.095
					c-6.771,8.278-16.16,13.979-26.618,16.121c-19.175,3.929-38.648-4.54-48.89-21.129c-7.302,7.762-16.617,12.975-27.023,15.107
					c-13.45,2.753-27.167,0.109-38.627-7.453c-11.458-7.562-19.286-19.133-22.041-32.583c-2.805-13.688-0.907-25.262,5.64-34.4
					c6.293-8.784,16.918-14.923,30.726-17.751c0.806-0.165,5.793-0.773,10.831-1.382c0.747-0.09,1.4-0.169,1.9-0.23
					c-1.019-13.347,1.944-30.709,13.522-37.928c-0.257-0.349-0.573-0.759-0.821-1.082c-1.247-1.622-1.573-2.088-1.663-2.525
					c-7.127-34.791,15.379-68.893,50.17-76.02c33.438-6.853,66.063,13.298,75.015,46.02c3.498-2.882,7.636-4.867,12.058-5.773
					c15.036-3.08,29.766,6.644,32.844,21.674c0.017,0.08,0.032,0.159,0.047,0.239c7.394-7.239,16.609-12.141,26.771-14.222
					c29.071-5.959,57.587,12.855,63.546,41.938l0,0c4.94,24.118-7.015,48.338-29.104,59.122
					c-0.896,19.838-15.007,36.402-34.507,40.397c-4.264,0.874-8.659,1.083-13.075,0.629c-2.576,17.678-15.912,31.861-33.468,35.458
					C959.458,1896.168,956.593,1896.452,953.767,1896.453z M915.35,1868.41c0.044,0,0.089,0.003,0.134,0.009
					c0.357,0.048,0.661,0.285,0.795,0.62c7.268,18.174,26.464,28.512,45.641,24.584c17.037-3.49,29.903-17.445,32.016-34.725
					c0.032-0.264,0.168-0.504,0.377-0.667c0.21-0.164,0.472-0.239,0.74-0.204c4.532,0.569,9.045,0.403,13.409-0.491
					c18.789-3.849,32.332-19.931,32.934-39.109c0.012-0.375,0.231-0.711,0.57-0.872c21.605-10.253,33.346-33.765,28.55-57.177l0,0
					c-5.738-28.002-33.189-46.121-61.186-40.381c-10.42,2.135-19.805,7.35-27.141,15.082c-0.267,0.281-0.667,0.383-1.039,0.261
					c-0.367-0.121-0.632-0.443-0.679-0.828c-0.082-0.668-0.175-1.379-0.32-2.089c-2.857-13.951-16.521-22.975-30.483-20.117
					c-4.599,0.942-8.865,3.143-12.34,6.365c-0.261,0.241-0.629,0.327-0.966,0.225c-0.339-0.101-0.6-0.375-0.685-0.718
					c-8.062-32.604-40.162-52.862-73.082-46.118c-33.684,6.9-55.482,39.898-48.628,73.581c0.161,0.299,0.846,1.189,1.305,1.786
					c1.196,1.554,1.51,2,1.606,2.416c0.1,0.434-0.1,0.882-0.488,1.099c-11.027,6.135-14.641,23.253-13.33,37.497
					c0.049,0.534-0.332,1.012-0.864,1.083c-0.318,0.042-1.42,0.176-2.869,0.351c-3.452,0.417-9.877,1.194-10.67,1.356
					c-13.306,2.726-23.507,8.59-29.502,16.958c-6.208,8.667-7.993,19.714-5.306,32.834c2.648,12.926,10.172,24.047,21.184,31.315
					c11.014,7.268,24.205,9.812,37.123,7.164c10.423-2.135,19.707-7.488,26.851-15.479c0.213-0.239,0.529-0.36,0.848-0.328
					c0.318,0.033,0.603,0.216,0.763,0.494c9.606,16.609,28.68,25.182,47.453,21.336c10.54-2.159,19.945-8.095,26.484-16.714
					C914.743,1868.554,915.039,1868.41,915.35,1868.41z"/>
				<path style="fill:#9E9569;" d="M911.087,1946.457c-1.736,0-3.333-2.937-6.986-9.659c-3.516-6.468-8.828-16.242-16.586-27.042
					c-8.8-12.25-19.084-23.537-30.566-33.544c-0.416-0.363-0.46-0.995-0.097-1.411c0.363-0.416,0.996-0.458,1.411-0.097
					c11.599,10.109,21.987,21.509,30.877,33.885c7.83,10.902,13.179,20.742,16.718,27.254c2.151,3.958,4.192,7.712,5.158,8.486
					c1.18-2.573-1.347-19.94-8.99-37.571c-5.089-11.735-12.095-22.66-20.823-32.471c-0.367-0.413-0.33-1.044,0.082-1.412
					c0.411-0.367,1.045-0.331,1.412,0.083c8.87,9.97,15.991,21.074,21.163,33.004c6.986,16.112,10.755,35.037,8.94,39.227
					c-0.258,0.594-0.636,0.984-1.123,1.159C911.477,1946.42,911.281,1946.457,911.087,1946.457z"/>
				<path style="fill:#9E9569;" d="M948.894,1942.279c-4.872,0.001-8.442-19.164-8.994-29.536
					c-0.666-12.502,1.463-25.111,6.327-37.477c0.203-0.514,0.786-0.767,1.297-0.564c0.514,0.202,0.767,0.783,0.565,1.297
					c-4.76,12.097-6.842,24.423-6.19,36.638c0.791,14.857,5.17,27.643,6.987,27.643c0.001,0,0.001,0,0.002,0
					c1.096-0.317,2.135-6.82,2.969-12.045c0.618-3.868,1.317-8.253,2.299-12.825c4.108-19.151,12.571-38.121,25.153-56.382
					c0.311-0.455,0.936-0.57,1.391-0.256c0.455,0.313,0.569,0.936,0.256,1.391c-12.433,18.043-20.791,36.772-24.845,55.667
					c-0.97,4.52-1.665,8.876-2.279,12.72c-1.399,8.765-2.17,13.592-4.844,13.727
					C948.956,1942.279,948.925,1942.279,948.894,1942.279z"/>
				<path style="fill:#8B865C;" d="M852.166,1860.325c-0.426,0-0.82-0.274-0.954-0.702c-3.029-9.684-2.617-20.214,1.16-29.651
					c4.396-10.98,12.804-19.592,23.676-24.248c10.873-4.656,22.905-4.8,33.888-0.404c3.927,1.572,7.591,3.681,10.891,6.268
					c0.435,0.341,0.511,0.97,0.17,1.404c-0.34,0.435-0.969,0.511-1.404,0.17c-3.15-2.47-6.649-4.483-10.4-5.985
					c-21.635-8.662-46.298,1.895-54.962,23.539c-3.607,9.011-4.001,19.065-1.109,28.311c0.165,0.527-0.129,1.088-0.655,1.253
					C852.365,1860.31,852.265,1860.325,852.166,1860.325z"/>
				<g>
					<path style="fill:#8B865C;" d="M891.485,1803.674c-0.026,0-0.053-0.001-0.079-0.003c-0.551-0.043-0.962-0.525-0.919-1.075
						c0.242-3.08,0.813-6.155,1.695-9.142c3.792-12.817,13.046-23.131,25.391-28.296c0.51-0.211,1.095,0.026,1.309,0.536
						c0.213,0.51-0.027,1.096-0.537,1.309c-11.787,4.933-20.624,14.781-24.244,27.019c-0.844,2.853-1.389,5.79-1.619,8.73
						C892.44,1803.276,892.002,1803.674,891.485,1803.674z"/>
				</g>
				<path style="fill:#8B865C;" d="M824.38,1824.188c-0.313,0-0.62-0.146-0.815-0.419c-9.535-13.362-9.099-31.715,1.063-44.629
					c10.803-13.73,30.005-18.104,45.655-10.403c0.496,0.244,0.699,0.843,0.456,1.339c-0.242,0.496-0.843,0.7-1.339,0.456
					c-14.807-7.289-32.978-3.148-43.2,9.844c-9.616,12.221-10.029,29.587-1.006,42.231c0.32,0.45,0.216,1.074-0.233,1.395
					C824.784,1824.128,824.581,1824.188,824.38,1824.188z"/>
				<path style="fill:#8B865C;" d="M1006.212,1823.301c-0.084,0-0.17-0.01-0.255-0.033c-0.534-0.14-0.853-0.687-0.713-1.221
					c0.803-3.058,1.165-6.227,1.076-9.419c-0.246-8.919-3.951-17.209-10.432-23.342c-6.482-6.132-14.97-9.374-23.883-9.128
					c-7.666,0.212-15.08,3.081-20.877,8.08c-0.42,0.36-1.05,0.314-1.411-0.104c-0.36-0.418-0.313-1.049,0.105-1.41
					c6.144-5.298,14.004-8.339,22.129-8.564c9.439-0.257,18.442,3.175,25.312,9.674c6.869,6.5,10.796,15.286,11.058,24.739
					c0.093,3.383-0.291,6.741-1.143,9.982C1007.06,1823.004,1006.655,1823.301,1006.212,1823.301z"/>
				<g>
					<path style="fill:#8B865C;" d="M762.733,1847.804c-0.214,0-0.429-0.068-0.61-0.209c-0.438-0.338-0.517-0.966-0.18-1.403
						c1.366-1.766,2.938-3.387,4.673-4.817c7.435-6.127,17.302-8.335,27.067-6.053c0.538,0.125,0.872,0.663,0.746,1.201
						c-0.125,0.537-0.669,0.873-1.201,0.746c-9.156-2.138-18.392-0.079-25.341,5.649c-1.619,1.336-3.087,2.849-4.362,4.498
						C763.328,1847.67,763.032,1847.804,762.733,1847.804z"/>
				</g>
			</g>
			<g>
				<g>
					<path style="fill:#E2A18D;" d="M852.685,2016.201c14.109-17.035,40.004-43.582,80.625-62.017
						c72.246-32.788,161.7-26.591,168.006-6.7c1.661,5.238-3.621,7.716-3.707,18.211c-0.188,22.82,24.597,33.442,23.392,40.705
						C1119.36,2016.283,1068.853,2024.382,852.685,2016.201z"/>
					<path style="fill:#D87355;" d="M902.926,1994.925c-0.248,0-0.495-0.091-0.689-0.275c-0.399-0.38-0.416-1.013-0.035-1.414
						c8.923-9.386,18.595-17.892,28.749-25.279c32.339-23.528,69.754-36.37,111.207-38.169c0.546-0.015,1.018,0.404,1.042,0.956
						s-0.404,1.019-0.956,1.042c-41.053,1.782-78.102,14.496-110.117,37.788c-10.056,7.316-19.636,15.741-28.476,25.04
						C903.454,1994.821,903.19,1994.925,902.926,1994.925z"/>
					<path style="fill:#D87355;" d="M932.35,1988.003c-0.31,0-0.615-0.143-0.81-0.413c-0.324-0.447-0.225-1.072,0.223-1.396
						c11.319-8.208,23.347-15.449,35.749-21.519c39.503-19.333,83.16-27.442,129.758-24.111c0.551,0.04,0.966,0.518,0.926,1.069
						c-0.039,0.552-0.523,0.96-1.068,0.926c-46.243-3.312-89.556,4.737-128.736,23.912c-12.299,6.02-24.227,13.2-35.454,21.342
						C932.759,1987.941,932.553,1988.003,932.35,1988.003z"/>
					<path style="fill:#D87355;" d="M948.648,1991.073c-0.346,0-0.681-0.179-0.866-0.499c-0.277-0.478-0.114-1.089,0.364-1.366
						c10.704-6.2,21.933-11.466,33.372-15.652c36.432-13.332,75.359-16.245,115.698-8.659c0.543,0.102,0.9,0.625,0.798,1.167
						c-0.102,0.543-0.626,0.9-1.167,0.798c-39.983-7.52-78.555-4.636-114.642,8.571c-11.331,4.146-22.453,9.363-33.058,15.504
						C948.99,1991.029,948.817,1991.073,948.648,1991.073z"/>
				</g>
				<g>
					<path style="fill:#E2A18D;" d="M1343.671,1937.244c-15.032-15.208-134.375,32.973-129.49,97.488
						c4.826,63.745,127.23,94.539,140.169,77.342c7.944-10.558-29.213-34.103-32.736-84.563
						C1318.019,1976.001,1352.975,1946.657,1343.671,1937.244z"/>
					<path style="fill:#D87355;" d="M1217.779,2021.422c-0.225,0-0.45-0.075-0.637-0.23c-0.426-0.352-0.484-0.982-0.133-1.408
						c16.385-19.779,36.079-35.412,58.537-46.463c19.678-9.684,40.729-15.44,62.567-17.108c0.56-0.047,1.031,0.37,1.073,0.921
						s-0.37,1.031-0.921,1.073c-21.584,1.649-42.389,7.338-61.837,16.909c-22.203,10.926-41.676,26.384-57.879,45.944
						C1218.353,2021.298,1218.067,2021.422,1217.779,2021.422z"/>
					<path style="fill:#D87355;" d="M1233.305,2026.202c-0.281,0-0.562-0.119-0.76-0.35c-0.359-0.42-0.31-1.051,0.109-1.41
						c12.877-11.02,27.407-19.486,43.186-25.166c15.919-5.73,32.562-8.43,49.467-8.017c0.552,0.013,0.988,0.472,0.976,1.024
						c-0.014,0.543-0.459,0.976-1,0.976c-0.008,0-0.016,0-0.024,0c-16.646-0.4-33.054,2.253-48.74,7.899
						c-15.551,5.597-29.87,13.942-42.563,24.804C1233.767,2026.123,1233.535,2026.202,1233.305,2026.202z"/>
					<path style="fill:#D87355;" d="M1245.751,2035.652c-0.498,0-0.93-0.372-0.991-0.878c-0.067-0.548,0.322-1.047,0.87-1.114
						c13.98-1.715,28.12-3.65,42.027-5.75c10.738-1.622,17.06-2.753,25.81-4.32c2.025-0.363,4.18-0.748,6.549-1.168
						c0.559-0.098,1.063,0.266,1.159,0.81c0.097,0.544-0.266,1.063-0.81,1.159c-2.368,0.42-4.521,0.806-6.546,1.168
						c-8.766,1.569-15.099,2.703-25.863,4.329c-13.926,2.103-28.084,4.04-42.082,5.758
						C1245.832,2035.65,1245.791,2035.652,1245.751,2035.652z"/>
					<path style="fill:#D87355;" d="M1300.743,2055.734c-11.25,0-22.425-1.204-33.428-3.61c-9.781-2.139-19.454-5.251-28.75-9.25
						c-0.507-0.218-0.741-0.806-0.523-1.313c0.219-0.509,0.81-0.742,1.314-0.523c9.179,3.949,18.729,7.021,28.387,9.133
						c19.054,4.167,38.641,4.684,58.213,1.534c0.539-0.091,1.059,0.283,1.146,0.829c0.088,0.545-0.283,1.058-0.828,1.146
						C1317.753,2055.049,1309.226,2055.734,1300.743,2055.734z"/>
					<path style="fill:#D87355;" d="M1323.7,2088.481c-17.165,0-34.223-3.138-50.178-9.299
						c-15.651-6.044-30.126-14.86-43.021-26.203c-0.415-0.365-0.455-0.997-0.091-1.412c0.364-0.415,0.998-0.454,1.411-0.09
						c12.719,11.187,26.991,19.88,42.422,25.839c21.58,8.333,45.218,11.056,68.355,7.871c0.561-0.079,1.053,0.308,1.127,0.854
						c0.076,0.547-0.307,1.052-0.854,1.127C1336.502,2088.045,1330.093,2088.481,1323.7,2088.481z"/>
				</g>
				<g>
					<path style="fill:#D87355;" d="M1252.48,2029.483c0.971,38.349-153.08,116.544-272.86,132.933
						c-119.78,16.388-195.901-49.794-200.525-68.164c-4.653-18.483,38.383-100.85,158.163-117.239
						C1057.038,1960.624,1251.997,2010.429,1252.48,2029.483z"/>
					<path style="fill:#FFFFFF;" d="M861.926,2047.511c0.578,4.223-2.378,8.115-6.6,8.693c-4.223,0.578-8.115-2.377-8.693-6.6
						c-0.578-4.224,2.377-8.115,6.6-8.693C857.456,2040.333,861.348,2043.288,861.926,2047.511z"/>
					<path style="fill:#84524D;" d="M789.735,2094.863c-3.648,0-7.372-0.827-11.133-2.478c-0.505-0.222-0.735-0.812-0.514-1.317
						c0.223-0.505,0.813-0.736,1.318-0.514c5.574,2.447,11.04,2.951,16.244,1.495c5.693-1.593,9.597-5.131,11.869-7.818
						c0.357-0.421,0.987-0.475,1.409-0.118c0.422,0.356,0.475,0.988,0.118,1.409c-2.453,2.901-6.675,6.723-12.857,8.453
						C794.072,2094.567,791.917,2094.863,789.735,2094.863z"/>
				</g>
				<path style="fill:#84524D;" d="M867.164,2069.651c-7.235,36.884-9.555,67.479-5.182,68.336
					c4.373,0.858,13.783-28.347,21.018-65.23c7.235-36.883,9.555-67.479,5.182-68.336
					C883.809,2003.563,874.399,2032.768,867.164,2069.651z"/>
				<path style="fill:#84524D;" d="M946.12,2064.091c-7.818,39.859-10.612,72.865-6.239,73.723
					c4.373,0.858,14.256-30.759,22.074-70.617s10.612-72.865,6.239-73.723C963.821,1992.616,953.939,2024.232,946.12,2064.091z"/>
				<g>
					<path style="fill:#84524D;" d="M1025.169,2058.06c-8.351,42.573-11.576,77.781-7.203,78.639
						c4.373,0.858,14.687-32.959,23.038-75.533c8.351-42.573,11.576-77.781,7.203-78.639
						C1043.834,1981.669,1033.52,2015.486,1025.169,2058.06z"/>
				</g>
				<g>
					<path style="fill:#84524D;" d="M1104.239,2051.918c-6.214,31.681-7.707,58.059-3.334,58.917
						c4.373,0.858,12.955-24.129,19.17-55.811s7.707-58.059,3.334-58.917C1119.036,1995.249,1110.453,2020.237,1104.239,2051.918z"
						/>
				</g>
				<g>
					<path style="fill:#E2A18D;" d="M1057.722,2068.168c7.072,17.046-7.133,54.085-24.463,59.291
						c-11.904,3.576-61.48-29.306-55.019-46.292C984.633,2064.365,1052.439,2055.436,1057.722,2068.168z"/>
					<path style="fill:#D87355;" d="M1064.806,2079.529c-0.064,0-0.13-0.006-0.195-0.019c-17.158-3.396-34.701-5.036-52.158-4.855
						c-14.663,0.146-29.419,1.571-43.858,4.237c-0.546,0.098-1.065-0.258-1.165-0.802c-0.101-0.543,0.259-1.065,0.802-1.165
						c14.553-2.687,29.424-4.124,44.202-4.271c17.592-0.175,35.274,1.472,52.566,4.894c0.542,0.107,0.894,0.633,0.787,1.175
						C1065.691,2079.2,1065.273,2079.529,1064.806,2079.529z"/>
					<path style="fill:#D87355;" d="M1059.089,2123.154c-0.101,0-0.203-0.016-0.304-0.048
						c-19.037-6.066-37.925-13.269-56.139-21.406c-10.367-4.632-20.723-9.66-30.777-14.944c-0.489-0.257-0.678-0.862-0.42-1.351
						c0.257-0.488,0.86-0.677,1.35-0.42c10.018,5.265,20.335,10.274,30.664,14.889c18.146,8.107,36.963,15.283,55.93,21.327
						c0.526,0.167,0.816,0.73,0.649,1.256C1059.906,2122.883,1059.513,2123.154,1059.089,2123.154z"/>
					<path style="fill:#D87355;" d="M1064.531,2100.812c-0.083,0-0.168-0.01-0.252-0.032c-16.146-4.189-32.615-8.006-48.949-11.342
						c-13.189-2.694-26.614-5.141-39.902-7.274c-0.546-0.087-0.917-0.601-0.829-1.146c0.087-0.545,0.596-0.918,1.146-0.829
						c13.316,2.137,26.77,4.589,39.986,7.289c16.368,3.344,32.871,7.167,49.051,11.366c0.535,0.139,0.855,0.685,0.717,1.219
						C1065.382,2100.513,1064.976,2100.812,1064.531,2100.812z"/>
				</g>
			</g>
			<g>
				<path style="fill:#9E9569;" d="M1842.989,1772.656c-2.771-7.812-14.603-11.363-22.053-11.849
					c-14.991-0.978-24.882,9.639-26.228,11.131c-3.172-2.798-11.385-9.265-23.492-10.492c-14.686-1.489-32.771,4.971-36.163,15.739
					c-5.111,16.223,21.707,46.755,51.1,47.703C1819.696,1825.97,1848.527,1788.264,1842.989,1772.656z"/>
				<path style="fill:#D87355;" d="M1793.011,1805.682c-5.119-6.775-50.842-56.288-126.955-38.924
					c-76.717,17.501-112.545,126.307-78.226,202.211c24.819,54.896,87.099,67.064,115.932,72.7
					c85.754,16.757,235.756,16.097,273.048-82.375c24.382-64.38,19.022-183.295-67.582-201.491
					C1871.729,1749.923,1828.967,1761.165,1793.011,1805.682z"/>
				<path style="fill:#E2A18D;" d="M1749.823,1822.421c-8.14-20.018-43.693-27.406-69.367-21.639
					c-41.997,9.432-64.341,55.587-68.458,90.393c-4.752,40.18,13.056,79.891,43.161,103.472
					c43.58,34.136,99.575,28.527,107.506,10.158c8.589-19.892-42.979-36.644-43.613-88.085
					C1718.518,1873.392,1760.341,1848.287,1749.823,1822.421z"/>
				<path style="fill:#E2A18D;" d="M1815.363,1831.347c5.014-25.469,50.659-46.756,83.682-36.742
					c49.188,14.915,75.416,100.802,45.796,156.75c-28.819,54.436-101.291,82.568-117.871,56.74
					c-17.404-27.113,36.45-49.331,30.895-98.496C1853.132,1867.718,1810.271,1857.214,1815.363,1831.347z"/>
				<g>
					<path style="fill:#FFFFFF;" d="M1713.233,1841.115c4.324,6.093,5.103,12.966,1.742,15.352
						c-3.362,2.385-9.592-0.62-13.916-6.714c-4.324-6.093-5.103-12.966-1.742-15.352
						C1702.679,1832.016,1708.909,1835.022,1713.233,1841.115z"/>
					<path style="fill:#FFFFFF;" d="M1667.145,1872.052c-6.961-2.715-11.389-8.029-9.891-11.869
						c1.498-3.84,8.355-4.753,15.315-2.038s11.389,8.029,9.891,11.869C1680.963,1873.854,1674.106,1874.766,1667.145,1872.052z"/>
					
						<ellipse transform="matrix(0.9995 -0.0305 0.0305 0.9995 -56.9785 52.3047)" style="fill:#FFFFFF;" cx="1688.201" cy="1896.242" rx="13.528" ry="7.464"/>
					<path style="fill:#FFFFFF;" d="M1659.106,1932.233c7.37-1.226,13.893,1.077,14.569,5.143c0.676,4.066-4.75,8.356-12.12,9.582
						s-13.893-1.077-14.569-5.143C1646.309,1937.749,1651.736,1933.459,1659.106,1932.233z"/>
					<path style="fill:#FFFFFF;" d="M1698.774,1963.529c5.529-5.025,12.259-6.625,15.031-3.575
						c2.772,3.051,0.537,9.597-4.992,14.622c-5.529,5.025-12.259,6.625-15.031,3.575
						C1691.01,1975.1,1693.245,1968.554,1698.774,1963.529z"/>
					<path style="fill:#FFFFFF;" d="M1867.923,1971.893c-4.324-6.093-5.103-12.966-1.742-15.352
						c3.362-2.385,9.592,0.62,13.916,6.713c4.324,6.093,5.103,12.967,1.741,15.352
						C1878.477,1980.992,1872.247,1977.986,1867.923,1971.893z"/>
					<path style="fill:#FFFFFF;" d="M1914.011,1940.956c6.961,2.715,11.389,8.029,9.891,11.869
						c-1.498,3.84-8.355,4.753-15.315,2.038c-6.961-2.715-11.389-8.029-9.891-11.869
						C1900.193,1939.154,1907.05,1938.241,1914.011,1940.956z"/>
					<path style="fill:#FFFFFF;" d="M1893.182,1924.226c-7.468,0.228-13.624-2.928-13.749-7.048
						c-0.126-4.12,5.826-7.645,13.294-7.872c7.468-0.228,13.623,2.928,13.749,7.048
						C1906.602,1920.474,1900.65,1923.999,1893.182,1924.226z"/>
					<path style="fill:#FFFFFF;" d="M1922.05,1880.775c-7.37,1.226-13.893-1.077-14.569-5.143c-0.676-4.066,4.75-8.356,12.12-9.582
						c7.37-1.226,13.893,1.077,14.569,5.143C1934.846,1875.259,1929.42,1879.549,1922.05,1880.775z"/>
					<path style="fill:#FFFFFF;" d="M1882.382,1849.478c-5.529,5.025-12.259,6.625-15.031,3.575
						c-2.772-3.051-0.537-9.597,4.992-14.622c5.529-5.025,12.259-6.625,15.031-3.575
						C1890.146,1837.907,1887.911,1844.453,1882.382,1849.478z"/>
				</g>
			</g>
		</g>
		<g>
			<g>
				<path style="fill:#363E44;" d="M706.166,1202.68c-0.229,0-0.458-0.078-0.646-0.237c-0.422-0.357-0.474-0.988-0.116-1.409
					l35.866-42.304c0.357-0.421,0.988-0.475,1.409-0.116c0.422,0.357,0.474,0.988,0.116,1.409l-35.866,42.304
					C706.732,1202.56,706.45,1202.68,706.166,1202.68z"/>
				<path style="fill:#363E44;" d="M691.526,1190.177c-0.229,0-0.458-0.078-0.646-0.237c-0.422-0.357-0.474-0.988-0.116-1.409
					l35.866-42.304c0.355-0.421,0.988-0.475,1.409-0.116c0.422,0.357,0.474,0.988,0.116,1.409l-35.866,42.304
					C692.093,1190.057,691.81,1190.177,691.526,1190.177z"/>
				<path style="fill:#363E44;" d="M628.729,1307.114c-5.172,0-10.114-1.837-14.062-5.257l-10.949-9.485
					c-8.972-7.771-9.948-21.393-2.177-30.364l114.069-131.679c1.73-1.998,4.136-3.202,6.772-3.391
					c2.629-0.188,5.188,0.66,7.186,2.391l28.529,24.713c4.125,3.574,4.573,9.836,1,13.96L645.03,1299.681
					c-3.765,4.346-8.996,6.966-14.731,7.376C629.773,1307.095,629.25,1307.114,628.729,1307.114z M615.976,1300.345
					c3.942,3.416,8.992,5.093,14.181,4.718c5.202-0.373,9.947-2.749,13.362-6.691l114.068-131.679
					c2.851-3.291,2.493-8.287-0.798-11.139l-28.528-24.713c-1.595-1.381-3.622-2.065-5.735-1.908
					c-2.104,0.15-4.022,1.111-5.403,2.706l-114.069,131.679c-7.049,8.138-6.163,20.494,1.974,27.543L615.976,1300.345z"/>
				<path style="fill:#363E44;" d="M755.007,1153.854c-0.239,0-0.473-0.086-0.654-0.244l-23.821-20.636
					c-0.418-0.361-0.463-0.992-0.103-1.41l67.603-78.257c0.174-0.201,0.42-0.324,0.685-0.344c0.271-0.015,0.527,0.068,0.727,0.242
					l23.821,20.635c0.418,0.361,0.463,0.992,0.103,1.41l-67.603,78.257c-0.174,0.201-0.42,0.324-0.685,0.344
					C755.055,1153.854,755.031,1153.854,755.007,1153.854z M732.595,1132.117l22.31,19.326l66.296-76.744l-22.31-19.326
					L732.595,1132.117z"/>
			</g>
			<path style="fill:#363E44;" d="M1005.453,1119.779c-67.27,0-131.536-23.954-182.801-68.517
				c-56.299-48.939-90.17-116.873-95.374-191.287c-5.204-74.414,18.882-146.401,67.82-202.701
				c48.94-56.299,116.873-90.17,191.288-95.374c74.416-5.206,146.401,18.882,202.7,67.821
				c56.299,48.94,90.17,116.873,95.374,191.287c5.204,74.415-18.882,146.401-67.82,202.701
				c-48.939,56.298-116.873,90.17-191.288,95.374C1018.699,1119.548,1012.059,1119.779,1005.453,1119.779z M1006.051,563.343
				c-77.555,0-154.688,32.254-209.442,95.244c-100.303,115.387-88.03,290.863,27.356,391.166
				c115.387,100.304,290.863,88.03,391.166-27.356l0.755,0.656l-0.755-0.656c100.303-115.387,88.03-290.863-27.356-391.165
				C1135.377,585.683,1070.563,563.343,1006.051,563.343z"/>
			<path style="fill:#363E44;" d="M1194.173,1005.178c-0.233,0-0.467-0.081-0.656-0.245c-0.417-0.362-0.461-0.994-0.099-1.411
				c65.671-75.546,79.674-182.463,35.674-272.383c-0.242-0.496-0.037-1.095,0.459-1.338c0.496-0.243,1.094-0.037,1.338,0.459
				c44.354,90.643,30.238,198.42-35.961,274.574C1194.729,1005.062,1194.452,1005.178,1194.173,1005.178z"/>
			<path style="fill:#363E44;" d="M842.183,1029.795c-0.233,0-0.467-0.081-0.656-0.245c-36.957-32.127-63.486-73.91-76.72-120.835
				c-12.897-45.734-12.616-93.93,0.815-139.378c0.157-0.53,0.71-0.831,1.242-0.676c0.53,0.156,0.832,0.713,0.676,1.242
				c-27.52,93.127,2.037,194.452,75.3,258.137c0.417,0.362,0.461,0.994,0.099,1.411
				C842.739,1029.678,842.462,1029.795,842.183,1029.795z"/>
			<circle style="fill:#FFFFFF;" cx="1002.707" cy="839.272" r="213.46"/>
			<polygon style="fill:#9E9569;" points="992.526,983.131 880.861,881.564 915.359,839.025 986.159,895.627 1097.253,734.31 
				1142.451,765.434 			"/>
		</g>
	</g>
</g>
</svg>
