<?xml version="1.0" encoding="utf-8"?>
<!-- Generator: Adobe Illustrator 27.5.0, SVG Export Plug-In . SVG Version: 6.00 Build 0)  -->
<svg version="1.1" id="Layer_1" xmlns="http://www.w3.org/2000/svg" xmlns:xlink="http://www.w3.org/1999/xlink" x="0px" y="0px"
	 viewBox="0 0 2991.38 2000" style="enable-background:new 0 0 2991.38 2000;" xml:space="preserve">
<rect style="fill:#EAFCFC;" width="2991.38" height="1816.348"/>
<path style="opacity:0.6;fill:#9BC1F9;" d="M2991.38,382.955v-14.738l-81.116-89.627l79.559-87.906h1.558v-55.449H0v55.449h16.783
	l79.558,87.906l-82.11,90.726H0v13.64h159.315l97.409,168.718v1223.862h80.035V539.804l90.557-156.849h917.441h110.788
	l97.409,168.718v1223.862h80.035V539.804l90.557-156.849H2991.38z M2792.438,190.684l-70.828,78.262l-70.83-78.262H2792.438z
	 M2616.871,190.684l-70.83,78.262l-70.828-78.262H2616.871z M2436.943,190.684l-70.83,78.262l-70.828-78.262H2436.943z
	 M2261.377,190.684l-70.83,78.262l-70.83-78.262H2261.377z M2085.811,190.684l-70.83,78.262l-70.83-78.262H2085.811z
	 M1910.242,190.684l-70.83,78.262l-70.828-78.262H1910.242z M1734.676,190.684l-70.83,78.262l-70.83-78.262H1734.676z
	 M1559.109,190.684l-70.831,78.262l-70.83-78.262H1559.109z M1376.005,190.684l-58.447,78.262l-58.446-78.262H1376.005z
	 M1229.302,190.684l-70.83,78.262l-70.83-78.262H1229.302z M1053.735,190.684l-70.83,78.262l-70.829-78.262H1053.735z
	 M878.167,190.684l-70.83,78.262l-70.83-78.262H878.167z M702.601,190.684l-70.83,78.262l-70.83-78.262H702.601z M527.034,190.684
	l-70.83,78.262l-70.83-78.262H527.034z M447.475,278.59l-79.055,87.35l-79.055-87.35l79.055-87.35L447.475,278.59z M351.466,190.684
	l-70.83,78.262l-70.829-78.262H351.466z M271.908,278.59l-79.055,87.35l-79.055-87.35l79.056-87.35L271.908,278.59z M34.24,190.684
	h141.659l-70.83,78.262L34.24,190.684z M31.688,369.315l73.381-81.081l73.382,81.081H31.688z M256.724,507.287l-71.783-124.332
	h71.783V507.287z M207.255,369.315l73.381-81.081l73.382,81.081H207.255z M336.759,495.419V382.955h64.931L336.759,495.419z
	 M382.822,369.315l73.381-81.081l73.382,81.081H382.822z M464.932,278.59l79.055-87.35l79.055,87.35l-79.055,87.35L464.932,278.59z
	 M558.389,369.315l73.382-81.081l73.381,81.081H558.389z M640.5,278.59l79.055-87.35l79.055,87.35l-79.055,87.35L640.5,278.59z
	 M733.956,369.315l73.382-81.081l73.381,81.081H733.956z M816.066,278.59l79.055-87.35l79.055,87.35l-79.056,87.35L816.066,278.59z
	 M909.523,369.315l73.382-81.081l73.382,81.081H909.523z M991.633,278.59l79.056-87.35l79.055,87.35l-79.055,87.35L991.633,278.59z
	 M1085.09,369.315l73.382-81.081l73.381,81.081H1085.09z M1167.201,278.59l78.434-86.663l64.721,86.663l-64.721,86.663
	L1167.201,278.59z M1344.758,369.315h-87.752l60.553-81.081l60.553,81.081H1344.758z M1392.516,369.315l-67.755-90.726
	l65.649-87.906h9.582l79.559,87.906l-82.11,90.726H1392.516z M1552.955,507.287l-71.783-124.332h71.783V507.287z M1414.897,369.315
	l73.381-81.081l73.382,81.081H1414.897z M1497.008,278.59l79.055-87.35l79.055,87.35l-79.055,87.35L1497.008,278.59z
	 M1632.99,495.419V382.955h64.932L1632.99,495.419z M1590.463,369.315l73.383-81.081l73.383,81.081H1590.463z M1751.629,365.94
	l-79.055-87.35l79.055-87.35l79.055,87.35L1751.629,365.94z M1766.031,369.315l73.381-81.081l73.383,81.081H1766.031z
	 M1848.143,278.59l79.055-87.35l79.055,87.35l-79.055,87.35L1848.143,278.59z M1941.598,369.315l73.383-81.081l73.381,81.081
	H1941.598z M2023.709,278.59l79.055-87.35l79.055,87.35l-79.055,87.35L2023.709,278.59z M2117.166,369.315l73.381-81.081
	l73.383,81.081H2117.166z M2199.275,278.59l79.055-87.35l79.055,87.35l-79.055,87.35L2199.275,278.59z M2292.732,369.315
	l73.381-81.081l73.383,81.081H2292.732z M2374.842,278.59l79.559-87.906h3.355l79.557,87.906l-81.234,89.759L2374.842,278.59z
	 M2472.66,369.315l73.381-81.081l73.383,81.081H2472.66z M2554.77,278.59l79.055-87.35l79.057,87.35l-79.057,87.35L2554.77,278.59z
	 M2648.227,369.315l73.383-81.081l73.381,81.081H2648.227z M2730.338,278.59l79.559-87.906h3.354l79.557,87.906l-81.234,89.759
	L2730.338,278.59z M2974.918,369.315h-146.764l73.381-81.081L2974.918,369.315z M2901.535,268.946l-70.828-78.262h141.658
	L2901.535,268.946z"/>
<rect x="873.141" y="730.655" transform="matrix(-1 -1.224647e-16 1.224647e-16 -1 1757.7069 2506.1904)" style="fill:#184655;" width="11.426" height="1044.88"/>
<rect x="729.662" y="730.655" transform="matrix(-1 -1.224647e-16 1.224647e-16 -1 1470.749 2506.1904)" style="fill:#184655;" width="11.426" height="1044.88"/>
<rect x="801.719" y="1566.97" transform="matrix(-0.7071 0.7071 -0.7071 -0.7071 2557.1328 2274.9363)" style="fill:#184655;" width="11.426" height="200.15"/>
<rect x="801.401" y="1669.472" transform="matrix(-1.836970e-16 1 -1 -1.836970e-16 2554.0388 939.8108)" style="fill:#184655;" width="11.426" height="154.905"/>
<rect x="1901.369" y="730.655" transform="matrix(-1 -1.224647e-16 1.224647e-16 -1 3814.1631 2506.1904)" style="fill:#184655;" width="11.425" height="1044.88"/>
<rect x="801.401" y="667.118" transform="matrix(-1.836970e-16 1 -1 -1.836970e-16 1551.6843 -62.5437)" style="fill:#184655;" width="11.426" height="154.905"/>
<rect x="801.719" y="1427.238" transform="matrix(0.7071 0.7071 -0.7071 0.7071 1316.4648 -123.6012)" style="fill:#184655;" width="11.426" height="200.15"/>
<rect x="801.719" y="1284.173" transform="matrix(-0.7071 0.7071 -0.7071 -0.7071 2357.1714 1792.1655)" style="fill:#184655;" width="11.426" height="200.15"/>
<rect x="801.719" y="1144.441" transform="matrix(0.7071 0.7071 -0.7071 0.7071 1116.4972 -206.4305)" style="fill:#184655;" width="11.426" height="200.15"/>
<rect x="801.719" y="1001.376" transform="matrix(-0.7071 0.7071 -0.7071 -0.7071 2157.21 1309.3949)" style="fill:#184655;" width="11.426" height="200.15"/>
<rect x="801.719" y="861.645" transform="matrix(0.7071 0.7071 -0.7071 0.7071 916.53 -289.2596)" style="fill:#184655;" width="11.426" height="200.15"/>
<rect x="801.719" y="718.579" transform="matrix(-0.7071 0.7071 -0.7071 -0.7071 1957.2488 826.6251)" style="fill:#184655;" width="11.426" height="200.15"/>
<g>
	<rect x="1706.697" y="1280.479" style="fill:#ED9B8E;" width="215.89" height="169.594"/>
	<rect x="1706.697" y="1280.479" style="fill:#F47458;" width="76.378" height="169.594"/>
	<rect x="1827.545" y="1280.479" style="fill:#EFEFB4;" width="46.116" height="22.573"/>
</g>
<g>
	<rect x="1536.868" y="1280.479" style="fill:#ED9B8E;" width="215.89" height="169.594"/>
	<rect x="1536.868" y="1280.479" style="fill:#F47458;" width="76.378" height="169.594"/>
	<rect x="1657.716" y="1280.479" style="fill:#EFEFB4;" width="46.116" height="22.573"/>
</g>
<g>
	<rect x="1619.579" y="1110.885" style="fill:#F7CC7F;" width="250.614" height="169.595"/>
	<rect x="1619.579" y="1110.885" style="fill:#F47458;" width="88.663" height="169.595"/>
	<rect x="1759.864" y="1110.885" style="fill:#EFEFB4;" width="53.534" height="22.574"/>
</g>
<g>
	<rect x="372.55" y="554.962" style="fill:#ED9B8E;" width="434.563" height="446.074"/>
	<rect x="588.56" y="554.962" style="fill:#AA6D66;" width="8.877" height="446.074"/>
	<rect x="700.346" y="554.962" style="fill:#AA6D66;" width="8.877" height="446.074"/>
	
		<rect x="585.394" y="491.549" transform="matrix(-1.836970e-16 1 -1 -1.836970e-16 1298.6626 118.9985)" style="fill:#AA6D66;" width="8.877" height="434.563"/>
	
		<rect x="585.394" y="644.31" transform="matrix(-1.836970e-16 1 -1 -1.836970e-16 1451.4233 271.7593)" style="fill:#AA6D66;" width="8.877" height="434.563"/>
	<rect x="372.55" y="554.962" style="opacity:0.6;fill:#ED9B8E;" width="116.882" height="446.074"/>
	<rect x="518.16" y="554.962" style="fill:#EFEFB4;" width="41.673" height="12.061"/>
	<rect x="632.576" y="554.962" style="fill:#EFEFB4;" width="41.673" height="12.061"/>
	<rect x="743.54" y="554.962" style="fill:#EFEFB4;" width="41.673" height="12.061"/>
	<rect x="518.16" y="713.269" style="fill:#EFEFB4;" width="41.673" height="12.061"/>
	<rect x="632.576" y="713.269" style="fill:#EFEFB4;" width="41.673" height="12.061"/>
	<rect x="743.54" y="713.269" style="fill:#EFEFB4;" width="41.673" height="12.061"/>
	<rect x="518.16" y="866.03" style="fill:#EFEFB4;" width="41.673" height="12.061"/>
	<rect x="632.576" y="866.03" style="fill:#EFEFB4;" width="41.673" height="12.061"/>
	<rect x="743.54" y="866.03" style="fill:#EFEFB4;" width="41.673" height="12.061"/>
</g>
<g>
	<rect x="1041.645" y="1004.718" style="fill:#F7CC7F;" width="540.211" height="446.075"/>
	<rect x="1310.17" y="1004.718" style="fill:#AA6D66;" width="11.035" height="446.075"/>
	<rect x="1449.132" y="1004.718" style="fill:#AA6D66;" width="11.036" height="446.075"/>
	
		<rect x="1307.312" y="888.481" transform="matrix(-1.836970e-16 1 -1 -1.836970e-16 2470.3376 -153.1638)" style="fill:#AA6D66;" width="8.877" height="540.211"/>
	
		<rect x="1307.312" y="1041.242" transform="matrix(-1.836970e-16 1 -1 -1.836970e-16 2623.0984 -0.4031)" style="fill:#AA6D66;" width="8.877" height="540.211"/>
	<rect x="1041.645" y="1004.718" style="opacity:0.6;fill:#ED9B8E;" width="145.297" height="446.075"/>
	<rect x="1222.654" y="1004.718" style="fill:#EFEFB4;" width="51.804" height="12.061"/>
	<rect x="1364.886" y="1004.718" style="fill:#EFEFB4;" width="51.804" height="12.061"/>
	<rect x="1502.827" y="1004.718" style="fill:#EFEFB4;" width="51.804" height="12.061"/>
	<rect x="1222.654" y="1163.025" style="fill:#EFEFB4;" width="51.804" height="12.061"/>
	<rect x="1364.886" y="1163.025" style="fill:#EFEFB4;" width="51.804" height="12.061"/>
	<rect x="1502.827" y="1163.025" style="fill:#EFEFB4;" width="51.804" height="12.061"/>
	<rect x="1222.654" y="1315.786" style="fill:#EFEFB4;" width="51.804" height="12.061"/>
	<rect x="1364.886" y="1315.786" style="fill:#EFEFB4;" width="51.804" height="12.061"/>
	<rect x="1502.827" y="1315.786" style="fill:#EFEFB4;" width="51.804" height="12.061"/>
</g>
<g>
	<rect x="621.716" y="1280.479" style="fill:#FCF0D0;" width="215.89" height="169.594"/>
	<rect x="621.716" y="1280.479" style="fill:#F47458;" width="76.379" height="169.594"/>
	<rect x="742.564" y="1280.479" style="fill:#EFEFB4;" width="46.116" height="22.573"/>
</g>
<g>
	<rect x="33.099" y="713.269" style="fill:#FCF0D0;" width="366.322" height="287.767"/>
	<rect x="33.099" y="713.269" style="fill:#F47458;" width="129.599" height="287.767"/>
	<rect x="238.154" y="713.269" style="fill:#ED9B8E;" width="78.25" height="38.303"/>
</g>
<g>
	<rect x="38.812" y="1162.307" style="fill:#F7A491;" width="521.021" height="287.767"/>
	<rect x="38.812" y="1162.307" style="fill:#F47458;" width="184.329" height="287.767"/>
	<rect x="330.461" y="1162.307" style="fill:#EFEFB4;" width="111.295" height="38.303"/>
</g>
<g>
	<rect x="451.888" y="1280.479" style="fill:#F7CC7F;" width="215.89" height="169.594"/>
	<rect x="451.888" y="1280.479" style="fill:#F47458;" width="76.378" height="169.594"/>
	<rect x="572.735" y="1280.479" style="fill:#EFEFB4;" width="46.116" height="22.573"/>
</g>
<rect x="27.386" y="1001.036" style="fill:#184655;" width="857.18" height="34.618"/>
<rect x="27.386" y="1001.036" style="fill:#3C8F7C;" width="154.905" height="34.618"/>
<rect x="27.386" y="1450.073" style="fill:#184655;" width="857.18" height="34.618"/>
<rect x="27.386" y="1450.073" style="fill:#3C8F7C;" width="154.905" height="34.618"/>
<g>
	
		<rect x="170.865" y="730.655" transform="matrix(-1 -1.224647e-16 1.224647e-16 -1 353.1562 2506.1904)" style="fill:#184655;" width="11.426" height="1044.88"/>
	
		<rect x="27.386" y="730.655" transform="matrix(-1 -1.224647e-16 1.224647e-16 -1 66.1982 2506.1904)" style="fill:#184655;" width="11.426" height="1044.88"/>
	
		<rect x="99.444" y="1566.97" transform="matrix(-0.7071 0.7071 -0.7071 -0.7071 1358.2928 2771.4656)" style="fill:#184655;" width="11.426" height="200.15"/>
	
		<rect x="99.126" y="1669.472" transform="matrix(-1.836970e-16 1 -1 -1.836970e-16 1851.7634 1642.0862)" style="fill:#184655;" width="11.426" height="154.905"/>
	
		<rect x="99.126" y="667.118" transform="matrix(-1.836970e-16 1 -1 -1.836970e-16 849.4089 639.7317)" style="fill:#184655;" width="11.426" height="154.905"/>
	
		<rect x="99.444" y="1427.238" transform="matrix(0.7071 0.7071 -0.7071 0.7071 1110.7446 372.9574)" style="fill:#184655;" width="11.426" height="200.15"/>
	
		<rect x="99.444" y="1284.173" transform="matrix(-0.7071 0.7071 -0.7071 -0.7071 1158.3252 2288.7012)" style="fill:#184655;" width="11.426" height="200.15"/>
	
		<rect x="99.444" y="1144.441" transform="matrix(0.7071 0.7071 -0.7071 0.7071 910.782 290.1331)" style="fill:#184655;" width="11.426" height="200.15"/>
	
		<rect x="99.444" y="1001.376" transform="matrix(-0.7071 0.7071 -0.7071 -0.7071 958.3577 1805.9366)" style="fill:#184655;" width="11.426" height="200.15"/>
	
		<rect x="99.444" y="861.645" transform="matrix(0.7071 0.7071 -0.7071 0.7071 710.8197 207.3089)" style="fill:#184655;" width="11.426" height="200.15"/>
	
		<rect x="99.444" y="718.579" transform="matrix(-0.7071 0.7071 -0.7071 -0.7071 758.3904 1323.173)" style="fill:#184655;" width="11.426" height="200.15"/>
</g>
<g>
	<rect x="534.599" y="1110.885" style="fill:#F7CC7F;" width="250.614" height="169.595"/>
	<rect x="534.599" y="1110.885" style="fill:#F47458;" width="88.664" height="169.595"/>
	<rect x="674.884" y="1110.885" style="fill:#EFEFB4;" width="53.534" height="22.574"/>
</g>
<g>
	<rect x="2707.596" y="291.293" style="fill:#ED9B8E;" width="215.89" height="169.594"/>
	<rect x="2707.596" y="291.293" style="fill:#F47458;" width="76.378" height="169.594"/>
	<rect x="2828.443" y="291.293" style="fill:#EFEFB4;" width="46.116" height="22.574"/>
</g>
<g>
	<rect x="2124.691" y="173.12" style="fill:#F8A492;" width="521.019" height="287.767"/>
	<rect x="2124.691" y="173.12" style="fill:#F47458;" width="184.328" height="287.767"/>
	<rect x="2416.34" y="173.12" style="fill:#EFEFB4;" width="111.296" height="38.303"/>
</g>
<g>
	<rect x="2537.767" y="291.293" style="fill:#ED9B8E;" width="215.89" height="169.594"/>
	<rect x="2537.767" y="291.293" style="fill:#F47458;" width="76.378" height="169.594"/>
	<rect x="2658.614" y="291.293" style="fill:#EFEFB4;" width="46.116" height="22.574"/>
</g>
<g>
	<rect x="2620.479" y="121.699" style="fill:#F8A492;" width="250.613" height="169.594"/>
	<rect x="2620.479" y="121.699" style="fill:#F47458;" width="88.662" height="169.594"/>
	<rect x="2760.763" y="121.699" style="fill:#EFEFB4;" width="53.534" height="22.574"/>
</g>
<rect y="1775.352" style="fill:#FCF0D0;" width="2991.38" height="224.648"/>
<rect x="1009.787" y="1450.073" style="fill:#184655;" width="1103.998" height="34.618"/>
<rect x="1009.787" y="1450.073" style="fill:#3C8F7C;" width="199.508" height="34.618"/>
<rect x="2064.876" y="456.276" style="fill:#184655;" width="926.504" height="34.619"/>
<rect x="2065.457" y="456.276" style="fill:#3C8F7C;" width="199.508" height="34.619"/>
<rect x="2100.877" y="730.655" transform="matrix(-1 -1.224647e-16 1.224647e-16 -1 4213.1797 2506.1904)" style="fill:#184655;" width="11.426" height="1044.88"/>
<rect x="1901.369" y="730.655" style="fill:#184655;" width="210.934" height="10.672"/>
<g>
	<rect x="1448.981" y="586.636" style="fill:#ED9B8E;" width="417.922" height="340.29"/>
	<rect x="1448.981" y="586.636" style="opacity:0.6;fill:#ED9B8E;" width="103.834" height="340.29"/>
	<rect x="1696.142" y="586.636" style="fill:#EFEFB4;" width="41.674" height="100.034"/>
</g>
<g>
	<rect x="1101.856" y="471.974" style="fill:#F7CC7F;" width="417.923" height="454.952"/>
	<rect x="1101.856" y="471.974" style="opacity:0.6;fill:#ED9B8E;" width="103.835" height="454.952"/>
	<rect x="1349.018" y="471.974" style="fill:#EFEFB4;" width="41.673" height="133.741"/>
</g>
<g>
	<rect x="1762.958" y="757.331" style="fill:#F7CC7F;" width="215.89" height="169.594"/>
	<rect x="1762.958" y="757.331" style="fill:#F47458;" width="76.378" height="169.594"/>
	<rect x="1883.806" y="757.331" style="fill:#EFEFB4;" width="46.116" height="22.574"/>
</g>
<g>
	<rect x="1606.567" y="417.041" style="fill:#FCF0D0;" width="215.891" height="169.595"/>
	<rect x="1606.567" y="417.041" style="fill:#F47458;" width="76.379" height="169.595"/>
	<rect x="1727.416" y="417.041" style="fill:#ED9B8E;" width="46.116" height="22.574"/>
</g>
<rect x="2059.744" y="0.006" transform="matrix(-1 -1.224647e-16 1.224647e-16 -1 4130.9141 490.9013)" style="fill:#184655;" width="11.426" height="490.889"/>
<rect x="2259.252" y="0.006" transform="matrix(-1 -1.224647e-16 1.224647e-16 -1 4529.9297 490.9013)" style="fill:#184655;" width="11.426" height="490.889"/>
<rect x="1004.074" y="730.655" style="fill:#184655;" width="210.934" height="10.672"/>
<rect x="1009.787" y="916.248" style="fill:#184655;" width="1103.998" height="34.618"/>
<rect x="1009.787" y="916.248" style="fill:#3C8F7C;" width="199.508" height="34.618"/>
<rect x="1004.074" y="730.655" transform="matrix(-1 -1.224647e-16 1.224647e-16 -1 2019.5742 2506.1904)" style="fill:#184655;" width="11.426" height="1044.88"/>
<rect x="1203.582" y="730.655" transform="matrix(-1 -1.224647e-16 1.224647e-16 -1 2418.5898 2506.1904)" style="fill:#184655;" width="11.426" height="1044.88"/>
<rect x="2164.477" y="730.655" style="opacity:0.6;fill:#9BC1F9;" width="826.903" height="1044.696"/>
<rect x="2199.015" y="756.78" style="opacity:0.6;fill:#9BC1F9;" width="792.365" height="77.921"/>
<rect x="2199.015" y="842.128" style="opacity:0.6;fill:#9BC1F9;" width="792.365" height="77.921"/>
<rect x="2199.015" y="927.476" style="opacity:0.6;fill:#9BC1F9;" width="792.365" height="77.921"/>
<rect x="2199.015" y="1012.824" style="opacity:0.6;fill:#9BC1F9;" width="792.365" height="77.921"/>
<rect x="2199.015" y="1098.172" style="opacity:0.6;fill:#9BC1F9;" width="792.365" height="77.921"/>
<rect x="2199.015" y="1183.52" style="opacity:0.6;fill:#9BC1F9;" width="792.365" height="77.921"/>
<rect x="2199.015" y="1268.867" style="opacity:0.6;fill:#9BC1F9;" width="792.365" height="77.921"/>
<rect x="2199.015" y="1354.216" style="opacity:0.6;fill:#9BC1F9;" width="792.365" height="77.921"/>
<rect x="2199.015" y="1439.563" style="opacity:0.6;fill:#9BC1F9;" width="792.365" height="77.921"/>
<rect x="2199.015" y="1524.911" style="opacity:0.6;fill:#9BC1F9;" width="792.365" height="77.921"/>
<rect x="2199.015" y="1610.259" style="opacity:0.6;fill:#9BC1F9;" width="792.365" height="77.921"/>
<rect x="2199.015" y="1695.606" style="opacity:0.6;fill:#9BC1F9;" width="792.365" height="77.921"/>
<path style="fill:#184655;" d="M589.882,0c-17.682,45.189-46.148,94.717-85.487,92.303c-21.706-1.323-39.934-15.678-54.861-35.315
	C457.734,32.206,463.145,11.063,465.781,0h-6.839c-2.543,10.535-7.279,28.823-14.223,50.317C434.166,34.93,425.435,17.102,418.435,0
	h-7.26c1.778,4.439,3.664,8.931,5.676,13.427c7.831,17.495,16.297,32.488,25.264,44.782c-4.778,14.188-10.455,29.452-17.038,44.602
	c-14,32.224-29.273,57.602-45.393,75.43c-19.741,21.83-40.759,32.229-62.471,30.904c-22.513-1.372-44.066-13.327-64.062-35.535
	c-14.631-16.248-28.436-37.968-41.117-64.62c12.982-17.126,25.306-39.032,36.746-65.377C255.206,28.816,260.771,13.922,265.494,0
	h-7.028c-4.519,13.17-9.786,27.152-15.824,41.051c-10.596,24.389-21.922,44.849-33.793,61.089c-0.329-0.724-0.662-1.435-0.989-2.166
	C188.892,57.625,177.873,15.295,174.213,0h-6.834c3.316,14.087,14.549,58.321,34.369,102.597c0.837,1.87,1.681,3.716,2.529,5.543
	c-2.324,2.934-4.665,5.728-7.027,8.34c-19.74,21.83-40.76,32.225-62.471,30.904c-22.513-1.372-44.066-13.327-64.062-35.535
	C54.465,93.801,39.227,69.026,25.425,38.212C19.6,25.206,14.54,12.219,10.198,0H3.145c4.557,12.987,9.93,26.901,16.167,40.835
	C33.399,72.306,49.02,97.683,65.74,116.263c21.213,23.573,44.306,36.278,68.634,37.76c1.377,0.084,2.749,0.126,4.119,0.126
	c22.352,0,43.77-11.166,63.719-33.24c1.755-1.942,3.498-3.989,5.232-6.102c12.563,25.875,26.232,47.106,40.73,63.217
	c21.214,23.573,44.306,36.278,68.634,37.761c1.377,0.084,2.748,0.125,4.119,0.125c22.353,0,43.77-11.167,63.719-33.24
	c16.61-18.379,32.278-44.385,46.569-77.294c5.997-13.809,11.25-27.709,15.763-40.819c1.615,2,3.245,3.919,4.89,5.747
	c16.086,17.876,33.622,27.511,52.122,28.638c1.052,0.064,2.103,0.096,3.149,0.096c17.032,0,33.325-8.48,48.475-25.243
	c12.539-13.873,24.357-33.484,35.128-58.289c2.249-5.18,4.356-10.375,6.328-15.506H589.882z"/>
<path style="fill:#184655;" d="M1074.266,0c-3.806,7.17-7.929,14.48-12.375,21.791c-29.32,48.21-79.073,106.345-149.589,109.51
	c-68.361,3.066-118.113-56.314-147.819-106.67C759.62,16.389,755.13,8.117,750.995,0h-7.447c4.589,9.162,9.627,18.548,15.14,27.898
	c19.404,32.918,40.666,58.918,63.192,77.278c26.801,21.844,55.458,32.892,85.271,32.892c1.81,0,3.631-0.041,5.45-0.122
	c32.535-1.461,63.504-14.049,92.051-37.414c22.674-18.561,43.87-43.932,62.998-75.408c5.133-8.447,9.833-16.888,14.124-25.124
	H1074.266z"/>
<path style="fill:#184655;" d="M1795.611,0c-3.334,8.786-7.016,17.83-11.07,26.882c-13.802,30.814-29.039,55.589-45.29,73.637
	c-19.995,22.207-41.549,34.163-64.063,35.535c-21.734,1.316-42.731-9.075-62.471-30.904c-2.362-2.612-4.703-5.405-7.027-8.339
	c0.849-1.828,1.691-3.673,2.529-5.544c15.989-35.719,26.39-71.409,31.554-91.267h-6.873c-5.237,19.901-15.395,54.263-30.794,88.644
	c-0.327,0.731-0.659,1.443-0.989,2.167c-11.87-16.241-23.196-36.7-33.793-61.09c-4.333-9.973-8.265-19.989-11.814-29.721h-7.074
	c3.795,10.535,8.039,21.434,12.75,32.285c11.44,26.345,23.765,48.251,36.747,65.377c-12.68,26.652-26.486,48.371-41.116,64.62
	c-19.996,22.207-41.549,34.163-64.063,35.535c-21.73,1.32-42.732-9.075-62.472-30.904c-16.121-17.828-31.393-43.206-45.393-75.429
	c-6.583-15.15-12.26-30.414-17.038-44.602c8.966-12.295,17.433-27.288,25.265-44.783c0.313-0.7,0.602-1.397,0.909-2.097h-7.355
	c-6.062,13.479-13.187,26.978-21.423,38.987c-4.882-15.111-8.668-28.625-11.373-38.987h-6.872
	c3.018,11.682,7.491,27.713,13.43,45.658c-14.928,19.638-33.156,33.992-54.861,35.315c-36.037,2.193-62.964-39.246-80.828-80.973
	h-7.272c0.584,1.393,1.148,2.785,1.752,4.177c10.771,24.804,22.59,44.416,35.128,58.289c15.151,16.764,31.441,25.243,48.475,25.243
	c1.046,0,2.098-0.032,3.149-0.096c18.5-1.127,36.038-10.763,52.124-28.638c1.644-1.828,3.274-3.746,4.889-5.746
	c4.514,13.109,9.767,27.009,15.763,40.818c14.291,32.91,29.958,58.915,46.57,77.294c19.95,22.075,41.365,33.24,63.719,33.24
	c1.369,0,2.744-0.042,4.119-0.126c24.328-1.483,47.419-14.188,68.634-37.76c14.497-16.111,28.167-37.342,40.73-63.217
	c1.733,2.112,3.477,4.159,5.232,6.102c19.95,22.075,41.364,33.24,63.719,33.24c1.368,0,2.744-0.042,4.119-0.126
	c24.328-1.483,47.42-14.188,68.634-37.761c16.719-18.579,32.34-43.957,46.427-75.427c4.456-9.955,8.467-19.898,12.063-29.505
	H1795.611z"/>
<path style="fill:#13375B;" d="M2345.734,1792.831c-0.189-1.295,0.707-2.498,2.002-2.688l88.652-12.97
	c1.295-0.189,2.499,0.707,2.688,2.002l1.349,9.214l-93.343,13.655L2345.734,1792.831z"/>
<path style="fill:#13375B;" d="M2378.487,1788.482c1.13,7.722,8.306,13.066,16.027,11.937s13.065-8.306,11.936-16.027
	c-1.129-7.722-8.305-13.065-16.026-11.937C2382.701,1773.585,2377.357,1780.761,2378.487,1788.482z M2383.502,1787.749
	c-0.724-4.952,2.703-9.554,7.655-10.278s9.554,2.703,10.278,7.654c0.725,4.952-2.702,9.555-7.654,10.278
	C2388.828,1796.128,2384.227,1792.701,2383.502,1787.749z"/>
<path style="fill:#355389;" d="M2346.85,1790.461c-0.789,0.479-1.258,1.398-1.115,2.37l1.348,9.214l93.343-13.655
	c0.934,6.384-3.484,12.315-9.868,13.25l-70.225,10.273c-6.384,0.934-12.316-3.484-13.25-9.868l-1.348-9.214
	C2345.592,1791.859,2346.061,1790.94,2346.85,1790.461z"/>
<g>
	<path style="fill:#96D9C9;" d="M2379.528,1999.123h241.261c-0.699-15.271-1.894-28.371-3.824-38.53
		c-13.856-72.904-72.053-160.997-72.053-160.997l-207.842-27.34l34.498,203.514L2379.528,1999.123z"/>
	<path style="fill:#50BFA5;" d="M2432.255,1999.123l-55.432-192.783l-49.132,18.593c0,0-17.02,97.174-10.449,174.19H2432.255z"/>
	<path style="fill:#F7A491;" d="M2062.426,1616.839c-3.085-6.565,29.472-15.502,30.521-22.575
		c1.048-7.074-42.595-3.088-44.784-8.979c-4.032-10.852,47.53-7.305,45.992-12.415c-1.539-5.11-54.531-11.389-49.862-20.918
		c4.669-9.528,54.271,12.243,55.06,6.024c0.787-6.22-47.948-16.097-48.484-29.495c-0.286-7.161,81.155,27.443,89.687,22.647
		c8.532-4.794-13.479-36.311-6.882-42.01s35.178,60.21,40.339,62.135c5.144,1.918,123.774,36.58,161.778,42.182
		c3.209-12.867,24.91-84.545,27.658-96.683c22.309,12.629,50.739-2.571,73.579,8.683c-11.494,40.539-37.306,174.059-47.621,180.07
		c-31.406,18.307-196.642-68.977-223.954-84.426c-27.339-15.463-41.3-8.082-59.109-12.016
		C2088.533,1605.132,2065.512,1623.404,2062.426,1616.839z"/>
	<path style="fill:#0E2E35;" d="M2356.447,1223.515c-8.312-37.781-16.453-75.802,5.459-117.31
		c17.732-33.59,48.385-52.917,83.862-57.126c100.521-11.927,79.036,81.914,219.531,102.229
		c43.655,6.312,84.212,12.379,120.661,34.091c65.814,39.205,90.658,102.094,47.011,204.547
		c-106.878,250.873-362.614,32.871-401.621-11.5C2392.641,1334.413,2361.797,1247.836,2356.447,1223.515z"/>
	<path style="fill:#F7CC7F;" d="M2514.656,1342.771c0,0,50.756,5.76,81.116,38.785c30.36,33.024-49.073,298.488-54.594,340.521
		c-5.521,42.031,52.788,158.361,52.788,158.361s-198.203,39.397-249.727,5.371c0,0-4.525-324.867,0.994-354.892
		c5.521-30.023,51.523-152.121,62.563-164.131C2418.839,1354.777,2514.656,1342.771,2514.656,1342.771z"/>
	<path style="fill:#F7A491;" d="M2489.108,1240.434c0,0,0.397,2.256,1.11,6.094c3.422,18.413,16.599,79.494,25.5,96.287
		c10.756,20.293-36.827,85.016-82.625,77.116c-13.634-2.351,11.523-59.468,10.314-65.519c-2.314-11.581-5.453-27.381-8.664-43.582
		c-1.812-9.139-3.646-18.404-5.37-27.112c-4.897-24.75-8.894-44.991-8.894-44.991L2489.108,1240.434z"/>
	<path style="opacity:0.5;fill:#F47458;" d="M2490.22,1246.527c-0.714-3.838-1.111-6.094-1.111-6.094l-68.628-1.707
		c0,0,3.996,20.241,8.894,44.991c1.714,8.659,3.538,17.871,5.34,26.961c10.595-1.557,21.667-6.697,32.768-16.395
		c12.102-10.572,20.033-23.276,24.82-36.841C2491.455,1253.113,2490.75,1249.383,2490.22,1246.527z"/>
	<path style="fill:#F7A491;" d="M2447.828,1077.324c0,0,27.986,3.882,48.263,30.054s42.13,107.107-8.238,151.11
		c-50.369,44.003-100.136-5.806-107.515-58.617C2372.958,1147.061,2374.45,1075.418,2447.828,1077.324z"/>
	<path style="fill:#F7A491;" d="M2365.652,1186.834c3.178,12.731,11.52,21.332,18.632,19.21c7.113-2.123,10.304-14.164,7.126-26.896
		c-3.177-12.732-11.518-21.333-18.631-19.211C2365.666,1162.061,2362.476,1174.102,2365.652,1186.834z"/>
	<path style="fill:#0E2E35;" d="M2416.742,1077.558c0,0,65.773,75.509,96.688,79.065c30.915,3.556,34.975,44.452,34.975,44.452
		s-11.053-94.236-41.659-112.409C2476.141,1070.493,2416.742,1077.558,2416.742,1077.558z"/>
	<path style="fill:#F7A491;" d="M2503.321,1174.961c-2.515,13.668,2.542,26.202,11.294,27.996s17.885-7.832,20.399-21.5
		s-2.542-26.202-11.294-27.996S2505.836,1161.293,2503.321,1174.961z"/>
	<path style="fill:#184655;" d="M2504.262,1558.206l-212.538,31.093c-6.389,0.935-10.811,6.871-9.876,13.261l41.481,283.548
		c0.935,6.39,6.871,10.811,13.261,9.876l212.537-31.093c6.389-0.934,10.811-6.871,9.876-13.261l-41.481-283.548
		C2516.587,1561.692,2510.65,1557.271,2504.262,1558.206z"/>
	<path style="fill:#FFFFFF;" d="M2411.83,1226.032l47.83-0.254c0,0-1.006,18.173-22.037,18.892
		C2411.98,1245.547,2411.83,1226.032,2411.83,1226.032z"/>
	<path style="fill:#F7A491;" d="M2653.371,1630.714l-77.01,7.87c0,0,1.255,65.36-0.066,72.871c0,0-131.689,36.504-186.728,46.408
		c0,0-25.061-14.203-35.198-18.72s-37.393-9.442-43.417-10.231c-6.025-0.788-3.969,5.814,1.207,8.121
		c5.177,2.307,18.566,8.616,22.363,16.34c0,0-10.87,1.189-16.622-1.373c-5.752-2.563-13.675-7.989-13.801-10.803
		c-0.125-2.813-1.434-9.595-3.32-9.229c-0.482,0.094-1.123,2.321-1.77,4.649c-0.614,2.212-1.264,4.481-1.803,6.712
		c-0.967,4.008-2.078,9.863-2.511,12.493c-0.985,6.003,2.687,22.561,3.202,28.439c0.941,10.735,4.007,15.504,9.674,18.241
		c9.14,3.184,18.807,5.213,33.101,6.691c26.196,2.709,50.272-4.832,60.776-6.012c10.504-1.181,178.191-17.811,178.191-17.811
		s66.662-9.594,71.084-21.066S2653.371,1630.714,2653.371,1630.714z"/>
	<path style="fill:#466EB6;" d="M2586.47,1371.961c0,0,24.306,11.523,45.672,61.303c20.304,47.304,26.271,283.377,26.271,283.377
		l-80.557-13.427l-40.936-110.071c-29.176-65.879-21.643-142.584,20.866-200.759
		C2569.125,1376.866,2579.572,1367.494,2586.47,1371.961z"/>
</g>
<g>
	<g>
		<path style="fill:#F8A492;" d="M1282.82,1305.346c16.968,2.749,15.965,5.521,18.147,5.813
			c2.581,0.347,33.209-15.035,33.209-15.035s90.583-44.708,95.385-47.301l65.383-82.259l50.388,23.239
			c0,0-73.532,87.455-78.184,91.309c-4.653,3.854-134.534,49.397-145.827,53.791c0,0-11.388,10.408-18.757,16.695
			c-7.369,6.287-17.223,8.779-19.576,10.212c-0.347,0.211-8.474,4.503-19.959,7.001c-9.897,2.152-1.65-4.571-1.65-4.571
			s17.511-7.392,16.649-8.728c-0.664-1.03-9.972,3.593-20.895,6.093c-2.809,0.643-5.583,1.267-8.137,1.818
			c-6.704,1.449-9.648-2.387-2.913-5.058c2.379-0.943,6.371-2.41,9.377-3.037c3.248-0.678,5.977-2.383,8.605-3.384
			c5.219-1.985,9.051-3.365,8.845-3.545c-0.267-0.232,0.467-1.386-2.538-0.8c-3.613,0.705-10.9,3.957-16.309,4.568
			c-3.066,0.348-9.416,1.475-9.416,1.475s-11.237,1.074-11.314-0.502c-0.169-3.441,6.751-5.365,11-5.277
			c2.679-1.364,9.399-2.354,9.399-2.354s13.034-5.145,12.277-7.073c-0.301-0.771-8.193,0.414-16.565,0.987
			c-8.852,0.606-15.263,0.604-15.735-1.108c-0.749-2.721,6.295-3.751,6.295-3.751s6.212-0.905,8.246-1.369
			c2.385-0.544,9.383-2.735,9.383-2.735s23.973-8.807,23.106-10.576c-0.865-1.77-4.824-5.473-6.515-5.463
			c-1.689,0.01-4.714,1.696-6.404,1.706c-1.689,0.01-5.327-0.316-5.579-2.443c-0.254-2.127,9.133-6.532,9.133-6.532
			S1277.922,1304.551,1282.82,1305.346z"/>
		<path style="fill:#466EB6;" d="M1449.445,1217.511c0,0,16.311,14.818,23.097,19.697c5.64,4.055,33.125,17.293,33.125,17.293
			s27.345-41.872,39.302-62.869c14.506-25.475,24.55-63.358,21.121-64.386c-9.623-2.883-22.863-4.645-35.09,0.968
			C1488.692,1147.633,1449.445,1217.511,1449.445,1217.511z"/>
		<path style="fill:#FE875E;" d="M1298.665,1327.228c-7.259,1.146-14.682-0.234-17.898-6.88
			C1280.043,1328.229,1291.988,1332.141,1298.665,1327.228z"/>
	</g>
	<g>
		
			<rect x="1178.141" y="1278.397" transform="matrix(0.938 -0.3466 0.3466 0.938 -391.9286 536.8281)" style="fill:#FCF0D0;" width="253.834" height="171.773"/>
		
			<rect x="1183.224" y="1306.82" transform="matrix(0.938 -0.3466 0.3466 0.938 -406.539 511.9131)" style="fill:#F47458;" width="89.802" height="171.774"/>
		
			<rect x="1291.805" y="1268.358" transform="matrix(0.938 -0.3466 0.3466 0.938 -361.7878 536.3946)" style="fill:#ED9B8E;" width="54.222" height="22.864"/>
	</g>
	<path style="fill:#466EB6;" d="M1194.916,1878.042l20.128-5.063l-147.079-514.271L857.82,1242.156
		c-4.549-2.523-10.283-0.881-12.806,3.669l0,0c-2.523,4.55-0.88,10.282,3.669,12.806l203.226,112.713l130.863,474.378
		L1194.916,1878.042z"/>
	<g>
		<path style="fill:#1A1A1A;" d="M1156.381,1848.844c0,37.424,30.328,67.762,67.739,67.762s67.739-30.338,67.739-67.762
			s-30.328-67.763-67.739-67.763S1156.381,1811.42,1156.381,1848.844z"/>
	</g>
	<path style="fill:#F48C7F;" d="M661.327,1246.729c-10.697-5.908-38.65-110.212-82.543-135.753c0,0-17.444-12.022-40.798,7.159
		c-22.97,19.208,73.606,159.764,95.153,171.727c32.161,17.855,157.231-18.877,186.181-25.158l-3.184-20.807
		C816.136,1243.896,670.806,1251.965,661.327,1246.729z"/>
	<path style="fill:#466EB6;" d="M621.102,1144.177c0,0,38.55,73.611,43.574,85.646c0,0-51.18,31.911-63.284,43.293
		c0,0-18.769-61.399-18.769-64.47S621.102,1144.177,621.102,1144.177z"/>
	<path style="fill:#F48C7F;" d="M811.654,1248.38l9.872-1.651l2.46,2.661l-0.039,1.976l-7.209,4.651c0,0-11.426-4.513-11.418-4.916
		C805.328,1250.697,811.654,1248.38,811.654,1248.38z"/>
	<path style="fill:#F7A491;" d="M711.563,1282.326l9.838-1.845l2.512,2.612v1.975l-7.117,4.793c0,0-11.513-4.286-11.513-4.689
		C705.283,1284.768,711.563,1282.326,711.563,1282.326z"/>
	<polygon style="fill:#466EB6;" points="722.168,1285.068 851.802,1241.095 864.504,1252.604 731.797,1297.708 	"/>
	<path style="fill:#F48C7F;" d="M373.291,1847.195c0,0-9.943,9.729-10.168,13.3c-0.226,3.571-0.881,41.823,3.178,45.395
		c4.059,3.571,15.981,6.103,12.148,10.12c-2.897,3.035-25.185,2.387-39.956,1.571c-4.312-0.238-9.719-34.74-11.427-39.812
		c-2.48-7.364-8.512-23.953-6.257-29.087c1.099-2.501,6.355-7.642,13.762-12.439c7.791-5.046,15.245-16.281,15.245-16.281
		L373.291,1847.195z"/>
	<path style="fill:#F7A491;" d="M477.616,1869.852c0,0-8.898,25.209-8.908,25.273c-0.662,3.994-3.267,13.86-3.267,17.491
		c0,13.639,61.334-11.578,47.588-17.622c-1.244-0.548-5.148-4.918-5.557-9.56c-0.63-7.152,5.166-16.123,5.166-16.123
		L477.616,1869.852z"/>
	<g>
		<path style="fill:#50BFA5;" d="M573.834,1400.448c0,0,4.471,45.19,4.471,45.864c0,73.102,14.45,215.894,11.702,229.637
			c-6.704,33.521-78.853,204.526-78.853,204.526l-38.995-4.675l50.815-204.74l-18.699-82.41l-26.46-162.897L573.834,1400.448z"/>
		<path style="fill:#96D9C9;" d="M445.311,1387.543l-9.749,95.707l-20.019,176.274l-76.239,172.28c0,0,10.724,25.068,26.544,28.59
			l121.341-176.881l73.101-269.534l-0.372-7.083L445.311,1387.543z"/>
	</g>
	<path style="fill:#184655;" d="M335.054,1836.001c0,0,22.915,64.707,31.885,67.831c2.381,0.829,13.811,2.933,15.967,8.002
		c0.649,1.527,0,6.627,0,6.627h-47.764c0,0-6.042-28.51-8.429-41.037c0,0-12.644-30.606-11.239-33.388
		C316.878,1841.255,335.054,1836.001,335.054,1836.001z"/>
	<path style="fill:#184655;" d="M461.952,1917.116l7.025-22.252c0,0,14.75,6.259,22.126,5.216
		c7.376-1.044,21.775-5.216,21.775-5.216c29.438,9.718,53.556,14.434,49.169,22.252l0,0H461.952z"/>
	<path style="fill:#5184CE;" d="M576.86,1413.885l-9.395-79.795c0,0,60.807-116.808,59.87-176.727
		c-0.56-26.566-27.489-40.462-31.019-41.222c-17.641-3.792-59.012-23.672-88.489-3.446
		c-34.711,24.312-72.005,104.045-68.656,297.175C439.172,1409.87,539.462,1425.742,576.86,1413.885z"/>
	<path style="fill:#F7A491;" d="M576.64,1283.163c-10.812-5.697,13.657-142.349-30.729-167.021c0,0-17.677-11.678-40.649,7.96
		c-22.587,19.656,12.84,206.125,34.618,217.661c32.506,17.22,151.785-31.011,180.605-37.859l-4.529-26.147
		C715.955,1277.756,586.22,1288.211,576.64,1283.163z"/>
	<path style="fill:#466EB6;" d="M576.64,1251.628c1.129-47.394-1.067-118.998-30.729-135.486c0,0-17.677-11.678-40.649,7.96
		c-13.145,11.438-21.797,87.183-11.554,146.504C513.575,1259.571,553.391,1251.369,576.64,1251.628z"/>
	<path style="fill:#F7A491;" d="M711.981,1278.838c0,0,19.556-15.583,25.587-15.583c6.031,0,14.635,0.601,16.802,2.011
		c1.986,1.292,14.818,24.877,11.417,28.334c-2.068,2.103-12.817-17.158-12.817-17.158s12.278,19.844,6.784,21.244
		c-3.049,0.778-13.893-19.195-13.893-19.195s9.373,16.529,8.293,17.164c-2.932,1.723-8.702-3.3-14.431-9.128
		c-3.53-3.592-17.715-1.411-17.715-1.411L711.981,1278.838z"/>
	<path style="fill:#07345A;" d="M597.603,965.149c0,0-16.885-17.803-30.467,3.854c0,0-10.462-5.873-17.803,4.588
		c0,0-18.904-5.69-23.492,22.575c0,0-9.728-1.835-11.012,9.727c-1.285,11.563,4.588,19.271,4.588,19.271s-5.465,4.098-2.982,14.729
		c2.111,9.04,9.589,10.416,9.589,10.416s2.019,15.233,8.626,19.821c6.607,4.589,15.601,2.387,15.601,2.387s2.386,8.259,10.094,7.524
		s17.252-8.075,25.878-4.771c8.627,3.304,31.018-0.184,31.018-0.184s25.144-11.196,17.619-36.891c0,0,13.215-11.93,1.652-26.246
		c0,0,8.443-22.391-8.259-35.605C611.552,963.13,597.603,965.149,597.603,965.149z"/>
	<path style="fill:#F7A491;" d="M594.75,1086.016l3.057,22.676c0,0,6.847,32.67-1.962,38.969c-8.809,6.298-37.46-39.9-37.46-39.9
		l3.026-57.459L594.75,1086.016z"/>
	<path style="fill:#F47458;" d="M560.434,1068.922c7.276,19.599,24.607,31.646,36.909,36.319l-2.592-19.226l-33.339-35.716
		L560.434,1068.922z"/>
	<path style="fill:#F7A491;" d="M581.768,989.933c17.876-6.153,36.932,5.722,39.659,24.149c1.186,8.01,2.259,18.081,2.459,29.093
		c0.482,26.486-13.229,52.263-25.257,52.263c-12.027,0-45.266-17.146-46.468-54.746
		C551.418,1017.477,563.008,996.39,581.768,989.933z"/>
	<ellipse style="fill:#F7A491;" cx="552.372" cy="1043.665" rx="8.651" ry="10.579"/>
	<path style="fill:#07345A;" d="M633.872,976.754c12.423,9.841,16.776,24.794,9.724,33.4c-7.052,8.604-22.841,7.602-35.264-2.24
		c-12.423-9.841-16.776-24.794-9.724-33.4C605.661,965.91,621.449,966.913,633.872,976.754z"/>
	<path style="fill:#07345A;" d="M601.392,984.824c0,4.277-5.164,7.744-11.534,7.744s-11.534-3.467-11.534-7.744
		c0-4.277,5.164-7.744,11.534-7.744S601.392,980.547,601.392,984.824z"/>
	<path style="fill:#07345A;" d="M635.713,1017.736c0,5.499-4.409,9.956-9.847,9.956s-9.846-4.457-9.846-9.956
		c0-5.499,4.408-9.957,9.846-9.957S635.713,1012.237,635.713,1017.736z"/>
	<g>
		
			<rect x="985.915" y="1485.075" transform="matrix(0.9667 -0.2561 0.2561 0.9667 -365.4762 329.1225)" style="fill:#F7CC7F;" width="190.474" height="165.962"/>
		
			<rect x="987.967" y="1500.834" transform="matrix(0.9667 -0.2561 0.2561 0.9667 -371.4903 314.4091)" style="opacity:0.5;fill:#F47458;" width="67.387" height="165.962"/>
		
			<rect x="1073.058" y="1479.349" transform="matrix(0.9667 -0.2561 0.2561 0.9667 -345.1689 329.6544)" style="fill:#EFEFB4;" width="40.687" height="22.091"/>
	</g>
	<g>
		
			<rect x="1020.642" y="1632.909" transform="matrix(0.9667 -0.2561 0.2561 0.9667 -406.8573 354.0659)" style="fill:#ED9B8E;" width="271.199" height="213.042"/>
		
			<rect x="1023.563" y="1655.347" transform="matrix(0.9667 -0.2561 0.2561 0.9667 -415.4276 333.1246)" style="fill:#F47458;" width="95.946" height="213.042"/>
		
			<rect x="1147.298" y="1624.42" transform="matrix(0.9667 -0.2561 0.2561 0.9667 -380.3681 355.8285)" style="fill:#EFEFB4;" width="57.931" height="28.357"/>
	</g>
	<g>
		
			<rect x="1150.634" y="1651.564" transform="matrix(0.9667 -0.2561 0.2561 0.9667 -403.3947 377.7014)" style="fill:#F7CC7F;" width="196.184" height="172.75"/>
		
			<rect x="1152.747" y="1667.796" transform="matrix(0.9667 -0.2561 0.2561 0.9667 -409.6058 362.5656)" style="opacity:0.5;fill:#F47458;" width="69.407" height="172.75"/>
		
			<rect x="1240.188" y="1645.693" transform="matrix(0.9667 -0.2561 0.2561 0.9667 -382.3164 378.2049)" style="fill:#EFEFB4;" width="41.907" height="22.994"/>
	</g>
	<path style="fill:#F7A491;" d="M1717.184,1859.311c0,0,1.809,32.059,1.819,32.124c0.665,4.07,3.284,14.126,3.284,17.826
		c0,13.9-61.669-11.799-47.848-17.96c1.252-0.558,7.805-4.774,8.216-9.505c0.634-7.29,2.242-22.035,2.242-22.035L1717.184,1859.311z
		"/>
	<path style="fill:#184655;" d="M1673.848,1891.438c0,0,14.479,4.252,21.895,5.315c7.415,1.063,17.191-7.888,22.438-5.47
		c5.772,2.661,5.547,26.614,5.547,26.614s-77.644,6.818-99.477-0.235C1615.602,1914.869,1644.248,1901.342,1673.848,1891.438z"/>
	<path style="fill:#F7A491;" d="M1819.88,1857.648c0,0,1.809,32.059,1.819,32.125c0.666,4.069,3.285,14.126,3.285,17.825
		c0,13.9-61.669-11.799-47.848-17.959c1.251-0.558,9.747-7.923,10.158-12.653c0.635-7.29,0.299-18.888,0.299-18.888
		L1819.88,1857.648z"/>
	<path style="fill:#184655;" d="M1777.289,1889.508c0,0,14.479,4.252,21.894,5.314c7.416,1.063,17.192-7.888,22.438-5.47
		c5.772,2.661,6.003,26.614,6.003,26.614s-77.09,3.166-99.932-0.235C1718.702,1914.394,1747.689,1899.411,1777.289,1889.508z"/>
	<path style="fill:#50BFA5;" d="M1801.588,1348.47c0,0,10.451,54.078,6.192,95.082c-4.259,41.005-4.594,186.665-4.594,186.665
		l19.646,232.978l-41.957,0.979c0,0-45.729-232.944-44.877-226.965c0.853,5.98-15.333-164.017-15.333-164.017l54.516-129.848
		L1801.588,1348.47z"/>
	<path style="fill:#96D9C9;" d="M1786.968,1313.545c0,0,47.346,49.869,29.734,104.343c-7.074,21.88-73.061,230.901-73.912,247.986
		s-22.315,205.927-22.315,205.927l-44.842-1.35l-9.7-209.955l12.816-282.889l27.219-47.709L1786.968,1313.545z"/>
	<path style="fill:#5184CE;" d="M1499.514,1151.228c15.502-17.297,49.249-41.911,49.249-41.911s20.103-17.172,28.298-19.997
		c12.061-4.158,32.721-15.253,62.604,30.036c21.385,32.408,156.322,200.219,178.473,205.867l-144.648,69.203
		c-3.96-33.055-75.454-95.494-85.742-107.146C1564.752,1261.239,1484.836,1167.604,1499.514,1151.228z"/>
	<path style="fill:#F7A491;" d="M1506.258,1080.918l45.06,26.379c0,0,1.268,38.462-13.463,48.452
		c-12.36,8.383-21.767-11.735-21.767-11.735s-16.756-23.219-29.482-30.451C1473.878,1106.329,1506.258,1080.918,1506.258,1080.918z"
		/>
	<path style="fill:#F47458;" d="M1513.818,1097.847c-1.695,8.024-5.618,19.626-11.695,29.182
		c-4.964-5.37-10.543-10.64-15.518-13.466c-5.874-3.338-2.135-10.547,3.589-17.344c8.085-8.417,16.063-15.301,16.063-15.301
		l8.659,5.069C1515.477,1089.272,1514.383,1095.175,1513.818,1097.847z"/>
	<path style="fill:#F7A491;" d="M1482.789,1014.809c0.756-0.938,37.796,45.17,33.229,66.797
		c-4.568,21.626-26.959,41.361-42.522,35.935c-17.214-6.002-49.222-60.281-37.742-86.636S1482.789,1014.809,1482.789,1014.809z"/>
	<path style="fill:#13375B;" d="M1442.232,1000.266c16.146-8.982,42.486-11.56,62.165-1.256
		c24.197,12.669,29.709,44.544,22.134,63.987c-7.575,19.443,1.099,30.434,1.099,30.434l-12.836-7.496c0,0-7.495-11.702-8.476-21.029
		c-0.979-9.326-14.585-7.675-21.228-11.904c-5.114-3.258-11.642-13.842-19.917-19.334c0,0-20.835-2.557-31.082,3.193
		C1416.623,1046.662,1419.104,1013.131,1442.232,1000.266z"/>
	<path style="fill:#F7A491;" d="M1495.5,1060.771c-0.119,6.917,3.15,12.579,7.303,12.647s7.615-5.483,7.734-12.4
		c0.12-6.917-3.149-12.58-7.302-12.648S1495.62,1053.854,1495.5,1060.771z"/>
	<path style="fill:#FFFFFF;" d="M1457.563,1097.484l19.609-14.663c0,0,5.185,7.923-3.25,14.625
		C1463.638,1105.618,1457.563,1097.484,1457.563,1097.484z"/>
	<path style="fill:#F8A492;" d="M1408.313,1389.167c4.913-7.173,7.054-17.531,13.846-25.431c2.282-2.654,5.91-5.644,10.046-8.624
		c32.672-19.114,117.779-68.39,121.091-72.214c3.926-4.531,62.015-101.043,62.015-101.043l-52.172-11.82l-50.983,90.028
		c-4.258,3.38-85.189,63.193-85.189,63.193s-16.092,12.575-24.889,18.459c-4.445,2.594-8.754,4.272-12.527,5.585
		c-4.747,1.651-13.796,6.158-15.625,7.769c-2.125,1.87-6.38,5.87-8.908,8.312c-2.528,2.44-5.596,5.199-6.779,6.651
		c-0.721,0.884-2.958,2.103-4.6,2.922c-2.446,1.221-2.128,4.84,0.501,5.584c2.478,0.701,5.825-0.852,7.9-1.827
		c5.857-2.754,13.016-10.188,13.395-9.279c0.379,0.909-6.889,16.838-7.602,18.712c-0.714,1.874-9.061,20.433-9.488,24.571
		c-0.428,4.138,2.064,5.093,3.919,3.58c1.596-1.302,15.019-26.083,15.019-26.083s1.719-3.157,2.387-1.352
		s-11.475,24.33-12.66,28.027c-1.186,3.697-0.242,6.729,3.176,5.433c4.157-1.577,15.639-26.418,15.639-26.418
		s1.493-3.089,2.514-2.014c1.021,1.076-9.63,20.067-9.75,22.256c-0.118,2.188,1.856,4.345,4.73,2.517
		c3.384-2.152,13.444-24.418,13.444-24.418s1.241-1.474,1.632-0.438c0.391,1.034-7.535,17.874-6.943,20.335
		c0.497,2.066,2.355,1.652,2.355,1.652C1397.952,1413.781,1403.399,1396.341,1408.313,1389.167z"/>
	<path style="fill:#466EB6;" d="M1601.022,1232.835c0,0-16.99-5.405-27.888-10.395c-7.299-3.342-39.136-19.185-39.136-19.185
		s13.726-57.899,23.004-78.718c34.052-76.403,72.75-23.712,78.001-11.429C1646.747,1140.582,1601.022,1232.835,1601.022,1232.835z"
		/>
	<path style="fill:#F48C7F;" d="M812.142,1244.899c0,0,19.858-15.194,25.889-15.075c6.03,0.118,14.621,0.888,16.759,2.34
		c1.96,1.331,14.326,25.163,10.857,28.554c-2.109,2.061-12.477-17.407-12.477-17.407s11.886,20.081,6.365,21.374
		c-3.064,0.717-13.513-19.465-13.513-19.465s9.046,16.71,7.954,17.323c-2.965,1.665-8.635-3.471-14.249-9.41
		c-3.459-3.66-17.684-1.759-17.684-1.759L812.142,1244.899z"/>
	<polygon style="fill:#466EB6;" points="1364.198,1795.155 1369.262,1818.432 1049.518,1902.531 1044.081,1878.082 	"/>
	<path style="fill:#466EB6;" d="M1059.063,1913.778l18.237-4.731l-139.654-506.243L727.5,1286.253
		c-4.549-2.523-10.283-0.881-12.806,3.669c-2.523,4.549-0.88,10.282,3.669,12.805L921.59,1415.44L1059.063,1913.778z"/>
	<g>
		<path style="fill:#1A1A1A;" d="M994.369,1848.844c0,37.424,30.328,67.762,67.74,67.762s67.739-30.338,67.739-67.762
			s-30.328-67.763-67.739-67.763S994.369,1811.42,994.369,1848.844z"/>
		<path style="fill:#9E9DA2;" d="M1014.977,1848.844c0,26.038,21.102,47.146,47.131,47.146s47.131-21.108,47.131-47.146
			c0-26.039-21.101-47.147-47.131-47.147S1014.977,1822.805,1014.977,1848.844z"/>
		<path style="fill:#D8D9DD;" d="M1030.589,1848.844c0,17.414,14.112,31.53,31.52,31.53c17.408,0,31.52-14.116,31.52-31.53
			s-14.112-31.531-31.52-31.531C1044.701,1817.313,1030.589,1831.43,1030.589,1848.844z"/>
	</g>
	<path style="fill:#FFFFFF;" d="M588.248,1064.662l26.289-2.092c0,0,0.171,10.196-11.364,11.456
		C589.108,1075.563,588.248,1064.662,588.248,1064.662z"/>
</g>
<rect x="2138.315" y="636.504" style="fill:#9BC1F9;" width="853.065" height="94.002"/>
</svg>
