<?xml version="1.0" encoding="utf-8"?>
<!-- Generator: Adobe Illustrator 27.5.0, SVG Export Plug-In . SVG Version: 6.00 Build 0)  -->
<svg version="1.1" xmlns="http://www.w3.org/2000/svg" xmlns:xlink="http://www.w3.org/1999/xlink" x="0px" y="0px"
	 viewBox="0 0 500 500" style="enable-background:new 0 0 500 500;" xml:space="preserve">
<g id="BACKGROUND">
	<rect style="fill:#F0F5F7;" width="500" height="500"/>
</g>
<g id="OBJECTS">
	<g>
		<g>
			<rect x="89.769" y="275.081" style="fill:#D1DCEE;" width="165.11" height="30.228"/>
			<g>
				<rect x="98.979" y="283.422" style="fill:#DAE8F2;" width="9.591" height="21.887"/>
				<rect x="116.116" y="283.422" style="fill:#DAE8F2;" width="9.591" height="21.887"/>
				<rect x="133.253" y="283.422" style="fill:#DAE8F2;" width="9.591" height="21.887"/>
				<rect x="150.391" y="283.422" style="fill:#DAE8F2;" width="9.591" height="21.887"/>
				<rect x="184.665" y="283.422" style="fill:#DAE8F2;" width="9.591" height="21.887"/>
				<rect x="167.528" y="283.422" style="fill:#DAE8F2;" width="9.591" height="21.887"/>
				<rect x="201.803" y="283.422" style="fill:#DAE8F2;" width="9.591" height="21.887"/>
				<rect x="218.94" y="283.422" style="fill:#DAE8F2;" width="9.591" height="21.887"/>
				<rect x="236.077" y="283.422" style="fill:#DAE8F2;" width="9.591" height="21.887"/>
			</g>
			<rect x="90.037" y="319.37" style="fill:#D1DCEE;" width="165.11" height="30.228"/>
			<rect x="90.037" y="364.614" style="fill:#D1DCEE;" width="165.11" height="30.228"/>
			<circle style="fill:#DAE8F2;" cx="109.22" cy="339.357" r="10.241"/>
			<circle style="fill:#DAE8F2;" cx="134.591" cy="339.357" r="10.241"/>
			<circle style="fill:#DAE8F2;" cx="159.963" cy="339.357" r="10.241"/>
			<circle style="fill:#DAE8F2;" cx="185.334" cy="339.357" r="10.241"/>
			<circle style="fill:#DAE8F2;" cx="210.706" cy="339.357" r="10.241"/>
			<circle style="fill:#DAE8F2;" cx="236.077" cy="339.357" r="10.241"/>
			<rect x="98.71" y="378.138" style="fill:#DAE8F2;" width="23.713" height="16.704"/>
			<rect x="130.088" y="378.138" style="fill:#DAE8F2;" width="23.713" height="16.704"/>
			<rect x="161.466" y="378.138" style="fill:#DAE8F2;" width="23.713" height="16.704"/>
			<rect x="192.843" y="378.138" style="fill:#DAE8F2;" width="23.713" height="16.704"/>
			<rect x="224.221" y="378.138" style="fill:#DAE8F2;" width="23.713" height="16.704"/>
		</g>
		<path style="fill:#4187FA;" d="M155.109,317.281c-2.568,3.869-3.06,8.431-4.847,12.592c-2.88,6.707-8.972,12.079-15.093,17.069
			c-6.122,4.99-12.562,9.949-16.466,16.289c-3.904,6.34-4.771,14.517,0.24,20.297c6.067,6.997,18.205,8.071,28.442,6.598
			c10.238-1.473,20.251-4.838,30.623-4.316c4.951,0.249,9.784,1.384,14.726,1.729c4.943,0.345,10.297-0.228,14.049-2.92
			c3.599-2.582,5.11-6.727,5.059-10.673c-0.051-3.946-1.472-7.781-2.879-11.551c-4.559-12.213-9.125-24.447-14.876-36.319
			c-2.209-4.559-4.298-11.581-8.905-14.917c-3.209-2.323-7.729-2.011-11.729-1.986C165.866,309.223,158.936,311.514,155.109,317.281
			z"/>
		<g>
			<g>
				<g>
					<path style="fill:#342D3A;" d="M246.701,379.306l-24.376,3.345l-25.714,3.537c-5.445,0.752-10.459-3.055-11.197-8.502
						c-0.125-0.88-0.128-1.748-0.029-2.58c0.545-4.369,3.964-8.004,8.529-8.632l25.186-3.465l24.898-3.409
						c5.446-0.753,10.459,3.055,11.211,8.501c0.124,0.866,0.127,1.734,0.021,2.573C254.693,375.049,251.268,378.692,246.701,379.306
						z"/>
				</g>
			</g>
			<g>
				<path style="fill:#FBB060;" d="M233.063,315.415l5.15-8.573c0.539-0.897,0.235-2.112-0.679-2.714l0,0
					c-0.914-0.602-2.092-0.363-2.63,0.534l-5.151,8.573c-0.539,0.897-0.235,2.112,0.679,2.714v0
					C231.347,316.552,232.525,316.312,233.063,315.415z"/>
				<path style="fill:#FBB060;" d="M237.962,315.164l4.492-7.477c0.539-0.897,0.235-2.112-0.679-2.714l0,0
					c-0.914-0.602-2.092-0.363-2.631,0.534l-4.492,7.477c-0.539,0.897-0.235,2.112,0.679,2.714l0,0
					C236.245,316.301,237.423,316.061,237.962,315.164z"/>
				<path style="fill:#FBB060;" d="M240.18,319.348l4.496-7.484c0.539-0.897,0.235-2.112-0.679-2.714l0,0
					c-0.914-0.602-2.092-0.363-2.631,0.534l-4.496,7.484c-0.539,0.897-0.235,2.112,0.679,2.714l0,0
					C238.464,320.484,239.642,320.245,240.18,319.348z"/>
				<path style="fill:#FBB060;" d="M241.916,323.487l4.413-7.347c0.468-0.779,0.204-1.833-0.589-2.355l0,0
					c-0.793-0.522-1.816-0.315-2.283,0.464l-4.414,7.347c-0.467,0.779-0.204,1.833,0.589,2.355l0,0
					C240.426,324.474,241.448,324.266,241.916,323.487z"/>
				<path style="fill:#FBB060;" d="M236.32,329.756c-4.458,1.409-9.406-1.2-11.052-5.829c-1.646-4.628,0.633-9.523,5.09-10.932
					c4.458-1.409,9.406,1.2,11.052,5.829C243.056,323.453,240.778,328.347,236.32,329.756z"/>
				
					<line style="fill:none;stroke:#342D3A;stroke-linecap:round;stroke-linejoin:round;stroke-miterlimit:10;" x1="234.002" y1="313.853" x2="238.53" y2="306.028"/>
				
					<line style="fill:none;stroke:#342D3A;stroke-linecap:round;stroke-linejoin:round;stroke-miterlimit:10;" x1="237.17" y1="316.725" x2="241.698" y2="308.9"/>
				
					<line style="fill:none;stroke:#342D3A;stroke-linecap:round;stroke-linejoin:round;stroke-miterlimit:10;" x1="238.952" y1="321.471" x2="243.48" y2="313.646"/>
				<g>
					
						<rect x="222.699" y="306.654" transform="matrix(0.3185 0.9479 -0.9479 0.3185 454.8938 -7.513)" style="fill:#48CEAB;" width="19.947" height="11.92"/>
					
						<rect x="224.758" y="308.668" transform="matrix(0.3185 0.9479 -0.9479 0.3185 454.8075 -7.2342)" style="fill:none;stroke:#342D3A;stroke-linecap:round;stroke-linejoin:round;stroke-miterlimit:10;" width="15.355" height="8.051"/>
					<g>
						<path style="fill:#342D3A;" d="M230.011,313.241c-0.235-0.963,0.042-1.799,0.906-2.114l0.366,1.089
							c-0.324,0.141-0.491,0.391-0.451,0.75l1.387-0.466c-0.062-0.811-0.147-1.76,0.927-2.121c0.857-0.288,1.645,0.207,2.035,1.126
							l0.588-0.198l0.156,0.465l-0.588,0.198c0.232,0.932-0.049,1.705-0.891,2.061l-0.368-1.096
							c0.273-0.124,0.433-0.372,0.425-0.684l-1.372,0.461c0.058,0.821,0.159,1.772-0.915,2.133c-0.74,0.249-1.625-0.1-2.054-1.135
							l-0.588,0.198l-0.156-0.465L230.011,313.241z M233.111,312.2l1.256-0.422c-0.163-0.317-0.445-0.481-0.815-0.357
							C233.211,311.536,233.114,311.827,233.111,312.2z M232.243,313.008l-1.27,0.427c0.19,0.348,0.517,0.481,0.844,0.371
							C232.158,313.691,232.242,313.389,232.243,313.008z"/>
					</g>
				</g>
				<g>
					
						<rect x="223.594" y="303.231" transform="matrix(0.1163 0.9932 -0.9932 0.1163 513.5082 41.2629)" style="fill:#48CEAB;" width="19.947" height="11.92"/>
					
						<rect x="225.641" y="305.195" transform="matrix(0.1163 0.9932 -0.9932 0.1163 513.317 41.5345)" style="fill:none;stroke:#342D3A;stroke-linecap:round;stroke-linejoin:round;stroke-miterlimit:10;" width="15.355" height="8.051"/>
					<g>
						<path style="fill:#342D3A;" d="M230.833,309.257c-0.031-0.991,0.412-1.752,1.322-1.882l0.134,1.141
							c-0.346,0.071-0.561,0.282-0.596,0.641l1.453-0.17c0.106-0.807,0.219-1.753,1.345-1.885c0.898-0.105,1.567,0.541,1.759,1.521
							l0.616-0.072l0.057,0.487l-0.616,0.072c0.035,0.96-0.4,1.659-1.297,1.833l-0.134-1.148c0.293-0.065,0.5-0.275,0.557-0.582
							l-1.438,0.168c-0.113,0.815-0.21,1.767-1.335,1.899c-0.776,0.091-1.57-0.433-1.776-1.534l-0.616,0.072l-0.057-0.487
							L230.833,309.257z M234.081,308.876l1.316-0.154c-0.094-0.344-0.336-0.562-0.724-0.517
							C234.316,308.247,234.162,308.512,234.081,308.876z M233.066,309.489l-1.331,0.156c0.114,0.38,0.407,0.577,0.749,0.537
							C232.841,310.139,232.986,309.86,233.066,309.489z"/>
					</g>
				</g>
			</g>
			<g>
				<g>
					<path style="fill:#342D3A;" d="M247.468,377.348L247.468,377.348c-5.337,1.316-10.729-1.943-12.045-7.279l-8.708-41.212
						l16.774-3.892l11.34,40.88"/>
				</g>
				
					<rect x="225.184" y="326.667" transform="matrix(0.9768 -0.214 0.214 0.9768 -65.015 58.0341)" style="fill:#342D3A;" width="20.834" height="5.418"/>
				<path style="fill:#342D3A;" d="M233.928,362.428c-0.369,5.185,1.757,10.492,5.604,13.988"/>
			</g>
			<path style="fill:#FBB060;" d="M226.527,309.108c-1.076-0.215-2.076,0.51-2.232,1.621l-0.958,6.789
				c-0.045,0.313-0.01,0.621,0.076,0.91c0.179,1.557,1.322,2.911,2.879,3.22c1.861,0.371,3.587-0.885,3.857-2.805
				c0.246-1.756-0.82-3.446-2.427-4.006l0.47-3.33C228.349,310.397,227.604,309.323,226.527,309.108z"/>
		</g>
		<path style="fill:#342D3A;" d="M200.352,431.503c-0.205-2.315-0.187-4.647,0.045-6.953l3.971-38.943
			c0.383-9.883-6.651-18.127-15.474-18.127h-34.224c-8.814,0-15.857,8.244-15.465,18.127l6.019,31.687
			c0.917,4.826,1.033,9.767,0.356,14.619c-0.196,1.487-0.481,2.965-0.837,4.434l-3.072,12.696h60.23l-1.513-17.13L200.352,431.503z"
			/>
		<line style="fill:none;" x1="203.005" y1="429.498" x2="202.587" y2="429.498"/>
		<g>
			<path style="fill:#FBB060;" d="M190.115,367.508c-3.411,6.64-10.331,11.179-18.31,11.179c-8.008,0-14.947-4.577-18.348-11.256
				h10.186v-10.745c0-0.993,0.164-1.937,0.472-2.824c2.101,2.303,4.934,3.913,8.114,4.452c0.79,0.145,1.6,0.212,2.428,0.212
				c0.135,0,0.27,0,0.405-0.01c0.376,0.029,0.752,0.048,1.137,0.048c0.424,0,0.848-0.019,1.263-0.058c0.01,0,0.01,0,0.019,0h0.039
				c1.282-0.067,2.515-0.289,3.7-0.646v9.569h-0.096l0.096,0.096v-0.096h7.449C189.161,367.431,189.642,367.451,190.115,367.508z"/>
			<path style="fill:#ED9C54;" d="M186.405,336.526c-2.026,2.685-2.048,6.084-0.051,7.591s5.259,0.552,7.285-2.133
				s2.049-6.084,0.051-7.591C191.692,332.885,188.43,333.841,186.405,336.526z"/>
			<path style="fill:#4187FA;" d="M190.024,325.121c-0.016-2.225-0.422-4.351-1.137-6.328c-2.582-7.037-9.274-12.064-17.102-12.064
				c-10.07,0-18.239,8.29-18.239,18.508c0,5.439,2.722,11.136,6.392,14.515c0.227,0.21,0.294,3.803,0.294,3.803
				c0,8.076,6.451,14.622,14.41,14.622c8.495,0,15.382-6.988,15.382-15.609v-16.314c0-0.07-0.026-0.131-0.039-0.197
				c0.012-0.274,0.039-0.542,0.039-0.821V325.121z"/>
			<path style="fill:#FBB060;" d="M192.09,325.713c0,0.279-0.029,0.54-0.039,0.809c0.019,0.068,0.039,0.125,0.039,0.193v16.084
				c0,2.226-0.472,4.346-1.33,6.254c-2.39,5.377-7.777,9.126-14.05,9.126c-7.96,0-14.407-6.457-14.407-14.417
				c0,0-0.067-3.537-0.299-3.739c-3.672-3.334-6.389-8.953-6.389-14.311c0-10.07,8.172-18.233,18.242-18.233
				c7.825,0,14.513,4.953,17.096,11.882c0.713,1.956,1.128,4.047,1.137,6.235V325.713z"/>
			<path style="fill:#FBB060;" d="M173.488,377.76h-1.03c-4.876,0-8.829-3.953-8.829-8.829v-18.935c0-4.876,3.953-8.829,8.829-8.829
				l0,0c4.876,0,8.829,3.953,8.829,8.829v19.965C181.287,374.268,177.795,377.76,173.488,377.76z"/>
			<path style="fill:#342D3A;" d="M181.287,357.469v9.81l-9.42-9.647c1.381,0.438,2.875,0.682,4.401,0.682
				C178.022,358.314,179.711,358.022,181.287,357.469z"/>
			<path style="fill:#4187FA;" d="M190.741,318.398c-0.28,0.424-0.588,0.819-0.935,1.185c-4.588,4.799-11.992,3.547-17.438,6.654
				c-2.498,1.425-4.441,3.612-6.031,5.974c-1.7,2.525-0.802,4.648-0.359,7.676c0.321,2.193-3.348,3.559-4.773,0.954
				c-2.727-5.079-6.447-9.454-6.447-15.486c0-10.282,8.345-18.628,18.637-18.628c6.649,0,11.834,3.373,15.4,8.432
				c0.665,0.944,1.282,1.947,1.831,2.997C190.664,318.235,190.712,318.321,190.741,318.398z"/>
			<path style="fill:#F99062;" d="M192.09,341.806v0.993c0,2.226-0.472,4.346-1.33,6.254c-0.983-0.761-1.609-1.947-1.609-3.286
				C189.151,343.897,190.384,342.317,192.09,341.806z"/>
			<path style="fill:#4187FA;" d="M192.176,324.489c-0.279-0.376-0.568-0.752-0.858-1.108c-2.004-2.457-4.279-4.741-5.686-7.584
				c-0.752-1.532-1.205-3.296-1.166-4.992c1.773,1.253,3.325,2.814,4.549,4.606c0.848,1.224,1.542,2.544,2.062,3.951
				c0.472,1.291,0.809,2.641,0.993,4.038C192.118,323.756,192.147,324.123,192.176,324.489z"/>
			<path style="fill:#FBB060;" d="M162.909,336.24c2.184,2.895,2.362,6.442,0.399,7.923c-1.963,1.481-5.326,0.336-7.509-2.559
				c-2.184-2.895-2.362-6.442-0.399-7.923S160.725,333.345,162.909,336.24z"/>
			<path style="fill:#342D3A;" d="M177.333,335.479c0-0.818-0.663-1.481-1.481-1.481c-0.818,0-1.481,0.663-1.481,1.481
				c0,0.818,0.663,1.481,1.481,1.481C176.67,336.959,177.333,336.296,177.333,335.479z"/>
			<path style="fill:#342D3A;" d="M190.519,335.479c0-0.818-0.663-1.481-1.481-1.481c-0.818,0-1.481,0.663-1.481,1.481
				c0,0.818,0.663,1.481,1.481,1.481C189.856,336.959,190.519,336.296,190.519,335.479z"/>
			<path style="fill:none;stroke:#342D3A;stroke-linecap:round;stroke-linejoin:round;stroke-miterlimit:10;" d="M182.293,338.008
				l2.221,2.208c1.273,1.265,1.175,3.352-0.21,4.493l-1.289,1.062"/>
			<path style="fill:#342D3A;" d="M171.712,332.109c0.506-0.544,1.04-0.885,1.585-1.154c0.545-0.268,1.1-0.469,1.667-0.583
				c0.566-0.122,1.144-0.163,1.731-0.134c0.588,0.029,1.186,0.13,1.812,0.431l0.367,0.177c0.233,0.112,0.332,0.392,0.22,0.626
				c-0.082,0.171-0.256,0.27-0.434,0.266c-0.586-0.015-1.169-0.013-1.749,0.009c-0.581,0.017-1.158,0.064-1.737,0.094
				c-0.576,0.056-1.153,0.099-1.727,0.167c-0.574,0.064-1.146,0.149-1.715,0.249c-0.035,0.006-0.068-0.017-0.074-0.052
				c-0.004-0.02,0.003-0.04,0.016-0.055L171.712,332.109z"/>
			<path style="fill:#342D3A;" d="M192.28,332.191c-0.401-0.544-0.825-0.885-1.257-1.154c-0.432-0.268-0.872-0.469-1.321-0.583
				c-0.449-0.122-0.907-0.163-1.372-0.134c-0.466,0.03-0.94,0.13-1.436,0.431l-0.291,0.177c-0.185,0.112-0.263,0.392-0.174,0.626
				c0.065,0.171,0.203,0.27,0.344,0.266c0.464-0.015,0.926-0.013,1.386,0.009c0.461,0.018,0.918,0.064,1.377,0.095
				c0.456,0.056,0.914,0.098,1.368,0.167c0.455,0.065,0.908,0.149,1.359,0.249c0.028,0.006,0.054-0.017,0.059-0.052
				c0.003-0.02-0.002-0.04-0.013-0.055L192.28,332.191z"/>
			<path style="fill:none;stroke:#342D3A;stroke-linecap:round;stroke-linejoin:round;stroke-miterlimit:10;" d="M179.282,348.553
				c1.566,1.075,3.624,1.401,5.446,0.863"/>
			<path style="fill:none;stroke:#342D3A;stroke-linecap:round;stroke-linejoin:round;stroke-miterlimit:10;" d="M171.438,334.117
				l0.906,1.688c0.979-1.024,2.213-1.624,3.465-1.683c1.252-0.06,2.516,0.421,3.55,1.349"/>
			<path style="fill:none;stroke:#342D3A;stroke-linecap:round;stroke-linejoin:round;stroke-miterlimit:10;" d="M193.302,333.323
				l-0.756,2.148c-1.033-0.928-2.297-1.409-3.55-1.349c-1.252,0.06-2.487,0.659-3.465,1.683"/>
			<path style="fill:#F99062;" d="M165.978,345.771c0-2.293,1.859-4.152,4.152-4.152c2.293,0,4.152,1.859,4.152,4.152
				c0,2.293-1.859,4.153-4.152,4.153C167.837,349.924,165.978,348.065,165.978,345.771z"/>
			<g>
				
					<line style="fill:none;stroke:#342D3A;stroke-linecap:round;stroke-linejoin:round;stroke-miterlimit:10;" x1="157.065" y1="336.935" x2="161.643" y2="340.91"/>
				
					<line style="fill:none;stroke:#342D3A;stroke-linecap:round;stroke-linejoin:round;stroke-miterlimit:10;" x1="157.982" y1="340.36" x2="160.473" y2="337.265"/>
			</g>
		</g>
		<g>
			<g>
				<rect x="33.403" y="422.405" style="fill:#FFFFFF;" width="210.242" height="11.564"/>
				<rect x="51.516" y="433.97" style="fill:#FFFFFF;" width="174.015" height="33.109"/>
			</g>
			
				<line style="fill:none;stroke:#342D3A;stroke-linecap:round;stroke-linejoin:round;stroke-miterlimit:10;" x1="33.403" y1="433.97" x2="243.645" y2="433.97"/>
		</g>
		<g>
			<g>
				<rect x="153.384" y="367.431" style="fill:#48CEAB;" width="5.898" height="23.27"/>
				<rect x="185.298" y="367.431" style="fill:#48CEAB;" width="5.898" height="23.27"/>
			</g>
			<rect x="151.205" y="388.812" style="fill:#48CEAB;" width="42.17" height="33.593"/>
			<rect x="177.333" y="397.35" style="fill:#FFFFFF;" width="11.706" height="3.855"/>
			<g>
				<defs>
					<rect id="SVGID_1_" x="151.205" y="388.812" width="42.17" height="33.593"/>
				</defs>
				<clipPath id="SVGID_00000076567896132283461130000001012293782211490226_">
					<use xlink:href="#SVGID_1_"  style="overflow:visible;"/>
				</clipPath>
				
					<path style="clip-path:url(#SVGID_00000076567896132283461130000001012293782211490226_);fill:none;stroke:#FFFFFF;stroke-miterlimit:10;" d="
					M164.157,381.115c-13.284,11.091-24.104,25.117-31.458,40.783c22.64-9.067,34.422-36.268,57.494-44.172
					c2.827-0.968,6.668-1.252,8.108,1.367c0.855,1.556,0.385,3.572-0.682,4.991c-1.067,1.419-2.627,2.37-4.152,3.28
					c-13.709,8.181-28.031,16.09-38.411,28.22c-1.869,2.185-3.643,4.589-4.261,7.397s0.197,6.109,2.609,7.673
					c2.322,1.506,5.496,1.027,7.859-0.413c2.363-1.44,4.108-3.679,5.855-5.826c7.805-9.596,16.692-18.31,26.44-25.924
					c5.337-4.169,11.611-8.196,18.339-7.427c-1.016,4.757-5.595,7.723-9.599,10.486c-9.373,6.467-17.597,14.595-24.173,23.892
					c-2.974,4.205-5.645,9.864-2.939,14.245c12.134-11.092,25.933-20.36,40.791-27.397"/>
			</g>
		</g>
		<g>
			<rect x="96.646" y="415.904" style="fill:#343E5E;" width="59.343" height="6.501"/>
			<rect x="96.646" y="374.864" style="fill:#343E5E;" width="59.343" height="34.385"/>
			<rect x="122.132" y="400.797" style="fill:#343E5E;" width="10.754" height="18.357"/>
		</g>
		<g>
			<polygon style="fill:#FFFFFF;" points="74.854,287.807 123.104,287.807 123.104,326.111 123.104,341.225 107.99,326.111 
				74.854,326.111 			"/>
			<g>
				<line style="fill:none;stroke:#342D3A;stroke-miterlimit:10;" x1="86.887" y1="300.813" x2="110.497" y2="300.813"/>
				<line style="fill:none;stroke:#342D3A;stroke-miterlimit:10;" x1="86.887" y1="307.776" x2="110.497" y2="307.776"/>
				<line style="fill:none;stroke:#342D3A;stroke-miterlimit:10;" x1="86.887" y1="314.74" x2="110.497" y2="314.74"/>
			</g>
		</g>
		<g>
			
				<ellipse transform="matrix(0.2307 -0.973 0.973 0.2307 -352.0845 378.4909)" style="fill:#FBB060;" cx="63.331" cy="411.919" rx="10.085" ry="10.085"/>
			<g>
				<rect x="37.126" y="387.246" style="fill:none;stroke:#342D3A;stroke-miterlimit:10;" width="52.411" height="7.349"/>
				<polygon style="fill:none;stroke:#342D3A;stroke-miterlimit:10;" points="42.474,394.596 84.189,394.596 80.98,422.405 
					45.683,422.405 				"/>
				<g>
					<line style="fill:none;stroke:#342D3A;stroke-miterlimit:10;" x1="47.911" y1="394.596" x2="47.911" y2="422.405"/>
					<line style="fill:none;stroke:#342D3A;stroke-miterlimit:10;" x1="78.752" y1="394.596" x2="78.752" y2="422.405"/>
					<line style="fill:none;stroke:#342D3A;stroke-miterlimit:10;" x1="63.331" y1="394.596" x2="63.331" y2="422.405"/>
					<line style="fill:none;stroke:#342D3A;stroke-miterlimit:10;" x1="58.191" y1="394.596" x2="58.191" y2="422.405"/>
					<line style="fill:none;stroke:#342D3A;stroke-miterlimit:10;" x1="68.471" y1="394.596" x2="68.471" y2="422.405"/>
					<line style="fill:none;stroke:#342D3A;stroke-miterlimit:10;" x1="73.612" y1="394.596" x2="73.612" y2="422.405"/>
					<line style="fill:none;stroke:#342D3A;stroke-miterlimit:10;" x1="53.051" y1="394.596" x2="53.051" y2="422.405"/>
				</g>
			</g>
			<polyline style="fill:none;stroke:#342D3A;stroke-miterlimit:10;" points="47.911,386.49 47.911,370.929 78.752,370.929 
				78.752,387.246 			"/>
		</g>
	</g>
	<g>
		<g>
			<rect x="271.002" y="275.081" style="fill:#D1DCEE;" width="165.11" height="30.228"/>
			<g>
				<rect x="280.212" y="283.422" style="fill:#DAE8F2;" width="9.591" height="21.887"/>
				<rect x="297.349" y="283.422" style="fill:#DAE8F2;" width="9.591" height="21.887"/>
				<rect x="314.486" y="283.422" style="fill:#DAE8F2;" width="9.591" height="21.887"/>
				<rect x="331.624" y="283.422" style="fill:#DAE8F2;" width="9.591" height="21.887"/>
				<rect x="365.898" y="283.422" style="fill:#DAE8F2;" width="9.591" height="21.887"/>
				<rect x="348.761" y="283.422" style="fill:#DAE8F2;" width="9.591" height="21.887"/>
				<rect x="383.036" y="283.422" style="fill:#DAE8F2;" width="9.591" height="21.887"/>
				<rect x="400.173" y="283.422" style="fill:#DAE8F2;" width="9.591" height="21.887"/>
				<rect x="417.31" y="283.422" style="fill:#DAE8F2;" width="9.591" height="21.887"/>
			</g>
			<rect x="271.27" y="319.37" style="fill:#D1DCEE;" width="165.11" height="30.228"/>
			<rect x="271.27" y="364.614" style="fill:#D1DCEE;" width="165.11" height="30.228"/>
			<circle style="fill:#DAE8F2;" cx="290.453" cy="339.357" r="10.241"/>
			<circle style="fill:#DAE8F2;" cx="315.824" cy="339.357" r="10.241"/>
			<circle style="fill:#DAE8F2;" cx="341.196" cy="339.357" r="10.241"/>
			<circle style="fill:#DAE8F2;" cx="366.567" cy="339.357" r="10.241"/>
			<circle style="fill:#DAE8F2;" cx="391.939" cy="339.357" r="10.241"/>
			<circle style="fill:#DAE8F2;" cx="417.31" cy="339.357" r="10.241"/>
			<rect x="279.943" y="378.138" style="fill:#DAE8F2;" width="23.713" height="16.704"/>
			<rect x="311.321" y="378.138" style="fill:#DAE8F2;" width="23.713" height="16.704"/>
			<rect x="342.699" y="378.138" style="fill:#DAE8F2;" width="23.713" height="16.704"/>
			<rect x="374.076" y="378.138" style="fill:#DAE8F2;" width="23.713" height="16.704"/>
			<rect x="405.454" y="378.138" style="fill:#DAE8F2;" width="23.713" height="16.704"/>
		</g>
		<g>
			<g>
				<g>
					<g>
						<path style="fill:#342D3A;" d="M281.33,349.677l20.906,12.974l22.05,13.694c4.668,2.903,10.797,1.465,13.688-3.21
							c0.472-0.754,0.828-1.545,1.076-2.345c1.28-4.212-0.365-8.924-4.279-11.355l-21.597-13.413l-21.357-13.245
							c-4.668-2.903-10.797-1.465-13.7,3.204c-0.465,0.741-0.821,1.532-1.066,2.342C275.762,342.537,277.409,347.258,281.33,349.677
							z"/>
					</g>
				</g>
				<g>
					<path style="fill:#FBB060;" d="M319.784,296.863l-1.217-9.927c-0.127-1.039,0.645-2.025,1.725-2.203l0,0
						c1.08-0.178,2.058,0.52,2.186,1.558l1.216,9.927c0.127,1.039-0.645,2.025-1.725,2.203v0
						C320.89,298.599,319.911,297.901,319.784,296.863z"/>
					<path style="fill:#FBB060;" d="M315.412,294.641l-1.061-8.658c-0.127-1.039,0.645-2.025,1.725-2.203l0,0
						c1.08-0.178,2.058,0.52,2.185,1.559l1.061,8.658c0.127,1.039-0.645,2.025-1.725,2.203l0,0
						C316.518,296.377,315.539,295.679,315.412,294.641z"/>
					<path style="fill:#FBB060;" d="M311.683,297.56l-1.062-8.666c-0.128-1.039,0.645-2.025,1.725-2.203l0,0
						c1.08-0.178,2.058,0.52,2.186,1.559l1.062,8.666c0.127,1.039-0.645,2.025-1.724,2.203l0,0
						C312.788,299.296,311.81,298.598,311.683,297.56z"/>
					<path style="fill:#FBB060;" d="M308.413,300.635l-1.042-8.507c-0.111-0.901,0.56-1.757,1.497-1.912l0,0
						c0.937-0.154,1.786,0.451,1.897,1.353l1.042,8.507c0.11,0.901-0.56,1.757-1.497,1.912l0,0
						C309.373,302.142,308.524,301.536,308.413,300.635z"/>
					<path style="fill:#FBB060;" d="M310.974,308.638c3.499,3.101,9.08,2.73,12.467-0.827s3.297-8.956-0.202-12.057
						c-3.499-3.101-9.081-2.73-12.468,0.827C307.385,300.139,307.476,305.537,310.974,308.638z"/>
					
						<line style="fill:none;stroke:#342D3A;stroke-linecap:round;stroke-linejoin:round;stroke-miterlimit:10;" x1="319.563" y1="295.054" x2="318.61" y2="286.064"/>
					
						<line style="fill:none;stroke:#342D3A;stroke-linecap:round;stroke-linejoin:round;stroke-miterlimit:10;" x1="315.5" y1="296.388" x2="314.548" y2="287.398"/>
					
						<line style="fill:none;stroke:#342D3A;stroke-linecap:round;stroke-linejoin:round;stroke-miterlimit:10;" x1="311.941" y1="299.998" x2="310.988" y2="291.008"/>
					<g>
						
							<rect x="312.34" y="289.002" transform="matrix(0.8171 -0.5765 0.5765 0.8171 -111.1913 239.8016)" style="fill:#4187FA;" width="19.912" height="12.24"/>
						
							<line style="fill:none;stroke:#342D3A;stroke-linecap:round;stroke-linejoin:round;stroke-miterlimit:10;" x1="312.697" y1="298.786" x2="328.966" y2="287.307"/>
						<path style="fill:#FBB060;" d="M317.516,300.644c-0.514-0.729-0.34-1.737,0.389-2.252c0.729-0.514,1.737-0.34,2.252,0.389
							c0.514,0.729,0.34,1.737-0.389,2.252C319.039,301.547,318.03,301.373,317.516,300.644z"/>
						<path style="fill:#48CEAB;" d="M318.596,299.882c-0.514-0.729-0.34-1.737,0.389-2.252c0.729-0.515,1.737-0.341,2.252,0.389
							c0.514,0.729,0.341,1.737-0.389,2.252C320.118,300.785,319.11,300.611,318.596,299.882z"/>
						<line style="fill:none;stroke:#DAE8F2;stroke-miterlimit:10;" x1="324.091" y1="295.231" x2="328.988" y2="291.775"/>
						<line style="fill:none;stroke:#DAE8F2;stroke-miterlimit:10;" x1="325.003" y1="296.523" x2="329.901" y2="293.068"/>
					</g>
				</g>
				<g>
					<g>
						<path style="fill:#342D3A;" d="M281.427,347.577L281.427,347.577c4.339,3.373,10.592,2.59,13.965-1.749l24.723-34.103
							l-13.739-10.38l-26.992,32.73"/>
					</g>
					
						<rect x="301.369" y="305.874" transform="matrix(-0.8053 -0.5929 0.5929 -0.8053 379.9013 741.936)" style="fill:#342D3A;" width="20.834" height="5.418"/>
					<path style="fill:#342D3A;" d="M299.866,339.457c-1.772,4.887-5.874,8.87-10.81,10.498"/>
				</g>
			</g>
			<path style="fill:#FBB060;" d="M328.321,293.76c1.071,0.242,1.688,1.311,1.38,2.389l-1.887,6.592
				c-0.087,0.304-0.243,0.572-0.44,0.801c-0.797,1.35-2.392,2.121-3.94,1.77c-1.851-0.419-2.917-2.269-2.382-4.132
				c0.49-1.705,2.151-2.814,3.847-2.672l0.926-3.233C326.133,294.197,327.251,293.519,328.321,293.76z"/>
		</g>
		<path style="fill:#342D3A;" d="M328.114,447.524h65.19l2.671-68.66c0.416-10.698-7.2-19.626-16.742-19.626h-37.048
			c-9.542,0-17.158,8.928-16.742,19.626L328.114,447.524z"/>
		<g>
			<path style="fill:#FBB060;" d="M340.724,359.317c3.411,6.64,10.331,11.179,18.31,11.179c8.008,0,14.947-4.577,18.348-11.256
				h-10.186v-10.745c0-0.992-0.164-1.937-0.472-2.823c-2.101,2.303-4.934,3.913-8.114,4.452c-0.79,0.145-1.6,0.212-2.428,0.212
				c-0.135,0-0.27,0-0.405-0.01c-0.376,0.029-0.752,0.048-1.137,0.048c-0.424,0-0.848-0.019-1.263-0.058c-0.01,0-0.01,0-0.019,0
				h-0.039c-1.282-0.068-2.515-0.289-3.701-0.646v9.569h0.096l-0.096,0.096v-0.096h-7.449
				C341.678,359.24,341.197,359.259,340.724,359.317z"/>
			<path style="fill:#ED9C54;" d="M344.434,328.682c2.026,2.685,2.049,6.084,0.051,7.591c-1.998,1.507-5.26,0.552-7.285-2.133
				c-2.026-2.685-2.048-6.084-0.051-7.591C339.147,325.042,342.409,325.997,344.434,328.682z"/>
			<path style="fill:#342D3A;" d="M340.815,317.278c0.016-2.225,0.422-4.351,1.137-6.328c2.582-7.037,9.274-12.064,17.102-12.064
				c10.07,0,18.239,8.29,18.239,18.508c0,5.439-2.722,11.136-6.392,14.515c-0.227,0.21-0.294,3.803-0.294,3.803
				c0,8.076-6.452,14.622-14.41,14.622c-8.495,0-15.382-6.988-15.382-15.609v-16.314c0-0.07,0.026-0.131,0.039-0.197
				c-0.012-0.274-0.039-0.542-0.039-0.821V317.278z"/>
			<path style="fill:#FBB060;" d="M338.746,317.758c0.016-2.193,0.422-4.288,1.137-6.237c2.582-6.935,9.274-11.888,17.102-11.888
				c10.069,0,18.239,8.169,18.239,18.239c0,5.36-2.722,10.975-6.392,14.304c-0.227,0.207-0.294,3.748-0.294,3.748
				c0,7.958-6.451,14.41-14.41,14.41c-8.495,0-15.382-6.887-15.382-15.382v-16.077c0-0.069,0.026-0.129,0.039-0.194
				c-0.012-0.27-0.039-0.534-0.039-0.809V317.758z"/>
			<path style="fill:#FBB060;" d="M357.351,369.916h1.03c4.876,0,8.829-3.953,8.829-8.829v-18.213c0-4.876-3.953-8.829-8.829-8.829
				l0,0c-4.876,0-8.829,3.953-8.829,8.829v19.243C349.552,366.425,353.044,369.916,357.351,369.916z"/>
			<path style="fill:#342D3A;" d="M349.634,349.526v9.81l9.42-9.647c-1.38,0.439-2.875,0.682-4.401,0.682
				C352.898,350.37,351.209,350.078,349.634,349.526z"/>
			<path style="fill:#342D3A;" d="M338.746,314.642c2.784,0.8,5.769,0.167,8.587-0.6c2.934-0.784,5.936-1.734,8.937-1.35
				c6.019,0.767,10.404,7.736,8.487,13.488c-0.333,0.984-0.8,1.918-0.9,2.951c-0.117,1.017,0.267,2.201,1.2,2.618
				c1.067,0.483,2.318-0.217,3.034-1.134c0.717-0.917,1.1-2.051,1.801-2.984c0.984-1.317,2.584-1.967,4.218-1.984
				c1.15-2.534,1.834-5.319,1.834-8.036c0-10.337-8.387-18.724-18.724-18.724c-8.036,0-14.906,5.085-17.557,12.205
				C339.247,312.224,338.93,313.408,338.746,314.642z"/>
			<path style="fill:#FBB060;" d="M367.93,328.397c-2.184,2.895-2.363,6.442-0.399,7.923c1.964,1.481,5.326,0.336,7.509-2.559
				c2.184-2.895,2.363-6.442,0.399-7.923C373.476,324.356,370.114,325.502,367.93,328.397z"/>
			<g>
				
					<line style="fill:none;stroke:#342D3A;stroke-linecap:round;stroke-linejoin:round;stroke-miterlimit:10;" x1="373.963" y1="329.201" x2="369.385" y2="333.176"/>
				
					<line style="fill:none;stroke:#342D3A;stroke-linecap:round;stroke-linejoin:round;stroke-miterlimit:10;" x1="373.046" y1="332.626" x2="370.555" y2="329.532"/>
			</g>
			<path style="fill:none;stroke:#342D3A;stroke-linecap:round;stroke-linejoin:round;stroke-miterlimit:10;" d="M351.48,327.628
				c1.033-0.928,2.297-1.409,3.55-1.349c1.252,0.06,2.487,0.659,3.465,1.683"/>
			<path style="fill:#342D3A;" d="M353.507,327.635c0-0.818,0.663-1.481,1.481-1.481c0.818,0,1.481,0.663,1.481,1.481
				c0,0.818-0.663,1.481-1.481,1.481C354.169,329.116,353.507,328.453,353.507,327.635z"/>
			<path style="fill:none;stroke:#342D3A;stroke-linecap:round;stroke-linejoin:round;stroke-miterlimit:10;" d="M338.293,327.628
				c1.033-0.928,2.297-1.409,3.55-1.349c1.252,0.06,2.487,0.659,3.465,1.683"/>
			<path style="fill:#342D3A;" d="M340.32,327.635c0-0.818,0.663-1.481,1.481-1.481c0.818,0,1.481,0.663,1.481,1.481
				c0,0.818-0.663,1.481-1.481,1.481C340.983,329.116,340.32,328.453,340.32,327.635z"/>
			<polyline style="fill:none;stroke:#342D3A;stroke-linecap:round;stroke-linejoin:round;stroke-miterlimit:10;" points="
				348.546,330.165 343.947,334.735 347.823,337.928 			"/>
			<path style="fill:#342D3A;" d="M360.426,323.974c-0.625-0.736-1.3-1.211-1.992-1.592c-0.693-0.379-1.401-0.673-2.132-0.855
				c-0.728-0.191-1.476-0.278-2.241-0.275c-0.765,0.004-1.548,0.1-2.379,0.454l-0.487,0.208c-0.31,0.132-0.454,0.49-0.322,0.8
				c0.097,0.227,0.317,0.366,0.549,0.37c0.762,0.015,1.519,0.051,2.272,0.114c0.754,0.057,1.5,0.151,2.251,0.224
				c0.744,0.106,1.492,0.195,2.233,0.317c0.742,0.117,1.48,0.26,2.213,0.423c0.045,0.01,0.09-0.018,0.1-0.063
				c0.006-0.026-0.002-0.053-0.018-0.072L360.426,323.974z"/>
			<path style="fill:#342D3A;" d="M337.098,323.302c0.521-0.707,1.072-1.151,1.634-1.501c0.562-0.348,1.134-0.61,1.718-0.759
				c0.584-0.158,1.179-0.212,1.785-0.174c0.606,0.038,1.222,0.169,1.868,0.56l0.379,0.229c0.241,0.146,0.342,0.51,0.226,0.814
				c-0.085,0.223-0.264,0.351-0.448,0.346c-0.604-0.019-1.205-0.017-1.803,0.012c-0.599,0.023-1.193,0.083-1.79,0.123
				c-0.593,0.073-1.188,0.128-1.78,0.217c-0.592,0.084-1.181,0.193-1.768,0.324c-0.036,0.008-0.07-0.022-0.077-0.068
				c-0.004-0.027,0.003-0.052,0.016-0.071L337.098,323.302z"/>
			
				<line style="fill:none;stroke:#342D3A;stroke-linecap:round;stroke-linejoin:round;stroke-miterlimit:10;" x1="347.703" y1="345.102" x2="347.703" y2="346.909"/>
			<path style="fill:none;stroke:#342D3A;stroke-linecap:round;stroke-linejoin:round;stroke-miterlimit:10;" d="M351.557,340.71
				c-1.567,1.075-3.624,1.401-5.446,0.863"/>
			<path style="fill:#342D3A;" d="M349.245,313.18c-3.613,1.138-7.045,2.878-10.759,3.623c-2.204,0.443-4.578,0.506-6.616-0.444
				c-2.038-0.95-3.624-3.112-3.356-5.344c0.268-2.232,2.835-4.048,4.885-3.125c-1.258-2.222-0.812-5.271,1.03-7.04
				c1.842-1.768,4.907-2.09,7.076-0.742c-0.538-2.639,0.958-5.552,3.415-6.653c2.458-1.1,5.627-0.276,7.237,1.882
				c2.089-2.692,6.257-3.49,9.192-1.759c2.936,1.731,4.255,5.762,2.911,8.894c0.734-1.711,4.707,3.791,4.827,4.441
				c0.521,2.832-1.131,4.734-3.655,5.673C360.368,314.471,354.727,311.454,349.245,313.18z"/>
		</g>
		<g>
			<g>
				<rect x="262.045" y="422.405" style="fill:#FFFFFF;" width="210.242" height="11.564"/>
				<rect x="280.158" y="433.97" style="fill:#FFFFFF;" width="174.015" height="33.109"/>
			</g>
			
				<line style="fill:none;stroke:#342D3A;stroke-linecap:round;stroke-linejoin:round;stroke-miterlimit:10;" x1="262.045" y1="433.97" x2="472.287" y2="433.97"/>
		</g>
		<g>
			<g>
				<rect x="340.147" y="358.883" style="fill:#48CEAB;" width="5.898" height="23.27"/>
				<rect x="372.062" y="358.883" style="fill:#48CEAB;" width="5.898" height="23.27"/>
			</g>
			<rect x="337.969" y="380.264" style="fill:#48CEAB;" width="44.7" height="42.17"/>
			<rect x="364.096" y="388.801" style="fill:#FFFFFF;" width="11.706" height="3.855"/>
			<g>
				<defs>
					<rect id="SVGID_00000070832687293717137650000009892185287589249978_" x="337.969" y="380.264" width="44.7" height="42.17"/>
				</defs>
				<clipPath id="SVGID_00000046340721398264676200000003364724051388948384_">
					<use xlink:href="#SVGID_00000070832687293717137650000009892185287589249978_"  style="overflow:visible;"/>
				</clipPath>
				
					<path style="clip-path:url(#SVGID_00000046340721398264676200000003364724051388948384_);fill:none;stroke:#FFFFFF;stroke-miterlimit:10;" d="
					M346.47,373.62c-8.24,6.861-14.799,15.726-18.949,25.612c8.71-3.736,16.146-9.84,24.04-15.085
					c7.894-5.245,16.784-9.792,26.261-9.729c-1.862,4.776-6.697,7.576-11.084,10.228c-11.762,7.112-22.598,15.754-32.149,25.639
					c-2.045,2.117-4.183,5.005-3.075,7.732c0.974,2.398,4.142,3.231,6.621,2.489c2.479-0.742,4.428-2.617,6.31-4.393
					c9.946-9.385,20.88-17.721,32.563-24.828c2.911-1.771,5.921-3.487,9.233-4.29c3.312-0.803,7.009-0.594,9.854,1.282
					c-15.326,8.93-31.063,18.216-41.814,32.326c-3.242,4.256-6.01,10.181-3.164,14.712c13.582-13.015,28.05-26.533,46.313-31.038
					c-2.125,6.975-5.918,13.435-10.972,18.69c-2.223,2.312-4.756,4.494-5.966,7.464c-1.211,2.97-0.495,7.054,2.449,8.327"/>
			</g>
		</g>
		<g>
			<rect x="399.495" y="415.904" style="fill:#343E5E;" width="59.343" height="6.501"/>
			<rect x="399.495" y="374.864" style="fill:#343E5E;" width="59.343" height="34.385"/>
			<rect x="424.982" y="400.797" style="fill:#343E5E;" width="10.754" height="18.357"/>
		</g>
		<g>
			<polygon style="fill:#FFFFFF;" points="445.954,287.807 397.703,287.807 397.703,326.111 397.703,341.225 412.817,326.111 
				445.954,326.111 			"/>
			<g>
				<line style="fill:none;stroke:#342D3A;stroke-miterlimit:10;" x1="433.92" y1="300.813" x2="410.31" y2="300.813"/>
				<line style="fill:none;stroke:#342D3A;stroke-miterlimit:10;" x1="433.92" y1="307.776" x2="410.31" y2="307.776"/>
				<line style="fill:none;stroke:#342D3A;stroke-miterlimit:10;" x1="433.92" y1="314.74" x2="410.31" y2="314.74"/>
			</g>
		</g>
		<g>
			<polygon style="fill:#FBB060;" points="302.644,422.434 267.693,422.434 271.986,382.397 298.35,382.397 			"/>
			<line style="fill:none;stroke:#342D3A;stroke-miterlimit:10;" x1="301.751" y1="417.763" x2="268.585" y2="417.763"/>
			<path style="fill:none;stroke:#342D3A;stroke-miterlimit:10;" d="M278.263,386.263v-4.243c0-3.952,3.204-7.156,7.156-7.156l0,0
				c3.952,0,7.156,3.204,7.156,7.156v4.243"/>
		</g>
		<g>
			<polygon style="fill:#4187FA;" points="332.704,422.434 291.442,422.434 296.511,375.167 327.635,375.167 			"/>
			<line style="fill:none;stroke:#342D3A;stroke-miterlimit:10;" x1="331.65" y1="416.919" x2="292.496" y2="416.919"/>
			<path style="fill:none;stroke:#342D3A;stroke-miterlimit:10;" d="M303.921,379.733v-5.009c0-4.666,3.783-8.448,8.448-8.448l0,0
				c4.666,0,8.448,3.782,8.448,8.448v5.009"/>
		</g>
	</g>
	<g>
		<rect x="63.476" y="39.432" style="fill:#D1DCEE;" width="373.049" height="126.032"/>
		<g>
			
				<line style="fill:none;stroke:#342D3A;stroke-linecap:round;stroke-linejoin:round;stroke-miterlimit:10;" x1="458.838" y1="250.411" x2="47.911" y2="250.411"/>
			<g>
				<g>
					<rect x="51.826" y="189.366" style="fill:#FFFFFF;" width="48.959" height="60.194"/>
					<rect x="55.749" y="195.2" style="fill:none;stroke:#342D3A;stroke-miterlimit:10;" width="41.112" height="48.527"/>
				</g>
				<rect x="51.826" y="208.767" style="fill:#4187FA;" width="30.28" height="8.446"/>
			</g>
			<g>
				<g>
					<path style="fill:#FBB060;" d="M425.659,140.678h-9.108c-1.527,0-2.766-1.238-2.766-2.766v-15.333
						c0-1.528,1.238-2.766,2.766-2.766h9.108c1.528,0,2.766,1.238,2.766,2.766v15.333
						C428.425,139.44,427.186,140.678,425.659,140.678z"/>
					<rect x="413.858" y="126.468" style="fill:none;stroke:#342D3A;stroke-miterlimit:10;" width="14.493" height="7.105"/>
					<line style="fill:none;stroke:#342D3A;stroke-miterlimit:10;" x1="413.858" y1="122.296" x2="428.351" y2="122.296"/>
					<rect x="417.589" y="117.876" style="fill:none;stroke:#342D3A;stroke-miterlimit:10;" width="7.031" height="1.937"/>
					<path style="fill:#FBB060;" d="M442.665,140.678h-9.108c-1.527,0-2.766-1.238-2.766-2.766v-15.333
						c0-1.528,1.238-2.766,2.766-2.766h9.108c1.527,0,2.766,1.238,2.766,2.766v15.333
						C445.431,139.44,444.192,140.678,442.665,140.678z"/>
					<rect x="430.865" y="126.468" style="fill:none;stroke:#342D3A;stroke-miterlimit:10;" width="14.493" height="7.105"/>
					<line style="fill:none;stroke:#342D3A;stroke-miterlimit:10;" x1="430.865" y1="122.296" x2="445.357" y2="122.296"/>
					<rect x="434.595" y="117.876" style="fill:none;stroke:#342D3A;stroke-miterlimit:10;" width="7.031" height="1.937"/>
				</g>
				<g>
					<g>
						<rect x="402.031" y="189.366" style="fill:#FFFFFF;" width="48.959" height="60.194"/>
						<rect x="405.954" y="195.2" style="fill:none;stroke:#342D3A;stroke-miterlimit:10;" width="41.112" height="48.527"/>
					</g>
					<rect x="402.031" y="208.767" style="fill:#FBB060;" width="30.28" height="8.446"/>
				</g>
				<g>
					<g>
						<g>
							<rect x="407.831" y="129.277" style="fill:#FFFFFF;" width="48.959" height="60.194"/>
							<rect x="411.754" y="135.111" style="fill:none;stroke:#342D3A;stroke-miterlimit:10;" width="41.112" height="48.527"/>
						</g>
						<rect x="407.831" y="148.678" style="fill:#4187FA;" width="30.28" height="8.446"/>
					</g>
					<g>
						<line style="fill:none;stroke:#342D3A;stroke-miterlimit:10;" x1="407.831" y1="129.277" x2="401.9" y2="112.107"/>
						<line style="fill:none;stroke:#342D3A;stroke-miterlimit:10;" x1="456.652" y1="129.277" x2="462.584" y2="112.107"/>
					</g>
				</g>
			</g>
			<g>
				<g>
					<path style="fill:#FBB060;" d="M290.605,88.488c-1.482,0.121-2.742-0.927-2.814-2.341c-0.072-1.414,1.071-2.658,2.554-2.779
						c1.482-0.121,2.742,0.927,2.815,2.341C293.23,87.123,292.087,88.367,290.605,88.488z"/>
					<path style="fill:#FBB060;" d="M292.926,86.202L292.926,86.202c-0.484,0.915-1.638,1.31-2.578,0.881l-4.437-2.024
						c-0.94-0.429-1.311-1.519-0.827-2.434l0,0c0.484-0.915,1.638-1.31,2.578-0.881l4.437,2.024
						C293.039,84.196,293.409,85.286,292.926,86.202z"/>
					<g>
						<g>
							<g>
								<path style="fill:#342D3A;" d="M321.412,103.438c-1.279,0.457-2.684,0.61-4.1,0.381l-23.693-3.839
									c-4.257-0.69-6.996-4.571-6.117-8.67c0.879-4.099,5.042-6.861,9.299-6.172l23.693,3.838c4.257,0.69,6.996,4.571,6.117,8.67
									C326.024,100.382,323.975,102.522,321.412,103.438z"/>
							</g>
							<g>
								<path style="fill:#342D3A;" d="M320.503,103.86l-5.884-14.602l29.832-10.774c3.908-1.411,8.394,0.713,10.019,4.745l0,0
									c1.625,4.032-0.226,8.445-4.134,9.857L320.503,103.86z"/>
							</g>
						</g>
						<path style="fill:#FBB060;" d="M292.016,96.553c-3.122,1.116-6.507-0.367-7.56-3.313c-1.053-2.946,0.624-6.239,3.746-7.356
							c3.122-1.116,6.507,0.367,7.56,3.313C296.815,92.144,295.138,95.437,292.016,96.553z"/>
						<g>
							<path style="fill:#4187FA;" d="M301.206,99.017l-9.736,2.994c-1.46,0.449-3.008-0.371-3.457-1.831l-4.958-16.124
								c-0.449-1.46,0.371-3.008,1.831-3.457l9.736-2.994c1.46-0.449,3.008,0.371,3.457,1.831l4.958,16.124
								C303.486,97.02,302.666,98.568,301.206,99.017z"/>
							
								<rect x="285.195" y="85.762" transform="matrix(0.9558 -0.2939 0.2939 0.9558 -13.3876 90.0635)" style="fill:none;stroke:#342D3A;stroke-miterlimit:10;" width="15.56" height="7.628"/>
							<line style="fill:none;stroke:#342D3A;stroke-miterlimit:10;" x1="283.101" y1="83.936" x2="297.973" y2="79.363"/>
							
								<rect x="285.674" y="77.068" transform="matrix(0.9558 -0.2939 0.2939 0.9558 -10.1726 88.52)" style="fill:none;stroke:#342D3A;stroke-miterlimit:10;" width="7.549" height="2.08"/>
						</g>
					</g>
					<path style="fill:#FBB060;" d="M289.778,95.6L289.778,95.6c0.228,0.639-0.104,1.342-0.743,1.57l-3.149,1.126
						c-0.396,0.142-0.832-0.065-0.974-0.461l-0.314-0.879c-0.142-0.396,0.065-0.832,0.461-0.974l3.149-1.126
						C288.846,94.629,289.549,94.961,289.778,95.6z"/>
					<path style="fill:#FBB060;" d="M289.783,90.307L289.783,90.307c0.228,0.639-0.104,1.342-0.743,1.57l-4.832,1.728
						c-0.396,0.142-0.832-0.065-0.974-0.461l-0.314-0.879c-0.142-0.396,0.065-0.832,0.461-0.974l4.832-1.728
						C288.851,89.336,289.554,89.668,289.783,90.307z"/>
					<path style="fill:#FBB060;" d="M288.944,87.961L288.944,87.961c0.228,0.639-0.104,1.342-0.743,1.57l-4.832,1.728
						c-0.396,0.142-0.832-0.065-0.974-0.461l-0.314-0.879c-0.142-0.396,0.065-0.832,0.461-0.974l4.832-1.728
						C288.013,86.99,288.716,87.323,288.944,87.961z"/>
					<path style="fill:none;stroke:#342D3A;stroke-miterlimit:10;" d="M285.038,95.99l3.202-1.145
						c0.621-0.222,1.293,0.073,1.503,0.659l0.069,0.193c0.209,0.586-0.124,1.24-0.745,1.462l-3.202,1.145"/>
					<path style="fill:none;stroke:#342D3A;stroke-miterlimit:10;" d="M283.36,91.299l4.885-1.747
						c0.621-0.222,1.293,0.073,1.503,0.659l0.069,0.193c0.21,0.586-0.124,1.24-0.745,1.462l-4.885,1.747"/>
					<path style="fill:#FBB060;" d="M290.621,92.653L290.621,92.653c0.228,0.639-0.104,1.342-0.743,1.57l-4.832,1.728
						c-0.396,0.142-0.832-0.065-0.974-0.461l-0.314-0.879c-0.142-0.396,0.065-0.832,0.461-0.974l4.831-1.728
						C289.69,91.681,290.393,92.014,290.621,92.653z"/>
					<path style="fill:none;stroke:#342D3A;stroke-miterlimit:10;" d="M284.199,93.645l4.885-1.747
						c0.621-0.222,1.294,0.073,1.503,0.658l0.069,0.193c0.209,0.586-0.124,1.24-0.745,1.462l-4.885,1.747"/>
					<path style="fill:none;stroke:#342D3A;stroke-miterlimit:10;" d="M282.522,88.953l4.885-1.747
						c0.621-0.222,1.294,0.073,1.503,0.659l0.069,0.193c0.209,0.586-0.124,1.24-0.745,1.462l-4.885,1.747"/>
				</g>
				<g>
					<g>
						
							<rect x="376.742" y="231.516" transform="matrix(-1 -1.224647e-16 1.224647e-16 -1 760.1587 472.9004)" style="fill:#FBB060;" width="6.674" height="9.868"/>
						<g>
							<path style="fill:#48CEAB;" d="M387.961,247.801h-28.799v-1.047c0-1.553,0.947-2.949,2.39-3.522l6.155-0.444l5.45-5.013
								h12.368c1.346,0,2.436,1.091,2.436,2.436V247.801z"/>
							
								<rect x="377.05" y="247.801" transform="matrix(-1 -1.224647e-16 1.224647e-16 -1 765.0112 498.2118)" style="fill:#232345;" width="10.91" height="2.61"/>
							
								<rect x="359.161" y="247.801" transform="matrix(-1 -1.224647e-16 1.224647e-16 -1 734.4742 498.2118)" style="fill:#232345;" width="16.152" height="2.61"/>
						</g>
					</g>
					<g>
						
							<rect x="339.501" y="231.516" transform="matrix(-1 -1.224647e-16 1.224647e-16 -1 685.6751 472.9004)" style="fill:#FBB060;" width="6.674" height="9.868"/>
						<g>
							<path style="fill:#48CEAB;" d="M350.719,247.801h-28.799v-1.047c0-1.553,0.947-2.949,2.39-3.522l6.155-0.444l5.451-5.013
								h12.368c1.346,0,2.436,1.091,2.436,2.436V247.801z"/>
							
								<rect x="339.809" y="247.801" transform="matrix(-1 -1.224647e-16 1.224647e-16 -1 690.5275 498.2118)" style="fill:#232345;" width="10.911" height="2.61"/>
							
								<rect x="321.919" y="247.801" transform="matrix(-1 -1.224647e-16 1.224647e-16 -1 659.9906 498.2118)" style="fill:#232345;" width="16.152" height="2.61"/>
						</g>
					</g>
					<polygon style="fill:#4187FA;" points="371.568,235.159 387.815,235.159 378.746,133.8 376.838,133.8 357.527,133.8 
						353.99,133.8 345.416,133.8 343.891,133.8 331.328,179.847 337.482,234.995 351.026,234.995 353.706,183.051 360.786,153.653 
											"/>
					<rect x="334.839" y="231.516" style="fill:#342D3A;" width="18.32" height="3.479"/>
					<rect x="370.2" y="231.516" style="fill:#342D3A;" width="18.32" height="3.479"/>
				</g>
				<path style="fill:#342D3A;" d="M340.46,135.831h40.825l1.673-46.312c0.261-6.699-4.509-12.291-10.485-12.291h-23.201
					c-5.976,0-10.745,5.591-10.485,12.291L340.46,135.831z"/>
				<g>
					<path style="fill:#FBB060;" d="M348.357,77.277c2.136,4.158,6.469,7.001,11.466,7.001c5.015,0,9.36-2.867,11.491-7.049h-6.379
						V70.5c0-0.622-0.103-1.213-0.296-1.768c-1.316,1.442-3.09,2.45-5.081,2.788c-0.495,0.09-1.002,0.133-1.521,0.133
						c-0.084,0-0.169,0-0.253-0.006c-0.235,0.018-0.471,0.03-0.712,0.03c-0.266,0-0.531-0.012-0.791-0.036c-0.006,0-0.006,0-0.012,0
						h-0.024c-0.803-0.042-1.575-0.181-2.317-0.404v5.993h0.06l-0.06,0.06v-0.06h-4.665
						C348.954,77.229,348.653,77.241,348.357,77.277z"/>
					<path style="fill:#ED9C54;" d="M350.68,58.092c1.269,1.682,1.283,3.81,0.032,4.754c-1.251,0.944-3.294,0.346-4.562-1.336
						c-1.269-1.682-1.283-3.81-0.032-4.754C347.369,55.813,349.412,56.411,350.68,58.092z"/>
					<path style="fill:#342D3A;" d="M348.413,50.95c0.01-1.393,0.265-2.725,0.712-3.963c1.617-4.407,5.808-7.555,10.71-7.555
						c6.306,0,11.422,5.192,11.422,11.59c0,3.406-1.704,6.974-4.003,9.09c-0.142,0.131-0.184,2.382-0.184,2.382
						c0,5.057-4.04,9.157-9.024,9.157c-5.32,0-9.633-4.376-9.633-9.775V51.66c0-0.044,0.016-0.082,0.025-0.123
						c-0.008-0.171-0.025-0.339-0.025-0.514V50.95z"/>
					<path style="fill:#FBB060;" d="M347.118,51.251c0.01-1.373,0.264-2.685,0.712-3.906c1.617-4.343,5.808-7.445,10.71-7.445
						c6.306,0,11.422,5.116,11.422,11.422c0,3.356-1.704,6.873-4.003,8.958c-0.142,0.129-0.184,2.347-0.184,2.347
						c0,4.984-4.04,9.024-9.024,9.024c-5.32,0-9.633-4.313-9.633-9.633V51.95c0-0.043,0.016-0.081,0.025-0.121
						c-0.008-0.169-0.025-0.335-0.025-0.507V51.251z"/>
					<path style="fill:#FBB060;" d="M358.769,83.915h0.645c3.054,0,5.529-2.476,5.529-5.529V66.98c0-3.054-2.475-5.529-5.529-5.529
						l0,0c-3.054,0-5.529,2.475-5.529,5.529v12.051C353.885,81.729,356.072,83.915,358.769,83.915z"/>
					<path style="fill:#342D3A;" d="M353.936,71.145v6.143l5.899-6.042c-0.865,0.275-1.8,0.427-2.756,0.427
						C355.981,71.674,354.923,71.491,353.936,71.145z"/>
					<path style="fill:#342D3A;" d="M347.118,49.299c1.744,0.501,3.613,0.104,5.377-0.376c1.838-0.491,3.717-1.086,5.597-0.846
						c3.769,0.48,6.515,4.845,5.315,8.447c-0.209,0.616-0.501,1.201-0.564,1.848c-0.073,0.637,0.167,1.378,0.752,1.639
						c0.668,0.303,1.451-0.136,1.9-0.71c0.449-0.574,0.689-1.284,1.128-1.869c0.616-0.825,1.618-1.232,2.642-1.243
						c0.72-1.587,1.149-3.331,1.149-5.033c0-6.474-5.252-11.726-11.726-11.726c-5.033,0-9.335,3.185-10.995,7.643
						C347.432,47.785,347.233,48.527,347.118,49.299z"/>
					<path style="fill:#FBB060;" d="M365.394,57.914c-1.368,1.813-1.479,4.034-0.25,4.962c1.23,0.928,3.335,0.21,4.703-1.603
						c1.368-1.813,1.479-4.034,0.25-4.962C368.867,55.383,366.762,56.101,365.394,57.914z"/>
					<g>
						
							<line style="fill:none;stroke:#342D3A;stroke-linecap:round;stroke-linejoin:round;stroke-miterlimit:10;" x1="369.172" y1="58.417" x2="366.306" y2="60.907"/>
						
							<line style="fill:none;stroke:#342D3A;stroke-linecap:round;stroke-linejoin:round;stroke-miterlimit:10;" x1="368.598" y1="60.562" x2="367.038" y2="58.624"/>
					</g>
					<path style="fill:none;stroke:#342D3A;stroke-linecap:round;stroke-linejoin:round;stroke-miterlimit:10;" d="M355.092,57.432
						c0.647-0.581,1.439-0.882,2.223-0.845c0.784,0.037,1.557,0.413,2.17,1.054"/>
					<path style="fill:#342D3A;" d="M356.362,57.437c0-0.512,0.415-0.927,0.927-0.927c0.512,0,0.927,0.415,0.927,0.927
						c0,0.512-0.415,0.927-0.927,0.927C356.777,58.364,356.362,57.949,356.362,57.437z"/>
					<path style="fill:none;stroke:#342D3A;stroke-linecap:round;stroke-linejoin:round;stroke-miterlimit:10;" d="M346.835,57.432
						c0.647-0.581,1.439-0.882,2.223-0.845c0.784,0.037,1.557,0.413,2.17,1.054"/>
					<path style="fill:#342D3A;" d="M348.104,57.437c0-0.512,0.415-0.927,0.927-0.927c0.512,0,0.927,0.415,0.927,0.927
						c0,0.512-0.415,0.927-0.927,0.927C348.519,58.364,348.104,57.949,348.104,57.437z"/>
					<polyline style="fill:none;stroke:#342D3A;stroke-linecap:round;stroke-linejoin:round;stroke-miterlimit:10;" points="
						353.255,59.021 350.375,61.883 352.802,63.882 					"/>
					<path style="fill:#342D3A;" d="M346.086,54.723c0.327-0.443,0.672-0.721,1.023-0.94c0.352-0.218,0.71-0.382,1.076-0.475
						c0.365-0.099,0.738-0.132,1.118-0.109c0.379,0.024,0.765,0.106,1.17,0.351l0.237,0.144c0.151,0.091,0.214,0.319,0.142,0.509
						c-0.053,0.14-0.165,0.22-0.28,0.216c-0.378-0.012-0.755-0.011-1.129,0.008c-0.375,0.014-0.747,0.052-1.121,0.077
						c-0.371,0.045-0.744,0.08-1.115,0.136c-0.371,0.052-0.74,0.121-1.107,0.203c-0.023,0.005-0.044-0.014-0.048-0.042
						c-0.002-0.017,0.002-0.033,0.01-0.044L346.086,54.723z"/>
					<path style="fill:#342D3A;" d="M360.594,54.723c-0.327-0.443-0.672-0.721-1.023-0.94c-0.352-0.218-0.71-0.382-1.076-0.475
						c-0.365-0.099-0.738-0.132-1.118-0.109c-0.379,0.024-0.765,0.106-1.17,0.351l-0.237,0.144
						c-0.151,0.091-0.214,0.319-0.142,0.509c0.053,0.14,0.165,0.22,0.28,0.216c0.378-0.012,0.755-0.011,1.129,0.008
						c0.375,0.014,0.747,0.052,1.121,0.077c0.371,0.045,0.744,0.08,1.115,0.136c0.371,0.052,0.74,0.121,1.107,0.203
						c0.022,0.005,0.044-0.014,0.048-0.042c0.002-0.017-0.002-0.033-0.01-0.044L360.594,54.723z"/>
					
						<line style="fill:none;stroke:#342D3A;stroke-linecap:round;stroke-linejoin:round;stroke-miterlimit:10;" x1="352.727" y1="68.375" x2="352.727" y2="69.507"/>
					<path style="fill:none;stroke:#342D3A;stroke-linecap:round;stroke-linejoin:round;stroke-miterlimit:10;" d="M355.141,65.625
						c-0.981,0.673-2.269,0.877-3.41,0.54"/>
					<path style="fill:#342D3A;" d="M353.693,48.384c-2.263,0.713-4.412,1.802-6.737,2.269c-1.381,0.277-2.867,0.317-4.144-0.278
						c-1.276-0.595-2.269-1.949-2.101-3.347c0.168-1.398,1.775-2.535,3.059-1.957c-0.788-1.391-0.508-3.301,0.645-4.409
						c1.153-1.107,3.073-1.309,4.431-0.465c-0.337-1.652,0.6-3.477,2.139-4.166c1.539-0.689,3.524-0.173,4.532,1.179
						c1.309-1.686,3.918-2.185,5.757-1.101c1.838,1.084,2.665,3.609,1.823,5.57c0.46-1.071,2.948,2.374,3.023,2.781
						c0.327,1.774-0.708,2.965-2.289,3.553C360.659,49.193,357.126,47.303,353.693,48.384z"/>
				</g>
				<g>
					<g>
						<rect x="347.996" y="77.005" style="fill:#48CEAB;" width="3.693" height="14.573"/>
						<rect x="367.982" y="77.005" style="fill:#48CEAB;" width="3.693" height="14.573"/>
					</g>
					<polygon style="fill:#48CEAB;" points="381.343,177.479 337.057,177.479 344.751,136.39 344.751,90.954 373.305,90.954 
						375.779,136.39 					"/>
					<rect x="362.994" y="95.742" style="fill:#FFFFFF;" width="7.331" height="2.414"/>
					<g>
						<defs>
							<polygon id="SVGID_00000005262894975324807220000008948071991494210712_" points="381.343,177.479 337.057,177.479 
								344.751,136.39 344.751,90.954 373.305,90.954 375.779,136.39 							"/>
						</defs>
						<clipPath id="SVGID_00000166655573195027506120000011136184844423909000_">
							<use xlink:href="#SVGID_00000005262894975324807220000008948071991494210712_"  style="overflow:visible;"/>
						</clipPath>
						
							<path style="clip-path:url(#SVGID_00000166655573195027506120000011136184844423909000_);fill:none;stroke:#FFFFFF;stroke-miterlimit:10;" d="
							M365.749,82.294c-15.134,5.475-27.959,17.056-34.945,31.555c14.062-8.614,28.124-17.228,42.186-25.842
							c2.005-1.228,4.126-2.493,6.476-2.582c2.349-0.089,4.938,1.468,5.111,3.813c0.162,2.206-1.738,3.977-3.567,5.22
							c-6.278,4.264-13.638,6.605-20.391,10.069c-14.49,7.433-26.12,20.284-32.074,35.442c21.685-8.842,37.345-30.248,60.202-35.347
							c1.578-0.352,3.452-0.542,4.603,0.594c1.243,1.227,0.884,3.435-0.281,4.735c-1.165,1.301-2.883,1.929-4.518,2.541
							c-21.168,7.923-40.35,21.092-55.351,37.997c-3.674,4.141-7.3,9.816-4.968,14.837c16.762-14.797,33.762-29.757,53.705-39.868
							c1.914-0.97,4.53-1.782,5.958-0.18c1.077,1.208,0.707,3.206-0.356,4.425c-1.064,1.219-2.626,1.858-4.116,2.487
							c-15.618,6.597-29.739,16.708-41.017,29.368c-4.799,5.387-9.218,11.518-10.454,18.626
							c17.399-15.536,35.726-31.581,58.321-37.373c-4.71,3.735-9.419,7.471-14.129,11.206
							c-13.744,10.901-28.008,22.463-34.991,38.556c16.699-6.172,26.284-24.687,42.809-31.311c2.333-0.935,4.87-1.62,7.347-1.195
							c2.477,0.425,4.857,2.204,5.323,4.674"/>
					</g>
				</g>
				<g>
					<g>
						<path style="fill:#342D3A;" d="M334.225,104.868c-0.899-2.417-0.593-5.225,1.061-7.448c2.595-3.487,7.525-4.211,11.012-1.617
							l19.408,14.44c3.486,2.594,4.211,7.525,1.616,11.012c-2.595,3.487-7.525,4.211-11.012,1.616l-19.408-14.44
							C335.638,107.491,334.736,106.243,334.225,104.868z"/>
					</g>
					<g>
						<path style="fill:#342D3A;" d="M353.923,113.131l14.441-29.868c1.892-3.913,6.598-5.552,10.511-3.66l0,0
							c3.913,1.892,5.552,6.598,3.66,10.511l-14.441,29.868L353.923,113.131z"/>
					</g>
					<g>
						<path style="fill:#FBB060;" d="M340.612,91.825c1.595,0.557,2.435,2.302,1.878,3.896c-0.557,1.594-2.302,2.436-3.896,1.878
							c-1.595-0.557-2.435-2.302-1.878-3.896C337.273,92.108,339.017,91.267,340.612,91.825z"/>
						<path style="fill:#FBB060;" d="M338.993,93.88l-2.175-4.512c-0.374-0.775-0.048-1.707,0.727-2.081l0,0
							c0.775-0.374,1.707-0.048,2.081,0.727l2.175,4.512c0.374,0.775,0.048,1.707-0.727,2.081l0,0
							C340.298,94.981,339.367,94.656,338.993,93.88z"/>
						<path style="fill:#FBB060;" d="M336.856,104.687c2.401,0.444,4.998-1.336,6.054-3.401c1.597-3.124,0.359-6.951-2.764-8.548
							c-0.107-0.055-0.216-0.098-0.325-0.146l0.008-0.016l-9.173-4.69c-0.747-0.382-1.663-0.086-2.045,0.661l-0.045,0.089
							c-0.382,0.747-0.086,1.663,0.661,2.045l0.376,0.192c-0.747-0.382-1.663-0.086-2.045,0.661l-0.046,0.089
							c-0.382,0.747-0.086,1.663,0.661,2.045l0.922,0.472c-0.747-0.382-1.663-0.086-2.045,0.661l-0.046,0.089
							c-0.382,0.747-0.086,1.663,0.661,2.045l1.265,0.647c-0.747-0.382-1.663-0.086-2.045,0.661l-0.045,0.089
							c-0.382,0.747-0.086,1.663,0.661,2.045c3.207,1.639,3.7,2.134,7.029,3.507c0.592,0.244,1.192,0.466,1.799,0.667
							C336.505,104.609,336.68,104.654,336.856,104.687z"/>
						
							<line style="fill:none;stroke:#342D3A;stroke-linecap:round;stroke-linejoin:round;stroke-miterlimit:10;" x1="331.194" y1="91.782" x2="329.096" y2="90.709"/>
						
							<line style="fill:none;stroke:#342D3A;stroke-linecap:round;stroke-linejoin:round;stroke-miterlimit:10;" x1="330.512" y1="94.947" x2="328.257" y2="93.794"/>
						
							<line style="fill:none;stroke:#342D3A;stroke-linecap:round;stroke-linejoin:round;stroke-miterlimit:10;" x1="330.167" y1="98.205" x2="327.67" y2="96.929"/>
					</g>
				</g>
			</g>
			<g>
				<path style="fill:#4187FA;" d="M125.652,47.571c-1.676,2.526-1.998,5.505-3.164,8.222c-1.88,4.379-5.858,7.887-9.855,11.145
					c-3.997,3.258-8.202,6.496-10.751,10.636c-2.549,4.14-3.115,9.479,0.157,13.253c3.961,4.568,11.887,5.27,18.571,4.308
					c6.684-0.962,13.223-3.159,19.995-2.818c3.233,0.163,6.388,0.904,9.615,1.129c3.227,0.225,6.723-0.149,9.173-1.907
					c2.35-1.686,3.337-4.392,3.303-6.969c-0.034-2.577-0.961-5.081-1.88-7.542c-2.977-7.975-5.958-15.962-9.713-23.714
					c-1.442-2.977-2.806-7.562-5.815-9.74c-2.095-1.517-5.047-1.313-7.658-1.296C132.675,42.309,128.151,43.805,125.652,47.571z"/>
				<g>
					<g>
						<path style="fill:#FBB060;" d="M189.039,86.942c1.531-0.203,2.58-1.544,2.342-2.994c-0.238-1.451-1.671-2.463-3.203-2.26
							c-1.531,0.203-2.58,1.544-2.342,2.995C186.074,86.134,187.508,87.145,189.039,86.942z"/>
						<path style="fill:#FBB060;" d="M186.181,85.132L186.181,85.132c0.692,0.823,1.951,0.97,2.811,0.327l4.059-3.03
							c0.86-0.642,0.997-1.83,0.304-2.653l0,0c-0.692-0.823-1.951-0.97-2.811-0.327l-4.059,3.03
							C185.625,83.121,185.488,84.309,186.181,85.132z"/>
					</g>
					<g>
						<path style="fill:#342D3A;" d="M174.252,118.664c1.283-0.445,2.474-1.206,3.434-2.272l16.061-17.836
							c2.886-3.205,2.588-7.946-0.664-10.59c-3.253-2.644-8.228-2.189-11.115,1.016l-16.062,17.836
							c-2.885,3.205-2.589,7.946,0.664,10.59C168.742,119.172,171.68,119.556,174.252,118.664z"/>
					</g>
					<g>
						<path style="fill:#342D3A;" d="M165.926,117.105l12.391-9.711L157.855,83.16c-2.681-3.175-7.628-3.575-11.049-0.893l0,0
							c-3.422,2.682-4.022,7.429-1.342,10.604L165.926,117.105z"/>
					</g>
					<path style="fill:#FBB060;" d="M192.396,97.317c3.995-1.385,6.174-5.563,4.867-9.333c-1.307-3.769-5.604-5.702-9.599-4.317
						c-3.995,1.385-6.174,5.563-4.867,9.332C184.103,96.769,188.401,98.702,192.396,97.317z"/>
					<polygon style="fill:#FFFFFF;" points="194.558,72.684 184.112,116.271 152.956,116.271 163.393,72.684 					"/>
					<polygon style="fill:none;stroke:#342D3A;stroke-miterlimit:10;" points="190.584,76.848 182.134,112.107 156.931,112.107 
						165.374,76.848 					"/>
					<polygon style="fill:#342D3A;" points="186.107,69.244 185.288,72.684 174.003,72.684 174.822,69.244 					"/>
					<path style="fill:#FBB060;" d="M193.997,92.735L193.997,92.735c0.222,0.641,0.922,0.981,1.563,0.758l3.16-1.095
						c0.398-0.138,0.608-0.572,0.47-0.969l-0.306-0.882c-0.138-0.397-0.572-0.608-0.969-0.47l-3.16,1.095
						C194.114,91.395,193.774,92.094,193.997,92.735z"/>
					<path style="fill:#FBB060;" d="M191.492,90.967L191.492,90.967c0.222,0.641,0.922,0.981,1.563,0.758l4.848-1.681
						c0.398-0.138,0.608-0.572,0.47-0.969l-0.306-0.882c-0.138-0.398-0.572-0.608-0.969-0.47l-4.848,1.681
						C191.61,89.626,191.27,90.326,191.492,90.967z"/>
					<path style="fill:#FBB060;" d="M190.676,88.613L190.676,88.613c0.222,0.641,0.922,0.981,1.563,0.758l4.848-1.681
						c0.398-0.138,0.608-0.572,0.47-0.969l-0.306-0.882c-0.138-0.397-0.572-0.608-0.969-0.47l-4.848,1.681
						C190.794,87.272,190.454,87.972,190.676,88.613z"/>
					<path style="fill:#FBB060;" d="M189.86,86.26L189.86,86.26c0.222,0.641,0.922,0.981,1.563,0.758l4.848-1.681
						c0.397-0.138,0.608-0.572,0.47-0.969l-0.306-0.882c-0.138-0.397-0.572-0.608-0.969-0.47l-4.848,1.681
						C189.978,84.919,189.638,85.619,189.86,86.26z"/>
					<path style="fill:none;stroke:#342D3A;stroke-miterlimit:10;" d="M197.935,90.07l-3.213,1.114
						c-0.623,0.216-0.962,0.867-0.759,1.455l0.067,0.193c0.204,0.588,0.874,0.889,1.496,0.673l3.213-1.114"/>
					<path style="fill:none;stroke:#342D3A;stroke-miterlimit:10;" d="M197.119,87.716l-4.902,1.699
						c-0.623,0.216-0.962,0.867-0.759,1.455l0.067,0.193c0.204,0.588,0.874,0.889,1.497,0.673l4.902-1.699"/>
					<path style="fill:none;stroke:#342D3A;stroke-miterlimit:10;" d="M196.303,85.363l-4.902,1.699
						c-0.623,0.216-0.963,0.867-0.759,1.455l0.067,0.193c0.204,0.588,0.874,0.889,1.496,0.673l4.902-1.699"/>
					<path style="fill:none;stroke:#342D3A;stroke-miterlimit:10;" d="M195.487,83.009l-4.902,1.699
						c-0.623,0.216-0.962,0.867-0.759,1.455l0.067,0.193c0.204,0.588,0.874,0.889,1.497,0.673l4.902-1.699"/>
				</g>
				<path style="fill:#342D3A;" d="M155.193,122.151c-0.134-1.511-0.122-3.035,0.029-4.54l2.593-25.427
					c0.25-6.453-4.342-11.836-10.104-11.836h-22.346c-5.755,0-10.353,5.383-10.098,11.836l3.93,20.689
					c0.599,3.151,0.674,6.377,0.233,9.545c-0.128,0.971-0.314,1.936-0.547,2.895l-2.006,8.29h39.327l-0.988-11.185L155.193,122.151z
					"/>
				<g>
					<path style="fill:#FBB060;" d="M148.508,80.366c-2.227,4.335-6.745,7.299-11.955,7.299c-5.229,0-9.759-2.989-11.98-7.349h6.651
						V73.3c0-0.648,0.107-1.265,0.308-1.844c1.372,1.504,3.222,2.555,5.298,2.907c0.516,0.094,1.044,0.138,1.586,0.138
						c0.088,0,0.176,0,0.264-0.006c0.245,0.019,0.491,0.032,0.743,0.032c0.277,0,0.554-0.013,0.824-0.038c0.006,0,0.006,0,0.012,0
						h0.025c0.837-0.044,1.642-0.189,2.416-0.422v6.248h-0.063l0.063,0.063v-0.063h4.864
						C147.886,80.316,148.2,80.328,148.508,80.366z"/>
					<path style="fill:#ED9C54;" d="M146.086,60.136c-1.323,1.753-1.338,3.972-0.033,4.956c1.304,0.984,3.434,0.361,4.757-1.393
						c1.323-1.753,1.338-3.972,0.033-4.957C149.538,57.759,147.409,58.383,146.086,60.136z"/>
					<path style="fill:#4187FA;" d="M148.449,52.69c-0.011-1.453-0.276-2.841-0.742-4.132c-1.686-4.595-6.055-7.877-11.167-7.877
						c-6.575,0-11.909,5.413-11.909,12.084c0,3.551,1.777,7.271,4.174,9.477c0.148,0.137,0.192,2.483,0.192,2.483
						c0,5.273,4.212,9.548,9.409,9.548c5.547,0,10.043-4.563,10.043-10.191V53.429c0-0.046-0.017-0.086-0.026-0.128
						c0.008-0.179,0.026-0.354,0.026-0.536V52.69z"/>
					<path style="fill:#FBB060;" d="M149.798,53.076c0,0.182-0.019,0.352-0.025,0.529c0.013,0.044,0.025,0.082,0.025,0.126v10.502
						c0,1.453-0.308,2.838-0.868,4.084c-1.56,3.511-5.078,5.959-9.174,5.959c-5.197,0-9.407-4.216-9.407-9.413
						c0,0-0.044-2.309-0.195-2.441c-2.397-2.177-4.172-5.845-4.172-9.344c0-6.575,5.336-11.905,11.911-11.905
						c5.109,0,9.476,3.234,11.162,7.758c0.466,1.277,0.736,2.643,0.742,4.071V53.076z"/>
					<path style="fill:#FBB060;" d="M137.652,87.06h-0.673c-3.184,0-5.765-2.581-5.765-5.765V68.932
						c0-3.184,2.581-5.765,5.765-5.765l0,0c3.184,0,5.765,2.581,5.765,5.765v13.036C142.744,84.78,140.465,87.06,137.652,87.06z"/>
					<path style="fill:#4187FA;" d="M148.917,48.3c-0.182,0.277-0.384,0.535-0.61,0.774c-2.996,3.133-7.83,2.316-11.386,4.345
						c-1.631,0.93-2.9,2.359-3.938,3.901c-1.11,1.648-0.524,3.035-0.235,5.012c0.209,1.432-2.186,2.324-3.117,0.623
						c-1.781-3.316-4.21-6.173-4.21-10.112c0-6.714,5.449-12.163,12.169-12.163c4.342,0,7.727,2.202,10.055,5.506
						c0.434,0.617,0.837,1.271,1.195,1.957C148.867,48.193,148.898,48.25,148.917,48.3z"/>
					<path style="fill:#F99062;" d="M149.798,63.584v0.648c0,1.453-0.308,2.838-0.868,4.084c-0.642-0.497-1.051-1.271-1.051-2.146
						C147.879,64.949,148.684,63.917,149.798,63.584z"/>
					<path style="fill:#4187FA;" d="M149.854,52.277c-0.183-0.245-0.371-0.491-0.56-0.724c-1.309-1.604-2.794-3.096-3.712-4.952
						c-0.491-1-0.787-2.152-0.761-3.259c1.158,0.818,2.171,1.837,2.97,3.008c0.554,0.799,1.007,1.661,1.347,2.58
						c0.308,0.843,0.528,1.724,0.648,2.636C149.817,51.799,149.835,52.038,149.854,52.277z"/>
					<path style="fill:#FBB060;" d="M130.745,59.95c1.426,1.89,1.542,4.206,0.26,5.174c-1.282,0.967-3.477,0.219-4.903-1.671
						c-1.426-1.89-1.543-4.206-0.26-5.174C127.124,57.312,129.319,58.06,130.745,59.95z"/>
					<path style="fill:#342D3A;" d="M140.163,59.453c0-0.534-0.433-0.967-0.967-0.967c-0.534,0-0.967,0.433-0.967,0.967
						c0,0.534,0.433,0.967,0.967,0.967C139.73,60.419,140.163,59.986,140.163,59.453z"/>
					<path style="fill:#342D3A;" d="M148.772,59.453c0-0.534-0.433-0.967-0.967-0.967c-0.534,0-0.967,0.433-0.967,0.967
						c0,0.534,0.433,0.967,0.967,0.967C148.339,60.419,148.772,59.986,148.772,59.453z"/>
					<path style="fill:none;stroke:#342D3A;stroke-linecap:round;stroke-linejoin:round;stroke-miterlimit:10;" d="M143.401,61.104
						l1.451,1.442c0.831,0.826,0.767,2.189-0.137,2.934l-0.842,0.693"/>
					<path style="fill:#342D3A;" d="M136.492,57.253c0.33-0.355,0.679-0.578,1.035-0.754c0.356-0.175,0.718-0.306,1.088-0.381
						c0.37-0.079,0.747-0.106,1.13-0.088c0.384,0.019,0.774,0.085,1.183,0.281l0.24,0.115c0.152,0.073,0.217,0.256,0.143,0.409
						c-0.054,0.112-0.167,0.176-0.284,0.174c-0.382-0.01-0.763-0.009-1.142,0.006c-0.379,0.012-0.756,0.042-1.134,0.062
						c-0.376,0.036-0.753,0.064-1.127,0.109c-0.375,0.042-0.748,0.097-1.12,0.163c-0.023,0.004-0.044-0.011-0.048-0.034
						c-0.002-0.013,0.002-0.026,0.01-0.036L136.492,57.253z"/>
					<path style="fill:#342D3A;" d="M149.922,57.306c-0.262-0.355-0.538-0.578-0.821-0.754c-0.282-0.175-0.569-0.306-0.863-0.381
						c-0.293-0.08-0.592-0.106-0.896-0.088c-0.304,0.019-0.613,0.085-0.938,0.281l-0.19,0.115c-0.121,0.073-0.172,0.256-0.114,0.409
						c0.043,0.112,0.132,0.176,0.225,0.174c0.303-0.01,0.605-0.009,0.905,0.006c0.301,0.012,0.599,0.042,0.899,0.062
						c0.298,0.036,0.597,0.064,0.894,0.109c0.297,0.042,0.593,0.097,0.887,0.163c0.018,0.004,0.035-0.011,0.038-0.034
						c0.002-0.013-0.002-0.026-0.008-0.036L149.922,57.306z"/>
					<path style="fill:none;stroke:#342D3A;stroke-linecap:round;stroke-linejoin:round;stroke-miterlimit:10;" d="M141.435,67.99
						c1.023,0.702,2.366,0.915,3.556,0.564"/>
					<path style="fill:none;stroke:#342D3A;stroke-linecap:round;stroke-linejoin:round;stroke-miterlimit:10;" d="M136.314,58.564
						l0.592,1.102c0.639-0.669,1.445-1.06,2.263-1.099c0.818-0.039,1.643,0.275,2.318,0.881"/>
					<path style="fill:none;stroke:#342D3A;stroke-linecap:round;stroke-linejoin:round;stroke-miterlimit:10;" d="M150.589,58.045
						l-0.494,1.403c-0.675-0.606-1.5-0.92-2.318-0.881c-0.818,0.039-1.624,0.43-2.263,1.099"/>
					<path style="fill:#F99062;" d="M132.748,66.173c0-1.497,1.214-2.711,2.711-2.711c1.497,0,2.711,1.214,2.711,2.711
						c0,1.497-1.214,2.711-2.711,2.711C133.962,68.884,132.748,67.67,132.748,66.173z"/>
					<g>
						
							<line style="fill:none;stroke:#342D3A;stroke-linecap:round;stroke-linejoin:round;stroke-miterlimit:10;" x1="126.929" y1="60.403" x2="129.918" y2="62.999"/>
						
							<line style="fill:none;stroke:#342D3A;stroke-linecap:round;stroke-linejoin:round;stroke-miterlimit:10;" x1="127.528" y1="62.64" x2="129.155" y2="60.619"/>
					</g>
					<path style="fill:#342D3A;" d="M142.809,74.036v6.143l-5.899-6.042c0.865,0.275,1.8,0.427,2.756,0.427
						C140.765,74.565,141.823,74.382,142.809,74.036z"/>
				</g>
				<g>
					<g>
						<rect x="114.694" y="231.516" style="fill:#FBB060;" width="6.674" height="9.868"/>
						<g>
							<path style="fill:#48CEAB;" d="M110.149,247.801h28.799v-1.047c0-1.553-0.947-2.949-2.39-3.522l-6.155-0.444l-5.451-5.013
								h-12.368c-1.345,0-2.436,1.091-2.436,2.436V247.801z"/>
							<rect x="110.149" y="247.801" style="fill:#232345;" width="10.91" height="2.61"/>
							<rect x="122.797" y="247.801" style="fill:#232345;" width="16.152" height="2.61"/>
						</g>
					</g>
					<g>
						<rect x="151.936" y="231.516" style="fill:#FBB060;" width="6.674" height="9.868"/>
						<g>
							<path style="fill:#48CEAB;" d="M147.391,247.801h28.8v-1.047c0-1.553-0.947-2.949-2.391-3.522l-6.155-0.444l-5.451-5.013
								h-12.367c-1.346,0-2.437,1.091-2.437,2.436V247.801z"/>
							<rect x="147.391" y="247.801" style="fill:#232345;" width="10.91" height="2.61"/>
							<rect x="160.039" y="247.801" style="fill:#232345;" width="16.152" height="2.61"/>
						</g>
					</g>
					<polygon style="fill:#4187FA;" points="126.542,235.159 110.295,235.159 119.364,133.8 121.272,133.8 140.584,133.8 
						144.12,133.8 152.694,133.8 154.219,133.8 166.782,179.847 160.628,234.995 147.084,234.995 144.404,183.051 137.324,153.653 
											"/>
					
						<rect x="144.951" y="231.516" transform="matrix(-1 -1.224647e-16 1.224647e-16 -1 308.2226 466.5112)" style="fill:#342D3A;" width="18.32" height="3.479"/>
					
						<rect x="109.589" y="231.516" transform="matrix(-1 -1.224647e-16 1.224647e-16 -1 237.4995 466.5112)" style="fill:#342D3A;" width="18.321" height="3.479"/>
				</g>
				<g>
					<g>
						
							<rect x="146.421" y="80.005" transform="matrix(-1 -1.224647e-16 1.224647e-16 -1 296.5361 174.5833)" style="fill:#48CEAB;" width="3.693" height="14.573"/>
						
							<rect x="126.435" y="80.005" transform="matrix(-1 -1.224647e-16 1.224647e-16 -1 256.5626 174.5833)" style="fill:#48CEAB;" width="3.693" height="14.573"/>
					</g>
					<polygon style="fill:#48CEAB;" points="116.767,180.479 161.053,180.479 153.359,139.39 153.359,93.954 124.806,93.954 
						122.332,139.39 					"/>
					
						<rect x="127.786" y="98.742" transform="matrix(-1 -1.224647e-16 1.224647e-16 -1 262.9026 199.8974)" style="fill:#FFFFFF;" width="7.331" height="2.414"/>
					<g>
						<defs>
							<polygon id="SVGID_00000149362705750273320340000006934695878048710305_" points="116.767,180.479 161.053,180.479 
								153.359,139.39 153.359,93.954 124.806,93.954 122.332,139.39 							"/>
						</defs>
						<clipPath id="SVGID_00000008110049690852865830000007167249513212506784_">
							<use xlink:href="#SVGID_00000149362705750273320340000006934695878048710305_"  style="overflow:visible;"/>
						</clipPath>
						
							<path style="clip-path:url(#SVGID_00000008110049690852865830000007167249513212506784_);fill:none;stroke:#FFFFFF;stroke-miterlimit:10;" d="
							M132.361,85.294c15.134,5.475,27.959,17.056,34.945,31.555c-14.062-8.614-28.124-17.228-42.186-25.842
							c-2.005-1.228-4.126-2.493-6.476-2.582c-2.349-0.089-4.938,1.468-5.111,3.813c-0.162,2.206,1.738,3.977,3.567,5.22
							c6.278,4.264,13.638,6.605,20.391,10.069c14.49,7.433,26.12,20.284,32.074,35.442c-21.685-8.842-37.345-30.248-60.202-35.347
							c-1.578-0.352-3.452-0.542-4.603,0.594c-1.243,1.227-0.883,3.435,0.281,4.735c1.165,1.301,2.883,1.929,4.518,2.541
							c21.168,7.923,40.35,21.092,55.351,37.997c3.674,4.141,7.3,9.816,4.968,14.837c-16.762-14.797-33.762-29.757-53.705-39.868
							c-1.914-0.97-4.53-1.782-5.958-0.18c-1.077,1.208-0.707,3.206,0.356,4.425c1.064,1.219,2.626,1.858,4.116,2.487
							c15.618,6.597,29.739,16.708,41.017,29.368c4.799,5.387,9.217,11.518,10.454,18.626
							c-17.398-15.536-35.726-31.581-58.321-37.373c4.71,3.735,9.419,7.471,14.129,11.206
							c13.744,10.901,28.008,22.463,34.991,38.556c-16.699-6.172-26.284-24.687-42.809-31.311c-2.333-0.935-4.87-1.62-7.347-1.195
							c-2.477,0.425-4.858,2.204-5.323,4.674"/>
					</g>
				</g>
				<g>
					<g>
						<path style="fill:#342D3A;" d="M162.945,106.099c0.899-2.417,0.593-5.225-1.061-7.448c-2.595-3.487-7.525-4.211-11.012-1.617
							l-19.408,14.44c-3.487,2.594-4.211,7.525-1.616,11.012c2.594,3.487,7.525,4.211,11.012,1.617l19.408-14.44
							C161.532,108.722,162.434,107.474,162.945,106.099z"/>
					</g>
					<g>
						<path style="fill:#342D3A;" d="M143.247,114.362l-14.441-29.868c-1.892-3.913-6.598-5.552-10.511-3.66l0,0
							c-3.913,1.892-5.552,6.598-3.66,10.511l14.442,29.868L143.247,114.362z"/>
					</g>
					<g>
						<path style="fill:#FBB060;" d="M156.558,93.055c-1.595,0.557-2.436,2.302-1.878,3.896c0.557,1.595,2.302,2.436,3.896,1.878
							c1.595-0.557,2.435-2.302,1.878-3.896C159.897,93.339,158.153,92.498,156.558,93.055z"/>
						<path style="fill:#FBB060;" d="M158.177,95.111l2.175-4.512c0.374-0.775,0.048-1.707-0.727-2.081l0,0
							c-0.775-0.374-1.707-0.048-2.081,0.727l-2.175,4.512c-0.374,0.775-0.048,1.707,0.727,2.081l0,0
							C156.872,96.212,157.803,95.886,158.177,95.111z"/>
						<path style="fill:#FBB060;" d="M160.314,105.917c-2.401,0.445-4.998-1.336-6.054-3.401c-1.597-3.124-0.359-6.951,2.764-8.548
							c0.107-0.055,0.216-0.098,0.325-0.146l-0.008-0.016l9.173-4.69c0.747-0.382,1.663-0.086,2.045,0.661l0.045,0.089
							c0.382,0.747,0.086,1.663-0.661,2.045l-0.376,0.192c0.747-0.382,1.663-0.086,2.045,0.661l0.046,0.089
							c0.382,0.747,0.086,1.663-0.661,2.045l-0.923,0.472c0.747-0.382,1.663-0.086,2.045,0.661l0.045,0.089
							c0.382,0.747,0.086,1.663-0.661,2.045l-1.265,0.647c0.747-0.382,1.663-0.086,2.045,0.661l0.046,0.089
							c0.382,0.747,0.086,1.663-0.661,2.045c-3.207,1.64-3.7,2.134-7.029,3.507c-0.591,0.244-1.192,0.467-1.799,0.668
							C160.665,105.84,160.49,105.884,160.314,105.917z"/>
						
							<line style="fill:none;stroke:#342D3A;stroke-linecap:round;stroke-linejoin:round;stroke-miterlimit:10;" x1="165.976" y1="93.013" x2="168.074" y2="91.94"/>
						
							<line style="fill:none;stroke:#342D3A;stroke-linecap:round;stroke-linejoin:round;stroke-miterlimit:10;" x1="166.658" y1="96.177" x2="168.913" y2="95.024"/>
						
							<line style="fill:none;stroke:#342D3A;stroke-linecap:round;stroke-linejoin:round;stroke-miterlimit:10;" x1="167.003" y1="99.436" x2="169.499" y2="98.16"/>
					</g>
				</g>
			</g>
			<g>
				<g>
					<g>
						<g>
							<path style="fill:#4187FA;" d="M205.316,205.197H195.13c-1.528,0-2.766-1.238-2.766-2.766v-16.87
								c0-1.527,1.238-2.766,2.766-2.766h10.186c1.528,0,2.766,1.238,2.766,2.766v16.87
								C208.082,203.959,206.844,205.197,205.316,205.197z"/>
							<rect x="192.443" y="189.941" style="fill:none;stroke:#342D3A;stroke-miterlimit:10;" width="15.56" height="7.628"/>
							<line style="fill:none;stroke:#342D3A;stroke-miterlimit:10;" x1="192.443" y1="185.461" x2="208.003" y2="185.461"/>
							<rect x="196.449" y="180.716" style="fill:none;stroke:#342D3A;stroke-miterlimit:10;" width="7.549" height="2.08"/>
						</g>
						<g>
							<path style="fill:#4187FA;" d="M223.575,205.197h-10.186c-1.528,0-2.766-1.238-2.766-2.766v-16.87
								c0-1.527,1.238-2.766,2.766-2.766h10.186c1.528,0,2.766,1.238,2.766,2.766v16.87
								C226.341,203.959,225.102,205.197,223.575,205.197z"/>
							<rect x="210.702" y="189.941" style="fill:none;stroke:#342D3A;stroke-miterlimit:10;" width="15.56" height="7.628"/>
							<line style="fill:none;stroke:#342D3A;stroke-miterlimit:10;" x1="210.702" y1="185.461" x2="226.262" y2="185.461"/>
							<rect x="214.707" y="180.716" style="fill:none;stroke:#342D3A;stroke-miterlimit:10;" width="7.549" height="2.08"/>
						</g>
						<g>
							<path style="fill:#4187FA;" d="M241.833,205.197h-10.186c-1.528,0-2.766-1.238-2.766-2.766v-16.87
								c0-1.527,1.238-2.766,2.766-2.766h10.186c1.528,0,2.766,1.238,2.766,2.766v16.87
								C244.599,203.959,243.361,205.197,241.833,205.197z"/>
							<rect x="228.96" y="189.941" style="fill:none;stroke:#342D3A;stroke-miterlimit:10;" width="15.56" height="7.628"/>
							<line style="fill:none;stroke:#342D3A;stroke-miterlimit:10;" x1="228.96" y1="185.461" x2="244.52" y2="185.461"/>
							<rect x="232.966" y="180.716" style="fill:none;stroke:#342D3A;stroke-miterlimit:10;" width="7.549" height="2.08"/>
						</g>
						<g>
							<path style="fill:#4187FA;" d="M260.092,205.197h-10.186c-1.528,0-2.766-1.238-2.766-2.766v-16.87
								c0-1.527,1.238-2.766,2.766-2.766h10.186c1.528,0,2.766,1.238,2.766,2.766v16.87
								C262.858,203.959,261.619,205.197,260.092,205.197z"/>
							<rect x="247.219" y="189.941" style="fill:none;stroke:#342D3A;stroke-miterlimit:10;" width="15.56" height="7.628"/>
							<line style="fill:none;stroke:#342D3A;stroke-miterlimit:10;" x1="247.219" y1="185.461" x2="262.779" y2="185.461"/>
							<rect x="251.224" y="180.716" style="fill:none;stroke:#342D3A;stroke-miterlimit:10;" width="7.549" height="2.08"/>
						</g>
						<g>
							<path style="fill:#4187FA;" d="M278.35,205.197h-10.186c-1.528,0-2.766-1.238-2.766-2.766v-16.87
								c0-1.527,1.238-2.766,2.766-2.766h10.186c1.528,0,2.766,1.238,2.766,2.766v16.87
								C281.116,203.959,279.878,205.197,278.35,205.197z"/>
							<rect x="265.477" y="189.941" style="fill:none;stroke:#342D3A;stroke-miterlimit:10;" width="15.56" height="7.628"/>
							<line style="fill:none;stroke:#342D3A;stroke-miterlimit:10;" x1="265.477" y1="185.461" x2="281.037" y2="185.461"/>
							<rect x="269.483" y="180.716" style="fill:none;stroke:#342D3A;stroke-miterlimit:10;" width="7.549" height="2.08"/>
						</g>
						<g>
							<path style="fill:#4187FA;" d="M296.608,205.197h-10.186c-1.528,0-2.766-1.238-2.766-2.766v-16.87
								c0-1.527,1.238-2.766,2.766-2.766h10.186c1.528,0,2.766,1.238,2.766,2.766v16.87
								C299.374,203.959,298.136,205.197,296.608,205.197z"/>
							<rect x="283.735" y="189.941" style="fill:none;stroke:#342D3A;stroke-miterlimit:10;" width="15.56" height="7.628"/>
							<line style="fill:none;stroke:#342D3A;stroke-miterlimit:10;" x1="283.735" y1="185.461" x2="299.296" y2="185.461"/>
							<rect x="287.741" y="180.716" style="fill:none;stroke:#342D3A;stroke-miterlimit:10;" width="7.549" height="2.08"/>
						</g>
					</g>
					<g>
						<g>
							<path style="fill:#4187FA;" d="M224.59,155.28h-10.186c-1.528,0-2.766-1.238-2.766-2.766v-16.869
								c0-1.528,1.238-2.766,2.766-2.766h10.186c1.528,0,2.766,1.238,2.766,2.766v16.869
								C227.356,154.042,226.118,155.28,224.59,155.28z"/>
							<rect x="211.717" y="140.023" style="fill:none;stroke:#342D3A;stroke-miterlimit:10;" width="15.56" height="7.628"/>
							<line style="fill:none;stroke:#342D3A;stroke-miterlimit:10;" x1="211.717" y1="135.544" x2="227.277" y2="135.544"/>
							<rect x="215.723" y="130.799" style="fill:none;stroke:#342D3A;stroke-miterlimit:10;" width="7.549" height="2.08"/>
						</g>
						<g>
							<path style="fill:#4187FA;" d="M242.848,155.28h-10.186c-1.528,0-2.766-1.238-2.766-2.766v-16.869
								c0-1.528,1.238-2.766,2.766-2.766h10.186c1.528,0,2.766,1.238,2.766,2.766v16.869
								C245.614,154.042,244.376,155.28,242.848,155.28z"/>
							<rect x="229.975" y="140.023" style="fill:none;stroke:#342D3A;stroke-miterlimit:10;" width="15.56" height="7.628"/>
							<line style="fill:none;stroke:#342D3A;stroke-miterlimit:10;" x1="229.975" y1="135.544" x2="245.535" y2="135.544"/>
							<rect x="233.981" y="130.799" style="fill:none;stroke:#342D3A;stroke-miterlimit:10;" width="7.549" height="2.08"/>
						</g>
						<g>
							<path style="fill:#4187FA;" d="M261.107,155.28h-10.186c-1.528,0-2.766-1.238-2.766-2.766v-16.869
								c0-1.528,1.238-2.766,2.766-2.766h10.186c1.528,0,2.766,1.238,2.766,2.766v16.869
								C263.873,154.042,262.634,155.28,261.107,155.28z"/>
							<rect x="248.234" y="140.023" style="fill:none;stroke:#342D3A;stroke-miterlimit:10;" width="15.56" height="7.628"/>
							<line style="fill:none;stroke:#342D3A;stroke-miterlimit:10;" x1="248.234" y1="135.544" x2="263.794" y2="135.544"/>
							<rect x="252.239" y="130.799" style="fill:none;stroke:#342D3A;stroke-miterlimit:10;" width="7.549" height="2.08"/>
						</g>
						<g>
							<path style="fill:#4187FA;" d="M279.365,155.28h-10.186c-1.528,0-2.766-1.238-2.766-2.766v-16.869
								c0-1.528,1.238-2.766,2.766-2.766h10.186c1.528,0,2.766,1.238,2.766,2.766v16.869
								C282.131,154.042,280.893,155.28,279.365,155.28z"/>
							<rect x="266.492" y="140.023" style="fill:none;stroke:#342D3A;stroke-miterlimit:10;" width="15.56" height="7.628"/>
							<line style="fill:none;stroke:#342D3A;stroke-miterlimit:10;" x1="266.492" y1="135.544" x2="282.052" y2="135.544"/>
							<rect x="270.498" y="130.799" style="fill:none;stroke:#342D3A;stroke-miterlimit:10;" width="7.549" height="2.08"/>
						</g>
					</g>
					<g>
						<g>
							<path style="fill:#4187FA;" d="M243.864,105.363h-10.186c-1.528,0-2.766-1.238-2.766-2.766v-16.87
								c0-1.528,1.238-2.766,2.766-2.766h10.186c1.528,0,2.766,1.238,2.766,2.766v16.87
								C246.629,104.124,245.391,105.363,243.864,105.363z"/>
							<rect x="230.99" y="90.106" style="fill:none;stroke:#342D3A;stroke-miterlimit:10;" width="15.56" height="7.628"/>
							<line style="fill:none;stroke:#342D3A;stroke-miterlimit:10;" x1="230.99" y1="85.627" x2="246.55" y2="85.627"/>
							<rect x="234.996" y="80.881" style="fill:none;stroke:#342D3A;stroke-miterlimit:10;" width="7.549" height="2.08"/>
						</g>
						<g>
							<path style="fill:#4187FA;" d="M262.122,105.363h-10.186c-1.528,0-2.766-1.238-2.766-2.766v-16.87
								c0-1.528,1.238-2.766,2.766-2.766h10.186c1.527,0,2.766,1.238,2.766,2.766v16.87
								C264.888,104.124,263.65,105.363,262.122,105.363z"/>
							<rect x="249.249" y="90.106" style="fill:none;stroke:#342D3A;stroke-miterlimit:10;" width="15.56" height="7.628"/>
							<line style="fill:none;stroke:#342D3A;stroke-miterlimit:10;" x1="249.249" y1="85.627" x2="264.809" y2="85.627"/>
							<rect x="253.254" y="80.881" style="fill:none;stroke:#342D3A;stroke-miterlimit:10;" width="7.549" height="2.08"/>
						</g>
					</g>
					<g>
						<path style="fill:#FBB060;" d="M214.953,180.72h-10.186c-1.527,0-2.766-1.238-2.766-2.766v-16.869
							c0-1.528,1.238-2.766,2.766-2.766h10.186c1.528,0,2.766,1.238,2.766,2.766v16.869
							C217.719,179.482,216.481,180.72,214.953,180.72z"/>
						<rect x="202.08" y="165.464" style="fill:none;stroke:#342D3A;stroke-miterlimit:10;" width="15.56" height="7.628"/>
						<line style="fill:none;stroke:#342D3A;stroke-miterlimit:10;" x1="202.08" y1="160.984" x2="217.64" y2="160.984"/>
						<rect x="206.086" y="156.239" style="fill:none;stroke:#342D3A;stroke-miterlimit:10;" width="7.549" height="2.08"/>
						<path style="fill:#FBB060;" d="M233.212,180.72h-10.186c-1.527,0-2.766-1.238-2.766-2.766v-16.869
							c0-1.528,1.238-2.766,2.766-2.766h10.186c1.528,0,2.766,1.238,2.766,2.766v16.869
							C235.978,179.482,234.739,180.72,233.212,180.72z"/>
						<rect x="220.339" y="165.464" style="fill:none;stroke:#342D3A;stroke-miterlimit:10;" width="15.56" height="7.628"/>
						<line style="fill:none;stroke:#342D3A;stroke-miterlimit:10;" x1="220.339" y1="160.984" x2="235.899" y2="160.984"/>
						<rect x="224.344" y="156.239" style="fill:none;stroke:#342D3A;stroke-miterlimit:10;" width="7.549" height="2.08"/>
						<path style="fill:#FBB060;" d="M251.47,180.72h-10.186c-1.527,0-2.766-1.238-2.766-2.766v-16.869
							c0-1.528,1.238-2.766,2.766-2.766h10.186c1.528,0,2.766,1.238,2.766,2.766v16.869
							C254.236,179.482,252.998,180.72,251.47,180.72z"/>
						<rect x="238.597" y="165.464" style="fill:none;stroke:#342D3A;stroke-miterlimit:10;" width="15.56" height="7.628"/>
						<line style="fill:none;stroke:#342D3A;stroke-miterlimit:10;" x1="238.597" y1="160.984" x2="254.157" y2="160.984"/>
						<rect x="242.603" y="156.239" style="fill:none;stroke:#342D3A;stroke-miterlimit:10;" width="7.549" height="2.08"/>
						<path style="fill:#FBB060;" d="M269.728,180.72h-10.186c-1.528,0-2.766-1.238-2.766-2.766v-16.869
							c0-1.528,1.238-2.766,2.766-2.766h10.186c1.528,0,2.766,1.238,2.766,2.766v16.869
							C272.494,179.482,271.256,180.72,269.728,180.72z"/>
						<rect x="256.855" y="165.464" style="fill:none;stroke:#342D3A;stroke-miterlimit:10;" width="15.56" height="7.628"/>
						<line style="fill:none;stroke:#342D3A;stroke-miterlimit:10;" x1="256.855" y1="160.984" x2="272.415" y2="160.984"/>
						<rect x="260.861" y="156.239" style="fill:none;stroke:#342D3A;stroke-miterlimit:10;" width="7.549" height="2.08"/>
						<path style="fill:#FBB060;" d="M287.987,180.72h-10.186c-1.528,0-2.766-1.238-2.766-2.766v-16.869
							c0-1.528,1.238-2.766,2.766-2.766h10.186c1.528,0,2.766,1.238,2.766,2.766v16.869
							C290.753,179.482,289.514,180.72,287.987,180.72z"/>
						<rect x="275.114" y="165.464" style="fill:none;stroke:#342D3A;stroke-miterlimit:10;" width="15.56" height="7.628"/>
						<line style="fill:none;stroke:#342D3A;stroke-miterlimit:10;" x1="275.114" y1="160.984" x2="290.674" y2="160.984"/>
						<rect x="279.119" y="156.239" style="fill:none;stroke:#342D3A;stroke-miterlimit:10;" width="7.549" height="2.08"/>
					</g>
					<g>
						<path style="fill:#FBB060;" d="M234.227,129.839h-10.186c-1.528,0-2.766-1.238-2.766-2.766v-16.869
							c0-1.528,1.238-2.766,2.766-2.766h10.186c1.528,0,2.766,1.238,2.766,2.766v16.869
							C236.993,128.601,235.754,129.839,234.227,129.839z"/>
						<rect x="221.354" y="114.583" style="fill:none;stroke:#342D3A;stroke-miterlimit:10;" width="15.56" height="7.628"/>
						<line style="fill:none;stroke:#342D3A;stroke-miterlimit:10;" x1="221.354" y1="110.104" x2="236.914" y2="110.104"/>
						<rect x="225.359" y="105.358" style="fill:none;stroke:#342D3A;stroke-miterlimit:10;" width="7.549" height="2.08"/>
						<path style="fill:#FBB060;" d="M252.485,129.839h-10.186c-1.528,0-2.766-1.238-2.766-2.766v-16.869
							c0-1.528,1.238-2.766,2.766-2.766h10.186c1.528,0,2.766,1.238,2.766,2.766v16.869
							C255.251,128.601,254.013,129.839,252.485,129.839z"/>
						<rect x="239.612" y="114.583" style="fill:none;stroke:#342D3A;stroke-miterlimit:10;" width="15.56" height="7.628"/>
						<line style="fill:none;stroke:#342D3A;stroke-miterlimit:10;" x1="239.612" y1="110.104" x2="255.172" y2="110.104"/>
						<rect x="243.618" y="105.358" style="fill:none;stroke:#342D3A;stroke-miterlimit:10;" width="7.549" height="2.08"/>
						<path style="fill:#FBB060;" d="M270.744,129.839h-10.186c-1.528,0-2.766-1.238-2.766-2.766v-16.869
							c0-1.528,1.238-2.766,2.766-2.766h10.186c1.528,0,2.766,1.238,2.766,2.766v16.869
							C273.509,128.601,272.271,129.839,270.744,129.839z"/>
						<rect x="257.87" y="114.583" style="fill:none;stroke:#342D3A;stroke-miterlimit:10;" width="15.56" height="7.628"/>
						<line style="fill:none;stroke:#342D3A;stroke-miterlimit:10;" x1="257.87" y1="110.104" x2="273.431" y2="110.104"/>
						<rect x="261.876" y="105.358" style="fill:none;stroke:#342D3A;stroke-miterlimit:10;" width="7.549" height="2.08"/>
					</g>
					<g>
						<path style="fill:#FBB060;" d="M253.5,80.886h-10.186c-1.528,0-2.766-1.238-2.766-2.766V61.25
							c0-1.528,1.238-2.766,2.766-2.766H253.5c1.528,0,2.766,1.238,2.766,2.766V78.12C256.266,79.647,255.028,80.886,253.5,80.886z"
							/>
						<rect x="240.627" y="65.629" style="fill:none;stroke:#342D3A;stroke-miterlimit:10;" width="15.56" height="7.628"/>
						<line style="fill:none;stroke:#342D3A;stroke-miterlimit:10;" x1="240.627" y1="61.15" x2="256.187" y2="61.15"/>
						<rect x="244.633" y="56.404" style="fill:none;stroke:#342D3A;stroke-miterlimit:10;" width="7.549" height="2.08"/>
					</g>
				</g>
				<rect x="186.107" y="205.763" style="fill:none;stroke:#342D3A;stroke-miterlimit:10;" width="122.183" height="44.648"/>
				<rect x="211.876" y="215.179" style="fill:#D1DCEE;" width="70.646" height="25.815"/>
			</g>
		</g>
	</g>
</g>
</svg>
