<?xml version="1.0" encoding="utf-8"?>
<!-- Generator: Adobe Illustrator 27.5.0, SVG Export Plug-In . SVG Version: 6.00 Build 0)  -->
<svg version="1.1" xmlns="http://www.w3.org/2000/svg" xmlns:xlink="http://www.w3.org/1999/xlink" x="0px" y="0px"
	 viewBox="0 0 500 500" style="enable-background:new 0 0 500 500;" xml:space="preserve">
<g id="Background_Simple">
	<g id="background-simple--inject-1" style="opacity:0.7;">
		<path style="fill:#C6FF00;" d="M411.426,97.966c0,0-48.695-50.315-125.793-47.908c-77.098,2.407-142.846,51.136-197.221,89.28
			c-54.376,38.144-68.976,97.413-37.323,143.667s81.968,26.783,146.074,56.805c64.105,30.022,76.242,47.075,147.705,39.775
			c71.463-7.3,125.804-81.968,117.683-161.507C454.429,138.54,411.426,97.966,411.426,97.966z"/>
		<path style="opacity:0.4;fill:#FFFFFF;" d="M411.426,97.966c0,0-48.695-50.315-125.793-47.908
			c-77.098,2.407-142.846,51.136-197.221,89.28c-54.376,38.144-68.976,97.413-37.323,143.667s81.968,26.783,146.074,56.805
			c64.105,30.022,76.242,47.075,147.705,39.775c71.463-7.3,125.804-81.968,117.683-161.507
			C454.429,138.54,411.426,97.966,411.426,97.966z"/>
	</g>
</g>
<g id="Dashboard">
	<g>
		<g>
			<defs>
				<path id="XMLID_3_" d="M413.33,132.653V302.45c0,8.908-7.224,16.132-16.132,16.132H135.849c-8.908,0-16.132-7.224-16.132-16.132
					V132.653c0-8.917,7.224-16.132,16.132-16.132h261.349C406.106,116.521,413.33,123.736,413.33,132.653z"/>
			</defs>
			<use xlink:href="#XMLID_3_"  style="overflow:visible;fill:#FFFFFF;"/>
			<clipPath id="XMLID_00000087384054248719573150000016425695278680705180_">
				<use xlink:href="#XMLID_3_"  style="overflow:visible;"/>
			</clipPath>
			<g style="clip-path:url(#XMLID_00000087384054248719573150000016425695278680705180_);">
				<path style="fill:#C6FF00;" d="M150.451,116.521v202.061h-14.602c-8.908,0-16.132-7.224-16.132-16.132V132.653
					c0-8.917,7.224-16.132,16.132-16.132H150.451z"/>
				<path style="opacity:0.2;" d="M150.451,116.521v202.061h-14.602c-8.908,0-16.132-7.224-16.132-16.132V132.653
					c0-8.917,7.224-16.132,16.132-16.132H150.451z"/>
			</g>
			<use xlink:href="#XMLID_3_"  style="overflow:visible;fill:none;stroke:#263238;stroke-miterlimit:10;"/>
		</g>
		<g>
			
				<line style="fill:none;stroke:#263238;stroke-linecap:round;stroke-linejoin:round;" x1="222.493" y1="243.581" x2="222.493" y2="242.683"/>
			
				<line style="fill:none;stroke:#263238;stroke-linecap:round;stroke-linejoin:round;stroke-miterlimit:10;" x1="321.208" y1="243.581" x2="321.208" y2="242.683"/>
			
				<line style="fill:none;stroke:#263238;stroke-linecap:round;stroke-linejoin:round;" x1="227.354" y1="243.581" x2="227.354" y2="207.528"/>
			
				<line style="fill:none;stroke:#263238;stroke-linecap:round;stroke-linejoin:round;" x1="227.354" y1="239.077" x2="229.823" y2="239.077"/>
			
				<line style="fill:none;stroke:#263238;stroke-linecap:round;stroke-linejoin:round;" x1="227.354" y1="234.567" x2="229.823" y2="234.567"/>
			
				<line style="fill:none;stroke:#263238;stroke-linecap:round;stroke-linejoin:round;" x1="227.354" y1="230.064" x2="229.823" y2="230.064"/>
			
				<line style="fill:none;stroke:#263238;stroke-linecap:round;stroke-linejoin:round;" x1="227.354" y1="225.554" x2="229.823" y2="225.554"/>
			
				<line style="fill:none;stroke:#263238;stroke-linecap:round;stroke-linejoin:round;" x1="227.354" y1="221.051" x2="229.823" y2="221.051"/>
			
				<line style="fill:none;stroke:#263238;stroke-linecap:round;stroke-linejoin:round;" x1="227.354" y1="216.541" x2="229.823" y2="216.541"/>
			
				<line style="fill:none;stroke:#263238;stroke-linecap:round;stroke-linejoin:round;" x1="227.354" y1="212.038" x2="229.823" y2="212.038"/>
			
				<line style="fill:none;stroke:#263238;stroke-linecap:round;stroke-linejoin:round;" x1="227.354" y1="207.528" x2="229.823" y2="207.528"/>
			<rect x="305.562" y="216.541" style="fill:#263238;" width="5.468" height="27.039"/>
			<rect x="299.492" y="236.825" style="fill:#C6FF00;" width="5.468" height="6.761"/>
			<rect x="293.416" y="235.47" style="fill:#263238;" width="5.468" height="8.11"/>
			<rect x="287.341" y="221.051" style="fill:#C6FF00;" width="5.468" height="22.536"/>
			<rect x="281.265" y="230.064" style="fill:#263238;" width="5.468" height="13.522"/>
			<rect x="275.19" y="232.316" style="fill:#C6FF00;" width="5.468" height="11.265"/>
			<rect x="269.114" y="234.567" style="fill:#263238;" width="5.468" height="9.013"/>
			<rect x="263.038" y="212.038" style="fill:#C6FF00;" width="5.468" height="31.549"/>
			<rect x="256.968" y="239.077" style="fill:#263238;" width="5.468" height="4.509"/>
			<rect x="250.893" y="230.064" style="fill:#C6FF00;" width="5.468" height="13.522"/>
			<rect x="244.817" y="221.168" style="fill:#263238;" width="5.468" height="22.535"/>
			<rect x="238.742" y="225.554" style="fill:#C6FF00;" width="5.468" height="18.026"/>
			<rect x="232.666" y="234.567" style="fill:#263238;" width="5.468" height="9.013"/>
			
				<line style="fill:none;stroke:#263238;stroke-linecap:round;stroke-linejoin:round;" x1="222.493" y1="243.581" x2="321.208" y2="243.581"/>
		</g>
		<path style="fill:#FFFFFF;stroke:#263238;stroke-linecap:round;stroke-linejoin:round;" d="M214.924,134.987L214.924,134.987
			c0.668,0,1.21,0.542,1.21,1.21l0,0c0,0.668-0.542,1.21-1.21,1.21l0,0c-0.668,0-1.21-0.542-1.21-1.21l0,0
			C213.714,135.528,214.256,134.987,214.924,134.987z"/>
		<g>
			
				<line style="fill:none;stroke:#263238;stroke-linecap:round;stroke-linejoin:round;" x1="170.466" y1="187.17" x2="300.417" y2="187.17"/>
			
				<line style="fill:none;stroke:#263238;stroke-linecap:round;stroke-linejoin:round;stroke-miterlimit:10;" x1="170.466" y1="187.17" x2="170.466" y2="185.894"/>
			
				<line style="fill:none;stroke:#263238;stroke-linecap:round;stroke-linejoin:round;" x1="177.305" y1="187.17" x2="177.305" y2="185.894"/>
			
				<line style="fill:none;stroke:#263238;stroke-linecap:round;stroke-linejoin:round;" x1="184.145" y1="187.17" x2="184.145" y2="185.894"/>
			
				<line style="fill:none;stroke:#263238;stroke-linecap:round;stroke-linejoin:round;" x1="190.984" y1="187.17" x2="190.984" y2="185.894"/>
			
				<line style="fill:none;stroke:#263238;stroke-linecap:round;stroke-linejoin:round;" x1="197.823" y1="187.17" x2="197.823" y2="185.894"/>
			
				<line style="fill:none;stroke:#263238;stroke-linecap:round;stroke-linejoin:round;" x1="204.662" y1="187.17" x2="204.662" y2="185.894"/>
			
				<line style="fill:none;stroke:#263238;stroke-linecap:round;stroke-linejoin:round;" x1="211.502" y1="187.17" x2="211.502" y2="185.894"/>
			
				<line style="fill:none;stroke:#263238;stroke-linecap:round;stroke-linejoin:round;" x1="218.341" y1="187.17" x2="218.341" y2="185.894"/>
			
				<line style="fill:none;stroke:#263238;stroke-linecap:round;stroke-linejoin:round;" x1="225.18" y1="187.17" x2="225.18" y2="185.894"/>
			
				<line style="fill:none;stroke:#263238;stroke-linecap:round;stroke-linejoin:round;" x1="232.025" y1="187.17" x2="232.025" y2="185.894"/>
			
				<line style="fill:none;stroke:#263238;stroke-linecap:round;stroke-linejoin:round;" x1="238.864" y1="187.17" x2="238.864" y2="185.894"/>
			
				<line style="fill:none;stroke:#263238;stroke-linecap:round;stroke-linejoin:round;" x1="245.703" y1="187.17" x2="245.703" y2="185.894"/>
			
				<line style="fill:none;stroke:#263238;stroke-linecap:round;stroke-linejoin:round;" x1="252.543" y1="187.17" x2="252.543" y2="185.894"/>
			
				<line style="fill:none;stroke:#263238;stroke-linecap:round;stroke-linejoin:round;" x1="259.382" y1="187.17" x2="259.382" y2="185.894"/>
			
				<line style="fill:none;stroke:#263238;stroke-linecap:round;stroke-linejoin:round;" x1="266.221" y1="187.17" x2="266.221" y2="185.894"/>
			
				<line style="fill:none;stroke:#263238;stroke-linecap:round;stroke-linejoin:round;" x1="273.06" y1="187.17" x2="273.06" y2="185.894"/>
			
				<line style="fill:none;stroke:#263238;stroke-linecap:round;stroke-linejoin:round;" x1="279.9" y1="187.17" x2="279.9" y2="185.894"/>
			
				<line style="fill:none;stroke:#263238;stroke-linecap:round;stroke-linejoin:round;" x1="286.739" y1="187.17" x2="286.739" y2="185.894"/>
			
				<line style="fill:none;stroke:#263238;stroke-linecap:round;stroke-linejoin:round;" x1="293.578" y1="187.17" x2="293.578" y2="185.894"/>
			
				<line style="fill:none;stroke:#263238;stroke-linecap:round;stroke-linejoin:round;stroke-miterlimit:10;" x1="300.417" y1="187.17" x2="300.417" y2="185.894"/>
			
				<line style="fill:none;stroke:#263238;stroke-linecap:round;stroke-linejoin:round;" x1="170.466" y1="187.17" x2="170.466" y2="136.196"/>
			
				<line style="fill:none;stroke:#263238;stroke-linecap:round;stroke-linejoin:round;" x1="170.466" y1="176.975" x2="173.716" y2="176.975"/>
			
				<line style="fill:none;stroke:#263238;stroke-linecap:round;stroke-linejoin:round;" x1="170.466" y1="166.781" x2="173.716" y2="166.781"/>
			
				<line style="fill:none;stroke:#263238;stroke-linecap:round;stroke-linejoin:round;" x1="170.466" y1="156.586" x2="173.716" y2="156.586"/>
			
				<line style="fill:none;stroke:#263238;stroke-linecap:round;stroke-linejoin:round;" x1="170.466" y1="146.391" x2="173.716" y2="146.391"/>
			
				<line style="fill:none;stroke:#263238;stroke-linecap:round;stroke-linejoin:round;" x1="170.466" y1="136.196" x2="173.716" y2="136.196"/>
			
				<line style="fill:none;stroke:#263238;stroke-linecap:round;stroke-linejoin:round;stroke-miterlimit:10;" x1="180.728" y1="146.391" x2="173.889" y2="176.975"/>
			
				<line style="fill:none;stroke:#263238;stroke-linecap:round;stroke-linejoin:round;stroke-miterlimit:10;" x1="187.567" y1="163.72" x2="180.728" y2="146.391"/>
			
				<line style="fill:none;stroke:#263238;stroke-linecap:round;stroke-linejoin:round;stroke-miterlimit:10;" x1="194.406" y1="156.586" x2="187.567" y2="163.72"/>
			
				<line style="fill:none;stroke:#263238;stroke-linecap:round;stroke-linejoin:round;stroke-miterlimit:10;" x1="201.246" y1="174.935" x2="194.406" y2="156.586"/>
			
				<line style="fill:none;stroke:#263238;stroke-linecap:round;stroke-linejoin:round;stroke-miterlimit:10;" x1="208.085" y1="146.391" x2="201.246" y2="174.935"/>
			
				<line style="fill:none;stroke:#263238;stroke-linecap:round;stroke-linejoin:round;stroke-miterlimit:10;" x1="214.924" y1="136.196" x2="208.085" y2="146.391"/>
			
				<line style="fill:none;stroke:#263238;stroke-linecap:round;stroke-linejoin:round;stroke-miterlimit:10;" x1="221.763" y1="182.07" x2="214.924" y2="136.196"/>
			
				<line style="fill:none;stroke:#263238;stroke-linecap:round;stroke-linejoin:round;stroke-miterlimit:10;" x1="228.602" y1="179.01" x2="221.763" y2="182.07"/>
			
				<line style="fill:none;stroke:#263238;stroke-linecap:round;stroke-linejoin:round;stroke-miterlimit:10;" x1="235.442" y1="177.99" x2="228.602" y2="179.01"/>
			
				<line style="fill:none;stroke:#263238;stroke-linecap:round;stroke-linejoin:round;stroke-miterlimit:10;" x1="242.281" y1="174.935" x2="235.442" y2="177.99"/>
			
				<line style="fill:none;stroke:#263238;stroke-linecap:round;stroke-linejoin:round;stroke-miterlimit:10;" x1="249.12" y1="170.855" x2="242.281" y2="174.935"/>
			
				<line style="fill:none;stroke:#263238;stroke-linecap:round;stroke-linejoin:round;stroke-miterlimit:10;" x1="255.959" y1="172.895" x2="249.12" y2="170.855"/>
			
				<line style="fill:none;stroke:#263238;stroke-linecap:round;stroke-linejoin:round;stroke-miterlimit:10;" x1="262.799" y1="176.975" x2="255.959" y2="172.895"/>
			
				<line style="fill:none;stroke:#263238;stroke-linecap:round;stroke-linejoin:round;stroke-miterlimit:10;" x1="269.638" y1="155.566" x2="262.799" y2="176.975"/>
			
				<line style="fill:none;stroke:#263238;stroke-linecap:round;stroke-linejoin:round;stroke-miterlimit:10;" x1="276.477" y1="152.506" x2="269.638" y2="155.566"/>
			
				<line style="fill:none;stroke:#263238;stroke-linecap:round;stroke-linejoin:round;stroke-miterlimit:10;" x1="283.316" y1="148.431" x2="276.477" y2="152.506"/>
			
				<line style="fill:none;stroke:#263238;stroke-linecap:round;stroke-linejoin:round;stroke-miterlimit:10;" x1="290.156" y1="152.506" x2="283.316" y2="148.431"/>
			
				<line style="fill:none;stroke:#263238;stroke-linecap:round;stroke-linejoin:round;stroke-miterlimit:10;" x1="296.995" y1="156.586" x2="290.156" y2="152.506"/>
			<path style="fill:#FFFFFF;stroke:#263238;stroke-linecap:round;stroke-linejoin:round;" d="M173.889,175.766L173.889,175.766
				c0.668,0,1.21,0.542,1.21,1.21l0,0c-0.003,0.666-0.544,1.204-1.21,1.204l0,0c-0.666,0-1.206-0.538-1.21-1.204l0,0
				C172.679,176.307,173.221,175.766,173.889,175.766z"/>
			<path style="fill:#FFFFFF;stroke:#263238;stroke-linecap:round;stroke-linejoin:round;" d="M180.728,145.181L180.728,145.181
				c0.668,0,1.21,0.542,1.21,1.21l0,0c0,0.668-0.542,1.209-1.21,1.209l0,0c-0.668,0-1.21-0.541-1.21-1.209l0,0
				C179.518,145.723,180.06,145.181,180.728,145.181z"/>
			<path style="fill:#FFFFFF;stroke:#263238;stroke-linecap:round;stroke-linejoin:round;" d="M187.567,162.511L187.567,162.511
				c0.668,0,1.21,0.542,1.21,1.21l0,0c0,0.668-0.542,1.21-1.21,1.21l0,0c-0.668,0-1.21-0.542-1.21-1.21l0,0
				C186.357,163.052,186.899,162.511,187.567,162.511z"/>
			<path style="fill:#FFFFFF;stroke:#263238;stroke-linecap:round;stroke-linejoin:round;" d="M194.406,155.376L194.406,155.376
				c0.666,0,1.206,0.538,1.21,1.204l0,0c0,0.668-0.542,1.21-1.21,1.21l0,0c-0.668,0-1.21-0.542-1.21-1.21l0,0
				C193.2,155.914,193.74,155.376,194.406,155.376z"/>
			<path style="fill:#FFFFFF;stroke:#263238;stroke-linecap:round;stroke-linejoin:round;" d="M201.246,173.726L201.246,173.726
				c0.668,0,1.21,0.542,1.21,1.21l0,0c0,0.668-0.542,1.21-1.21,1.21l0,0c-0.668,0-1.21-0.542-1.21-1.21l0,0
				C200.036,174.267,200.577,173.726,201.246,173.726z"/>
			<path style="fill:#FFFFFF;stroke:#263238;stroke-linecap:round;stroke-linejoin:round;" d="M208.102,145.181L208.102,145.181
				c0.668,0,1.21,0.542,1.21,1.21l0,0c0,0.668-0.542,1.209-1.21,1.209l0,0c-0.668,0-1.21-0.541-1.21-1.209l0,0
				C206.892,145.723,207.434,145.181,208.102,145.181z"/>
			<path style="fill:#FFFFFF;stroke:#263238;stroke-linecap:round;stroke-linejoin:round;" d="M221.763,180.86L221.763,180.86
				c0.668,0,1.21,0.541,1.21,1.209l0,0l0,0c0,0.668-0.542,1.21-1.21,1.21l0,0l0,0c-0.668,0-1.21-0.542-1.21-1.21l0,0l0,0
				C220.554,181.402,221.095,180.86,221.763,180.86L221.763,180.86z"/>
			<path style="fill:#FFFFFF;stroke:#263238;stroke-linecap:round;stroke-linejoin:round;" d="M228.602,177.806L228.602,177.806
				c0.666,0,1.207,0.538,1.21,1.204l0,0c0,0.668-0.541,1.21-1.21,1.21l0,0l0,0c-0.668,0-1.209-0.542-1.209-1.21l0,0l0,0
				C227.396,178.344,227.937,177.806,228.602,177.806z"/>
			<path style="fill:#FFFFFF;stroke:#263238;stroke-linecap:round;stroke-linejoin:round;" d="M235.442,176.786L235.442,176.786
				c0.666,0,1.206,0.538,1.21,1.204l0,0c0,0.668-0.542,1.21-1.21,1.21l0,0l0,0c-0.668,0-1.21-0.542-1.21-1.21l0,0l0,0
				C234.235,177.324,234.776,176.786,235.442,176.786z"/>
			<path style="fill:#FFFFFF;stroke:#263238;stroke-linecap:round;stroke-linejoin:round;" d="M242.281,173.726L242.281,173.726
				c0.668,0,1.21,0.542,1.21,1.21l0,0l0,0c0,0.668-0.542,1.21-1.21,1.21l0,0l0,0c-0.668,0-1.21-0.542-1.21-1.21l0,0l0,0
				C241.071,174.267,241.613,173.726,242.281,173.726L242.281,173.726z"/>
			<path style="fill:#FFFFFF;stroke:#263238;stroke-linecap:round;stroke-linejoin:round;" d="M249.12,169.645L249.12,169.645
				c0.668,0,1.21,0.542,1.21,1.21l0,0l0,0c0,0.668-0.541,1.21-1.21,1.21l0,0l0,0c-0.668,0-1.21-0.542-1.21-1.21l0,0l0,0
				C247.911,170.187,248.452,169.645,249.12,169.645L249.12,169.645z"/>
			<path style="fill:#FFFFFF;stroke:#263238;stroke-linecap:round;stroke-linejoin:round;" d="M255.959,171.686L255.959,171.686
				c0.668,0,1.21,0.541,1.21,1.21l0,0l0,0c0,0.668-0.542,1.21-1.21,1.21l0,0l0,0c-0.668,0-1.209-0.542-1.209-1.21l0,0l0,0
				C254.75,172.227,255.291,171.686,255.959,171.686L255.959,171.686z"/>
			<path style="fill:#FFFFFF;stroke:#263238;stroke-linecap:round;stroke-linejoin:round;" d="M262.799,175.766L262.799,175.766
				c0.668,0,1.21,0.542,1.21,1.21l0,0l0,0c-0.003,0.666-0.544,1.204-1.21,1.204l0,0c-0.666,0-1.206-0.538-1.21-1.204l0,0
				C261.589,176.307,262.131,175.766,262.799,175.766L262.799,175.766z"/>
			<path style="fill:#FFFFFF;stroke:#263238;stroke-linecap:round;stroke-linejoin:round;" d="M269.638,154.35L269.638,154.35
				c0.668,0,1.21,0.542,1.21,1.21l0,0l0,0c0,0.668-0.542,1.21-1.21,1.21l0,0l0,0c-0.668,0-1.21-0.542-1.21-1.21l0,0l0,0
				C268.428,154.892,268.97,154.35,269.638,154.35L269.638,154.35z"/>
			<path style="fill:#FFFFFF;stroke:#263238;stroke-linecap:round;stroke-linejoin:round;" d="M276.477,151.296L276.477,151.296
				c0.668,0,1.21,0.542,1.21,1.21l0,0l0,0c0,0.668-0.542,1.21-1.21,1.21l0,0l0,0c-0.668,0-1.21-0.542-1.21-1.21l0,0l0,0
				C275.268,151.838,275.809,151.296,276.477,151.296L276.477,151.296z"/>
			<path style="fill:#FFFFFF;stroke:#263238;stroke-linecap:round;stroke-linejoin:round;" d="M283.316,147.221L283.316,147.221
				c0.668,0,1.21,0.542,1.21,1.21c0,0,0,0,0,0l0,0c-0.003,0.666-0.544,1.204-1.21,1.204l0,0c-0.666,0-1.207-0.538-1.21-1.204l0,0
				C282.107,147.763,282.648,147.221,283.316,147.221L283.316,147.221z"/>
			<path style="fill:#FFFFFF;stroke:#263238;stroke-linecap:round;stroke-linejoin:round;" d="M290.156,151.296L290.156,151.296
				c0.668,0,1.21,0.542,1.21,1.21l0,0l0,0c0,0.668-0.542,1.21-1.21,1.21l0,0l0,0c-0.668,0-1.21-0.542-1.21-1.21l0,0l0,0
				C288.946,151.838,289.488,151.296,290.156,151.296L290.156,151.296z"/>
			<path style="fill:#FFFFFF;stroke:#263238;stroke-linecap:round;stroke-linejoin:round;" d="M296.995,155.376L296.995,155.376
				c0.668,0,1.21,0.541,1.21,1.209l0,0l0,0c0,0.668-0.542,1.21-1.21,1.21l0,0l0,0c-0.667-0.003-1.207-0.543-1.21-1.21l0,0
				C295.785,155.918,296.327,155.376,296.995,155.376L296.995,155.376z"/>
		</g>
		<path style="fill:#C6FF00;" d="M323.282,306.699H177.388c-3.841,0-6.955-3.114-6.955-6.955v-19.956
			c0-3.841,3.114-6.955,6.955-6.955h145.893c3.841,0,6.955,3.114,6.955,6.955v19.956
			C330.236,303.586,327.123,306.699,323.282,306.699z"/>
		<g>
			<rect x="352.63" y="133.889" style="fill:#263238;" width="50.488" height="2.023"/>
			<rect x="352.63" y="141.207" style="fill:#263238;" width="50.488" height="2.023"/>
			<rect x="352.63" y="148.526" style="fill:#263238;" width="50.488" height="2.023"/>
			<rect x="352.63" y="155.844" style="fill:#263238;" width="50.488" height="2.023"/>
			<rect x="352.63" y="163.163" style="fill:#263238;" width="50.488" height="2.023"/>
			<rect x="352.63" y="206.102" style="fill:#263238;" width="50.488" height="2.023"/>
			<rect x="352.63" y="213.421" style="fill:#263238;" width="50.488" height="2.023"/>
			<rect x="352.63" y="220.739" style="fill:#263238;" width="50.488" height="2.023"/>
			<rect x="352.63" y="228.058" style="fill:#263238;" width="50.488" height="2.023"/>
			<rect x="352.63" y="235.376" style="fill:#263238;" width="50.488" height="2.023"/>
			<rect x="352.63" y="276.454" style="fill:#263238;" width="50.488" height="2.023"/>
			<rect x="352.63" y="283.773" style="fill:#263238;" width="50.488" height="2.023"/>
			<rect x="352.63" y="291.091" style="fill:#263238;" width="50.488" height="2.023"/>
			<rect x="352.63" y="298.41" style="fill:#263238;" width="50.488" height="2.023"/>
			<rect x="352.63" y="305.728" style="fill:#263238;" width="50.488" height="2.023"/>
			<rect x="352.63" y="133.889" style="opacity:0.3;fill:#FFFFFF;" width="50.488" height="2.023"/>
			<rect x="352.63" y="141.207" style="opacity:0.3;fill:#FFFFFF;" width="50.488" height="2.023"/>
			<rect x="352.63" y="148.526" style="opacity:0.3;fill:#FFFFFF;" width="50.488" height="2.023"/>
			<rect x="352.63" y="155.844" style="opacity:0.3;fill:#FFFFFF;" width="50.488" height="2.023"/>
			<rect x="352.63" y="163.163" style="opacity:0.3;fill:#FFFFFF;" width="50.488" height="2.023"/>
			<rect x="352.63" y="206.102" style="opacity:0.3;fill:#FFFFFF;" width="50.488" height="2.023"/>
			<rect x="352.63" y="213.421" style="opacity:0.3;fill:#FFFFFF;" width="50.488" height="2.023"/>
			<rect x="352.63" y="220.739" style="opacity:0.3;fill:#FFFFFF;" width="50.488" height="2.023"/>
			<rect x="352.63" y="228.058" style="opacity:0.3;fill:#FFFFFF;" width="50.488" height="2.023"/>
			<rect x="352.63" y="235.376" style="opacity:0.3;fill:#FFFFFF;" width="50.488" height="2.023"/>
			<rect x="352.63" y="276.454" style="opacity:0.3;fill:#FFFFFF;" width="50.488" height="2.023"/>
			<rect x="352.63" y="283.773" style="opacity:0.3;fill:#FFFFFF;" width="50.488" height="2.023"/>
			<rect x="352.63" y="291.091" style="opacity:0.3;fill:#FFFFFF;" width="50.488" height="2.023"/>
			<rect x="352.63" y="298.41" style="opacity:0.3;fill:#FFFFFF;" width="50.488" height="2.023"/>
			<rect x="352.63" y="305.728" style="opacity:0.3;fill:#FFFFFF;" width="50.488" height="2.023"/>
		</g>
		<g>
			<rect x="174.753" y="281.232" style="fill:#FFFFFF;" width="151.729" height="2.023"/>
			<rect x="174.753" y="288.825" style="fill:#FFFFFF;" width="151.729" height="2.023"/>
			<rect x="174.753" y="296.417" style="fill:#FFFFFF;" width="151.729" height="2.023"/>
		</g>
		<g>
			<path style="fill:#263238;" d="M185.886,227.102l-11.889,11.101c-6.133-6.574-5.774-16.875,0.8-23.008
				c0,0,0.001-0.001,0.001-0.001c2.979-2.863,6.969-4.434,11.101-4.37L185.886,227.102z"/>
			<path style="fill:#C6FF00;" d="M185.886,227.102l14.631-7.138c3.921,8.09,0.541,17.828-7.549,21.749
				c-6.411,3.107-14.097,1.685-18.971-3.511L185.886,227.102z"/>
			<path style="fill:#263238;" d="M185.886,227.102v-16.279c6.262-0.135,12.008,3.454,14.631,9.141L185.886,227.102z"/>
			<path style="opacity:0.3;fill:#FFFFFF;" d="M185.886,227.102l-11.889,11.101c-6.133-6.574-5.774-16.875,0.8-23.008
				c0,0,0.001-0.001,0.001-0.001c2.979-2.863,6.969-4.434,11.101-4.37L185.886,227.102z"/>
		</g>
	</g>
</g>
<g id="Character">
	<g>
		<path style="fill:#FFFFFF;stroke:#263238;stroke-linecap:round;stroke-miterlimit:10;" d="M337.129,436.851
			c0,0,2.033,5.626,0.903,4.969c-1.13-0.657-2.224-1.898-2.764-3.329c-0.541-1.431-1.603-2.445-2.506-3.132
			c-0.903-0.688-2.58-1.965-2.58-1.965s2.408-1.02,3.894-0.295C335.563,433.823,337.129,436.851,337.129,436.851z"/>
		<path style="fill:#FFFFFF;stroke:#263238;stroke-linecap:round;stroke-miterlimit:10;" d="M338.443,434.591
			c0,0,3.452,6.707,2.832,7.254c-0.62,0.547-0.976,0.479-2.297-0.731c-1.321-1.21-2.881-5.049-2.881-5.049l-2.832-2.973
			C333.265,433.092,337.362,431.729,338.443,434.591z"/>
		<path style="fill:#FFFFFF;stroke:#263238;stroke-linecap:round;stroke-linejoin:round;stroke-miterlimit:10;" d="M323.72,425.82
			c0,0,7.224,1.222,8.876,1.461c1.652,0.24,3.778,2.266,5.455,3.544c1.677,1.277,6.996,5.534,6.468,6.762
			c-0.528,1.228-2.531,0.111-4.337-1.265c-1.806-1.376-3.157-2.813-5.755-2.346s-4.945,1.941-4.945,1.941s2.058,2.383,3.735,3.661
			c1.677,1.278,3.766,3.888,2.918,4.465c-0.848,0.577-2.082,0.86-3.95-0.97c-1.867-1.83-8.066-4.201-9.745-6.394
			c-3.894-5.087-8.64-5.28-8.64-5.28l8.28-6.6L323.72,425.82z"/>
	</g>
	<g>
		<g>
			<g>
				<defs>
					<path id="XMLID_1_" d="M322.44,424.56l-34.095-14.869l-0.114-0.052l-0.445-0.197c0,0-0.124-5.863-0.373-12.928v-0.176
						c-0.186-5.573-0.445-11.872-0.756-16.575c-0.01-0.197-0.031-0.383-0.041-0.58c-0.083-1.15-0.166-2.196-0.269-3.098
						c-0.031-0.404-0.073-0.808-0.114-1.202c-0.383-3.346-0.984-8.702-1.844-14.544c-0.052-0.352-0.104-0.694-0.166-1.046
						c-1.098-7.386-2.6-15.404-4.558-21.112c0-0.042-0.021-0.093-0.031-0.135c-0.383-1.129-0.787-2.155-1.212-3.066
						c-0.083-0.207-0.186-0.404-0.28-0.601c0,0-1.036-0.228-2.652-0.58c-0.891-0.197-1.968-0.425-3.149-0.673
						c-0.031,0-0.062-0.01-0.093-0.01c-4.403-0.943-10.245-2.124-13.653-2.611l-0.238-0.031c-0.425-0.062-0.808-0.104-1.139-0.135
						l-0.228-0.021c0,0,0-0.01-0.01-0.021c-0.021-0.093-0.135-0.425-0.331-0.912c0-0.01,0-0.021-0.01-0.021
						c-0.704-1.751-2.579-5.428-6.164-6.899c-0.01-0.01-0.031-0.021-0.042-0.021c-1.119-0.456-2.383-0.704-3.843-0.611
						c-0.021,0-0.031,0-0.052,0.01h-0.01c-0.031-0.01-0.073,0-0.104,0c-0.404,0.031-0.798,0.062-1.181,0.093
						c-0.808,0.062-1.595,0.124-2.341,0.186c-4.206,0.321-7.396,0.539-8.93,0.632c-0.021,0.01-0.031,0.01-0.042,0
						c-0.207,0.021-0.373,0.031-0.508,0.041c-0.166,0.01-0.29,0.021-0.363,0.021c-0.052,0.01-0.083,0.01-0.083,0.01
						s-0.155,0.042-0.414,0.166c-1.108,0.549-4.102,2.745-5.48,10.68c-0.093,0.487-0.135,0.787-0.135,0.787l-1.057,0.29
						l-3.937,1.088l-0.031,0.01l-25.256,6.982c0,0-1.544,6.04-3.792,14.907l-0.062,0.249c-1.243,4.91-2.693,10.659-4.227,16.72
						c-0.093,0.414-0.197,0.829-0.3,1.243c-5.063,20.107-10.791,43.169-12.207,49.997c-0.174,0.841,0.148,1.699,0.838,2.21
						c3.307,2.451,14.592,9.318,40.212,12.186c0,0-1.065,8.164-0.59,8.575h63.636l-0.832-10.151v-0.01l-0.425-2.735
						c-0.01-0.021-0.01-0.031-0.01-0.031l-0.497-3.222l-0.777-4.983l-0.684-4.351l0.435,0.083l0.362,0.062l36.372,7.863
						L322.44,424.56z M232.125,413.265c-0.58,2.165-2.217,5.49-3.398,7.738v0.01c-0.756,1.43-1.326,2.424-1.326,2.424l-28.022-7.49
						c-0.042-0.01-0.093-0.031-0.135-0.042l12.648-38.982v-0.01l0.052-0.135l20.18,36.444l0.01,0.01
						C232.136,413.244,232.125,413.255,232.125,413.265z"/>
				</defs>
				<use xlink:href="#XMLID_1_"  style="overflow:visible;fill:#C6FF00;"/>
				<clipPath id="XMLID_00000181072822160451587070000016241495216743315608_">
					<use xlink:href="#XMLID_1_"  style="overflow:visible;"/>
				</clipPath>
				<polygon style="opacity:0.3;clip-path:url(#XMLID_00000181072822160451587070000016241495216743315608_);" points="
					281.041,388.029 281.041,414.721 317.808,429.449 314.119,431.445 276.949,423.44 275.88,412.44 276.924,394.657 				"/>
			</g>
			<path style="fill:none;stroke:#263238;stroke-linecap:round;stroke-linejoin:round;stroke-miterlimit:10;" d="M280.513,353.565
				l0.164,13.318c0,0,2.765,10.691,2.224,14.384c-0.541,3.693-4.031,11.172-5.977,13.39l-1.044,17.783l1.563,16.666"/>
			<path style="fill:#263238;" d="M255.431,264.203c2.613,1.674,4.852,4.091,6.04,6.958c1.148,2.772,1.457,5.809,1.697,8.8
				c0.349,4.344,0.579,8.706,0.385,13.06c-0.358,8.012-2.144,16.133-0.404,23.963c1.154,5.192,4.602,8.429,4.602,14.576
				l-10.765-1.237c0,0-3.308-6.972-10.566-8.474l-0.488-1.248c0,0,5.67,0.458,10.017-10.276c4.347-10.734,3.164-22.637,3.164-22.637
				l0.02-12.047L255.431,264.203z"/>
			<path style="fill:#FFFFFF;" d="M233.059,315.39l0.727,14.927c0,0,12.237,21.452,16.328,22.069
				c4.091,0.617-0.044-21.98-1.717-25.132c-1.673-3.152-3.035-10.626-3.035-10.626L233.059,315.39z"/>
			<path style="fill:#FFFFFF;" d="M231.518,268.526c-1.053-0.649-10.812-1.077-12.15,2.339c-1.934,4.965,1.229,18.977,0.737,18.935
				c-2.329-0.066-5.997-0.923-5.468,3.235c0.529,4.158,3.712,8.173,5.997,8.525l2.269,0.349c1.499,5.829,5.252,10.823,10.434,13.885
				c9.051,5.779,15.663,6.504,18.783,1.43c3.415-4.944,5.682-10.588,6.636-16.52c2.977-29.35-4.505-35.932-4.505-35.932
				S232.571,269.175,231.518,268.526z"/>
			<g>
				<path style="fill:#C6FF00;" d="M245.12,266.57c0,0-4.749,20.201-19.714,24.679c0,0,0.185,23.115,17.274,28.177
					c0,0,2.336,16.025-7.607,13.095l-2.014-4.111v-13.02c0,0-8.949-6.778-9.366-13.608c0,0-4.612,0.033-6.499-3.057
					c-1.887-3.09-3.115-6.89-2.151-9.043c0.964-2.153,7.459-2.165,7.459-2.165L245.12,266.57z"/>
				<path style="opacity:0.5;fill:#FFFFFF;" d="M245.12,266.57c0,0-4.749,20.201-19.714,24.679c0,0,0.185,23.115,17.274,28.177
					c0,0,2.336,16.025-7.607,13.095l-2.014-4.111v-13.02c0,0-8.949-6.778-9.366-13.608c0,0-4.612,0.033-6.499-3.057
					c-1.887-3.09-3.115-6.89-2.151-9.043c0.964-2.153,7.459-2.165,7.459-2.165L245.12,266.57z"/>
			</g>
			<path style="fill:#263238;" d="M221.243,290.427c0,0,22.493-10.63,23.878-23.857c0,0,6.328,14.078,16.3,19.425
				c0,0,7.418-24.824-15.534-23.371c0,0-16.581-9.683-27.465,0.103c-10.885,9.786-8.141,36.671-16.121,52.41
				c-7.981,15.739-35.497,26.726-12.065,52.643l6.365-24.179l30.344-9.134c0,0,1.103-8.404,7.07-10.497l-0.291-7.896
				c0,0-8.067-5.303-10.82-14.164c0,0-4.924-0.137-7.595-6.273C212.636,289.499,217.01,287.876,221.243,290.427z"/>
			<g style="opacity:0.2;">
				<path style="fill:none;stroke:#263238;stroke-linecap:round;stroke-linejoin:round;" d="M239.708,264.098
					c-4.109,9.775-11.429,18.169-20.555,23.568"/>
				<path style="fill:none;stroke:#263238;stroke-linecap:round;stroke-linejoin:round;" d="M231.476,261.46
					c-4.296,8.883-9.379,17.384-15.172,25.372"/>
				<path style="fill:none;stroke:#263238;stroke-linecap:round;stroke-linejoin:round;" d="M213.282,299.621
					c-0.539,6.66-3.714,12.816-7.314,18.445c-3.6,5.629-7.708,10.983-10.48,17.063c-2.771,6.08-4.108,13.167-1.86,19.46"/>
				<path style="fill:none;stroke:#263238;stroke-linecap:round;stroke-linejoin:round;" d="M217.442,301.494
					c1.033,12.223-0.395,24.649-4.174,36.319"/>
			</g>
			<path style="fill:#92E3A9;" d="M196.599,343.601c0.114-0.027,0.228-0.07,0.375-0.112l-0.359,0.128l-5.885,25.524l-5.702,22.929
				l5.924-24.622L196.599,343.601z"/>
			<path style="opacity:0.5;fill:#FFFFFF;enable-background:new    ;" d="M196.599,343.601c0.114-0.027,0.228-0.07,0.375-0.112
				l-0.359,0.128l-5.885,25.524l-5.702,22.929l5.924-24.622L196.599,343.601z"/>
			<path style="fill:#263238;" d="M251.205,351.735c0,0.01-0.01,0.01-0.01,0.021c-0.217,0.259-0.549,0.394-0.88,0.373l-0.062-0.031
				c-2.807-0.135-10.888-11.25-11.809-12.514c-4.838-6.651-5.004-7.283-5.501-12.317l-0.093-0.995
				c-0.311-2.952-0.477-5.832-0.57-7.956c-0.021-0.642-0.041-1.202-0.052-1.689c0.477,0.238,0.953,0.456,1.409,0.663
				c0.01,0.331,0.021,0.694,0.042,1.077c0.01,0.186,0.01,0.383,0.021,0.59c0.093,2.02,0.249,4.589,0.518,7.21l0.104,1.005
				c0.466,4.838,0.508,5.034,5.252,11.633c5.377,7.469,9.562,11.675,10.711,11.923c0.249-0.176,0.59-0.166,0.829,0.041
				C251.402,351.01,251.453,351.445,251.205,351.735z"/>
			<path style="fill:#263238;" d="M251.632,349.329c-0.031,0.342-0.321,0.621-0.673,0.621c-0.383-0.041-0.663-0.383-0.622-0.767
				c0-0.093,1.005-10.028-0.663-16.564c-0.725-2.838-1.854-5.552-3.367-8.07c-0.601-0.798-0.974-1.74-1.088-2.735
				c-0.01-0.155-0.01-0.321-0.021-0.487c0-0.104-0.01-0.197-0.01-0.3c-0.021-0.394-0.041-0.777-0.062-1.16
				c0.477,0.031,0.943,0.041,1.378,0c0.021,0.259,0.031,0.528,0.052,0.787c0.01,0.228,0.01,0.466,0.021,0.694
				c0,0.197,0.01,0.394,0.01,0.591c0.166,0.684,0.445,1.336,0.829,1.916c1.595,2.61,2.776,5.449,3.512,8.422
				C252.658,339.053,251.684,348.915,251.632,349.329z"/>
			<path style="fill:#263238;" d="M240.963,346.369c-0.198-0.328-0.625-0.434-0.953-0.236c-1.295,1.073-2.397,2.36-3.258,3.805
				c-1.428,2.274-2.57,4.716-3.4,7.27l-7.289-16.401c0.145-1.07,1.211-5.778,2.148-9.785c0.802-2.827,2.447-5.342,4.715-7.21
				c0.001-0.001,0.002-0.002,0.003-0.003c0.281-0.258,0.299-0.695,0.041-0.975c-0.238-0.298-0.669-0.353-0.975-0.125
				c-2.51,2.059-4.321,4.846-5.183,7.976c-1.074,4.531-2.192,10.04-2.192,10.04l-0.01,0.224l8.816,19.802
				c0.097,0.006,0.194,0.003,0.291,0.002l0.39-1.423c0.899-3.008,2.169-5.892,3.781-8.586c0.781-1.269,1.736-2.421,2.839-3.422
				C241.056,347.125,241.161,346.698,240.963,346.369z"/>
			<path style="fill:#263238;" d="M264.428,355.196c0.077-0.022,0.15-0.056,0.226-0.08l-0.417-2.498
				c-0.101-0.615-2.429-15.152-7.724-23.459c-5.295-8.308-9.393-7.947-9.569-7.956c-0.298,0.078-0.511,0.341-0.526,0.649
				c-0.019,0.39,0.282,0.721,0.672,0.74c0.032,0.001,3.494-0.146,8.265,7.318c3.615,5.676,5.936,15.054,6.936,19.92
				c-1.389-1.993-3.075-3.76-5-5.241c-1.258-0.845-2.81-1.131-4.287-0.789c-0.004,0.001-0.009,0.003-0.013,0.005
				c-0.351,0.124-0.536,0.509-0.412,0.86c0.119,0.359,0.504,0.555,0.864,0.441c1.11-0.19,2.251,0.057,3.182,0.691
				c1.723,0.978,5.174,5.667,6.352,7.327L264.428,355.196z"/>
			<path style="fill:#263238;" d="M245.426,400.904c-0.127-0.003-0.242-0.076-0.297-0.19c-0.09-0.163-0.032-0.368,0.131-0.458
				c0.001,0,0.002-0.001,0.003-0.001l21.248-11.761c0.182-0.071,0.387,0.02,0.457,0.202c0.057,0.147,0.01,0.313-0.115,0.409
				l-21.248,11.745C245.553,400.884,245.49,400.904,245.426,400.904z"/>
			<path style="fill:#263238;" d="M256.482,397.373c-0.125-0.009-0.236-0.081-0.297-0.19c-0.087-0.165-0.023-0.369,0.142-0.455
				c0.003-0.001,0.005-0.003,0.008-0.004l11.522-6.017c0.169-0.092,0.38-0.033,0.476,0.134c0.089,0.173,0.022,0.385-0.15,0.475
				l-11.522,6.017C256.605,397.361,256.544,397.375,256.482,397.373z"/>
			<path style="fill:#263238;" d="M208.301,362.111c-0.139-0.007-0.26-0.094-0.311-0.223c-2.659-5.64-5.68-11.102-9.043-16.352
				c-0.101-0.156-0.056-0.365,0.1-0.466c0.006-0.004,0.012-0.007,0.018-0.011c0.165-0.096,0.376-0.043,0.477,0.118
				c3.378,5.294,6.413,10.8,9.085,16.483c0.073,0.177-0.007,0.379-0.182,0.458L208.301,362.111z"/>
			<path style="fill:#263238;" d="M256.352,371.254c-0.164-0.004-0.301-0.126-0.324-0.288c-1.464-6.218-3.501-12.288-6.086-18.13
				c-0.076-0.172,0.001-0.374,0.173-0.45c0.172-0.077,0.374,0.001,0.45,0.173c2.623,5.9,4.679,12.036,6.141,18.325
				c0.031,0.183-0.092,0.358-0.275,0.389L256.352,371.254z"/>
			<path style="fill:#263238;" d="M279.07,333.812c0.039,0.564,0.087,1.258,0.147,2.064c-0.198-0.234-0.335-0.417-0.441-0.55
				c-1.53-2.046-12.708-3.245-20.294-3.574c-0.529-0.024-1.059-0.048-1.54-0.054c-0.016-0.001-0.048-0.002-0.063-0.019
				c-0.352-0.032-0.612-0.333-0.595-0.702c0.004-0.096,0.024-0.176,0.06-0.254l0.001-0.016c0.123-0.235,0.356-0.402,0.644-0.388
				l1.235,0.056c3.817,0.174,14.428,0.768,19.385,2.713C278.177,333.306,278.68,333.553,279.07,333.812z"/>
			<path style="fill:#263238;" d="M283.012,376.695c0.09,0.486,0.149,0.955,0.224,1.44c-0.172-0.104-0.297-0.174-0.344-0.208
				c-0.328-0.208-0.421-0.63-0.214-0.958c0.017-0.031,0.052-0.078,0.085-0.093C282.815,376.783,282.914,376.723,283.012,376.695z"/>
			<path style="fill:#263238;" d="M260.002,285.661c-0.01-0.176-0.01-0.342-0.01-0.518c-0.042-1.305-0.104-2.621-0.176-3.926
				l-0.021-0.249l-0.549,0.974v0.01l-0.124,0.228l-0.487,0.881c0.021,0.393,0.031,0.787,0.031,1.181
				c0.021,0.218,0.021,0.425,0.021,0.642c0.083,3.833-0.114,7.863-0.425,11.747c-0.124,1.595-0.28,3.16-0.435,4.672
				c-0.943,5.832-2.828,10.67-6.195,15.528c-0.021,0.01-0.031,0.041-0.041,0.062c-0.238,0.435-0.559,0.829-0.891,1.15
				c-0.559,0.57-1.222,1.036-1.948,1.336c-0.155,0.062-0.29,0.124-0.445,0.166c-0.187,0.073-0.363,0.124-0.559,0.166
				c-0.269,0.062-0.528,0.104-0.818,0.124c-0.135,0.021-0.28,0.031-0.425,0.031c-0.155,0.01-0.3,0.021-0.456,0.021
				c-0.3,0.01-0.611,0-0.922-0.021c-0.767-0.062-1.585-0.207-2.445-0.435v-0.01c-2.01-0.528-4.278-1.523-6.816-2.983h-0.01
				l-0.021-0.021c-0.01,0-0.01,0-0.031-0.01c-0.01,0,0-0.021-0.021-0.021h-0.01c-0.435-0.259-0.881-0.518-1.336-0.808
				c-0.031-0.021-0.052-0.031-0.083-0.062h-0.01c-0.176-0.093-0.342-0.207-0.518-0.321c-5.003-2.994-8.64-7.79-10.131-13.415
				l-0.093-0.497l-2.776-0.435c-1.979-0.311-4.921-4.081-5.408-7.914c-0.197-0.694-0.083-1.44,0.311-2.041
				c0.57-0.694,2.051-0.601,3.336-0.518c0.321,0.031,0.653,0.062,0.995,0.062c0.394,0.021,0.798,0.021,1.181-0.01l-0.818-1.223
				c-0.093,0.01-0.186,0.01-0.28,0h-0.041l-0.912-0.145c-1.45-0.093-3.066-0.187-4.144,0.621c-0.083,0.052-0.166,0.114-0.228,0.197
				c-0.062,0.031-0.114,0.072-0.145,0.114c-0.518,0.653-0.808,1.461-0.818,2.269c0,0.01,0,0.01,0,0.031c0,0.01,0,0.01-0.01,0.031
				l-0.01,0.073c-0.01,0.021-0.01,0.021-0.01,0.041c0.021,0.238,0.052,0.445,0.124,0.694c0.29,2.403,1.502,4.91,3.004,6.702
				c1.098,1.316,2.383,2.248,3.564,2.424l1.823,0.28c1.658,5.801,5.459,10.753,10.639,13.861c0.021,0.021,0.052,0.042,0.083,0.062
				c0.021,0.01,0.031,0.021,0.052,0.031c0.217,0.145,0.425,0.29,0.642,0.425c0.186,0.114,0.373,0.228,0.559,0.342
				c0.145,0.104,0.29,0.186,0.435,0.269c0.217,0.145,0.466,0.28,0.704,0.404l-0.01,0.021c0.072,0.031,0.145,0.073,0.207,0.104
				c0.145,0.072,0.29,0.155,0.425,0.217v0.01c2.134,1.14,4.403,2.03,6.765,2.631c0.383,0.093,0.767,0.186,1.16,0.269
				c0.394,0.073,0.798,0.124,1.202,0.145c0.124,0.01,0.238,0.021,0.362,0.021c0.218,0.01,0.446,0.021,0.673,0.01
				c0.052,0.01,0.104,0,0.166,0c0.052,0,0.114-0.01,0.176-0.01h0.114c0.052,0,0.114,0,0.166-0.01c0.104,0,0.197-0.01,0.301-0.021
				c0.166-0.01,0.331-0.031,0.497-0.052h0.01c0.093-0.021,0.187-0.031,0.28-0.041c0.093-0.031,0.176-0.052,0.269-0.104h0.041
				c0.093-0.01,0.176-0.041,0.28-0.073c1.73-0.549,3.232-1.74,4.154-3.336c3.242-5.325,5.635-9.613,6.744-16.834
				c0.166-1.709,0.3-3.408,0.394-5.117C260.023,292.394,260.085,289.027,260.002,285.661z"/>
			<path style="fill:#263238;" d="M244.027,289.209c0.022,1.124-0.426,2.03-0.996,2.039c-0.57,0.01-1.014-0.903-1.023-2.009
				c-0.008-1.106,0.442-2.027,0.996-2.039C243.558,287.188,243.987,288.098,244.027,289.209z"/>
			<path style="fill:#263238;" d="M255.661,289.927c0.006,1.122-0.442,2.027-0.996,2.039c-0.554,0.012-1.014-0.903-1.02-2.025
				c-0.006-1.122,0.424-2.014,0.994-2.023C255.209,287.908,255.65,288.837,255.661,289.927z"/>
			<path style="fill:#263238;" d="M236.008,283.25c-0.122-0.021-0.237-0.072-0.334-0.149c-0.287-0.247-0.328-0.676-0.094-0.973
				c1.972-2.158,4.918-3.147,7.793-2.617c0.377,0.058,0.635,0.41,0.577,0.787c-0.058,0.377-0.41,0.635-0.787,0.577
				c-2.378-0.427-4.81,0.394-6.442,2.176C236.534,283.238,236.264,283.313,236.008,283.25z"/>
			<path style="fill:#263238;" d="M257.837,285.783c-0.192-0.032-0.363-0.141-0.473-0.3c-1.075-1.829-3.172-2.799-5.261-2.434
				c-0.377,0.087-0.754-0.144-0.846-0.52c-0.094-0.36,0.123-0.728,0.483-0.822c0.011-0.003,0.023-0.006,0.034-0.008
				c2.653-0.531,5.354,0.658,6.754,2.973c0.226,0.307,0.161,0.739-0.146,0.965c-0.001,0.001-0.002,0.002-0.004,0.003
				C258.224,285.756,258.03,285.808,257.837,285.783z"/>
			<path style="fill:#263238;" d="M247.621,301.054c-0.376-0.105-0.595-0.495-0.49-0.871c0.083-0.298,0.351-0.507,0.66-0.516
				c0,0,1.816,0.222,2.367-0.972c0.281-0.58,0.117-0.956-0.235-1.646c-0.446-0.846-0.691-1.784-0.716-2.74
				c0.062-1.881,0.291-3.753,0.685-5.593c0.08-0.373,0.446-0.611,0.819-0.531c0.002,0,0.004,0.001,0.006,0.001
				c0.373,0.08,0.611,0.446,0.531,0.819c0,0.002-0.001,0.004-0.001,0.006c-0.365,1.742-0.582,3.512-0.648,5.29
				c0.021,0.754,0.218,1.493,0.577,2.157c0.555,0.871,0.64,1.961,0.226,2.906C250.429,301.366,247.748,301.07,247.621,301.054z"/>
			<path style="fill:#263238;" d="M240.983,305.586c-1.61-0.196-3.095-0.967-4.181-2.17c-0.246-0.294-0.208-0.731,0.085-0.978
				c0.294-0.246,0.731-0.208,0.978,0.085l0,0c1.32,1.266,3.118,1.909,4.942,1.768c0.379-0.024,0.709,0.257,0.747,0.635
				c0.034,0.377-0.242,0.712-0.619,0.749C242.282,305.717,241.628,305.687,240.983,305.586z"/>
			<path style="fill:none;stroke:#263238;stroke-linecap:round;stroke-linejoin:round;stroke-miterlimit:10;" d="M278.547,334.461
				c0,0,10.28,29.931,8.732,74.776l35.161,15.323l-8.321,6.885l-37.17-8.005"/>
			<path style="fill:#263238;" d="M247.026,349.957l-0.608,9.485l5.531,4.566l3.632-0.644l1.131-6.381l-5.347-8.493
				C251.364,348.489,253.324,352.592,247.026,349.957z"/>
			<polygon style="fill:#263238;" points="251.948,364.008 254.955,413.826 263.082,421.048 267.245,409.91 254.952,360.25 			"/>
			<path style="fill:#263238;" d="M238.31,347.791l10.087,5.774v-3.097l-6.167-5.918
				C242.231,344.549,239.751,345.535,238.31,347.791z"/>
			<path style="fill:#263238;" d="M249.912,352.34l1.128-7.986c0,0,4.26-1.391,5.67,0.658l-5.147,9.876L249.912,352.34z"/>
			<g>
				<path style="fill:none;stroke:#263238;stroke-linecap:round;stroke-linejoin:round;" d="M243.346,283.038
					c3.414,0.368,5.883,3.434,5.515,6.847c-0.368,3.414-3.433,5.883-6.847,5.515c-3.414-0.368-5.883-3.434-5.515-6.847
					C236.867,285.14,239.932,282.67,243.346,283.038z"/>
				<path style="fill:none;stroke:#263238;stroke-linecap:round;stroke-linejoin:round;" d="M257.332,284.545
					c3.062,0.33,5.246,3.365,4.878,6.779s-3.148,5.914-6.21,5.584c-3.062-0.33-5.246-3.365-4.878-6.779
					C251.49,286.715,254.27,284.215,257.332,284.545z"/>
				
					<line style="fill:none;stroke:#263238;stroke-linecap:round;stroke-linejoin:round;" x1="236.124" y1="288.529" x2="220.611" y2="287.518"/>
				
					<line style="fill:none;stroke:#263238;stroke-linecap:round;stroke-linejoin:round;" x1="249.053" y1="287.996" x2="251.614" y2="288.272"/>
			</g>
			<path style="fill:none;stroke:#263238;stroke-linecap:round;stroke-linejoin:round;stroke-miterlimit:10;" d="M198.893,416.129
				c-7.119-0.731-13.866,7.637-13.866,7.637"/>
			<path style="fill:none;stroke:#263238;stroke-linecap:round;stroke-linejoin:round;stroke-miterlimit:10;" d="M185.027,416.084"
				/>
			<path style="fill:none;stroke:#263238;stroke-linecap:round;stroke-linejoin:round;stroke-miterlimit:10;" d="M183.348,417.868
				c0,0,9.587-5.349,17.77-1.168"/>
			<path style="fill:none;stroke:#263238;stroke-linecap:round;stroke-linejoin:round;stroke-miterlimit:10;" d="M287.279,409.237
				c0,0-5.942,2.643-7.293,7.995"/>
			<path style="fill:none;stroke:#263238;stroke-linecap:round;stroke-linejoin:round;" d="M224.376,257.328
				c3.992-3.203,17.42-3.088,21.395,6.431"/>
			<path style="opacity:0.3;" d="M236.932,425.116l1.378-7.251l11.602-4.631H239.76l10.608-6.236l-11.24,2.238
				c0,0-21.827-35.118-31.513-49.703c0-0.01,0-0.01-0.01-0.021c-1.295-1.948-2.362-3.533-3.149-4.61l2.849,10.888l0.404,1.574
				l0.673,2.569l1.398,5.356l-6.868-8.142l2.631,9.551l-13.312,37.604l-5.304,2.051l-0.093,0.031l-1.803,0.694l7.189,0.663
				l-5.221,3.926l-0.031,0.031l10.007-1.771l67.572,15.696l0.693-2.49L236.932,425.116z M228.727,421.014
				c-0.756,1.43-1.326,2.424-1.326,2.424l-28.022-7.49c-0.042-0.01-0.093-0.031-0.135-0.042l13.071-38.791
				c0.311,0.611,18.611,33.938,19.809,36.108L228.727,421.014z"/>
			<path d="M227.401,423.446"/>
		</g>
		<g id="XMLID_2_">
			<g>
				
					<line style="fill:none;stroke:#263238;stroke-linecap:round;stroke-linejoin:round;stroke-miterlimit:10;" x1="179.88" y1="410.34" x2="195.514" y2="348.493"/>
				<path style="fill:none;stroke:#263238;stroke-linecap:round;stroke-linejoin:round;stroke-miterlimit:10;" d="M217.237,440.099
					c-0.145-0.01-0.29-0.031-0.435-0.052"/>
				<path style="fill:#FFFFFF;stroke:#263238;stroke-linecap:round;stroke-linejoin:round;stroke-miterlimit:10;" d="
					M290.597,431.717c-3.539-2.471-7.509-2.276-10.874-2.158c-2.425,0.085-8.082,2.33-13.736,3.745
					c-0.276,0.069-0.647,0.077-1.074,0.048c0.022,0.548-1.036,4.921-1.433,7.235c0.369,0.048,1.156-0.087,1.756-0.21
					c0.487-0.1,0.989-0.061,1.461,0.096c0.676,0.226,1.905,0.556,3.913,0.84c2.232,0.315,6.461-0.14,8.016,1.733
					c1.27,1.53,2.869,2.764,4.468,3.928c1.312,0.955,2.876,2.075,4.598,1.857c1.416-0.179-0.369-1.33-0.786-1.713
					c-1.321-1.214-2.202-2.763-3.285-4.171c-0.34-0.443-1.472-2.293-2.047-2.407c0,0,0.946,0.188,1.721,0.243
					c0.775,0.056,1.569,0.759,2.591,1.551c0.647,0.501,1.632,1.362,2.729,2.005c0.416,0.313,5.413,3.138,5.145,0.988
					c-0.085-0.661-1.218-1.469-1.647-1.906c-2.246-2.288-4.553-4.122-7.253-5.853l4.083,1.102c0.729,0.419,1.437,0.926,2.072,1.412
					c0.364,0.312,0.785,0.649,1.237,0.964c0.754,0.584,2.81,1.76,3.764,1.304c1.527-0.731-3.172-5.245-3.913-5.819
					c-0.804-0.624-4.921-3.065-5.122-3.22c0,0-0.344-0.178-0.874-0.44c-0.09-0.069-0.139-0.108-0.139-0.108s4.37,1.752,5.903,2.94
					s3.181,3.285,4.881,2.148C298.45,436.716,294.136,434.189,290.597,431.717z"/>
				<path style="fill:none;stroke:#263238;stroke-linecap:round;stroke-linejoin:round;stroke-miterlimit:10;" d="M212.316,377.115
					l-13.425,39.013l66.351,17.02l-2.227,7.946c0,0-21.35,1.875-45.042-0.901c-0.228-0.031-0.456-0.062-0.684-0.093"/>
			</g>
		</g>
	</g>
	<polyline style="fill:none;stroke:#263238;stroke-linecap:round;stroke-linejoin:round;stroke-miterlimit:10;" points="
		206.797,366.773 232.125,413.265 228.965,420.547 	"/>
</g>
<g id="Table">
	
		<line style="fill:none;stroke:#263238;stroke-linecap:round;stroke-linejoin:round;" x1="424.766" y1="448.953" x2="75.234" y2="448.953"/>
</g>
<g id="Computer">
	<g>
		
			<rect x="320.662" y="446.817" style="fill:#FFFFFF;stroke:#263238;stroke-linecap:round;stroke-linejoin:round;" width="45.964" height="2.144"/>
		
			<rect x="302.896" y="370.916" style="fill:#FFFFFF;stroke:#263238;stroke-linecap:round;stroke-linejoin:round;" width="99.075" height="63.895"/>
		
			<rect x="308.303" y="370.916" style="fill:#263238;stroke:#263238;stroke-linecap:round;stroke-linejoin:round;" width="93.668" height="63.895"/>
		<polygon style="fill:#FFFFFF;stroke:#263238;stroke-linecap:round;stroke-linejoin:round;" points="346.011,400.605 
			367.693,400.605 368.481,449.147 346.799,449.147 		"/>
		
			<rect x="348.01" y="399.728" style="fill:#263238;stroke:#263238;stroke-linecap:round;stroke-linejoin:round;" width="21.682" height="49.331"/>
		<polyline style="fill:none;stroke:#263238;stroke-linecap:round;stroke-linejoin:round;" points="370.2,434.966 370.2,401.195 
			346.57,401.195 		"/>
		
			<rect x="235.841" y="445.678" style="fill:#FFFFFF;stroke:#263238;stroke-linecap:round;stroke-linejoin:round;" width="66.371" height="3.47"/>
		
			<rect x="252.996" y="445.678" style="fill:#FFFFFF;stroke:#263238;stroke-linecap:round;stroke-linejoin:round;" width="83.05" height="3.47"/>
	</g>
</g>
<g id="Plant">
	<g>
		<g>
			<path style="fill:#C6FF00;" d="M105.322,401.727c0,0,3.291-6.335,0-13.918c-3.291-7.582-12.696-7.966-12.696-7.966
				s2.783,2.799,2.879,9.366C95.601,395.776,99.207,400.96,105.322,401.727z"/>
			<path style="fill:#C6FF00;" d="M100.661,405.838c0,0-3.449-8.736-10.375-10.621c-6.926-1.885-12.315,3.698-16.606,2.173
				C73.679,397.391,83.716,411.335,100.661,405.838z"/>
			<path style="fill:#C6FF00;" d="M126.843,396.817c0,0,2.904-13.211-12.389-15.215c0,0,1.425,1.014,2.375,5.442
				C117.778,391.471,118.24,396.273,126.843,396.817z"/>
			<path style="fill:#C6FF00;" d="M126.678,418.359c0,0,1.571-11.994,19.388-10.131c0,0-2.329,1.084-3.959,4.967
				C140.476,417.079,138.615,421.271,126.678,418.359z"/>
			<path style="fill:#C6FF00;" d="M134.921,391.805c0,0,3.776-12.35,17.012-9.875C151.933,381.93,150.514,395.654,134.921,391.805z"
				/>
			<path style="fill:none;stroke:#263238;stroke-linecap:round;stroke-linejoin:round;stroke-miterlimit:10;" d="M98.09,388.728"/>
			<g>
				<path style="opacity:0.3;fill:#FFFFFF;" d="M105.322,401.727c0,0,3.291-6.335,0-13.918c-3.291-7.582-12.696-7.966-12.696-7.966
					s2.783,2.799,2.879,9.366C95.601,395.776,99.207,400.96,105.322,401.727z"/>
				<path style="opacity:0.3;fill:#FFFFFF;" d="M100.661,405.838c0,0-3.449-8.736-10.375-10.621
					c-6.926-1.885-12.315,3.698-16.606,2.173C73.679,397.391,83.716,411.335,100.661,405.838z"/>
				<path style="opacity:0.3;fill:#FFFFFF;" d="M126.843,396.817c0,0,2.904-13.211-12.389-15.215c0,0,1.425,1.014,2.375,5.442
					C117.778,391.471,118.24,396.273,126.843,396.817z"/>
				<path style="opacity:0.3;fill:#FFFFFF;" d="M126.678,418.359c0,0,1.571-11.994,19.388-10.131c0,0-2.329,1.084-3.959,4.967
					C140.476,417.079,138.615,421.271,126.678,418.359z"/>
				<path style="opacity:0.3;fill:#FFFFFF;" d="M134.921,391.805c0,0,3.776-12.35,17.012-9.875
					C151.933,381.93,150.514,395.654,134.921,391.805z"/>
			</g>
		</g>
		<polygon style="fill:#263238;" points="105.849,428.065 132.378,428.065 128.825,448.362 109.473,448.362 		"/>
		<polyline style="fill:none;stroke:#263238;stroke-linecap:round;stroke-linejoin:round;stroke-miterlimit:10;" points="
			120.677,430.472 129.518,400.717 139.38,381.164 		"/>
		
			<line style="fill:none;stroke:#263238;stroke-linecap:round;stroke-linejoin:round;stroke-miterlimit:10;" x1="146.066" y1="386.343" x2="134.363" y2="391.112"/>
		
			<line style="fill:none;stroke:#263238;stroke-linecap:round;stroke-linejoin:round;stroke-miterlimit:10;" x1="124.083" y1="391.112" x2="129.218" y2="401.727"/>
		
			<line style="fill:none;stroke:#263238;stroke-linecap:round;stroke-linejoin:round;stroke-miterlimit:10;" x1="133.292" y1="415.306" x2="123.638" y2="420.508"/>
		
			<line style="fill:none;stroke:#263238;stroke-linecap:round;stroke-linejoin:round;stroke-miterlimit:10;" x1="101.994" y1="394.21" x2="120.677" y2="436.403"/>
		
			<line style="fill:none;stroke:#263238;stroke-linecap:round;stroke-linejoin:round;stroke-miterlimit:10;" x1="108.451" y1="408.793" x2="88.958" y2="400.429"/>
	</g>
</g>
</svg>
