<?xml version="1.0" encoding="utf-8"?>
<!-- Generator: Adobe Illustrator 27.5.0, SVG Export Plug-In . SVG Version: 6.00 Build 0)  -->
<svg version="1.1" xmlns="http://www.w3.org/2000/svg" xmlns:xlink="http://www.w3.org/1999/xlink" x="0px" y="0px"
	 viewBox="0 0 500 500" style="enable-background:new 0 0 500 500;" xml:space="preserve">
<g id="Background_Simple">
	<g>
		<path style="fill:#C6FF00;" d="M99.515,390.997c0,0-29.645,12.536-51.247-31.365c-21.602-43.901-17.421-85.014,32.751-110.797
			c50.172-25.783,72.471-100.344,138.67-121.946c66.199-21.602,116.371,7.665,138.67,39.023
			c22.299,31.357,18.815,51.566,58.534,78.742c39.72,27.177,49.475,55.05,46.688,88.498c-2.787,33.448-43.204,57.141-43.204,57.141
			L99.515,390.997z"/>
		<path style="opacity:0.7;fill:#FFFFFF;" d="M99.515,390.997c0,0-29.645,12.536-51.247-31.365
			c-21.602-43.901-17.421-85.014,32.751-110.797c50.172-25.783,72.471-100.344,138.67-121.946
			c66.199-21.602,116.371,7.665,138.67,39.023c22.299,31.357,18.815,51.566,58.534,78.742c39.72,27.177,49.475,55.05,46.688,88.498
			c-2.787,33.448-43.204,57.141-43.204,57.141L99.515,390.997z"/>
	</g>
</g>
<g id="Chart">
	<g>
		<path id="XMLID_131_" style="fill:#FFFFFF;stroke:#263238;stroke-linecap:round;stroke-linejoin:round;stroke-miterlimit:10;" d="
			M132.57,81.398c0,0,1.965-2.621,13.758-1.965c11.793,0.655,45.534,4.586,60.93,3.603c15.396-0.983,39.965-5.896,44.223-3.276
			c4.258,2.621-1.638,7.207-1.638,7.207L137.156,86.64L132.57,81.398z"/>
		<path id="XMLID_130_" style="fill:#263238;stroke:#263238;stroke-linecap:round;stroke-linejoin:round;stroke-miterlimit:10;" d="
			M137.156,86.64c0,0,0.655-5.569-4.586-5.241c-5.241,0.328-7.207,6.552-4.259,13.431c2.948,6.879,5.569,6.552,10.155,22.931
			c4.586,16.379,1.638,76.654,1.638,91.723c0,15.069,0.328,19,0.328,19l11.465-1.638c0,0-2.293-102.533-5.569-118.912
			C143.053,91.553,137.156,86.64,137.156,86.64z"/>
		<path id="XMLID_127_" style="fill:#FFFFFF;stroke:#263238;stroke-linecap:round;stroke-linejoin:round;stroke-miterlimit:10;" d="
			M166.667,224.333c0,1.31-4.894,145.349-4.894,145.349l5.561-1.015l5.202-142.15L166.667,224.333z"/>
		
			<polygon id="XMLID_126_" style="fill:#263238;stroke:#263238;stroke-linecap:round;stroke-linejoin:round;stroke-miterlimit:10;" points="
			161.773,369.682 166.639,225.534 162.38,224.879 157,367.333 		"/>
		<path id="XMLID_64_" style="fill:#263238;stroke:#263238;stroke-linecap:round;stroke-linejoin:round;stroke-miterlimit:10;" d="
			M239.983,214.658c0.094,1.307,13.684,144.009,13.684,144.009l-4.333-2.333l-15.047-139.076L239.983,214.658z"/>
		
			<polygon id="XMLID_18_" style="fill:#FFFFFF;stroke:#263238;stroke-width:0.7109;stroke-linecap:round;stroke-linejoin:round;stroke-miterlimit:10;" points="
			253.667,358.667 240.097,215.854 244.298,214.894 258.667,357.667 		"/>
		
			<path id="XMLID_3_" style="fill:#FFFFFF;stroke:#263238;stroke-width:0.7109;stroke-linecap:round;stroke-linejoin:round;stroke-miterlimit:10;" d="
			M191.539,218c0,0.932-3.479,103.333-3.479,103.333l3.953-0.722l3.698-101.059L191.539,218z"/>
		
			<polygon id="XMLID_2_" style="fill:#263238;stroke:#263238;stroke-width:0.7109;stroke-linecap:round;stroke-linejoin:round;stroke-miterlimit:10;" points="
			188.06,321.333 191.519,218.854 188.492,218.388 184.667,319.664 		"/>
		<path id="XMLID_123_" style="fill:#FFFFFF;stroke:#263238;stroke-linecap:round;stroke-linejoin:round;stroke-miterlimit:10;" d="
			M137.156,86.64c0.328,1.638,8.845,145.118,8.845,145.118l116.619-5.569L249.844,86.967L137.156,86.64z"/>
		<g>
			<polygon style="fill:#263238;" points="174.515,159.37 165.112,159.542 160.825,105.242 170.228,105.07 			"/>
			<polygon style="fill:#C6FF00;" points="188.257,159.118 178.855,159.29 175.838,121.079 185.241,120.907 			"/>
			<polygon style="fill:#263238;" points="202,158.867 192.597,159.039 190.586,133.565 199.989,133.393 			"/>
			<polygon style="fill:#C6FF00;" points="215.743,158.616 206.34,158.788 202.053,104.488 211.456,104.315 			"/>
			
				<line style="fill:none;stroke:#263238;stroke-width:0.75;stroke-linecap:round;stroke-linejoin:round;stroke-miterlimit:10;" x1="150.911" y1="108.108" x2="156.697" y2="108.003"/>
			
				<line style="fill:none;stroke:#263238;stroke-width:0.75;stroke-linecap:round;stroke-linejoin:round;stroke-miterlimit:10;" x1="151.493" y1="115.482" x2="157.279" y2="115.377"/>
			
				<line style="fill:none;stroke:#263238;stroke-width:0.75;stroke-linecap:round;stroke-linejoin:round;stroke-miterlimit:10;" x1="152.075" y1="122.857" x2="157.861" y2="122.751"/>
			
				<line style="fill:none;stroke:#263238;stroke-width:0.75;stroke-linecap:round;stroke-linejoin:round;stroke-miterlimit:10;" x1="152.657" y1="130.231" x2="158.443" y2="130.125"/>
			
				<line style="fill:none;stroke:#263238;stroke-width:0.75;stroke-linecap:round;stroke-linejoin:round;stroke-miterlimit:10;" x1="153.239" y1="137.605" x2="159.026" y2="137.499"/>
			
				<line style="fill:none;stroke:#263238;stroke-width:0.75;stroke-linecap:round;stroke-linejoin:round;stroke-miterlimit:10;" x1="153.821" y1="144.979" x2="159.608" y2="144.873"/>
			
				<line style="fill:none;stroke:#263238;stroke-width:0.75;stroke-linecap:round;stroke-linejoin:round;stroke-miterlimit:10;" x1="154.404" y1="152.353" x2="160.19" y2="152.247"/>
			
				<line style="fill:none;stroke:#263238;stroke-width:0.75;stroke-linecap:round;stroke-linejoin:round;stroke-miterlimit:10;" x1="154.986" y1="159.727" x2="160.772" y2="159.621"/>
		</g>
		<g>
			<path style="fill:#C6FF00;stroke:#FFFFFF;stroke-linecap:round;stroke-linejoin:round;stroke-miterlimit:10;" d="M207.59,192.387
				c0.009-0.262,0.02-0.523,0.02-0.786c0-5.617-2.081-10.744-5.508-14.665l-16.79,14.665L207.59,192.387z"/>
			<path style="fill:#263238;stroke:#FFFFFF;stroke-linecap:round;stroke-linejoin:round;stroke-miterlimit:10;" d="
				M187.059,169.377c-0.577-0.045-1.159-0.075-1.748-0.075c-12.315,0-22.299,9.984-22.299,22.299c0,8.768,5.063,16.35,12.423,19.993
				l9.876-19.993L187.059,169.377z"/>
			<path style="fill:#C6FF00;stroke:#FFFFFF;stroke-linecap:round;stroke-linejoin:round;stroke-miterlimit:10;" d="
				M185.311,191.601l-9.876,19.993c2.977,1.474,6.329,2.306,9.876,2.306c12.051,0,21.864-9.562,22.279-21.512L185.311,191.601z"/>
			<path style="fill:#C6FF00;stroke:#FFFFFF;stroke-linecap:round;stroke-linejoin:round;stroke-miterlimit:10;" d="
				M202.102,176.936c-3.728-4.265-9.052-7.094-15.042-7.559l-1.748,22.224L202.102,176.936z"/>
		</g>
	</g>
</g>
<g id="Plants">
	<g>
		<path style="fill:#C6FF00;" d="M327.242,183.865c-0.52-2.169,0.761-4.475,3.065-4.786c3.198-0.432,7.128,3.861,8.372,6.461
			c0.107,0.225,1.383,3.932,1.325,3.933c-0.004,0-5.669,0.128-7.985-0.884C330.046,187.726,327.773,186.08,327.242,183.865z
			 M409.416,174.008c-0.471,2.229-2.699,3.936-4.647,4.851c-1.997,0.937-6.563,1.076-7.696,1.096
			c-0.616,0.729-1.267,1.515-1.967,2.399c-1.219,1.566-2.58,3.344-3.93,5.377c-0.361,0.541-0.727,1.137-1.093,1.709
			c0.816-0.835,1.952-1.966,2.074-2.064c2.253-1.796,7.664-3.942,10.352-2.157c1.937,1.286,2.083,3.92,0.667,5.645
			c-1.445,1.761-4.209,2.249-6.36,2.163c-2.244-0.09-6.455-2.134-7.371-2.592c-0.79,1.279-1.572,2.61-2.306,4.046
			c-1.272,2.477-2.498,5.183-3.385,8.093c0.09,0.047,0.074,0.038,0.164,0.085c0.659-0.863,2.085-2.643,2.219-2.776
			c2.042-2.033,7.184-4.76,10.053-3.28c2.066,1.066,2.501,3.667,1.283,5.537c-1.243,1.909-3.936,2.698-6.084,2.849
			c-2.474,0.174-7.592-1.758-7.785-1.831c-0.795,2.725-1.405,5.584-1.86,8.523c-0.333,2.129-0.583,4.3-0.813,6.48
			c0.446-0.618,2.316-2.957,2.47-3.11c2.042-2.033,7.185-4.76,10.053-3.28c2.067,1.066,2.501,3.667,1.284,5.537
			c-1.243,1.909-3.937,2.698-6.084,2.849c-2.416,0.17-7.328-1.659-7.741-1.814c-0.104,0.99-0.212,1.978-0.308,2.971
			c-0.316,3.242-0.618,6.493-1.016,9.693c-0.137,1.108-0.314,2.196-0.485,3.286c0.698-0.906,2-2.529,2.127-2.656
			c2.043-2.033,7.185-4.76,10.053-3.281c2.066,1.066,2.501,3.668,1.283,5.537c-1.243,1.909-3.937,2.698-6.084,2.849
			c-2.157,0.152-6.321-1.297-7.487-1.722c-0.299,1.811-0.636,3.602-1.051,5.349c-0.195,0.749-0.347,1.527-0.575,2.235
			c-0.215,0.719-0.428,1.431-0.639,2.136c-0.487,1.443-0.935,2.785-1.424,4.116c-0.242,0.675-0.486,1.305-0.729,1.958
			c0.57-1.023,1.499-2.63,1.6-2.767c1.711-2.319,6.381-5.793,9.44-4.765c2.204,0.74,3.028,3.246,2.107,5.278
			c-0.94,2.075-3.482,3.263-5.582,3.738c-2.315,0.523-7.282-0.486-7.889-0.613c-0.604,1.594-1.207,3.14-1.798,4.576
			c-1.86,4.548-3.581,8.266-4.823,10.853c-0.07,0.146-0.134,0.276-0.201,0.415h9.049l-3.123,60.935
			c-0.237,4.631-4.061,8.264-8.699,8.264l0,0c-4.637,0-8.461-3.633-8.699-8.264l-3.123-60.935h9.712
			c-0.045-0.421-0.094-0.868-0.152-1.368c-0.325-2.816-0.847-6.84-1.692-11.632c-0.24-1.383-0.519-2.844-0.819-4.343
			c-0.626,0.083-5.644,0.716-7.91,0.024c-2.058-0.63-4.505-2.003-5.288-4.143c-0.766-2.095,0.242-4.532,2.495-5.107
			c3.128-0.797,7.525,3.016,9.059,5.456c0.098,0.156,1.051,2.133,1.516,3.152c-0.185-0.905-0.366-1.805-0.574-2.744
			c-0.289-1.353-0.639-2.774-0.969-4.153c-0.198-0.709-0.398-1.424-0.599-2.147c-0.188-0.734-0.457-1.41-0.685-2.128
			c-0.357-1.044-0.777-2.103-1.194-3.16c-1.36,0.378-5.371,1.415-7.434,1.115c-2.13-0.31-4.757-1.298-5.854-3.294
			c-1.075-1.955-0.448-4.517,1.692-5.426c2.97-1.261,7.895,1.841,9.78,4.021c0.061,0.071,0.412,0.572,0.822,1.172
			c-0.439-1.02-0.873-2.041-1.352-3.059c-1.358-2.891-2.831-5.794-4.295-8.708c-0.305-0.607-0.601-1.218-0.904-1.827
			c-1.143,0.323-5.478,1.486-7.639,1.172c-2.13-0.311-4.757-1.298-5.854-3.294c-1.075-1.955-0.448-4.517,1.692-5.426
			c2.97-1.261,7.895,1.841,9.781,4.02c0.067,0.078,0.485,0.678,0.946,1.354c-0.773-1.595-1.523-3.195-2.219-4.805
			c-1.219-2.815-2.268-5.654-3.066-8.484c-0.402,0.118-5.457,1.584-7.859,1.234c-2.13-0.311-4.757-1.298-5.854-3.294
			c-1.075-1.955-0.448-4.517,1.693-5.426c2.97-1.261,7.895,1.842,9.78,4.021c0.134,0.155,1.628,2.337,2.135,3.135
			c-0.009-0.034-0.023-0.067-0.032-0.101c-0.811-2.979-1.216-5.922-1.466-8.733c-0.253-2.803-0.252-5.465-0.189-7.913
			c0.057-2.45,0.261-4.688,0.457-6.666c0.115-1.07,0.239-2.048,0.365-2.958c-0.011,0.008-0.056,0.039-0.056,0.039
			c-0.049,0.033-1.132-3.735-1.173-3.981c-0.474-2.843,0.28-8.614,3.147-10.096c2.065-1.068,4.438,0.085,5.257,2.16
			c0.836,2.119-0.08,4.772-1.2,6.609c-1.148,1.883-4.881,4.518-5.815,5.16c-0.112,0.948-0.221,1.962-0.317,3.087
			c-0.153,1.978-0.307,4.212-0.311,6.653c-0.003,0.65,0.021,1.35,0.031,2.028c0.22-1.147,0.543-2.717,0.592-2.866
			c0.889-2.741,4.217-7.516,7.445-7.51c2.325,0.004,3.899,2.12,3.671,4.339c-0.234,2.266-2.27,4.198-4.111,5.313
			c-1.921,1.163-6.561,1.781-7.578,1.905c0.046,1.502,0.129,3.044,0.309,4.647c0.305,2.768,0.776,5.702,1.642,8.619
			c0.101-0.011,0.082-0.009,0.183-0.02c0.073-1.082,0.281-3.355,0.319-3.541c0.582-2.822,3.366-7.933,6.575-8.282
			c2.311-0.251,4.109,1.679,4.125,3.91c0.016,2.278-1.795,4.422-3.502,5.732c-1.968,1.51-7.302,2.722-7.503,2.767
			c0.84,2.712,1.909,5.432,3.15,8.135c0.897,1.96,1.886,3.908,2.896,5.853c0.031-0.762,0.301-3.744,0.344-3.956
			c0.583-2.822,3.367-7.933,6.575-8.282c2.311-0.251,4.109,1.679,4.125,3.91c0.016,2.278-1.795,4.422-3.503,5.732
			c-1.921,1.474-7.027,2.659-7.458,2.757c0.46,0.883,0.914,1.767,1.382,2.648c1.525,2.879,3.066,5.757,4.5,8.645
			c0.497,1,0.949,2.004,1.408,3.008c0.082-1.14,0.272-3.212,0.309-3.389c0.582-2.823,3.367-7.934,6.575-8.282
			c2.312-0.251,4.109,1.679,4.125,3.91c0.016,2.278-1.795,4.422-3.502,5.732c-1.715,1.316-5.987,2.405-7.194,2.695
			c0.75,1.676,1.457,3.355,2.074,5.041c0.25,0.733,0.553,1.465,0.753,2.182c0.217,0.718,0.433,1.43,0.646,2.134
			c0.389,1.472,0.756,2.839,1.083,4.218c0.17,0.696,0.315,1.357,0.472,2.035c-0.089-1.168-0.201-3.02-0.192-3.19
			c0.148-2.878,2.126-8.352,5.244-9.182c2.247-0.598,4.316,1.037,4.67,3.24c0.045,0.28,0.061,0.562,0.053,0.845
			c1.353,2.188,2.033,5.3,1.988,7.214c-0.004,0.184-0.3,2.359-0.475,3.465c0.345-0.857,0.691-1.707,1.035-2.605
			c0.506-1.288,0.998-2.666,1.483-3.999c0.226-0.7,0.454-1.407,0.685-2.122c0.248-0.716,0.396-1.428,0.603-2.153
			c0.278-1.067,0.512-2.182,0.748-3.294c-1.343-0.436-5.261-1.783-6.815-3.171c-1.605-1.434-3.252-3.707-3.066-5.977
			c0.182-2.224,2.118-4.015,4.405-3.592c3.174,0.587,5.569,5.891,5.94,8.749c0.012,0.093,0.027,0.705,0.039,1.431
			c0.197-1.092,0.398-2.183,0.56-3.297c0.462-3.16,0.834-6.394,1.222-9.633c0.08-0.675,0.171-1.348,0.254-2.023
			c-1.132-0.361-5.389-1.782-7.018-3.237c-1.605-1.434-3.252-3.707-3.066-5.977c0.182-2.223,2.118-4.014,4.405-3.592
			c3.173,0.587,5.569,5.891,5.939,8.749c0.013,0.102,0.03,0.833,0.042,1.651c0.235-1.756,0.492-3.505,0.8-5.231
			c0.536-3.02,1.227-5.967,2.123-8.767c-0.401-0.123-5.426-1.689-7.236-3.306c-1.605-1.434-3.252-3.707-3.066-5.977
			c0.182-2.223,2.119-4.014,4.405-3.592c3.174,0.587,5.569,5.892,5.939,8.749c0.026,0.203,0.068,2.848,0.052,3.793
			c0.011-0.033,0.018-0.069,0.029-0.102c0.967-2.932,2.253-5.611,3.595-8.092c1.336-2.478,2.804-4.697,4.208-6.704
			c1.399-2.012,2.804-3.766,4.059-5.308c0.686-0.829,1.329-1.576,1.937-2.265c-0.013,0-0.069,0.001-0.069,0.001
			c-0.059,0,1.117-3.74,1.218-3.967c1.173-2.633,4.985-7.03,8.194-6.685C408.534,169.555,409.877,171.826,409.416,174.008z
			 M372.407,251.44c-0.548-0.266-4.781-2.36-6.432-4.149c-1.896,1.06-4.036,1.925-4.413,2.075c0.375,1.662,0.725,3.285,1.024,4.808
			c0.958,4.82,1.573,8.87,1.964,11.712c0.083,0.606,0.154,1.146,0.217,1.639h0.215c0.216-0.416,0.448-0.867,0.707-1.377
			c1.282-2.528,3.067-6.172,5.006-10.635C371.257,254.229,371.831,252.857,372.407,251.44z M389.315,189.834
			c0.05,0.031,1.03-3.765,1.065-4.011c0.397-2.854-0.513-8.603-3.419-10.007c-2.093-1.011-4.434,0.205-5.197,2.301
			c-0.779,2.141,0.209,4.768,1.378,6.575C384.516,186.813,389.311,189.832,389.315,189.834z"/>
		<path style="opacity:0.3;fill:#FFFFFF;" d="M327.242,183.865c-0.52-2.169,0.761-4.475,3.065-4.786
			c3.198-0.432,7.128,3.861,8.372,6.461c0.107,0.225,1.383,3.932,1.325,3.933c-0.004,0-5.669,0.128-7.985-0.884
			C330.046,187.726,327.773,186.08,327.242,183.865z M409.416,174.008c-0.471,2.229-2.699,3.936-4.647,4.851
			c-1.997,0.937-6.563,1.076-7.696,1.096c-0.616,0.729-1.267,1.515-1.967,2.399c-1.219,1.566-2.58,3.344-3.93,5.377
			c-0.361,0.541-0.727,1.137-1.093,1.709c0.816-0.835,1.952-1.966,2.074-2.064c2.253-1.796,7.664-3.942,10.352-2.157
			c1.937,1.286,2.083,3.92,0.667,5.645c-1.445,1.761-4.209,2.249-6.36,2.163c-2.244-0.09-6.455-2.134-7.371-2.592
			c-0.79,1.279-1.572,2.61-2.306,4.046c-1.272,2.477-2.498,5.183-3.385,8.093c0.09,0.047,0.074,0.038,0.164,0.085
			c0.659-0.863,2.085-2.643,2.219-2.776c2.042-2.033,7.184-4.76,10.053-3.28c2.066,1.066,2.501,3.667,1.283,5.537
			c-1.243,1.909-3.936,2.698-6.084,2.849c-2.474,0.174-7.592-1.758-7.785-1.831c-0.795,2.725-1.405,5.584-1.86,8.523
			c-0.333,2.129-0.583,4.3-0.813,6.48c0.446-0.618,2.316-2.957,2.47-3.11c2.042-2.033,7.185-4.76,10.053-3.28
			c2.067,1.066,2.501,3.667,1.284,5.537c-1.243,1.909-3.937,2.698-6.084,2.849c-2.416,0.17-7.328-1.659-7.741-1.814
			c-0.104,0.99-0.212,1.978-0.308,2.971c-0.316,3.242-0.618,6.493-1.016,9.693c-0.137,1.108-0.314,2.196-0.485,3.286
			c0.698-0.906,2-2.529,2.127-2.656c2.043-2.033,7.185-4.76,10.053-3.281c2.066,1.066,2.501,3.668,1.283,5.537
			c-1.243,1.909-3.937,2.698-6.084,2.849c-2.157,0.152-6.321-1.297-7.487-1.722c-0.299,1.811-0.636,3.602-1.051,5.349
			c-0.195,0.749-0.347,1.527-0.575,2.235c-0.215,0.719-0.428,1.431-0.639,2.136c-0.487,1.443-0.935,2.785-1.424,4.116
			c-0.242,0.675-0.486,1.305-0.729,1.958c0.57-1.023,1.499-2.63,1.6-2.767c1.711-2.319,6.381-5.793,9.44-4.765
			c2.204,0.74,3.028,3.246,2.107,5.278c-0.94,2.075-3.482,3.263-5.582,3.738c-2.315,0.523-7.282-0.486-7.889-0.613
			c-0.604,1.594-1.207,3.14-1.798,4.576c-1.86,4.548-3.581,8.266-4.823,10.853c-0.07,0.146-0.134,0.276-0.201,0.415h9.049
			l-3.123,60.935c-0.237,4.631-4.061,8.264-8.699,8.264l0,0c-4.637,0-8.461-3.633-8.699-8.264l-3.123-60.935h9.712
			c-0.045-0.421-0.094-0.868-0.152-1.368c-0.325-2.816-0.847-6.84-1.692-11.632c-0.24-1.383-0.519-2.844-0.819-4.343
			c-0.626,0.083-5.644,0.716-7.91,0.024c-2.058-0.63-4.505-2.003-5.288-4.143c-0.766-2.095,0.242-4.532,2.495-5.107
			c3.128-0.797,7.525,3.016,9.059,5.456c0.098,0.156,1.051,2.133,1.516,3.152c-0.185-0.905-0.366-1.805-0.574-2.744
			c-0.289-1.353-0.639-2.774-0.969-4.153c-0.198-0.709-0.398-1.424-0.599-2.147c-0.188-0.734-0.457-1.41-0.685-2.128
			c-0.357-1.044-0.777-2.103-1.194-3.16c-1.36,0.378-5.371,1.415-7.434,1.115c-2.13-0.31-4.757-1.298-5.854-3.294
			c-1.075-1.955-0.448-4.517,1.692-5.426c2.97-1.261,7.895,1.841,9.78,4.021c0.061,0.071,0.412,0.572,0.822,1.172
			c-0.439-1.02-0.873-2.041-1.352-3.059c-1.358-2.891-2.831-5.794-4.295-8.708c-0.305-0.607-0.601-1.218-0.904-1.827
			c-1.143,0.323-5.478,1.486-7.639,1.172c-2.13-0.311-4.757-1.298-5.854-3.294c-1.075-1.955-0.448-4.517,1.692-5.426
			c2.97-1.261,7.895,1.841,9.781,4.02c0.067,0.078,0.485,0.678,0.946,1.354c-0.773-1.595-1.523-3.195-2.219-4.805
			c-1.219-2.815-2.268-5.654-3.066-8.484c-0.402,0.118-5.457,1.584-7.859,1.234c-2.13-0.311-4.757-1.298-5.854-3.294
			c-1.075-1.955-0.448-4.517,1.693-5.426c2.97-1.261,7.895,1.842,9.78,4.021c0.134,0.155,1.628,2.337,2.135,3.135
			c-0.009-0.034-0.023-0.067-0.032-0.101c-0.811-2.979-1.216-5.922-1.466-8.733c-0.253-2.803-0.252-5.465-0.189-7.913
			c0.057-2.45,0.261-4.688,0.457-6.666c0.115-1.07,0.239-2.048,0.365-2.958c-0.011,0.008-0.056,0.039-0.056,0.039
			c-0.049,0.033-1.132-3.735-1.173-3.981c-0.474-2.843,0.28-8.614,3.147-10.096c2.065-1.068,4.438,0.085,5.257,2.16
			c0.836,2.119-0.08,4.772-1.2,6.609c-1.148,1.883-4.881,4.518-5.815,5.16c-0.112,0.948-0.221,1.962-0.317,3.087
			c-0.153,1.978-0.307,4.212-0.311,6.653c-0.003,0.65,0.021,1.35,0.031,2.028c0.22-1.147,0.543-2.717,0.592-2.866
			c0.889-2.741,4.217-7.516,7.445-7.51c2.325,0.004,3.899,2.12,3.671,4.339c-0.234,2.266-2.27,4.198-4.111,5.313
			c-1.921,1.163-6.561,1.781-7.578,1.905c0.046,1.502,0.129,3.044,0.309,4.647c0.305,2.768,0.776,5.702,1.642,8.619
			c0.101-0.011,0.082-0.009,0.183-0.02c0.073-1.082,0.281-3.355,0.319-3.541c0.582-2.822,3.366-7.933,6.575-8.282
			c2.311-0.251,4.109,1.679,4.125,3.91c0.016,2.278-1.795,4.422-3.502,5.732c-1.968,1.51-7.302,2.722-7.503,2.767
			c0.84,2.712,1.909,5.432,3.15,8.135c0.897,1.96,1.886,3.908,2.896,5.853c0.031-0.762,0.301-3.744,0.344-3.956
			c0.583-2.822,3.367-7.933,6.575-8.282c2.311-0.251,4.109,1.679,4.125,3.91c0.016,2.278-1.795,4.422-3.503,5.732
			c-1.921,1.474-7.027,2.659-7.458,2.757c0.46,0.883,0.914,1.767,1.382,2.648c1.525,2.879,3.066,5.757,4.5,8.645
			c0.497,1,0.949,2.004,1.408,3.008c0.082-1.14,0.272-3.212,0.309-3.389c0.582-2.823,3.367-7.934,6.575-8.282
			c2.312-0.251,4.109,1.679,4.125,3.91c0.016,2.278-1.795,4.422-3.502,5.732c-1.715,1.316-5.987,2.405-7.194,2.695
			c0.75,1.676,1.457,3.355,2.074,5.041c0.25,0.733,0.553,1.465,0.753,2.182c0.217,0.718,0.433,1.43,0.646,2.134
			c0.389,1.472,0.756,2.839,1.083,4.218c0.17,0.696,0.315,1.357,0.472,2.035c-0.089-1.168-0.201-3.02-0.192-3.19
			c0.148-2.878,2.126-8.352,5.244-9.182c2.247-0.598,4.316,1.037,4.67,3.24c0.045,0.28,0.061,0.562,0.053,0.845
			c1.353,2.188,2.033,5.3,1.988,7.214c-0.004,0.184-0.3,2.359-0.475,3.465c0.345-0.857,0.691-1.707,1.035-2.605
			c0.506-1.288,0.998-2.666,1.483-3.999c0.226-0.7,0.454-1.407,0.685-2.122c0.248-0.716,0.396-1.428,0.603-2.153
			c0.278-1.067,0.512-2.182,0.748-3.294c-1.343-0.436-5.261-1.783-6.815-3.171c-1.605-1.434-3.252-3.707-3.066-5.977
			c0.182-2.224,2.118-4.015,4.405-3.592c3.174,0.587,5.569,5.891,5.94,8.749c0.012,0.093,0.027,0.705,0.039,1.431
			c0.197-1.092,0.398-2.183,0.56-3.297c0.462-3.16,0.834-6.394,1.222-9.633c0.08-0.675,0.171-1.348,0.254-2.023
			c-1.132-0.361-5.389-1.782-7.018-3.237c-1.605-1.434-3.252-3.707-3.066-5.977c0.182-2.223,2.118-4.014,4.405-3.592
			c3.173,0.587,5.569,5.891,5.939,8.749c0.013,0.102,0.03,0.833,0.042,1.651c0.235-1.756,0.492-3.505,0.8-5.231
			c0.536-3.02,1.227-5.967,2.123-8.767c-0.401-0.123-5.426-1.689-7.236-3.306c-1.605-1.434-3.252-3.707-3.066-5.977
			c0.182-2.223,2.119-4.014,4.405-3.592c3.174,0.587,5.569,5.892,5.939,8.749c0.026,0.203,0.068,2.848,0.052,3.793
			c0.011-0.033,0.018-0.069,0.029-0.102c0.967-2.932,2.253-5.611,3.595-8.092c1.336-2.478,2.804-4.697,4.208-6.704
			c1.399-2.012,2.804-3.766,4.059-5.308c0.686-0.829,1.329-1.576,1.937-2.265c-0.013,0-0.069,0.001-0.069,0.001
			c-0.059,0,1.117-3.74,1.218-3.967c1.173-2.633,4.985-7.03,8.194-6.685C408.534,169.555,409.877,171.826,409.416,174.008z
			 M372.407,251.44c-0.548-0.266-4.781-2.36-6.432-4.149c-1.896,1.06-4.036,1.925-4.413,2.075c0.375,1.662,0.725,3.285,1.024,4.808
			c0.958,4.82,1.573,8.87,1.964,11.712c0.083,0.606,0.154,1.146,0.217,1.639h0.215c0.216-0.416,0.448-0.867,0.707-1.377
			c1.282-2.528,3.067-6.172,5.006-10.635C371.257,254.229,371.831,252.857,372.407,251.44z M389.315,189.834
			c0.05,0.031,1.03-3.765,1.065-4.011c0.397-2.854-0.513-8.603-3.419-10.007c-2.093-1.011-4.434,0.205-5.197,2.301
			c-0.779,2.141,0.209,4.768,1.378,6.575C384.516,186.813,389.311,189.832,389.315,189.834z"/>
	</g>
</g>
<g id="Character">
	<g>
		<g>
			<path id="XMLID_26_" style="fill:#C6FF00;stroke:#263238;stroke-linecap:round;stroke-linejoin:round;stroke-miterlimit:10;" d="
				M322.504,226.353c0,0,10.155-7.371,10.81-7.862c0.655-0.491,9.664,3.44,10.155,5.896c0.491,2.457,0.164,3.112-0.491,3.44
				c-0.655,0.328-18.672,5.241-19.163,5.405C323.323,233.396,322.504,226.353,322.504,226.353z"/>
			<path id="XMLID_24_" style="fill:#FFFFFF;stroke:#263238;stroke-linecap:round;stroke-linejoin:round;stroke-miterlimit:10;" d="
				M251.203,165.505c0,0-0.84-2.379,0.14-4.618c0.98-2.239,2.519-2.939,1.819-4.618c-0.7-1.679-4.898-5.458-5.318-7.557
				c-0.42-2.099-1.679-1.959-2.379-0.7c-0.7,1.26-0.42,3.079,0.84,3.919c1.26,0.84,1.679,1.819,1.679,2.239
				c0,0.42-0.98,0.98-0.98,0.98s-4.199-3.779-5.178-4.059c-0.98-0.28-1.259,0-1.259,1.679s-0.271,8.827,0.849,11.346
				c1.12,2.519,6.009,5.028,6.009,5.028L251.203,165.505z"/>
			<path id="XMLID_23_" style="fill:#263238;" d="M247.236,163.529c0.712-0.3,1.054-1.112,0.772-1.831l-21.65-55.24l-0.983,0.328
				l19.968,55.91C245.618,163.465,246.483,163.846,247.236,163.529L247.236,163.529z"/>
			<path id="XMLID_22_" style="fill:#C6FF00;stroke:#263238;stroke-linecap:round;stroke-linejoin:round;stroke-miterlimit:10;" d="
				M286.587,163.242c-0.04-0.143-0.234-0.161-0.3-0.028c-0.684,1.402-3.17,6.715-5.555,14.466
				c-2.799,9.097-8.117,16.654-8.117,16.654s-11.476-14.415-14.835-19.173s-6.578-9.657-6.578-9.657l-4.758,3.079
				c0,0,3.919,11.056,7.417,17.914c3.499,6.858,11.528,18.301,16.426,22.919c4.898,4.618,8.38,5.088,11.424,3.111
				c1.328-0.862,6.018-9.097,6.018-9.097s1.959-14.135,1.26-24.491C288.396,170.164,286.999,164.704,286.587,163.242z"/>
			<g>
				<path style="fill:#263238;stroke:#263238;stroke-linecap:round;stroke-linejoin:round;stroke-miterlimit:10;" d="
					M325.096,254.093c0-11.616-0.28-27.71-0.28-27.71s-11.616,1.679-20.153,1.819c-8.537,0.14-17.774-6.718-17.774-6.718
					s-1.26,3.919-1.26,14.695c0,10.776,1.26,48.843,1.26,48.843s1.862,14.1,2.391,22.026c0.528,7.925,7.926,52.309,7.926,52.309
					s-5.284,5.284-8.982,8.454c-3.699,3.17-8.454,5.284-5.284,6.869c3.17,1.585,10.291-0.256,11.877-0.784
					c0.829-0.276,3.072-2.409,5.263-3.508c0.93-0.466,1.686-0.633,2.23-0.677c0.799-0.066,1.56-0.339,2.225-0.787l1.654-1.112
					c0,0,0.528,6.34,0.528,8.982c0,2.642,1.585,8.982,3.699,9.511c2.114,0.528,4.164,0.28,6.277-3.947
					c2.113-4.227-0.719-22.392-0.719-22.392s1.571-8.75,2.367-14.875C319.296,337.755,325.096,262.554,325.096,254.093z"/>
				
					<path style="fill:none;stroke:#FFFFFF;stroke-width:0.75;stroke-linecap:round;stroke-linejoin:round;stroke-miterlimit:10;" d="
					M313.859,234.11c0,0,1.216,4.457,3.241,6.686s6.483,2.026,6.483,2.026"/>
				
					<polyline style="fill:none;stroke:#FFFFFF;stroke-width:0.75;stroke-linecap:round;stroke-linejoin:round;stroke-miterlimit:10;" points="
					297.854,236.339 298.462,247.481 300.69,250.115 301.501,238.77 				"/>
				
					<path style="fill:none;stroke:#FFFFFF;stroke-width:0.75;stroke-linecap:round;stroke-linejoin:round;stroke-miterlimit:10;" d="
					M298.333,359.333c0,0,3,2.667,7.667,3.667"/>
				
					<path style="fill:none;stroke:#FFFFFF;stroke-width:0.75;stroke-linecap:round;stroke-linejoin:round;stroke-miterlimit:10;" d="
					M315.974,359.966c0,0-3.974,6.034-8.641,1.368"/>
				
					<path style="fill:none;stroke:#FFFFFF;stroke-width:0.75;stroke-linecap:round;stroke-linejoin:round;stroke-miterlimit:10;" d="
					M296.52,244.56l5.226,7.317l4.587,107.457c0,0,7.333-15.333,10-27C319,320.667,320,304.667,320,304.667"/>
			</g>
			<g>
				
					<path id="XMLID_21_" style="fill:#C6FF00;stroke:#263238;stroke-linecap:round;stroke-linejoin:round;stroke-miterlimit:10;" d="
					M302.145,159.907c0,0-13.995,2.379-15.674,2.939c-1.679,0.56-0.42,25.331-0.42,25.331s-0.7,36.107,0.56,39.886
					c1.253,3.758,8.96,4.999,12.137,5.618c5.696,1.11,11.5,0.922,17.151-0.336c3.268-0.727,7.77-1.092,8.639-5.003
					c0.84-3.779,1.819-26.311,3.779-33.728c1.959-7.417,9.237-19.313,6.298-24.211c-2.939-4.898-15.954-8.537-21.552-9.237
					C307.463,160.466,302.145,159.907,302.145,159.907z"/>
				<polygon id="XMLID_20_" style="fill:#263238;" points="299.206,166.344 301.025,175.861 291.229,221.625 296.687,230.861 
					303.544,222.744 302.704,176.421 307.603,168.024 304.804,162.566 				"/>
				
					<path id="XMLID_19_" style="fill:#C6FF00;stroke:#263238;stroke-linecap:round;stroke-linejoin:round;stroke-miterlimit:10;" d="
					M303.964,157.667c0,0-3.079,1.539-5.458,4.339c-2.379,2.799-6.438,10.216-6.018,9.936c0.42-0.28,11.616-7.137,11.616-7.137
					L303.964,157.667z"/>
				
					<polygon id="XMLID_17_" style="fill:#C6FF00;stroke:#263238;stroke-linecap:round;stroke-linejoin:round;stroke-miterlimit:10;" points="
					313.341,156.268 304.524,165.924 307.043,174.741 317.399,161.586 				"/>
			</g>
			<g>
				<g>
					
						<path id="XMLID_16_" style="fill:#263238;stroke:#263238;stroke-linecap:round;stroke-linejoin:round;stroke-miterlimit:10;" d="
						M297.107,122.54c0,0-5.738,1.12-6.438-3.919c-0.7-5.038,7.137-12.176,18.333-12.176c11.196,0,20.013,9.377,19.593,18.473
						c-0.42,9.097-5.178,15.534-5.738,16.374c-0.56,0.84-5.178,3.359-7.137,3.639c-1.959,0.28-3.359-2.519-2.379-6.158
						c0.98-3.639-2.099-4.618-0.84-7.977c1.26-3.359,2.939-3.359,3.499-4.478c0.56-1.12-5.598-3.499-11.196-3.219
						C299.206,123.38,297.107,122.54,297.107,122.54z"/>
					<path style="fill:none;stroke:#FFFFFF;stroke-linecap:round;stroke-linejoin:round;stroke-miterlimit:10;" d="M308.4,117.713
						c6.686-0.167,16.063,1.021,17.214,8.79"/>
					<path style="fill:none;stroke:#FFFFFF;stroke-linecap:round;stroke-linejoin:round;stroke-miterlimit:10;" d="M301.611,118.351
						c0,0,1.387-0.255,3.496-0.446"/>
					<path style="fill:none;stroke:#FFFFFF;stroke-linecap:round;stroke-linejoin:round;stroke-miterlimit:10;" d="M315.198,114.275
						c0,0,11.85,0.456,13.398,10.644"/>
				</g>
				
					<path id="XMLID_15_" style="fill:#FFFFFF;stroke:#263238;stroke-linecap:round;stroke-linejoin:round;stroke-miterlimit:10;" d="
					M303.264,152.209c0,0-0.035,0.197-0.096,0.543c-0.299,1.718-1.211,7.112-1.444,10.373c-0.28,3.919,2.519,3.779,3.639,2.659
					s6.998-6.997,7.977-9.517c0.98-2.519,3.219-10.076,3.219-10.076L303.264,152.209z"/>
				<g>
					
						<path id="XMLID_14_" style="fill:#FFFFFF;stroke:#263238;stroke-linecap:round;stroke-linejoin:round;stroke-miterlimit:10;" d="
						M297.107,122.54c0,0-1.959,10.916-2.659,16.654c-0.7,5.738-1.4,9.097,0.98,12.735c2.379,3.639,9.097,1.26,12.456-0.14
						c3.359-1.4,10.216-5.878,10.216-5.878s4.758,0.28,6.718-2.099c1.959-2.379-0.14-5.178-1.259-5.458
						c-1.12-0.28-3.639,0.7-4.478,1.679c-0.84,0.98-0.7,2.099-1.679,2.099c-0.98,0-2.379,0.28-2.099-0.7
						c0.28-0.98,2.379-4.199,1.819-6.298c-0.56-2.099-4.758-3.499-1.26-5.458c3.499-1.959,7.137-1.819,5.458-4.758
						c-1.679-2.939-10.356-6.018-15.814-4.898C300.045,121.14,297.107,122.54,297.107,122.54z"/>
					<path id="XMLID_13_" style="fill:none;stroke:#263238;stroke-linecap:round;stroke-linejoin:round;stroke-miterlimit:10;" d="
						M298.926,125.759c0,0,3.274-0.695,3.079,2.659c-0.077,1.326-5.878,7.417-5.038,8.817c0.84,1.4,2.239,2.239,2.239,2.239"/>
					<path id="XMLID_12_" style="fill:none;stroke:#263238;stroke-linecap:round;stroke-linejoin:round;stroke-miterlimit:10;" d="
						M305.923,129.258c0,0,3.495-2.663,5.878,1.26"/>
					<path id="XMLID_11_" style="fill:none;stroke:#263238;stroke-linecap:round;stroke-linejoin:round;stroke-miterlimit:10;" d="
						M297.806,143.532c0,0,0.84,2.099,4.199,1.819c3.359-0.28,4.339-0.98,4.339-0.98"/>
					<path id="XMLID_10_" style="fill:#263238;" d="M307.858,133.855c-0.197,0.923-0.752,1.587-1.241,1.483
						c-0.489-0.104-0.725-0.937-0.529-1.86c0.197-0.923,0.752-1.587,1.241-1.483C307.818,132.099,308.055,132.931,307.858,133.855z"
						/>
					<path id="XMLID_9_" style="fill:#263238;" d="M299.712,130.757c-0.177,0.894-0.704,1.542-1.177,1.448
						c-0.473-0.094-0.713-0.894-0.536-1.788c0.177-0.894,0.704-1.542,1.177-1.448C299.65,129.063,299.89,129.863,299.712,130.757z"
						/>
				</g>
			</g>
			<path id="XMLID_8_" style="fill:#C6FF00;stroke:#263238;stroke-linecap:round;stroke-linejoin:round;stroke-miterlimit:10;" d="
				M324.257,191.535c0,0,0.458-3.897,2.233-8.092c2.002-4.732,6.864-14.3,8.124-13.041c1.26,1.26,3.499,5.458,4.898,12.735
				c1.4,7.277,5.738,29.669,7.557,33.588c1.819,3.919,2.239,5.458,1.12,6.997c0,0-3.919,5.598-9.097,3.359
				c-5.178-2.239-13.855-23.512-13.855-23.512"/>
			<path id="XMLID_7_" style="fill:#FFFFFF;stroke:#263238;stroke-linecap:round;stroke-linejoin:round;stroke-miterlimit:10;" d="
				M237.565,148.608c-0.834,1.887,1.818,3.412,3.337,3.733c1.255,0.266,2.57-1.845,1.625-2.791c-0.56-0.56-1.968-1.453-3.088-1.593
				c-0.605-0.076-1.361-0.023-1.78,0.495C237.621,148.498,237.59,148.551,237.565,148.608z"/>
			<path id="XMLID_6_" style="fill:#FFFFFF;stroke:#263238;stroke-linecap:round;stroke-linejoin:round;stroke-miterlimit:10;" d="
				M242.432,154.454c0,0-3.503-0.791-4.52-0.395c-1.017,0.395-1.017,2.938-0.452,3.616c0.565,0.678,5.593,0.339,6.271-0.226
				C244.41,156.884,244.127,155.02,242.432,154.454z"/>
			<path id="XMLID_5_" style="fill:#FFFFFF;stroke:#263238;stroke-linecap:round;stroke-linejoin:round;stroke-miterlimit:10;" d="
				M238.082,158.07c0,0-0.057,2.599,0.678,3.333c0.734,0.734,5.932-0.169,6.328-1.074c0.395-0.904-0.452-3.107-0.904-2.994
				C243.732,157.449,240.116,158.522,238.082,158.07z"/>
			<path id="XMLID_4_" style="fill:#FFFFFF;stroke:#263238;stroke-linecap:round;stroke-linejoin:round;stroke-miterlimit:10;" d="
				M239.099,161.63c0,0,0,1.808,0.734,2.599c0.734,0.791,5.085-0.621,5.876-1.638c0.791-1.017-0.226-1.977-0.565-1.921
				c-0.339,0.056-2.768,0.847-4.068,0.904C239.777,161.63,239.099,161.63,239.099,161.63z"/>
		</g>
	</g>
</g>
<g id="Table">
	<g>
		<path id="XMLID_43_" style="fill:#263238;" d="M401.221,282.569c0.005-0.014,0.009-0.027,0.014-0.041
			c13.25,5.707,26.494,11.428,39.717,17.194c2.48,1.081,3.675,3.917,2.701,6.441c-1.979,5.125-5.74,13.558-11.151,20.136
			c-8.353,10.155-11.302,19.164-12.284,29.319c-0.983,10.155,0,28.827,0,28.827l-50.775-44.223c0,0,5.896-25.715,15.233-33.578
			C392.428,300.116,397.96,292.094,401.221,282.569z"/>
		<g>
			<path id="XMLID_34_" style="fill:#C6FF00;stroke:#263238;stroke-linecap:round;stroke-linejoin:round;stroke-miterlimit:10;" d="
				M392.537,275.198c0,0-18.672,0.655-20.31,0.655c-1.638,0-6.715,24.732-8.353,36.362c-1.638,11.629-3.44,20.31-3.44,20.31
				s16.707,10.155,24.896,13.922c8.189,3.767,16.87,7.862,16.87,7.862s9.5-27.189,15.233-38.655
				c5.733-11.465,10.81-11.957,7.371-18.345c-3.44-6.388-14.086-14.577-18.181-17.362
				C402.528,277.163,392.537,275.198,392.537,275.198z"/>
			<path id="XMLID_33_" style="fill:#263238;" d="M385.33,287.646l1.146,7.862l-20.638,40.456c0,0,9.009,6.879,9.172,5.896
				c0.164-0.983,14.086-45.534,14.086-45.534l6.715-5.405l-3.44-8.026C392.373,282.896,388.442,284.37,385.33,287.646z"/>
			<path id="XMLID_32_" style="fill:#C6FF00;stroke:#263238;stroke-linecap:round;stroke-linejoin:round;stroke-miterlimit:10;" d="
				M387.951,273.724c0,0-0.491,0.164-2.948,3.931c-2.457,3.767-3.276,16.052-2.784,15.56c0.491-0.491,6.388-8.026,7.862-7.534
				c1.474,0.491,5.569,10.155,5.733,10.974c0.164,0.819,6.715-5.733,8.681-11.302c1.966-5.569,1.147-10.974-1.146-12.612
				C401.054,271.103,391.718,270.448,387.951,273.724z"/>
		</g>
		<path id="XMLID_61_" style="fill:#263238;" d="M83.955,294.525l-29.998,23.559c-1.703,1.338-1.577,3.954,0.256,5.107
			c6.533,4.109,19.488,13.176,23.354,22.6c5.241,12.776,7.207,30.301,11.302,36.525c4.095,6.224,10.646,8.681,10.646,8.681
			l31.939-40.293c0,0-5.896,1.31-10.155-18.017c-4.259-19.327-15.888-31.448-20.965-35.215
			C95.257,293.706,83.955,294.525,83.955,294.525z"/>
		<g>
			<path id="XMLID_52_" style="fill:#C6FF00;stroke:#263238;stroke-linecap:round;stroke-linejoin:round;stroke-miterlimit:10;" d="
				M125.394,293.051c0,0,26.534,12.94,27.025,16.543c0.491,3.603-2.129,12.284-3.767,13.431c-1.638,1.146-16.543-5.078-19-6.552
				C127.196,314.999,123.756,297.473,125.394,293.051z"/>
			<path id="XMLID_49_" style="fill:#C6FF00;stroke:#263238;stroke-linecap:round;stroke-linejoin:round;stroke-miterlimit:10;" d="
				M107.377,285.353c0,0,2.906-1.882,8.845-3.44c2.339-0.613,7.207,1.966,9.009,7.371c1.458,4.374,3.435,8.545,5.386,12.714
				c1.667,3.56,4.841,8.35,4.779,12.343c-0.072,4.649-3.006,9.803-5.252,13.761l5.241,12.121L102.3,382.48
				c0,0-8.681-2.293-9.827-15.396c-1.146-13.103,0.328-31.775,0.328-31.775s-9.172-6.879-10.974-14.414
				c-1.802-7.534,4.586-18.345,10.974-23.094C99.188,293.051,107.377,285.353,107.377,285.353z"/>
		</g>
		<g>
			<path id="XMLID_44_" style="fill:#FFFFFF;stroke:#263238;stroke-linecap:round;stroke-linejoin:round;stroke-miterlimit:10;" d="
				M111.145,244.569c0,0,1.474,7.207,4.75,7.862c3.276,0.655,4.914-0.328,4.586,3.112c-0.327,3.44-1.802,5.405-1.802,5.405
				s1.474,8.517,0.983,12.284c-0.491,3.767-3.276,2.948-6.552,3.44c-3.276,0.491-5.241,0.491-5.241,0.491s0.655,6.879,1.965,10.319
				c1.31,3.44,2.785,4.914,1.147,5.733c-1.638,0.819-10.155-3.603-14.25-9.172c-4.095-5.569,1.474-11.138,3.931-15.56
				c2.457-4.422-5.241-9.336-0.819-15.56C104.265,246.698,111.145,244.569,111.145,244.569z"/>
			<path id="XMLID_46_" style="fill:#263238;" d="M113.578,254.385c0.289,1.046,0.241,1.973-0.108,2.069
				c-0.349,0.096-0.866-0.674-1.155-1.72c-0.289-1.046-0.241-1.973,0.108-2.069C112.771,252.569,113.288,253.339,113.578,254.385z"
				/>
			<path id="XMLID_48_" style="fill:#FFFFFF;stroke:#263238;stroke-linecap:round;stroke-linejoin:round;stroke-miterlimit:10;" d="
				M108.524,252.267c0,0,0.164-3.276,2.948-3.276"/>
		</g>
		<g>
			<path id="XMLID_1_" style="fill:#FFFFFF;stroke:#263238;stroke-linecap:round;stroke-linejoin:round;stroke-miterlimit:10;" d="
				M424.108,402.828c-1.97-58.676-75.409-105.846-165.716-105.846c-91.544,0-165.756,48.472-165.756,108.266"/>
			<g>
				
					<polygon id="XMLID_62_" style="fill:#FFFFFF;stroke:#263238;stroke-linecap:round;stroke-linejoin:round;stroke-miterlimit:10;" points="
					174.859,325.645 152.256,358.403 179.445,363.808 200.41,328.921 				"/>
				<g>
					
						<line style="fill:none;stroke:#263238;stroke-width:0.5;stroke-linecap:round;stroke-linejoin:round;stroke-miterlimit:10;" x1="178.132" y1="328.779" x2="160.581" y2="356.646"/>
					
						<line style="fill:none;stroke:#263238;stroke-width:0.5;stroke-linecap:round;stroke-linejoin:round;stroke-miterlimit:10;" x1="181.904" y1="329.464" x2="164.218" y2="357.373"/>
					
						<line style="fill:none;stroke:#263238;stroke-width:0.5;stroke-linecap:round;stroke-linejoin:round;stroke-miterlimit:10;" x1="185.676" y1="330.15" x2="168.063" y2="358.101"/>
					
						<line style="fill:none;stroke:#263238;stroke-width:0.5;stroke-linecap:round;stroke-linejoin:round;stroke-miterlimit:10;" x1="189.448" y1="330.836" x2="171.805" y2="358.62"/>
					
						<line style="fill:none;stroke:#263238;stroke-width:0.5;stroke-linecap:round;stroke-linejoin:round;stroke-miterlimit:10;" x1="193.22" y1="331.522" x2="175.858" y2="359.348"/>
					
						<line style="fill:none;stroke:#263238;stroke-width:0.5;stroke-linecap:round;stroke-linejoin:round;stroke-miterlimit:10;" x1="172.532" y1="330.561" x2="195.396" y2="334.406"/>
					
						<line style="fill:none;stroke:#263238;stroke-width:0.5;stroke-linecap:round;stroke-linejoin:round;stroke-miterlimit:10;" x1="170.766" y1="332.951" x2="193.941" y2="336.9"/>
					
						<line style="fill:none;stroke:#263238;stroke-width:0.5;stroke-linecap:round;stroke-linejoin:round;stroke-miterlimit:10;" x1="169.207" y1="335.341" x2="192.486" y2="339.394"/>
					
						<line style="fill:none;stroke:#263238;stroke-width:0.5;stroke-linecap:round;stroke-linejoin:round;stroke-miterlimit:10;" x1="167.856" y1="337.732" x2="191.162" y2="341.809"/>
					
						<line style="fill:none;stroke:#263238;stroke-width:0.5;stroke-linecap:round;stroke-linejoin:round;stroke-miterlimit:10;" x1="165.985" y1="340.33" x2="189.448" y2="344.209"/>
					
						<line style="fill:none;stroke:#263238;stroke-width:0.5;stroke-linecap:round;stroke-linejoin:round;stroke-miterlimit:10;" x1="164.114" y1="342.616" x2="187.733" y2="346.609"/>
					
						<line style="fill:none;stroke:#263238;stroke-width:0.5;stroke-linecap:round;stroke-linejoin:round;stroke-miterlimit:10;" x1="162.763" y1="344.902" x2="186.019" y2="349.009"/>
					
						<line style="fill:none;stroke:#263238;stroke-width:0.5;stroke-linecap:round;stroke-linejoin:round;stroke-miterlimit:10;" x1="161.204" y1="347.397" x2="184.305" y2="351.41"/>
					
						<line style="fill:none;stroke:#263238;stroke-width:0.5;stroke-linecap:round;stroke-linejoin:round;stroke-miterlimit:10;" x1="159.438" y1="349.891" x2="182.59" y2="353.81"/>
					
						<line style="fill:none;stroke:#263238;stroke-width:0.5;stroke-linecap:round;stroke-linejoin:round;stroke-miterlimit:10;" x1="157.567" y1="352.177" x2="180.876" y2="356.21"/>
					
						<line style="fill:none;stroke:#263238;stroke-width:0.5;stroke-linecap:round;stroke-linejoin:round;stroke-miterlimit:10;" x1="155.8" y1="354.671" x2="179.161" y2="358.611"/>
				</g>
				
					<polygon id="XMLID_63_" style="fill:#263238;stroke:#263238;stroke-linecap:round;stroke-linejoin:round;stroke-miterlimit:10;" points="
					179.445,363.808 195.988,359.55 219.901,318.438 200.41,328.921 				"/>
			</g>
			<polygon style="fill:#FFFFFF;stroke:#263238;stroke-linecap:round;stroke-linejoin:round;stroke-miterlimit:10;" points="
				288.429,349.883 251.694,351.404 242.932,314.332 279.667,312.811 			"/>
			<polygon style="fill:#C6FF00;stroke:#263238;stroke-linecap:round;stroke-linejoin:round;stroke-miterlimit:10;" points="
				307.243,356.852 270.508,358.372 261.747,321.3 298.481,319.78 			"/>
			<polygon style="fill:#FFFFFF;stroke:#263238;stroke-linecap:round;stroke-linejoin:round;stroke-miterlimit:10;" points="
				367.338,394.491 316.827,394.837 311.752,367.282 362.263,366.935 			"/>
			<polygon style="fill:#C6FF00;stroke:#263238;stroke-linecap:round;stroke-linejoin:round;stroke-miterlimit:10;" points="
				186.653,397.217 134.342,395.901 141.232,369.433 193.543,370.749 			"/>
		</g>
		<g>
			<path id="XMLID_29_" style="fill:#C6FF00;stroke:#263238;stroke-linecap:round;stroke-linejoin:round;stroke-miterlimit:10;" d="
				M408.588,307.956l-15.56,36.689c0,0-12.939,3.112-24.241,4.422c-11.301,1.31-22.439,1.638-22.439,1.638l0.164,6.879
				c0,0,17.689,1.966,31.939,2.129c14.25,0.164,19.819,4.095,23.586,0.491c3.767-3.603,24.077-43.404,26.534-50.775
				s-3.767-13.595-7.698-16.379"/>
			<path id="XMLID_38_" style="fill:#FFFFFF;stroke:#263238;stroke-linecap:round;stroke-linejoin:round;stroke-miterlimit:10;" d="
				M346.348,350.705c0,0-11.138-5.077-14.086-6.552c-2.948-1.474-13.595,3.603-14.905,4.095c-1.31,0.491-4.258,2.293-3.767,3.44
				c0.491,1.146,4.586,1.638,4.586,1.638s-3.767,0.491-2.948,1.638c0.819,1.147,13.431-0.819,14.577-0.819
				c1.146,0,3.767,2.948,6.879,3.603c3.112,0.655,9.827-0.164,9.827-0.164L346.348,350.705z"/>
		</g>
		<g>
			<path id="XMLID_53_" style="fill:#FFFFFF;stroke:#263238;stroke-linecap:round;stroke-linejoin:round;stroke-miterlimit:10;" d="
				M160.773,343.498c0.574-0.392,1.965-0.655,4.914,0c2.948,0.655,7.698,1.966,7.207,2.621c-0.491,0.655-1.802,0.655-3.44,0.655
				c-1.638,0-3.931,0.164-3.931,0.164S157.661,345.628,160.773,343.498z"/>
			<path id="XMLID_50_" style="fill:#FFFFFF;stroke:#263238;stroke-linecap:round;stroke-linejoin:round;stroke-miterlimit:10;" d="
				M83.628,316.145c0,0,2.129,13.595,6.06,31.284s8.845,25.551,11.465,26.698c2.621,1.146,33.413-9.664,40.129-12.776
				c6.715-3.112,11.629-2.293,13.758-2.293c2.129,0,5.078-4.914,7.207-5.733c2.129-0.819,11.793,1.474,12.448-0.328
				c0.655-1.802-4.75-5.405-6.388-6.552c-1.638-1.147-5.077-3.767-7.534-2.948c-2.457,0.819-9.008,9.664-10.81,10.646
				c-1.802,0.983-19.163,1.966-27.844,1.802c-8.681-0.164-9.5-0.328-9.5-0.328s-6.552-28.008-6.552-33.414
				c0-5.026-1.405-12.736-6.66-14.84c-3.569-1.429-9.455-1.689-12.503,1.083C83.3,311.723,83.628,316.145,83.628,316.145z"/>
			<path id="XMLID_54_" style="fill:#C6FF00;stroke:#263238;stroke-linecap:round;stroke-linejoin:round;stroke-miterlimit:10;" d="
				M104.429,369.541c5.896-2.948,8.189-13.922,8.189-13.922s-6.552-28.008-6.552-33.414c0-5.026-1.405-12.736-6.66-14.84
				c-3.569-1.429-9.455-1.689-12.504,1.083c-3.603,3.276-3.276,7.698-3.276,7.698s2.129,13.595,6.06,31.284
				c2.804,12.62,6.105,20.217,8.721,23.963C100.174,371.155,102.256,370.628,104.429,369.541z"/>
			<path id="XMLID_47_" style="fill:#FFFFFF;stroke:#263238;stroke-linecap:round;stroke-linejoin:round;stroke-miterlimit:10;" d="
				M174.695,352.998c0,0-9.827-3.603-11.301-3.603c-1.474,0-2.785,0.491-2.785,0.491"/>
			<path id="XMLID_51_" style="fill:#FFFFFF;stroke:#263238;stroke-linecap:round;stroke-linejoin:round;stroke-miterlimit:10;" d="
				M160.937,346.774c0,0,2.621-0.819,4.586,0.164c1.965,0.983,8.026,3.603,8.026,3.603"/>
		</g>
		<g>
			<path id="XMLID_56_" style="fill:#FFFFFF;stroke:#263238;stroke-linecap:round;stroke-linejoin:round;stroke-miterlimit:10;" d="
				M152.583,308.938c0,0-2.948-0.983-5.569,3.767c-2.621,4.75-2.621,8.845,1.146,11.465c3.767,2.621,13.922,5.078,16.379,6.879
				c2.457,1.802,4.586,4.258,5.896,4.586c1.31,0.328,6.224,1.31,4.914-5.405c-1.31-6.715-10.974-13.758-15.888-17.689
				S152.583,308.938,152.583,308.938z"/>
			<path id="XMLID_57_" style="fill:#FFFFFF;stroke:#263238;stroke-linecap:round;stroke-linejoin:round;stroke-miterlimit:10;" d="
				M168.358,328.016c0,0-0.85,2.266-2.124,3.682c-1.275,1.416-2.408,2.124-1.275,4.107c1.133,1.983,2.266,4.532,2.974,6.231
				c0.708,1.7,1.893-0.368,2.176-2.633c0.283-2.266-1.638-5.405-0.194-5.722c0.437-0.096,1.699-2.549,4.39-1.275
				c2.691,1.275,7.223,5.806,7.648,2.408c0.425-3.399-2.266-6.231-5.382-7.789C173.456,325.467,169.915,325.042,168.358,328.016z"/>
			<path id="XMLID_60_" style="fill:#FFFFFF;stroke:#263238;stroke-linecap:round;stroke-linejoin:round;stroke-miterlimit:10;" d="
				M183.086,330.566c0,0,1.416,0,2.833,2.691c1.416,2.691,2.124,4.107,1.133,4.532c-0.991,0.425-1.275,0-2.124-1.558
				c-0.85-1.558-1.558-3.116-1.558-3.116v-1.841L183.086,330.566z"/>
			<path id="XMLID_59_" style="fill:#FFFFFF;stroke:#263238;stroke-linecap:round;stroke-linejoin:round;stroke-miterlimit:10;" d="
				M179.687,328.3c0,0,2.691,0.425,3.682,2.974c0.991,2.549,1.558,5.665,0.708,6.939c-0.85,1.275-2.549,0.566-2.832-1.699
				C180.962,334.248,179.687,328.3,179.687,328.3z"/>
			<path id="XMLID_58_" style="fill:#FFFFFF;stroke:#263238;stroke-linecap:round;stroke-linejoin:round;stroke-miterlimit:10;" d="
				M176.147,326.458c0,0,1.558-0.283,3.54,1.841c1.983,2.124,2.408,9.489,1.7,10.055s-1.983,0.85-2.691-0.991
				C177.988,335.522,176.147,326.458,176.147,326.458z"/>
			<path id="XMLID_55_" style="fill:#FFFFFF;stroke:#263238;stroke-linecap:round;stroke-linejoin:round;stroke-miterlimit:10;" d="
				M171.048,326.742c0,0,2.691-3.824,4.39-1.841c1.699,1.983,3.399,12.463,2.832,13.171s-2.266,1.133-3.399-1.416
				c-1.133-2.549-2.124-7.364-2.124-7.364"/>
		</g>
		<g>
			<path id="XMLID_45_" style="fill:#263238;stroke:#263238;stroke-linecap:round;stroke-linejoin:round;stroke-miterlimit:10;" d="
				M109.721,247.996c-2.631,2.148-5.366,4.092-6.111,7.71c-1.146,5.569,4.422,9.336,0.819,14.414
				c-3.603,5.078-8.19,6.388-3.276,11.465c4.914,5.078,20.146,13.103,17.526,26.862c-2.621,13.758-12.612,12.448-14.905,10.974
				c-2.293-1.474-12.284-7.862-16.707-5.569c-4.422,2.293-1.147,10.81-2.457,13.595c-1.31,2.784-14.741,0-19.491-6.06
				c-4.75-6.06-8.845-22.603-3.767-31.612c5.078-9.009,12.94-11.793,10.483-21.129c-2.457-9.336-5.077-20.638,1.802-30.956
				c6.879-10.319,20.294-16.196,30.793-13.758c4.942,1.147,10.334,4.342,11.789,9.521c1.297,4.615-0.863,8.916-3.966,12.246
				C111.472,246.534,110.603,247.276,109.721,247.996z"/>
			<path style="fill:none;stroke:#FFFFFF;stroke-linecap:round;stroke-linejoin:round;stroke-miterlimit:10;" d="M112.226,239.33
				c-0.928,1.958-2.416,4.007-4.804,5.542c-6.34,4.076-10.416,8.605-8.605,14.945c1.811,6.34,2.264,10.416-5.888,14.492
				c-8.152,4.076-4.076,17.662,4.529,21.285c8.605,3.623,20.38,12.228,13.133,19.927"/>
			<path style="fill:none;stroke:#FFFFFF;stroke-linecap:round;stroke-linejoin:round;stroke-miterlimit:10;" d="M113.762,233.097
				c0,0,0,1.327-0.454,3.17"/>
			<path style="fill:none;stroke:#FFFFFF;stroke-linecap:round;stroke-linejoin:round;stroke-miterlimit:10;" d="M73.581,315.951
				c0.405,2.155,1.404,3.855,2.139,4.1"/>
			<path style="fill:none;stroke:#FFFFFF;stroke-linecap:round;stroke-linejoin:round;stroke-miterlimit:10;" d="M101.534,249.401
				c0,0-11.322,4.529-10.869,9.511c0.453,4.982,2.264,8.605-0.906,12.228c-3.17,3.623-14.492,7.246-14.492,14.492
				c0,7.246,9.058,11.322,8.605,16.757c-0.453,5.435-7.246,3.623-9.511,7.699c-0.268,0.483-0.473,0.985-0.623,1.495"/>
		</g>
		<g>
			<path id="XMLID_25_" style="fill:#FFFFFF;stroke:#263238;stroke-linecap:round;stroke-linejoin:round;stroke-miterlimit:10;" d="
				M383.692,236.052c0,0-3.276,5.077-3.276,8.189c0,3.112,0.983,4.422,0.328,4.914c-0.655,0.491-9.828,0.491-8.353,2.948
				c1.474,2.457,4.259,3.603,4.259,3.603s-0.491,12.776,0,15.56s1.31,2.621,3.603,1.965c2.293-0.655,5.078-0.983,5.078-0.983
				s2.129,11.138,5.077,12.776c2.948,1.638,10.483-6.552,11.138-9.664c0.655-3.112-0.819-9.172,0.164-10.974
				c0.983-1.802,5.241-4.914,4.586-9.336c-0.655-4.422-4.586-5.733-6.388-7.698c-1.802-1.965,0.328-6.224-1.31-8.681
				C396.959,236.215,385.33,235.233,383.692,236.052z"/>
			<path id="XMLID_28_" style="fill:#FFFFFF;stroke:#263238;stroke-linecap:round;stroke-linejoin:round;stroke-miterlimit:10;" d="
				M399.416,263.568c0,0-2.293,3.603-4.586,3.276c-2.293-0.328-3.767-3.44-3.767-3.44"/>
			<path id="XMLID_30_" style="fill:#FFFFFF;stroke:#263238;stroke-linecap:round;stroke-linejoin:round;stroke-miterlimit:10;" d="
				M393.356,266.189c0,0-4.75,3.603-8.517,4.586"/>
			<path id="XMLID_31_" style="fill:#263238;stroke:#263238;stroke-linecap:round;stroke-linejoin:round;stroke-miterlimit:10;" d="
				M376.649,255.706c0,0,6.715,7.698,4.422,9.336c-2.293,1.638-6.388-2.457-6.388-5.569S374.52,255.215,376.649,255.706z"/>
			<path style="fill:#263238;" d="M383.536,250c-0.053,1.086-0.439,1.949-0.861,1.929c-0.422-0.021-0.721-0.918-0.668-2.004
				c0.053-1.086,0.439-1.949,0.861-1.929S383.59,248.915,383.536,250z"/>
			<path style="fill:none;stroke:#263238;stroke-linecap:round;stroke-linejoin:round;stroke-miterlimit:10;" d="M381.787,245.369
				c0,0,2.844-0.656,3.5,4.156"/>
		</g>
		<g>
			<path id="XMLID_27_" style="fill:#263238;stroke:#263238;stroke-linecap:round;stroke-linejoin:round;stroke-miterlimit:10;" d="
				M394.83,239.327c0,0-17.034-0.819-19.163-6.552c-2.129-5.733,13.922-15.069,31.448-11.629
				c17.526,3.44,18.836,28.336,12.284,33.577c-6.552,5.241-15.724,10.646-18.181,10.974c-2.457,0.328-2.457-0.983-1.802-2.129
				c0.655-1.146,5.077-9.336,2.129-9.664c-2.948-0.328-8.681,2.948-9.336,2.948c-0.655,0-1.474-0.983-0.819-2.457
				c0.655-1.474,3.112-2.457,0.491-4.914c-2.621-2.457-4.586-3.276-3.276-5.077C389.916,242.603,394.83,239.327,394.83,239.327z"/>
			<path style="fill:none;stroke:#FFFFFF;stroke-linecap:round;stroke-linejoin:round;stroke-miterlimit:10;" d="M380.057,232.645
				c0,0,1.359,0.453,9.51,2.264c8.152,1.812,30.343,2.264,31.249,14.039"/>
			<path style="fill:none;stroke:#FFFFFF;stroke-linecap:round;stroke-linejoin:round;stroke-miterlimit:10;" d="M414.492,253.607
				c0.149,1.021-0.055,2.073-0.47,3.04"/>
			<path style="fill:none;stroke:#FFFFFF;stroke-linecap:round;stroke-linejoin:round;stroke-miterlimit:10;" d="M391.379,243.514
				c0,0,6.793,4.076,14.945,4.982c2.832,0.315,4.789,1.012,6.081,1.921"/>
			<path style="fill:none;stroke:#FFFFFF;stroke-linecap:round;stroke-linejoin:round;stroke-miterlimit:10;" d="M397.266,250.307
				c0,0,16.304,4.076,12.681,9.058"/>
		</g>
		<g>
			<path id="XMLID_35_" style="fill:#C6FF00;stroke:#263238;stroke-linecap:round;stroke-linejoin:round;stroke-miterlimit:10;" d="
				M372.227,275.853c0,0-5.241,2.129-7.043,6.715c-1.802,4.586-20.638,25.879-23.422,31.12c-2.784,5.241-3.44,8.353,0,10.319
				c3.44,1.965,6.06,0.819,10.646-2.293s12.247-15.838,12.247-15.838L372.227,275.853z"/>
			<path id="XMLID_37_" style="fill:#C6FF00;stroke:#263238;stroke-linecap:round;stroke-linejoin:round;stroke-miterlimit:10;" d="
				M345.201,310.74c0,0-5.078,3.767-6.879,9.5c-1.802,5.733-8.681,21.784-8.681,21.784l6.224,4.75c0,0,13.922-21.784,14.905-25.06
				c0.983-3.276,0.164-4.914,0.164-4.914"/>
			<path id="XMLID_39_" style="fill:#FFFFFF;stroke:#263238;stroke-linecap:round;stroke-linejoin:round;stroke-miterlimit:10;" d="
				M331.607,341.041c0,0,1.965-0.655,3.603,0.491c1.638,1.147,5.569,6.552,4.259,7.043c-1.31,0.491-3.112-0.164-4.422-1.638
				c-1.31-1.474-2.785-2.457-3.44-2.457c-0.655,0-1.638,0-1.638,0L331.607,341.041z"/>
			<path id="XMLID_40_" style="fill:#FFFFFF;stroke:#263238;stroke-linecap:round;stroke-linejoin:round;stroke-miterlimit:10;" d="
				M319.158,345.464c0,0-2.784,1.474-3.931,3.112c-1.146,1.638-2.457,7.207-1.802,7.698c0.655,0.491,1.474-1.146,2.621-4.095
				C317.193,349.231,319.158,345.464,319.158,345.464z"/>
			<path id="XMLID_36_" style="fill:#FFFFFF;stroke:#263238;stroke-linecap:round;stroke-linejoin:round;stroke-miterlimit:10;" d="
				M331.607,341.041c0.6,0.42-3.112,7.207-4.586,9.991c-1.474,2.784-8.026,5.897-9.664,6.06c-1.638,0.164-2.129-8.845,2.621-12.776
				C324.727,340.386,329.969,339.895,331.607,341.041z"/>
			<path id="XMLID_41_" style="fill:none;stroke:#263238;stroke-linecap:round;stroke-linejoin:round;stroke-miterlimit:10;" d="
				M319.814,356.11c0,0-1.638-1.966-0.164-6.224c1.474-4.259,2.948-7.207,2.948-7.207"/>
			<path id="XMLID_42_" style="fill:none;stroke:#263238;stroke-linecap:round;stroke-linejoin:round;stroke-miterlimit:10;" d="
				M322.762,354.308c0,0-0.491-1.966,0.655-5.896c1.147-3.931,3.276-7.371,3.276-7.371"/>
		</g>
	</g>
</g>
</svg>
