<?xml version="1.0" encoding="utf-8"?>
<!-- Generator: Adobe Illustrator 27.5.0, SVG Export Plug-In . SVG Version: 6.00 Build 0)  -->
<svg version="1.1" xmlns="http://www.w3.org/2000/svg" xmlns:xlink="http://www.w3.org/1999/xlink" x="0px" y="0px"
	 viewBox="0 0 500 500" style="enable-background:new 0 0 500 500;" xml:space="preserve">
<g id="Background_Simple">
	<g>
		<path style="fill:#C6FF00;" d="M350.8,52.107c-12.704-3.01-26.011-3.881-38.861-1.575c-34.071,6.113-59.971,32.845-88.937,51.796
			c-18.986,12.421-39.977,21.77-61.911,27.574c-23.036,6.096-47.978,8.691-67.256,22.698c-16.966,12.327-27.22,32.133-32.39,52.457
			c-6.303,24.783-5.656,51.856,5.1,75.056c11.54,24.892,33.571,43.421,57.009,57.686c39.304,23.922,86.18,38.228,131.588,30.797
			c26.269-4.299,51.054-15.686,73.006-30.742c41.431-28.415,72.68-70.115,91.478-116.465c8.228-20.287,18.225-45.784,17.527-68.039
			c-0.641-20.41-10.305-42.642-22.374-58.74C399.144,73.754,376.235,58.133,350.8,52.107z"/>
		<path style="opacity:0.7;fill:#FFFFFF;" d="M350.8,52.107c-12.704-3.01-26.011-3.881-38.861-1.575
			c-34.071,6.113-59.971,32.845-88.937,51.796c-18.986,12.421-39.977,21.77-61.911,27.574c-23.036,6.096-47.978,8.691-67.256,22.698
			c-16.966,12.327-27.22,32.133-32.39,52.457c-6.303,24.783-5.656,51.856,5.1,75.056c11.54,24.892,33.571,43.421,57.009,57.686
			c39.304,23.922,86.18,38.228,131.588,30.797c26.269-4.299,51.054-15.686,73.006-30.742c41.431-28.415,72.68-70.115,91.478-116.465
			c8.228-20.287,18.225-45.784,17.527-68.039c-0.641-20.41-10.305-42.642-22.374-58.74C399.144,73.754,376.235,58.133,350.8,52.107z
			"/>
	</g>
</g>
<g id="Shape">
	<g>
		<ellipse style="fill:#C6FF00;" cx="251.771" cy="430.993" rx="169.697" ry="23.133"/>
		<ellipse style="opacity:0.5;fill:#FFFFFF;" cx="251.771" cy="430.993" rx="169.697" ry="23.133"/>
	</g>
</g>
<g id="Floor">
	<g>
		<g>
			
				<line style="fill:#FFFFFF;stroke:#263238;stroke-linecap:round;stroke-linejoin:round;" x1="238.501" y1="386.103" x2="377.895" y2="386.103"/>
			
				<line style="fill:#FFFFFF;stroke:#263238;stroke-linecap:round;stroke-linejoin:round;" x1="111.176" y1="386.103" x2="220.027" y2="386.103"/>
		</g>
		<g>
			
				<rect x="264.303" y="279.89" style="fill:#263238;stroke:#263238;stroke-linecap:round;stroke-linejoin:round;" width="90.477" height="113.21"/>
			
				<rect x="287.601" y="279.89" style="fill:#FFFFFF;stroke:#263238;stroke-linecap:round;stroke-linejoin:round;" width="70.698" height="113.21"/>
			
				<rect x="295.775" y="287.034" style="fill:#FFFFFF;stroke:#263238;stroke-linecap:round;stroke-linejoin:round;" width="55.593" height="35.491"/>
			
				<rect x="309.474" y="301.371" style="fill:#263238;stroke:#263238;stroke-linecap:round;stroke-linejoin:round;" width="28.22" height="6.795"/>
			
				<rect x="295.775" y="335.73" style="fill:#FFFFFF;stroke:#263238;stroke-linecap:round;stroke-linejoin:round;" width="55.593" height="35.491"/>
			
				<rect x="309.474" y="350.067" style="fill:#263238;stroke:#263238;stroke-linecap:round;stroke-linejoin:round;" width="28.22" height="6.795"/>
		</g>
		<g>
			<g>
				<path style="fill:#263238;" d="M141.4,397.276c0,2.021-10.807,3.659-24.139,3.659s-24.138-1.638-24.138-3.659
					c0-2.021,10.807-3.659,24.138-3.659S141.4,395.256,141.4,397.276z"/>
				<polygon style="fill:#263238;" points="93.123,397.276 86.21,366.87 148.313,366.87 141.4,397.276 				"/>
				<path style="fill:#263238;" d="M148.313,366.87c0,2.599-13.902,4.707-31.051,4.707S86.21,369.47,86.21,366.87
					c0-2.599,13.902-4.707,31.051-4.707S148.313,364.271,148.313,366.87z"/>
				<path style="fill:#FFFFFF;" d="M142.33,366.674c0,0.645-2.043,1.236-5.465,1.704c-4.589,0.625-11.663,1.025-19.606,1.025
					c-7.936,0-15.01-0.401-19.606-1.032c-3.415-0.462-5.458-1.052-5.458-1.697c0-1.507,11.222-2.722,25.064-2.722
					C131.108,363.952,142.33,365.167,142.33,366.674z"/>
				<path style="fill:#C6FF00;" d="M136.865,368.378c-4.589,0.625-11.663,1.025-19.606,1.025c-7.936,0-15.01-0.401-19.606-1.032
					c2.003-0.977,10.02-1.704,19.606-1.704C126.845,366.668,134.863,367.394,136.865,368.378z"/>
				<path style="fill:none;stroke:#FFFFFF;stroke-linecap:round;stroke-linejoin:round;" d="M138.848,376.789
					c2.516-0.437,5.048-0.968,7.575-1.607"/>
				<path style="fill:none;stroke:#FFFFFF;stroke-linecap:round;stroke-linejoin:round;" d="M98.927,377.443
					c7.555,0.914,18.407,1.649,30.24,0.602"/>
				<path style="fill:none;stroke:#FFFFFF;stroke-linecap:round;stroke-linejoin:round;" d="M88.218,375.703
					c0,0,2.838,0.652,7.614,1.333"/>
			</g>
			<g>
				<path style="fill:#C6FF00;" d="M103.285,201.125c5.669-4.159,10.981-8.786,15.88-13.83c6.66-7.22,3.07-19,3.07-19
					s-4.61,4.1-11.78,11.27s-7.17,12.29-7.17,12.29V201.125z"/>
				<path style="fill:#C6FF00;" d="M113.695,233.075c5.67-4.159,10.981-8.785,15.88-13.83c6.65-7.17,3.07-18.95,3.07-18.95
					s-4.61,4.09-11.78,11.26c-7.17,7.17-7.17,12.29-7.17,12.29V233.075z"/>
				<path style="fill:#C6FF00;" d="M104.705,209.715c-6.077-3.539-11.847-7.579-17.25-12.08c-7.38-6.43-5.06-18.52-5.06-18.52
					s5.02,3.63,12.91,10c7.89,6.37,8.43,11.47,8.43,11.47L104.705,209.715z"/>
				<path style="fill:#C6FF00;" d="M118.255,247.375c-6.413-2.878-12.574-6.286-18.42-10.19c-8-5.62-7-17.89-7-17.89
					s5.36,3.03,13.88,8.55s9.59,10.52,9.59,10.52L118.255,247.375z"/>
				<path style="fill:#C6FF00;" d="M113.945,288.815c-5.669-4.159-10.981-8.785-15.88-13.83c-6.66-7.21-3.07-19-3.07-19
					s4.61,4.09,11.78,11.27c7.17,7.18,7.17,12.3,7.17,12.3V288.815z"/>
				<path style="fill:#C6FF00;" d="M115.365,298.735c5.025-4.922,9.628-10.257,13.76-15.95c5.57-8.04,0.35-19.2,0.35-19.2
					s-3.98,4.71-10.06,12.83s-5.35,13.19-5.35,13.19L115.365,298.735z"/>
				<path style="fill:#C6FF00;" d="M121.135,328.625c-5.67-4.159-10.981-8.785-15.88-13.83c-6.66-7.17-3.07-18.95-3.07-18.95
					s4.61,4.08,11.78,11.26c7.17,7.18,7.17,12.3,7.17,12.3V328.625z"/>
				<path style="fill:#C6FF00;" d="M114.015,355.295c-4.427-5.444-8.388-11.251-11.84-17.36c-4.63-8.62,1.82-19.11,1.82-19.11
					s3.43,5.12,8.55,13.88c5.12,8.76,3.82,13.71,3.82,13.71L114.015,355.295z"/>
				<path style="fill:none;stroke:#263238;stroke-linecap:round;stroke-linejoin:round;" d="M109.365,370.865
					c0,0,9.92-30.71,11.81-42.05s-4.72-20.79-6.9-37.78s5.96-34.03,3.12-47.26c-2.84-13.23-9.92-22.68-12.76-37.33
					c-0.956-5.26-1.624-10.568-2-15.9"/>
				
					<line style="fill:none;stroke:#263238;stroke-linecap:round;stroke-linejoin:round;" x1="96.075" y1="198.055" x2="103.805" y2="203.985"/>
				
					<line style="fill:none;stroke:#263238;stroke-linecap:round;stroke-linejoin:round;" x1="106.685" y1="191.405" x2="103.445" y2="197.155"/>
				<path style="fill:none;stroke:#263238;stroke-linecap:round;stroke-linejoin:round;" d="M103.805,233.465
					c6.65,4.85,13.12,9.7,13.12,9.7"/>
				<path style="fill:none;stroke:#263238;stroke-linecap:round;stroke-linejoin:round;" d="M125.195,215.485
					c-6.11,7.01-11.5,17.58-11.5,17.58"/>
				<path style="fill:none;stroke:#263238;stroke-linecap:round;stroke-linejoin:round;" d="M99.855,268.295
					c5.482,5.479,10.14,11.724,13.83,18.54"/>
				<path style="fill:none;stroke:#263238;stroke-linecap:round;stroke-linejoin:round;" d="M126.265,274.435
					c0,0-0.54,0.72-4.32,6.29c-2.694,4.234-5.035,8.682-7,13.3"/>
				<path style="fill:none;stroke:#263238;stroke-linecap:round;stroke-linejoin:round;" d="M107.755,307.145
					c2.785,3.083,5.311,6.391,7.55,9.89c2.243,3.771,4.192,7.71,5.83,11.78"/>
				<path style="fill:none;stroke:#263238;stroke-linecap:round;stroke-linejoin:round;" d="M105.075,329.215
					c1.25,2.74,4.3,9.52,7,14.74c1.641,3.541,2.311,7.455,1.94,11.34"/>
				<path style="fill:#C6FF00;" d="M149.245,266.075c-3.106-3.221-5.936-6.696-8.46-10.39c-3.4-5.22,0.13-12.22,0.13-12.22
					s2.46,3.08,6.17,8.35c3.71,5.27,3.16,8.48,3.16,8.48L149.245,266.075z"/>
				<path style="fill:#C6FF00;" d="M139.245,285.005c-3.105-3.225-5.934-6.704-8.46-10.4c-3.4-5.22,0.13-12.22,0.13-12.22
					s2.45,3.08,6.17,8.35c3.72,5.27,3.16,8.48,3.16,8.48L139.245,285.005z"/>
				<path style="fill:#C6FF00;" d="M147.365,271.355c4.21-1.555,8.281-3.462,12.17-5.7c5.33-3.23,5.18-11.07,5.18-11.07
					s-3.53,1.71-9.17,4.85c-5.64,3.14-6.53,6.28-6.53,6.28L147.365,271.355z"/>
				<path style="fill:#C6FF00;" d="M134.835,293.475c4.335-1.107,8.57-2.575,12.66-4.39c5.64-2.65,6.32-10.46,6.32-10.46
					s-3.69,1.31-9.63,3.86c-5.94,2.55-7.16,5.55-7.16,5.55L134.835,293.475z"/>
				<path style="fill:#C6FF00;" d="M133.025,319.905c4.007-1.994,7.84-4.318,11.46-6.95c5-3.77,4-11.55,4-11.55
					s-3.35,2.07-8.62,5.79s-5.83,6.93-5.83,6.93L133.025,319.905z"/>
				<path style="fill:#C6FF00;" d="M131.055,325.995c-2.614-3.631-4.918-7.474-6.89-11.49c-2.62-5.65,1.87-12.08,1.87-12.08
					s1.98,3.39,4.91,9.14c2.93,5.75,1.93,8.85,1.93,8.85L131.055,325.995z"/>
				<path style="fill:#C6FF00;" d="M124.545,352.125c-3.889-2.216-7.585-4.755-11.05-7.59c-4.73-4.05-3.32-11.76-3.32-11.76
					s3.22,2.26,8.27,6.27c5.05,4.01,5.43,7.25,5.43,7.25L124.545,352.125z"/>
				<path style="fill:#C6FF00;" d="M124.185,344.075c4.005-1.996,7.839-4.321,11.46-6.95c5-3.77,4-11.55,4-11.55
					s-3.33,2.08-8.61,5.79c-5.28,3.71-5.83,6.93-5.83,6.93L124.185,344.075z"/>
				<path style="fill:#C6FF00;" d="M125.765,361.635c3.374-2.939,6.496-6.157,9.33-9.62c3.84-4.91,0.93-12.18,0.93-12.18
					s-2.71,2.85-6.87,7.78c-4.16,4.93-3.88,8.18-3.88,8.18L125.765,361.635z"/>
				<path style="fill:none;stroke:#263238;stroke-linecap:round;stroke-linejoin:round;" d="M127.035,371.885
					c0,0-2.88-20.33-2.84-27.65c0.04-7.32,5.26-12.5,8.43-22.94c3.17-10.44,0.01-22,3.17-30c3.16-8,8.63-13.12,12-22
					c1.179-3.196,2.18-6.454,3-9.76"/>
				
					<line style="fill:none;stroke:#263238;stroke-linecap:round;stroke-linejoin:round;" x1="154.085" y1="264.955" x2="148.595" y2="267.835"/>
				
					<line style="fill:none;stroke:#263238;stroke-linecap:round;stroke-linejoin:round;" x1="148.165" y1="259.635" x2="149.565" y2="263.595"/>
				<path style="fill:none;stroke:#263238;stroke-linecap:round;stroke-linejoin:round;" d="M145.365,286.295
					c-4.66,2.35-9.25,4.69-9.25,4.69"/>
				<path style="fill:none;stroke:#263238;stroke-linecap:round;stroke-linejoin:round;" d="M133.935,272.725
					c2.186,3.9,3.966,8.015,5.31,12.28"/>
				<path style="fill:none;stroke:#263238;stroke-linecap:round;stroke-linejoin:round;" d="M144.055,308.615
					c-4.033,2.832-7.634,6.234-10.69,10.1"/>
				<path style="fill:none;stroke:#263238;stroke-linecap:round;stroke-linejoin:round;" d="M126.835,309.575c0,0,0.24,0.51,2,4.42
					c1.251,2.945,2.254,5.989,3,9.1"/>
				<path style="fill:none;stroke:#263238;stroke-linecap:round;stroke-linejoin:round;" d="M114.695,340.325
					c1.187,1.21,2.467,2.323,3.83,3.33c2.148,1.864,4.126,3.915,5.91,6.13"/>
				<path style="fill:none;stroke:#263238;stroke-linecap:round;stroke-linejoin:round;" d="M134.925,332.095
					c-2.081,1.631-4.024,3.431-5.81,5.38c-1.816,2.122-3.464,4.383-4.93,6.76"/>
				<path style="fill:none;stroke:#263238;stroke-linecap:round;stroke-linejoin:round;" d="M134.215,346.255
					c-1.08,1.55-3.74,5.48-6,8.48c-1.411,2.044-2.257,4.424-2.45,6.9"/>
				<path style="opacity:0.2;" d="M103.285,201.125c5.669-4.159,10.981-8.786,15.88-13.83c6.66-7.22,3.07-19,3.07-19
					s-4.61,4.1-11.78,11.27s-7.17,12.29-7.17,12.29V201.125z"/>
				<path style="opacity:0.2;" d="M113.695,233.075c5.67-4.159,10.981-8.785,15.88-13.83c6.65-7.17,3.07-18.95,3.07-18.95
					s-4.61,4.09-11.78,11.26c-7.17,7.17-7.17,12.29-7.17,12.29V233.075z"/>
				<path style="opacity:0.2;" d="M104.705,209.715c-6.077-3.539-11.847-7.579-17.25-12.08c-7.38-6.43-5.06-18.52-5.06-18.52
					s5.02,3.63,12.91,10c7.89,6.37,8.43,11.47,8.43,11.47L104.705,209.715z"/>
				<path style="opacity:0.2;" d="M118.255,247.375c-6.413-2.878-12.574-6.286-18.42-10.19c-8-5.62-7-17.89-7-17.89
					s5.36,3.03,13.88,8.55s9.59,10.52,9.59,10.52L118.255,247.375z"/>
				<path style="opacity:0.2;" d="M113.945,288.815c-5.669-4.159-10.981-8.785-15.88-13.83c-6.66-7.21-3.07-19-3.07-19
					s4.61,4.09,11.78,11.27c7.17,7.18,7.17,12.3,7.17,12.3V288.815z"/>
				<path style="opacity:0.2;" d="M121.135,328.625c-5.67-4.159-10.981-8.785-15.88-13.83c-6.66-7.17-3.07-18.95-3.07-18.95
					s4.61,4.08,11.78,11.26c7.17,7.18,7.17,12.3,7.17,12.3V328.625z"/>
				<path style="opacity:0.2;" d="M149.245,266.075c-3.106-3.221-5.936-6.696-8.46-10.39c-3.4-5.22,0.13-12.22,0.13-12.22
					s2.46,3.08,6.17,8.35c3.71,5.27,3.16,8.48,3.16,8.48L149.245,266.075z"/>
				<path style="opacity:0.2;" d="M137.085,270.735c-3.72-5.27-6.17-8.35-6.17-8.35s-0.49,0.973-0.929,2.462
					c-0.296-0.798-0.511-1.262-0.511-1.262s-3.98,4.71-10.06,12.83c-6.08,8.12-5.35,13.19-5.35,13.19l1.3,9.13
					c5.025-4.922,9.628-10.257,13.76-15.95c1.53-2.209,2.243-4.653,2.477-7.037c2.318,3.268,4.864,6.369,7.643,9.257l1-5.79
					C140.244,279.215,140.804,276.005,137.085,270.735z"/>
				<path style="opacity:0.2;" d="M147.365,271.355c4.21-1.555,8.281-3.462,12.17-5.7c5.33-3.23,5.18-11.07,5.18-11.07
					s-3.53,1.71-9.17,4.85c-5.64,3.14-6.53,6.28-6.53,6.28L147.365,271.355z"/>
				<path style="opacity:0.2;" d="M134.835,293.475c4.335-1.107,8.57-2.575,12.66-4.39c5.64-2.65,6.32-10.46,6.32-10.46
					s-3.69,1.31-9.63,3.86c-5.94,2.55-7.16,5.55-7.16,5.55L134.835,293.475z"/>
				<path style="opacity:0.2;" d="M133.025,319.905c4.007-1.994,7.84-4.318,11.46-6.95c5-3.77,4-11.55,4-11.55s-3.35,2.07-8.62,5.79
					s-5.83,6.93-5.83,6.93L133.025,319.905z"/>
				<path style="opacity:0.2;" d="M131.055,325.995c-2.614-3.631-4.918-7.474-6.89-11.49c-2.62-5.65,1.87-12.08,1.87-12.08
					s1.98,3.39,4.91,9.14c2.93,5.75,1.93,8.85,1.93,8.85L131.055,325.995z"/>
				<path style="opacity:0.2;" d="M124.545,352.125l-0.67-5.83c0,0-0.38-3.24-5.43-7.25c-1.658-1.317-3.114-2.44-4.328-3.362
					c-0.442-0.938-0.958-1.929-1.572-2.978c-5.12-8.76-8.55-13.88-8.55-13.88s-6.45,10.49-1.82,19.11
					c3.452,6.109,7.413,11.916,11.84,17.36l2.271-8.582C118.924,348.684,121.681,350.493,124.545,352.125z"/>
				<path style="opacity:0.2;" d="M124.185,344.075c4.005-1.996,7.839-4.321,11.46-6.95c5-3.77,4-11.55,4-11.55
					s-3.33,2.08-8.61,5.79c-5.28,3.71-5.83,6.93-5.83,6.93L124.185,344.075z"/>
				<path style="opacity:0.2;" d="M125.765,361.635c3.374-2.939,6.496-6.157,9.33-9.62c3.84-4.91,0.93-12.18,0.93-12.18
					s-2.71,2.85-6.87,7.78c-4.16,4.93-3.88,8.18-3.88,8.18L125.765,361.635z"/>
			</g>
		</g>
	</g>
</g>
<g id="Board">
	<g>
		<g>
			<g>
				<rect x="100.404" y="66.377" style="fill:#263238;" width="302.734" height="162.1"/>
				<rect x="108.624" y="75.027" style="fill:#FFFFFF;" width="286.553" height="145.531"/>
				
					<line style="fill:none;stroke:#263238;stroke-linecap:round;stroke-linejoin:round;stroke-miterlimit:10;" x1="195.056" y1="84.997" x2="195.056" y2="200.418"/>
				
					<line style="fill:none;stroke:#263238;stroke-linecap:round;stroke-linejoin:round;stroke-miterlimit:10;" x1="292.601" y1="84.997" x2="292.601" y2="204.367"/>
				
					<line style="fill:none;stroke:#263238;stroke-linecap:round;stroke-linejoin:round;stroke-miterlimit:10;" x1="133.639" y1="108.447" x2="361.063" y2="108.447"/>
				<g>
					<path style="fill:#263238;" d="M148.097,90.89h-3.215v-1.524h8.23v1.524h-3.214v8.175h-1.801V90.89z"/>
					<path style="fill:#263238;" d="M152.937,95.365c0-2.217,1.663-3.783,3.935-3.783c2.301,0,3.949,1.566,3.949,3.783
						c0,2.217-1.648,3.796-3.949,3.796C154.6,99.162,152.937,97.582,152.937,95.365z M159.075,95.365
						c0-1.414-0.943-2.314-2.203-2.314c-1.247,0-2.189,0.9-2.189,2.314c0,1.413,0.943,2.314,2.189,2.314
						C158.133,97.679,159.075,96.778,159.075,95.365z"/>
					<path style="fill:#263238;" d="M173.561,88.784v10.281h-1.662v-0.956c-0.582,0.707-1.441,1.053-2.453,1.053
						c-2.148,0-3.741-1.497-3.741-3.796c0-2.301,1.594-3.783,3.741-3.783c0.956,0,1.801,0.319,2.383,0.998v-3.797H173.561z
						 M171.857,95.365c0-1.414-0.956-2.314-2.203-2.314c-1.247,0-2.203,0.9-2.203,2.314c0,1.413,0.956,2.314,2.203,2.314
						C170.901,97.679,171.857,96.778,171.857,95.365z"/>
					<path style="fill:#263238;" d="M175.229,95.365c0-2.217,1.663-3.783,3.935-3.783c2.3,0,3.949,1.566,3.949,3.783
						c0,2.217-1.649,3.796-3.949,3.796C176.892,99.162,175.229,97.582,175.229,95.365z M181.367,95.365
						c0-1.414-0.943-2.314-2.203-2.314c-1.247,0-2.189,0.9-2.189,2.314c0,1.413,0.942,2.314,2.189,2.314
						C180.425,97.679,181.367,96.778,181.367,95.365z"/>
				</g>
				<g>
					<path style="fill:#263238;" d="M223.805,89.365h4.24c3.146,0,5.293,1.94,5.293,4.85c0,2.91-2.148,4.85-5.293,4.85h-4.24V89.365
						z M227.962,97.54c2.161,0,3.561-1.316,3.561-3.326c0-2.009-1.4-3.325-3.561-3.325h-2.356v6.651H227.962z"/>
					<path style="fill:#263238;" d="M234.48,95.365c0-2.217,1.663-3.783,3.935-3.783c2.3,0,3.949,1.566,3.949,3.783
						c0,2.217-1.649,3.796-3.949,3.796C236.143,99.162,234.48,97.582,234.48,95.365z M240.618,95.365
						c0-1.414-0.943-2.314-2.203-2.314c-1.247,0-2.189,0.9-2.189,2.314c0,1.413,0.942,2.314,2.189,2.314
						C239.676,97.679,240.618,96.778,240.618,95.365z"/>
					<path style="fill:#263238;" d="M243.796,89.407c0-0.582,0.471-1.039,1.108-1.039c0.637,0,1.109,0.429,1.109,0.997
						c0,0.61-0.458,1.081-1.109,1.081C244.267,90.446,243.796,89.989,243.796,89.407z M244.031,91.666h1.732v7.399h-1.732V91.666z"
						/>
					<path style="fill:#263238;" d="M255.326,94.825v4.24h-1.732v-4.018c0-1.317-0.652-1.953-1.76-1.953
						c-1.233,0-2.065,0.748-2.065,2.23v3.741h-1.732v-7.399h1.649v0.956c0.568-0.679,1.469-1.039,2.55-1.039
						C254.01,91.582,255.326,92.594,255.326,94.825z"/>
					<path style="fill:#263238;" d="M264.946,91.666v6.276c0,2.689-1.399,3.908-3.991,3.908c-1.385,0-2.757-0.361-3.602-1.053
						l0.776-1.302c0.651,0.54,1.705,0.887,2.729,0.887c1.636,0,2.356-0.748,2.356-2.245v-0.388c-0.609,0.665-1.483,0.984-2.48,0.984
						c-2.12,0-3.741-1.441-3.741-3.589c0-2.148,1.621-3.561,3.741-3.561c1.039,0,1.954,0.333,2.563,1.067v-0.984H264.946z
						 M263.243,95.144c0-1.247-0.942-2.092-2.245-2.092c-1.317,0-2.259,0.845-2.259,2.092c0,1.261,0.942,2.12,2.259,2.12
						C262.301,97.263,263.243,96.404,263.243,95.144z"/>
				</g>
				<g>
					<path style="fill:#263238;" d="M315.856,89.365h4.24c3.146,0,5.294,1.94,5.294,4.85c0,2.91-2.148,4.85-5.294,4.85h-4.24V89.365
						z M320.013,97.54c2.161,0,3.561-1.316,3.561-3.326c0-2.009-1.4-3.325-3.561-3.325h-2.356v6.651H320.013z"/>
					<path style="fill:#263238;" d="M326.531,95.365c0-2.217,1.663-3.783,3.935-3.783c2.3,0,3.949,1.566,3.949,3.783
						c0,2.217-1.648,3.796-3.949,3.796C328.194,99.162,326.531,97.582,326.531,95.365z M332.67,95.365
						c0-1.414-0.942-2.314-2.203-2.314c-1.247,0-2.189,0.9-2.189,2.314c0,1.413,0.942,2.314,2.189,2.314
						C331.728,97.679,332.67,96.778,332.67,95.365z"/>
					<path style="fill:#263238;" d="M343.371,94.825v4.24h-1.732v-4.018c0-1.317-0.651-1.953-1.76-1.953
						c-1.233,0-2.065,0.748-2.065,2.23v3.741h-1.732v-7.399h1.649v0.956c0.568-0.679,1.469-1.039,2.55-1.039
						C342.055,91.582,343.371,92.594,343.371,94.825z"/>
					<path style="fill:#263238;" d="M352.576,95.919h-5.805c0.208,1.081,1.108,1.774,2.396,1.774c0.832,0,1.483-0.263,2.009-0.803
						l0.928,1.067c-0.666,0.79-1.705,1.205-2.98,1.205c-2.48,0-4.088-1.594-4.088-3.796c0-2.203,1.621-3.783,3.825-3.783
						c2.162,0,3.741,1.511,3.741,3.824C352.604,95.545,352.591,95.753,352.576,95.919z M346.757,94.77h4.199
						c-0.139-1.067-0.957-1.801-2.093-1.801C347.741,92.968,346.924,93.689,346.757,94.77z"/>
				</g>
				<g>
					<path style="fill:#C6FF00;stroke:#263238;stroke-miterlimit:10;" d="M136.786,123.506c0,0-2.78,5.945,1.277,13.211
						l10.602-1.214c0,0-1.729-9.769-1.636-13.43L136.786,123.506z"/>
					<path style="fill:#FFFFFF;stroke:#263238;stroke-miterlimit:10;" d="M136.786,122.885l10.243-0.813
						c0,0,0.687,5.853,2.569,10.406l-10.373,1.301C139.225,133.779,137.112,128.088,136.786,122.885z"/>
					<path style="fill:#C6FF00;stroke:#263238;stroke-miterlimit:10;" d="M151.79,142.14l10.243-0.813c0,0,0.687,5.853,2.569,10.406
						l-10.373,1.301C154.229,153.034,152.115,147.343,151.79,142.14z"/>
					<path style="fill:#FFFFFF;stroke:#263238;stroke-miterlimit:10;" d="M154.642,162.269l10.243-0.813
						c0,0,0.687,5.853,2.569,10.406l-10.373,1.301C157.081,173.163,154.967,167.472,154.642,162.269z"/>
					<path style="fill:#FFFFFF;stroke:#263238;stroke-miterlimit:10;" d="M165.75,122.807l11.469-0.735c0,0-0.26,6.351,1.946,12.232
						l-11.357,1.319C167.809,135.624,165.75,132.512,165.75,122.807z"/>
					<path style="fill:#C6FF00;stroke:#263238;stroke-miterlimit:10;" d="M167.454,120.962l11.469-0.735
						c0,0-0.26,6.351,1.946,12.233l-11.357,1.319C169.513,133.779,167.454,130.667,167.454,120.962z"/>
					<path style="fill:#263238;" d="M176.495,123.588c0,0.368-0.298,0.665-0.665,0.665c-0.367,0-0.665-0.298-0.665-0.665
						s0.298-0.666,0.665-0.666C176.197,122.922,176.495,123.22,176.495,123.588z"/>
					<path style="fill:#263238;" d="M144.993,124.919c0,0.368-0.298,0.665-0.665,0.665c-0.368,0-0.665-0.298-0.665-0.665
						s0.298-0.665,0.665-0.665C144.696,124.253,144.993,124.551,144.993,124.919z"/>
					<path style="fill:#263238;" d="M157.48,143.908c0,0.368-0.298,0.665-0.665,0.665c-0.367,0-0.665-0.298-0.665-0.665
						c0-0.367,0.298-0.665,0.665-0.665C157.182,143.242,157.48,143.54,157.48,143.908z"/>
					<path style="fill:#FFFFFF;stroke:#263238;stroke-miterlimit:10;" d="M172.458,145.612l9.819-1.039
						c0,0-0.149,4.915,1.938,13.116l-10.053,0.895C174.162,158.584,172.33,153.962,172.458,145.612z"/>
					<path style="fill:#FFFFFF;stroke:#263238;stroke-miterlimit:10;" d="M130.078,148.317c0,0-4.579,8.063,0.61,16.269l10.43-1.219
						c0,0-2.691-9.477-1.149-15.57L130.078,148.317z"/>
					<path style="fill:#C6FF00;stroke:#263238;stroke-miterlimit:10;" d="M130.078,148.317l9.891-0.52c0,0-0.202,4.846,1.591,12.31
						l-9.951,1.349C131.609,161.456,129.05,158.343,130.078,148.317z"/>
					<path style="fill:#263238;" d="M136.523,150.102c0,0.368-0.298,0.665-0.665,0.665c-0.368,0-0.665-0.298-0.665-0.665
						c0-0.367,0.298-0.665,0.665-0.665C136.225,149.437,136.523,149.735,136.523,150.102z"/>
					<path style="fill:#263238;" d="M180.497,147.181c0,0.368-0.298,0.665-0.665,0.665c-0.368,0-0.665-0.298-0.665-0.665
						c0-0.368,0.298-0.665,0.665-0.665C180.199,146.515,180.497,146.813,180.497,147.181z"/>
					<path style="fill:#263238;" d="M163.589,163.921c0,0.367-0.298,0.665-0.665,0.665c-0.367,0-0.665-0.298-0.665-0.665
						c0-0.368,0.298-0.665,0.665-0.665C163.291,163.256,163.589,163.554,163.589,163.921z"/>
				</g>
				<path style="fill:#C6FF00;stroke:#263238;stroke-miterlimit:10;" d="M213.654,152.391l10.243-0.813
					c0,0,0.687,5.853,2.569,10.406l-10.373,1.301C216.093,163.285,213.979,157.594,213.654,152.391z"/>
				<path style="fill:#FFFFFF;stroke:#263238;stroke-miterlimit:10;" d="M216.267,176.48l10.243-0.813c0,0,0.687,5.853,2.569,10.406
					l-10.373,1.301C218.706,187.374,216.592,181.683,216.267,176.48z"/>
				<path style="fill:#FFFFFF;stroke:#263238;stroke-miterlimit:10;" d="M251.901,122.807l11.469-0.735c0,0-0.26,6.351,1.946,12.232
					l-11.357,1.319C253.959,135.624,251.901,132.512,251.901,122.807z"/>
				<path style="fill:#C6FF00;stroke:#263238;stroke-miterlimit:10;" d="M253.605,120.962l11.47-0.735c0,0-0.26,6.351,1.946,12.233
					l-11.357,1.319C255.663,133.779,253.605,130.667,253.605,120.962z"/>
				<path style="fill:#263238;" d="M262.646,123.588c0,0.368-0.298,0.665-0.665,0.665c-0.368,0-0.665-0.298-0.665-0.665
					s0.298-0.666,0.665-0.666C262.348,122.922,262.646,123.22,262.646,123.588z"/>
				<path style="fill:#263238;" d="M219.343,154.159c0,0.368-0.298,0.665-0.665,0.665c-0.367,0-0.665-0.298-0.665-0.665
					c0-0.367,0.298-0.665,0.665-0.665C219.046,153.493,219.343,153.791,219.343,154.159z"/>
				<path style="fill:#FFFFFF;stroke:#263238;stroke-miterlimit:10;" d="M236.489,150.226l9.819-1.039c0,0-0.149,4.915,1.938,13.116
					l-10.053,0.895C238.193,163.197,236.361,158.575,236.489,150.226z"/>
				<path style="fill:#263238;" d="M244.527,151.794c0,0.368-0.298,0.665-0.665,0.665c-0.368,0-0.665-0.298-0.665-0.665
					c0-0.368,0.298-0.665,0.665-0.665C244.229,151.129,244.527,151.427,244.527,151.794z"/>
				<path style="fill:#263238;" d="M223.339,178.252c0,0.368-0.298,0.666-0.665,0.666c-0.368,0-0.665-0.298-0.665-0.666
					c0-0.367,0.298-0.665,0.665-0.665C223.041,177.586,223.339,177.884,223.339,178.252z"/>
				<g>
					<path style="fill:#C6FF00;stroke:#263238;stroke-miterlimit:10;" d="M314.988,122.885l10.243-0.813
						c0,0,0.687,5.853,2.569,10.406l-10.373,1.301C317.427,133.779,315.313,128.088,314.988,122.885z"/>
					<path style="fill:#C6FF00;stroke:#263238;stroke-miterlimit:10;" d="M332.844,162.269l10.243-0.813
						c0,0,0.687,5.853,2.569,10.406l-10.373,1.301C335.283,173.163,333.169,167.472,332.844,162.269z"/>
					<path style="fill:#C6FF00;stroke:#263238;stroke-miterlimit:10;" d="M345.656,120.962l11.47-0.735c0,0-0.26,6.351,1.946,12.233
						l-11.357,1.319C347.715,133.779,345.656,130.667,345.656,120.962z"/>
					<path style="fill:#263238;" d="M354.697,123.588c0,0.368-0.298,0.665-0.665,0.665s-0.665-0.298-0.665-0.665
						s0.298-0.666,0.665-0.666S354.697,123.22,354.697,123.588z"/>
					<path style="fill:#263238;" d="M323.195,124.919c0,0.368-0.298,0.665-0.666,0.665c-0.367,0-0.665-0.298-0.665-0.665
						s0.298-0.665,0.665-0.665C322.897,124.253,323.195,124.551,323.195,124.919z"/>
					<path style="fill:#C6FF00;stroke:#263238;stroke-miterlimit:10;" d="M308.28,148.317l9.891-0.52c0,0-0.202,4.846,1.591,12.31
						l-9.951,1.349C309.81,161.456,307.252,158.343,308.28,148.317z"/>
					<path style="fill:#263238;" d="M314.724,150.102c0,0.368-0.298,0.665-0.665,0.665s-0.665-0.298-0.665-0.665
						c0-0.367,0.298-0.665,0.665-0.665S314.724,149.735,314.724,150.102z"/>
					<path style="fill:#263238;" d="M341.79,163.921c0,0.367-0.298,0.665-0.665,0.665c-0.368,0-0.665-0.298-0.665-0.665
						c0-0.368,0.298-0.665,0.665-0.665C341.493,163.256,341.79,163.554,341.79,163.921z"/>
				</g>
				<polygon style="opacity:0.2;" points="100.404,67.232 108.63,75.03 108.63,220.563 100.404,228.477 				"/>
				<polygon style="opacity:0.2;" points="403.137,66.377 403.137,227.737 395.178,220.563 395.178,75.03 				"/>
			</g>
			
				<line style="fill:none;stroke:#263238;stroke-linecap:round;stroke-linejoin:round;stroke-miterlimit:10;" x1="207.008" y1="121.76" x2="228.564" y2="120.227"/>
			
				<line style="fill:none;stroke:#263238;stroke-linecap:round;stroke-linejoin:round;stroke-miterlimit:10;" x1="207.008" y1="125.685" x2="228.564" y2="124.152"/>
			
				<line style="fill:none;stroke:#263238;stroke-linecap:round;stroke-linejoin:round;stroke-miterlimit:10;" x1="207.008" y1="129.61" x2="228.564" y2="128.077"/>
			<path style="fill:none;stroke:#263238;stroke-linecap:round;stroke-linejoin:round;stroke-miterlimit:10;" d="M259.99,160.889
				c1.012-3.602,4.28-6.187,7.773-7.53c7.18-2.759,14.417,0.136,16.99,7.546c1.878,5.406,1.445,12.468-3.539,16.003
				c-4.042,2.868-10.032,3.697-14.73,2.158c-3.708-1.214-6.837-4.823-6.432-8.704"/>
			<path style="fill:none;stroke:#263238;stroke-linecap:round;stroke-linejoin:round;stroke-miterlimit:10;" d="M281.389,135.58
				c-1.298,5.178-2.563,10.364-3.796,15.558"/>
			<path style="fill:none;stroke:#263238;stroke-linecap:round;stroke-linejoin:round;stroke-miterlimit:10;" d="M274.099,145.485
				c0.695,2.149,1.679,4.205,2.918,6.093c2.078-0.674,3.819-2.312,5.076-4.098"/>
			<path style="fill:#C6FF00;stroke:#263238;stroke-miterlimit:10;" d="M266.478,161.892l10.243-0.813c0,0,0.687,5.853,2.569,10.406
				l-10.373,1.301C268.917,172.786,266.803,167.095,266.478,161.892z"/>
		</g>
		<path style="fill:#263238;" d="M272.168,163.659c0,0.368-0.298,0.666-0.665,0.666c-0.368,0-0.665-0.298-0.665-0.666
			c0-0.367,0.298-0.665,0.665-0.665C271.87,162.994,272.168,163.292,272.168,163.659z"/>
	</g>
</g>
<g id="Character_1">
	<g>
		<g>
			<path style="fill:#C6FF00;" d="M188.678,439.501c0.45,1.378,1.149,2.494,2.223,2.952c3.972,1.703,11.204-0.991,16.308-2.269
				c5.104-1.274,16.162-5.104,17.157-9.359c0.183-0.783,0.137-1.415-0.075-1.919c-0.945-2.236-5.204-2.048-7.865-2.048
				c-3.264,0-11.204-0.853-13.473-1.844c-2.269-0.991-14.888,5.104-14.888,5.104S187.462,435.779,188.678,439.501z"/>
			<path style="fill:#C6FF00;" d="M160.188,427.902v0.004c0.458,1.241,1.278,2.215,2.64,2.635c3.685,1.137,5.671-1.132,7.656-3.543
				c1.986-2.411,4.109-2.977,7.232-5.246c3.01-2.19,3.376-6.628,1.869-7.694c-0.054-0.046-0.112-0.079-0.171-0.108
				c-1.699-0.849-8.081,1.42-8.081,1.42l-9.784-1.607c0,0-0.708,3.593-1.416,6.994C159.684,422.906,159.405,425.783,160.188,427.902
				z"/>
			<path style="fill:#FDFEFF;" d="M160.188,427.906c0.458,1.241,1.278,2.215,2.64,2.635c3.685,1.137,5.671-1.132,7.656-3.543
				c1.986-2.411,4.109-2.977,7.232-5.246c3.01-2.19,3.376-6.628,1.869-7.694c0.358,1.711-0.187,3.564-1.174,5.029
				c-1.099,1.636-2.685,2.873-4.288,4.022c-1.599,1.149-3.256,2.252-4.58,3.714c-0.637,0.704-1.695,0.912-2.473,1.453
				c-1.158,0.808-2.186,1.553-3.56,1.241C162.299,429.247,161.191,428.643,160.188,427.906z"/>
			<path style="fill:#FDFEFF;" d="M188.678,439.501c0.45,1.378,1.149,2.494,2.223,2.952c3.972,1.703,10.904,0.548,16.308-2.269
				c5.104-1.274,16.162-5.104,17.157-9.359c0.183-0.783,0.137-1.415-0.075-1.919c-0.566,1.224-2.09,2.973-5.937,5.046
				c-7.636,4.114-18.102,6.603-21.791,7.203C194.099,441.554,190.676,440.346,188.678,439.501z"/>
			<g>
				<path style="fill:#263238;" d="M163.111,263.121c-0.468-0.266-10.919,27.116-11.186,28.269
					c-1.034,4.459-1.433,9.066-1.036,13.631c0.733,8.445,4.17,16.501,9.367,23.159c4.978,6.378,15.525,15.985,12.003,25.142
					c-2.152,5.594-16.783,30.985-12.91,61.54c0,0,4.614,7.746,13.281,0l8.237-16.784l6.455,30.985c0,0,8.607,9.468,15.923,0
					c-0.452-16.753,0.897-32.644,4.785-48.892c3.979-16.629,7.214-33.437,9.693-50.356c1.133-7.737,3.018-15.921,2.029-23.703
					c-1.042-8.199-9.976-31.61-12.977-39.318C206.772,266.796,197.109,282.486,163.111,263.121z"/>
				<path style="fill:none;stroke:#FDFEFF;stroke-linecap:round;stroke-linejoin:round;stroke-miterlimit:10;" d="M178.212,372.424
					c-0.642,4.935,0.28,10.303,1.122,15.171"/>
				<path style="fill:none;stroke:#FDFEFF;stroke-linecap:round;stroke-linejoin:round;stroke-miterlimit:10;" d="M172.48,309.81
					l9.382,3.649c0,0,3.473,26.119,3.473,31.09c0,3.371-3.556,12.71-5.716,21.043"/>
			</g>
			<path style="fill:none;stroke:#263238;stroke-miterlimit:10;" d="M188.678,428.285c0,0-1.508,6.868,0,11.216
				c1.508,4.349,4.831,4.015,8.68,4.027c3.85,0.012,18.701-6.156,22.669-7.854c3.967-1.699,5.571-5.478,4.265-6.768
				c-1.306-1.29-2.077-1.652-7.865-2.048c-5.788-0.396-11.751-0.43-13.473-1.844"/>
			<path style="fill:none;stroke:#263238;stroke-miterlimit:10;" d="M188.678,439.501c0,0,4.579,2.571,9.887,1.273
				c5.308-1.298,23.74-6.859,25.726-11.869"/>
			<path style="fill:none;stroke:#263238;stroke-miterlimit:10;" d="M161.235,416.155c0,0-1.897,6.365-1.533,8.857
				c0.364,2.493-0.102,5.246,4.19,5.765c4.291,0.519,6.551-3.965,7.542-4.789c0.991-0.824,6.767-3.531,8.305-6.683
				c0.602-1.233,0.906-2.689,0.462-4.023c-0.551-1.656-1.753-1.588-3.252-1.335c-1.9,0.321-3.777,0.852-5.616,1.422"/>
			<path style="fill:none;stroke:#263238;stroke-miterlimit:10;" d="M159.944,428.187c1.87,0.676,3.911,1.358,5.803,0.747
				c2.208-0.712,3.509-2.941,5.343-4.361c0.667-0.516,1.407-0.927,2.125-1.37c1.69-1.045,3.279-2.3,4.464-3.894
				c1.185-1.595,1.95-2.915,1.865-4.9"/>
		</g>
		<g>
			<g>
				<path style="fill:#FFFFFF;" d="M257.048,204.498c0,0,0.943-4.125,3.978-4.996c3.035-0.871,4.17,1.141,5.61,0.112
					s2.836-5.03,4.021-5.919c1.185-0.889,2.925-2.592,3.963-2.485c1.038,0.108-1.232,3.073-1.232,3.073s2.31-0.129,2.082,0.802
					c-0.228,0.93-0.873,2.023-0.873,2.023s1.754-0.716,3.113-2.21c1.359-1.494,3.155-3.447,5.426-2.11c0,0,1.364,0.67,0.718,1.549
					s-2.541,6.859-5.02,8.326c-2.479,1.467-6.087,1.572-8.177,1.835c-2.09,0.264-10.186,5.788-10.186,5.788l-3.424-4.041V204.498z"
					/>
				<path style="fill:none;stroke:#263238;stroke-linecap:round;stroke-linejoin:round;stroke-miterlimit:10;" d="M260.664,210.285
					c2.458-2.504,5.03-3.601,7.991-5.091c2.021-1.017,4.448-0.589,6.67-0.859c2.876-0.349,4.227-2.183,5.57-4.608
					c1.068-1.927,1.916-4.533,3.457-5.902c-0.827-0.154-1.685-0.214-2.49,0.063c-1.515,0.521-2.644,2.167-3.733,3.554
					c-1.119,1.427-2.606,2.418-4.195,2.797c-0.145,0.035-0.301,0.063-0.435-0.014c-0.389-0.222-0.189-0.939,0.062-1.364
					c0.56-0.949,1.12-1.897,1.681-2.846c0.162-0.275,0.333-0.617,0.228-0.93c-0.135-0.404-0.595-0.42-0.948-0.346
					c-1.662,0.351-3.252,1.194-4.595,2.438c-1.136,1.051-2.242,2.454-3.667,2.48c-0.67,0.012-1.312-0.294-1.968-0.463
					c-1.752-0.451-3.664,0.139-5.03,1.552c-1.366,1.412-2.372,2.79-2.296,4.973"/>
				<path style="fill:none;stroke:#263238;stroke-linecap:round;stroke-linejoin:round;stroke-miterlimit:10;" d="M283.484,193.517
					c0.044-0.542-0.462-0.889-0.896-1.019c-0.912-0.272-1.91-0.241-2.749,0.275c-0.605,0.372-1.093,0.969-1.59,1.532
					c-1.246,1.413-2.611,2.669-4.067,3.743"/>
				<path style="fill:none;stroke:#263238;stroke-linecap:round;stroke-linejoin:round;stroke-miterlimit:10;" d="M268.077,198.586
					c1.602-2.184,2.499-4.965,4.667-6.589c0.551-0.412,1.19-0.74,1.876-0.787c0.077-0.005,0.164-0.003,0.216,0.054
					c0.073,0.08,0.026,0.208-0.023,0.304c-0.63,1.227-1.275,2.446-1.933,3.658c0.043-0.086,0.087-0.172,0.131-0.258"/>
			</g>
			<path style="fill:#C6FF00;" d="M261.026,211.415l-0.02,0.029c-0.659,1.17-21.73,38.723-25.366,40.885
				c-3.695,2.202-3.892,1.327-6.408,0.079c-2.526-1.238-19.568-19.125-19.568-19.125l-1.671,7.548l-3.872,17.445l11.332,29.199
				c-11.165,7.902-30.074,9.366-30.074,9.366l-4.206-16.609l-7.784,15.086c-4.737-0.668-9.681-2.663-13.808-4.727
				c-5.572-2.791-9.651-5.73-9.651-5.73l10.86-25.966c-3.872,2.408-7.568,3.184-10.801,3.115
				c-6.899-0.118-11.725-4.049-11.725-4.049c-0.02-7.342,1.022-16.02,2.368-23.961c1.985-11.686,4.619-21.759,5.445-23.597
				c1.396-3.086,9.553-12.324,9.553-12.324c3.892-2.32,12.344-3.626,12.344-3.626l-1.474-7.971c1.966-0.875,3.931-1.386,5.857-1.622
				c1.936-0.246,3.843-0.216,5.641,0c0.334,0.039,0.658,0.079,0.983,0.138c7.381,1.16,12.914,5.189,12.914,5.189l0.029,5.769
				c7.509,1.386,19.047,8.197,21.818,10.457c2.771,2.26,16.855,23.558,16.855,23.558l25.111-25.474L261.026,211.415z"/>
			<path style="opacity:0.2;" d="M261.621,212.108c-0.659,1.169-21.73,38.723-25.366,40.885c-3.695,2.202-3.892,1.327-6.408,0.079
				c-2.526-1.238-19.568-19.125-19.568-19.125l5.307-22.998c0,0,14.27,21.907,17.346,30.477L261.621,212.108z"/>
			<path style="opacity:0.2;" d="M178.981,184.86v9.848c0,0-12.904,7.676-15.066,12.148c-2.162,4.482,0.462,38.182,12.138,50.408
				l-4.953-0.472l-11.518,33.799c-5.572-2.791-9.651-5.73-9.651-5.73l10.86-25.966c-3.872,2.408-7.568,3.184-10.801,3.115
				c0.619-2.388,5.916-24.354-9.356-28.01c1.985-11.686,4.619-21.759,5.445-23.597c1.396-3.086,9.553-12.324,9.553-12.324
				c3.892-2.32,12.344-3.626,12.344-3.626l-1.474-7.971c1.966-0.875,3.931-1.386,5.857-1.622H178.981z"/>
			<path style="fill:#FFFFFF;" d="M191.761,147.306c0,0,4.676,2.047,5.426,5.78s1.32,7.757,3.425,9.325
				c2.105,1.568,3.176,2.147,2.427,3.467c-0.749,1.319-1.101,1.71-1.101,1.71s1.93,12.986-0.316,14.595
				c-2.246,1.609-8.239-1.792-8.239-1.792s-3.371,1.336-3.882,5.333c-0.512,3.997-0.071,2.723-0.071,2.723s-9.134-4.482-18.388-2.91
				l0.339-11.641C171.38,173.895,177.702,143.875,191.761,147.306z"/>
			<path style="fill:#263238;" d="M196.143,161.561c0.119,0.903-0.113,1.678-0.518,1.732c-0.405,0.053-0.829-0.635-0.949-1.539
				c-0.119-0.903,0.113-1.678,0.518-1.732C195.599,159.969,196.024,160.658,196.143,161.561z"/>
			<path style="fill:none;stroke:#263238;stroke-linecap:round;stroke-linejoin:round;stroke-miterlimit:10;" d="M187.657,144.098
				c0,0,9.291,5.252,9.948,10.505c0.656,5.253,1.576,7.101,4.333,8.737c2.758,1.637,0,4.247,0,4.247s1.26,13.151-0.316,14.595
				c-1.576,1.444-10.015-1.048-13.965-6.982"/>
			<path style="opacity:0.6;fill:#FFFFFF;" d="M186.195,186.809l0.22,8.108c0,0,15.683,11.318,20.441,15.773l-1.796,42.501
				l10.314-44.65c0,0-9.222-10.513-23.45-12.587l-0.029-5.767C191.896,190.189,188.362,187.58,186.195,186.809z"/>
			<path style="fill:none;stroke:#263238;stroke-linecap:round;stroke-linejoin:round;stroke-miterlimit:10;" d="M192.763,180.01
				c-1.307,1.117-2.382,2.43-2.863,4.077c-0.387,1.326-0.551,2.251-0.703,3.831"/>
			<path style="fill:none;stroke:#263238;stroke-linecap:round;stroke-linejoin:round;stroke-miterlimit:10;" d="M186.815,166.275
				c0,0-3.669-3.868-5.56-2.935c-1.89,0.933-2.891,4.53-1.334,9.07c1.557,4.539,5.51,5.087,7.735,3.091"/>
			<path style="fill:none;stroke:#263238;stroke-linecap:round;stroke-linejoin:round;stroke-miterlimit:10;" d="M171.38,178.927
				c-0.061,2.196-0.165,4.108-0.339,6.137"/>
			<path style="fill:#263238;" d="M186.815,166.275c0,0,9.046-6.637,8.256-16.56c0,0-4.934-8.388-16.752-8.388
				c-11.818,0-17.016,4.144-18.791,12.739c-1.775,8.595-2.696,20.562,4.518,24.861c7.213,4.299,14.608,1.008,16.436-5.097
				c0,0-3.515-6.99-0.068-9.824C182.985,161.893,186.815,166.275,186.815,166.275z"/>
			<path style="fill:none;stroke:#263238;stroke-linecap:round;stroke-linejoin:round;stroke-miterlimit:10;" d="M167.8,193.836
				l-1.73-7.352c0,0,14.665-5.35,25.826,3.705v5.429"/>
			<path style="fill:none;stroke:#263238;stroke-linecap:round;stroke-linejoin:round;stroke-miterlimit:10;" d="M204.119,257.266
				l11.338,30.207c0,0-14.95,9.023-30.075,9.367l-4.206-16.609l-7.787,15.083c-7.312-1.848-16.122-3.182-23.464-10.454l11.69-26.497
				l-16.482-46.742l10.5-13.538c0,0,9.582-6.329,30.781-3.165c21.199,3.165,29.042,13.268,29.042,13.268L204.119,257.266z"/>
			<path style="fill:none;stroke:#263238;stroke-linecap:round;stroke-linejoin:round;stroke-miterlimit:10;" d="M204.119,257.266
				c0,0-4.696,2.281-12.382,0"/>
			<path style="fill:none;stroke:#263238;stroke-linecap:round;stroke-linejoin:round;stroke-miterlimit:10;" d="M191.211,260.977
				c4.049,0.466,8.258-0.632,11.562-3.018"/>
			<g style="opacity:0.3;">
				<path style="fill:none;stroke:#FFFFFF;stroke-linecap:round;stroke-linejoin:round;stroke-miterlimit:10;" d="M162.815,151.073
					c1.649-1.808,4.1-2.635,6.478-3.213c3.054-0.742,6.248-1.191,9.337-0.612c3.089,0.579,6.079,2.313,7.577,5.076"/>
				<path style="fill:none;stroke:#FFFFFF;stroke-linecap:round;stroke-linejoin:round;stroke-miterlimit:10;" d="M162.39,154.279
					c1.46,6.723,7.31,12.269,14.102,13.367"/>
			</g>
			<path style="fill:none;stroke:#263238;stroke-linecap:round;stroke-linejoin:round;stroke-miterlimit:10;" d="M215.457,208.185
				l15.14,21.786c0,0,2.831,7.548,1.258,14.781"/>
			<path style="fill:none;stroke:#263238;stroke-linecap:round;stroke-linejoin:round;stroke-miterlimit:10;" d="M230.598,229.971
				l25.107-25.474l5.322,6.919c0,0-13.142,28.011-25.388,40.916c-1.724,1.817-4.619,1.83-6.41,0.079l-19.568-19.131"/>
			<path style="fill:none;stroke:#263238;stroke-linecap:round;stroke-linejoin:round;stroke-miterlimit:10;" d="M145.134,211.62
				c0,0-7.442,30.434-6.867,46.339c0,0,10.199,9.33,23.348,0.404"/>
			<path style="fill:none;stroke:#263238;stroke-linecap:round;stroke-linejoin:round;stroke-miterlimit:10;" d="M156.552,244.002
				c-0.561,3.538-1.799,6.5-3.629,9.58"/>
			<g>
				<path style="fill:#263238;" d="M157.531,158.178c-1.135,2.666-1.382,5.618-1.498,8.513c-0.532,13.336,1.431,26.667,1.112,40.01
					c-0.11,4.591-0.519,9.294-2.472,13.451c-1.952,4.157-5.727,7.711-10.286,8.268c-2.156,0.263-4.348-0.147-6.406-0.842
					c-3.122-1.054-6.048-2.795-8.247-5.248c-2.499-2.786-3.969-6.381-4.673-10.056c-0.9-4.7-0.601-9.625,0.864-14.18
					c2.851-8.87,9.767-15.764,14.369-23.866c2.266-3.99,3.976-8.296,5.063-12.754c0.876-3.592,1.545-7.617,4.436-9.921
					c1.882-1.5,4.423-1.966,6.822-1.776c1.651,0.131,5.808,0.298,5.361,2.729C161.657,154.249,158.358,156.234,157.531,158.178z"/>
				<g style="opacity:0.3;">
					<path style="fill:none;stroke:#FFFFFF;stroke-linecap:round;stroke-linejoin:round;stroke-miterlimit:10;" d="M159.688,153.497
						c-2.838,0.554-5.447,2.208-7.158,4.539c-1.449,1.974-2.238,4.349-2.858,6.718c-4.181,15.965-1.591,32.962-4.422,49.221
						c-0.856,4.919-2.402,10.065-6.223,13.278"/>
					<path style="fill:none;stroke:#FFFFFF;stroke-linecap:round;stroke-linejoin:round;stroke-miterlimit:10;" d="M139.053,190.373
						c0.672-0.999,1.363-1.984,2.067-2.956c0.433-0.598,0.876-1.214,1.296-1.847"/>
					<path style="fill:none;stroke:#FFFFFF;stroke-linecap:round;stroke-linejoin:round;stroke-miterlimit:10;" d="M133.02,223.083
						c-2.763-5.782-2.691-12.628-0.884-18.776c0.861-2.927,2.086-5.719,3.54-8.401"/>
				</g>
			</g>
		</g>
	</g>
</g>
<g id="Character_2">
	<g>
		<g>
			<path style="fill:#FFFFFF;" d="M333.567,222.116c0,0,1.22-4.522-0.573-8.454c-1.793-3.932-4.364-8.113-4.364-8.113
				s0.37-6.297-1.24-8.455c-1.61-2.158-6.62-9.969-7.8-10.055c-1.18-0.086-1.004,5.356,1.03,8.94l-0.332,2.437
				c0,0-7.591-3.909-9.873-4.814c-2.282-0.906-8.01-3.458-9.223-2.325c-1.212,1.133,7.654,4.232,9.223,6.745
				c0,0-14.112-1.48-13.85,0.395c0.262,1.875,5.045,2.173,5.045,2.173s-1.477,0.269-1.068,1.44c0.408,1.172,10.76,3.518,10.76,3.518
				s3.471,6.063,11.353,9.376C330.536,218.236,333.567,222.116,333.567,222.116z"/>
			<path style="fill:none;stroke:#263238;stroke-linecap:round;stroke-linejoin:round;stroke-miterlimit:10;" d="M334.63,221.268
				c-0.15-7.89-6-15.72-6-15.72s0.49-7.02-2.18-9.86c-0.43-0.45-0.87-0.98-1.31-1.55c-0.41-0.52-0.82-1.08-1.23-1.65
				c-1.89-2.61-3.63-5.35-4.32-5.45c-0.89-0.13-0.62,4.8,0.3,7.08c0.12,0.29,0.24,0.53,0.38,0.72c0.24,0.33,0.34,0.71,0.35,1.14
				c0.07,1.73-1.24,4.14,0.11,6.36"/>
			<path style="fill:none;stroke:#263238;stroke-linecap:round;stroke-linejoin:round;stroke-miterlimit:10;" d="M320.288,198.415
				c0,0-16.841-9.387-19.747-6.634c0,0,9.041,4.308,9.874,6.239"/>
			<path style="fill:none;stroke:#263238;stroke-linecap:round;stroke-linejoin:round;stroke-miterlimit:10;" d="M313.542,202.488
				c0,0-10.247-3.212-13-1.529c-2.753,1.682,10.76,4.588,10.76,4.588s4.849,7.261,8.287,6.852"/>
			<path style="fill:none;stroke:#263238;stroke-linecap:round;stroke-linejoin:round;stroke-miterlimit:10;" d="M300.542,200.958
				c0,0-4.13-0.651-3.977-2.543c0.153-1.893,13.001-1.988,18.048,1.271"/>
			<g>
				<path style="fill:#263238;" d="M320.27,194.839c0.24,0.33,0.34,0.71,0.35,1.14l-11.09,4.53c-0.12,0.05-0.25,0.08-0.38,0.08
					c-0.39,0-0.77-0.24-0.92-0.63c-0.21-0.51,0.03-1.09,0.54-1.3l11.12-4.54C320.01,194.408,320.13,194.648,320.27,194.839z"/>
				<path style="fill:#263238;" d="M331.17,191.678l-6.03,2.46c-0.41-0.52-0.82-1.08-1.23-1.65l6.51-2.66
					c0.51-0.21,1.09,0.03,1.3,0.55C331.93,190.889,331.69,191.469,331.17,191.678z"/>
			</g>
		</g>
		<g>
			<polygon style="fill:#FFFFFF;" points="330.246,211.13 299.9,214.742 290.327,223.051 313.266,267.329 346.502,265.078 
				348.851,254.12 			"/>
			<polygon style="fill:#263238;" points="330.246,211.13 326.452,218.716 346.502,265.078 348.851,254.12 			"/>
			<polygon style="opacity:0.9;fill:#FFFFFF;" points="330.246,211.13 326.452,218.716 346.502,265.078 348.851,254.12 			"/>
			<g>
				<polygon style="fill:#263238;" points="290.327,223.051 326.452,218.716 346.502,265.078 313.266,267.329 				"/>
				<polygon style="opacity:0.6;fill:#FFFFFF;" points="290.327,223.051 326.452,218.716 346.502,265.078 313.266,267.329 				"/>
			</g>
			<polygon style="fill:none;stroke:#263238;stroke-linecap:round;stroke-linejoin:round;stroke-miterlimit:10;" points="
				326.452,218.716 290.327,223.051 313.266,267.329 346.502,265.078 			"/>
			
				<line style="fill:none;stroke:#263238;stroke-linecap:round;stroke-linejoin:round;stroke-miterlimit:10;" x1="326.452" y1="218.716" x2="330.246" y2="211.13"/>
			<polyline style="fill:none;stroke:#263238;stroke-linecap:round;stroke-linejoin:round;stroke-miterlimit:10;" points="
				346.502,265.078 348.851,254.12 330.246,211.13 299.9,214.742 290.327,223.051 			"/>
		</g>
		<g>
			<path style="fill:#FFFFFF;" d="M313.616,249.269c0,0-1.302-6.485-4.901-7.995c-3.6-1.51-14.586-0.395-15,1.84
				s3.774,4.676,3.774,4.676s-0.613,7.373,3.399,10.091c4.012,2.718,10.98,1.467,10.98,1.467l3.643,0.93l1.975-10.525
				L313.616,249.269z"/>
			<path style="fill:none;stroke:#263238;stroke-linecap:round;stroke-linejoin:round;stroke-miterlimit:10;" d="M315.039,249.013
				l-1.423,0.255c0,0-1.478-7.66-5.51-8.332c-4.032-0.672-14.783,0.269-14.38,2.957c0.403,2.688,3.763,3.897,3.763,3.897
				s-0.134,8.87,4.166,10.483c4.301,1.613,10.214,1.075,10.214,1.075c-0.666-0.299,0.547,0.15,1.947,0.504"/>
		</g>
		<g>
			<path style="fill:#C6FF00;" d="M404.087,415.441l0.534,12.404c0,0-8.782,5.372-12.862,4.005
				c-4.081-1.367-17.258-8.338-17.258-8.338s-0.604-7.132,7.44-7.027c8.044,0.104,19.117,4.456,19.117,4.456L404.087,415.441z"/>
			<path style="opacity:0.2;" d="M404.087,415.441l0.534,12.404c0,0-8.782,5.372-12.862,4.005
				c-4.081-1.367-17.258-8.338-17.258-8.338s-0.604-7.132,7.44-7.027c8.044,0.104,19.117,4.456,19.117,4.456L404.087,415.441z"/>
			<path style="fill:#FFFFFF;" d="M378.206,418.247c0,0,5.156,2.855,8.288,3.829c3.131,0.974,4.568,0.755,4.568,0.755l1.249-0.869
				l1.742-0.868l0.593-1.923l-5.086-1.082C389.56,418.089,381.93,416.721,378.206,418.247z"/>
			<path style="fill:#FFFFFF;" d="M375.249,420.611l-0.749,2.902c0,0,10.095,7.154,15.864,7.984
				c5.769,0.83,14.256-3.651,14.256-3.651l-0.08-1.861c0,0-5.178,2.944-9.974,3.153S375.249,420.611,375.249,420.611z"/>
			<path style="fill:none;stroke:#263238;stroke-linecap:round;stroke-linejoin:round;stroke-miterlimit:10;" d="M394.811,418.751
				c0,0-12.236-1.652-16.341-0.584c-4.105,1.067-3.969,5.346-3.969,5.346s13.994,9.497,19.726,8.433
				c5.732-1.064,10.394-4.101,10.394-4.101v-13.138"/>
			<path style="fill:none;stroke:#263238;stroke-linecap:round;stroke-linejoin:round;stroke-miterlimit:10;" d="M375.249,420.611
				c0,0,14.46,8.706,19.317,8.526c4.857-0.18,10.055-3.871,10.055-3.871"/>
			<path style="fill:none;stroke:#263238;stroke-linecap:round;stroke-linejoin:round;stroke-miterlimit:10;" d="M377.895,418.685
				c4.403,0.709,6.812,4.161,11.267,4.363c2.389,0.109,4.787-1.242,5.932-3.341"/>
		</g>
		<g>
			<path style="fill:#C6FF00;" d="M353.375,421.665l-0.364,17.645c0,0-9.742,2.419-15.144,0.391
				c-5.402-2.027-16.504-16.333-16.504-16.333s3.317-6.464,10.395-3.757c7.078,2.707,16.716,7.43,16.716,7.43L353.375,421.665z"/>
			<path style="opacity:0.2;" d="M353.375,421.665l-0.364,17.645c0,0-9.742,2.419-15.144,0.391
				c-5.402-2.027-16.504-16.333-16.504-16.333s3.317-6.464,10.395-3.757c7.078,2.707,16.716,7.43,16.716,7.43L353.375,421.665z"/>
			<path style="fill:#FFFFFF;" d="M321.363,423.368l1.178-2.279c0,0,6.735,7.147,8.282,8.641c1.547,1.493,6.014,5.818,9.835,7.16
				c3.821,1.342,11.845-0.073,11.845-0.073l0.509,2.493c0,0-11.829,1.882-14.587,0.603
				C335.667,438.635,324.415,428.417,321.363,423.368z"/>
			<path style="fill:#FFFFFF;" d="M327.211,418.751c0,0,4.5,3.691,6.013,5.006c1.513,1.315,4.071,3.339,6.552,3.283
				c2.481-0.056,5.157-1.844,5.157-1.844l-6.122-2.739C338.81,422.457,330.269,417.891,327.211,418.751z"/>
			<path style="fill:none;stroke:#263238;stroke-linecap:round;stroke-linejoin:round;stroke-miterlimit:10;" d="M340.112,423.368
				c0,0-7.654-4.43-12.565-4.612c-4.911-0.182-6.184,4.612-6.184,4.612s12.035,16.305,18.749,17.033
				c6.715,0.728,12.899-1.091,12.899-1.091l0.364-14.551"/>
			<path style="fill:none;stroke:#263238;stroke-linecap:round;stroke-linejoin:round;stroke-miterlimit:10;" d="M322.659,420.942
				c0,0,12.267,14.427,17.318,15.786c5.051,1.36,13.099,0,13.099,0"/>
			<path style="fill:none;stroke:#263238;stroke-linecap:round;stroke-linejoin:round;stroke-miterlimit:10;" d="M325.983,418.911
				c2.107,0.317,3.897,1.683,5.453,3.137c1.556,1.454,3.016,3.068,4.886,4.089c1.87,1.021,4.315,1.332,6.066,0.119"/>
		</g>
		<path style="fill:#FFFFFF;" d="M351.732,150.152c0,0-6.958,6.203-7.652,10.418c-0.693,4.215,1.6,9.158,1.408,11.036
			c-0.192,1.877-3.777,5.537-3.16,6.659c0.617,1.122,2.8,3.148,2.8,3.148s-0.425,9.061,4.97,12.306l2.525,0.591l11.418-6.224
			l1.78,1.964l16.319-3.011c0,0-1.833-3.384-2.06-8.017c-0.227-4.633,2.06-13.55,2.06-13.55l-4.626-9.488L351.732,150.152z"/>
		<path style="fill:#C6FF00;" d="M392.36,267.328l5.88,23.43c0,0-4.57,2.36-10.79,5.33c-11.15,5.33-27.61,12.64-32.64,11.95
			c-7.83-1.08-26.18-20.15-26.18-20.15l11.18-24.32c0,0-23.41,0.72-27.92-0.79c0,0-1.24-9.03,1.95-16.7l28.38,1.41l0.28-2.41
			c0,0,5.87-20.77,9.43-28.83c3.57-8.06,7.56-15.29,7.56-15.29l7.16-5.27l-2.05-5.4c0,0,8.35-6.12,17.32-5.92h0.02
			c2.85,0.06,5.76,0.76,8.49,2.5l-1.67,5.68c0,0,15.37,18.05,17.72,24.08C408.83,222.648,397.76,254.689,392.36,267.328z"/>
		<path style="opacity:0.2;" d="M337.574,268.441l20.584,3.587c0,0,13.191-11.388,17.824-39.96c0,0-9.847,24.36-17.707,30.708
			l-18.464,0.792L337.574,268.441z"/>
		<path style="opacity:0.2;" d="M392.36,267.328l5.88,23.43c0,0-4.679,1.807-10.899,4.777c-1.36-6.97-3.001-13.307-5.141-20.087
			c-0.28-0.87-0.57-1.77-1.15-2.48c-0.74-0.9-1.29-1.93-2.3-2.5c-2.58-1.45-6.12-4.29-7.65-6.83c4.57,0.93,9.99,3.11,14.65,2.87
			c0.58-0.03,1.21-0.1,1.63-0.5c0.34-0.33,0.48-0.81,0.59-1.26c1.95-7.5,3.89-14.99,5.83-22.48c0.67-2.57,1.34-5.17,1.26-7.82
			c-0.1-3.34-1.38-6.52-2.65-9.62c-3.21-7.84-6.45-15.66-9.73-23.48c-0.47-1.13-0.99-2.31-1.99-3.02c-0.81-0.58-1.83-0.77-2.82-0.92
			c-3.42-0.52-7.76-1.59-11.22-1.72c3.92-3.26,9.66-4.63,14.71-5.29c0.52-1.96,0.71-4,0.56-6.03h0.02c2.85,0.06,5.76,0.76,8.49,2.5
			l-1.67,5.68c0,0,15.37,18.05,17.72,24.08C408.83,222.648,397.76,254.689,392.36,267.328z"/>
		<path style="fill:#263238;" d="M351.114,167.561c0.121,0.919-0.115,1.708-0.527,1.762c-0.412,0.054-0.844-0.647-0.965-1.566
			s0.115-1.708,0.526-1.762S350.993,166.642,351.114,167.561z"/>
		<path style="fill:none;stroke:#263238;stroke-linecap:round;stroke-linejoin:round;stroke-miterlimit:10;" d="M369.512,176.598
			l5.604-1.537c0,0,1.412-5.994,0.785-9.574c-0.627-3.58-5.42-3.866-6.866-3.752c-1.446,0.114-1.177,5.452-1.177,5.452"/>
		<path style="fill:none;stroke:#263238;stroke-linecap:round;stroke-linejoin:round;stroke-miterlimit:10;" d="M349.419,151.796
			l-5.339,8.774c-0.415,0.682-0.557,1.497-0.395,2.279l1.803,8.756c0.184,0.893-0.026,1.818-0.576,2.545
			c-0.988,1.305-2.48,3.374-2.583,4.114c-0.09,0.644,0.901,1.444,1.751,2.003c0.739,0.486,1.24,1.25,1.384,2.123
			c0.472,2.851,0.684,5.735,2.692,8.886c2.635,4.133,5.935,2.843,5.935,2.843l9.951-6.033c0.785-0.503,3.126-8.835,3.126-8.835"/>
		<path style="fill:none;stroke:#263238;stroke-linecap:round;stroke-linejoin:round;stroke-miterlimit:10;" d="M347.274,162.643
			c0,0,3.182-3.854,6.244,0.247"/>
		<path style="fill:#263238;" d="M348.987,182.183c0,0,8.169-5.326,9.393-7.965c0,0,0.672,7.812-2.552,9.2
			C352.603,184.806,348.987,182.183,348.987,182.183z"/>
		<path style="fill:none;stroke:#263238;stroke-linecap:round;stroke-linejoin:round;stroke-miterlimit:10;" d="M381.076,184.405
			c0,0-2.129-6.909-0.882-11.518"/>
		<path style="fill:#263238;" d="M332.113,291.366c0,0-0.342,30.353,2.178,68.513c2.52,38.16,6.12,65.88,6.12,65.88
			s8.28,6.84,14.76,0l11.16-99l25.2,92.16c0,0,4.976,4.415,9.296,2.255c4.32-2.16,6.184-6.215,6.184-6.215
			s-11.412-99.632-11.412-123.032c0,0-36.108,16.832-40.788,16.112S332.113,291.366,332.113,291.366z"/>
		<polyline style="fill:none;stroke:#FFFFFF;stroke-linecap:round;stroke-linejoin:round;stroke-miterlimit:10;" points="
			366.33,326.759 366.33,320.234 375.377,315.786 		"/>
		<path style="fill:none;stroke:#263238;stroke-linecap:round;stroke-linejoin:round;stroke-miterlimit:10;" d="M375.377,265.078
			c0,0,5.229,3.753,15.487,4.503"/>
		<path style="fill:none;stroke:#263238;stroke-linecap:round;stroke-linejoin:round;stroke-miterlimit:10;" d="M375.377,269.581
			c0,0,5.979,2.001,13.235,0"/>
		<path style="fill:#263238;" d="M367.769,165.218c-0.686-0.534,0.739,5.463-3.176,5.743c-0.867,0.062-1.76,0.096-2.353-0.54
			c-0.592-0.636-0.868-1.496-1.126-2.326c-0.685-2.2-1.371-4.401-2.056-6.601c-0.444-1.426-0.963-2.958-2.19-3.811
			c-0.844-0.587-1.898-0.757-2.878-1.066c-2.248-0.71-4.376-2.514-4.54-4.866c0,0-8.823,0.78-10.173-2.631
			c-2.055-5.195,1.244-7.48,5.765-7.442c4.521,0.038,8.676,2.181,13.547,0.536s15.35-5.753,17.554-0.719c0,0,3.8-1.687,6.065,4.621
			c2.265,6.308,7.494,19.051,2.739,22.912c-4.754,3.86-3.642,6.31-5.891,6.009c-2.249-0.302-2.918-3.708-2.918-3.708
			s1.206-7.974-3.875-9.258C367.183,160.785,367.769,165.218,367.769,165.218z"/>
		<path style="fill:none;stroke:#263238;stroke-linecap:round;stroke-linejoin:round;stroke-miterlimit:10;" d="M373.263,136.825
			c0,0,3.227,1.369,2.277,5.367"/>
		<polygon style="opacity:0.6;fill:#FFFFFF;" points="366.65,195.489 365.015,190.225 370.37,187.347 371.725,193.012 		"/>
		<path style="fill:none;stroke:#263238;stroke-linecap:round;stroke-linejoin:round;stroke-miterlimit:10;" d="M376.144,141.494
			c0,0,4.055-2.687,7.381,1.014"/>
		<path style="fill:none;stroke:#263238;stroke-linecap:round;stroke-linejoin:round;stroke-miterlimit:10;" d="M366.481,195.243
			l-1.885-4.959c0,0,7.986-4.993,16.105-5.829c3.508-0.361,6.353,1.307,9.73,2.413l-1.673,5.684"/>
		<path style="fill:none;stroke:#263238;stroke-linecap:round;stroke-linejoin:round;stroke-miterlimit:10;" d="M339.813,263.572
			l-11.181,24.32c5.311,6.709,23.683,19.182,26.179,20.147c2.496,0.965,43.425-17.28,43.425-17.28l-5.87-23.429
			c0,0,17.331-41.775,14.645-49.415c-2.686-7.64-17.72-25.904-20.795-27.582c-3.075-1.677-10.838,1.118-10.838,1.118
			s-10.947,4.309-14.813,8.175c-3.867,3.867-13.042,25.861-14.848,35.396"/>
		<path style="fill:none;stroke:#263238;stroke-linecap:round;stroke-linejoin:round;stroke-miterlimit:10;" d="M342.223,247.489
			l-28.378-1.411c-4.178,10.044-1.95,16.699-1.95,16.699c8.357,1.95,46.38,0,46.38,0c8.773-8.914,19.239-34.264,19.239-34.264
			s1.249-7.735-3.287-15.997"/>
		<path style="opacity:0.6;fill:#FFFFFF;" d="M366.65,204.9l-1.975,6.23c0,0-22.793,32.877-22.225,39.3
			c0,0-0.398-3.144,3.665-16.447c4.063-13.303,12.159-24.692,12.159-24.692L366.65,204.9z"/>
		<path style="fill:none;stroke:#263238;stroke-linecap:round;stroke-linejoin:round;stroke-miterlimit:10;" d="M344.408,255.533
			c0,0-2.782-4.022-2.085-9.456c0.696-5.433,8.568-25.644,15.952-36.787l9.564-5.014"/>
		
			<line style="fill:none;stroke:#263238;stroke-linecap:round;stroke-linejoin:round;stroke-miterlimit:10;" x1="365.31" y1="189.797" x2="364.041" y2="188.085"/>
	</g>
</g>
</svg>
