<?xml version="1.0" encoding="utf-8"?>
<!-- Generator: Adobe Illustrator 27.5.0, SVG Export Plug-In . SVG Version: 6.00 Build 0)  -->
<svg version="1.1" id="Capa_1" xmlns="http://www.w3.org/2000/svg" xmlns:xlink="http://www.w3.org/1999/xlink" x="0px" y="0px"
	 viewBox="0 0 425.2 425.2" style="enable-background:new 0 0 425.2 425.2;" xml:space="preserve">
<g>
	<rect x="0.002" y="0.001" style="fill:#FFFFFF;" width="425.197" height="425.198"/>
	<linearGradient id="SVGID_1_" gradientUnits="userSpaceOnUse" x1="213.8828" y1="405.9764" x2="213.8828" y2="56.341">
		<stop  offset="0.1237" style="stop-color:#1FAB9B"/>
		<stop  offset="0.251" style="stop-color:#35AE9B"/>
		<stop  offset="0.4495" style="stop-color:#5AB59A"/>
		<stop  offset="0.6944" style="stop-color:#84C298"/>
		<stop  offset="0.9738" style="stop-color:#B7D895"/>
		<stop  offset="1" style="stop-color:#BCDB95"/>
	</linearGradient>
	<path style="fill:url(#SVGID_1_);" d="M52.635,332.36h322.479c23.014-18.531,37.795-47.172,37.795-79.35
		c0-55.896-44.553-101.209-99.514-101.209c-0.018,0-0.037,0.002-0.057,0.002c-1.205-52.927-43.734-95.462-96.062-95.462
		c-52.416,0-95,42.676-96.07,95.725c-2.26-0.156-4.535-0.265-6.834-0.265c-54.961,0-99.514,45.313-99.514,101.209
		C14.857,285.179,29.631,313.821,52.635,332.36z"/>
	<path style="fill:#FFFFFF;" d="M289.185,118.014c-0.004,0.002,1.416-0.444-0.012,0.001c0.055-2.821-4.621-5.79-7.498-3.456
		c-1.445-4.636-6.424-6.937-10.533-4.739c-1.006-4.774-6.69-8.432-13.553-8.432c-6.836,0-11.488,3.38-12.525,8.128
		c-4.596-2.588-11.135,1.225-11.186,5.975c0,0.015,0.002,0.029,0.002,0.043c-3.174-0.488-4.385,6.786,0.662,6.786
		c1.426,0,54.197,0,55.779,0C293.957,122.319,291.986,117.05,289.185,118.014z"/>
	<path style="fill:#FFFFFF;" d="M79.574,198.455c-0.002,0.001,0.701-0.22-0.006,0c0.027-1.399-2.293-2.871-3.719-1.714
		c-0.717-2.299-3.186-3.439-5.223-2.35c-0.498-2.367-3.318-4.182-6.721-4.182c-3.391,0-5.697,1.676-6.211,4.031
		c-2.279-1.283-5.521,0.606-5.547,2.963c0,0.006,0,0.014,0,0.02c-1.572-0.242-2.174,3.365,0.33,3.365c0.707,0,26.875,0,27.66,0
		C81.939,200.59,80.963,197.977,79.574,198.455z"/>
	<path style="fill:#FFFFFF;" d="M209.217,83.185c-0.004,0.001,1.027-0.322-0.01,0c0.041-2.047-3.354-4.201-5.441-2.507
		c-1.049-3.365-4.662-5.035-7.645-3.44c-0.729-3.465-4.855-6.119-9.836-6.119c-4.961,0-8.338,2.453-9.092,5.898
		c-3.334-1.878-8.08,0.889-8.117,4.337c0,0.01,0.002,0.021,0.002,0.031c-2.303-0.355-3.184,4.925,0.48,4.925
		c1.035,0,39.336,0,40.484,0C212.68,86.31,211.248,82.485,209.217,83.185z"/>
	<path style="fill:#FFFFFF;" d="M388.654,208.699c-0.004,0.001,1.027-0.322-0.01,0c0.039-2.047-3.354-4.202-5.441-2.507
		c-1.049-3.365-4.664-5.035-7.646-3.441c-0.729-3.465-4.854-6.119-9.834-6.119c-4.963,0-8.34,2.453-9.092,5.899
		c-3.336-1.878-8.08,0.889-8.117,4.337c0,0.01,0,0.02,0,0.031c-2.303-0.355-3.182,4.925,0.48,4.925c1.035,0,39.336,0,40.484,0
		C392.115,211.824,390.685,207.999,388.654,208.699z"/>
	<path style="fill:#FFFFFF;" d="M200.295,158.08c-0.004,0.002,1.027-0.322-0.01,0c0.039-2.047-3.354-4.201-5.441-2.506
		c-1.049-3.365-4.664-5.035-7.646-3.441c-0.729-3.465-4.854-6.119-9.834-6.119c-4.963,0-8.34,2.453-9.092,5.898
		c-3.336-1.877-8.08,0.889-8.117,4.338c0,0.01,0,0.02,0,0.031c-2.303-0.355-3.182,4.924,0.48,4.924c1.035,0,39.336,0,40.484,0
		C203.756,161.205,202.326,157.381,200.295,158.08z"/>
	<path style="fill:#376431;" d="M396.904,332.197c0,12.415-84.65,22.482-189.07,22.482c-104.422,0-189.072-10.067-189.072-22.482
		c0-12.416,84.65-22.481,189.072-22.481C312.254,309.716,396.904,319.781,396.904,332.197z"/>
</g>
<g>
	<path style="fill:#BCBEC0;" d="M291.481,304.614c0,2.326-22.827,4.215-50.986,4.215c-28.158,0-50.988-1.889-50.988-4.215
		c0-2.33,22.83-4.215,50.988-4.215C268.654,300.399,291.481,302.284,291.481,304.614z"/>
	<g>
		<g>
			<path style="fill:#7A1F20;" d="M195.911,293.72c0,0,0.717,5.137,1.037,6.156c1.854,5.822,44.805,5.137,46.449,0
				c0.369-1.152,0.112-6.156,0.112-6.156H195.911z"/>
			<rect x="205.88" y="94.315" style="fill:#5B4D4D;" width="25.547" height="33.273"/>
			<path style="opacity:0.4;fill:#FFFFFF;" d="M223.105,109.372c0.151,6.799,2.292,10.181,5.948,13.339V94.315h-2.188
				C224.66,99.055,222.958,102.906,223.105,109.372z"/>
			<path style="fill:#A9ABAE;" d="M215.174,110.069c-0.399-5.896,0.985-10.981,3.226-15.754h-12.52v33.273h16.398
				C217.952,123.217,215.694,117.886,215.174,110.069z"/>
			<path style="fill:#5B4D4D;" d="M231.427,94.324H205.88c0,0,0-4.897,0-13.03c0-8.137,25.547-9.985,25.547,0
				C231.427,91.277,231.427,94.324,231.427,94.324z"/>
			<path style="fill:#A9ABAE;" d="M213.954,82.834c-0.165-2.967,0.335-5.671,1.419-8.01c-5.122,0.818-9.493,3.102-9.493,6.47
				c0,8.134,0,13.03,0,13.03h17.63C218.53,92.196,214.267,88.525,213.954,82.834z"/>
			<path style="opacity:0.4;fill:#FFFFFF;" d="M230.219,80.942c-0.834-2.711-5.429-6.258-7.125-3.96
				c-1.69,2.307,2.502,11.552,5.009,10.979C230.604,87.387,231.017,83.529,230.219,80.942z"/>
			<path style="fill:#5B4D4D;" d="M232.376,97.053c-1.811,0-26.783,0-28.021,0c-1.238,0-1.238-7.576,0-7.576
				c1.238,0,26.304,0,28.021,0C234.091,89.477,234.188,97.053,232.376,97.053z"/>
			<path style="fill:#BCBEC0;" d="M228.905,95.821c-1.999,0.286-20.822,0.28-22.298,0c-1.473-0.289-2.278-0.726-3.163-2.09
				c0.076,1.777,0.384,3.321,0.91,3.321c1.238,0,26.211,0,28.021,0c0.627,0,1.025-1.029,1.211-2.385
				C232.077,95.394,231.054,95.509,228.905,95.821z"/>
			<path style="opacity:0.4;fill:#FFFFFF;" d="M232.167,90.217c0,0.208-0.242,0.39-0.539,0.39h-26.126
				c-0.295,0-0.538-0.182-0.538-0.39l0,0c0-0.22,0.243-0.391,0.538-0.391h26.126C231.925,89.826,232.167,89.997,232.167,90.217
				L232.167,90.217z"/>
			<path style="fill:#B42627;" d="M231.164,164.032c0-9.573,0-36.639,0-36.639h-25.063c0,0,0,28.938,0,36.639
				c0,7.7-14.893,8.44-14.893,38.424c0,23.35,1.272,87.484,2.273,92.34c1.635,7.936,49.605,7.006,51.057,0
				c1.135-5.478,2.856-67.135,2.623-92.34C246.919,176.704,231.164,173.594,231.164,164.032z"/>
			<rect x="201.377" y="200.311" style="fill:#FFFFFF;" width="34.151" height="45.617"/>
			<path style="fill:#DFC9C1;" d="M205.716,294.796c-1.003-4.855-2.277-68.99-2.277-92.34c0-29.983,14.894-30.724,14.894-38.424
				c0-7.7,0-36.639,0-36.639h-12.232c0,0,0,28.938,0,36.639c0,7.7-14.893,8.44-14.893,38.424c0,23.35,1.272,87.484,2.273,92.34
				c0.93,4.502,16.805,6.15,30.615,5.449C214.5,299.739,206.374,297.983,205.716,294.796z"/>
			<path style="opacity:0.7;fill:#FFFFFF;" d="M243.573,202.456c-0.238-25.752-15.989-28.862-15.989-38.424
				c0-9.573,0-36.639,0-36.639h-5.898c0,0,0,27.065,0,36.639c0,9.562,15.753,12.672,15.998,38.424
				c0.229,25.205-1.485,86.861-2.621,92.34c-0.691,3.328-11.909,5.283-23.653,5.566c13.595,0.334,28.736-1.678,29.544-5.566
				C242.093,289.317,243.814,227.661,243.573,202.456z"/>
			<path style="opacity:0.7;fill:#FFFFFF;" d="M226.435,295.776c0,0,2.619,0,5.865-2.414c1.125-10.772,2.649-67.098,2.428-90.906
				c-0.205-21.403-11.113-27.162-14.791-33.998c-0.905,1.365-1.92,2.688-3.086,3.96c4.686,5.681,11.823,12.766,11.984,30.038
				C229.058,226.061,226.435,295.776,226.435,295.776z"/>
		</g>
		<g>
			<path style="fill:#56B9D6;" d="M287.05,302.36h-2.826c-10.043-4.008-16.398-9.057-19.842-12.435V230.13h-6.559v59.701
				c-3.492,3.379-9.932,8.486-19.916,12.529h-4.621c-0.905,0-1.639,0.732-1.639,1.635c0,0.902,0.733,1.637,1.639,1.637h53.764
				c0.903,0,1.636-0.734,1.636-1.637C288.685,303.093,287.953,302.36,287.05,302.36z"/>
			<g>
				<path style="fill:#D1D3D4;" d="M288.081,303.534h0.512c-0.203-0.674-0.805-1.174-1.543-1.174h-1.643
					C286.272,302.755,287.158,303.153,288.081,303.534z"/>
				<path style="fill:#D1D3D4;" d="M235.51,305.224c0-0.932,0.729-1.69,1.635-1.69h4.619c9.987-4.184,15.946-11.584,19.92-12.953
					c-3.86-35.904,0-60.451,0-60.451h-3.86v59.701c-3.492,3.379-9.932,8.486-19.916,12.529h-4.621c-0.905,0-1.639,0.732-1.639,1.635
					c0,0.902,0.733,1.637,1.639,1.637h2.299C235.555,305.499,235.51,305.368,235.51,305.224z"/>
			</g>
			<path style="fill:#56B9D6;" d="M297.802,158.604c0,43.892-22.424,79.474-36.697,79.474c-14.277,0-36.701-35.582-36.701-79.474
				H297.802z"/>
			<path style="fill:#752420;" d="M231.845,191.329c6.332,25.043,19.796,42.541,29.26,42.541c9.461,0,22.922-17.498,29.258-42.541
				H231.845z"/>
			<path style="fill:#9D3633;" d="M253.642,191.329c3.791,18.986,11.852,32.254,17.521,32.254c5.668,0,13.73-13.268,17.522-32.254
				H253.642z"/>
			<path style="fill:#D1D3D4;" d="M233.52,158.604h-9.117c0,43.892,22.424,79.474,36.701,79.474c1.443,0,2.977-0.381,4.557-1.084
				C251.63,230.768,233.52,198.054,233.52,158.604z"/>
			<path style="fill:#FFFFFF;" d="M292.542,158.604h2.742c-1.185,61.183-27.752,74.04-27.752,74.04s1.457-2.508,4.963-6.424
				C275.999,222.304,292.542,195.355,292.542,158.604z"/>
			<path style="fill:#FFFFFF;" d="M286.11,158.604h2.746c-1.187,62.923-27.752,76.143-27.752,76.143s1.453-2.574,4.963-6.607
				C269.572,224.11,286.11,196.397,286.11,158.604z"/>
		</g>
	</g>
</g>
<g>
	<path style="fill:#C0C2C4;" d="M183.86,294.41c-37.043,0-67.069,8.261-67.069,18.453v2.658c0,10.192,30.026,18.454,67.069,18.454
		c37.039,0,67.068-8.262,67.068-18.454v-2.658C250.929,302.671,220.899,294.41,183.86,294.41z"/>
	<g>
		<path style="fill:#C2C4C6;" d="M128.23,309.589c0,10.194,30.027,18.454,67.07,18.454c37.042,0,67.066-8.26,67.066-18.454v-2.655
			H128.23V309.589z"/>
		<path style="fill:#FFFFFF;" d="M262.366,306.934c0,10.188-30.024,18.453-67.066,18.453c-37.043,0-67.07-8.266-67.07-18.453
			c0-10.191,30.027-18.455,67.07-18.455C232.342,288.478,262.366,296.742,262.366,306.934z"/>
		<ellipse style="fill:#D5D7D8;" cx="195.3" cy="306.934" rx="56.706" ry="14.521"/>
		<path style="fill:#C0C2C4;" d="M223.652,306.934c0,4.008-12.694,7.259-28.352,7.259c-15.662,0-28.352-3.251-28.352-7.259
			c0-4.012,12.689-7.259,28.352-7.259C210.958,299.675,223.652,302.922,223.652,306.934z"/>
	</g>
	<g>
		<g>
			<path style="fill:#86AD3E;" d="M154.117,282.397c-0.248-0.017-0.518,0.414-0.706,0.569c-0.38,0.326-0.714,0.695-1.08,1.043
				c-0.682,0.645-1.645,0.532-2.498,0.748c-2.299,0.587-5.33-0.659-7.182,1.347c-1.566,1.695-0.414,2.962,1.101,3.991
				c1.21,0.823,2.196,1.729,0.058,2.125c-2.393,0.442-5.507,2.858-2.994,5.251c1.333,1.271,3.445,0.059,4.814,1.056
				c1.473,1.076-0.283,4.498,1.391,5.433c1.386,0.774,3.208-1.788,4.791-0.712c2.433,1.663-1.076,5.258,2.013,6.948
				c1.989,1.094,2.75-0.459,4.456-1.166c1.671-0.689,4.126-0.408,4.68,1.558c0.624,2.231,0.332,5.134,3.125,5.934
				c2.056,0.592,2.487-1.304,4.104-1.909c3.676-1.388,3.748,3.378,5.882,4.889c3.189,2.263,4.605-2.507,7.214-3.345
				c1.34-0.433,3.214-0.47,4.352,0.458c1.386,1.125,2.222,4.512,4.64,3.031c1.49-0.916,1.708-3.115,3.729-3.358
				c1.432-0.176,3.034-0.049,4.256,0.764c1.594,1.064,4.332,2.456,5.633-0.044c0.779-1.498-0.621-2.006,1.811-2.097
				c1.943-0.067,2.785,0.251,4.178,1.476c1.748,1.536,5.158,2.235,6.674-0.066c0.89-1.353,0.099-2.085,2.118-2.526
				c1.484-0.321,2.639-0.24,3.939,0.35c1.015,0.459,2.324,0.266,3.01-0.664c0.652-0.88-0.039-1.978,0.474-2.75
				c0.938-1.408,2.71-0.622,4.006-0.258c1.593,0.451,2.271,0.258,3.587-0.714c1.174-0.869,1.444-0.771,1.448-2.307
				c0.029-5.183,6.063-0.232,6.722-4.426c0.159-0.998-1.013-2.161-1.318-3.061c-0.606-1.761,0.528-1.303,1.73-1.696
				c1.54-0.504,2.616-2.182,2.493-3.795c-0.07-0.917-1.224-1.603-1.234-2.439c-0.014-1.201,1.65-1.112,2.485-1.347
				c1.165-0.332,2.097-0.825,2.536-2.037c0.599-1.658-0.447-5.09-2.757-4.676c-0.821,0.148-0.846,0.904-1.578,1.078
				c-0.531,0.125-1.998-0.488-2.294-0.932c-0.607-0.915,0.004-1.98-0.377-2.936c-0.365-0.94-1.398-1.422-2.333-1.601
				c-2.423-0.465-3.69,2.919-5.493,3.923c-0.478,0.268-0.66,0.318-1.246,0.318c-1.075-0.004-2.189,0.09-3.263,0.007
				c-0.559-0.044-1.131-0.323-1.644-0.545c-0.584-0.252-1.186-0.354-1.779-0.578c-1.286-0.484-2.605-0.713-3.933-1.027
				c-1.275-0.302-2.446-0.862-3.737-1.078c-1.031-0.173-2.138,0.055-3.042,0.534c-0.581,0.309-1.133,0.744-1.699,1.087
				c-0.614,0.365-1.2,0.624-1.781,1.063c-0.461,0.357-0.898,0.673-1.283,1.109c-0.481,0.549-0.997,1.13-1.575,1.58
				c-0.477,0.374-1.099,0.609-1.642,0.883c-0.803,0.401-1.63,0.815-2.495,1.038c-0.75,0.196-1.732,0.031-2.508,0.031
				c-0.92,0-1.759-0.021-2.667-0.215c-1.145-0.243-2.091-0.658-3.087-1.26c-1.133-0.676-2.183-1.488-3.38-2.056
				c-2.964-1.405-6.232-1.691-9.396-2.358c-2.539-0.535-5.128-0.358-7.715-0.358c-0.907,0-1.841-0.102-2.718,0.132
				c-0.625,0.166-1.264,0.266-1.895,0.441c-1.262,0.352-2.538,0.725-3.741,1.263c-0.554,0.248-1.04,0.511-1.635,0.632
				c-0.596,0.122-1.19,0.154-1.785,0.256c-0.753,0.13-1.746,0.315-2.512,0.104c-0.562-0.155-1.041-0.606-1.546-0.87
				c-1.175-0.62-2.389-1.238-3.663-1.603c-0.939-0.268-1.567-0.136-2.446,0.317c-0.353,0.181-0.726,0.243-1.082,0.399
				c-0.313,0.14-0.539,0.321-0.876,0.36c-0.677,0.082-1.299,0.111-1.792,0.713"/>
			<path style="fill:#9DB439;" d="M236.415,306.975c-0.381-1.047-0.561-2.188-0.364-3.184c-1.189,0.964-3.022,0.964-4.485,0.785
				c-1.623-0.201-3.667-0.785-5.275-0.25c-1.338,0.446-2.351,1.307-3.257,2.36c-1.275,1.491-2.413,3.146-4.208,4.045
				c-2.898,1.461-7.063-1.253-9.762-2.13c-1.637-0.53-4.384-1.609-6.023-0.596c-1.636,1.013-0.504,2.666-1.467,3.688
				c-0.94,0.99-3.111-0.022-4.05-0.537c-2.639-1.454-5.799-4.213-8.686-1.695c-0.988,0.861-2.031,1.668-3.428,1.387
				c-1.095-0.219-1.836-0.668-2.807-1.17c-2.953-1.535-3.68,2.085-4.179,3.96c-0.051,0.198-0.248,0.349-0.451,0.345
				c-2.108-0.066-4.875-1.466-5.507-3.645c-0.495-1.712-1.107-4.483-3.475-2.861c-0.484,0.332-1.219,0.935-1.859,0.872
				c-1.453-0.145-2.102-1.571-2.258-2.884c-0.115-0.968,0.059-2.784-1.396-2.754c-1.2,0.024-2.201,0.393-3.301,0.789
				c-1.043,0.378-2.658,1.12-3.477,0.003c-1.048-1.429,2.963-4.796-0.424-4.76c-1.092,0.014-4.427,1.291-4.593-0.938
				c-0.039-0.51,0.39-1.861-0.459-1.985c-0.525-0.075-1.016-0.221-1.534-0.324c-1.16-0.231-2.011-0.446-2.866-1.283
				c-0.269-0.263-0.119-0.671,0.208-0.784c1.89-0.666,4.267-2.617,2.695-4.828c-0.958-1.358-2.255-1.824-3.571-2.687
				c-0.279-0.181-0.563-0.386-0.816-0.596c-0.09,0.624-0.173,1.255-0.267,1.88c0.408,0.407,0.832,0.778,1.284,1.139
				c0.699,0.556,1.213,1.075,1.602,1.88c0.439,0.917-0.033,2.158-0.915,2.633c-1.415,0.759-2.846,0.782-4.404,0.552
				c-0.36-0.055-0.752-0.138-1.156-0.205c-1.486,1.022-2.374,2.651-0.669,4.275c0.379,0.365,0.827,0.518,1.301,0.588
				c1.299-1.665,3.91-2.735,5.833-1.901c0.735,0.321,1.863,1.148,1.599,2.128c-0.169,0.641-0.615,0.928-0.869,1.52
				c-0.836,1.943,0.873,1.166,1.576,1.029c2.116-0.424,4.25,0.683,3.973,3.219c-0.166,1.504-0.904,2.757-1.75,3.972
				c0.029,0.844,0.324,1.611,1.347,2.171c1.095,0.601,1.819,0.403,2.53-0.016c0.193-0.736,0.423-1.452,0.959-2.014
				c0.851-0.898,1.916-1.463,3.18-1.531c1.258-0.063,2.826,0.095,3.749,1.074c1.109,1.17,0.948,1.996,0.992,3.477
				c0.078,2.448,2.511,0.549,3.304,0.398c0.543-0.101,1.116-0.221,1.673-0.101c0.851,0.179,1.66,0.619,2.083,1.419
				c0.349,0.651,0.549,1.365,0.642,2.093c1.222,1.138,1.74,3.515,3.135,4.505c1.677,1.19,2.865,0.435,3.994-0.671
				c0.22-0.498,0.342-1.057,0.378-1.751c0.036-0.672,0.036-1.44,0.279-2.083c0.468-1.212,1.116-2.08,2.251-2.739
				c2.284-1.318,5.026,0.145,6.233,2.148c1.367,2.265,2.707-0.831,3.998-1.418c0.742-0.337,1.934-0.264,2.564,0.296
				c0.906,0.815,1.327,1.896,1.7,2.947c0.992,0.045,1.979,0.274,2.792,0.82c0.67,0.448,1.543,0.951,2.425,1.201
				c0.661-1.098,1.416-2.019,1.499-3.567c0.05-0.989,0.066-1.965,0.559-2.852c1.337-2.414,5.496-0.891,7.088,0.285
				c0.828,0.617,1.666,1.641,2.907,0.998c0.55-0.286,0.968-0.385,1.585-0.4c0.73-0.023,1.281,0.439,1.625,1.025
				c0.504,0.853,0.506,1.839,0.4,2.847c0.069-0.085,0.145-0.172,0.207-0.269c0.89-1.353,0.099-2.085,2.118-2.526
				c0.664-0.145,1.267-0.201,1.845-0.175c0.056-1.009,0.392-1.932,1.264-2.576c0.403-0.3,1.045-0.141,1.43-0.434
				c0.51-0.391,0.626-1.403,0.736-1.98c0.135-0.752,0.311-1.567,1.09-1.928c2.282-1.06,4.762,0.102,6.863,1.101
				c0.915,0.432,1.923,0.87,2.883,1.122c0.265-0.287,0.349-0.635,0.353-1.472c0-0.082,0.009-0.153,0.013-0.232
				C236.91,307.353,236.54,307.31,236.415,306.975z"/>
			<path style="fill:#9DB439;" d="M247.161,287.547c-0.496-0.02-0.994-0.014-1.497-0.014c-1.446-0.006-2.858-0.802-2.947-2.226
				c-1.124,0.935-1.819,1.854-0.756,3.353c0.308,0.436,0.759,1.065,0.601,1.656c-0.154,0.542-0.768,1.255-1.172,1.589
				c-1.262,1.042-0.438,2.016-0.097,3.276c0.173,0.625,0.063,1.118-0.227,1.503c0.455-0.23,0.958-0.356,1.409-0.341
				c1.018,0.035,1.804,0.802,2.577,1.526c1.102-0.727,1.809-2.077,1.71-3.397c-0.018-0.243-0.114-0.473-0.242-0.688
				c-0.123,0.188-0.359,0.295-0.605,0.142c-1.118-0.684-4.27-2.733-1.967-4.125c0.859-0.515,2.158-0.218,3.1-0.328
				C248.719,289.275,248.907,287.621,247.161,287.547z"/>
			<path style="fill:#9DB439;" d="M240.825,300.512c-0.324-0.384-0.615-0.754-0.869-1.188c-0.434-0.744-0.242-1.439,0.236-1.977
				c-0.193,0.09-0.393,0.167-0.609,0.23c-2.219,0.618-2.605,1.92-2.673,3.932c-0.007,0.195-0.014,0.428-0.038,0.66
				c0.311-0.31,0.701-0.575,1.202-0.766c1.087-0.416,1.585,0.846,2.364,1.234c0.858,0.646,1.261,0.264,1.191-1.143
				C241.381,301.149,241.11,300.824,240.825,300.512z"/>
			<g>
				<path style="fill:#619A3D;" d="M143.752,290.095c1.21,0.823,2.196,1.729,0.058,2.125c-0.32,0.059-0.648,0.154-0.982,0.279
					c0.576,0.083,1.156,0.145,1.734,0.105c1.372,0.077,2.153-0.72,2.357-2.391c-0.349-0.469-0.755-0.874-1.226-1.212
					c-0.43-0.35-0.936-0.699-1.282-1.138c-0.567-0.729-0.865-1.306-0.785-2.242c0.011-0.091,0.02-0.179,0.043-0.264
					c-0.364,0.176-0.705,0.411-1.017,0.745C141.085,287.799,142.237,289.065,143.752,290.095z"/>
				<path style="fill:#619A3D;" d="M151.811,303.247c0.873,0.601,0.979,1.452,0.899,2.372c0.668-1.74,0.956-4.513-1.798-3.962
					c-0.66,0.128-1.365,0.393-2.046,0.397c-1.037,0.002-1.439-0.563-1.353-1.573c0.047-0.597,0.307-1.129,0.672-1.597
					c-0.515-1.686-1.429-2.3-2.745-1.829l-0.548,0.157c-0.61,0.236-1.154,0.506-1.6,0.885c0.837-0.018,1.671-0.054,2.337,0.429
					c1.473,1.076-0.283,4.498,1.391,5.433C148.406,304.733,150.229,302.171,151.811,303.247z"/>
				<path style="fill:#619A3D;" d="M171.1,312.898c-2.171-1.768-3.876,1.633-5.89,0.409c-0.636-0.388-0.989-1.408-0.915-2.121
					c0.232-2.175-1.028-3.76-3.273-3.639c-1.468,0.077-2.594,0.639-3.273,1.743c0.165-0.092,0.345-0.186,0.531-0.262
					c1.671-0.689,4.126-0.408,4.68,1.558c0.624,2.231,0.332,5.134,3.125,5.934c2.056,0.592,2.487-1.304,4.104-1.909
					c0.729-0.277,1.313-0.302,1.806-0.167C171.846,313.828,171.567,313.282,171.1,312.898z"/>
				<path style="fill:#619A3D;" d="M192.63,314.592c-0.617,0.783-1.129,1.746-2.156,1.99c-0.6,0.142-1.229-0.408-1.529-0.855
					c-1.164-1.689-2.673-3.793-5.126-2.805c-2.212,0.891-2.171,2.628-2.374,4.488c0.567-0.556,1.163-1.038,1.84-1.255
					c1.34-0.433,3.214-0.47,4.352,0.458c1.386,1.125,2.222,4.512,4.64,3.031c1.49-0.916,1.708-3.115,3.729-3.358
					c0.126-0.016,0.255-0.024,0.388-0.039C195.681,314.424,194.459,312.267,192.63,314.592z"/>
				<path style="fill:#619A3D;" d="M217.343,316.214c0.036-1.522-0.249-3.54-2.439-1.985c-0.498,0.355-1.204,0.537-1.765,0.147
					c-1.182-0.821-2.233-2.201-3.688-2.548c-1.92-0.465-4.144-0.388-4.283,1.983c-0.058,0.992-0.069,1.984-0.357,2.943
					c-0.188,0.626-0.592,1.137-0.989,1.648c0.81-0.028,1.554-0.401,2.071-1.397c0.779-1.498-0.621-2.006,1.811-2.097
					c1.943-0.067,2.785,0.251,4.178,1.476c1.352,1.187,3.69,1.868,5.382,1.06C217.296,317.032,217.331,316.62,217.343,316.214z"/>
				<path style="fill:#619A3D;" d="M244.169,298.294c-0.67-0.621-1.497-1.263-2.263-0.981c-2.527,0.923,0.188,3.066,0.735,4.062
					c0.567,1.024,0.039,2.803-1.355,2.545c-0.779-0.148-1.577-0.482-2.112-1.091c-1.3-1.47-2.391,0.875-2.288,2.001
					c0.063,0.603,0.176,1.104,0.352,1.646c0.781-3.528,6.011,0.436,6.619-3.451c0.159-0.998-1.013-2.161-1.318-3.061
					C241.953,298.255,243.01,298.635,244.169,298.294z"/>
				<path style="fill:#619A3D;" d="M247.793,283.975c-0.821,0.148-0.846,0.904-1.578,1.078c-0.531,0.125-1.998-0.488-2.294-0.932
					c-0.02-0.03-0.03-0.063-0.049-0.093c-0.076,0.238-0.14,0.483-0.172,0.733c-0.37,2.744,3.797,1.355,5.248,2.368
					c1.115,0.776,0.332,2.489-0.623,2.995c-0.713,0.384-1.682,0.313-2.458,0.333c-0.416,0.01-1.992-0.113-1.673,0.833
					c0.27,0.791,0.958,1.157,1.625,1.512c-0.164-0.248-0.286-0.5-0.291-0.769c-0.014-1.201,1.65-1.112,2.485-1.347
					c1.165-0.332,2.097-0.825,2.536-2.037C251.148,286.992,250.102,283.56,247.793,283.975z"/>
				<path style="fill:#619A3D;" d="M233.429,308.609c-1.465-0.706-4.354-2.238-5.918-1.1c-0.992,0.722-0.541,2.151-1.018,3.113
					c-0.289,0.586-0.941,0.922-1.552,1.045c-1.085,0.223-1.458,1.063-1.504,2.072c0.387,0.09,0.771,0.215,1.176,0.402
					c1.015,0.459,2.324,0.266,3.01-0.664c0.652-0.88-0.039-1.978,0.474-2.75c0.938-1.408,2.71-0.622,4.006-0.258
					c1.593,0.451,2.271,0.258,3.587-0.714c0.077-0.058,0.141-0.101,0.212-0.151C235.077,309.351,234.235,309,233.429,308.609z"/>
			</g>
		</g>
		<g>
			<path style="fill:#981710;" d="M226.977,288.357c-0.207,4.255-4.149,8.506-11.735,11.063c-10.027,3.376-24.575,3.816-36.385,2.61
				c-10.883-1.116-20.697-4.597-24.214-9.534c-0.949-1.34-1.496-2.74-1.48-4.139v-4.909h73.829L226.977,288.357z"/>
			<path style="fill:#E22B25;" d="M206.14,271.073c3.029,0.16,6.157,0.169,8.994,0.715c5.906,1.135,9.379,3.679,10.875,6.435
				c2.939,5.41-0.723,11.767-10.767,15.148c-10.027,3.379-24.575,3.822-36.385,2.612c-10.883-1.114-20.697-4.595-24.214-9.53
				c-1.594-2.238-2.055-4.66-0.65-6.948c1.546-2.513,4.752-5.548,9.66-7.022c8.109-2.431,16.654-2.117,25.826-0.976
				C194.776,272.163,200.582,270.789,206.14,271.073z"/>
			<path style="fill:#F26D53;" d="M204.024,272.725c2.634,0.136,5.346,0.149,7.814,0.621c5.129,0.984,8.14,3.195,9.44,5.586
				c2.553,4.701-0.627,10.219-9.35,13.158c-8.706,2.932-21.341,3.315-31.597,2.267c-9.444-0.967-17.97-3.989-21.021-8.276
				c-1.386-1.945-1.79-4.044-0.565-6.035c1.342-2.178,4.123-4.815,8.389-6.096c7.038-2.111,14.462-1.837,22.428-0.847
				C194.157,273.674,199.199,272.475,204.024,272.725z"/>
			<path style="fill:#E14239;" d="M203.098,273.449c2.459,0.127,4.989,0.139,7.294,0.58c4.787,0.916,7.602,2.982,8.814,5.214
				c2.384,4.388-0.583,9.54-8.729,12.284c-8.127,2.738-19.924,3.097-29.499,2.116c-8.817-0.901-16.777-3.726-19.628-7.728
				c-1.293-1.814-1.666-3.777-0.526-5.632c1.251-2.036,3.85-4.5,7.831-5.693c6.572-1.973,13.498-1.717,20.939-0.79
				C193.885,274.334,198.595,273.216,203.098,273.449z"/>
			<g>
				<path style="fill:#BB362D;" d="M175.028,278.385c-3.085,0.123-5.869-0.745-8.869-0.615c-4.955,0.222-3.619,2.543-3.782,3.827
					c-0.07,0.515-0.484,0.925-1.195,1.358c-1.78,1.089,0.569,1.841,3.393,1.976c3.968,0.19,8.03,0.403,11.934,0.738
					c0.207,0.019,0.335,0.086,0.358,0.16c0.252,0.903-1.684,1.29-3.402,1.768c-4.291,1.198-1.004,2.801,3.044,3.395
					c1.603,0.236,2.399,0.192,3.866-0.068c0.336-0.061,0.82-0.147,1.209-0.144c0.755,0.022,1.409,0.114,1.893,0.344
					c1.907,0.909,1.374,2.128,5.117,2.462c1.618,0.142,5.342,0.313,6.153-0.435c0.375-0.347,0.535-0.886,1.497-1.095
					c1.031-0.231,2.201,0.096,3.211,0.165c1.691,0.113,4.197-0.381,4.181-1.076c-0.023-0.899-1.651-1.724-2.867-2.478
					c-0.767-0.482-1.814-1.045-1.765-1.622c0.008-0.114,0.243-0.184,0.555-0.163c3.961,0.233,4.232,1.94,7.527,2.461
					c3.598,0.568,8.091-0.906,6.42-2.263c-0.676-0.556-1.313-1.091-0.491-1.67c0.931-0.655,5.477-1.979,3.084-2.733
					c-1.362-0.428-0.718-0.806-0.765-1.388c-0.191-2.259-10.557-1.038-13.831-0.817c-0.292,0.02-0.57-0.043-0.595-0.16
					c-0.186-0.813,1.129-1.624,2.016-2.328c0.979-0.773,2.893-1.984,1.816-2.877c-2.071-1.715-7.76-0.496-11.045-0.313
					c-1.63,0.089-3.335-0.117-4.968-0.15c-2.094-0.039-3.515,0.241-4.999,0.762c-0.42,0.147-1.086-0.087-0.672-0.235
					c0.085-0.026,0.174-0.058,0.262-0.089c-1.884,0.054-3.857-0.113-5.795,0.105c-1.963,0.229-4.583,0.669-4.952,1.518
					c-0.276,0.635,1.62,1.033,2.745,1.396C175.642,278.202,175.393,278.371,175.028,278.385z"/>
				<g>
					<path style="fill:#F26D53;" d="M211.052,284.891c6.529,0.361,0.763-1.814-0.238-2.665c-0.791-0.67,1.62-0.866,3.238-0.951
						c-3.66-1.289-12.076,0.53-16.395,0.366c-0.412-0.014-0.684-0.119-0.619-0.275c0.784-1.875,4.982-3.379,5.735-5.289
						c0.295-0.749-0.877-1.621-3.277-1.027c-0.936,0.234-1.764,0.522-2.715,0.743c-1.499,0.355-3.686,0.491-5.337,0.096
						c-0.704-0.173-1.097-0.428-1.741-0.61c-2.046-0.592-3.989,0.353-4.951,0.917c-1.136,0.668-3.055,0.457-4.555,0.056
						c-1.137-0.296-2.711-0.55-3.874-0.015c-1.32,0.608,0.062,1.745,1.083,2.296c1.311,0.707,2.872,1.346,4.539,1.94
						c1.084,0.385,2.961,0.359,4,0.728c1.281,0.459,0.531,0.933-1.13,0.781c-1.775-0.162-2.661-1.003-4.141-1.347
						c-3.082-0.706-6.268-1.365-9.608-1.709c-3.425-0.348-6.779-0.2-7.511,1.309c-0.413,0.865,1.406,1.795,1.811,2.659
						c0.061,0.126-0.277,0.216-0.574,0.225c-1.641,0.059-3.464,0.292-1.553,0.868c0.725,0.218,1.495,0.414,2.339,0.567
						c1.955,0.348,3.82,0.468,5.974,0.384c4.556-0.183,9.242-0.798,13.732-0.085c0.468,0.078,0.352,0.293,0.038,0.378
						c-3.09,0.902-9.303,1.911-9.825,3.528c-0.269,0.828,0.738,1.579,3.221,1.486c0.829-0.03,1.648-0.085,2.48-0.108
						c1.527-0.043,2.837,0.009,4.259,0.239c0.227,0.037,0.39,0.158,0.307,0.244c-1.761,1.723,4.621,2.822,7.034,1.222
						c0.945-0.626,1.519-1.299,2.165-1.97c0.154-0.158,0.839-0.256,1.1-0.062c0.718,0.527,2.293,1.571,4.466,1.247
						c1.822-0.278-1.883-1.866-2.36-2.196c-1.275-0.886-3.034-2.661-1.542-3.597c2.279-1.434,5.854,1.299,6.706,1.85
						c0.939,0.605,2.788,1.395,4.743,1.578c1.26,0.118,4.592,0.47,4.949-0.277c0.186-0.395-0.052-0.79-0.388-1.168
						c-0.634-0.713-1.507-1.389-2.292-2.083C210.147,284.992,210.638,284.867,211.052,284.891z"/>
					<path style="fill:#F58876;" d="M207.06,282.337c-1.736,0.043-3.148,0.208-4.703,0.458c-1.667,0.27-3.826,0.551-5.581,0.135
						c-2.261-0.537-3.285-1.413-3.181-2.369c0.072-0.703,1.203-1.065,2.623-1.449c1.173-0.318,3.229-1.321,1.553-1.852
						c-0.889-0.278-2.103-0.371-3.238-0.402c-1.827-0.049-3.635-0.003-5.451,0.048c-0.209,0.007-0.356-0.027-0.443-0.077
						c-1.631,0.194-3.29,0.566-5.028,0.557c-0.845-0.007-1.288-0.114-0.698,0.241c0.285,0.173,0.617,0.331,1.001,0.476
						c1.839,0.695,4.062,1.254,5.723,2.011c1.312,0.603,2.319,1.376,1.427,2.124c-0.939,0.787-2.718,1.285-5.146,1.188
						c-2.976-0.123-5.68-0.973-8.1-1.555c-1.398-0.34-2.947-0.754-4.598-0.895c-1.438-0.127-1.394,0.117-1.574,0.608
						c-0.115,0.31-0.262,0.706,0.109,1.014c1.244,1.023,6.505,0.665,8.918,0.756c2.431,0.096,5.855,0.332,7.062,1.253
						c0.89,0.684,0.645,1.388-0.593,1.987c-1.309,0.632-3.687,0.769-5.21,1.309c-3.271,1.164,3.213,1.622,5.334,1.751
						c2.111,0.132,7.197,0.337,7.061-0.864c-0.135-1.187-4.604-3.666-1.226-4.658c3.329-0.98,6.86-0.381,8.693,0.868
						c1.125,0.772,4.133,1.96,5.876,0.67c0.887-0.662,1.341-1.621,0.636-2.35C208.118,283.124,207.771,282.319,207.06,282.337z"/>
					<g>
						<g>
							<path style="fill:#EEBB46;" d="M196.299,274.098c0,0-4.013-0.367-1.38,2.228
								C194.919,276.325,199.846,274.619,196.299,274.098z"/>
							<path style="fill:#FFFFFF;" d="M196.827,274.478c-0.359-0.028-0.77-0.052-1.054,0.02c-0.455,0.121-0.501,0.398-0.465,0.588
								c0.038,0.215,0.208,0.42,0.432,0.616C196.441,275.419,197.726,274.81,196.827,274.478z"/>
							<path style="fill:#EEBB46;" d="M194.657,274.896c0.082-0.268,0.238-0.561,0.969-0.685c0.322-0.054,0.697-0.057,1.068-0.038
								c-0.118-0.024-0.246-0.053-0.396-0.075c0,0-4.013-0.367-1.38,2.228c0,0,0.161-0.054,0.411-0.152
								C194.851,275.764,194.511,275.34,194.657,274.896z"/>
						</g>
						<g>
							<path style="fill:#EEBB46;" d="M201.972,274.787c0,0-3.554-0.791-3.181,1.954
								C198.791,276.741,204.942,275.674,201.972,274.787z"/>
							<path style="fill:#FFFFFF;" d="M202.161,275.199c-0.318-0.063-0.699-0.127-1.031-0.091c-0.532,0.061-0.803,0.319-0.93,0.501
								c-0.146,0.209-0.152,0.422-0.1,0.63C201.014,276.047,202.749,275.617,202.161,275.199z"/>
							<path style="fill:#EEBB46;" d="M199.73,275.355c0.304-0.244,0.696-0.504,1.499-0.538c0.358-0.014,0.719,0.027,1.063,0.083
								c-0.097-0.036-0.199-0.075-0.321-0.113c0,0-3.554-0.791-3.181,1.954c0,0,0.204-0.036,0.52-0.101
								C199.193,276.204,199.22,275.764,199.73,275.355z"/>
						</g>
						<g>
							<path style="fill:#EEBB46;" d="M206.047,276.703c0,0-1.808-1.371-5.654,0.951
								C200.393,277.654,207.224,278.023,206.047,276.703z"/>
							<path style="fill:#FFFFFF;" d="M205.581,277.079c-0.172-0.12-0.392-0.251-0.731-0.288c-0.552-0.058-1.169,0.1-1.547,0.223
								c-0.442,0.14-0.766,0.311-1.045,0.496C203.32,277.536,205.446,277.536,205.581,277.079z"/>
							<path style="fill:#EEBB46;" d="M203.286,276.708c0.631-0.137,1.358-0.271,2.086-0.135c0.325,0.06,0.574,0.168,0.777,0.284
								c-0.024-0.051-0.055-0.102-0.102-0.154c0,0-1.808-1.371-5.654,0.951c0,0,0.229,0.01,0.587,0.025
								C201.549,277.294,202.239,276.942,203.286,276.708z"/>
						</g>
						<g>
							<path style="fill:#EEBB46;" d="M191.714,273.781c0,0-4.078-0.239-0.826,2.272
								C190.888,276.053,195.367,274.185,191.714,273.781z"/>
							<path style="fill:#FFFFFF;" d="M192.333,274.143c-0.365-0.021-0.777-0.025-1.039,0.057c-0.425,0.13-0.396,0.412-0.32,0.6
								c0.088,0.21,0.308,0.408,0.578,0.601C192.183,275.093,193.31,274.444,192.333,274.143z"/>
							<path style="fill:#EEBB46;" d="M190.276,274.628c0.02-0.271,0.103-0.571,0.798-0.713c0.307-0.064,0.68-0.08,1.056-0.073
								c-0.125-0.021-0.256-0.045-0.416-0.061c0,0-4.078-0.239-0.826,2.272c0,0,0.152-0.065,0.371-0.168
								C190.681,275.492,190.241,275.078,190.276,274.628z"/>
						</g>
						<g>
							<path style="fill:#EEBB46;" d="M185.862,273.842c0,0-3.963,0.356,1.673,2.231
								C187.535,276.073,189.624,273.699,185.862,273.842z"/>
							<path style="fill:#FFFFFF;" d="M186.814,274.09c-0.351,0.033-0.738,0.089-0.89,0.201c-0.242,0.186,0.078,0.443,0.348,0.605
								c0.311,0.183,0.723,0.339,1.172,0.476C187.684,274.994,188.024,274.23,186.814,274.09z"/>
							<path style="fill:#EEBB46;" d="M185.452,274.83c-0.271-0.252-0.513-0.539-0.028-0.773c0.213-0.104,0.53-0.169,0.88-0.222
								c-0.135,0-0.279-0.003-0.441,0.007c0,0-3.963,0.356,1.673,2.231c0,0,0.066-0.08,0.16-0.209
								C186.749,275.581,185.907,275.257,185.452,274.83z"/>
						</g>
						<g>
							<path style="fill:#EEBB46;" d="M180.634,274.068c0,0-3.967,0.358,1.669,2.229
								C182.303,276.297,184.39,273.927,180.634,274.068z"/>
							<path style="fill:#FFFFFF;" d="M181.579,274.314c-0.349,0.035-0.736,0.088-0.888,0.199c-0.244,0.183,0.076,0.442,0.349,0.604
								c0.309,0.19,0.724,0.342,1.169,0.477C182.455,275.223,182.79,274.457,181.579,274.314z"/>
							<path style="fill:#EEBB46;" d="M180.224,275.055c-0.271-0.251-0.514-0.541-0.033-0.773c0.212-0.102,0.534-0.171,0.881-0.219
								c-0.136,0-0.28,0-0.438,0.006c0,0-3.967,0.358,1.669,2.229c0,0,0.072-0.078,0.16-0.207
								C181.516,275.803,180.675,275.483,180.224,275.055z"/>
						</g>
						<g>
							<path style="fill:#EEBB46;" d="M175.996,275.583c0,0-3.702,0.621,2.737,2.1C178.733,277.683,179.605,275.196,175.996,275.583
								z"/>
							<path style="fill:#FFFFFF;" d="M177.047,275.768c-0.325,0.057-0.677,0.132-0.771,0.257c-0.144,0.196,0.296,0.425,0.642,0.569
								c0.397,0.167,0.875,0.29,1.383,0.397C178.356,276.604,178.302,275.831,177.047,275.768z"/>
							<path style="fill:#EEBB46;" d="M176.088,276.592c-0.39-0.233-0.773-0.504-0.419-0.767c0.155-0.114,0.439-0.203,0.756-0.274
								c-0.137,0.008-0.276,0.02-0.429,0.032c0,0-3.702,0.621,2.737,2.1c0,0,0.033-0.088,0.06-0.219
								C177.727,277.244,176.738,276.984,176.088,276.592z"/>
						</g>
					</g>
					<g>
						<g>
							<path style="fill:#EEBB46;" d="M216.991,286.781c0,0,0.977-1.302-5.504-0.599
								C211.487,286.183,215.642,287.922,216.991,286.781z"/>
							<path style="fill:#FFFFFF;" d="M216.046,286.933c0.083-0.118,0.139-0.249-0.041-0.35c-0.281-0.158-0.974-0.189-1.443-0.191
								c-0.535,0-1.043,0.043-1.535,0.107C213.724,286.747,215.203,287.212,216.046,286.933z"/>
							<path style="fill:#EEBB46;" d="M215.048,286.191c0.664,0.047,1.388,0.112,1.678,0.36c0.127,0.113,0.127,0.236,0.081,0.357
								c0.064-0.035,0.13-0.077,0.185-0.127c0,0,0.977-1.302-5.504-0.599c0,0,0.137,0.06,0.373,0.147
								C212.885,286.197,213.944,286.111,215.048,286.191z"/>
						</g>
						<g>
							<path style="fill:#EEBB46;" d="M215.197,288.613c0,0,2.019-1.122-4.794-1.175
								C210.403,287.438,212.956,289.545,215.197,288.613z"/>
							<path style="fill:#FFFFFF;" d="M214.161,288.652c0.176-0.103,0.346-0.224,0.254-0.339c-0.143-0.178-0.778-0.283-1.229-0.338
								c-0.516-0.058-1.036-0.074-1.563-0.07C212.083,288.221,213.126,288.821,214.161,288.652z"/>
							<path style="fill:#EEBB46;" d="M213.825,287.836c0.598,0.117,1.236,0.264,1.309,0.535c0.028,0.114-0.072,0.232-0.224,0.343
								c0.097-0.027,0.191-0.061,0.287-0.1c0,0,2.019-1.122-4.794-1.175c0,0,0.086,0.072,0.24,0.181
								C211.734,287.604,212.821,287.643,213.825,287.836z"/>
						</g>
						<g>
							<path style="fill:#EEBB46;" d="M210.395,289.841c0,0,3.42-0.509-2.28-1.929C208.114,287.912,207.085,290.147,210.395,289.841
								z"/>
							<path style="fill:#FFFFFF;" d="M209.46,289.665c0.305-0.05,0.63-0.113,0.725-0.227c0.151-0.174-0.224-0.391-0.525-0.523
								c-0.344-0.157-0.766-0.273-1.209-0.375C208.355,288.885,208.329,289.59,209.46,289.665z"/>
							<path style="fill:#EEBB46;" d="M210.409,288.93c0.331,0.216,0.648,0.466,0.303,0.696c-0.15,0.105-0.42,0.178-0.708,0.24
								c0.125-0.004,0.25-0.014,0.391-0.025c0,0,3.42-0.509-2.28-1.929c0,0-0.036,0.074-0.069,0.196
								C208.99,288.318,209.858,288.566,210.409,288.93z"/>
						</g>
						<g>
							<path style="fill:#EEBB46;" d="M217.85,285.286c0,0,0.65-1.332-5.616-0.417C212.233,284.869,216.789,286.472,217.85,285.286z
								"/>
							<path style="fill:#FFFFFF;" d="M216.95,285.47c0.049-0.119,0.075-0.259-0.13-0.348c-0.321-0.149-1.012-0.16-1.476-0.145
								c-0.535,0.015-1.027,0.075-1.5,0.153C214.589,285.358,216.18,285.772,216.95,285.47z"/>
							<path style="fill:#EEBB46;" d="M215.773,284.757c0.675,0.022,1.406,0.071,1.755,0.309c0.157,0.106,0.19,0.23,0.17,0.358
								c0.054-0.041,0.105-0.086,0.151-0.138c0,0,0.65-1.332-5.616-0.417c0,0,0.155,0.052,0.405,0.137
								C213.623,284.836,214.658,284.718,215.773,284.757z"/>
						</g>
						<g>
							<path style="fill:#EEBB46;" d="M217.793,283.35c0,0-0.831-1.336-5.56,0.409C212.233,283.759,218.087,284.603,217.793,283.35z
								"/>
							<path style="fill:#FFFFFF;" d="M217.165,283.646c-0.084-0.116-0.203-0.247-0.485-0.304c-0.454-0.097-1.093-0.005-1.497,0.075
								c-0.473,0.093-0.856,0.216-1.207,0.358C214.904,283.881,216.789,284.036,217.165,283.646z"/>
							<path style="fill:#EEBB46;" d="M215.337,283.15c0.638-0.073,1.355-0.135,1.928,0.037c0.252,0.078,0.418,0.188,0.531,0.307
								c0.008-0.046,0.014-0.092-0.003-0.145c0,0-0.831-1.336-5.56,0.409c0,0,0.196,0.028,0.514,0.067
								C213.467,283.529,214.274,283.272,215.337,283.15z"/>
						</g>
						<g>
							<path style="fill:#EEBB46;" d="M217.315,281.603c0,0-0.832-1.333-5.563,0.412
								C211.752,282.015,217.608,282.853,217.315,281.603z"/>
							<path style="fill:#FFFFFF;" d="M216.684,281.9c-0.079-0.117-0.205-0.248-0.481-0.304c-0.455-0.091-1.096-0.005-1.502,0.075
								c-0.471,0.092-0.855,0.218-1.207,0.358C214.423,282.137,216.307,282.294,216.684,281.9z"/>
							<path style="fill:#EEBB46;" d="M214.858,281.406c0.632-0.075,1.355-0.136,1.926,0.035c0.256,0.08,0.42,0.191,0.531,0.309
								c0.008-0.047,0.008-0.096,0-0.148c0,0-0.832-1.333-5.563,0.412c0,0,0.196,0.026,0.515,0.067
								C212.985,281.785,213.797,281.529,214.858,281.406z"/>
						</g>
						<g>
							<path style="fill:#EEBB46;" d="M213.618,279.974c0,0-1.476-1.261-5.238,0.776C208.38,280.75,214.528,281.194,213.618,279.974
								z"/>
							<path style="fill:#FFFFFF;" d="M213.154,280.31c-0.141-0.113-0.325-0.232-0.631-0.268c-0.487-0.064-1.064,0.066-1.432,0.17
								c-0.409,0.127-0.728,0.275-0.999,0.435C211.052,280.69,212.977,280.723,213.154,280.31z"/>
							<path style="fill:#EEBB46;" d="M211.117,279.943c0.582-0.116,1.257-0.225,1.909-0.091c0.287,0.06,0.492,0.157,0.666,0.268
								c-0.014-0.046-0.033-0.092-0.074-0.146c0,0-1.476-1.261-5.238,0.776c0,0,0.211,0.016,0.537,0.033
								C209.477,280.441,210.143,280.134,211.117,279.943z"/>
						</g>
					</g>
					<g>
						<g>
							<path style="fill:#EEBB46;" d="M182.67,292.345c0,0,3.647,0.392,1.507-2.026C184.177,290.318,179.469,291.81,182.67,292.345z
								"/>
							<path style="fill:#FFFFFF;" d="M182.227,291.988c0.324,0.033,0.701,0.059,0.969-0.008c0.43-0.1,0.5-0.354,0.488-0.524
								c-0.01-0.202-0.141-0.393-0.328-0.575C182.682,291.133,181.436,291.67,182.227,291.988z"/>
							<path style="fill:#EEBB46;" d="M184.265,291.639c-0.108,0.243-0.28,0.512-0.963,0.607c-0.308,0.048-0.648,0.046-0.987,0.023
								c0.107,0.027,0.224,0.05,0.355,0.075c0,0,3.647,0.392,1.507-2.026c0,0-0.155,0.053-0.392,0.137
								C184.186,290.835,184.445,291.232,184.265,291.639z"/>
						</g>
						<g>
							<path style="fill:#EEBB46;" d="M177.536,291.631c0,0,3.174,0.773,3.131-1.744
								C180.667,289.887,174.905,290.771,177.536,291.631z"/>
							<path style="fill:#FFFFFF;" d="M177.405,291.244c0.287,0.064,0.625,0.132,0.934,0.103c0.501-0.047,0.778-0.281,0.912-0.445
								c0.153-0.19,0.183-0.383,0.156-0.576C178.548,290.485,176.913,290.856,177.405,291.244z"/>
							<path style="fill:#EEBB46;" d="M179.654,291.142c-0.307,0.217-0.694,0.45-1.434,0.467c-0.328,0.008-0.66-0.033-0.97-0.088
								c0.082,0.037,0.175,0.066,0.285,0.109c0,0,3.174,0.773,3.131-1.744c0,0-0.193,0.031-0.486,0.082
								C180.243,290.375,180.169,290.776,179.654,291.142z"/>
						</g>
						<g>
							<path style="fill:#EEBB46;" d="M173.997,289.816c0,0,1.513,1.277,5.304-0.791
								C179.301,289.025,173.065,288.588,173.997,289.816z"/>
							<path style="fill:#FFFFFF;" d="M174.476,289.478c0.139,0.112,0.328,0.235,0.635,0.274c0.496,0.06,1.085-0.076,1.447-0.182
								c0.415-0.123,0.734-0.277,1.008-0.44C176.594,289.089,174.645,289.06,174.476,289.478z"/>
							<path style="fill:#EEBB46;" d="M176.536,289.848c-0.592,0.116-1.273,0.229-1.932,0.095c-0.287-0.061-0.507-0.161-0.682-0.273
								c0.018,0.048,0.037,0.093,0.074,0.147c0,0,1.513,1.277,5.304-0.791c0,0-0.21-0.016-0.543-0.029
								C178.198,289.34,177.522,289.652,176.536,289.848z"/>
						</g>
						<g>
							<path style="fill:#EEBB46;" d="M186.843,292.701c0,0,3.72,0.276,1.008-2.068
								C187.851,290.633,183.531,292.272,186.843,292.701z"/>
							<path style="fill:#FFFFFF;" d="M186.314,292.361c0.332,0.022,0.709,0.035,0.959-0.037c0.408-0.117,0.411-0.373,0.363-0.544
								c-0.063-0.199-0.238-0.382-0.465-0.561C186.56,291.491,185.454,292.067,186.314,292.361z"/>
							<path style="fill:#EEBB46;" d="M188.259,291.946c-0.05,0.245-0.16,0.52-0.81,0.64c-0.293,0.055-0.636,0.063-0.98,0.051
								c0.113,0.025,0.232,0.043,0.373,0.064c0,0,3.72,0.276,1.008-2.068c0,0-0.148,0.057-0.363,0.145
								C187.977,291.149,188.341,291.532,188.259,291.946z"/>
						</g>
						<g>
							<path style="fill:#EEBB46;" d="M192.216,292.73c0,0,3.688-0.271-1.283-2.07C190.933,290.66,188.755,292.807,192.216,292.73z"
								/>
							<path style="fill:#FFFFFF;" d="M191.378,292.489c0.325-0.028,0.687-0.067,0.838-0.172c0.248-0.162-0.024-0.401-0.252-0.557
								c-0.269-0.177-0.625-0.319-1.023-0.454C190.677,291.642,190.282,292.34,191.378,292.489z"/>
							<path style="fill:#EEBB46;" d="M192.705,291.827c0.222,0.238,0.414,0.506-0.054,0.71c-0.203,0.094-0.507,0.152-0.833,0.189
								c0.127,0.004,0.256,0.01,0.398,0.004c0,0,3.688-0.271-1.283-2.07c0,0-0.072,0.075-0.17,0.19
								C191.599,291.126,192.341,291.43,192.705,291.827z"/>
						</g>
						<g>
							<path style="fill:#EEBB46;" d="M197.052,292.601c0,0,3.682-0.271-1.289-2.071
								C195.763,290.529,193.583,292.676,197.052,292.601z"/>
							<path style="fill:#FFFFFF;" d="M196.206,292.361c0.328-0.028,0.687-0.072,0.84-0.173c0.244-0.167-0.028-0.406-0.255-0.558
								c-0.266-0.175-0.627-0.322-1.018-0.457C195.503,291.515,195.113,292.212,196.206,292.361z"/>
							<path style="fill:#EEBB46;" d="M197.536,291.694c0.22,0.241,0.41,0.506-0.057,0.716c-0.205,0.092-0.507,0.145-0.832,0.186
								c0.124,0.007,0.258,0.007,0.404,0.005c0,0,3.682-0.271-1.289-2.071c0,0-0.071,0.073-0.171,0.191
								C196.429,290.992,197.167,291.301,197.536,291.694z"/>
						</g>
						<g>
							<path style="fill:#EEBB46;" d="M201.471,291.277c0,0,3.472-0.514-2.285-1.959
								C199.186,289.318,198.118,291.581,201.471,291.277z"/>
							<path style="fill:#FFFFFF;" d="M200.532,291.094c0.304-0.05,0.63-0.113,0.732-0.224c0.16-0.18-0.226-0.397-0.526-0.533
								c-0.345-0.157-0.773-0.281-1.229-0.384C199.421,290.306,199.384,291.017,200.532,291.094z"/>
							<path style="fill:#EEBB46;" d="M201.495,290.352c0.339,0.219,0.658,0.473,0.309,0.705c-0.16,0.108-0.428,0.18-0.729,0.244
								c0.129-0.008,0.256-0.01,0.396-0.023c0,0,3.472-0.514-2.285-1.959c0,0-0.038,0.077-0.079,0.196
								C200.065,289.73,200.939,289.984,201.495,290.352z"/>
						</g>
					</g>
					<g>
						<g>
							<path style="fill:#EEBB46;" d="M162.178,279.902c0,0-0.876,1.146,5.587,0.591
								C167.765,280.493,163.444,278.91,162.178,279.902z"/>
							<path style="fill:#FFFFFF;" d="M163.118,279.777c-0.071,0.103-0.116,0.227,0.068,0.313c0.304,0.144,0.998,0.18,1.465,0.186
								c0.542,0.008,1.047-0.024,1.539-0.074C165.473,279.971,163.942,279.542,163.118,279.777z"/>
							<path style="fill:#EEBB46;" d="M164.185,280.451c-0.672-0.048-1.41-0.114-1.72-0.342c-0.139-0.1-0.149-0.211-0.11-0.316
								c-0.065,0.034-0.123,0.066-0.177,0.109c0,0-0.876,1.146,5.587,0.591c0,0-0.144-0.05-0.39-0.131
								C166.358,280.467,165.3,280.528,164.185,280.451z"/>
						</g>
						<g>
							<path style="fill:#EEBB46;" d="M163.837,278.3c0,0-1.942,0.972,4.92,1.099C168.757,279.398,166.026,277.508,163.837,278.3z"
								/>
							<path style="fill:#FFFFFF;" d="M164.876,278.282c-0.166,0.087-0.324,0.189-0.225,0.293c0.158,0.159,0.805,0.263,1.261,0.313
								c0.524,0.06,1.049,0.079,1.573,0.079C167.002,278.688,165.907,278.142,164.876,278.282z"/>
							<path style="fill:#EEBB46;" d="M165.284,279.006c-0.615-0.11-1.264-0.248-1.361-0.488c-0.041-0.103,0.057-0.207,0.194-0.303
								c-0.09,0.025-0.185,0.051-0.28,0.085c0,0-1.942,0.972,4.92,1.099c0,0-0.096-0.065-0.256-0.16
								C167.403,279.233,166.303,279.189,165.284,279.006z"/>
						</g>
						<g>
							<path style="fill:#EEBB46;" d="M168.575,277.271c0,0-3.398,0.412,2.447,1.735
								C171.022,279.006,171.88,277.038,168.575,277.271z"/>
							<path style="fill:#FFFFFF;" d="M169.526,277.438c-0.301,0.039-0.622,0.092-0.705,0.191c-0.141,0.153,0.258,0.347,0.567,0.47
								c0.358,0.142,0.789,0.253,1.248,0.347C170.698,278.141,170.672,277.518,169.526,277.438z"/>
							<path style="fill:#EEBB46;" d="M168.63,278.078c-0.348-0.194-0.688-0.419-0.359-0.625c0.145-0.088,0.41-0.152,0.695-0.198
								c-0.125,0.003-0.252,0.005-0.391,0.016c0,0-3.398,0.412,2.447,1.735c0,0,0.025-0.065,0.054-0.171
								C170.105,278.639,169.214,278.403,168.63,278.078z"/>
						</g>
						<g>
							<path style="fill:#EEBB46;" d="M161.434,281.216c0,0-0.551,1.172,5.681,0.437
								C167.114,281.652,162.406,280.18,161.434,281.216z"/>
							<path style="fill:#FFFFFF;" d="M162.329,281.066c-0.045,0.103-0.057,0.226,0.158,0.309c0.329,0.139,1.027,0.149,1.492,0.147
								c0.534-0.01,1.026-0.057,1.501-0.121C164.704,281.194,163.073,280.81,162.329,281.066z"/>
							<path style="fill:#EEBB46;" d="M163.56,281.709c-0.67-0.026-1.417-0.078-1.785-0.293c-0.167-0.096-0.209-0.206-0.197-0.316
								c-0.053,0.035-0.101,0.072-0.144,0.116c0,0-0.551,1.172,5.681,0.437c0,0-0.156-0.05-0.418-0.123
								C165.717,281.665,164.69,281.759,163.56,281.709z"/>
						</g>
						<g>
							<path style="fill:#EEBB46;" d="M161.646,282.935c0,0,0.938,1.188,5.557-0.3C167.203,282.636,161.248,281.823,161.646,282.935
								z"/>
							<path style="fill:#FFFFFF;" d="M162.254,282.679c0.087,0.104,0.227,0.221,0.511,0.275c0.465,0.088,1.101,0.018,1.502-0.052
								c0.466-0.071,0.844-0.18,1.184-0.297C164.511,282.498,162.601,282.335,162.254,282.679z"/>
							<path style="fill:#EEBB46;" d="M164.13,283.137c-0.632,0.059-1.355,0.105-1.943-0.054c-0.261-0.073-0.435-0.173-0.559-0.276
								c-0.004,0.043-0.004,0.082,0.019,0.129c0,0,0.938,1.188,5.557-0.3c0,0-0.195-0.029-0.518-0.065
								C165.981,282.822,165.188,283.042,164.13,283.137z"/>
						</g>
						<g>
							<path style="fill:#EEBB46;" d="M162.266,284.484c0,0,0.938,1.193,5.561-0.299
								C167.826,284.185,161.866,283.372,162.266,284.484z"/>
							<path style="fill:#FFFFFF;" d="M162.872,284.228c0.091,0.104,0.227,0.225,0.514,0.279c0.462,0.084,1.098,0.012,1.504-0.055
								c0.462-0.071,0.844-0.182,1.178-0.3C165.13,284.05,163.22,283.887,162.872,284.228z"/>
							<path style="fill:#EEBB46;" d="M164.752,284.69c-0.635,0.057-1.351,0.103-1.942-0.058c-0.267-0.071-0.433-0.172-0.561-0.276
								c0,0.041,0,0.084,0.017,0.128c0,0,0.938,1.193,5.561-0.299c0,0-0.201-0.023-0.52-0.064
								C166.605,284.373,165.805,284.592,164.752,284.69z"/>
						</g>
						<g>
							<path style="fill:#EEBB46;" d="M166.109,285.97c0,0,1.583,1.137,5.206-0.624C171.315,285.346,165.097,284.882,166.109,285.97
								z"/>
							<path style="fill:#FFFFFF;" d="M166.551,285.678c0.147,0.102,0.349,0.212,0.656,0.249c0.496,0.06,1.069-0.052,1.421-0.139
								c0.409-0.104,0.713-0.234,0.974-0.373C168.633,285.369,166.692,285.317,166.551,285.678z"/>
							<path style="fill:#EEBB46;" d="M168.628,286.029c-0.575,0.096-1.246,0.186-1.911,0.058c-0.293-0.053-0.514-0.146-0.694-0.244
								c0.017,0.04,0.043,0.084,0.087,0.127c0,0,1.583,1.137,5.206-0.624c0,0-0.209-0.013-0.545-0.033
								C170.241,285.605,169.599,285.873,168.628,286.029z"/>
						</g>
					</g>
				</g>
			</g>
		</g>
		<g>
			<path style="fill:#981710;" d="M240.825,274.433c-0.211,4.256-4.151,8.506-11.735,11.06c-10.028,3.375-24.578,3.821-36.386,2.609
				c-10.88-1.113-20.7-4.592-24.212-9.53c-0.953-1.338-1.496-2.74-1.484-4.139v-4.907h73.83L240.825,274.433z"/>
			<path style="fill:#E22B25;" d="M219.986,257.149c3.032,0.155,6.153,0.169,8.995,0.714c5.907,1.133,9.375,3.676,10.873,6.432
				c2.939,5.413-0.721,11.77-10.765,15.154c-10.028,3.375-24.578,3.818-36.386,2.606c-10.88-1.113-20.7-4.589-24.212-9.529
				c-1.593-2.239-2.06-4.659-0.651-6.944c1.548-2.514,4.749-5.551,9.666-7.024c8.1-2.432,16.644-2.116,25.82-0.975
				C208.622,258.242,214.431,256.861,219.986,257.149z"/>
			<path style="fill:#F26D53;" d="M217.871,258.8c2.634,0.136,5.345,0.146,7.81,0.62c5.127,0.984,8.143,3.192,9.443,5.587
				c2.553,4.698-0.626,10.221-9.35,13.159c-8.703,2.933-21.341,3.314-31.599,2.262c-9.442-0.963-17.967-3.987-21.02-8.274
				c-1.385-1.944-1.787-4.046-0.566-6.03c1.342-2.18,4.125-4.818,8.389-6.1c7.04-2.11,14.46-1.839,22.428-0.847
				C208.006,259.748,213.044,258.551,217.871,258.8z"/>
			<path style="fill:#E14239;" d="M216.944,259.523c2.456,0.127,4.991,0.138,7.291,0.576c4.79,0.923,7.604,2.98,8.817,5.22
				c2.384,4.386-0.586,9.539-8.726,12.283c-8.129,2.737-19.927,3.096-29.502,2.116c-8.817-0.904-16.777-3.726-19.629-7.727
				c-1.291-1.817-1.668-3.777-0.527-5.635c1.256-2.033,3.85-4.496,7.833-5.693c6.57-1.969,13.501-1.715,20.937-0.79
				C207.732,260.409,212.438,259.292,216.944,259.523z"/>
			<g>
				<path style="fill:#BB362D;" d="M188.872,264.459c-3.082,0.12-5.869-0.746-8.867-0.615c-4.953,0.22-3.621,2.542-3.785,3.828
					c-0.063,0.512-0.477,0.926-1.191,1.357c-1.781,1.087,0.572,1.842,3.394,1.975c3.964,0.189,8.026,0.402,11.931,0.741
					c0.21,0.019,0.337,0.082,0.355,0.16c0.258,0.901-1.684,1.289-3.4,1.765c-4.286,1.199-1.002,2.8,3.045,3.398
					c1.604,0.233,2.399,0.19,3.867-0.072c0.332-0.06,0.819-0.146,1.209-0.142c0.752,0.017,1.412,0.113,1.896,0.343
					c1.901,0.91,1.369,2.13,5.111,2.46c1.621,0.142,5.342,0.314,6.157-0.435c0.372-0.347,0.532-0.882,1.498-1.096
					c1.029-0.228,2.196,0.097,3.203,0.166c1.697,0.111,4.202-0.382,4.186-1.072c-0.024-0.898-1.656-1.724-2.864-2.48
					c-0.767-0.48-1.819-1.043-1.771-1.619c0.006-0.119,0.245-0.186,0.555-0.165c3.963,0.229,4.234,1.941,7.532,2.462
					c3.593,0.564,8.089-0.905,6.421-2.267c-0.678-0.554-1.319-1.085-0.494-1.669c0.928-0.656,5.474-1.98,3.082-2.73
					c-1.36-0.431-0.715-0.805-0.769-1.395c-0.186-2.255-10.553-1.034-13.825-0.814c-0.293,0.021-0.571-0.045-0.596-0.157
					c-0.191-0.814,1.129-1.626,2.02-2.33c0.974-0.772,2.891-1.982,1.81-2.874c-2.07-1.716-7.756-0.499-11.038-0.316
					c-1.631,0.092-3.342-0.115-4.969-0.148c-2.099-0.04-3.516,0.24-4.999,0.763c-0.42,0.146-1.09-0.091-0.675-0.233
					c0.084-0.032,0.175-0.06,0.261-0.088c-1.881,0.051-3.852-0.119-5.795,0.103c-1.964,0.227-4.58,0.669-4.95,1.515
					c-0.275,0.638,1.621,1.035,2.744,1.399C189.489,264.277,189.238,264.446,188.872,264.459z"/>
				<g>
					<path style="fill:#F26D53;" d="M224.895,270.963c6.531,0.363,0.762-1.811-0.236-2.664c-0.791-0.666,1.617-0.861,3.239-0.949
						c-3.663-1.288-12.079,0.529-16.397,0.365c-0.409-0.012-0.684-0.117-0.619-0.274c0.785-1.878,4.981-3.379,5.736-5.29
						c0.295-0.748-0.871-1.62-3.276-1.029c-0.934,0.235-1.765,0.522-2.712,0.744c-1.506,0.357-3.686,0.492-5.34,0.095
						c-0.702-0.171-1.098-0.423-1.738-0.609c-2.05-0.589-3.994,0.357-4.953,0.918c-1.139,0.667-3.052,0.454-4.553,0.06
						c-1.139-0.301-2.72-0.556-3.874-0.019c-1.324,0.61,0.059,1.744,1.081,2.298c1.311,0.706,2.867,1.342,4.541,1.938
						c1.082,0.387,2.96,0.361,3.996,0.728c1.284,0.461,0.531,0.934-1.13,0.782c-1.772-0.164-2.657-1.004-4.142-1.348
						c-3.078-0.705-6.267-1.365-9.605-1.707c-3.426-0.347-6.78-0.2-7.512,1.307c-0.417,0.863,1.408,1.797,1.816,2.658
						c0.055,0.129-0.282,0.219-0.578,0.227c-1.646,0.057-3.463,0.293-1.552,0.868c0.723,0.218,1.494,0.414,2.335,0.565
						c1.955,0.35,3.821,0.473,5.971,0.387c4.559-0.179,9.248-0.796,13.736-0.085c0.469,0.075,0.35,0.294,0.039,0.38
						c-3.094,0.9-9.307,1.909-9.825,3.527c-0.271,0.83,0.74,1.582,3.22,1.488c0.827-0.035,1.65-0.089,2.479-0.113
						c1.526-0.041,2.838,0.01,4.259,0.239c0.222,0.039,0.392,0.162,0.305,0.247c-1.758,1.719,4.622,2.818,7.037,1.221
						c0.947-0.626,1.52-1.298,2.164-1.973c0.152-0.156,0.836-0.254,1.098-0.059c0.719,0.527,2.293,1.568,4.47,1.244
						c1.818-0.272-1.886-1.863-2.362-2.194c-1.277-0.886-3.036-2.661-1.541-3.596c2.278-1.433,5.848,1.296,6.706,1.846
						c0.942,0.609,2.786,1.397,4.738,1.579c1.257,0.118,4.593,0.475,4.954-0.275c0.183-0.391-0.055-0.791-0.389-1.168
						c-0.633-0.712-1.511-1.391-2.296-2.082C223.995,271.068,224.487,270.943,224.895,270.963z"/>
					<path style="fill:#F58876;" d="M220.904,268.411c-1.733,0.044-3.147,0.21-4.706,0.458c-1.661,0.266-3.824,0.551-5.575,0.135
						c-2.261-0.534-3.288-1.412-3.184-2.368c0.074-0.705,1.207-1.065,2.624-1.451c1.175-0.318,3.231-1.321,1.553-1.852
						c-0.89-0.278-2.104-0.373-3.237-0.399c-1.825-0.05-3.633,0-5.448,0.048c-0.215,0.008-0.361-0.028-0.445-0.079
						c-1.634,0.193-3.297,0.566-5.029,0.556c-0.842-0.004-1.292-0.11-0.701,0.241c0.287,0.177,0.615,0.331,1.001,0.477
						c1.843,0.693,4.066,1.254,5.722,2.01c1.318,0.602,2.323,1.376,1.43,2.126c-0.936,0.786-2.716,1.286-5.149,1.189
						c-2.972-0.123-5.674-0.974-8.096-1.557c-1.395-0.336-2.946-0.755-4.597-0.893c-1.438-0.126-1.396,0.119-1.576,0.609
						c-0.113,0.311-0.259,0.707,0.108,1.01c1.245,1.026,6.508,0.669,8.917,0.759c2.432,0.095,5.857,0.333,7.063,1.253
						c0.891,0.685,0.648,1.389-0.589,1.987c-1.312,0.633-3.69,0.77-5.211,1.309c-3.272,1.166,3.212,1.624,5.333,1.748
						c2.112,0.135,7.198,0.338,7.062-0.863c-0.133-1.185-4.602-3.666-1.225-4.656c3.331-0.977,6.858-0.381,8.69,0.868
						c1.128,0.771,4.138,1.96,5.881,0.672c0.888-0.663,1.336-1.62,0.63-2.351C221.963,269.199,221.618,268.392,220.904,268.411z"/>
					<g>
						<g>
							<path style="fill:#EEBB46;" d="M210.147,260.172c0,0-4.017-0.369-1.384,2.23
								C208.764,262.402,213.692,260.694,210.147,260.172z"/>
							<path style="fill:#FFFFFF;" d="M210.671,260.55c-0.357-0.026-0.766-0.05-1.054,0.023c-0.454,0.121-0.497,0.399-0.464,0.587
								c0.039,0.217,0.21,0.419,0.432,0.616C210.289,261.492,211.567,260.885,210.671,260.55z"/>
							<path style="fill:#EEBB46;" d="M208.499,260.968c0.082-0.266,0.239-0.561,0.97-0.686c0.323-0.05,0.702-0.053,1.069-0.035
								c-0.115-0.025-0.246-0.054-0.391-0.075c0,0-4.017-0.369-1.384,2.23c0,0,0.165-0.058,0.41-0.155
								C208.697,261.84,208.355,261.416,208.499,260.968z"/>
						</g>
						<g>
							<path style="fill:#EEBB46;" d="M215.816,260.862c0,0-3.55-0.794-3.182,1.955C212.635,262.817,218.788,261.75,215.816,260.862
								z"/>
							<path style="fill:#FFFFFF;" d="M216.009,261.274c-0.319-0.063-0.701-0.126-1.033-0.093c-0.531,0.061-0.801,0.32-0.927,0.503
								c-0.148,0.21-0.151,0.422-0.104,0.627C214.861,262.125,216.596,261.692,216.009,261.274z"/>
							<path style="fill:#EEBB46;" d="M213.573,261.43c0.308-0.243,0.701-0.503,1.502-0.537c0.355-0.016,0.719,0.026,1.061,0.08
								c-0.092-0.034-0.196-0.074-0.319-0.11c0,0-3.55-0.794-3.182,1.955c0,0,0.207-0.036,0.524-0.102
								C213.036,262.277,213.067,261.836,213.573,261.43z"/>
						</g>
						<g>
							<path style="fill:#EEBB46;" d="M219.893,262.775c0,0-1.806-1.369-5.655,0.954C214.237,263.729,221.07,264.1,219.893,262.775z
								"/>
							<path style="fill:#FFFFFF;" d="M219.428,263.154c-0.171-0.122-0.391-0.25-0.735-0.29c-0.545-0.056-1.168,0.102-1.547,0.222
								c-0.436,0.145-0.759,0.314-1.04,0.499C217.169,263.61,219.29,263.61,219.428,263.154z"/>
							<path style="fill:#EEBB46;" d="M217.129,262.785c0.634-0.143,1.361-0.272,2.091-0.135c0.32,0.057,0.574,0.167,0.777,0.283
								c-0.025-0.05-0.056-0.102-0.105-0.158c0,0-1.806-1.369-5.655,0.954c0,0,0.23,0.013,0.591,0.022
								C215.393,263.37,216.085,263.016,217.129,262.785z"/>
						</g>
						<g>
							<path style="fill:#EEBB46;" d="M205.564,259.856c0,0-4.082-0.239-0.828,2.27
								C204.735,262.127,209.215,260.261,205.564,259.856z"/>
							<path style="fill:#FFFFFF;" d="M206.181,260.217c-0.365-0.018-0.777-0.025-1.042,0.057c-0.429,0.131-0.396,0.412-0.321,0.6
								c0.09,0.214,0.307,0.412,0.581,0.602C206.028,261.168,207.154,260.52,206.181,260.217z"/>
							<path style="fill:#EEBB46;" d="M204.124,260.702c0.017-0.27,0.1-0.569,0.793-0.712c0.309-0.064,0.681-0.079,1.059-0.077
								c-0.123-0.021-0.257-0.043-0.412-0.057c0,0-4.082-0.239-0.828,2.27c0,0,0.151-0.066,0.369-0.17
								C204.528,261.563,204.091,261.15,204.124,260.702z"/>
						</g>
						<g>
							<path style="fill:#EEBB46;" d="M199.711,259.913c0,0-3.971,0.36,1.668,2.234
								C201.379,262.147,203.471,259.773,199.711,259.913z"/>
							<path style="fill:#FFFFFF;" d="M200.662,260.163c-0.352,0.036-0.741,0.088-0.891,0.2c-0.245,0.185,0.074,0.441,0.342,0.604
								c0.313,0.183,0.724,0.342,1.174,0.478C201.532,261.07,201.866,260.307,200.662,260.163z"/>
							<path style="fill:#EEBB46;" d="M199.298,260.907c-0.269-0.251-0.51-0.541-0.031-0.774c0.218-0.107,0.537-0.172,0.882-0.22
								c-0.134-0.002-0.276-0.004-0.438,0c0,0-3.971,0.36,1.668,2.234c0,0,0.069-0.079,0.159-0.211
								C200.596,261.654,199.755,261.332,199.298,260.907z"/>
						</g>
						<g>
							<path style="fill:#EEBB46;" d="M194.48,260.141c0,0-3.967,0.359,1.668,2.23C196.147,262.371,198.239,259.999,194.48,260.141z
								"/>
							<path style="fill:#FFFFFF;" d="M195.429,260.389c-0.354,0.037-0.738,0.087-0.89,0.201c-0.244,0.182,0.073,0.439,0.347,0.601
								c0.307,0.19,0.724,0.341,1.172,0.482C196.302,261.297,196.636,260.533,195.429,260.389z"/>
							<path style="fill:#EEBB46;" d="M194.067,261.131c-0.268-0.25-0.509-0.541-0.033-0.776c0.214-0.099,0.533-0.169,0.882-0.218
								c-0.136-0.002-0.278-0.002-0.436,0.004c0,0-3.967,0.359,1.668,2.23c0,0,0.07-0.074,0.16-0.205
								C195.361,261.878,194.522,261.557,194.067,261.131z"/>
						</g>
						<g>
							<path style="fill:#EEBB46;" d="M189.846,261.659c0,0-3.704,0.618,2.735,2.096
								C192.581,263.755,193.448,261.271,189.846,261.659z"/>
							<path style="fill:#FFFFFF;" d="M190.892,261.842c-0.328,0.061-0.673,0.134-0.77,0.257c-0.146,0.198,0.294,0.427,0.641,0.574
								c0.396,0.161,0.875,0.286,1.382,0.394C192.198,262.677,192.148,261.904,190.892,261.842z"/>
							<path style="fill:#EEBB46;" d="M189.931,262.666c-0.387-0.232-0.768-0.5-0.417-0.764c0.155-0.117,0.438-0.205,0.759-0.276
								c-0.138,0.006-0.277,0.018-0.427,0.033c0,0-3.704,0.618,2.735,2.096c0,0,0.033-0.086,0.06-0.218
								C191.572,263.32,190.587,263.061,189.931,262.666z"/>
						</g>
					</g>
					<g>
						<g>
							<path style="fill:#EEBB46;" d="M230.836,272.858c0,0,0.977-1.303-5.505-0.599
								C225.331,272.26,229.487,273.998,230.836,272.858z"/>
							<path style="fill:#FFFFFF;" d="M229.893,273.008c0.079-0.117,0.135-0.25-0.043-0.353c-0.285-0.155-0.975-0.186-1.439-0.188
								c-0.537-0.002-1.043,0.044-1.537,0.104C227.566,272.819,229.052,273.286,229.893,273.008z"/>
							<path style="fill:#EEBB46;" d="M228.892,272.262c0.667,0.048,1.39,0.121,1.679,0.365c0.131,0.11,0.131,0.233,0.083,0.357
								c0.063-0.036,0.127-0.077,0.183-0.126c0,0,0.977-1.303-5.505-0.599c0,0,0.141,0.059,0.374,0.144
								C226.731,272.272,227.788,272.188,228.892,272.262z"/>
						</g>
						<g>
							<path style="fill:#EEBB46;" d="M229.045,274.689c0,0,2.02-1.125-4.798-1.173C224.247,273.517,226.8,275.617,229.045,274.689z
								"/>
							<path style="fill:#FFFFFF;" d="M228.009,274.728c0.175-0.101,0.341-0.226,0.255-0.338c-0.146-0.18-0.782-0.285-1.23-0.342
								c-0.515-0.059-1.039-0.072-1.562-0.07C225.929,274.296,226.97,274.896,228.009,274.728z"/>
							<path style="fill:#EEBB46;" d="M227.67,273.912c0.597,0.117,1.237,0.267,1.311,0.53c0.024,0.118-0.074,0.233-0.224,0.35
								c0.097-0.032,0.19-0.064,0.287-0.104c0,0,2.02-1.125-4.798-1.173c0,0,0.088,0.067,0.243,0.174
								C225.58,273.682,226.673,273.721,227.67,273.912z"/>
						</g>
						<g>
							<path style="fill:#EEBB46;" d="M224.239,275.915c0,0,3.422-0.509-2.276-1.928
								C221.963,273.987,220.934,276.222,224.239,275.915z"/>
							<path style="fill:#FFFFFF;" d="M223.308,275.738c0.303-0.049,0.628-0.112,0.723-0.227c0.15-0.175-0.227-0.388-0.525-0.525
								c-0.342-0.152-0.767-0.271-1.213-0.374C222.204,274.962,222.175,275.666,223.308,275.738z"/>
							<path style="fill:#EEBB46;" d="M224.255,275.002c0.332,0.217,0.65,0.467,0.304,0.7c-0.149,0.101-0.417,0.181-0.71,0.239
								c0.124-0.006,0.249-0.016,0.391-0.026c0,0,3.422-0.509-2.276-1.928c0,0-0.041,0.075-0.073,0.191
								C222.837,274.392,223.7,274.642,224.255,275.002z"/>
						</g>
						<g>
							<path style="fill:#EEBB46;" d="M231.696,271.361c0,0,0.647-1.334-5.616-0.418
								C226.08,270.943,230.636,272.545,231.696,271.361z"/>
							<path style="fill:#FFFFFF;" d="M230.795,271.544c0.049-0.121,0.074-0.257-0.128-0.349c-0.322-0.148-1.015-0.158-1.474-0.145
								c-0.538,0.017-1.031,0.077-1.504,0.153C228.438,271.434,230.022,271.849,230.795,271.544z"/>
							<path style="fill:#EEBB46;" d="M229.622,270.833c0.671,0.022,1.403,0.069,1.758,0.308c0.149,0.108,0.181,0.231,0.163,0.355
								c0.056-0.04,0.105-0.082,0.153-0.135c0,0,0.647-1.334-5.616-0.418c0,0,0.151,0.053,0.403,0.135
								C227.472,270.91,228.501,270.792,229.622,270.833z"/>
						</g>
						<g>
							<path style="fill:#EEBB46;" d="M231.638,269.423c0,0-0.83-1.332-5.558,0.411C226.08,269.834,231.934,270.675,231.638,269.423
								z"/>
							<path style="fill:#FFFFFF;" d="M231.009,269.722c-0.079-0.119-0.203-0.251-0.482-0.307c-0.449-0.096-1.093-0.003-1.499,0.077
								c-0.474,0.092-0.857,0.216-1.205,0.354C228.745,269.953,230.636,270.114,231.009,269.722z"/>
							<path style="fill:#EEBB46;" d="M229.183,269.226c0.639-0.074,1.356-0.135,1.93,0.038c0.254,0.074,0.413,0.186,0.53,0.305
								c0.006-0.043,0.009-0.091-0.005-0.146c0,0-0.83-1.332-5.558,0.411c0,0,0.196,0.025,0.511,0.064
								C227.313,269.603,228.122,269.346,229.183,269.226z"/>
						</g>
						<g>
							<path style="fill:#EEBB46;" d="M231.159,267.682c0,0-0.83-1.337-5.564,0.409
								C225.595,268.091,231.454,268.932,231.159,267.682z"/>
							<path style="fill:#FFFFFF;" d="M230.531,267.978c-0.083-0.118-0.207-0.252-0.486-0.306c-0.455-0.094-1.095-0.007-1.499,0.077
								c-0.47,0.089-0.854,0.216-1.205,0.354C228.267,268.211,230.153,268.366,230.531,267.978z"/>
							<path style="fill:#EEBB46;" d="M228.701,267.481c0.637-0.075,1.357-0.136,1.931,0.038c0.256,0.078,0.417,0.186,0.527,0.306
								c0.009-0.046,0.016-0.095,0-0.144c0,0-0.83-1.337-5.564,0.409c0,0,0.202,0.025,0.518,0.064
								C226.83,267.861,227.645,267.602,228.701,267.481z"/>
						</g>
						<g>
							<path style="fill:#EEBB46;" d="M227.464,266.049c0,0-1.475-1.26-5.235,0.777
								C222.229,266.826,228.374,267.267,227.464,266.049z"/>
							<path style="fill:#FFFFFF;" d="M227.001,266.386c-0.141-0.112-0.324-0.233-0.632-0.27c-0.49-0.062-1.068,0.069-1.429,0.172
								c-0.414,0.126-0.73,0.276-0.999,0.434C224.899,266.766,226.824,266.797,227.001,266.386z"/>
							<path style="fill:#EEBB46;" d="M224.963,266.015c0.584-0.115,1.258-0.222,1.907-0.087c0.286,0.057,0.5,0.158,0.666,0.269
								c-0.008-0.048-0.031-0.096-0.072-0.147c0,0-1.475-1.26-5.235,0.777c0,0,0.205,0.012,0.532,0.033
								C223.32,266.514,223.987,266.205,224.963,266.015z"/>
						</g>
					</g>
					<g>
						<g>
							<path style="fill:#EEBB46;" d="M196.515,278.418c0,0,3.647,0.396,1.512-2.023
								C198.026,276.395,193.315,277.886,196.515,278.418z"/>
							<path style="fill:#FFFFFF;" d="M196.07,278.06c0.325,0.033,0.701,0.061,0.972-0.008c0.427-0.101,0.496-0.35,0.488-0.523
								c-0.01-0.201-0.144-0.389-0.327-0.57C196.525,277.209,195.283,277.744,196.07,278.06z"/>
							<path style="fill:#EEBB46;" d="M198.112,277.713c-0.109,0.244-0.283,0.51-0.968,0.612c-0.304,0.044-0.648,0.039-0.987,0.018
								c0.107,0.026,0.225,0.052,0.357,0.075c0,0,3.647,0.396,1.512-2.023c0,0-0.16,0.051-0.395,0.134
								C198.026,276.912,198.291,277.308,198.112,277.713z"/>
						</g>
						<g>
							<path style="fill:#EEBB46;" d="M191.381,277.703c0,0,3.177,0.777,3.134-1.74C194.515,275.963,188.749,276.85,191.381,277.703
								z"/>
							<path style="fill:#FFFFFF;" d="M191.25,277.319c0.285,0.067,0.628,0.132,0.933,0.101c0.505-0.049,0.781-0.277,0.915-0.444
								c0.153-0.188,0.185-0.384,0.157-0.577C192.396,276.56,190.756,276.932,191.25,277.319z"/>
							<path style="fill:#EEBB46;" d="M193.504,277.214c-0.308,0.222-0.697,0.453-1.439,0.471c-0.328,0.009-0.66-0.034-0.966-0.09
								c0.08,0.038,0.172,0.069,0.282,0.108c0,0,3.177,0.777,3.134-1.74c0,0-0.193,0.027-0.491,0.082
								C194.087,276.45,194.013,276.85,193.504,277.214z"/>
						</g>
						<g>
							<path style="fill:#EEBB46;" d="M187.845,275.893c0,0,1.512,1.277,5.302-0.792
								C193.146,275.102,186.912,274.66,187.845,275.893z"/>
							<path style="fill:#FFFFFF;" d="M188.318,275.551c0.144,0.113,0.332,0.233,0.636,0.274c0.496,0.063,1.084-0.074,1.45-0.179
								c0.417-0.124,0.733-0.275,1.007-0.439C190.44,275.166,188.487,275.134,188.318,275.551z"/>
							<path style="fill:#EEBB46;" d="M190.383,275.924c-0.593,0.115-1.272,0.227-1.931,0.092c-0.287-0.06-0.511-0.16-0.684-0.27
								c0.018,0.046,0.039,0.096,0.076,0.147c0,0,1.512,1.277,5.302-0.792c0,0-0.21-0.016-0.543-0.029
								C192.041,275.414,191.367,275.728,190.383,275.924z"/>
						</g>
						<g>
							<path style="fill:#EEBB46;" d="M200.689,278.776c0,0,3.718,0.276,1.007-2.071
								C201.696,276.705,197.378,278.349,200.689,278.776z"/>
							<path style="fill:#FFFFFF;" d="M200.159,278.435c0.334,0.024,0.71,0.034,0.963-0.039c0.406-0.114,0.41-0.369,0.357-0.539
								c-0.058-0.203-0.237-0.385-0.461-0.563C200.405,277.568,199.298,278.142,200.159,278.435z"/>
							<path style="fill:#EEBB46;" d="M202.105,278.022c-0.051,0.244-0.159,0.517-0.811,0.637c-0.289,0.058-0.632,0.066-0.98,0.058
								c0.113,0.019,0.232,0.038,0.376,0.061c0,0,3.718,0.276,1.007-2.071c0,0-0.145,0.058-0.359,0.15
								C201.821,277.221,202.185,277.607,202.105,278.022z"/>
						</g>
						<g>
							<path style="fill:#EEBB46;" d="M206.067,278.807c0,0,3.681-0.273-1.289-2.07C204.778,276.736,202.601,278.88,206.067,278.807
								z"/>
							<path style="fill:#FFFFFF;" d="M205.227,278.564c0.324-0.027,0.683-0.068,0.835-0.172c0.246-0.164-0.022-0.401-0.254-0.558
								c-0.265-0.175-0.622-0.318-1.023-0.456C204.521,277.721,204.124,278.414,205.227,278.564z"/>
							<path style="fill:#EEBB46;" d="M206.554,277.9c0.219,0.24,0.408,0.506-0.054,0.71c-0.205,0.095-0.513,0.151-0.834,0.19
								c0.122,0.007,0.256,0.009,0.401,0.007c0,0,3.681-0.273-1.289-2.07c0,0-0.074,0.074-0.171,0.19
								C205.446,277.199,206.186,277.508,206.554,277.9z"/>
						</g>
						<g>
							<path style="fill:#EEBB46;" d="M210.897,278.675c0,0,3.681-0.272-1.291-2.07C209.606,276.604,207.427,278.75,210.897,278.675
								z"/>
							<path style="fill:#FFFFFF;" d="M210.052,278.435c0.328-0.031,0.689-0.071,0.838-0.173c0.244-0.164-0.024-0.405-0.252-0.558
								c-0.267-0.176-0.625-0.32-1.02-0.454C209.348,277.59,208.954,278.284,210.052,278.435z"/>
							<path style="fill:#EEBB46;" d="M211.382,277.77c0.222,0.239,0.412,0.507-0.058,0.715c-0.205,0.093-0.509,0.147-0.828,0.188
								c0.125,0.002,0.255,0.005,0.401,0.002c0,0,3.681-0.272-1.291-2.07c0,0-0.07,0.071-0.17,0.19
								C210.278,277.068,211.012,277.377,211.382,277.77z"/>
						</g>
						<g>
							<path style="fill:#EEBB46;" d="M215.32,277.351c0,0,3.468-0.515-2.291-1.956C213.029,275.395,211.962,277.654,215.32,277.351
								z"/>
							<path style="fill:#FFFFFF;" d="M214.375,277.166c0.308-0.047,0.637-0.111,0.731-0.222c0.16-0.182-0.219-0.396-0.524-0.532
								c-0.345-0.156-0.771-0.281-1.226-0.383C213.265,276.381,213.227,277.093,214.375,277.166z"/>
							<path style="fill:#EEBB46;" d="M215.345,276.424c0.334,0.222,0.656,0.474,0.304,0.709c-0.16,0.103-0.43,0.182-0.728,0.244
								c0.131-0.008,0.258-0.014,0.399-0.026c0,0,3.468-0.515-2.291-1.956c0,0-0.034,0.074-0.073,0.195
								C213.914,275.803,214.788,276.059,215.345,276.424z"/>
						</g>
					</g>
					<g>
						<g>
							<path style="fill:#EEBB46;" d="M176.027,265.975c0,0-0.88,1.147,5.583,0.594C181.61,266.568,177.288,264.983,176.027,265.975
								z"/>
							<path style="fill:#FFFFFF;" d="M176.964,265.853c-0.068,0.103-0.114,0.222,0.066,0.311c0.299,0.144,0.998,0.181,1.468,0.189
								c0.542,0.005,1.046-0.026,1.535-0.075C179.317,266.049,177.788,265.617,176.964,265.853z"/>
							<path style="fill:#EEBB46;" d="M178.028,266.527c-0.67-0.049-1.406-0.118-1.716-0.342c-0.139-0.101-0.153-0.211-0.111-0.316
								c-0.064,0.03-0.122,0.064-0.174,0.105c0,0-0.88,1.147,5.583,0.594c0,0-0.146-0.052-0.388-0.131
								C180.201,266.543,179.148,266.605,178.028,266.527z"/>
						</g>
						<g>
							<path style="fill:#EEBB46;" d="M177.682,264.372c0,0-1.939,0.974,4.92,1.102C182.602,265.474,179.867,263.58,177.682,264.372
								z"/>
							<path style="fill:#FFFFFF;" d="M178.724,264.357c-0.17,0.085-0.324,0.189-0.226,0.291c0.159,0.16,0.803,0.268,1.259,0.315
								c0.525,0.058,1.05,0.08,1.578,0.082C180.848,264.764,179.753,264.217,178.724,264.357z"/>
							<path style="fill:#EEBB46;" d="M179.129,265.083c-0.612-0.114-1.267-0.251-1.358-0.489c-0.041-0.103,0.053-0.208,0.192-0.304
								c-0.087,0.024-0.181,0.051-0.281,0.082c0,0-1.939,0.974,4.92,1.102c0,0-0.094-0.065-0.257-0.16
								C181.249,265.309,180.15,265.266,179.129,265.083z"/>
						</g>
						<g>
							<path style="fill:#EEBB46;" d="M182.422,263.348c0,0-3.398,0.41,2.446,1.735
								C184.868,265.083,185.721,263.115,182.422,263.348z"/>
							<path style="fill:#FFFFFF;" d="M183.371,263.514c-0.3,0.039-0.623,0.092-0.705,0.189c-0.139,0.154,0.256,0.349,0.565,0.469
								c0.36,0.145,0.792,0.255,1.25,0.35C184.543,264.217,184.52,263.594,183.371,263.514z"/>
							<path style="fill:#EEBB46;" d="M182.48,264.15c-0.354-0.196-0.695-0.416-0.363-0.623c0.145-0.086,0.411-0.148,0.695-0.198
								c-0.125,0.002-0.252,0.004-0.39,0.018c0,0-3.398,0.41,2.446,1.735c0,0,0.026-0.067,0.05-0.173
								C183.953,264.712,183.064,264.48,182.48,264.15z"/>
						</g>
						<g>
							<path style="fill:#EEBB46;" d="M175.278,267.291c0,0-0.547,1.175,5.679,0.438
								C180.957,267.728,176.254,266.254,175.278,267.291z"/>
							<path style="fill:#FFFFFF;" d="M176.174,267.141c-0.042,0.104-0.059,0.227,0.152,0.311c0.337,0.136,1.032,0.15,1.499,0.146
								c0.537-0.014,1.03-0.058,1.497-0.121C178.551,267.267,176.921,266.883,176.174,267.141z"/>
							<path style="fill:#EEBB46;" d="M177.409,267.784c-0.675-0.031-1.419-0.078-1.788-0.296c-0.167-0.095-0.211-0.203-0.196-0.314
								c-0.054,0.036-0.103,0.069-0.146,0.116c0,0-0.547,1.175,5.679,0.438c0,0-0.155-0.055-0.413-0.127
								C179.564,267.738,178.536,267.833,177.409,267.784z"/>
						</g>
						<g>
							<path style="fill:#EEBB46;" d="M175.49,269.008c0,0,0.942,1.193,5.56-0.299C181.05,268.709,175.093,267.895,175.49,269.008z"
								/>
							<path style="fill:#FFFFFF;" d="M176.101,268.755c0.086,0.102,0.225,0.22,0.511,0.274c0.467,0.088,1.099,0.018,1.503-0.052
								c0.463-0.074,0.841-0.18,1.184-0.301C178.356,268.574,176.446,268.409,176.101,268.755z"/>
							<path style="fill:#EEBB46;" d="M177.977,269.212c-0.634,0.059-1.355,0.102-1.942-0.054c-0.263-0.072-0.434-0.173-0.559-0.277
								c-0.003,0.039-0.003,0.082,0.014,0.127c0,0,0.942,1.193,5.56-0.299c0,0-0.198-0.024-0.521-0.063
								C179.828,268.9,179.032,269.117,177.977,269.212z"/>
						</g>
						<g>
							<path style="fill:#EEBB46;" d="M176.107,270.557c0,0,0.944,1.196,5.564-0.299
								C181.672,270.258,175.715,269.445,176.107,270.557z"/>
							<path style="fill:#FFFFFF;" d="M176.722,270.303c0.088,0.104,0.222,0.224,0.511,0.277c0.462,0.088,1.101,0.013,1.501-0.049
								c0.463-0.074,0.843-0.185,1.182-0.305C178.977,270.125,177.066,269.959,176.722,270.303z"/>
							<path style="fill:#EEBB46;" d="M178.599,270.766c-0.636,0.056-1.354,0.102-1.946-0.061c-0.261-0.068-0.433-0.169-0.554-0.275
								c-0.006,0.04-0.006,0.083,0.009,0.127c0,0,0.944,1.196,5.564-0.299c0,0-0.201-0.023-0.521-0.061
								C180.447,270.448,179.654,270.668,178.599,270.766z"/>
						</g>
						<g>
							<path style="fill:#EEBB46;" d="M179.953,272.047c0,0,1.587,1.136,5.209-0.626
								C185.162,271.421,178.942,270.955,179.953,272.047z"/>
							<path style="fill:#FFFFFF;" d="M180.398,271.753c0.149,0.099,0.347,0.21,0.651,0.247c0.496,0.064,1.072-0.05,1.43-0.136
								c0.404-0.104,0.708-0.235,0.969-0.374C182.48,271.444,180.54,271.391,180.398,271.753z"/>
							<path style="fill:#EEBB46;" d="M182.472,272.103c-0.576,0.097-1.245,0.184-1.905,0.058c-0.298-0.058-0.519-0.145-0.699-0.245
								c0.02,0.042,0.044,0.084,0.086,0.131c0,0,1.587,1.136,5.209-0.626c0,0-0.21-0.015-0.542-0.034
								C184.085,271.678,183.442,271.946,182.472,272.103z"/>
						</g>
					</g>
				</g>
			</g>
		</g>
	</g>
</g>
<g>
	<path style="fill:#C0C2C4;" d="M361.717,338.162c0,5.356-32.618,9.693-72.858,9.693c-40.242,0-72.862-4.337-72.862-9.693
		c0-5.355,32.62-9.692,72.862-9.692C329.099,328.47,361.717,332.808,361.717,338.162z"/>
	<g>
		<path style="fill:#F9A45A;" d="M230.612,327.279c-1.46,4.772-0.11,16.225,58.664,16.225c58.245,0,58.176-12.302,58.664-16.225
			C348.431,323.354,232.072,322.509,230.612,327.279z"/>
		<path style="fill:#E4D0DA;" d="M231.525,332.874c-1.376-1.857-1.307-4.311-0.913-5.595c1.46-4.771,117.818-3.925,117.328,0
			c-0.136,1.104-0.212,3.192-1.825,5.165c-4.065-4.008-33.404-2.152-56.893-2.219C264.87,330.159,234.146,328.503,231.525,332.874z"
			/>
		<path style="fill:#5A360E;" d="M355.133,317.488c0,5.253-3.539,9.51-7.902,9.51H230.483c-4.362,0-7.902-4.257-7.902-9.51l0,0
			c0-5.25,3.54-9.507,7.902-9.507H347.23C351.594,307.981,355.133,312.238,355.133,317.488L355.133,317.488z"/>
		<path style="fill:#472800;" d="M347.23,320.27H230.483c-3.376,0-6.235-2.56-7.366-6.146c-0.334,1.051-0.536,2.178-0.536,3.364
			c0,5.253,3.54,9.51,7.902,9.51H347.23c4.363,0,7.902-4.257,7.902-9.51c0-1.187-0.2-2.314-0.535-3.364
			C353.468,317.71,350.604,320.27,347.23,320.27z"/>
		<path style="fill:#8F5929;" d="M351.66,312.737c0,2.625-3.334,4.754-7.447,4.754H234.231c-4.114,0-7.448-2.129-7.448-4.754l0,0
			c0-2.629,3.334-4.754,7.448-4.754h109.981C348.326,307.983,351.66,310.108,351.66,312.737L351.66,312.737z"/>
		<path style="fill:#FDBB24;" d="M271.526,315.188c0,0-15.284,9.861-20.662,9.13c-5.377-0.73-23.216-16.796-23.216-16.796
			l32.04-11.684L271.526,315.188z"/>
		<path style="fill:#FFD752;" d="M272.353,312.267c0,0-15.284,9.86-20.662,9.13c-5.377-0.73-23.216-16.796-23.216-16.796
			l32.039-11.682L272.353,312.267z"/>
		<path style="fill:#FDBB24;" d="M307.846,314.734c0,0-17.389,12.442-22.811,12.264c-5.423-0.179-24.806-14.345-24.806-14.345
			l30.686-14.886L307.846,314.734z"/>
		<path style="fill:#FFD752;" d="M305.184,312.825c0,0-14.2,11.363-19.623,11.185c-5.423-0.179-24.807-14.345-24.807-14.345
			l30.683-14.89L305.184,312.825z"/>
		<path style="fill:#FDBB24;" d="M347.522,308.109c0,0-14.879,15.355-20.248,16.148c-5.369,0.796-26.973-9.673-26.973-9.673
			l27.526-20.138L347.522,308.109z"/>
		<path style="fill:#FFD752;" d="M344.561,306.707c0,0-11.94,13.721-17.306,14.517c-5.37,0.795-26.975-9.674-26.975-9.674
			l27.525-20.139L344.561,306.707z"/>
		<g>
			<path style="fill:#C3313A;" d="M328.824,308.62c0,2.764-9.905,6.127-22.123,6.127c-12.216,0-22.124-3.363-22.124-6.127
				c0-2.76,0-5.001,0-5.001l44.247,0.671C328.824,304.29,328.824,307.116,328.824,308.62z"/>
			<path style="fill:#F04F4B;" d="M328.824,303.619c0,3.602-9.905,6.522-22.123,6.522c-12.216,0-22.124-2.92-22.124-6.522
				c0-3.603,9.908-6.521,22.124-6.521C318.919,297.099,328.824,300.017,328.824,303.619z"/>
			<path style="opacity:0.4;fill:#FFFFFF;" d="M312.598,307.742c0,0.747-2.641,0.881-5.896,0.881c-3.258,0-5.897-0.134-5.897-0.881
				c0-0.744,4.98-4.123,5.897-4.123C307.616,303.619,312.598,306.998,312.598,307.742z"/>
			<path style="opacity:0.4;fill:#FFFFFF;" d="M324.878,305.088c0.067,0.74-1.928,1.939-5.16,2.462
				c-3.234,0.523-4.577,0.102-5.108-0.136c-0.687-0.305-5.882-3.942-4.973-4.089C310.543,303.177,324.81,304.344,324.878,305.088z"
				/>
			<path style="opacity:0.4;fill:#FFFFFF;" d="M324.879,302.607c0.066-0.742-3.015-2.458-6.247-2.979
				c-3.233-0.523-3.491-0.799-4.022-0.564c-0.687,0.305-5.775,2.969-4.866,3.117C310.652,302.331,324.811,303.35,324.879,302.607z"
				/>
			<path style="opacity:0.4;fill:#FFFFFF;" d="M287.808,305.088c-0.066,0.74,1.929,1.939,5.161,2.462
				c3.233,0.523,4.578,0.102,5.108-0.136c0.687-0.305,5.327-3.931,4.419-4.075C301.588,303.191,287.877,304.344,287.808,305.088z"/>
			<path style="opacity:0.4;fill:#FFFFFF;" d="M287.808,302.607c-0.067-0.742,3.015-2.458,6.248-2.979
				c3.233-0.523,3.491-0.799,4.021-0.564c0.687,0.305,5.549,2.969,4.64,3.117C301.809,302.331,287.874,303.35,287.808,302.607z"/>
			<path style="opacity:0.4;fill:#FFFFFF;" d="M312.598,298.618c0-0.643-2.641-0.758-5.896-0.758c-3.258,0-5.897,0.115-5.897,0.758
				c0,0.65,4.98,3.564,5.897,3.564C307.616,302.182,312.598,299.268,312.598,298.618z"/>
		</g>
		<g>
			<path style="fill:#C3313A;" d="M285.121,309.901c0,2.76-9.903,6.125-22.121,6.125c-12.216,0-22.122-3.365-22.122-6.125
				c0-2.764,0-5.002,0-5.002l44.243,0.668C285.121,305.567,285.121,308.393,285.121,309.901z"/>
			<path style="fill:#F04F4B;" d="M285.121,304.899c0,3.601-9.903,6.518-22.121,6.518c-12.216,0-22.122-2.918-22.122-6.518
				c0-3.605,9.906-6.524,22.122-6.524C275.218,298.376,285.121,301.295,285.121,304.899z"/>
			<path style="opacity:0.4;fill:#FFFFFF;" d="M268.897,309.022c0,0.745-2.639,0.879-5.897,0.879c-3.256,0-5.895-0.134-5.895-0.879
				c0-0.749,4.98-4.123,5.895-4.123C263.915,304.899,268.897,308.273,268.897,309.022z"/>
			<path style="opacity:0.4;fill:#FFFFFF;" d="M281.178,306.364c0.066,0.741-1.928,1.94-5.16,2.463
				c-3.233,0.522-4.576,0.102-5.11-0.136c-0.685-0.303-5.879-3.942-4.971-4.087C266.843,304.456,281.109,305.622,281.178,306.364z"
				/>
			<path style="opacity:0.4;fill:#FFFFFF;" d="M281.179,303.885c0.067-0.74-3.015-2.458-6.249-2.98
				c-3.232-0.521-3.488-0.798-4.022-0.563c-0.685,0.306-5.772,2.972-4.864,3.118C266.952,303.606,281.111,304.627,281.179,303.885z"
				/>
			<path style="opacity:0.4;fill:#FFFFFF;" d="M244.108,306.364c-0.066,0.741,1.929,1.94,5.16,2.463
				c3.233,0.522,4.577,0.102,5.109-0.136c0.687-0.303,5.327-3.929,4.419-4.075C257.887,304.469,244.177,305.622,244.108,306.364z"/>
			<path style="opacity:0.4;fill:#FFFFFF;" d="M244.105,303.885c-0.066-0.74,3.018-2.458,6.249-2.98
				c3.233-0.521,3.491-0.798,4.023-0.563c0.687,0.306,5.55,2.972,4.64,3.118C258.108,303.606,244.173,304.627,244.105,303.885z"/>
			<path style="opacity:0.4;fill:#FFFFFF;" d="M268.897,299.897c0-0.645-2.639-0.76-5.897-0.76c-3.256,0-5.895,0.115-5.895,0.76
				c0,0.648,4.98,3.563,5.895,3.563C263.915,303.46,268.897,300.546,268.897,299.897z"/>
		</g>
		<g>
			<path style="fill:#C3313A;" d="M266.942,305.36c0,2.764-9.904,6.129-22.12,6.129c-12.22,0-22.123-3.365-22.123-6.129
				c0-2.76,0-5.001,0-5.001l44.243,0.67C266.942,301.029,266.942,303.856,266.942,305.36z"/>
			<path style="fill:#F04F4B;" d="M266.942,300.359c0,3.603-9.904,6.521-22.12,6.521c-12.22,0-22.123-2.918-22.123-6.521
				c0-3.604,9.903-6.523,22.123-6.523C257.038,293.836,266.942,296.756,266.942,300.359z"/>
			<path style="opacity:0.4;fill:#FFFFFF;" d="M250.718,304.483c0,0.746-2.642,0.877-5.896,0.877c-3.26,0-5.896-0.131-5.896-0.877
				c0-0.748,4.98-4.124,5.896-4.124C245.734,300.359,250.718,303.735,250.718,304.483z"/>
			<path style="opacity:0.4;fill:#FFFFFF;" d="M262.998,301.824c0.065,0.744-1.929,1.943-5.16,2.466
				c-3.233,0.52-4.578,0.1-5.109-0.135c-0.686-0.306-5.881-3.945-4.974-4.092C248.664,299.917,262.93,301.083,262.998,301.824z"/>
			<path style="opacity:0.4;fill:#FFFFFF;" d="M263,299.349c0.067-0.744-3.016-2.462-6.248-2.982
				c-3.232-0.523-3.492-0.797-4.023-0.563c-0.686,0.305-5.773,2.972-4.865,3.118C248.771,299.068,262.933,300.09,263,299.349z"/>
			<path style="opacity:0.4;fill:#FFFFFF;" d="M225.928,301.824c-0.066,0.744,1.928,1.943,5.162,2.466
				c3.233,0.52,4.576,0.1,5.107-0.135c0.688-0.306,5.326-3.933,4.418-4.08C239.707,299.931,225.998,301.083,225.928,301.824z"/>
			<path style="opacity:0.4;fill:#FFFFFF;" d="M225.928,299.349c-0.067-0.744,3.016-2.462,6.247-2.982
				c3.233-0.523,3.491-0.797,4.022-0.563c0.688,0.305,5.549,2.972,4.64,3.118C239.929,299.068,225.995,300.09,225.928,299.349z"/>
			<path style="opacity:0.4;fill:#FFFFFF;" d="M250.718,295.358c0-0.644-2.642-0.758-5.896-0.758c-3.26,0-5.896,0.114-5.896,0.758
				c0,0.648,4.98,3.563,5.896,3.563C245.734,298.922,250.718,296.007,250.718,295.358z"/>
		</g>
		<g>
			<path style="fill:#C3313A;" d="M306.701,306.508c0,2.765-9.904,6.13-22.124,6.13c-12.215,0-22.118-3.365-22.118-6.13
				c0-2.759,0-5.001,0-5.001l44.242,0.672C306.701,302.179,306.701,305.006,306.701,306.508z"/>
			<path style="fill:#F04F4B;" d="M306.701,301.507c0,3.603-9.904,6.525-22.124,6.525c-12.215,0-22.118-2.923-22.118-6.525
				c0-3.6,9.903-6.521,22.118-6.521C296.797,294.986,306.701,297.907,306.701,301.507z"/>
			<path style="opacity:0.4;fill:#FFFFFF;" d="M290.476,305.634c0,0.746-2.64,0.878-5.898,0.878c-3.255,0-5.895-0.132-5.895-0.878
				c0-0.748,4.982-4.127,5.895-4.127C285.494,301.507,290.476,304.886,290.476,305.634z"/>
			<path style="opacity:0.4;fill:#FFFFFF;" d="M302.755,302.975c0.069,0.742-1.927,1.941-5.16,2.464
				c-3.232,0.524-4.576,0.101-5.108-0.135c-0.685-0.302-5.88-3.944-4.97-4.09C288.422,301.066,302.686,302.234,302.755,302.975z"/>
			<path style="opacity:0.4;fill:#FFFFFF;" d="M302.758,300.497c0.066-0.742-3.014-2.46-6.248-2.981
				c-3.233-0.522-3.491-0.796-4.023-0.564c-0.685,0.304-5.773,2.974-4.864,3.119C288.529,300.22,302.691,301.239,302.758,300.497z"
				/>
			<path style="opacity:0.4;fill:#FFFFFF;" d="M265.686,302.975c-0.067,0.742,1.927,1.941,5.16,2.464
				c3.234,0.524,4.577,0.101,5.11-0.135c0.686-0.302,5.323-3.93,4.417-4.078C279.466,301.08,265.756,302.234,265.686,302.975z"/>
			<path style="opacity:0.4;fill:#FFFFFF;" d="M265.685,300.497c-0.067-0.742,3.017-2.46,6.249-2.981
				c3.233-0.522,3.49-0.796,4.023-0.564c0.686,0.304,5.547,2.974,4.638,3.119C279.688,300.22,265.752,301.239,265.685,300.497z"/>
			<path style="opacity:0.4;fill:#FFFFFF;" d="M290.476,296.507c0-0.643-2.64-0.758-5.898-0.758c-3.255,0-5.895,0.115-5.895,0.758
				c0,0.648,4.982,3.564,5.895,3.564C285.494,300.071,290.476,297.155,290.476,296.507z"/>
		</g>
		<g>
			<path style="fill:#C3313A;" d="M353.068,304.633c0,2.761-9.905,6.127-22.123,6.127c-12.217,0-22.121-3.366-22.121-6.127
				c0-2.763,0-5.003,0-5.003l44.244,0.673C353.068,300.303,353.068,303.126,353.068,304.633z"/>
			<path style="fill:#F04F4B;" d="M353.068,299.63c0,3.603-9.905,6.526-22.123,6.526c-12.217,0-22.121-2.923-22.121-6.526
				c0-3.6,9.904-6.521,22.121-6.521C343.163,293.109,353.068,296.03,353.068,299.63z"/>
			<path style="opacity:0.4;fill:#FFFFFF;" d="M336.842,303.755c0,0.751-2.641,0.878-5.896,0.878c-3.258,0-5.897-0.127-5.897-0.878
				c0-0.748,4.982-4.125,5.897-4.125C331.858,299.63,336.842,303.007,336.842,303.755z"/>
			<path style="opacity:0.4;fill:#FFFFFF;" d="M349.121,301.099c0.068,0.742-1.927,1.939-5.159,2.462
				c-3.234,0.523-4.577,0.102-5.109-0.133c-0.686-0.304-5.88-3.945-4.973-4.09C334.788,299.19,349.054,300.356,349.121,301.099z"/>
			<path style="opacity:0.4;fill:#FFFFFF;" d="M349.123,298.618c0.066-0.74-3.015-2.457-6.249-2.98
				c-3.231-0.521-3.489-0.799-4.021-0.563c-0.686,0.305-5.773,2.973-4.864,3.12C334.896,298.341,349.057,299.362,349.123,298.618z"
				/>
			<path style="opacity:0.4;fill:#FFFFFF;" d="M312.053,301.099c-0.067,0.742,1.93,1.939,5.158,2.462
				c3.234,0.523,4.58,0.102,5.111-0.133c0.686-0.304,5.327-3.93,4.418-4.078C325.832,299.202,312.121,300.356,312.053,301.099z"/>
			<path style="opacity:0.4;fill:#FFFFFF;" d="M312.051,298.618c-0.066-0.74,3.015-2.457,6.249-2.98
				c3.233-0.521,3.491-0.799,4.022-0.563c0.686,0.305,5.549,2.973,4.64,3.12C326.052,298.341,312.118,299.362,312.051,298.618z"/>
			<path style="opacity:0.4;fill:#FFFFFF;" d="M336.842,294.631c0-0.645-2.641-0.758-5.896-0.758c-3.258,0-5.897,0.113-5.897,0.758
				c0,0.649,4.982,3.565,5.897,3.565C331.858,298.195,336.842,295.28,336.842,294.631z"/>
		</g>
		<path style="fill:#527B38;" d="M240.845,287.038c-10.597,2.781-26.099,8.387-19.738,14.113c3.434,3.092,7.45-0.745,11.087,0.109
			c1.777,0.418,2.062,2.149,3.263,2.58c2.281,0.815,3.405,0.25,5.491,0.329c3.308,0.126,6.556-0.184,9.723-0.011
			c1.188,0.063,3.56,1.673,4.391,1.52c1.659-0.311,2.796-2.245,4.399-2.971c7.108-3.225,19.229-2.93,25.825,0.878
			c6.783,3.913,8.432,5.192,15.457,1.083c4.717-2.762,12.012-4.629,17.6-2.907c2.865,0.88,4.842,3.62,7.814,3.879
			c3.697,0.322,6.248-2.774,9.736-2.919c3.367-0.139,5.805,1.602,9.249,1.352c2.933-0.215,6.346-1.341,9.179-1.911
			c2.011-8.502-15.709-17.533-20.861-21.836L240.845,287.038z"/>
		<path style="fill:#F9A45A;" d="M230.248,289.819c-1.461-10.955,11.197-37.242,58.661-37.242c47.957,0,58.181,28.232,58.667,37.242
			C348.064,298.824,231.707,300.772,230.248,289.819z"/>
		<path style="fill:#E4D0DA;" d="M232.557,278.445c-2.059,4.359-2.703,8.423-2.309,11.374c1.459,10.952,117.816,9.005,117.328,0
			c-0.138-2.54-1.049-6.603-3.359-11.135c-4.065,9.197-31.87,14.275-55.359,14.425C264.506,293.267,235.177,288.479,232.557,278.445
			z"/>
		<path style="fill:#FFE7CC;" d="M257,265.842c-1.256,1.311-2.658,2.005-3.131,1.55c-0.475-0.455,0.159-1.882,1.414-3.193
			c1.257-1.311,3.132-1.553,3.132-1.553S258.254,264.533,257,265.842z"/>
		<path style="fill:#FFE7CC;" d="M272.467,270.244c-0.517,1.739-1.445,2.997-2.076,2.81c-0.627-0.188-0.72-1.75-0.202-3.488
			c0.517-1.737,2.073-2.81,2.073-2.81S272.984,268.503,272.467,270.244z"/>
		<path style="fill:#FFE7CC;" d="M282.392,262.976c-0.517,1.739-1.445,2.997-2.072,2.813c-0.631-0.188-0.722-1.751-0.203-3.489
			c0.516-1.739,2.072-2.811,2.072-2.811S282.908,261.235,282.392,262.976z"/>
		<path style="fill:#FFE7CC;" d="M269.967,260.127c-0.99,1.523-2.237,2.464-2.788,2.105c-0.548-0.359-0.192-1.881,0.796-3.403
			c0.991-1.518,2.788-2.105,2.788-2.105S270.955,258.605,269.967,260.127z"/>
		<path style="fill:#FFE7CC;" d="M293.035,269.42c0.737,1.663,0.848,3.221,0.251,3.486c-0.603,0.266-1.688-0.862-2.423-2.52
			c-0.736-1.659-0.248-3.484-0.248-3.484S292.299,267.763,293.035,269.42z"/>
		<path style="fill:#FFE7CC;" d="M299.055,260.753c0.738,1.659,0.849,3.219,0.248,3.484c-0.6,0.268-1.682-0.861-2.419-2.521
			c-0.737-1.658-0.251-3.484-0.251-3.484S298.318,259.094,299.055,260.753z"/>
		<path style="fill:#FFE7CC;" d="M309.282,266.332c1.665,0.729,2.797,1.809,2.534,2.409c-0.266,0.597-1.828,0.495-3.489-0.234
			c-1.659-0.728-2.532-2.405-2.532-2.405S307.621,265.603,309.282,266.332z"/>
		<path style="fill:#FFE7CC;" d="M315.441,258.263c1.802,0.216,3.197,0.919,3.121,1.57c-0.082,0.65-1.607,1.004-3.408,0.787
			c-1.8-0.215-3.121-1.57-3.121-1.57S313.638,258.044,315.441,258.263z"/>
		<path style="fill:#FFE7CC;" d="M305.699,255.808c1.802,0.218,3.199,0.921,3.122,1.572c-0.082,0.652-1.607,1.004-3.408,0.788
			c-1.8-0.216-3.12-1.571-3.12-1.571S303.897,255.592,305.699,255.808z"/>
	</g>
</g>
<g>
	<path style="fill:#C0C2C4;" d="M164.459,336.039c0,2.785-16.962,5.04-37.887,5.04c-20.926,0-37.889-2.255-37.889-5.04
		c0-2.784,16.963-5.041,37.889-5.041C147.497,330.998,164.459,333.255,164.459,336.039z"/>
	<g>
		<path style="fill:#9B9DA0;" d="M153.729,148.468c-1.1-0.104-2.075,0.705-2.178,1.808l-2.816,30.657l-4.943-0.457l2.819-30.654
			c0.101-1.1-0.71-2.078-1.812-2.176c-1.102-0.101-2.076,0.712-2.176,1.809l-2.819,30.66l-5.106-0.471l2.816-30.662
			c0.102-1.097-0.709-2.068-1.814-2.172c-1.103-0.105-2.073,0.711-2.175,1.814l-2.815,30.649l-4.57-0.418l2.819-30.658
			c0.097-1.092-0.71-2.066-1.812-2.174c-1.103-0.102-2.073,0.712-2.179,1.814l-3.201,34.811
			c-0.455,4.985,4.766,14.703,10.347,15.941c-0.077,2.613-0.208,6.012-0.443,9.959c-0.266,4.688-0.651,10.151-1.161,15.99
			c-0.227,2.931-0.546,5.938-0.85,9.003c-0.284,3.075-0.629,6.183-1.021,9.289c-0.397,3.102-0.814,6.205-1.337,9.251
			c-0.513,3.044-1.015,6.038-1.502,8.939c-0.996,5.803-1.918,11.212-2.509,15.871c-0.276,2.332-0.588,4.466-0.758,6.363
			c-0.164,1.899-0.142,3.561-0.089,4.943c0.14,2.771,0.615,4.376,0.615,4.376c0.327,1.095,1.088,2.07,2.18,2.623
			c2.123,1.077,4.718,0.233,5.793-1.885c0,0,0.766-1.506,1.405-4.193c0.305-1.343,0.628-2.984,0.815-4.879
			c0.181-1.9,0.257-4.055,0.416-6.396c0.267-4.686,0.345-10.176,0.423-16.055c0.052-2.945,0.104-5.985,0.155-9.074
			c0.04-3.09,0.194-6.21,0.37-9.339c0.183-3.126,0.412-6.243,0.689-9.31c0.261-3.072,0.499-6.092,0.807-9.01
			c0.561-5.835,1.178-11.281,1.773-15.936c0.496-3.97,0.989-7.361,1.389-9.953c5.482-0.687,12.593-8.568,13.068-13.718l3.197-34.804
			C155.64,149.542,154.828,148.567,153.729,148.468z"/>
		<path style="fill:#D1D3D4;" d="M168.747,160.099c-1.095-0.16-2.112,0.602-2.273,1.688l-4.457,30.46l-4.912-0.717l4.458-30.464
			c0.159-1.09-0.597-2.109-1.691-2.268c-1.096-0.16-2.111,0.597-2.272,1.693l-4.459,30.459l-5.076-0.739l4.46-30.463
			c0.159-1.095-0.598-2.115-1.693-2.271c-1.095-0.16-2.106,0.595-2.268,1.689l-4.456,30.454l-4.543-0.658l4.459-30.462
			c0.158-1.093-0.596-2.111-1.694-2.268c-1.093-0.161-2.11,0.599-2.268,1.694l-5.067,34.584c-0.721,4.955,3.968,14.935,9.479,16.482
			c-0.221,2.604-0.534,5.984-0.98,9.915c-0.516,4.668-1.193,10.105-2.018,15.906c-0.383,2.914-0.861,5.902-1.331,8.948
			c-0.45,3.05-0.958,6.131-1.517,9.212c-0.563,3.081-1.146,6.157-1.832,9.168c-0.674,3.012-1.34,5.982-1.98,8.848
			c-1.303,5.741-2.518,11.091-3.355,15.714c-0.4,2.313-0.829,4.427-1.098,6.315c-0.264,1.885-0.334,3.551-0.355,4.932
			c-0.008,2.768,0.379,4.403,0.379,4.403c0.268,1.107,0.975,2.122,2.034,2.731c2.062,1.193,4.698,0.49,5.89-1.569
			c0,0,0.845-1.46,1.628-4.113c0.374-1.324,0.784-2.942,1.07-4.83c0.283-1.884,0.478-4.034,0.757-6.36
			c0.521-4.669,0.897-10.148,1.29-16.01c0.208-2.938,0.424-5.973,0.641-9.05c0.204-3.081,0.528-6.195,0.87-9.31
			c0.352-3.107,0.749-6.215,1.188-9.26c0.422-3.049,0.825-6.055,1.292-8.951c0.871-5.795,1.78-11.201,2.622-15.821
			c0.707-3.932,1.381-7.292,1.925-9.859c5.508-0.395,13.031-7.881,13.782-12.998l5.062-34.581
			C170.595,161.277,169.84,160.261,168.747,160.099z"/>
		<path style="fill:#B6B8BA;" d="M112.558,150.195c-8.776,1.089-16.53,18.576-14.761,32.847
			c1.576,12.744,11.861,17.497,17.179,17.986c0.527,2.703,1.291,6.844,2.097,11.943c0.736,4.635,1.527,10.049,2.271,15.873
			c0.403,2.902,0.733,5.918,1.09,8.971c0.377,3.055,0.703,6.174,0.985,9.288c0.272,3.117,0.526,6.237,0.663,9.325
			c0.151,3.082,0.299,6.119,0.444,9.057c0.263,5.88,0.516,11.357,0.931,16.038c0.23,2.336,0.376,4.491,0.616,6.381
			c0.248,1.887,0.622,3.513,0.97,4.851c0.723,2.666,1.533,4.148,1.533,4.148c0.551,0.996,1.501,1.78,2.688,2.088
			c2.303,0.604,4.655-0.778,5.262-3.07c0,0,0.425-1.641,0.474-4.396c0.01-1.381-0.022-3.055-0.245-4.948
			c-0.229-1.892-0.607-4.009-0.961-6.332c-0.736-4.636-1.83-10.015-3.008-15.78c-0.576-2.883-1.174-5.867-1.779-8.895
			c-0.622-3.027-1.137-6.11-1.631-9.201c-0.488-3.093-0.93-6.193-1.313-9.248c-0.399-3.055-0.812-6.053-1.13-8.978
			c-0.703-5.816-1.258-11.265-1.667-15.938c-0.462-5.043-0.73-9.177-0.878-11.936c4.481-1.148,12.055-10.466,10.673-21.592
			C131.633,167.124,121.33,149.11,112.558,150.195z"/>
		<path style="fill:#D1D3D4;" d="M97.154,169.784c-8.775,1.087-16.528,18.572-14.76,32.844
			c1.576,12.745,11.863,17.499,17.182,17.988c0.523,2.703,1.287,6.844,2.094,11.941c0.738,4.637,1.527,10.051,2.271,15.872
			c0.403,2.902,0.732,5.921,1.091,8.976c0.376,3.057,0.702,6.169,0.985,9.287c0.271,3.119,0.527,6.237,0.663,9.321
			c0.15,3.083,0.3,6.119,0.443,9.058c0.262,5.879,0.515,11.363,0.931,16.041c0.23,2.336,0.376,4.488,0.613,6.377
			c0.25,1.89,0.627,3.516,0.972,4.852c0.723,2.67,1.533,4.149,1.533,4.149c0.553,0.992,1.502,1.781,2.688,2.088
			c2.304,0.607,4.657-0.778,5.263-3.069c0,0,0.424-1.641,0.474-4.399c0.009-1.38-0.022-3.053-0.246-4.946
			c-0.228-1.894-0.609-4.01-0.96-6.332c-0.734-4.635-1.833-10.014-3.008-15.78c-0.577-2.882-1.174-5.867-1.778-8.895
			c-0.625-3.027-1.14-6.109-1.633-9.202c-0.488-3.09-0.93-6.191-1.312-9.246c-0.401-3.055-0.813-6.056-1.133-8.976
			c-0.702-5.819-1.257-11.267-1.668-15.944c-0.459-5.041-0.725-9.175-0.877-11.93c4.481-1.147,12.056-10.47,10.675-21.595
			C116.23,186.71,105.93,168.696,97.154,169.784z"/>
		<g>
			<polygon style="fill:#74D1F6;" points="148.86,336.039 100.259,336.039 88.684,228.704 155.178,228.704 			"/>
			<path style="fill:#64B3D4;" d="M114.734,295.005c-2.77-12.799-3.382-25.209-2.579-37.428c0.063-9.557,1.188-19.376,2.936-28.873
				H88.684l11.575,107.335h48.602l0.194-3.314C132.059,328.531,118.341,311.643,114.734,295.005z"/>
		</g>
	</g>
</g>
</svg>
