<?xml version="1.0" encoding="utf-8"?>
<!-- Generator: Adobe Illustrator 27.5.0, SVG Export Plug-In . SVG Version: 6.00 Build 0)  -->
<svg version="1.1" xmlns="http://www.w3.org/2000/svg" xmlns:xlink="http://www.w3.org/1999/xlink" x="0px" y="0px"
	 viewBox="0 0 500 500" style="enable-background:new 0 0 500 500;" xml:space="preserve">
<g id="Background_Complete">
	<g>
		<rect x="416.779" y="398.494" style="fill:#EBEBEB;" width="33.122" height="0.25"/>
		<rect x="322.527" y="401.208" style="fill:#EBEBEB;" width="8.693" height="0.25"/>
		<rect x="396.586" y="389.208" style="fill:#EBEBEB;" width="19.192" height="0.25"/>
		<rect x="52.459" y="390.888" style="fill:#EBEBEB;" width="43.193" height="0.25"/>
		<rect x="104.556" y="390.888" style="fill:#EBEBEB;" width="6.333" height="0.25"/>
		<rect x="131.471" y="395.111" style="fill:#EBEBEB;" width="93.676" height="0.25"/>
		<path style="fill:#EBEBEB;" d="M237.014,337.8H43.915c-3.147,0-5.708-2.561-5.708-5.708V60.66c0-3.147,2.561-5.708,5.708-5.708
			h193.099c3.146,0,5.707,2.561,5.707,5.708v271.432C242.721,335.239,240.16,337.8,237.014,337.8z M43.915,55.203
			c-3.01,0-5.458,2.448-5.458,5.458v271.432c0,3.01,2.448,5.458,5.458,5.458h193.099c3.009,0,5.457-2.448,5.457-5.458V60.66
			c0-3.009-2.448-5.458-5.457-5.458H43.915z"/>
		<path style="fill:#EBEBEB;" d="M453.31,337.8H260.212c-3.147,0-5.707-2.561-5.707-5.708V60.66c0-3.147,2.561-5.708,5.707-5.708
			H453.31c3.148,0,5.708,2.561,5.708,5.708v271.432C459.019,335.239,456.458,337.8,453.31,337.8z M260.212,55.203
			c-3.009,0-5.457,2.448-5.457,5.458v271.432c0,3.01,2.448,5.458,5.457,5.458H453.31c3.01,0,5.458-2.448,5.458-5.458V60.66
			c0-3.009-2.448-5.458-5.458-5.458H260.212z"/>
		<rect y="382.398" style="fill:#EBEBEB;" width="500" height="0.25"/>
	</g>
	<g>
		<g>
			
				<rect x="234.689" y="263.335" transform="matrix(-1.836970e-16 1 -1 -1.836970e-16 616.9305 -83.0954)" style="fill:#F0F0F0;" width="230.648" height="7.165"/>
			
				<rect x="311.006" y="263.335" transform="matrix(-1.836970e-16 1 -1 -1.836970e-16 693.2471 -159.4119)" style="fill:#F5F5F5;" width="230.648" height="7.165"/>
			
				<rect x="-41.653" y="263.335" transform="matrix(-1.836970e-16 1 -1 -1.836970e-16 340.5881 193.2471)" style="fill:#E6E6E6;" width="230.648" height="7.165"/>
			<rect x="70.088" y="341.827" style="fill:#E6E6E6;" width="83.481" height="10.551"/>
			<rect x="153.569" y="341.827" style="fill:#F5F5F5;" width="276.342" height="10.551"/>
			<rect x="70.088" y="246.71" style="fill:#E6E6E6;" width="83.481" height="10.551"/>
			<rect x="153.569" y="246.71" style="fill:#F5F5F5;" width="276.342" height="10.551"/>
			<rect x="70.088" y="151.594" style="fill:#E6E6E6;" width="83.481" height="10.551"/>
			<rect x="153.569" y="151.594" style="fill:#F5F5F5;" width="276.342" height="10.551"/>
			
				<rect x="34.663" y="263.335" transform="matrix(-1.836970e-16 1 -1 -1.836970e-16 416.9047 116.9305)" style="fill:#E6E6E6;" width="230.648" height="7.165"/>
		</g>
		<g>
			<polygon style="fill:#E6E6E6;" points="117.972,177.321 97.472,177.321 96.472,167.654 118.972,167.654 			"/>
			<path style="fill:#F5F5F5;" d="M115.878,247.112H99.567c-8.014,0-14.511-6.497-14.511-14.511v-33.798
				c0-6.674,5.41-12.084,12.084-12.084h21.166c6.674,0,12.084,5.41,12.084,12.084V232.6
				C130.389,240.615,123.892,247.112,115.878,247.112z"/>
			<rect x="95.722" y="177.988" style="fill:#F5F5F5;" width="24" height="17.727"/>
			<path style="fill:#F5F5F5;" d="M123.722,177.988h-32c-1.105,0-2-0.895-2-2l0,0c0-1.105,0.895-2,2-2h32c1.105,0,2,0.895,2,2l0,0
				C125.722,177.092,124.827,177.988,123.722,177.988z"/>
		</g>
		<g>
			<polygon style="fill:#E6E6E6;" points="233.282,294.831 217.631,294.831 216.867,287.45 234.046,287.45 			"/>
			<rect x="216.295" y="295.34" style="fill:#F5F5F5;" width="18.324" height="13.535"/>
			<path style="fill:#F0F0F0;" d="M234.307,342.437c4.328,0,8.028-3.267,8.401-7.579c0.036-0.413,0.054-0.832,0.054-1.255v-19.514
				c0-6.674-5.41-12.084-12.084-12.084h-10.444c-6.674,0-12.084,5.41-12.084,12.084v19.514c0,0.423,0.018,0.841,0.054,1.255
				c0.373,4.312,4.073,7.579,8.401,7.579H234.307z"/>
			<path style="fill:#F0F0F0;" d="M237.672,295.34h-24.432c-0.843,0-1.527-0.684-1.527-1.527l0,0c0-0.843,0.684-1.527,1.527-1.527
				h24.432c0.843,0,1.527,0.684,1.527,1.527l0,0C239.199,294.656,238.516,295.34,237.672,295.34z"/>
		</g>
		<g>
			<path style="fill:#F0F0F0;" d="M257.701,341.556h12.874c1.009,0,1.989-0.336,2.79-0.949c3.833-2.934,6.228-7.651,5.943-12.913
				c-0.412-7.614-6.587-13.842-14.197-14.314c-8.828-0.548-16.159,6.45-16.159,15.159c0,4.982,2.399,9.403,6.105,12.173
				C255.816,341.279,256.754,341.556,257.701,341.556z"/>
			<rect x="260.045" y="300.567" style="fill:#F0F0F0;" width="8.195" height="20.269"/>
			<path style="fill:#F0F0F0;" d="M269.131,301.711h-9.978c-0.929,0-1.682-0.753-1.682-1.682l0,0c0-0.929,0.753-1.682,1.682-1.682
				h9.978c0.929,0,1.682,0.753,1.682,1.682l0,0C270.813,300.958,270.06,301.711,269.131,301.711z"/>
			<g>
				<path style="fill:#E0E0E0;" d="M281.819,332.671c-2.16,1.069-4.682,0.265-6.174-1.534c-2.319-2.794-0.771-5.446,0.386-8.299
					c1.042-2.571,1.36-4.769,0.31-7.374c-0.55-1.365-1.364-2.597-1.776-4.022c-0.651-2.252-0.188-4.477,0.243-6.72
					c0.492-2.557,1.363-5.495,0.379-8.037c-1.454-3.755-8.713-6.29-11.668-2.948c-1.065,1.205-1.362,2.886-1.273,4.61h1.804
					c-0.035-2.925,1.323-5.168,5.666-3.948c8.001,2.246,1.624,11.829,3.233,17.488c0.764,2.688,2.726,4.806,2.335,7.748
					c-0.457,3.438-3.196,5.886-2.412,9.579c0.915,4.311,5.821,6.867,9.792,4.902C283.63,333.638,282.782,332.193,281.819,332.671z"
					/>
			</g>
			<path style="fill:#E0E0E0;" d="M273.372,306.351c0,0-0.63,9.648-4.843,5.414C264.316,307.529,273.372,306.351,273.372,306.351z"
				/>
			<path style="fill:#E0E0E0;" d="M275.88,318.059c0,0,8.838,3.921,3.41,6.413C273.861,326.965,275.88,318.059,275.88,318.059z"/>
			<path style="fill:#E0E0E0;" d="M276.929,333.317c0,0,8.838,3.921,3.41,6.413C274.91,342.223,276.929,333.317,276.929,333.317z"/>
			<path style="fill:#E0E0E0;" d="M280.681,333.745c0,0,3.887-8.854,6.4-3.435C289.595,335.729,280.681,333.745,280.681,333.745z"/>
			<path style="fill:#E0E0E0;" d="M270.555,293.33c0,0,6.367-7.277,7.136-1.353C278.461,297.901,270.555,293.33,270.555,293.33z"/>
			<path style="fill:#E0E0E0;" d="M274.421,301.711c0,0,9.483,1.887,4.734,5.509C274.405,310.843,274.421,301.711,274.421,301.711z"
				/>
		</g>
		<g>
			<path style="fill:#F0F0F0;" d="M307.181,342.437h9.271c0.727,0,1.432-0.242,2.009-0.683c2.76-2.113,4.485-5.51,4.28-9.299
				c-0.297-5.483-4.743-9.968-10.224-10.308c-6.357-0.395-11.637,4.644-11.637,10.917c0,3.588,1.728,6.771,4.396,8.766
				C305.823,342.238,306.498,342.437,307.181,342.437z"/>
			<rect x="308.868" y="306.489" style="fill:#F0F0F0;" width="5.901" height="22.636"/>
			<path style="fill:#F0F0F0;" d="M315.412,307.312h-7.185c-0.669,0-1.211-0.542-1.211-1.211l0,0c0-0.669,0.542-1.211,1.211-1.211
				h7.185c0.669,0,1.211,0.542,1.211,1.211l0,0C316.623,306.77,316.08,307.312,315.412,307.312z"/>
		</g>
		<g>
			<rect x="120.328" y="122.767" style="fill:#EBEBEB;" width="5.505" height="13.616"/>
			<path style="fill:#EBEBEB;" d="M126.432,123.535h-6.703c-0.624,0-1.13-0.506-1.13-1.13l0,0c0-0.624,0.506-1.13,1.13-1.13h6.703
				c0.624,0,1.13,0.506,1.13,1.13l0,0C127.561,123.029,127.056,123.535,126.432,123.535z"/>
			<path style="fill:#EBEBEB;" d="M112.061,148.006l11.019-16.371l11.019,16.371c1.029,1.53-0.067,3.588-1.91,3.588h-18.217
				C112.128,151.594,111.032,149.535,112.061,148.006z"/>
		</g>
		<g>
			<rect x="184.141" y="301.718" style="fill:#EBEBEB;" width="7.777" height="19.233"/>
			<path style="fill:#EBEBEB;" d="M192.763,302.803h-9.468c-0.881,0-1.596-0.714-1.596-1.596l0,0c0-0.881,0.714-1.596,1.596-1.596
				h9.468c0.881,0,1.596,0.715,1.596,1.596l0,0C194.359,302.089,193.644,302.803,192.763,302.803z"/>
			<path style="fill:#EBEBEB;" d="M172.464,337.368l15.565-23.124l15.564,23.124c1.454,2.16-0.094,5.069-2.698,5.069h-25.732
				C172.558,342.437,171.01,339.529,172.464,337.368z"/>
		</g>
		<g>
			<rect x="83.618" y="290.11" style="fill:#F5F5F5;" width="6.938" height="33.159"/>
			<path style="fill:#F5F5F5;" d="M91.311,291.078h-8.447c-0.786,0-1.424-0.637-1.424-1.424l0,0c0-0.786,0.637-1.424,1.424-1.424
				h8.447c0.786,0,1.424,0.637,1.424,1.424l0,0C92.734,290.441,92.097,291.078,91.311,291.078z"/>
			<path style="fill:#F5F5F5;" d="M73.202,337.915l13.886-20.63l13.886,20.63c1.297,1.927-0.084,4.522-2.407,4.522H75.609
				C73.285,342.437,71.904,339.843,73.202,337.915z"/>
		</g>
		<g>
			<path style="fill:#F0F0F0;" d="M116.241,305.82c-0.485,0-0.727,0.586-0.385,0.928l2.308,2.308v30.451
				c0,1.618,1.312,2.929,2.929,2.929h17.137c1.618,0,2.929-1.311,2.929-2.929V305.82H116.241z"/>
		</g>
		<g>
			<path style="fill:#F5F5F5;" d="M269.436,115.489c-0.484,0-0.727,0.586-0.384,0.928l2.308,2.308v30.451
				c0,1.618,1.311,2.929,2.929,2.929h17.137c1.618,0,2.929-1.312,2.929-2.929v-33.688H269.436z"/>
		</g>
		<g>
			<path style="fill:#F5F5F5;" d="M79.955,109.91c-0.551,0-0.828,0.667-0.438,1.057l2.628,2.628v34.665
				c0,1.842,1.493,3.335,3.335,3.335h19.509c1.842,0,3.335-1.493,3.335-3.335v-38.35H79.955z"/>
			<g>
				<g>
					<path style="fill:#E6E6E6;" d="M100.17,112.144c1.542,0,3.083,0,4.625,0c0.518,0,0.519-0.806,0-0.806c-1.542,0-3.083,0-4.625,0
						C99.652,111.338,99.651,112.144,100.17,112.144L100.17,112.144z"/>
				</g>
				<g>
					<path style="fill:#E6E6E6;" d="M101.961,114.591c0.945,0,1.89,0,2.835,0c0.518,0,0.519-0.806,0-0.806c-0.945,0-1.89,0-2.835,0
						C101.442,113.786,101.441,114.591,101.961,114.591L101.961,114.591z"/>
				</g>
				<g>
					<path style="fill:#E6E6E6;" d="M101.961,117.039c0.945,0,1.89,0,2.835,0c0.518,0,0.519-0.806,0-0.806c-0.945,0-1.89,0-2.835,0
						C101.442,116.233,101.441,117.039,101.961,117.039L101.961,117.039z"/>
				</g>
				<g>
					<path style="fill:#E6E6E6;" d="M101.961,119.487c0.945,0,1.89,0,2.835,0c0.518,0,0.519-0.806,0-0.806c-0.945,0-1.89,0-2.835,0
						C101.442,118.681,101.441,119.487,101.961,119.487L101.961,119.487z"/>
				</g>
				<g>
					<path style="fill:#E6E6E6;" d="M101.961,121.934c0.945,0,1.89,0,2.835,0c0.518,0,0.519-0.806,0-0.806c-0.945,0-1.89,0-2.835,0
						C101.442,121.129,101.441,121.934,101.961,121.934L101.961,121.934z"/>
				</g>
				<g>
					<path style="fill:#E6E6E6;" d="M100.17,124.382c1.542,0,3.083,0,4.625,0c0.518,0,0.519-0.806,0-0.806c-1.542,0-3.083,0-4.625,0
						C99.652,123.576,99.651,124.382,100.17,124.382L100.17,124.382z"/>
				</g>
				<g>
					<path style="fill:#E6E6E6;" d="M101.961,126.829c0.945,0,1.89,0,2.835,0c0.518,0,0.519-0.806,0-0.806c-0.945,0-1.89,0-2.835,0
						C101.442,126.024,101.441,126.829,101.961,126.829L101.961,126.829z"/>
				</g>
				<g>
					<path style="fill:#E6E6E6;" d="M101.961,129.277c0.945,0,1.89,0,2.835,0c0.518,0,0.519-0.806,0-0.806c-0.945,0-1.89,0-2.835,0
						C101.442,128.471,101.441,129.277,101.961,129.277L101.961,129.277z"/>
				</g>
				<g>
					<path style="fill:#E6E6E6;" d="M101.961,131.725c0.945,0,1.89,0,2.835,0c0.518,0,0.519-0.806,0-0.806c-0.945,0-1.89,0-2.835,0
						C101.442,130.919,101.441,131.725,101.961,131.725L101.961,131.725z"/>
				</g>
				<g>
					<path style="fill:#E6E6E6;" d="M101.961,134.172c0.945,0,1.89,0,2.835,0c0.518,0,0.519-0.806,0-0.806c-0.945,0-1.89,0-2.835,0
						C101.442,133.367,101.441,134.172,101.961,134.172L101.961,134.172z"/>
				</g>
				<g>
					<path style="fill:#E6E6E6;" d="M100.17,136.62c1.542,0,3.083,0,4.625,0c0.518,0,0.519-0.806,0-0.806c-1.542,0-3.083,0-4.625,0
						C99.652,135.814,99.651,136.62,100.17,136.62L100.17,136.62z"/>
				</g>
				<g>
					<path style="fill:#E6E6E6;" d="M101.961,139.068c0.945,0,1.89,0,2.835,0c0.518,0,0.519-0.806,0-0.806c-0.945,0-1.89,0-2.835,0
						C101.442,138.262,101.441,139.068,101.961,139.068L101.961,139.068z"/>
				</g>
				<g>
					<path style="fill:#E6E6E6;" d="M101.961,141.515c0.945,0,1.89,0,2.835,0c0.518,0,0.519-0.806,0-0.806c-0.945,0-1.89,0-2.835,0
						C101.442,140.71,101.441,141.515,101.961,141.515L101.961,141.515z"/>
				</g>
				<g>
					<path style="fill:#E6E6E6;" d="M101.961,143.963c0.945,0,1.89,0,2.835,0c0.518,0,0.519-0.806,0-0.806c-0.945,0-1.89,0-2.835,0
						C101.442,143.157,101.441,143.963,101.961,143.963L101.961,143.963z"/>
				</g>
				<g>
					<path style="fill:#E6E6E6;" d="M101.961,146.41c0.945,0,1.89,0,2.835,0c0.518,0,0.519-0.806,0-0.806c-0.945,0-1.89,0-2.835,0
						C101.442,145.605,101.441,146.41,101.961,146.41L101.961,146.41z"/>
				</g>
				<g>
					<path style="fill:#E6E6E6;" d="M100.17,148.858c1.542,0,3.083,0,4.625,0c0.518,0,0.519-0.806,0-0.806c-1.542,0-3.083,0-4.625,0
						C99.652,148.052,99.651,148.858,100.17,148.858L100.17,148.858z"/>
				</g>
			</g>
		</g>
		<g>
			<g>
				<path style="fill:#E0E0E0;" d="M387.384,231.226h23.059c2.361,0,4.281-1.92,4.281-4.281v-14.009h-2v14.009
					c0,1.258-1.023,2.281-2.281,2.281h-23.059V231.226z"/>
			</g>
			<circle style="fill:#F0F0F0;" cx="387.384" cy="212.937" r="12.689"/>
			<path style="fill:#EBEBEB;" d="M376.452,243.136h7.514l0.919-19.99h5l0.919,19.99h7.513c2.016,0,3.651,1.635,3.651,3.651v0.324
				h-29.167v-0.324C372.801,244.771,374.436,243.136,376.452,243.136z"/>
			<path style="fill:#F0F0F0;" d="M409.558,212.937c0,2.301,1.865,4.167,4.167,4.167s4.167-1.865,4.167-4.167
				c0-2.301-1.865-4.167-4.167-4.167S409.558,210.636,409.558,212.937z"/>
		</g>
		<g>
			<g>
				<g>
					<path style="fill:#F5F5F5;" d="M375.208,142.481L375.208,142.481c-1.577,0-2.855-1.278-2.855-2.855v-23.152h5.71v23.152
						C378.063,141.203,376.784,142.481,375.208,142.481z"/>
					<path style="fill:#F5F5F5;" d="M378.683,117.271h-6.952c-0.647,0-1.172-0.525-1.172-1.172l0,0c0-0.647,0.525-1.172,1.172-1.172
						h6.952c0.647,0,1.172,0.525,1.172,1.172l0,0C379.855,116.746,379.331,117.271,378.683,117.271z"/>
				</g>
				<g>
					<path style="fill:#F5F5F5;" d="M387.601,142.481L387.601,142.481c-1.577,0-2.855-1.278-2.855-2.855v-23.152h5.71v23.152
						C390.456,141.203,389.177,142.481,387.601,142.481z"/>
					<path style="fill:#F5F5F5;" d="M391.077,117.271h-6.952c-0.647,0-1.172-0.525-1.172-1.172l0,0c0-0.647,0.525-1.172,1.172-1.172
						h6.952c0.647,0,1.172,0.525,1.172,1.172l0,0C392.248,116.746,391.724,117.271,391.077,117.271z"/>
				</g>
				<g>
					<path style="fill:#F5F5F5;" d="M399.994,142.481L399.994,142.481c-1.577,0-2.855-1.278-2.855-2.855v-23.152h5.71v23.152
						C402.849,141.203,401.57,142.481,399.994,142.481z"/>
					<path style="fill:#F5F5F5;" d="M403.47,117.271h-6.952c-0.647,0-1.172-0.525-1.172-1.172l0,0c0-0.647,0.525-1.172,1.172-1.172
						h6.952c0.647,0,1.172,0.525,1.172,1.172l0,0C404.641,116.746,404.117,117.271,403.47,117.271z"/>
				</g>
				<g>
					<path style="fill:#F5F5F5;" d="M412.387,142.481L412.387,142.481c-1.577,0-2.855-1.278-2.855-2.855v-23.152h5.71v23.152
						C415.242,141.203,413.964,142.481,412.387,142.481z"/>
					<path style="fill:#F5F5F5;" d="M415.863,117.271h-6.952c-0.647,0-1.172-0.525-1.172-1.172l0,0c0-0.647,0.525-1.172,1.172-1.172
						h6.952c0.647,0,1.172,0.525,1.172,1.172l0,0C417.034,116.746,416.51,117.271,415.863,117.271z"/>
				</g>
			</g>
			<path style="fill:#EBEBEB;" d="M365.963,118.964v22.994v6.375v3.261h2.656v-3.261h50.357v3.261h2.656v-3.261v-6.375v-22.994
				H365.963z M418.976,145.678h-50.357v-3.719V121.62h50.357v20.339V145.678z"/>
		</g>
		<g>
			<polygon style="fill:#FAFAFA;" points="293.417,151.594 314.807,123.204 336.197,151.594 			"/>
			<polygon style="fill:#EBEBEB;" points="336.197,151.594 314.807,123.204 314.807,151.594 			"/>
		</g>
		<g>
			<polygon style="fill:#F5F5F5;" points="365.047,342.437 391.511,307.312 417.976,342.437 			"/>
			<polygon style="fill:#EBEBEB;" points="417.976,342.437 391.511,307.312 391.511,342.437 			"/>
		</g>
	</g>
</g>
<g id="Background_Simple" style="display:none;">
	<g style="display:inline;">
		<path style="fill:#407BFF;" d="M454.878,253.344c-5.862,31.588-42.171,109.712-73.964,105.092
			c-56.09-8.151-107.169-145.327-163.035-154.892c-53.495-9.159-69.388,107.557-122.911,98.569
			c-38.623-6.486-72.168-115.249-50.922-148.15c28.44-44.042,150.634-52.851,203.058-52.379
			c57.206,0.514,175.5,48.652,207.775,95.887C462.759,209.003,457.427,239.61,454.878,253.344z"/>
		<path style="opacity:0.9;fill:#FFFFFF;" d="M454.878,253.344c-5.862,31.588-42.171,109.712-73.964,105.092
			c-56.09-8.151-107.169-145.327-163.035-154.892c-53.495-9.159-69.388,107.557-122.911,98.569
			c-38.623-6.486-72.168-115.249-50.922-148.15c28.44-44.042,150.634-52.851,203.058-52.379
			c57.206,0.514,175.5,48.652,207.775,95.887C462.759,209.003,457.427,239.61,454.878,253.344z"/>
	</g>
</g>
<g id="Shadow">
	<ellipse id="_x3C_Path_x3E__1_" style="fill:#F5F5F5;" cx="245.178" cy="412.391" rx="193.889" ry="11.323"/>
</g>
<g id="Character_2">
	<g>
		<g>
			<g>
				<path style="fill:#407BFF;" d="M296.911,171.918l-8.146-8.146c-0.547-0.547-0.854-1.288-0.854-2.061v-3.024
					c0-1.152-0.678-2.195-1.731-2.663l-2.275-1.011c-0.327-0.145-0.624-0.349-0.877-0.602l-2.08-2.08
					c-1.026-1.026-2.649-1.141-3.809-0.271l-1.131,0.848c-0.547,0.41-0.933,1-1.089,1.666l-1.189,5.071
					c-0.269,1.149,0.181,2.346,1.139,3.033l5.041,3.614l2.885,1.886c0.242,0.158,0.459,0.352,0.644,0.574l8.471,10.165
					L296.911,171.918z"/>
				<path style="opacity:0.3;fill:#FFFFFF;" d="M296.911,171.918l-8.146-8.146c-0.547-0.547-0.854-1.288-0.854-2.061v-3.024
					c0-1.152-0.678-2.195-1.731-2.663l-2.275-1.011c-0.327-0.145-0.624-0.349-0.877-0.602l-2.08-2.08
					c-1.026-1.026-2.649-1.141-3.809-0.271l-1.131,0.848c-0.547,0.41-0.933,1-1.089,1.666l-1.189,5.071
					c-0.269,1.149,0.181,2.346,1.139,3.033l5.041,3.614l2.885,1.886c0.242,0.158,0.459,0.352,0.644,0.574l8.471,10.165
					L296.911,171.918z"/>
			</g>
			<path style="fill:#407BFF;" d="M337.282,136.401c0,0-11.246,1.017-18.871,19.517s-11.75,19.5-14.375,18
				c-1.523-0.87-3.676-2.413-5.216-3.556c-1.075-0.798-2.585-0.598-3.422,0.447l-4.784,5.98c-0.725,0.906-0.733,2.191-0.009,3.098
				c2.84,3.561,10.387,11.676,18.682,9.447c11.244-3.022,19.467-18.999,20.037-23.913
				C329.892,160.509,337.282,136.401,337.282,136.401z"/>
			<path style="opacity:0.5;fill:#FFFFFF;" d="M337.282,136.401c0,0-11.246,1.017-18.871,19.517s-11.75,19.5-14.375,18
				c-1.523-0.87-3.676-2.413-5.216-3.556c-1.075-0.798-2.585-0.598-3.422,0.447l-4.784,5.98c-0.725,0.906-0.733,2.191-0.009,3.098
				c2.84,3.561,10.387,11.676,18.682,9.447c11.244-3.022,19.467-18.999,20.037-23.913
				C329.892,160.509,337.282,136.401,337.282,136.401z"/>
		</g>
		<g>
			<path style="fill:#263238;" d="M337.539,100.726c0,0-6.122-3.716-6.226-0.807c-0.104,2.909,6.408,6.038,9.164,5.662
				L337.539,100.726z"/>
			<path style="opacity:0.4;" d="M337.539,100.726c0,0-6.122-3.716-6.226-0.807c-0.104,2.909,6.408,6.038,9.164,5.662
				L337.539,100.726z"/>
		</g>
		<path style="fill:#407BFF;" d="M364.696,137.001c0,0-0.352-0.131-1.075-0.312v5.416h-26.025l1.431-6.013
			c-0.353,0.052-1.386,0.253-1.746,0.309l-3.996,3.017c0,0-6.895,15-8.556,52.25v48.5h52.967L364.696,137.001z"/>
		<path style="fill:#FFB273;" d="M356.295,134.028c-1.546-4.785-1.221-11.652-0.703-15.949l-10.375,10.256
			c0.611,1.858,0.944,3.858,0.656,5.703c-0.144,0.922-0.871,1.644-1.798,1.75l-4.277,0.489l-0.657,4.308l1.333,2.958l5.398,0.542
			l7.561-1.417l9.848-5.697c0,0-1.68-0.62-4.311-0.808C357.988,136.093,356.598,134.965,356.295,134.028z"/>
		<path style="opacity:0.2;enable-background:new    ;" d="M351.371,123.053l-5.977,5.857c0.319,1.092,0.529,2.22,0.571,3.329
			c2.436-0.56,5.425-2.855,6.192-5.616C352.662,124.922,352.021,123.2,351.371,123.053z"/>
		<path style="fill:#FFB273;" d="M357.158,110.317c-0.445,7.883-0.315,12.514-4.279,16.568c-5.954,6.111-15.699,2.52-17.601-5.315
			c-1.723-7.107-0.688-18.769,7.01-21.932c5.483-2.287,11.781,0.304,14.068,5.786C357,106.971,357.275,108.646,357.158,110.317z"/>
		<path style="fill:#263238;" d="M344.841,112.644c0.002,0.645-0.333,1.168-0.754,1.167c-0.421-0.001-0.759-0.516-0.761-1.161
			c-0.002-0.645,0.334-1.159,0.756-1.158C344.504,111.493,344.842,112.008,344.841,112.644z"/>
		<path style="fill:#263238;" d="M342.366,121.76c0.011,0.643-0.332,1.168-0.754,1.167c-0.421-0.001-0.759-0.516-0.761-1.161
			c-0.002-0.645,0.334-1.159,0.756-1.158C342.028,120.609,342.372,121.151,342.366,121.76z"/>
		<path style="fill:#263238;" d="M337.596,112.676c0,0.636-0.334,1.159-0.756,1.158c-0.421-0.001-0.759-0.516-0.759-1.152
			c0-0.636,0.333-1.168,0.754-1.167C337.257,111.516,337.595,112.031,337.596,112.676z"/>
		<path style="fill:#263238;" d="M347.567,109.023c0.062-0.02,0.118-0.052,0.167-0.094c0.113-0.172,0.075-0.402-0.088-0.527
			c-0.973-0.722-2.233-0.935-3.389-0.572c-0.195,0.076-0.292,0.295-0.216,0.49c0.076,0.195,0.295,0.292,0.49,0.216l0,0
			c0.918-0.278,1.913-0.099,2.676,0.482C347.318,109.08,347.454,109.083,347.567,109.023z"/>
		<path style="fill:#263238;" d="M334.264,109.052c0.119,0.048,0.254,0.03,0.357-0.047c0.759-0.574,1.746-0.752,2.658-0.482
			c0.193,0.076,0.412-0.02,0.487-0.213c0.076-0.194-0.02-0.412-0.213-0.487c-1.158-0.372-2.424-0.16-3.398,0.568
			c-0.166,0.115-0.208,0.342-0.093,0.508c0.002,0.003,0.004,0.006,0.006,0.009C334.115,108.978,334.184,109.028,334.264,109.052z"/>
		<path style="fill:#263238;" d="M355.309,116.698h-4.096l2.012-6.927c0,0-3.671-2.307-4.653-6.603c0,0-15.763,3.167-15.596-8
			c0.167-11.167,4.621,0,4.621,0s4.944-4.5,7.245-4s0,3.667,0,3.667s5.847-1.333,7.574-0.167c1.727,1.167-1.202,2-1.202,2
			s12.881,3.482,6.738,19.324L355.309,116.698z"/>
		<path style="fill:#407BFF;" d="M357.047,113.772c-1.155-1.155-2.691-1.792-4.325-1.792h-3.628
			c-0.132-2.035-1.813-3.656-3.881-3.656c-2.007,0-3.645,1.527-3.862,3.476c-0.275-0.11-0.584-0.11-0.859,0
			c-0.217-1.95-1.856-3.476-3.862-3.476c-2.154,0-3.906,1.752-3.906,3.906s1.752,3.906,3.906,3.906c2.107,0,3.818-1.68,3.892-3.769
			c0.235-0.188,0.564-0.188,0.8,0c0.074,2.089,1.785,3.769,3.892,3.769c2.068,0,3.749-1.621,3.881-3.656h3.628
			c1.5,0,2.911,0.584,3.972,1.645l1.17,1.17l0.354-0.354L357.047,113.772z M336.63,115.637c-1.878,0-3.406-1.528-3.406-3.406
			c0-1.878,1.528-3.406,3.406-3.406c1.878,0,3.406,1.528,3.406,3.406C340.036,114.109,338.508,115.637,336.63,115.637z
			 M345.213,115.637c-1.878,0-3.406-1.528-3.406-3.406c0-1.878,1.528-3.406,3.406-3.406c1.878,0,3.406,1.528,3.406,3.406
			C348.62,114.109,347.092,115.637,345.213,115.637z"/>
		<path style="fill:#FFB273;" d="M361.036,117.651c-1.055,1.678-2.728,2.873-4.658,3.327c-2.57,0.566-3.717-1.755-2.888-4.108
			c0.743-2.11,2.979-4.96,5.497-4.485S362.309,115.565,361.036,117.651z"/>
		<path style="fill:#ED847E;" d="M340.646,112.652c-0.759,1.962-1.785,3.809-3.049,5.49c1.167,1.053,3.073,0.568,3.073,0.568
			L340.646,112.652z"/>
		<path style="fill:#263238;" d="M329.218,380.246l0.166,14.786c0.007,0.633-0.337,1.213-0.899,1.504
			c-1.467,0.759-4.313,3.2-5.544,3.615c-1.38,0.465-4.849,1.104-6.75,1.436c-0.763,0.133-1.332,0.77-1.381,1.543l0,0
			c-0.059,0.923,0.641,1.72,1.565,1.78l21.818,0.401c0.905,0.058,1.691-0.614,1.776-1.516l2.087-22.317
			c0.085-0.908-0.571-1.716-1.477-1.821l-9.494-1.094C330.083,378.447,329.207,379.237,329.218,380.246z"/>
		<path style="fill:#407BFF;" d="M324.729,228.044v80.83l2.479,70.717c0.043,1.574,1.331,2.827,2.906,2.827h10.297
			c1.493,0,2.743-1.124,2.892-2.61c1.228-12.236,6.178-46.885,3.982-69.746c0,0,7.362-44.759,7.807-63.077l-5.078-16.607
			L324.729,228.044z"/>
		<path style="opacity:0.2;" d="M347.799,234.557c0,0-2.555,33.803,1.131,65.054c1.874-7.816,3.153-44.353,4.915-56.927
			L347.799,234.557z"/>
		<path style="fill:#263238;" d="M363.463,381.228l1.717,14.687c0.073,0.629-0.207,1.242-0.736,1.59
			c-1.379,0.909-4.058,2.641-5.239,3.182c-1.324,0.607-4.706,1.606-6.562,2.137c-0.744,0.213-1.243,0.906-1.212,1.679l0,0
			c0.038,0.925,0.818,1.643,1.743,1.606l21.845-0.897c0.906-0.037,1.618-0.788,1.607-1.694l-0.267-22.412
			c-0.011-0.911-0.748-1.647-1.66-1.656l-9.556-0.092C364.134,379.348,363.345,380.225,363.463,381.228z"/>
		<path style="fill:#407BFF;" d="M346.851,230.099l6.749,77.721l7.899,72.649c0.16,1.509,1.481,2.623,2.995,2.526l10.319-0.661
			c1.464-0.094,2.613-1.284,2.648-2.75c0.29-12.039,2.495-49.299-1.671-71.263c0,0,5.887-49.308,1.904-80.917L346.851,230.099z"/>
		<polygon style="opacity:0.2;" points="326.874,225.419 327.325,228.651 365.543,230.669 365.543,225.419 		"/>
		<g>
			<path style="fill:#407BFF;" d="M342.729,135.942c0,0-2.694,5.375,0.84,5.602c5.367,0.344,16.216-5.542,16.216-5.542l2.311,0.533
				c0,0-0.061,8.883-11.894,12.3c0,0-3.417-4.417-6.833-4.5c-3.417-0.083-7.917,3.583-7.917,3.583s-2.183-5.818,3.575-11.826
				L342.729,135.942z"/>
		</g>
		<g>
			<path style="fill:#407BFF;" d="M341.286,136.001c0,0-7.5,3.167-10.25,23.417s-3.75,58.25-3,76s1.75,29.25-3.75,28.5
				c0,0-0.5-28.5,0-60.25S321.536,136.585,341.286,136.001z"/>
			<path style="opacity:0.7;fill:#FFFFFF;" d="M341.286,136.001c0,0-7.5,3.167-10.25,23.417s-3.75,58.25-3,76s1.75,29.25-3.75,28.5
				c0,0-0.5-28.5,0-60.25c0.456-28.933-2.203-60.841,12.267-66.717c0.207-0.084,0.514-0.476,0.729-0.55
				C338.524,135.976,339.791,136.046,341.286,136.001z"/>
		</g>
		<g>
			<g>
				<path style="fill:#407BFF;" d="M362.786,136.001c0,0-9,5-10,36.667s-0.667,91.667,10,92.667c10.667,1,22.333-5,22.333-5
					s-0.759-11.485-2.749-26.035c-1.662-12.151-4.487-26.44-5.584-37.965c-1.269-13.324,6-50,1.333-53.667
					C373.453,139.001,362.786,136.001,362.786,136.001z"/>
				<path style="opacity:0.7;fill:#FFFFFF;" d="M362.786,136.001c0,0-9,5-10,36.667s-0.667,91.667,10,92.667
					c10.667,1,22.333-5,22.333-5s-0.759-11.485-2.749-26.035c-1.662-12.151-4.487-26.44-5.584-37.965
					c-1.269-13.324,6-50,1.333-53.667C373.453,139.001,362.786,136.001,362.786,136.001z"/>
			</g>
			<g>
				<path style="fill:#407BFF;" d="M370.194,224.873l-8.368,1.203c-1.789,0.257-3.448-0.984-3.706-2.774l-0.27-1.874l14.847-2.135
					l0.269,1.874C373.225,222.957,371.983,224.616,370.194,224.873z"/>
				<path style="opacity:0.6;fill:#FFFFFF;" d="M370.194,224.873l-8.368,1.203c-1.789,0.257-3.448-0.984-3.706-2.774l-0.27-1.874
					l14.847-2.135l0.269,1.874C373.225,222.957,371.983,224.616,370.194,224.873z"/>
			</g>
			<path style="fill:#263238;" d="M351.016,210.793h-21.235c-0.81,0-1.535-0.656-1.62-1.466l-3.423-32.568
				c-0.085-0.809,0.502-1.466,1.312-1.466h21.235c0.81,0,1.535,0.656,1.62,1.466l3.423,32.568
				C352.413,210.137,351.825,210.793,351.016,210.793z"/>
			<path style="opacity:0.5;fill:#FFFFFF;" d="M351.016,210.793h-21.235c-0.81,0-1.535-0.656-1.62-1.466l-3.423-32.568
				c-0.085-0.809,0.502-1.466,1.312-1.466h21.235c0.81,0,1.535,0.656,1.62,1.466l3.423,32.568
				C352.413,210.137,351.825,210.793,351.016,210.793z"/>
			<path style="fill:#263238;" d="M339.481,177.876h-5.085c-1.012,0-1.919-0.82-2.025-1.833l-0.315-3.001h8.75l0.315,3.001
				C341.227,177.056,340.493,177.876,339.481,177.876z"/>
			<path style="opacity:0.7;fill:#FFFFFF;" d="M339.481,177.876h-5.085c-1.012,0-1.919-0.82-2.025-1.833l-0.315-3.001h8.75
				l0.315,3.001C341.227,177.056,340.493,177.876,339.481,177.876z"/>
			<path style="fill:#263238;" d="M348.284,175.293h-1c0.81,0,1.535,0.656,1.62,1.466l3.423,32.568
				c0.085,0.809-0.502,1.466-1.312,1.466h1c0.81,0,1.397-0.656,1.312-1.466l-3.423-32.568
				C349.819,175.949,349.094,175.293,348.284,175.293z"/>
			<path style="opacity:0.7;fill:#FFFFFF;" d="M348.284,175.293h-1c0.81,0,1.535,0.656,1.62,1.466l3.423,32.568
				c0.085,0.809-0.502,1.466-1.312,1.466h1c0.81,0,1.397-0.656,1.312-1.466l-3.423-32.568
				C349.819,175.949,349.094,175.293,348.284,175.293z"/>
			<g>
				<path style="fill:#407BFF;" d="M370.527,188.775l-11.833,2.667l-5.24-3.116c-0.6-0.356-1.303-0.496-1.994-0.395l-4.259,0.623
					c-0.948,0.139-1.776,0.717-2.232,1.56l-0.944,1.743c-0.322,0.595-0.437,1.28-0.326,1.947l0.333,2
					c0.199,1.196,1.091,2.159,2.268,2.451l7.198,1.782c0.564,0.139,1.155,0.115,1.705-0.072l4.991-1.69l14.333-1.667
					L370.527,188.775z"/>
				<path style="opacity:0.3;fill:#FFFFFF;" d="M370.527,188.775l-11.833,2.667l-5.24-3.116c-0.6-0.356-1.303-0.496-1.994-0.395
					l-4.259,0.623c-0.948,0.139-1.776,0.717-2.232,1.56l-0.944,1.743c-0.322,0.595-0.437,1.28-0.326,1.947l0.333,2
					c0.199,1.196,1.091,2.159,2.268,2.451l7.198,1.782c0.564,0.139,1.155,0.115,1.705-0.072l4.991-1.69l14.333-1.667
					L370.527,188.775z"/>
			</g>
			<g>
				<path style="fill:#407BFF;" d="M370.5,196.446c0.4,1.356,1.716,2.225,3.123,2.077c3.754-0.393,10.821-1.837,15.913-7.106
					c7.25-7.5-2.814-36.1-6.75-43.25c-4.404-8-11.222-9.157-11.222-9.157c-8.778-3.01-7.528,5.157-5.028,15.157s12,24.5,12.25,27.25
					c0.16,1.765-5.249,3.839-9.144,5.099c-1.791,0.579-2.596,2.667-1.63,4.283C368.882,192.256,369.829,194.173,370.5,196.446z"/>
				<path style="opacity:0.8;fill:#FFFFFF;" d="M370.5,196.446c0.4,1.356,1.716,2.225,3.123,2.077
					c3.754-0.393,10.821-1.837,15.913-7.106c7.25-7.5-2.814-36.1-6.75-43.25c-4.404-8-11.222-9.157-11.222-9.157
					c-8.778-3.01-7.528,5.157-5.028,15.157s12,24.5,12.25,27.25c0.16,1.765-5.249,3.839-9.144,5.099
					c-1.791,0.579-2.596,2.667-1.63,4.283C368.882,192.256,369.829,194.173,370.5,196.446z"/>
			</g>
		</g>
		<g>
			<g>
				<path style="fill:#407BFF;" d="M283.631,136.689h-4.016c-1.211,0-2.193,0.982-2.193,2.193v0.033c0,0.845,0.484,1.57,1.184,1.936
					v35.356c0,1.392,1.128,2.52,2.52,2.52h0.993c1.392,0,2.52-1.128,2.52-2.52v-35.356c0.701-0.366,1.184-1.091,1.184-1.936v-0.033
					C285.824,137.671,284.843,136.689,283.631,136.689z"/>
				<path style="opacity:0.6;fill:#FFFFFF;" d="M283.631,136.689h-4.016c-1.211,0-2.193,0.982-2.193,2.193v0.033
					c0,0.845,0.484,1.57,1.184,1.936v35.356c0,1.392,1.128,2.52,2.52,2.52h0.993c1.392,0,2.52-1.128,2.52-2.52v-35.356
					c0.701-0.366,1.184-1.091,1.184-1.936v-0.033C285.824,137.671,284.843,136.689,283.631,136.689z"/>
				<path style="fill:#407BFF;" d="M278.263,137.168c0.404,0.325,1.748,0.564,3.36,0.564c1.612,0,2.956-0.24,3.36-0.564
					c-0.373-0.295-0.839-0.479-1.353-0.479h-4.015C279.103,136.689,278.637,136.873,278.263,137.168z"/>
				<g>
					<path style="fill:#407BFF;" d="M281.624,157.453c-1.039,0-1.876-0.267-1.897-0.598v19.352c0,0.771,0.628,1.4,1.4,1.4h0.993
						c0.772,0,1.4-0.628,1.4-1.4v-19.352C283.5,157.186,282.662,157.453,281.624,157.453z"/>
					<g>
						<path style="fill:#407BFF;" d="M283.527,156.844c0,0.336-0.852,0.609-1.904,0.609s-1.904-0.273-1.904-0.609
							c0-0.336,0.852-0.609,1.904-0.609S283.527,156.507,283.527,156.844z"/>
						<path style="opacity:0.3;" d="M283.527,156.844c0,0.336-0.852,0.609-1.904,0.609s-1.904-0.273-1.904-0.609
							c0-0.336,0.852-0.609,1.904-0.609S283.527,156.507,283.527,156.844z"/>
					</g>
				</g>
			</g>
			<g style="opacity:0.8;">
				<path style="fill:#FFFFFF;" d="M279.7,141.108c0,11.7,0,23.399,0,35.099c0,0.721,1.12,0.722,1.12,0c0-11.7,0-23.4,0-35.099
					C280.82,140.387,279.7,140.386,279.7,141.108L279.7,141.108z"/>
			</g>
		</g>
	</g>
	<g>
		<g>
			<path style="fill:#407BFF;" d="M274.692,115.19c-0.743-1.201-1.521-2.376-2.355-3.505l-0.402,0.297
				c0.823,1.114,1.592,2.275,2.325,3.46C274.356,115.317,274.498,115.224,274.692,115.19z"/>
			<path style="fill:#407BFF;" d="M275.405,116.369c-0.092,0.129-0.235,0.221-0.426,0.261c2.462,4.226,4.351,8.818,5.53,13.529
				l0.486-0.122C279.803,125.278,277.893,120.638,275.405,116.369z"/>
		</g>
		<g>
			<path style="fill:#407BFF;" d="M281.485,116.99c0.11,0,0.204,0.024,0.289,0.059l-0.344-8.141l-0.5,0.021l0.342,8.104
				C281.34,117.014,281.404,116.99,281.485,116.99z"/>
			<path style="fill:#407BFF;" d="M281.485,118.476c-0.058,0-0.102-0.021-0.153-0.031l0.14,3.323l0.5-0.021l-0.142-3.358
				C281.733,118.44,281.621,118.476,281.485,118.476z"/>
		</g>
		<g>
			<path style="fill:#407BFF;" d="M284.218,126.851c0.197,0,0.343,0.073,0.459,0.173c1.386-5.77,3.353-11.389,5.88-16.766
				l-0.452-0.213c-2.535,5.391-4.509,11.025-5.902,16.809C284.208,126.854,284.212,126.851,284.218,126.851z"/>
			<path style="fill:#407BFF;" d="M284.218,128.337c-0.129,0-0.238-0.031-0.332-0.077c-0.307,1.373-0.592,2.75-0.833,4.138
				l0.492,0.086c0.243-1.402,0.533-2.794,0.844-4.181C284.332,128.315,284.283,128.337,284.218,128.337z"/>
		</g>
		<g>
			<g>
				
					<rect x="292.18" y="104.165" transform="matrix(0.9326 -0.3609 0.3609 0.9326 -18.8082 112.7276)" style="fill:#407BFF;" width="0.5" height="5.118"/>
			</g>
			<g>
				
					<rect x="290.111" y="106.459" transform="matrix(0.877 -0.4805 0.4805 0.877 -15.336 153.5102)" style="fill:#407BFF;" width="4.096" height="0.5"/>
			</g>
			<g>
				
					<rect x="290.086" y="106.46" transform="matrix(0.2659 -0.964 0.964 0.2659 111.5817 359.9417)" style="fill:#407BFF;" width="4.064" height="0.5"/>
			</g>
			<g>
				
					<rect x="292.174" y="104.553" transform="matrix(0.4003 -0.9164 0.9164 0.4003 77.6793 331.9063)" style="fill:#407BFF;" width="0.5" height="4.102"/>
			</g>
		</g>
		<g>
			<g>
				
					<rect x="264.42" y="128.262" transform="matrix(0.9326 -0.3608 0.3608 0.9326 -29.373 104.3066)" style="fill:#407BFF;" width="0.501" height="5.118"/>
			</g>
			<g>
				
					<rect x="262.352" y="130.556" transform="matrix(0.877 -0.4804 0.4804 0.877 -30.3307 143.1073)" style="fill:#407BFF;" width="4.096" height="0.5"/>
			</g>
			<g>
				<polygon style="fill:#407BFF;" points="264.057,132.832 263.576,132.698 264.659,128.781 265.141,128.915 				"/>
			</g>
			<g>
				
					<rect x="264.415" y="128.65" transform="matrix(0.4004 -0.9163 0.9163 0.4004 38.9262 320.8914)" style="fill:#407BFF;" width="0.5" height="4.102"/>
			</g>
		</g>
		<g>
			<g>
				<path style="fill:#407BFF;" d="M279.389,105.192l-0.069-0.495c0.456-0.063,0.963-0.127,1.469-0.191
					c0.504-0.064,1.009-0.127,1.462-0.19l0.069,0.495c-0.456,0.063-0.963,0.127-1.469,0.191
					C280.347,105.066,279.843,105.129,279.389,105.192z"/>
			</g>
			<g>
				<path style="fill:#407BFF;" d="M280.24,106.836l-0.467-0.18l0.887-2.3l0.273,0.315c0.239,0.276,0.46,0.537,0.681,0.798
					c0.214,0.252,0.429,0.505,0.66,0.773l-0.379,0.327c-0.232-0.269-0.447-0.523-0.663-0.777c-0.134-0.158-0.268-0.316-0.406-0.478
					L280.24,106.836z"/>
			</g>
			<g>
				<path style="fill:#407BFF;" d="M280.53,104.972c-0.02-0.18-0.04-0.461-0.061-0.742c-0.02-0.273-0.039-0.547-0.059-0.723
					l0.497-0.055c0.02,0.18,0.04,0.461,0.06,0.742c0.02,0.273,0.039,0.547,0.059,0.723L280.53,104.972z"/>
			</g>
		</g>
		<g>
			<g>
				<path style="fill:#407BFF;" d="M296.289,123.898c-0.243-0.391-0.505-0.829-0.768-1.267c-0.261-0.436-0.523-0.871-0.764-1.261
					l0.425-0.263c0.243,0.391,0.505,0.829,0.768,1.267c0.261,0.436,0.523,0.871,0.764,1.261L296.289,123.898z"/>
			</g>
			<g>
				<path style="fill:#407BFF;" d="M294.961,124.434l-0.452-0.214c0.154-0.326,0.302-0.629,0.449-0.933
					c0.089-0.182,0.177-0.365,0.267-0.552l-1.628,0.077l-0.024-0.499l2.462-0.117l-0.178,0.377
					c-0.154,0.326-0.302,0.629-0.449,0.933C295.261,123.808,295.114,124.11,294.961,124.434z"/>
			</g>
			<g>
				<path style="fill:#407BFF;" d="M295.67,122.758l-0.251-0.433c0.157-0.091,0.406-0.223,0.655-0.355
					c0.242-0.128,0.485-0.256,0.638-0.345l0.251,0.433c-0.157,0.091-0.406,0.223-0.655,0.355
					C296.065,122.54,295.823,122.669,295.67,122.758z"/>
			</g>
		</g>
		<g>
			<g>
				<path style="fill:#407BFF;" d="M270.534,110.53c-0.257-0.377-0.536-0.798-0.816-1.22c-0.283-0.427-0.567-0.855-0.828-1.237
					l0.413-0.282c0.262,0.384,0.547,0.813,0.831,1.243c0.279,0.42,0.557,0.839,0.813,1.215L270.534,110.53z"/>
			</g>
			<g>
				<path style="fill:#407BFF;" d="M272.088,109.253l-2.454,0.227l0.161-0.384c0.139-0.332,0.273-0.642,0.406-0.952
					c0.133-0.308,0.266-0.617,0.405-0.947l0.461,0.193c-0.139,0.332-0.273,0.642-0.406,0.952c-0.08,0.186-0.161,0.372-0.242,0.563
					l1.623-0.15L272.088,109.253z"/>
			</g>
			<g>
				<path style="fill:#407BFF;" d="M268.984,110.081l-0.271-0.42c0.153-0.098,0.396-0.241,0.638-0.384
					c0.236-0.139,0.473-0.278,0.621-0.373l0.271,0.42c-0.153,0.098-0.396,0.241-0.638,0.384
					C269.369,109.847,269.132,109.985,268.984,110.081z"/>
			</g>
		</g>
		<g>
			<path style="fill:#407BFF;" d="M289.424,126.209c1.077-0.978,2.275-1.818,3.561-2.468l-0.226-0.446
				c-1.233,0.624-2.387,1.419-3.436,2.338C289.429,125.803,289.462,126.009,289.424,126.209z"/>
			<path style="fill:#407BFF;" d="M288.733,126.792c-0.193,0-0.336-0.07-0.451-0.167c-1.398,1.447-2.55,3.132-3.345,4.959
				l0.458,0.199c0.81-1.861,2.006-3.566,3.455-5.015C288.809,126.775,288.777,126.792,288.733,126.792z"/>
		</g>
		<g>
			<path style="fill:#407BFF;" d="M271,127.832v-0.119c0-0.14,0.038-0.253,0.092-0.351c-1.335,0.249-2.603,0.897-3.543,1.865
				l0.358,0.349c0.829-0.853,1.934-1.43,3.105-1.681C271.01,127.871,271,127.855,271,127.832z"/>
			<path style="fill:#407BFF;" d="M273.504,127.362c-0.39-0.077-0.788-0.101-1.186-0.102c0.097,0.115,0.168,0.259,0.168,0.452v0.046
				c0.31,0.009,0.619,0.035,0.923,0.094c1.954,0.381,3.7,1.82,4.448,3.666l0.464-0.188
				C277.51,129.333,275.619,127.775,273.504,127.362z"/>
		</g>
	</g>
</g>
<g id="Desk">
	<g>
		<g>
			<g>
				<g>
					<g>
						<polygon style="fill:#407BFF;" points="350.405,406.267 347.298,406.267 343.298,272.934 347.405,272.934 						"/>
						<polygon style="opacity:0.3;fill:#FFFFFF;" points="350.405,406.267 347.298,406.267 343.298,272.934 347.405,272.934 						
							"/>
					</g>
					<g>
						<polygon style="fill:#407BFF;" points="300.298,272.934 300.298,406.267 303.587,406.267 307.455,279.026 347.14,279.026 
							350.041,406.267 353.298,406.267 353.298,272.934 						"/>
						<polygon style="opacity:0.5;fill:#FFFFFF;" points="300.298,272.934 300.298,406.267 303.587,406.267 307.455,279.026 
							347.14,279.026 350.041,406.267 353.298,406.267 353.298,272.934 						"/>
					</g>
					<g>
						<polygon style="fill:#407BFF;" points="300.298,406.267 297.191,406.267 296.191,272.934 300.298,272.934 						"/>
						<polygon style="opacity:0.3;fill:#FFFFFF;" points="300.298,406.267 297.191,406.267 296.191,272.934 300.298,272.934 						
							"/>
					</g>
				</g>
				<g>
					<g>
						<polygon style="fill:#407BFF;" points="151.738,406.267 148.631,406.267 144.631,272.934 148.738,272.934 						"/>
						<polygon style="opacity:0.5;fill:#FFFFFF;" points="151.738,406.267 148.631,406.267 144.631,272.934 148.738,272.934 						
							"/>
					</g>
					<g>
						<polygon style="fill:#407BFF;" points="101.631,272.934 101.631,406.267 104.92,406.267 108.788,279.026 148.473,279.026 
							151.375,406.267 154.631,406.267 154.631,272.934 						"/>
						<polygon style="opacity:0.3;fill:#FFFFFF;" points="101.631,272.934 101.631,406.267 104.92,406.267 108.788,279.026 
							148.473,279.026 151.375,406.267 154.631,406.267 154.631,272.934 						"/>
					</g>
					<g>
						<polygon style="fill:#407BFF;" points="101.631,406.267 98.524,406.267 97.524,272.934 101.631,272.934 						"/>
						<polygon style="opacity:0.5;fill:#FFFFFF;" points="101.631,406.267 98.524,406.267 97.524,272.934 101.631,272.934 						"/>
					</g>
				</g>
			</g>
			<g>
				<g>
					<rect x="92.087" y="265.267" style="fill:#407BFF;" width="205.647" height="7.667"/>
					<rect x="92.087" y="265.267" style="opacity:0.6;fill:#FFFFFF;" width="205.647" height="7.667"/>
				</g>
				<g>
					<rect x="292.959" y="265.267" style="fill:#407BFF;" width="65.775" height="7.667"/>
					<rect x="292.959" y="265.267" style="opacity:0.8;fill:#FFFFFF;" width="65.775" height="7.667"/>
				</g>
			</g>
		</g>
		<g>
			<g>
				<g>
					<g>
						<path style="fill:#407BFF;" d="M208.001,245.504c-0.771-5.346-4.88-9.693-10.049-10.96v-15.028
							c1.208-0.291,2.109-1.371,2.109-2.669v-0.041c0-1.52-1.232-2.752-2.752-2.752h-5.039c-1.52,0-2.752,1.232-2.752,2.752v0.041
							c0,1.297,0.901,2.378,2.109,2.669v15.009c-5.847,1.422-10.192,6.68-10.192,12.965c0,4.493,2.222,8.462,5.624,10.882
							c0.882,0.627,1.946,0.951,3.027,0.951h9.409c1.073,0,2.13-0.317,3.006-0.937C206.408,255.616,208.765,250.807,208.001,245.504
							z"/>
						<path style="fill:#407BFF;" d="M208.001,245.504c-0.771-5.346-4.88-9.693-10.049-10.96v-15.028
							c1.208-0.291,2.109-1.371,2.109-2.669v-0.041c0-1.52-1.232-2.752-2.752-2.752h-5.039c-1.52,0-2.752,1.232-2.752,2.752v0.041
							c0,1.297,0.901,2.378,2.109,2.669v15.009c-5.847,1.422-10.192,6.68-10.192,12.965c0,4.493,2.222,8.462,5.624,10.882
							c0.882,0.627,1.946,0.951,3.027,0.951h9.409c1.073,0,2.13-0.317,3.006-0.937C206.408,255.616,208.765,250.807,208.001,245.504
							z"/>
						<path style="opacity:0.7;fill:#FFFFFF;" d="M208.001,245.504c-0.771-5.346-4.88-9.693-10.049-10.96v-15.028
							c1.208-0.291,2.109-1.371,2.109-2.669v-0.041c0-1.52-1.232-2.752-2.752-2.752h-5.039c-1.52,0-2.752,1.232-2.752,2.752v0.041
							c0,1.297,0.901,2.378,2.109,2.669v15.009c-5.847,1.422-10.192,6.68-10.192,12.965c0,4.493,2.222,8.462,5.624,10.882
							c0.882,0.627,1.946,0.951,3.027,0.951h9.409c1.073,0,2.13-0.317,3.006-0.937C206.408,255.616,208.765,250.807,208.001,245.504
							z"/>
					</g>
					<path style="fill:#407BFF;" d="M190.572,214.655c0.507,0.407,2.194,0.708,4.217,0.708c2.024,0,3.71-0.301,4.217-0.708
						c-0.469-0.371-1.053-0.601-1.698-0.601h-5.039C191.625,214.054,191.041,214.285,190.572,214.655z"/>
					<path style="fill:#407BFF;" d="M206.611,245.706c-0.223-1.548-0.789-2.997-1.581-4.307c-0.139,0.759-4.665,1.369-10.24,1.369
						c-5.612,0-10.165-0.618-10.246-1.384c-1.074,1.801-1.702,3.884-1.702,6.105c0,3.855,1.882,7.494,5.033,9.736
						c0.627,0.445,1.413,0.69,2.213,0.69h9.409c0.809,0,1.568-0.234,2.194-0.679C205.375,254.626,207.26,250.208,206.611,245.706z"
						/>
					<g>
						<path style="fill:#407BFF;" d="M205.042,241.364c0,0.776-4.591,1.405-10.253,1.405c-5.663,0-10.253-0.629-10.253-1.405
							s4.591-1.405,10.253-1.405C200.452,239.96,205.042,240.589,205.042,241.364z"/>
						<path style="opacity:0.2;" d="M205.042,241.364c0,0.776-4.591,1.405-10.253,1.405c-5.663,0-10.253-0.629-10.253-1.405
							s4.591-1.405,10.253-1.405C200.452,239.96,205.042,240.589,205.042,241.364z"/>
					</g>
				</g>
				<path style="opacity:0.5;fill:#FFFFFF;" d="M184.141,247.804c0,0,2.37,8.953,6.137,8.404
					C194.046,255.659,187.595,252.658,184.141,247.804z"/>
			</g>
			<g>
				<path style="fill:#263238;" d="M211.27,264.482l-4.444-10.729h1.585c0.503,0,0.91-0.408,0.91-0.91v-0.346
					c0-0.503-0.408-0.91-0.91-0.91h-27.18c-0.503,0-0.91,0.408-0.91,0.91v0.346c0,0.503,0.408,0.91,0.91,0.91h1.593l-4.452,10.748
					c-0.185,0.447,0.163,0.631,0.61,0.816c0.447,0.185,0.823,0.301,1.009-0.146l4.73-11.419h9.224v11.208
					c0,0.484,0.392,0.521,0.876,0.521s0.876-0.037,0.876-0.521v-11.208h9.232l4.722,11.4c0.185,0.447,0.562,0.331,1.009,0.146
					C211.107,265.113,211.456,264.929,211.27,264.482z"/>
				<path style="opacity:0.4;fill:#FFFFFF;" d="M211.205,264.482l-4.444-10.729h1.585c0.503,0,0.91-0.408,0.91-0.91v-0.346
					c0-0.503-0.408-0.91-0.91-0.91h-27.18c-0.503,0-0.91,0.408-0.91,0.91v0.346c0,0.503,0.407,0.91,0.91,0.91h1.593l-4.452,10.748
					c-0.185,0.447,0.163,0.631,0.61,0.816c0.447,0.185,0.824,0.301,1.008-0.146l4.73-11.419h9.224v11.208
					c0,0.484,0.392,0.521,0.876,0.521s0.876-0.037,0.876-0.521v-11.208h9.232l4.722,11.4c0.185,0.447,0.562,0.331,1.009,0.146
					C211.042,265.113,211.39,264.929,211.205,264.482z"/>
			</g>
		</g>
		<g>
			<g>
				<g>
					<path style="fill:#407BFF;" d="M226.017,226.984h-3.226c-0.973,0-1.762,0.789-1.762,1.762v0.026
						c0,0.679,0.388,1.261,0.951,1.555v28.4c0,1.118,0.906,2.025,2.025,2.025h0.798c1.118,0,2.025-0.906,2.025-2.025v-28.4
						c0.563-0.294,0.951-0.876,0.951-1.555v-0.026C227.779,227.773,226.99,226.984,226.017,226.984z"/>
					<path style="opacity:0.6;fill:#FFFFFF;" d="M226.017,226.984h-3.226c-0.973,0-1.762,0.789-1.762,1.762v0.026
						c0,0.679,0.388,1.261,0.951,1.555v28.4c0,1.118,0.906,2.025,2.025,2.025h0.798c1.118,0,2.025-0.906,2.025-2.025v-28.4
						c0.563-0.294,0.951-0.876,0.951-1.555v-0.026C227.779,227.773,226.99,226.984,226.017,226.984z"/>
					<path style="fill:#407BFF;" d="M221.705,227.369c0.325,0.261,1.404,0.453,2.699,0.453c1.295,0,2.374-0.193,2.699-0.453
						c-0.3-0.237-0.674-0.385-1.086-0.385h-3.225C222.379,226.984,222.005,227.132,221.705,227.369z"/>
					<g>
						<path style="fill:#407BFF;" d="M224.404,250.089c-0.834,0-1.507-0.214-1.523-0.48v9.119c0,0.62,0.504,1.124,1.125,1.124h0.797
							c0.62,0,1.125-0.504,1.125-1.124v-9.119C225.912,249.875,225.239,250.089,224.404,250.089z"/>
						<g>
							<path style="fill:#407BFF;" d="M225.934,249.6c0,0.27-0.685,0.489-1.529,0.489c-0.845,0-1.529-0.219-1.529-0.489
								s0.685-0.489,1.529-0.489C225.249,249.11,225.934,249.329,225.934,249.6z"/>
							<path style="opacity:0.3;" d="M225.934,249.6c0,0.27-0.685,0.489-1.529,0.489c-0.845,0-1.529-0.219-1.529-0.489
								s0.685-0.489,1.529-0.489C225.249,249.11,225.934,249.329,225.934,249.6z"/>
						</g>
					</g>
				</g>
				<g style="opacity:0.8;">
					<path style="fill:#FFFFFF;" d="M222.859,230.533c0,9.398,0,18.796,0,28.194c0,0.579,0.9,0.58,0.9,0c0-9.398,0-18.796,0-28.194
						C223.759,229.954,222.859,229.953,222.859,230.533L222.859,230.533z"/>
				</g>
			</g>
			<g>
				<g>
					<path style="fill:#407BFF;" d="M238.479,226.984h-3.226c-0.973,0-1.762,0.789-1.762,1.762v0.026
						c0,0.679,0.388,1.261,0.951,1.555v28.4c0,1.118,0.906,2.025,2.025,2.025h0.798c1.118,0,2.025-0.906,2.025-2.025v-28.4
						c0.563-0.294,0.951-0.876,0.951-1.555v-0.026C240.24,227.773,239.452,226.984,238.479,226.984z"/>
					<path style="opacity:0.6;fill:#FFFFFF;" d="M238.479,226.984h-3.226c-0.973,0-1.762,0.789-1.762,1.762v0.026
						c0,0.679,0.388,1.261,0.951,1.555v28.4c0,1.118,0.906,2.025,2.025,2.025h0.798c1.118,0,2.025-0.906,2.025-2.025v-28.4
						c0.563-0.294,0.951-0.876,0.951-1.555v-0.026C240.24,227.773,239.452,226.984,238.479,226.984z"/>
					<path style="fill:#407BFF;" d="M234.167,227.369c0.325,0.261,1.404,0.453,2.699,0.453c1.295,0,2.374-0.193,2.699-0.453
						c-0.3-0.237-0.674-0.385-1.086-0.385h-3.225C234.841,226.984,234.467,227.132,234.167,227.369z"/>
					<g>
						<path style="fill:#407BFF;" d="M236.866,243.663c-0.834,0-1.507-0.214-1.523-0.48v15.545c0,0.62,0.504,1.124,1.125,1.124
							h0.797c0.62,0,1.125-0.504,1.125-1.124v-15.545C238.373,243.448,237.7,243.663,236.866,243.663z"/>
						<g>
							<path style="fill:#407BFF;" d="M238.395,243.173c0,0.27-0.685,0.489-1.529,0.489c-0.845,0-1.529-0.219-1.529-0.489
								c0-0.27,0.685-0.489,1.529-0.489C237.71,242.684,238.395,242.903,238.395,243.173z"/>
							<path style="opacity:0.3;" d="M238.395,243.173c0,0.27-0.685,0.489-1.529,0.489c-0.845,0-1.529-0.219-1.529-0.489
								c0-0.27,0.685-0.489,1.529-0.489C237.71,242.684,238.395,242.903,238.395,243.173z"/>
						</g>
					</g>
				</g>
				<g style="opacity:0.8;">
					<path style="fill:#FFFFFF;" d="M235.321,230.533c0,9.398,0,18.796,0,28.194c0,0.579,0.9,0.58,0.9,0c0-9.398,0-18.796,0-28.194
						C236.221,229.954,235.321,229.953,235.321,230.533L235.321,230.533z"/>
				</g>
			</g>
			<g>
				<g>
					<path style="fill:#407BFF;" d="M250.94,226.984h-3.226c-0.973,0-1.762,0.789-1.762,1.762v0.026
						c0,0.679,0.388,1.261,0.951,1.555v28.4c0,1.118,0.906,2.025,2.025,2.025h0.798c1.118,0,2.025-0.906,2.025-2.025v-28.4
						c0.563-0.294,0.951-0.876,0.951-1.555v-0.026C252.702,227.773,251.913,226.984,250.94,226.984z"/>
					<path style="opacity:0.6;fill:#FFFFFF;" d="M250.94,226.984h-3.226c-0.973,0-1.762,0.789-1.762,1.762v0.026
						c0,0.679,0.388,1.261,0.951,1.555v28.4c0,1.118,0.906,2.025,2.025,2.025h0.798c1.118,0,2.025-0.906,2.025-2.025v-28.4
						c0.563-0.294,0.951-0.876,0.951-1.555v-0.026C252.702,227.773,251.913,226.984,250.94,226.984z"/>
					<path style="fill:#407BFF;" d="M246.628,227.369c0.325,0.261,1.404,0.453,2.699,0.453c1.295,0,2.374-0.193,2.699-0.453
						c-0.3-0.237-0.674-0.385-1.086-0.385h-3.225C247.302,226.984,246.928,227.132,246.628,227.369z"/>
					<g>
						<path style="fill:#407BFF;" d="M249.327,238.15c-0.834,0-1.507-0.214-1.523-0.48v21.057c0,0.62,0.504,1.124,1.125,1.124h0.797
							c0.62,0,1.125-0.504,1.125-1.124V237.67C250.835,237.936,250.162,238.15,249.327,238.15z"/>
						<g>
							<path style="fill:#407BFF;" d="M250.857,237.661c0,0.27-0.685,0.489-1.529,0.489c-0.845,0-1.529-0.219-1.529-0.489
								c0-0.27,0.685-0.489,1.529-0.489C250.172,237.172,250.857,237.391,250.857,237.661z"/>
							<path style="opacity:0.3;" d="M250.857,237.661c0,0.27-0.685,0.489-1.529,0.489c-0.845,0-1.529-0.219-1.529-0.489
								c0-0.27,0.685-0.489,1.529-0.489C250.172,237.172,250.857,237.391,250.857,237.661z"/>
						</g>
					</g>
				</g>
				<g style="opacity:0.8;">
					<path style="fill:#FFFFFF;" d="M247.782,230.533c0,9.398,0,18.796,0,28.194c0,0.579,0.9,0.58,0.9,0c0-9.398,0-18.796,0-28.194
						C248.682,229.954,247.782,229.953,247.782,230.533L247.782,230.533z"/>
				</g>
			</g>
			<g>
				<g>
					<path style="fill:#407BFF;" d="M263.402,226.984h-3.226c-0.973,0-1.762,0.789-1.762,1.762v0.026
						c0,0.679,0.388,1.261,0.951,1.555v28.4c0,1.118,0.906,2.025,2.025,2.025h0.798c1.118,0,2.025-0.906,2.025-2.025v-28.4
						c0.563-0.294,0.951-0.876,0.951-1.555v-0.026C265.163,227.773,264.375,226.984,263.402,226.984z"/>
					<path style="opacity:0.6;fill:#FFFFFF;" d="M263.402,226.984h-3.226c-0.973,0-1.762,0.789-1.762,1.762v0.026
						c0,0.679,0.388,1.261,0.951,1.555v28.4c0,1.118,0.906,2.025,2.025,2.025h0.798c1.118,0,2.025-0.906,2.025-2.025v-28.4
						c0.563-0.294,0.951-0.876,0.951-1.555v-0.026C265.163,227.773,264.375,226.984,263.402,226.984z"/>
					<path style="fill:#407BFF;" d="M259.09,227.369c0.325,0.261,1.404,0.453,2.699,0.453c1.295,0,2.374-0.193,2.699-0.453
						c-0.3-0.237-0.674-0.385-1.086-0.385h-3.225C259.764,226.984,259.39,227.132,259.09,227.369z"/>
					<g>
						<path style="fill:#407BFF;" d="M261.789,243.663c-0.834,0-1.507-0.214-1.523-0.48v15.545c0,0.62,0.504,1.124,1.125,1.124
							h0.797c0.62,0,1.125-0.504,1.125-1.124v-15.545C263.296,243.448,262.623,243.663,261.789,243.663z"/>
						<g>
							<path style="fill:#407BFF;" d="M263.318,243.173c0,0.27-0.685,0.489-1.529,0.489c-0.845,0-1.529-0.219-1.529-0.489
								c0-0.27,0.685-0.489,1.529-0.489C262.633,242.684,263.318,242.903,263.318,243.173z"/>
							<path style="opacity:0.3;" d="M263.318,243.173c0,0.27-0.685,0.489-1.529,0.489c-0.845,0-1.529-0.219-1.529-0.489
								c0-0.27,0.685-0.489,1.529-0.489C262.633,242.684,263.318,242.903,263.318,243.173z"/>
						</g>
					</g>
				</g>
				<g style="opacity:0.8;">
					<path style="fill:#FFFFFF;" d="M260.244,230.533c0,9.398,0,18.796,0,28.194c0,0.579,0.9,0.58,0.9,0c0-9.398,0-18.796,0-28.194
						C261.144,229.954,260.244,229.953,260.244,230.533L260.244,230.533z"/>
				</g>
			</g>
			<path style="fill:#263238;" d="M271.427,234.557c0.549,0,0.994-0.445,0.994-0.994v-0.966c0-0.549-0.445-0.994-0.994-0.994
				h-56.039c-0.549,0-0.994,0.445-0.994,0.994v0.966c0,0.549,0.445,0.994,0.994,0.994h1.578v27.97h-1.578
				c-0.549,0-0.994,0.445-0.994,0.994v0.966c0,0.549,0.445,0.994,0.994,0.994h56.039c0.549,0,0.994-0.445,0.994-0.994v-0.966
				c0-0.549-0.445-0.994-0.994-0.994h-1.578v-27.97H271.427z M267.305,262.528H219.51v-27.97h47.795V262.528z"/>
			<path style="opacity:0.4;fill:#FFFFFF;" d="M271.427,234.557c0.549,0,0.994-0.445,0.994-0.994v-0.966
				c0-0.549-0.445-0.994-0.994-0.994h-56.039c-0.549,0-0.994,0.445-0.994,0.994v0.966c0,0.549,0.445,0.994,0.994,0.994h1.578v27.97
				h-1.578c-0.549,0-0.994,0.445-0.994,0.994v0.966c0,0.549,0.445,0.994,0.994,0.994h56.039c0.549,0,0.994-0.445,0.994-0.994v-0.966
				c0-0.549-0.445-0.994-0.994-0.994h-1.578v-27.97H271.427z M267.305,262.528H219.51v-27.97h47.795V262.528z"/>
		</g>
		<g>
			<path style="fill:#263238;" d="M302.882,214.22l-4.877-2.465l8.073-15.971c0.466-0.922,1.591-1.291,2.512-0.825l1.539,0.778
				c0.922,0.466,1.291,1.591,0.825,2.512L302.882,214.22z"/>
			<path style="opacity:0.3;fill:#FFFFFF;" d="M302.882,214.22l-4.877-2.465l8.073-15.971c0.466-0.922,1.591-1.291,2.512-0.825
				l1.539,0.778c0.922,0.466,1.291,1.591,0.825,2.512L302.882,214.22z"/>
			<rect x="302.363" y="216.01" style="fill:#407BFF;" width="5.078" height="49.471"/>
			<rect x="288.729" y="216.01" style="fill:#407BFF;" width="5.078" height="5.58"/>
			<rect x="302.363" y="216.01" style="opacity:0.2;" width="5.078" height="49.471"/>
			<rect x="288.729" y="216.01" style="opacity:0.2;" width="5.078" height="5.58"/>
			<rect x="291.53" y="207.838" style="fill:#407BFF;" width="4.056" height="8.173"/>
			<rect x="291.53" y="207.838" style="opacity:0.1;" width="4.056" height="8.173"/>
			<path style="fill:#407BFF;" d="M313.776,216.01h-18.189v-8.173l16.139,3.461c1.196,0.257,2.051,1.314,2.051,2.537V216.01z"/>
			<path style="opacity:0.2;fill:#FFFFFF;" d="M313.776,216.01h-18.189v-8.173l16.139,3.461c1.196,0.257,2.051,1.314,2.051,2.537
				V216.01z"/>
			<g>
				<path style="fill:#263238;" d="M294.615,224.842l-5.782-2.716c-0.272-0.127-0.181-0.535,0.119-0.535h13.268
					c0.3,0,0.391,0.407,0.119,0.535l-5.782,2.716C295.943,225.13,295.23,225.13,294.615,224.842z"/>
				<path style="fill:#263238;" d="M298.18,225.933v3.4c0,1.18-0.957,2.137-2.137,2.137h-0.913c-1.18,0-2.137-0.957-2.137-2.137
					v-3.4c0-1.18,0.957-2.137,2.137-2.137h0.913C297.223,223.796,298.18,224.753,298.18,225.933z"/>
				<path style="opacity:0.6;fill:#FFFFFF;" d="M298.18,225.933v3.4c0,1.18-0.957,2.137-2.137,2.137h-0.913
					c-1.18,0-2.137-0.957-2.137-2.137v-3.4c0-1.18,0.957-2.137,2.137-2.137h0.913C297.223,223.796,298.18,224.753,298.18,225.933z"
					/>
				<g>
					<path style="fill:#263238;" d="M293.183,225.95l-1.301,3.141c-0.452,1.09-1.702,1.608-2.792,1.156l-0.843-0.349
						c-1.09-0.452-1.608-1.702-1.156-2.792l1.301-3.141c0.452-1.09,1.702-1.608,2.792-1.156l0.843,0.349
						C293.117,223.61,293.635,224.86,293.183,225.95z"/>
					<path style="fill:#263238;" d="M297.99,225.95l1.301,3.141c0.452,1.09,1.702,1.608,2.792,1.156l0.843-0.349
						c1.09-0.452,1.608-1.702,1.156-2.792l-1.301-3.141c-0.452-1.09-1.702-1.608-2.792-1.156l-0.843,0.349
						C298.056,223.61,297.538,224.86,297.99,225.95z"/>
				</g>
				<g style="opacity:0.3;">
					<path style="fill:#FFFFFF;" d="M293.183,225.95l-1.301,3.141c-0.452,1.09-1.702,1.608-2.792,1.156l-0.843-0.349
						c-1.09-0.452-1.608-1.702-1.156-2.792l1.301-3.141c0.452-1.09,1.702-1.608,2.792-1.156l0.843,0.349
						C293.117,223.61,293.635,224.86,293.183,225.95z"/>
					<path style="fill:#FFFFFF;" d="M297.99,225.95l1.301,3.141c0.452,1.09,1.702,1.608,2.792,1.156l0.843-0.349
						c1.09-0.452,1.608-1.702,1.156-2.792l-1.301-3.141c-0.452-1.09-1.702-1.608-2.792-1.156l-0.843,0.349
						C298.056,223.61,297.538,224.86,297.99,225.95z"/>
				</g>
			</g>
			<path style="fill:#407BFF;" d="M307.441,265.482h17.18c1.5,0,2.614-1.39,2.287-2.854l-9.973-44.715
				c-0.248-1.112-1.235-1.903-2.374-1.903h-20.754v5.58h13.634V265.482z"/>
			<path style="opacity:0.3;fill:#FFFFFF;" d="M307.441,265.482h17.18c1.5,0,2.614-1.39,2.287-2.854l-9.973-44.715
				c-0.248-1.112-1.235-1.903-2.374-1.903h-20.754v5.58h13.634V265.482z"/>
			<g>
				<rect x="277.745" y="241.531" style="fill:#263238;" width="20.599" height="4.01"/>
				<rect x="298.345" y="241.531" style="fill:#263238;" width="20.599" height="4.01"/>
			</g>
			<g>
				<rect x="277.745" y="241.531" style="opacity:0.7;fill:#FFFFFF;" width="20.599" height="4.01"/>
				<rect x="298.345" y="241.531" style="opacity:0.3;fill:#FFFFFF;" width="20.599" height="4.01"/>
			</g>
		</g>
	</g>
</g>
<g id="Cloud">
	<g>
		<g>
			<g>
				<path style="fill:#407BFF;" d="M247.529,157.376c0.161-0.588,0.254-1.193,0.254-1.814c0-5.313-6.196-9.62-13.839-9.62
					c-4.066,0-7.712,1.227-10.243,3.168c-1.34-0.226-2.727-0.354-4.155-0.354c-10.675,0-19.329,6.668-19.329,14.892
					c0,5.612,4.033,10.495,9.984,13.033c0.603,6.378,8.187,11.425,17.479,11.425c6.738,0,12.581-2.656,15.518-6.546
					c0.228,0.006,0.452,0.024,0.683,0.024c9.686,0,17.538-5.48,17.538-12.239C261.42,163.46,255.464,158.548,247.529,157.376z"/>
				<path style="opacity:0.8;fill:#FFFFFF;" d="M247.529,157.376c0.161-0.588,0.254-1.193,0.254-1.814
					c0-5.313-6.196-9.62-13.839-9.62c-4.066,0-7.712,1.227-10.243,3.168c-1.34-0.226-2.727-0.354-4.155-0.354
					c-10.675,0-19.329,6.668-19.329,14.892c0,5.612,4.033,10.495,9.984,13.033c0.603,6.378,8.187,11.425,17.479,11.425
					c6.738,0,12.581-2.656,15.518-6.546c0.228,0.006,0.452,0.024,0.683,0.024c9.686,0,17.538-5.48,17.538-12.239
					C261.42,163.46,255.464,158.548,247.529,157.376z"/>
			</g>
			<g>
				<path style="fill:#FFFFFF;" d="M212.464,157.878c0.238-1.97,0.628-1.97,0.866,0c0.238,1.97,1.926,2.945,3.751,2.166
					c1.825-0.779,2.02-0.441,0.433,0.75c-1.587,1.191-1.587,3.141,0,4.332c1.587,1.191,1.392,1.529-0.433,0.75
					c-1.825-0.779-3.513,0.196-3.751,2.166c-0.238,1.97-0.628,1.97-0.866,0c-0.238-1.97-1.926-2.944-3.751-2.166
					c-1.825,0.779-2.02,0.441-0.433-0.75c1.587-1.191,1.587-3.141,0-4.332c-1.587-1.191-1.392-1.529,0.433-0.75
					C210.538,160.822,212.226,159.848,212.464,157.878z"/>
			</g>
			<polygon style="fill:#FFFFFF;" points="242.548,150.593 243.873,161.55 254.025,157.219 245.199,163.846 254.025,170.472 
				243.873,166.141 242.548,177.098 241.223,166.141 231.071,170.472 239.898,163.846 231.071,157.219 241.223,161.55 			"/>
		</g>
		<g>
			<g>
				<path style="fill:#407BFF;" d="M221.82,126.204c0.102-0.422,0.172-0.85,0.172-1.289c0-4.907-6.575-8.886-14.686-8.886
					c-7.93,0-14.374,3.805-14.659,8.56c-5.836,1.232-10.071,4.906-10.071,9.247c0,5.351,6.434,9.689,14.37,9.689
					c3.041,0,5.856-0.641,8.178-1.728c2.307,1.086,5.107,1.728,8.132,1.728c7.872,0,14.253-4.313,14.253-9.634
					C227.509,130.747,225.27,127.962,221.82,126.204z"/>
				<path style="opacity:0.6;fill:#FFFFFF;" d="M221.82,126.204c0.102-0.422,0.172-0.85,0.172-1.289
					c0-4.907-6.575-8.886-14.686-8.886c-7.93,0-14.374,3.805-14.659,8.56c-5.836,1.232-10.071,4.906-10.071,9.247
					c0,5.351,6.434,9.689,14.37,9.689c3.041,0,5.856-0.641,8.178-1.728c2.307,1.086,5.107,1.728,8.132,1.728
					c7.872,0,14.253-4.313,14.253-9.634C227.509,130.747,225.27,127.962,221.82,126.204z"/>
			</g>
			<polygon style="fill:#FFFFFF;" points="209.35,120.244 210.23,127.525 216.976,124.647 211.111,129.05 216.976,133.453 
				210.23,130.575 209.35,137.856 208.469,130.575 201.724,133.453 207.589,129.05 201.724,124.647 208.469,127.525 			"/>
		</g>
		<g>
			<g>
				<path style="fill:#407BFF;" d="M231.996,93.418c-0.39-4.598-6.995-8.261-15.109-8.261c-8.365,0-15.146,3.889-15.146,8.687
					c0,3.983,4.679,7.332,11.053,8.357c-0.005,0.11-0.023,0.218-0.023,0.33c0,5.481,6.167,9.924,13.774,9.924
					c7.607,0,13.774-4.443,13.774-9.924C240.319,98.446,236.891,94.94,231.996,93.418z"/>
				<path style="opacity:0.7;fill:#FFFFFF;" d="M231.996,93.418c-0.39-4.598-6.995-8.261-15.109-8.261
					c-8.365,0-15.146,3.889-15.146,8.687c0,3.983,4.679,7.332,11.053,8.357c-0.005,0.11-0.023,0.218-0.023,0.33
					c0,5.481,6.167,9.924,13.774,9.924c7.607,0,13.774-4.443,13.774-9.924C240.319,98.446,236.891,94.94,231.996,93.418z"/>
			</g>
			<g>
				<path style="fill:#FFFFFF;" d="M229.107,94.943c0.234-1.931,0.616-1.931,0.849,0c0.233,1.931,1.888,2.886,3.677,2.123
					c1.789-0.763,1.98-0.432,0.425,0.735c-1.555,1.168-1.555,3.078,0,4.246c1.555,1.168,1.364,1.499-0.425,0.735
					c-1.789-0.763-3.444,0.192-3.677,2.123c-0.234,1.931-0.616,1.931-0.849,0c-0.234-1.931-1.888-2.886-3.677-2.123
					c-1.789,0.763-1.98,0.432-0.425-0.735c1.555-1.168,1.555-3.078,0-4.246c-1.555-1.168-1.364-1.499,0.425-0.735
					C227.219,97.829,228.874,96.874,229.107,94.943z"/>
			</g>
		</g>
		<g>
			<g>
				<path style="fill:#407BFF;" d="M254.385,127.746c0.41-1.531-3.01-3.134-6.141-4.189c0.65-3.239,0.969-7.003-0.563-7.413
					c-1.531-0.41-3.134,3.01-4.19,6.141c-3.239-0.65-7.003-0.969-7.412,0.562c-0.41,1.531,3.01,3.134,6.141,4.189
					c-0.65,3.239-0.969,7.003,0.562,7.413c1.531,0.41,3.135-3.01,4.19-6.141C250.212,128.957,253.976,129.277,254.385,127.746z
					 M247.42,117.108c0.396,0.202,0.588,2.472-0.131,6.138c-0.491-0.152-0.964-0.288-1.4-0.404
					c-0.436-0.117-0.913-0.235-1.414-0.349C245.683,118.958,246.982,117.087,247.42,117.108z M246.721,125.694
					c-0.136,0.509-0.278,0.988-0.421,1.45c-0.471-0.107-0.957-0.223-1.466-0.36c-0.509-0.136-0.988-0.278-1.45-0.421
					c0.107-0.471,0.223-0.957,0.36-1.466c0.136-0.509,0.278-0.988,0.421-1.45c0.471,0.107,0.957,0.223,1.466,0.36
					c0.509,0.136,0.988,0.278,1.45,0.421C246.974,124.7,246.857,125.185,246.721,125.694z M237.044,123.108
					c0.202-0.396,2.472-0.588,6.138,0.131c-0.152,0.491-0.288,0.964-0.404,1.399c-0.117,0.436-0.235,0.913-0.349,1.414
					C238.894,124.845,237.023,123.546,237.044,123.108z M243.045,133.484c-0.396-0.202-0.588-2.472,0.131-6.138
					c0.491,0.152,0.964,0.288,1.399,0.404c0.436,0.117,0.913,0.235,1.415,0.349C244.782,131.635,243.482,133.505,243.045,133.484z
					 M247.283,127.352c0.152-0.491,0.288-0.964,0.404-1.399c0.117-0.436,0.235-0.913,0.349-1.414
					c3.535,1.208,5.406,2.508,5.385,2.945C253.219,127.879,250.949,128.072,247.283,127.352z"/>
				<path style="opacity:0.5;fill:#FFFFFF;" d="M254.385,127.746c0.41-1.531-3.01-3.134-6.141-4.189
					c0.65-3.239,0.969-7.003-0.563-7.413c-1.531-0.41-3.134,3.01-4.19,6.141c-3.239-0.65-7.003-0.969-7.412,0.562
					c-0.41,1.531,3.01,3.134,6.141,4.189c-0.65,3.239-0.969,7.003,0.562,7.413c1.531,0.41,3.135-3.01,4.19-6.141
					C250.212,128.957,253.976,129.277,254.385,127.746z M247.42,117.108c0.396,0.202,0.588,2.472-0.131,6.138
					c-0.491-0.152-0.964-0.288-1.4-0.404c-0.436-0.117-0.913-0.235-1.414-0.349C245.683,118.958,246.982,117.087,247.42,117.108z
					 M246.721,125.694c-0.136,0.509-0.278,0.988-0.421,1.45c-0.471-0.107-0.957-0.223-1.466-0.36
					c-0.509-0.136-0.988-0.278-1.45-0.421c0.107-0.471,0.223-0.957,0.36-1.466c0.136-0.509,0.278-0.988,0.421-1.45
					c0.471,0.107,0.957,0.223,1.466,0.36c0.509,0.136,0.988,0.278,1.45,0.421C246.974,124.7,246.857,125.185,246.721,125.694z
					 M237.044,123.108c0.202-0.396,2.472-0.588,6.138,0.131c-0.152,0.491-0.288,0.964-0.404,1.399
					c-0.117,0.436-0.235,0.913-0.349,1.414C238.894,124.845,237.023,123.546,237.044,123.108z M243.045,133.484
					c-0.396-0.202-0.588-2.472,0.131-6.138c0.491,0.152,0.964,0.288,1.399,0.404c0.436,0.117,0.913,0.235,1.415,0.349
					C244.782,131.635,243.482,133.505,243.045,133.484z M247.283,127.352c0.152-0.491,0.288-0.964,0.404-1.399
					c0.117-0.436,0.235-0.913,0.349-1.414c3.535,1.208,5.406,2.508,5.385,2.945C253.219,127.879,250.949,128.072,247.283,127.352z"
					/>
			</g>
			<path style="fill:#407BFF;" d="M247.288,125.846c0.813-0.538,1.537-1.086,2.089-1.597c0.949-0.88,1.289-1.517,1.04-1.948
				c-0.485-0.837-2.798,0.029-4.634,0.94c-1.134-1.707-2.704-3.615-3.546-3.13c-0.431,0.249-0.454,0.971-0.072,2.207
				c0.223,0.719,0.577,1.555,1.012,2.427c-1.707,1.135-3.615,2.705-3.13,3.546c0.087,0.15,0.231,0.245,0.42,0.296
				c0.874,0.234,2.705-0.485,4.214-1.235c0.933,1.403,2.159,2.94,3.034,3.174c0.19,0.051,0.362,0.04,0.512-0.046
				C249.068,129.995,248.2,127.682,247.288,125.846z M249.861,122.475c0.062,0.017,0.104,0.042,0.124,0.076
				c0.044,0.077-0.035,0.486-0.947,1.331c-0.522,0.484-1.208,1.003-1.978,1.515c-0.167-0.319-0.331-0.619-0.481-0.878
				c-0.15-0.26-0.328-0.552-0.522-0.856C248.06,122.668,249.44,122.362,249.861,122.475z M246.64,125.674
				c-0.284,0.18-0.577,0.36-0.88,0.535c-0.315,0.182-0.612,0.34-0.904,0.493c-0.177-0.279-0.355-0.563-0.537-0.879
				c-0.175-0.303-0.339-0.604-0.495-0.903c0.279-0.177,0.565-0.355,0.881-0.538c0.314-0.181,0.614-0.344,0.905-0.497
				c0.176,0.278,0.354,0.568,0.536,0.882C246.328,125.084,246.487,125.382,246.64,125.674z M242.643,122.17
				c-0.368-1.188-0.232-1.582-0.156-1.626c0.034-0.019,0.083-0.021,0.146-0.004c0.421,0.113,1.464,1.068,2.702,2.929
				c-0.32,0.167-0.62,0.331-0.88,0.481c-0.26,0.15-0.551,0.327-0.855,0.521C243.189,123.642,242.854,122.85,242.643,122.17z
				 M240.481,128.041c-0.151-0.262,0.786-1.425,2.923-2.847c0.153,0.291,0.312,0.585,0.482,0.88c0.15,0.259,0.331,0.553,0.524,0.856
				C242.109,128.072,240.632,128.302,240.481,128.041z M247.978,130.048c-0.26,0.149-1.425-0.787-2.848-2.926
				c0.318-0.166,0.622-0.33,0.881-0.48c0.295-0.17,0.579-0.345,0.857-0.521C248.009,128.421,248.239,129.896,247.978,130.048z"/>
		</g>
		<g>
			<path style="fill:#407BFF;" d="M183.148,90.216c0.113-0.968,0.161-1.875,0.126-2.627c-0.061-1.293-0.328-1.963-0.818-2.051
				c-0.953-0.169-1.782,2.157-2.269,4.148c-2.037-0.234-4.507-0.264-4.678,0.693c-0.088,0.49,0.449,0.973,1.641,1.478
				c0.693,0.293,1.56,0.562,2.508,0.792c-0.234,2.037-0.263,4.507,0.693,4.678c0.17,0.03,0.336-0.019,0.497-0.13
				c0.743-0.518,1.373-2.381,1.773-4.018c1.674,0.192,3.64,0.245,4.382-0.272c0.161-0.112,0.264-0.251,0.295-0.421
				C187.468,91.53,185.14,90.702,183.148,90.216z M182.23,86.076c0.053-0.037,0.099-0.052,0.138-0.045
				c0.087,0.015,0.349,0.34,0.407,1.582c0.033,0.711-0.012,1.57-0.117,2.489c-0.352-0.079-0.686-0.146-0.981-0.199
				c-0.296-0.053-0.633-0.105-0.991-0.153C181.217,87.577,181.873,86.325,182.23,86.076z M182.6,90.601
				c-0.045,0.334-0.097,0.673-0.159,1.017c-0.064,0.358-0.135,0.687-0.206,1.009c-0.327-0.045-0.659-0.092-1.018-0.156
				c-0.344-0.062-0.68-0.131-1.009-0.203c0.045-0.327,0.093-0.661,0.157-1.02c0.064-0.357,0.133-0.691,0.203-1.012
				c0.326,0.045,0.663,0.096,1.02,0.16C181.948,90.459,182.277,90.529,182.6,90.601z M177.344,91.396
				c-1.145-0.484-1.359-0.842-1.343-0.929c0.007-0.038,0.038-0.077,0.091-0.114c0.358-0.249,1.76-0.431,3.981-0.177
				c-0.079,0.352-0.147,0.687-0.199,0.983c-0.053,0.295-0.105,0.632-0.153,0.989C178.821,91.928,178,91.674,177.344,91.396z
				 M180.438,96.835c-0.297-0.053-0.582-1.519-0.291-4.07c0.322,0.071,0.648,0.139,0.983,0.198c0.294,0.053,0.636,0.103,0.992,0.151
				C181.51,95.61,180.735,96.887,180.438,96.835z M186.805,92.398c-0.054,0.295-1.521,0.582-4.073,0.291
				c0.078-0.35,0.149-0.688,0.201-0.983c0.06-0.335,0.109-0.665,0.154-0.991C185.582,91.325,186.858,92.1,186.805,92.398z"/>
			<g>
				<path style="fill:#407BFF;" d="M189.177,86.016c-0.906-1.3-4.337,0.28-7.162,1.993c-2.057-2.585-4.728-5.256-6.029-4.349
					c-1.3,0.906,0.28,4.337,1.993,7.162c-2.585,2.057-5.256,4.728-4.35,6.028c0.906,1.3,4.337-0.28,7.162-1.993
					c2.057,2.585,4.728,5.256,6.029,4.35c1.301-0.906-0.28-4.337-1.993-7.162C187.412,89.987,190.083,87.316,189.177,86.016z
					 M176.555,84.481c0.41-0.172,2.269,1.144,4.608,4.058c-0.433,0.278-0.842,0.551-1.212,0.809
					c-0.37,0.258-0.768,0.547-1.179,0.856C176.848,87.002,176.256,84.802,176.555,84.481z M182.667,90.552
					c0.301,0.433,0.576,0.849,0.837,1.256c-0.385,0.292-0.788,0.587-1.22,0.889c-0.433,0.301-0.849,0.576-1.256,0.837
					c-0.292-0.385-0.587-0.787-0.889-1.22c-0.301-0.433-0.576-0.849-0.837-1.256c0.385-0.291,0.788-0.587,1.22-0.889
					c0.433-0.301,0.85-0.576,1.257-0.837C182.07,89.717,182.366,90.119,182.667,90.552z M174.452,96.281
					c-0.172-0.41,1.144-2.269,4.058-4.607c0.277,0.433,0.551,0.841,0.809,1.211s0.547,0.768,0.856,1.178
					C176.972,95.987,174.773,96.579,174.452,96.281z M186.251,98.384c-0.41,0.172-2.269-1.144-4.607-4.058
					c0.432-0.277,0.841-0.551,1.211-0.809c0.37-0.258,0.769-0.547,1.179-0.856C185.958,95.864,186.55,98.063,186.251,98.384z
					 M184.297,91.191c-0.278-0.432-0.551-0.841-0.809-1.211c-0.258-0.37-0.547-0.768-0.856-1.178
					c3.203-1.924,5.402-2.516,5.723-2.218C188.527,86.993,187.21,88.853,184.297,91.191z"/>
				<path style="opacity:0.5;fill:#FFFFFF;" d="M189.177,86.016c-0.906-1.3-4.337,0.28-7.162,1.993
					c-2.057-2.585-4.728-5.256-6.029-4.349c-1.3,0.906,0.28,4.337,1.993,7.162c-2.585,2.057-5.256,4.728-4.35,6.028
					c0.906,1.3,4.337-0.28,7.162-1.993c2.057,2.585,4.728,5.256,6.029,4.35c1.301-0.906-0.28-4.337-1.993-7.162
					C187.412,89.987,190.083,87.316,189.177,86.016z M176.555,84.481c0.41-0.172,2.269,1.144,4.608,4.058
					c-0.433,0.278-0.842,0.551-1.212,0.809c-0.37,0.258-0.768,0.547-1.179,0.856C176.848,87.002,176.256,84.802,176.555,84.481z
					 M182.667,90.552c0.301,0.433,0.576,0.849,0.837,1.256c-0.385,0.292-0.788,0.587-1.22,0.889
					c-0.433,0.301-0.849,0.576-1.256,0.837c-0.292-0.385-0.587-0.787-0.889-1.22c-0.301-0.433-0.576-0.849-0.837-1.256
					c0.385-0.291,0.788-0.587,1.22-0.889c0.433-0.301,0.85-0.576,1.257-0.837C182.07,89.717,182.366,90.119,182.667,90.552z
					 M174.452,96.281c-0.172-0.41,1.144-2.269,4.058-4.607c0.277,0.433,0.551,0.841,0.809,1.211s0.547,0.768,0.856,1.178
					C176.972,95.987,174.773,96.579,174.452,96.281z M186.251,98.384c-0.41,0.172-2.269-1.144-4.607-4.058
					c0.432-0.277,0.841-0.551,1.211-0.809c0.37-0.258,0.769-0.547,1.179-0.856C185.958,95.864,186.55,98.063,186.251,98.384z
					 M184.297,91.191c-0.278-0.432-0.551-0.841-0.809-1.211c-0.258-0.37-0.547-0.768-0.856-1.178
					c3.203-1.924,5.402-2.516,5.723-2.218C188.527,86.993,187.21,88.853,184.297,91.191z"/>
			</g>
		</g>
	</g>
</g>
<g id="Character_1">
	<g>
		<g>
			<g>
				<g>
					<path style="fill:#407BFF;" d="M228.973,208.232l-7.883-10.456v-12.907c0.992-0.239,1.732-1.127,1.732-2.192v-0.034
						c0-1.249-1.012-2.261-2.261-2.261h-4.14c-1.249,0-2.261,1.012-2.261,2.261v0.034c0,1.066,0.74,1.954,1.732,2.192v12.907
						l-7.883,10.456c-1.511,2.004-0.081,4.873,2.429,4.873h16.106C229.054,213.104,230.484,210.236,228.973,208.232z"/>
					<path style="opacity:0.6;fill:#FFFFFF;" d="M228.973,208.232l-7.883-10.456v-12.907c0.992-0.239,1.732-1.127,1.732-2.192
						v-0.034c0-1.249-1.012-2.261-2.261-2.261h-4.14c-1.249,0-2.261,1.012-2.261,2.261v0.034c0,1.066,0.74,1.954,1.732,2.192v12.907
						l-7.883,10.456c-1.511,2.004-0.081,4.873,2.429,4.873h16.106C229.054,213.104,230.484,210.236,228.973,208.232z"/>
				</g>
				<path style="fill:#407BFF;" d="M215.027,180.876c0.417,0.335,1.802,0.582,3.465,0.582c1.662,0,3.047-0.247,3.464-0.582
					c-0.385-0.304-0.865-0.494-1.394-0.494h-4.14C215.893,180.382,215.412,180.571,215.027,180.876z"/>
				<g>
					<path style="fill:#407BFF;" d="M228.052,208.927l-3.66-4.854c-0.014,0.376-2.649,0.681-5.9,0.681c-3.25,0-5.883-0.304-5.9-0.68
						l-3.66,4.854c-0.44,0.583-0.508,1.323-0.181,1.977c0.326,0.654,0.957,1.045,1.688,1.045h16.106
						c0.731,0,1.362-0.391,1.688-1.045C228.559,210.25,228.492,209.51,228.052,208.927z"/>
					<ellipse style="fill:#407BFF;" cx="218.492" cy="204.07" rx="5.903" ry="0.684"/>
					<ellipse style="opacity:0.3;" cx="218.492" cy="204.07" rx="5.903" ry="0.684"/>
				</g>
			</g>
			<path style="opacity:0.6;fill:#FFFFFF;" d="M217.967,198.375c0,0-7.375,11.176-5,11.875S217.967,198.375,217.967,198.375z"/>
		</g>
		<g>
			<polygon style="fill:#407BFF;" points="171.182,133.583 175.335,135.27 175.099,136.541 173.516,136.504 171.775,138.056 			"/>
			<polygon style="opacity:0.3;fill:#FFFFFF;" points="171.182,133.583 175.335,135.27 175.099,136.541 173.516,136.504 
				171.775,138.056 			"/>
		</g>
		<path style="fill:#263238;" d="M165.632,124.253c0,0,5.684-2.135,6.911,1.467c1.227,3.602-6.235,3.602-6.235,3.602
			L165.632,124.253z"/>
		<path style="opacity:0.5;" d="M165.632,124.253c0,0,5.684-2.135,6.911,1.467c1.227,3.602-6.235,3.602-6.235,3.602L165.632,124.253
			z"/>
		<path style="fill:#FFC3BD;" d="M146.688,159.327c0,0,5.174-0.642,4.892-10.182c0,0,4.743-2.289,7.905,0.465
			c3.162,2.754-2.602,9.465,1.31,12.154C164.707,164.454,146.688,159.327,146.688,159.327z"/>
		<path style="opacity:0.1;" d="M156.706,153.532c0,0,1.147,1.8,2.901,3.342c0.247-1.243,0.623-2.532,0.788-3.722L156.706,153.532z"
			/>
		<path style="fill:#263238;" d="M172.53,135.497c0.077,0.678-0.212,1.271-0.657,1.322c-0.445,0.051-0.9-0.482-0.957-1.144
			c-0.057-0.662,0.212-1.271,0.658-1.315C172.022,134.316,172.447,134.821,172.53,135.497z"/>
		<path style="fill:#BA4D3C;" d="M170.864,136.266l3.889,4.922c0,0-1.614,1.467-4.148,0.84L170.864,136.266z"/>
		<path style="fill:#FFC3BD;" d="M145.895,133.618c0.625,9.062,0.695,12.918,5.308,17.536c7.033,4.685,17.951,4.203,20.044-4.871
			c1.887-8.163,0.55-21.579-8.361-25.171c-6.353-2.557-13.577,0.519-16.134,6.873C146.032,129.772,145.739,131.7,145.895,133.618z"
			/>
		<path style="fill:#263238;" d="M168.883,132.397c0.104,0.06,0.231,0.066,0.34,0.016c0.802-0.418,1.756-0.424,2.564-0.017
			c0.168,0.101,0.385,0.049,0.488-0.117c0.099-0.17,0.045-0.388-0.122-0.493c-1.011-0.538-2.222-0.546-3.24-0.02
			c-0.178,0.085-0.254,0.299-0.169,0.478l0,0.001C168.777,132.308,168.824,132.36,168.883,132.397z"/>
		<g>
			<path style="fill:#407BFF;" d="M142.15,162.23c0,0-0.978-6.226,10.406-4.714c11.384,1.512,10.317,5.158,10.317,5.158
				L142.15,162.23z"/>
			<path style="opacity:0.6;fill:#FFFFFF;" d="M142.15,162.23c0,0-0.978-6.226,10.406-4.714c11.384,1.512,10.317,5.158,10.317,5.158
				L142.15,162.23z"/>
		</g>
		<path style="fill:#FFC3BD;" d="M122.406,297.24l2.135,8.538c0,0-11.043,31.307-6.055,92.497h7.726l15.761-93.92L122.406,297.24z"
			/>
		<path style="fill:#FFC3BD;" d="M168.035,303.999l-1.067,95.698h-8.63c0,0-11.798-66.526-7.678-92.852L168.035,303.999z"/>
		<path style="fill:#407BFF;" d="M121.517,266.111c0,0-3.202,18.677-3.024,35.042c0,0,18.499,10.139,53.186,6.226
			c0,0,2.49-30.417,2.312-47.671L121.517,266.111z"/>
		<path style="fill:#407BFF;" d="M121.517,266.111c0,0-3.202,18.677-3.024,35.042c0,0,18.499,10.139,53.186,6.226
			c0,0,2.49-30.417,2.312-47.671L121.517,266.111z"/>
		<g>
			<path style="fill:#407BFF;" d="M140.194,161.696c0,0-11.384,0.534-11.829,23.302c-0.445,22.768,7.204,25.348,9.961,26.504
				c2.757,1.156-0.622-10.762-0.622-10.762s-3.824-20.812,0.356-28.372C142.239,164.809,141.868,161.296,140.194,161.696z"/>
			<path style="opacity:0.5;fill:#FFFFFF;" d="M140.194,161.696c0,0-11.384,0.534-11.829,23.302
				c-0.445,22.768,7.204,25.348,9.961,26.504c2.757,1.156-0.622-10.762-0.622-10.762s-3.824-20.812,0.356-28.372
				C142.239,164.809,141.868,161.296,140.194,161.696z"/>
		</g>
		<g>
			<path style="fill:#407BFF;" d="M143.751,160.807c-3.626,0.108-13.519-0.534-11.74,25.792
				c1.779,26.326-12.096,80.757-12.096,80.757s21.345,7.827,41.268,8.182c19.922,0.356,15.298-41.623,15.653-52.296
				c0.356-10.673,9.072-41.401,1.453-55.346C176.184,164.041,172.45,159.949,143.751,160.807z"/>
			<path style="opacity:0.7;fill:#FFFFFF;" d="M143.751,160.807c-3.626,0.108-13.519-0.534-11.74,25.792
				c1.779,26.326-12.096,80.757-12.096,80.757s21.345,7.827,41.268,8.182c19.922,0.356,15.298-41.623,15.653-52.296
				c0.356-10.673,9.072-41.401,1.453-55.346C176.184,164.041,172.45,159.949,143.751,160.807z"/>
		</g>
		<polygon style="fill:#FFC3BD;" points="203.783,196.516 210.098,194.826 210.579,199.493 204.761,201.808 		"/>
		<g>
			<path style="fill:#407BFF;" d="M168.565,164.631c3.221-2.161,8.894-2.401,12.185,7.649c3.291,10.05,6.492,25.525,10.851,25.614
				c4.358,0.089,12.627-1.868,12.627-1.868s2.401,1.601,2.046,5.87c0,0-11.738,5.247-20.365,4.358
				c-8.627-0.889-19.057-30.34-19.389-34.864C166.391,169.63,165.708,166.548,168.565,164.631z"/>
			<path style="opacity:0.8;fill:#FFFFFF;" d="M168.565,164.631c3.221-2.161,8.894-2.401,12.185,7.649
				c3.291,10.05,6.492,25.525,10.851,25.614c4.358,0.089,12.627-1.868,12.627-1.868s2.401,1.601,2.046,5.87
				c0,0-11.738,5.247-20.365,4.358c-8.627-0.889-19.057-30.34-19.389-34.864C166.391,169.63,165.708,166.548,168.565,164.631z"/>
		</g>
		<g>
			<path style="fill:#407BFF;" d="M207.885,201.182l5.999-2.772l8.254-2.18c0.904-0.239,1.58-0.99,1.724-1.913l0.839-5.391
				c0.148-0.95-0.297-1.894-1.124-2.384l-0.08-0.048c-0.904-0.536-2.053-0.411-2.815,0.312c-0.809,0.767-1.822,1.645-2.428,1.867
				c-0.353,0.129-1.104,0.13-1.768,0.097c-0.804-0.039-1.572,0.334-2.055,0.978l-2.696,3.59l-4.901,1.697
				C206.832,195.036,208.245,197.65,207.885,201.182z"/>
			<path style="opacity:0.3;fill:#FFFFFF;" d="M207.885,201.182l5.999-2.772l8.254-2.18c0.904-0.239,1.58-0.99,1.724-1.913
				l0.839-5.391c0.148-0.95-0.297-1.894-1.124-2.384l-0.08-0.048c-0.904-0.536-2.053-0.411-2.815,0.312
				c-0.809,0.767-1.822,1.645-2.428,1.867c-0.353,0.129-1.104,0.13-1.768,0.097c-0.804-0.039-1.572,0.334-2.055,0.978l-2.696,3.59
				l-4.901,1.697C206.832,195.036,208.245,197.65,207.885,201.182z"/>
		</g>
		<path style="fill:#263238;" d="M151.438,152.414c0,0,1.284-1.159,3.845,0.738c0,0,9.149-5.656,10.083-18.745
			c0,0,3.354-3.904,2.463-7.219c0,0,5.427-4.89,0.882-8.582c-4.545-3.692-7.729,0.711-7.729,0.711s-14.426-6.172-15.96,8.254
			c0,0-5.003,7.889,0,16.827C150.023,153.336,151.438,152.414,151.438,152.414z"/>
		<path style="fill:#263238;" d="M152.131,152.111c0,0-4.509-0.242-3.909,2.359C148.822,157.072,149.436,152.753,152.131,152.111z"
			/>
		<circle style="fill:#407BFF;" cx="146.635" cy="129.778" r="3.79"/>
		<path style="opacity:0.4;" d="M146.063,123.287c-0.496,1.173-0.861,2.58-1.043,4.283c0,0-2.443,3.875-2.195,9.263
			c3.641-0.944,6.307-3.967,6.307-7.558C149.133,126.876,147.939,124.731,146.063,123.287z"/>
		
			<ellipse transform="matrix(0.7071 -0.7071 0.7071 0.7071 -48.7487 137.5866)" style="fill:#263238;" cx="141.707" cy="127.638" rx="7.425" ry="7.425"/>
		<path style="opacity:0.1;" d="M150.003,313.189c5.331,0.266,11.311,0.204,17.932-0.372l0.058-5.074
			c-6.449,0.564-12.291,0.64-17.519,0.4C150.267,309.712,150.113,311.403,150.003,313.189z"/>
		<path style="opacity:0.1;" d="M123.737,308.417c3.712,1.309,9.377,2.904,16.896,3.919l0.832-4.96
			c-7.797-0.989-13.663-2.611-17.514-3.955l0.589,2.356C124.54,305.778,124.228,306.673,123.737,308.417z"/>
		<path style="fill:#263238;" d="M167.188,397.695l-9.488,0.285c-0.357,0.011-0.66,0.268-0.728,0.619l-1.484,7.77
			c-0.137,0.688,0.311,1.357,0.999,1.494c0.088,0.017,0.178,0.025,0.268,0.024c3.418-0.162,6.454-0.441,10.712-0.563
			c5.025-0.149,3.768,0.49,9.678,0.397c3.561-0.06,4.091-4.125,2.576-4.279c-6.934-0.662-7.714-2.727-10.452-5.119
			C168.676,397.866,167.936,397.642,167.188,397.695z"/>
		<path style="fill:#263238;" d="M126.675,397.03l-9.477-0.533c-0.357-0.02-0.681,0.21-0.778,0.554l-2.147,7.613
			c-0.195,0.674,0.193,1.379,0.867,1.574c0.087,0.025,0.175,0.041,0.265,0.047c3.419,0.133,6.468,0.116,10.721,0.362
			c5.019,0.284,3.712,0.813,9.608,1.229c3.553,0.247,4.431-3.758,2.935-4.041c-6.851-1.257-7.45-3.38-9.973-6
			C128.143,397.328,127.424,397.041,126.675,397.03z"/>
		<path style="fill:#407BFF;" d="M160.516,135.659l14.819-0.389c0,0-0.795,5.954-1.836,5.772c-1.041-0.182-0.68-4.367-0.68-4.367
			l-10.937,0.046L160.516,135.659z"/>
		<path style="opacity:0.7;fill:#FFFFFF;" d="M160.516,135.659l14.819-0.389c0,0-0.795,5.954-1.836,5.772
			c-1.041-0.182-0.68-4.367-0.68-4.367l-10.937,0.046L160.516,135.659z"/>
		<path style="fill:#FFC3BD;" d="M164.773,135.746c1.161,1.447,1.698,3.298,1.492,5.142c-0.292,2.445-2.717,2.749-4.54,1.304
			c-1.653-1.308-3.469-4.15-2.255-6.241C160.682,133.861,163.333,133.992,164.773,135.746z"/>
		<path style="fill:#407BFF;" d="M172.916,232.864l-7.037-0.917c-1.434-0.187-2.445-1.501-2.258-2.935l0.082-0.632l12.23,1.594
			l-0.082,0.632C175.664,232.04,174.35,233.051,172.916,232.864z"/>
		<path style="opacity:0.6;fill:#FFFFFF;" d="M172.916,232.864l-7.037-0.917c-1.434-0.187-2.445-1.501-2.258-2.935l0.082-0.632
			l12.23,1.594l-0.082,0.632C175.664,232.04,174.35,233.051,172.916,232.864z"/>
	</g>
</g>
</svg>
