<?xml version="1.0" encoding="utf-8"?>
<!-- Generator: Adobe Illustrator 27.5.0, SVG Export Plug-In . SVG Version: 6.00 Build 0)  -->
<svg version="1.1" xmlns="http://www.w3.org/2000/svg" xmlns:xlink="http://www.w3.org/1999/xlink" x="0px" y="0px"
	 viewBox="0 0 2500 2500" style="enable-background:new 0 0 2500 2500;" xml:space="preserve">
<g id="Background">
	<rect style="fill:#FFFFFF;" width="2500" height="2500"/>
</g>
<g id="Illustration">
	<g id="SaaS_technology_1_">
		<circle style="fill:#F2E6DC;" cx="1250" cy="1250" r="915"/>
		<g>
			<g>
				<rect x="584.063" y="666.286" style="fill:#E6D0BE;" width="1220.932" height="865.918"/>
				
					<rect x="836.993" y="489.974" transform="matrix(-1.836970e-16 1 -1 -1.836970e-16 2256.6631 -132.3943)" style="fill:#F2E6DC;" width="715.072" height="1144.321"/>
				<path style="fill:#E6D0BE;" d="M1323.049,1550.551h-36.147l0,0c0,27.12-21.981,49.104-49.096,49.104h-86.556
					c-27.115,0-49.096-21.984-49.096-49.104l0,0h-36.145l-36.147,192.124v16.068h329.332v-16.068L1323.049,1550.551z"/>
				<path style="fill:#E6D0BE;" d="M1359.194,1781.032h-329.332c-1.218,0-2.205-0.987-2.205-2.205c0-1.218,0.987-2.205,2.205-2.205
					h329.332c1.218,0,2.205,0.987,2.205,2.205C1361.399,1780.045,1360.412,1781.032,1359.194,1781.032z"/>
			</g>
			<g>
				<g>
					<rect x="692.187" y="750.984" style="fill:#D3BBA3;" width="795.726" height="50.164"/>
					<path style="fill:#D3BBA3;" d="M1487.913,1318.456H692.186c-1.218,0-2.205-0.987-2.205-2.205V750.984
						c0-1.218,0.987-2.205,2.205-2.205h795.727c1.218,0,2.205,0.987,2.205,2.205v565.267
						C1490.118,1317.469,1489.13,1318.456,1487.913,1318.456z M694.391,1314.046h791.317V753.189H694.391V1314.046z"/>
					<circle style="fill:#F7F1EB;" cx="1454.563" cy="776.416" r="11.408"/>
					<circle style="fill:#F7F1EB;" cx="1417.705" cy="776.416" r="11.408"/>
					<circle style="fill:#F7F1EB;" cx="1380.847" cy="776.416" r="11.408"/>
				</g>
				<g>
					
						<rect x="742.288" y="865.951" transform="matrix(-1 -1.224647e-16 1.224647e-16 -1 2180.0984 2142.1499)" style="fill:#FFFFFF;" width="695.522" height="410.247"/>
					
						<rect x="787.185" y="1212.056" transform="matrix(-1 -1.224647e-16 1.224647e-16 -1 2191.8677 2450.8682)" style="fill:#E6D0BE;" width="617.499" height="26.755"/>
				</g>
			</g>
			<g>
				<g>
					<g>
						
							<ellipse transform="matrix(1 -0.0011 0.0011 1 -1.061 1.0673)" style="fill:#D87355;" cx="1002.777" cy="997.976" rx="142.29" ry="142.314"/>
						<polygon style="fill:#FFFFFF;" points="998.644,1078.166 928.862,1014.712 950.42,988.136 994.665,1023.498 1064.091,922.715 
							1092.336,942.16 						"/>
					</g>
				</g>
			</g>
		</g>
		<g>
			<g>
				<path style="fill:#363E44;" d="M2139.242,1691.93h-846.793v-584.125h846.793V1691.93z M1296.859,1687.52h837.973v-575.306
					h-837.973V1687.52z"/>
				
					<rect x="1314.825" y="1131.534" transform="matrix(-1 -1.224647e-16 1.224647e-16 -1 3431.6917 2746.8027)" style="fill:#D3BBA3;" width="802.041" height="483.735"/>
				<path style="fill:#363E44;" d="M2110.489,1774.205h-789.286c-28.985,0-52.566-25.259-52.566-56.305v-2.205h894.416v2.205
					C2163.054,1748.946,2139.473,1774.205,2110.489,1774.205z M1273.09,1720.104c1.075,27.596,22.245,49.691,48.113,49.691h789.286
					c25.867,0,47.036-22.094,48.112-49.691H1273.09z"/>
				<path style="fill:#363E44;" d="M1776.475,1739.841h-121.259c-1.218,0-2.205-0.987-2.205-2.205c0-1.218,0.987-2.205,2.205-2.205
					h121.259c1.218,0,2.205,0.987,2.205,2.205C1778.68,1738.854,1777.693,1739.841,1776.475,1739.841z"/>
			</g>
			<g>
				<g>
					<ellipse style="fill:#FFFFFF;" cx="1710.26" cy="1370.319" rx="124.685" ry="124.706"/>
					<polygon style="fill:#D87355;" points="1706.639,1440.587 1645.491,1384.984 1664.382,1361.696 1703.152,1392.683 
						1763.988,1304.37 1788.739,1321.409 					"/>
				</g>
			</g>
		</g>
		<g>
			<g>
				<path style="fill:#E6D0BE;" d="M377.099,1706.612v400.554c0,28.59,85,51.767,189.852,51.767
					c104.852,0,189.852-23.177,189.852-51.767v-400.554H377.099z"/>
				<path style="fill:#FFFFFF;" d="M566.951,2161.138c-107.695,0-192.056-23.707-192.056-53.972v-402.759h384.113v402.759
					C759.008,2137.431,674.647,2161.138,566.951,2161.138z M379.304,1708.817v398.349c0,26.865,85.932,49.562,187.646,49.562
					c101.716,0,187.648-22.697,187.648-49.562v-398.349H379.304z"/>
				<ellipse style="fill:#FFFFFF;" cx="566.951" cy="1706.532" rx="189.852" ry="51.767"/>
				<ellipse style="fill:#F2E6DC;" cx="566.951" cy="1702.661" rx="149.529" ry="32.672"/>
				<path style="fill:#FFFFFF;" d="M566.951,1894.048c-107.695,0-192.056-23.707-192.056-53.972c0-1.218,0.987-2.205,2.205-2.205
					s2.205,0.987,2.205,2.205c0,26.865,85.932,49.562,187.646,49.562c101.716,0,187.648-22.697,187.648-49.562
					c0-1.218,0.987-2.205,2.205-2.205c1.218,0,2.205,0.987,2.205,2.205C759.008,1870.341,674.647,1894.048,566.951,1894.048z"/>
				<path style="fill:#FFFFFF;" d="M566.951,2027.593c-107.695,0-192.056-23.707-192.056-53.972c0-1.218,0.987-2.205,2.205-2.205
					s2.205,0.987,2.205,2.205c0,26.865,85.932,49.562,187.646,49.562c101.716,0,187.648-22.697,187.648-49.562
					c0-1.218,0.987-2.205,2.205-2.205c1.218,0,2.205,0.987,2.205,2.205C759.008,2003.886,674.647,2027.593,566.951,2027.593z"/>
			</g>
			<g>
				<g>
					<path style="fill:#FFFFFF;" d="M1063.551,1850.442l-69.663,157.108l276.001,147.206
						C1269.89,2154.756,1296.881,1902.59,1063.551,1850.442z"/>
					<g>
						<polygon style="fill:#E2A18D;" points="1112.876,1973.902 1215.258,2067.386 1294.147,2020.808 1209.959,1904.203 						"/>
						<g>
							<path style="fill:#E6D0BE;" d="M1121.476,2161.997h397.317c0,0-90.622-127.688-248.904-186.512l-107.219,53.735
								C1162.671,2029.22,1135.482,2096.927,1121.476,2161.997z"/>
							<g>
								<path style="fill:#363E44;" d="M1270.89,2049.646c-0.5,0-1.001-0.168-1.413-0.514c-0.933-0.781-1.058-2.171-0.277-3.106
									l40.943-48.957c0.783-0.933,2.174-1.057,3.106-0.277c0.933,0.781,1.058,2.172,0.277,3.106l-40.943,48.957
									C1272.146,2049.376,1271.521,2049.646,1270.89,2049.646z"/>
								<path style="fill:#363E44;" d="M1304.665,2065.107c-0.499,0-1.001-0.168-1.413-0.513c-0.933-0.781-1.058-2.171-0.277-3.106
									l40.943-48.957c0.782-0.933,2.175-1.057,3.106-0.277c0.933,0.781,1.058,2.172,0.277,3.106l-40.943,48.957
									C1305.922,2064.838,1305.296,2065.107,1304.665,2065.107z"/>
							</g>
						</g>
					</g>
					<g>
						<path style="fill:#8B865C;" d="M1033.435,1594.044l6.929,267.264c0.898-0.105,159.814,87.878,158.703,80.307
							c-0.735-5.003,9.146-222.884,15.931-370.078c0.925-20.059-1.79-39.545-7.54-57.793l-109.684,18.567L1033.435,1594.044z"/>
						<g>
							<defs>
								<rect id="SVGID_1_" x="354.542" y="1379.876" width="857.004" height="339.061"/>
							</defs>
							<clipPath id="SVGID_00000166640133186814358320000016704946248964155048_">
								<use xlink:href="#SVGID_1_"  style="overflow:visible;"/>
							</clipPath>
							<path style="clip-path:url(#SVGID_00000166640133186814358320000016704946248964155048_);fill:#8B865C;" d="
								M1077.877,1400.102c-238.652-40.99-470.922,38.211-698.405,207.56c0,0-16.031,106.622,109.355,135.935
								c125.387,29.313,543.626-187.401,543.626-187.401l0.981,37.848l174.023-80.3
								C1189.277,1456.043,1140.446,1410.848,1077.877,1400.102z"/>
						</g>
					</g>
					<g>
						<path style="fill:#8B865C;" d="M783.151,1635.919l338.391,368.638l118.576-93.453l-188.507-307.352
							c0,0-61.218-88.787-142.821-47.556C827.187,1597.427,783.151,1635.919,783.151,1635.919z"/>
						<path style="fill:#363E44;" d="M831.767,1652.832c-0.833,0-1.631-0.475-2.002-1.281c-0.51-1.106-0.028-2.416,1.078-2.926
							l245.496-113.328c1.103-0.507,2.416-0.029,2.925,1.078c0.51,1.106,0.028,2.416-1.078,2.926L832.69,1652.628
							C832.39,1652.766,832.077,1652.832,831.767,1652.832z"/>
						<path style="fill:#363E44;" d="M1196.311,1841.882c-0.743,0-1.467-0.375-1.883-1.055l-151.71-248.03
							c-0.635-1.039-0.309-2.396,0.73-3.031c1.04-0.636,2.397-0.308,3.032,0.73l151.71,248.03c0.635,1.039,0.309,2.396-0.73,3.031
							C1197.1,1841.777,1196.703,1841.882,1196.311,1841.882z"/>
					</g>
				</g>
				<g>
					<path style="fill:#363E44;" d="M690.865,942.751c0,0-30.497,4.351-52.746-17.037c-22.249-21.388-79.497-34.344-126.157,1.348
						c-92.82,71.002-88.926-53.362-171.286-9.491v30.664c8.835-3.283,22.811-3.156,40.19,15.07
						c25.669,26.92,42.03,22.5,46.628,20.384c0.862-0.446,1.334-0.727,1.334-0.727s-0.454,0.322-1.334,0.727
						c-6.146,3.179-32.342,14.876-52.568-4.789c-12.945-12.586-25.2-12.893-34.251-10.154v125.259c0,0,17.806,47.914,74.084,27.62
						c56.278-20.294,70.728-86.474,128.772-61.061c58.044,25.414,45.696,30.696,99.984,4.691
						C697.804,1039.25,690.865,942.751,690.865,942.751z"/>
					<path style="fill:#E2A18D;" d="M695.98,1107.921c-22.189,4.573-55.616-49.041-55.616-49.041l-2.19-69.191
						c12.83-29.18,46.881-42.432,76.056-29.6c29.175,12.832,42.425,46.889,29.595,76.069
						C743.825,1036.158,718.58,1103.263,695.98,1107.921z"/>
					<polygon style="fill:#E2A18D;" points="579.705,1122.667 642.237,1203.764 647.294,1142.684 702.446,1017.25 638.435,989.095 
											"/>
					<path style="fill:#E2A18D;" d="M731.646,1047.38c0,0,7.99,22.043,5.399,25.796c-3.092,4.479-20.91,0.204-20.91,0.204
						S732.023,1047.591,731.646,1047.38z"/>
					<g>
						<path style="fill:#FFFFFF;" d="M684.967,1024.151c0,0,10.936-0.868,21.596,3.822c2.268,0.998-9.993,17.269-11.694,15.294
							C687.39,1034.584,684.967,1024.151,684.967,1024.151z"/>
						<g>
							<defs>
								<path id="SVGID_00000124124798711356650470000013878348293608293296_" d="M684.967,1024.151c0,0,16.084-1.276,28.255,7.632
									c12.172,8.908,15.822,24.627,15.822,24.627s-16.084,1.276-28.255-7.632C688.617,1039.87,684.967,1024.151,684.967,1024.151z
									"/>
							</defs>
							<clipPath id="SVGID_00000153689269902120519120000013170338389771605140_">
								<use xlink:href="#SVGID_00000124124798711356650470000013878348293608293296_"  style="overflow:visible;"/>
							</clipPath>
							<path style="clip-path:url(#SVGID_00000153689269902120519120000013170338389771605140_);fill:#363E44;" d="M707.22,1027.705
								c10.152-3.951,21.584,1.077,25.534,11.231c3.95,10.153-1.077,21.587-11.229,25.538c-10.152,3.951-21.584-1.077-25.534-11.231
								C692.041,1043.09,697.068,1031.656,707.22,1027.705z"/>
						</g>
					</g>
					<path style="fill:#363E44;" d="M702.322,1079.67c-3.442,0-6.709-1.719-8.626-4.638c-2.134-3.251-2.231-7.528-0.248-10.896
						c0.619-1.05,1.97-1.399,3.019-0.782c1.05,0.618,1.4,1.97,0.782,3.019c-1.138,1.932-1.085,4.382,0.133,6.239
						c1.266,1.927,3.572,2.94,5.868,2.575c1.195-0.187,2.332,0.63,2.522,1.833c0.191,1.203-0.631,2.332-1.833,2.522
						C703.4,1079.629,702.858,1079.67,702.322,1079.67z"/>
					<path style="fill:#363E44;" d="M678.46,1105.943c-0.422,0-0.848-0.121-1.225-0.374c-19.239-12.896-38.338-43.323-39.142-44.613
						c-0.644-1.034-0.328-2.393,0.704-3.038c1.034-0.644,2.392-0.329,3.038,0.705c0.192,0.307,19.406,30.916,37.854,43.283
						c1.012,0.678,1.282,2.048,0.604,3.059C679.868,1105.6,679.17,1105.943,678.46,1105.943z"/>
					<g>
						<path style="fill:#363E44;" d="M613.291,1014.539c-7.449-16.688,13.838-49.583,37.662-61.999
							c30.715-16.007,54.2-20.107,80.783-4.757c40.139,23.177,31.863,78.916,31.863,78.916s-41.562-17.431-55.723-22.918
							c-19.909-7.715-30.567,57.519-53.43,20.306c-2.516-4.095-34.086,75.974-68.656,54.836
							C538.445,1049.975,621.195,1032.25,613.291,1014.539z"/>
					</g>
					
						<ellipse transform="matrix(1 -0.0078 0.0078 1 -7.9175 5.14)" style="fill:#E2A18D;" cx="659.213" cy="1024.088" rx="19.744" ry="19.747"/>
					<path style="fill:#363E44;" d="M432.004,1129.902c-6.332,0-12.833-1.476-18.948-4.399
						c-10.818-5.172-18.874-14.131-22.103-24.581c-0.359-1.163,0.293-2.398,1.456-2.757c1.163-0.36,2.397,0.291,2.758,1.455
						c2.866,9.278,10.08,17.262,19.792,21.905c9.707,4.641,20.446,5.243,29.466,1.648c12.747-5.08,21.704-16.687,30.365-27.912
						c0.944-1.222,1.884-2.441,2.825-3.646c9.331-11.947,22.248-25.832,39.463-27.162c9.124-0.704,17.754,2.304,26.114,5.214
						c6.806,2.368,13.845,4.818,20.892,5.106c9.346,0.389,18.877-3.705,26.116-11.218c7.24-7.514,10.974-17.182,10.241-26.524
						c-0.095-1.214,0.813-2.275,2.026-2.37c1.242-0.094,2.275,0.813,2.371,2.026c0.829,10.597-3.348,21.506-11.463,29.928
						c-8.113,8.42-18.84,12.99-29.471,12.565c-7.7-0.315-15.05-2.874-22.16-5.348c-8.297-2.887-16.132-5.614-24.325-4.982
						c-15.496,1.198-27.554,14.246-36.328,25.48c-0.935,1.198-1.87,2.41-2.809,3.626c-9.024,11.694-18.356,23.787-32.224,29.314
						C441.643,1129.029,436.873,1129.902,432.004,1129.902z"/>
					<path style="fill:#363E44;" d="M463.613,941.645c-17.632,0-35.353-10.431-42.824-26.545c-0.512-1.105-0.032-2.415,1.073-2.928
						c1.097-0.513,2.414-0.033,2.927,1.073c8.249,17.789,30.309,27.918,49.17,22.583c7.412-2.097,13.956-6.096,20.883-10.33
						c3.106-1.899,6.318-3.863,9.59-5.618c33.064-17.745,76.937-14.169,106.691,8.696c0.966,0.742,1.147,2.126,0.405,3.092
						c-0.743,0.965-2.128,1.145-3.092,0.405c-28.423-21.842-70.332-25.259-101.92-8.307c-3.162,1.697-6.321,3.628-9.375,5.495
						c-6.877,4.203-13.988,8.55-21.984,10.811C471.39,941.137,467.502,941.645,463.613,941.645z"/>
				</g>
				<g>
					<path style="fill:#363E44;" d="M1126.396,1394.239h-202.79c-13.758,0-24.91-11.154-24.91-24.914l0,0h227.7V1394.239z"/>
					<path style="fill:#363E44;" d="M1127.905,1393.533l61.421-193.297c4.167-13.113-3.084-27.122-16.195-31.29h0l-68.965,217.041
						L1127.905,1393.533z"/>
					<path style="fill:#F2E6DC;" d="M1104.868,1361.119c-0.222,0-0.447-0.033-0.668-0.104c-1.161-0.369-1.802-1.608-1.434-2.769
						l60.362-189.966c0.369-1.162,1.615-1.802,2.769-1.434c1.161,0.369,1.802,1.608,1.434,2.769l-60.362,189.967
						C1106.671,1360.52,1105.803,1361.119,1104.868,1361.119z"/>
				</g>
				<g>
					<g>
						<path style="fill:#E2A18D;" d="M1007.5,1319.858c-13.422-5.072-65.833-35.068-89.433-19.76
							c-23.769,15.417-33.101,45.21-32.454,73.439c0.081,0.082,0.171,0.172,0.251,0.254c3.458,7.018,9.712,16.991,20.86,23.645
							c12.708,7.585,19.604,3.592,34.267,9.518c24.749,10.002,29.241,31.907,37.799,27.886c5.873-2.759,3.811-15.636-1.141-26.893
							c-5.084-11.558-13.26-16.903-11.995-18.542c1.389-1.798,8.989,4.701,19.185,11.919c4.737,3.354,12.046,20.534,20.629,17.941
							c6.843-2.067,3.736-21.821-7.688-35.048c-8.081-9.357-19.976-11.182-19.193-13.296c0.587-1.586,7.648-0.325,13.408,2.567
							c9.505,4.77,17.172,22.267,25.026,19.727c7.694-2.489,4.675-19.693-5.057-32.52c-8.206-10.816-21.567-12.22-20.61-14.853
							c0.673-1.852,6.786-2.461,19.394,0.105c10.523,2.143,29.598,13.061,33.494,2.438
							C1047.519,1339.448,1027.759,1327.512,1007.5,1319.858z"/>
						<path style="fill:#E2A18D;" d="M662.137,1337.564c-29.768,10.819-49.568,39.743-47.532,71.215
							c1.335,20.634,12.093,41.646,44.76,53.54c79.538,28.958,252.007-88.615,252.007-88.615l20.062-77.768
							C840.725,1294.105,744.075,1307.784,662.137,1337.564z"/>
					</g>
					<g>
						<path style="fill:#FFFFFF;" d="M350.473,1625.052l371.864-165.52l-56.121-249.91l11.944-55.296l-146.619-55.211l-24.49,51.875
							C507.052,1150.991,385.79,1263.538,350.473,1625.052z"/>
						<g>
							<path style="fill:#FFFFFF;" d="M529.318,1197.754l80.718,37.094l-36.394,124.359c0,0,123.129-43.97,217.435-63.419
								l13.736,171.121l-323.383,74.073c-67.072,17.517-130.304-39.249-119.394-107.397
								c10.341-64.595,40.055-159.062,112.537-226.974C489.293,1192.82,510.965,1189.319,529.318,1197.754z"/>
							<path style="fill:#363E44;" d="M456.589,1546.409c-28.756,0-56.239-12.604-75.428-35.58
								c-0.781-0.935-0.656-2.325,0.279-3.106c0.934-0.781,2.325-0.656,3.106,0.279c23.684,28.359,60.597,40.181,96.326,30.847
								l75.145-17.213c1.185-0.269,2.371,0.469,2.641,1.657c0.272,1.187-0.469,2.37-1.657,2.641l-75.079,17.197
								C473.486,1545.334,464.983,1546.409,456.589,1546.409z"/>
							<path style="fill:#363E44;" d="M570.312,1362.736l18.365-62.756c0.344-1.169,1.572-1.84,2.736-1.497
								c1.169,0.342,1.839,1.567,1.497,2.735l-15.943,54.478c13.359-4.678,57.963-20.061,109.259-35.195
								c1.169-0.344,2.394,0.322,2.739,1.491c0.344,1.168-0.323,2.394-1.49,2.739c-61.04,18.008-112.577,36.368-113.091,36.551
								L570.312,1362.736z"/>
							<path style="fill:#363E44;" d="M596.701,1282.62c-0.228,0-0.461-0.036-0.69-0.111c-1.156-0.38-1.785-1.627-1.404-2.784
								c16.27-49.393-46.162-72.621-46.795-72.849c-1.144-0.415-1.738-1.678-1.323-2.824c0.414-1.146,1.684-1.735,2.824-1.323
								c0.673,0.244,67.078,24.961,49.483,78.376C598.489,1282.033,597.627,1282.62,596.701,1282.62z"/>
						</g>
					</g>
				</g>
			</g>
		</g>
		<g>
			<g>
				<g>
					<path style="fill:#40484C;" d="M2129.279,2141.563h-343.842c-17.383,0-31.474-14.092-31.474-31.475v-630.903
						c0-17.383,14.092-31.474,31.474-31.474h343.842c17.383,0,31.474,14.092,31.474,31.474v630.903
						C2160.753,2127.471,2146.662,2141.563,2129.279,2141.563z"/>
					<path style="fill:#FFFFFF;" d="M1782.344,1483.578c-5.144,0-9.314,4.171-9.314,9.316v621.442h359.341
						c5.144,0,9.314-4.171,9.314-9.315v-612.127c0-5.145-4.17-9.316-9.314-9.316H1782.344z"/>
					<path style="fill:#D3BBA3;" d="M1997.809,1468.606h-80.902c-1.218,0-2.205-0.987-2.205-2.205c0-1.218,0.987-2.205,2.205-2.205
						h80.902c1.218,0,2.205,0.987,2.205,2.205C2000.014,1467.619,1999.027,1468.606,1997.809,1468.606z"/>
				</g>
			</g>
			<g>
				<g>
					<rect x="1800.226" y="1532.441" style="fill:#EFBC73;" width="314.263" height="314.315"/>
					<g>
						<rect x="1800.226" y="1857.993" style="fill:#EFBC73;" width="314.263" height="55.385"/>
						<g>
							
								<ellipse transform="matrix(1 -0.0053 0.0053 1 -9.9765 9.7552)" style="fill:#FFFFFF;" cx="1829.207" cy="1880.665" rx="14.3" ry="14.302"/>
							
								<ellipse transform="matrix(1 -0.005 0.005 1 -9.4733 9.4464)" style="fill:#FFFFFF;" cx="1865.876" cy="1880.665" rx="14.3" ry="14.302"/>
							
								<ellipse transform="matrix(1 -0.0052 0.0052 1 -9.6677 9.8307)" style="fill:#FFFFFF;" cx="1902.546" cy="1880.665" rx="14.3" ry="14.302"/>
						</g>
					</g>
					<rect x="1800.226" y="1963.415" style="fill:#EFBC73;" width="314.263" height="93.416"/>
				</g>
				<g>
					<ellipse style="fill:#FFFFFF;" cx="1954.717" cy="1692.915" rx="90.755" ry="90.77"/>
					<polygon style="fill:#D87355;" points="1952.08,1744.061 1907.572,1703.589 1921.322,1686.639 1949.543,1709.193 
						1993.824,1644.912 2011.839,1657.315 					"/>
				</g>
			</g>
		</g>
		<g>
			<path style="fill:#D3BBA3;" d="M2010.743,825.616c-1.218,0-2.205-0.987-2.205-2.205s0.987-2.205,2.205-2.205
				c69.62,0,126.259-56.64,126.259-126.26c0-69.62-56.64-126.26-126.259-126.26c-31.389,0-61.48,11.598-84.729,32.658
				c-0.665,0.603-1.631,0.741-2.437,0.352c-0.809-0.389-1.299-1.23-1.243-2.125c0.329-5.217,0.496-10.323,0.496-15.177
				c0-130.579-106.233-236.812-236.811-236.812c-39.109,0-77.863,9.733-112.074,28.146c-1.076,0.579-2.411,0.174-2.986-0.896
				c-0.577-1.072-0.177-2.409,0.896-2.987c34.852-18.758,74.33-28.673,114.165-28.673c133.009,0,241.221,108.212,241.221,241.222
				c0,3.313-0.076,6.74-0.227,10.237c23.47-19.612,53.001-30.355,83.732-30.355c72.051,0,130.669,58.618,130.669,130.67
				C2141.412,766.997,2082.794,825.616,2010.743,825.616z"/>
		</g>
		<g>
			<g>
				<path style="fill:#FFFFFF;" d="M2010.744,566.481c-33.179,0-63.416,12.581-86.21,33.229c0.32-5.066,0.501-10.169,0.501-15.316
					c0-132.005-107.011-239.017-239.017-239.017c-132.005,0-239.017,107.012-239.017,239.017c0,25.641,4.055,50.331,11.528,73.485
					c-9.71-3.816-20.271-5.933-31.334-5.933c-47.349,0-85.733,38.383-85.733,85.733c0,47.349,38.384,85.732,85.733,85.732
					c43.691,0,190.349,0,258.823,0c82.592,0,261.589,0,324.726,0c70.948,0,128.464-57.516,128.464-128.465
					S2081.692,566.481,2010.744,566.481z"/>
			</g>
			<path style="fill:#D87355;" d="M1033.436,632.463c-1.218,0-2.205-0.987-2.205-2.205v-8.379c0-1.218,0.987-2.205,2.205-2.205
				c1.218,0,2.205,0.987,2.205,2.205v8.379C1035.641,631.476,1034.653,632.463,1033.436,632.463z M1033.436,606.446
				c-1.218,0-2.205-0.987-2.205-2.205v-17.639c0-1.218,0.987-2.205,2.205-2.205c1.218,0,2.205,0.987,2.205,2.205v17.639
				C1035.641,605.458,1034.653,606.446,1033.436,606.446z M1033.436,571.169c-1.218,0-2.205-0.987-2.205-2.205v-17.639
				c0-1.218,0.987-2.205,2.205-2.205c1.218,0,2.205,0.987,2.205,2.205v17.639C1035.641,570.181,1034.653,571.169,1033.436,571.169z
				 M1033.436,535.891c-1.218,0-2.205-0.987-2.205-2.205v-17.639c0-1.218,0.987-2.205,2.205-2.205c1.218,0,2.205,0.987,2.205,2.205
				v17.639C1035.641,534.904,1034.653,535.891,1033.436,535.891z M1033.436,500.614c-1.218,0-2.205-0.987-2.205-2.205v-10.01
				c0-1.218,0.987-2.205,2.205-2.205h7.629c1.218,0,2.205,0.987,2.205,2.205c0,1.218-0.987,2.205-2.205,2.205h-5.424v7.805
				C1035.641,499.627,1034.653,500.614,1033.436,500.614z M1429.113,490.604h-17.639c-1.218,0-2.205-0.987-2.205-2.205
				c0-1.218,0.987-2.205,2.205-2.205h17.639c1.218,0,2.205,0.987,2.205,2.205C1431.317,489.617,1430.33,490.604,1429.113,490.604z
				 M1393.835,490.604h-17.639c-1.218,0-2.205-0.987-2.205-2.205c0-1.218,0.987-2.205,2.205-2.205h17.639
				c1.218,0,2.205,0.987,2.205,2.205C1396.04,489.617,1395.053,490.604,1393.835,490.604z M1358.558,490.604h-17.639
				c-1.218,0-2.205-0.987-2.205-2.205c0-1.218,0.987-2.205,2.205-2.205h17.639c1.218,0,2.205,0.987,2.205,2.205
				C1360.763,489.617,1359.776,490.604,1358.558,490.604z M1323.281,490.604h-17.639c-1.218,0-2.205-0.987-2.205-2.205
				c0-1.218,0.987-2.205,2.205-2.205h17.639c1.218,0,2.205,0.987,2.205,2.205C1325.486,489.617,1324.499,490.604,1323.281,490.604z
				 M1288.004,490.604h-17.639c-1.218,0-2.205-0.987-2.205-2.205c0-1.218,0.987-2.205,2.205-2.205h17.639
				c1.218,0,2.205,0.987,2.205,2.205C1290.209,489.617,1289.222,490.604,1288.004,490.604z M1252.727,490.604h-17.639
				c-1.218,0-2.205-0.987-2.205-2.205c0-1.218,0.987-2.205,2.205-2.205h17.639c1.218,0,2.205,0.987,2.205,2.205
				C1254.932,489.617,1253.945,490.604,1252.727,490.604z M1217.45,490.604h-17.639c-1.218,0-2.205-0.987-2.205-2.205
				c0-1.218,0.987-2.205,2.205-2.205h17.639c1.218,0,2.205,0.987,2.205,2.205C1219.655,489.617,1218.667,490.604,1217.45,490.604z
				 M1182.173,490.604h-17.639c-1.218,0-2.205-0.987-2.205-2.205c0-1.218,0.987-2.205,2.205-2.205h17.639
				c1.218,0,2.205,0.987,2.205,2.205C1184.378,489.617,1183.39,490.604,1182.173,490.604z M1146.896,490.604h-17.639
				c-1.218,0-2.205-0.987-2.205-2.205c0-1.218,0.987-2.205,2.205-2.205h17.639c1.218,0,2.205,0.987,2.205,2.205
				C1149.1,489.617,1148.113,490.604,1146.896,490.604z M1111.619,490.604h-17.639c-1.218,0-2.205-0.987-2.205-2.205
				c0-1.218,0.987-2.205,2.205-2.205h17.639c1.218,0,2.205,0.987,2.205,2.205C1113.823,489.617,1112.836,490.604,1111.619,490.604z
				 M1076.341,490.604h-17.639c-1.218,0-2.205-0.987-2.205-2.205c0-1.218,0.987-2.205,2.205-2.205h17.639
				c1.218,0,2.205,0.987,2.205,2.205C1078.546,489.617,1077.559,490.604,1076.341,490.604z"/>
			<path style="fill:#D87355;" d="M1655.216,1067.459c-1.218,0-2.205-0.987-2.205-2.205v-4.916c0-1.218,0.987-2.205,2.205-2.205
				s2.205,0.987,2.205,2.205v4.916C1657.421,1066.472,1656.434,1067.459,1655.216,1067.459z M1655.216,1044.905
				c-1.218,0-2.205-0.987-2.205-2.205v-17.639c0-1.218,0.987-2.205,2.205-2.205s2.205,0.987,2.205,2.205v17.639
				C1657.421,1043.918,1656.434,1044.905,1655.216,1044.905z M1655.216,1009.628c-1.218,0-2.205-0.987-2.205-2.205v-17.639
				c0-1.218,0.987-2.205,2.205-2.205s2.205,0.987,2.205,2.205v17.639C1657.421,1008.641,1656.434,1009.628,1655.216,1009.628z
				 M1655.216,974.351c-1.218,0-2.205-0.987-2.205-2.205v-17.639c0-1.218,0.987-2.205,2.205-2.205s2.205,0.987,2.205,2.205v17.639
				C1657.421,973.364,1656.434,974.351,1655.216,974.351z M1655.216,939.074c-1.218,0-2.205-0.987-2.205-2.205v-17.639
				c0-1.218,0.987-2.205,2.205-2.205s2.205,0.987,2.205,2.205v17.639C1657.421,938.087,1656.434,939.074,1655.216,939.074z
				 M1655.216,903.797c-1.218,0-2.205-0.987-2.205-2.205v-17.639c0-1.218,0.987-2.205,2.205-2.205s2.205,0.987,2.205,2.205v17.639
				C1657.421,902.81,1656.434,903.797,1655.216,903.797z M1655.216,868.52c-1.218,0-2.205-0.987-2.205-2.205v-17.638
				c0-1.218,0.987-2.205,2.205-2.205s2.205,0.987,2.205,2.205v17.638C1657.421,867.532,1656.434,868.52,1655.216,868.52z"/>
			<path style="fill:#D87355;" d="M1957.357,1421.876c-1.218,0-2.205-0.987-2.205-2.205v-6.561c0-1.218,0.987-2.205,2.205-2.205
				s2.205,0.987,2.205,2.205v6.561C1959.562,1420.888,1958.575,1421.876,1957.357,1421.876z M1957.357,1397.676
				c-1.218,0-2.205-0.987-2.205-2.205v-17.639c0-1.218,0.987-2.205,2.205-2.205s2.205,0.987,2.205,2.205v17.639
				C1959.562,1396.689,1958.575,1397.676,1957.357,1397.676z M1957.357,1362.399c-1.218,0-2.205-0.987-2.205-2.205v-17.639
				c0-1.218,0.987-2.205,2.205-2.205s2.205,0.987,2.205,2.205v17.639C1959.562,1361.412,1958.575,1362.399,1957.357,1362.399z
				 M1957.357,1327.122c-1.218,0-2.205-0.987-2.205-2.205v-17.639c0-1.218,0.987-2.205,2.205-2.205s2.205,0.987,2.205,2.205v17.639
				C1959.562,1326.135,1958.575,1327.122,1957.357,1327.122z M1957.357,1291.845c-1.218,0-2.205-0.987-2.205-2.205v-17.639
				c0-1.218,0.987-2.205,2.205-2.205s2.205,0.987,2.205,2.205v17.639C1959.562,1290.858,1958.575,1291.845,1957.357,1291.845z
				 M1957.357,1256.568c-1.218,0-2.205-0.987-2.205-2.205v-17.639c0-1.218,0.987-2.205,2.205-2.205s2.205,0.987,2.205,2.205v17.639
				C1959.562,1255.581,1958.575,1256.568,1957.357,1256.568z M1957.357,1221.291c-1.218,0-2.205-0.987-2.205-2.205v-17.639
				c0-1.218,0.987-2.205,2.205-2.205s2.205,0.987,2.205,2.205v17.639C1959.562,1220.304,1958.575,1221.291,1957.357,1221.291z
				 M1957.357,1186.014c-1.218,0-2.205-0.987-2.205-2.205v-17.639c0-1.218,0.987-2.205,2.205-2.205s2.205,0.987,2.205,2.205v17.639
				C1959.562,1185.026,1958.575,1186.014,1957.357,1186.014z M1957.357,1150.737c-1.218,0-2.205-0.987-2.205-2.205v-17.639
				c0-1.218,0.987-2.205,2.205-2.205s2.205,0.987,2.205,2.205v17.639C1959.562,1149.749,1958.575,1150.737,1957.357,1150.737z
				 M1957.357,1115.459c-1.218,0-2.205-0.987-2.205-2.205v-17.639c0-1.218,0.987-2.205,2.205-2.205s2.205,0.987,2.205,2.205v17.639
				C1959.562,1114.472,1958.575,1115.459,1957.357,1115.459z M1957.357,1080.182c-1.218,0-2.205-0.987-2.205-2.205v-17.639
				c0-1.218,0.987-2.205,2.205-2.205s2.205,0.987,2.205,2.205v17.639C1959.562,1079.195,1958.575,1080.182,1957.357,1080.182z
				 M1957.357,1044.905c-1.218,0-2.205-0.987-2.205-2.205v-17.639c0-1.218,0.987-2.205,2.205-2.205s2.205,0.987,2.205,2.205v17.639
				C1959.562,1043.918,1958.575,1044.905,1957.357,1044.905z M1957.357,1009.628c-1.218,0-2.205-0.987-2.205-2.205v-17.639
				c0-1.218,0.987-2.205,2.205-2.205s2.205,0.987,2.205,2.205v17.639C1959.562,1008.641,1958.575,1009.628,1957.357,1009.628z
				 M1957.357,974.351c-1.218,0-2.205-0.987-2.205-2.205v-17.639c0-1.218,0.987-2.205,2.205-2.205s2.205,0.987,2.205,2.205v17.639
				C1959.562,973.364,1958.575,974.351,1957.357,974.351z M1957.357,939.074c-1.218,0-2.205-0.987-2.205-2.205v-17.639
				c0-1.218,0.987-2.205,2.205-2.205s2.205,0.987,2.205,2.205v17.639C1959.562,938.087,1958.575,939.074,1957.357,939.074z
				 M1957.357,903.797c-1.218,0-2.205-0.987-2.205-2.205v-17.639c0-1.218,0.987-2.205,2.205-2.205s2.205,0.987,2.205,2.205v17.639
				C1959.562,902.81,1958.575,903.797,1957.357,903.797z M1957.357,868.52c-1.218,0-2.205-0.987-2.205-2.205v-17.638
				c0-1.218,0.987-2.205,2.205-2.205s2.205,0.987,2.205,2.205v17.638C1959.562,867.532,1958.575,868.52,1957.357,868.52z"/>
		</g>
	</g>
</g>
</svg>
