<?xml version="1.0" encoding="utf-8"?>
<!-- Generator: Adobe Illustrator 27.5.0, SVG Export Plug-In . SVG Version: 6.00 Build 0)  -->
<svg version="1.1" xmlns="http://www.w3.org/2000/svg" xmlns:xlink="http://www.w3.org/1999/xlink" x="0px" y="0px"
	 viewBox="0 0 2500 2500" style="enable-background:new 0 0 2500 2500;" xml:space="preserve">
<g id="Background">
	<rect style="fill:#FFFFFF;" width="2500" height="2500"/>
</g>
<g id="Illustration">
	<g id="Mortgage_loan_1_">
		<circle style="fill:#F2E6DC;" cx="1250" cy="1250" r="915"/>
		<g>
			<g>
				<path style="fill:#363E44;" d="M1871.187,1581.849c-0.553,0-1-0.448-1-1v-184.646c0-0.552,0.447-1,1-1s1,0.448,1,1v184.646
					C1872.187,1581.401,1871.739,1581.849,1871.187,1581.849z"/>
				<path style="fill:#363E44;" d="M1651.169,2024.32H708.431c-0.553,0-1-0.448-1-1V635.199c0-0.552,0.447-1,1-1h261.966
					c0.552,0,1,0.448,1,1c0,0.552-0.448,1-1,1H709.431V2022.32h941.738c0.553,0,1,0.448,1,1S1651.722,2024.32,1651.169,2024.32z"/>
				<path style="fill:#363E44;" d="M1871.187,1093.595c-0.553,0-1-0.448-1-1V636.199h-278.146c-0.553,0-1-0.448-1-1
					c0-0.552,0.447-1,1-1h279.146c0.553,0,1,0.448,1,1v457.396C1872.187,1093.147,1871.739,1093.595,1871.187,1093.595z"/>
			</g>
			<g>
				
					<rect x="826.822" y="677.66" transform="matrix(-1 -1.224647e-16 1.224647e-16 -1 2579.6172 2601.353)" style="fill:#FFFFFF;" width="925.974" height="1246.033"/>
				<g>
					<rect x="952.943" y="902.325" style="fill:#F2E6DC;" width="673.732" height="23.657"/>
					<rect x="952.943" y="947.518" style="fill:#F2E6DC;" width="673.732" height="261.18"/>
				</g>
				<g>
					<rect x="952.943" y="1256.859" style="fill:#F2E6DC;" width="673.732" height="23.657"/>
					<rect x="952.943" y="1302.052" style="fill:#F2E6DC;" width="673.732" height="261.18"/>
				</g>
				<path style="fill:#F7F1EB;" d="M1404.639,561.966L1404.639,561.966c0-75.285-61.031-136.315-136.315-136.315
					c-75.286,0-136.316,61.031-136.316,136.315l0,0H982.533v179.639h571.58V561.966H1404.639z M1167.88,561.966
					c0-55.473,44.97-100.443,100.443-100.443c55.473,0,100.443,44.97,100.443,100.443l0,0H1167.88L1167.88,561.966z"/>
				<path style="fill:#D3BBA3;" d="M1576.599,721.12h-573.58V539.481h149.477c0.538-75.259,61.929-136.316,137.313-136.316
					c75.383,0,136.772,61.057,137.311,136.316h149.479V721.12z M1005.019,719.12h569.58V541.481h-149.475v-1
					c0-74.613-60.702-135.316-135.314-135.316c-74.614,0-135.317,60.702-135.317,135.316v1h-149.474V719.12z M1427.124,540.481h0.01
					H1427.124z M1391.252,541.481h-202.887v-1c0-55.936,45.508-101.443,101.444-101.443c55.936,0,101.442,45.507,101.442,101.443
					V541.481z M1190.37,539.481h198.877c-0.54-54.373-44.939-98.443-99.438-98.443
					C1235.311,441.038,1190.91,485.107,1190.37,539.481z"/>
			</g>
			<g>
				<rect x="1532.462" y="1173.582" style="fill:#D87355;" width="448.71" height="166.554"/>
				<path style="fill:#363E44;" d="M1697.727,1298.993c-1.365,0-2.74-0.079-4.128-0.243c-18.174-2.154-29.247-16.276-35.878-30.64
					c-14.638,4.317-33.261,0.328-40.635-13.583c-0.259-0.488-0.072-1.093,0.415-1.352c0.486-0.26,1.094-0.073,1.353,0.415
					c6.861,12.94,24.245,16.658,38.043,12.679c-4.746-10.896-7.001-21.642-7.925-27.116c-9.145-54.219-1.05-111.365,22.792-160.91
					c9.634-20.018,27.161-39.641,47.439-34.701c22.34,5.447,27.028,34.525,24.256,57.771c-5.52,46.272-21.651,91.517-46.65,130.845
					c-8.429,13.26-19.188,27.729-35.066,34.509c-0.691,0.295-1.398,0.57-2.115,0.824c6.411,13.8,17.006,27.233,34.207,29.271
					c17.854,2.114,34.143-10.687,42.39-24.311c0.943-1.558,1.821-3.153,2.641-4.777c-13.908-12.836-20.848-33.163-16.87-52.037
					c1.679-7.965,7.198-15.554,13.422-18.456c3.752-1.749,7.546-1.704,10.975,0.128c6.628,3.54,8.871,12.136,6.666,25.549
					c-2.351,14.313-4.973,30.282-11.729,44.341c2.338,2.03,4.866,3.846,7.566,5.404c19.206,11.084,45.402,7.783,60.935-7.677
					c1.708-1.7,3.266-3.531,4.671-5.469c-4.655-5.889-7.781-13.332-8.849-21.503c-1.769-13.529,2.433-26.581,11.236-34.912
					c0.217-0.205,0.514-0.302,0.809-0.266c0.296,0.036,0.561,0.202,0.721,0.453c10.66,16.631,9.692,39.712-1.41,56.129
					c2.696,3.142,5.872,5.757,9.429,7.691c10.088,5.483,23.119,5.416,34.86-0.184c11.738-5.599,19.993-15.682,22.081-26.973
					c0.1-0.544,0.62-0.904,1.165-0.802c0.543,0.101,0.902,0.622,0.802,1.165c-2.204,11.919-10.872,22.541-23.188,28.415
					c-12.314,5.875-26.027,5.925-36.676,0.135c-3.628-1.972-6.881-4.611-9.662-7.769c-1.388,1.875-2.915,3.65-4.579,5.307
					c-16.15,16.074-43.383,19.51-63.345,7.991c-2.66-1.536-5.161-3.312-7.483-5.291c-0.773,1.506-1.598,2.988-2.477,4.441
					C1729.992,1286.611,1714.796,1298.992,1697.727,1298.993z M1740.89,1197.896c-1.509,0-3.056,0.367-4.629,1.1
					c-5.6,2.611-10.777,9.784-12.31,17.055c-3.793,17.998,2.712,37.363,15.828,49.748c6.446-13.683,9.007-29.273,11.305-43.263
					c2.05-12.476,0.154-20.369-5.635-23.46C1743.977,1198.289,1742.453,1197.896,1740.89,1197.896z M1712.848,1044.772
					c-16.644,0-30.953,17.034-39.281,34.339c-23.665,49.176-31.698,105.895-22.622,159.709c0.911,5.406,3.148,16.088,7.857,26.843
					c0.732-0.256,1.45-0.534,2.155-0.835c15.377-6.564,25.899-20.74,34.164-33.742c24.84-39.076,40.867-84.032,46.352-130.009
					c2.676-22.434-1.675-50.455-22.744-55.591C1716.741,1045.002,1714.778,1044.772,1712.848,1044.772z M1817.385,1205.362
					c-7.739,7.917-11.376,19.901-9.751,32.336c0.991,7.587,3.832,14.508,8.058,20.038
					C1825.827,1242.345,1826.825,1221.078,1817.385,1205.362z"/>
			</g>
		</g>
		<g>
			<path style="fill:#363E44;" d="M934.515,1443.322c-113.944-20.89-227.892-41.781-341.837-62.671
				c-176.84,269.881-164.647,608.09-131.887,700.769c43.014,1.344,109.511,1.016,259.728,0.5v-351.994h49.728l21.168,351.436
				c120.718-0.422,272.947-0.668,307.099,0.058C1026.114,1771.973,953.651,1493.616,934.515,1443.322z"/>
			<g>
				<g>
					<path style="fill:#84524D;" d="M930.113,1294.527c92.393,22.161,355.124,102.442,387.612-8.232
						c26.873-91.544-232.443-158.439-322.764-186.394C973.345,1164.776,951.728,1229.651,930.113,1294.527z"/>
					<g>
						<path style="fill:#84524D;" d="M1145.889,1222.997c0-0.005-0.005-0.009-0.002-0.013
							c92.899-145.439,156.021-250.408,176.781-282.047c2.174-3.313,5.985-9.179,12.819-15.175
							c25.321-22.219,51.566-10.63,88.85-21.844c42.306-12.725,58.923-43.841,68.37-37.672c6.571,4.291,3.607,17.793-11.976,40.891
							c-0.001,0.002,0.002,0.005,0.003,0.003c13.856-16.188,33.607-37.321,42.53-29.638c9.829,9.423-10.459,36.977-23.547,53.046
							c15.842-19.45,30.085-25.053,33.993-19.529c6.151,8.695-2.622,26.639-24.556,51.532l0.001,0.002
							c19.947-12.958,26.718-13.128,28.981-7.403c4.133,10.453-14.285,30.579-33.295,45.876
							c-21.401,17.22-43.972,23.151-58.293,26.552c-0.004,0.001-0.007,0.004-0.009,0.007
							c-54.503,108.609-94.32,176.345-131.643,267.135C1291.111,1352.581,1153.634,1317.328,1145.889,1222.997z"/>
						<path style="fill:#363E44;" d="M1144.192,1224.761c-0.185,0-0.37-0.051-0.537-0.157c-0.466-0.297-0.602-0.916-0.305-1.381
							c12.695-19.882,25.688-40.345,38.613-60.82c0.296-0.467,0.913-0.606,1.38-0.312c0.467,0.295,0.606,0.913,0.312,1.379
							c-12.928,20.479-25.922,40.945-38.619,60.829C1144.846,1224.598,1144.522,1224.761,1144.192,1224.761z"/>
						<path style="fill:#84524D;" d="M1392.537,922.18c21.127-38.268,20.638-56.548,14.467-59.703
							c-10.378-5.305-41.789,19.982-79.712,72.02C1345.777,932.696,1374.052,923.982,1392.537,922.18z"/>
						<g>
							<path style="fill:#363E44;" d="M1384.284,995.527c-0.163,0-0.328-0.039-0.481-0.124c-0.483-0.266-0.66-0.875-0.394-1.358
								c3.809-6.921,10.955-16.544,23.364-23.081c17.557-9.249,34.737-6.302,41.311-4.606c0.535,0.138,0.856,0.684,0.719,1.218
								c-0.14,0.535-0.687,0.855-1.219,0.718c-6.349-1.639-22.938-4.485-39.879,4.439c-11.971,6.306-18.866,15.595-22.544,22.276
								C1384.979,995.34,1384.637,995.527,1384.284,995.527z"/>
							<path style="fill:#363E44;" d="M1355.442,916.851c-0.425,0-0.818-0.272-0.953-0.699c-0.167-0.526,0.125-1.088,0.651-1.255
								c9.22-2.92,18.939-3.576,29.229-4.269c4.812-0.325,9.787-0.66,14.98-1.237c0.556-0.066,1.044,0.335,1.104,0.883
								c0.061,0.549-0.335,1.043-0.884,1.104c-5.236,0.582-10.233,0.919-15.066,1.245c-10.166,0.686-19.769,1.333-28.76,4.18
								C1355.644,916.835,1355.542,916.851,1355.442,916.851z"/>
							<path style="fill:#363E44;" d="M1446.595,928.559c-0.415,0-0.803-0.26-0.945-0.674c-0.18-0.522,0.097-1.091,0.619-1.272
								c4.97-1.715,9.801-3.9,14.359-6.493c6.612-3.762,12.712-8.41,18.131-13.816c0.391-0.39,1.023-0.39,1.414,0.002
								c0.39,0.391,0.39,1.024-0.002,1.414c-5.544,5.531-11.787,10.288-18.555,14.138c-4.664,2.654-9.608,4.89-14.695,6.646
								C1446.813,928.541,1446.703,928.559,1446.595,928.559z"/>
							<path style="fill:#363E44;" d="M1467.541,949.375c-0.415,0-0.803-0.26-0.945-0.674c-0.18-0.522,0.097-1.091,0.619-1.271
								c4.972-1.716,9.803-3.9,14.359-6.493c6.61-3.762,12.711-8.41,18.131-13.816c0.392-0.39,1.024-0.389,1.414,0.002
								c0.39,0.391,0.39,1.024-0.002,1.414c-5.546,5.532-11.788,10.289-18.555,14.139c-4.663,2.653-9.607,4.889-14.695,6.645
								C1467.759,949.357,1467.649,949.375,1467.541,949.375z"/>
							<path style="fill:#363E44;" d="M1475.681,984.367c-0.415,0-0.803-0.26-0.945-0.674c-0.18-0.522,0.097-1.091,0.619-1.271
								c4.97-1.715,9.802-3.9,14.36-6.493c6.612-3.762,12.712-8.41,18.13-13.816c0.391-0.39,1.023-0.389,1.414,0.001
								c0.39,0.391,0.39,1.024-0.002,1.415c-5.544,5.531-11.786,10.288-18.554,14.138c-4.665,2.654-9.609,4.89-14.696,6.646
								C1475.898,984.349,1475.789,984.367,1475.681,984.367z"/>
						</g>
					</g>
				</g>
				<path style="fill:#EFBC73;" d="M370.27,1186.061c37.064-40.385,213.725-198.654,452.489-159.592
					c137.688,22.526,225.168,62.052,275.754,94.133c-50.498,91.378-66.852,111.603-95.339,147.053
					c14.56,74.065,29.119,148.13,43.679,222.195c-108.248-0.95-457.683-11.395-567.83-15.193
					c19.624-62.67,39.248-96.195,58.871-158.865c-15.192,12.661-12.476-30.459-27.668-17.798
					C475.092,1239.411,424.371,1213.885,370.27,1186.061z"/>
				<g>
					<g>
						<g>
							<polygon style="fill:#FFFFFF;" points="764.34,1812.32 563.738,1717.89 776.178,1504.053 976.779,1598.484 							"/>
						</g>
					</g>
					<g>
						<path style="fill:#84524D;" d="M400.906,1200.776c-16.844,80.109-86.105,293.968,63.886,331.194
							c56.584,14.044,83.422-152.127,105.305-230.592C518.106,1263.087,455.287,1231.627,400.906,1200.776z"/>
						<g>
							<path style="fill:#84524D;" d="M534.331,1396.568c59.116,47.8,203.905,153.477,217.628,164.356
								c25.652,20.336,160.489,133.044,146.335,154.264c-6.764,10.14-33.721-10.4-42.633-17.608
								c4.327,9.37,24.841,43.555,14.57,52.567c-12.066,10.586-42.747-26.405-43.588-26.681c5.359,9.07,28.17,44.335,20.732,51.39
								c-9.676,9.179-40.735-17.264-49.667-25.611c-0.202,2.095,26.323,32.411,15.252,43.846
								c-8.129,8.396-36.586-15.908-48.963-26.416c-22.806-18.05-299.403-213.627-346.168-256.538
								C399.525,1493.34,493.409,1396.818,534.331,1396.568z"/>
							<path style="fill:#363E44;" d="M664.79,1496.068c-0.209,0-0.421-0.065-0.6-0.202
								c-30.838-23.244-110.538-84.802-129.743-99.983c-0.434-0.343-0.507-0.972-0.164-1.405c0.342-0.432,0.971-0.507,1.404-0.165
								c19.199,15.176,98.877,76.717,129.706,99.956c0.441,0.332,0.529,0.959,0.197,1.4
								C665.393,1495.931,665.094,1496.068,664.79,1496.068z"/>
							<g>
								<path style="fill:#363E44;" d="M856.732,1697.879c-0.336,0-0.664-0.169-0.853-0.476c-3.565-5.8-7.563-11.397-11.88-16.638
									c-7.758-9.417-16.713-17.894-26.615-25.196c-0.444-0.328-0.539-0.954-0.211-1.398c0.329-0.444,0.954-0.539,1.398-0.211
									c10.034,7.4,19.108,15.991,26.971,25.534c4.376,5.311,8.427,10.984,12.04,16.862c0.29,0.471,0.143,1.086-0.328,1.376
									C857.092,1697.832,856.911,1697.879,856.732,1697.879z"/>
								<path style="fill:#363E44;" d="M827.679,1724.212c-0.299,0-0.595-0.133-0.791-0.388c-0.875-1.129-1.782-2.264-2.723-3.405
									c-7.76-9.418-16.714-17.896-26.614-25.197c-0.444-0.328-0.539-0.954-0.211-1.398c0.328-0.444,0.953-0.539,1.398-0.211
									c10.032,7.398,19.106,15.99,26.97,25.534c0.936,1.135,1.865,2.297,2.76,3.452c0.339,0.437,0.259,1.064-0.178,1.403
									C828.108,1724.144,827.893,1724.212,827.679,1724.212z"/>
								<path style="fill:#363E44;" d="M797.31,1749.477c-0.26,0-0.519-0.101-0.715-0.3c-5.577-5.697-11.682-11.002-18.144-15.769
									c-0.444-0.328-0.539-0.954-0.211-1.398c0.328-0.444,0.953-0.539,1.398-0.211c6.548,4.83,12.733,10.206,18.386,15.979
									c0.386,0.395,0.379,1.028-0.016,1.414C797.815,1749.382,797.562,1749.477,797.31,1749.477z"/>
							</g>
						</g>
					</g>
				</g>
				<g>
					<path style="fill:#F7F1EB;" d="M664.912,1111.827c-6.091,0-12.042-3.107-16.926-8.886c-5.261-6.225-8.665-14.834-9.586-24.243
						c-0.921-9.408,0.749-18.515,4.703-25.642c4.021-7.247,9.921-11.599,16.613-12.254c6.698-0.652,13.324,2.47,18.674,8.8
						c5.261,6.225,8.665,14.834,9.586,24.243c0.921,9.408-0.749,18.515-4.703,25.642c-4.02,7.247-9.92,11.599-16.612,12.254l0,0
						C666.077,1111.799,665.494,1111.827,664.912,1111.827z M666.563,1110.747h0.01H666.563z M661.456,1042.717
						c-0.515,0-1.029,0.025-1.544,0.075c-6.018,0.589-11.367,4.579-15.06,11.234c-3.759,6.775-5.344,15.468-4.462,24.477
						c0.882,9.009,4.122,17.229,9.124,23.147c4.913,5.813,10.937,8.69,16.951,8.101l0,0c6.019-0.589,11.367-4.579,15.059-11.234
						c3.76-6.775,5.344-15.468,4.462-24.477c-0.882-9.009-4.122-17.229-9.123-23.147
						C672.371,1045.578,666.952,1042.717,661.456,1042.717z"/>
					<path style="fill:#F7F1EB;" d="M688.041,1152.473c-9.939,0-21.441-6.283-29.663-17.257c-5.668-7.566-8.964-16.218-9.281-24.362
						c-0.322-8.281,2.464-15.063,7.846-19.095c5.383-4.031,12.674-4.8,20.529-2.165c7.728,2.592,15.104,8.187,20.773,15.752
						c5.668,7.566,8.964,16.218,9.281,24.362c0.322,8.281-2.464,15.063-7.846,19.095
						C696.358,1151.292,692.346,1152.473,688.041,1152.473z M668.621,1090.059c-3.972,0-7.554,1.109-10.479,3.301
						c-4.84,3.626-7.343,9.812-7.046,17.417c0.301,7.743,3.456,15.996,8.884,23.24c11.121,14.845,28.395,20.758,38.502,13.186l0,0
						c4.84-3.626,7.343-9.812,7.046-17.417c-0.301-7.743-3.456-15.996-8.884-23.24c-5.427-7.244-12.462-12.59-19.808-15.055
						C673.982,1090.534,671.218,1090.059,668.621,1090.059z"/>
					<path style="fill:#F7F1EB;" d="M726.828,1185.158c-7.336,0-15.527-2.281-23.166-6.935c-8.073-4.918-14.348-11.727-17.667-19.17
						c-3.376-7.569-3.308-14.9,0.191-20.643c3.498-5.742,9.982-9.165,18.256-9.636c8.123-0.465,17.064,1.989,25.138,6.908
						c8.073,4.918,14.348,11.726,17.667,19.17c3.376,7.569,3.309,14.9-0.189,20.643c-0.001,0-0.001,0-0.001,0
						C743.163,1181.886,735.609,1185.158,726.828,1185.158z M706.413,1130.719c-0.624,0-1.242,0.017-1.857,0.052
						c-7.599,0.433-13.516,3.516-16.661,8.68c-3.147,5.165-3.173,11.837-0.073,18.788c3.156,7.077,9.151,13.567,16.882,18.277
						c15.842,9.652,34.074,8.727,40.646-2.061c3.146-5.164,3.171-11.836,0.071-18.787c-3.156-7.077-9.151-13.568-16.882-18.277
						C721.424,1133.055,713.64,1130.719,706.413,1130.719z M746.203,1174.975h0.01H746.203z"/>
					<path style="fill:#F7F1EB;" d="M768.908,1194.349c-0.898,0-1.798-0.023-2.703-0.07c-19.625-1.02-35.012-13.007-34.3-26.722
						c0.713-13.715,17.263-24.047,36.884-23.025c19.625,1.019,35.012,13.006,34.3,26.722l-0.999-0.052l0.999,0.052
						c-0.349,6.715-4.427,12.808-11.483,17.156C785.333,1192.274,777.356,1194.349,768.908,1194.349z M766.104,1146.461
						c-17.371,0-31.575,9.175-32.2,21.198c-0.655,12.614,13.882,23.659,32.405,24.622c9.032,0.473,17.651-1.51,24.248-5.575
						c6.479-3.993,10.221-9.518,10.534-15.557l0,0c0.655-12.614-13.882-23.659-32.405-24.621
						C767.818,1146.483,766.956,1146.461,766.104,1146.461z"/>
					<path style="fill:#F7F1EB;" d="M812.682,1189.688c-12.539,0-23.044-5.418-26.218-14.724
						c-4.434-12.999,7.092-28.735,25.69-35.079c8.949-3.052,18.194-3.512,26.038-1.295c7.976,2.253,13.564,7,15.733,13.364
						c2.171,6.364,0.648,13.535-4.288,20.193c-4.854,6.547-12.454,11.833-21.401,14.885
						C822.952,1188.835,817.656,1189.688,812.682,1189.688z M827.774,1139.206c-4.862,0-9.962,0.863-14.974,2.572
						c-17.556,5.988-28.521,20.585-24.444,32.541c4.078,11.954,21.677,16.808,39.233,10.821c8.567-2.922,15.827-7.959,20.442-14.184
						c4.533-6.114,5.954-12.633,4.002-18.356l0,0c-1.952-5.724-7.06-10.016-14.385-12.085
						C834.554,1139.641,831.224,1139.206,827.774,1139.206z"/>
					<path style="fill:#F7F1EB;" d="M854.051,1162.324c-3.833,0-7.382-1.001-10.433-2.996c-11.496-7.514-12.101-27.01-1.349-43.459
						c5.172-7.913,12.176-13.968,19.722-17.05c7.674-3.134,14.998-2.833,20.626,0.846c11.496,7.514,12.101,27.01,1.349,43.459
						c-5.172,7.913-12.176,13.968-19.722,17.049C860.731,1161.608,857.29,1162.324,854.051,1162.324z M872.177,1098.672
						c-2.981,0-6.164,0.665-9.43,1.998c-7.174,2.93-13.852,8.716-18.804,16.292c-10.148,15.526-9.804,33.78,0.768,40.691
						c5.061,3.309,11.729,3.546,18.776,0.668c7.174-2.93,13.852-8.716,18.804-16.292c10.148-15.526,9.804-33.78-0.769-40.69
						C878.808,1099.563,875.628,1098.672,872.177,1098.672z"/>
					<path style="fill:#F7F1EB;" d="M881.001,1116.252c-1.185,0-2.366-0.117-3.538-0.352c-6.593-1.325-12.024-6.249-15.296-13.863
						c-3.218-7.489-3.963-16.717-2.101-25.985c1.862-9.268,6.116-17.491,11.977-23.156c5.959-5.759,12.87-8.203,19.465-6.877l0,0
						c13.465,2.707,21.269,20.583,17.396,39.849c-1.862,9.268-6.116,17.491-11.977,23.156
						C892.027,1113.758,886.482,1116.252,881.001,1116.252z M887.981,1047.668c-4.965,0-10.031,2.299-14.548,6.666
						c-5.572,5.385-9.623,13.237-11.406,22.112c-1.783,8.874-1.081,17.682,1.977,24.801c3.005,6.993,7.924,11.5,13.854,12.692
						c5.927,1.19,12.207-1.064,17.68-6.354c5.572-5.385,9.623-13.237,11.406-22.112c3.655-18.185-3.446-35.004-15.83-37.493l0,0
						C890.078,1047.771,889.032,1047.668,887.981,1047.668z"/>
				</g>
			</g>
			<g>
				<path style="fill:#363E44;" d="M586.674,906.433c-68.447,0-124.134-55.686-124.134-124.134s55.687-124.134,124.134-124.134
					c68.448,0,124.135,55.686,124.135,124.134S655.122,906.433,586.674,906.433z M586.674,660.165
					c-67.345,0-122.134,54.789-122.134,122.134c0,67.345,54.789,122.134,122.134,122.134c67.346,0,122.135-54.789,122.135-122.134
					C708.809,714.954,654.019,660.165,586.674,660.165z"/>
				
					<ellipse transform="matrix(0.7071 -0.7071 0.7071 0.7071 -337.6898 644.15)" style="fill:#363E44;" cx="608.713" cy="729.703" rx="153.425" ry="153.425"/>
				
					<ellipse transform="matrix(0.7071 -0.7071 0.7071 0.7071 -374.8383 793.3562)" style="fill:#363E44;" cx="770.247" cy="849.148" rx="103.506" ry="103.506"/>
				<path style="fill:#84524D;" d="M854.873,975.945c-22.87,16.243-87.477-27.855-87.477-27.855l-36.964-77.319
					c0-39.463,31.991-71.453,71.453-71.453h0c39.462,0,71.453,31.991,71.453,71.453
					C873.338,870.772,878.167,959.401,854.873,975.945z"/>
				<ellipse style="fill:#84524D;" cx="777.76" cy="1054.597" rx="82.742" ry="33.924"/>
				<rect x="730.431" y="869.969" style="fill:#84524D;" width="88.313" height="180.644"/>
				<path style="fill:#84524D;" d="M865.127,889.56c0,0,20.042,20.998,18.976,26.542c-1.273,6.617-23.598,10.654-23.598,10.654
					S865.66,889.611,865.127,889.56z"/>
				<path style="fill:#363E44;" d="M832.934,980.937c-0.058,0-0.117-0.005-0.176-0.016c-27.87-4.961-65.549-30.515-65.926-30.772
					c-0.456-0.312-0.574-0.934-0.263-1.39c0.311-0.457,0.936-0.574,1.39-0.263c0.374,0.255,37.704,25.571,65.148,30.456
					c0.544,0.097,0.906,0.616,0.81,1.16C833.831,980.597,833.409,980.937,832.934,980.937z"/>
				<g>
					<path style="fill:#FFFFFF;" d="M793.552,881.519c0,0,13.11-7.051,28.915-7.051c3.362,0-2.981,26.907-6.173,25.384
						C802.259,893.153,793.552,881.519,793.552,881.519z"/>
					<g>
						<defs>
							<path id="SVGID_1_" d="M793.552,881.519c0,0,19.283-10.371,39.267-5.957c19.985,4.415,33.104,21.943,33.104,21.943
								s-19.282,10.371-39.267,5.956C806.671,899.047,793.552,881.519,793.552,881.519z"/>
						</defs>
						<clipPath id="SVGID_00000127732760720619282450000009659340829648118930_">
							<use xlink:href="#SVGID_1_"  style="overflow:visible;"/>
						</clipPath>
						
							<circle style="clip-path:url(#SVGID_00000127732760720619282450000009659340829648118930_);fill:#363E44;" cx="842.062" cy="892.703" r="26.766"/>
					</g>
				</g>
				<path style="fill:#363E44;" d="M839.773,940.191c-2.269,0-4.532-0.639-6.502-1.918c-3.795-2.462-5.9-6.974-5.365-11.493
					c0.065-0.548,0.564-0.936,1.111-0.875c0.548,0.065,0.94,0.563,0.875,1.111c-0.446,3.769,1.307,7.529,4.467,9.58
					c3.281,2.129,7.543,2.128,10.857-0.002c0.466-0.298,1.085-0.164,1.382,0.301c0.299,0.464,0.164,1.083-0.3,1.382
					C844.31,939.552,842.04,940.191,839.773,940.191z"/>
				<path style="fill:#363E44;" d="M713.041,889.56c0,0,22.783-9.144,46.301,14.996l15.245-8.347c0,0-8.83-97.23,97.736-59.013
					c0,0-36.547-81.647-107.837-51.664C693.198,815.515,713.041,889.56,713.041,889.56z"/>
				<g>
					<path style="fill:#84524D;" d="M712.141,906.644c4.169,13.961,17.389,22.341,29.53,18.716
						c12.14-3.625,18.602-17.881,14.434-31.843c-4.168-13.961-17.389-22.341-29.53-18.716
						C714.435,878.426,707.972,892.682,712.141,906.644z"/>
					<path style="fill:#363E44;" d="M746.635,896.895c-0.431,0-0.829-0.281-0.958-0.714c-2.223-7.445-9.244-11.943-15.647-10.033
						c-3.831,1.144-6.759,4.413-7.831,8.744c-0.133,0.537-0.677,0.862-1.211,0.73c-0.536-0.133-0.863-0.675-0.73-1.211
						c1.244-5.025,4.684-8.831,9.2-10.179c7.462-2.231,15.597,2.877,18.135,11.377c0.158,0.529-0.143,1.086-0.672,1.244
						C746.825,896.881,746.729,896.895,746.635,896.895z"/>
				</g>
				<path style="fill:#EFBC73;" d="M735.139,961.491c-12.296,0-22.3-10.004-22.3-22.3c0-12.296,10.004-22.3,22.3-22.3
					c12.297,0,22.301,10.003,22.301,22.3C757.44,951.487,747.435,961.491,735.139,961.491z M735.139,918.891
					c-11.193,0-20.3,9.107-20.3,20.3c0,11.194,9.106,20.3,20.3,20.3c11.194,0,20.301-9.106,20.301-20.3
					C755.44,927.998,746.333,918.891,735.139,918.891z"/>
			</g>
		</g>
		<g>
			<g>
				<path style="fill:#363E44;" d="M1299.011,718.909c-34.587,0-62.725-28.138-62.725-62.724c0-34.587,28.138-62.724,62.725-62.724
					c34.586,0,62.724,28.138,62.724,62.724C1361.734,690.771,1333.597,718.909,1299.011,718.909z M1299.011,595.461
					c-33.483,0-60.725,27.241-60.725,60.724c0,33.483,27.241,60.724,60.725,60.724s60.724-27.241,60.724-60.724
					C1359.734,622.702,1332.494,595.461,1299.011,595.461z"/>
				<path style="fill:#363E44;" d="M1455.892,865.944c-34.586,0-62.724-28.138-62.724-62.724c0-34.586,28.138-62.724,62.724-62.724
					c34.587,0,62.725,28.138,62.725,62.724C1518.616,837.807,1490.479,865.944,1455.892,865.944z M1455.892,742.497
					c-33.483,0-60.724,27.241-60.724,60.724c0,33.483,27.24,60.724,60.724,60.724s60.725-27.241,60.725-60.724
					C1516.616,769.737,1489.375,742.497,1455.892,742.497z"/>
			</g>
			<path style="fill:#363E44;" d="M1242.987,865.166c-0.256,0-0.512-0.098-0.707-0.293c-0.391-0.391-0.391-1.023,0-1.414
				l268.927-268.927c0.391-0.391,1.023-0.391,1.414,0c0.391,0.391,0.391,1.023,0,1.414l-268.927,268.927
				C1243.499,865.068,1243.243,865.166,1242.987,865.166z"/>
		</g>
		<g>
			<polygon style="fill:#776E42;" points="2102.354,600.802 1752.47,477.865 1766.083,385.802 2115.967,508.739 			"/>
			<polygon style="fill:#EFBC73;" points="2075.251,569.121 1781.339,465.851 1788.881,414.843 2082.793,518.113 			"/>
			
				<rect x="1692.196" y="530.429" transform="matrix(0.9435 0.3315 -0.3315 0.9435 331.9306 -583.9193)" style="fill:#8B865C;" width="370.854" height="301.215"/>
			
				<rect x="1950.462" y="805.051" transform="matrix(0.9435 0.3315 -0.3315 0.9435 386.2621 -607.5027)" style="fill:#EFBC73;" width="46.92" height="46.92"/>
			
				<rect x="1974.333" y="737.113" transform="matrix(0.9435 0.3315 -0.3315 0.9435 365.0936 -619.2607)" style="fill:#EFBC73;" width="46.92" height="46.92"/>
			
				<rect x="1998.204" y="669.176" transform="matrix(0.9435 0.3315 -0.3315 0.9435 343.9222 -631.0154)" style="fill:#FFFFFF;" width="46.92" height="46.92"/>
			
				<rect x="2022.075" y="601.238" transform="matrix(0.9435 0.3315 -0.3315 0.9435 322.7508 -642.7701)" style="fill:#FFFFFF;" width="46.92" height="46.92"/>
			
				<rect x="1884.313" y="781.808" transform="matrix(0.9435 0.3315 -0.3315 0.9435 374.8197 -586.8918)" style="fill:#FFFFFF;" width="46.92" height="46.92"/>
			
				<rect x="1908.183" y="713.87" transform="matrix(0.9435 0.3315 -0.3315 0.9435 353.6455 -598.6431)" style="fill:#FFFFFF;" width="46.92" height="46.92"/>
			
				<rect x="1932.054" y="645.933" transform="matrix(0.9435 0.3315 -0.3315 0.9435 332.4769 -610.4011)" style="fill:#FFFFFF;" width="46.92" height="46.92"/>
			
				<rect x="1955.925" y="577.996" transform="matrix(0.9435 0.3315 -0.3315 0.9435 311.3046 -622.1546)" style="fill:#FFFFFF;" width="46.92" height="46.92"/>
			
				<rect x="1818.163" y="758.565" transform="matrix(0.9435 0.3315 -0.3315 0.9435 363.369 -566.2715)" style="fill:#FFFFFF;" width="46.92" height="46.92"/>
			
				<rect x="1842.034" y="690.628" transform="matrix(0.9435 0.3315 -0.3315 0.9435 342.203 -578.0322)" style="fill:#FFFFFF;" width="46.92" height="46.92"/>
			
				<rect x="1865.905" y="622.69" transform="matrix(0.9435 0.3315 -0.3315 0.9435 321.0248 -589.7783)" style="fill:#FFFFFF;" width="46.92" height="46.92"/>
			
				<rect x="1889.776" y="554.753" transform="matrix(0.9435 0.3315 -0.3315 0.9435 299.8601 -601.5414)" style="fill:#FFFFFF;" width="46.92" height="46.92"/>
			
				<rect x="1752.014" y="735.322" transform="matrix(0.9435 0.3315 -0.3315 0.9435 351.9291 -545.6631)" style="fill:#FFFFFF;" width="46.92" height="46.92"/>
			
				<rect x="1775.884" y="667.385" transform="matrix(0.9435 0.3315 -0.3315 0.9435 330.7518 -557.4109)" style="fill:#FFFFFF;" width="46.92" height="46.92"/>
			
				<rect x="1799.755" y="599.448" transform="matrix(0.9435 0.3315 -0.3315 0.9435 309.5862 -569.1725)" style="fill:#FFFFFF;" width="46.92" height="46.92"/>
			
				<rect x="1823.626" y="531.51" transform="matrix(0.9435 0.3315 -0.3315 0.9435 288.4094 -580.9198)" style="fill:#EFBC73;" width="46.92" height="46.92"/>
			
				<rect x="1697.281" y="645.148" transform="matrix(0.9435 0.3315 -0.3315 0.9435 330.3582 -530.6707)" style="fill:#FFFFFF;" width="46.92" height="115.799"/>
			
				<rect x="1733.606" y="576.205" transform="matrix(0.9435 0.3315 -0.3315 0.9435 298.1409 -548.5582)" style="fill:#FFFFFF;" width="46.92" height="46.92"/>
			
				<rect x="1757.477" y="508.268" transform="matrix(0.9435 0.3315 -0.3315 0.9435 276.9695 -560.3129)" style="fill:#EFBC73;" width="46.92" height="46.92"/>
		</g>
		<g>
			
				<rect x="1342.256" y="1661.572" transform="matrix(-1 -1.224647e-16 1.224647e-16 -1 3376.0691 3650.3125)" style="fill:#F7F1EB;" width="691.557" height="327.169"/>
			<path style="fill:#2D353A;" d="M2054.718,1662.572h-11.532c-0.553,0-1-0.448-1-1s0.447-1,1-1h10.532v-20.592l-398.572-86.351
				c-0.54-0.117-0.883-0.649-0.766-1.189c0.117-0.54,0.649-0.878,1.189-0.766l399.36,86.522c0.46,0.1,0.788,0.507,0.788,0.978
				v22.398C2055.718,1662.124,2055.271,1662.572,2054.718,1662.572z"/>
			<polygon style="fill:#8B865C;" points="1247.448,1988.739 1649.794,1988.739 1649.794,1480.83 1448.621,1337.09 
				1247.448,1480.83 			"/>
			<path style="fill:#2D353A;" d="M1649.793,1467.545c-0.201,0-0.404-0.061-0.58-0.187l-200.592-143.325l-200.592,143.325
				c-0.449,0.322-1.074,0.217-1.395-0.232c-0.321-0.45-0.217-1.074,0.232-1.395l201.173-143.74c0.348-0.249,0.814-0.249,1.162,0
				l201.173,143.74c0.449,0.321,0.554,0.945,0.232,1.395C1650.412,1467.4,1650.105,1467.545,1649.793,1467.545z"/>
			<g>
				<g>
					<g>
						
							<rect x="1300.266" y="1480.235" transform="matrix(-1 -1.224647e-16 1.224647e-16 -1 2896.1899 3094.031)" style="fill:#EFBC73;" width="295.659" height="133.56"/>
					</g>
				</g>
			</g>
			<g>
				<g>
					
						<rect x="1463.417" y="1763.095" transform="matrix(-1 -1.224647e-16 1.224647e-16 -1 3060.3938 3751.8335)" style="fill:#363E44;" width="133.56" height="225.644"/>
				</g>
			</g>
			<g>
				<g>
					
						<rect x="1300.262" y="1690.625" transform="matrix(-1 -1.224647e-16 1.224647e-16 -1 2734.085 3606.8933)" style="fill:#EFBC73;" width="133.56" height="225.644"/>
				</g>
			</g>
			<path style="fill:#2D353A;" d="M2033.813,1989.741c-0.553,0-1-0.448-1-1v-326.169h-823.28c-0.553,0-1-0.448-1-1s0.447-1,1-1
				h824.28c0.552,0,1,0.448,1,1v327.169C2034.813,1989.293,2034.365,1989.741,2033.813,1989.741z"/>
			<g>
				<path style="fill:#2D353A;" d="M1986.599,1989.741c-0.553,0-1-0.448-1-1v-221.705h-291.994v221.705c0,0.552-0.447,1-1,1
					s-1-0.448-1-1v-222.705c0-0.552,0.447-1,1-1h293.994c0.553,0,1,0.448,1,1v222.705
					C1987.599,1989.293,1987.151,1989.741,1986.599,1989.741z"/>
				<g>
					<path style="fill:#2D353A;" d="M1972.11,1795.818h-265.018c-0.553,0-1-0.448-1-1s0.447-1,1-1h265.018c0.553,0,1,0.448,1,1
						S1972.663,1795.818,1972.11,1795.818z"/>
					<path style="fill:#2D353A;" d="M1972.11,1828.847h-265.018c-0.553,0-1-0.448-1-1s0.447-1,1-1h265.018c0.553,0,1,0.448,1,1
						S1972.663,1828.847,1972.11,1828.847z"/>
					<path style="fill:#2D353A;" d="M1972.11,1861.875h-265.018c-0.553,0-1-0.448-1-1s0.447-1,1-1h265.018c0.553,0,1,0.448,1,1
						S1972.663,1861.875,1972.11,1861.875z"/>
					<path style="fill:#2D353A;" d="M1972.11,1894.902h-265.018c-0.553,0-1-0.448-1-1s0.447-1,1-1h265.018c0.553,0,1,0.448,1,1
						S1972.663,1894.902,1972.11,1894.902z"/>
					<path style="fill:#2D353A;" d="M1972.11,1927.931h-265.018c-0.553,0-1-0.448-1-1s0.447-1,1-1h265.018c0.553,0,1,0.448,1,1
						S1972.663,1927.931,1972.11,1927.931z"/>
					<path style="fill:#2D353A;" d="M1972.11,1960.958h-265.018c-0.553,0-1-0.448-1-1s0.447-1,1-1h265.018c0.553,0,1,0.448,1,1
						S1972.663,1960.958,1972.11,1960.958z"/>
				</g>
			</g>
			<rect x="1692.605" y="1690.625" style="fill:#EFBC73;" width="293.993" height="49.915"/>
		</g>
	</g>
</g>
</svg>
