<?xml version="1.0" encoding="utf-8"?>
<!-- Generator: Adobe Illustrator 27.5.0, SVG Export Plug-In . SVG Version: 6.00 Build 0)  -->
<svg version="1.1" xmlns="http://www.w3.org/2000/svg" xmlns:xlink="http://www.w3.org/1999/xlink" x="0px" y="0px"
	 viewBox="0 0 500 500" style="enable-background:new 0 0 500 500;" xml:space="preserve">
<g id="BACKGROUND">
	<rect x="0" y="0.001" style="fill:#FFFFFF;" width="500" height="499.999"/>
</g>
<g id="OBJECTS">
	<g>
		<path style="fill:#CFE4FF;" d="M416.476,148.525c-32.472-47.993-114.064-124.054-238.193-75.048
			C54.153,122.483,68.306,207.42,73.841,240.292c5.535,32.872,12.888,75.513,61.541,107.375
			c48.653,31.863,103.104,32.767,161.333,30c58.228-2.767,125.162-36.443,138-82C447.552,250.11,448.946,196.517,416.476,148.525z"
			/>
		<g>
			<g>
				<g>
					<g>
						<path style="fill:#F2F0EB;" d="M233.603,150.414c0,0-12.648,8.049-12.073,9.486c0.575,1.438,3.737,6.324,3.737,6.324
							s9.034,17.456,20.696,20.695c15.521,4.311,21.558-4.312,26.444-13.222c4.887-8.911,5.749-69.273,4.024-70.135
							c-1.725-0.862-10.922,4.025-13.797,16.097c-2.874,12.073-5.173,35.93-6.898,37.367c-1.725,1.438-16.384-2.875-16.384-2.875
							L233.603,150.414z"/>
						<path style="fill:none;stroke:#DCD8DA;stroke-miterlimit:10;" d="M225.446,165.578c0,0,2.873,0.942,7.149-0.731
							c6.945-2.72,6.234-9.678,6.234-9.678"/>
					</g>
					<g>
						<path style="fill:#F5AA8A;" d="M199.396,146.102c0,0-9.581-1.534-9.581,1.532c0,3.067,3.065,4.216,4.981,4.216
							c1.916,0,1.916,1.917,5.366,1.917c3.449,0,6.515,1.149,11.498,0.766c4.982-0.383,10.348,3.45,10.348,3.45
							s1.917,4.311,8.719-0.097c1.864-1.207,3.45-2.874,3.163-4.886c-0.288-2.012-2.472-8.853-4.217-10.348
							C226.99,140.354,199.396,146.102,199.396,146.102z"/>
						<path style="fill:none;stroke:#CB8469;stroke-linecap:round;stroke-linejoin:round;stroke-miterlimit:10;" d="
							M196.235,151.755c0,0-0.574-1.437,5.175-1.725c5.748-0.288,14.084-0.862,14.084-0.862"/>
					</g>
				</g>
				<g>
					<ellipse style="fill:#93B3C5;" cx="208.876" cy="143.195" rx="37.13" ry="7.585"/>
					<path style="fill:#A1C4DA;" d="M233.598,115.442c-11.082-8.809-24.722-7.672-24.722-7.672s-13.64-1.137-24.722,7.672
						c-11.082,8.809-10.23,26.995-10.23,26.995s7.008,5.684,34.952,5.684c27.943,0,34.951-5.684,34.951-5.684
						S244.68,124.252,233.598,115.442z"/>
					<g>
						<path style="fill:#B3D9ED;" d="M225.301,113.492c-4.743-3.315-9.578-4.973-13.845-5.753c-0.69-0.02-1.265-0.019-1.69-0.008
							c2.926,1.389,5.947,3.323,8.805,6.041c11.353,10.791,10.48,33.07,10.48,33.07s-0.005,0.005-0.007,0.007
							c5.841-0.859,9.578-1.993,11.831-2.898C239.982,138.448,236.374,121.232,225.301,113.492z"/>
						<path style="fill:#B3D9ED;" d="M209.832,107.729c-0.615,0.013-0.956,0.041-0.956,0.041s-0.118-0.009-0.337-0.021
							c0.949,1.307,1.88,2.801,2.767,4.529c5.538,10.785,5.256,29.011,4.937,35.699c1.862-0.075,3.593-0.181,5.227-0.304
							c-0.201-7.504-1.35-25.257-7.552-34.877C212.585,110.732,211.206,109.073,209.832,107.729z"/>
					</g>
					<path style="fill:#93B3C5;" d="M211.064,106.478c0-3.049-0.41-5.519-2.188-5.519c-1.777,0-2.188,2.471-2.188,5.519
						c0,1.205-0.041,2.316,0.06,3.224c0.681,0.103,1.394,0.164,2.128,0.164c0.734,0,1.446-0.062,2.128-0.164
						C211.105,108.794,211.064,107.683,211.064,106.478z"/>
				</g>
			</g>
			<g>
				<g>
					<g>
						<path style="fill:#63363B;" d="M265.903,367.81c0,0,3.802,1.38,8.948,1.764c5.141,0.386,12.423-1.33,12.423-1.33
							s1.987,11.266,1.177,17.922c-0.408,3.344-2.574,3.94-6.941,6.742c-2.738,1.764-6.482,5.585-10.768,7.826
							c-4.552,2.366-16.26,2.325-20.924,0.105c-9.79-4.657-6.217-9.785-0.465-13.943c2.036-1.467,5.59-4.604,7.373-6.764
							C261.995,373.769,265.903,367.81,265.903,367.81z"/>
						<path style="fill:none;stroke:#855E59;stroke-width:0.9488;stroke-miterlimit:10;" d="M273.253,376.706
							c0,0-4.855-2.634-10.117-2.186"/>
						<path style="fill:none;stroke:#855E59;stroke-width:0.9488;stroke-miterlimit:10;" d="M269.68,381.831
							c0,0-4.852-2.641-10.114-2.188"/>
						<path style="fill:none;stroke:#855E59;stroke-width:0.9488;stroke-miterlimit:10;" d="M287.895,383.998
							c0,0-5.781,2.895-9.729,6.491c-3.945,3.592-7.248,8.13-12.429,9.432c-5.178,1.305-16.679,0.8-21.85-3.781"/>
					</g>
					<path style="fill:#363B4E;" d="M260.306,270.973c-0.179-11.838-1.427-42.883,0.71-47.728c1.84-4.175,18.147-9.189,26.023-5.473
						c7.875,3.722,13.807,16.702,13.807,16.702s-0.721,18.129-3.424,29.215c-2.703,11.086-7.849,33.158-7.849,33.158
						s4.968,13.168,4.021,25.278c-1.366,17.52-6.332,45.794-6.332,45.794s-4.304,1.84-10.674,1.709
						c-6.802-0.142-10.96-1.344-10.96-1.344s0.226-17.705-1.816-39.462C263.031,320.456,260.485,282.811,260.306,270.973z"/>
				</g>
				<g>
					<g>
						<path style="fill:#63363B;" d="M317.352,372.015c0,0,3.866,1.186,9.024,1.316c5.155,0.128,12.342-1.941,12.342-1.941
							s2.542,11.154,2.063,17.842c-0.241,3.358-2.376,4.064-6.599,7.074c-2.648,1.897-6.201,5.903-10.368,8.349
							c-4.433,2.59-16.126,3.129-20.895,1.141c-10.008-4.168-6.692-9.463-1.154-13.902c1.958-1.569,5.354-4.876,7.029-7.12
							C313.744,378.155,317.352,372.015,317.352,372.015z"/>
						<path style="fill:none;stroke:#855E59;stroke-width:0.9488;stroke-miterlimit:10;" d="M325.132,380.534
							c0,0-4.977-2.39-10.21-1.683"/>
						<path style="fill:none;stroke:#855E59;stroke-width:0.9488;stroke-miterlimit:10;" d="M321.817,385.829
							c0,0-4.976-2.398-10.21-1.685"/>
						<path style="fill:none;stroke:#855E59;stroke-width:0.9488;stroke-miterlimit:10;" d="M340.117,387.095
							c0,0-5.629,3.177-9.394,6.961c-3.761,3.784-6.838,8.48-11.946,10.036c-5.111,1.555-16.621,1.623-22.012-2.694"/>
					</g>
					<path style="fill:#363B4E;" d="M297.572,272.833c-1.984-31.906-0.466-41.311,1.43-46.256
						c1.631-4.261,19.282-8.913,27.329-5.587c8.05,3.327,14.618,15.996,14.618,15.996s0.695,15.483-0.392,23.955
						c-1.087,8.474-6.097,37.815-6.097,37.815s5.37,12.911,5.023,25.054c-0.497,17.561-0.793,47.257-0.793,47.257
						s-4.205,2.05-10.575,2.232c-6.802,0.192-11.014-0.801-11.014-0.801s-7.701-25.44-10.817-47.073
						C305.089,317.108,298.731,291.457,297.572,272.833z"/>
				</g>
				<g>
					<path style="fill:#3E4858;" d="M341.49,186.343c0.392-7.511-0.478-11.012,1.052-24.144c0.943-8.087,5.461-20.696,6.035-29.606
						c0.576-8.911,3.059-21.395-4.598-27.02c-7.659-5.626-31.749-9.662-41.093-9.739c-9.347-0.079-17.257,0.829-25.88,5.427
						c-9.508,5.071-9.344,13.345-10.636,27.307c-0.146,1.56-1.374,17.904-1.603,24.242c-0.544,15.056-1.323,28.037-3.039,36.3
						c-1.717,8.265-4.534,39.692-4.554,41.69c0,0,6.899,6.515,13.031,8.048c6.131,1.533,11.848,2.286,19.929,3.449
						c1.581,0.227,3.832-11.498,3.832-11.498l3.448,12.648c0,0,13.799,2.3,24.529,0.767c10.73-1.534,23.377-8.049,23.377-8.049
						S341.098,193.855,341.49,186.343z"/>
					<path style="fill:#F2F0EB;" d="M319.975,101.273c0,0-24.086,70.423-26.468,71.178c-2.38,0.755-9.609-30.321-9.698-51.108
						c-0.09-20.786,3.073-25.303,3.073-25.303L319.975,101.273z"/>
					<path style="fill:none;stroke:#DCD8DA;stroke-miterlimit:10;" d="M296.648,115.441c0,0-3.449,16.48-3.449,26.828
						c0,10.349,0.322,26.999,0.322,26.999"/>
					<path style="fill:#363B4E;" d="M287.733,149.758c1.273,14.073,5.987,23.886,5.085,24.707
						c-0.902,0.819-6.517-10.35-9.201-16.865c-1.782-4.326-5.399-17.675-6.223-23.846c-0.824-6.171,3.809-12.642,3.809-12.642
						s-3.349-4.771-2.974-8.909c0.375-4.139,1.899-11.54,3.087-13.24c2.013-2.875,7.185-4.028,7.185-4.028
						S286.46,135.685,287.733,149.758z"/>
					<path style="fill:#363B4E;" d="M319.327,96.849c0,0,7.604,0.104,8.973,1.93c1.369,1.827-0.898,11.661-1.434,16.316
						c-0.534,4.655-7.737,8.086-7.737,8.086s4.769,7.885,0.961,15.271c-4.557,8.835-24.169,38.223-27.275,36.011
						c-1.763-1.255,9.349-20.782,17.221-45.316C316.019,110.503,319.327,96.849,319.327,96.849z"/>
					<g>
						<path style="fill:#FFFFFF;" d="M314.639,91.337c0,0,3.983,2.198,5.059,4.039c1.075,1.841,0.277,5.897,0.277,5.897
							s-2.406,6.898-5.201,9.973c-2.796,3.076-9.827,8.855-9.827,8.855l-7.259-12.376L314.639,91.337z"/>
						<path style="fill:#FFFFFF;" d="M293.401,91.695c0,0-4.317,1.334-5.064,2.957c-0.747,1.621-1.421,6.365-1.421,6.365
							s0.301,4.698,0.964,7.661c0.738,3.289,3.565,10.136,3.565,10.136l6.766-9.892L293.401,91.695z"/>
					</g>
					<g>
						<path style="fill:#A4273B;" d="M296.264,107.578c0,0-9.154-7.382-10.037-2.964c-0.883,4.418-1.456,12.007,1.657,12.039
							c3.117,0.032,7.072-4.012,7.072-4.012L296.264,107.578z"/>
						<path style="fill:#A4273B;" d="M299.166,108.27c0,0,10.319-5.629,10.403-1.124c0.083,4.506-0.702,12.075-3.774,11.55
							c-3.07-0.525-6.243-5.21-6.243-5.21L299.166,108.27z"/>
						<path style="fill:#BD273B;" d="M297.266,107.178c-1.92,0.114-3.006,0.503-3.234,2.391c-0.23,1.886-0.904,4.59,0.419,5.1
							c1.324,0.51,5.08,0.967,5.589-0.362c0.508-1.331,0.371-4.481,0.304-5.36C300.277,108.067,299.184,107.064,297.266,107.178z"/>
					</g>
				</g>
				<g>
					<path style="fill:#B77E20;" d="M295.904,188.056c-0.055,1.046,0.751,1.942,1.798,1.996c1.048,0.054,1.942-0.752,1.996-1.799
						c0.056-1.049-0.75-1.942-1.798-1.997C296.853,186.202,295.958,187.007,295.904,188.056z"/>
					<path style="fill:#B77E20;" d="M296.383,206.959c-0.055,1.046,0.751,1.94,1.799,1.996c1.049,0.055,1.942-0.752,1.996-1.798
						c0.054-1.05-0.75-1.943-1.798-1.997C297.332,205.107,296.439,205.911,296.383,206.959z"/>
					<path style="fill:#B77E20;" d="M296.58,225.701c-0.055,1.046,0.751,1.943,1.799,1.996c1.047,0.054,1.941-0.751,1.995-1.799
						c0.056-1.048-0.75-1.942-1.798-1.996C297.528,223.849,296.635,224.652,296.58,225.701z"/>
				</g>
				<path style="fill:none;stroke:#59636D;stroke-width:1.0169;stroke-miterlimit:10;" d="M292.24,176.858
					c-0.575,10.923-1.156,14.985-0.957,24.049c0.174,7.912,2.338,31.694,2.338,31.694"/>
				<g>
					<path style="fill:#F5AA8A;" d="M291.555,85.308l22.637-5.701l2.418,16.663c0,0-2.14,1.803-5.69,4.595
						c-3.551,2.787-12.693,7.765-12.693,7.765s-3.782-4.429-5.242-6.126c-1.461-1.7-3.142-6.445-3.142-6.445L291.555,85.308z"/>
					<g>
						<path style="fill:#F5AA8A;" d="M286.916,51.173c4.872-8.239,17.577-8.198,24.06-4.393c9.962,5.852,10.973,19.359,7.314,31.139
							c-2.005,6.472-5.078,10.772-10.526,13.761c-11.832,6.492-19.31,1.141-21.654-2.683c-2.599-4.269-3.682-14.789-3.585-18.812
							C282.658,64.294,282.042,59.42,286.916,51.173z"/>
					</g>
					<g>
						<g>
							<path style="fill:#411B00;" d="M290.468,72.64c-0.071,1.075-0.963,1.883-1.989,1.813c-1.033-0.072-1.808-0.997-1.738-2.066
								c0.08-1.066,0.972-1.879,1.998-1.809C289.763,70.647,290.54,71.572,290.468,72.64z"/>
						</g>
						<g>
							<path style="fill:#411B00;" d="M305.517,73.811c-0.068,1.071-0.958,1.882-1.989,1.811c-1.029-0.068-1.804-0.993-1.731-2.064
								c0.074-1.066,0.968-1.88,1.994-1.806C304.822,71.82,305.595,72.742,305.517,73.811z"/>
						</g>
						<g>
							<g>
								<path style="fill:#592221;" d="M310.17,68.419c-2.64-1.771-7.329-2.397-9.774-0.006c-0.229,0.224-0.064,0.652,0.265,0.64
									c1.056-0.038,2.097,0.115,3.184,0.017c1.84-0.165,3.755,0.041,5.358,1.003C310.273,70.714,311.186,69.1,310.17,68.419
									L310.17,68.419z"/>
							</g>
						</g>
						<g>
							<g>
								<path style="fill:#592221;" d="M285.806,68.306c0.723-0.586,2.238-0.382,3.085-0.342c1.074,0.05,2.598,0.262,3.604,0.634
									c0.261,0.097,0.553-0.203,0.461-0.461c-1.022-2.879-6.44-3.073-8.504-1.186C283.523,67.799,284.866,69.067,285.806,68.306
									L285.806,68.306z"/>
							</g>
						</g>
						<g>
							<path style="fill:#D27D73;" d="M297.053,83.481c0,0-0.309-0.023-0.824-0.168c-0.519-0.137-1.24-0.403-2.048-0.898
								c-0.399-0.257-0.816-0.569-1.218-0.985c-0.393-0.441-0.745-0.91-1.011-1.646c-0.043-0.138-0.077-0.248-0.113-0.416
								c-0.028-0.204-0.068-0.423-0.064-0.625c0.001-0.396,0.073-0.827,0.248-1.203c0.336-0.776,0.921-1.228,1.368-1.619
								c0.453-0.388,0.874-0.71,1.126-1.028l0.094-0.12c0.028-0.054-0.035,0.069-0.027,0.054l0.003-0.006l0.006-0.012l0.012-0.024
								l0.025-0.048l0.048-0.096c0.08-0.142,0.096-0.222,0.131-0.313c0.065-0.172,0.152-0.457,0.215-0.693
								c0.141-0.496,0.226-1.011,0.325-1.493c0.096-0.486,0.18-0.951,0.248-1.383c0.155-0.87,0.284-1.594,0.374-2.101
								c0.1-0.512,0.158-0.804,0.158-0.804s0.279,1.169,0.394,2.954c0.048,0.895,0.086,1.936-0.047,3.096
								c-0.037,0.303-0.062,0.568-0.167,0.935c-0.05,0.179-0.107,0.375-0.159,0.488l-0.04,0.1l-0.02,0.05l-0.01,0.025l-0.005,0.013
								l-0.037,0.072l-0.141,0.242c-0.39,0.649-0.904,1.067-1.328,1.451c-0.425,0.377-0.746,0.731-0.888,1.017
								c-0.078,0.145-0.103,0.291-0.115,0.458c-0.008,0.081,0.011,0.141,0.003,0.214c0.014,0.106,0.062,0.262,0.082,0.391
								c0.063,0.315,0.277,0.765,0.508,1.111c0.22,0.38,0.522,0.703,0.79,1.016c0.555,0.617,1.103,1.102,1.485,1.45
								C296.828,83.283,297.053,83.481,297.053,83.481z"/>
						</g>
					</g>
					<path style="fill:#592221;" d="M282.871,56.662c0.356-0.824-0.582-5.08,0.27-7.074c0.851-1.99,5.273-4.258,10.171-5.988
						c5.137-1.807,11.022-2.29,17.762-0.657c6.734,1.638,12.762,6.04,12.705,13.213c-0.042,6.017-0.931,16.04-2.203,16.55
						c-1.277,0.508-6.038,2.284-6.038,2.284s-2.882-6.995-2.026-8.988c0.851-1.988-1.95-8.612-3.25-9.063
						c-1.056,0.047-9.27,2.453-14.307,2.561c-5.035,0.102-7.882-3.825-7.908-3.797c0,0-1.64,1.996-2.653,3.726
						c-1.012,1.732-2.936,6.753-2.936,6.753s-1.05-1.099-1.036-3.81C281.433,59.659,282.123,58.427,282.871,56.662z"/>
					
						<path style="fill:none;stroke:#D3ECFE;stroke-width:2.1561;stroke-linecap:round;stroke-linejoin:round;stroke-miterlimit:10;" d="
						M313.712,76.002c0,0,6.373-7.025,7.273-2.144c1.249,6.787-1.61,9.258-8.049,10.156"/>
					<path style="fill:#F5AA8A;" d="M318.335,68.544c3.991-1.392,6.115,3.305,4.566,8.765c-0.972,3.428-5.681,5.002-7.665,4.024
						C315.394,77.841,314.645,69.831,318.335,68.544z"/>
					<g>
						<path style="fill:#D3ECFE;" d="M296.532,76.889c11.381,0.351,17.339-1.934,17.339-1.934s2.16,12.055-2.074,15.672
							c-3.968,3.383-10.946,5.906-17.469,4.557c-6.522-1.346-8.818-5.921-10.41-9.492c-1.599-3.571-1.632-11.688-1.632-11.688
							S285.147,76.54,296.532,76.889z"/>
						<g>
							<path style="fill:#B1D7DE;" d="M283.87,76.787c0,0,3.372,2.626,11.559,2.96c8.621,0.347,17.004-2.58,17.004-2.58l0.234,2.231
								c0,0-11.422,2.501-16.868,2.061c-5.442-0.442-11.523-2.189-11.523-2.189L283.87,76.787z"/>
							<path style="fill:#B1D7DE;" d="M284.845,83.539c0,0,3.124,1.935,10.804,2.253c8.084,0.327,16.82-2.538,16.82-2.538
								l-0.154,2.101c0,0-11.214,2.45-16.316,2.037c-5.108-0.408-10.807-2.051-10.807-2.051L284.845,83.539z"/>
							<path style="fill:#B1D7DE;" d="M311.079,88.765c-3.148,0.826-8.928,2.079-14.418,1.852c-5.681-0.231-8.861-1.349-10.14-1.915
								c0.148,0.566,0.316,1.132,0.499,1.692c1.754,0.465,6.047,1.513,9.984,1.831c3.441,0.275,9.636-0.743,13.324-1.438
								C310.685,90.27,310.911,89.55,311.079,88.765z"/>
						</g>
					</g>
				</g>
			</g>
			<g>
				<g>
					<path style="fill:#F5AA8A;" d="M295.59,187.727c0,0-13.489-6.863-21.071-3.031c-7.579,3.835-10.643,9.121-11.278,11.479
						c-1.296,4.779,1.706,4.347,1.706,4.347s-0.609,1.01,0.56,2.162c1.171,1.154,2.166,1.523,2.166,1.523s0.224,1.789,0.741,2.147
						c0.514,0.359,1.003,0.553,1.397,0.508c1.612-0.185,10.542-6.564,14.75-7.847c1.772-0.542,3.668,0.942,5.915,1.422
						c3.096,0.66,6.709-1.846,6.709-1.846S298.495,190.806,295.59,187.727z"/>
					<g>
						<path style="fill:none;stroke:#CB8469;stroke-linecap:round;stroke-linejoin:round;stroke-miterlimit:10;" d="
							M272.092,189.453c0,0-2.838,2.248-4.346,4.886c-1.509,2.635-2.799,6.184-2.799,6.184"/>
						<path style="fill:none;stroke:#CB8469;stroke-linecap:round;stroke-linejoin:round;stroke-miterlimit:10;" d="
							M276.881,191.433c0,0-2.912,0.571-4.772,3.49c-1.861,2.92-4.383,8.379-4.383,8.379"/>
						<path style="fill:none;stroke:#CB8469;stroke-linecap:round;stroke-linejoin:round;stroke-miterlimit:10;" d="
							M268.152,204.696c0,0,4.503-4.374,6.635-6.41c1.793-1.706,5.393-2.538,5.393-2.538"/>
					</g>
				</g>
				<g>
					<path style="fill:#F2F0EB;" d="M339.505,106.741c-4.295,0.938-9.733,7.74-11.434,20.037
						c-1.702,12.296-5.597,36.033-6.038,38.341c-0.439,2.308-6.136,5.283-10.971,8.242c-2.736,1.674-12.207,8.838-12.207,8.838
						l-6.284,2.41c0,0,2.114,5.712,3.026,8.571c0.912,2.859,1.286,7.74,1.286,7.74l5.719-1.473c0,0,10.193-1.012,15.775-2.354
						c10.306-2.48,25.952-6.301,28.905-12.869c2.953-6.567,4.762-34.581,5.738-44.373c0.98-9.792-0.705-23.849-3.076-27.832
						C347.579,108.036,343.802,105.803,339.505,106.741z"/>
					<path style="fill:none;stroke:#DCD8DA;stroke-miterlimit:10;" d="M298.684,182.202c0,0,1.986,3.806,3.03,8.589
						c1.044,4.782,0.465,8.313,0.465,8.313"/>
					<path style="fill:#DCD8DA;" d="M308.269,194.396c0.015,0.794-0.617,1.448-1.412,1.462c-0.793,0.014-1.448-0.619-1.461-1.412
						c-0.015-0.794,0.618-1.449,1.411-1.462C307.601,192.97,308.256,193.602,308.269,194.396z"/>
				</g>
				<g>
					<path style="fill:#E9DBDA;" d="M303.355,181.833c2.332,1.876,8.461,1.769,7.944,15.96c-0.517,14.192-1.244,38.353-1.896,44.881
						c-0.653,6.527-2.083,12.302,0.996,13.015c3.078,0.713,5.714-2.017,5.714-2.017s2.352,3.025,7.327,2.554
						c4.974-0.47,5.681-3.932,8.747-3.986c3.064-0.053,4.956-1.62,6.823-4.336c1.868-2.716,3.08-21.136,2.904-31.099
						c-0.173-9.963-2.932-35.98-8.019-42.024c-5.089-6.044-12.596-7.925-14.327-8.182c-1.728-0.257-3.089,1.42-7.218,3.576
						c-1.092,0.571-3.396,3.126-3.396,3.126s-4.202,0.841-6.083,2.789C300.989,178.041,301.021,179.958,303.355,181.833z"/>
					<g>
						<path style="fill:none;stroke:#D8BBBD;stroke-miterlimit:10;" d="M312.591,178.509c2.961,4.835,6.2,14.745,5.684,28.936
							c-0.519,14.192-1.441,43.53-1.441,43.53"/>
						<path style="fill:none;stroke:#D8BBBD;stroke-miterlimit:10;" d="M316.484,170.966c0,0,7.542,3.892,10.364,17.355
							c2.826,13.462,3.101,29.269,2.934,36.171c-0.166,6.903,0.177,26.446,0.177,26.446"/>
						<path style="fill:none;stroke:#D8BBBD;stroke-miterlimit:10;" d="M329.391,185.689c0,0,4.114,21.489,3.987,30.69
							c-0.113,8.34,0.025,34.21,0.025,34.21"/>
					</g>
				</g>
			</g>
		</g>
		<g>
			<g>
				<g>
					<path style="fill:#433431;" d="M82.134,370.804c-0.975,10.72-6.334,37.031-7.797,42.392c-1.287,4.724-2.436,7.796,2.438,7.308
						c4.873-0.486,5.846-1.461,8.77-9.745c2.924-8.283,7.053-29.758,8.771-40.928c1.949-12.669,2.924-46.776,2.924-46.776H84.083
						C84.083,323.053,83.108,360.085,82.134,370.804z"/>
					<path style="fill:#433431;" d="M131.712,309.41c-0.291,10.119-1.059,34.914-1.827,43.365
						c-0.974,10.72-6.334,37.031-7.796,42.391c-1.289,4.724-2.436,7.796,2.437,7.309c4.872-0.487,5.847-1.461,8.771-9.745
						c2.924-8.283,7.052-29.759,8.77-40.929c1.519-9.875,2.446-32.77,2.781-42.391H131.712z"/>
					<path style="fill:#433431;" d="M170.669,370.804c-0.975-10.719-1.949-47.751-1.949-47.751h-13.155
						c0,0,0.975,34.108,2.924,46.776c1.719,11.17,5.847,32.646,8.77,40.928c2.924,8.284,3.899,9.259,8.771,9.745
						c4.872,0.488,3.725-2.584,2.436-7.308C177.004,407.835,171.644,381.523,170.669,370.804z"/>
					<path style="fill:#433431;" d="M206.239,352.775c-0.77-8.452-1.537-33.247-1.828-43.365h-13.135
						c0.336,9.622,1.262,32.517,2.781,42.391c1.719,11.17,5.847,32.646,8.77,40.929c2.923,8.284,3.898,9.258,8.771,9.745
						c4.873,0.488,3.725-2.585,2.436-7.309C212.573,389.807,207.214,363.495,206.239,352.775z"/>
				</g>
				<g>
					<path style="fill:#563E3E;" d="M114.293,208.712c0,0-29.724-1.624-37.032,0c-5.248,1.167-13.643,3.249-10.395,15.592
						c3.25,12.344,9.096,54.572,9.744,72.113c0.65,17.541,0.652,31.834,9.098,33.783c8.445,1.949,72.763,0,72.763,0
						s11.044,0,24.687-5.197c13.644-5.198,22.089-8.446,22.089-8.446s8.445-5.197-8.445-7.146
						c-16.893-1.949-74.062,0.649-74.062,0.649L114.293,208.712z"/>
					<path style="fill:#6E5550;" d="M196.802,309.411c-16.893-1.949-74.062,0.649-74.062,0.649l-8.446-101.348
						c0,0-29.724-1.624-37.032,0c-0.701,0.156-1.463,0.33-2.242,0.542c-0.764,2.124-0.863,4.937,0.131,8.716
						c3.25,12.343,9.096,54.572,9.746,72.113c0.234,6.356,0.648,12.506,0.883,17.357c0.432,8.954,0.254,16.588,0.254,16.588
						s26.828-2.082,31.183-1.949c20.153,0.615,50.187,0.488,50.187,0.487c0,0,10.395,1.3,24.038-3.897
						c6.498-2.476,11.798-4.502,15.587-5.953C206.178,311.455,203.466,310.18,196.802,309.411z"/>
				</g>
			</g>
			<g>
				<g>
					<path style="fill:#F5AA8A;" d="M162.541,227.682c0,0,1.75,10,2.5,15.25s1.25,18.25,1.25,18.25l4.5,1l1.257,9.422
						c0,0-15.007,5.328-20.007,0.078s-2.75-45.75-2.75-45.75L162.541,227.682z"/>
					<path style="fill:none;stroke:#DC8C7A;stroke-width:1.0257;stroke-miterlimit:10;" d="M157.291,261.682c0,0,4.922-1,8.75-0.25"
						/>
				</g>
				<g>
					<polygon style="fill:#E49E80;" points="214.165,355.607 221.765,384.433 239.087,381.347 232.744,351.159 					"/>
					<g>
						<g>
							<path style="fill:#448294;" d="M145.707,274.73c0,0,68.656-7.786,76.73,7.643c8.073,15.427,16.181,77.967,14.687,80.199
								c-1.495,2.231-22.648,4.528-23.35,2.126c-1.278-4.383-13.288-49.68-16.651-54.098c-3.357-4.417-29.854,2.869-43,3.333
								c-13.634,0.489-33.34,3.526-38.208-4.29c-4.542-7.295-4.125-28.607-4.125-28.607L145.707,274.73z"/>
						</g>
						<g>
							<g>
								<path style="fill:none;stroke:#30A1B6;stroke-miterlimit:10;" d="M121.685,304.369c0,0,0.439,0.313,1.258,0.811"/>
								<path style="fill:none;stroke:#30A1B6;stroke-miterlimit:10;stroke-dasharray:3.051,2.034;" d="M124.703,306.192
									c5.395,2.933,17.414,8.055,31.085,4.781c18.579-4.45,44.399-11.74,47.645-4.377c2.806,6.358,13.037,42.571,15.776,52.331"/>
								<path style="fill:none;stroke:#30A1B6;stroke-miterlimit:10;" d="M219.484,359.909c0.26,0.928,0.403,1.441,0.403,1.441"/>
							</g>
						</g>
					</g>
					<polygon style="fill:#F5AA8A;" points="181.963,367.04 185.564,396.666 203.141,396.103 200.97,365.306 					"/>
					<g>
						<g>
							<path style="fill:#4C96A6;" d="M124.291,278.932c0,0,66.669,4.695,74.5,18c8.855,15.044,6.748,78.306,4.965,80.302
								c-1.786,1.993-23.033,0.682-23.404-1.797c-0.67-4.522-7.523-48.385-10.25-53.24c-2.727-4.855-23.978-2.93-39.978-2.597
								c-7.018,0.147-19.266,0.063-25.667-2c-6.048-1.949-11.729-6.087-13.554-10.184c-3.503-7.875-0.19-28.913-0.19-28.913
								L124.291,278.932z"/>
						</g>
						<g>
							<path style="fill:none;stroke:#6BBACA;stroke-miterlimit:10;" d="M111.379,284.331c0,0-1.954,10.858-16.697,11.935"/>
							<g>
								<g>
									<path style="fill:none;stroke:#6BBACA;stroke-miterlimit:10;" d="M97.336,303.023c0,0,0.391,0.371,1.131,0.98"/>
									<path style="fill:none;stroke:#6BBACA;stroke-miterlimit:10;stroke-dasharray:3.0428,2.0286;" d="M100.062,305.25
										c4.936,3.677,16.152,10.49,30.152,9.213c19.007-1.733,42.695-2.621,44.91,5.135c1.903,6.662,7.671,41.24,9.258,50.852"/>
									<path style="fill:none;stroke:#6BBACA;stroke-miterlimit:10;" d="M184.548,371.455c0.157,0.951,0.243,1.478,0.243,1.478"/>
								</g>
							</g>
						</g>
					</g>
					<g>
						<path style="fill:#D1933D;" d="M239.298,379.989c0,0,12.09,7.929,23.908,14.98c4.592,2.739,8.801,7.75,3.808,11.77
							c-2.479,1.996-15.902,4.773-24.96,0.678c-10.319-4.66-19.181-4.299-22.163-7.797c-2.98-3.5,1.062-16.544,1.062-16.544
							L239.298,379.989z"/>
						<path style="fill:none;stroke:#A16529;stroke-miterlimit:10;" d="M242.205,391.866c0,0-8.599-3.788-11.76-8.146"/>
						<path style="fill:none;stroke:#A16529;stroke-miterlimit:10;" d="M267.394,401.534c0,0-2.431,3.007-8.664,3.709
							c-6.227,0.706-9.974,0.673-15.462-1.023c-5.484-1.699-8.495-4.13-13.057-5.165c-4.563-1.039-8.311-1.069-10.393-2.84"/>
					</g>
					<g>
						<path style="fill:#D1933D;" d="M203.742,394.888c0,0,9.978,10.463,19.888,20.008c3.855,3.712,6.818,9.545,1.044,12.331
							c-2.869,1.378-16.57,1.04-24.467-5.003c-8.99-6.878-17.704-8.534-19.813-12.615c-2.111-4.084,4.781-15.874,4.781-15.874
							L203.742,394.888z"/>
						<path style="fill:none;stroke:#A16529;stroke-miterlimit:10;" d="M203.882,407.114c0,0-7.517-5.637-9.609-10.602"/>
						<path style="fill:none;stroke:#A16529;stroke-miterlimit:10;" d="M226.223,422.24c0,0-3.049,2.377-9.278,1.652
							c-6.226-0.729-9.866-1.612-14.827-4.509c-4.961-2.896-7.335-5.944-11.546-7.989c-4.211-2.043-7.853-2.922-9.481-5.119"/>
					</g>
					<path style="fill:#8DB1CC;" d="M203.982,372.659c0,0-4.344,2.124-11.424,1.784c-7.085-0.34-12.767-2.844-12.767-2.844
						s-1.983,3.83-0.187,6.408c1.795,2.578,6.042,3.961,12.981,4.721c6.929,0.757,11.674-1.215,12.827-3.852
						C206.555,376.244,203.982,372.659,203.982,372.659z"/>
					<path style="fill:#88A5BD;" d="M237.257,358.43c0,0-3.799,2.992-10.794,4.149c-6.997,1.16-13.316-1.382-13.316-1.382
						s-0.898,5.448,1.403,7.593c2.3,2.141,6.738,2.601,13.68,1.882c6.939-0.719,11.163-3.645,11.731-6.464
						C240.528,361.393,237.257,358.43,237.257,358.43z"/>
				</g>
				<g>
					<path style="fill:#303A7D;" d="M104.609,288.099c-4.746,2.492-12.682,5.704-15.198,7.382c-2.518,1.679-3.62-4.883-3.287-8.216
						c0.333-3.333,1.333-6,1.333-6s-0.484-9.091-0.237-12.991c0.267-4.228,0.504-8.328,0.511-11.814
						c0.053-21.359-2.94-53.528,3.56-64.028s22.833-13.5,40-13c17.166,0.501,25.833,7.834,27.833,15.501s3.667,18.333,3.667,22.333
						s2.333,9.666,1.333,11c-1,1.333-7,2-7,2s-2.262,12.813-2.333,16.333c-0.333,16.333-0.345,27.483-0.345,27.483
						s-14.872,2.975-23.915,5.036C121.488,281.177,113.437,283.46,104.609,288.099z"/>
					<g>
						<path style="fill:none;stroke:#5F6DA2;stroke-miterlimit:10;" d="M153.791,192.599c0,0,2.333,8.333,2.666,14
							c0.334,5.667,1.667,19.333,0.667,23.667"/>
						<path style="fill:none;stroke:#5F6DA2;stroke-miterlimit:10;" d="M88.124,282.932c0,0,17-8,32-10.667"/>
					</g>
				</g>
				<g>
					<path style="fill:#F5AA8A;" d="M138.571,171.48l0.627,8.701c0,0,0.534,8.994-7.333,10
						c-7.866,1.008-13.808-10.635-13.808-10.635l-0.021-14.326L138.571,171.48z"/>
					<g>
						<path style="fill:#592C30;" d="M144.474,136.155c0,0,7.081,4.055,6.915,13.761c-0.168,9.706-4.279,10.305-7.586,7.945
							c-3.307-2.357-13.433-14.417-13.433-14.417l4.248-11.016L144.474,136.155z"/>
						<path style="fill:#F5AA8A;" d="M146.032,142.099c3.978,11.039,3.499,33.082-8.167,34.416
							c-11.667,1.333-18.339-0.002-24.075-18.171c-5.739-18.175,4.558-25.745,9.234-26.66
							C126.657,130.975,142.042,131.063,146.032,142.099z"/>
						<g>
							<path style="fill:#522C31;" d="M126.451,157.082c0.318,0.928,1.327,1.424,2.256,1.107c0.924-0.318,1.422-1.328,1.105-2.254
								c-0.317-0.929-1.327-1.422-2.256-1.107C126.629,155.145,126.134,156.155,126.451,157.082z"/>
						</g>
						<g>
							<path style="fill:#522C31;" d="M141.791,156.432c0.338,0.986,1.362,1.527,2.292,1.213c0.925-0.319,1.407-1.374,1.07-2.362
								c-0.335-0.987-1.363-1.527-2.291-1.21C141.934,154.387,141.455,155.447,141.791,156.432z"/>
						</g>
						<g>
							<path style="fill:#D27D73;" d="M135.943,152.774c0.429,0.906,0.768,1.828,1.059,2.758c0.16,0.462,0.273,0.933,0.411,1.399
								c0.141,0.466,0.232,0.94,0.351,1.41l-0.38-0.571c0.433,0.241,0.804,0.5,1.183,0.789c0.374,0.287,0.75,0.583,1.092,0.942
								c0.172,0.173,0.337,0.372,0.499,0.573c0.157,0.221,0.317,0.423,0.45,0.702c0.138,0.252,0.262,0.574,0.281,0.959
								c0.038,0.364-0.078,0.858-0.322,1.157l-0.185,0.233l-0.048,0.055l-0.062,0.056l-0.004,0.003l-0.008,0.006l-0.017,0.012
								l-0.068,0.048l-0.273,0.193l-0.562,0.366c-0.196,0.118-0.354,0.253-0.581,0.357l-0.659,0.3
								c-0.434,0.201-0.87,0.383-1.309,0.503c-0.438,0.132-0.882,0.25-1.338,0.319c0.352-0.299,0.692-0.599,1.039-0.881
								c0.359-0.27,0.669-0.571,0.992-0.835l0.475-0.398c0.163-0.112,0.316-0.303,0.475-0.451l0.472-0.473l0.245-0.226l0.062-0.057
								l0.015-0.014l0.008-0.007l0.004-0.003l0.002-0.002c-0.025,0.023,0.059-0.054-0.056,0.051l0.001-0.012
								c0.001-0.016,0.003-0.028,0.008-0.038c0.026-0.018,0.006-0.037,0-0.044c0.013,0.001-0.013-0.033-0.02-0.056
								c0.009-0.015-0.032-0.073-0.051-0.119c-0.007-0.045-0.046-0.108-0.086-0.173c-0.058-0.123-0.183-0.267-0.288-0.404
								c-0.125-0.139-0.247-0.278-0.394-0.414c-0.28-0.273-0.577-0.56-0.901-0.821c-0.318-0.261-0.667-0.524-0.977-0.769
								l-0.353-0.278l-0.028-0.293c-0.046-0.482-0.119-0.96-0.143-1.446c-0.027-0.485-0.078-0.967-0.082-1.456
								C135.832,154.754,135.842,153.772,135.943,152.774z"/>
						</g>
						<g>
							<g>
								<path style="fill:#592C30;" d="M146.572,152.996c0.07-0.009,0.141-0.017,0.211-0.025c0.661-0.08,0.861-0.807,0.328-1.21
									c-1.302-0.983-4.395-1.537-5.716-0.383c-0.492,0.429-0.041,1.066,0.47,1.134c0.701,0.093,1.437-0.154,2.16-0.127
									c0.917,0.035,1.71,0.367,2.587,0.563c-0.052-0.395-0.104-0.791-0.155-1.186c-0.063,0.038-0.125,0.076-0.188,0.114
									C145.798,152.162,145.944,153.072,146.572,152.996L146.572,152.996z"/>
							</g>
						</g>
						<g>
							<g>
								<path style="fill:#592C30;" d="M131.662,151.524c-0.572-0.745-1.872-0.768-2.72-0.871c-1.512-0.184-3.457,0.069-4.651,1.065
									c-0.241,0.2-0.196,0.589,0,0.796c-0.004-0.051-0.008-0.102-0.012-0.153c-0.019,0.114,0.008,0.254,0.125,0.309
									c0.035,0.016,0.069,0.032,0.103,0.048c0.277,0.13,0.544,0.018,0.652-0.266c0.024-0.062,0.048-0.125,0.072-0.187
									c-0.181,0.138-0.362,0.275-0.543,0.413c1.273,0.066,2.416-0.727,3.707-0.683c0.508,0.018,2.27,0.025,2.443,0.163
									C131.263,152.494,132.054,152.035,131.662,151.524L131.662,151.524z"/>
							</g>
						</g>
						<g>
							<path style="fill:#FFFFFF;" d="M139.315,166.586c-0.694,0.242-3.228,0.384-3.765,0.326c-2.677-0.294-4.289-3.315-5.475-2.501
								c-1.186,0.815-2.57,5.452,1.723,6.783C137.498,172.962,139.315,166.586,139.315,166.586z"/>
						</g>
						<path style="fill:none;stroke:#CB8469;stroke-linecap:round;stroke-linejoin:round;stroke-miterlimit:10;" d="
							M138.918,176.395c0,0-5.118,1.434-8.771,0.682c-3.652-0.751-5.692-1.787-5.692-1.787"/>
						<path style="fill:#592C30;" d="M149.771,135.287c-3.468-3.379-6.283-3.714-6.283-3.714s-3.316-5.846-10.696-7.58
							c-7.38-1.733-11.387,4.545-11.387,4.545s-6.498-1.716-10.484,3.678c-3.99,5.396-1.936,13.788,4.257,15.073
							c6.192,1.285,8.973-5.635,8.973-5.635s7.532,2.97,11.077,2.158c3.549-0.814,6.101-3.95,6.101-3.95s2.825,8.006,8.301,6.61
							C153.703,145.432,153.235,138.662,149.771,135.287z"/>
						<path style="fill:#592C30;" d="M111.663,136.792c0,0-6.851,4.249-6.646,9.913c0.205,5.663,3.852,8.54,3.852,8.54
							s3.825,0.856,5.254,3.473c1.429,2.617,3.427,2.545,4.712,1.164c0.374-0.402,0.289-4.433,0.289-4.433s1.124-2.622,0.98-6.62
							c-0.145-3.997-0.991-8.97-0.991-8.97L111.663,136.792z"/>
						<path style="fill:#F5AA8A;" d="M116.143,157.212c-0.924-3.646-7.332-5.406-8.07-1.024c-0.74,4.384,2.865,9.583,7.118,10.042
							C119.445,166.686,117.072,160.852,116.143,157.212z"/>
					</g>
				</g>
				<g>
					<g>
						<path style="fill:#F5AA8A;" d="M198.424,268.974c-0.678-3.052-3.809-6.724-6.453-7.536c-3.569-1.095-9.609-2.949-13.206-1.963
							c-1.242,0.341-7.241,1.071-9.424,2.401c-2.183,1.331-0.323,7.731,1.595,9.695c0.67,0.013,1.372,0.024,2.111,0.033
							c3.028,0.039,8.34,0.778,9.687,0.918c2.326,0.245,4.776,2.394,6.011,0.227c1.233-2.165-2.997-3.644-1.515-3.819
							c0.752-0.089,2.284,0.025,3.58,1.499c1.261,1.434,2.438,2.792,3.279,3.529c2.058,1.805,3.418-1.596,3.418-1.596
							S199.09,271.964,198.424,268.974z"/>
						<g>
							<path style="fill:none;stroke:#DC8C7A;stroke-width:1.0257;stroke-miterlimit:10;" d="M196.999,271.482
								c0,0-1.679-3.445-4.17-5.407c-2.49-1.965-6.876-1.984-6.876-1.984"/>
							<path style="fill:none;stroke:#DC8C7A;stroke-width:1.0257;stroke-miterlimit:10;" d="M186.89,269.15
								c-0.844-1.208-5.042-2.218-6.355-2.023"/>
						</g>
					</g>
				</g>
			</g>
			<g>
				<g>
					<g>
						<path style="fill:#6E5550;" d="M298.088,430.517c0,4.828-15.408,6.592-34.413,6.592c-19.011,0-34.413-1.764-34.413-6.592
							c0-4.832,15.402-8.748,34.413-8.748C282.68,421.769,298.088,425.685,298.088,430.517z"/>
						<path style="fill:#433431;" d="M258.807,276.226v148.777h0.021c0.101,1.5,2.225,2.705,4.847,2.705
							c2.62,0,4.745-1.205,4.845-2.705h0.021V276.226H258.807z"/>
					</g>
					<g>
						<path style="fill:#957765;" d="M263.675,275.103H152.111c0,0,0.056,3.367,0.114,6.245c0.045,2.13,0.648,3.475,2.039,4.344
							c1.055,0.66,4.896,1.702,13.197,2.245c26.162,1.711,78.348,0.733,96.214,0.876c17.866-0.143,70.052,0.835,96.214-0.876
							c8.302-0.543,12.143-1.585,13.198-2.245c1.39-0.869,1.993-2.213,2.038-4.344c0.06-2.878,0.114-6.245,0.114-6.245H263.675z"/>
						<path style="fill:#AE8B76;" d="M263.675,272.619c-23.616,0.073-111.564,0.684-111.564,2.484c0,1.8,10.142,3.471,111.564,3.471
							c101.424,0,111.564-1.67,111.564-3.471C375.24,273.303,287.292,272.691,263.675,272.619z"/>
					</g>
				</g>
				<g>
					<g>
						<path style="fill:#F3F3F3;" d="M293.771,274.081c0,1.277-7.404,2.312-16.539,2.312c-9.134,0-16.539-1.035-16.539-2.312
							c0-1.277,7.405-2.313,16.539-2.313C286.366,271.768,293.771,272.803,293.771,274.081z"/>
						<ellipse style="fill:#D7D7D7;" cx="277.231" cy="273.802" rx="11.59" ry="1.455"/>
					</g>
					<g>
						<g>
							<path style="fill:#FBFBFB;" d="M277.232,256.423c-8.27,0-12.658,1.279-12.658,1.279c0,2.983,2.869,11.082,4.725,12.573
								c1.857,1.492,4.32,2.373,7.934,2.373c3.614,0,6.076-0.881,7.934-2.373c1.855-1.491,4.725-9.59,4.725-12.573
								C289.89,257.702,285.501,256.423,277.232,256.423z"/>
						</g>
						<path style="fill:#EEEEEE;" d="M264.857,258.018c0,0.462,5.541,0.836,12.375,0.836c6.835,0,12.375-0.374,12.375-0.836
							c0-0.462-5.54-1.265-12.375-1.265C270.397,256.753,264.857,257.556,264.857,258.018z"/>
						<g>
							<path style="fill:#FBFBFB;" d="M286.245,269.996c-0.814,0-1.326-0.126-1.377-0.139l0.274-1.181
								c0.024,0.006,2.6,0.615,5.498-1.27c1.753-1.14,2.918-2.803,3.042-4.339c0.07-0.872-0.215-1.631-0.824-2.197
								c-1.691-1.569-3.82,0.191-3.842,0.208l-0.725-0.948c1-0.842,3.4-1.961,5.332-0.171c0.883,0.819,1.314,1.958,1.212,3.211
								c-0.154,1.913-1.528,3.932-3.587,5.271C289.271,269.726,287.436,269.996,286.245,269.996z"/>
						</g>
						<g>
							<path style="fill:#EEEEEE;" d="M277.232,271.397c-6.71,0-10.242-5.976-11.195-7.36c0.977,2.773,2.254,5.444,3.242,6.238
								c1.117,0.897,1.799,1.481,2.172,1.808c-1.147,0.259-1.844,0.594-1.844,0.962c0,0.817,3.414,1.479,7.625,1.479
								c4.211,0,7.625-0.662,7.625-1.479c0-0.368-0.697-0.703-1.843-0.962c0.372-0.327,1.056-0.911,2.171-1.808
								c0.989-0.794,2.266-3.465,3.242-6.238C287.475,265.421,283.941,271.397,277.232,271.397z"/>
						</g>
					</g>
				</g>
				<g>
					<path style="fill:#F3F3F3;" d="M199.437,274.748c0,1.277-7.404,2.312-16.539,2.312c-9.134,0-16.539-1.035-16.539-2.312
						c0-1.277,7.405-2.313,16.539-2.313C192.033,272.435,199.437,273.47,199.437,274.748z"/>
					<path style="fill:#D7D7D7;" d="M194.488,274.469c0,0.803-5.189,1.454-11.59,1.454s-11.59-0.651-11.59-1.454
						c0-0.803,5.189-1.455,11.59-1.455S194.488,273.665,194.488,274.469z"/>
				</g>
			</g>
			<g>
				<path style="fill:#433431;" d="M364.248,342.41c0.291,10.119,1.059,34.914,1.827,43.365c0.974,10.72,6.334,37.031,7.796,42.391
					c1.289,4.725,2.436,7.797-2.436,7.309c-4.872-0.486-5.847-1.461-8.771-9.744s-7.052-29.76-8.771-40.93
					c-1.519-9.874-2.446-32.769-2.781-42.391H364.248z"/>
				<g>
					<g>
						<path style="fill:#323D67;" d="M340.48,403.648c0,0,0.32,2.916-0.156,6.303c-0.393,2.791-1.68,5.803-3.446,9.09
							c-1.629,3.029-4.326,4.949-6.936,9.531c-2.009,3.531,0.229,7.428,3.623,8.637c6.298,2.248,16.549-4.393,19.727-10.453
							c3.084-5.877,7.114-8.992,10.485-10.893c3.373-1.898,5.801-7.34,2.231-11.508c-1.417-1.657-3.796-3.825-6.404-6.257
							c-3.083-2.88-5.331-5.436-5.331-5.436L340.48,403.648z"/>
						<path style="fill:#DBA990;" d="M345.303,419.346c4.985-4.641,7.61-10.572,11.229-14.623c1.987-2.226,3.399-4.154,3.211-6.497
							c-0.046-0.043-0.091-0.084-0.139-0.127c-3.083-2.88-5.331-5.436-5.331-5.436l-13.793,10.986c0,0,0.32,2.916-0.156,6.303
							c-0.393,2.791-1.68,5.803-3.446,9.09c-0.31,0.576-0.657,1.109-1.036,1.631C337.079,422.691,341.131,423.227,345.303,419.346z"
							/>
					</g>
					<path style="fill:#212A3F;" d="M309.365,320.975c-6.364,0.074-10.093,2.04-11.104,13.103
						c-1.012,11.065,22.009,49.844,25.328,57.264c3.316,7.42,6.849,15.63,6.849,15.63s8.71,0.242,15.368-3.559
						c6.659-3.801,13.208-11.288,13.208-11.288s-17.539-35.212-21.73-42.302c-4.189-7.09-13.148-20.827-13.148-20.827
						S315.73,320.903,309.365,320.975z"/>
				</g>
				<g>
					<g>
						<path style="fill:#43528B;" d="M308.792,416.387c0,0-0.293,2.922-1.461,6.135c-0.963,2.648-2.848,5.33-5.257,8.178
							c-2.221,2.627-5.257,3.943-8.762,7.887c-2.697,3.033-1.316,7.311,1.753,9.199c5.695,3.506,17.101-0.863,21.467-6.133
							c4.235-5.111,8.823-7.322,12.517-8.48c3.693-1.158,7.198-5.977,4.569-10.797c-1.043-1.91-2.92-4.527-4.965-7.447
							c-2.42-3.459-4.088-6.426-4.088-6.426L308.792,416.387z"/>
						<path style="fill:#F5AA8A;" d="M310.252,432.742c5.841-3.504,9.638-8.76,14.019-11.973c2.406-1.766,4.186-3.359,4.489-5.689
							c-0.036-0.051-0.072-0.102-0.108-0.152c-2.42-3.459-4.088-6.426-4.088-6.426l-15.772,7.885c0,0-0.293,2.922-1.461,6.135
							c-0.963,2.648-2.848,5.33-5.257,8.178c-0.421,0.498-0.873,0.949-1.35,1.381C301.514,434.313,305.368,435.674,310.252,432.742z
							"/>
					</g>
					<path style="fill:#344163;" d="M295.502,329.061c-6.241-1.249-10.295-0.099-13.581,10.515
						c-3.284,10.613,11.192,53.325,12.898,61.272c1.707,7.948,3.459,16.709,3.459,16.709s8.469,2.045,15.771-0.293
						c7.3-2.336,15.26-8.301,15.26-8.301s-9.852-38.086-12.48-45.89c-2.629-7.805-8.542-23.101-8.542-23.101
						S301.743,330.308,295.502,329.061z"/>
				</g>
				<path style="fill:#433431;" d="M413.827,400.804c0.973,10.72,6.332,37.031,7.795,42.392c1.287,4.724,2.435,7.796-2.438,7.308
					c-4.873-0.486-5.844-1.461-8.768-9.745c-2.925-8.283-7.054-29.758-8.772-40.928c-1.949-12.67-2.924-46.777-2.924-46.777h13.157
					C411.878,353.053,412.853,390.084,413.827,400.804z"/>
				<path style="fill:#433431;" d="M325.291,408.304c0.975-10.72,1.949-47.751,1.949-47.751h13.155c0,0-0.975,34.107-2.924,46.777
					c-1.719,11.17-5.847,32.645-8.77,40.928c-2.924,8.284-3.898,9.259-8.771,9.745c-4.872,0.488-3.725-2.584-2.436-7.308
					C318.956,445.335,324.316,419.023,325.291,408.304z"/>
				<path style="fill:#433431;" d="M289.721,390.275c0.77-8.452,1.537-33.247,1.828-43.365h13.135
					c-0.336,9.622-1.262,32.517-2.781,42.391c-1.719,11.17-5.847,32.646-8.771,40.93c-2.923,8.283-3.897,9.258-8.771,9.744
					c-4.873,0.488-3.725-2.584-2.436-7.309C283.387,427.307,288.746,400.995,289.721,390.275z"/>
				<path style="fill:#563E3E;" d="M409.624,361.932c-4.628,3.232-72.135,1.268-72.135,1.268s-11.044,0-24.688-5.197
					c-13.644-5.198-22.089-8.446-22.089-8.446s-8.445-5.197,8.445-7.146c16.893-1.949,74.063,0.649,74.063,0.649
					s16.903,1.872,27.403,6.872S414.251,358.7,409.624,361.932z"/>
				<path style="fill:#344163;" d="M332.595,311.936c0,0-48.046,8.363-49.359,25.887c-0.988,13.175,4.389,8.109,14.889,7.109
					s29.068-1.852,41.041,0.719c8.993,1.932,34.82,3.746,36.461-7.492c1.643-11.238-1.641-22.477-6.239-26.223
					C364.787,308.19,332.595,311.936,332.595,311.936z"/>
				<g>
					<path style="fill:#43528B;" d="M397.579,323.803c0,0-1.802-26.948-1.752-31.104c0.104-8.572,2.533-29.805,2.19-46.877
						c-0.459-23.217-9.104-28.32-18.838-31.981c-9.732-3.661-24.534-0.876-31.105,0.876c-6.571,1.752-17.617,11.881-14.95,32.548
						c2.667,20.667,1.667,26.667,1.667,37.333c0,10.667-8.184,26.938-6.431,30.443c0.729,1.456,13.143,16.647,30.228,17.524
						C375.674,333.441,397.579,323.803,397.579,323.803z"/>
					<g>
						<g>
							<path style="fill:#F5AA8A;" d="M296.001,281.19c0,0-4.952-8.842-13.492-10.526c-8.543-1.686-15.879,3.96-15.914,4.599
								c-0.007,0.14-1.125,0.665-1.318,1.915c-0.195,1.249,0.44,1.625,0.44,1.625s-1.854,0.779-1.775,2.274
								c0.081,1.496,1.037,1.807,1.037,1.807s-1.501,2.522,0.197,2.769c1.47,0.215,2.203-0.393,3.719-0.538
								c1.914-0.181,4.08-0.014,5.536,0.291c2.6,0.543,3.717,3.811,6.787,4.272c4.982,0.749,9.78,0.844,11.926-0.7
								C295.291,287.435,296.001,281.19,296.001,281.19z"/>
							<path style="fill:none;stroke:#CB8469;stroke-linecap:round;stroke-linejoin:round;stroke-miterlimit:10;" d="
								M280.178,274.06c0,0-7.565-1.492-12.901,1.403"/>
							<path style="fill:none;stroke:#CB8469;stroke-linecap:round;stroke-linejoin:round;stroke-miterlimit:10;" d="
								M279.656,278.098c0,0-8.503-1.706-13.206,0.455"/>
							<path style="fill:none;stroke:#CB8469;stroke-linecap:round;stroke-linejoin:round;stroke-miterlimit:10;" d="
								M278.645,281.933c0,0-8.397-1.729-13.099,0.433"/>
						</g>
						<path style="fill:#F5AA8A;" d="M295.457,278.932l-3.53,10.09c0,0,13.863,3.243,28.197,1.91
							c14.333-1.333,23.267-2.762,26.333-9.333c3.066-6.571,6.209-34.486,5.333-45c-0.876-10.515-4.666-15.667-10.333-16.333
							c-5.667-0.667-10,12-11,21.333c-1,9.333-4.667,27.333-4.667,27.333s-12,3.333-16.667,4.667
							C304.457,274.932,295.457,278.932,295.457,278.932z"/>
					</g>
					<g>
						<path style="fill:#F5AA8A;" d="M351.416,197.795l-1.625,16.803c0,0,5,2.333,12,1.667c7-0.667,10.333-4.667,10.333-4.667
							l-3.459-14.843L351.416,197.795z"/>
						<g>
							<path style="fill:#F5AA8A;" d="M337.368,183.737c0.717-1.72,1.01-8.124,1.501-10.542
								c3.109-15.342,19.458-16.971,28.844-12.579c9.387,4.392,11.978,24.344,8.367,30.421c-3.609,6.08-13.126,10.451-17.356,12.157
								c-4.234,1.706-10.483,5.012-17.105,2.042c-3.53-1.586-4.028-10.774-4.533-11.276c-1.124-1.111-3.383-2.453-3.053-4.359
								C335.524,187.136,336.651,185.458,337.368,183.737z"/>
							<g>
								<path style="fill:#481609;" d="M342.758,182.561c-0.407-0.927-1.468-1.299-2.339-0.821
									c-0.869,0.482-1.254,1.653-0.849,2.579c0.407,0.922,1.47,1.292,2.336,0.814
									C342.779,184.654,343.162,183.483,342.758,182.561z"/>
								<g>
									<g>
										<path style="fill:#954331;" d="M344.66,180.349c0.156,0.012,0.279-0.047,0.392-0.15c0.125-0.115,0.166-0.307,0.124-0.467
											c-0.03-0.113-0.088-0.205-0.165-0.292c0.096,0.313,0.121,0.346,0.075,0.097c-0.029-0.103-0.081-0.191-0.156-0.267
											c-0.396-0.377-0.874-0.564-1.374-0.77c-1.305-0.537-2.916-0.665-4.278-0.31c-1.039,0.271-0.59,1.911,0.443,1.607
											c1.065-0.314,2.147-0.162,3.204,0.114c0.388,0.101,0.771,0.212,1.156,0.32c0.119,0.033,0.297,0.071,0.42,0.071
											c0.655,0-0.132-0.105-0.13-0.104c-0.041-0.156-0.083-0.312-0.124-0.467c-0.003,0.006-0.005,0.013-0.007,0.019
											c0.11-0.111,0.221-0.221,0.332-0.332c-0.013,0.005-0.025,0.011-0.038,0.016
											C344.057,179.635,344.111,180.305,344.66,180.349L344.66,180.349z"/>
									</g>
								</g>
							</g>
							<path style="fill:#954331;" d="M386.791,209.598c-2.333-4.667-2.31-12.31-1.625-22.446
								c0.464-6.861-1.112-11.855-2.181-14.373c-1.253-9.56-8.602-13.582-12.908-15.578c-4.477-2.076-13.816-4.718-25.202,2.317
								c-4.792,2.961-7.186,8.485-5.873,12.532c1.312,4.045,5.691,5.083,9.122,9.548c3.429,4.467,0.592,7.779,4.667,11.667
								c0.641,0.612,1.294,1.308,1.962,2.033c-0.208,1.312-0.795,3.996-2.296,5.967c-2.058,2.704-1.579,7.172-0.551,10.889
								c1.028,3.716,3.086,8.109,2.4,11.15c-0.686,3.04-4.517,9.628-1.517,15.628s7.667,10,13.667,7.667
								c6-2.333,10-5.333,15.333-6.333c5.333-1,11.986-3.857,13-10.334C395.805,223.455,389.124,214.265,386.791,209.598z"/>
							<path style="fill:#F5AA8A;" d="M350.096,188.227c0,0,1.695-6.962,6.361-2.962s-0.659,10.683-4.622,10.471
								C347.872,195.524,350.096,188.227,350.096,188.227z"/>
							<path style="fill:#FFFFFF;" d="M337.791,196.598c0,0,2.526-0.24,4.333-1c2.063-0.867,3.468-2.221,4-1.333
								c1,1.666,1,6.333-4.667,6.333C337.776,200.598,337.791,196.598,337.791,196.598z"/>
						</g>
					</g>
				</g>
				<path style="fill:#563E3E;" d="M410.624,361.932c8.445-1.949,8.074-14.974,8.725-32.515c0.648-17.541,6.494-59.77,9.744-72.113
					c3.25-12.343-5.147-14.425-10.395-15.592c-4.779-1.063-31.074,0.72-35.574,1.22s-12.856,2.491-15.5,5c-3.457,3.28-3,44-3,44
					l-5,62c0,0,0,9,17.5,8.5S410.624,361.932,410.624,361.932z"/>
				<g>
					<g>
						<path style="fill:#563E3E;" d="M350.624,355.537c0.136,0,0.136-0.211,0-0.211
							C350.488,355.326,350.488,355.537,350.624,355.537L350.624,355.537z"/>
					</g>
				</g>
				<path style="fill:#6E5550;" d="M359.807,351.665c2.335,0.16,4.664,0.376,6.993,0.59l4.824-59.823c0,0-0.457-40.72,3-44
					c2.644-2.509,11-4.5,15.5-5c3.458-0.384,19.779-1.524,29.324-1.55c-0.256-0.059-0.506-0.116-0.75-0.169
					c-4.779-1.063-31.074,0.72-35.574,1.22s-12.856,2.491-15.5,5c-3.457,3.28-3,44-3,44L359.807,351.665z"/>
			</g>
			<g>
				<g>
					<g>
						<g>
							<path style="fill:#FBFBFB;" d="M177.192,255.089c8.27,0,12.658,1.279,12.658,1.279c0,2.983-2.869,11.082-4.725,12.573
								c-1.857,1.492-4.32,2.373-7.934,2.373c-3.614,0-6.076-0.881-7.934-2.373c-1.855-1.491-4.725-9.59-4.725-12.573
								C164.534,256.369,168.923,255.089,177.192,255.089z"/>
						</g>
						<path style="fill:#EEEEEE;" d="M189.567,256.685c0,0.462-5.541,0.836-12.375,0.836c-6.835,0-12.375-0.374-12.375-0.836
							c0-0.462,5.54-1.265,12.375-1.265C184.026,255.419,189.567,256.222,189.567,256.685z"/>
						<g>
							<path style="fill:#FBFBFB;" d="M168.179,268.662c0.814,0,1.326-0.126,1.377-0.139l-0.274-1.181
								c-0.024,0.006-2.6,0.615-5.498-1.269c-1.753-1.14-2.918-2.803-3.042-4.339c-0.07-0.872,0.215-1.631,0.824-2.197
								c1.691-1.569,3.82,0.191,3.842,0.208l0.725-0.948c-1-0.842-3.4-1.961-5.332-0.171c-0.883,0.819-1.313,1.959-1.212,3.211
								c0.154,1.913,1.528,3.932,3.587,5.271C165.152,268.393,166.988,268.662,168.179,268.662z"/>
						</g>
						<g>
							<path style="fill:#EEEEEE;" d="M177.192,270.064c6.71,0,10.242-5.976,11.195-7.36c-0.977,2.773-2.254,5.444-3.242,6.238
								c-1.117,0.897-1.799,1.481-2.172,1.808c1.146,0.259,1.844,0.594,1.844,0.962c0,0.817-3.414,1.479-7.625,1.479
								c-4.211,0-7.625-0.662-7.625-1.479c0-0.368,0.697-0.703,1.843-0.962c-0.372-0.327-1.056-0.911-2.171-1.808
								c-0.989-0.794-2.266-3.465-3.242-6.238C166.949,264.088,170.482,270.064,177.192,270.064z"/>
						</g>
					</g>
					<path style="fill:#F5AA8A;" d="M109.95,249.085l0.074-26.583l-22.107,1.63c0,0-0.474,32.791,6.701,38.785
						c0,0,6.277-0.483,10.742-3.948C109.826,255.506,109.95,249.085,109.95,249.085"/>
					<path style="fill:#F5AA8A;" d="M95.011,263.324c8.303,6.407,48.825,8.852,48.825,8.852l1.657-11.918
						c0,0-24.022-13.811-29.679-16.073c-5.657-2.261-10.537-2.105-10.537-2.105s-6.353,1.612-8.684,5.198
						C94.262,250.865,89.895,259.375,95.011,263.324z"/>
					<g>
						<path style="fill:#F5AA8A;" d="M167.792,270.556c0.186-1.835-1.399-1.329-4.245-1.215c0.224-0.043,0.65-0.134,0.65-0.134
							s4.482-0.275,4.591-3.152c0.143-3.552-3.037-1.58-6.498-1.211c-0.221,0.025-0.453,0.038-0.698,0.04
							c0.72-0.102,1.406-0.219,2.009-0.354c3.392-0.738,4.671-2.218,4.271-3.273c-1.19-3.152-2.718-1.458-6.182-1.088
							c-1.401,0.149-3.335-0.166-5.135-0.592c0.487-0.347,1.215-0.679,2.146-0.525c3.056,0.504,5.471-1.736,4.477-3.011
							c-0.996-1.271-6.154-3.312-10.969-1.499c-4.817,1.811-9.798,1.197-12.206,5.652c-2.077,3.846-2.498,7.793-0.555,11.141
							c1.416,2.439,7.678,4.339,11.726,4.4c2.327,0.454,5.004,0.917,7.291,0.838c3.569-0.126,5.223-0.366,5.936-1.434
							c0.711-1.066,0.166-1.451-0.786-1.845c0.017-0.005,0.038-0.011,0.058-0.011C165.505,273.072,167.604,272.392,167.792,270.556z
							"/>
						<path style="fill:none;stroke:#CB8469;stroke-linecap:round;stroke-linejoin:round;stroke-miterlimit:10;" d="
							M155.452,264.263c0,0,3.295,0.655,6.839,0.581"/>
						<path style="fill:none;stroke:#CB8469;stroke-linecap:round;stroke-linejoin:round;stroke-miterlimit:10;" d="
							M153.998,268.936c0,0,5.638,1.438,10.199,0.271"/>
						<path style="fill:none;stroke:#CB8469;stroke-linecap:round;stroke-linejoin:round;stroke-miterlimit:10;" d="M153.164,272.79
							c0,0,4.931,1.934,10.508,0.494"/>
						<path style="fill:none;stroke:#CB8469;stroke-linecap:round;stroke-linejoin:round;stroke-miterlimit:10;" d="
							M153.553,258.933c0,0,3.35,1.344,6.809,1.515"/>
					</g>
				</g>
				<g>
					<path style="fill:#303A7D;" d="M112.788,198.805c0,0,2.302,31.003,0.101,34.593c-2.204,3.587-26.36,5.198-28.97,2.63
						c-2.61-2.567,0.563-5.157-0.337-15.524c-1.062-12.18,3.042-26.031,9.209-30.572
						C104.867,181.03,113.087,189.972,112.788,198.805z"/>
					<path style="fill:none;stroke:#5F6DA2;stroke-miterlimit:10;" d="M112.272,196.686c0,0,2.771,3.253,1.567,9.983
						c-1.202,6.731-3.179,13.389-2.862,16.921c0.32,3.532,2.271,8.03,1.275,9.806c-1.069,1.907-3.333,1.907-3.333,1.907"/>
					<path style="fill:none;stroke:#5F6DA2;stroke-miterlimit:10;" d="M107.805,226.182c0,0-11.353-3.36-18.495-3.77"/>
				</g>
			</g>
		</g>
	</g>
</g>
</svg>
