<?xml version="1.0" encoding="utf-8"?>
<!-- Generator: Adobe Illustrator 27.5.0, SVG Export Plug-In . SVG Version: 6.00 Build 0)  -->
<svg version="1.1" xmlns="http://www.w3.org/2000/svg" xmlns:xlink="http://www.w3.org/1999/xlink" x="0px" y="0px"
	 viewBox="0 0 750 500" style="enable-background:new 0 0 750 500;" xml:space="preserve">
<g id="BACKGROUND">
	<rect style="fill:#FFFFFF;" width="750" height="500"/>
</g>
<g id="OBJECTS">
	<g>
		<g>
			<path style="fill:#FFB29F;" d="M255.352,149.247c0,0,3.065-1.936,4.967-1.596c0.395-0.143,1.236-0.477,1.022-0.669
				c-0.277-0.249-1.009-0.98-0.936-1.2c0.073-0.221,0.809,0.368,1.875,0.551c1.066,0.184,1.36,0.404,1.617,0.809
				c0.257,0.404,1.185,0.578,1.185,0.578l-0.001,0c0.544-0.062,1-0.127,1.29-0.171c0.901-0.377,2.118-0.894,3.459-1.487
				c3.85-1.723,8.691-4.032,9.749-5.207c2.45-2.733,5.381-11.893,8.141-17.939c0.141-0.327,0.284-0.643,0.426-0.954
				c0.104-0.227,0.21-0.451,0.314-0.671c0.022-0.044,0.044-0.112,0.088-0.158c0.136-0.248,0.247-0.474,0.359-0.677
				c0-0.021,0.023-0.044,0.046-0.068c0.516-0.993,1.549-2.325,1.549-2.325c0.608-0.655,1.193-0.928,1.735-0.702
				c0,0,0.724,0.367,1.588,1.22c0.183,0.178,0.37,0.377,0.559,0.6c0.134,0.112,0.225,0.247,0.316,0.383
				c0.655,0.831,1.289,1.935,1.675,3.332c0.295,1.058,0.457,2.275,0.392,3.695c-0.086,2.322-1.228,5.232-2.866,8.167
				c-0.068,0.136-0.135,0.271-0.224,0.406c-3.144,5.53-7.978,11.064-10.925,12.874c-1.936,1.198-6.803,1.932-10.905,2.347
				c-1.735,0.19-3.341,0.316-4.536,0.401c-0.092,0.014-0.2,0.029-0.327,0.046c-1.031,0.19-3.154,0.605-5.175,1.257
				c-2.827,0.932-4.448-0.973-5.646-1.562C254.964,149.956,255.352,149.247,255.352,149.247z"/>
		</g>
		<g>
			<g>
				<path style="fill:#F4DBCD;" d="M248.704,235.442h55.084c0,0-27.311-80.718-26.72-92.584
					c0.591-11.883,14.246-70.049,14.246-70.049l-11.579-7.123l-30.856,24.627l-0.176-0.208"/>
			</g>
			<g>
				<rect x="177.754" y="50.634" style="fill:#E3C1BA;" width="71.566" height="200.391"/>
			</g>
			<g>
				<path style="fill:#714E55;" d="M249.32,234.722h-7.074v-1.769h7.074V234.722z M235.172,234.722h-7.074v-1.769h7.074V234.722z
					 M221.024,234.722h-7.074v-1.769h7.074V234.722z M206.876,234.722h-7.074v-1.769h7.074V234.722z M196.94,231.67l-1.679-0.56
					c0.532-1.591,1.302-3.896,2.245-6.742l1.679,0.556C198.242,227.774,197.472,230.08,196.94,231.67z M201.403,218.182
					l-1.682-0.549c0.691-2.11,1.427-4.369,2.195-6.742l1.682,0.546C202.829,213.809,202.094,216.072,201.403,218.182z
					 M205.772,204.682l-1.686-0.539c0.705-2.2,1.423-4.461,2.147-6.756l1.686,0.532
					C207.195,200.217,206.477,202.478,205.772,204.682z M210.038,191.147l-1.689-0.525c0.699-2.256,1.395-4.521,2.081-6.775
					l1.692,0.515C211.437,186.618,210.738,188.888,210.038,191.147z M214.166,177.563l-1.696-0.501
					c0.686-2.313,1.349-4.589,1.984-6.801l1.699,0.487C215.518,172.967,214.852,175.247,214.166,177.563z M218.069,163.909
					l-1.706-0.466c0.658-2.416,1.261-4.71,1.793-6.841l1.717,0.428C219.337,159.172,218.731,161.479,218.069,163.909z
					 M221.468,150.075l-1.734-0.352c0.584-2.877,0.881-5.003,0.881-6.321l-0.009-0.361l1.758-0.237
					c0.016,0.299,0.019,0.444,0.019,0.597C222.383,144.858,222.084,147.041,221.468,150.075z M219.712,135.977
					c-0.339-2.076-0.756-4.425-1.235-6.962l1.737-0.328c0.482,2.554,0.903,4.917,1.242,7.007L219.712,135.977z M217.124,122.067
					c-0.452-2.252-0.929-4.58-1.423-6.938l1.73-0.363c0.494,2.364,0.974,4.696,1.427,6.951L217.124,122.067z M214.23,108.202
					c-0.499-2.331-1.005-4.653-1.504-6.922l1.727-0.38c0.499,2.273,1.005,4.598,1.508,6.929L214.23,108.202z M211.194,94.362
					c-0.547-2.451-1.071-4.775-1.556-6.915l1.724-0.39c0.485,2.14,1.012,4.468,1.56,6.919L211.194,94.362z M249.267,92.678
					l-1.964-1.568l1.102-1.382l1.293,1.033l-0.383,0.482l0.68,0.577L249.267,92.678z M241.773,86.697l-5.528-4.413l1.102-1.382
					l5.528,4.413L241.773,86.697z M208.056,80.532c-0.865-3.758-1.402-6.05-1.402-6.052l-0.147-0.62l1.307-0.805l0.926,1.506
					l-0.219,0.137c0.214,0.92,0.658,2.826,1.259,5.437L208.056,80.532z M230.716,77.872l-5.53-4.413l1.102-1.382l5.53,4.413
					L230.716,77.872z M214.765,70.855l-0.926-1.506l5.1-3.138l1.82,1.454l-1.102,1.382l-0.85-0.677L214.765,70.855z"/>
			</g>
		</g>
		<g>
			<g>
				<g>
					<path style="fill:#FFFFFF;" d="M133.148,219.329l2.914,4.394c1.257,1.895,3.592,2.764,5.781,2.151
						c2.19-0.612,3.735-2.567,3.826-4.839l0.212-5.268L133.148,219.329z"/>
					<path style="fill:#FF5A19;" d="M140.422,226.954c-2.017,0-3.939-0.998-5.097-2.743l-3.587-5.406l15.076-4.217l-0.261,6.483
						c-0.105,2.663-1.903,4.936-4.471,5.654C141.531,226.88,140.973,226.954,140.422,226.954z M134.557,219.852l2.243,3.382
						c1.048,1.582,2.981,2.299,4.805,1.789c1.827-0.511,3.105-2.128,3.18-4.022l0.164-4.053L134.557,219.852z"/>
				</g>
				<g>
					
						<rect x="93.407" y="103.236" transform="matrix(0.963 -0.2694 0.2694 0.963 -24.8896 33.2395)" style="fill:#003650;" width="30.508" height="8.135"/>
				</g>
				<g>
					<path style="fill:#FFFFFF;" d="M149.414,197.291c0.006,0.217,0.005,0.435-0.006,0.65c-0.018,0.46-0.073,0.92-0.167,1.374
						c0,0.01-0.002,0.017-0.004,0.026l-3.356,16.425l-12.734,3.562l-11.391-12.3c-0.007-0.006-0.011-0.012-0.017-0.02
						c-0.315-0.339-0.601-0.703-0.857-1.089c-0.121-0.178-0.233-0.362-0.34-0.551L149.414,197.291z"/>
					<path style="fill:#FF5A19;" d="M132.866,220.324l-11.827-12.77c-0.326-0.357-0.629-0.744-0.895-1.148
						c-0.128-0.188-0.254-0.392-0.373-0.604l-0.554-0.981l31.044-8.684l0.036,1.128c0.007,0.238,0.005,0.48-0.007,0.72
						c-0.017,0.472-0.072,0.952-0.166,1.421l-0.021,0.109l-3.465,16.958L132.866,220.324z M122.455,206.483l10.974,11.848
						l11.694-3.271l3.247-15.896c0.048-0.237,0.086-0.466,0.112-0.694l-26.533,7.423c0.14,0.178,0.285,0.349,0.437,0.515
						L122.455,206.483z"/>
				</g>
				<g>
					<path style="fill:#FF2B4B;" d="M122.272,99.275l-29.385,8.22l-2.603-9.305c-1.135-4.057,1.234-8.266,5.291-9.401l14.692-4.11
						c4.057-1.135,8.266,1.234,9.401,5.291L122.272,99.275z"/>
				</g>
				<g>
					<path style="fill:#FFB200;" d="M104.874,112.592l25.208,90.107l0.393,1.411c-0.601,0.168-1.127,0.61-1.365,1.265l-1.04,2.872
						c-0.473,1.312-2.099,1.767-3.188,0.892l-3.999-3.22c-0.121-0.178-0.233-0.362-0.34-0.551c-0.359-0.631-0.643-1.31-0.84-2.015
						L95.079,115.33L104.874,112.592z"/>
				</g>
				<g>
					<path style="fill:#FFDA94;" d="M124.463,107.111l24.623,88.022c0.197,0.705,0.307,1.432,0.327,2.158
						c0.006,0.217,0.005,0.435-0.006,0.65l-1.747,4.826c-0.477,1.313-2.102,1.767-3.188,0.892l-2.379-1.915
						c-0.543-0.437-1.222-0.541-1.823-0.373l-0.393-1.411l-25.208-90.107L124.463,107.111z"/>
				</g>
				<g>
					<path style="fill:#FFCC5C;" d="M104.874,112.591l25.601,91.519c0.602-0.168,1.28-0.063,1.824,0.374l2.379,1.915
						c1.087,0.875,2.713,0.421,3.188-0.892l1.04-2.871c0.238-0.656,0.763-1.098,1.365-1.266l-25.601-91.519L104.874,112.591z"/>
				</g>
			</g>
			<g>
				<g>
					<path style="fill:#003650;" d="M162.137,90.815l-1.623-5.016c-0.7-2.163-2.714-3.629-4.988-3.629
						c-2.274,0-4.288,1.466-4.988,3.629l-1.623,5.016H162.137z"/>
				</g>
				<g>
					<path style="fill:#FFFFFF;" d="M170.794,209.363h-30.508v-8.135h30.508V209.363z"/>
					<path style="fill:#FF5A19;" d="M171.678,210.246h-32.277v-9.903h32.277V210.246z M141.17,208.478h28.74v-6.366h-28.74V208.478z
						"/>
				</g>
				<g>
					<path style="fill:#F7EEDC;" d="M140.536,107.656c0.052-0.211,0.113-0.42,0.181-0.624c0.141-0.439,0.318-0.866,0.531-1.278
						c0.003-0.01,0.006-0.016,0.011-0.024l7.657-14.914h13.223l7.657,14.914c0.005,0.008,0.008,0.014,0.011,0.024
						c0.212,0.412,0.39,0.839,0.532,1.28c0.068,0.204,0.127,0.412,0.179,0.622H140.536z"/>
				</g>
				<g>
					<path style="fill:#FFFFFF;" d="M140.27,209.36h30.513v9.662c0,4.213-3.415,7.628-7.628,7.628h-15.256
						c-4.213,0-7.628-3.415-7.628-7.628V209.36z"/>
					<path style="fill:#FF5A19;" d="M163.154,227.534h-15.255c-4.694,0-8.513-3.819-8.513-8.513v-10.545h32.281v10.545
						C171.666,223.715,167.848,227.534,163.154,227.534z M141.154,210.244v8.777c0,3.718,3.026,6.744,6.744,6.744h15.255
						c3.718,0,6.744-3.026,6.744-6.744v-8.777H141.154z"/>
				</g>
				<g>
					<path style="fill:#FFDA94;" d="M160.612,201.222l-0.002-93.566l0.002-1.465c0.624,0,1.25-0.284,1.655-0.851l1.775-2.485
						c0.809-1.136,2.498-1.136,3.31,0l2.984,4.178c0.068,0.204,0.127,0.412,0.179,0.622c0.176,0.705,0.266,1.435,0.266,2.167
						l0,91.401L160.612,201.222z"/>
				</g>
				<g>
					<path style="fill:#FFB200;" d="M140.27,201.224v-91.401c0-0.732,0.09-1.462,0.266-2.167c0.052-0.211,0.113-0.42,0.181-0.624
						l2.982-4.177c0.813-1.136,2.501-1.136,3.31,0l1.775,2.485c0.406,0.567,1.031,0.851,1.655,0.851l-0.002,1.465l0.002,93.566
						L140.27,201.224z"/>
				</g>
				<g>
					<path style="fill:#FFCC5C;" d="M160.612,201.223v-95.032c-0.625,0-1.25-0.284-1.655-0.852l-1.775-2.485
						c-0.811-1.136-2.499-1.136-3.311,0l-1.775,2.485c-0.406,0.568-1.03,0.852-1.655,0.852v95.032H160.612z"/>
				</g>
			</g>
			<g>
				<g>
					<rect x="94.317" y="140.644" style="fill:#F4DBCD;" width="87.051" height="110.381"/>
				</g>
				<g>
					<g>
						<path style="fill:#E3C1BA;" d="M115.176,250.947h-13.248v-79.11c0-3.658,2.966-6.624,6.624-6.624l0,0
							c3.658,0,6.624,2.966,6.624,6.624V250.947z"/>
					</g>
					<g>
						<path style="fill:#E3C1BA;" d="M144.466,250.947h-13.248v-79.11c0-3.658,2.966-6.624,6.624-6.624l0,0
							c3.658,0,6.624,2.966,6.624,6.624V250.947z"/>
					</g>
					<g>
						<path style="fill:#E3C1BA;" d="M173.757,250.947h-13.248v-79.11c0-3.658,2.966-6.624,6.624-6.624l0,0
							c3.658,0,6.624,2.966,6.624,6.624V250.947z"/>
					</g>
				</g>
			</g>
		</g>
		<g>
			<g>
				<g>
					<path style="fill:#003650;" d="M289.01,246.025l2.978,1.109c0,0,12.937-17.943,14.53-33.729
						c0.284-2.818,0.19-5.549-0.426-8.071c0,0,0.126-0.722,0.348-1.999c0.102-0.595,0.228-1.313,0.372-2.135
						c0.421-2.41,0.999-5.707,1.661-9.462c1.522-8.639,3.494-19.685,5.026-27.803l-0.802-0.258l-8.684-2.802l-1.794-5.7
						l-6.466-1.702c0,0-1.444,2.825-2.736,16.173c-0.238,1.751-0.454,3.682-0.617,5.775c-0.504,6.391-0.54,14.318,0.615,23.381
						c0.296,2.319,0.671,4.715,1.136,7.176c0.34,1.805,0.391,4.263,0.248,7.086C293.746,225.969,289.01,246.025,289.01,246.025z"/>
				</g>
				<g>
					<path style="fill:#003650;" d="M298.576,157.056l0.325-2.788c5.445,1.446,19.995-4.042,19.995-4.042s5.275,4.637,4.583,15.753
						c-0.338,5.425-0.956,28.479-1.6,35.302c-0.233,2.473-0.438,4.232-0.521,4.935c-0.002,0.003-0.002,0.005-0.002,0.007
						c-0.026,0.215,0.049,0.417,0.158,0.604c0.95,1.612,1.736,3.289,2.381,5.006c6.33,16.869-0.975,37.644-0.975,37.644
						l-1.896-0.764c0,0-4.157-23.119-7.535-33.332c-0.573-1.733-1.123-3.094-1.627-3.907c-1.469-2.37-2.832-6.243-4.069-10.85
						c-2.338-8.709-4.22-20.039-5.473-28.784C302.148,171.847,298.576,157.056,298.576,157.056z"/>
				</g>
				<g>
					<path style="fill:#006A99;" d="M311.898,251.026h15.001c0,0,0.36-2.286-0.424-4.021c-0.75-1.665-1.926-2.421-1.645-4.435
						c-0.953,0.982-2.507,2.081-4.675,1.789c-0.266,0.431-1.715,2.737-2.603,3.374C316.571,248.437,312.2,248.186,311.898,251.026z"
						/>
				</g>
				<g>
					<path style="fill:#006A99;" d="M279.688,251.026h15.001c0,0,0.561-2.393-0.424-4.021c-0.872-1.441-0.537-2.261,0.108-3.453
						c-0.68,0.278-1.559,0.531-2.527,0.476c-0.747-0.043-1.538-0.382-2.231-0.785c-0.646,0.736-3.41,3.869-4.274,4.49
						C284.362,248.437,279.99,248.186,279.688,251.026z"/>
				</g>
			</g>
			<g>
				<g>
					<path style="fill:#006A99;" d="M293.848,123.228c1.578,1.03,3.543,1.861,5.995,2.354c9.191,1.852,12.473-5.964,13.638-11.299
						c-1.266-0.678-2.441-0.802-3.121-0.863c-0.662-0.059-1.358-0.091-1.933-0.104c-0.592-0.742-1.235-1.694-1.786-2.87
						c-1.28-2.734-1.409-5.278-1.355-6.794c-2.524,1.019-5.048,2.037-7.572,3.056c0,0,0.394,2.278,0.617,4.436
						c0.172,1.689,0.238,3.305-0.072,3.71c-0.558,0.138-0.893,0.227-0.893,0.227s0,0.002-0.003,0.007
						C297.272,115.247,295.281,118.74,293.848,123.228z"/>
				</g>
				<g>
					<path style="fill:#005177;" d="M297.715,106.708c0,0,0.395,2.276,0.617,4.436c0.753-0.177,2.817-0.768,4.534-2.694
						c1.574-1.766,1.983-3.676,2.106-4.456C302.553,104.899,300.134,105.803,297.715,106.708z"/>
				</g>
				<g>
					<path style="fill:#006A99;" d="M288.145,121.963c0.104-0.227,0.21-0.451,0.314-0.671c0.022-0.044,0.044-0.112,0.088-0.158
						c0.136-0.248,0.247-0.474,0.359-0.677c0-0.021,0.023-0.044,0.046-0.068c0.516-0.993,1.549-2.325,1.549-2.325
						c0.364-0.392,0.722-0.739,1.067-0.907c-0.001,0-0.001-0.001-0.002-0.001c0,0,1.6-1.106,5.787-2.07
						c-0.094,0.212-2.658,6.093-2.235,7.481c0.447,1.412,12.892-1.153,13.692-2.023c0.635-0.706,1.247-4.87,1.459-6.469
						c0.071-0.4,0.094-0.659,0.094-0.659s4.494,0.047,6.846,1.411c0,0-1.294,2-2,4.282c-0.071,0.236-0.118,0.447-0.189,0.659
						c-0.094,0.47-0.188,0.941-0.235,1.412c-0.047,0.612,0.189,1.2,0.612,1.811c0.4,0.541,0.941,1.129,1.576,1.741
						c0.4,0.4,0.847,0.823,1.294,1.27c-0.118,0.988-0.306,2.165-0.494,3.529c-0.376,2.47-0.776,5.505-0.894,8.705
						c-0.047,1.247,0.188,2.47,0.682,3.623c0.188,0.447,0.423,0.894,0.706,1.294c2.188,3.317,5.952,9.834,4.423,13.316
						c-0.141,0.847-2.118,1.506-4.964,1.953c-8.493,1.365-24.891,0.847-24.02-1.906c0,0-1.294-21.574-2.917-26.961
						c-0.047-0.188-0.094-0.4-0.141-0.588c-0.417-1.91-0.106-3.758,0.343-5.427C290.165,122.759,288.928,122.237,288.145,121.963z"
						/>
				</g>
				<g>
					<g>
						<path style="fill:#FFB29F;" d="M283.961,159.073c3.367-0.493,20.602-5.207,22.087-6.356c1.194-0.773,4.81-3.963,8.295-10.771
							c0.484-0.939,0.942-1.882,1.396-2.798c1.638-3.413,3.007-6.799,3.91-9.747c0.558-1.756,0.969-3.367,1.144-4.706
							c0.069-0.473,0.135-0.919,0.147-1.343c0.02-0.243,0.036-0.482,0.047-0.713c-1.321-1.165-4.372-3.343-8.542-3.133
							c-0.088,0.148-0.174,0.298-0.261,0.451c-1.81,3.265-9.058,24.586-9.442,25.428c-0.354,0.778-15.233,8.628-18.972,10.31
							C282.216,156.405,283.961,159.073,283.961,159.073z"/>
					</g>
					<g>
						<path style="fill:#006A99;" d="M308.384,127.071c6.241-2.825,12.233,0.684,12.233,0.684
							c2.233-11.971-4.822-13.537-4.822-13.537C314.323,113.447,306.253,121.189,308.384,127.071z"/>
					</g>
				</g>
				<g>
					<path style="fill:#FFB29F;" d="M283.77,155.695c0,0-1.478-0.502-2.122-0.831c-0.644-0.33-1.984-0.012-2.963-0.186
						c-0.978-0.174-1.097,0.194-0.759,0.465c0.339,0.271,1.783,0.66,2.011,0.946c0.229,0.285-2.882,0.558-4.352,0.083
						c-1.47-0.474-1.589-0.229-1.061,0.834c0.529,1.064,2.99,3.117,4.637,3.04c1.648-0.077,4.799-0.973,4.799-0.973L283.77,155.695z
						"/>
				</g>
			</g>
			<g>
				<g>
					<path style="fill:#003650;" d="M304.963,86.461c0.101-0.492,0.318-1.175,0.831-1.801c1.47-1.792,4.707-2.317,6.925-0.764
						c1.469,1.029,2.227,2.785,2.169,4.427c-0.063,1.797-1.111,4.18-2.805,4.35c-0.448,0.045-0.941-0.056-1.382-0.199
						c0.168,0.336,0.442,0.932,0.656,1.709c1.131,4.116-0.523,9.315-3.339,10.598c0,0-0.167,0.076-2.567,0.959
						c-1.999-0.488-10.513-2.739-13.228-8.496c-0.551-1.169-1.491-3.162-0.589-4.971c0.786-1.578,2.535-2.138,3.147-2.304
						c0.663-0.58,1.48-1.188,2.469-1.734C300.296,86.554,303.276,86.401,304.963,86.461z"/>
				</g>
				<g>
					<path style="fill:#FFB29F;" d="M296.672,107.986c3.966,1.186,9.227-3.142,8.955-5.913c-0.145-1.478-1.802-1.878-4.49-4.435
						c-2.439-2.32-3.919-4.696-4.762-6.266c-0.65,0.116-1.885,0.439-2.846,1.47c-0.668,0.716-1.249,1.822-1.299,4.058
						C292.194,98.512,292.015,106.594,296.672,107.986z"/>
				</g>
			</g>
		</g>
	</g>
	<g>
		<g>
			<g>
				<g>
					<g>
						<rect x="269.405" y="396.604" style="fill:#FF2B4B;" width="44.712" height="56.701"/>
					</g>
					<g>
						<polygon style="fill:#FFCC5C;" points="314.118,396.604 269.405,396.604 266.446,385.499 317.076,385.499 						"/>
					</g>
					<g>
						<polygon style="fill:#FFCC5C;" points="314.118,453.305 269.405,453.305 266.446,464.41 317.076,464.41 						"/>
					</g>
				</g>
				<g>
					<g>
						<path style="fill:#A03850;" d="M313.899,454.027l-44.712-11.314c-0.392-0.098-0.667-0.453-0.667-0.857
							c0-0.404,0.275-0.758,0.667-0.857l41.325-10.457l-41.325-10.456c-0.392-0.098-0.667-0.452-0.667-0.857
							s0.275-0.758,0.667-0.857l41.325-10.457l-41.325-10.456l0.435-1.713l44.712,11.312c0.392,0.098,0.667,0.452,0.667,0.857
							c0,0.404-0.275,0.758-0.667,0.857l-41.325,10.457l41.325,10.456c0.392,0.098,0.667,0.453,0.667,0.857
							c0,0.404-0.275,0.758-0.667,0.857l-41.325,10.457l41.325,10.457L313.899,454.027z"/>
					</g>
				</g>
			</g>
			<g>
				<g>
					<g>
						<path style="fill:#B9425D;" d="M224.519,464.309c-33.278-0.152-66.556-0.304-99.834-0.456
							c7.056-49.557,14.111-99.114,21.167-148.671c1.653-1.673,5.446-5.089,11.131-6.7c3.13-0.887,5.809-0.937,7.652-0.809
							c1.488,7.306,3.453,15.211,6.064,23.536c2.716,8.659,5.721,16.467,8.76,23.406c5.573-7.169,12.129-14.899,19.781-22.851
							c9.61-9.987,19.001-18.303,27.531-25.131c2.405,0.57,4.898,1.226,7.465,1.982c2.153,0.634,4.214,1.297,6.181,1.976
							c-1.429,6.884-3.393,17.322-4.962,30.059c-0.555,4.504-1.647,14.065-2.641,36.383c-2.391,53.711-4.317,69.402-5.889,76.916
							C225.998,458.38,225.113,461.985,224.519,464.309z"/>
					</g>
					<g>
						<g>
							<g>
								<g>
									
										<rect x="161.37" y="456.655" transform="matrix(-1 -1.224647e-16 1.224647e-16 -1 403.433 919.9996)" style="fill:#FFFFFF;" width="80.693" height="6.69"/>
									<path style="fill:#FF5A19;" d="M242.948,464.229h-82.462v-8.459h82.462V464.229z M162.254,462.461h78.925v-4.922h-78.925
										V462.461z"/>
								</g>
								<g>
									
										<rect x="197.326" y="302.377" transform="matrix(-1 -1.224647e-16 1.224647e-16 -1 403.433 759.0317)" style="fill:#FFFFFF;" width="8.78" height="154.278"/>
									<path style="fill:#FF5A19;" d="M206.99,457.539h-10.549V301.493h10.549V457.539z M198.21,455.77h7.012V303.262h-7.012
										V455.77z"/>
								</g>
							</g>
							<g>
								<path style="fill:#714E55;" d="M252.412,355.607c1.306,10.868-1.418,18.965-2.755,25.984
									c-1.856,9.746-4.311,20.283-6.35,30.062h-83.296c-1.581-18.437-3.162-36.874-4.743-55.311
									c-2.72-0.524-5.44-1.048-8.16-1.572c-2.651-12.918-5.303-25.837-7.955-38.755l-0.017-0.058c0,0,7.749-3.229,17.436-6.184
									c0.05-0.008,0.1-0.033,0.142-0.042c3.329-1.015,6.875-1.989,10.412-2.796c3.671-0.832,7.349-1.482,10.736-1.781
									c9.471-0.824,9.971-22.322,9.971-22.322s3.853-1.723,13.117-1.448c5.768,0.167,11.485,1.448,11.485,1.448
									s0,17.004,7.957,20.541c4.095,1.823,11.877,5.152,19.509,8.381c0.25,0.108,0.508,0.216,0.766,0.325l2.513,1.065
									c1.099,0.466,2.197,0.932,3.263,1.373c0.524,0.225,1.049,0.449,1.565,0.666l2.522,1.065l0.17,0.072
									c7.056,2.978,10.711,10.916,8.199,18.151c-2.8,8.064-7.412,15.727-7.412,15.727
									C251.768,351.459,252.137,353.327,252.412,355.607z"/>
							</g>
							<g>
								<path style="fill:#5B3E43;" d="M149.993,335.456c1.83,10.759,0.141,19.48-3.771,19.48c-3.912,0-8.567-8.722-10.396-19.48
									c-1.829-10.759-0.141-19.48,3.771-19.48C143.509,315.976,148.163,324.698,149.993,335.456z"/>
							</g>
						</g>
					</g>
					<g>
						<path style="fill:#FF2B4B;" d="M247.194,393.408c2.016,23.681,4.032,47.361,6.048,71.041
							c-33.496-0.159-66.973-0.336-100.469-0.495c0.389-51.128,0.796-102.238,1.185-153.366c1.327-0.978,3.456-2.305,6.342-3.17
							c3.236-0.97,6.03-0.942,7.753-0.791c4.846,4.262,9.975,9.125,15.209,14.59c3.148,3.289,6.314,6.809,9.497,10.54
							c6.756,7.958,12.45,15.687,17.225,22.849c3.82-6.932,7.693-14.732,11.389-23.397c1.256-2.971,2.423-5.871,3.52-8.719
							c1.981-5.164,3.696-10.116,5.182-14.82c1.857-0.124,4.527-0.071,7.551,0.813c5.5,1.609,8.913,5.023,10.381,6.703
							c1.167,11.672,2.317,23.344,3.484,35.016c0.884,3.626,1.609,7.888,1.804,12.663
							C253.861,376.2,250.129,386.935,247.194,393.408z"/>
					</g>
				</g>
			</g>
			<g>
				<path style="fill:#B9425D;" d="M224.893,322.491c-1.097,2.847-2.264,5.748-3.52,8.719c-3.696,8.666-7.569,16.465-11.389,23.397
					c-4.775-7.162-10.469-14.891-17.225-22.849c-3.183-3.732-6.349-7.251-9.497-10.54l20.639-6.137L224.893,322.491z"/>
			</g>
			<g>
				<g>
					<g>
						<g>
							<path style="fill:#FFFFFF;" d="M168.734,385.731h-24.982c-0.489,0-0.884-0.395-0.884-0.884c0-0.489,0.395-0.884,0.884-0.884
								h24.982c0.489,0,0.884,0.396,0.884,0.884C169.618,385.335,169.223,385.731,168.734,385.731z"/>
						</g>
					</g>
					<g>
						<path style="fill:#FFFFFF;" d="M168.965,388.797c-1.719,0.1-3.215-1.587-3.343-3.769c-0.127-2.182,1.163-4.032,2.882-4.132
							c1.719-0.1,3.215,1.587,3.343,3.769C171.974,386.847,170.683,388.697,168.965,388.797z"/>
					</g>
				</g>
				<g>
					<path style="fill:#FF2B4B;" d="M158.908,386.482h-4.649c0.008-1.09,0.017-2.18,0.025-3.27c1.541,0,3.082,0,4.624,0V386.482z"/>
				</g>
			</g>
			<g>
				<g>
					<g>
						<g>
							<path style="fill:#FFFFFF;" d="M168.734,414.25h-24.982c-0.489,0-0.884-0.396-0.884-0.884s0.395-0.884,0.884-0.884h24.982
								c0.489,0,0.884,0.395,0.884,0.884S169.223,414.25,168.734,414.25z"/>
						</g>
					</g>
					<g>
						<path style="fill:#FFFFFF;" d="M168.965,417.316c-1.719,0.1-3.215-1.587-3.343-3.769c-0.127-2.182,1.163-4.032,2.882-4.132
							c1.719-0.1,3.215,1.587,3.343,3.769C171.974,415.366,170.683,417.216,168.965,417.316z"/>
					</g>
				</g>
				<g>
					<path style="fill:#FF2B4B;" d="M158.908,415.001h-4.649c0.008-1.09,0.017-2.18,0.025-3.27c1.541,0,3.082,0,4.624,0V415.001z"/>
				</g>
			</g>
			<g>
				<g>
					<g>
						<g>
							<path style="fill:#FFFFFF;" d="M168.734,442.77h-24.982c-0.489,0-0.884-0.395-0.884-0.884c0-0.489,0.395-0.884,0.884-0.884
								h24.982c0.489,0,0.884,0.396,0.884,0.884C169.618,442.375,169.223,442.77,168.734,442.77z"/>
						</g>
					</g>
					<g>
						<path style="fill:#FFFFFF;" d="M168.965,445.836c-1.719,0.1-3.215-1.587-3.343-3.769c-0.127-2.182,1.163-4.032,2.882-4.132
							c1.719-0.1,3.215,1.587,3.343,3.769C171.974,443.886,170.683,445.736,168.965,445.836z"/>
					</g>
				</g>
				<g>
					<path style="fill:#FF2B4B;" d="M158.908,443.52h-4.649c0.008-1.09,0.017-2.18,0.025-3.27c1.541,0,3.082,0,4.624,0V443.52z"/>
				</g>
			</g>
			<g>
				<path style="fill:#FFB200;" d="M249.262,416.916l-19.704,34.129c-3.404,5.895,0.851,13.264,7.658,13.264h39.409
					c6.807,0,11.061-7.369,7.658-13.264l-19.704-34.129C261.175,411.021,252.666,411.021,249.262,416.916z"/>
			</g>
			<g>
				<path style="fill:#FFCC5C;" d="M261.184,451.356l-9.097-3.265c-2.594-0.931-3.942-3.789-3.011-6.383l0,0
					c0.931-2.594,3.789-3.942,6.383-3.011l9.097,3.265c2.594,0.931,3.942,3.789,3.011,6.383l0,0
					C266.636,450.939,263.778,452.287,261.184,451.356z"/>
			</g>
		</g>
		<g>
			<g>
				<g>
					<path style="fill:#003650;" d="M211.584,377.565l0.299-2.57c5.021,1.334,18.438-3.727,18.438-3.727s4.865,4.276,4.226,14.527
						c-0.311,5.003-0.881,26.262-1.476,32.553c-0.215,2.28-0.403,3.903-0.48,4.551c-0.002,0.003-0.002,0.005-0.002,0.006
						c-0.024,0.198,0.045,0.385,0.146,0.557c0.876,1.486,1.601,3.033,2.195,4.616c5.838,15.556-0.899,34.713-0.899,34.713
						l-1.748-0.705c0,0-3.834-21.319-6.949-30.737c-0.529-1.598-1.036-2.853-1.5-3.603c-1.354-2.186-2.611-5.757-3.752-10.005
						c-2.156-8.031-3.892-18.479-5.047-26.543C214.878,391.204,211.584,377.565,211.584,377.565z"/>
				</g>
				<g>
					<path style="fill:#003650;" d="M208.98,374.262c0,0-1.332,2.605-2.523,14.914c-0.22,1.615-0.419,3.395-0.569,5.326
						c-0.464,5.893-0.498,13.203,0.567,21.561c0.273,2.139,0.619,4.348,1.047,6.617c0.314,1.664,0.361,3.931,0.229,6.534
						c-0.601,11.9-4.969,30.394-4.969,30.394l2.746,1.023c0,0,11.93-16.546,13.398-31.103c0.262-2.599,0.175-5.117-0.392-7.442
						c0,0,0.117-0.666,0.321-1.843c0.213-1.232,0.331-1.898,0.343-1.969c0.191-1.094,0.904-6.475,2.666-20.555
						c0.988-1.807,2.131-4.358,2.837-7.564c0.527-2.395,0.672-4.531,0.664-6.245"/>
				</g>
				<g>
					<path style="fill:#006A99;" d="M223.869,464.219h13.833c0,0,0.332-2.108-0.391-3.708c-0.692-1.535-1.776-2.233-1.517-4.09
						c-0.879,0.905-2.311,1.919-4.311,1.649c-0.245,0.397-1.582,2.523-2.4,3.112C228.178,461.832,224.147,461.6,223.869,464.219z"/>
				</g>
				<g>
					<path style="fill:#006A99;" d="M194.167,464.219H208c0,0,0.517-2.207-0.391-3.708c-0.804-1.329-0.495-2.085,0.1-3.184
						c-0.627,0.257-1.437,0.49-2.33,0.439c-0.689-0.039-1.418-0.352-2.057-0.724c-0.596,0.679-3.145,3.568-3.941,4.141
						C198.477,461.832,194.445,461.6,194.167,464.219z"/>
				</g>
			</g>
			<g>
				<g>
					<path style="fill:#006A99;" d="M234.609,377.014c-5.329,4.143-28.333,2.644-26.729,0.054
						c0.925-12.106,1.85-24.213,2.775-36.319c1.838-0.633,3.676-1.266,5.514-1.9c0,0,0.31-0.071,0.839-0.195
						c0.728-0.671,0.489-7.378,0.471-7.516l6.835-1.998l0.405-0.124c-0.149,4.598,0.979,7.516,1.846,8.206
						c0.021,0.003,0.042,0.005,0.063,0.008c4.419,0.548,7.797,4.137,7.749,8.589c-0.055,5.03-0.066,10.126-0.03,15.285
						C234.384,366.492,234.473,371.795,234.609,377.014z"/>
				</g>
				<g>
					<path style="fill:#FFB29F;" d="M210.662,340.741c-0.354,3.873-0.69,7.728-1.026,11.584c-5.5-0.106-9.533-0.849-12.468-1.928
						c-3.696-1.362-5.712-3.237-6.897-5.076c-2.334-3.625-3.502-7.322-6.455-13.282c-0.424-0.867-1.326-2.653-2.423-4.28
						c-1.486-2.317-0.389-5.978,0.902-6.437c0,0,2.494,2.228,2.671,3.997c0.902,1.609,0.99-0.035,1.68-0.389
						c0.035,0.053,0.141,3.254-0.336,3.431c-0.283,0.336-0.212,1.203-0.212,1.203c0.265,0.725,0.99,2.458,2.423,4.439
						c1.415,1.98,3.537,4.174,6.632,5.783c1.539,0.796,3.095,1.326,4.563,1.662h0.018
						C205.198,342.634,209.743,341.078,210.662,340.741z"/>
				</g>
				<g>
					<path style="fill:#006A99;" d="M210.662,340.741c0.398,0.463,2.121,2.569,1.992,5.694c-0.144,3.471-2.465,5.54-2.863,5.883
						c-2.079,0.031-4.574-0.098-7.351-0.592c-1.98-0.352-3.745-0.827-5.272-1.328l2.546-8.949h0.018
						C205.198,342.634,209.743,341.078,210.662,340.741z"/>
				</g>
				<g>
					<polygon style="fill:#005177;" points="209.637,352.325 216.489,351.846 209.345,357.939 					"/>
				</g>
			</g>
			<g>
				<g>
					<path style="fill:#FFB29F;" d="M216.678,333.148c0,0,8.91-0.744,8.362-6.286c-0.549-5.542,0.232-9.37-5.481-9.129
						c-5.712,0.241-6.607,2.465-6.873,4.359C212.419,323.986,214.346,333.199,216.678,333.148z"/>
				</g>
				<g>
					<path style="fill:#003650;" d="M212.73,318.66c-0.089,0.03-2.181,0.779-2.469,2.574c-0.283,1.763,1.257,2.988,1.471,3.152
						c1.614,1.237,4.309,1.011,6.657-0.656c0.002,0.528,0.08,4.286,3.061,6.539c1.298,0.981,2.649,1.301,3.467,1.418
						c0.566-0.248,4.674-2.131,5.778-6.514c1.169-4.637-1.646-9.593-5.883-11.346c-2.976-1.231-6.966-1.019-9.695,1.345
						C213.747,316.36,213.067,317.766,212.73,318.66z"/>
				</g>
				<g>
					<path style="fill:#003650;" d="M236.001,317.722c0,2.74-2.221,4.962-4.962,4.962c-2.74,0-4.962-2.221-4.962-4.962
						c0-2.74,2.221-4.962,4.962-4.962C233.78,312.761,236.001,314.982,236.001,317.722z"/>
				</g>
				<g>
					<path style="fill:#FFB29F;" d="M219.52,323.912c0.942,0.544,1.139,1.967,0.44,3.179c-0.7,1.211-2.03,1.753-2.973,1.209
						c-0.942-0.544-1.139-1.967-0.439-3.179C217.247,323.909,218.578,323.368,219.52,323.912z"/>
				</g>
			</g>
		</g>
	</g>
	<g>
		<g>
			<path style="fill:#005177;" d="M448.997,122.255c0,0,0.633,3.156,1.911,6.968c2.408,4.661,5.107,9.313,6.831,11.814
				c0.726,1.058,1.28,1.731,1.565,1.859c1.861,0.837,7.014,0.419,7.014,0.419c0.334-0.48,0.614-0.974,0.846-1.475
				c1.767-3.808,0.746-7.889,0.712-8.02c-1.483,0.338-2.582,0.175-3.331-0.053c-2.301-0.7-3.819-2.786-7.81-11.783
				c-1.062-2.394-1.915-4.411-2.517-5.861C452.479,118.167,450.738,120.211,448.997,122.255z"/>
		</g>
		<g>
			<g>
				<rect x="495.871" y="82.286" style="fill:#A03850;" width="86.654" height="168.74"/>
			</g>
			<g>
				<g>
					<path style="fill:#D9F0FF;" d="M599.484,86.603l4.17-1.983l8.912,18.843l-76.2,36.584c-4.947-10.398-0.526-22.837,9.873-27.781
						L599.484,86.603z"/>
				</g>
				<g>
					<path style="fill:#FFFFFF;" d="M599.132,83.648l-20.696,2.534l10.052,82.506c11.429-1.399,19.559-11.8,18.157-23.229
						L599.132,83.648z"/>
				</g>
				<g>
					<g>
						<path style="fill:#006A99;" d="M555.025,58.368c1.347,10.984,11.215,18.845,22.168,17.775l1.242,10.039l20.696-2.534
							l-3.314-26.926l-0.405-3.299c-1.368-11.152-11.518-19.085-22.671-17.72C561.589,37.069,553.657,47.216,555.025,58.368
							L555.025,58.368z M573.824,44.523c6.251-0.765,11.94,3.681,12.707,9.932c0.767,6.25-3.679,11.938-9.931,12.703
							c-6.251,0.765-11.94-3.681-12.707-9.932C563.126,50.976,567.573,45.288,573.824,44.523L573.824,44.523z"/>
					</g>
				</g>
				<g>
					<g>
						<path style="fill:#006A99;" d="M611.135,104.15l9.14-4.334c4.969,9.82,16.896,13.935,26.89,9.183
							c10.147-4.824,14.459-16.96,9.632-27.106c-4.827-10.146-16.966-14.461-27.113-9.637l-3.001,1.427l-24.505,11.639
							L611.135,104.15z M633.576,80.306c5.687-2.704,12.491-0.286,15.197,5.402c2.706,5.687,0.288,12.489-5.399,15.193
							c-5.687,2.704-12.491,0.286-15.197-5.402C625.471,89.812,627.888,83.01,633.576,80.306L633.576,80.306z"/>
					</g>
				</g>
				<g>
					<path style="fill:#006A99;" d="M589.412,104.945c-1.684-0.925-2.299-3.041-1.374-4.725c0.925-1.684,3.041-2.299,4.725-1.374
						c1.684,0.925,2.299,3.041,1.374,4.725C593.211,105.255,591.096,105.87,589.412,104.945z"/>
				</g>
			</g>
			<g>
				<polygon style="fill:#B9425D;" points="642.115,251.026 529.07,251.026 602.829,82.286 642.115,82.286 				"/>
			</g>
			<g>
				<g>
					<path style="fill:#003650;" d="M510.157,82.286h-25.86v-9.208c0-1.877,1.522-3.399,3.4-3.399h19.061
						c1.878,0,3.399,1.522,3.399,3.399V82.286z"/>
				</g>
				<g>
					<path style="fill:#FF2B4B;" d="M523.845,244.669h-53.236c-3.053,0-5.528-2.475-5.528-5.528V87.814
						c0-3.053,2.475-5.528,5.528-5.528h53.236c3.053,0,5.528,2.475,5.528,5.528v151.326
						C529.373,242.194,526.898,244.669,523.845,244.669z"/>
				</g>
			</g>
			<g>
				<g>
					<g>
						<path style="fill:#003650;" d="M596.557,212.536h22.507v-8.111c0-2.285-1.852-4.137-4.136-4.137h-14.234
							c-2.284,0-4.136,1.852-4.136,4.137V212.536z"/>
					</g>
					<g>
						<rect x="451.424" y="209.792" style="fill:#FFB200;" width="162.198" height="41.234"/>
					</g>
					<g>
						<rect x="573.11" y="209.792" style="fill:#FFCC5C;" width="69.005" height="41.234"/>
					</g>
				</g>
				<g>
					<rect x="433.347" y="209.792" style="fill:#FF9000;" width="19.167" height="41.234"/>
				</g>
				<g>
					<g>
						<g>
							<rect x="558.79" y="209.791" style="fill:#FF9000;" width="3.537" height="13.475"/>
						</g>
					</g>
					<g>
						<g>
							<rect x="527.486" y="209.791" style="fill:#FF9000;" width="3.537" height="13.475"/>
						</g>
					</g>
					<g>
						<g>
							<rect x="496.181" y="209.791" style="fill:#FF9000;" width="3.537" height="13.475"/>
						</g>
					</g>
					<g>
						<g>
							<rect x="464.874" y="209.791" style="fill:#FF9000;" width="3.537" height="13.475"/>
						</g>
					</g>
				</g>
				<g>
					<g>
						<g>
							<rect x="621.4" y="209.791" style="fill:#FF9000;" width="3.537" height="13.475"/>
						</g>
					</g>
					<g>
						<g>
							<rect x="590.095" y="209.791" style="fill:#FF9000;" width="3.537" height="13.475"/>
						</g>
					</g>
				</g>
			</g>
		</g>
		<g>
			<g>
				<g>
					<path style="fill:#FFB29F;" d="M443.329,112.306c0,0,3.751,6.796,10.004,5.901c0,0,1.431-3.098,1.962-5.292
						c0.065-0.27,0.13-0.531,0.193-0.78c0.609-2.468,1.017-3.838,1.017-3.838s-0.002-0.001-0.005-0.003
						c-0.235-0.17-7.92-5.646-7.981-5.355C447.1,109.669,443.329,112.306,443.329,112.306z"/>
				</g>
				<g>
					<path style="fill:#FF876F;" d="M448.999,104.737c0.465,1.711,2.583,5.341,6.489,7.399c0.609-2.468,1.017-3.838,1.017-3.838
						s-0.002-0.001-0.005-0.003C456.279,108.177,448.86,104.232,448.999,104.737z"/>
				</g>
				<g>
					<path style="fill:#FFB29F;" d="M458.345,108.457c0,0-10.085,0.013-9.996-6.267c0.088-6.28-1.154-10.508,5.289-10.782
						c6.442-0.274,7.659,2.14,8.14,4.244C462.258,97.754,460.971,108.291,458.345,108.457z"/>
				</g>
				<g>
					<path style="fill:#003650;" d="M448.296,103.894c-1.847,0.59-5.618-3.178-6.217-7.424c-0.056-0.396-0.489-3.84,1.694-6.775
						c4.135-5.56,14.942-5.808,18.401-1.309c1.092,1.421,1.802,3.77,0.847,5.313c-1.295,2.091-5.569,2.57-10.548,0.385
						c0.15,0.195,1.759,2.35,0.91,4.175c-0.109,0.234-0.275,0.499-0.536,0.763c-0.808-1.124-2.051-1.639-3.069-1.319
						c-0.121,0.038-0.909,0.299-1.232,1.059c-0.382,0.898,0.043,2.128,1.147,2.911C449.348,103.162,448.817,103.728,448.296,103.894
						z"/>
				</g>
			</g>
			<g>
				<g>
					<path style="fill:#006A99;" d="M419.688,161.962c3.614,0.988,8.429,1.926,14.139,2.025c6.767,0.118,12.393-0.985,16.383-2.093
						c-1.849-8.182-1.077-14.267-0.013-18.334c2.17-8.298,7.087-14.064,5.555-22.846c-0.346-1.98-0.919-3.543-1.328-4.516
						c-3.044-1.112-6.089-2.224-9.133-3.335c-3.126-1.142-5.716,1.18-6.309,1.49c-4.544,2.378-6.457,7.036-7.509,9.747
						C426.077,137.99,420.133,160.281,419.688,161.962z"/>
				</g>
				<g>
					<path style="fill:#FFB29F;" d="M469.571,131.226c1.982-0.348,3.506-0.684,4.257-0.979c2.068-0.816,4.857-2.733,7.714-4.985
						c6.266-4.934,12.856-11.462,12.856-11.462c1.713-0.175,3.439-1.937,4.218-4.191c0.777-2.253,0.776-1.575,1.362-3.163
						c0.294-0.793-0.134-1.168-0.636-1.345c-0.54-0.191-1.142-0.129-1.652,0.132c-2.555,1.301-3.319,2.259-3.975,3.325
						c-0.048-0.44-0.188-0.789-0.376-0.913c-0.26-0.171-0.976,2.067-1.28,3.069c-1.962,2.306-8.631,5.426-13.755,7.586
						c-3.085,1.303-5.609,2.258-6.205,2.479c-0.485,0.18-2.65,0.039-5.429-0.243C468.075,123.864,469.349,127.743,469.571,131.226z"
						/>
				</g>
				<g>
					<path style="fill:#006A99;" d="M448.225,134.044c7.566-0.842,21.675-2.368,25.045-3.118c2.17-0.482,5.448-0.581,8.754-2.406
						c1.57-6.179-3.721-10.221-3.721-10.221c-3.085,1.303-5.609,2.258-6.205,2.479c-1.589,0.592-21.326-2.273-21.326-2.273
						s-7.85-1.463-10.465,2.24c-2.271,3.22-1.629,6.446-0.306,8.967C441.579,132.713,444.855,134.418,448.225,134.044z"/>
				</g>
				<g>
					<polygon style="fill:#005177;" points="453.53,134.095 448.699,126.157 450.989,140.938 					"/>
				</g>
			</g>
			<g>
				<g>
					<path style="fill:#003650;" d="M449.791,161.508c0,0-0.841,10.499-1.831,23.118c-1.344,17.143-2.961,38.201-3.121,42.19
						c-0.276,6.927-1.386,18.008-1.386,18.008c-4.824-0.018-9.648-0.035-14.472-0.053c-0.901-28.239-1.802-56.478-2.702-84.717
						L449.791,161.508z"/>
				</g>
				<g>
					<path style="fill:#004070;" d="M445.948,162.754c-7.34,18.704-14.809,37.489-22.407,56.352
						c-3.278,8.137-6.563,16.247-9.855,24.329c-2.064-0.728-4.189-1.522-6.367-2.388c-2.135-0.849-4.186-1.714-6.151-2.585
						c4.344-20.543,8.087-34.502,10.81-43.712c0.977-3.306,3.697-12.337,6.656-24.771c1.41-5.923,2.446-10.823,3.109-14.081
						L445.948,162.754z"/>
				</g>
				<g>
					<path style="fill:#006A99;" d="M440.586,244.823c0,0,12.876,3.287,13.323,6.156h-24.18l-0.295-6.156H440.586z"/>
				</g>
				<g>
					<path style="fill:#006A99;" d="M413.686,243.436c-0.225,0.7-0.414,1.703,0.02,2.611c1,2.089,5.058,1.044,6.416,3.31
						c0.368,0.613,0.42,1.251,0.42,1.628c-2.775,0.014-5.55,0.027-8.325,0.041c-4.387-2.258-8.775-4.515-13.162-6.773
						c0.704-1.93,1.408-3.86,2.112-5.79C405.341,240.121,409.514,241.778,413.686,243.436z"/>
				</g>
			</g>
		</g>
	</g>
	<g>
		<g>
			<g>
				<path style="fill:#E3C1BA;" d="M640.986,348.05v80.061h-53.745c-0.495-0.495-0.778-0.778-1.274-1.291
					c-3.944-11.778-7.87-23.574-11.814-35.353c-32.717-4.97-65.453-9.939-98.17-14.908V335.83h152.782
					C635.521,335.83,640.986,341.312,640.986,348.05z"/>
			</g>
			<g>
				<g>
					<g>
						<path style="fill:#E3C1BA;" d="M644.566,464.006h-215.54v-30.727c0-3.053,2.475-5.528,5.528-5.528h204.485
							c3.053,0,5.528,2.475,5.528,5.528V464.006z"/>
					</g>
				</g>
				<g>
					<path style="fill:#F4DBCD;" d="M585.999,333.492L585.999,333.492c-0.847,0-1.534-0.687-1.534-1.534v-17.315
						c0-0.847,0.687-1.534,1.534-1.534l0,0c0.847,0,1.534,0.687,1.534,1.534v17.315
						C587.533,332.805,586.846,333.492,585.999,333.492z"/>
				</g>
				<g>
					<rect x="581.25" y="329.766" style="fill:#714E55;" width="9.498" height="6.064"/>
				</g>
				<g>
					<g>
						<rect x="454.857" y="376.561" style="fill:#F4DBCD;" width="5.26" height="44.698"/>
					</g>
					<g>
						<path style="fill:#F4DBCD;" d="M464.355,407.306L464.355,407.306c-0.928,0-1.68-0.752-1.68-1.68v-27.383
							c0-0.928,0.752-1.68,1.68-1.68l0,0c0.928,0,1.68,0.752,1.68,1.68v27.383C466.035,406.553,465.283,407.306,464.355,407.306z"/>
					</g>
					<g>
						<path style="fill:#F4DBCD;" d="M466.916,421.734L466.916,421.734c0,0.886-0.719,1.605-1.605,1.605h-17.248v-0.037h-0.578
							l-1.37-3.243c-0.447-1.058,0.33-2.23,1.478-2.23h1.127c0.645,0,1.227,0.386,1.478,0.98l0.143,0.339
							c0.251,0.594,0.833,0.98,1.479,0.98h13.491C466.197,420.129,466.916,420.848,466.916,421.734z"/>
					</g>
					<g>
						<rect x="449.874" y="376.561" style="fill:#F4DBCD;" width="20.487" height="3.726"/>
					</g>
				</g>
				<g>
					<path style="fill:#F4DBCD;" d="M595.803,346.447h-17.694c-1.089,0-1.973-0.883-1.973-1.973l0,0c0-1.09,0.883-1.973,1.973-1.973
						h17.694c1.089,0,1.973,0.883,1.973,1.973l0,0C597.776,345.564,596.893,346.447,595.803,346.447z"/>
				</g>
				<g>
					<g>
						
							<ellipse transform="matrix(0.5997 -0.8002 0.8002 0.5997 -60.6178 639.3992)" style="fill:#714E55;" cx="608.776" cy="380.288" rx="14.904" ry="14.904"/>
					</g>
					<g>
						<rect x="607.891" y="365.383" style="fill:#F4DBCD;" width="1.768" height="7.124"/>
					</g>
				</g>
			</g>
			<g>
				<rect x="439.551" y="339.301" style="fill:#714E55;" width="6.882" height="31.036"/>
			</g>
			<g>
				<rect x="446.433" y="333.077" style="fill:#E3C1BA;" width="29.547" height="43.484"/>
			</g>
			<g>
				<path style="fill:#F4DBCD;" d="M574.154,391.467c-32.717-4.97-65.453-9.939-98.17-14.908v-8.79l97.71,14.201L574.154,391.467z"
					/>
			</g>
			<g>
				<g>
					<rect x="639.912" y="352.232" style="fill:#E3C1BA;" width="8.934" height="6.461"/>
				</g>
				<g>
					<path style="fill:#714E55;" d="M648.846,379.112L648.846,379.112c-3.039,0-5.503-2.464-5.503-5.503v-36.294
						c0-3.039,2.464-5.503,5.503-5.503l0,0c3.039,0,5.503,2.464,5.503,5.503v36.294
						C654.349,376.648,651.885,379.112,648.846,379.112z"/>
				</g>
			</g>
			<g>
				<path style="fill:#B9425D;" d="M660,427.757v24.069c0,6.72-5.465,12.185-12.185,12.185H543.596
					c-6.738,0-12.185-5.465-12.185-12.185c0-3.36,1.362-6.42,3.572-8.613c1.804-1.804,4.174-3.059,6.826-3.413
					c-5.889-0.867-10.399-5.925-10.399-12.044c0-3.378,1.362-6.42,3.572-8.613c2.193-2.211,5.253-3.572,8.613-3.572h104.218
					C654.535,415.572,660,421.019,660,427.757z"/>
			</g>
			<g>
				<path style="fill:#4F363B;" d="M644.567,452.705h-97.403v-1.768h97.403c1.886,0,3.42-1.535,3.42-3.421v-15.098
					c0-1.886-1.534-3.421-3.42-3.421h-97.403v-1.768h97.403c2.86,0,5.188,2.328,5.188,5.19v15.098
					C649.755,450.377,647.427,452.705,644.567,452.705z"/>
			</g>
			<g>
				<line style="fill:#FFFFFF;" x1="541.81" y1="439.801" x2="638.882" y2="439.801"/>
				<rect x="541.81" y="438.916" style="fill:#4F363B;" width="97.071" height="1.768"/>
			</g>
			<g>
				<g>
					
						<ellipse transform="matrix(0.2273 -0.9738 0.9738 0.2273 -96.6254 754.8846)" style="fill:#FFB200;" cx="427.35" cy="438.327" rx="25.679" ry="25.679"/>
				</g>
				<g>
					<circle style="fill:#B9425D;" cx="427.349" cy="438.327" r="8.451"/>
				</g>
				<g>
					<g>
						<path style="fill:#B9425D;" d="M430.279,421.26c0,1.618-1.311,2.929-2.929,2.929s-2.929-1.312-2.929-2.929
							s1.311-2.929,2.929-2.929S430.279,419.642,430.279,421.26z"/>
					</g>
					<g>
						<path style="fill:#B9425D;" d="M430.279,455.394c0,1.618-1.311,2.929-2.929,2.929s-2.929-1.311-2.929-2.929
							s1.311-2.929,2.929-2.929S430.279,453.777,430.279,455.394z"/>
					</g>
				</g>
				<g>
					<g>
						<path style="fill:#B9425D;" d="M441.489,428.33c-1.144,1.144-2.999,1.144-4.143,0c-1.144-1.144-1.144-2.999,0-4.143
							c1.144-1.144,2.999-1.144,4.143,0C442.633,425.331,442.633,427.186,441.489,428.33z"/>
					</g>
					<g>
						<path style="fill:#B9425D;" d="M417.352,452.467c-1.144,1.144-2.999,1.144-4.143,0c-1.144-1.144-1.144-2.999,0-4.143
							c1.144-1.144,2.999-1.144,4.143,0C418.496,449.468,418.496,451.323,417.352,452.467z"/>
					</g>
				</g>
				<g>
					<g>
						<path style="fill:#B9425D;" d="M444.417,441.256c-1.618,0-2.929-1.312-2.929-2.929s1.312-2.929,2.929-2.929
							c1.618,0,2.929,1.311,2.929,2.929S446.035,441.256,444.417,441.256z"/>
					</g>
					<g>
						<path style="fill:#B9425D;" d="M410.282,441.256c-1.618,0-2.929-1.312-2.929-2.929s1.311-2.929,2.929-2.929
							s2.929,1.311,2.929,2.929S411.9,441.256,410.282,441.256z"/>
					</g>
				</g>
				<g>
					<g>
						<path style="fill:#B9425D;" d="M437.347,452.467c-1.144-1.144-1.144-2.999,0-4.143c1.144-1.144,2.999-1.144,4.143,0
							c1.144,1.144,1.144,2.999,0,4.143C440.345,453.611,438.491,453.611,437.347,452.467z"/>
					</g>
					<g>
						<path style="fill:#B9425D;" d="M413.21,428.33c-1.144-1.144-1.144-2.999,0-4.143c1.144-1.144,2.999-1.144,4.143,0
							c1.144,1.144,1.144,2.999,0,4.143C416.208,429.474,414.354,429.474,413.21,428.33z"/>
					</g>
				</g>
			</g>
		</g>
		<g>
			<g>
				<g>
					<path style="fill:#006A99;" d="M556.377,447.406c-3.289,2.623-6.578,5.246-9.867,7.868c1.023,3.707,0.475,5.197-0.265,5.859
						c-1.083,0.968-3.095,0.561-3.629,1.814c-0.148,0.346,0,1.502,0,1.502h10.857c0.253-1.191,0.505-2.386,0.755-3.586
						c0.238-1.143,0.473-2.284,0.706-3.421c0.852-1.969,1.919-3.208,2.819-4.007c0.838-0.744,1.389-0.979,1.576-1.616
						C559.723,450.476,558.078,448.777,556.377,447.406z"/>
				</g>
				<g>
					<path style="fill:#006A99;" d="M504.457,457.322c3.633,0.051,7.266,0.101,10.899,0.152c0.56,1.584,1.302,3.57,0.909,4.716
						c-0.483,1.403-1.169,1.72-1.775,1.736c-4.796,0.126-17.569,0.297-21.226,0.345c-0.589,0.008-0.468-0.75-0.464-0.98
						c0.021-1.248,2.387-2.019,6.717-3.82C500.882,458.902,502.554,458.186,504.457,457.322z"/>
				</g>
				<g>
					<path style="fill:#003650;" d="M556.526,447.944c-3.339,2.444-6.677,4.887-10.016,7.331
						c-13.79-28.085-19.725-38.842-21.723-41.153c-0.126-0.146-0.617-1.234-1.489-2.516c-1.674-2.462-1.295-5.79,0.913-7.786
						c0.275-0.249,0.573-0.508,0.897-0.778c4.502-3.753,35.362-7.975,35.362-7.975l19.738,1.933
						c-3.023,3.177-8.507,8.115-16.729,11.61c-6.702,2.848-12.727,3.676-16.76,3.906
						C549.989,424.325,553.258,436.134,556.526,447.944z"/>
				</g>
				<g>
					<path style="fill:#004070;" d="M582.214,397.173c0,0,3.386,10.157-1.693,14.897c-5.079,4.74-27.426,4.23-37.357,4.23
						c-9.073,13.949-18.147,27.897-27.22,41.846c-4.721,0-9.442,0-14.164,0.001c3.145-5.698,7.767-14.383,12.883-25.274
						c7.846-16.704,8.239-20.262,13.455-25.016c8.68-7.912,19.925-9.299,31.148-10.684
						C568.852,395.99,576.866,396.516,582.214,397.173z"/>
				</g>
			</g>
			<g>
				<g>
					<path style="fill:#FFB29F;" d="M561.186,348.582c0,0-3.733,6.763-9.956,5.873c0,0-1.424-3.083-1.953-5.267
						c-0.065-0.269-0.129-0.529-0.192-0.776c-0.606-2.456-1.012-3.819-1.012-3.819s0.002-0.001,0.005-0.003
						c0.234-0.169,7.882-5.619,7.942-5.329C557.433,345.958,561.186,348.582,561.186,348.582z"/>
				</g>
				<g>
					<path style="fill:#FF876F;" d="M555.543,341.048c-0.463,1.703-2.57,5.315-6.458,7.363c-0.606-2.456-1.012-3.819-1.012-3.819
						s0.002-0.001,0.005-0.003C548.298,344.473,555.682,340.546,555.543,341.048z"/>
				</g>
				<g>
					<path style="fill:#FFB29F;" d="M547.384,346.703c0,0,9.826-2.043,8.46-8.142c-1.366-6.099-1.018-10.471-7.35-9.425
						c-6.331,1.046-7.025,3.646-7.064,5.793C541.391,337.076,544.793,347.077,547.384,346.703z"/>
				</g>
				<g>
					<path style="fill:#003650;" d="M556.243,338.671c1.919,0.198,4.825-4.24,4.543-8.499c-0.026-0.397-0.307-3.84-3.031-6.254
						c-5.161-4.573-15.738-2.611-18.191,2.476c-0.774,1.606-0.987,4.04,0.258,5.348c1.688,1.772,5.948,1.368,10.353-1.775
						c-0.106,0.221-1.234,2.647-0.035,4.253c0.154,0.205,0.369,0.43,0.677,0.634c0.558-1.259,1.664-2.015,2.72-1.911
						c0.126,0.012,0.947,0.106,1.416,0.78c0.555,0.797,0.392,2.082-0.524,3.069C555.068,338.172,555.702,338.615,556.243,338.671z"
						/>
				</g>
			</g>
			<g>
				<g>
					<path style="fill:#FFFFFF;" d="M502.293,374.111h19.332c1.219,0,2.051-1.234,1.594-2.364l-6.101-15.102
						c-0.263-0.65-0.893-1.076-1.594-1.076h-19.332c-1.219,0-2.051,1.233-1.595,2.364l6.101,15.102
						C500.961,373.686,501.592,374.111,502.293,374.111z"/>
				</g>
				<g>
					<path style="fill:#006A99;" d="M584.714,397.999c-3.596,0.983-8.389,1.917-14.071,2.015c-6.734,0.117-12.334-0.98-16.304-2.083
						c1.84-8.143,1.072-14.198,0.013-18.246c-2.159-8.258-7.053-13.997-5.528-22.736c0.344-1.97,0.915-3.526,1.322-4.494
						c3.03-1.107,6.059-2.213,9.089-3.319c3.111-1.136,5.689,1.174,6.279,1.483c4.523,2.367,6.426,7.002,7.473,9.7
						C578.355,374.142,584.27,396.326,584.714,397.999z"/>
				</g>
				<g>
					<path style="fill:#FFB29F;" d="M515.759,366.223c0.499,1.599,0.533,0.928,1.187,3.216c0.653,2.27,2.27,4.127,3.956,4.385
						c0,0,6.208,6.845,12.175,12.073c2.287,2.029,4.557,3.801,6.415,4.85c8.633,5.142,11.952-3.904,11.952-3.904l-8.926-4.97
						c-0.774-0.344-3.078-1.359-5.847-2.717c-4.987-2.425-11.453-5.882-13.276-8.272c-0.241-1.015-0.843-3.268-1.101-3.113
						c-0.189,0.103-0.361,0.447-0.43,0.877c-0.585-1.083-1.307-2.081-3.766-3.508c-0.499-0.292-1.083-0.378-1.634-0.224
						C515.948,365.071,515.501,365.415,515.759,366.223z"/>
				</g>
				<g>
					<path style="fill:#006A99;" d="M532.578,388.872c0,0,2.683,2.39,9.974,5.606c1.665,0.735,2.639,0.701,3.749,0.613
						c5.11-0.406,8.331-6.674,13.362-16.778c1.81-3.635,3.695-7.712,4.609-13.053c1.101-6.432-0.155-8.599-0.671-9.235
						c-1.771-2.201-4.454-4.076-8.306-3.284c-4.42,0.894-6.208,8.65-6.208,8.65c-2.15,6.776-4.282,13.568-6.432,20.344l-3.766-1.513
						L532.578,388.872z"/>
				</g>
				<g>
					<polygon style="fill:#005177;" points="555.545,386.277 562.273,372.507 554.874,395.192 					"/>
				</g>
			</g>
		</g>
	</g>
</g>
</svg>
