<?xml version="1.0" encoding="utf-8"?>
<!-- Generator: Adobe Illustrator 27.5.0, SVG Export Plug-In . SVG Version: 6.00 Build 0)  -->
<svg version="1.1" xmlns="http://www.w3.org/2000/svg" xmlns:xlink="http://www.w3.org/1999/xlink" x="0px" y="0px"
	 viewBox="0 0 500 500" style="enable-background:new 0 0 500 500;" xml:space="preserve">
<g id="Background_Complete">
	<g>
		<rect y="382.398" style="fill:#EBEBEB;" width="500" height="0.25"/>
		<rect x="416.779" y="398.494" style="fill:#EBEBEB;" width="33.122" height="0.25"/>
		<rect x="322.527" y="401.208" style="fill:#EBEBEB;" width="8.693" height="0.25"/>
		<rect x="396.586" y="389.208" style="fill:#EBEBEB;" width="19.192" height="0.25"/>
		<rect x="52.459" y="390.888" style="fill:#EBEBEB;" width="43.193" height="0.25"/>
		<rect x="104.556" y="390.888" style="fill:#EBEBEB;" width="6.333" height="0.25"/>
		<rect x="131.471" y="395.111" style="fill:#EBEBEB;" width="93.676" height="0.25"/>
		<path style="fill:#EBEBEB;" d="M237.014,337.8H43.915c-3.147,0-5.708-2.561-5.708-5.708V60.66c0-3.147,2.561-5.708,5.708-5.708
			h193.099c3.146,0,5.707,2.561,5.707,5.708v271.432C242.721,335.239,240.16,337.8,237.014,337.8z M43.915,55.203
			c-3.01,0-5.458,2.448-5.458,5.458v271.432c0,3.01,2.448,5.458,5.458,5.458h193.099c3.009,0,5.457-2.448,5.457-5.458V60.66
			c0-3.009-2.448-5.458-5.457-5.458H43.915z"/>
		<path style="fill:#EBEBEB;" d="M453.31,337.8H260.212c-3.147,0-5.707-2.561-5.707-5.708V60.66c0-3.147,2.561-5.708,5.707-5.708
			H453.31c3.148,0,5.708,2.561,5.708,5.708v271.432C459.019,335.239,456.458,337.8,453.31,337.8z M260.212,55.203
			c-3.009,0-5.457,2.448-5.457,5.458v271.432c0,3.01,2.448,5.458,5.457,5.458H453.31c3.01,0,5.458-2.448,5.458-5.458V60.66
			c0-3.009-2.448-5.458-5.458-5.458H260.212z"/>
	</g>
	<g>
		<g>
			
				<rect x="146.51" y="281.466" transform="matrix(-1 -1.224647e-16 1.224647e-16 -1 311.624 660.1939)" style="fill:#F0F0F0;" width="18.605" height="97.262"/>
			
				<rect x="80.443" y="378.728" transform="matrix(-1 -1.224647e-16 1.224647e-16 -1 241.9851 761.111)" style="fill:#F0F0F0;" width="81.099" height="3.655"/>
			<rect x="76.871" y="281.466" style="fill:#F5F5F5;" width="69.639" height="97.262"/>
			<path style="fill:#E0E0E0;" d="M143.423,313.409v29.345H79.956v-29.345H143.423 M143.872,312.96H79.508v30.243h64.364V312.96
				L143.872,312.96z"/>
			<g>
				<path style="fill:#E0E0E0;" d="M114.427,328.107c0,1.512-1.226,2.737-2.737,2.737c-1.512,0-2.737-1.225-2.737-2.737
					c0-1.512,1.225-2.737,2.737-2.737C113.202,325.37,114.427,326.595,114.427,328.107z"/>
			</g>
			<rect x="79.508" y="284.672" style="fill:#F0F0F0;" width="64.365" height="22.307"/>
			<rect x="79.508" y="349.183" style="fill:#F0F0F0;" width="64.365" height="22.307"/>
			<rect x="79.508" y="284.672" style="fill:#E0E0E0;" width="13.578" height="22.307"/>
			<rect x="79.508" y="349.183" style="fill:#E0E0E0;" width="13.578" height="22.307"/>
		</g>
		<g>
			<g>
				<path style="fill:#E6E6E6;" d="M229.882,380.298L229.882,380.298c6.194,0,11.261-5.068,11.261-11.261v-96.528
					c0-6.194-5.068-11.261-11.261-11.261l0,0H168.59v119.051H229.882z"/>
				<path style="fill:#E0E0E0;" d="M168.59,261.247L168.59,261.247c-6.194,0-11.261,5.068-11.261,11.261v93.999
					c0,7.616,6.174,13.791,13.791,13.791h8.732V272.509C179.852,266.315,174.784,261.247,168.59,261.247z"/>
				<g>
					<path style="fill:#E0E0E0;" d="M414.873,303.714l3.973-49.228c0.719-8.905-5.979-16.191-14.884-16.191H260.817
						c-8.905,0-16.779,7.286-17.498,16.191l-3.973,49.228c-0.486,6.015,4.039,10.936,10.053,10.936h153.656
						C409.069,314.65,414.388,309.728,414.873,303.714z"/>
				</g>
				<g>
					<path style="fill:#F0F0F0;" d="M394.865,303.714l3.973-49.228c0.719-8.905-5.979-16.191-14.885-16.191H240.808
						c-8.905,0-16.779,7.286-17.498,16.191l-3.973,49.228c-0.486,6.015,4.039,10.936,10.053,10.936h153.656
						C389.061,314.65,394.379,309.728,394.865,303.714z"/>
				</g>
				<g>
					<path style="fill:#FFFFFF;" d="M199.354,268.362c0,0-2.944-2.213-1.882-3.395c1.063-1.181,5.885,1.067,5.885,1.067
						s27.199-3.425,43.204-2.813c0.108-2.156,2.239-2.991,3.959-2.602c1.72,0.388,0.043,3.901,0.043,3.901
						s11.216,28.597,10.859,43.036c1.793,1.546,3.575,2.633,1.745,3.37c-1.83,0.737-3.467-0.629-3.467-0.629
						s-36.112,5.282-50.803,2.618c-1.014,1.953-3.113,1.573-4.323,0.971c-1.21-0.601,0.813-3.44,0.813-3.44
						S196.35,285.45,199.354,268.362z"/>
				</g>
				<g>
					<path style="fill:#E6E6E6;" d="M422.079,380.298L422.079,380.298c6.194,0,11.261-5.068,11.261-11.261v-96.528
						c0-6.194-5.068-11.261-11.261-11.261l0,0h-53.268v119.051H422.079z"/>
				</g>
				<path style="fill:#EBEBEB;" d="M371.433,325.638v-9.73c0-3.518-2.878-6.397-6.396-6.397H194.357
					c-3.518,0-6.396,2.878-6.396,6.397v9.73c0,3.518,2.878,6.396,6.396,6.396h170.679
					C368.554,332.034,371.433,329.155,371.433,325.638z"/>
				<g>
					<path style="fill:#F0F0F0;" d="M371.433,376.883v-41.434c0-1.878-1.537-3.415-3.415-3.415H199.32
						c-1.878,0-3.415,1.537-3.415,3.415v41.434c0,1.878,1.537,3.415,3.415,3.415h168.698
						C369.896,380.298,371.433,378.761,371.433,376.883z"/>
				</g>
				<path style="fill:#E0E0E0;" d="M368.811,261.247L368.811,261.247c-6.194,0-11.261,5.068-11.261,11.261v107.789h22.523V272.509
					C380.072,266.315,375.004,261.247,368.811,261.247z"/>
				<path style="fill:#E0E0E0;" d="M417.861,382.383H176.683c-1.152,0-2.085-0.934-2.085-2.085l0,0h245.349l0,0
					C419.947,381.449,419.013,382.383,417.861,382.383z"/>
			</g>
		</g>
		<g>
			<g>
				
					<rect x="139.269" y="84.743" transform="matrix(-1 -1.224647e-16 1.224647e-16 -1 512.8678 299.9418)" style="fill:#E0E0E0;" width="234.33" height="130.456"/>
				
					<rect x="126.401" y="84.743" transform="matrix(-1 -1.224647e-16 1.224647e-16 -1 498.8173 299.9418)" style="fill:#F5F5F5;" width="246.015" height="130.456"/>
				
					<rect x="188.2" y="30.983" transform="matrix(-1.836970e-16 1 -1 -1.836970e-16 399.3794 -99.4378)" style="fill:#FFFFFF;" width="122.417" height="237.976"/>
				<path style="fill:#F5F5F5;" d="M170.41,109.333L170.41,109.333l76.721,0c44.887,0,81.275,36.388,81.275,81.275l0,0h-76.722
					C206.798,190.608,170.41,154.22,170.41,109.333z"/>
				<path style="fill:#FFFFFF;" d="M328.907,198.195h-77.221c-45.091,0-81.775-36.684-81.775-81.775v-0.5l77.221,0
					c45.091,0,81.775,36.684,81.775,81.775V198.195z M170.912,116.92c0.269,44.312,36.4,80.275,80.773,80.275h76.22
					c-0.269-44.312-36.4-80.275-80.773-80.275H170.912z"/>
				<path style="fill:#FFFFFF;" d="M328.907,184.022h-77.221c-45.091,0-81.775-36.684-81.775-81.775v-0.5l77.221,0
					c45.091,0,81.775,36.684,81.775,81.775V184.022z M170.912,102.747c0.269,44.312,36.4,80.275,80.773,80.275h76.22
					c-0.269-44.312-36.4-80.275-80.773-80.275H170.912z"/>
			</g>
		</g>
	</g>
</g>
<g id="Background_Simple" style="display:none;">
	<g style="display:inline;">
		<path style="fill:#407BFF;" d="M450.114,250.664c-15.255-134.263-146.556-112.14-214.687-154.373
			C167.174,53.982,42.598,47.156,57.76,162.602c12.659,96.385,112.211,75.023,196.748,96.53
			C323.825,276.766,465.369,384.927,450.114,250.664z"/>
		<path style="opacity:0.9;fill:#FFFFFF;" d="M450.114,250.664c-15.255-134.263-146.556-112.14-214.687-154.373
			C167.174,53.982,42.598,47.156,57.76,162.602c12.659,96.385,112.211,75.023,196.748,96.53
			C323.825,276.766,465.369,384.927,450.114,250.664z"/>
	</g>
</g>
<g id="Shadow_1_">
	<ellipse id="_x3C_Path_x3E__110_" style="fill:#F5F5F5;" cx="250" cy="416.238" rx="193.889" ry="11.323"/>
</g>
<g id="Screen">
	<g>
		<path style="fill:#263238;" d="M432.411,350.085h-315.45c-3.394,0-6.171-2.777-6.171-6.171V139.059
			c0-3.394,2.777-6.171,6.171-6.171h315.45c3.394,0,6.171,2.777,6.171,6.171v204.854
			C438.582,347.307,435.805,350.085,432.411,350.085z"/>
		<polygon style="fill:#263238;" points="318.859,409.359 245.208,409.359 232.487,280.436 306.137,280.436 		"/>
		<polygon style="fill:#407BFF;" points="316.886,409.359 243.235,409.359 230.514,280.436 304.164,280.436 		"/>
		<path style="fill:#263238;" d="M333.263,413.697H238.98l1.035-4.338h89.823C332.112,409.359,333.79,411.484,333.263,413.697
			L333.263,413.697z"/>
		<line style="fill:#263238;" x1="326.164" y1="413.697" x2="325.129" y2="409.359"/>
		<path style="fill:#407BFF;" d="M317.277,413.697h-94.283l0,0c0.607-2.544,2.88-4.338,5.495-4.338h89.823L317.277,413.697z"/>
		<path style="fill:#263238;" d="M325.129,409.359h-9.434c-2.275,0-3.953,2.125-3.425,4.338l0,0h13.894"/>
		<polygon style="opacity:0.2;" points="304.163,280.434 230.513,280.434 237.999,356.265 311.649,356.265 		"/>
		<path style="fill:#407BFF;" d="M430.601,350.085h-315.45c-3.394,0-6.171-2.777-6.171-6.171V139.059
			c0-3.394,2.777-6.171,6.171-6.171h315.45c3.394,0,6.171,2.777,6.171,6.171v204.854
			C436.772,347.307,433.995,350.085,430.601,350.085z"/>
		<circle style="opacity:0.2;" cx="272.876" cy="335.231" r="5.802"/>
		<path style="opacity:0.9;fill:#FFFFFF;" d="M431.301,318.943H114.229c-1.446,0-2.619-1.172-2.619-2.619V148.273
			c0-1.446,1.172-2.619,2.619-2.619h317.072c1.446,0,2.619,1.172,2.619,2.619v168.051
			C433.919,317.77,432.747,318.943,431.301,318.943z"/>
		<g>
			<path style="fill:#407BFF;" d="M281.215,282.972c-7.735-0.786-15.148-3.078-21.705-6.638c-6.563-3.551-12.27-8.349-16.766-13.931
				c-4.492-5.591-7.763-11.953-9.651-18.542c-1.328-4.611-1.96-9.321-1.971-13.975h10.47l-20.353-35.245l-20.352,35.245h10.93
				c1.216,7.045,3.48,13.834,6.705,20.018c4.113,7.921,9.738,14.856,16.344,20.376c6.615,5.517,14.206,9.614,22.152,12.065
				c7.946,2.464,16.228,3.259,24.198,2.5c0.437-0.044,0.804-0.393,0.847-0.847C282.112,283.481,281.732,283.022,281.215,282.972z"/>
			<path style="fill:#407BFF;" d="M333.936,234.654c-1.216-7.045-3.48-13.834-6.705-20.017c-4.113-7.921-9.738-14.857-16.344-20.377
				c-6.615-5.516-14.206-9.614-22.152-12.065c-7.946-2.463-16.228-3.259-24.198-2.5c-0.437,0.045-0.804,0.394-0.847,0.848
				c-0.049,0.517,0.33,0.977,0.847,1.026c7.735,0.787,15.148,3.078,21.705,6.638c6.563,3.551,12.27,8.35,16.766,13.932
				c4.492,5.591,7.763,11.953,9.652,18.541c1.328,4.611,1.96,9.321,1.971,13.975h-10.47l20.353,35.246l20.352-35.246H333.936z"/>
		</g>
		<g style="opacity:0.3;">
			<polygon style="fill:#FFFFFF;" points="178.3,211.472 222.61,145.622 166.95,145.622 123.49,210.182 121.65,212.932 
				111.72,227.692 111.72,310.412 121.65,295.652 			"/>
			<polygon style="fill:#FFFFFF;" points="275.188,145.622 218.788,229.432 161.768,314.162 158.569,318.912 185.839,318.912 
				218.788,269.972 302.458,145.622 			"/>
		</g>
	</g>
</g>
<g id="Smartphone">
	<g>
		<g>
			<path style="fill:#263238;" d="M161.173,414.64H75.661c-5.973,0-10.859-4.887-10.859-10.86V208.303
				c0-5.973,4.887-10.859,10.859-10.859h85.513c5.973,0,10.859,4.887,10.859,10.859V403.78
				C172.033,409.753,167.146,414.64,161.173,414.64z"/>
			<path style="fill:#263238;" d="M171.353,266.018h-1.451c-1.121,0-2.039-0.918-2.039-2.039v-26.329
				c0-1.121,0.917-2.039,2.039-2.039h1.451c1.121,0,2.039,0.918,2.039,2.039v26.329
				C173.392,265.101,172.474,266.018,171.353,266.018z"/>
			<path style="fill:#263238;" d="M65.019,250.457h-1.674c-1.06,0-1.928-0.867-1.928-1.928v-10.99c0-1.06,0.867-1.928,1.928-1.928
				h1.674c1.06,0,1.928,0.867,1.928,1.928v10.99C66.946,249.59,66.079,250.457,65.019,250.457z"/>
			<path style="fill:#263238;" d="M65.019,270.085h-1.674c-1.06,0-1.928-0.867-1.928-1.928v-10.99c0-1.06,0.867-1.928,1.928-1.928
				h1.674c1.06,0,1.928,0.867,1.928,1.928v10.99C66.946,269.218,66.079,270.085,65.019,270.085z"/>
			<path style="fill:#407BFF;" d="M159.363,414.64H73.85c-5.973,0-10.859-4.887-10.859-10.86V208.303
				c0-5.973,4.887-10.859,10.859-10.859h85.513c5.973,0,10.86,4.887,10.86,10.859V403.78
				C170.222,409.753,165.335,414.64,159.363,414.64z"/>
			<path style="opacity:0.9;fill:#FFFFFF;" d="M166.124,402.27H67.089c-1.446,0-2.619-1.172-2.619-2.619v-186.85
				c0-1.446,1.172-2.619,2.619-2.619h99.035c1.446,0,2.619,1.172,2.619,2.619v186.85C168.743,401.097,167.57,402.27,166.124,402.27z
				"/>
			<g>
				<path style="fill:#407BFF;" d="M120.816,328.886c-3.905-0.397-7.648-1.554-10.958-3.351c-3.313-1.793-6.195-4.215-8.465-7.033
					c-2.268-2.823-3.92-6.035-4.873-9.361c-0.671-2.328-0.99-4.706-0.995-7.056h5.286L90.535,284.29L80.26,302.085h5.518
					c0.614,3.557,1.757,6.984,3.385,10.107c2.076,3.999,4.917,7.5,8.252,10.288c3.34,2.785,7.173,4.854,11.184,6.091
					c4.012,1.244,8.193,1.645,12.217,1.262c0.221-0.022,0.406-0.198,0.428-0.428C121.269,329.143,121.078,328.911,120.816,328.886z"
					/>
				<path style="fill:#407BFF;" d="M147.434,304.491c-0.614-3.557-1.757-6.984-3.385-10.106c-2.077-3.999-4.917-7.501-8.252-10.288
					c-3.34-2.785-7.173-4.854-11.184-6.091c-4.011-1.243-8.193-1.645-12.217-1.262c-0.221,0.023-0.406,0.199-0.428,0.428
					c-0.025,0.261,0.167,0.493,0.428,0.518c3.905,0.397,7.648,1.554,10.959,3.351c3.313,1.793,6.195,4.216,8.465,7.034
					c2.268,2.823,3.919,6.035,4.873,9.361c0.67,2.328,0.99,4.706,0.995,7.056h-5.286l10.276,17.795l10.275-17.795H147.434z"/>
			</g>
			<g style="opacity:0.3;">
				<path style="fill:#FFFFFF;" d="M168.37,211.472c-0.45-0.77-1.29-1.29-2.25-1.29h-52.55l-1.85,2.75l-47.25,70.21v82.729
					l47.25-70.22L168.37,211.472z"/>
				<path style="fill:#FFFFFF;" d="M111.72,314.162l-47.25,70.21v15.28c0,1.45,1.17,2.62,2.62,2.62H79.7l56.1-83.36l32.94-48.94
					v-40.54L111.72,314.162z"/>
			</g>
			<path style="opacity:0.2;" d="M106.296,202.464h20.62c0.737,0,1.339,0.602,1.339,1.339l0,0c0,0.736-0.602,1.339-1.339,1.339
				h-20.62c-0.736,0-1.339-0.603-1.339-1.339v0C104.957,203.067,105.56,202.464,106.296,202.464z"/>
		</g>
	</g>
</g>
<g id="Cloud">
	<g>
		<g>
			<g style="enable-background:new    ;">
				<g>
					<path style="fill:#263238;" d="M351.484,79.585c-0.067-0.005-0.135-0.007-0.202-0.011c-0.191-0.012-0.381-0.026-0.573-0.031
						c-0.141-0.004-0.283-0.006-0.425-0.006h-5.418c0.336,0,0.667,0.015,0.998,0.036c0.067,0.004,0.135,0.005,0.203,0.011
						c0.365,0.028,0.727,0.067,1.084,0.121h5.418c-0.063-0.009-0.126-0.019-0.189-0.027
						C352.084,79.638,351.785,79.608,351.484,79.585z"/>
					<path style="fill:#263238;" d="M404.8,100.883c0.032-0.356,0.049-0.717,0.049-1.082c0-0.084-0.001-0.167-0.003-0.251
						c-0.006-0.289-0.025-0.575-0.051-0.859c-0.006-0.064-0.015-0.127-0.022-0.191c-0.016-0.147-0.03-0.295-0.051-0.44
						c-0.017-0.113-0.044-0.222-0.064-0.333c-0.024-0.137-0.049-0.273-0.077-0.409c-0.048-0.224-0.105-0.445-0.165-0.664
						c-0.034-0.122-0.064-0.245-0.102-0.365c-0.013-0.042-0.022-0.085-0.035-0.127c-0.085-0.264-0.181-0.522-0.284-0.777
						c-0.022-0.055-0.048-0.109-0.071-0.164c-0.11-0.261-0.229-0.517-0.357-0.767c-0.033-0.064-0.064-0.129-0.098-0.192
						c-0.152-0.285-0.313-0.562-0.486-0.831c-0.034-0.053-0.071-0.104-0.106-0.157c-0.154-0.231-0.316-0.456-0.485-0.675
						c-0.042-0.055-0.083-0.11-0.126-0.164c-0.2-0.249-0.409-0.489-0.627-0.72c-0.046-0.048-0.093-0.094-0.14-0.142
						c-0.096-0.098-0.19-0.199-0.29-0.293c-0.072-0.069-0.152-0.131-0.226-0.198c-0.112-0.101-0.224-0.2-0.34-0.297
						c-0.154-0.129-0.313-0.252-0.474-0.373c-0.119-0.089-0.237-0.179-0.359-0.264c-0.051-0.035-0.099-0.076-0.151-0.111
						c-0.205-0.137-0.414-0.268-0.628-0.392c-0.008-0.005-0.016-0.008-0.024-0.013c-0.202-0.117-0.408-0.228-0.617-0.333
						c-0.049-0.024-0.102-0.041-0.151-0.065c-0.249-0.12-0.505-0.226-0.763-0.328c-0.094-0.037-0.183-0.085-0.279-0.12
						c-0.027-0.01-0.056-0.016-0.083-0.025c-0.251-0.089-0.508-0.162-0.766-0.233c-0.105-0.029-0.207-0.069-0.313-0.095
						c-0.013-0.003-0.027-0.004-0.039-0.007c-0.359-0.088-0.725-0.157-1.096-0.21c-0.018-0.003-0.036-0.008-0.054-0.01
						c-0.001,0-0.001,0-0.002,0c-0.378-0.052-0.76-0.085-1.148-0.099c-0.016-0.138-0.034-0.275-0.054-0.412
						c-0.022-0.146-0.056-0.287-0.082-0.432c-0.028-0.155-0.055-0.31-0.089-0.464c-0.049-0.222-0.109-0.439-0.169-0.656
						c-0.039-0.141-0.074-0.284-0.118-0.424c-0.011-0.034-0.018-0.07-0.029-0.104c-0.092-0.284-0.196-0.562-0.307-0.837
						c-0.026-0.063-0.055-0.125-0.081-0.188c-0.109-0.259-0.227-0.512-0.353-0.762c-0.04-0.079-0.079-0.159-0.121-0.238
						c-0.157-0.297-0.323-0.589-0.502-0.871c-0.017-0.027-0.037-0.053-0.054-0.08c-0.166-0.257-0.342-0.506-0.526-0.749
						c-0.055-0.073-0.11-0.145-0.167-0.216c-0.187-0.238-0.381-0.47-0.584-0.693c-0.023-0.025-0.044-0.052-0.068-0.077
						c-0.184-0.199-0.374-0.393-0.57-0.58c-0.036-0.034-0.076-0.064-0.113-0.098c-0.122-0.114-0.251-0.222-0.378-0.331
						c-0.151-0.13-0.302-0.26-0.46-0.382c-0.133-0.104-0.271-0.201-0.409-0.3c-0.107-0.077-0.209-0.16-0.319-0.234
						c-0.069-0.046-0.142-0.088-0.212-0.132c-0.078-0.05-0.157-0.099-0.237-0.148c-0.249-0.152-0.502-0.295-0.761-0.43
						c-0.043-0.022-0.084-0.046-0.126-0.068c-0.014-0.007-0.027-0.015-0.041-0.022c-0.058-0.029-0.121-0.049-0.18-0.078
						c-0.316-0.151-0.638-0.291-0.968-0.416c-0.046-0.017-0.088-0.041-0.134-0.058c-0.1-0.036-0.206-0.06-0.306-0.093
						c-0.243-0.081-0.486-0.158-0.735-0.224c-0.073-0.02-0.143-0.048-0.217-0.066c-0.09-0.022-0.185-0.032-0.276-0.053
						c-0.238-0.053-0.478-0.099-0.721-0.138c-0.097-0.015-0.19-0.042-0.287-0.055c-0.073-0.01-0.149-0.009-0.222-0.018
						c-0.267-0.032-0.537-0.051-0.808-0.066c-0.113-0.006-0.223-0.024-0.337-0.027c-0.11-0.003-0.22-0.004-0.33-0.004l0,0h-4.525
						c-0.039-0.066-0.079-0.131-0.119-0.196c-0.057-0.092-0.117-0.181-0.176-0.272c-0.134-0.206-0.272-0.409-0.416-0.607
						c-0.07-0.096-0.141-0.192-0.214-0.286c-0.153-0.199-0.312-0.392-0.476-0.582c-0.065-0.076-0.127-0.153-0.194-0.227
						c-0.231-0.257-0.471-0.507-0.721-0.745c-0.005-0.005-0.01-0.011-0.016-0.016c-0.031-0.029-0.065-0.055-0.096-0.084
						c-0.217-0.202-0.44-0.397-0.669-0.584c-0.088-0.071-0.177-0.139-0.267-0.208c-0.19-0.147-0.383-0.289-0.581-0.426
						c-0.055-0.038-0.106-0.081-0.161-0.119c-0.055-0.037-0.113-0.069-0.168-0.105c-0.112-0.072-0.225-0.142-0.339-0.212
						c-0.137-0.083-0.274-0.163-0.414-0.242c-0.117-0.065-0.235-0.129-0.354-0.191c-0.066-0.034-0.129-0.072-0.195-0.105
						c-0.043-0.021-0.089-0.036-0.132-0.057c-0.392-0.19-0.791-0.366-1.202-0.516c-0.01-0.004-0.019-0.009-0.029-0.013
						c-0.034-0.013-0.07-0.02-0.104-0.032c-0.349-0.124-0.706-0.231-1.068-0.325c-0.055-0.015-0.107-0.036-0.163-0.05
						c-0.041-0.01-0.084-0.014-0.125-0.024c-0.395-0.094-0.794-0.173-1.202-0.23c-0.012-0.002-0.024-0.005-0.036-0.007
						c-0.262-0.036-0.526-0.062-0.793-0.083c-0.071-0.005-0.143-0.007-0.215-0.012c-0.147-0.009-0.295-0.02-0.443-0.024
						c-0.117-0.003-0.235-0.005-0.353-0.005h-5.418c0.268,0,0.533,0.013,0.797,0.028c0.071,0.004,0.144,0.006,0.215,0.012
						c0.279,0.021,0.555,0.051,0.829,0.09c0.407,0.057,0.807,0.137,1.202,0.23c0.096,0.023,0.192,0.049,0.288,0.074
						c0.362,0.094,0.719,0.202,1.068,0.325c0.044,0.016,0.09,0.028,0.133,0.044c0.412,0.151,0.811,0.327,1.202,0.516
						c0.11,0.053,0.22,0.106,0.327,0.162c0.119,0.062,0.237,0.125,0.354,0.191c0.14,0.078,0.277,0.159,0.414,0.242
						c0.114,0.069,0.227,0.139,0.339,0.212c0.111,0.072,0.22,0.147,0.329,0.223c0.198,0.137,0.392,0.28,0.582,0.427
						c0.089,0.069,0.179,0.136,0.266,0.207c0.23,0.188,0.454,0.383,0.671,0.586c0.036,0.034,0.074,0.064,0.11,0.098
						c0.25,0.239,0.49,0.488,0.721,0.745c0.067,0.074,0.129,0.152,0.194,0.227c0.163,0.19,0.323,0.383,0.476,0.582
						c0.072,0.094,0.143,0.19,0.214,0.286c0.144,0.198,0.282,0.401,0.416,0.607c0.059,0.09,0.119,0.18,0.176,0.272
						c0.183,0.297,0.358,0.6,0.518,0.912h5.418c-0.116-0.226-0.241-0.446-0.37-0.665c0.185,0.014,0.37,0.023,0.553,0.045
						c0.171,0.02,0.34,0.046,0.508,0.073c0.243,0.039,0.483,0.085,0.721,0.138c0.166,0.037,0.331,0.075,0.493,0.119
						c0.249,0.067,0.493,0.143,0.736,0.224c0.147,0.049,0.295,0.096,0.44,0.151c0.33,0.125,0.652,0.265,0.968,0.416
						c0.072,0.035,0.149,0.063,0.22,0.099c0.043,0.022,0.084,0.046,0.126,0.068c0.259,0.134,0.513,0.278,0.761,0.43
						c0.079,0.049,0.158,0.098,0.237,0.148c0.181,0.116,0.355,0.241,0.53,0.366c0.138,0.098,0.276,0.196,0.409,0.3
						c0.157,0.122,0.308,0.252,0.46,0.382c0.127,0.109,0.256,0.217,0.379,0.331c0.235,0.218,0.465,0.443,0.683,0.678
						c0.023,0.025,0.045,0.052,0.068,0.077c0.203,0.223,0.397,0.455,0.584,0.693c0.056,0.071,0.112,0.144,0.166,0.216
						c0.184,0.243,0.36,0.493,0.526,0.749c0.018,0.027,0.037,0.053,0.054,0.08c0.179,0.282,0.345,0.574,0.502,0.871
						c0.041,0.078,0.081,0.158,0.121,0.238c0.125,0.249,0.243,0.503,0.352,0.762c0.027,0.063,0.056,0.124,0.082,0.188
						c0.124,0.308,0.235,0.621,0.336,0.94c0.044,0.139,0.079,0.282,0.118,0.424c0.061,0.217,0.12,0.435,0.169,0.656
						c0.034,0.153,0.06,0.309,0.089,0.464c0.051,0.279,0.104,0.559,0.137,0.844c0.388,0.014,0.771,0.047,1.148,0.099
						c0.019,0.002,0.037,0.008,0.056,0.01c0.371,0.052,0.736,0.122,1.095,0.21c0.12,0.029,0.235,0.07,0.354,0.103
						c0.257,0.072,0.515,0.144,0.765,0.233c0.123,0.044,0.241,0.097,0.362,0.145c0.258,0.102,0.514,0.208,0.762,0.328
						c0.26,0.126,0.519,0.254,0.768,0.398c0.008,0.005,0.016,0.008,0.024,0.013c0.268,0.156,0.526,0.327,0.78,0.503
						c0.122,0.085,0.24,0.174,0.358,0.263c0.161,0.121,0.32,0.245,0.474,0.374c0.115,0.096,0.228,0.196,0.34,0.297
						c0.176,0.159,0.349,0.321,0.516,0.491c0.046,0.047,0.094,0.093,0.14,0.142c0.219,0.231,0.427,0.471,0.627,0.72
						c0.043,0.054,0.084,0.11,0.126,0.164c0.169,0.219,0.331,0.444,0.485,0.675c0.035,0.052,0.072,0.104,0.106,0.157
						c0.173,0.27,0.335,0.547,0.486,0.831c0.034,0.063,0.065,0.128,0.098,0.192c0.128,0.251,0.247,0.506,0.357,0.767
						c0.023,0.055,0.048,0.109,0.071,0.164c0.119,0.295,0.224,0.597,0.319,0.904c0.038,0.12,0.068,0.243,0.102,0.365
						c0.061,0.219,0.117,0.44,0.165,0.664c0.029,0.135,0.053,0.272,0.078,0.409c0.045,0.255,0.086,0.512,0.114,0.774
						c0.007,0.064,0.016,0.127,0.022,0.191c0.034,0.365,0.054,0.735,0.054,1.109c0,0.385-0.021,0.764-0.057,1.139
						c-0.026,0.272-0.071,0.539-0.115,0.805c-0.021,0.129-0.033,0.262-0.059,0.389c-0.078,0.392-0.175,0.777-0.29,1.153
						c-0.004,0.013-0.01,0.025-0.014,0.038c-0.116,0.373-0.251,0.738-0.402,1.095c-0.039,0.093-0.087,0.18-0.129,0.271
						c-0.137,0.302-0.284,0.598-0.445,0.885c-0.12,0.215-0.246,0.425-0.379,0.631c-0.039,0.061-0.075,0.125-0.116,0.185
						c-0.191,0.283-0.393,0.557-0.607,0.822c-0.031,0.038-0.063,0.074-0.094,0.112c-0.216,0.261-0.441,0.515-0.679,0.756
						c-0.002,0.002-0.004,0.004-0.006,0.006c-0.239,0.242-0.49,0.47-0.749,0.69c-0.038,0.033-0.076,0.067-0.115,0.099
						c-0.25,0.207-0.509,0.401-0.775,0.587c-0.05,0.035-0.1,0.069-0.151,0.103c-0.27,0.182-0.547,0.353-0.832,0.512
						c-0.043,0.024-0.087,0.046-0.13,0.069c-0.301,0.162-0.607,0.315-0.923,0.45c-0.002,0.001-0.003,0.001-0.005,0.002
						c-0.316,0.135-0.641,0.253-0.97,0.359c-0.049,0.016-0.096,0.033-0.145,0.048c-0.316,0.098-0.638,0.181-0.965,0.252
						c-0.061,0.013-0.122,0.026-0.184,0.038c-0.329,0.065-0.663,0.118-1.001,0.155c-0.051,0.005-0.104,0.009-0.155,0.014
						c-0.357,0.033-0.718,0.055-1.083,0.055h5.418c0.366,0,0.726-0.022,1.083-0.055c0.052-0.005,0.104-0.008,0.155-0.014
						c0.339-0.036,0.672-0.09,1.001-0.155c0.062-0.012,0.122-0.025,0.184-0.038c0.327-0.071,0.649-0.154,0.965-0.252
						c0.049-0.015,0.097-0.032,0.145-0.048c0.33-0.107,0.655-0.224,0.971-0.359c0.001-0.001,0.003-0.001,0.004-0.002
						c0.316-0.136,0.623-0.288,0.924-0.451c0.043-0.023,0.087-0.045,0.13-0.069c0.285-0.159,0.562-0.33,0.832-0.512
						c0.05-0.034,0.101-0.068,0.151-0.103c0.266-0.185,0.525-0.38,0.775-0.587c0.039-0.032,0.076-0.066,0.115-0.099
						c0.259-0.22,0.511-0.448,0.749-0.69c0.002-0.002,0.004-0.004,0.006-0.006c0.238-0.241,0.463-0.495,0.679-0.756
						c0.031-0.038,0.064-0.074,0.094-0.112c0.021-0.027,0.045-0.052,0.066-0.078c0.19-0.24,0.37-0.489,0.541-0.744
						c0.041-0.06,0.077-0.123,0.116-0.185c0.104-0.161,0.21-0.32,0.306-0.486c0.027-0.047,0.047-0.098,0.073-0.145
						c0.161-0.287,0.307-0.583,0.445-0.885c0.034-0.074,0.077-0.143,0.109-0.218c0.008-0.017,0.013-0.036,0.02-0.053
						c0.151-0.356,0.286-0.721,0.402-1.095c0.004-0.013,0.009-0.024,0.013-0.036c0-0.001,0-0.001,0.001-0.002
						c0.116-0.377,0.212-0.761,0.29-1.153c0.002-0.009,0.005-0.018,0.007-0.027c0.023-0.119,0.032-0.243,0.052-0.363
						c0.044-0.267,0.089-0.533,0.115-0.805C404.793,100.92,404.798,100.902,404.8,100.883z"/>
				</g>
				<g>
					<path style="fill:#407BFF;" d="M359.86,70.299c5.154,0,9.619,2.968,11.842,7.301c1.293-0.455,2.679-0.717,4.126-0.717
						c6.429,0,11.724,4.907,12.451,11.222c6.195,0.225,11.152,5.368,11.152,11.696c0,6.472-5.185,11.721-11.577,11.721h-42.988
						c-8.726,0-15.795-7.164-15.795-15.992c0-8.834,7.069-15.992,15.795-15.992c0.776,0,1.54,0.056,2.285,0.168
						C348.862,74.251,353.906,70.299,359.86,70.299z"/>
				</g>
			</g>
			<g style="opacity:0.1;">
				<path style="fill:#FFFFFF;" d="M359.86,70.302c-5.95,0-11,3.95-12.71,9.4c-0.41-0.06-0.83-0.1-1.26-0.13l-8.68,29.95
					c2.26,1.27,4.87,2,7.66,2h7.23l11.76-40.59C362.6,70.522,361.26,70.302,359.86,70.302z"/>
				<path style="fill:#FFFFFF;" d="M375.83,76.882c-1.45,0-2.84,0.26-4.13,0.72c-1.25-2.45-3.22-4.46-5.62-5.74l-11.49,39.66h12.38
					l10.02-34.58C376.61,76.902,376.22,76.882,375.83,76.882z"/>
			</g>
		</g>
		<g>
			<path style="fill:#407BFF;" d="M324,98.624c-0.264,0-0.522-0.107-0.707-0.293c-0.187-0.186-0.293-0.444-0.293-0.707
				c0-0.263,0.106-0.521,0.293-0.708c0.369-0.371,1.041-0.372,1.414,0c0.186,0.187,0.293,0.445,0.293,0.708
				c0,0.263-0.107,0.521-0.293,0.707C324.521,98.517,324.263,98.624,324,98.624z"/>
			<path style="fill:#407BFF;" d="M83.778,187.806c0-0.552,0.447-1,1-1l0,0c0.552,0,1,0.448,1,1l0,0c0,0.553-0.448,1-1,1l0,0
				C84.225,188.806,83.778,188.359,83.778,187.806z M83.778,183.786c0-0.553,0.447-1,1-1l0,0c0.552,0,1,0.447,1,1l0,0
				c0,0.551-0.448,1-1,1l0,0C84.225,184.786,83.778,184.337,83.778,183.786z M83.778,179.765c0-0.552,0.447-1,1-1l0,0
				c0.552,0,1,0.448,1,1l0,0c0,0.552-0.448,1-1,1l0,0C84.225,180.765,83.778,180.317,83.778,179.765z M83.778,175.744
				c0-0.552,0.447-1,1-1l0,0c0.552,0,1,0.448,1,1l0,0c0,0.553-0.448,1-1,1l0,0C84.225,176.744,83.778,176.297,83.778,175.744z
				 M83.778,171.724c0-0.553,0.447-1,1-1l0,0c0.552,0,1,0.447,1,1l0,0c0,0.553-0.448,1-1,1l0,0
				C84.225,172.724,83.778,172.277,83.778,171.724z M83.778,167.704c0-0.553,0.447-1,1-1l0,0c0.552,0,1,0.447,1,1l0,0
				c0,0.551-0.448,1-1,1l0,0C84.225,168.704,83.778,168.255,83.778,167.704z M83.778,163.682c0-0.551,0.447-0.999,1-0.999l0,0
				c0.552,0,1,0.448,1,0.999l0,0c0,0.553-0.448,1-1,1l0,0C84.225,164.682,83.778,164.235,83.778,163.682z M83.778,159.662
				c0-0.552,0.447-1,1-1l0,0c0.552,0,1,0.448,1,1l0,0c0,0.553-0.448,1-1,1l0,0C84.225,160.662,83.778,160.215,83.778,159.662z
				 M83.778,155.642c0-0.553,0.447-1,1-1l0,0c0.552,0,1,0.447,1,1l0,0c0,0.552-0.448,1-1,1l0,0
				C84.225,156.642,83.778,156.194,83.778,155.642z M83.778,151.622c0-0.553,0.447-1,1-1l0,0c0.552,0,1,0.447,1,1l0,0
				c0,0.551-0.448,0.999-1,0.999l0,0C84.225,152.621,83.778,152.173,83.778,151.622z M83.778,147.6c0-0.551,0.447-1,1-1l0,0
				c0.552,0,1,0.449,1,1l0,0c0,0.553-0.448,1.001-1,1.001l0,0C84.225,148.601,83.778,148.153,83.778,147.6z M83.778,143.58
				c0-0.553,0.447-1,1-1l0,0c0.552,0,1,0.447,1,1l0,0c0,0.553-0.448,1-1,1l0,0C84.225,144.58,83.778,144.133,83.778,143.58z
				 M83.778,139.56c0-0.553,0.447-1,1-1l0,0c0.552,0,1,0.447,1,1l0,0c0,0.551-0.448,1-1,1l0,0
				C84.225,140.56,83.778,140.111,83.778,139.56z M83.778,135.539c0-0.552,0.447-1,1-1l0,0c0.552,0,1,0.448,1,1l0,0
				c0,0.552-0.448,1-1,1l0,0C84.225,136.539,83.778,136.091,83.778,135.539z M83.778,131.518c0-0.551,0.447-1,1-1l0,0
				c0.552,0,1,0.449,1,1l0,0c0,0.553-0.448,1-1,1l0,0C84.225,132.518,83.778,132.071,83.778,131.518z M83.778,127.498
				c0-0.553,0.447-1,1-1l0,0c0.552,0,1,0.447,1,1l0,0c0,0.553-0.448,1-1,1l0,0C84.225,128.498,83.778,128.051,83.778,127.498z
				 M83.778,123.478c0-0.553,0.447-1,1-1l0,0c0.552,0,1,0.447,1,1l0,0c0,0.551-0.448,1-1,1l0,0
				C84.225,124.478,83.778,124.029,83.778,123.478z M83.778,119.457c0-0.552,0.447-1,1-1l0,0c0.552,0,1,0.448,1,1l0,0
				c0,0.552-0.448,1-1,1l0,0C84.225,120.457,83.778,120.009,83.778,119.457z M84.764,116.436c-0.553-0.009-0.993-0.463-0.984-1.016
				l0,0c0.009-0.552,0.463-0.993,1.016-0.984l0,0c0.553,0.009,0.993,0.464,0.984,1.016l0,0c-0.009,0.547-0.455,0.984-1,0.984l0,0
				C84.775,116.436,84.769,116.436,84.764,116.436z M85.05,112.43c-0.537-0.13-0.867-0.67-0.736-1.207l0,0
				c0.129-0.537,0.67-0.866,1.207-0.737l0,0c0.537,0.13,0.866,0.671,0.737,1.207l0,0c0,0,0,0,0,0.001l0,0
				c-0.112,0.457-0.521,0.764-0.972,0.764l0,0C85.208,112.458,85.129,112.449,85.05,112.43z M86.214,108.584
				c-0.495-0.245-0.697-0.845-0.451-1.34l0,0c0.245-0.495,0.846-0.696,1.34-0.451l0,0c0.495,0.246,0.696,0.847,0.451,1.341l0,0
				c-0.175,0.352-0.529,0.555-0.897,0.555l0,0C86.508,108.689,86.356,108.655,86.214,108.584z M88.198,105.093
				c-0.428-0.348-0.493-0.978-0.145-1.406l0,0c0.348-0.429,0.979-0.494,1.407-0.145l0,0c0.428,0.348,0.494,0.977,0.145,1.406l0,0
				c-0.198,0.244-0.486,0.369-0.777,0.369l0,0C88.607,105.317,88.383,105.244,88.198,105.093z M90.902,102.122
				c-0.342-0.434-0.268-1.063,0.166-1.405l0,0c0.434-0.342,1.062-0.268,1.404,0.166l0,0c0.342,0.434,0.268,1.063-0.165,1.405l0,0
				c0,0,0,0-0.001,0l0,0c-0.184,0.144-0.402,0.214-0.619,0.214l0,0C91.392,102.502,91.099,102.372,90.902,102.122z M94.191,99.814
				c-0.238-0.499-0.027-1.096,0.472-1.334l0,0c0.497-0.237,1.095-0.027,1.333,0.472l0,0c0.237,0.498,0.027,1.095-0.472,1.333l0,0
				c-0.139,0.066-0.286,0.098-0.43,0.098l0,0C94.72,100.383,94.362,100.173,94.191,99.814z M97.908,98.288
				c-0.121-0.539,0.217-1.074,0.756-1.196l0,0c0.538-0.121,1.074,0.217,1.195,0.756l0,0c0.122,0.539-0.216,1.074-0.755,1.196l0,0
				c-0.074,0.016-0.148,0.024-0.221,0.024l0,0C98.426,99.068,98.014,98.753,97.908,98.288z M318.98,97.624c0-0.552,0.447-1,0.999-1
				l0,0c0.552,0,1,0.448,1,1l0,0c0,0.552-0.448,1-1,1l0,0C319.427,98.624,318.98,98.176,318.98,97.624z M314.958,97.624
				c0-0.552,0.448-1,1-1l0,0c0.553,0,1,0.448,1,1l0,0c0,0.552-0.447,1-1,1l0,0C315.406,98.624,314.958,98.176,314.958,97.624z
				 M310.938,97.624c0-0.552,0.447-1,1-1l0,0c0.553,0,1,0.448,1,1l0,0c0,0.552-0.447,1-1,1l0,0
				C311.385,98.624,310.938,98.176,310.938,97.624z M306.918,97.624c0-0.552,0.447-1,1-1l0,0c0.551,0,1,0.448,1,1l0,0
				c0,0.552-0.449,1-1,1l0,0C307.365,98.624,306.918,98.176,306.918,97.624z M302.897,97.624c0-0.552,0.448-1,1-1l0,0
				c0.552,0,1,0.448,1,1l0,0c0,0.552-0.448,1-1,1l0,0C303.345,98.624,302.897,98.176,302.897,97.624z M298.876,97.624
				c0-0.552,0.448-1,1-1l0,0c0.553,0,1,0.448,1,1l0,0c0,0.552-0.447,1-1,1l0,0C299.324,98.624,298.876,98.176,298.876,97.624z
				 M294.856,97.624c0-0.552,0.447-1,1-1l0,0c0.552,0,1,0.448,1,1l0,0c0,0.552-0.448,1-1,1l0,0
				C295.303,98.624,294.856,98.176,294.856,97.624z M290.836,97.624c0-0.552,0.447-1,1-1l0,0c0.552,0,0.999,0.448,0.999,1l0,0
				c0,0.552-0.447,1-0.999,1l0,0C291.283,98.624,290.836,98.176,290.836,97.624z M286.815,97.624c0-0.552,0.448-1,1-1l0,0
				c0.552,0,1,0.448,1,1l0,0c0,0.552-0.448,1-1,1l0,0C287.263,98.624,286.815,98.176,286.815,97.624z M282.794,97.624
				c0-0.552,0.447-1,1-1l0,0c0.553,0,1,0.448,1,1l0,0c0,0.552-0.447,1-1,1l0,0C283.241,98.624,282.794,98.176,282.794,97.624z
				 M278.774,97.624c0-0.552,0.447-1,1-1l0,0c0.552,0,1,0.448,1,1l0,0c0,0.552-0.448,1-1,1l0,0
				C279.221,98.624,278.774,98.176,278.774,97.624z M274.754,97.624c0-0.552,0.447-1,1-1l0,0c0.551,0,0.999,0.448,0.999,1l0,0
				c0,0.552-0.448,1-0.999,1l0,0C275.201,98.624,274.754,98.176,274.754,97.624z M270.732,97.624c0-0.552,0.449-1,1-1l0,0
				c0.553,0,1.001,0.448,1.001,1l0,0c0,0.552-0.448,1-1.001,1l0,0C271.181,98.624,270.732,98.176,270.732,97.624z M266.712,97.624
				c0-0.552,0.447-1,1-1l0,0c0.553,0,1,0.448,1,1l0,0c0,0.552-0.447,1-1,1l0,0C267.159,98.624,266.712,98.176,266.712,97.624z
				 M262.692,97.624c0-0.552,0.447-1,1-1l0,0c0.552,0,1,0.448,1,1l0,0c0,0.552-0.448,1-1,1l0,0
				C263.139,98.624,262.692,98.176,262.692,97.624z M258.672,97.624c0-0.552,0.447-1,0.999-1l0,0c0.552,0,1,0.448,1,1l0,0
				c0,0.552-0.448,1-1,1l0,0C259.119,98.624,258.672,98.176,258.672,97.624z M254.65,97.624c0-0.552,0.449-1,1.001-1l0,0
				c0.552,0,1,0.448,1,1l0,0c0,0.552-0.448,1-1,1l0,0C255.099,98.624,254.65,98.176,254.65,97.624z M250.63,97.624
				c0-0.552,0.447-1,1-1l0,0c0.553,0,1,0.448,1,1l0,0c0,0.552-0.447,1-1,1l0,0C251.077,98.624,250.63,98.176,250.63,97.624z
				 M246.61,97.624c0-0.552,0.447-1,1-1l0,0c0.551,0,1,0.448,1,1l0,0c0,0.552-0.449,1-1,1l0,0
				C247.057,98.624,246.61,98.176,246.61,97.624z M242.589,97.624c0-0.552,0.448-1,1-1l0,0c0.552,0,1,0.448,1,1l0,0
				c0,0.552-0.448,1-1,1l0,0C243.037,98.624,242.589,98.176,242.589,97.624z M238.568,97.624c0-0.552,0.448-1,1-1l0,0
				c0.553,0,1,0.448,1,1l0,0c0,0.552-0.447,1-1,1l0,0C239.016,98.624,238.568,98.176,238.568,97.624z M234.548,97.624
				c0-0.552,0.447-1,1-1l0,0c0.552,0,1,0.448,1,1l0,0c0,0.552-0.448,1-1,1l0,0C234.995,98.624,234.548,98.176,234.548,97.624z
				 M230.528,97.624c0-0.552,0.447-1,1-1l0,0c0.552,0,0.999,0.448,0.999,1l0,0c0,0.552-0.447,1-0.999,1l0,0
				C230.975,98.624,230.528,98.176,230.528,97.624z M226.507,97.624c0-0.552,0.448-1,1-1l0,0c0.552,0,1,0.448,1,1l0,0
				c0,0.552-0.448,1-1,1l0,0C226.955,98.624,226.507,98.176,226.507,97.624z M222.486,97.624c0-0.552,0.448-1,1-1l0,0
				c0.553,0,1.001,0.448,1.001,1l0,0c0,0.552-0.448,1-1.001,1l0,0C222.934,98.624,222.486,98.176,222.486,97.624z M218.466,97.624
				c0-0.552,0.447-1,1-1l0,0c0.552,0,1,0.448,1,1l0,0c0,0.552-0.448,1-1,1l0,0C218.913,98.624,218.466,98.176,218.466,97.624z
				 M214.446,97.624c0-0.552,0.447-1,1-1l0,0c0.551,0,0.999,0.448,0.999,1l0,0c0,0.552-0.448,1-0.999,1l0,0
				C214.893,98.624,214.446,98.176,214.446,97.624z M210.424,97.624c0-0.552,0.449-1,1-1l0,0c0.553,0,1.001,0.448,1.001,1l0,0
				c0,0.552-0.448,1-1.001,1l0,0C210.873,98.624,210.424,98.176,210.424,97.624z M206.404,97.624c0-0.552,0.447-1,1-1l0,0
				c0.553,0,1,0.448,1,1l0,0c0,0.552-0.447,1-1,1l0,0C206.851,98.624,206.404,98.176,206.404,97.624z M202.384,97.624
				c0-0.552,0.447-1,1-1l0,0c0.552,0,1,0.448,1,1l0,0c0,0.552-0.448,1-1,1l0,0C202.831,98.624,202.384,98.176,202.384,97.624z
				 M198.364,97.624c0-0.552,0.447-1,0.999-1l0,0c0.552,0,1,0.448,1,1l0,0c0,0.552-0.448,1-1,1l0,0
				C198.811,98.624,198.364,98.176,198.364,97.624z M194.342,97.624c0-0.552,0.449-1,1.001-1l0,0c0.552,0,1,0.448,1,1l0,0
				c0,0.552-0.448,1-1,1l0,0C194.791,98.624,194.342,98.176,194.342,97.624z M190.322,97.624c0-0.552,0.447-1,1-1l0,0
				c0.553,0,1,0.448,1,1l0,0c0,0.552-0.447,1-1,1l0,0C190.769,98.624,190.322,98.176,190.322,97.624z M186.302,97.624
				c0-0.552,0.447-1,1-1l0,0c0.552,0,1,0.448,1,1l0,0c0,0.552-0.448,1-1,1l0,0C186.749,98.624,186.302,98.176,186.302,97.624z
				 M182.281,97.624c0-0.552,0.448-1,1-1l0,0c0.552,0,1,0.448,1,1l0,0c0,0.552-0.448,1-1,1l0,0
				C182.729,98.624,182.281,98.176,182.281,97.624z M178.261,97.624c0-0.552,0.447-1,1-1l0,0c0.552,0,1,0.448,1,1l0,0
				c0,0.552-0.448,1-1,1l0,0C178.708,98.624,178.261,98.176,178.261,97.624z M174.24,97.624c0-0.552,0.447-1,1-1l0,0
				c0.552,0,1,0.448,1,1l0,0c0,0.552-0.448,1-1,1l0,0C174.687,98.624,174.24,98.176,174.24,97.624z M170.219,97.624
				c0-0.552,0.448-1,1-1l0,0c0.553,0,1,0.448,1,1l0,0c0,0.552-0.447,1-1,1l0,0C170.667,98.624,170.219,98.176,170.219,97.624z
				 M166.199,97.624c0-0.552,0.447-1,1-1l0,0c0.552,0,1,0.448,1,1l0,0c0,0.552-0.448,1-1,1l0,0
				C166.646,98.624,166.199,98.176,166.199,97.624z M162.178,97.624c0-0.552,0.448-1,1-1l0,0c0.552,0,1.001,0.448,1.001,1l0,0
				c0,0.552-0.449,1-1.001,1l0,0C162.626,98.624,162.178,98.176,162.178,97.624z M158.158,97.624c0-0.552,0.447-1,1-1l0,0
				c0.552,0,0.999,0.448,0.999,1l0,0c0,0.552-0.447,1-0.999,1l0,0C158.605,98.624,158.158,98.176,158.158,97.624z M154.137,97.624
				c0-0.552,0.448-1,1-1l0,0c0.553,0,1,0.448,1,1l0,0c0,0.552-0.447,1-1,1l0,0C154.585,98.624,154.137,98.176,154.137,97.624z
				 M150.117,97.624c0-0.552,0.447-1,1-1l0,0c0.552,0,1,0.448,1,1l0,0c0,0.552-0.448,1-1,1l0,0
				C150.564,98.624,150.117,98.176,150.117,97.624z M146.096,97.624c0-0.552,0.448-1,1.001-1l0,0c0.551,0,1,0.448,1,1l0,0
				c0,0.552-0.449,1-1,1l0,0C146.544,98.624,146.096,98.176,146.096,97.624z M142.076,97.624c0-0.552,0.447-1,0.999-1l0,0
				c0.553,0,1,0.448,1,1l0,0c0,0.552-0.447,1-1,1l0,0C142.523,98.624,142.076,98.176,142.076,97.624z M138.055,97.624
				c0-0.552,0.448-1,1-1l0,0c0.552,0,1,0.448,1,1l0,0c0,0.552-0.448,1-1,1l0,0C138.503,98.624,138.055,98.176,138.055,97.624z
				 M134.034,97.624c0-0.552,0.448-1,1.001-1l0,0c0.552,0,1,0.448,1,1l0,0c0,0.552-0.448,1-1,1l0,0
				C134.482,98.624,134.034,98.176,134.034,97.624z M130.014,97.624c0-0.552,0.447-1,1-1l0,0c0.552,0,1,0.448,1,1l0,0
				c0,0.552-0.448,1-1,1l0,0C130.461,98.624,130.014,98.176,130.014,97.624z M125.994,97.624c0-0.552,0.447-1,0.999-1l0,0
				c0.553,0,1,0.448,1,1l0,0c0,0.552-0.447,1-1,1l0,0C126.441,98.624,125.994,98.176,125.994,97.624z M121.973,97.624
				c0-0.552,0.448-1,1-1l0,0c0.552,0,1,0.448,1,1l0,0c0,0.552-0.448,1-1,1l0,0C122.421,98.624,121.973,98.176,121.973,97.624z
				 M117.953,97.624c0-0.552,0.447-1,1-1l0,0c0.552,0,1,0.448,1,1l0,0c0,0.552-0.448,1-1,1l0,0
				C118.4,98.624,117.953,98.176,117.953,97.624z M113.932,97.624c0-0.552,0.448-1,1-1l0,0c0.552,0,1,0.448,1,1l0,0
				c0,0.552-0.448,1-1,1l0,0C114.38,98.624,113.932,98.176,113.932,97.624z M109.911,97.624c0-0.552,0.448-1,1-1l0,0
				c0.553,0,1,0.448,1,1l0,0c0,0.552-0.447,1-1,1l0,0C110.359,98.624,109.911,98.176,109.911,97.624z M105.891,97.624
				c0-0.552,0.447-1,1-1l0,0c0.553,0,1,0.448,1,1l0,0c0,0.552-0.447,1-1,1l0,0C106.338,98.624,105.891,98.176,105.891,97.624z
				 M101.87,97.625c0-0.552,0.446-1.001,0.999-1.001l0,0c0.553,0,1.001,0.447,1.002,0.999l0,0c0,0.552-0.448,1-0.999,1.001l0,0
				C102.319,98.624,101.871,98.177,101.87,97.625z"/>
			<path style="fill:#407BFF;" d="M84.778,192.847c-0.264,0-0.522-0.107-0.708-0.293c-0.186-0.186-0.292-0.444-0.292-0.708
				c0-0.263,0.106-0.521,0.292-0.707c0.372-0.371,1.043-0.372,1.415,0c0.186,0.186,0.293,0.444,0.293,0.707
				c0,0.264-0.107,0.522-0.293,0.708C85.299,192.74,85.041,192.847,84.778,192.847z"/>
		</g>
		<g>
			<path style="fill:#407BFF;" d="M365.583,128.847c-0.262,0-0.52-0.107-0.706-0.293c-0.186-0.186-0.293-0.444-0.293-0.708
				c0-0.263,0.107-0.521,0.293-0.707c0.372-0.372,1.043-0.371,1.414,0c0.186,0.187,0.293,0.445,0.293,0.707
				c0,0.263-0.107,0.521-0.293,0.708C366.104,128.74,365.846,128.847,365.583,128.847z"/>
			<path style="fill:#407BFF;" d="M364.583,124.032c0-0.553,0.449-1.001,1-1.001l0,0c0.553,0,1.001,0.448,1.001,1.001l0,0
				c0,0.552-0.448,1-1.001,1l0,0C365.032,125.032,364.583,124.584,364.583,124.032z M364.583,120.217c0-0.553,0.449-1,1-1l0,0
				c0.553,0,1.001,0.447,1.001,1l0,0c0,0.552-0.448,1-1.001,1l0,0C365.032,121.217,364.583,120.769,364.583,120.217z"/>
			<path style="fill:#407BFF;" d="M365.583,117.401c-0.263,0-0.521-0.106-0.706-0.292c-0.186-0.186-0.293-0.444-0.293-0.707
				c0-0.264,0.107-0.522,0.293-0.707c0.373-0.373,1.042-0.373,1.414,0c0.186,0.186,0.293,0.443,0.293,0.707
				c0,0.262-0.107,0.52-0.293,0.707C366.105,117.295,365.847,117.401,365.583,117.401z"/>
		</g>
	</g>
</g>
<g id="Character">
	<g>
		<polygon style="fill:#FFC3BD;" points="354.67,211.051 350.982,212.694 353.042,218.503 356.496,216.556 		"/>
		<g>
			<path style="fill:#263238;" d="M356.778,229.922l15.082-1.615c0.757-0.081,1.238-0.759,1.07-1.506l-5.489-24.455
				c-0.168-0.747-0.924-1.292-1.68-1.211l-15.082,1.615c-0.757,0.081-1.238,0.759-1.07,1.506l5.489,24.455
				C355.266,229.458,356.022,230.003,356.778,229.922z"/>
			<path style="fill:#407BFF;" d="M357.008,229.897l15.082-1.615c0.757-0.081,1.238-0.759,1.07-1.506l-5.489-24.455
				c-0.168-0.747-0.924-1.292-1.68-1.211l-15.082,1.615c-0.757,0.081-1.238,0.759-1.07,1.506l5.489,24.455
				C355.495,229.433,356.251,229.978,357.008,229.897z"/>
			<path style="opacity:0.9;fill:#FFFFFF;" d="M355.804,228.441l16.795-1.798c0.183-0.02,0.299-0.182,0.258-0.363l-5.247-23.376
				c-0.041-0.181-0.222-0.312-0.405-0.292l-16.795,1.799c-0.183,0.02-0.299,0.182-0.258,0.363l5.247,23.376
				C355.439,228.33,355.621,228.461,355.804,228.441z"/>
			<g>
				<path style="fill:#407BFF;" d="M362.674,218.304c-0.506,0.003-1.012-0.091-1.482-0.271c-0.47-0.179-0.903-0.443-1.27-0.765
					c-0.366-0.322-0.666-0.702-0.88-1.105c-0.15-0.282-0.258-0.575-0.324-0.869l0.67-0.072l-1.801-2.087l-0.802,2.365l0.699-0.075
					c0.178,0.437,0.419,0.85,0.712,1.218c0.375,0.472,0.833,0.872,1.334,1.175c0.501,0.303,1.045,0.51,1.588,0.61
					c0.543,0.101,1.084,0.095,1.583-0.008c0.027-0.006,0.046-0.03,0.042-0.059C362.738,218.33,362.708,218.304,362.674,218.304z"/>
				<path style="fill:#407BFF;" d="M365.36,214.891c-0.178-0.437-0.419-0.85-0.712-1.218c-0.375-0.472-0.833-0.872-1.334-1.175
					c-0.501-0.303-1.045-0.51-1.588-0.61c-0.543-0.101-1.084-0.095-1.583,0.008c-0.027,0.006-0.046,0.03-0.042,0.059
					c0.004,0.033,0.035,0.059,0.069,0.059c0.506-0.003,1.012,0.091,1.482,0.271c0.47,0.179,0.903,0.443,1.27,0.765
					c0.366,0.322,0.666,0.702,0.88,1.105c0.15,0.282,0.257,0.575,0.324,0.869l-0.669,0.072l1.801,2.087l0.802-2.366L365.36,214.891z
					"/>
				<g style="opacity:0.3;">
					<path style="fill:#FFFFFF;" d="M354.31,203.99l-1.47,12.78v0.01l2.56,11.37c0.04,0.18,0.22,0.31,0.4,0.29l1.9-0.2l2.86-24.92
						L354.31,203.99z"/>
					<polygon style="fill:#FFFFFF;" points="362.19,203.15 359.33,228.06 362.66,227.7 365.92,202.75 					"/>
				</g>
			</g>
			<path style="opacity:0.2;" d="M359.897,202.406l-2.612,0.28c-0.093,0.01-0.153,0.094-0.132,0.186l0,0
				c0.021,0.092,0.114,0.159,0.207,0.149l2.612-0.28c0.093-0.01,0.153-0.094,0.132-0.186l0,0
				C360.083,202.463,359.99,202.395,359.897,202.406z"/>
		</g>
		<path style="fill:#FFC3BD;" d="M407.818,210.055c2.206,3.647,4.19,7.288,6.099,11.05c1.887,3.763,3.65,7.604,5.214,11.622
			c0.367,1.029,0.759,2.024,1.091,3.089l0.258,0.788l0.129,0.394l0.093,0.31l0.112,0.43c0.131,0.633,0.247,1.439,0.043,2.491
			c-0.18,1.048-0.89,2.249-1.695,2.901c-0.801,0.678-1.538,0.953-2.129,1.134c-0.594,0.17-1.069,0.226-1.52,0.267
			c-0.867,0.059-1.572,0.008-2.232-0.065c-1.309-0.149-2.434-0.43-3.531-0.734c-4.333-1.254-8.126-2.992-11.907-5.049l1.63-4.195
			c3.936,0.834,7.985,1.735,11.72,2.205c0.922,0.105,1.835,0.17,2.583,0.159c0.368-0.007,0.697-0.047,0.856-0.097
			c0.06-0.025,0.096-0.053-0.007-0.04c-0.103,0.021-0.364,0.073-0.776,0.41c-0.416,0.316-0.854,1.046-0.944,1.586
			c-0.11,0.544-0.049,0.828-0.033,0.96c0,0.024-0.001,0.04,0.003,0.059l0.006,0.026l-0.034-0.083l-0.136-0.333l-0.272-0.665
			c-0.343-0.884-0.774-1.781-1.162-2.67c-1.642-3.58-3.497-7.156-5.41-10.711c-1.907-3.547-3.896-7.136-5.863-10.602
			L407.818,210.055z"/>
		<path style="fill:#FFC3BD;" d="M400.022,234.226l-4.135-1.59l-1.022,6.851c0,0,3.276,0.872,5.548-0.936L400.022,234.226z"/>
		<polygon style="fill:#FFC3BD;" points="389.981,230.794 390.259,236.941 394.865,239.487 395.887,232.636 		"/>
		<path style="fill:#263238;" d="M376.882,187.971c0.119,0.469-0.033,0.912-0.339,0.989c-0.306,0.078-0.651-0.239-0.77-0.708
			c-0.119-0.469,0.033-0.912,0.339-0.989S376.763,187.502,376.882,187.971z"/>
		<path style="fill:#ED847E;" d="M376.892,188.871c0,0-0.379,2.974-1.221,4.577c1.026,0.563,2.345-0.148,2.345-0.148
			L376.892,188.871z"/>
		<path style="fill:#263238;" d="M377.937,184.932c0.062-0.03,0.114-0.083,0.141-0.152c0.057-0.146-0.014-0.311-0.16-0.368
			c-1.462-0.576-2.538,0.17-2.584,0.203c-0.128,0.091-0.158,0.268-0.067,0.396c0.091,0.127,0.269,0.156,0.395,0.068l0,0
			c0.035-0.025,0.882-0.598,2.048-0.138C377.786,184.971,377.868,184.966,377.937,184.932z"/>
		<path style="fill:#FFC3BD;" d="M391.297,190.5c1.226,4.455,0.693,10.728,4.337,13.655c0,0-0.323,4.449-8.472,4.449
			c-8.96,0-5.158-4.448-5.158-4.448c4.66-1.168,3.82-4.796,2.298-8.204L391.297,190.5z"/>
		<path style="fill:#263238;" d="M395.958,205.139c0.647-0.857,1.359-1.838-0.114-2.145c-1.621-0.338-10.496-0.683-13.556-0.048
			c-3.06,0.635-2.192,2.373-2.192,2.373L395.958,205.139z"/>
		<path style="fill:#407BFF;" d="M421.949,407.489c-0.601,0.13-1.203,0.164-1.492-0.082c-0.121-0.103-0.244-0.302-0.138-0.66
			c0.056-0.188,0.179-0.329,0.365-0.418c0.81-0.387,2.67,0.372,2.749,0.404c0.052,0.021,0.086,0.071,0.087,0.127
			c0.002,0.056-0.03,0.108-0.08,0.132C423.156,407.13,422.553,407.358,421.949,407.489z M420.973,406.531
			c-0.061,0.013-0.117,0.031-0.167,0.055c-0.113,0.054-0.183,0.133-0.216,0.242c-0.076,0.255,0.018,0.336,0.05,0.362
			c0.322,0.274,1.519,0.022,2.362-0.316C422.431,406.673,421.506,406.415,420.973,406.531z"/>
		<path style="fill:#407BFF;" d="M423.409,407.004c-0.023,0.005-0.047,0.004-0.07-0.003c-0.678-0.198-2.128-1.228-2.145-1.908
			c-0.003-0.123,0.04-0.347,0.363-0.459c0.21-0.073,0.421-0.056,0.629,0.05c0.801,0.409,1.307,2.069,1.328,2.14
			c0.015,0.05,0.002,0.104-0.035,0.141C423.46,406.985,423.435,406.998,423.409,407.004z M421.712,404.884
			c-0.021,0.004-0.041,0.01-0.062,0.017c-0.175,0.061-0.173,0.147-0.172,0.184c0.01,0.402,0.967,1.21,1.669,1.537
			c-0.175-0.479-0.576-1.424-1.089-1.686C421.94,404.877,421.827,404.86,421.712,404.884z"/>
		<path style="fill:#407BFF;" d="M378.784,410.425c-0.769,0-1.512-0.106-1.762-0.452c-0.087-0.121-0.156-0.327,0.012-0.621
			c0.094-0.165,0.245-0.276,0.45-0.332c0.998-0.271,3.093,0.923,3.181,0.974c0.051,0.029,0.079,0.088,0.069,0.146
			c-0.01,0.058-0.055,0.105-0.112,0.116C380.24,410.333,379.501,410.425,378.784,410.425z M377.833,409.262
			c-0.1,0-0.192,0.01-0.275,0.033c-0.131,0.036-0.222,0.101-0.278,0.199c-0.1,0.176-0.064,0.264-0.027,0.314
			c0.279,0.387,1.794,0.396,2.909,0.239C379.606,409.761,378.534,409.262,377.833,409.262z"/>
		<path style="fill:#407BFF;" d="M380.595,410.259c-0.02,0-0.039-0.004-0.058-0.013c-0.724-0.325-2.157-1.621-2.047-2.299
			c0.026-0.159,0.139-0.357,0.529-0.397c0.291-0.03,0.555,0.053,0.787,0.243c0.763,0.626,0.924,2.241,0.931,2.31
			c0.005,0.05-0.018,0.099-0.059,0.129C380.653,410.25,380.624,410.259,380.595,410.259z M379.132,407.829
			c-0.028,0-0.057,0.001-0.085,0.004c-0.255,0.026-0.272,0.126-0.277,0.16c-0.066,0.407,0.908,1.426,1.646,1.869
			c-0.077-0.472-0.29-1.438-0.791-1.849C379.474,407.89,379.312,407.829,379.132,407.829z"/>
		<polygon style="fill:#FFC3BD;" points="387.187,410.117 381.192,410.117 380.595,396.235 386.59,396.235 		"/>
		<polygon style="fill:#FFC3BD;" points="430.091,405.411 424.232,406.68 418.35,393.75 424.209,392.481 		"/>
		<path style="fill:#263238;" d="M423.669,406.092l6.582-1.425c0.24-0.052,0.483,0.07,0.585,0.292l2.285,4.957
			c0.237,0.514-0.077,1.117-0.632,1.228c-2.307,0.458-3.452,0.565-6.347,1.192c-1.781,0.385-5.801,1.365-8.26,1.897
			c-2.405,0.521-3.307-1.83-2.348-2.268c4.3-1.965,6.097-3.695,7.261-5.307C423.006,406.367,423.319,406.168,423.669,406.092z"/>
		<path style="fill:#263238;" d="M381.232,409.423h6.547c0.245,0,0.457,0.17,0.51,0.409l1.184,5.328
			c0.123,0.552-0.297,1.076-0.862,1.066c-2.362-0.04-5.774-0.178-8.742-0.178c-3.47,0-6.468,0.189-10.538,0.189
			c-2.461,0-3.144-2.488-2.114-2.713c4.69-1.026,8.519-1.136,12.571-3.634C380.228,409.619,380.714,409.423,381.232,409.423z"/>
		<path style="fill:#FFC3BD;" d="M379.377,212.378c-1.204,2.868-2.511,5.485-3.896,8.172c-1.401,2.657-2.894,5.28-4.563,7.845
			c-1.667,2.569-3.472,5.092-5.674,7.507c-1.113,1.203-2.309,2.398-3.783,3.497c-1.477,1.072-3.236,2.185-5.75,2.631l-1.294,0.229
			l-1.115-0.533c-0.865-0.414-1.639-1.023-2.217-1.675c-0.584-0.653-0.988-1.336-1.277-1.977c-0.573-1.287-0.771-2.417-0.894-3.463
			c-0.218-2.085-0.02-3.895,0.231-5.647c0.281-1.744,0.676-3.408,1.158-5.031c0.509-1.628,1.029-3.179,1.73-4.779l4.34,1.193
			c-0.119,1.498-0.273,3.084-0.331,4.609c-0.08,1.531-0.126,3.047-0.078,4.499c0.029,1.441,0.183,2.858,0.462,3.944
			c0.136,0.532,0.333,0.976,0.476,1.126c0.165,0.174,0.094-0.09-0.212-0.27l-2.408-0.304c0.358-0.097,1.169-0.521,1.973-1.223
			c0.813-0.695,1.666-1.578,2.475-2.549c1.622-1.963,3.137-4.231,4.567-6.573c1.42-2.356,2.774-4.802,4.063-7.293
			c1.297-2.465,2.535-5.075,3.669-7.525L379.377,212.378z"/>
		<g>
			<path style="fill:#407BFF;" d="M405.462,205.51c5.618,1.288,15.052,29.185,15.052,29.185l-9.18,3.052
				c0,0-9.369-13.877-12.547-20.568C395.456,210.168,399.717,204.193,405.462,205.51z"/>
			<path style="opacity:0.3;fill:#FFFFFF;" d="M405.462,205.51c5.618,1.288,15.052,29.185,15.052,29.185l-9.18,3.052
				c0,0-9.369-13.877-12.547-20.568C395.456,210.168,399.717,204.193,405.462,205.51z"/>
		</g>
		<path style="opacity:0.3;" d="M402.947,215.111c-1.493-1.788-2.484,0.608-2.194,5.799c0.911,1.609,1.948,3.356,3.016,5.093
			C404.932,220.837,404.565,217.417,402.947,215.111z"/>
		<g>
			<g>
				<path style="fill:#263238;" d="M410.682,236.002c1.766-0.679,5.717-2.083,9.27-2.529c0.525-0.066,1.037,0.237,1.229,0.73
					c0.592,1.521,1.09,4.204,0.592,5.112c-0.61,1.113-8.96,2.721-10.099,2.065c-0.786-0.453-1.409-2.667-1.72-3.993
					C409.819,236.807,410.125,236.217,410.682,236.002z"/>
			</g>
		</g>
		<g>
			<path style="fill:#407BFF;" d="M371.878,205.819c0,0-6.38,7.207-0.355,51.814c9.661,0,27.362,0,32.063,0
				c0.221-4.922-2.872-28.932,1.875-52.123c0,0-5.496-1.103-10.733-1.355c-4.097-0.197-10.028-0.328-13.63,0.001
				C376.35,204.588,371.878,205.819,371.878,205.819z"/>
			<path style="opacity:0.3;fill:#FFFFFF;" d="M371.878,205.819c0,0-6.38,7.207-0.355,51.814c9.661,0,27.362,0,32.063,0
				c0.221-4.922-2.872-28.932,1.875-52.123c0,0-5.496-1.103-10.733-1.355c-4.097-0.197-10.028-0.328-13.63,0.001
				C376.35,204.588,371.878,205.819,371.878,205.819z"/>
		</g>
		<path style="opacity:0.3;" d="M375.752,221.21c-0.54-3.6-3.94-2.8-6.68-1.5c-0.22,4.34-0.2,9.98,0.29,17.25
			C371.652,235.9,376.522,226.38,375.752,221.21z"/>
		<g>
			<path style="fill:#407BFF;" d="M379.242,210.158c3.707,7.385-13.698,27.833-13.698,27.833l-6.21-10.194
				c0,0,5.62-8.986,7.919-16.036C370.092,203.053,376.42,204.536,379.242,210.158z"/>
			<path style="opacity:0.3;fill:#FFFFFF;" d="M379.242,210.158c3.707,7.385-13.698,27.833-13.698,27.833l-6.21-10.194
				c0,0,5.62-8.986,7.919-16.036C370.092,203.053,376.42,204.536,379.242,210.158z"/>
		</g>
		<g>
			<path style="fill:#263238;" d="M360.025,226.861c1.546,1.77,5.997,6.956,7.314,9.479c0.127,0.244,0.103,0.54-0.059,0.762
				c-0.908,1.25-3.459,3.34-4.702,3.327c-1.383-0.014-7.667-7.143-7.581-8.469c0.067-1.028,2.729-3.89,3.923-5.126
				C359.228,226.516,359.734,226.528,360.025,226.861z"/>
		</g>
		<path style="fill:#FFC3BD;" d="M356.009,221.788l0.313-1.083c0.477-1.649-0.048-3.425-1.346-4.549l-3.995-3.462
			c0,0-1.867,7.667,1.618,10.296L356.009,221.788z"/>
		<path style="fill:#FFC3BD;" d="M353.103,215.903l0.934-0.736l-0.096-2.111l0.65-1.361l0.753,1.708l0.969,2.214
			c0.174,0.399,0.259,0.831,0.247,1.266l-0.066,2.461L353.103,215.903z"/>
		<g>
			<polygon style="opacity:0.2;" points="380.596,396.239 380.903,403.394 386.9,403.394 386.594,396.239 			"/>
			<polygon style="opacity:0.2;" points="424.212,392.484 418.35,393.753 421.385,400.418 427.247,399.149 			"/>
		</g>
		<path style="fill:#FFC3BD;" d="M392.26,183.007c1.109,5.845,2.054,9.21-0.102,12.903c-3.244,5.554-11.018,4.723-13.85-0.673
			c-2.55-4.857-3.934-13.6,1.118-17.322C384.403,174.248,391.152,177.162,392.26,183.007z"/>
		<path style="fill:#263238;" d="M380.836,187.667c-1.845-1.845-5.542-2.458-6.125-6.583c-0.583-4.125,1.958-6.667,6.125-7.875
			c4.167-1.208,12.75-2.042,12.333,2.208c3.083,0,4.292,3.125,2.708,6.708c-1.583,3.583-3.307,9.375-2.424,12.542
			c-1.742,2.583-8.534,2.455-9.534-1.002C382.919,190.208,381.919,188.75,380.836,187.667z"/>
		<path style="fill:#263238;" d="M376.327,172.232c0,0-3.561,1.254-4.186,6.129s3.111,5.555,5.111,4.597l0.292-5.958
			C374.961,177.208,376.327,172.232,376.327,172.232z"/>
		<path style="fill:#263238;" d="M381.588,171.774c0,0-3.768-0.232-6.243,4.015c-2.475,4.247,0.702,6.329,2.917,6.225l2.589-5.374
			C378.392,175.825,381.588,171.774,381.588,171.774z"/>
		<path style="fill:#263238;" d="M392.343,175.941c0,0,2.563-2.906,4.542-1.285C395.926,174.712,393.447,175.215,392.343,175.941z"
			/>
		<path style="fill:#FFC3BD;" d="M383.259,187.651c0.303,1.529-0.026,3.127-0.626,4.273c-0.901,1.723-2.447,1.2-3.114-0.438
			c-0.6-1.475-0.855-4.148,0.491-5.32C381.336,185.011,382.913,185.903,383.259,187.651z"/>
		<path style="fill:#263238;" d="M382.897,257.633c0,0,6.803,45.812,10.538,62.975c4.09,18.795,24.926,79.047,24.926,79.047
			l10.731-2.323c0,0-15.34-56.411-17.674-75.02c-2.533-20.196-7.832-64.679-7.832-64.679H382.897z"/>
		<path style="fill:#407BFF;" d="M415.792,396.072c-0.046,0.01,2,3.881,2,3.881l12.073-2.614l-1.018-3.629L415.792,396.072z"/>
		<path style="opacity:0.3;" d="M387.197,273.956c7.866,1.542,7.034,30.878,6.087,45.965c-2.268-10.665-5.59-31.188-7.858-45.753
			C385.948,273.907,386.536,273.825,387.197,273.956z"/>
		<path style="fill:#263238;" d="M371.523,257.633c0,0-0.826,44.82-0.174,63.101c0.678,19.015,7.32,81.275,7.32,81.275h10.155
			c0,0,0.373-61.149,0.824-79.823c0.493-20.358,2.951-64.553,2.951-64.553H371.523z"/>
		<path style="opacity:0.2;fill:#FFFFFF;" d="M380.785,394.714c0.004,0,0.007,0,0.01,0c0.056-0.006,0.097-0.056,0.091-0.112
			c-1.79-17.224-6.009-58.901-6.544-73.871c-0.545-15.298-0.05-49.523,0.115-59.648c0.001-0.056-0.044-0.103-0.1-0.104
			c0,0-0.001,0-0.002,0c-0.056,0-0.101,0.045-0.102,0.1c-0.165,10.126-0.66,44.355-0.115,59.659
			c0.535,14.976,4.755,56.659,6.544,73.885C380.689,394.675,380.733,394.714,380.785,394.714z"/>
		<path style="fill:#407BFF;" d="M376.715,397.964c-0.047,0,0.573,4.216,0.573,4.216h12.353l0.334-3.763L376.715,397.964z"/>
	</g>
</g>
</svg>
