<?xml version="1.0" encoding="utf-8"?>
<!-- Generator: Adobe Illustrator 27.5.0, SVG Export Plug-In . SVG Version: 6.00 Build 0)  -->
<svg version="1.1" xmlns="http://www.w3.org/2000/svg" xmlns:xlink="http://www.w3.org/1999/xlink" x="0px" y="0px"
	 viewBox="0 0 650 500" style="enable-background:new 0 0 650 500;" xml:space="preserve">
<g id="BACKGROUND">
	<g>
		<rect style="fill:#FFFFFF;" width="650" height="500"/>
	</g>
</g>
<g id="OBJECTS">
	<g>
		<g>
			<rect x="63.05" y="467.56" style="fill:#19203F;" width="538.94" height="1.16"/>
		</g>
		<g>
			<path style="fill:#DEEDFF;" d="M592.31,467.56H77.43c-1.73-2.7-3.28-5.51-4.64-8.41c-12.43-26.38-10.16-59.67,6.96-83.48
				c10.19-14.17,25.58-23.31,36.66-36.66c11.61-13.98,16.85-31.82,20.07-49.39c6.18-33.61,6.51-73.1,35.31-96.65
				c12.15-9.95,27.1-13.43,42.44-10.34c16.33,3.29,31.05,11.82,47.35,15.19c8.53,1.77,17.16,1.71,25.58-0.62
				c8.66-2.4,16.67-6.69,24.31-11.35c15.05-9.18,29.35-20.07,46.86-24.11c8.14-1.88,16.7-2,24.67,0.74
				c7.01,2.4,12.98,6.98,17.76,12.58c10.17,11.91,14.62,27.2,19.87,41.64c5.77,15.89,13.37,31.63,29.2,39.56
				c15.29,7.66,32.81,7.75,49.13,11.82c14.22,3.55,28.55,10.22,35.33,23.99c6.87,13.95,4.58,30.35,4.67,45.34
				c0.05,7.62,0.54,15.43,3.22,22.63c2.95,7.98,8.65,13.89,15.37,18.89c6.46,4.8,13.51,8.86,19.38,14.41
				c4.76,4.51,8.72,9.79,11.83,15.56C598.31,426.66,599.66,448.83,592.31,467.56z"/>
		</g>
	</g>
	<g>
		<g>
			<g>
				<g>
					<g>
						<path style="fill:#A4BFEA;" d="M326.988,426.147c-12.891,0-23.379-10.488-23.379-23.379v-15.412h9.921v15.412
							c0,7.421,6.037,13.457,13.457,13.457s13.457-6.037,13.457-13.457v-59.649h9.921v59.649
							C350.367,415.659,339.879,426.147,326.988,426.147z"/>
					</g>
				</g>
				<g>
					<g>
						<polygon style="fill:#A4BFEA;" points="323.411,391.698 308.571,365.998 293.73,391.698 						"/>
					</g>
				</g>
			</g>
			<g>
				<g>
					<g>
						<rect x="350.334" y="343.119" style="fill:#A4BFEA;" width="9.921" height="94.618"/>
					</g>
				</g>
				<g>
					<g>
						<polygon style="fill:#A4BFEA;" points="340.453,433.395 355.293,459.095 370.135,433.395 						"/>
					</g>
				</g>
			</g>
			<g>
				<g>
					<g>
						<path style="fill:#A4BFEA;" d="M383.634,415.624c12.891,0,23.379-10.488,23.379-23.379v-15.412h-9.921v15.412
							c0,7.421-6.037,13.457-13.457,13.457s-13.457-6.037-13.457-13.457v-49.126h-9.921v49.126
							C360.255,405.136,370.743,415.624,383.634,415.624z"/>
					</g>
				</g>
				<g>
					<g>
						<polygon style="fill:#A4BFEA;" points="387.211,381.175 402.051,355.474 416.892,381.175 						"/>
					</g>
				</g>
			</g>
		</g>
		<g>
			<g>
				<path style="fill:#A4BFEA;" d="M139.273,338.297c-3.519,0.972-7.151,1.555-10.796,1.734c-0.16,0.008-0.316-0.048-0.435-0.156
					c-0.118-0.107-0.189-0.257-0.197-0.417l-0.321-6.671c-3.837,0.135-7.682-0.271-11.446-1.208l-1.707,6.456
					c-0.085,0.322-0.413,0.513-0.735,0.429c-6.953-1.812-13.614-5.291-19.265-10.059c-0.122-0.103-0.199-0.251-0.212-0.411
					c-0.013-0.159,0.038-0.318,0.142-0.44l4.33-5.094c-3.611-3.156-6.618-6.871-8.948-11.057l-5.881,3.167
					c-0.292,0.155-0.659,0.048-0.816-0.245c-1.733-3.215-3.108-6.627-4.085-10.143c-0.977-3.515-1.56-7.148-1.734-10.796
					c-0.016-0.332,0.242-0.616,0.573-0.63l6.671-0.322c-0.135-3.836,0.27-7.68,1.208-11.445l-6.455-1.708
					c-0.321-0.085-0.513-0.413-0.429-0.734c1.804-6.941,5.28-13.602,10.052-19.264c0.104-0.123,0.252-0.2,0.411-0.212
					c0.159-0.013,0.318,0.037,0.44,0.141l5.102,4.329c3.155-3.612,6.87-6.619,11.057-8.949l-3.167-5.881
					c-0.158-0.293-0.048-0.658,0.245-0.816c3.206-1.729,6.617-3.105,10.14-4.09c3.528-0.974,7.16-1.555,10.799-1.728
					c0.332-0.016,0.615,0.241,0.631,0.573l0.321,6.671c3.837-0.135,7.681,0.271,11.445,1.209l1.708-6.456
					c0.086-0.321,0.413-0.512,0.734-0.429c6.929,1.8,13.59,5.276,19.263,10.052c0.123,0.103,0.199,0.251,0.212,0.41
					c0.013,0.16-0.037,0.318-0.141,0.44l-4.329,5.101c3.612,3.156,6.619,6.871,8.949,11.057l5.881-3.167
					c0.291-0.159,0.658-0.048,0.816,0.244c1.72,3.191,3.095,6.602,4.084,10.141c0.979,3.544,1.562,7.176,1.734,10.797
					c0.015,0.332-0.242,0.613-0.573,0.631l-6.672,0.322c0.135,3.843-0.272,7.686-1.209,11.44l6.458,1.713
					c0.32,0.085,0.512,0.413,0.429,0.734c-1.801,6.929-5.277,13.59-10.052,19.263c-0.103,0.122-0.251,0.199-0.411,0.212
					c-0.159,0.013-0.318-0.037-0.44-0.141l-5.102-4.329c-3.155,3.612-6.871,6.618-11.057,8.949l3.167,5.881
					c0.076,0.141,0.092,0.306,0.046,0.459c-0.046,0.153-0.151,0.281-0.292,0.357C146.198,335.94,142.786,337.314,139.273,338.297z
					 M129.02,338.794c3.354-0.207,6.692-0.764,9.93-1.658c3.233-0.904,6.379-2.149,9.36-3.703l-3.163-5.874
					c-0.076-0.141-0.092-0.306-0.046-0.459c0.046-0.153,0.151-0.282,0.292-0.358c4.447-2.392,8.36-5.559,11.631-9.413
					c0.215-0.254,0.595-0.286,0.849-0.07l5.094,4.322c4.33-5.273,7.521-11.385,9.266-17.745l-6.453-1.712
					c-0.322-0.085-0.513-0.415-0.428-0.737c1.064-4.014,1.5-8.138,1.296-12.258c-0.008-0.16,0.048-0.316,0.155-0.435
					c0.108-0.119,0.259-0.189,0.417-0.197l6.665-0.321c-0.201-3.333-0.759-6.671-1.659-9.931c-0.91-3.255-2.155-6.402-3.702-9.36
					l-5.875,3.163c-0.138,0.075-0.305,0.093-0.459,0.047c-0.153-0.046-0.282-0.151-0.358-0.292
					c-2.392-4.447-5.559-8.36-9.413-11.632c-0.253-0.215-0.285-0.596-0.069-0.849l4.322-5.093
					c-5.273-4.33-11.386-7.522-17.745-9.266l-1.706,6.45c-0.086,0.322-0.416,0.513-0.737,0.429c-4.026-1.065-8.153-1.5-12.264-1.294
					c-0.16,0.008-0.316-0.048-0.435-0.155c-0.118-0.108-0.189-0.258-0.197-0.418l-0.321-6.665c-3.348,0.202-6.686,0.757-9.932,1.653
					c-3.241,0.906-6.387,2.153-9.358,3.707l3.164,5.875c0.076,0.141,0.092,0.306,0.046,0.459c-0.046,0.153-0.151,0.282-0.292,0.357
					c-4.447,2.392-8.36,5.559-11.631,9.413c-0.215,0.254-0.596,0.286-0.849,0.07l-5.094-4.323
					c-4.327,5.264-7.519,11.375-9.266,17.746l6.45,1.706c0.322,0.085,0.513,0.415,0.429,0.736c-1.064,4.028-1.5,8.154-1.294,12.264
					c0.008,0.16-0.048,0.316-0.155,0.435c-0.107,0.119-0.257,0.19-0.417,0.197l-6.665,0.321c0.202,3.356,0.759,6.693,1.658,9.929
					c0.899,3.236,2.144,6.382,3.702,9.362l5.875-3.164c0.138-0.075,0.305-0.092,0.459-0.046c0.153,0.046,0.282,0.151,0.358,0.292
					c2.392,4.447,5.559,8.36,9.413,11.631c0.122,0.104,0.197,0.251,0.211,0.411c0.013,0.16-0.038,0.317-0.142,0.439l-4.324,5.087
					c5.254,4.323,11.367,7.516,17.747,9.271l1.706-6.45c0.085-0.322,0.416-0.514,0.737-0.429c4.026,1.065,8.153,1.5,12.265,1.294
					c0.16-0.008,0.316,0.048,0.435,0.155c0.118,0.108,0.189,0.258,0.197,0.417L129.02,338.794z M134.031,319.439
					c-15.652,4.349-31.924-4.846-36.273-20.498c-4.35-15.655,4.844-31.929,20.496-36.279s31.925,4.848,36.275,20.503
					C158.879,298.817,149.683,315.09,134.031,319.439z M118.577,263.824c-15.012,4.171-23.83,19.78-19.657,34.795
					c4.171,15.012,19.778,23.831,34.789,19.66c15.012-4.171,23.831-19.778,19.659-34.79
					C149.196,268.474,133.588,259.652,118.577,263.824z"/>
			</g>
		</g>
		<g>
			<g>
				<path style="fill:#A4BFEA;" d="M534.389,235.674c-3.653-0.006-7.306-0.417-10.86-1.22c-0.156-0.035-0.291-0.131-0.377-0.267
					c-0.085-0.135-0.114-0.298-0.078-0.454l1.477-6.514c-3.749-0.902-7.345-2.322-10.705-4.228l-3.38,5.763
					c-0.168,0.287-0.534,0.383-0.822,0.217c-6.204-3.602-11.691-8.737-15.868-14.848c-0.091-0.132-0.125-0.295-0.095-0.453
					c0.03-0.158,0.121-0.297,0.254-0.387l5.531-3.75c-2.632-4.009-4.532-8.393-5.655-13.049l-6.515,1.476
					c-0.154,0.035-0.32,0.007-0.455-0.078c-0.135-0.085-0.231-0.221-0.266-0.377c-0.803-3.56-1.214-7.215-1.22-10.863
					c0.006-3.65,0.417-7.306,1.22-10.866c0.035-0.156,0.131-0.292,0.266-0.377c0.136-0.085,0.3-0.113,0.455-0.078l6.514,1.476
					c0.899-3.735,2.319-7.33,4.228-10.704l-5.762-3.374c-0.287-0.168-0.384-0.536-0.217-0.823c3.606-6.213,8.741-11.7,14.849-15.869
					c0.132-0.091,0.295-0.124,0.452-0.094c0.158,0.03,0.297,0.121,0.387,0.254l3.75,5.531c4.018-2.638,8.403-4.538,13.055-5.656
					l-1.477-6.514c-0.074-0.324,0.13-0.647,0.454-0.72c3.546-0.808,7.199-1.221,10.859-1.226c3.66,0.006,7.315,0.418,10.867,1.226
					c0.324,0.074,0.528,0.397,0.454,0.721l-1.477,6.514c3.736,0.899,7.332,2.319,10.704,4.228l3.373-5.762
					c0.168-0.287,0.536-0.384,0.822-0.217c6.205,3.596,11.693,8.728,15.87,14.843c0.09,0.132,0.124,0.295,0.094,0.453
					c-0.03,0.158-0.121,0.297-0.254,0.387l-5.537,3.75c2.636,4.012,4.538,8.399,5.662,13.055l6.515-1.477
					c0.323-0.074,0.647,0.13,0.721,0.454c0.807,3.552,1.22,7.208,1.226,10.865c-0.006,3.66-0.418,7.315-1.226,10.867
					c-0.074,0.324-0.398,0.527-0.721,0.454l-6.514-1.476c-0.9,3.743-2.32,7.337-4.228,10.699l5.763,3.379
					c0.286,0.168,0.383,0.535,0.217,0.822c-3.59,6.194-8.722,11.681-14.843,15.869c-0.132,0.09-0.297,0.124-0.453,0.095
					c-0.158-0.03-0.297-0.121-0.387-0.254l-3.75-5.536c-4.013,2.636-8.399,4.538-13.055,5.662l1.477,6.515
					c0.035,0.156,0.007,0.32-0.078,0.455c-0.085,0.135-0.221,0.231-0.377,0.266C541.692,235.257,538.037,235.667,534.389,235.674z
					 M524.383,233.408c3.282,0.698,6.645,1.055,10.005,1.061c3.357-0.006,6.722-0.363,10.009-1.062l-1.475-6.507
					c-0.035-0.156-0.007-0.32,0.078-0.454c0.085-0.135,0.221-0.231,0.377-0.267c4.922-1.113,9.543-3.117,13.733-5.955
					c0.275-0.186,0.65-0.115,0.837,0.161l3.744,5.528c5.585-3.922,10.295-8.957,13.679-14.617l-5.758-3.377
					c-0.138-0.081-0.238-0.213-0.278-0.368c-0.04-0.155-0.018-0.319,0.064-0.457c2.099-3.579,3.623-7.435,4.53-11.464
					c0.035-0.156,0.131-0.292,0.266-0.377c0.136-0.085,0.299-0.112,0.455-0.078l6.508,1.475c0.702-3.28,1.061-6.644,1.066-10.012
					c-0.005-3.365-0.364-6.73-1.066-10.01l-6.508,1.475c-0.156,0.035-0.319,0.007-0.454-0.078c-0.135-0.085-0.231-0.221-0.267-0.377
					c-1.114-4.923-3.117-9.543-5.955-13.733c-0.089-0.132-0.123-0.295-0.093-0.451c0.031-0.157,0.122-0.296,0.254-0.385l5.528-3.744
					c-3.912-5.579-8.947-10.289-14.617-13.678l-3.37,5.758c-0.169,0.287-0.539,0.384-0.824,0.216
					c-3.591-2.101-7.45-3.626-11.471-4.53c-0.156-0.035-0.292-0.131-0.377-0.266c-0.085-0.135-0.114-0.299-0.078-0.455l1.475-6.508
					c-3.28-0.702-6.644-1.061-10.012-1.066c-3.367,0.005-6.729,0.364-10.003,1.066l1.475,6.508c0.035,0.156,0.007,0.32-0.078,0.455
					c-0.085,0.135-0.221,0.231-0.377,0.266c-4.917,1.106-9.538,3.108-13.733,5.949c-0.275,0.186-0.65,0.115-0.837-0.161
					l-3.744-5.523c-5.572,3.906-10.286,8.94-13.683,14.617l5.757,3.371c0.287,0.168,0.384,0.537,0.216,0.824
					c-2.102,3.592-3.626,7.451-4.53,11.47c-0.035,0.156-0.131,0.292-0.266,0.377s-0.299,0.114-0.455,0.078l-6.507-1.475
					c-0.699,3.288-1.056,6.653-1.062,10.012c0.005,3.357,0.363,6.722,1.061,10.009l6.507-1.475c0.155-0.035,0.319-0.007,0.454,0.078
					c0.135,0.085,0.231,0.221,0.267,0.377c1.113,4.924,3.115,9.542,5.949,13.727c0.187,0.275,0.115,0.65-0.161,0.837l-5.522,3.744
					c3.913,5.577,8.947,10.29,14.617,13.684l3.377-5.758c0.081-0.138,0.213-0.238,0.368-0.278c0.155-0.041,0.319-0.017,0.457,0.064
					c3.576,2.098,7.434,3.622,11.47,4.529c0.156,0.035,0.292,0.131,0.377,0.266c0.085,0.135,0.114,0.299,0.078,0.455
					L524.383,233.408z M534.327,219.295c-17.457,0-31.66-14.203-31.66-31.661s14.203-31.661,31.66-31.661
					c17.458,0,31.661,14.203,31.661,31.661S551.785,219.295,534.327,219.295z M534.327,157.179
					c-16.793,0-30.455,13.662-30.455,30.455s13.662,30.455,30.455,30.455c16.793,0,30.455-13.662,30.455-30.455
					S551.12,157.179,534.327,157.179z"/>
			</g>
		</g>
		<g>
			<g>
				<path style="fill:#A4BFEA;" d="M308.644,307.588c-0.051,0-0.101-0.006-0.151-0.019l-1.94-0.5
					c-0.538-0.183-1.028-0.363-1.517-0.543l-0.425-0.156c-0.517-0.171-1.01-0.409-1.486-0.639l-0.697-0.336
					c-0.512-0.248-1.04-0.504-1.541-0.827c-2.191-1.221-4.336-2.932-6.343-5.064c-0.11-0.117-0.169-0.273-0.163-0.433
					c0.005-0.161,0.074-0.312,0.191-0.421l3.548-3.301c-1.727-1.962-3.071-4.174-4.002-6.59l-4.568,1.627
					c-0.313,0.111-0.658-0.052-0.77-0.365l-0.337-0.946c-0.072-0.225-0.127-0.435-0.182-0.644c-0.031-0.119-0.062-0.239-0.095-0.358
					c-0.058-0.24-0.114-0.454-0.17-0.669c-0.113-0.431-0.229-0.877-0.313-1.334l-0.304-2c-0.082-0.464-0.1-0.936-0.118-1.391
					c-0.009-0.215-0.017-0.43-0.032-0.644l-0.049-1.015c-0.014-0.258,0.001-0.508,0.015-0.749c0.006-0.098,0.012-0.197,0.015-0.295
					c0.03-0.68,0.061-1.348,0.109-2.017l0.098-0.676c0.162-1.114,0.33-2.266,0.661-3.386c0.092-0.313,0.418-0.497,0.729-0.413
					l4.692,1.218c0.896-3.101,2.482-5.993,4.622-8.426l-3.549-3.301c-0.117-0.109-0.187-0.261-0.191-0.422
					c-0.005-0.16,0.054-0.316,0.164-0.433c2.019-2.139,4.163-3.849,6.376-5.084c0.466-0.302,0.995-0.558,1.505-0.806l0.7-0.338
					c0.477-0.23,0.969-0.468,1.502-0.644l0.421-0.155c0.485-0.178,0.97-0.357,1.46-0.524l1.984-0.514
					c0.158-0.039,0.325-0.015,0.464,0.069c0.139,0.085,0.238,0.222,0.274,0.381l1.079,4.73c2.54-0.504,5.166-0.56,7.712-0.167
					l0.87-4.778c0.029-0.159,0.12-0.3,0.253-0.39c0.134-0.091,0.299-0.125,0.455-0.094c2.914,0.571,5.513,1.464,7.726,2.652
					c2.48,1.319,4.697,2.931,6.584,4.789c0.114,0.112,0.179,0.265,0.18,0.425c0.001,0.16-0.061,0.314-0.173,0.427l-3.41,3.464
					c2.243,2.336,3.954,5.153,4.987,8.211l4.657-1.429c0.153-0.047,0.319-0.031,0.461,0.045c0.142,0.076,0.247,0.205,0.293,0.36
					c0.756,2.535,1.162,5.246,1.206,8.056c-0.045,2.825-0.451,5.534-1.206,8.07c-0.046,0.154-0.151,0.284-0.292,0.36
					c-0.142,0.076-0.308,0.092-0.461,0.045l-4.656-1.428c-0.824,2.453-2.071,4.721-3.713,6.757l3.699,3.152
					c0.122,0.104,0.197,0.251,0.21,0.411c0.012,0.159-0.039,0.317-0.143,0.439c-3.582,4.186-8.414,7.265-13.606,8.668
					c-0.316,0.085-0.65-0.102-0.738-0.422l-1.288-4.68c-3.087,0.767-6.409,0.847-9.607,0.213l-1.079,4.731
					c-0.036,0.158-0.135,0.296-0.274,0.381C308.862,307.558,308.753,307.588,308.644,307.588z M295.841,299.116
					c1.798,1.84,3.702,3.325,5.666,4.421c0.471,0.302,0.944,0.532,1.445,0.774l0.696,0.335c0.462,0.223,0.899,0.434,1.358,0.586
					l0.445,0.163c0.48,0.177,0.962,0.354,1.447,0.52l1.295,0.332l1.073-4.705c0.074-0.324,0.397-0.527,0.72-0.454
					c3.384,0.768,6.941,0.68,10.191-0.227c0.153-0.045,0.319-0.024,0.458,0.056c0.139,0.079,0.242,0.21,0.284,0.364l1.285,4.669
					c4.552-1.352,8.785-4.05,12.03-7.67l-3.687-3.141c-0.253-0.215-0.284-0.596-0.068-0.849c1.858-2.182,3.22-4.661,4.047-7.366
					c0.046-0.153,0.152-0.281,0.294-0.356c0.141-0.076,0.307-0.091,0.459-0.044l4.637,1.423c0.617-2.261,0.95-4.661,0.989-7.142
					c-0.039-2.467-0.372-4.867-0.989-7.128l-4.637,1.423c-0.32,0.099-0.656-0.082-0.753-0.399c-1.007-3.28-2.835-6.291-5.289-8.709
					c-0.237-0.234-0.24-0.615-0.006-0.852l3.398-3.453c-1.708-1.601-3.681-3.002-5.873-4.168c-1.957-1.051-4.239-1.86-6.791-2.409
					l-0.866,4.757c-0.028,0.158-0.118,0.297-0.25,0.388c-0.131,0.091-0.293,0.129-0.451,0.097c-2.763-0.504-5.652-0.444-8.412,0.182
					c-0.324,0.071-0.647-0.13-0.72-0.454l-1.073-4.705l-1.34,0.346c-0.437,0.151-0.913,0.326-1.389,0.501l-0.441,0.162
					c-0.476,0.157-0.912,0.368-1.374,0.591l-0.699,0.337c-0.5,0.242-0.973,0.471-1.411,0.754c-1.983,1.108-3.889,2.595-5.698,4.441
					l3.534,3.289c0.243,0.227,0.257,0.608,0.031,0.852c-2.346,2.525-4.04,5.615-4.901,8.937c-0.04,0.155-0.14,0.287-0.278,0.368
					c-0.138,0.081-0.304,0.104-0.457,0.064l-4.689-1.218c-0.213,0.87-0.345,1.775-0.473,2.656l-0.094,0.636
					c-0.042,0.611-0.072,1.268-0.102,1.932c-0.004,0.102-0.01,0.21-0.016,0.317c-0.012,0.206-0.025,0.411-0.014,0.617l0.049,1.005
					c0.015,0.213,0.025,0.441,0.034,0.67c0.017,0.435,0.034,0.846,0.103,1.244l0.303,1.996c0.073,0.395,0.178,0.8,0.29,1.229
					c0.058,0.222,0.116,0.444,0.17,0.668c0.029,0.103,0.063,0.231,0.096,0.36c0.049,0.187,0.098,0.375,0.157,0.561l0.129,0.361
					l4.561-1.624c0.151-0.052,0.316-0.045,0.461,0.024c0.144,0.069,0.255,0.192,0.309,0.343c0.946,2.669,2.413,5.087,4.362,7.185
					c0.227,0.244,0.212,0.625-0.031,0.852L295.841,299.116z M314.645,295.531c-8.184,0-14.842-6.659-14.842-14.843
					c0-8.18,6.658-14.836,14.842-14.836s14.842,6.655,14.842,14.836C329.487,288.872,322.829,295.531,314.645,295.531z
					 M314.645,267.058c-7.52,0-13.637,6.114-13.637,13.63c0,7.52,6.117,13.637,13.637,13.637s13.637-6.118,13.637-13.637
					C328.282,273.172,322.165,267.058,314.645,267.058z"/>
			</g>
		</g>
		<g>
			<g>
				<path style="fill:#A4BFEA;" d="M103.217,422.136c-0.051,0-0.101-0.006-0.151-0.019l-1.941-0.5
					c-0.533-0.181-1.017-0.359-1.5-0.537l-0.442-0.162c-0.516-0.17-1.008-0.408-1.485-0.638l-0.7-0.338
					c-0.511-0.247-1.039-0.503-1.538-0.825c-2.191-1.222-4.336-2.932-6.344-5.065c-0.11-0.117-0.168-0.273-0.163-0.433
					c0.005-0.16,0.074-0.312,0.191-0.421l3.549-3.301c-1.728-1.962-3.071-4.174-4.002-6.59l-4.568,1.626
					c-0.312,0.111-0.658-0.052-0.77-0.365l-0.337-0.946c-0.072-0.226-0.127-0.435-0.181-0.644c-0.031-0.119-0.062-0.24-0.096-0.358
					c-0.058-0.241-0.115-0.457-0.171-0.673c-0.112-0.429-0.228-0.873-0.312-1.329l-0.304-2.001
					c-0.081-0.464-0.099-0.934-0.117-1.389c-0.009-0.215-0.017-0.431-0.032-0.646l-0.049-1.015
					c-0.014-0.261,0.001-0.513,0.015-0.757c0.006-0.097,0.012-0.192,0.015-0.288c0.03-0.679,0.061-1.348,0.109-2.016l0.098-0.68
					c0.162-1.113,0.329-2.264,0.66-3.382c0.092-0.313,0.418-0.497,0.729-0.413l4.692,1.219c0.896-3.102,2.483-5.994,4.622-8.427
					l-3.548-3.301c-0.118-0.109-0.187-0.261-0.192-0.422c-0.005-0.161,0.054-0.317,0.164-0.433c2.02-2.139,4.165-3.85,6.376-5.084
					c0.468-0.304,1-0.561,1.514-0.81l0.684-0.33c0.478-0.231,0.973-0.471,1.509-0.648l0.413-0.151
					c0.487-0.179,0.976-0.359,1.468-0.528l1.986-0.514c0.158-0.039,0.325-0.016,0.464,0.069c0.139,0.085,0.238,0.222,0.274,0.381
					l1.079,4.731c2.542-0.504,5.168-0.559,7.711-0.168l0.87-4.777c0.029-0.159,0.12-0.3,0.253-0.39
					c0.133-0.091,0.296-0.125,0.455-0.094c2.911,0.57,5.51,1.462,7.726,2.652c2.482,1.32,4.698,2.932,6.586,4.79
					c0.114,0.112,0.179,0.265,0.18,0.425s-0.061,0.314-0.173,0.427l-3.41,3.463c2.242,2.335,3.953,5.153,4.986,8.211l4.657-1.428
					c0.153-0.047,0.319-0.031,0.461,0.045c0.142,0.076,0.247,0.205,0.293,0.359c0.756,2.535,1.162,5.246,1.207,8.057
					c-0.045,2.826-0.451,5.535-1.207,8.07c-0.046,0.154-0.151,0.283-0.293,0.359c-0.141,0.076-0.308,0.092-0.461,0.045l-4.656-1.428
					c-0.823,2.453-2.07,4.721-3.712,6.757l3.699,3.152c0.122,0.104,0.197,0.251,0.21,0.411c0.012,0.159-0.039,0.317-0.143,0.439
					c-3.582,4.186-8.414,7.265-13.606,8.668c-0.317,0.088-0.65-0.101-0.738-0.421l-1.288-4.68c-3.084,0.766-6.411,0.847-9.607,0.213
					l-1.079,4.73c-0.036,0.158-0.135,0.296-0.274,0.381C103.435,422.106,103.327,422.136,103.217,422.136z M90.414,413.664
					c1.8,1.84,3.704,3.325,5.666,4.421c0.47,0.302,0.943,0.531,1.444,0.773l0.699,0.337c0.462,0.223,0.897,0.434,1.356,0.585
					l0.462,0.169c0.475,0.175,0.951,0.35,1.431,0.514l1.296,0.333l1.073-4.705c0.074-0.324,0.395-0.527,0.72-0.454
					c3.38,0.767,6.945,0.679,10.189-0.228c0.155-0.045,0.32-0.023,0.459,0.056c0.139,0.079,0.242,0.21,0.284,0.364l1.285,4.67
					c4.552-1.352,8.785-4.051,12.03-7.671l-3.687-3.141c-0.254-0.215-0.284-0.596-0.068-0.849c1.858-2.182,3.22-4.66,4.046-7.366
					c0.046-0.153,0.152-0.281,0.294-0.356c0.141-0.077,0.307-0.091,0.459-0.044l4.637,1.423c0.617-2.26,0.95-4.659,0.99-7.141
					c-0.039-2.468-0.372-4.868-0.99-7.128l-4.637,1.422c-0.319,0.098-0.656-0.081-0.753-0.399c-1.007-3.28-2.836-6.292-5.288-8.709
					c-0.237-0.234-0.24-0.615-0.006-0.852l3.398-3.452c-1.708-1.601-3.681-3.002-5.874-4.168c-1.959-1.052-4.241-1.861-6.791-2.409
					l-0.866,4.756c-0.028,0.158-0.118,0.297-0.25,0.388c-0.131,0.091-0.292,0.125-0.451,0.097c-2.759-0.504-5.648-0.445-8.412,0.182
					c-0.325,0.071-0.647-0.13-0.72-0.454l-1.073-4.705l-1.341,0.346c-0.438,0.152-0.919,0.329-1.398,0.505l-0.432,0.158
					c-0.478,0.158-0.916,0.37-1.381,0.595l-0.684,0.33c-0.503,0.244-0.979,0.473-1.418,0.757c-1.983,1.108-3.889,2.595-5.699,4.441
					l3.534,3.288c0.244,0.227,0.258,0.608,0.031,0.852c-2.346,2.524-4.041,5.615-4.902,8.937c-0.04,0.155-0.14,0.287-0.278,0.368
					c-0.138,0.081-0.304,0.103-0.457,0.064l-4.689-1.218c-0.212,0.869-0.344,1.772-0.471,2.651l-0.094,0.641
					c-0.043,0.611-0.072,1.268-0.102,1.931c-0.004,0.1-0.01,0.205-0.016,0.31c-0.012,0.208-0.026,0.417-0.015,0.625l0.049,1.005
					c0.016,0.214,0.025,0.443,0.034,0.671c0.017,0.434,0.033,0.845,0.102,1.243l0.303,1.995c0.073,0.394,0.178,0.797,0.29,1.224
					c0.058,0.223,0.117,0.447,0.171,0.672c0.03,0.104,0.063,0.232,0.097,0.361c0.049,0.187,0.097,0.375,0.157,0.561l0.128,0.36
					l4.561-1.624c0.151-0.053,0.316-0.045,0.461,0.024c0.144,0.069,0.255,0.192,0.309,0.343c0.946,2.668,2.413,5.086,4.363,7.185
					c0.227,0.244,0.212,0.625-0.031,0.852L90.414,413.664z M109.219,410.078c-8.184,0-14.843-6.658-14.843-14.842
					c0-8.18,6.659-14.836,14.843-14.836s14.842,6.656,14.842,14.836C124.061,403.42,117.403,410.078,109.219,410.078z
					 M109.219,381.605c-7.52,0-13.637,6.115-13.637,13.631c0,7.52,6.118,13.637,13.637,13.637c7.52,0,13.637-6.117,13.637-13.637
					C122.856,387.72,116.739,381.605,109.219,381.605z"/>
			</g>
		</g>
		<g>
			<g>
				<path style="fill:#A4BFEA;" d="M86.102,336.988c0.255,0.26,0.254,0.675-0.007,0.929c-0.085,0.082-0.176,0.14-0.284,0.17
					c-0.231,0.064-0.482-0.007-0.645-0.177c-1.035-1.045-2.043-2.139-3.002-3.264c-0.117-0.125-0.174-0.299-0.158-0.478
					c0.011-0.169,0.09-0.331,0.225-0.443c0.132-0.12,0.299-0.174,0.478-0.158c0.176,0.009,0.331,0.09,0.451,0.222
					C84.104,334.894,85.098,335.967,86.102,336.988z"/>
			</g>
			<g>
				<path style="fill:#A4BFEA;" d="M71.559,316.143c-0.323,0.09-0.668-0.079-0.788-0.394c-0.539-1.374-1.036-2.775-1.483-4.174
					c-0.055-0.167-0.038-0.345,0.043-0.5c0.081-0.155,0.213-0.275,0.38-0.329c0.363-0.093,0.722,0.097,0.832,0.431
					c0.433,1.378,0.923,2.757,1.452,4.092c0.062,0.165,0.063,0.347-0.008,0.507c-0.071,0.161-0.202,0.288-0.366,0.35L71.559,316.143
					z"/>
			</g>
			<g>
				<path style="fill:#A4BFEA;" d="M68.38,307.713c-0.149-0.091-0.256-0.235-0.303-0.404c-0.347-1.427-0.662-2.888-0.914-4.332
					c-0.034-0.181,0.006-0.366,0.107-0.51c0.111-0.138,0.259-0.229,0.432-0.261c0.158-0.027,0.335,0.014,0.479,0.115
					c0.144,0.101,0.243,0.247,0.274,0.421c0.254,1.42,0.552,2.852,0.901,4.253c0.088,0.348-0.114,0.694-0.459,0.79l-0.008,0.002
					C68.71,307.828,68.529,307.804,68.38,307.713z"/>
			</g>
			<g>
				<path style="fill:#A4BFEA;" d="M80.44,330.407c0.104,0.137,0.146,0.316,0.119,0.488c-0.019,0.171-0.115,0.33-0.252,0.434
					c-0.063,0.042-0.143,0.081-0.22,0.102c-0.261,0.073-0.544-0.023-0.703-0.235c-0.882-1.179-1.737-2.407-2.541-3.632
					c-0.091-0.149-0.125-0.33-0.088-0.497c0.034-0.175,0.135-0.319,0.281-0.418c0.31-0.194,0.715-0.108,0.915,0.193
					C78.736,328.057,79.574,329.257,80.44,330.407z"/>
			</g>
			<g>
				<path style="fill:#A4BFEA;" d="M67.513,281.652c-0.173-0.026-0.332-0.123-0.429-0.262c-0.106-0.144-0.146-0.316-0.119-0.488
					c0.233-1.456,0.522-2.918,0.85-4.359c0.086-0.347,0.438-0.569,0.79-0.493c0.354,0.084,0.576,0.436,0.493,0.79
					c-0.321,1.406-0.601,2.841-0.833,4.272c-0.038,0.251-0.228,0.461-0.474,0.529C67.699,281.666,67.6,281.669,67.513,281.652z"/>
			</g>
			<g>
				<path style="fill:#A4BFEA;" d="M75.453,324.019c-0.052,0.023-0.096,0.043-0.142,0.056c-0.3,0.083-0.601-0.048-0.749-0.313
					c-0.723-1.289-1.405-2.615-2.03-3.94c-0.158-0.329-0.019-0.723,0.312-0.873c0.161-0.078,0.34-0.086,0.504-0.033
					c0.166,0.061,0.299,0.182,0.369,0.345c0.618,1.302,1.285,2.598,1.991,3.859C75.879,323.437,75.767,323.84,75.453,324.019z"/>
			</g>
			<g>
				<path style="fill:#A4BFEA;" d="M66.524,298.592c-0.16-1.471-0.277-2.962-0.336-4.427c-0.006-0.172,0.053-0.346,0.175-0.471
					c0.12-0.133,0.283-0.203,0.455-0.209c0.36-0.017,0.669,0.261,0.688,0.628c0.059,1.432,0.166,2.893,0.326,4.33
					c0.039,0.32-0.168,0.618-0.475,0.703l-0.102,0.02C66.894,299.209,66.564,298.945,66.524,298.592z"/>
			</g>
			<g>
				<path style="fill:#A4BFEA;" d="M66.329,290.202c-0.117-0.125-0.18-0.289-0.179-0.464c0.037-1.476,0.12-2.964,0.258-4.435
					c0.031-0.365,0.355-0.629,0.712-0.595c0.178,0.017,0.333,0.098,0.445,0.232c0.114,0.142,0.169,0.309,0.152,0.488
					c-0.131,1.436-0.215,2.891-0.251,4.342c-0.01,0.293-0.207,0.538-0.483,0.614c-0.061,0.017-0.125,0.026-0.191,0.028
					C66.617,290.403,66.448,290.334,66.329,290.202z"/>
			</g>
			<g>
				<path style="fill:#A4BFEA;" d="M82.155,250.031c-0.207,0.058-0.427,0.011-0.597-0.124c-0.279-0.229-0.313-0.65-0.084-0.929
					c0.936-1.129,1.927-2.241,2.946-3.311c0.113-0.131,0.283-0.203,0.455-0.209c0.174,0.001,0.34,0.063,0.473,0.183
					c0.26,0.251,0.269,0.67,0.018,0.93c-0.985,1.044-1.957,2.133-2.88,3.251C82.398,249.922,82.286,249.994,82.155,250.031z"/>
			</g>
			<g>
				<path style="fill:#A4BFEA;" d="M69.766,273.078c-0.123,0.034-0.247,0.035-0.364,0.002c-0.172-0.052-0.312-0.17-0.395-0.321
					c-0.085-0.158-0.102-0.336-0.048-0.5c0.428-1.41,0.904-2.826,1.423-4.204c0.131-0.334,0.513-0.507,0.845-0.384
					c0.342,0.129,0.515,0.511,0.384,0.845c-0.503,1.348-0.978,2.739-1.396,4.122C70.152,272.855,69.982,273.018,69.766,273.078z"/>
			</g>
			<g>
				<path style="fill:#A4BFEA;" d="M99.8,347.612c0.316,0.185,0.42,0.587,0.242,0.901c-0.091,0.149-0.228,0.254-0.397,0.301
					c-0.169,0.047-0.35,0.023-0.505-0.058c-1.275-0.747-2.539-1.538-3.76-2.358c-0.144-0.101-0.243-0.247-0.274-0.421
					c-0.032-0.173,0.003-0.348,0.103-0.492c0.091-0.149,0.237-0.248,0.411-0.28c0.173-0.032,0.348,0.003,0.5,0.101
					C97.315,346.117,98.556,346.889,99.8,347.612z"/>
			</g>
			<g>
				<path style="fill:#A4BFEA;" d="M92.598,342.758c0.138,0.111,0.229,0.259,0.246,0.437c0.024,0.176-0.02,0.345-0.131,0.483
					c-0.084,0.114-0.202,0.197-0.34,0.235c-0.2,0.056-0.42,0.009-0.58-0.12c-1.159-0.895-2.308-1.842-3.41-2.828
					c-0.133-0.12-0.211-0.281-0.225-0.451c-0.009-0.18,0.053-0.346,0.166-0.477c0.113-0.131,0.273-0.208,0.451-0.225
					c0.18-0.009,0.346,0.053,0.476,0.166C90.339,340.944,91.458,341.874,92.598,342.758z"/>
			</g>
			<g>
				<path style="fill:#A4BFEA;" d="M72.858,264.867c-0.146,0.041-0.307,0.027-0.448-0.033c-0.333-0.156-0.475-0.547-0.325-0.87
					c0.606-1.336,1.267-2.679,1.967-3.974c0.175-0.322,0.573-0.441,0.893-0.273c0.322,0.175,0.441,0.573,0.265,0.895
					c-0.683,1.266-1.328,2.579-1.93,3.898C73.203,264.68,73.05,264.814,72.858,264.867z"/>
			</g>
			<g>
				<path style="fill:#A4BFEA;" d="M77.018,257.137c-0.184,0.051-0.375,0.021-0.526-0.077c-0.149-0.091-0.256-0.235-0.295-0.406
					c-0.039-0.171-0.005-0.346,0.086-0.496c0.78-1.243,1.611-2.484,2.48-3.678c0.101-0.144,0.249-0.235,0.423-0.266
					c0.176-0.024,0.353,0.018,0.489,0.121c0.144,0.101,0.237,0.257,0.269,0.43c0.024,0.176-0.012,0.343-0.121,0.489
					c-0.842,1.17-1.656,2.381-2.426,3.605C77.309,256.991,77.172,257.095,77.018,257.137z"/>
			</g>
			<g>
				<path style="fill:#A4BFEA;" d="M107.586,351.467c0.336,0.138,0.494,0.525,0.355,0.862c-0.08,0.188-0.231,0.329-0.431,0.385
					c-0.138,0.038-0.289,0.031-0.43-0.029c-1.356-0.559-2.711-1.176-4.036-1.834c-0.318-0.16-0.454-0.561-0.294-0.879
					c0.158-0.325,0.559-0.462,0.877-0.302C104.921,350.311,106.257,350.917,107.586,351.467z"/>
			</g>
			<g>
				<path style="fill:#A4BFEA;" d="M122.571,355.88c0.104,0.137,0.146,0.316,0.119,0.488c-0.046,0.253-0.228,0.461-0.474,0.529
					c-0.092,0.026-0.191,0.028-0.286,0.013c-0.711-0.117-1.425-0.242-2.135-0.384c-0.175-0.034-0.319-0.135-0.415-0.274
					c-0.099-0.146-0.14-0.325-0.104-0.493c0.034-0.175,0.133-0.327,0.279-0.425s0.32-0.13,0.495-0.096
					c0.693,0.139,1.389,0.26,2.09,0.371C122.315,355.644,122.473,355.733,122.571,355.88z"/>
			</g>
			<g>
				<path style="fill:#A4BFEA;" d="M91.854,239.769c0.228,0.284,0.177,0.696-0.1,0.922c-1.122,0.908-2.231,1.862-3.293,2.836
					c-0.072,0.07-0.165,0.12-0.265,0.148c-0.238,0.066-0.497-0.003-0.665-0.188c-0.117-0.125-0.182-0.297-0.173-0.474
					c0.009-0.176,0.08-0.337,0.213-0.456c1.081-0.996,2.211-1.964,3.354-2.886C91.209,239.443,91.628,239.492,91.854,239.769z"/>
			</g>
			<g>
				<path style="fill:#A4BFEA;" d="M116.213,354.567c0.091,0.149,0.107,0.326,0.063,0.496c-0.06,0.232-0.235,0.405-0.458,0.467
					c-0.108,0.03-0.231,0.031-0.346,0.005c-1.415-0.385-2.843-0.816-4.241-1.289c-0.164-0.054-0.304-0.172-0.38-0.325
					c-0.078-0.16-0.086-0.34-0.032-0.504c0.061-0.166,0.172-0.304,0.333-0.382c0.161-0.078,0.333-0.084,0.504-0.033
					c1.363,0.466,2.764,0.888,4.159,1.262C115.983,354.308,116.122,354.418,116.213,354.567z"/>
			</g>
			<g>
				<path style="fill:#A4BFEA;" d="M132.381,225.237c0.125,0.123,0.195,0.285,0.204,0.465c0,0.298-0.2,0.561-0.485,0.64
					c-0.054,0.015-0.11,0.022-0.176,0.024c-1.438,0.01-2.901,0.078-4.336,0.187c-0.365,0.027-0.682-0.249-0.707-0.607
					c-0.016-0.178,0.043-0.351,0.156-0.482c0.12-0.133,0.273-0.208,0.451-0.225c1.468-0.11,2.956-0.176,4.427-0.187
					C132.096,225.043,132.256,225.114,132.381,225.237z"/>
			</g>
			<g>
				<path style="fill:#A4BFEA;" d="M123.822,226.282c0.049,0.326-0.154,0.639-0.469,0.726l-0.079,0.014
					c-1.432,0.208-2.875,0.468-4.29,0.77c-0.171,0.039-0.346,0.005-0.49-0.096c-0.149-0.091-0.248-0.237-0.287-0.409
					c-0.073-0.352,0.154-0.697,0.494-0.783c1.455-0.305,2.921-0.572,4.379-0.778C123.438,225.677,123.772,225.924,123.822,226.282z"
					/>
			</g>
			<g>
				<path style="fill:#A4BFEA;" d="M106.556,230.526c0.166,0.061,0.303,0.197,0.373,0.36c0.07,0.163,0.069,0.337,0.007,0.503
					c-0.061,0.166-0.192,0.293-0.354,0.363c-1.322,0.574-2.639,1.197-3.923,1.852l-0.126,0.052c-0.3,0.083-0.619-0.052-0.763-0.334
					c-0.076-0.153-0.092-0.33-0.04-0.502c0.054-0.164,0.172-0.304,0.325-0.38c1.312-0.671,2.658-1.31,4.011-1.893
					C106.217,230.471,106.389,230.464,106.556,230.526z"/>
			</g>
			<g>
				<path style="fill:#A4BFEA;" d="M99.089,234.819c0.091,0.149,0.117,0.332,0.073,0.501c-0.044,0.17-0.145,0.313-0.301,0.407
					c-1.235,0.74-2.455,1.535-3.641,2.361c-0.061,0.05-0.128,0.077-0.197,0.096c-0.269,0.075-0.554-0.028-0.717-0.256
					c-0.099-0.146-0.138-0.318-0.112-0.491c0.034-0.175,0.125-0.325,0.272-0.423c1.213-0.85,2.461-1.661,3.717-2.415
					c0.149-0.091,0.332-0.117,0.499-0.081C98.852,234.562,98.998,234.671,99.089,234.819z"/>
			</g>
			<g>
				<path style="fill:#A4BFEA;" d="M115.224,228.026c0.047,0.169,0.023,0.35-0.061,0.497c-0.089,0.157-0.223,0.269-0.392,0.316
					c-1.397,0.396-2.788,0.841-4.146,1.318l-0.044,0.02c-0.33,0.092-0.68-0.093-0.795-0.417c-0.055-0.167-0.046-0.343,0.026-0.504
					c0.079-0.163,0.211-0.282,0.378-0.337c1.379-0.491,2.801-0.944,4.221-1.347C114.757,227.477,115.12,227.682,115.224,228.026z"/>
			</g>
			<g>
				<path style="fill:#A4BFEA;" d="M141.336,226.3c-0.034,0.266-0.222,0.484-0.475,0.554c-0.085,0.023-0.168,0.022-0.253,0.012
					c-1.433-0.181-2.894-0.314-4.332-0.394c-0.363-0.023-0.64-0.336-0.616-0.698c0.016-0.36,0.328-0.638,0.69-0.614
					c1.463,0.082,2.951,0.223,4.417,0.403C141.129,225.613,141.385,225.939,141.336,226.3z"/>
			</g>
			<g>
				<path style="fill:#A4BFEA;" d="M147.826,227.518c-0.058,0.24-0.229,0.428-0.467,0.494c-0.1,0.028-0.216,0.027-0.323-0.001
					c-0.689-0.156-1.384-0.303-2.076-0.441c-0.175-0.034-0.327-0.133-0.425-0.279c-0.099-0.146-0.13-0.32-0.096-0.495
					c0.068-0.35,0.416-0.588,0.769-0.512c0.716,0.132,1.42,0.284,2.129,0.451C147.688,226.812,147.91,227.164,147.826,227.518z"/>
			</g>
		</g>
		<g>
			<g>
				<path style="fill:#A4BFEA;" d="M315.227,325.28c-0.999,0-2.01-0.034-3.001-0.1c-0.22-0.015-0.386-0.205-0.372-0.425
					c0.015-0.22,0.231-0.389,0.425-0.372c1.569,0.105,3.17,0.126,4.739,0.062c0.227,0.011,0.406,0.163,0.415,0.382
					c0.009,0.22-0.163,0.406-0.382,0.415C316.445,325.267,315.836,325.28,315.227,325.28z M321.793,324.791
					c-0.194,0-0.364-0.142-0.393-0.34c-0.033-0.218,0.117-0.421,0.335-0.453c1.559-0.234,3.12-0.558,4.64-0.961
					c0.216-0.058,0.432,0.07,0.488,0.284c0.056,0.213-0.07,0.431-0.284,0.488c-1.548,0.41-3.138,0.74-4.726,0.978
					C321.833,324.79,321.814,324.791,321.793,324.791z M307.506,324.601c-0.023,0-0.047-0.002-0.071-0.006
					c-1.575-0.28-3.156-0.651-4.698-1.105c-0.212-0.062-0.333-0.284-0.27-0.495c0.062-0.211,0.285-0.331,0.495-0.27
					c1.515,0.445,3.067,0.809,4.614,1.084c0.217,0.038,0.361,0.245,0.322,0.463C307.864,324.466,307.695,324.601,307.506,324.601z
					 M331.026,322.342c-0.16,0-0.311-0.097-0.372-0.255c-0.079-0.206,0.023-0.437,0.228-0.516c1.462-0.565,2.915-1.221,4.319-1.949
					c0.193-0.103,0.436-0.027,0.538,0.17c0.102,0.195,0.026,0.436-0.17,0.537c-1.429,0.742-2.909,1.411-4.398,1.986
					C331.122,322.334,331.073,322.342,331.026,322.342z M298.342,321.906c-0.051,0-0.104-0.01-0.154-0.031
					c-1.477-0.618-2.939-1.326-4.344-2.104c-0.192-0.107-0.263-0.35-0.156-0.542c0.106-0.193,0.348-0.261,0.542-0.156
					c1.38,0.764,2.815,1.459,4.266,2.067c0.203,0.085,0.298,0.319,0.213,0.522C298.646,321.814,298.498,321.906,298.342,321.906z
					 M339.501,317.941c-0.129,0-0.255-0.062-0.332-0.178c-0.122-0.183-0.072-0.431,0.111-0.553c1.307-0.872,2.583-1.827,3.792-2.839
					c0.169-0.143,0.421-0.12,0.562,0.049c0.142,0.169,0.12,0.421-0.049,0.562c-1.232,1.032-2.531,2.005-3.862,2.892
					C339.654,317.919,339.577,317.941,339.501,317.941z M289.985,317.278c-0.08,0-0.16-0.023-0.23-0.073
					c-1.308-0.924-2.581-1.931-3.784-2.995c-0.165-0.146-0.181-0.398-0.035-0.563c0.148-0.167,0.399-0.181,0.563-0.035
					c1.182,1.045,2.432,2.035,3.716,2.942c0.18,0.127,0.223,0.375,0.096,0.555C290.233,317.219,290.11,317.278,289.985,317.278z
					 M346.822,311.811c-0.1,0-0.199-0.037-0.277-0.111c-0.159-0.152-0.164-0.405-0.011-0.564c1.088-1.133,2.128-2.342,3.091-3.592
					c0.134-0.174,0.386-0.206,0.559-0.073c0.174,0.135,0.207,0.385,0.073,0.559c-0.981,1.273-2.04,2.504-3.149,3.659
					C347.032,311.769,346.927,311.811,346.822,311.811z M282.829,310.952c-0.108,0-0.217-0.044-0.295-0.13
					c-1.079-1.186-2.105-2.444-3.049-3.741c-0.129-0.178-0.09-0.427,0.088-0.557c0.178-0.129,0.428-0.091,0.557,0.088
					c0.927,1.272,1.934,2.507,2.994,3.672c0.148,0.164,0.136,0.415-0.026,0.564C283.021,310.918,282.924,310.952,282.829,310.952z
					 M352.651,304.242c-0.071,0-0.143-0.019-0.207-0.058c-0.189-0.115-0.248-0.36-0.133-0.548c0.819-1.346,1.574-2.751,2.24-4.177
					c0.093-0.2,0.332-0.286,0.53-0.192c0.199,0.093,0.286,0.331,0.192,0.53c-0.679,1.452-1.447,2.883-2.282,4.253
					C352.916,304.175,352.784,304.242,352.651,304.242z M277.207,303.234c-0.138,0-0.273-0.072-0.346-0.2
					c-0.798-1.394-1.528-2.844-2.166-4.311c-0.088-0.202,0.004-0.437,0.206-0.525c0.203-0.086,0.437,0.004,0.525,0.206
					c0.628,1.441,1.344,2.865,2.127,4.233c0.11,0.192,0.044,0.435-0.147,0.545C277.342,303.216,277.274,303.234,277.207,303.234z
					 M356.697,295.59c-0.043,0-0.086-0.007-0.129-0.021c-0.209-0.071-0.32-0.298-0.249-0.506c0.507-1.488,0.936-3.024,1.277-4.565
					c0.048-0.215,0.259-0.351,0.475-0.303c0.216,0.048,0.351,0.261,0.304,0.476c-0.347,1.57-0.784,3.134-1.3,4.65
					C357.018,295.485,356.863,295.59,356.697,295.59z M273.394,294.479c-0.171,0-0.328-0.11-0.381-0.281
					c-0.474-1.53-0.869-3.105-1.175-4.68c-0.041-0.217,0.1-0.426,0.316-0.467c0.213-0.042,0.425,0.099,0.467,0.315
					c0.299,1.547,0.687,3.094,1.153,4.596c0.065,0.21-0.052,0.434-0.263,0.499C273.472,294.474,273.433,294.479,273.394,294.479z
					 M358.762,286.264c-0.015,0-0.029-0.001-0.044-0.002c-0.219-0.024-0.377-0.22-0.354-0.439c0.169-1.561,0.255-3.153,0.255-4.732
					c0-0.22,0.178-0.399,0.399-0.399s0.399,0.178,0.399,0.399c0,1.607-0.087,3.228-0.259,4.818
					C359.135,286.112,358.962,286.264,358.762,286.264z M271.581,285.103c-0.205,0-0.379-0.158-0.397-0.367
					c-0.099-1.206-0.149-2.434-0.149-3.647c0-0.393,0.005-0.786,0.016-1.177c0.005-0.22,0.173-0.371,0.409-0.388
					c0.22,0.006,0.394,0.189,0.389,0.409c-0.01,0.384-0.016,0.769-0.016,1.156c0,1.192,0.049,2.397,0.146,3.582
					c0.018,0.219-0.145,0.412-0.365,0.43C271.604,285.103,271.592,285.103,271.581,285.103z M358.949,279.036
					c-0.21,0-0.386-0.164-0.398-0.377c-0.086-1.571-0.26-3.155-0.517-4.71c-0.036-0.217,0.111-0.423,0.328-0.458
					c0.222-0.037,0.423,0.111,0.459,0.328c0.262,1.583,0.439,3.197,0.527,4.796c0.012,0.22-0.157,0.408-0.376,0.42
					C358.963,279.036,358.956,279.036,358.949,279.036z M271.834,275.556c-0.018,0-0.036-0.001-0.055-0.004
					c-0.218-0.03-0.371-0.231-0.341-0.449c0.216-1.594,0.521-3.189,0.908-4.74c0.053-0.213,0.267-0.344,0.484-0.29
					c0.213,0.053,0.344,0.27,0.291,0.483c-0.38,1.523-0.681,3.088-0.893,4.653C272.202,275.411,272.03,275.556,271.834,275.556z
					 M357.388,269.615c-0.174,0-0.334-0.115-0.384-0.291c-0.426-1.517-0.941-3.026-1.531-4.484c-0.083-0.204,0.016-0.437,0.22-0.519
					c0.203-0.083,0.436,0.016,0.52,0.22c0.601,1.486,1.125,3.023,1.559,4.567c0.059,0.212-0.064,0.432-0.277,0.492
					C357.46,269.61,357.424,269.615,357.388,269.615z M274.145,266.288c-0.046,0-0.093-0.008-0.139-0.025
					c-0.206-0.076-0.312-0.306-0.235-0.512c0.556-1.505,1.203-2.995,1.922-4.429c0.099-0.198,0.341-0.275,0.535-0.178
					c0.197,0.099,0.277,0.338,0.178,0.535c-0.706,1.408-1.341,2.87-1.887,4.348C274.459,266.189,274.307,266.288,274.145,266.288z
					 M353.811,260.762c-0.142,0-0.279-0.076-0.351-0.21c-0.745-1.384-1.576-2.744-2.47-4.042c-0.125-0.181-0.079-0.43,0.103-0.555
					c0.178-0.125,0.428-0.08,0.555,0.102c0.91,1.322,1.757,2.707,2.515,4.117c0.104,0.194,0.032,0.436-0.162,0.54
					C353.94,260.747,353.875,260.762,353.811,260.762z M278.423,257.747c-0.075,0-0.15-0.021-0.217-0.064
					c-0.185-0.12-0.238-0.367-0.118-0.552c0.871-1.347,1.825-2.661,2.837-3.905c0.139-0.172,0.391-0.196,0.561-0.058
					c0.171,0.139,0.197,0.39,0.058,0.561c-0.993,1.222-1.93,2.512-2.786,3.834C278.681,257.683,278.553,257.747,278.423,257.747z
					 M348.397,252.897c-0.112,0-0.223-0.047-0.302-0.138c-1.029-1.193-2.135-2.342-3.286-3.415c-0.161-0.15-0.17-0.402-0.02-0.564
					c0.151-0.161,0.404-0.17,0.564-0.02c1.172,1.092,2.298,2.262,3.346,3.477c0.143,0.167,0.125,0.419-0.042,0.562
					C348.582,252.865,348.489,252.897,348.397,252.897z M284.449,250.336c-0.103,0-0.206-0.04-0.284-0.118
					c-0.155-0.157-0.153-0.409,0.003-0.564c1.14-1.126,2.355-2.203,3.611-3.2c0.171-0.137,0.424-0.107,0.56,0.064
					c0.137,0.173,0.108,0.423-0.065,0.56c-1.233,0.98-2.426,2.037-3.546,3.143C284.651,250.298,284.55,250.336,284.449,250.336z
					 M341.41,246.384c-0.083,0-0.167-0.026-0.238-0.079c-1.263-0.943-2.591-1.827-3.946-2.626c-0.19-0.112-0.253-0.356-0.141-0.546
					c0.111-0.19,0.357-0.252,0.546-0.141c1.38,0.813,2.732,1.713,4.018,2.674c0.177,0.132,0.213,0.382,0.081,0.558
					C341.651,246.328,341.532,246.384,341.41,246.384z M291.931,244.401c-0.132,0-0.262-0.066-0.337-0.187
					c-0.118-0.186-0.062-0.432,0.125-0.55c1.358-0.855,2.777-1.643,4.217-2.343c0.199-0.095,0.438-0.013,0.534,0.184
					c0.096,0.198,0.013,0.437-0.185,0.533c-1.415,0.687-2.808,1.461-4.141,2.301C292.077,244.381,292.004,244.401,291.931,244.401z
					 M333.18,241.535c-0.055,0-0.111-0.011-0.164-0.035c-1.437-0.647-2.926-1.221-4.423-1.705c-0.21-0.068-0.324-0.293-0.256-0.502
					c0.068-0.21,0.29-0.324,0.502-0.257c1.524,0.493,3.04,1.078,4.504,1.736c0.201,0.09,0.291,0.326,0.2,0.527
					C333.478,241.448,333.332,241.535,333.18,241.535z M300.519,240.228c-0.164,0-0.318-0.102-0.375-0.265
					c-0.074-0.208,0.034-0.436,0.241-0.51c1.51-0.537,3.067-0.998,4.629-1.367c0.215-0.053,0.428,0.082,0.48,0.296
					c0.051,0.214-0.082,0.429-0.296,0.48c-1.534,0.363-3.063,0.815-4.544,1.343C300.608,240.221,300.563,240.228,300.519,240.228z
					 M324.09,238.595c-0.027,0-0.054-0.003-0.081-0.008c-1.538-0.317-3.114-0.551-4.686-0.698c-0.219-0.021-0.38-0.215-0.36-0.434
					c0.021-0.22,0.206-0.377,0.435-0.36c1.601,0.15,3.206,0.389,4.772,0.712c0.216,0.044,0.354,0.255,0.31,0.471
					C324.441,238.465,324.274,238.595,324.09,238.595z M309.812,238.028c-0.198,0-0.37-0.148-0.395-0.35
					c-0.027-0.219,0.129-0.418,0.347-0.444c1.589-0.196,3.209-0.307,4.814-0.329c0.002,0,0.004,0,0.005,0
					c0.218,0,0.396,0.175,0.399,0.393c0.003,0.22-0.173,0.401-0.393,0.404c-1.576,0.022-3.167,0.131-4.727,0.323
					C309.845,238.028,309.828,238.028,309.812,238.028z"/>
			</g>
		</g>
		<g>
			<g>
				<path style="fill:#A4BFEA;" d="M545.148,308.56c-0.051,0-0.101-0.006-0.151-0.019l-1.941-0.5
					c-0.533-0.181-1.017-0.359-1.5-0.537l-0.442-0.162c-0.516-0.17-1.008-0.408-1.485-0.638l-0.7-0.338
					c-0.511-0.247-1.039-0.503-1.538-0.825c-2.192-1.222-4.336-2.932-6.344-5.065c-0.11-0.117-0.168-0.273-0.163-0.433
					c0.005-0.16,0.074-0.312,0.191-0.421l3.549-3.301c-1.728-1.962-3.071-4.174-4.002-6.59l-4.568,1.626
					c-0.313,0.111-0.658-0.052-0.77-0.365l-0.337-0.946c-0.072-0.226-0.127-0.435-0.181-0.644c-0.031-0.119-0.062-0.24-0.096-0.358
					c-0.058-0.241-0.115-0.457-0.171-0.673c-0.112-0.429-0.228-0.873-0.312-1.329l-0.304-2.001
					c-0.081-0.464-0.099-0.935-0.117-1.389c-0.009-0.215-0.017-0.431-0.032-0.646l-0.049-1.015
					c-0.014-0.261,0.001-0.513,0.015-0.757c0.006-0.096,0.012-0.192,0.015-0.288c0.03-0.679,0.061-1.348,0.109-2.016l0.098-0.68
					c0.162-1.113,0.329-2.264,0.66-3.382c0.092-0.313,0.418-0.497,0.729-0.413l4.692,1.219c0.896-3.102,2.483-5.994,4.622-8.427
					l-3.548-3.301c-0.118-0.109-0.187-0.261-0.192-0.422c-0.005-0.161,0.054-0.317,0.164-0.433c2.02-2.139,4.165-3.85,6.376-5.084
					c0.468-0.304,1-0.561,1.514-0.81l0.684-0.33c0.478-0.231,0.973-0.471,1.509-0.648l0.412-0.151
					c0.487-0.179,0.976-0.359,1.468-0.528l1.985-0.514c0.158-0.039,0.325-0.016,0.464,0.069c0.139,0.085,0.238,0.222,0.274,0.381
					l1.079,4.731c2.542-0.504,5.168-0.559,7.711-0.168l0.87-4.777c0.029-0.159,0.12-0.3,0.253-0.39
					c0.133-0.091,0.296-0.125,0.456-0.094c2.911,0.57,5.51,1.462,7.726,2.652c2.482,1.32,4.698,2.932,6.586,4.79
					c0.114,0.112,0.179,0.265,0.18,0.425c0.001,0.16-0.061,0.314-0.173,0.427l-3.41,3.463c2.242,2.335,3.953,5.153,4.986,8.211
					l4.657-1.428c0.153-0.047,0.319-0.031,0.461,0.045c0.142,0.076,0.247,0.205,0.293,0.359c0.756,2.535,1.162,5.246,1.207,8.057
					c-0.045,2.826-0.451,5.535-1.207,8.07c-0.046,0.154-0.151,0.283-0.293,0.359c-0.141,0.076-0.308,0.092-0.461,0.045L572,288.822
					c-0.823,2.453-2.07,4.721-3.712,6.757l3.699,3.152c0.122,0.104,0.197,0.251,0.21,0.411c0.012,0.159-0.039,0.317-0.143,0.439
					c-3.582,4.186-8.414,7.265-13.606,8.668c-0.317,0.088-0.65-0.101-0.738-0.421l-1.288-4.68c-3.084,0.766-6.411,0.847-9.607,0.213
					l-1.079,4.73c-0.036,0.158-0.135,0.296-0.274,0.381C545.367,308.53,545.258,308.56,545.148,308.56z M532.345,300.087
					c1.8,1.84,3.704,3.325,5.666,4.421c0.47,0.302,0.943,0.531,1.444,0.773l0.699,0.337c0.462,0.223,0.897,0.434,1.356,0.585
					l0.462,0.169c0.475,0.175,0.951,0.35,1.431,0.514l1.296,0.333l1.073-4.705c0.074-0.324,0.395-0.527,0.72-0.454
					c3.38,0.767,6.945,0.679,10.189-0.228c0.155-0.045,0.32-0.023,0.459,0.056c0.139,0.079,0.242,0.21,0.284,0.364l1.285,4.67
					c4.552-1.352,8.785-4.051,12.03-7.671l-3.687-3.141c-0.254-0.215-0.284-0.596-0.068-0.849c1.858-2.182,3.22-4.66,4.046-7.366
					c0.047-0.153,0.152-0.281,0.294-0.356c0.141-0.077,0.307-0.091,0.459-0.044l4.637,1.423c0.617-2.26,0.95-4.659,0.99-7.141
					c-0.039-2.468-0.373-4.868-0.99-7.128l-4.637,1.422c-0.319,0.098-0.656-0.081-0.753-0.399c-1.007-3.28-2.836-6.292-5.288-8.709
					c-0.237-0.234-0.24-0.615-0.006-0.852l3.398-3.452c-1.708-1.601-3.681-3.002-5.874-4.168c-1.959-1.052-4.241-1.861-6.791-2.409
					l-0.866,4.756c-0.028,0.158-0.118,0.297-0.25,0.388c-0.131,0.091-0.292,0.125-0.451,0.097c-2.759-0.504-5.648-0.445-8.412,0.182
					c-0.325,0.071-0.647-0.13-0.72-0.454l-1.073-4.705l-1.341,0.346c-0.438,0.152-0.919,0.329-1.398,0.505l-0.432,0.158
					c-0.478,0.158-0.916,0.37-1.381,0.595l-0.684,0.33c-0.503,0.244-0.979,0.473-1.418,0.757c-1.983,1.108-3.889,2.595-5.699,4.441
					l3.534,3.288c0.244,0.227,0.258,0.608,0.031,0.852c-2.346,2.524-4.041,5.615-4.902,8.937c-0.04,0.155-0.14,0.287-0.278,0.368
					c-0.138,0.081-0.304,0.103-0.457,0.064l-4.689-1.218c-0.212,0.869-0.344,1.772-0.471,2.651l-0.094,0.641
					c-0.043,0.611-0.072,1.268-0.102,1.931c-0.004,0.1-0.01,0.205-0.016,0.31c-0.012,0.208-0.026,0.417-0.015,0.625l0.049,1.005
					c0.016,0.214,0.025,0.443,0.034,0.671c0.017,0.434,0.033,0.845,0.102,1.243l0.303,1.995c0.073,0.394,0.178,0.797,0.289,1.224
					c0.058,0.223,0.117,0.447,0.171,0.672c0.03,0.104,0.063,0.232,0.096,0.361c0.049,0.187,0.097,0.375,0.157,0.561l0.128,0.36
					l4.561-1.624c0.151-0.053,0.316-0.045,0.461,0.024c0.144,0.069,0.255,0.192,0.309,0.343c0.946,2.668,2.413,5.086,4.363,7.185
					c0.227,0.244,0.212,0.625-0.031,0.852L532.345,300.087z M551.15,296.502c-8.184,0-14.843-6.658-14.843-14.842
					c0-8.18,6.659-14.836,14.843-14.836c8.184,0,14.842,6.656,14.842,14.836C565.992,289.844,559.334,296.502,551.15,296.502z
					 M551.15,268.029c-7.52,0-13.637,6.115-13.637,13.631c0,7.52,6.118,13.637,13.637,13.637c7.52,0,13.637-6.117,13.637-13.637
					C564.787,274.144,558.67,268.029,551.15,268.029z"/>
			</g>
		</g>
	</g>
	<g>
		<g>
			<g>
				<path style="fill:#4B72BF;" d="M393.93,46.094c1.242,3.453,1.867,6.983,1.913,10.459l-32.273,0.984l24.945-21.008
					C390.794,39.305,392.646,42.521,393.93,46.094z"/>
			</g>
			<g>
				<path style="fill:#FF5F5F;" d="M395.844,56.553c0.223,13.491-8.056,26.225-21.462,31.046
					c-16.858,6.063-35.435-2.693-41.498-19.552c-6.06-16.851,2.686-35.432,19.544-41.495l11.143,30.985L395.844,56.553z"/>
			</g>
			<g>
				<path style="fill:#FFA233;" d="M388.516,36.53l-24.945,21.008l-11.143-30.985C365.714,21.775,380.061,26.194,388.516,36.53z"/>
			</g>
			<g>
				<path style="fill:#19203F;" d="M345.695,32.317c-4.9,3.52-8.681,8.54-10.747,14.207c-2.16,5.926-2.326,12.417-0.591,18.474
					c0.991,3.461,2.604,6.737,4.751,9.627c0.306,0.412,0.952-0.056,0.645-0.469c-3.73-5.022-5.762-11.211-5.796-17.464
					c-0.032-5.961,1.888-11.855,5.303-16.729c1.893-2.702,4.223-5.075,6.903-7C346.582,32.662,346.113,32.017,345.695,32.317z"/>
			</g>
		</g>
		<g>
			<g>
				<path style="fill:#4B72BF;" d="M353.854,89.947l-2.997,24.304c-0.644,5.225-5.446,8.973-10.671,8.329l-18.873-2.327l1.18,11.743
					l-15.826-13.549l-26.703-3.293c-5.225-0.644-8.973-5.446-8.329-10.671l2.997-24.304c0.644-5.225,5.446-8.973,10.671-8.329
					l60.222,7.426C350.75,79.92,354.498,84.722,353.854,89.947z"/>
			</g>
			<g>
				<path style="fill:#FFFFFF;" d="M345.936,90.498c-0.079,0.641-0.675,1.106-1.324,1.026l-60.008-7.399
					c-0.641-0.079-1.106-0.675-1.027-1.316c0.08-0.649,0.675-1.106,1.316-1.027l60.008,7.399
					C345.55,89.261,346.016,89.849,345.936,90.498z"/>
			</g>
			<g>
				<path style="fill:#FFFFFF;" d="M344.83,99.465c-0.079,0.641-0.675,1.106-1.324,1.026l-60.008-7.399
					c-0.641-0.079-1.106-0.675-1.027-1.316c0.08-0.649,0.675-1.106,1.316-1.027l60.008,7.399
					C344.444,98.228,344.91,98.815,344.83,99.465z"/>
			</g>
			<g>
				<path style="fill:#FFFFFF;" d="M319.818,106.77c-0.079,0.641-0.675,1.106-1.324,1.026l-36.258-4.471
					c-0.641-0.079-1.106-0.675-1.027-1.316c0.08-0.649,0.675-1.106,1.316-1.027l36.258,4.471
					C319.432,105.533,319.898,106.121,319.818,106.77z"/>
			</g>
			<g>
				<path style="fill:#19203F;" d="M285.368,73.313c-3.907-0.003-7.383,2.608-8.465,6.364c-0.142,0.493,0.624,0.714,0.767,0.22
					c0.984-3.416,4.133-5.789,7.69-5.787C285.872,74.111,285.884,73.313,285.368,73.313z"/>
			</g>
			<g>
				<path style="fill:#19203F;" d="M274.943,97.448c0.045-0.511-0.753-0.518-0.798-0.009c-0.239,2.689-0.478,5.379-0.717,8.068
					c-0.045,0.511,0.753,0.518,0.798,0.009C274.465,102.827,274.704,100.138,274.943,97.448z"/>
			</g>
		</g>
		<g>
			<path style="fill:#19203F;" d="M451.93,171.046c0,0,0,0-0.008,0.008c-0.479,0.399-16.193,13.153-96.366,13.153
				c-80.165,0-95.879-12.755-96.358-13.153c-0.008-0.008-0.008-0.008-0.008-0.008H451.93z"/>
		</g>
		<g>
			<g>
				<g>
					<g>
						<polygon style="fill:#FF5F5F;" points="357.826,211.909 329.104,171.979 303.318,189.68 272.031,130.24 287.561,122.066 
							309.656,164.044 333.325,147.796 372.072,201.661 						"/>
					</g>
				</g>
				<g>
					<g>
						<polygon style="fill:#FF5F5F;" points="260.799,144.543 262.785,93.839 305.708,120.905 						"/>
					</g>
				</g>
			</g>
			<g>
				<path style="fill:#19203F;" d="M301.047,119.553c-8.613-5.375-17.227-10.75-25.84-16.124c-2.421-1.511-4.842-3.021-7.262-4.532
					c-0.43-0.269-0.94,0.346-0.505,0.617c8.613,5.375,17.227,10.75,25.84,16.124c2.421,1.511,4.841,3.021,7.262,4.532
					C300.972,120.439,301.481,119.824,301.047,119.553z"/>
			</g>
			<g>
				<path style="fill:#19203F;" d="M307.705,163.815l-12.512-24.789l-3.575-7.083c-0.229-0.454-0.975-0.17-0.743,0.29
					c4.171,8.263,8.341,16.526,12.512,24.789l3.575,7.083C307.191,164.559,307.937,164.275,307.705,163.815z"/>
			</g>
		</g>
		<g>
			<g>
				<path style="fill:#FFA233;" d="M451.922,171.054l-77.23,119.873v58.548l-38.272,15.953v-74.502l-77.222-119.873
					c0.479,0.399,16.193,13.153,96.358,13.153C435.729,184.207,451.443,171.453,451.922,171.054z"/>
			</g>
			<g>
				<path style="fill:#19203F;" d="M436.542,187.69c-4.162,6.41-8.324,12.82-12.486,19.23c-4.144,6.382-8.288,12.764-12.431,19.147
					c-4.144,6.382-8.288,12.764-12.431,19.147c-4.162,6.41-8.324,12.82-12.486,19.23c-4.162,6.41-8.324,12.82-12.486,19.23
					c-0.507,0.78-1.013,1.561-1.52,2.341c-0.277,0.427,0.338,0.936,0.617,0.505c4.162-6.41,8.324-12.82,12.486-19.23l12.431-19.147
					c4.144-6.382,8.288-12.764,12.431-19.147c4.162-6.41,8.324-12.82,12.486-19.23c4.162-6.41,8.324-12.82,12.486-19.23
					c0.507-0.78,1.013-1.561,1.52-2.341C437.437,187.768,436.822,187.259,436.542,187.69z"/>
			</g>
			<g>
				<path style="fill:#19203F;" d="M358.43,303.358c-6.627-3.704-13.023-7.81-19.151-12.292c-0.414-0.302-0.92,0.314-0.505,0.617
					c6.183,4.522,12.64,8.664,19.327,12.401C358.549,304.335,358.875,303.607,358.43,303.358z"/>
			</g>
		</g>
	</g>
	<g>
		<g>
			<g>
				<polygon style="fill:#FFA96E;" points="207.873,419.597 207.873,446.8 244.259,446.8 243.437,424.785 				"/>
			</g>
			<g>
				<path style="fill:#FF5F5F;" d="M207.873,446.8h44.362c0,0,26.609-2.495,26.609,21.62l-70.971-0.654V446.8z"/>
			</g>
			<g>
				<path style="fill:#FFFFFF;" d="M252.235,447.3h-44.362c-0.276,0-0.5-0.224-0.5-0.5s0.224-0.5,0.5-0.5h44.362
					c0.276,0,0.5,0.224,0.5,0.5S252.512,447.3,252.235,447.3z"/>
			</g>
			<g>
				<path style="fill:#19203F;" d="M275.776,465.383h-65.818c-0.512,0-0.42,0.793,0.089,0.793h65.818
					C276.377,466.176,276.285,465.383,275.776,465.383z"/>
			</g>
			<g>
				<polygon style="fill:#FFA96E;" points="131.505,419.597 127.3,446.141 163.685,446.141 167.069,424.785 				"/>
			</g>
			<g>
				<path style="fill:#19203F;" d="M155.024,220.828l-31.495,198.77c14.736,9.999,34.443,10.658,51.517,5.188l32.317-203.958
					H155.024z"/>
			</g>
			<g>
				<path style="fill:#19203F;" d="M251.532,425.423l-11.745-206.665h-52.339l11.696,205.808
					C214.727,432.887,235.514,433.455,251.532,425.423z"/>
			</g>
			<g>
				<path style="fill:#FFFFFF;" d="M192.95,311.005c-0.027,0-0.054-0.002-0.082-0.007c-0.272-0.044-0.457-0.302-0.413-0.574
					l8.539-52.088c0.031-0.187,0.165-0.34,0.345-0.396l20.288-6.302c0.266-0.084,0.545,0.066,0.626,0.329
					c0.082,0.264-0.065,0.544-0.329,0.626l-19.993,6.21l-8.489,51.783C193.402,310.831,193.19,311.005,192.95,311.005z"/>
			</g>
			<g>
				<path style="fill:#FF5F5F;" d="M127.3,446.141h44.362c0,0,26.609-2.495,26.609,21.62h-76.033L127.3,446.141z"/>
			</g>
			<g>
				<path style="fill:#FFFFFF;" d="M171.662,446.642H127.3c-0.276,0-0.5-0.224-0.5-0.5s0.224-0.5,0.5-0.5h44.362
					c0.276,0,0.5,0.224,0.5,0.5S171.938,446.642,171.662,446.642z"/>
			</g>
			<g>
				<path style="fill:#19203F;" d="M195.202,464.725h-71.402c-0.512,0-0.42,0.793,0.089,0.793h71.402
					C195.803,465.517,195.712,464.725,195.202,464.725z"/>
			</g>
		</g>
		<g>
			<g>
				<path style="fill:#19203F;" d="M224.266,94.513c-9.596-8.208-27.32-8.232-27.32-8.232c-0.343,5.536-3.342,10.673-7.993,13.744
					c-0.439-0.838-1.125-1.516-1.938-1.986v5.735c-4.65,3.294-9.189,4.714-9.189,4.714c-5.049-3.31-13.768-24.728,4.922-34.595
					c18.697-9.867,35.193,2.88,35.193,2.88s11.199-3.916,13.895,3.031C234.532,86.752,224.266,94.513,224.266,94.513z"/>
			</g>
			<g>
				<path style="fill:#FFA96E;" d="M224.266,94.513v15.921c0,6.413-3.286,12.093-8.256,15.451
					c-3.302,2.225-7.346,3.422-11.662,3.127c-7.394-0.51-13.465-5.384-16.025-11.957c-0.04-0.104-0.08-0.207-0.12-0.311v-0.008
					c-0.04-0.112-0.072-0.215-0.112-0.319c-0.064-0.183-0.128-0.367-0.183-0.558c-0.239-0.75-0.431-1.516-0.574-2.289
					c-0.112-0.582-0.191-1.181-0.247-1.779c-0.024-0.287-0.04-0.566-0.056-0.846c-0.008-0.287-0.016-0.574-0.016-0.861V98.039
					c0.814,0.471,1.5,1.149,1.938,1.986c4.65-3.071,7.65-8.208,7.993-13.744C196.946,86.281,214.67,86.305,224.266,94.513z"/>
			</g>
			<g>
				<path style="fill:#FFA96E;" d="M216.014,125.88v10.714h-29.011v-19.782l1.208-0.075c0.04,0.104,0.081,0.213,0.121,0.316
					c2.56,6.571,8.631,11.444,16.019,11.956C208.672,129.303,212.717,128.107,216.014,125.88z"/>
			</g>
			<g>
				<path style="fill:#FFA96E;" d="M177.828,108.488c1.324,4.116,4.954,7.41,9.173,8.328l1.204-0.08h0.008
					c-0.04-0.104-0.08-0.215-0.12-0.319c-0.064-0.183-0.128-0.367-0.183-0.558c-0.239-0.75-0.431-1.516-0.574-2.289
					c-0.104-0.59-0.183-1.181-0.239-1.779c-0.024-0.279-0.048-0.558-0.064-0.846c-0.008-0.287-0.016-0.574-0.016-0.861V98.038
					c-1.181-0.694-2.624-0.965-3.98-0.71c-0.526,0.104-1.029,0.271-1.508,0.495c-0.399,0.191-0.774,0.415-1.125,0.678l-0.024,0.016
					c-1.069,0.806-1.922,1.906-2.433,3.143C177.055,103.805,177.119,106.278,177.828,108.488z"/>
			</g>
			<g>
				<g>
					<circle style="fill:#19203F;" cx="218.357" cy="101.887" r="2.719"/>
				</g>
				<g>
					<path style="fill:#19203F;" d="M216.898,97.688h2.919c0.66,0,1.2-0.54,1.2-1.2l0,0c0-0.66-0.54-1.2-1.2-1.2h-2.919
						c-0.66,0-1.2,0.54-1.2,1.2l0,0C215.698,97.149,216.238,97.688,216.898,97.688z"/>
				</g>
			</g>
			<g>
				<g>
					<circle style="fill:#19203F;" cx="203.412" cy="101.887" r="2.719"/>
				</g>
				<g>
					<path style="fill:#19203F;" d="M201.952,97.688h2.919c0.66,0,1.2-0.54,1.2-1.2l0,0c0-0.66-0.54-1.2-1.2-1.2h-2.919
						c-0.66,0-1.2,0.54-1.2,1.2l0,0C200.753,97.149,201.292,97.688,201.952,97.688z"/>
				</g>
			</g>
			<g>
				<g>
					<circle style="fill:#19203F;" cx="195.054" cy="109.885" r="4.719"/>
				</g>
			</g>
			<g>
				<path style="fill:#19203F;" d="M192.57,123.586c0,0,4.965,5.495,12.205,5.45s11.236-3.154,11.236-3.154v7.752
					C216.011,133.634,202.508,137.832,192.57,123.586z"/>
			</g>
			<g>
				<g>
					<polygon style="fill:#19203F;" points="212.852,100.687 210.969,112.196 216.185,112.196 					"/>
				</g>
			</g>
			<g>
				<path style="fill:#19203F;" d="M183.604,100.675c2.077,1,2.15,3.464,2.062,5.46c-0.007,0.168-0.17,0.33-0.334,0.349
					c-1.386,0.166-2.571,1.345-2.634,2.765c-0.063,1.416,1.071,2.726,2.446,2.964c0.503,0.087,0.419,0.881-0.089,0.793
					c-1.768-0.307-3.168-1.89-3.153-3.706c0.014-1.699,1.355-3.178,2.982-3.533c0.059-1.485,0.041-3.236-1.288-4.175
					c-1.383-0.976-2.787,0.188-3.005,1.646c-0.076,0.506-0.869,0.421-0.793-0.089C180.066,101.354,181.757,99.786,183.604,100.675z"
					/>
			</g>
			<g>
				<path style="fill:#19203F;" d="M210.144,112.019c1.941-0.044,3.882-0.088,5.824-0.131c-1.148-3.859-2.296-7.718-3.445-11.577
					c-0.146-0.49,0.643-0.61,0.788-0.125c1.192,4.008,2.385,8.016,3.577,12.023c0.083,0.279-0.216,0.454-0.438,0.459l-6.395,0.144
					C209.544,112.824,209.637,112.031,210.144,112.019z"/>
			</g>
			<g>
				<path style="fill:#19203F;" d="M203.36,112.82c0.234-0.037,0.398,0.123,0.456,0.332c0.414,1.474,1.543,2.724,2.947,3.319
					c0.472,0.2,0.185,0.944-0.29,0.743c-1.686-0.713-2.952-2.18-3.445-3.937C202.97,113.069,203.165,112.851,203.36,112.82z"/>
			</g>
			<g>
				<path style="fill:#19203F;" d="M181.953,86.009c-1.873,0.837-3.954-0.324-5.846-0.518c-4.268-0.457-7.505,3.49-8.82,7.089
					c-1.568,4.299-1.549,8.995-3.291,13.238c-0.741,1.804-1.79,3.523-3.268,4.816c-1.477,1.285-3.29,2.021-5.191,2.425
					c-3.804,0.824-8.181,0.482-11.508,2.813c-3.689,2.57-4.688,7.365-5.625,11.46c-0.531,2.292-1.102,4.599-2.176,6.7
					c-0.891,1.75-2.101,3.334-3.525,4.677c-2.938,2.738-6.748,4.441-10.773,4.641c-4.193,0.209-8.534-1.122-11.77-3.826
					c-2.89-2.401-5.097-6.338-4.347-10.185c0.782-4.03,4.578-6.3,8.066-7.761c3.798-1.591,7.942-2.872,10.15-6.64
					c1.828-3.106,2.284-6.791,3.239-10.215c0.929-3.361,2.436-6.633,5.596-8.427c3.185-1.818,6.99-1.923,10.539-2.392
					c1.823-0.24,3.65-0.568,5.357-1.276c1.756-0.73,3.214-1.928,4.373-3.435c2.378-3.09,3.504-6.953,5.976-9.992
					c2.59-3.185,6.674-5.115,10.783-5.048c2.952,0.049,5.813,1.083,8.139,2.853c0.235,0.114,0.47,0.212,0.696,0.326
					c1.804,0.933,3.819,2.146,4.669,4.084C184.109,83.053,183.687,85.23,181.953,86.009z"/>
			</g>
		</g>
		<g>
			<g>
				<path style="fill:#4B72BF;" d="M251.706,156.539v67.099c0,0-20.251,14.247-48.725,14.195
					c-27.986,0.053-48.725-14.195-48.725-14.195v-67.099c0-9.189,6.214-16.926,14.677-19.232c0.016,0,0.032-0.008,0.048-0.016
					c1.348-0.455,2.784-0.694,4.244-0.694h59.514c1.452,0,2.88,0.239,4.228,0.686c0.024,0.008,0.04,0.008,0.064,0.024
					C245.492,139.605,251.706,147.342,251.706,156.539z"/>
			</g>
			<g>
				<path style="fill:#19203F;" d="M233.581,196.086c1.024,0,0.84,1.586-0.178,1.586
					C232.379,197.672,232.563,196.086,233.581,196.086z"/>
			</g>
			<g>
				<path style="fill:#19203F;" d="M231.955,206.434c1.024,0,0.84,1.586-0.178,1.586
					C230.753,208.02,230.936,206.434,231.955,206.434z"/>
			</g>
			<g>
				<path style="fill:#19203F;" d="M236.981,209.391c1.024,0,0.84,1.586-0.178,1.586
					C235.779,210.977,235.963,209.391,236.981,209.391z"/>
			</g>
			<g>
				<path style="fill:#19203F;" d="M237.868,201.852c1.024,0,0.84,1.586-0.178,1.586
					C236.666,203.437,236.85,201.852,237.868,201.852z"/>
			</g>
			<g>
				<path style="fill:#19203F;" d="M237.129,140.798c1.024,0,0.84,1.586-0.178,1.586
					C235.927,142.384,236.11,140.798,237.129,140.798z"/>
			</g>
			<g>
				<path style="fill:#19203F;" d="M229.294,138.285c1.024,0,0.84,1.586-0.178,1.586
					C228.092,139.871,228.276,138.285,229.294,138.285z"/>
			</g>
			<g>
				<path style="fill:#19203F;" d="M230.772,142.424c1.024,0,0.84,1.586-0.178,1.586C229.57,144.01,229.754,142.424,230.772,142.424
					z"/>
			</g>
			<g>
				<path style="fill:#19203F;" d="M237.664,200.526c-0.083,0-0.166-0.021-0.244-0.064c-0.241-0.134-0.327-0.439-0.192-0.68
					c0.042-0.076,4.22-7.702,2.98-18.102c-1.245-10.446-13.861-27.862-13.988-28.037c-0.163-0.223-0.113-0.536,0.11-0.699
					c0.224-0.162,0.535-0.113,0.699,0.11c0.526,0.722,12.897,17.802,14.173,28.508c1.279,10.737-2.921,18.388-3.101,18.708
					C238.009,200.434,237.839,200.526,237.664,200.526z"/>
			</g>
		</g>
		<g>
			<g>
				
					<rect x="190.935" y="155.445" transform="matrix(0.9534 0.3018 -0.3018 0.9534 76.8711 -58.2655)" style="fill:#FFFFFF;" width="72.141" height="128.416"/>
			</g>
			<g>
				<path style="fill:#FF5F5F;" d="M286.37,186.702l-34.678,109.553c-0.758,2.395-3.318,3.724-5.713,2.966l-64.702-20.481
					c-2.395-0.758-3.724-3.318-2.966-5.713l21.498-67.917l-7.682-8.126c-1.137-1.202-1.531-2.923-1.03-4.503l10.339-32.663
					c0.758-2.395,3.318-3.724,5.713-2.966l76.254,24.137C285.799,181.747,287.128,184.307,286.37,186.702z"/>
			</g>
			<g>
				<path style="fill:#19203F;" d="M247.814,295.012c-0.047,0-0.095-0.007-0.142-0.021c-0.265-0.079-0.416-0.357-0.337-0.622
					l32.931-110.935c0.079-0.265,0.357-0.417,0.622-0.337c0.265,0.079,0.416,0.357,0.337,0.622l-32.931,110.936
					C248.229,294.871,248.03,295.012,247.814,295.012z"/>
			</g>
			<g>
				<path style="fill:#19203F;" d="M200.881,201.145c-0.121,0-0.243-0.044-0.339-0.132l-7.299-6.729
					c-0.203-0.188-0.216-0.503-0.029-0.707c0.188-0.203,0.504-0.215,0.707-0.029l7.299,6.729c0.203,0.188,0.216,0.503,0.029,0.707
					C201.15,201.091,201.016,201.145,200.881,201.145z"/>
			</g>
		</g>
		<g>
			<g>
				<g>
					<path style="fill:#FFA96E;" d="M252.388,206.837c-0.981-0.402-2.086-0.522-3.195-0.272l-11.718,2.631l-0.085,0.019
						l-17.471,3.595l-2.664,0.55c-2.469,0.715-4.766,2.011-6.67,3.786c-1.679,1.565-3.054,3.503-3.975,5.75
						s-1.302,4.593-1.204,6.886c0.149,3.584,1.471,7.03,3.724,9.788c1.676,2.05,3.858,3.718,6.463,4.786l35.25,14.447
						c2.128,0.872,4.586-0.157,5.459-2.285c0.437-1.067,0.397-2.215-0.021-3.199c-0.141-0.336-0.319-0.657-0.549-0.945l3.719,1.524
						c2.128,0.872,4.586-0.157,5.458-2.285c0.435-1.061,0.394-2.208-0.021-3.199c-0.408-0.988-1.197-1.822-2.264-2.26
						c2.128,0.872,4.584-0.15,5.456-2.278c0.437-1.067,0.397-2.215-0.018-3.205c-0.408-0.988-1.199-1.816-2.267-2.253
						c2.128,0.872,4.586-0.157,5.459-2.285c0.437-1.067,0.397-2.215-0.021-3.199c-0.408-0.988-1.197-1.822-2.264-2.26
						l-27.639-11.328l10.214-2.287c2.891-0.65,4.719-3.541,4.073-6.423C255.212,208.862,253.965,207.483,252.388,206.837z"/>
				</g>
				<g>
					<path style="fill:#19203F;" d="M248.1,231.49c6.006,2.231,12.011,4.462,18.016,6.693c0.477,0.177,0.283,0.952-0.198,0.773
						c-6.006-2.231-12.011-4.462-18.017-6.693C247.425,232.085,247.619,231.311,248.1,231.49z"/>
				</g>
				<g>
					<path style="fill:#19203F;" d="M245.138,239.105c5.892,2.242,11.784,4.484,17.676,6.726c0.475,0.181,0.282,0.955-0.198,0.773
						c-5.892-2.242-11.784-4.484-17.676-6.726C244.465,239.697,244.659,238.923,245.138,239.105z"/>
				</g>
				<g>
					<path style="fill:#19203F;" d="M241.203,245.631c4.89,2.089,9.781,4.178,14.671,6.267c0.472,0.202,0.078,0.896-0.39,0.696
						l-14.671-6.267C240.341,246.125,240.736,245.431,241.203,245.631z"/>
				</g>
			</g>
			<g>
				<path style="fill:#4B72BF;" d="M221.073,212.226l-14.416,29.585l-55.219-26.462c-9.615-4.608-14.163-15.762-10.511-25.779
					l14.579-39.989l31.943,14l-10.886,27.045L221.073,212.226z"/>
			</g>
			<g>
				<path style="fill:#19203F;" d="M221.072,212.726c-0.073,0-0.147-0.016-0.218-0.05l-44.51-21.6
					c-0.237-0.115-0.344-0.394-0.245-0.638l12.697-31.18c0.104-0.256,0.396-0.38,0.651-0.274c0.256,0.104,0.379,0.396,0.274,0.651
					l-12.521,30.746l44.089,21.395c0.249,0.121,0.352,0.419,0.231,0.668C221.436,212.623,221.258,212.726,221.072,212.726z"/>
			</g>
			<g>
				<path style="fill:#19203F;" d="M206.656,242.311c-0.073,0-0.146-0.016-0.217-0.05l-52.398-25.271
					c-0.249-0.12-0.353-0.418-0.233-0.667c0.12-0.248,0.418-0.353,0.667-0.233l52.398,25.271c0.249,0.12,0.353,0.418,0.233,0.667
					C207.021,242.207,206.842,242.311,206.656,242.311z"/>
			</g>
			<g>
				<path style="fill:#19203F;" d="M160.627,194.927c-0.226,0-0.431-0.154-0.486-0.383c-0.064-0.269,0.101-0.539,0.37-0.603
					l13.748-3.298c0.268-0.063,0.539,0.101,0.603,0.37c0.064,0.269-0.101,0.539-0.37,0.603l-13.748,3.298
					C160.705,194.922,160.666,194.927,160.627,194.927z"/>
			</g>
			<g>
				<path style="fill:#19203F;" d="M168.056,197.421c-0.167,0-0.33-0.083-0.425-0.236c-0.146-0.234-0.074-0.542,0.16-0.688
					l5.654-3.52c0.233-0.146,0.542-0.074,0.688,0.16s0.074,0.542-0.16,0.688l-5.654,3.52
					C168.238,197.397,168.146,197.421,168.056,197.421z"/>
			</g>
			<g>
				<path style="fill:#19203F;" d="M143.713,196.406c-1.024,0-0.84,1.586,0.178,1.586
					C144.915,197.992,144.732,196.406,143.713,196.406z"/>
			</g>
			<g>
				<path style="fill:#19203F;" d="M146.319,190.308c-1.024,0-0.84,1.586,0.178,1.586
					C147.521,191.894,147.337,190.308,146.319,190.308z"/>
			</g>
			<g>
				<path style="fill:#19203F;" d="M150.865,199.178c-1.024,0-0.84,1.586,0.178,1.586
					C152.067,200.763,151.883,199.178,150.865,199.178z"/>
			</g>
			<g>
				<path style="fill:#19203F;" d="M148.536,205.386c-1.024,0-0.84,1.586,0.178,1.586
					C149.738,206.972,149.555,205.386,148.536,205.386z"/>
			</g>
			<g>
				<path style="fill:#19203F;" d="M157.912,205.135c-0.042-0.095-0.105-0.174-0.189-0.238c-0.059-0.036-0.117-0.073-0.176-0.109
					c-0.134-0.06-0.273-0.082-0.419-0.066c-0.067,0.017-0.134,0.033-0.201,0.05c-0.13,0.051-0.239,0.131-0.327,0.238
					c-0.019,0.018-0.037,0.037-0.055,0.055c-0.072,0.081-0.118,0.174-0.14,0.278c-0.04,0.101-0.052,0.206-0.036,0.316
					c0.008,0.106,0.041,0.203,0.099,0.29c0.042,0.095,0.105,0.174,0.189,0.238c0.059,0.036,0.117,0.073,0.176,0.109
					c0.134,0.06,0.273,0.082,0.419,0.066c0.067-0.017,0.134-0.033,0.201-0.05c0.13-0.051,0.239-0.131,0.327-0.238
					c0.019-0.018,0.037-0.037,0.055-0.055c0.072-0.081,0.118-0.174,0.14-0.278c0.04-0.101,0.052-0.206,0.036-0.316
					C158.003,205.319,157.97,205.222,157.912,205.135z"/>
			</g>
			<g>
				<path style="fill:#19203F;" d="M151.142,191.694c-1.024,0-0.84,1.586,0.178,1.586
					C152.344,193.279,152.16,191.694,151.142,191.694z"/>
			</g>
		</g>
	</g>
	<g>
		<g>
			<g>
				<g>
					<path style="fill:#A4BFEA;" d="M433.527,114.598c-0.008,3.677-0.423,7.331-1.22,10.864c-0.08,0.327-0.399,0.526-0.726,0.455
						l-6.509-1.476c-0.901,3.741-2.321,7.339-4.228,10.705l5.759,3.374c0.287,0.168,0.383,0.534,0.215,0.822
						c-3.589,6.198-8.718,11.686-14.836,15.873c-0.136,0.088-0.295,0.12-0.455,0.096c-0.159-0.032-0.295-0.128-0.391-0.255
						l-3.757-5.536c-4.004,2.632-8.391,4.531-13.042,5.655l1.476,6.517c0.032,0.159,0.008,0.319-0.08,0.455
						c-0.088,0.136-0.223,0.231-0.375,0.263c-3.566,0.806-7.219,1.22-10.864,1.22c-3.653,0-7.307-0.415-10.872-1.22
						c-0.152-0.032-0.287-0.128-0.375-0.263c-0.088-0.136-0.112-0.295-0.08-0.455l1.476-6.517
						c-3.733-0.893-7.322-2.313-10.705-4.228l-3.366,5.767c-0.168,0.287-0.535,0.383-0.83,0.215
						c-6.214-3.605-11.694-8.742-15.866-14.852c-0.088-0.128-0.128-0.295-0.096-0.447c0.032-0.16,0.12-0.295,0.255-0.391
						l5.536-3.749c-2.632-4.004-4.539-8.391-5.663-13.05l-6.509,1.476c-0.327,0.072-0.646-0.128-0.726-0.455
						c-0.806-3.558-1.22-7.211-1.22-10.864c0-3.645,0.415-7.307,1.22-10.864c0.08-0.327,0.399-0.526,0.726-0.455l6.509,1.476
						c0.901-3.733,2.321-7.323,4.228-10.705l-5.759-3.374c-0.287-0.168-0.383-0.534-0.215-0.822
						c3.597-6.206,8.726-11.694,14.844-15.865c0.128-0.096,0.295-0.128,0.447-0.096c0.16,0.032,0.295,0.12,0.391,0.255l3.757,5.536
						c4.004-2.632,8.391-4.539,13.05-5.663l-1.484-6.517c-0.072-0.319,0.136-0.646,0.455-0.718c3.558-0.806,7.211-1.22,10.864-1.228
						c3.661,0.008,7.315,0.423,10.872,1.228c0.319,0.072,0.526,0.399,0.455,0.718l-1.476,6.517
						c3.733,0.901,7.323,2.321,10.697,4.228l3.374-5.759c0.175-0.287,0.542-0.383,0.829-0.215
						c6.19,3.589,11.678,8.718,15.866,14.837c0.088,0.136,0.128,0.295,0.096,0.455c-0.032,0.16-0.12,0.295-0.255,0.383l-5.536,3.757
						c2.632,4.012,4.539,8.391,5.663,13.05l6.509-1.476c0.327-0.072,0.646,0.128,0.726,0.455
						C433.104,107.267,433.519,110.921,433.527,114.598z"/>
				</g>
			</g>
			<g>
				<path style="fill:#19203F;" d="M384.49,148.815c-18.922,0-34.315-15.394-34.315-34.316s15.394-34.316,34.315-34.316
					s34.316,15.394,34.316,34.316S403.412,148.815,384.49,148.815z M384.49,81.184c-18.37,0-33.315,14.945-33.315,33.316
					s14.945,33.316,33.315,33.316c18.371,0,33.316-14.945,33.316-33.316S402.861,81.184,384.49,81.184z"/>
			</g>
		</g>
		<g>
			<g>
				<path style="fill:#F79654;" d="M496.94,89.046v12.045c0,0.287-0.008,0.574-0.016,0.861c-0.016,0.279-0.032,0.558-0.056,0.846
					c-0.056,0.598-0.136,1.196-0.247,1.779c-0.144,0.774-0.335,1.539-0.574,2.289c-0.056,0.191-0.12,0.375-0.183,0.558
					c-0.04,0.104-0.072,0.207-0.112,0.319v0.008c-0.04,0.104-0.08,0.207-0.12,0.311c-2.56,6.573-8.631,11.446-16.025,11.957
					c-4.315,0.295-8.36-0.901-11.662-3.127c-4.969-3.358-8.256-9.038-8.256-15.451V77.289h27.32
					c0.343,5.536,3.342,10.673,7.993,13.744C495.44,90.195,496.126,89.517,496.94,89.046z"/>
			</g>
			<g>
				<path style="fill:#F79654;" d="M467.944,116.888v10.714h29.011V107.82l-1.208-0.075c-0.04,0.104-0.081,0.213-0.121,0.316
					c-2.56,6.571-8.631,11.444-16.019,11.956C475.286,120.312,471.241,119.115,467.944,116.888z"/>
			</g>
			<g>
				<path style="fill:#F79654;" d="M506.129,99.496c-1.324,4.116-4.954,7.41-9.173,8.328l-1.204-0.08h-0.008
					c0.04-0.104,0.08-0.215,0.12-0.319c0.064-0.183,0.128-0.367,0.183-0.558c0.239-0.75,0.431-1.516,0.574-2.289
					c0.104-0.59,0.183-1.181,0.239-1.779c0.024-0.279,0.048-0.558,0.064-0.846c0.008-0.287,0.016-0.574,0.016-0.861V89.046
					c1.181-0.694,2.624-0.965,3.98-0.71c0.526,0.104,1.029,0.271,1.508,0.495c0.399,0.191,0.774,0.415,1.125,0.678l0.024,0.016
					c1.069,0.806,1.922,1.906,2.433,3.143C506.903,94.813,506.839,97.286,506.129,99.496z"/>
			</g>
			<g>
				<g>
					<circle style="fill:#19203F;" cx="465.6" cy="92.895" r="2.719"/>
				</g>
				<g>
					<path style="fill:#19203F;" d="M467.06,88.696h-2.919c-0.66,0-1.2-0.54-1.2-1.2l0,0c0-0.66,0.54-1.2,1.2-1.2h2.919
						c0.66,0,1.2,0.54,1.2,1.2l0,0C468.259,88.157,467.72,88.696,467.06,88.696z"/>
				</g>
			</g>
			<g>
				<g>
					<path style="fill:#19203F;" d="M483.265,92.895c0,1.502-1.217,2.719-2.719,2.719s-2.719-1.217-2.719-2.719
						c0-1.502,1.217-2.719,2.719-2.719S483.265,91.393,483.265,92.895z"/>
				</g>
				<g>
					<path style="fill:#19203F;" d="M482.005,88.696h-2.919c-0.66,0-1.2-0.54-1.2-1.2l0,0c0-0.66,0.54-1.2,1.2-1.2h2.919
						c0.66,0,1.2,0.54,1.2,1.2l0,0C483.205,88.157,482.665,88.696,482.005,88.696z"/>
				</g>
			</g>
			<g>
				<g>
					<circle style="fill:#19203F;" cx="488.903" cy="100.893" r="4.719"/>
				</g>
			</g>
			<g>
				<path style="fill:#19203F;" d="M491.388,114.594c0,0-4.965,5.495-12.205,5.45c-7.241-0.044-11.236-3.154-11.236-3.154v7.752
					C467.946,124.642,481.45,128.84,491.388,114.594z"/>
			</g>
			<g>
				<g>
					<polygon style="fill:#19203F;" points="471.105,91.696 472.988,103.204 467.773,103.204 					"/>
				</g>
			</g>
			<g>
				<path style="fill:#19203F;" d="M502.428,77.44v11.391c-0.479-0.223-0.981-0.391-1.508-0.495c-1.356-0.255-2.8,0.016-3.98,0.71
					c-0.814,0.471-1.5,1.149-1.938,1.986c-4.65-3.071-7.65-8.208-7.993-13.744h-30.183c0,0-14.27-5.113-6.732-14.98
					c7.546-9.867,13.975,3.55,13.975,3.55h26.77C497.243,65.858,502.428,71.043,502.428,77.44z"/>
			</g>
			<g>
				<path style="fill:#19203F;" d="M500.354,91.683c-2.077,1-2.15,3.464-2.062,5.46c0.007,0.168,0.17,0.33,0.334,0.349
					c1.386,0.166,2.571,1.345,2.634,2.765c0.063,1.416-1.071,2.726-2.446,2.964c-0.503,0.087-0.419,0.881,0.089,0.793
					c1.768-0.307,3.168-1.89,3.153-3.706c-0.014-1.699-1.355-3.178-2.982-3.533c-0.059-1.485-0.041-3.236,1.288-4.175
					c1.383-0.976,2.787,0.188,3.005,1.646c0.076,0.506,0.869,0.421,0.793-0.089C503.891,92.362,502.201,90.794,500.354,91.683z"/>
			</g>
			<g>
				<path style="fill:#19203F;" d="M473.814,103.027c-1.941-0.044-3.882-0.088-5.824-0.131c1.148-3.859,2.296-7.718,3.445-11.577
					c0.146-0.49-0.643-0.61-0.788-0.125c-1.192,4.008-2.385,8.016-3.577,12.023c-0.083,0.279,0.216,0.454,0.438,0.459l6.395,0.144
					C474.414,103.832,474.321,103.039,473.814,103.027z"/>
			</g>
			<g>
				<path style="fill:#19203F;" d="M480.597,103.828c-0.234-0.037-0.398,0.123-0.456,0.332c-0.414,1.474-1.543,2.724-2.947,3.319
					c-0.472,0.2-0.185,0.944,0.29,0.743c1.686-0.713,2.952-2.18,3.445-3.937C480.987,104.077,480.792,103.859,480.597,103.828z"/>
			</g>
		</g>
		<g>
			<g>
				<path style="fill:#F79654;" d="M412.653,96.411c0.905,0.552,1.656,1.371,2.112,2.412l4.824,10.998l0.035,0.08l7.457,16.203
					l1.136,2.472c0.887,2.412,1.204,5.031,0.903,7.616c-0.266,2.28-1.012,4.536-2.276,6.609c-1.265,2.074-2.928,3.77-4.833,5.05
					c-2.976,2.004-6.534,2.981-10.091,2.801c-2.645-0.136-5.281-0.904-7.685-2.37l-32.525-19.834
					c-1.964-1.197-2.591-3.787-1.394-5.751c0.601-0.985,1.549-1.632,2.589-1.879c0.354-0.086,0.719-0.132,1.087-0.118l-3.432-2.093
					c-1.964-1.197-2.591-3.787-1.394-5.751c0.597-0.979,1.545-1.626,2.589-1.879c1.038-0.257,2.177-0.116,3.162,0.485
					c-1.964-1.197-2.595-3.781-1.398-5.745c0.6-0.985,1.549-1.632,2.593-1.885c1.038-0.257,2.173-0.11,3.158,0.491
					c-1.964-1.197-2.591-3.787-1.394-5.751c0.601-0.985,1.549-1.632,2.589-1.879c1.038-0.257,2.177-0.116,3.162,0.485l25.503,15.551
					l-4.21-9.583c-1.19-2.714,0.056-5.899,2.76-7.086C409.348,95.335,411.197,95.523,412.653,96.411z"/>
			</g>
			<g>
				<path style="fill:#19203F;" d="M395.335,114.473c-5.356-3.516-10.711-7.031-16.067-10.547c-0.426-0.28-0.934,0.336-0.505,0.617
					c5.356,3.516,10.712,7.031,16.067,10.547C395.255,115.369,395.764,114.754,395.335,114.473z"/>
			</g>
			<g>
				<path style="fill:#19203F;" d="M390.956,121.372c-5.297-3.418-10.595-6.835-15.892-10.253c-0.427-0.276-0.936,0.339-0.505,0.617
					c5.297,3.418,10.595,6.835,15.892,10.253C390.878,122.265,391.387,121.65,390.956,121.372z"/>
			</g>
			<g>
				<path style="fill:#19203F;" d="M388.031,128.408c-4.581-2.702-9.161-5.403-13.742-8.105c-0.442-0.261-0.767,0.468-0.33,0.727
					l13.742,8.105C388.143,129.395,388.469,128.666,388.031,128.408z"/>
			</g>
		</g>
		<g>
			<g>
				<polygon style="fill:#19203F;" points="483.587,445.924 431.248,445.924 444.17,209.766 496.509,209.766 				"/>
			</g>
			<g>
				<path style="fill:#19203F;" d="M580.409,407.285l-40.153,25.179l-35.663-71.786c-5.362-11.168-9.101-23.044-11.106-35.269
					L474.53,209.77h52.342l21.98,134.07L580.409,407.285z"/>
			</g>
			<g>
				<path style="fill:#19203F;" d="M483.587,445.924h-52.339c0,0-26.609-2.495-26.609,21.62h78.948V445.924z"/>
			</g>
			<g>
				<path style="fill:#19203F;" d="M580.409,407.285l-44.342,27.806c0,0-23.869,12.023-11.058,32.453l66.885-41.942L580.409,407.285
					z"/>
			</g>
			<g>
				<path style="fill:#FFFFFF;" d="M491.008,310.787c-0.24,0-0.452-0.174-0.492-0.419l-8.49-51.783l-19.993-6.21
					c-0.264-0.082-0.411-0.362-0.329-0.626c0.081-0.263,0.359-0.414,0.626-0.329l20.288,6.302c0.181,0.057,0.314,0.21,0.345,0.396
					l8.54,52.088c0.045,0.272-0.14,0.53-0.412,0.574C491.063,310.785,491.035,310.787,491.008,310.787z"/>
			</g>
			<g>
				<path style="fill:#FFFFFF;" d="M540.256,432.964c-0.166,0-0.329-0.083-0.424-0.234c-0.146-0.234-0.076-0.543,0.158-0.689
					l40.153-25.179c0.235-0.146,0.543-0.075,0.689,0.158c0.146,0.234,0.076,0.543-0.158,0.689l-40.153,25.179
					C540.438,432.939,540.347,432.964,540.256,432.964z"/>
			</g>
			<g>
				<path style="fill:#FFFFFF;" d="M483.587,446.424h-52.339c-0.276,0-0.5-0.224-0.5-0.5s0.224-0.5,0.5-0.5h52.339
					c0.276,0,0.5,0.224,0.5,0.5S483.863,446.424,483.587,446.424z"/>
			</g>
			<g>
				<path style="fill:#FFFFFF;" d="M537.182,437.496c-0.073,0-0.146-0.016-0.217-0.049c-0.164-0.079-0.266-0.236-0.281-0.405
					c-3.25-1.065-6.586-2.188-9.661-3.844c-3.68-1.98-6.433-4.447-8.183-7.333c-1.038-1.714-1.181-3.305-0.39-4.364
					c0.495-0.666,1.366-1.082,2.327-1.114c0.874-0.017,1.719,0.243,2.354,0.483c3.16,1.192,6.106,3.436,8.759,6.667
					c1.797,2.189,3.289,4.608,4.684,7.032c-0.328-3.025-0.521-6.35-0.199-9.638c0.439-4.471,1.83-8.442,4.022-11.484
					c0.362-0.504,0.775-1.021,1.342-1.379c0.679-0.433,1.473-0.538,2.118-0.277c0.816,0.327,1.348,1.152,1.582,2.453
					c0.382,2.134,0.184,4.518-0.587,7.086c-0.679,2.264-1.706,4.402-2.699,6.471l-4.306,8.965c0.007,0.054,0.014,0.106,0.021,0.159
					c0.031,0.237-0.11,0.464-0.338,0.54c-0.078,0.025-0.16,0.033-0.238,0.019C537.256,437.492,537.219,437.496,537.182,437.496z
					 M520.91,421.385c-0.033,0-0.066,0.001-0.1,0.002c-0.66,0.021-1.243,0.288-1.559,0.712c-0.76,1.018,0.057,2.611,0.443,3.249
					c1.656,2.73,4.28,5.075,7.802,6.97c2.729,1.469,5.701,2.52,8.632,3.489c-1.496-2.632-3.082-5.282-5.013-7.635
					c-2.539-3.095-5.345-5.237-8.339-6.366C522.223,421.596,521.571,421.385,520.91,421.385z M543.109,412.651
					c-0.27,0-0.566,0.09-0.835,0.261c-0.424,0.269-0.763,0.696-1.066,1.119c-2.089,2.899-3.416,6.702-3.838,10.998
					c-0.332,3.372-0.104,6.805,0.25,9.899l3.63-7.562c0.978-2.033,1.987-4.137,2.645-6.324c0.725-2.417,0.913-4.645,0.56-6.622
					c-0.116-0.646-0.378-1.465-0.97-1.702C543.371,412.674,543.243,412.651,543.109,412.651z"/>
			</g>
			<g>
				<path style="fill:#FFFFFF;" d="M429.03,450.518c-0.228,0-0.434-0.156-0.487-0.388c-0.015-0.063-0.017-0.127-0.007-0.188
					c-4.876-3.105-8.696-7.786-10.762-13.185c-0.742-1.939-0.548-3.482,0.533-4.233c0.759-0.529,1.85-0.515,2.779,0.032
					c0.764,0.449,1.302,1.148,1.788,1.827c2.856,3.994,5.022,8.558,6.329,13.309c1.349-4.952,4.519-9.455,8.758-12.329
					c1.776-1.203,3.413-1.401,4.49-0.549c1.151,0.911,1.264,2.674,0.3,4.716c-2.556,5.419-7.771,9.625-13.609,10.976
					C429.105,450.514,429.067,450.518,429.03,450.518z M440.872,435.286c-0.892,0-1.875,0.583-2.35,0.904
					c-4.422,2.998-7.624,7.854-8.668,13.096c5.164-1.496,9.703-5.327,11.993-10.184c0.58-1.229,0.88-2.795-0.017-3.506
					C441.549,435.373,441.217,435.286,440.872,435.286z M419.592,433.137c-0.254,0-0.503,0.061-0.714,0.207
					c-0.98,0.683-0.378,2.512-0.17,3.056c1.897,4.96,5.334,9.291,9.723,12.275c-1.249-4.896-3.437-9.61-6.368-13.71
					c-0.441-0.615-0.887-1.197-1.483-1.548C420.298,433.251,419.94,433.137,419.592,433.137z"/>
			</g>
		</g>
		<g>
			<g>
				<path style="fill:#FF5F5F;" d="M529.7,147.547v67.099c0,0-41.909,21.84-88.253,0v-41.582l-0.439-40.689
					c1.268-1.516,2.832-2.704,4.579-3.518c1.739-0.814,3.661-1.252,5.632-1.252h58.54C520.774,127.605,529.7,136.531,529.7,147.547z
					"/>
			</g>
			<g>
				<g>
					<polygon style="fill:#FF5F5F;" points="450.429,178.389 410.178,151.004 428.919,123.951 469.17,151.337 					"/>
				</g>
				<g>
					<path style="fill:#19203F;" d="M477.257,191.565c-5.233,0-10.49-1.518-15.057-4.619l-52.304-35.528
						c-0.229-0.155-0.287-0.466-0.133-0.694c0.158-0.229,0.47-0.287,0.695-0.133l52.304,35.528
						c10.164,6.904,23.896,5.657,32.651-2.966l29.17-28.735c0.195-0.194,0.514-0.192,0.707,0.005s0.191,0.514-0.006,0.708
						l-29.17,28.735C490.955,188.948,484.127,191.565,477.257,191.565z"/>
				</g>
				<g>
					<path style="fill:#19203F;" d="M474.529,155.052c-0.096,0-0.191-0.027-0.275-0.083l-33.521-22.176
						c-0.23-0.152-0.294-0.462-0.142-0.693c0.151-0.231,0.465-0.294,0.692-0.141l33.194,21.959l23.619-21.909
						c0.201-0.187,0.518-0.177,0.706,0.027c0.188,0.202,0.177,0.519-0.026,0.707l-23.907,22.176
						C474.774,155.006,474.652,155.052,474.529,155.052z"/>
				</g>
			</g>
			<g>
				<path style="fill:#19203F;" d="M521.926,211.043c-1.024,0-0.84,1.586,0.178,1.586
					C523.128,212.629,522.944,211.043,521.926,211.043z"/>
			</g>
			<g>
				<path style="fill:#19203F;" d="M524.143,206.312c-1.024,0-0.84,1.586,0.178,1.586
					C525.345,207.898,525.162,206.312,524.143,206.312z"/>
			</g>
			<g>
				<path style="fill:#19203F;" d="M517.934,206.756c-1.024,0-0.84,1.586,0.178,1.586
					C519.136,208.342,518.953,206.756,517.934,206.756z"/>
			</g>
			<g>
				<path style="fill:#19203F;" d="M450.376,187.094c-1.024,0-0.84,1.586,0.178,1.586
					C451.578,188.68,451.395,187.094,450.376,187.094z"/>
			</g>
			<g>
				<path style="fill:#19203F;" d="M452.003,197.443c-1.024,0-0.84,1.586,0.178,1.586
					C453.204,199.028,453.021,197.443,452.003,197.443z"/>
			</g>
			<g>
				<path style="fill:#19203F;" d="M446.976,200.399c-1.024,0-0.84,1.586,0.178,1.586
					C448.178,201.985,447.995,200.399,446.976,200.399z"/>
			</g>
			<g>
				<path style="fill:#19203F;" d="M446.089,192.86c-1.024,0-0.84,1.586,0.178,1.586C447.291,194.446,447.108,192.86,446.089,192.86
					z"/>
			</g>
			<g>
				<path style="fill:#19203F;" d="M446.828,131.806c-1.024,0-0.84,1.586,0.178,1.586
					C448.03,133.392,447.847,131.806,446.828,131.806z"/>
			</g>
			<g>
				<path style="fill:#19203F;" d="M454.663,129.293c-1.024,0-0.84,1.586,0.178,1.586
					C455.865,130.879,455.682,129.293,454.663,129.293z"/>
			</g>
			<g>
				<path style="fill:#19203F;" d="M453.185,133.432c-1.024,0-0.84,1.586,0.178,1.586
					C454.387,135.018,454.204,133.432,453.185,133.432z"/>
			</g>
		</g>
	</g>
</g>
</svg>
