<?xml version="1.0" encoding="utf-8"?>
<!-- Generator: Adobe Illustrator 27.5.0, SVG Export Plug-In . SVG Version: 6.00 Build 0)  -->
<svg version="1.1" xmlns="http://www.w3.org/2000/svg" xmlns:xlink="http://www.w3.org/1999/xlink" x="0px" y="0px"
	 viewBox="0 0 3710 3710" style="enable-background:new 0 0 3710 3710;" xml:space="preserve">
<g id="Background">
	<g>
		<g>
			<rect style="fill:#FFFFFF;" width="3710" height="3710"/>
		</g>
	</g>
</g>
<g id="Illustration">
	<g>
		<linearGradient id="SVGID_1_" gradientUnits="userSpaceOnUse" x1="3624.7263" y1="4114.9272" x2="1103.0437" y2="983.1556">
			<stop  offset="0" style="stop-color:#DAE3FE"/>
			<stop  offset="1" style="stop-color:#E9EFFD"/>
		</linearGradient>
		<path style="fill:url(#SVGID_1_);" d="M2938.781,2874.466c-58.349,60.683-113.558,99.817-157.178,130.736
			c-512.74,363.441-1119.448,257.5-1248.391,231.628c-190.408-38.205-558.461-112.053-824.558-421.187
			c-402.581-467.693-339.894-1204.531-27.624-1690.928c57.119-88.97,358.838-582.776,972.081-661.967
			c371.128-47.925,803.743,48.735,1117.032,308.029C3427.763,1315.058,3380.948,2414.605,2938.781,2874.466z"/>
		<g>
			<g>
				
					<linearGradient id="SVGID_00000016072945141080449350000014321882799074218373_" gradientUnits="userSpaceOnUse" x1="1966.1797" y1="965.0962" x2="1562.13" y2="1060.9722">
					<stop  offset="0" style="stop-color:#4F52FF"/>
					<stop  offset="1" style="stop-color:#4042E2"/>
				</linearGradient>
				<path style="fill:url(#SVGID_00000016072945141080449350000014321882799074218373_);" d="M1194.074,521.647
					c-5.56-19.302-17.687-33.245-32.77-37.753c-15.083-4.507-31.436,0.931-44.261,14.732
					c-470.478,506.302-321.385,1137.237-248.636,1356.715c6.498,19.603,19.874,32.947,35.896,35.838
					c16.023,2.89,32.729-5.029,44.858-21.269C1366.046,1311.676,1253.04,726.339,1194.074,521.647z"/>
				<g>
					<path style="fill:#91B3FA;" d="M1130.263,563.219c-29.984,102.757-56,206.793-79.769,311.22
						c-23.622,104.483-44.778,209.522-62.802,315.082l-12.874,79.27c-4.138,26.444-7.566,52.994-11.385,79.483l-5.55,39.756
						l-4.619,39.87l-4.62,39.866c-1.442,13.298-3.321,26.552-4.31,39.892c-10.627,106.485-16.023,213.369-16.479,320.177
						l-0.001,0.285c-0.021,5.129-4.198,9.269-9.326,9.247c-5.129-0.021-9.27-4.197-9.247-9.326c0-0.064,0.002-0.171,0.004-0.235
						l2.383-80.636l0.596-20.154l0.329-10.074l0.678-10.055l2.712-40.215l2.684-40.21l1.327-20.104l1.971-20.046l7.887-80.172
						c1.135-13.382,3.161-26.658,4.75-39.986l5.059-39.945l5.058-39.943l5.989-39.806c4.11-26.518,7.829-53.097,12.258-79.559
						l13.745-79.302c19.325-105.547,40.827-210.675,65.312-315.115c12.285-52.208,25.061-104.299,38.665-156.178l10.182-38.913
						l10.546-38.82c7.096-25.87,14.381-51.66,22.037-77.415c0.56-1.884,2.54-2.956,4.424-2.397c1.877,0.558,2.95,2.528,2.403,4.406
						L1130.263,563.219z"/>
					<path style="fill:#91B3FA;" d="M1040.669,875.784c-0.684-0.621-1.15-1.482-1.26-2.469c-0.234-2.146,1.314-4.079,3.462-4.315
						c57.476-6.292,150.885-106.702,151.82-107.714c1.459-1.579,3.914-1.682,5.501-0.242c0.008,0.008,0.017,0.015,0.026,0.023
						c1.588,1.467,1.683,3.941,0.219,5.526c-3.907,4.225-96.359,103.575-156.712,110.184
						C1042.564,876.901,1041.469,876.511,1040.669,875.784z"/>
					<path style="fill:#91B3FA;" d="M1040.672,875.787c-0.156-0.141-0.304-0.296-0.439-0.465
						c-2.28-2.874-56.097-71.163-72.77-140.021c-0.51-2.097,0.78-4.212,2.88-4.719c2.101-0.508,4.22,0.782,4.719,2.88
						c16.264,67.155,70.75,136.305,71.299,136.995c1.342,1.692,1.058,4.152-0.634,5.495
						C1044.207,877.159,1042.066,877.052,1040.672,875.787z"/>
					<path style="fill:#91B3FA;" d="M984.775,1161.251c-0.523-0.475-0.927-1.099-1.132-1.832c-0.587-2.075,0.622-4.237,2.703-4.824
						c91.47-25.835,168.697-121.2,169.467-122.162c1.349-1.685,3.809-1.958,5.497-0.607c1.659,1.377,1.955,3.812,0.606,5.497
						c-0.785,0.979-79.532,98.275-173.448,124.799C987.123,1162.5,985.739,1162.127,984.775,1161.251z"/>
					<path style="fill:#91B3FA;" d="M959.767,1144.495c-25.985-23.585-67.518-71.638-90.638-152.468
						c-0.592-2.074,0.609-4.239,2.686-4.834c2.075-0.593,4.236,0.606,4.834,2.685c33.772,118.08,109.495,165.525,110.253,165.996
						c1.845,1.143,2.421,3.538,1.293,5.377c-1.125,1.842-3.533,2.421-5.377,1.293
						C981.754,1161.892,972.679,1156.214,959.767,1144.495z"/>
					<path style="fill:#91B3FA;" d="M929.956,1553.786c-0.031-0.028-0.062-0.057-0.093-0.085
						c-0.812-0.788-81.808-79.765-120.501-184.349c-0.75-2.026,0.288-4.278,2.309-5.027c2.027-0.75,4.272,0.283,5.027,2.309
						c38.059,102.868,117.8,180.665,118.603,181.44c1.551,1.501,1.595,3.975,0.092,5.53
						C933.922,1555.127,931.511,1555.198,929.956,1553.786z"/>
					<path style="fill:#91B3FA;" d="M929.95,1553.781c-0.43-0.39-0.778-0.882-1.006-1.46c-0.792-2.008,0.195-4.278,2.204-5.07
						c1.035-0.407,104.306-41.921,177.389-140.744c1.284-1.733,3.732-2.1,5.47-0.816c1.698,1.299,2.097,3.735,0.816,5.47
						c-74.466,100.687-179.753,142.951-180.811,143.367C932.582,1555.092,931.019,1554.751,929.95,1553.781z"/>
				</g>
			</g>
			<g>
				
					<linearGradient id="SVGID_00000004514362170580098520000005622245526627550359_" gradientUnits="userSpaceOnUse" x1="-150.4107" y1="-3553.085" x2="-169.3088" y2="-2627.0488" gradientTransform="matrix(0.9766 -0.2149 0.2149 0.9766 1580.1635 4114.6401)">
					<stop  offset="0" style="stop-color:#4F52FF"/>
					<stop  offset="1" style="stop-color:#4042E2"/>
				</linearGradient>
				<path style="fill:url(#SVGID_00000004514362170580098520000005622245526627550359_);" d="M741.333,715.923
					c-9.749-13.457-23.102-20.898-36.103-20.169c-13.002,0.731-24.198,9.555-30.3,23.897
					c-223.84,526.11,69.407,975.144,187.668,1125.479c10.562,13.427,24.719,20.053,37.997,17.801
					c13.279-2.252,24.053-13.108,28.927-29.151C1097.075,1282.32,844.715,858.627,741.333,715.923z"/>
				<g>
					<path style="fill:#91B3FA;" d="M703.788,766.211c5.546,88.348,14.583,176.599,25.492,264.506
						c11.042,87.91,24.115,175.565,39.852,262.725l12.321,65.267c4.232,21.728,9.045,43.338,13.539,65.009l6.883,32.476l7.64,32.301
						l7.638,32.296c2.625,10.746,4.896,21.581,7.886,32.231c21.72,85.785,47.657,170.386,77.411,253.511l0.095,0.268
						c1.729,4.829-0.786,10.145-5.614,11.873c-4.829,1.729-10.145-0.785-11.874-5.615c-0.024-0.068-0.061-0.178-0.085-0.248
						l-20.721-63.487l-5.178-15.867l-2.564-7.94l-2.287-8.022l-9.146-32.083l-9.17-32.069l-4.6-16.029l-4.081-16.163l-16.322-64.641
						c-2.865-10.738-5.006-21.645-7.504-32.468l-7.252-32.521l-7.251-32.517l-6.489-32.672
						c-4.229-21.799-8.778-43.535-12.742-65.379l-11.513-65.594c-14.508-87.59-27.285-175.445-37.502-263.608
						c-5.077-44.083-9.738-88.212-13.697-132.409c-4.141-44.187-7.641-88.395-10.27-132.759c-0.116-1.962,1.38-3.646,3.341-3.762
						c1.961-0.117,3.646,1.379,3.762,3.341L703.788,766.211z"/>
					<path style="fill:#91B3FA;" d="M719.869,1034.519c-0.357-0.324-0.659-0.717-0.884-1.174c-0.951-1.941-0.145-4.283,1.791-5.234
						c42.732-20.932,87.105-125.069,87.55-126.115c0.842-1.99,3.132-2.923,5.122-2.081c1.998,0.839,2.923,3.132,2.081,5.122
						c-1.855,4.396-45.981,107.892-91.309,130.098C722.735,1035.861,721.02,1035.563,719.869,1034.519z"/>
					<path style="fill:#91B3FA;" d="M666.036,993.43c-14.937-13.557-30.178-29.67-41.754-47.186
						c-1.19-1.802-0.697-4.227,1.106-5.417c1.8-1.193,4.226-0.719,5.417,1.106c31.462,47.592,93.126,85.979,93.747,86.362
						c1.802,1.145,2.405,3.544,1.272,5.383c-1.136,1.837-3.544,2.405-5.383,1.272C718.78,1033.922,692.906,1017.818,666.036,993.43z
						"/>
					<path style="fill:#91B3FA;" d="M756.581,1272.34c-0.201-0.182-0.389-0.389-0.552-0.619c-1.259-1.756-0.855-4.201,0.898-5.456
						c63.781-45.702,96.971-141.365,97.298-142.327c0.701-2.046,2.919-3.137,4.964-2.441c2.053,0.703,3.137,2.925,2.441,4.964
						c-1.373,4.019-34.348,99.012-100.148,146.161C759.96,1273.714,757.916,1273.551,756.581,1272.34z"/>
					<path style="fill:#91B3FA;" d="M661.827,1220.805c-13.947-12.659-28.224-28.175-41.923-47.159
						c-1.263-1.75-0.868-4.197,0.882-5.46c1.75-1.264,4.212-0.84,5.461,0.882c30.916,42.846,65.156,67.183,88.424,80.061
						c25.238,13.958,43.403,17.826,43.584,17.861c2.114,0.449,3.474,2.508,3.038,4.619c-0.436,2.116-2.5,3.476-4.614,3.043
						C754.301,1274.164,710.059,1264.581,661.827,1220.805z"/>
					<path style="fill:#91B3FA;" d="M712.661,1518.339c-11.475-10.415-22.751-21.852-33.234-34.275
						c-1.391-1.649-1.184-4.117,0.469-5.511c1.65-1.391,4.105-1.204,5.511,0.469c58.393,69.23,142.173,107.298,143.008,107.674
						c1.99,0.888,2.853,3.198,1.97,5.166c-0.883,1.973-3.198,2.853-5.166,1.969C824.513,1593.516,766.423,1567.136,712.661,1518.339
						z"/>
					<path style="fill:#91B3FA;" d="M824.19,1593.161c-0.107-0.098-0.212-0.203-0.307-0.315c-1.428-1.62-1.272-4.094,0.349-5.521
						c0.687-0.604,69.241-61.803,98.282-159.025c0.619-2.068,2.798-3.242,4.869-2.626c2.062,0.609,3.245,2.795,2.626,4.869
						c-29.707,99.445-99.904,162.035-100.61,162.659C827.89,1594.529,825.644,1594.481,824.19,1593.161z"/>
				</g>
			</g>
		</g>
		<g>
			<g>
				<path style="fill:#7D97F4;" d="M2661.489,627.877c-2.477-0.058-4.47-2.058-4.515-4.536
					c-0.462-25.396-8.384-151.497-119.436-177.849c-123.636-29.337-180.216,96.394-180.216,96.394s-152.973-58.675-182.311,98.49
					c-95.918,23.02-120.838,148.285-58.452,209.494c9.913,9.725,23.199,15.222,37.085,15.347l600.694,5.411
					c17.63,0.159,33.263-11.38,38.272-28.285C2811.374,779.013,2835.969,631.963,2661.489,627.877z"/>
				<path style="fill:#91B3FA;" d="M2647.76,630.571c-2.472-0.059-4.463-2.053-4.513-4.526
					c-0.492-24.358-8.336-141.287-112.93-165.798c-116.907-27.397-170.406,90.017-170.406,90.017s-144.647-54.793-172.388,91.974
					c-89.827,21.291-113.802,136.239-56.945,193.973c9.968,10.121,23.542,15.876,37.747,16.002l565.473,5.031
					c17.67,0.157,33.327-11.435,38.299-28.391C2789.732,768.711,2810.659,634.47,2647.76,630.571z"/>
			</g>
			<g>
				<path style="fill:#7D97F4;" d="M3135.969,1155.028c-2.532-0.059-4.569-2.104-4.615-4.635
					c-0.472-25.956-8.569-154.836-122.068-181.768c-126.361-29.984-184.187,98.518-184.187,98.518s-156.344-59.968-186.328,100.66
					c-98.031,23.528-123.501,151.552-59.74,214.111c10.131,9.94,23.71,15.558,37.902,15.686l613.932,5.53
					c18.019,0.162,33.996-11.631,39.115-28.908C3289.157,1309.495,3314.294,1159.205,3135.969,1155.028z"/>
				<path style="fill:#91B3FA;" d="M3121.938,1157.782c-2.527-0.061-4.561-2.099-4.612-4.626
					c-0.503-24.895-8.52-144.4-115.418-169.451c-119.483-28-174.162,92-174.162,92s-147.835-56-176.187,94.001
					c-91.806,21.76-116.31,139.241-58.2,198.248c10.187,10.344,24.061,16.226,38.579,16.355l577.934,5.141
					c18.06,0.161,34.062-11.686,39.143-29.017C3267.038,1298.965,3288.427,1161.767,3121.938,1157.782z"/>
			</g>
			<g>
				<path style="fill:#7D97F4;" d="M3118.529,1968.187c-2.655-0.062-4.791-2.206-4.839-4.861
					c-0.495-27.218-8.985-162.365-128.004-190.607c-132.506-31.442-193.144,103.309-193.144,103.309
					s-163.947-62.884-195.389,105.555c-102.799,24.672-129.507,158.922-62.645,224.522c10.624,10.423,24.863,16.314,39.745,16.448
					l643.786,5.799c18.895,0.17,35.649-12.197,41.017-30.314C3279.166,2130.165,3305.525,1972.566,3118.529,1968.187z"/>
				<path style="fill:#91B3FA;" d="M3103.815,1971.074c-2.65-0.063-4.783-2.201-4.837-4.851
					c-0.527-26.106-8.934-151.422-121.031-177.691c-125.293-29.362-182.631,96.474-182.631,96.474s-155.023-58.724-184.754,98.572
					c-96.271,22.818-121.966,146.012-61.03,207.888c10.683,10.847,25.231,17.015,40.455,17.15l606.037,5.392
					c18.938,0.169,35.718-12.255,41.046-30.428C3255.971,2119.123,3278.4,1975.253,3103.815,1971.074z"/>
			</g>
			<g>
				<path style="fill:#FFFFFF;" d="M2507.144,1540.812h-15.409c-5.675,0-10.272-4.598-10.272-10.272s4.598-10.272,10.272-10.272
					h15.409c5.675,0,10.272,4.598,10.272,10.272S2512.819,1540.812,2507.144,1540.812z"/>
				<path style="fill:#FFFFFF;" d="M2918.898,1540.812h-16.275c-5.675,0-10.272-4.598-10.272-10.272s4.598-10.272,10.272-10.272
					h16.275c2.501,0,4.859-0.809,6.825-2.337c4.478-3.488,10.925-2.685,14.416,1.796c3.484,4.474,2.682,10.931-1.796,14.416
					C2932.739,1538.505,2926.014,1540.812,2918.898,1540.812z M2872.204,1540.812h-30.423c-5.675,0-10.273-4.598-10.273-10.272
					s4.598-10.272,10.273-10.272h30.423c5.675,0,10.272,4.598,10.272,10.272S2877.879,1540.812,2872.204,1540.812z
					 M2811.359,1540.812h-30.419c-5.675,0-10.272-4.598-10.272-10.272s4.598-10.272,10.272-10.272h30.419
					c5.675,0,10.272,4.598,10.272,10.272S2817.033,1540.812,2811.359,1540.812z M2750.516,1540.812h-30.419
					c-5.675,0-10.272-4.598-10.272-10.272s4.598-10.272,10.272-10.272h30.419c5.675,0,10.272,4.598,10.272,10.272
					S2756.191,1540.812,2750.516,1540.812z M2689.674,1540.812h-30.423c-5.675,0-10.272-4.598-10.272-10.272
					s4.598-10.272,10.272-10.272h30.423c5.675,0,10.272,4.598,10.272,10.272S2695.349,1540.812,2689.674,1540.812z
					 M2628.832,1540.812h-30.423c-5.675,0-10.272-4.598-10.272-10.272s4.598-10.272,10.272-10.272h30.423
					c5.675,0,10.272,4.598,10.272,10.272S2634.507,1540.812,2628.832,1540.812z M2567.99,1540.812h-30.423
					c-5.675,0-10.272-4.598-10.272-10.272s4.598-10.272,10.272-10.272h30.423c5.675,0,10.272,4.598,10.272,10.272
					S2573.664,1540.812,2567.99,1540.812z M2940.299,1508.474c-5.675,0-10.272-4.598-10.272-10.272v-30.423
					c0-5.675,4.598-10.272,10.272-10.272s10.272,4.598,10.272,10.272v30.423C2950.572,1503.876,2945.974,1508.474,2940.299,1508.474
					z M2940.299,1447.631c-5.675,0-10.272-4.598-10.272-10.272v-30.423c0-5.675,4.598-10.272,10.272-10.272
					s10.272,4.598,10.272,10.272v30.423C2950.572,1443.033,2945.974,1447.631,2940.299,1447.631z"/>
				<path style="fill:#FFFFFF;" d="M2940.299,1386.726c-5.675,0-10.272-4.598-10.272-10.272v-15.409
					c0-5.675,4.598-10.273,10.272-10.273s10.272,4.598,10.272,10.273v15.409C2950.572,1382.128,2945.974,1386.726,2940.299,1386.726
					z"/>
			</g>
			<g>
				<path style="fill:#FFFFFF;" d="M2027.763,964.699h-15.409c-5.675,0-10.272-4.598-10.272-10.273
					c0-5.674,4.598-10.272,10.272-10.272h15.409c5.675,0,10.272,4.598,10.272,10.272
					C2038.036,960.101,2033.438,964.699,2027.763,964.699z"/>
				<path style="fill:#FFFFFF;" d="M2439.517,964.699h-16.275c-5.675,0-10.272-4.598-10.272-10.273
					c0-5.674,4.598-10.272,10.272-10.272h16.275c2.501,0,4.859-0.809,6.825-2.337c4.474-3.491,10.924-2.685,14.416,1.796
					c3.484,4.474,2.682,10.931-1.796,14.416C2453.358,962.392,2446.633,964.699,2439.517,964.699z M2392.823,964.699H2362.4
					c-5.675,0-10.272-4.598-10.272-10.273c0-5.674,4.598-10.272,10.272-10.272h30.423c5.675,0,10.272,4.598,10.272,10.272
					C2403.096,960.101,2398.498,964.699,2392.823,964.699z M2331.978,964.699h-30.419c-5.675,0-10.272-4.598-10.272-10.273
					c0-5.674,4.598-10.272,10.272-10.272h30.419c5.675,0,10.272,4.598,10.272,10.272
					C2342.25,960.101,2337.652,964.699,2331.978,964.699z M2271.135,964.699h-30.419c-5.675,0-10.272-4.598-10.272-10.273
					c0-5.674,4.598-10.272,10.272-10.272h30.419c5.675,0,10.272,4.598,10.272,10.272
					C2281.408,960.101,2276.81,964.699,2271.135,964.699z M2210.293,964.699h-30.423c-5.675,0-10.273-4.598-10.273-10.273
					c0-5.674,4.598-10.272,10.273-10.272h30.423c5.675,0,10.272,4.598,10.272,10.272
					C2220.566,960.101,2215.968,964.699,2210.293,964.699z M2149.451,964.699h-30.423c-5.675,0-10.272-4.598-10.272-10.273
					c0-5.674,4.598-10.272,10.272-10.272h30.423c5.675,0,10.272,4.598,10.272,10.272
					C2159.723,960.101,2155.125,964.699,2149.451,964.699z M2088.609,964.699h-30.423c-5.675,0-10.272-4.598-10.272-10.273
					c0-5.674,4.598-10.272,10.272-10.272h30.423c5.675,0,10.272,4.598,10.272,10.272
					C2098.881,960.101,2094.283,964.699,2088.609,964.699z M2460.918,932.36c-5.675,0-10.272-4.598-10.272-10.272v-30.423
					c0-5.675,4.598-10.273,10.272-10.273c5.675,0,10.272,4.598,10.272,10.273v30.423
					C2471.191,927.762,2466.593,932.36,2460.918,932.36z M2460.918,871.518c-5.675,0-10.272-4.598-10.272-10.273v-30.423
					c0-5.675,4.598-10.272,10.272-10.272c5.675,0,10.272,4.598,10.272,10.272v30.423
					C2471.191,866.92,2466.593,871.518,2460.918,871.518z"/>
				<path style="fill:#FFFFFF;" d="M2460.918,810.612c-5.675,0-10.272-4.598-10.272-10.272v-15.409
					c0-5.675,4.598-10.272,10.272-10.272c5.675,0,10.272,4.598,10.272,10.272v15.409
					C2471.191,806.015,2466.593,810.612,2460.918,810.612z"/>
			</g>
			<g>
				<path style="fill:#FFFFFF;" d="M2510.568,1716.3h-15.408c-5.675,0-10.273-4.598-10.273-10.272s4.598-10.272,10.273-10.272
					h15.408c5.675,0,10.272,4.598,10.272,10.272S2516.243,1716.3,2510.568,1716.3z"/>
				<path style="fill:#FFFFFF;" d="M2943.723,1839.904c-5.675,0-10.272-4.598-10.272-10.272v-30.419
					c0-5.675,4.598-10.273,10.272-10.273s10.272,4.598,10.272,10.273v30.419C2953.996,1835.306,2949.398,1839.904,2943.723,1839.904
					z M2943.723,1779.062c-5.675,0-10.272-4.598-10.272-10.272v-30.419c0-5.675,4.598-10.272,10.272-10.272
					s10.272,4.598,10.272,10.272v30.419C2953.996,1774.464,2949.398,1779.062,2943.723,1779.062z M2935.451,1720.801
					c-2.204,0-4.424-0.705-6.3-2.163c-1.966-1.528-4.327-2.337-6.828-2.337h-16.275c-5.674,0-10.272-4.598-10.272-10.272
					s4.598-10.272,10.272-10.272h16.275c7.113,0,13.834,2.304,19.441,6.664c4.478,3.484,5.287,9.938,1.802,14.416
					C2941.54,1719.44,2938.51,1720.801,2935.451,1720.801z M2875.628,1716.3h-30.423c-5.675,0-10.272-4.598-10.272-10.272
					s4.598-10.272,10.272-10.272h30.423c5.675,0,10.272,4.598,10.272,10.272S2881.303,1716.3,2875.628,1716.3z M2814.783,1716.3
					h-30.419c-5.675,0-10.272-4.598-10.272-10.272s4.598-10.272,10.272-10.272h30.419c5.675,0,10.272,4.598,10.272,10.272
					S2820.458,1716.3,2814.783,1716.3z M2753.941,1716.3h-30.419c-5.675,0-10.272-4.598-10.272-10.272s4.598-10.272,10.272-10.272
					h30.419c5.675,0,10.272,4.598,10.272,10.272S2759.615,1716.3,2753.941,1716.3z M2693.098,1716.3h-30.423
					c-5.675,0-10.272-4.598-10.272-10.272s4.598-10.272,10.272-10.272h30.423c5.675,0,10.272,4.598,10.272,10.272
					S2698.773,1716.3,2693.098,1716.3z M2632.256,1716.3h-30.423c-5.675,0-10.272-4.598-10.272-10.272s4.598-10.272,10.272-10.272
					h30.423c5.675,0,10.272,4.598,10.272,10.272S2637.931,1716.3,2632.256,1716.3z M2571.414,1716.3h-30.423
					c-5.675,0-10.272-4.598-10.272-10.272s4.598-10.272,10.272-10.272h30.423c5.675,0,10.272,4.598,10.272,10.272
					S2577.089,1716.3,2571.414,1716.3z"/>
				<path style="fill:#FFFFFF;" d="M2943.723,1885.796c-5.675,0-10.272-4.598-10.272-10.273v-15.409
					c0-5.675,4.598-10.272,10.272-10.272s10.272,4.598,10.272,10.272v15.409C2953.996,1881.198,2949.398,1885.796,2943.723,1885.796
					z"/>
			</g>
			<g>
				<path style="fill:#7D97F4;" d="M2190.413,1263.209c-7.098-0.166-12.809-5.898-12.938-12.996
					c-1.324-72.769-24.022-434.091-342.225-509.597c-354.26-84.061-516.379,276.202-516.379,276.202
					s-438.321-168.123-522.383,282.207c-274.837,65.961-346.242,424.886-167.484,600.271
					c28.403,27.867,66.472,43.617,106.261,43.975l1721.192,15.505c50.517,0.455,95.311-32.608,109.662-81.046
					C2619.886,1696.265,2690.357,1274.917,2190.413,1263.209z"/>
				<path style="fill:#91B3FA;" d="M2151.075,1270.929c-7.084-0.17-12.788-5.884-12.931-12.969
					c-1.41-69.795-23.885-404.834-323.582-475.066c-334.977-78.5-488.272,257.929-488.272,257.929s-414.463-157-493.949,263.536
					c-257.384,61.006-326.082,390.371-163.166,555.799c28.561,29.001,67.456,45.49,108.158,45.851l1620.27,14.415
					c50.63,0.451,95.493-32.764,109.74-81.35C2557.873,1666.745,2617.837,1282.1,2151.075,1270.929z"/>
			</g>
			<g>
				<g>
					<g>
						<polygon style="fill:#FFFFFF;" points="1458.305,1184.002 1418.677,1252.667 1351.041,1216.671 1362.925,1261.079 
							1430.552,1297.044 1470.189,1228.41 						"/>
					</g>
					<path style="fill:#FFFFFF;" d="M1912.011,1078.153l-52.06-20.957c-14.911-19.471-33.288-36.602-54.758-50.557
						c-106.442-69.157-254.115-37.046-329.2,71.565c-31.188,45.091-45.979,97.202-42.87,149.416
						c0.58,10.163,1.861,20.343,3.825,30.471c1.691,8.677-4.133,17.387-13.014,19.471c-8.865,2.084-17.422-3.262-19.113-11.939
						c-1.418-7.361-2.528-14.723-3.33-22.101c-6.832-63.623,9.787-127.724,47.79-182.687
						c85.468-123.642,253.586-160.193,374.752-81.471c15.03,9.77,28.711,20.906,40.992,33.186
						C1884.342,1031.883,1900.124,1054.053,1912.011,1078.153z"/>
				</g>
				<g>
					<g>
						<polygon style="fill:#FFFFFF;" points="1887.498,1248.501 1927.126,1179.837 1994.762,1215.833 1982.878,1171.424 
							1915.251,1135.459 1875.614,1204.093 						"/>
					</g>
					<path style="fill:#FFFFFF;" d="M1896.537,1371.672c-85.485,123.642-253.603,160.176-374.768,81.454
						c-15.031-9.753-28.712-20.889-40.992-33.169c-18.839-18.873-34.331-40.445-46.116-63.879l55.1,24.168
						c14.176,17.439,31.222,32.862,50.864,45.62c106.425,69.157,254.099,37.046,329.182-71.565
						c31.188-45.091,45.979-97.202,42.871-149.433c-0.581-10.163-1.862-20.325-3.826-30.454c-1.69-8.677,4.133-17.387,13.015-19.471
						c8.864-2.084,17.421,3.262,19.112,11.939c1.418,7.361,2.528,14.723,3.331,22.102
						C1951.142,1252.608,1934.523,1316.709,1896.537,1371.672z"/>
				</g>
			</g>
		</g>
		<g>
			<g>
				
					<linearGradient id="SVGID_00000054252391280464386570000005262811155265588630_" gradientUnits="userSpaceOnUse" x1="-2138.3562" y1="3997.4153" x2="-2152.6694" y2="4698.7891" gradientTransform="matrix(-0.9574 -0.289 -0.289 0.9574 2116.7749 -2464.4858)">
					<stop  offset="0" style="stop-color:#4F52FF"/>
					<stop  offset="1" style="stop-color:#4042E2"/>
				</linearGradient>
				<path style="fill:url(#SVGID_00000054252391280464386570000005262811155265588630_);" d="M2952.432,2005.854
					c8.143-9.599,18.658-14.446,28.436-13.141c9.777,1.305,17.722,8.619,21.5,19.804
					c138.582,410.312-108.904,732.461-206.929,839.152c-8.755,9.529-19.831,13.713-29.729,11.244
					c-9.898-2.47-17.407-11.292-20.159-23.692C2650.948,2413.022,2866.086,2107.643,2952.432,2005.854z"/>
				<g>
					<path style="fill:#91B3FA;" d="M2983.196,2046.703c-4.556,33.354-9.76,66.539-15.448,99.671
						c-5.552,33.15-11.63,66.208-18.018,99.208c-12.826,65.993-27.566,131.604-43.6,196.916l-12.497,48.871
						c-4.26,16.267-8.956,32.42-13.413,48.638l-6.795,24.299l-7.36,24.138l-7.363,24.141c-2.512,8.029-4.762,16.141-7.548,24.085
						l-16.073,47.873l-4.019,11.971l-4.404,11.838l-8.785,23.688l-8.767,23.699l-2.193,5.926l-2.396,5.848l-4.83,11.683
						l-19.331,46.745c-1.471,3.558-5.548,5.25-9.106,3.778c-3.558-1.471-5.25-5.548-3.778-9.106c0.02-0.05,0.042-0.101,0.064-0.15
						l0.1-0.225c27.281-61.062,51.767-123.458,73.138-186.992c2.875-7.871,5.217-15.922,7.821-23.886l7.638-23.95l7.64-23.954
						l7.078-24.13c4.648-16.107,9.534-32.15,13.988-48.316l13.083-48.581c16.929-64.918,31.879-130.363,45.308-196.119
						c13.329-65.761,25.264-131.89,34.569-198.295l0.006-0.042c0.205-1.461,1.555-2.479,3.015-2.275
						C2982.381,2043.901,2983.4,2045.242,2983.196,2046.703z"/>
					<path style="fill:#91B3FA;" d="M2950.459,2247.439c-0.923,0.938-2.394,1.168-3.58,0.468
						c-32.94-19.392-60.266-100.104-61.414-103.529c-0.518-1.538,0.313-3.201,1.85-3.717c1.538-0.514,3.201,0.313,3.717,1.849
						c0.275,0.821,27.771,82.055,58.824,100.34c1.398,0.819,1.863,2.619,1.04,4.017
						C2950.772,2247.079,2950.624,2247.271,2950.459,2247.439z"/>
					<path style="fill:#91B3FA;" d="M3015.657,2199.991c-27.512,27.983-64.168,47.078-65.944,47.997
						c-1.441,0.742-3.209,0.177-3.956-1.264c-0.746-1.441-0.189-3.205,1.264-3.956c0.486-0.253,49.323-25.711,75.817-59.802
						c1.012-1.336,2.841-1.512,4.119-0.517c1.282,0.995,1.512,2.837,0.518,4.119
						C3023.856,2191.227,3019.862,2195.715,3015.657,2199.991z"/>
					<path style="fill:#91B3FA;" d="M2908.964,2424.926c-1.063,1.082-2.798,1.181-3.98,0.188
						c-46.957-39.417-66.358-113.057-67.161-116.174c-0.406-1.57,0.539-3.173,2.11-3.573c1.568-0.405,3.169,0.539,3.576,2.108
						c0.191,0.746,19.754,74.953,65.252,113.144c1.239,1.042,1.401,2.893,0.36,4.136
						C2909.07,2424.814,2909.018,2424.871,2908.964,2424.926z"/>
					<path style="fill:#91B3FA;" d="M3005.386,2371.983c-47.325,48.135-94.748,54.662-96.91,54.936
						c-1.608,0.204-3.075-0.933-3.279-2.541c-0.206-1.61,0.939-3.081,2.536-3.283c0.555-0.074,55.916-7.764,105.391-66.317
						c1.038-1.211,2.901-1.397,4.137-0.347c1.239,1.046,1.395,2.899,0.347,4.137
						C3013.557,2363.362,3009.468,2367.832,3005.386,2371.983z"/>
					<path style="fill:#91B3FA;" d="M2954.675,2589.561l-0.002,0.002c-49.09,49.881-115.788,74.21-116.458,74.451
						c-1.524,0.548-3.205-0.245-3.751-1.77c-0.55-1.526,0.249-3.209,1.766-3.755c0.657-0.235,66.134-24.143,114.259-73.044
						c1.137-1.157,2.997-1.171,4.153-0.033C2955.796,2586.547,2955.81,2588.406,2954.675,2589.561z"/>
					<path style="fill:#91B3FA;" d="M2839.317,2663.309c-0.014,0.014-0.028,0.029-0.044,0.045c-1.16,1.131-3.019,1.108-4.152-0.054
						c-0.497-0.509-49.88-51.843-66.553-128.662c-0.346-1.583,0.66-3.15,2.245-3.49c1.584-0.344,3.146,0.66,3.49,2.245
						c16.307,75.114,64.538,125.31,65.025,125.809C2840.443,2660.348,2840.434,2662.173,2839.317,2663.309z"/>
				</g>
			</g>
			<g>
				
					<linearGradient id="SVGID_00000029007397532105634590000008268047104276117933_" gradientUnits="userSpaceOnUse" x1="222.1518" y1="3532.1897" x2="594.9089" y2="3608.2239" gradientTransform="matrix(-0.8218 -0.5698 -0.5698 0.8218 5335.5327 50.8694)">
					<stop  offset="0" style="stop-color:#4F52FF"/>
					<stop  offset="1" style="stop-color:#4042E2"/>
				</linearGradient>
				<path style="fill:url(#SVGID_00000029007397532105634590000008268047104276117933_);" d="M3219.297,2257.552
					c13.88-8.592,28.792-10.372,40.335-4.857c11.543,5.515,18.426,17.713,18.619,33.023
					c7.108,561.635-426.937,860.283-590.504,952.776c-14.609,8.26-29.946,9-41.173,1.999c-11.228-7.001-16.969-20.886-15.412-37.285
					C2684.667,2639.536,3072.1,2348.661,3219.297,2257.552z"/>
				<g>
					<path style="fill:#91B3FA;" d="M3240.249,2319.872c-9.441,19.688-19.126,39.196-28.968,58.647l-14.829,29.134l-15.1,28.992
						c-20.115,38.666-40.843,77.01-61.93,115.156c-42.241,76.259-86.651,151.305-132.604,225.415l-34.993,55.26
						c-11.771,18.352-24.034,36.39-36.028,54.602l-18.114,27.24l-18.747,26.815l-18.75,26.817
						c-6.315,8.893-12.34,17.994-18.957,26.673l-38.995,52.585l-9.75,13.148l-10.17,12.832l-20.323,25.68l-20.311,25.698
						l-5.078,6.426l-5.299,6.246l-10.637,12.462l-42.564,49.861c-2.682,3.142-7.403,3.515-10.545,0.833
						c-3.142-2.682-3.514-7.403-0.833-10.544c0.033-0.04,0.067-0.077,0.1-0.115l0.177-0.198
						c58-64.582,113.065-131.904,164.763-201.839c6.683-8.575,12.782-17.583,19.169-26.379l18.969-26.532l18.97-26.535
						l18.348-26.974c12.152-18.037,24.573-35.898,36.508-54.084l35.496-54.77c46.737-73.413,91.306-148.219,134.085-224.038
						c42.66-75.865,83.753-152.719,121.761-230.968l0.018-0.037c0.691-1.424,2.406-2.018,3.83-1.326
						C3240.341,2316.747,3240.94,2318.449,3240.249,2319.872z"/>
					<path style="fill:#91B3FA;" d="M3118.888,2554.484c-1.006,0.136-2.056-0.215-2.781-1.03
						c-32.74-36.902-34.215-147.17-34.26-151.847c-0.015-1.739,1.388-3.142,3.117-3.18c1.739-0.018,3.163,1.378,3.18,3.117
						c0.012,1.122,1.493,112.583,32.674,147.729c1.154,1.303,1.035,3.293-0.265,4.446
						C3120.069,2554.151,3119.486,2554.403,3118.888,2554.484z"/>
					<path style="fill:#91B3FA;" d="M3118.882,2554.485c-1.679,0.227-3.247-0.924-3.528-2.608c-0.281-1.715,0.881-3.338,2.595-3.622
						c0.708-0.114,71.256-12.033,117.698-43.611c1.449-0.984,3.398-0.599,4.374,0.833c0.98,1.438,0.605,3.397-0.833,4.374
						c-47.604,32.368-119.492,44.502-120.212,44.621C3118.946,2554.476,3118.913,2554.481,3118.882,2554.485z"/>
					<path style="fill:#91B3FA;" d="M2996.791,2756.912c-1.188,0.161-2.417-0.365-3.095-1.45
						c-42.082-67.21-36.429-168.764-36.368-169.784c0.107-1.734,1.593-3.046,3.334-2.952c1.737,0.106,3.059,1.601,2.955,3.334
						c-0.061,0.998-5.583,100.579,35.418,166.06c0.922,1.474,0.474,3.418-0.999,4.34
						C2997.645,2756.707,2997.221,2756.854,2996.791,2756.912z"/>
					<path style="fill:#91B3FA;" d="M3049.512,2758.352c-1.597,0.216-3.145,0.407-4.652,0.579c-29.099,3.334-47.253,0-48.01-0.143
						c-1.71-0.324-2.833-1.97-2.509-3.68c0.319-1.707,1.968-2.823,3.677-2.511c0.714,0.136,72.347,12.782,156.998-39.823
						c1.471-0.922,3.416-0.468,4.336,1.012c0.92,1.477,0.465,3.419-1.012,4.336
						C3115.551,2744.718,3076.272,2754.735,3049.512,2758.352z"/>
					<path style="fill:#91B3FA;" d="M2848.57,3020.064c-20.098,2.717-32.917,3.186-33.257,3.198
						c-1.737,0.055-3.191-1.31-3.249-3.049c-0.052-1.737,1.328-3.171,3.05-3.249c0.902-0.032,91.388-3.382,170.439-44.563
						c1.536-0.81,3.445-0.208,4.247,1.338c0.804,1.542,0.205,3.445-1.338,4.247
						C2937.871,3004.344,2882.716,3015.448,2848.57,3020.064z"/>
					<path style="fill:#91B3FA;" d="M2815.634,3023.234c-1.302,0.176-2.628-0.48-3.243-1.725
						c-0.409-0.823-40.76-83.717-30.669-184.979c0.175-1.734,1.733-2.994,3.445-2.821c1.73,0.173,2.994,1.715,2.821,3.446
						c-9.912,99.482,29.645,180.751,30.046,181.563c0.772,1.556,0.134,3.446-1.425,4.218
						C2816.295,3023.092,2815.963,3023.189,2815.634,3023.234z"/>
				</g>
			</g>
		</g>
		<g>
			<g>
				
					<linearGradient id="SVGID_00000129920575062278272130000005337135350131560633_" gradientUnits="userSpaceOnUse" x1="1494.855" y1="3233.2458" x2="1469.6609" y2="2734.4077">
					<stop  offset="0" style="stop-color:#2B3582"/>
					<stop  offset="1" style="stop-color:#150E42"/>
				</linearGradient>
				<polygon style="fill:url(#SVGID_00000129920575062278272130000005337135350131560633_);" points="1284.316,2666.933 
					1242.472,3042.214 1727.942,3042.214 1664.709,2666.933 				"/>
				
					<linearGradient id="SVGID_00000169536583205245556170000006284453482561501370_" gradientUnits="userSpaceOnUse" x1="1417.7948" y1="2833.2385" x2="1468.2902" y2="791.7502">
					<stop  offset="0" style="stop-color:#2B3582"/>
					<stop  offset="1" style="stop-color:#150E42"/>
				</linearGradient>
				<path style="fill:url(#SVGID_00000169536583205245556170000006284453482561501370_);" d="M439.557,1715.499v884.424
					c0,72.756,57.978,132.252,130.709,134.128c323.035,8.33,1452.855,28.528,1760.363,23.995
					c52.852-0.779,95.668-43.073,97.193-95.91c5.93-205.464,15.56-699.536-20.079-928.914
					c-7.505-48.305-48.279-84.426-97.138-85.989c-270.663-8.659-1468.346-36.153-1775.71-29.25
					C481.886,1619.175,439.557,1662.476,439.557,1715.499z"/>
				
					<linearGradient id="SVGID_00000089543205446477472380000002963935931371870107_" gradientUnits="userSpaceOnUse" x1="1403.0804" y1="1528.993" x2="1451.0184" y2="2607.6013">
					<stop  offset="0" style="stop-color:#FE7062"/>
					<stop  offset="1" style="stop-color:#FF928E"/>
				</linearGradient>
				<path style="fill:url(#SVGID_00000089543205446477472380000002963935931371870107_);" d="M495.053,1711.194v840.264
					c0,42.479,34.099,77.092,76.573,77.727l1714.764,21.185c42.11,0.629,76.627-33.25,76.784-75.364l2.868-832.757
					c0.113-30.113-23.878-54.786-53.982-55.519l-1755.6-35.467C522.79,1650.444,495.053,1677.514,495.053,1711.194z"/>
				<path style="opacity:0.65;fill:#FFFFFF;" d="M2376.084,2685.185c-0.017,0-0.032,0-0.048,0l-1881.029-32.049
					c-1.521-0.028-2.735-1.282-2.709-2.803c0.025-1.521,1.266-2.721,2.802-2.71l1881.029,32.049
					c1.521,0.027,2.735,1.282,2.708,2.803C2378.813,2683.98,2377.583,2685.185,2376.084,2685.185z"/>
				
					<linearGradient id="SVGID_00000008125882057646538870000007474167211839636125_" gradientUnits="userSpaceOnUse" x1="1487.3098" y1="2932.8271" x2="1537.8068" y2="2117.6702">
					<stop  offset="0" style="stop-color:#2B3582"/>
					<stop  offset="1" style="stop-color:#150E42"/>
				</linearGradient>
				<path style="fill:url(#SVGID_00000008125882057646538870000007474167211839636125_);" d="M1832.512,3118.996h-710.518
					c-19.302,0-33.798-13.741-30.066-28.502l9.117-36.057c2.741-10.843,14.671-18.804,28.84-19.246l684.965-21.374
					c14.803-0.462,27.91,7.396,31.135,18.666l16.436,57.43C1866.691,3104.833,1852.126,3118.996,1832.512,3118.996z"/>
			</g>
			<g>
				
					<linearGradient id="SVGID_00000106831007010878493000000009198418912228424359_" gradientUnits="userSpaceOnUse" x1="1487.2609" y1="1252.0212" x2="1377.4023" y2="2174.8296">
					<stop  offset="0" style="stop-color:#E1473D"/>
					<stop  offset="1" style="stop-color:#E9605A"/>
				</linearGradient>
				<path style="fill:url(#SVGID_00000106831007010878493000000009198418912228424359_);" d="M2365.93,1775.369l0.112-32.821
					c0.113-30.113-23.878-54.935-53.981-55.668l-1757.11-35.542c-33.67-0.82-62.917,26.176-62.917,59.855v64.175H2365.93z"/>
				<circle style="opacity:0.35;fill:#FFFFFF;" cx="582.798" cy="1716.321" r="29.216"/>
				<circle style="opacity:0.35;fill:#FFFFFF;" cx="760.522" cy="1716.319" r="29.216"/>
				<circle style="opacity:0.35;fill:#FFFFFF;" cx="670.444" cy="1716.321" r="29.216"/>
				<path style="opacity:0.57;fill:#FFFFFF;" d="M1652.728,2184.313H545.439c-4.326,0-7.832-3.507-7.832-7.832v-342.307
					c0-4.326,3.507-7.832,7.832-7.832h1107.289c4.326,0,7.832,3.507,7.832,7.832v342.307
					C1660.56,2180.806,1657.054,2184.313,1652.728,2184.313z"/>
				<path style="opacity:0.57;fill:#FFFFFF;" d="M2313.224,2064.174h-601.657c-5.153,0-9.33-4.177-9.33-9.33v-220.378
					c0-5.153,4.177-9.33,9.33-9.33h601.657c5.153,0,9.33,4.177,9.33,9.33v220.378
					C2322.554,2059.997,2318.377,2064.174,2313.224,2064.174z"/>
				<path style="opacity:0.57;fill:#FFFFFF;" d="M2315.511,2327.76h-601.326c-5.244,0-9.495-4.251-9.495-9.496v-220.048
					c0-5.244,4.251-9.495,9.495-9.495h601.326c5.244,0,9.495,4.251,9.495,9.495v220.048
					C2325.006,2323.509,2320.755,2327.76,2315.511,2327.76z"/>
				<path style="opacity:0.32;fill:#FFFFFF;" d="M2316.131,2591.346h-597.662c-6.256,0-11.327-5.072-11.327-11.327v-216.384
					c0-6.256,5.071-11.327,11.327-11.327h597.662c6.256,0,11.327,5.072,11.327,11.327v216.384
					C2327.458,2586.274,2322.387,2591.346,2316.131,2591.346z"/>
				<path style="opacity:0.57;fill:#FFFFFF;" d="M1649.109,2585.186H544.155c-4.971,0-9-4.029-9-9v-339.972c0-4.97,4.029-9,9-9
					h1104.954c4.971,0,9,4.03,9,9v339.972C1658.109,2581.156,1654.079,2585.186,1649.109,2585.186z"/>
			</g>
		</g>
		<g>
			
				<linearGradient id="SVGID_00000168116413446073399180000011059788186586355388_" gradientUnits="userSpaceOnUse" x1="2094.0127" y1="1706.598" x2="2122.9773" y2="2387.2754">
				<stop  offset="0" style="stop-color:#2B3582"/>
				<stop  offset="1" style="stop-color:#150E42"/>
			</linearGradient>
			<path style="fill:url(#SVGID_00000168116413446073399180000011059788186586355388_);" d="M1397.791,3176.328
				c0,14.414,11.805,26.208,26.233,26.208h1418.573c14.428,0,26.233-11.793,26.233-26.208l11.804-815.215
				c0-14.414-16.982-42.554-48.106-40.44l-1386.386-35.873c-18.103-0.469-35.607,6.499-48.426,19.277
				c-12.819,12.778-19.834,30.248-19.406,48.335L1397.791,3176.328z"/>
			
				<linearGradient id="SVGID_00000134943784846926778940000016585493192512383898_" gradientUnits="userSpaceOnUse" x1="2118.4094" y1="3140.1096" x2="2111.1479" y2="1825.5831">
				<stop  offset="0" style="stop-color:#2B3582"/>
				<stop  offset="1" style="stop-color:#150E42"/>
			</linearGradient>
			<path style="fill:url(#SVGID_00000134943784846926778940000016585493192512383898_);" d="M1288.364,3270.209h1661.134
				c3.11,0,5.654-2.544,5.654-5.654v-60.32c0-3.11-2.544-5.654-5.654-5.654H1288.363c-3.109,0-5.654,2.544-5.654,5.654v60.32
				C1282.71,3267.665,1285.254,3270.209,1288.364,3270.209z"/>
			
				<linearGradient id="SVGID_00000145739801599512250000000002894569502534316471_" gradientUnits="userSpaceOnUse" x1="2094.7986" y1="3152.7866" x2="2170.1294" y2="1896.1224">
				<stop  offset="0" style="stop-color:#FE7062"/>
				<stop  offset="1" style="stop-color:#FF928E"/>
			</linearGradient>
			<path style="fill:url(#SVGID_00000145739801599512250000000002894569502534316471_);" d="M1423.689,3151.185
				c0,13.65,11.168,24.818,24.818,24.818h1359.879c13.65,0,24.818-11.168,24.818-24.818l11.139-740.059
				c-1.312-44.535-40.357-60.541-64.025-59.596l-1328.725-35.647c-12.718-0.341-25.015,4.559-34.023,13.544
				c-9.008,8.985-13.962,21.281-13.643,34L1423.689,3151.185z"/>
			<g>
				<path style="opacity:0.57;fill:#FFFFFF;" d="M2290.892,2814.801h-813.4c-4.326,0-7.832-3.507-7.832-7.833v-264.007
					c0-4.326,3.507-7.833,7.832-7.833h813.4c4.326,0,7.833,3.507,7.833,7.833v264.007
					C2298.725,2811.294,2295.218,2814.801,2290.892,2814.801z"/>
				<path style="opacity:0.57;fill:#FFFFFF;" d="M2778.138,2720.94h-439.313c-5.153,0-9.33-4.177-9.33-9.33v-168.093
					c0-5.153,4.177-9.33,9.33-9.33h439.313c5.153,0,9.33,4.177,9.33,9.33v168.093
					C2787.468,2716.763,2783.291,2720.94,2778.138,2720.94z"/>
				<path style="opacity:0.57;fill:#FFFFFF;" d="M2779.783,2926.871H2340.8c-5.244,0-9.495-4.251-9.495-9.496v-167.762
					c0-5.244,4.251-9.496,9.495-9.496h438.983c5.244,0,9.495,4.251,9.495,9.496v167.762
					C2789.278,2922.62,2785.027,2926.871,2779.783,2926.871z"/>
				<path style="opacity:0.57;fill:#FFFFFF;" d="M2779.761,3132.802h-435.319c-6.256,0-11.327-5.072-11.327-11.327v-164.098
					c0-6.256,5.071-11.327,11.327-11.327h435.319c6.256,0,11.327,5.071,11.327,11.327v164.098
					C2791.088,3127.73,2786.017,3132.802,2779.761,3132.802z"/>
				<path style="opacity:0.57;fill:#FFFFFF;" d="M2287.915,3127.99h-811.065c-4.971,0-9-4.029-9-9v-261.672c0-4.97,4.029-9,9-9
					h811.065c4.97,0,9,4.03,9,9v261.672C2296.915,3123.96,2292.885,3127.99,2287.915,3127.99z"/>
				
					<linearGradient id="SVGID_00000162333133611037783030000013668452889873653691_" gradientUnits="userSpaceOnUse" x1="2131.7195" y1="1990.6947" x2="2115.3469" y2="2849.085">
					<stop  offset="0" style="stop-color:#E1473D"/>
					<stop  offset="1" style="stop-color:#E9605A"/>
				</linearGradient>
				<path style="fill:url(#SVGID_00000162333133611037783030000013668452889873653691_);" d="M2843.336,2470.471l1.008-63.759
					c-1.313-42.514-40.357-57.748-64.026-56.846l-1328.724-34.008c-12.718-0.326-25.015,4.364-34.023,12.941
					c-9.008,8.579-13.962,20.231-13.643,32.372l2.875,109.301H2843.336z"/>
				<circle style="opacity:0.35;fill:#FFFFFF;" cx="1473.989" cy="2398.623" r="29.216"/>
				<circle style="opacity:0.35;fill:#FFFFFF;" cx="1651.712" cy="2398.621" r="29.216"/>
				<circle style="opacity:0.35;fill:#FFFFFF;" cx="1561.634" cy="2398.623" r="29.216"/>
			</g>
		</g>
	</g>
</g>
</svg>
