<?xml version="1.0" encoding="utf-8"?>
<!-- Generator: Adobe Illustrator 27.5.0, SVG Export Plug-In . SVG Version: 6.00 Build 0)  -->
<svg version="1.1" xmlns="http://www.w3.org/2000/svg" xmlns:xlink="http://www.w3.org/1999/xlink" x="0px" y="0px"
	 viewBox="0 0 3710 3710" style="enable-background:new 0 0 3710 3710;" xml:space="preserve">
<g id="Background">
	<g>
		<g>
			<rect style="fill:#FFFFFF;" width="3710" height="3710"/>
		</g>
	</g>
</g>
<g id="Illustration">
	<g id="Transportation_surtax">
		<path style="fill:#F4F7FA;" d="M2574.367,620.856c93.065,133.228-16.056,349.223,122.036,449.421
			c134.423,97.536,299.557-62.338,426.242,21.62c187.93,124.547,153.61,694.451-121.153,1048.543
			c-82.63,106.488-151.674,147.92-182.252,268.353c-65.661,258.599,165.106,412.431,121.191,540.33
			c-98.88,287.982-1619.583,529.632-2229.757-335.848c-284.976-404.215-327.615-987.906-72.997-1431.221
			C1097.766,380.989,2365.545,321.917,2574.367,620.856z"/>
		<g>
			<g>
				<g>
					
						<linearGradient id="SVGID_1_" gradientUnits="userSpaceOnUse" x1="-2196.4155" y1="-1062.6603" x2="-1677.3524" y2="2255.645" gradientTransform="matrix(0.8401 -0.5424 0.5424 0.8401 3030.063 682.9471)">
						<stop  offset="0" style="stop-color:#FF9085"/>
						<stop  offset="1" style="stop-color:#FB6FBB"/>
					</linearGradient>
					<path style="fill:url(#SVGID_1_);" d="M856.967,1623.019c165.893,107.837,69.394,176.791,9.848,327.489
						c-12.492,31.616-14.196,59.249-7.793,83.39c30.867,116.385,241.837,155.324,350.699,160.231
						c82.505,3.719,164.119,7.399,208.625-45.698c30.792-36.734,35.425-89.95,42.676-191.142
						c2.297-32.056,2.935-64.195,1.538-96.318c-0.749-17.252-2.052-34.48-3.942-51.644c-0.89-8.077-1.913-16.138-3.064-24.182
						c-0.127-0.894-0.218-1.974-0.308-3.136c-0.033-0.168-0.063-0.319-0.098-0.499c0,0-10.422-53.203-32.565-103.763
						c-26.721-61.018-80.474-104.651-112.178-165.502c-37.112-71.233-34.678-137.686-27.869-189.222
						c35.721-270.37-148.799-778.589-447.32-607.025c-171.323,98.462-18.65,339.775-113.926,504.826
						C630.758,1377.665,691.074,1515.182,856.967,1623.019z"/>
					<path style="opacity:0.25;fill:#FCFDFE;" d="M1074.522,1540.697c0,0.034,0.035,0.068,0.035,0.068
						c6.095,13.343,12.259,26.651,18.658,39.825c78.862,162.572,182.136,308.252,305.599,432.941
						c0.744,0.404,1.657,0.221,2.148-0.388c0.556-0.691,0.448-1.782-0.304-2.394c-227.854-229.272-382.374-526.443-449.334-863.489
						c-0.812-141.655,61.87-267.529,125.434-358.76v-0.034c0.271-0.847-0.068-1.795-0.847-2.303
						c-0.812-0.508-1.829-0.44-2.505,0.169c-0.035,0-0.069,0-0.069,0.034c-61.26,88.217-121.438,208.775-125.094,344.842
						c-23.775-125.265-35.558-255.914-34.542-390.559v-0.034c-0.203-0.914-1.015-1.558-1.964-1.558
						c-1.015-0.034-1.829,0.643-2.032,1.558c-1.625,278.705,52.829,548.232,159.4,787.993
						c-92.653-99.257-220.524-148.191-333.835-171.591c-0.914,0.034-1.728,0.711-1.964,1.625c-0.306,1.118,0.339,2.201,1.422,2.506
						l0.101,0.034C850.847,1385.225,982.107,1436.022,1074.522,1540.697z"/>
				</g>
				<g>
					
						<linearGradient id="SVGID_00000133509564419824442850000005346212975302583464_" gradientUnits="userSpaceOnUse" x1="-4027.2727" y1="-2608.71" x2="-3523.5347" y2="611.6241" gradientTransform="matrix(0.676 -0.7369 0.7369 0.676 5118.1533 580.4587)">
						<stop  offset="0" style="stop-color:#AA80F9"/>
						<stop  offset="0.9964" style="stop-color:#6165D7"/>
					</linearGradient>
					<path style="fill:url(#SVGID_00000133509564419824442850000005346212975302583464_);" d="M802.544,2455.282
						c23.348,7.771,35.841,16.833,56.5,23.678c32.416,10.74,208.151,68.965,304.607-26.084
						c57.971-57.126,68.086-150.68,49.714-219.191c-26.718-99.629-100.295-96.388-166.453-201.513
						c-91.5-145.391,0.17-229.559-89.84-366.292c-55.994-85.06-166.943-167.138-278.641-150.147
						c-15.388,2.341-75.737,18.157-125.811,67.369c-140.933,138.507,67.691,333.485,17.151,517.237
						C521.742,2274.95,614.808,2392.796,802.544,2455.282z"/>
					<path style="opacity:0.25;fill:#FCFDFE;" d="M1020.441,2354.63c23.123,27.08,47.025,53.255,71.61,78.571
						c0.481,0.663,1.422,0.758,1.989,0.266c0.521-0.453,0.605-1.296,0.134-1.881c-127.914-131.37-235.91-286.144-320.267-460.132
						c-35.591-132.614-9.65-265.87,26.956-368.886c-0.033-0.847-0.609-1.592-1.422-1.862c-0.914-0.271-1.829,0.034-2.336,0.779
						c-0.033,0.034-0.068,0.101-0.068,0.135c-35.083,99.392-60.042,226.723-30.24,354.832
						c-56.215-118.594-101.527-245.992-134.815-380.772c-0.475-0.813-1.49-1.219-2.439-0.914c-0.914,0.305-1.455,1.118-1.455,2.032
						c0,0.068,0,0.101,0.033,0.169c67.932,273.219,188.897,523.274,353.647,730.66c-114.124-71.082-249.278-85.271-364.01-79.108
						c-0.779,0.406-1.253,1.253-1.151,2.167c0.101,1.016,0.847,1.761,1.761,1.93c0.033,0,0.033,0,0.033,0
						c117.51-6.231,256.355,8.974,371.595,85.237C999.987,2330.247,1010.111,2342.54,1020.441,2354.63z"/>
				</g>
			</g>
			<g>
				<g>
					<polygon style="fill:#97A6B7;" points="2178.235,1116.032 2178.235,1972.512 2275.406,1946.561 2275.406,1197.363 
						2187.037,1123.403 2179.35,1116.954 					"/>
					<rect x="1908.157" y="1115.188" style="fill:#F4F7FA;" width="270.078" height="857.324"/>
					<rect x="2092.496" y="1209.878" style="fill:#97A6B7;" width="34.296" height="706.333"/>
					<rect x="2019.617" y="1209.878" style="fill:#97A6B7;" width="35.725" height="706.333"/>
					<rect x="1948.168" y="1209.878" style="fill:#97A6B7;" width="35.725" height="706.333"/>
					<rect x="2092.496" y="1209.878" style="opacity:0.5;fill:#97A6B7;" width="11.432" height="706.333"/>
					<rect x="2019.617" y="1209.878" style="opacity:0.5;fill:#97A6B7;" width="11.432" height="706.333"/>
					<rect x="1946.739" y="1209.878" style="opacity:0.5;fill:#97A6B7;" width="11.432" height="706.333"/>
					<path style="opacity:0.1;fill:#97A6B7;" d="M1908.157,1972.46v0.052h270.078l97.171-25.951v-87.139
						c-45.013-97.044-30.194-137.402-39.912-209.392c-9.489-70.275,10.531-440.562-48.457-526.627
						c-2.129-3.148-4.359-5.886-6.702-8.215c-0.329,0.588-0.657,1.177-0.986,1.766c-0.372,0.665-0.743,1.331-1.115,1.996
						c-30.695,54.997-44.756,81.254-51.444,109.175c-6.516,27.204-6.031,55.969-7.088,114.446
						c-1.314,71.913-1.043,134.485-15.776,177.556c-3.086,9.085-6.844,17.275-11.432,24.517
						c-8.903,14.101-20.906,24.568-37.154,30.684c-1.801,0.691-3.644,1.331-5.544,1.894c-6.331,1.894-12.589,4.862-18.748,8.778
						c-3.858,2.431-7.674,5.247-11.432,8.446c-12.618,10.62-24.664,25.208-35.725,42.943c-9.346,14.971-17.991,32.169-25.722,51.081
						c-3.53,8.65-6.874,17.658-10.003,26.999c-0.486,1.433-0.957,2.866-1.429,4.325c-17.491,53.845-27.865,117.696-26.951,182.7
						C1920.189,1930.797,1915.73,1953.574,1908.157,1972.46z"/>
				</g>
				<g>
					
						<linearGradient id="SVGID_00000168836449751620576480000008901457411134169236_" gradientUnits="userSpaceOnUse" x1="3972.4241" y1="1401.2682" x2="4386.8301" y2="1401.2682" gradientTransform="matrix(-1 0 0 1 6601.5044 0)">
						<stop  offset="0.494" style="stop-color:#EBEFF2"/>
						<stop  offset="1" style="stop-color:#FFFFFF"/>
					</linearGradient>
					
						<rect x="2214.674" y="767.872" style="fill:url(#SVGID_00000168836449751620576480000008901457411134169236_);" width="414.406" height="1266.792"/>
					<rect x="2246.112" y="888.154" style="fill:#97A6B7;" width="351.531" height="79.334"/>
					<rect x="2246.112" y="1028.908" style="fill:#97A6B7;" width="351.531" height="79.334"/>
					<rect x="2246.112" y="1169.663" style="fill:#97A6B7;" width="351.531" height="79.334"/>
					<rect x="2246.112" y="1310.417" style="fill:#97A6B7;" width="351.531" height="79.335"/>
					<rect x="2246.112" y="1451.172" style="fill:#97A6B7;" width="351.531" height="79.334"/>
					<rect x="2246.112" y="1591.927" style="fill:#97A6B7;" width="351.531" height="79.335"/>
					<rect x="2246.112" y="1732.681" style="fill:#97A6B7;" width="351.531" height="79.334"/>
					<polygon style="fill:#97A6B7;" points="2629.08,767.872 2629.08,2034.664 2740.541,1996.276 2740.541,888.154 2632.31,771.353 
						2629.538,768.358 					"/>
					<rect x="2706.246" y="1080.092" style="opacity:0.5;fill:#97A6B7;" width="68.591" height="17.914"/>
					<rect x="2706.246" y="1302.74" style="opacity:0.5;fill:#97A6B7;" width="68.591" height="17.914"/>
					<rect x="2706.246" y="1525.388" style="opacity:0.5;fill:#97A6B7;" width="68.591" height="17.914"/>
					<rect x="2706.246" y="1748.036" style="opacity:0.5;fill:#97A6B7;" width="68.591" height="17.914"/>
					<rect x="2246.112" y="888.154" style="opacity:0.5;fill:#97A6B7;" width="351.531" height="15.355"/>
					<rect x="2246.112" y="1028.908" style="opacity:0.5;fill:#97A6B7;" width="351.531" height="15.355"/>
					<rect x="2246.112" y="1169.663" style="opacity:0.5;fill:#97A6B7;" width="351.531" height="15.355"/>
					<rect x="2246.112" y="1310.417" style="opacity:0.5;fill:#97A6B7;" width="351.531" height="15.355"/>
					<rect x="2246.112" y="1451.172" style="opacity:0.5;fill:#97A6B7;" width="351.531" height="15.355"/>
					<rect x="2246.112" y="1591.927" style="opacity:0.5;fill:#97A6B7;" width="351.531" height="15.355"/>
					<rect x="2246.112" y="1732.681" style="opacity:0.5;fill:#97A6B7;" width="351.531" height="15.355"/>
					<path style="opacity:0.1;fill:#97A6B7;" d="M2228.435,2034.664h400.645l111.461-38.388v-245.4
						c-4.387-15.304-9.088-29.84-14.118-43.224c-46.971-125.093-31.681-175.943-41.512-267.485
						c-9.703-90.364,11.46-575.098-52.601-668.815c-0.843-1.228-1.686-2.38-2.558-3.481c-0.072,0.154-0.143,0.333-0.214,0.486
						c-0.157,0.358-0.314,0.691-0.458,1.024c-25.279,56.916-39.554,89.75-47.742,118.772c-1.472,5.195-2.744,10.288-3.83,15.355
						c-4.201,19.271-5.988,38.464-6.916,63.979c-0.6,17.018-0.843,36.852-1.143,61.42c-0.057,4.913-0.129,10.032-0.2,15.355
						c-0.042,3.071-0.085,6.219-0.128,9.417c-0.271,18.733-0.472,36.955-0.757,54.562c-0.343,21.446-0.815,41.996-1.658,61.42
						c-0.229,5.195-0.486,10.313-0.771,15.355c-1.329,23.263-3.358,44.709-6.602,63.979c-4.044,24.21-9.988,44.913-18.848,61.42
						c-3.001,5.63-6.344,10.748-10.074,15.355c-8.359,10.365-18.605,18.093-31.194,22.853
						c-15.891,5.989-31.381,20.294-45.814,41.126c-11.532,16.609-22.378,37.389-32.224,61.42c-2.029,4.964-4.03,10.109-5.973,15.355
						c-7.288,19.654-13.918,41.1-19.734,63.979c-4.973,19.526-9.346,40.102-13.033,61.42c-0.885,5.067-1.715,10.185-2.515,15.355
						c-3.215,20.754-5.773,42.175-7.573,63.979c-1.687,20.192-2.744,40.716-3.073,61.42c-0.086,5.093-0.129,10.211-0.129,15.355
						c0,3.148,0.014,6.295,0.057,9.469c0.228,20.32-1.129,38.362-3.744,54.511
						C2344.755,1940.128,2245.026,1950.16,2228.435,2034.664z"/>
				</g>
				<g>
					<rect x="2886.384" y="1078.344" style="opacity:0.5;fill:#97A6B7;" width="70.02" height="17.914"/>
					<rect x="2886.384" y="1300.993" style="opacity:0.5;fill:#97A6B7;" width="70.02" height="17.914"/>
					<rect x="2886.384" y="1523.641" style="opacity:0.5;fill:#97A6B7;" width="70.02" height="17.914"/>
					<g>
						<polygon style="fill:#97A6B7;" points="3027.768,957.251 3027.768,2034.664 3139.229,2002.009 3139.229,1059.541 						"/>
						<rect x="2679.095" y="959.81" style="fill:#F4F7FA;" width="348.673" height="1074.854"/>
						<g>
							<rect x="2896.301" y="1087.769" style="fill:#97A6B7;" width="68.591" height="168.906"/>
							<rect x="2800.559" y="1087.769" style="fill:#97A6B7;" width="70.02" height="168.906"/>
							<rect x="2706.246" y="1087.769" style="fill:#97A6B7;" width="68.591" height="168.906"/>
							<rect x="2896.301" y="1310.417" style="fill:#97A6B7;" width="68.591" height="168.906"/>
							<rect x="2800.559" y="1310.417" style="fill:#97A6B7;" width="70.02" height="168.906"/>
							<rect x="2706.246" y="1310.417" style="fill:#97A6B7;" width="68.591" height="168.906"/>
							<rect x="2896.301" y="1533.066" style="fill:#97A6B7;" width="68.591" height="168.906"/>
							<rect x="2800.559" y="1533.066" style="fill:#97A6B7;" width="70.02" height="168.906"/>
							<rect x="2706.246" y="1533.066" style="fill:#97A6B7;" width="68.591" height="168.906"/>
							<rect x="2896.301" y="1755.714" style="fill:#97A6B7;" width="68.591" height="168.906"/>
							<rect x="2800.559" y="1755.714" style="fill:#97A6B7;" width="70.02" height="168.906"/>
							<rect x="2706.246" y="1755.714" style="fill:#97A6B7;" width="68.591" height="168.906"/>
						</g>
						<rect x="2896.301" y="1087.769" style="opacity:0.5;fill:#97A6B7;" width="68.591" height="17.914"/>
						<rect x="2896.301" y="1310.417" style="opacity:0.5;fill:#97A6B7;" width="68.591" height="17.914"/>
						<rect x="2896.301" y="1533.066" style="opacity:0.5;fill:#97A6B7;" width="68.591" height="17.914"/>
						<rect x="2896.301" y="1755.714" style="opacity:0.5;fill:#97A6B7;" width="68.591" height="17.914"/>
						<path style="opacity:0.1;fill:#97A6B7;" d="M2679.095,2016.827v17.837h348.673l111.461-32.655v-159.488
							c-7.459-34.011-16.462-67.127-27.151-94.484c-40.969-104.926-27.622-147.587-36.196-224.363
							c-8.574-76.775,10.475-493.051-48.114-563.863c-54.773,118.566-50.972,113.448-52.873,239.718
							c-1.015,67.537-0.943,127.268-10.003,171.619c-7.859,38.541-22.621,65.438-50.972,75.752
							c-5.959,2.175-11.846,5.63-17.62,10.261c-18.434,14.715-35.768,41.306-50.457,75.906
							c-19.32,45.425-34.138,104.645-41.041,168.906c-1.9,17.582-3.201,35.572-3.83,53.743c-0.215,6.039-0.357,12.13-0.415,18.222
							c-0.057,5.297-0.057,10.595,0,15.892c0.029,1.868,0.029,3.711,0,5.528c-0.272,45.911-10.846,77.569-25.722,101.855
							c-6.302,10.288-13.375,19.245-20.777,27.409C2724.494,1957.223,2689.827,1976.903,2679.095,2016.827z"/>
					</g>
				</g>
			</g>
		</g>
		<g>
			<path style="fill:#97A6B7;" d="M543.296,2431.335c8.893,54.428,74.052,111.192,294.787,196.011
				c120.3,46.212,456.685,178.108,753.174,275.26c282.377,92.528,387.898,140.6,533.605,182.392
				c62.822,18.043,588.651,162.995,838.691-49.915c92.952-79.143,153.256-191.314,171.549-321.473
				c-1.918-0.425-0.505-44.116-2.418-44.545c-775.441-173.897-1380.462-249.205-1365.635-360.617
				c4.123-31.215,54.668-61.252,130.772-86.18l-4.057-141.381c-87.404,5.436-167.767,10.966-225.802,15.903
				c-210.476,18.002-615.786,52.196-845.159,132.487c-123.412,43.206-224.31,63.989-264.15,97.833
				c-14.561,12.369-19.314,49.065-18.929,61.642C540.455,2412.688,540.792,2415.949,543.296,2431.335z"/>
			<path style="fill:#D8DEE8;" d="M546.578,2376.171c8.883,54.32,70.685,114.626,291.184,199.922
				c120.174,46.473,456.213,179.095,752.408,276.932c282.106,93.183,387.528,141.472,533.101,183.617
				c62.765,18.195,588.132,164.438,837.98-47.275c92.883-78.7,153.146-190.461,171.433-320.301
				c-778.755-174.704-1381.727-296.994-1366.873-408.417c4.12-31.138,54.619-60.961,130.654-85.612l-4.049-141.099
				c-87.324,5.166-167.613,10.447-225.594,15.201c-210.276,17.34-615.184,50.26-844.322,129.698
				C586.201,2260.772,537.748,2321.953,546.578,2376.171z"/>
			<g>
				<g>
					<path style="fill:#FFFFFF;" d="M2876.307,2937.265c8.234-0.452,15.669-6.021,18.03-14.285
						c2.939-10.292-3.107-20.885-13.513-23.672c-39.208-10.5-78.429-21.168-116.561-31.708
						c-10.542-2.917-21.627,3.102-24.746,13.448c-3.125,10.355,2.917,21.106,13.482,24c38.324,10.5,77.736,21.125,117.133,31.58
						C2872.196,2937.177,2874.277,2937.377,2876.307,2937.265z"/>
				</g>
				<g>
					<path style="fill:#FFFFFF;" d="M2471.965,2824.899c-94.47-28.029-188.783-57.097-288.387-88.899
						c-11.134-3.555-16.946-14.944-12.973-25.425c3.968-10.469,16.197-16.052,27.301-12.48
						c99.063,31.868,192.862,61.003,286.817,89.107c10.809,3.233,16.72,14.272,13.213,24.667c-2.752,8.153-10.48,13.501-18.91,13.89
						C2476.696,2825.867,2474.313,2825.595,2471.965,2824.899z M1887.599,2638.668c-14.269-4.814-28.638-9.676-43.114-14.588
						c-86.749-29.442-165.952-61.521-256.822-104.096c-11.18-5.238-15.398-17.681-9.414-27.776
						c5.976-10.083,19.861-13.99,31.006-8.74c88.948,41.89,166.429,73.461,251.239,102.449c14.41,4.924,28.711,9.798,42.917,14.625
						c11.391,3.87,17.092,15.518,12.744,26.033c-3.305,7.989-11.461,13.036-20.196,13.321
						C1893.185,2639.987,1890.35,2639.596,1887.599,2638.668z"/>
				</g>
				<g>
					<path style="fill:#FFFFFF;" d="M1303.598,2379.583c8.445-0.131,16.568-4.239,20.756-11.302
						c6.055-10.21,1.601-22.746-9.951-28.017c-45.009-20.533-88.396-39.042-132.639-56.571
						c-12.044-4.774-26.327-0.114-31.882,10.422c-5.562,10.549-0.266,22.973,11.822,27.733
						c43.569,17.159,86.321,35.293,130.693,55.43C1295.977,2378.904,1299.82,2379.642,1303.598,2379.583z"/>
				</g>
			</g>
		</g>
		<g>
			
				<linearGradient id="SVGID_00000084530765978937451980000014370615123903459232_" gradientUnits="userSpaceOnUse" x1="2160.1331" y1="1668.3519" x2="2231.8809" y2="1594.8958">
				<stop  offset="0" style="stop-color:#40447E"/>
				<stop  offset="0.9964" style="stop-color:#3C3B6B"/>
			</linearGradient>
			<path style="fill:url(#SVGID_00000084530765978937451980000014370615123903459232_);" d="M2338.102,1839.675
				c-2.361,0-4.623-1.336-5.695-3.614c-1.303-2.768-131.923-278.213-284.108-399.55c-2.715-2.165-3.162-6.122-0.995-8.838
				c2.17-2.717,6.121-3.161,8.84-0.997c154.487,123.175,286.333,401.239,287.646,404.033c1.478,3.142,0.129,6.889-3.016,8.367
				C2339.911,1839.484,2338.998,1839.675,2338.102,1839.675z"/>
			
				<linearGradient id="SVGID_00000176022930089569902920000006813502390520370049_" gradientUnits="userSpaceOnUse" x1="2358.0508" y1="1649.9067" x2="2429.7976" y2="1576.4518">
				<stop  offset="0" style="stop-color:#40447E"/>
				<stop  offset="0.9964" style="stop-color:#3C3B6B"/>
			</linearGradient>
			<path style="fill:url(#SVGID_00000176022930089569902920000006813502390520370049_);" d="M2536.021,1821.231
				c-2.361,0-4.623-1.336-5.695-3.614c-1.303-2.768-131.923-278.213-284.111-399.55c-2.715-2.165-3.162-6.122-0.995-8.838
				c2.169-2.717,6.121-3.161,8.84-0.997c154.49,123.175,286.337,401.239,287.65,404.033c1.478,3.142,0.129,6.889-3.016,8.367
				C2537.83,1821.039,2536.917,1821.231,2536.021,1821.231z"/>
			<g>
				
					<linearGradient id="SVGID_00000073708365558977729860000002577592666609960633_" gradientUnits="userSpaceOnUse" x1="2304.8938" y1="1833.385" x2="2371.3057" y2="1833.385">
					<stop  offset="0" style="stop-color:#40447E"/>
					<stop  offset="0.9964" style="stop-color:#3C3B6B"/>
				</linearGradient>
				<path style="fill:url(#SVGID_00000073708365558977729860000002577592666609960633_);" d="M2336.763,1793.706
					c-1.085-2.629-3.648-4.344-6.492-4.344h-18.347c-5.001,0-8.4,5.079-6.492,9.702l32.332,78.345h33.542L2336.763,1793.706z"/>
				
					<linearGradient id="SVGID_00000174588747354099035820000013917845354356087172_" gradientUnits="userSpaceOnUse" x1="2503.8787" y1="1833.385" x2="2570.2915" y2="1833.385">
					<stop  offset="0" style="stop-color:#40447E"/>
					<stop  offset="0.9964" style="stop-color:#3C3B6B"/>
				</linearGradient>
				<path style="fill:url(#SVGID_00000174588747354099035820000013917845354356087172_);" d="M2535.747,1793.706
					c-1.085-2.629-3.648-4.344-6.492-4.344h-18.347c-4.999,0-8.398,5.079-6.492,9.702l32.334,78.345h33.542L2535.747,1793.706z"/>
				
					<linearGradient id="SVGID_00000117636251329564318930000015959046312560056246_" gradientUnits="userSpaceOnUse" x1="2274.0022" y1="1881.6021" x2="2443.6597" y2="1881.6021">
					<stop  offset="0.0054" style="stop-color:#D8DEE8"/>
					<stop  offset="1" style="stop-color:#F4F7FA"/>
				</linearGradient>
				<polygon style="fill:url(#SVGID_00000117636251329564318930000015959046312560056246_);" points="2274.002,1915.842 
					2274.002,1868.325 2443.66,1847.362 2443.66,1907.457 				"/>
				
					<linearGradient id="SVGID_00000040570884762738309500000003539872522975935669_" gradientUnits="userSpaceOnUse" x1="2443.6597" y1="1877.4092" x2="2732.4055" y2="1877.4092">
					<stop  offset="0.0054" style="stop-color:#D8DEE8"/>
					<stop  offset="1" style="stop-color:#F4F7FA"/>
				</linearGradient>
				<polygon style="fill:url(#SVGID_00000040570884762738309500000003539872522975935669_);" points="2732.406,1861.337 
					2443.66,1847.362 2443.66,1907.457 2732.406,1907.457 				"/>
				<path style="fill:#D8DEE8;" d="M1985.288,1949.384c-4.775-4.193,0-30.746,0-30.746l505.338-36.337l368.958,9.783v36.337
					L1985.288,1949.384z"/>
				
					<linearGradient id="SVGID_00000173846995957917530910000008584065078610449289_" gradientUnits="userSpaceOnUse" x1="1940.0808" y1="2331.4006" x2="2120.2092" y2="2331.4006">
					<stop  offset="0" style="stop-color:#40447E"/>
					<stop  offset="0.9964" style="stop-color:#3C3B6B"/>
				</linearGradient>
				<polygon style="fill:url(#SVGID_00000173846995957917530910000008584065078610449289_);" points="2120.209,2417.057 
					1940.081,2409.17 1940.081,2245.744 2120.209,2279.107 				"/>
				
					<linearGradient id="SVGID_00000058559355464843529530000014492632525335692672_" gradientUnits="userSpaceOnUse" x1="2205.6609" y1="2440.2681" x2="2476.3604" y2="2440.2681">
					<stop  offset="0" style="stop-color:#40447E"/>
					<stop  offset="0.9964" style="stop-color:#3C3B6B"/>
				</linearGradient>
				<path style="fill:url(#SVGID_00000058559355464843529530000014492632525335692672_);" d="M2476.077,2555.883
					c-0.348,10.361-232.316,3.474-232.316,3.474l-38.1-150.02l50.31-87.446C2255.971,2321.891,2485.51,2274.88,2476.077,2555.883z"
					/>
				<g>
					
						<linearGradient id="SVGID_00000075155140707954997130000016571918118192450228_" gradientUnits="userSpaceOnUse" x1="4827.5127" y1="2389.1028" x2="4919.9297" y2="2389.1028" gradientTransform="matrix(-1 0 0 1 6905.2178 0)">
						<stop  offset="0" style="stop-color:#444B8C"/>
						<stop  offset="0.9964" style="stop-color:#3E4177"/>
					</linearGradient>
					<path style="fill:url(#SVGID_00000075155140707954997130000016571918118192450228_);" d="M2043.536,2299.168
						c0.012,0.002,0.024,0.003,0.036,0.005c3.288,0.473,6.307,2.312,9.307,4.951c2.884,2.092,6.365,4.557,6.365,7.704v0.07
						c11.108,16.517,18.417,47.042,18.46,81.219c0.057,45.517-12.895,82.31-29.978,86.555c0,0.002,0.035,0.028,0.035,0.028
						c-1.152,0.238-15.465,7.648-60.573,0.347c-1.196-27.702-1.901-184.54-1.901-184.54S2021.341,2292.841,2043.536,2299.168z"/>
					<g>
						
							<linearGradient id="SVGID_00000037656689620001402930000016336747652123753349_" gradientUnits="userSpaceOnUse" x1="4995.4258" y1="2230.655" x2="4863.9121" y2="2488.4807" gradientTransform="matrix(-1 0 0 1 6905.2178 0)">
							<stop  offset="0" style="stop-color:#EBEFF2"/>
							<stop  offset="0.9946" style="stop-color:#B7C0CE"/>
						</linearGradient>
						<path style="fill:url(#SVGID_00000037656689620001402930000016336747652123753349_);" d="M1953.479,2384.378
							c0,52.065,16.856,95.21,37.285,96.296c20.037,1.066,35.97-38.879,35.932-89.154c-0.037-50.223-16.002-93.16-36.003-95.997
							C1970.303,2292.632,1953.479,2332.368,1953.479,2384.378z"/>
						<path style="fill:#FFFFFF;" d="M1969.461,2385.572c0.006,36.945,11.24,67.656,24.929,68.559
							c13.511,0.892,24.317-27.665,24.293-63.749c-0.024-36.058-10.854-66.668-24.348-68.414
							C1980.665,2320.2,1969.455,2348.656,1969.461,2385.572z"/>
					</g>
				</g>
				<g>
					
						<linearGradient id="SVGID_00000115503834761575966630000017431596207370464402_" gradientUnits="userSpaceOnUse" x1="4470.4946" y1="2531.3" x2="4583.1406" y2="2531.3" gradientTransform="matrix(-1 0 0 1 6905.2178 0)">
						<stop  offset="0" style="stop-color:#444B8C"/>
						<stop  offset="0.9964" style="stop-color:#3E4177"/>
					</linearGradient>
					<path style="fill:url(#SVGID_00000115503834761575966630000017431596207370464402_);" d="M2393.075,2421.68
						c0.014,0.002,0.029,0.004,0.044,0.006c4.008,0.576,7.688,2.818,11.344,6.035c3.516,2.55,7.759,5.554,7.759,9.39v0.086
						c13.54,20.132,22.448,57.339,22.501,98.997c0.07,55.48-15.718,100.326-36.54,105.501c0,0.002,0.043,0.034,0.043,0.034
						c-1.405,0.29-18.85,9.322-73.832,0.422c-1.457-33.765-2.317-224.933-2.317-224.933S2366.021,2413.968,2393.075,2421.68z"/>
					<g>
						
							<linearGradient id="SVGID_00000128462814411613292370000012079402956767910047_" gradientUnits="userSpaceOnUse" x1="4675.1611" y1="2338.1707" x2="4514.8618" y2="2652.4299" gradientTransform="matrix(-1 0 0 1 6905.2178 0)">
							<stop  offset="0" style="stop-color:#EBEFF2"/>
							<stop  offset="0.9946" style="stop-color:#B7C0CE"/>
						</linearGradient>
						<path style="fill:url(#SVGID_00000128462814411613292370000012079402956767910047_);" d="M2283.305,2525.541
							c0,63.461,20.546,116.05,45.447,117.374c24.423,1.299,43.843-47.389,43.797-108.668
							c-0.046-61.217-19.505-113.552-43.883-117.009C2303.813,2413.713,2283.305,2462.147,2283.305,2525.541z"/>
						<path style="fill:#FFFFFF;" d="M2302.786,2526.996c0.007,45.031,13.701,82.464,30.385,83.566
							c16.469,1.087,29.64-33.721,29.61-77.702c-0.029-43.95-13.23-81.26-29.677-83.388
							C2316.442,2447.316,2302.779,2481.999,2302.786,2526.996z"/>
					</g>
				</g>
				
					<linearGradient id="SVGID_00000046335939536775632030000007709740915242588077_" gradientUnits="userSpaceOnUse" x1="1857.8719" y1="2292.04" x2="2874.0657" y2="2292.04">
					<stop  offset="0" style="stop-color:#FCB148"/>
					<stop  offset="0.0521" style="stop-color:#FDBA46"/>
					<stop  offset="0.1424" style="stop-color:#FFC244"/>
					<stop  offset="0.3183" style="stop-color:#FFC444"/>
					<stop  offset="0.4849" style="stop-color:#FDB946"/>
					<stop  offset="0.7754" style="stop-color:#F99C4D"/>
					<stop  offset="0.8658" style="stop-color:#F8924F"/>
					<stop  offset="1" style="stop-color:#F8924F"/>
				</linearGradient>
				<path style="fill:url(#SVGID_00000046335939536775632030000007709740915242588077_);" d="M1985.287,1935.409l-102.604,19.919
					c-7.548,1.465-13.235,7.677-14.098,15.318c-17.698,156.665-8.953,329.686-5.361,385.32c0.729,11.283,7.428,21.304,17.572,26.298
					l52.756,25.977c7.157,3.524,15.51-1.815,15.268-9.788c-0.093-3.08-0.141-6.198-0.141-9.349
					c0-58.661,16.39-106.215,36.608-106.215c20.218,0,36.609,47.554,36.609,106.215c0,16.594-1.312,32.297-3.65,46.287
					c-1.335,7.989,2.724,15.895,9.99,19.473l212.015,104.398c6.692,3.295,14.483-1.676,14.308-9.133
					c-0.081-3.426-0.123-6.883-0.123-10.37c0-83.802,22.839-151.737,51.013-151.737c28.172,0,51.01,67.935,51.01,151.737
					c0,22.251-1.616,43.374-4.51,62.411c-1.023,6.727,2.509,13.328,8.614,16.334l148.233,72.99l76.52-5.742l288.75-793.166
					L1985.287,1935.409z"/>
				
					<linearGradient id="SVGID_00000084516545706067163540000003935015857904624026_" gradientUnits="userSpaceOnUse" x1="1895.7368" y1="2538.7043" x2="2291.9287" y2="2133.0798">
					<stop  offset="0" style="stop-color:#40447E"/>
					<stop  offset="0.9964" style="stop-color:#3C3B6B"/>
				</linearGradient>
				<path style="fill:url(#SVGID_00000084516545706067163540000003935015857904624026_);" d="M2594.045,2416.539l-18.082-429.42
					c-60.133-5.01-594.023-15.264-707.763-12.991c-7.476,67.771-10.066,138.402-10.308,201.13l504.888,112.339L2594.045,2416.539z"
					/>
				
					<linearGradient id="SVGID_00000054972058992953788430000013867412414757642631_" gradientUnits="userSpaceOnUse" x1="1892.4664" y1="2218.4927" x2="1940.0808" y2="2218.4927">
					<stop  offset="0" style="stop-color:#FCB148"/>
					<stop  offset="0.0521" style="stop-color:#FDBA46"/>
					<stop  offset="0.1424" style="stop-color:#FFC244"/>
					<stop  offset="0.3183" style="stop-color:#FFC444"/>
					<stop  offset="0.4849" style="stop-color:#FDB946"/>
					<stop  offset="0.7754" style="stop-color:#F99C4D"/>
					<stop  offset="0.8658" style="stop-color:#F8924F"/>
					<stop  offset="1" style="stop-color:#F8924F"/>
				</linearGradient>
				<path style="fill:url(#SVGID_00000054972058992953788430000013867412414757642631_);" d="M1936.455,2029.88l-39.935-2.225
					c-2.201-0.123-4.054,1.63-4.054,3.834v356.521l41.086,20.23c2.158,1.064,4.422,1.308,6.529,0.93v-375.456
					C1940.081,2031.677,1938.49,2029.993,1936.455,2029.88z"/>
				
					<linearGradient id="SVGID_00000016039827631543238290000008043693649841665722_" gradientUnits="userSpaceOnUse" x1="1896.6592" y1="2218.2783" x2="1935.8879" y2="2218.2783">
					<stop  offset="0" style="stop-color:#40447E"/>
					<stop  offset="0.9964" style="stop-color:#3C3B6B"/>
				</linearGradient>
				<path style="fill:url(#SVGID_00000016039827631543238290000008043693649841665722_);" d="M1935.405,2404.48l-38.746-19.078
					v-353.541l39.229,2.187v370.647C1935.726,2404.63,1935.565,2404.558,1935.405,2404.48z"/>
				
					<linearGradient id="SVGID_00000168822050133577527960000002465067311421515924_" gradientUnits="userSpaceOnUse" x1="2076.1252" y1="2279.1072" x2="2160.8347" y2="2279.1072">
					<stop  offset="0" style="stop-color:#FCB148"/>
					<stop  offset="0.0521" style="stop-color:#FDBA46"/>
					<stop  offset="0.1424" style="stop-color:#FFC244"/>
					<stop  offset="0.3183" style="stop-color:#FFC444"/>
					<stop  offset="0.4849" style="stop-color:#FDB946"/>
					<stop  offset="0.7754" style="stop-color:#F99C4D"/>
					<stop  offset="0.8658" style="stop-color:#F8924F"/>
					<stop  offset="1" style="stop-color:#F8924F"/>
				</linearGradient>
				<path style="fill:url(#SVGID_00000168822050133577527960000002465067311421515924_);" d="M2155.753,2042.104l-72.412-4.036
					c-3.069-0.171-5.656,2.242-5.679,5.314c-0.33,44.59-2.447,341.43-1.085,435.285l84.258,41.489v-472.681
					C2160.835,2044.62,2158.605,2042.262,2155.753,2042.104z"/>
				
					<linearGradient id="SVGID_00000152967535354003936080000008168328240634206392_" gradientUnits="userSpaceOnUse" x1="2086.6108" y1="2276.0723" x2="2150.353" y2="2276.0723">
					<stop  offset="0" style="stop-color:#40447E"/>
					<stop  offset="0.9964" style="stop-color:#3C3B6B"/>
				</linearGradient>
				<path style="fill:url(#SVGID_00000152967535354003936080000008168328240634206392_);" d="M2086.973,2472.104
					c-1.144-97.114,0.756-371.294,1.132-423.271l62.248,3.468v451.011L2086.973,2472.104z"/>
				
					<linearGradient id="SVGID_00000024002133061425709000000009452982570879958971_" gradientUnits="userSpaceOnUse" x1="2378.4033" y1="2373.3247" x2="2508.9158" y2="2373.3247">
					<stop  offset="0" style="stop-color:#FCB148"/>
					<stop  offset="0.0521" style="stop-color:#FDBA46"/>
					<stop  offset="0.1424" style="stop-color:#FFC244"/>
					<stop  offset="0.3183" style="stop-color:#FFC444"/>
					<stop  offset="0.4849" style="stop-color:#FDB946"/>
					<stop  offset="0.7754" style="stop-color:#F99C4D"/>
					<stop  offset="0.8658" style="stop-color:#F8924F"/>
					<stop  offset="1" style="stop-color:#F8924F"/>
				</linearGradient>
				<path style="fill:url(#SVGID_00000024002133061425709000000009452982570879958971_);" d="M2498.332,2061.198l-108.096-6.025
					c-6.428-0.358-11.835,4.75-11.833,11.187c0.014,72.446,0.092,456.042,0.033,560.945l130.359,64.189l0.121-0.009v-619.095
					C2508.916,2066.441,2504.271,2061.529,2498.332,2061.198z"/>
				
					<linearGradient id="SVGID_00000090279671342537429510000002295188441149827462_" gradientUnits="userSpaceOnUse" x1="2393.0779" y1="2368.9978" x2="2494.2412" y2="2368.9978">
					<stop  offset="0" style="stop-color:#40447E"/>
					<stop  offset="0.9964" style="stop-color:#3C3B6B"/>
				</linearGradient>
				<path style="fill:url(#SVGID_00000090279671342537429510000002295188441149827462_);" d="M2393.115,2618.177
					c0.025-54.18,0.035-193.903-0.035-546.455l-0.002-1.699l101.163,5.644v592.304L2393.115,2618.177z"/>
				
					<linearGradient id="SVGID_00000000931291913924393590000008435823149902284439_" gradientUnits="userSpaceOnUse" x1="2976.5955" y1="2544.0894" x2="2553.1323" y2="1521.067">
					<stop  offset="0" style="stop-color:#FCB148"/>
					<stop  offset="0.0521" style="stop-color:#FDBA46"/>
					<stop  offset="0.1424" style="stop-color:#FFC244"/>
					<stop  offset="0.3183" style="stop-color:#FFC444"/>
					<stop  offset="0.4849" style="stop-color:#FDB946"/>
					<stop  offset="0.7754" style="stop-color:#F99C4D"/>
					<stop  offset="0.8658" style="stop-color:#F8924F"/>
					<stop  offset="1" style="stop-color:#F8924F"/>
				</linearGradient>
				<path style="fill:url(#SVGID_00000000931291913924393590000008435823149902284439_);" d="M2576.007,1956.631l-0.002,30.487
					l7.236,0.839l-0.025,417.11l-7.236,1.42l-0.016,268.35c-0.001,8.459,7.114,15.177,15.56,14.692l580.777-33.389
					c9.604-0.552,17.109-8.501,17.109-18.122l0-675.719c0-12-7.574-22.759-18.937-26.62
					c-171.233-58.175-364.038-55.413-573.505-5.589C2584.685,1933.014,2576.007,1944.005,2576.007,1956.631z"/>
				
					<linearGradient id="SVGID_00000181087145704841506810000011988533115409955991_" gradientUnits="userSpaceOnUse" x1="2575.9636" y1="2196.8035" x2="3189.4109" y2="2196.8035">
					<stop  offset="0" style="stop-color:#40447E"/>
					<stop  offset="0.9964" style="stop-color:#3C3B6B"/>
				</linearGradient>
				<polygon style="fill:url(#SVGID_00000181087145704841506810000011988533115409955991_);" points="3189.411,2395.156 
					2575.964,2406.488 2575.964,1987.119 3189.411,1987.119 				"/>
				<g>
					
						<linearGradient id="SVGID_00000002361709875912285530000000191234500276581804_" gradientUnits="userSpaceOnUse" x1="2709.8311" y1="2485.5891" x2="2666.5061" y2="2700.8154">
						<stop  offset="0.0036" style="stop-color:#E38DDD"/>
						<stop  offset="1" style="stop-color:#9571F6"/>
					</linearGradient>
					<path style="fill:url(#SVGID_00000002361709875912285530000000191234500276581804_);" d="M2725.515,2517.584l-55.497,2.125
						c-6.447,0.247-11.683,5.327-11.683,11.347v33.542c0,6.02,5.236,10.658,11.683,10.361l55.497-2.559
						c6.336-0.292,11.462-5.354,11.462-11.307v-33.168C2736.977,2521.97,2731.851,2517.341,2725.515,2517.584z"/>
					
						<linearGradient id="SVGID_00000008836779681900142340000008287895494992022447_" gradientUnits="userSpaceOnUse" x1="3101.2585" y1="2564.3833" x2="3057.9336" y2="2779.6094">
						<stop  offset="0.0036" style="stop-color:#E38DDD"/>
						<stop  offset="1" style="stop-color:#9571F6"/>
					</linearGradient>
					<path style="fill:url(#SVGID_00000008836779681900142340000008287895494992022447_);" d="M3133.123,2501.981l-49.2,1.883
						c-5.712,0.219-10.352,4.989-10.352,10.655v31.571c0,5.666,4.639,10.045,10.352,9.782l49.2-2.269
						c5.62-0.259,10.167-5.014,10.167-10.62v-31.24C3143.291,2506.136,3138.744,2501.765,3133.123,2501.981z"/>
				</g>
				<g style="opacity:0.3;">
					<path style="fill:#FFFFFF;" d="M3189.41,2638.019v-675.719c0-12.001-7.575-22.759-18.937-26.62
						c-134.201-45.594-281.657-53.747-439.995-31.16c69.368,47.345,100.07,96.845,112.826,140.885
						c26.227,90.537-28.532,139.969,7.368,238.853c40.195,110.717,135.135,121.169,221.086,220.744
						c29.76,34.479,61.193,82.832,83.539,152.117l17.004-0.978C3181.905,2655.588,3189.41,2647.639,3189.41,2638.019z"/>
				</g>
				
					<linearGradient id="SVGID_00000016797800044102922360000004282114420351590531_" gradientUnits="userSpaceOnUse" x1="2846.6826" y1="2919.5125" x2="2849.4778" y2="2630.2151">
					<stop  offset="0" style="stop-color:#AA80F9"/>
					<stop  offset="0.9964" style="stop-color:#6165D7"/>
				</linearGradient>
				<path style="fill:url(#SVGID_00000016797800044102922360000004282114420351590531_);" d="M2539.137,2573.418l75.096,37.168
					l575.178-27.352v63.148c0,14.647-11.343,26.792-25.956,27.791l-561.411,38.371c-17.215,1.177-34.492-1.077-50.83-6.631
					l-42.419-14.42l5.988-103.91C2515.479,2575.499,2528.288,2568.049,2539.137,2573.418z"/>
				
					<linearGradient id="SVGID_00000119839187659705110450000004241737334828130202_" gradientUnits="userSpaceOnUse" x1="2599.6365" y1="2641.6045" x2="3172.6401" y2="2641.6045">
					<stop  offset="0" style="stop-color:#40447E"/>
					<stop  offset="0.9964" style="stop-color:#3C3B6B"/>
				</linearGradient>
				<path style="fill:url(#SVGID_00000119839187659705110450000004241737334828130202_);" d="M2599.636,2636.527v35.351
					c0,10.651,8.95,19.114,19.585,18.517l543.115-30.467c5.782-0.324,10.304-5.107,10.304-10.899V2603.7
					c0-6.227-5.201-11.192-11.421-10.904l-543.895,25.205C2607.426,2618.459,2599.636,2626.618,2599.636,2636.527z"/>
			</g>
			
				<linearGradient id="SVGID_00000162336891998595183270000007333702885702231224_" gradientUnits="userSpaceOnUse" x1="1833.6501" y1="1282.2483" x2="3233.7134" y2="1282.2483">
				<stop  offset="0" style="stop-color:#EBEFF2"/>
				<stop  offset="0.9946" style="stop-color:#B7C0CE"/>
			</linearGradient>
			<path style="fill:url(#SVGID_00000162336891998595183270000007333702885702231224_);" d="M1845.698,1299.968
				c1.956,2.363,4.475,4.922,6.883,7.295c2.551,2.328,5.003,4.744,7.719,6.921c2.648,2.241,5.292,4.484,8.115,6.534
				c2.802,2.07,5.482,4.288,8.422,6.184l8.656,5.889l8.961,5.453l4.481,2.724l4.62,2.5l9.248,4.983
				c24.908,12.881,51.369,22.761,78.35,30.661l10.109,3.017c3.383,0.959,6.827,1.71,10.238,2.575
				c6.842,1.658,13.662,3.401,20.518,4.991l20.742,4.046l10.374,2l10.462,1.539l20.921,3.081c6.984,0.946,14.027,1.487,21.036,2.252
				c7.02,0.675,14.026,1.507,21.058,2.055l21.136,1.22c56.384,3.078,112.999,1.239,169.328-3.468l42.208-4.188
				c3.522-0.296,7.022-0.817,10.527-1.282l10.513-1.415l21.025-2.828l21.02-2.856l20.927-3.526l41.844-7.091
				c111.245-21.047,220.865-50.359,328.768-84.833c107.921-34.509,214.165-74.193,319.138-116.948l79.171-30.784
				c4.289-1.746,9.182,0.314,10.929,4.603s-0.314,9.182-4.603,10.929l-79.173,30.784
				c-105.576,42.271-212.439,81.464-321.022,115.474c-108.564,33.972-218.888,62.776-330.928,83.282l-42.155,6.887l-21.079,3.421
				l-21.187,2.751l-21.189,2.722l-10.593,1.36c-3.531,0.448-7.057,0.95-10.611,1.228l-42.556,3.966
				c-56.809,4.407-113.939,5.928-170.926,2.476l-21.362-1.362c-7.111-0.598-14.201-1.479-21.302-2.206
				c-7.093-0.816-14.21-1.408-21.281-2.408l-21.184-3.247l-10.59-1.626l-10.517-2.09l-21.022-4.234
				c-6.957-1.656-13.88-3.467-20.82-5.194c-3.462-0.901-6.952-1.686-10.388-2.682l-10.273-3.129
				c-27.41-8.206-54.336-18.435-79.802-31.793l-9.464-5.171l-4.725-2.596l-4.599-2.83l-9.19-5.671l-8.911-6.138
				c-3.016-1.975-5.805-4.298-8.696-6.464c-2.908-2.142-5.665-4.504-8.42-6.864c-2.81-2.285-5.41-4.863-8.081-7.338
				c-2.619-2.63-5.1-5.122-7.647-8.247c-1.51-1.851-1.232-4.576,0.618-6.084c1.843-1.502,4.549-1.235,6.063,0.592L1845.698,1299.968
				z"/>
			
				<linearGradient id="SVGID_00000172414669246988485080000004979093550167151249_" gradientUnits="userSpaceOnUse" x1="1772.8309" y1="1210.7625" x2="3212.8474" y2="1210.7625">
				<stop  offset="0" style="stop-color:#EBEFF2"/>
				<stop  offset="0.9946" style="stop-color:#B7C0CE"/>
			</linearGradient>
			<path style="fill:url(#SVGID_00000172414669246988485080000004979093550167151249_);" d="M1786.454,1318.813
				c0.594,0.947,1.493,2.151,2.235,3.213l2.517,3.255c1.763,2.122,3.529,4.257,5.394,6.313c1.922,2.015,3.768,4.095,5.749,6.057
				l6.032,5.809c2.062,1.884,4.219,3.675,6.322,5.517l3.177,2.74l3.328,2.569l6.652,5.141c2.275,1.638,4.621,3.185,6.926,4.783
				c18.548,12.662,38.75,22.876,59.669,31.206c20.86,8.586,42.809,14.282,64.808,19.282l16.663,3.123
				c2.781,0.494,5.543,1.1,8.34,1.505l8.415,1.086l16.826,2.175c2.797,0.429,5.625,0.592,8.448,0.798l8.469,0.622
				c45.162,3.461,90.667,1.76,135.794-2.995l33.792-4.266c2.822-0.305,5.619-0.805,8.417-1.291l8.399-1.439l16.795-2.875
				c5.594-0.982,11.205-1.864,16.784-2.927l16.672-3.577c11.104-2.426,22.246-4.67,33.317-7.243
				c88.431-21.396,174.795-51.021,259.104-85.448c84.332-34.472,166.668-73.77,247.601-115.727l397.577-210.658
				c4.111-2.132,9.172-0.527,11.303,3.584c2.131,4.112,0.526,9.173-3.584,11.304l-397.578,210.659
				c-81.629,41.556-164.686,80.448-249.802,114.508c-85.095,34.013-172.311,63.222-261.734,84.158
				c-11.198,2.516-22.476,4.702-33.708,7.069l-16.864,3.484c-5.647,1.033-11.331,1.885-16.995,2.836l-17.004,2.782l-8.501,1.39
				c-2.832,0.47-5.663,0.953-8.524,1.243l-34.241,4.066c-45.746,4.478-91.934,5.873-137.888,2.009l-8.616-0.699
				c-2.871-0.233-5.747-0.422-8.599-0.877l-17.143-2.344l-8.571-1.173c-2.85-0.435-5.671-1.072-8.508-1.598l-16.996-3.318
				c-22.465-5.275-44.877-11.277-66.26-20.254c-21.434-8.719-42.17-19.388-61.275-32.639c-2.377-1.672-4.788-3.293-7.133-5.01
				l-6.868-5.386l-3.432-2.694l-3.291-2.877c-2.179-1.936-4.404-3.815-6.542-5.799l-6.265-6.122
				c-2.06-2.073-3.997-4.281-5.998-6.416c-1.955-2.187-3.819-4.469-5.684-6.754c-1.829-2.378-3.562-4.62-5.314-7.388
				c-1.278-2.02-0.678-4.692,1.341-5.971c2.02-1.277,4.692-0.677,5.971,1.342l0.01,0.017L1786.454,1318.813z"/>
		</g>
		<g>
			<g>
				<path style="fill:#97A6B7;" d="M2086.93,2531.395c0,19.452-14.773,35.989-33.037,36.937l-1160.836,60.3
					c-21.313,1.107-38.632-15.085-38.632-36.17V870.219c0-21.084,17.319-37.119,38.632-35.819l15.55-0.831l1145.286,71.653
					c18.264,1.114,33.037,17.785,33.037,37.237V2531.395z"/>
				<path style="fill:#D8DEE8;" d="M2109.8,2530.597c0,19.452-14.773,35.989-33.037,36.937l-1160.836,60.299
					c-21.313,1.107-38.632-15.085-38.632-36.169V869.421c0-21.084,17.319-37.12,38.632-35.819l1160.836,70.823
					c18.265,1.114,33.037,17.784,33.037,37.237V2530.597z"/>
				<path style="fill:#D8DEE8;" d="M1217.082,995.518c-28.853,37.097-32.975,107.169,16.488,136.022
					c107.168,65.95,247.312,45.341,350.359-24.731c75.842-53.09,43.543-151.516,21.84-231.12l-228.306-13.929
					C1357.818,916.669,1253.267,947.273,1217.082,995.518z"/>
				
					<linearGradient id="SVGID_00000173840420742876646220000009891654698575787949_" gradientUnits="userSpaceOnUse" x1="1242.183" y1="940.6164" x2="1781.5479" y2="940.6164">
					<stop  offset="0" style="stop-color:#444B8C"/>
					<stop  offset="0.9964" style="stop-color:#26264F"/>
				</linearGradient>
				<path style="fill:url(#SVGID_00000173840420742876646220000009891654698575787949_);" d="M1767.036,1011.477
					c-1.566-9.036-8.616-15.426-17.563-15.906l-55.315-2.971c-24.998-1.343-43.077-22.186-41.892-48.387l2.745-60.689
					c0.507-11.219-7.243-20.217-18.005-20.886l-17.857-1.109c-13.585-0.844-22.881-13.008-20.737-27.169
					c3.791-25.053-12.679-46.669-36.855-48.286c-24.255-1.622-47.066,17.486-50.879,42.684c-1.035,6.841-4.655,13.236-10.068,17.78
					c-5.417,4.546-12.185,6.868-18.82,6.456l-18.228-1.133c-11.027-0.685-21.596,7.295-24.521,18.527l-15.835,60.82
					c-6.845,26.29-31.66,45.139-57.679,43.741l-58.199-3.126c-9.497-0.51-18.888,5.188-23.375,14.191l-41.77,83.815l3.59,4.587
					l535.774,20.841L1767.036,1011.477z M1553.657,838.266c-7.105-0.45-11.966-6.791-10.851-14.163
					c1.115-7.371,7.783-12.971,14.887-12.508c7.097,0.463,11.942,6.803,10.829,14.162
					C1567.409,833.116,1560.756,838.716,1553.657,838.266z"/>
				<g>
					<polygon style="fill:#FFFFFF;" points="2060.488,1044.489 2060.488,2495.749 1901.983,2503.284 955.513,2547.485 
						948.464,2309.149 948.464,1011.849 1115.232,1016.752 					"/>
					<path style="fill:#D8DEE8;" d="M1039.384,1194.136v28.123l46.626,0.885v130.922l37.301,0.454v-130.695l46.626,0.863v-27.919
						L1039.384,1194.136z"/>
					<path style="fill:#D8DEE8;" d="M1283.237,1198.426l-22.474-0.454l-21.262-0.432l-59.867,157.683l38.792,0.476l12.286-37.429
						l31.799,0.454l29.701,0.431l12.193,37.611l38.28,0.454L1283.237,1198.426z M1264.843,1290.738l-25.108-0.386
						c12.006-36.112,19.28-58.742,21.821-67.889c0.629,2.587,1.632,6.128,3.054,10.623c0.071,0.204,0.14,0.454,0.233,0.726
						c1.795,5.561,8.066,24.672,18.86,57.221L1264.843,1290.738z"/>
					<path style="fill:#D8DEE8;" d="M1447.779,1279.821l51.847-76.356l-37.697-0.749l-34.992,55.496l-35.809-56.949l-39.025-0.795
						l51.754,76.833l-55.297,80.01l37.883,0.454l38.676-58.628l38.513,59.582l39.935,0.499L1447.779,1279.821z"/>
					<polygon style="fill:#D8DEE8;" points="1865.091,1244.614 1556.345,1238.929 1556.345,1204.306 1865.091,1210.536 					"/>
					<polygon style="fill:#D8DEE8;" points="1996,1306.766 1556.345,1300.029 1556.345,1263.369 1996,1270.932 					"/>
					<polygon style="fill:#D8DEE8;" points="1996,1364.499 1556.345,1359.092 1556.345,1324.469 1996,1330.655 					"/>
					<polygon style="fill:#D8DEE8;" points="1356.277,1519.182 1040.12,1517.88 1040.12,1482.328 1356.277,1484.202 					"/>
					<g>
						<g>
							<path style="fill:#D8DEE8;" d="M1191.233,1574.553l-126.204-0.159v137.844l43.583-0.25l21.862-0.136l81.426-0.454v-136.823
								L1191.233,1574.553z M1190.918,1692.855l-45.063,0.204l-58.072,0.273l-6.435,0.023v-100.144l96.422,0.204h13.149V1692.855z"
								/>
						</g>
						<polygon style="fill:#D8DEE8;" points="1996,1611.355 1274.768,1611.84 1274.768,1574.642 1996,1575.521 						"/>
						<polygon style="fill:#D8DEE8;" points="1996,1669.087 1274.768,1671.771 1274.768,1636.639 1996,1635.244 						"/>
					</g>
					<g>
						<g>
							<path style="fill:#D8DEE8;" d="M1181.907,1778.018l-116.879,1.067v137.844l146.871-2.361v-136.823L1181.907,1778.018z
								 M1190.918,1896.206l-54.435,0.84l-35.133,0.522l-20.002,0.295v-100.166l86.759-0.862l22.811-0.227V1896.206z"/>
						</g>
					</g>
					<g>
						<path style="fill:#97A6B7;" d="M1282.521,1871.523c6.526,3.214,16.949,6.383,27.514,6.264
							c11.366-0.128,17.353-4.722,17.334-11.592c-0.018-6.558-5.219-10.253-18.381-14.495
							c-18.232-6.078-30.312-15.669-30.355-31.009c-0.05-18.002,15.709-31.723,41.387-31.89c12.487-0.081,21.403,2.201,27.884,5.122
							l-5.448,19.07c-4.215-1.996-12.166-4.901-22.708-4.821c-10.719,0.081-15.906,4.966-15.891,10.281
							c0.019,6.722,6.041,9.641,20.339,14.671c19.305,6.693,28.23,16.277,28.271,31.09c0.049,17.619-13.829,32.758-43.841,33.126
							c-12.519,0.154-24.902-2.981-31.104-6.193L1282.521,1871.523z"/>
						<path style="fill:#97A6B7;" d="M1401.633,1789.826l0.165,60.183c0.05,18.196,7.312,27.289,19.681,27.149
							c12.835-0.144,19.863-8.914,19.812-27.536l-0.164-60.056l24.318-0.16l0.16,58.584c0.088,32.236-16.66,47.786-44.875,48.132
							c-27.334,0.335-43.33-14.262-43.421-47.584l-0.161-58.549L1401.633,1789.826z"/>
						<path style="fill:#97A6B7;" d="M1494.506,1790.606c7.798-1.29,19.246-2.293,32.274-2.378
							c15.86-0.104,26.954,2.137,34.564,7.946c6.496,4.887,9.993,12.259,10.019,21.813c0.036,13.099-9.582,22.282-18.75,25.607
							l0.001,0.463c7.443,2.859,11.576,9.602,14.289,19.132c3.349,11.832,6.548,25.357,8.612,29.338l-24.668,0.3
							c-1.591-3.067-4.309-11.367-7.351-24.142c-3.047-13.088-7.654-16.438-17.652-16.493l-7.147,0.071l0.112,40.954l-24.021,0.292
							L1494.506,1790.606z M1518.65,1835.263l9.529-0.087c12.053-0.109,19.167-6.037,19.142-15.141
							c-0.026-9.413-6.694-14.301-17.796-14.217c-5.872,0.044-9.208,0.378-10.953,0.855L1518.65,1835.263z"/>
						<path style="fill:#97A6B7;" d="M1617.051,1808.083l-28.657,0.219l-0.054-19.708l81.331-0.536l0.053,19.622l-28.809,0.22
							l0.227,83.827l-23.863,0.291L1617.051,1808.083z"/>
						<path style="fill:#97A6B7;" d="M1703.593,1864.495l-7.408,26.562l-24.504,0.298l31.705-103.52l31.096-0.205l32.818,102.56
							l-25.558,0.311l-8.14-26.329L1703.593,1864.495z M1730.14,1846.791l-6.583-21.793c-1.883-6.099-3.769-13.727-5.34-19.83
							l-0.309,0.002c-1.538,6.128-3.076,13.939-4.769,19.917l-6.165,21.931L1730.14,1846.791z"/>
						<path style="fill:#97A6B7;" d="M1839.728,1889.309l-9.419-18.425c-3.858-7.101-6.332-12.395-9.269-18.294l-0.309,0.003
							c-2.136,5.952-4.739,11.303-8.103,18.489l-8.422,18.66l-26.844,0.327l29.941-52.25l-29.136-50.476l26.998-0.178l9.133,18.647
							c3.096,6.211,5.415,11.211,7.891,16.968l0.309-0.003c2.442-6.557,4.428-11.133,7.023-17.081l8.703-18.75l26.667-0.176
							l-28.989,50.173l30.795,52.037L1839.728,1889.309z"/>
					</g>
					<g>
						<g>
							<path style="fill:#D8DEE8;" d="M1065.028,1983.774v137.844l146.871-3.904v-136.823L1065.028,1983.774z M1190.918,2101.667
								l-109.571,2.77v-102.232l109.571-2.224V2101.667z"/>
						</g>
						<polygon style="fill:#D8DEE8;" points="1996,2001.547 1274.768,2016.891 1274.768,1979.693 1996,1965.713 						"/>
						<polygon style="fill:#D8DEE8;" points="1996,2059.279 1274.768,2076.823 1274.768,2041.69 1996,2025.436 						"/>
					</g>
					<g>
						<g>
							<path style="fill:#D8DEE8;" d="M1065.028,2188.441v137.844l146.871-5.402v-136.823L1065.028,2188.441z M1190.918,2305.018
								l-109.571,3.927v-102.254l109.571-3.359V2305.018z"/>
						</g>
						<polygon style="fill:#D8DEE8;" points="1996,2196.643 1274.768,2219.417 1274.768,2182.218 1996,2160.809 						"/>
						<polygon style="fill:#D8DEE8;" points="1996,2254.375 1274.768,2279.348 1274.768,2244.216 1996,2220.532 						"/>
					</g>
					<path style="fill:#97A6B7;" d="M1119.769,1907.283c-4.629,0.072-9.1-1.56-12.406-4.574l-48.893-44.568
						c-6.893-6.283-6.893-16.616,0-23.071c6.89-6.451,18.046-6.58,24.924-0.296l33.938,31.014l78.347-105.737
						c5.476-7.396,16.305-9.301,24.19-4.265c7.872,5.031,9.824,15.092,4.362,22.48l-90.062,121.808
						c-2.959,4.002-7.658,6.61-12.832,7.12C1120.814,1907.245,1120.291,1907.275,1119.769,1907.283z"/>
					<path style="opacity:0.2;fill:#D8DEE8;" d="M1902.17,2503.284l-948.305,45.622l-5.401-239.757v-1297.3l166.955,4.903
						c63.854,22.948,127.574,73.36,145.501,181.22c1.888,11.304,3.185,23.243,4.001,35.84c1.143,17.636,1.149,36.589-0.039,56.926
						c-0.512,9.057-1.302,18.385-2.351,27.987c-0.419,3.995-0.896,8.035-1.409,12.121c-7.856,62.056-7.255,111.81-0.238,152.779
						c2.122,12.529,4.847,24.219,8.134,35.182c6.271,21.041,14.523,39.427,24.361,55.86c8.113,13.573,17.32,25.831,27.345,37.156
						c7.74,8.716,15.969,16.888,24.57,24.673c13.615,12.302,28.186,23.674,43.362,34.842
						c42.15,31.073,88.706,60.512,130.879,103.616c10.887,11.122,21.495,23.152,31.636,36.385
						c5.898,7.649,11.633,15.729,17.181,24.241c7.018,10.691,13.732,22.108,20.072,34.32c4.034,7.694,7.903,15.729,11.634,24.105
						c11.61,26.08,18.837,52.478,22.986,78.943c1.912,12.144,3.17,24.309,3.917,36.453c0.512,8.126,0.77,16.229,0.839,24.332
						c0.117,11.531-0.187,23.061-0.77,34.524c-1.771,35.295-6.271,70.114-10.351,103.82c-1.469,12.393-2.914,24.627-4.103,36.68
						c-0.863,8.239-1.586,16.388-2.145,24.446c-0.863,11.735-1.376,23.288-1.423,34.569
						C1608.568,2380.217,1655.333,2469.261,1902.17,2503.284z"/>
				</g>
				<path style="fill:#97A6B7;" d="M1770.626,1016.065c-1.565-9.036-8.616-15.426-17.563-15.906l-55.315-2.971
					c-24.999-1.343-43.078-22.185-41.892-48.387l2.745-60.689c0.508-11.219-7.243-20.217-18.005-20.886l-17.857-1.11
					c-13.585-0.844-22.881-13.008-20.737-27.169c3.791-25.053-12.679-46.669-36.856-48.286
					c-24.255-1.622-47.065,17.486-50.879,42.684c-1.035,6.841-4.655,13.236-10.069,17.78c-5.417,4.546-12.185,6.868-18.82,6.456
					l-18.228-1.133c-11.027-0.686-21.596,7.295-24.521,18.526l-15.835,60.82c-6.845,26.29-31.66,45.139-57.678,43.741l-58.2-3.126
					c-9.496-0.51-18.887,5.188-23.375,14.191l-41.769,83.815l539.365,25.428L1770.626,1016.065z M1557.248,842.853
					c-7.106-0.45-11.966-6.792-10.851-14.163c1.116-7.372,7.783-12.971,14.887-12.508c7.097,0.463,11.942,6.803,10.829,14.162
					C1570.999,837.703,1564.346,843.304,1557.248,842.853z"/>
				<path style="opacity:0.3;fill:#97A6B7;" d="M1753.063,1000.159l-55.315-2.971c-16.599-0.891-30.105-10.408-36.989-24.354
					c-51.258,10.724-105.262-0.481-159.268,10.32c-37.097,8.244-32.975,65.95-74.194,70.072
					c-59.123,7.99-117.622,8.546-175.506,9.113l-6.019,12.078l539.365,25.428l-14.512-83.779
					C1769.061,1007.029,1762.01,1000.639,1753.063,1000.159z"/>
			</g>
		</g>
		<g>
			
				<linearGradient id="SVGID_00000181781336984491041840000004187824377280491938_" gradientUnits="userSpaceOnUse" x1="5111.2212" y1="2876.4949" x2="5133.7729" y2="2854.2603" gradientTransform="matrix(-1 0 0 1 6905.2178 0)">
				<stop  offset="0" style="stop-color:#FCB148"/>
				<stop  offset="0.0521" style="stop-color:#FDBA46"/>
				<stop  offset="0.1424" style="stop-color:#FFC244"/>
				<stop  offset="0.3183" style="stop-color:#FFC444"/>
				<stop  offset="0.4849" style="stop-color:#FDB946"/>
				<stop  offset="0.7754" style="stop-color:#F99C4D"/>
				<stop  offset="0.8658" style="stop-color:#F8924F"/>
				<stop  offset="1" style="stop-color:#F8924F"/>
			</linearGradient>
			<path style="fill:url(#SVGID_00000181781336984491041840000004187824377280491938_);" d="M1751.034,2880.055h17.15l21.243-53.984
				C1789.427,2826.071,1750.449,2828.8,1751.034,2880.055z"/>
			
				<linearGradient id="SVGID_00000173119055691593953930000003573553592000858009_" gradientUnits="userSpaceOnUse" x1="4708.4727" y1="3026.9729" x2="4807.8086" y2="2929.0359" gradientTransform="matrix(-1 0 0 1 6905.2178 0)">
				<stop  offset="0" style="stop-color:#FCB148"/>
				<stop  offset="0.0521" style="stop-color:#FDBA46"/>
				<stop  offset="0.1424" style="stop-color:#FFC244"/>
				<stop  offset="0.3183" style="stop-color:#FFC444"/>
				<stop  offset="0.4849" style="stop-color:#FDB946"/>
				<stop  offset="0.7754" style="stop-color:#F99C4D"/>
				<stop  offset="0.8658" style="stop-color:#F8924F"/>
				<stop  offset="1" style="stop-color:#F8924F"/>
			</linearGradient>
			<path style="fill:url(#SVGID_00000173119055691593953930000003573553592000858009_);" d="M2151.31,2973.418l-111.616-20.685
				c0,0-10.131-86.158,39.76-94.343C2129.346,2850.205,2156.124,2916.943,2151.31,2973.418z"/>
			<g>
				
					<linearGradient id="SVGID_00000013886404671197136950000012551727862060820391_" gradientUnits="userSpaceOnUse" x1="4723.2334" y1="2938.6467" x2="4821.0635" y2="2938.6467" gradientTransform="matrix(-1 0 0 1 6905.2178 0)">
					<stop  offset="0" style="stop-color:#444B8C"/>
					<stop  offset="0.9964" style="stop-color:#3E4177"/>
				</linearGradient>
				<path style="fill:url(#SVGID_00000013886404671197136950000012551727862060820391_);" d="M2145.814,2872.068
					c0.013,0.001,0.025,0.002,0.038,0.004c3.481,0.35,6.677,1.711,9.852,3.665c3.053,1.549,6.738,3.373,6.738,5.703v0.052
					c11.759,12.228,19.496,34.826,19.542,60.127c0.061,33.697-13.65,60.934-31.734,64.077c0,0.001,0.037,0.02,0.037,0.02
					c-1.22,0.176-16.37,5.662-64.121,0.257c-1.266-20.508-2.012-136.615-2.012-136.615S2122.319,2867.384,2145.814,2872.068z"/>
				<g>
					
						<linearGradient id="SVGID_00000109713116049521826390000005697999029526371722_" gradientUnits="userSpaceOnUse" x1="4876.8042" y1="2818.658" x2="4777.1963" y2="3013.9348" gradientTransform="matrix(-1 0 0 1 6905.2178 0)">
						<stop  offset="0" style="stop-color:#EBEFF2"/>
						<stop  offset="0.9946" style="stop-color:#B7C0CE"/>
					</linearGradient>
					<path style="fill:url(#SVGID_00000109713116049521826390000005697999029526371722_);" d="M2050.483,2935.149
						c0,38.544,17.844,70.484,39.469,71.289c21.21,0.789,38.076-28.782,38.037-66.001c-0.04-37.181-16.94-68.967-38.111-71.067
						C2068.292,2867.229,2050.483,2896.646,2050.483,2935.149z"/>
					<path style="fill:#FFFFFF;" d="M2067.401,2936.033c0.006,27.35,11.898,50.085,26.389,50.754
						c14.302,0.66,25.741-20.48,25.716-47.193c-0.026-26.693-11.49-49.354-25.774-50.647
						C2079.26,2887.638,2067.394,2908.703,2067.401,2936.033z"/>
				</g>
			</g>
			<g>
				
					<linearGradient id="SVGID_00000142174943166782821470000015189539756818775730_" gradientUnits="userSpaceOnUse" x1="5043.6968" y1="2888.3779" x2="5123.769" y2="2888.3779" gradientTransform="matrix(-1 0 0 1 6905.2178 0)">
					<stop  offset="0" style="stop-color:#444B8C"/>
					<stop  offset="0.9964" style="stop-color:#3E4177"/>
				</linearGradient>
				<path style="fill:url(#SVGID_00000142174943166782821470000015189539756818775730_);" d="M1831.422,2831.029
					c0.01,0.001,0.021,0.002,0.031,0.003c2.824,0.301,6.172,1.474,8.748,3.157c2.477,1.334,1.813,2.906,6.222,4.913v0.045
					c7.349,10.532,15.06,29.998,15.097,51.792c0.049,29.026-11.452,52.487-26.122,55.195c0,0.001-0.159,0.017-0.159,0.017
					c-0.99,0.152-13.375,4.877-52.112,0.221c-1.027-17.665-1.68-117.677-1.68-117.677S1812.362,2826.994,1831.422,2831.029z"/>
				<g>
					
						<linearGradient id="SVGID_00000039097787700933416960000000468567207875613333_" gradientUnits="userSpaceOnUse" x1="5171.8296" y1="2785.5215" x2="5086.4468" y2="2952.9109" gradientTransform="matrix(-1 0 0 1 6905.2178 0)">
						<stop  offset="0" style="stop-color:#EBEFF2"/>
						<stop  offset="0.9946" style="stop-color:#B7C0CE"/>
					</linearGradient>
					<path style="fill:url(#SVGID_00000039097787700933416960000000468567207875613333_);" d="M1754.085,2885.365
						c0,33.201,14.476,60.714,32.019,61.406c17.207,0.68,30.889-24.792,30.857-56.852c-0.032-32.027-13.742-59.406-30.917-61.215
						C1768.533,2826.861,1754.085,2852.199,1754.085,2885.365z"/>
					<path style="fill:#FFFFFF;" d="M1767.81,2886.126c0.005,23.559,9.653,43.142,21.408,43.719
						c11.603,0.569,20.882-17.641,20.862-40.651c-0.02-22.993-9.321-42.512-20.909-43.625
						C1777.431,2844.44,1767.805,2862.586,1767.81,2886.126z"/>
				</g>
			</g>
			<g>
				
					<linearGradient id="SVGID_00000180359570546428638780000012890271932314912165_" gradientUnits="userSpaceOnUse" x1="4292.6011" y1="2926.238" x2="4411.7793" y2="2926.238" gradientTransform="matrix(-1 0 0 1 6905.2178 0)">
					<stop  offset="0" style="stop-color:#444B8C"/>
					<stop  offset="0.9964" style="stop-color:#3E4177"/>
				</linearGradient>
				<path style="fill:url(#SVGID_00000180359570546428638780000012890271932314912165_);" d="M2567.84,2844.958
					c0.016,0,0.032,0,0.047,0c4.325,0,7.623,2.18,11.587,4.117c3.823,1.475,6.287,4.41,7.757,6.923v0.062
					c16.168,13.116,25.385,39.387,25.385,69.641c0,40.26-17.157,73.439-39.831,77.993c0,0.002,0.216,0.023,0.216,0.023
					c-1.516,0.262-20.121,7.344-77.321,3.118c-1.471-23.354-2.242-156.967-2.242-156.967S2539.012,2842.019,2567.84,2844.958z"/>
				<g>
					
						<linearGradient id="SVGID_00000034072311981023819670000007543740241487918739_" gradientUnits="userSpaceOnUse" x1="4474.0522" y1="2793.3242" x2="4360.9517" y2="3015.0525" gradientTransform="matrix(-1 0 0 1 6905.2178 0)">
						<stop  offset="0" style="stop-color:#444B8C"/>
						<stop  offset="0.9964" style="stop-color:#3E4177"/>
					</linearGradient>
					
						<ellipse style="fill:url(#SVGID_00000034072311981023819670000007543740241487918739_);" cx="2500.205" cy="2928.674" rx="45.612" ry="78.531"/>
					
						<linearGradient id="SVGID_00000018221651405613415990000014388407729242846858_" gradientUnits="userSpaceOnUse" x1="-3430.3" y1="2928.3669" x2="-3368.7483" y2="2928.3669" gradientTransform="matrix(-1 0 0 1 -894.7823 0)">
						<stop  offset="0" style="stop-color:#444B8C"/>
						<stop  offset="0.9964" style="stop-color:#3E4177"/>
					</linearGradient>
					
						<ellipse style="fill:url(#SVGID_00000018221651405613415990000014388407729242846858_);" cx="2504.742" cy="2928.367" rx="30.776" ry="56.154"/>
				</g>
			</g>
			
				<linearGradient id="SVGID_00000161603671194568709930000006824504454569282703_" gradientUnits="userSpaceOnUse" x1="4435.2354" y1="3183.3818" x2="3578.1282" y2="4263.9063" gradientTransform="matrix(-1 0 0 1 6905.2178 0)">
				<stop  offset="0" style="stop-color:#FCB148"/>
				<stop  offset="0.0521" style="stop-color:#FDBA46"/>
				<stop  offset="0.1424" style="stop-color:#FFC244"/>
				<stop  offset="0.3183" style="stop-color:#FFC444"/>
				<stop  offset="0.4849" style="stop-color:#FDB946"/>
				<stop  offset="0.7754" style="stop-color:#F99C4D"/>
				<stop  offset="0.8658" style="stop-color:#F8924F"/>
				<stop  offset="1" style="stop-color:#F8924F"/>
			</linearGradient>
			<path style="fill:url(#SVGID_00000161603671194568709930000006824504454569282703_);" d="M1736.267,2849.818
				c-1.595,7.224,0.446,14.772,5.465,20.208l9.286,10.057c2.546-29.67,17.894-52.491,36.466-52.491
				c20.329,0,36.841,27.396,36.841,61.18c0,8.013-0.92,15.647-2.625,22.658l4.061,1.679l219.381,40.633
				c-0.595-4.521-1.692-9.204-1.692-13.968c0-4.304-0.066-8.5-0.066-12.615c0-0.027,0-0.027,0-0.054
				c7.349-34.975,25.241-61.613,49.822-61.613c27.478,0,50.155,33.27,50.155,74.282c0,11.207-1.479,21.819-4.456,31.348
				l32.801,6.064c0.026,0.054,0.132,0.717,0.211,0.771c1.028,1.111,8.956,8.108,47.722,8.108h427.852
				c19.356,0,33.809-16.892,33.809-36.247v-1.598c0-7.417-3.571-14.185-10.204-17.515c0,0,11.844-33.947,2.451-74.553
				c-3.762-16.215-10.672-33.487-23.153-50.081c-7.254-9.638-16.218-19.031-27.479-27.856c0,0-48.688-40.389-138.022-50.893
				c0,0-74.047-53.827-141.803-89.506c-33.407-17.596-70.013-26.566-107.777-26.566h-247.671
				c-42.988,0-85.164,11.975-121.736,34.606l-64.51,39.853c0,0-15.404,9.18-31.105,31.161
				c-17.865,24.986-36.112,66.541-32.511,129.914L1736.267,2849.818L1736.267,2849.818z"/>
			
				<linearGradient id="SVGID_00000107568257087286244030000014433201718676155292_" gradientUnits="userSpaceOnUse" x1="4500.7197" y1="2837.1707" x2="4446.1377" y2="3142.3857" gradientTransform="matrix(-1 0 0 1 6905.2178 0)">
				<stop  offset="0" style="stop-color:#FCB148"/>
				<stop  offset="0.0521" style="stop-color:#FDBA46"/>
				<stop  offset="0.1424" style="stop-color:#FFC244"/>
				<stop  offset="0.3183" style="stop-color:#FFC444"/>
				<stop  offset="0.4849" style="stop-color:#FDB946"/>
				<stop  offset="0.7754" style="stop-color:#F99C4D"/>
				<stop  offset="0.8658" style="stop-color:#F8924F"/>
				<stop  offset="1" style="stop-color:#F8924F"/>
			</linearGradient>
			<path style="fill:url(#SVGID_00000107568257087286244030000014433201718676155292_);" d="M2171.807,2977.185
				c0.026,0.054,0.082,0.717,0.161,0.771c2.979,1.868,6.741,11.048,105.983,8.108h369.542c19.356,0,33.809-16.892,33.809-36.247
				v-1.598c0-0.433,0.597-0.839,0.571-1.272c-0.434-6.903-4.211-13.102-10.463-16.242l-430.269,4.061c0,0-40.581-7.39-54.497-0.108
				c-1.948,1.028-3.345,2.328-4.048,3.979C2176.749,2952.118,2169.1,2970.877,2171.807,2977.185z"/>
			<g style="opacity:0.8;">
				<path style="fill:#FFFFFF;" d="M2574.267,2857.019v5.604c0,4.358,1.787,8.5,4.928,11.532c3.141,3.005,7.363,4.602,11.722,4.413
					l46.02-1.949c11.045-0.46,21.519-5.063,29.344-12.885l7.58-7.58c-3.762-16.215-10.829-33.487-23.309-50.081
					c-0.161,0.027-0.325,0.027-0.486,0.054l-22.09,17.433c-11.695,9.232-25.553,15.323-40.281,17.677
					C2579.951,2842.482,2574.267,2849.168,2574.267,2857.019z"/>
			</g>
			<g style="opacity:0.4;">
				
					<linearGradient id="SVGID_00000088842583537373587240000014532375976129873813_" gradientUnits="userSpaceOnUse" x1="4340.7148" y1="2850.6428" x2="4537.2134" y2="2850.6428" gradientTransform="matrix(-1 0 0 1 6905.2178 0)">
					<stop  offset="0" style="stop-color:#FCB148"/>
					<stop  offset="0.0521" style="stop-color:#FDBA46"/>
					<stop  offset="0.1424" style="stop-color:#FFC244"/>
					<stop  offset="0.3183" style="stop-color:#FFC444"/>
					<stop  offset="0.4849" style="stop-color:#FDB946"/>
					<stop  offset="0.7754" style="stop-color:#F99C4D"/>
					<stop  offset="0.8658" style="stop-color:#F8924F"/>
					<stop  offset="1" style="stop-color:#F8924F"/>
				</linearGradient>
				<path style="fill:url(#SVGID_00000088842583537373587240000014532375976129873813_);" d="M2370.003,2850.599
					c3.027,3.639,8.078,6.603,11.208,6.608c57.486-0.007,114.917-0.014,172.284-0.021c3.125-0.004,7.544-2.971,9.815-6.599l0,0
					c2.255-3.607,1.218-6.507-2.302-6.508c-63.271,0-126.618,0-190.035,0C2367.465,2844.088,2366.969,2846.986,2370.003,2850.599
					L2370.003,2850.599z"/>
				
					<linearGradient id="SVGID_00000151528082214650437110000015957522313524754576_" gradientUnits="userSpaceOnUse" x1="4354.9243" y1="2874.1614" x2="4518.2715" y2="2874.1614" gradientTransform="matrix(-1 0 0 1 6905.2178 0)">
					<stop  offset="0" style="stop-color:#FCB148"/>
					<stop  offset="0.0521" style="stop-color:#FDBA46"/>
					<stop  offset="0.1424" style="stop-color:#FFC244"/>
					<stop  offset="0.3183" style="stop-color:#FFC444"/>
					<stop  offset="0.4849" style="stop-color:#FDB946"/>
					<stop  offset="0.7754" style="stop-color:#F99C4D"/>
					<stop  offset="0.8658" style="stop-color:#F8924F"/>
					<stop  offset="1" style="stop-color:#F8924F"/>
				</linearGradient>
				<path style="fill:url(#SVGID_00000151528082214650437110000015957522313524754576_);" d="M2389.416,2874.132
					c3.2,3.81,7.837,6.939,10.399,6.934c46.713-0.015,93.389-0.031,140.022-0.046c2.548,0,6.559-3.12,8.948-6.931l0,0
					c2.383-3.788,1.878-6.836-1.06-6.831c-52.834,0.011-105.718,0.022-158.653,0.033
					C2386.121,2867.292,2386.249,2870.339,2389.416,2874.132C2389.413,2874.132,2389.413,2874.132,2389.416,2874.132z"/>
			</g>
			<path style="opacity:0.8;fill:#FFFFFF;" d="M2319.96,2879.757c10.486-0.271,18.865-7.874,18.865-17.162v-5.664
				c0-8.83-7.602-16.22-17.527-17.086l-18.711-1.632l-111.362-29.326l2.438,14.037c3.691,21.211,19.895,39.061,42.499,46.813
				l16.537,5.672c10.884,3.733,22.519,5.501,34.186,5.2L2319.96,2879.757z"/>
			<path style="opacity:0.4;fill:#FFFFFF;" d="M2186.722,2935.108l46.454,12.74h449.321c-0.434-7.35-4.523-13.553-10.776-16.693
				l-430.424,4.061C2241.297,2935.216,2200.638,2927.826,2186.722,2935.108z"/>
			<g>
				
					<linearGradient id="SVGID_00000158003862073702579240000013804886580999593092_" gradientUnits="userSpaceOnUse" x1="2019.9669" y1="2871.6257" x2="1885.3938" y2="2810.2415">
					<stop  offset="0" style="stop-color:#FCB148"/>
					<stop  offset="0.0521" style="stop-color:#FDBA46"/>
					<stop  offset="0.1424" style="stop-color:#FFC244"/>
					<stop  offset="0.3183" style="stop-color:#FFC444"/>
					<stop  offset="0.4849" style="stop-color:#FDB946"/>
					<stop  offset="0.7754" style="stop-color:#F99C4D"/>
					<stop  offset="0.8658" style="stop-color:#F8924F"/>
					<stop  offset="1" style="stop-color:#F8924F"/>
				</linearGradient>
				<path style="fill:url(#SVGID_00000158003862073702579240000013804886580999593092_);" d="M1894.113,2903.753
					c0.029,0,0.055,0,0.085,0c1.494-2.94,2.668-2.029,2.625-3.523c-0.029-0.905-2.673-91.342-0.008-128
					c2.311-31.757,7.629-37.518,8.1-37.948c1.168-0.654,1.7-2.182,1.19-3.46c-0.555-1.388-2.136-2.104-3.519-1.554
					c-1.956,0.783-8.544,6.12-11.169,42.223c-2.686,36.934-0.034,128.003-0.008,128.911
					C1891.453,2901.869,1892.656,2903.753,1894.113,2903.753z"/>
			</g>
			
				<linearGradient id="SVGID_00000158006446091986707120000012629478615539918245_" gradientUnits="userSpaceOnUse" x1="4905.4175" y1="2999.7773" x2="5163.25" y2="2745.5759" gradientTransform="matrix(-1 0 0 1 6905.2178 0)">
				<stop  offset="0" style="stop-color:#FCB148"/>
				<stop  offset="0.0521" style="stop-color:#FDBA46"/>
				<stop  offset="0.1424" style="stop-color:#FFC244"/>
				<stop  offset="0.3183" style="stop-color:#FFC444"/>
				<stop  offset="0.4849" style="stop-color:#FDB946"/>
				<stop  offset="0.7754" style="stop-color:#F99C4D"/>
				<stop  offset="0.8658" style="stop-color:#F8924F"/>
				<stop  offset="1" style="stop-color:#F8924F"/>
			</linearGradient>
			<path style="opacity:0.5;fill:url(#SVGID_00000158006446091986707120000012629478615539918245_);" d="M1736.261,2849.818
				l1.507-3.032c-3.601-63.374,14.632-104.926,32.498-129.913c11.261,0.65,26.339,6.254,25.202,31.808
				c-1.786,40.363,6.279,61.208,36.951,79.669c14.563,8.743,30.534,16.27,43.445,27.45c11.53,10.016,16.914,25.392,28.662,34.813
				c19.87,15.918,46.831,8.852,69.976,7.796c21.089-0.974,68.882-1.976,68.882,28.695c0,0.027,0,0.027,0,0.054
				c0,4.115,0.066,8.311,0.066,12.615c0,4.764,1.143,9.447,1.737,13.968l-219.402-40.633l-4.072-1.679
				c1.705-7.011,2.619-14.645,2.619-22.658c0-33.784-16.515-61.18-36.844-61.18c-18.571,0-33.921,22.821-36.467,52.491
				l-9.289-10.058C1736.714,2864.59,1734.67,2857.043,1736.261,2849.818z"/>
			<g>
				<g>
					
						<linearGradient id="SVGID_00000082368385949647793440000015855020245324481976_" gradientUnits="userSpaceOnUse" x1="4439.2339" y1="2679.5996" x2="4872.3652" y2="2679.5996" gradientTransform="matrix(-1 0 0 1 6905.2178 0)">
						<stop  offset="0" style="stop-color:#444B8C"/>
						<stop  offset="0.9964" style="stop-color:#3E4177"/>
					</linearGradient>
					<path style="fill:url(#SVGID_00000082368385949647793440000015855020245324481976_);" d="M2032.853,2630.359
						c0,0,28.884,73.915,36.086,84.743c0.677,1.001,1.544,2.497,2.572,3.363c9.988,8.337,34.433,10.374,34.433,10.374h360.04
						c-80.318-61.734-148.889-98.48-148.889-98.48H2032.853z"/>
					<g>
						
							<linearGradient id="SVGID_00000098191313485130078990000005682257903144151683_" gradientUnits="userSpaceOnUse" x1="4950.2461" y1="2675.9429" x2="5093.668" y2="2675.9429" gradientTransform="matrix(-1 0 0 1 6905.2178 0)">
							<stop  offset="0" style="stop-color:#444B8C"/>
							<stop  offset="0.9964" style="stop-color:#3E4177"/>
						</linearGradient>
						<path style="fill:url(#SVGID_00000098191313485130078990000005682257903144151683_);" d="M1811.55,2692.483
							c0,0,38.414,15.701,90.01,30.482c1.678-7.958,4.386-17.948,8.745-28.938c8.013-20.33,21.601-44.125,44.667-65.105
							c-17.842,1.299-38.74,4.764-60.774,12.453C1867.153,2650.794,1838.43,2666.576,1811.55,2692.483z"/>
						
							<linearGradient id="SVGID_00000003806392667200579470000007375141238128039569_" gradientUnits="userSpaceOnUse" x1="4848.0015" y1="2688.4868" x2="4990.4478" y2="2688.4868" gradientTransform="matrix(-1 0 0 1 6905.2178 0)">
							<stop  offset="0" style="stop-color:#444B8C"/>
							<stop  offset="0.9964" style="stop-color:#3E4177"/>
						</linearGradient>
						<path style="fill:url(#SVGID_00000003806392667200579470000007375141238128039569_);" d="M1914.77,2726.646
							c25.717,6.957,53.98,13.4,82.024,17.514c15.973,2.328,31.863,3.899,47.157,4.359c4.468,0.135,8.906,0.189,13.266,0.135
							c0,0,0-0.027-0.027-0.054c-0.677-2.87-28.046-115.051-53.438-118.38c-5.848-0.758-15.079-1.733-26.719-1.922
							c-27.422,20.276-43.287,45.478-52.381,67.027C1919.534,2707.426,1916.531,2718.363,1914.77,2726.646z"/>
					</g>
				</g>
				
					<linearGradient id="SVGID_00000040547518491046980510000010890478090035120804_" gradientUnits="userSpaceOnUse" x1="4533.8516" y1="2824.8091" x2="4739.9941" y2="2621.5693" gradientTransform="matrix(-1 0 0 1 6905.2178 0)">
					<stop  offset="0" style="stop-color:#444B8C"/>
					<stop  offset="0.9964" style="stop-color:#3E4177"/>
				</linearGradient>
				<path style="opacity:0.3;fill:url(#SVGID_00000040547518491046980510000010890478090035120804_);" d="M2071.51,2718.431
					c9.988,8.338,34.433,10.409,34.433,10.409h360.04c-80.318-61.734-148.889-98.48-148.889-98.48h-5.089
					c-7.96,2.94-15.756,10.021-22.658,19.848C2261.492,2689.92,2107.596,2659.823,2071.51,2718.431z"/>
				
					<linearGradient id="SVGID_00000042710054085073517250000000509624477968199835_" gradientUnits="userSpaceOnUse" x1="4851.23" y1="2751.9292" x2="4858.0244" y2="2745.2302" gradientTransform="matrix(-1 0 0 1 6905.2178 0)">
					<stop  offset="0" style="stop-color:#444B8C"/>
					<stop  offset="0.9964" style="stop-color:#3E4177"/>
				</linearGradient>
				<path style="opacity:0.3;fill:url(#SVGID_00000042710054085073517250000000509624477968199835_);" d="M2043.951,2748.519
					c4.468,0.135,8.906,0.189,13.266,0.135c0,0,0-0.027-0.027-0.054C2053.589,2748.573,2049.122,2748.546,2043.951,2748.519z"/>
				
					<linearGradient id="SVGID_00000047746913383479369500000017700081270388107704_" gradientUnits="userSpaceOnUse" x1="4922.0825" y1="2758.0142" x2="4983.0801" y2="2697.8755" gradientTransform="matrix(-1 0 0 1 6905.2178 0)">
					<stop  offset="0" style="stop-color:#444B8C"/>
					<stop  offset="0.9964" style="stop-color:#3E4177"/>
				</linearGradient>
				<path style="opacity:0.3;fill:url(#SVGID_00000047746913383479369500000017700081270388107704_);" d="M1924.652,2695.325
					c-5.118,12.1-8.121,23.037-9.882,31.321c25.717,6.957,53.98,13.4,82.024,17.514c-3.952-3.925-7.606-8.878-10.799-15.078
					C1972.052,2702.147,1947.445,2697.518,1924.652,2695.325z"/>
				
					<linearGradient id="SVGID_00000022528088686852231100000005823544943645158543_" gradientUnits="userSpaceOnUse" x1="4999.6406" y1="2718.8896" x2="5060.5234" y2="2658.8645" gradientTransform="matrix(-1 0 0 1 6905.2178 0)">
					<stop  offset="0" style="stop-color:#444B8C"/>
					<stop  offset="0.9964" style="stop-color:#3E4177"/>
				</linearGradient>
				<path style="opacity:0.3;fill:url(#SVGID_00000022528088686852231100000005823544943645158543_);" d="M1811.55,2692.483
					c0,0,38.414,15.701,90.01,30.482c1.678-7.958,4.386-17.948,8.745-28.938c-13.752-1.38-25.638-3.519-32.432-11.695
					c-11.912-14.402,2.868-30.536,16.324-40.958C1867.153,2650.794,1838.43,2666.576,1811.55,2692.483z"/>
			</g>
			<g>
				
					<linearGradient id="SVGID_00000081621641086140888960000015760586945805157021_" gradientUnits="userSpaceOnUse" x1="4874.9917" y1="2752.405" x2="4960.1621" y2="2668.4343" gradientTransform="matrix(-1 0 0 1 6905.2178 0)">
					<stop  offset="0" style="stop-color:#FCB148"/>
					<stop  offset="0.0521" style="stop-color:#FDBA46"/>
					<stop  offset="0.1424" style="stop-color:#FFC244"/>
					<stop  offset="0.3183" style="stop-color:#FFC444"/>
					<stop  offset="0.4849" style="stop-color:#FDB946"/>
					<stop  offset="0.7754" style="stop-color:#F99C4D"/>
					<stop  offset="0.8658" style="stop-color:#F8924F"/>
					<stop  offset="1" style="stop-color:#F8924F"/>
				</linearGradient>
				<path style="fill:url(#SVGID_00000081621641086140888960000015760586945805157021_);" d="M2058.205,2753.926
					c0,0-11.396-44.984-27.591-46.784c-16.194-1.799-62.378-14.995-66.577,7.198c-4.198,22.192,4.199,33.264,27.591,34.626
					c23.392,1.362,38.986,0,38.986,0l10.796,11.558C2041.411,2760.524,2058.805,2772.52,2058.205,2753.926z"/>
				
					<linearGradient id="SVGID_00000046325092881837621480000018101374341061489082_" gradientUnits="userSpaceOnUse" x1="2215.7153" y1="2812.4314" x2="2042.7762" y2="2740.4226">
					<stop  offset="0" style="stop-color:#FCB148"/>
					<stop  offset="0.0521" style="stop-color:#FDBA46"/>
					<stop  offset="0.1424" style="stop-color:#FFC244"/>
					<stop  offset="0.3183" style="stop-color:#FFC444"/>
					<stop  offset="0.4849" style="stop-color:#FDB946"/>
					<stop  offset="0.7754" style="stop-color:#F99C4D"/>
					<stop  offset="0.8658" style="stop-color:#F8924F"/>
					<stop  offset="1" style="stop-color:#F8924F"/>
				</linearGradient>
				<path style="fill:url(#SVGID_00000046325092881837621480000018101374341061489082_);" d="M2063.603,2753.926
					c0,0-11.396-44.984-27.59-46.784c-16.194-1.799-62.378-14.995-66.577,7.198c-4.198,22.192,4.199,33.264,27.59,34.626
					c23.392,1.362,38.987,0,38.987,0l10.796,11.558C2046.809,2760.524,2064.203,2772.52,2063.603,2753.926z"/>
			</g>
		</g>
		<g>
			
				<linearGradient id="SVGID_00000026856912930598725480000018132660897739328423_" gradientUnits="userSpaceOnUse" x1="2266.7773" y1="1451.4464" x2="1860.3053" y2="1581.8956">
				<stop  offset="0" style="stop-color:#FCB148"/>
				<stop  offset="0.0521" style="stop-color:#FDBA46"/>
				<stop  offset="0.1424" style="stop-color:#FFC244"/>
				<stop  offset="0.3183" style="stop-color:#FFC444"/>
				<stop  offset="0.4849" style="stop-color:#FDB946"/>
				<stop  offset="0.7754" style="stop-color:#F99C4D"/>
				<stop  offset="0.8658" style="stop-color:#F8924F"/>
				<stop  offset="1" style="stop-color:#F8924F"/>
			</linearGradient>
			<path style="fill:url(#SVGID_00000026856912930598725480000018132660897739328423_);" d="M2734.713,1436.698
				c0,188.567-147.448,336.904-335.904,331.116c-196.126-6.022-361.075-175.406-361.075-378.104s164.949-349.841,361.075-329.419
				C2587.265,1079.913,2734.713,1248.13,2734.713,1436.698z"/>
			
				<linearGradient id="SVGID_00000096024541637917839520000003167943239817449904_" gradientUnits="userSpaceOnUse" x1="2595.5898" y1="1046.8444" x2="2232.7166" y2="1847.4105">
				<stop  offset="0" style="stop-color:#FFDB44"/>
				<stop  offset="1" style="stop-color:#FEEF06"/>
			</linearGradient>
			<path style="fill:url(#SVGID_00000096024541637917839520000003167943239817449904_);" d="M2785.637,1420.438
				c0,188.567-147.448,336.903-335.904,331.117c-196.126-6.023-361.075-175.407-361.075-378.105
				c0-202.698,164.949-349.842,361.075-329.42C2638.19,1063.654,2785.637,1231.871,2785.637,1420.438z"/>
			
				<linearGradient id="SVGID_00000052783776977828969470000015320911042312081546_" gradientUnits="userSpaceOnUse" x1="2528.8391" y1="1892.1541" x2="2458.822" y2="1509.653">
				<stop  offset="0" style="stop-color:#FCB148"/>
				<stop  offset="0.0521" style="stop-color:#FDBA46"/>
				<stop  offset="0.1424" style="stop-color:#FFC244"/>
				<stop  offset="0.3183" style="stop-color:#FFC444"/>
				<stop  offset="0.4849" style="stop-color:#FDB946"/>
				<stop  offset="0.7754" style="stop-color:#F99C4D"/>
				<stop  offset="0.8658" style="stop-color:#F8924F"/>
				<stop  offset="1" style="stop-color:#F8924F"/>
			</linearGradient>
			<path style="fill:url(#SVGID_00000052783776977828969470000015320911042312081546_);" d="M2770.846,1419.441
				c0,180.264-141.081,321.828-321.112,315.998c-187.019-6.056-344.04-167.707-344.04-360.841
				c0-193.135,157.021-333.614,344.04-314.453C2629.765,1078.591,2770.846,1239.177,2770.846,1419.441z"/>
			
				<linearGradient id="SVGID_00000101801573358429170600000001469064824795457930_" gradientUnits="userSpaceOnUse" x1="2380.3892" y1="1273.0339" x2="2668.939" y2="1885.5702">
				<stop  offset="0" style="stop-color:#FCB148"/>
				<stop  offset="0.0521" style="stop-color:#FDBA46"/>
				<stop  offset="0.1424" style="stop-color:#FFC244"/>
				<stop  offset="0.3183" style="stop-color:#FFC444"/>
				<stop  offset="0.4849" style="stop-color:#FDB946"/>
				<stop  offset="0.7754" style="stop-color:#F99C4D"/>
				<stop  offset="0.8658" style="stop-color:#F8924F"/>
				<stop  offset="1" style="stop-color:#F8924F"/>
			</linearGradient>
			<path style="fill:url(#SVGID_00000101801573358429170600000001469064824795457930_);" d="M2760.251,1418.727
				c0,174.316-136.513,311.044-310.518,305.202c-180.523-6.061-331.907-162.189-331.907-348.512s151.384-322.04,331.907-303.76
				C2623.738,1089.276,2760.251,1244.411,2760.251,1418.727z"/>
			<g>
				
					<linearGradient id="SVGID_00000109749449497301292550000017395681570109511055_" gradientUnits="userSpaceOnUse" x1="2368.8933" y1="1141.224" x2="2513.9861" y2="1685.0065">
					<stop  offset="0" style="stop-color:#FFDB44"/>
					<stop  offset="1" style="stop-color:#FEEF06"/>
				</linearGradient>
				<path style="fill:url(#SVGID_00000109749449497301292550000017395681570109511055_);" d="M2447.952,1130.959L2447.952,1130.959
					c9.26,0.881,16.754,9.217,16.754,18.62v32.095c18.515,2.067,37.056,5.286,55.624,9.649c13.69,3.217,27.289,7.048,40.796,11.488
					c8.093,2.661,13.608,10.832,12.782,19.26l-3.942,40.246c-1.046,10.678-11.601,16.948-21.537,12.517
					c-8.897-3.967-18.019-7.366-27.368-10.195c-16.313-4.936-33.518-8.155-51.621-9.647l-4.734-0.39v91.914
					c48.304,13.514,83.777,31.695,106.702,54.562c22.815,22.757,34.182,51.12,34.182,85.17c0,36.822-12.567,66.306-37.802,88.542
					c-25.369,22.355-60.937,34.929-106.932,37.651v35.424c0,9.408-7.5,16.736-16.767,16.367l-0.298-0.011
					c-9.286-0.369-16.827-8.322-16.827-17.763v-34.943l-7.464-0.337c-21.562-0.973-42.216-3.172-61.948-6.605
					c-14.614-2.542-28.885-5.823-42.81-9.845c-8.421-2.433-14.202-10.455-13.429-19.073l4.637-51.734
					c1.002-11.184,12.237-17.692,22.871-13.497c12.396,4.89,24.947,9.009,37.65,12.359c19.797,5.221,39.864,8.569,60.195,10.057
					l0.298-102.243c-46.366-11.473-81.079-28.466-103.886-50.974c-22.913-22.614-34.41-51.555-34.41-86.743
					c0-36.416,12.467-64.525,37.305-84.253c24.713-19.627,59.843-29.392,105.166-29.368v-32.811
					C2431.139,1137.01,2438.674,1130.077,2447.952,1130.959z M2431.139,1253.651c-14.329,1.043-25.504,4.978-33.501,11.812
					c-8.011,6.845-12.021,16.044-12.021,27.59c0,10.938,3.709,20.081,11.121,27.42c7.4,7.328,18.877,13.179,34.402,17.55V1253.651z
					 M2460.856,1438.79v93.76c15.578,0.03,27.522-3.689,35.861-11.147c8.324-7.446,12.481-17.963,12.481-31.562
					c0-12.398-3.863-22.681-11.598-30.858C2489.851,1450.793,2477.615,1444.063,2460.856,1438.79z"/>
			</g>
			
				<linearGradient id="SVGID_00000017513854767299860750000014726576895288867225_" gradientUnits="userSpaceOnUse" x1="2295.4988" y1="1312.6743" x2="2583.4668" y2="1923.9753">
				<stop  offset="0" style="stop-color:#FCB148"/>
				<stop  offset="0.0521" style="stop-color:#FDBA46"/>
				<stop  offset="0.1424" style="stop-color:#FFC244"/>
				<stop  offset="0.3183" style="stop-color:#FFC444"/>
				<stop  offset="0.4849" style="stop-color:#FDB946"/>
				<stop  offset="0.7754" style="stop-color:#F99C4D"/>
				<stop  offset="0.8658" style="stop-color:#F8924F"/>
				<stop  offset="1" style="stop-color:#F8924F"/>
			</linearGradient>
			<path style="opacity:0.3;fill:url(#SVGID_00000017513854767299860750000014726576895288867225_);" d="M2393.542,1461.414
				c10.492-103.619,105.721-147.484,93.294-242.797c-7.659-58.745-52.186-108.253-101.855-146.908
				c-150.656,15.799-267.154,140.547-267.154,303.708c0,186.324,151.384,342.451,331.907,348.513
				c17.528,0.588,34.646-0.323,51.292-2.505C2429.332,1650.084,2384.529,1550.436,2393.542,1461.414z"/>
		</g>
		<g>
			
				<linearGradient id="SVGID_00000151506250989895864290000018270399585004942497_" gradientUnits="userSpaceOnUse" x1="4695.3672" y1="3089.1919" x2="4710.1201" y2="3276.9578" gradientTransform="matrix(-1 0 0 1 6133.1396 0)">
				<stop  offset="0.0036" style="stop-color:#26264F"/>
				<stop  offset="1" style="stop-color:#444B8C"/>
			</linearGradient>
			<path style="fill:url(#SVGID_00000151506250989895864290000018270399585004942497_);" d="M1409,3182.834
				c0,0,59.387,26.991,60.357,31.3c0.97,4.308-38.192-1.445-54.179-0.823c-15.988,0.621-29.139-4.104-27.692-10.875
				c1.448-6.772,7.044-23.804,7.044-23.804L1409,3182.834z"/>
			
				<linearGradient id="SVGID_00000109027091197003354670000014383296012764964002_" gradientUnits="userSpaceOnUse" x1="4733.4536" y1="3193.7275" x2="4730.7715" y2="2999.259" gradientTransform="matrix(-1 0 0 1 6133.1396 0)">
				<stop  offset="0" style="stop-color:#893976"/>
				<stop  offset="1" style="stop-color:#311944"/>
			</linearGradient>
			<path style="fill:url(#SVGID_00000109027091197003354670000014383296012764964002_);" d="M1411.172,3160.93l-3.612,26.738
				c0,0-9.402,3.347-15.718-0.61l-2.694-29.326L1411.172,3160.93z"/>
			
				<linearGradient id="SVGID_00000179609993787585053470000001311551076140964749_" gradientUnits="userSpaceOnUse" x1="4974.1655" y1="3067.2874" x2="4988.9185" y2="3255.0518" gradientTransform="matrix(-1 0 0 1 6133.1396 0)">
				<stop  offset="0.0036" style="stop-color:#26264F"/>
				<stop  offset="1" style="stop-color:#444B8C"/>
			</linearGradient>
			<path style="fill:url(#SVGID_00000179609993787585053470000001311551076140964749_);" d="M1131.498,3161.571l-6.908,11.09
				c-1.932,3.101-2.507,6.834-1.581,10.369c2.415,9.222,7.24,27.193,9.344,31.88c2.865,6.383,41.296,10.175,41.296,10.175
				s3.428-4.823-4.552-10.648c-7.979-5.824-13.108-6.741-15.924-15.337c-2.815-8.595-4.695-32.909-4.695-32.909L1131.498,3161.571z"
				/>
			
				<linearGradient id="SVGID_00000159427936439171741410000009112743904996833432_" gradientUnits="userSpaceOnUse" x1="4988.96" y1="3190.2039" x2="4986.2778" y2="2995.7312" gradientTransform="matrix(-1 0 0 1 6133.1396 0)">
				<stop  offset="0" style="stop-color:#893976"/>
				<stop  offset="1" style="stop-color:#311944"/>
			</linearGradient>
			<path style="fill:url(#SVGID_00000159427936439171741410000009112743904996833432_);" d="M1160.25,3133.391
				c-2.523,2.011-14.867,39.476-14.867,39.476s-3.995,5.109-11.585-2.431c-7.589-7.54-3.434-3.382-3.434-3.382l1.423-36.848
				L1160.25,3133.391z"/>
			
				<linearGradient id="SVGID_00000025411060435440413810000001910966084907086247_" gradientUnits="userSpaceOnUse" x1="4060.7803" y1="2878.6914" x2="4204.5664" y2="2878.6914" gradientTransform="matrix(-1 0 0 1 5506.877 0)">
				<stop  offset="0" style="stop-color:#FF9085"/>
				<stop  offset="1" style="stop-color:#FB6FBB"/>
			</linearGradient>
			<path style="fill:url(#SVGID_00000025411060435440413810000001910966084907086247_);" d="M1443.848,2623.742
				c3.133,79.76,3.261,166.415-1.329,258.989c-5.166,104.246-15.55,200.595-28.636,287.935c-4.865,0.156-9.976,0.181-15.316,0.031
				c-3.606-0.1-7.1-0.276-10.476-0.509c-6.791-18.111-14.818-41.927-22.006-70.374c-7.556-29.912-12.115-56.744-15.364-82.401
				c-11.436-90.339,1.966-98.22-7.315-165.171c-8.219-59.294-19.909-61.609-33.631-145.793
				c-14.889-91.343-3.805-105.047,1.585-109.997C1334.305,2575.378,1388.203,2589.726,1443.848,2623.742z"/>
			
				<linearGradient id="SVGID_00000122705340290546087240000016299973287058599563_" gradientUnits="userSpaceOnUse" x1="4070.7224" y1="2878.6975" x2="4204.5654" y2="2878.6975" gradientTransform="matrix(-1 0 0 1 5506.877 0)">
				<stop  offset="0" style="stop-color:#FF9085"/>
				<stop  offset="1" style="stop-color:#FB6FBB"/>
			</linearGradient>
			<path style="opacity:0.3;fill:url(#SVGID_00000122705340290546087240000016299973287058599563_);" d="M1311.359,2596.453
				c21.885-20.102,71.934-7.932,124.796,22.746c-60.812,65.702-67.442,108.325-60.151,135.979
				c8.239,31.256,33.289,40.259,33.194,74.436c-0.118,42-38.023,53.126-37.218,97.57c0.533,29.389,17.19,29.084,21.123,65.382
				c4.654,42.948-17.106,57.747-10.058,89.524c3.032,13.671,11.687,31.534,36.336,49.936c-1.777,13.049-3.6,25.966-5.499,38.64
				c-4.862,0.153-9.975,0.18-15.315,0.029c-3.606-0.099-7.101-0.275-10.476-0.508c-6.791-18.111-14.819-41.926-22.006-70.373
				c-7.556-29.913-12.115-56.744-15.364-82.402c-11.435-90.338,1.966-98.22-7.315-165.171c-8.219-59.294-19.909-61.61-33.63-145.794
				C1294.887,2615.105,1305.969,2601.402,1311.359,2596.453z"/>
			
				<linearGradient id="SVGID_00000085230410477209900100000015743639561198634389_" gradientUnits="userSpaceOnUse" x1="4100.6982" y1="2864.5181" x2="4390.1548" y2="2864.5181" gradientTransform="matrix(-1 0 0 1 5506.877 0)">
				<stop  offset="0" style="stop-color:#FF9085"/>
				<stop  offset="1" style="stop-color:#FB6FBB"/>
			</linearGradient>
			<path style="fill:url(#SVGID_00000085230410477209900100000015743639561198634389_);" d="M1406.179,2622.403
				c-52.362,76.616-108.84,171.968-159.347,286.1c-38.169,86.251-65.852,167.232-86.177,239.404
				c-2.75,1.274-9.238,3.814-17.529,2.718c-11.307-1.495-18.085-8.713-19.856-10.728c-8.272-51.738-7.361-95.555-4.552-127.179
				c1.798-20.248,4.979-53.966,17.885-95.591c14.456-46.627,24.394-49.248,43.253-98.577
				c19.575-51.202,14.833-63.979,33.579-128.056c7.7-26.323,20.591-65.494,41.862-112.35
				C1305.592,2592.896,1355.886,2607.65,1406.179,2622.403z"/>
			
				<linearGradient id="SVGID_00000174582506897208160610000006933091595042518165_" gradientUnits="userSpaceOnUse" x1="4201.2178" y1="1414.1512" x2="4467.6841" y2="1658.0353" gradientTransform="matrix(-0.9708 0.2397 0.2397 0.9708 4886.6543 -120.2969)">
				<stop  offset="0.0036" style="stop-color:#26264F"/>
				<stop  offset="1" style="stop-color:#444B8C"/>
			</linearGradient>
			<path style="fill:url(#SVGID_00000174582506897208160610000006933091595042518165_);" d="M1381.632,2294.768
				c48.033-46.651,73.019-48.811,82.019-82.278c8.901-33.102-2.548-79.307-35.23-97.214c-39.031-21.385-76.49,2.452-106.017,28.181
				c-33.927,29.563-62.282,52.584-109.677,53.274c-40.269,0.586-80.438-6.667-120.602-0.657
				c-11.503,1.726-22.688,4.735-33.357,9.417c-43.62,19.141-31.466,85.666-75.866,100.915
				c-29.675,10.191-43.934-16.492-85.758-14.481c-49.146,2.361-93.85,42.302-114.515,82.549
				c-37.769,73.563-1.565,160.496,45.046,207.509c38.291,38.623,109.433,76.358,155.749,53.022
				c36.59-18.436,38.419-65.274,72.854-69.162c24.483-2.762,31.032,20.07,61.997,25.006c50.848,8.107,98.517-43.051,111.519-57.006
				c37.062-39.776,25.465-56.496,68.155-128.429C1314.812,2376.999,1339.096,2336.077,1381.632,2294.768z"/>
			
				<linearGradient id="SVGID_00000092453715789785417080000005124917965875337656_" gradientUnits="userSpaceOnUse" x1="4101.7798" y1="1835.6034" x2="4438.4224" y2="2486.6436" gradientTransform="matrix(-0.9948 0.1018 0.1018 0.9948 5316.3906 -26.8702)">
				<stop  offset="0" style="stop-color:#FFC444"/>
				<stop  offset="0.9964" style="stop-color:#F36F56"/>
			</linearGradient>
			<path style="fill:url(#SVGID_00000092453715789785417080000005124917965875337656_);" d="M1548.032,2288.043
				c40.524,44.54,70.479,118.656,46.503,144.914c-8.255,9.04-21.301,10.653-31.362,11.896
				c-42.993,5.314-63.424-26.323-80.228-18.098c-21.584,10.565-8.808,75.615-3.828,125.233
				c8.783,87.51,32.213,102.889,16.636,132.977c-20.276,39.164-77.746,47.414-93.279,49.646
				c-53.123,7.627-62.046-17.071-120.239-14.173c-66.46,3.308-72.586,36.409-121.266,27.542
				c-44.47-8.101-62.412-39.922-95.335-29.584c-20.578,6.46-24.583,22.351-44.584,22.722c-20.098,0.373-42.506-15.182-45.764-33.15
				c-4.049-22.333,20.562-53.508,63.676-57.966c17.75,4.262,46.865,8.326,77.66-2.65c50.457-17.985,72.871-64.749,97.766-116.689
				c17.223-35.93,48.878-101.972,40.99-183.512c-3.253-33.626-10.61-42.809-3.289-61.708
				c10.164-26.237,74.781-67.069,149.909-64.636C1411.887,2221.125,1490.605,2224.925,1548.032,2288.043z"/>
			<g>
				
					<linearGradient id="SVGID_00000145741428365522067250000018163861103532894862_" gradientUnits="userSpaceOnUse" x1="4080.2634" y1="2048.748" x2="3997.8442" y2="2185.3606" gradientTransform="matrix(-0.9948 0.1018 0.1018 0.9948 5316.3906 -26.8702)">
					<stop  offset="0.0036" style="stop-color:#6165D7"/>
					<stop  offset="1" style="stop-color:#AA80F9"/>
				</linearGradient>
				<path style="fill:url(#SVGID_00000145741428365522067250000018163861103532894862_);" d="M1584.483,2343.76l-144.356,20.49
					c-1.584,0.225-2.874,1.389-3.26,2.941l-48.891,196.395c-0.701,2.817,3.064,9.299,5.904,8.696l141.299-34.159
					c1.441-0.306,2.591-1.393,2.976-2.815l52.94-184.06C1591.834,2348.523,1587.278,2343.363,1584.483,2343.76z"/>
				
					<linearGradient id="SVGID_00000072959313805274708390000014540825758762668431_" gradientUnits="userSpaceOnUse" x1="4138.3721" y1="2042.5927" x2="3928.3699" y2="2154.3679" gradientTransform="matrix(-0.9948 0.1018 0.1018 0.9948 5316.3906 -26.8702)">
					<stop  offset="0" style="stop-color:#AA80F9"/>
					<stop  offset="0.9964" style="stop-color:#6165D7"/>
				</linearGradient>
				<path style="fill:url(#SVGID_00000072959313805274708390000014540825758762668431_);" d="M1587.206,2348.165l-144.355,20.49
					c-1.585,0.225-2.875,1.389-3.261,2.941l-48.89,196.395c-0.701,2.817,1.789,5.396,4.629,4.793l142.574-30.256
					c1.441-0.306,2.59-1.393,2.976-2.814l50.672-186.628C1592.291,2350.361,1590.001,2347.768,1587.206,2348.165z"/>
				
					<linearGradient id="SVGID_00000166668832938318746790000013177354499359236993_" gradientUnits="userSpaceOnUse" x1="4040.4368" y1="1905.9006" x2="4015.5984" y2="1987.1897" gradientTransform="matrix(-0.9948 0.1018 0.1018 0.9948 5316.3906 -26.8702)">
					<stop  offset="0.0036" style="stop-color:#26264F"/>
					<stop  offset="1" style="stop-color:#444B8C"/>
				</linearGradient>
				<path style="fill:url(#SVGID_00000166668832938318746790000013177354499359236993_);" d="M1548.296,2359.275l4.04-15.671
					c0.365-1.415-0.792-2.76-2.246-2.611l-52.756,5.399c-0.909,0.093-1.654,0.764-1.84,1.659l-3.595,17.244
					c-0.296,1.417,0.897,2.7,2.331,2.509l52.311-6.973C1547.389,2360.719,1548.083,2360.103,1548.296,2359.275z"/>
				
					<linearGradient id="SVGID_00000160163260732627058540000009556033266364220073_" gradientUnits="userSpaceOnUse" x1="4130.6704" y1="2028.1237" x2="3920.6687" y2="2139.8987" gradientTransform="matrix(-0.9948 0.1018 0.1018 0.9948 5316.3906 -26.8702)">
					<stop  offset="0" style="stop-color:#AA80F9"/>
					<stop  offset="0.9964" style="stop-color:#6165D7"/>
				</linearGradient>
				<path style="opacity:0.3;fill:url(#SVGID_00000160163260732627058540000009556033266364220073_);" d="M1474.426,2518.358
					c6.29-31.49-11.238-49.783,2.147-75.125c18.934-35.843,68.44-26.56,80.608-55.163c3.282-7.713,4.095-18.79-3.077-35.208
					l33.102-4.696c2.795-0.397,5.084,2.193,4.344,4.919l-50.672,186.628c-0.386,1.423-1.535,2.507-2.976,2.814l-86.65,18.391
					C1465.464,2545.712,1471.871,2531.157,1474.426,2518.358z"/>
			</g>
			
				<linearGradient id="SVGID_00000106860547953243570820000012935990294287589276_" gradientUnits="userSpaceOnUse" x1="4106.2227" y1="2114.1592" x2="4187.5225" y2="2114.1592" gradientTransform="matrix(-0.9948 0.1018 0.1018 0.9948 5316.3906 -26.8702)">
				<stop  offset="0" style="stop-color:#893976"/>
				<stop  offset="1" style="stop-color:#311944"/>
			</linearGradient>
			<path style="fill:url(#SVGID_00000106860547953243570820000012935990294287589276_);" d="M1366.266,2506.507
				c0,0,21.455-6.599,29.358-12.779c7.903-6.184,15.986-15.642,28.487-16.452c12.501-0.806,25.682,4.241,20.077,6.285
				c-5.604,2.04-15.182,14.552-22.932,19.886c-7.75,5.333-26.467,7.658-29.986,7.772c-3.518,0.113-16.46,9.818-16.46,9.818
				L1366.266,2506.507z"/>
			
				<linearGradient id="SVGID_00000098179281996531746300000010891143075760853416_" gradientUnits="userSpaceOnUse" x1="4097.8428" y1="1826.7977" x2="4439.5649" y2="2487.6597" gradientTransform="matrix(-0.9948 0.1018 0.1018 0.9948 5316.3906 -26.8702)">
				<stop  offset="0" style="stop-color:#FFC444"/>
				<stop  offset="0.9964" style="stop-color:#F36F56"/>
			</linearGradient>
			<path style="opacity:0.3;fill:url(#SVGID_00000098179281996531746300000010891143075760853416_);" d="M1038.963,2650.002
				c17.75,4.261,46.865,8.326,77.66-2.651c50.457-17.985,72.872-64.75,97.766-116.689c17.223-35.93,48.878-101.972,40.99-183.513
				c-3.253-33.626-10.61-42.809-3.289-61.708c1.165-3.005,2.612-5.835,4.197-8.569c24.156,12.96,34.483,27.357,38.418,40.525
				c9.577,32.048-17.072,61.782,1.104,88.411c17.41,25.505,52.854,14.328,62.772,36.702c10.701,24.139-27.831,43.302-25.648,82.07
				c2.619,46.525,60.623,63.505,54.034,95.478c-5.712,27.712-52.508,30.546-51.011,44.943c1.78,17.116,70.52,37.918,124.838,11.056
				c16.462-8.14,28.63-19.209,37.464-29.543c3.652,14.872,4.33,25.248-2.505,38.449c-20.276,39.164-77.746,47.414-93.279,49.646
				c-53.123,7.627-62.046-17.071-120.239-14.174c-66.46,3.309-72.586,36.41-121.266,27.542
				c-44.47-8.101-62.412-39.922-95.335-29.584c-20.578,6.46-24.583,22.351-44.584,22.722c-20.098,0.373-42.506-15.183-45.764-33.15
				C971.237,2685.634,995.849,2654.459,1038.963,2650.002z"/>
			
				<linearGradient id="SVGID_00000161622279619520793640000004980194554300821897_" gradientUnits="userSpaceOnUse" x1="4182.5547" y1="1811.9976" x2="4537.2739" y2="2628.3179" gradientTransform="matrix(-0.9948 0.1018 0.1018 0.9948 5316.3906 -26.8702)">
				<stop  offset="0" style="stop-color:#FFC444"/>
				<stop  offset="0.2466" style="stop-color:#FCAF48"/>
				<stop  offset="0.9964" style="stop-color:#F36F56"/>
			</linearGradient>
			<path style="fill:url(#SVGID_00000161622279619520793640000004980194554300821897_);" d="M1365.899,2497.373
				c7.965,11.292,15.93,22.58,23.895,33.872c-9.869,6.153-115.568,70.077-201.406,26.288c-10.613-5.413-38.819-19.803-56.506-51.823
				c-19.494-35.293-14.189-70.504-10.75-93.373c8.511-56.611,42.629-118.573,97.058-147.636
				c20.79-11.101,46.093-18.231,69.894-24.936c20.183-5.688,52.032-13.385,53.039-10.344c0.491,1.483-6.815,4.191-11.725,7.673
				c-30.157,21.382,18.138,92-15.812,131.713c-32.522,38.042-79.875,37.156-84.227,69.06c-2.023,14.833,6.564,27.111,10.389,32.581
				C1261.092,2500.967,1311.11,2510.487,1365.899,2497.373z"/>
			
				<linearGradient id="SVGID_00000101793147074867200920000013515238896040654733_" gradientUnits="userSpaceOnUse" x1="4322.3896" y1="2428.1948" x2="4417.979" y2="2289.436" gradientTransform="matrix(-0.9945 -0.1047 -0.1047 0.9945 5966.043 280.4381)">
				<stop  offset="0" style="stop-color:#893976"/>
				<stop  offset="1" style="stop-color:#311944"/>
			</linearGradient>
			<path style="fill:url(#SVGID_00000101793147074867200920000013515238896040654733_);" d="M1408.148,2165.831
				c0,0-9.164,39.258-24.806,46.828c-15.643,7.564-40.632,16.971-43.587,19.929c-2.955,2.952,89.56,22.863,138.395,4.344
				c-14.946-4.795-18.977-6.405-18.977-6.405c-4.025-1.61-11.532-4.604-18.823-9.84c-4.962-3.561-12.854-10.331-19.491-22.242
				l2.489-22.01L1408.148,2165.831z"/>
			
				<linearGradient id="SVGID_00000175304242140302180020000018005809917173094537_" gradientUnits="userSpaceOnUse" x1="4313.7256" y1="2357.8135" x2="4464.8193" y2="2266.8489" gradientTransform="matrix(-0.9945 -0.1047 -0.1047 0.9945 5966.043 280.4381)">
				<stop  offset="0" style="stop-color:#893976"/>
				<stop  offset="1" style="stop-color:#311944"/>
			</linearGradient>
			<path style="fill:url(#SVGID_00000175304242140302180020000018005809917173094537_);" d="M1404.432,2179.686
				c0,0,8.191,14.148,23.779,10.252c13.96-3.488,9.591-39.052-0.655-44.135c-3.416-1.695-10.01-1.798-14.662,0.466
				c-3.273,1.591-12.544,10.915-9.046,22.824c-3.292-1.341-6.375-0.763-7.3,0.841c-1.176,2.033,1.395,5.241,1.976,5.967
				C1400.542,2178.42,1403.198,2179.346,1404.432,2179.686z"/>
			
				<linearGradient id="SVGID_00000054261698132981284110000017954258687615990195_" gradientUnits="userSpaceOnUse" x1="3936.313" y1="2374.2188" x2="3950.0283" y2="2400.7429" gradientTransform="matrix(-1 0 0 1 5506.877 0)">
				<stop  offset="0" style="stop-color:#893976"/>
				<stop  offset="1" style="stop-color:#311944"/>
			</linearGradient>
			<path style="fill:url(#SVGID_00000054261698132981284110000017954258687615990195_);" d="M1576.964,2406.81
				c0,0,11.899-22.788,0-29.277c-11.899-6.489-31.365,0-31.365,0s2.888,5.665,11.583,10.538
				C1565.876,2392.943,1576.964,2406.81,1576.964,2406.81z"/>
		</g>
	</g>
</g>
</svg>
