<?xml version="1.0" encoding="utf-8"?>
<!-- Generator: Adobe Illustrator 27.5.0, SVG Export Plug-In . SVG Version: 6.00 Build 0)  -->
<svg version="1.1" xmlns="http://www.w3.org/2000/svg" xmlns:xlink="http://www.w3.org/1999/xlink" x="0px" y="0px"
	 viewBox="0 0 3710 3710" style="enable-background:new 0 0 3710 3710;" xml:space="preserve">
<g id="Background">
	<g>
		<g>
			<rect style="fill:#FFFFFF;" width="3710" height="3710"/>
		</g>
	</g>
</g>
<g id="Illustration">
	<g>
		<linearGradient id="SVGID_1_" gradientUnits="userSpaceOnUse" x1="3406.4805" y1="3582.6311" x2="1376.7305" y2="1391.7897">
			<stop  offset="0" style="stop-color:#DAE3FE"/>
			<stop  offset="1" style="stop-color:#E9EFFD"/>
		</linearGradient>
		<path style="fill:url(#SVGID_1_);" d="M3123.622,2334.153c-278.903,651.902-1015.115,931.909-1591.949,884.167
			c-157.499-13.035-474.391-39.263-721.823-273.251c-475.176-449.359-401.994-1388.644,52.885-1941.643
			c58.579-71.215,464.055-548.347,1095.912-541.961c462.612,4.676,787.315,265.999,826.797,298.555
			c49.877,41.127,159.886,138.857,259.031,293.9C3277.43,1418.218,3297.908,1926.779,3123.622,2334.153z"/>
		<g>
			<path style="fill:#91B3FA;" d="M701.619,471.779c-45.393,224.838-256.121,1544.055,946.292,1964.162
				c0,0,362.3-832.776-914.36-1974.838C722.383,451.112,704.584,457.09,701.619,471.779z"/>
			<path style="opacity:0.45;fill:#FFFFFF;" d="M762.472,718.21c23.428,69.484,48.262,138.4,73.699,207.127
				c25.467,68.707,51.727,137.121,78.784,205.221c54.11,136.201,111.273,271.221,172.566,404.406
				c61.387,133.119,126.691,264.565,199.086,392.227c35.991,63.937,74.317,126.607,115.012,187.76
				c40.778,61.081,84.045,120.681,131.967,176.684c2.832,3.308,7.809,3.696,11.118,0.865c3.309-2.833,3.696-7.81,0.864-11.119
				l-0.026-0.031l-0.023-0.026c-47.642-55.095-90.903-114.022-131.746-174.524c-40.766-60.579-79.251-122.774-115.444-186.303
				c-72.799-126.837-138.653-257.674-200.624-390.254c-61.882-132.649-119.678-267.22-174.439-403.01
				c-27.383-67.896-53.974-136.115-79.774-204.632c-25.765-68.52-50.953-137.304-74.687-206.511l-0.01-0.029
				c-0.599-1.745-2.498-2.675-4.244-2.076C762.814,714.58,761.885,716.47,762.472,718.21z"/>
		</g>
		<g>
			<path style="fill:#91B3FA;" d="M1443.312,2525.712c0,0,15.341-223.815-189.334-470.097
				c-189.902-228.507-659.412-759.847-753.56-1039.192c-4.17-12.374-22.158-10.439-23.456,2.555
				c-13.925,139.384-21.366,491.216,188.555,860.453C936.221,2355.582,1443.312,2525.712,1443.312,2525.712z"/>
			<path style="opacity:0.45;fill:#FFFFFF;" d="M559.429,1273.468c1.242,30.966,6.336,61.679,13.096,91.912
				c0.825,3.788,1.576,7.594,2.461,11.367l2.881,11.263l5.779,22.538l6.715,22.275c2.307,7.404,4.305,14.921,7.063,22.172
				c20.085,58.705,44.967,115.858,74.715,170.379c6.881,13.944,15.191,27.075,22.993,40.5l11.842,20.061
				c2.019,3.315,3.848,6.752,6.023,9.968l6.399,9.728l25.605,38.921c4.126,6.589,8.926,12.7,13.48,18.987l13.798,18.764l13.8,18.764
				l6.929,9.361l7.35,9.029l29.406,36.12c4.945,5.977,9.708,12.137,14.803,17.962l15.258,17.502l30.517,35.004l30.909,34.657
				c10.339,11.519,20.567,23.141,31.071,34.509c20.853,22.88,41.84,45.636,63.077,68.152c21.094,22.655,42.544,44.959,63.878,67.375
				l64.67,66.563c43.146,44.315,86.361,88.534,128.016,134.09c10.576,11.257,20.562,22.996,30.759,34.575
				c5.171,5.734,9.932,11.786,14.837,17.73c4.84,5.993,9.852,11.864,14.554,17.96c9.139,12.382,18.761,24.458,27.01,37.453
				l6.437,9.588c1.05,1.612,2.199,3.167,3.169,4.826l2.88,4.997l11.537,20.005l0.044,0.075c0.462,0.801,1.486,1.076,2.287,0.614
				c0.772-0.445,1.053-1.417,0.659-2.203c-13.973-27.773-30.883-53.953-49.326-78.929c-4.6-6.251-9.499-12.262-14.237-18.408
				c-4.799-6.094-9.466-12.307-14.524-18.178c-9.975-11.862-19.765-23.91-30.112-35.436l-15.338-17.465
				c-5.158-5.78-10.445-11.431-15.663-17.152l-15.702-17.116l-15.863-16.948c-21.114-22.639-42.477-45.008-63.739-67.468
				c-42.556-44.889-85.111-89.722-127.154-135.02c-42.1-45.247-83.464-91.149-124.459-137.377l-30.431-34.947l-15.216-17.473
				c-5.08-5.819-9.834-11.857-14.768-17.776l-29.354-35.679l-7.34-8.92l-6.916-9.247l-13.778-18.537
				c-37.386-48.971-70.551-101.035-100.938-154.577c-30.606-53.467-56.444-109.659-77.581-167.556
				c-2.888-7.155-4.998-14.573-7.562-21.842l-7.383-21.92l-6.459-22.208l-3.227-11.112c-1.001-3.723-1.867-7.48-2.808-11.22
				c-1.792-7.5-3.817-14.955-5.42-22.5l-4.626-22.683c-2.597-15.2-5.334-30.443-6.372-45.86c-0.002-0.115-0.096-0.206-0.211-0.204
				C559.52,1273.254,559.43,1273.356,559.429,1273.468z"/>
		</g>
		<g>
			<g>
				
					<linearGradient id="SVGID_00000181078597627032132330000008475836372771064709_" gradientUnits="userSpaceOnUse" x1="1969.4926" y1="3097.2517" x2="2176.7444" y2="2154.593">
					<stop  offset="0" style="stop-color:#09005D"/>
					<stop  offset="1" style="stop-color:#1A0F91"/>
				</linearGradient>
				<polygon style="fill:url(#SVGID_00000181078597627032132330000008475836372771064709_);" points="1722.238,2720.735 
					1667.773,3096.6 2299.671,3096.6 2217.365,2720.735 				"/>
				
					<linearGradient id="SVGID_00000127752952942417272390000004297531602247312513_" gradientUnits="userSpaceOnUse" x1="1996.3839" y1="1437.7897" x2="1858.2163" y2="2634.4983">
					<stop  offset="0" style="stop-color:#09005D"/>
					<stop  offset="1" style="stop-color:#1A0F91"/>
				</linearGradient>
				<path style="fill:url(#SVGID_00000127752952942417272390000004297531602247312513_);" d="M660.763,1517.242v1118.73
					c0,92.03,73.337,167.289,165.337,169.662c408.615,10.536,1837.752,36.086,2226.726,30.352
					c66.854-0.986,121.013-54.485,122.941-121.319c7.501-259.896,19.682-884.859-25.398-1175.006
					c-9.494-61.102-61.069-106.792-122.872-108.769c-342.368-10.953-1857.347-45.731-2246.139-36.999
					C714.305,1395.399,660.763,1450.172,660.763,1517.242z"/>
				
					<linearGradient id="SVGID_00000088131457550143806450000009026949414001848457_" gradientUnits="userSpaceOnUse" x1="2179.853" y1="1198.6368" x2="2590.9915" y2="-125.029">
					<stop  offset="0" style="stop-color:#4F52FF"/>
					<stop  offset="1" style="stop-color:#4042E2"/>
				</linearGradient>
				<path style="fill:url(#SVGID_00000088131457550143806450000009026949414001848457_);" d="M730.96,1511.797v1062.87
					c0,53.732,43.132,97.515,96.859,98.318l2169.047,26.798c53.266,0.796,96.928-42.058,97.126-95.33l3.629-1053.374
					c0.142-38.09-30.204-69.3-68.283-70.227l-2220.702-44.864C766.045,1434.952,730.96,1469.194,730.96,1511.797z"/>
				<path style="fill:#91B3FA;" d="M3110.322,2743.344c-0.018,0-0.035,0-0.053,0l-2379.361-40.541
					c-1.661-0.03-2.984-1.398-2.956-3.058c0.028-1.665,1.416-2.931,3.059-2.958l2379.361,40.541c1.661,0.03,2.984,1.398,2.956,3.058
					C3113.3,2742.031,3111.958,2743.344,3110.322,2743.344z"/>
				<path style="fill:#91B3FA;" d="M1944.111,2792.857c-15.308,0-27.763-12.456-27.763-27.764c0-15.308,12.455-27.765,27.763-27.765
					c15.31,0,27.765,12.457,27.765,27.765C1971.876,2780.401,1959.421,2792.857,1944.111,2792.857z M1944.111,2743.344
					c-11.992,0-21.748,9.757-21.748,21.75c0,11.992,9.756,21.749,21.748,21.749c11.992,0,21.749-9.757,21.749-21.749
					C1965.861,2753.101,1956.104,2743.344,1944.111,2743.344z"/>
				
					<linearGradient id="SVGID_00000138575342711568628280000006253327484012045753_" gradientUnits="userSpaceOnUse" x1="1973.3701" y1="2594.1724" x2="1973.3701" y2="2854.9075">
					<stop  offset="0" style="stop-color:#09005D"/>
					<stop  offset="1" style="stop-color:#1A0F91"/>
				</linearGradient>
				<path style="fill:url(#SVGID_00000138575342711568628280000006253327484012045753_);" d="M2435.781,3196.541h-924.825
					c-25.125,0-43.992-17.886-39.134-37.098l11.867-46.932c3.569-14.114,19.096-24.476,37.539-25.052l891.565-27.821
					c19.268-0.601,36.328,9.627,40.526,24.295l21.393,74.752C2480.27,3178.107,2461.312,3196.541,2435.781,3196.541z"/>
				<path style="fill:#91B3FA;" d="M2008.806,3100.166c-1.64,0-2.981-1.319-3.006-2.963c-0.023-1.663,1.303-3.028,2.964-3.052
					l38.205-0.558c1.596,0.009,3.027,1.304,3.052,2.964c0.024,1.662-1.303,3.028-2.964,3.052l-38.205,0.558
					C2008.837,3100.166,2008.822,3100.166,2008.806,3100.166z"/>
				<path style="fill:#91B3FA;" d="M1506.062,3170.659c-0.159,0-0.319-0.012-0.479-0.038c-1.64-0.261-2.758-1.803-2.495-3.442
					l5.451-34.135c2.927-18.339,18.53-31.847,37.102-32.12l405.219-5.927h0.046c1.64,0,2.981,1.319,3.006,2.963
					c0.023,1.663-1.303,3.028-2.964,3.052l-405.219,5.927c-15.642,0.229-28.785,11.604-31.251,27.051l-5.451,34.135
					C1508.79,3169.605,1507.513,3170.659,1506.062,3170.659z"/>
			</g>
		</g>
		<g>
			<path style="fill:#BDD0FB;" d="M2631.767,467.508l-1511.449-9.254c-49.673-0.305-89.401,41.187-86.94,90.8l102.994,2126.964
				l1682.95,20.443l93.389-1918.593L2631.767,467.508z"/>
			<path style="fill:#7D97F4;" d="M2694.616,768.669c-49.235-1.732-87.087-44.167-83.206-93.279l16.203-205.053l285.395,306.272
				L2694.616,768.669z"/>
			<g>
				<path style="fill:#FFFFFF;" d="M1367.46,626.046l-4.214,33.261h-61.838l-23.732,192.535h-40.289l23.579-192.535h-61.991
					l4.058-33.261H1367.46z"/>
				<path style="fill:#FFFFFF;" d="M1522.677,851.843h-31.387c-3.542,0-6.349-0.832-8.432-2.497
					c-2.083-1.665-3.382-3.904-3.904-6.715l-9.369-47.158h-84.163l-20.925,47.158c-1.149,2.396-3.023,4.528-5.621,6.401
					c-2.605,1.874-5.523,2.811-8.749,2.811h-31.854l109.152-225.796h41.38L1522.677,851.843z M1398.068,766.896h65.739
					l-15.303-77.295c-0.832-3.747-1.665-7.704-2.497-11.869c-0.832-4.162-1.616-8.846-2.341-14.053
					c-1.978,5.207-3.93,10.022-5.856,14.445c-1.926,4.427-3.725,8.301-5.386,11.634L1398.068,766.896z"/>
				<path style="fill:#FFFFFF;" d="M1605.593,731.294l-50.749-105.248h36.692c2.71,0,4.662,0.392,5.856,1.172
					c1.195,0.78,2.213,2.109,3.046,3.983l34.665,77.918c1.041-2.184,2.292-4.371,3.748-6.558l47.941-70.893
					c2.497-3.747,5.569-5.621,9.212-5.621h42.316l-76.828,103.374l56.683,122.422h-36.225c-2.706,0-4.815-0.728-6.323-2.187
					c-1.511-1.456-2.683-3.068-3.512-4.841l-39.196-90.411c-0.522,0.836-1.015,1.668-1.485,2.5
					c-0.467,0.833-0.963,1.665-1.482,2.497l-58.4,85.413c-1.773,2.605-3.695,4.427-5.778,5.468c-2.083,1.041-4.374,1.56-6.872,1.56
					h-40.443L1605.593,731.294z"/>
			</g>
			<path style="opacity:0.39;fill:#FFFFFF;" d="M2641.907,2060.47H1330.764c-39.559,0-71.96-31.429-73.165-70.97l-27.396-899.27
				c-1.258-41.281,31.865-75.428,73.165-75.428h1338.538c40.427,0,73.199,32.772,73.199,73.199v899.27
				C2715.105,2027.698,2682.333,2060.47,2641.907,2060.47z"/>
			<path style="fill:#FFFFFF;" d="M2633.635,2065.483H1322.493c-42.542,0-76.88-33.307-78.176-75.829l-27.395-899.271
				c-0.653-21.333,7.172-41.517,22.032-56.837c14.863-15.32,34.799-23.758,56.145-23.758h1338.537
				c43.126,0,78.212,35.086,78.212,78.212v899.271C2711.847,2030.397,2676.761,2065.483,2633.635,2065.483z M1295.098,1019.816
				c-18.607,0-35.99,7.355-48.947,20.713c-12.953,13.355-19.776,30.953-19.208,49.547l27.395,899.271
				c1.129,37.071,31.068,66.108,68.154,66.108h1311.142c37.596,0,68.184-30.588,68.184-68.184V1088
				c0-37.596-30.587-68.184-68.184-68.184H1295.098z"/>
			
				<rect x="1160.588" y="1529.035" transform="matrix(0.0052 -1 1 0.0052 141.1542 3209.991)" style="fill:#FFFFFF;" width="1046.754" height="10.028"/>
			
				<rect x="1959.762" y="377.64" transform="matrix(0.0049 -1 1 0.0049 835.4599 3078.9734)" style="fill:#FFFFFF;" width="10.028" height="1484.131"/>
			<rect x="1227.574" y="1355.124" style="fill:#FFFFFF;" width="1477.5" height="10.028"/>
			<rect x="1240.945" y="1612.516" style="fill:#FFFFFF;" width="1464.129" height="10.028"/>
			
				<rect x="1255.318" y="1825.264" transform="matrix(1 -0.0026 0.0026 1 -4.7568 5.1621)" style="fill:#FFFFFF;" width="1451.41" height="10.028"/>
			<path style="opacity:0.55;fill:#FFFFFF;" d="M2485.319,757.206H1870.31c-2.237,0-4.05-1.813-4.05-4.05v-46.839
				c0-2.237,1.813-4.05,4.05-4.05h615.009c2.237,0,4.05,1.813,4.05,4.05v46.839C2489.369,755.393,2487.556,757.206,2485.319,757.206
				z"/>
			<path style="opacity:0.42;fill:#FFFFFF;" d="M2702.784,2347.85H1275.712c-2.237,0-4.05-1.813-4.05-4.05v-99.529
				c0-2.237,1.813-4.05,4.05-4.05h1427.072c2.237,0,4.05,1.813,4.05,4.05v99.529
				C2706.833,2346.036,2705.021,2347.85,2702.784,2347.85z"/>
			<path style="opacity:0.55;fill:#FFFFFF;" d="M2488.013,844.725h-615.009c-2.237,0-4.05-1.813-4.05-4.05v-46.839
				c0-2.237,1.813-4.05,4.05-4.05h615.009c2.237,0,4.05,1.813,4.05,4.05v46.839C2492.063,842.911,2490.25,844.725,2488.013,844.725z
				"/>
		</g>
		<g>
			<g>
				<g>
					
						<linearGradient id="SVGID_00000098221931919267764700000004406314992764378542_" gradientUnits="userSpaceOnUse" x1="-2487.0144" y1="3219.2498" x2="-2294.5161" y2="3219.2498" gradientTransform="matrix(-1 0 0 1 83.0112 0)">
						<stop  offset="0" style="stop-color:#09005D"/>
						<stop  offset="1" style="stop-color:#1A0F91"/>
					</linearGradient>
					<path style="fill:url(#SVGID_00000098221931919267764700000004406314992764378542_);" d="M2382.963,3209.939
						c32.977,2.85,90.211,7.481,135.331,9.466c27.123,1.194,42.738-1.462,51.731-5.063c-0.016,1.014-0.043,1.972-0.084,2.862
						c-0.213,4.748-4.071,8.547-8.867,8.814c-85.257,4.758-153.062,1.647-177.201,0.177c-4.991-0.304-7.966-5.728-5.414-9.983
						C2379.737,3214.085,2381.284,3212,2382.963,3209.939z"/>
					
						<linearGradient id="SVGID_00000135665573433557652330000012005557774714987166_" gradientUnits="userSpaceOnUse" x1="2418.8916" y1="3114.9512" x2="2512.4885" y2="3239.7471">
						<stop  offset="0" style="stop-color:#4F52FF"/>
						<stop  offset="1" style="stop-color:#4042E2"/>
					</linearGradient>
					<path style="fill:url(#SVGID_00000135665573433557652330000012005557774714987166_);" d="M2518.295,3219.406
						c-45.12-1.986-102.354-6.616-135.331-9.466c32.422-39.779,135.331-66.59,135.331-66.59h29.065
						c19.99,28.816,22.885,56.25,22.666,70.993C2561.033,3217.943,2545.417,3220.6,2518.295,3219.406z"/>
					
						<linearGradient id="SVGID_00000062884097049733135120000007995866273414544259_" gradientUnits="userSpaceOnUse" x1="-2469.2419" y1="3128.8503" x2="-2415.0195" y2="3128.8503" gradientTransform="matrix(-1 0 0 1 83.0112 0)">
						<stop  offset="0" style="stop-color:#FEBBBA"/>
						<stop  offset="1" style="stop-color:#FF928E"/>
					</linearGradient>
					<path style="fill:url(#SVGID_00000062884097049733135120000007995866273414544259_);" d="M2552.253,3095.9l-2.72,53.823
						c-0.295,5.829-4.657,10.726-10.494,11.561c-5.808,0.83-13.586,0.936-21.833-1.809c-5.074-1.689-8.841-5.964-9.777-11.179
						l-9.398-52.395H2552.253z"/>
				</g>
				<g>
					<g>
						
							<linearGradient id="SVGID_00000009551001071946627230000013075012425900944014_" gradientUnits="userSpaceOnUse" x1="-2870.7751" y1="3215.0984" x2="-2797.0071" y2="3215.0984" gradientTransform="matrix(-1 0 0 1 83.0112 0)">
							<stop  offset="0" style="stop-color:#09005D"/>
							<stop  offset="1" style="stop-color:#1A0F91"/>
						</linearGradient>
						<path style="fill:url(#SVGID_00000009551001071946627230000013075012425900944014_);" d="M2929.766,3219.002
							c14.301-1.995,20.771-9.424,23.484-17.366c0.018,0.072,0.036,0.143,0.053,0.214c2.104,8.377-2.773,17.061-12.525,21.19
							c-11.786,4.991-24.673,5.842-34.678,5.429c-10.734-0.443-20.586-4.885-26.002-11.993l-0.081-0.106
							C2890.792,3221.701,2905.916,3222.328,2929.766,3219.002z"/>
						
							<linearGradient id="SVGID_00000024703683066101639340000008869661001591015839_" gradientUnits="userSpaceOnUse" x1="-2870.2388" y1="3158.2988" x2="-2761.9609" y2="3158.2988" gradientTransform="matrix(-1 0 0 1 83.0112 0)">
							<stop  offset="0" style="stop-color:#4F52FF"/>
							<stop  offset="1" style="stop-color:#4042E2"/>
						</linearGradient>
						<path style="fill:url(#SVGID_00000024703683066101639340000008869661001591015839_);" d="M2862.34,3095.555h23.969
							c36.51-0.746,59.437,76.26,66.942,106.081c-2.713,7.942-9.184,15.371-23.484,17.366c-23.85,3.326-38.974,2.699-49.747-2.632
							c-19.725-25.957-29.504-63.972-34.205-86.158C2840.468,3104.98,2862.34,3095.555,2862.34,3095.555z"/>
					</g>
					
						<linearGradient id="SVGID_00000118369708513885129850000013741969630749442706_" gradientUnits="userSpaceOnUse" x1="-2813.9578" y1="3083.6482" x2="-2749.156" y2="3083.6482" gradientTransform="matrix(-1 0 0 1 83.0112 0)">
						<stop  offset="0" style="stop-color:#FEBBBA"/>
						<stop  offset="1" style="stop-color:#FF928E"/>
					</linearGradient>
					<path style="fill:url(#SVGID_00000118369708513885129850000013741969630749442706_);" d="M2883.228,3045.599l13.31,52.937
						c1.632,6.49-1.475,13.204-7.476,16.284c-7.445,3.821-17.928,7.836-27.563,6.674c-4.531-0.547-8.295-3.738-9.792-8.004
						l-19.54-55.695L2883.228,3045.599z"/>
				</g>
				
					<linearGradient id="SVGID_00000156576555116300215070000016676575520415132555_" gradientUnits="userSpaceOnUse" x1="3464.6267" y1="1407.0099" x2="3018.3914" y2="2118.98">
					<stop  offset="0" style="stop-color:#4F52FF"/>
					<stop  offset="1" style="stop-color:#4042E2"/>
				</linearGradient>
				<path style="fill:url(#SVGID_00000156576555116300215070000016676575520415132555_);" d="M2899.104,3060.9
					c-16.56,14.689-70.421,16.628-70.421,16.628c-194.018-465.664-273.385-531.817-273.385-531.817
					c28.015,175.762,4.517,564.879,4.517,564.879c-32.017,14.127-73.293,0-73.293,0c-2.601-287.747-46.829-538.689-99.077-736.527
					c131.133-2.948,200.868-47.821,223.638-65.831C2720.391,2484.458,2899.104,3060.9,2899.104,3060.9z"/>
				
					<linearGradient id="SVGID_00000017483064622276590830000005724669945769448356_" gradientUnits="userSpaceOnUse" x1="2575.9924" y1="-458.2515" x2="2520.8389" y2="434.2224">
					<stop  offset="0" style="stop-color:#FF928E"/>
					<stop  offset="1" style="stop-color:#FE7062"/>
				</linearGradient>
				<path style="fill:url(#SVGID_00000017483064622276590830000005724669945769448356_);" d="M2577.779,1772.718
					c24.821,123.805,15.925,345.395,10.083,446.468c-1.642,28.408,18.189,67.791,34.218,94.658c2.514,4.215,0.963,9.61-3.402,11.854
					c-26.836,13.793-117.753,56.54-223.123,61.858c-7.026,0.354-13.299-4.431-15.119-11.226
					c-78.161-291.843-168.945-478.333-168.945-478.333C2311.719,1737.94,2577.779,1772.718,2577.779,1772.718z"/>
				<g>
					
						<linearGradient id="SVGID_00000158743949749418209410000008297886857024757648_" gradientUnits="userSpaceOnUse" x1="-2517.0715" y1="2139.0803" x2="-2747.7546" y2="2343.3552" gradientTransform="matrix(-1 0 0 1 83.0112 0)">
						<stop  offset="0" style="stop-color:#FEBBBA"/>
						<stop  offset="1" style="stop-color:#FF928E"/>
					</linearGradient>
					<path style="fill:url(#SVGID_00000158743949749418209410000008297886857024757648_);" d="M2733.466,2128.038
						c-7.973,57.675-31.528,120.584-78.649,187.407l-17.913-14.603c0,0,20.678-83.896,8.923-179.11
						C2674.894,2116.061,2709.224,2121.906,2733.466,2128.038z"/>
					
						<linearGradient id="SVGID_00000168100019627949006900000008957881586775238589_" gradientUnits="userSpaceOnUse" x1="2794.9829" y1="-444.7174" x2="2739.8296" y2="447.7532">
						<stop  offset="0" style="stop-color:#FF928E"/>
						<stop  offset="1" style="stop-color:#FE7062"/>
					</linearGradient>
					<path style="fill:url(#SVGID_00000168100019627949006900000008957881586775238589_);" d="M2550.056,1925.478l27.723-152.76
						c0,0,185.23,141.587,155.687,355.32c-24.242-6.131-58.572-11.977-87.639-6.306
						C2637.358,2053.143,2612.063,1978.683,2550.056,1925.478z"/>
				</g>
				<g>
					
						<linearGradient id="SVGID_00000175289370181317063360000013174719219082517157_" gradientUnits="userSpaceOnUse" x1="2370.7139" y1="-470.938" x2="2315.5605" y2="421.5328">
						<stop  offset="0" style="stop-color:#FF928E"/>
						<stop  offset="1" style="stop-color:#FE7062"/>
					</linearGradient>
					<path style="fill:url(#SVGID_00000175289370181317063360000013174719219082517157_);" d="M2211.49,1897.997l71.499,153.983
						c-11.561,92.965-61.5,133.161-115.348,148.578c-3.358-42.368-14.071-76.598-24.012-100.276
						C2212.431,2029.245,2211.49,1897.997,2211.49,1897.997z"/>
					
						<linearGradient id="SVGID_00000004506117429361263620000012921170741653056701_" gradientUnits="userSpaceOnUse" x1="-2084.6299" y1="2158.4026" x2="-1902.9578" y2="2158.4026" gradientTransform="matrix(-1 0 0 1 83.0112 0)">
						<stop  offset="0" style="stop-color:#FEBBBA"/>
						<stop  offset="1" style="stop-color:#FF928E"/>
					</linearGradient>
					<path style="fill:url(#SVGID_00000004506117429361263620000012921170741653056701_);" d="M2143.629,2100.281
						c9.941,23.677,20.654,57.907,24.012,100.276c-143.664,55.74-181.672-52.36-181.672-52.36l26.551-4.684
						C2072.478,2149.83,2114.361,2130.5,2143.629,2100.281z"/>
				</g>
				
					<linearGradient id="SVGID_00000135679768382243979310000005705782478723871621_" gradientUnits="userSpaceOnUse" x1="-2261.2197" y1="1672.9088" x2="-2263.2041" y2="2012.1681" gradientTransform="matrix(-1 0 0 1 83.0112 0)">
					<stop  offset="0" style="stop-color:#FEBBBA"/>
					<stop  offset="1" style="stop-color:#FF928E"/>
				</linearGradient>
				<path style="fill:url(#SVGID_00000135679768382243979310000005705782478723871621_);" d="M2277.364,1707.893l34.517,126.89
					c3.877,14.254,19.296,21.909,33.013,16.426c14.803-5.918,33.583-13.995,49.75-22.724c17.258-9.317,22.656-31.517,11.733-47.805
					l-71.764-107.004L2277.364,1707.893z"/>
			</g>
			<g>
				
					<linearGradient id="SVGID_00000082360441529175646420000014414821547360924803_" gradientUnits="userSpaceOnUse" x1="-2434.0059" y1="2779.1123" x2="-2601.0049" y2="3000.0383" gradientTransform="matrix(-0.9897 -0.1428 -0.1428 0.9897 222.066 -1480.9402)">
					<stop  offset="0" style="stop-color:#FEBBBA"/>
					<stop  offset="1" style="stop-color:#FF928E"/>
				</linearGradient>
				<path style="fill:url(#SVGID_00000082360441529175646420000014414821547360924803_);" d="M2201.848,1611.488
					c-0.315,2.179,28.79,144.801,28.79,144.801l81.082-18.349l-7.501-139.275
					C2304.218,1598.665,2207.111,1575.008,2201.848,1611.488z"/>
				
					<linearGradient id="SVGID_00000112633113394025348440000000284952676509790602_" gradientUnits="userSpaceOnUse" x1="-2561.5459" y1="2832.4048" x2="-2362.063" y2="2832.4048" gradientTransform="matrix(-0.9897 -0.1428 -0.1428 0.9897 222.066 -1480.9402)">
					<stop  offset="0" style="stop-color:#09005D"/>
					<stop  offset="1" style="stop-color:#1A0F91"/>
				</linearGradient>
				<path style="fill:url(#SVGID_00000112633113394025348440000000284952676509790602_);" d="M2285.982,1629.7l9.69,73.008
					c0.125,0.936,0.124,1.861-0.01,2.796c-0.818,5.723-5.075,25.205-24.742,19.634c-17.846-5.055-34.207-9.403-45.51-5.946
					c-5.074,1.552-8.137,6.692-7.074,11.891c2.648,12.958,9.154,42.046,18.662,66.455c1.93,4.953,7.354,7.554,12.458,6.066
					c15.377-4.483,47.546-14.846,71.472-29.244c3.242-1.951,5.174-5.477,5.014-9.258c-0.778-18.43-2.934-74.457-1.119-90.161
					c1.703-14.741,19.794-23.572,27.654-26.738c2.577-1.039,4.597-3.069,5.626-5.649c3.64-9.121,8.658-30.228-17.941-38.878
					c-5.567-1.81-8.501-7.812-6.522-13.321c3.939-10.968,5.6-27.706-14.977-36.927c-20.915-9.373-36.535,1.776-44.969,10.837
					c-3.41,3.663-8.882,4.222-13.114,1.548c-2.409-1.522-5.512-2.021-9.261,0.315c-5.052,3.148-11.743,1.002-14.35-4.349
					c-5.009-10.281-15.216-21.292-35.692-17.786c-36.333,6.223-40.449,46.485-30.864,70.078
					c9.584,23.594,48.594,14.608,68.163,2.714c14.879-9.044,34.179,0.435,42.576,5.499
					C2283.812,1623.89,2285.573,1626.621,2285.982,1629.7z"/>
				
					<linearGradient id="SVGID_00000016769517071979052110000016538804062597951642_" gradientUnits="userSpaceOnUse" x1="-2678.5935" y1="2954.0681" x2="-2544.647" y2="2816.6426" gradientTransform="matrix(-0.9897 -0.1428 -0.1428 0.9897 222.066 -1480.9402)">
					<stop  offset="0" style="stop-color:#FEBBBA"/>
					<stop  offset="1" style="stop-color:#FF928E"/>
				</linearGradient>
				<path style="fill:url(#SVGID_00000016769517071979052110000016538804062597951642_);" d="M2328.086,1701.56
					c0,0-14.937-41.828,0.409-52.071c15.346-10.244,38.075-4.925,33.071,25.375
					C2355.341,1712.554,2328.086,1701.56,2328.086,1701.56z"/>
			</g>
			
				<linearGradient id="SVGID_00000028290424673960356850000010054673486984317347_" gradientUnits="userSpaceOnUse" x1="-1922.2588" y1="2137.0662" x2="-1857.2004" y2="2137.0662" gradientTransform="matrix(-1 0 0 1 83.0112 0)">
				<stop  offset="0" style="stop-color:#FEBBBA"/>
				<stop  offset="1" style="stop-color:#FF928E"/>
			</linearGradient>
			<path style="fill:url(#SVGID_00000028290424673960356850000010054673486984317347_);" d="M1996.619,2167.976
				c-7.231,5.649-32.006-6.145-47.166-14.299c-7.388-3.974-10.967-12.613-8.431-20.61c3.648-11.506,9.727-26.356,17.217-28.228
				C1970.667,2101.732,2026.418,2144.696,1996.619,2167.976z"/>
			<g>
				<g>
					
						<linearGradient id="SVGID_00000132809837049245265440000016140345763849562269_" gradientUnits="userSpaceOnUse" x1="-1548.4264" y1="1814.3881" x2="-3512.9868" y2="3247.5007" gradientTransform="matrix(-1 0 0 1 83.0112 0)">
						<stop  offset="0" style="stop-color:#09005D"/>
						<stop  offset="1" style="stop-color:#1A0F91"/>
					</linearGradient>
					<path style="fill:url(#SVGID_00000132809837049245265440000016140345763849562269_);" d="M3017.647,2448.164l-1354.438-481.71
						l-71.659,199.053l1353.97,495.166c28.758,10.517,60.852-1.147,76.262-27.607c15.828-27.18,30.953-69.648,31.865-133.257
						C3053.977,2476.682,3039.439,2455.915,3017.647,2448.164z"/>
					<g>
						
							<linearGradient id="SVGID_00000025444012336399054020000004780227862544754567_" gradientUnits="userSpaceOnUse" x1="1233.6067" y1="1975.0948" x2="1431.2798" y2="1975.0948">
							<stop  offset="0" style="stop-color:#09005D"/>
							<stop  offset="1" style="stop-color:#1A0F91"/>
						</linearGradient>
						<path style="fill:url(#SVGID_00000025444012336399054020000004780227862544754567_);" d="M1244.187,1915.007l187.093,22.971
							c-0.197,25.75-8.63,59.064-37.172,97.283l-156.246-103.071C1229.567,1926.719,1234.323,1913.796,1244.187,1915.007z"/>
						
							<linearGradient id="SVGID_00000047037271886500933750000016754787982330342562_" gradientUnits="userSpaceOnUse" x1="-1191.9967" y1="-2103.6675" x2="-1247.1503" y2="-1211.1943" gradientTransform="matrix(-1 0 0 1 83.0112 0)">
							<stop  offset="0" style="stop-color:#FEBBBA"/>
							<stop  offset="1" style="stop-color:#FF928E"/>
						</linearGradient>
						<path style="fill:url(#SVGID_00000047037271886500933750000016754787982330342562_);" d="M1663.209,1966.454
							c8.571,124.747-71.659,199.053-71.659,199.053l-197.442-130.245c28.542-38.219,36.974-71.533,37.172-97.283L1663.209,1966.454
							z"/>
					</g>
				</g>
				
					<linearGradient id="SVGID_00000021801731605933613250000016212581269928557489_" gradientUnits="userSpaceOnUse" x1="-1837.5835" y1="1831.9348" x2="-2702.249" y2="2720.553" gradientTransform="matrix(-1 0 0 1 83.0112 0)">
					<stop  offset="0" style="stop-color:#4F52FF"/>
					<stop  offset="1" style="stop-color:#4042E2"/>
				</linearGradient>
				<path style="fill:url(#SVGID_00000021801731605933613250000016212581269928557489_);" d="M3000.845,2509.204
					c1.641,0,3.177-1.019,3.751-2.656c0.735-2.072-0.354-4.346-2.426-5.077l-1295.835-457.958c-2.08-0.731-4.351,0.354-5.078,2.426
					c-0.734,2.072,0.354,4.346,2.426,5.077l1295.835,457.958C2999.959,2509.13,3000.406,2509.204,3000.845,2509.204z"/>
				
					<linearGradient id="SVGID_00000091000367369276868960000018207433585998794420_" gradientUnits="userSpaceOnUse" x1="-1815.2279" y1="1910.0253" x2="-2679.8955" y2="2798.6453" gradientTransform="matrix(-1 0 0 1 83.0112 0)">
					<stop  offset="0" style="stop-color:#4F52FF"/>
					<stop  offset="1" style="stop-color:#4042E2"/>
				</linearGradient>
				<path style="fill:url(#SVGID_00000091000367369276868960000018207433585998794420_);" d="M2978.49,2587.298
					c1.641,0,3.177-1.019,3.752-2.656c0.734-2.072-0.354-4.346-2.427-5.077l-1295.835-457.962c-2.08-0.731-4.346,0.35-5.077,2.426
					c-0.735,2.072,0.354,4.346,2.426,5.078l1295.835,457.962C2977.604,2587.224,2978.052,2587.298,2978.49,2587.298z"/>
			</g>
			
				<linearGradient id="SVGID_00000102544375733617790590000000029507801543021185_" gradientUnits="userSpaceOnUse" x1="-2425.9744" y1="2241.9541" x2="-2656.6575" y2="2446.2292" gradientTransform="matrix(-1 0 0 1 83.0112 0)">
				<stop  offset="0" style="stop-color:#FEBBBA"/>
				<stop  offset="1" style="stop-color:#FF928E"/>
			</linearGradient>
			<path style="fill:url(#SVGID_00000102544375733617790590000000029507801543021185_);" d="M2644.29,2298.299l-83.615-6.815
				l-36.211,33.38c0,0,8.567,11.843,35.35,5.036c26.783-6.807,63.472-8.477,63.472-8.477s36.975,16.669,37.425-14.52
				L2644.29,2298.299z"/>
		</g>
		<g>
			<g>
				<g>
					
						<linearGradient id="SVGID_00000003104831837704371390000006840390138925094553_" gradientUnits="userSpaceOnUse" x1="1989.0389" y1="-3372.6172" x2="1933.8854" y2="-2480.1455" gradientTransform="matrix(0.9651 -0.2618 0.2618 0.9651 -1163.5303 186.1516)">
						<stop  offset="0" style="stop-color:#E1473D"/>
						<stop  offset="1" style="stop-color:#E9605A"/>
					</linearGradient>
					
						<circle style="fill:url(#SVGID_00000003104831837704371390000006840390138925094553_);" cx="913.151" cy="1458.737" r="131.111"/>
					
						<linearGradient id="SVGID_00000141432667147504526130000010392897657530486402_" gradientUnits="userSpaceOnUse" x1="1989.0383" y1="-3372.6055" x2="1933.8849" y2="-2480.1338" gradientTransform="matrix(0.9651 -0.2618 0.2618 0.9651 -1163.5303 186.1516)">
						<stop  offset="0" style="stop-color:#FF928E"/>
						<stop  offset="1" style="stop-color:#FE7062"/>
					</linearGradient>
					
						<circle style="fill:url(#SVGID_00000141432667147504526130000010392897657530486402_);" cx="913.151" cy="1458.737" r="126.752"/>
					<path style="opacity:0.78;fill:#FFFFFF;" d="M799.599,1439.378c-0.619,0.168-1.287,0.199-1.959,0.06
						c-2.294-0.471-3.77-2.713-3.298-5.003c9.268-45.135,42.629-80.657,87.064-92.712c7.092-1.924,14.366-3.211,21.621-3.828
						c2.331-0.199,4.383,1.531,4.582,3.862c0.2,2.334-1.515,4.4-3.865,4.582c-6.746,0.578-13.516,1.775-20.118,3.566
						c-41.329,11.212-72.359,44.253-80.982,86.232C802.312,1437.758,801.095,1438.972,799.599,1439.378z"/>
					
						<ellipse transform="matrix(0.7071 -0.7071 0.7071 0.7071 -764.408 1075.9142)" style="opacity:0.78;fill:#FFFFFF;" cx="916.539" cy="1460.679" rx="107.28" ry="107.28"/>
					<g>
						
							<linearGradient id="SVGID_00000116944502951036871240000014435345129061233082_" gradientUnits="userSpaceOnUse" x1="1992.899" y1="-3372.3804" x2="1937.7455" y2="-2479.9084" gradientTransform="matrix(0.9651 -0.2618 0.2618 0.9651 -1163.5303 186.1516)">
							<stop  offset="0" style="stop-color:#FF928E"/>
							<stop  offset="1" style="stop-color:#FE7062"/>
						</linearGradient>
						<path style="fill:url(#SVGID_00000116944502951036871240000014435345129061233082_);" d="M927.26,1540.406l-3.056-11.264
							c-11.87,2.716-24.237,3.095-33.466,1.721c-3.295-0.49-5.694-3.389-5.689-6.72l0.015-11.269c0.005-4.134,3.651-7.26,7.75-6.716
							c9.114,1.211,19.954,1.183,30.849-1.772c11.311-3.068,18.705-9.19,16.573-17.051c-1.924-7.092-9.586-9.541-26.449-9.494
							c-24.093-0.05-42.848-5.458-48.205-25.204c-4.837-17.828,4.507-34.976,26.14-44.754l-3.056-11.265
							c-0.983-3.625,1.158-7.361,4.783-8.344l6.619-1.795c3.624-0.983,7.36,1.159,8.344,4.783l2.744,10.114
							c10.984-2.513,19.398-2.8,26.273-2.298c3.523,0.257,6.22,3.245,6.22,6.777l0.001,10.417c0,4.017-3.443,7.152-7.441,6.764
							c-6.372-0.618-15.161-0.677-25.781,2.204c-13.42,3.64-15.745,10.24-14.393,15.224c1.664,6.134,10.859,8.167,29.761,8.803
							c26.949,0.715,40.109,8.259,45.154,26.854c4.628,17.062-3.863,35.83-27.361,46.321l3.42,12.606
							c0.983,3.625-1.158,7.36-4.783,8.344l-6.619,1.796C931.979,1546.172,928.243,1544.031,927.26,1540.406z"/>
					</g>
				</g>
				<g>
					
						<linearGradient id="SVGID_00000106826448153145077250000003082475148467986350_" gradientUnits="userSpaceOnUse" x1="2314.8616" y1="-3352.4688" x2="2259.708" y2="-2459.9956" gradientTransform="matrix(0.9651 -0.2618 0.2618 0.9651 -1163.5303 186.1516)">
						<stop  offset="0" style="stop-color:#E1473D"/>
						<stop  offset="1" style="stop-color:#E9605A"/>
					</linearGradient>
					
						<circle style="fill:url(#SVGID_00000106826448153145077250000003082475148467986350_);" cx="1169.959" cy="1087.476" r="213.974"/>
					
						<linearGradient id="SVGID_00000013170166292223165980000001899724531946511242_" gradientUnits="userSpaceOnUse" x1="2314.8623" y1="-3352.4753" x2="2259.7087" y2="-2460.0034" gradientTransform="matrix(0.9651 -0.2618 0.2618 0.9651 -1163.5303 186.1516)">
						<stop  offset="0" style="stop-color:#FF928E"/>
						<stop  offset="1" style="stop-color:#FE7062"/>
					</linearGradient>
					
						<circle style="fill:url(#SVGID_00000013170166292223165980000001899724531946511242_);" cx="1169.959" cy="1087.476" r="206.859"/>
					<path style="opacity:0.78;fill:#FFFFFF;" d="M983.875,1053.041c-0.581,0.157-1.206,0.186-1.837,0.056
						c-2.151-0.442-3.535-2.543-3.092-4.69c14.901-72.563,68.537-129.679,139.977-149.06c11.4-3.093,23.097-5.164,34.763-6.149
						c2.187-0.188,4.11,1.434,4.296,3.623c0.185,2.185-1.428,4.131-3.625,4.292c-11.192,0.95-22.414,2.936-33.354,5.904
						c-68.528,18.59-119.979,73.381-134.275,142.985C986.418,1051.522,985.278,1052.66,983.875,1053.041z"/>
					
						<ellipse transform="matrix(0.7071 -0.7071 0.7071 0.7071 -426.9102 1150.6393)" style="opacity:0.78;fill:#FFFFFF;" cx="1175.489" cy="1090.646" rx="175.08" ry="175.08"/>
					<g>
						
							<linearGradient id="SVGID_00000004546221284954791280000013001533498863877305_" gradientUnits="userSpaceOnUse" x1="2321.1616" y1="-3352.0913" x2="2266.0083" y2="-2459.6196" gradientTransform="matrix(0.9651 -0.2618 0.2618 0.9651 -1163.5303 186.1516)">
							<stop  offset="0" style="stop-color:#FF928E"/>
							<stop  offset="1" style="stop-color:#FE7062"/>
						</linearGradient>
						<path style="fill:url(#SVGID_00000004546221284954791280000013001533498863877305_);" d="M1192.985,1220.761l-4.987-18.384
							c-19.372,4.432-39.554,5.051-54.616,2.81c-5.379-0.8-9.292-5.53-9.285-10.969l0.025-18.39
							c0.009-6.746,5.959-11.849,12.647-10.96c14.873,1.976,32.565,1.931,50.346-2.892c18.459-5.007,30.526-15,27.047-27.827
							c-3.14-11.575-15.644-15.572-43.166-15.495c-39.319-0.082-69.929-8.909-78.67-41.132c-7.893-29.097,7.356-57.081,42.66-73.038
							l-4.988-18.385c-1.605-5.916,1.89-12.013,7.805-13.617l10.801-2.93c5.916-1.605,12.013,1.89,13.618,7.805l4.478,16.507
							c17.925-4.101,31.656-4.57,42.877-3.749c5.749,0.42,10.15,5.296,10.151,11.06l0.001,17.002
							c0.001,6.556-5.618,11.671-12.144,11.039c-10.399-1.008-24.742-1.104-42.075,3.598c-21.9,5.941-25.695,16.71-23.488,24.845
							c2.716,10.011,17.723,13.329,48.568,14.367c43.982,1.167,65.458,13.479,73.691,43.826
							c7.554,27.844-6.305,58.474-44.652,75.595l5.581,20.573c1.605,5.916-1.89,12.013-7.805,13.617l-10.802,2.931
							C1200.687,1230.172,1194.59,1226.677,1192.985,1220.761z"/>
					</g>
				</g>
				<g>
					
						<linearGradient id="SVGID_00000011721840570130050700000008673174426001987519_" gradientUnits="userSpaceOnUse" x1="2491.3025" y1="-3341.5762" x2="2436.1489" y2="-2449.103" gradientTransform="matrix(0.9651 -0.2618 0.2618 0.9651 -1163.5303 186.1516)">
						<stop  offset="0" style="stop-color:#E1473D"/>
						<stop  offset="1" style="stop-color:#E9605A"/>
					</linearGradient>
					
						<circle style="fill:url(#SVGID_00000011721840570130050700000008673174426001987519_);" cx="1437.509" cy="1510.09" r="220.176"/>
					
						<linearGradient id="SVGID_00000088095609179430422810000005623254004625374626_" gradientUnits="userSpaceOnUse" x1="2491.303" y1="-3341.5872" x2="2436.1494" y2="-2449.1138" gradientTransform="matrix(0.9651 -0.2618 0.2618 0.9651 -1163.5303 186.1516)">
						<stop  offset="0" style="stop-color:#FF928E"/>
						<stop  offset="1" style="stop-color:#FE7062"/>
					</linearGradient>
					
						<circle style="fill:url(#SVGID_00000088095609179430422810000005623254004625374626_);" cx="1437.509" cy="1510.09" r="212.855"/>
					<path style="opacity:0.78;fill:#FFFFFF;" d="M1246.001,1474.545c-0.58,0.158-1.206,0.186-1.836,0.056
						c-2.151-0.442-3.535-2.543-3.092-4.69c15.323-74.624,70.482-133.359,143.952-153.29c11.723-3.18,23.751-5.309,35.751-6.325
						c2.187-0.187,4.111,1.434,4.296,3.623c0.185,2.186-1.418,4.117-3.625,4.292c-11.525,0.98-23.08,3.025-34.342,6.08
						c-70.558,19.141-123.531,75.551-138.25,147.216C1248.545,1473.027,1247.403,1474.165,1246.001,1474.545z"/>
					
						<ellipse transform="matrix(0.7071 -0.7071 0.7071 0.7071 -647.3983 1463.7467)" style="opacity:0.78;fill:#FFFFFF;" cx="1443.199" cy="1513.352" rx="180.156" ry="180.156"/>
					<g>
						
							<linearGradient id="SVGID_00000103239253032983107900000012168358495886307200_" gradientUnits="userSpaceOnUse" x1="2497.7837" y1="-3341.1721" x2="2442.6304" y2="-2448.7014" gradientTransform="matrix(0.9651 -0.2618 0.2618 0.9651 -1163.5303 186.1516)">
							<stop  offset="0" style="stop-color:#FF928E"/>
							<stop  offset="1" style="stop-color:#FE7062"/>
						</linearGradient>
						<path style="fill:url(#SVGID_00000103239253032983107900000012168358495886307200_);" d="M1461.202,1647.239l-5.131-18.916
							c-19.934,4.56-40.701,5.197-56.199,2.891c-5.534-0.823-9.562-5.691-9.554-11.286l0.026-18.923
							c0.009-6.942,6.132-12.193,13.013-11.278c15.305,2.033,33.509,1.988,51.806-2.976c18.994-5.153,31.411-15.434,27.83-28.634
							c-3.231-11.91-16.097-16.023-44.416-15.943c-40.46-0.084-71.956-9.166-80.951-42.325c-8.122-29.94,7.57-58.735,43.896-75.156
							l-5.132-18.918c-1.651-6.087,1.945-12.36,8.032-14.012l11.114-3.015c6.088-1.651,12.36,1.944,14.012,8.032l4.608,16.985
							c18.446-4.22,32.575-4.703,44.121-3.858c5.916,0.432,10.445,5.449,10.445,11.381l0.001,17.494
							c0.001,6.746-5.782,12.01-12.497,11.36c-10.701-1.037-25.458-1.136-43.294,3.702c-22.535,6.113-26.44,17.195-24.17,25.565
							c2.795,10.301,18.236,13.715,49.977,14.783c45.256,1.202,67.355,13.869,75.826,45.097
							c7.772,28.651-6.487,60.169-45.946,77.787l5.743,21.17c1.651,6.087-1.945,12.361-8.032,14.012l-11.115,3.015
							C1469.127,1656.922,1462.854,1653.326,1461.202,1647.239z"/>
					</g>
				</g>
				<g>
					
						<linearGradient id="SVGID_00000022536571689157631100000009055650652109622459_" gradientUnits="userSpaceOnUse" x1="2742.6389" y1="-3326.0515" x2="2687.4856" y2="-2433.5806" gradientTransform="matrix(0.9651 -0.2618 0.2618 0.9651 -1163.5303 186.1516)">
						<stop  offset="0" style="stop-color:#E1473D"/>
						<stop  offset="1" style="stop-color:#E9605A"/>
					</linearGradient>
					
						<circle style="fill:url(#SVGID_00000022536571689157631100000009055650652109622459_);" cx="1606.874" cy="1084.229" r="176.089"/>
					
						<linearGradient id="SVGID_00000026870501509568637280000007762394120922607511_" gradientUnits="userSpaceOnUse" x1="2742.6377" y1="-3326.0361" x2="2687.4844" y2="-2433.5647" gradientTransform="matrix(0.9651 -0.2618 0.2618 0.9651 -1163.5303 186.1516)">
						<stop  offset="0" style="stop-color:#FF928E"/>
						<stop  offset="1" style="stop-color:#FE7062"/>
					</linearGradient>
					
						<circle style="fill:url(#SVGID_00000026870501509568637280000007762394120922607511_);" cx="1606.873" cy="1084.229" r="170.234"/>
					<path style="opacity:0.78;fill:#FFFFFF;" d="M1454.014,1056.919c-0.633,0.172-1.316,0.203-2.005,0.061
						c-2.347-0.483-3.858-2.776-3.375-5.12c12.345-60.112,56.779-107.428,115.96-123.482c9.431-2.559,19.12-4.274,28.799-5.096
						c2.385-0.204,4.485,1.566,4.688,3.951c0.202,2.386-1.541,4.513-3.955,4.689c-9.159,0.782-18.33,2.405-27.261,4.828
						c-56.002,15.192-98.05,59.969-109.734,116.852C1456.79,1055.262,1455.545,1056.504,1454.014,1056.919z"/>
					
						<ellipse transform="matrix(0.7071 -0.7071 0.7071 0.7071 -296.5347 1457.7766)" style="opacity:0.78;fill:#FFFFFF;" cx="1611.425" cy="1086.837" rx="144.082" ry="144.082"/>
					<g>
						
							<linearGradient id="SVGID_00000006685089232425204690000013666677490732294550_" gradientUnits="userSpaceOnUse" x1="2747.823" y1="-3325.7324" x2="2692.6697" y2="-2433.2605" gradientTransform="matrix(0.9651 -0.2618 0.2618 0.9651 -1163.5303 186.1516)">
							<stop  offset="0" style="stop-color:#FF928E"/>
							<stop  offset="1" style="stop-color:#FE7062"/>
						</linearGradient>
						<path style="fill:url(#SVGID_00000006685089232425204690000013666677490732294550_);" d="M1625.823,1193.915l-4.104-15.128
							c-15.943,3.647-32.552,4.157-44.947,2.312c-4.426-0.658-7.647-4.552-7.641-9.026l0.02-15.134
							c0.008-5.552,4.905-9.751,10.408-9.021c12.241,1.626,26.8,1.59,41.433-2.38c15.19-4.121,25.121-12.344,22.257-22.901
							c-2.584-9.525-12.874-12.815-35.523-12.751c-32.358-0.067-57.547-7.331-64.741-33.85
							c-6.496-23.945,6.053-46.974,35.107-60.106l-4.104-15.131c-1.321-4.869,1.555-9.886,6.423-11.207l8.888-2.411
							c4.869-1.321,9.886,1.555,11.207,6.424l3.685,13.584c14.752-3.375,26.052-3.761,35.286-3.085
							c4.731,0.346,8.353,4.358,8.354,9.102l0.001,13.992c0,5.395-4.624,9.605-9.994,9.085c-8.558-0.829-20.361-0.908-34.625,2.961
							c-18.023,4.889-21.146,13.751-19.33,20.446c2.235,8.239,14.584,10.969,39.969,11.823
							c36.194,0.961,53.868,11.092,60.643,36.067c6.216,22.914-5.188,48.121-36.747,62.211l4.593,16.931
							c1.321,4.868-1.555,9.885-6.423,11.206l-8.89,2.412C1632.161,1201.66,1627.143,1198.783,1625.823,1193.915z"/>
					</g>
				</g>
			</g>
		</g>
	</g>
</g>
</svg>
