<?xml version="1.0" encoding="utf-8"?>
<!-- Generator: Adobe Illustrator 27.5.0, SVG Export Plug-In . SVG Version: 6.00 Build 0)  -->
<svg version="1.1" id="Слой_1" xmlns="http://www.w3.org/2000/svg" xmlns:xlink="http://www.w3.org/1999/xlink" x="0px" y="0px"
	 viewBox="0 0 2000 2000" style="enable-background:new 0 0 2000 2000;" xml:space="preserve">
<rect style="fill:#FFFFFF;" width="2000" height="2000"/>
<path style="fill:#EAF5FF;" d="M853.673,1656.24c123.124-1.184,760.036,131.372,811.878-497.083
	c51.842-628.456-83.012-782.815-291.012-782.815c-381.157,0-381.217,243.304-545.999,222c-164.783-21.303-531.694-170.892-656,187
	c-91,262,76.622,752.545,188.637,818.823C473.191,1670.442,853.673,1656.24,853.673,1656.24z"/>
<g>
	<path style="fill:#CBE7FF;" d="M512.397,1650.013c0,0-354.109-1.246-360.132-188.895c-6.022-187.647,267.896,48.939,267.896,48.939
		s-281.965-213.331-169.724-311.309c112.241-97.977,225.743,280.591,225.743,280.591s-113.789-313.923-2.307-313.496
		c111.482,0.427,73.923,480.674,73.923,480.674L512.397,1650.013z"/>
	<g>
		<g>
			<path style="fill:#FFFFFF;" d="M469.387,1177.517l0.344,14.253c0.137,4.748,0.159,9.498,0.47,14.24l0.689,14.23
				c0.125,2.371,0.202,4.743,0.366,7.111l0.52,7.104l1.04,14.204c0.153,2.368,0.371,4.732,0.607,7.095l0.678,7.089l1.356,14.175
				l1.618,14.148c4.255,37.732,9.909,75.291,16.206,112.737c6.391,37.432,13.343,74.773,20.805,112.021
				c7.411,37.258,15.113,74.465,23.035,111.633l3.282,15.399l-9.486-12.569c-23.235-30.787-46.216-61.774-68.76-93.085
				c-5.656-7.812-11.194-15.712-16.775-23.579c-5.599-7.854-11.09-15.787-16.597-23.707l-8.244-11.892l-8.151-11.957l-8.107-11.986
				l-7.998-12.062l-7.988-12.066l-7.863-12.151l-7.853-12.155l-7.693-12.26l-7.664-12.275l-7.514-12.371
				c-2.492-4.13-5.036-8.229-7.485-12.385l-7.325-12.482c-2.405-4.183-4.903-8.309-7.231-12.535l-7.079-12.622
				c-4.786-8.375-9.253-16.931-13.846-25.41l-3.415-6.376l-3.303-6.437l-6.601-12.871l-1.635-3.226l-1.567-3.259l-3.135-6.519
				l-6.267-13.03l6.742,12.791l3.37,6.393l1.685,3.196l1.751,3.161l6.952,12.67l3.473,6.334l3.585,6.273
				c4.819,8.342,9.508,16.753,14.516,24.982l7.409,12.4c2.437,4.151,5.045,8.203,7.559,12.31l7.565,12.303
				c2.525,4.098,5.146,8.139,7.714,12.211l7.74,12.192l7.89,12.098l7.891,12.097l8.01,12.018l8.018,12.012l8.144,11.928
				l8.152,11.922l8.262,11.848l8.241,11.861l8.332,11.799c5.565,7.859,11.113,15.729,16.771,23.522
				c5.639,7.807,11.233,15.644,16.949,23.396c22.642,31.165,45.676,62.052,68.944,92.766l-6.204,2.83
				c-7.788-37.216-15.496-74.457-22.665-111.813c-7.11-37.366-13.913-74.806-19.688-112.42
				c-5.848-37.598-10.78-75.356-14.229-113.26l-1.234-14.218l-0.971-14.24l-0.485-7.118c-0.172-2.371-0.326-4.744-0.415-7.122
				l-0.653-14.255l-0.326-7.126c-0.1-2.375-0.112-4.755-0.172-7.132l-0.288-14.263c-0.137-4.752,0.015-9.51,0.051-14.263
				L469.387,1177.517z"/>
		</g>
	</g>
	<g>
		<g>
			<path style="fill:#FFFFFF;" d="M186.142,1453.15c24.784,20.102,50.645,38.658,77.488,55.641l10.141,6.247
				c3.386,2.072,6.703,4.251,10.164,6.201l10.285,6c3.429,1.998,6.836,4.031,10.347,5.89l10.429,5.744
				c3.468,1.928,6.931,3.867,10.476,5.656l10.57,5.484l5.285,2.741c1.759,0.918,3.563,1.751,5.342,2.63l10.676,5.28l5.338,2.643
				c1.777,0.885,3.594,1.688,5.39,2.536l10.802,5.027l5.402,2.514c1.797,0.844,3.628,1.615,5.437,2.438l10.884,4.859
				c3.629,1.618,7.247,3.265,10.923,4.776l10.986,4.638c3.657,1.559,7.293,3.173,10.989,4.639
				c29.405,12.149,59.185,23.442,89.072,34.625c-30.782-8.409-61.17-18.298-91.076-29.544c-7.501-2.747-14.902-5.76-22.333-8.697
				c-3.727-1.442-7.397-3.022-11.08-4.574l-11.047-4.66c-3.703-1.508-7.323-3.204-10.96-4.864l-10.908-4.985
				c-1.813-0.842-3.647-1.638-5.444-2.517l-5.394-2.624l-10.787-5.252c-1.787-0.898-3.597-1.75-5.364-2.687l-5.308-2.8
				l-10.614-5.599c-3.559-1.827-7.037-3.806-10.521-5.773l-10.443-5.915c-3.496-1.943-6.892-4.065-10.307-6.15l-10.24-6.26
				c-3.438-2.044-6.758-4.283-10.102-6.479l-9.998-6.639C234.174,1495.375,209.007,1475.426,186.142,1453.15z"/>
		</g>
	</g>
	<g>
		<g>
			<path style="fill:#FFFFFF;" d="M373.831,1305.114c1.481,8.672,2.469,17.368,3.283,26.073c0.845,8.704,1.44,17.421,1.897,26.145
				c0.444,8.725,0.743,17.457,0.795,26.201c0.081,8.743-0.014,17.496-0.607,26.273c-1.487-8.671-2.477-17.367-3.29-26.073
				c-0.843-8.704-1.44-17.421-1.89-26.145c-0.438-8.726-0.737-17.457-0.787-26.202
				C373.152,1322.644,373.246,1313.892,373.831,1305.114z"/>
		</g>
	</g>
	<g>
		<g>
			<path style="fill:#FFFFFF;" d="M325.273,1229.286c1.48,8.672,2.468,17.368,3.283,26.073c0.845,8.704,1.44,17.421,1.897,26.145
				c0.445,8.725,0.743,17.457,0.794,26.201c0.082,8.743-0.014,17.496-0.606,26.273c-1.487-8.671-2.478-17.367-3.29-26.073
				c-0.843-8.704-1.44-17.421-1.89-26.145c-0.438-8.726-0.737-17.457-0.787-26.202
				C324.594,1246.815,324.687,1238.063,325.273,1229.286z"/>
		</g>
	</g>
	<g>
		<g>
			<path style="fill:#FFFFFF;" d="M411.952,1359.483c1.75,8.724,3.007,17.487,4.092,26.266c1.115,8.775,1.982,17.571,2.71,26.378
				c0.716,8.808,1.285,17.628,1.608,26.468c0.354,8.838,0.53,17.689,0.211,26.582c-1.756-8.724-3.017-17.486-4.1-26.265
				c-1.113-8.775-1.981-17.571-2.702-26.379c-0.708-8.809-1.279-17.628-1.601-26.469
				C411.818,1377.228,411.64,1368.375,411.952,1359.483z"/>
		</g>
	</g>
	<g>
		<g>
			<path style="fill:#FFFFFF;" d="M209.318,1419.712c2.635,5.382,4.791,10.902,6.805,16.464c1.993,5.567,3.798,11.189,5.442,16.858
				c1.645,5.669,3.122,11.386,4.41,17.157c1.271,5.776,2.394,11.596,3.035,17.555c-2.641-5.38-4.799-10.899-6.811-16.462
				c-1.993-5.567-3.798-11.189-5.435-16.86c-1.638-5.67-3.115-11.388-4.404-17.159
				C211.091,1431.487,209.966,1425.669,209.318,1419.712z"/>
		</g>
	</g>
	<g>
		<g>
			<path style="fill:#FFFFFF;" d="M253.27,1439.616c1.824,5.739,3.155,11.545,4.338,17.371c1.163,5.829,2.13,11.685,2.933,17.563
				c0.803,5.878,1.432,11.779,1.868,17.706c0.417,5.931,0.682,11.882,0.45,17.9c-1.831-5.738-3.164-11.544-4.345-17.37
				c-1.162-5.829-2.131-11.685-2.926-17.563c-0.796-5.879-1.426-11.78-1.862-17.708
				C253.31,1451.584,253.043,1445.634,253.27,1439.616z"/>
		</g>
	</g>
	<g>
		<g>
			<path style="fill:#FFFFFF;" d="M294.792,1454.49c1.957,6.28,3.397,12.637,4.718,19.009c1.289,6.378,2.385,12.783,3.314,19.212
				c0.93,6.43,1.688,12.884,2.251,19.365c0.534,6.486,0.944,12.99,0.833,19.569c-1.963-6.28-3.407-12.636-4.725-19.009
				c-1.289-6.377-2.385-12.782-3.307-19.213c-0.923-6.43-1.681-12.884-2.245-19.365
				C295.101,1467.571,294.688,1461.068,294.792,1454.49z"/>
		</g>
	</g>
	<g>
		<g>
			<path style="fill:#FFFFFF;" d="M343.821,1475.381c2.207,7.251,3.897,14.584,5.468,21.937c1.54,7.356,2.887,14.744,4.067,22.158
				c1.182,7.414,2.19,14.855,3.006,22.327c0.787,7.477,1.449,14.974,1.592,22.552c-2.212-7.25-3.906-14.582-5.475-21.935
				c-1.54-7.357-2.886-14.745-4.06-22.16c-1.175-7.415-2.185-14.855-3-22.328C344.636,1490.455,343.971,1482.959,343.821,1475.381z"
				/>
		</g>
	</g>
	<g>
		<g>
			<path style="fill:#FFFFFF;" d="M394.566,1506.821c1.773,5.984,3.053,12.03,4.184,18.093c1.11,6.065,2.026,12.155,2.775,18.265
				c0.751,6.11,1.327,12.241,1.71,18.396c0.364,6.157,0.575,12.332,0.288,18.568c-1.78-5.983-3.061-12.028-4.19-18.092
				c-1.11-6.065-2.026-12.155-2.769-18.266c-0.744-6.11-1.321-12.241-1.703-18.396
				C394.499,1519.232,394.285,1513.057,394.566,1506.821z"/>
		</g>
	</g>
	<g>
		<g>
			<path style="fill:#FFFFFF;" d="M512.214,1243.779c-1.684,7.639-3.859,15.098-6.146,22.516
				c-2.318,7.406-4.819,14.746-7.479,22.028c-2.658,7.282-5.481,14.504-8.487,21.659c-3.034,7.146-6.187,14.247-9.832,21.168
				c1.678-7.641,3.85-15.101,6.14-22.518c2.318-7.407,4.819-14.747,7.485-22.026c2.665-7.28,5.487-14.502,8.494-21.657
				C505.425,1257.805,508.574,1250.702,512.214,1243.779z"/>
		</g>
	</g>
	<g>
		<g>
			<path style="fill:#FFFFFF;" d="M529.353,1334.579c-1.938,8.038-4.336,15.902-6.898,23.705c-2.533,7.813-5.3,15.538-8.196,23.214
				c-2.907,7.672-5.953,15.291-9.228,22.823c-3.247,7.543-6.661,15.022-10.54,22.326c1.932-8.041,4.329-15.905,6.891-23.708
				c2.535-7.813,5.3-15.538,8.203-23.211c2.914-7.669,5.958-15.289,9.235-22.82C522.069,1349.365,525.481,1341.885,529.353,1334.579
				z"/>
		</g>
	</g>
	<g>
		<g>
			<path style="fill:#FFFFFF;" d="M531.04,1429.165c-1.193,4.972-2.836,9.732-4.615,14.429c-1.797,4.688-3.772,9.292-5.899,13.825
				c-2.125,4.534-4.41,8.993-6.871,13.369c-2.479,4.367-5.096,8.67-8.168,12.759c1.187-4.975,2.829-9.735,4.609-14.431
				c1.798-4.688,3.773-9.293,5.905-13.823c2.132-4.53,4.416-8.989,6.877-13.365C525.358,1437.561,527.974,1433.257,531.04,1429.165z
				"/>
		</g>
	</g>
</g>
<g>
	<g>
		<g>
			<path style="fill:#CBEBFF;" d="M1394.688,471.334c-4.318-14.096-8.432-28.26-12.168-42.529
				c-3.743-14.268-7.131-28.637-9.877-43.145c-2.732-14.502-4.962-29.145-5.644-43.958c-0.159-3.702-0.205-7.416-0.072-11.135
				c0.13-3.718,0.44-7.444,1.099-11.149c0.698-3.686,1.63-7.426,3.728-10.818c1.048-1.664,2.493-3.283,4.493-4.188
				c0.987-0.452,2.084-0.7,3.169-0.723c1.087-0.008,2.14,0.192,3.125,0.508c1.976,0.647,3.661,1.747,5.177,2.965
				c1.516,1.225,2.863,2.6,4.104,4.043c2.474,2.897,4.544,6.059,6.404,9.317c3.687,6.539,6.506,13.489,8.789,20.581
				c4.534,14.207,6.934,29.031,7.555,43.902c1.247,29.756-4.796,59.814-17.475,86.832l0.2-0.709l-11.716,113.76l-12.019,113.725
				l-12.291,113.695l-12.524,113.67c-8.413,75.773-17.024,151.525-25.796,227.259l-6.66,56.792l-3.339,28.395l-3.426,28.385
				c-4.594,37.845-9.066,75.702-13.85,113.525c3.501-37.964,7.313-75.894,11.004-113.836l2.787-28.455l2.875-28.445l5.767-56.89
				c7.797-75.841,15.755-151.663,23.911-227.464l12.328-113.691l12.563-113.666l12.834-113.637l13.139-113.603l0.044-0.384
				l0.156-0.324c12.622-26.265,18.819-55.612,17.866-84.8c-0.498-14.576-2.63-29.154-6.896-43.104
				c-2.143-6.961-4.813-13.779-8.291-20.135c-1.751-3.163-3.703-6.219-5.984-8.961c-1.143-1.365-2.373-2.648-3.712-3.756
				c-1.334-1.105-2.788-2.055-4.321-2.574c-0.764-0.255-1.54-0.408-2.301-0.414c-0.758,0.01-1.495,0.167-2.187,0.471
				c-1.392,0.598-2.57,1.811-3.483,3.232c-1.846,2.877-2.825,6.416-3.526,9.933c-0.677,3.548-1.03,7.181-1.204,10.826
				c-0.177,3.647-0.179,7.31-0.068,10.974c0.486,14.664,2.516,29.283,5.057,43.775
				C1379.236,414.396,1386.535,443.004,1394.688,471.334z"/>
		</g>
	</g>
	<g>
		<g>
			<path style="fill:#CBEBFF;" d="M1392.842,492.815c-14.533-20.729-29.374-41.255-45.511-60.663
				c-8.095-9.662-16.436-19.152-25.592-27.667c-4.58-4.222-9.364-8.279-14.494-11.458c-2.543-1.545-5.275-2.933-7.793-3.363
				c-1.244-0.223-2.357-0.133-3.01,0.24c-0.651,0.344-1.158,0.988-1.485,2.102c-0.339,1.07-0.416,2.435-0.368,3.809
				c0.055,1.386,0.258,2.824,0.553,4.264c0.601,2.885,1.526,5.774,2.637,8.607c2.237,5.668,5.136,11.145,8.369,16.406
				c6.52,10.512,14.491,20.162,23.429,28.744c4.473,4.292,9.213,8.295,14.155,12.019c4.938,3.73,10.107,7.146,15.48,10.193
				c10.729,6.124,22.292,10.743,34.269,13.624l-2.465,0.32c25.011-13.55,47.48-31.877,65.492-53.924
				c9.014-10.993,17.021-22.867,23.319-35.561c3.132-6.344,5.854-12.898,7.763-19.609c0.938-3.352,1.685-6.747,2.023-10.092
				c0.165-1.669,0.218-3.326,0.088-4.891c-0.125-1.552-0.459-3.043-1.031-4.072c-0.599-1.043-1.178-1.467-2.18-1.623
				c-1.016-0.152-2.462,0.164-3.873,0.764c-2.869,1.211-5.689,3.291-8.322,5.518c-5.286,4.528-10.027,9.9-14.548,15.413
				c-9.024,11.091-17.076,23.064-24.725,35.264C1419.699,441.599,1406.079,467.116,1392.842,492.815
				c11.779-26.407,24.588-52.39,39.154-77.471c7.367-12.488,15.143-24.776,24.058-36.366c4.498-5.764,9.261-11.369,14.855-16.374
				c2.833-2.468,5.817-4.854,9.585-6.559c1.887-0.81,4.047-1.528,6.648-1.268c1.281,0.134,2.652,0.604,3.784,1.404
				c1.142,0.793,1.995,1.845,2.601,2.898c1.209,2.136,1.616,4.271,1.844,6.298c0.207,2.035,0.171,4.005,0.021,5.934
				c-0.307,3.857-1.073,7.56-2.047,11.173c-1.963,7.222-4.737,14.1-7.92,20.751c-6.412,13.28-14.498,25.647-23.712,37.072
				c-18.517,22.773-41.529,41.898-67.399,55.796l-1.179,0.633l-1.286-0.314c-25.303-6.162-48.437-19.807-66.799-37.928
				c-9.201-9.063-17.357-19.183-24.047-30.271c-3.335-5.549-6.293-11.355-8.563-17.518c-1.133-3.082-2.09-6.259-2.712-9.586
				c-0.304-1.666-0.518-3.375-0.552-5.152c-0.015-1.779,0.077-3.626,0.716-5.576c0.317-0.966,0.76-1.965,1.474-2.889
				c0.697-0.921,1.656-1.739,2.733-2.264c1.072-0.525,2.226-0.796,3.278-0.838c1.054-0.048,2.069,0.028,2.992,0.224
				c3.729,0.767,6.671,2.472,9.489,4.227c5.576,3.6,10.35,7.951,14.943,12.424c9.123,9.014,17.295,18.786,25.105,28.801
				C1365.438,450.184,1379.532,471.274,1392.842,492.815z"/>
		</g>
	</g>
	<g>
		<g>
			<path style="fill:#CBEBFF;" d="M1391.26,528.023c-6.629-5.094-13.281-10.154-19.967-15.17
				c-6.669-5.035-13.351-10.052-20.078-15.004c-13.453-9.907-27.049-19.617-40.867-28.974
				c-13.816-9.351-27.789-18.488-42.242-26.695c-7.227-4.083-14.576-7.968-22.107-11.204c-3.76-1.588-7.604-3.039-11.402-3.885
				c-1.869-0.408-3.813-0.65-5.279-0.435c-0.726,0.102-1.205,0.357-1.311,0.505c-0.073,0.073-0.102,0.143-0.153,0.289
				c-0.048,0.144-0.076,0.39-0.068,0.689c0.031,1.262,0.735,3.084,1.608,4.728c0.885,1.681,1.973,3.341,3.143,4.958
				c2.352,3.235,5.038,6.316,7.848,9.285c5.65,5.924,11.808,11.438,18.197,16.66c12.814,10.422,26.624,19.662,41.027,27.785
				c14.424,8.092,29.447,15.122,44.976,20.725c15.524,5.593,31.563,9.754,47.855,11.985l-0.841-0.014
				c31.69-3.415,63.204-9.48,93.208-20.026c14.98-5.246,29.621-11.58,43.169-19.663c6.739-4.063,13.235-8.565,18.922-13.804
				c2.814-2.625,5.469-5.429,7.523-8.471c1.01-1.516,1.896-3.097,2.418-4.654c0.543-1.556,0.676-3.059,0.332-4.17
				c-0.324-1.102-1.17-2.002-2.55-2.691c-1.341-0.703-3.087-1.08-4.862-1.298c-3.605-0.397-7.479-0.073-11.297,0.519
				c-7.673,1.218-15.279,3.551-22.736,6.225c-14.935,5.408-29.344,12.445-43.397,20.07c-14.083,7.601-27.822,15.885-41.296,24.588
				c-6.736,4.353-13.406,8.815-20.02,13.362C1404.373,518.748,1397.791,523.35,1391.26,528.023
				c6.313-4.966,12.682-9.862,19.118-14.676c6.462-4.775,12.989-9.467,19.591-14.059c13.208-9.172,26.703-17.964,40.635-26.078
				c13.974-8.025,28.334-15.491,43.476-21.398c7.582-2.916,15.368-5.44,23.543-6.9c4.093-0.697,8.288-1.165,12.688-0.77
				c2.196,0.239,4.467,0.629,6.729,1.727c1.122,0.545,2.245,1.263,3.223,2.258c0.976,0.991,1.767,2.262,2.206,3.615
				c0.886,2.748,0.476,5.434-0.236,7.658c-0.723,2.266-1.809,4.228-2.984,6.07c-2.383,3.661-5.255,6.766-8.278,9.637
				c-6.077,5.715-12.812,10.467-19.768,14.767c-13.967,8.523-28.887,15.182-44.155,20.674c-15.294,5.446-30.962,9.713-46.793,13.097
				c-15.839,3.358-31.844,5.869-47.928,7.521l-0.429,0.044l-0.411-0.058c-16.833-2.36-33.316-6.699-49.217-12.483
				c-15.906-5.789-31.254-13.016-45.883-21.455c-14.631-8.436-28.618-17.986-41.643-28.783
				c-6.505-5.408-12.769-11.135-18.547-17.414c-2.883-3.146-5.657-6.418-8.166-9.984c-1.25-1.788-2.438-3.647-3.469-5.682
				c-0.516-1.018-0.989-2.083-1.38-3.24c-0.385-1.157-0.705-2.412-0.73-3.897c-0.004-0.742,0.069-1.553,0.352-2.402
				c0.276-0.841,0.771-1.71,1.449-2.369c1.382-1.355,3.005-1.777,4.328-1.967c2.696-0.313,4.954,0.123,7.148,0.608
				c4.351,1.047,8.331,2.647,12.237,4.364c7.786,3.471,15.147,7.588,22.377,11.884c14.428,8.643,28.3,18.062,41.897,27.835
				c13.577,9.803,26.896,19.936,40.059,30.256c6.577,5.166,13.127,10.364,19.619,15.633
				C1378.399,517.339,1384.843,522.666,1391.26,528.023z"/>
		</g>
	</g>
</g>
<g>
	<path style="fill:#CBEBFF;" d="M1426.054,1438.275c48.205-12.332,455.141-284.743,425.993-517.919
		c-29.146-233.175-286.984,60.536-286.984,60.536s149.098-276.896,99.771-378.91c-49.325-102.014-250.982-21.763-342.973,343.926
		c-91.989,365.689-80.778,512.546-80.778,512.546L1426.054,1438.275z"/>
	<g style="opacity:0.5;">
		<path style="fill:#FFFFFF;" d="M1800.479,864.305c-35.267,46.882-70.746,93.598-106.277,140.273l-53.379,69.95l-53.487,69.867
			l-53.563,69.808l-53.704,69.697l-53.736,69.673l-53.863,69.575l-13.979,18.059l6.242-21.982
			c19.38-68.243,39.029-136.41,58.613-204.596l29.522-102.236l29.643-102.202l29.83-102.148l30.021-102.094
			c20.117-68.032,40.254-136.06,60.816-203.966c-18.472,68.504-37.367,136.887-56.284,205.263l-28.526,102.521l-28.721,102.466
			l-28.908,102.412l-29.026,102.379c-19.449,68.224-38.832,136.467-58.485,204.633l-7.738-3.924l54.013-69.459l54.138-69.361
			l54.172-69.336l54.312-69.227l54.389-69.167l54.496-69.083C1727.393,956.086,1763.829,910.112,1800.479,864.305z"/>
	</g>
	<g style="opacity:0.5;">
		<path style="fill:#FFFFFF;" d="M1688.937,890.648c0.699,10.066,1.09,20.125,1.443,30.183c0.206,5.03,0.267,10.057,0.407,15.085
			c0.138,5.028,0.226,10.056,0.29,15.082c0.136,10.055,0.187,20.106,0.162,30.156c-0.026,10.051-0.113,20.1-0.278,30.148
			l-5.159-4.502c5.797-0.934,11.594-1.871,17.399-2.75c5.801-0.907,11.608-1.776,17.419-2.622
			c11.618-1.711,23.255-3.311,34.906-4.814c5.825-0.756,11.656-1.47,17.49-2.17l17.522-1.969
			c11.697-1.206,23.396-2.409,35.164-3.174c-11.434,2.886-22.936,5.335-34.439,7.781l-17.279,3.508
			c-5.767,1.127-11.535,2.239-17.312,3.308c-11.55,2.15-23.115,4.201-34.697,6.142c-5.79,0.98-11.583,1.938-17.383,2.856
			c-5.794,0.946-11.599,1.836-17.402,2.727l-5.286,0.812l0.127-5.313c0.241-10.046,0.562-20.091,0.941-30.134
			c0.383-10.044,0.841-20.085,1.383-30.125c0.268-5.021,0.559-10.04,0.9-15.058c0.344-5.019,0.608-10.039,1.018-15.057
			C1687.034,910.713,1687.831,900.678,1688.937,890.648z"/>
	</g>
	<g style="opacity:0.5;">
		<path style="fill:#FFFFFF;" d="M1584.681,998.269c0.416,12.785,0.44,25.553,0.483,38.321c-0.058,12.764-0.128,25.527-0.367,38.283
			c-0.234,12.756-0.55,25.509-0.959,38.257c-0.398,12.749-0.896,25.493-1.442,38.236l-4.761-4.686l19.487-1.133l19.494-1.009
			c12.999-0.61,26.001-1.196,39.012-1.626c13.008-0.474,26.028-0.747,39.048-1.024c13.027-0.158,26.052-0.354,39.103-0.128
			c-12.929,1.795-25.882,3.166-38.834,4.576c-12.959,1.289-25.917,2.585-38.888,3.679c-12.969,1.138-25.946,2.119-38.925,3.076
			l-19.474,1.343l-19.481,1.219l-4.99,0.312l0.229-4.997c0.584-12.74,1.215-25.479,1.945-38.213
			c0.72-12.735,1.533-25.466,2.428-38.192c0.89-12.728,1.948-25.447,3.021-38.166
			C1581.981,1023.682,1583.135,1010.967,1584.681,998.269z"/>
	</g>
	<g style="opacity:0.5;">
		<path style="fill:#FFFFFF;" d="M1530.871,610.391c4.293,8.618,8.154,17.393,12.008,26.17c3.806,8.795,7.478,17.639,11.034,26.523
			c3.533,8.893,7.021,17.803,10.352,26.77c3.366,8.955,6.604,17.954,9.801,26.969l-6.201-2.449l10.042-4.959l10.086-4.871
			c6.746-3.205,13.504-6.386,20.315-9.463c6.803-3.092,13.639-6.121,20.54-9.021c6.891-2.92,13.813-5.778,20.853-8.406
			c-6.263,4.152-12.644,8.074-19.055,11.935c-6.401,3.88-12.869,7.632-19.368,11.319c-6.492,3.703-13.037,7.303-19.594,10.879
			l-9.867,5.299l-9.913,5.213l-4.439,2.333l-1.763-4.784c-3.306-8.976-6.568-17.967-9.705-27.004
			c-3.172-9.023-6.186-18.104-9.155-27.201c-2.945-9.105-5.775-18.254-8.472-27.449
			C1535.72,628.979,1533.079,619.762,1530.871,610.391z"/>
	</g>
	<g style="opacity:0.5;">
		<path style="fill:#FFFFFF;" d="M1426.614,778.545c8.054,11.282,15.729,22.791,23.376,34.316
			c7.594,11.557,15.145,23.141,22.514,34.833c7.377,11.688,14.701,23.407,21.894,35.205c7.225,11.779,14.331,23.63,21.399,35.503
			l-6.984-0.838l11.707-11.648l11.773-11.581c7.889-7.682,15.795-15.346,23.784-22.929c3.979-3.805,8.003-7.568,12.031-11.326
			c4.031-3.754,8.023-7.548,12.109-11.249c8.12-7.452,16.284-14.862,24.642-22.081c-7.124,8.438-14.439,16.687-21.799,24.892
			c-3.654,4.127-7.402,8.163-11.11,12.237c-3.712,4.07-7.429,8.136-11.189,12.158c-7.49,8.076-15.063,16.069-22.655,24.045
			l-11.446,11.904l-11.514,11.839l-3.99,4.104l-2.993-4.941c-7.159-11.819-14.281-23.66-21.284-35.572
			c-7.034-11.893-13.938-23.865-20.788-35.869c-6.859-11.999-13.535-24.107-20.169-36.241
			C1439.341,803.139,1432.788,790.955,1426.614,778.545z"/>
	</g>
</g>
<path style="fill:#B8DEFF;" d="M1315.034,1276.82c0,0,67.821-169.557,194.342-132.293c126.521,37.263,28.709,132.438,63.091,160.711
	c34.381,28.271,105.215-84.899,161.882-27.835c86.817,87.427-5.435,220.658-139.542,267.837
	c-134.107,47.18-158.462,79.382-158.462,79.382L1315.034,1276.82z"/>
<path style="fill:#E4FFFB;" d="M1337.519,1392.756c0,0,10.186-67.213,83.854-67.269c73.668-0.057,148.166,73.152,120.158,170.285
	s-90.209,116.031-90.209,116.031L1337.519,1392.756z"/>
<path style="fill:#D6ECFF;" d="M1072.039,1567.842c129,0,254,36,268-23s0-869,0-869s-766.999-29-789.999,0s-5,919,13,933
	s307-26,307-26S882.944,1567.842,1072.039,1567.842z"/>
<path style="fill:#FFC371;" d="M696.54,1258.342c63-5,117,13,122,113s-0.769,221.765-53.385,222.383
	c-52.615,0.617-98.615,9.617-115.615-26.383s-10-263,10-286S696.54,1258.342,696.54,1258.342z"/>
<path style="fill:#FFA658;" d="M706.262,1595.061c12.501,0.369,26.283-0.335,40.822-0.863l0.416-333.102
	c-8.593-2.049-17.693-3.11-27.144-3.41L706.262,1595.061z"/>
<path style="fill:#B8DEFF;" d="M596.231,799.237l268.308,0.104c0,0-8-126,0-136s476.999-10,487.999,0s2,743-12,746s-28,0-28,0
	s20-717,11-727s-432.999-7-438.999,0s5,917-2,923s-22,9-26,4s0-415,0-415s-243,0-248-7s-2-16-2-16l249,6c0,0,5-137,1-144
	s-285,2-282-9s25-13,25-13s255,6,256,2s5-181-1-189s-285-7-285-7l-6.135-15.25L596.231,799.237z"/>
<path style="fill:#FF5862;" d="M585.013,799.139c0,0,21.689-15.428,15.856-47.198c-5.832-31.771-36.756-33.98-36.756-33.98
	l-14.515,21.601L585.013,799.139z"/>
<path style="fill:#FF5862;" d="M503.626,791.268c0,0-7.072,15.023-29.637,31.258c-24.348,17.52-29.902,56.174-18.945,81.994
	c24.47,57.658,79.864,64.109,122.551,39.926c42.688-24.184,24.498-115.021,19.51-133.428c-4.988-18.404,0.07-44.32,0.07-44.32
	L503.626,791.268z"/>
<path style="fill:#FF2E57;" d="M572.698,909.657c42.687-24.184,29.396-80.233,24.407-98.64C592.117,792.613,593,762,593,762
	l-26.022,12.629l-23.247,11.367c0,0-5.154,19.076-31.114,42.449c-25.961,23.375-39.088,41.748-39.2,68.412
	c-0.111,26.451,24.189,47.252,68.403,49.389C550.579,944.198,564.424,914.345,572.698,909.657z"/>
<path style="fill:#F2BC9C;" d="M592.917,803.673c-4.933,7.558-9.066,15.653-5.587,28.865l13.036,10.242l-13.036,41.901
	l-52.144-24.209c0,0,26.072-18.623,28.865-36.315c2.793-17.692,0.931-31.659,0.931-31.659L592.917,803.673z"/>
<path style="fill:#F2A374;" d="M551.086,846.344l5.517,6.68c0,0,5.587-12.105,14.898-22.348c5.523-6.075,11.045-8.547,14.626-9.553
	c0.506-6.997,3.461-12.35,6.79-17.45l-27.934-11.174c0,0,1.862,13.967-0.931,31.659C562.825,831.926,557.11,839.873,551.086,846.344
	z"/>
<path style="fill:#F2BC9C;" d="M584.956,747.455c14.182,1.941,8.69,26.93,11.813,38.698c3.122,11.769,6.245,23.538-0.602,31.772
	c-6.848,8.234-37.01,11.008-43.303-10.021c-6.292-21.029,1.094-57.691,1.094-57.691L584.956,747.455z"/>
<path style="fill:#FF5862;" d="M587.517,747.559c-10.694,17.943-22.792,33.416-43.675,33.41l-44.107,18.857
	c0,0,10.033-16.81,6.453-33.674c-3.58-16.863,14.815-47.197,37.491-49.012C593.831,713.127,587.517,747.559,587.517,747.559z"/>
<path style="fill:#3FA9F5;" d="M701.04,961.842c-9.958,3.72,0,27.586,0,27.586l128.393,10.255c0,0,18.607-16.841,8.607-23.841
	s-52,0-80-5S714.554,956.795,701.04,961.842z"/>
<path style="fill:#FF5862;" d="M801.04,1545.842c16.232-10.076,55,47,37,60s-56,2-56-14S790.469,1552.404,801.04,1545.842z"/>
<path style="fill:#FF2E57;" d="M802.04,1550.842c6.172-3.303,35,18,24,27s-30,9-33,0S795.767,1554.199,802.04,1550.842z"/>
<path style="fill:#FF5862;" d="M753.705,1545.842c-16.232-10.076-55,47-37,60s56,2,56-14S764.276,1552.404,753.705,1545.842z"/>
<path style="fill:#FF2E57;" d="M729.093,1575.297c1.209,6.895,35.761,16.437,36.056,2.227c0.295-14.209-11.428-29.161-20.362-25.969
	S727.865,1568.288,729.093,1575.297z"/>
<path style="fill:#130E47;" d="M643.04,1541.842c14,2,29,40,16,47s-70,6-74,0s30-26,30-26s11,17,22,5
	S643.04,1541.842,643.04,1541.842z"/>
<path style="fill:#1B1464;" d="M678.04,1556.842c14,2,29,40,16,47s-70,6-74,0s30-26,30-26s11,17,22,5
	S678.04,1556.842,678.04,1556.842z"/>
<path style="fill:#F2BC9C;" d="M589.083,1386.052c0,0-15.393,62.626-14.891,88.1c1.149,58.374,14.87,135.74,7.765,146.582
	c-7.104,10.842-1.542,23.165,16.478,28.775c18.021,5.609,65.907,5.375,74.641,0.56c8.734-4.814-60.566-21.092-60.506-31.59
	c0.061-10.499,11.359-255.42,11.359-255.42l-32.021,12.209L589.083,1386.052z"/>
<path style="fill:#F2A374;" d="M589.128,1639.699c0,0,1.245-58.502,0-126.962c-1.245-68.459,25.65-156.408,25.65-156.408
	l-10.526-2.005l-10.343,3.943l-4.826,27.784c0,0-15.393,62.626-14.891,88.1c1.149,58.374,14.87,135.74,7.765,146.582
	c-5.251,8.013-3.574,16.831,4.927,23.154l8.249,4.464c1.05,0.411,2.15,0.799,3.302,1.157c1.223,0.381,2.594,0.732,4.072,1.06
	L589.128,1639.699z"/>
<path style="fill:#F2BC9C;" d="M546.83,1370.922c0,0-24.99,56.577-24.803,119.259c0.187,62.683,23.444,153.127,15.816,164.767
	c-7.628,11.641-3.495,33.208,23.901,33.295c20.263,0.065,64.547,3.369,73.924-1.8c9.377-5.169-65.024-22.646-64.959-33.916
	c0.065-11.271,13.822-308.984,13.822-308.984l-34.668,15.803L546.83,1370.922z"/>
<path style="fill:#FF2E57;" d="M591.137,1665.812c1.585,2.97,2.646,5.936,1.726,7.495c-7.975,13.501-44.736-1.245-56.687-15.209
	c-5.087,11.986,0.488,30.065,25.569,30.145c20.263,0.065,64.547,3.369,73.924-1.8
	C641.772,1683.078,612.384,1674.499,591.137,1665.812z"/>
<path style="fill:#FF2E57;" d="M638.639,1633.624c0.035,2.481-0.5,4.792-2.211,6.075c-9.957,7.468-23.649,2.489-39.831-4.979
	c-7.123-3.287-12.314-7.78-15.896-11.78c-5.039,10.264,0.926,21.337,17.735,26.569c18.021,5.609,65.907,5.375,74.641,0.56
	C678.11,1647.294,657.227,1640.713,638.639,1633.624z"/>
<g>
	<path style="fill:#FFFFFF;" d="M567.448,1054.845c-1.808,6.839-4.241,13.534-7.415,19.921c-0.831,1.576-1.647,3.165-2.528,4.72
		c-0.945,1.517-1.849,3.063-2.832,4.561c-1.042,1.459-2.053,2.943-3.169,4.35l-1.715,2.081c-0.574,0.692-1.129,1.401-1.769,2.036
		c-2.471,2.616-5.106,5.094-7.976,7.271c-1.472,1.041-2.867,2.185-4.441,3.068c-1.542,0.927-3.039,1.929-4.689,2.653
		c-6.399,3.258-13.335,5.315-20.349,6.221c6.75-2.128,13.255-4.754,19.224-8.274c5.958-3.521,11.371-7.88,16.025-12.971
		c4.706-5.048,8.657-10.792,12.162-16.818C561.469,1067.619,564.472,1061.263,567.448,1054.845z"/>
</g>
<path style="fill:#FFA658;" d="M736.755,774.693c0,0,34.176-1.89,53.907-2.928c19.73-1.039,43.614,18.691,42.576,23.884
	c-1.039,5.192-149.536,3.115-149.536,3.115s-4.154-13.5,8.308-18.692c12.461-5.191,31.153-8.307,31.153-8.307L736.755,774.693z"/>
<path style="fill:#F2BC9C;" d="M636.412,862.198c30.531,33.402,63.906,12.487,82.598-69.549c0,0,7.269-24.923,22.846-23.884
	c15.577,1.038,13.499,6.23,13.499,6.23l-11.423,14.537c0,0,9.346,2.078,8.308,6.231c-1.039,4.153-20.768,6.231-20.768,6.231
	c-8.308,104.882-57.451,125.764-103.844,90.345L636.412,862.198z"/>
<path style="fill:#1B1464;" d="M616.273,1014.655c0,0,22.258-85.451,23.297-96.874c1.038-11.423-5.192-29.076-5.192-29.076
	l15.577-17.654c0,0-7.269-6.23-19.731-14.537c-12.461-8.309-37.306-19.586-37.306-19.586s3.038,19.586-4.232,25.816
	c-6.628,5.681-32.654-22.211-32.654-22.211c-28.095,6.115-54.056,33.114-54.056,52.845c0,0,30.652,19.835,33.231,32.191
	c7.472,35.817,1.114,88.793,1.114,88.793c-8.369,10.966-36.814,58.204-36.814,107.371c0,129.563-30.241,213.501-30.241,213.501
	c13.993,14.504,143.721,49.019,155.961,34.36c0,0,23.682-186.677,17.459-257.625
	C636.461,1041.021,616.273,1014.655,616.273,1014.655z"/>
<path style="fill:#CB1CE6;" d="M639.05,946.338c10.264-7.438,33.23-13.5,44.653-13.5c11.423,0,30.115-4.152,34.269,3.116
	s-2.077,17.653-14.538,19.729c-12.461,2.078-37.384,7.27-46.73,13.5c-9.346,6.231-34.269,15.577-40.499,7.27
	C609.974,968.146,631.398,951.884,639.05,946.338z"/>
<path style="fill:#F2BC9C;" d="M681.63,962.952c-1.04,6.229-31.16,17.65-31.16,17.65c-9.32,5.721-19.01,10.03-28.78,12.99
	c-29.83,9.051-60.37,5.54-83.19-8.519c-26.89-16.561-43.05-47.78-34.61-90.41c5.53,3.74,21.6,15.09,28.4,24.84
	c0.83,7.45,2.56,14.13,5.09,20.04c13,30.521,47.11,40.81,89.8,32.38c6.06-1.199,12.29-2.77,18.66-4.72
	c2.94-5.33,9.33-15.931,13.98-16.71c6.23-1.04,0,13.5,0,13.5S682.66,956.723,681.63,962.952z"/>
<path style="fill:#FF5862;" d="M692.886,1013.262c0,0-5.846-29.42,27.154-28.42s68,10,91,9s27.207,20.707,27.207,20.707
	L692.886,1013.262z"/>
<path style="fill:#FFA658;" d="M682.584,1173.175c0,0-15.544-19.333,9.456-29.333s79,4,112,0s40,14,37,19s-8.52,13.945-8.52,13.945
	L682.584,1173.175z"/>
<polygon style="fill:#B8DEFF;" points="882.718,752.321 1325.848,763.005 1325.848,786.021 882.718,772.812 "/>
<g>
	<path style="fill:#35105F;" d="M917.54,811.342c1.206-7.294,2.336-14.563,3.243-21.842c0.418-3.643,0.848-7.277,1.09-10.92
		c0.271-3.639,0.453-7.278,0.376-10.896c-0.034-3.611-0.278-7.229-1.052-10.669c-0.336-1.738-0.908-3.38-1.591-4.946
		c-0.774-1.519-1.713-2.858-2.973-3.943c-1.363-1.14-2.825-2.152-4.372-2.877c-0.773-0.368-1.572-0.631-2.382-0.791
		c-0.808-0.127-1.622-0.111-2.396,0.098c-1.571,0.389-2.879,1.662-3.811,3.17c-0.931,1.521-1.594,3.258-2.016,5.053
		c0.11-1.846,0.498-3.701,1.282-5.444c0.77-1.719,2.097-3.411,4.081-4.176c0.976-0.376,2.041-0.48,3.063-0.41
		c1.016,0.102,2.002,0.34,2.93,0.684c1.865,0.682,3.509,1.727,5.053,2.843c1.642,1.209,2.948,2.863,3.888,4.609
		c0.868,1.775,1.57,3.612,2.01,5.482c0.929,3.741,1.197,7.526,1.284,11.276c0.052,7.51-0.813,14.922-2.158,22.213
		C921.733,797.143,919.952,804.345,917.54,811.342z"/>
</g>
<g>
	<path style="fill:#35105F;" d="M986.54,796.342c0.087-4.94,0.342-9.834,0.593-14.718c0.095-2.444,0.265-4.878,0.339-7.313
		c0.106-2.433,0.213-4.86,0.22-7.28c0.057-2.417,0.033-4.832-0.134-7.198c-0.073-1.181-0.187-2.358-0.413-3.466
		c-0.217-1.082-0.535-2.242-1.024-2.83c-0.129-0.235-0.714-0.542-1.132-0.826c-0.485-0.2-0.959-0.461-1.486-0.573
		c-1.031-0.302-2.165-0.364-3.301-0.194c-2.289,0.292-4.56,1.281-6.655,2.567c1.692-1.807,3.845-3.242,6.352-4.009
		c1.254-0.373,2.63-0.492,3.995-0.291c0.696,0.053,1.346,0.32,2.009,0.537c0.627,0.35,1.217,0.495,1.923,1.185
		c1.187,1.243,1.523,2.571,1.879,3.839c0.337,1.279,0.529,2.543,0.682,3.802c0.266,2.52,0.311,5.016,0.302,7.501
		c-0.109,4.969-0.533,9.891-1.235,14.771C988.761,786.727,987.856,791.574,986.54,796.342z"/>
</g>
<g>
	<path style="fill:#35105F;" d="M1027.898,802.57c0.119-5.379,0.399-10.713,0.674-16.038l0.378-7.978
		c0.121-2.654,0.24-5.305,0.268-7.951c0.078-2.643,0.079-5.285-0.038-7.897c-0.095-2.596-0.323-5.244-1.017-7.543
		c-0.185-0.559-0.419-1.086-0.702-1.47c-0.139-0.206-0.293-0.329-0.438-0.451l-0.789-0.444c-1.061-0.563-2.222-0.926-3.418-0.897
		c-2.418,0.018-4.772,1.599-6.472,3.641c0.583-1.216,1.417-2.332,2.477-3.249c1.049-0.921,2.381-1.616,3.854-1.858
		c1.479-0.233,3,0.048,4.365,0.57l1.013,0.434c0.414,0.238,0.79,0.535,1.064,0.859c0.572,0.646,0.93,1.339,1.229,2.021
		c0.591,1.37,0.909,2.744,1.149,4.115c0.238,1.369,0.399,2.734,0.52,4.096c0.209,2.725,0.229,5.435,0.199,8.135
		c-0.146,5.398-0.593,10.76-1.32,16.08C1030.177,792.066,1029.247,797.358,1027.898,802.57z"/>
</g>
<path style="fill:#2A2370;" d="M926.04,792.342c26,0,56,328,34,338s-30,20-34,10s-26-348-13-348S926.04,792.342,926.04,792.342z"/>
<path style="fill:#CB1CE6;" d="M987.04,786.342c14.036,0,18,437,0,439c-18,2-9-258-11-312S968.04,786.342,987.04,786.342z"/>
<path style="fill:#FFC371;" d="M1037.039,792.342c13.504,1.627,16,346,0,357c-16,11-32-11-29-28s2-308,7-318
	S1030.935,791.606,1037.039,792.342z"/>
<g>
	<g>
		<path style="fill:#35105F;" d="M1149.039,785.842c7.917,6.977,15.715,14.091,23.425,21.299
			c7.703,7.217,15.37,14.478,22.794,21.996c3.712,3.759,7.381,7.563,10.951,11.473c3.553,3.927,7.075,7.882,10.157,12.301
			c0.761,1.116,1.49,2.264,2.099,3.553c0.296,0.652,0.575,1.332,0.699,2.184c0.052,0.426,0.073,0.926-0.137,1.494
			c-0.191,0.574-0.752,1.097-1.229,1.293c-0.899,0.382-1.588,0.42-2.307,0.498c-0.707,0.059-1.394,0.074-2.076,0.072
			c-1.361-0.004-2.701-0.076-4.035-0.172c-5.329-0.404-10.563-1.213-15.795-2.033c-20.881-3.473-41.503-8.111-61.973-13.346
			c-5.12-1.299-10.222-2.672-15.302-4.123c-5.084-1.438-10.155-2.921-15.206-4.475c-5.056-1.537-10.074-3.209-15.033-5.053
			c-2.479-0.924-4.945-1.884-7.366-2.961c-1.21-0.535-2.404-1.117-3.556-1.779c-0.573-0.334-1.14-0.685-1.662-1.1
			c-0.26-0.208-0.511-0.432-0.718-0.695c-0.199-0.252-0.381-0.609-0.231-0.926c-0.123,0.326,0.077,0.646,0.287,0.879
			c0.219,0.24,0.48,0.44,0.75,0.624c0.54,0.367,1.123,0.672,1.712,0.958c1.184,0.567,2.406,1.051,3.632,1.525
			c2.457,0.934,4.959,1.752,7.473,2.533c5.033,1.547,10.115,2.935,15.192,4.337c10.163,2.779,20.429,5.183,30.669,7.668
			c10.257,2.415,20.524,4.792,30.826,7c10.292,2.247,20.617,4.347,30.967,6.213c5.174,0.923,10.371,1.753,15.551,2.32
			c1.293,0.136,2.586,0.248,3.861,0.296c0.637,0.021,1.271,0.027,1.879-0.002c0.589-0.026,1.24-0.109,1.561-0.242
			c0.129-0.064,0.076-0.037,0.114-0.086c0.027-0.049,0.053-0.23,0.022-0.455c-0.054-0.457-0.25-1.025-0.496-1.572
			c-0.5-1.105-1.169-2.207-1.879-3.278c-2.893-4.286-6.343-8.29-9.807-12.231c-3.489-3.934-7.089-7.779-10.734-11.582
			C1179.539,815.021,1164.346,800.367,1149.039,785.842z"/>
	</g>
</g>
<path style="fill:#F2BC9C;" d="M1188.539,802.342c0,0-10-21-21-24s-20.389-2.165-18.194,2.418
	c2.194,4.582,16.194,12.582,19.194,21.582s0,11,0,11s-6-16-10-11s17,29,17,29L1188.539,802.342z"/>
<g>
	<path style="fill:#35105F;" d="M1221.539,860.342c-0.731,0.41-1.596,0.465-2.415,0.545c-0.83,0.059-1.663,0.063-2.494,0.051
		c-1.663-0.029-3.323-0.138-4.979-0.276c-3.311-0.294-6.607-0.719-9.896-1.177c-6.579-0.93-13.129-2.039-19.664-3.219
		c-13.056-2.447-26.046-5.219-38.994-8.178c-12.953-2.947-25.828-6.227-38.631-9.842c-6.396-1.832-12.762-3.769-19.061-6.076
		c-1.574-0.584-3.142-1.196-4.703-1.889c-0.78-0.348-1.559-0.714-2.338-1.133c-0.784-0.436-1.553-0.85-2.389-1.621
		c-0.213-0.217-0.432-0.433-0.654-0.829c-0.105-0.169-0.211-0.45-0.273-0.731c-0.054-0.335-0.05-0.693,0.074-1.051
		c0.067-0.217,0.095-0.227,0.14-0.323l0.13-0.235c0.091-0.17,0.179-0.283,0.266-0.393c0.179-0.242,0.357-0.44,0.532-0.611
		c0.705-0.711,1.407-1.236,2.116-1.756c1.418-1.007,2.855-1.89,4.304-2.748c5.81-3.37,11.733-6.356,17.633-9.404
		c5.906-3.027,11.8-6.057,17.66-9.139c5.86-3.08,11.678-6.232,17.372-9.576c2.848-1.669,5.658-3.397,8.419-5.19
		c2.768-1.781,5.474-3.65,8.063-5.649c2.572-2.009,5.063-4.145,7.135-6.577c1.025-1.217,1.935-2.523,2.538-3.908
		c0.58-1.434,1.084-3.006,1.371-4.557c0.647-3.109,0.522-6.375-0.628-9.287c-1.133-2.919-3.344-5.367-6.076-6.975
		c-5.482-3.26-12.761-3.339-18.523-0.303c-2.92,1.446-5.674,3.367-7.686,5.963c-1.042,1.266-1.851,2.719-2.442,4.253
		c-0.585,1.536-0.944,3.181-0.905,4.841c-0.115-1.658,0.17-3.332,0.691-4.916c0.529-1.582,1.287-3.105,2.294-4.451
		c1.969-2.739,4.739-4.809,7.684-6.396c5.867-3.338,13.528-3.604,19.621-0.265c3.027,1.666,5.561,4.357,6.906,7.61
		c1.363,3.247,1.559,6.89,0.928,10.27c-0.288,1.717-0.763,3.333-1.392,4.983c-0.69,1.674-1.681,3.133-2.76,4.474
		c-2.182,2.669-4.718,4.924-7.323,7.049c-5.243,4.218-10.861,7.854-16.571,11.29c-5.713,3.437-11.531,6.669-17.382,9.824
		c-5.854,3.151-11.764,6.182-17.65,9.236c-5.877,3.061-11.795,6.078-17.456,9.383c-1.408,0.827-2.801,1.68-4.091,2.588
		c-0.632,0.456-1.256,0.938-1.72,1.404c-0.124,0.119-0.221,0.229-0.287,0.322c-0.045,0.052-0.084,0.101-0.084,0.119l-0.023,0.036
		c0,0-0.042,0.069,0.011-0.044c0.048-0.159,0.062-0.309,0.028-0.438c-0.003-0.082-0.055-0.161-0.045-0.156
		c-0.026-0.029,0.044,0.061,0.121,0.137c0.38,0.363,1.063,0.787,1.729,1.147c0.68,0.369,1.401,0.713,2.135,1.043
		c1.47,0.658,2.99,1.26,4.523,1.835c6.151,2.289,12.492,4.208,18.829,6.099c12.689,3.763,25.531,7.062,38.376,10.328
		c12.857,3.226,25.771,6.238,38.742,8.978c6.479,1.397,12.976,2.724,19.503,3.872c3.264,0.57,6.535,1.098,9.821,1.51
		c1.642,0.213,3.288,0.396,4.94,0.5c0.825,0.05,1.652,0.082,2.479,0.06C1219.936,860.732,1220.792,860.717,1221.539,860.342z"/>
</g>
<path style="fill:#3FA9F5;" d="M1113.039,798.842c0,0,5,30,33,41s51-14,51-14s29,24,36,48s10,56,10,56l-29,14c0,0,8,156-4,163
	s-177-1-182-23c-5-22,6-131,6-131l-22.744-29.863c0,0,16.744-76.137,47.744-98.137S1113.039,798.842,1113.039,798.842z"/>
<path style="fill:#2071F5;" d="M1233.039,873.842c-1.49-5.109-3.982-10.217-6.976-15.096l-34.232-28.21
	c-6.237,4.975-17.584,12.105-31.287,12.089c-7.59,27.922-20.724,72.548-40.005,125.717
	c-26.396,72.789-46.391,116.781-53.338,131.476c50.973,9.472,134.434,11.928,142.838,7.024c12-7,4-163,4-163l29-14
	C1243.039,929.842,1240.039,897.842,1233.039,873.842z"/>
<polygon style="fill:#F2A374;" points="1431.054,802.051 1433.331,821.408 1403.727,831.656 1439.024,860.121 1477.737,851.012 
	1473.183,827.102 1462.936,821.408 1470.905,788.388 1443.578,788.388 "/>
<path style="fill:#F2BC9C;" d="M1473.752,848.166l-35.061,11.686l-8.896-7.174l-8.757-27.016l12.293-4.255l-0.949-8.068
	c4.724-1.535,17.249-4.787,25.43,0.667c1.998,1.333,3.821,3.45,5.465,5.987l-0.341,1.414l1.783,0.99
	C1470.582,832.961,1473.752,848.166,1473.752,848.166z"/>
<path style="fill:#F2BC9C;" d="M1416.252,762.199c6.033-30.166,29.923-40.934,44.406-31.881c11.842,7.4,25.599,29.233,17.523,48.613
	c2.69,0.537,5.249,2.322,5.249,7.179c0,10.248-7.971,10.248-11.387,7.971c-1.147-0.765-2.033-1.787-2.71-2.808
	c-5.995,5.531-14.703,10.443-26.895,14.193C1417.887,813.021,1411.697,784.973,1416.252,762.199z"/>
<path style="fill:#298BF5;" d="M1499.371,1078.737c0,0,13.663,60.347,7.971,134.357c-5.693,74.011-11.387,428.123-52.377,441.786
	c-40.99,13.664-54.654-26.188-62.625-54.653c-7.97-28.466-11.386-341.588-11.386-341.588s-7.971,29.604-10.248,43.268
	c-2.276,13.664,11.387,235.695,0,283.518c-11.386,47.822-21.634,67.18-46.684,71.733c-25.05,4.555-37.574-195.843-42.129-275.547
	s-10.247-116.14,0-174.21c10.248-58.069,43.268-146.882,43.268-146.882L1499.371,1078.737z"/>
<path style="fill:#2071F5;" d="M1312.489,1643.774c7.209-7.231,24.771-31.516,27.475-98.201
	c2.694-66.459-28.613-334.69-41.961-403.2l0.003-0.009c0.793-2.682,1.593-5.348,2.396-7.988c0.005-0.017,0.011-0.034,0.016-0.051
	c9.246-30.418,18.836-57.515,22.825-68.55c0.01-0.026,0.02-0.054,0.028-0.079c0.341-0.943,0.642-1.77,0.896-2.467
	c0.001-0.001,0.001-0.002,0.002-0.004c0.116-0.318,0.22-0.602,0.316-0.866c0.02-0.052,0.04-0.108,0.058-0.158
	c0.188-0.511,0.334-0.909,0.437-1.188c0.013-0.034,0.023-0.063,0.035-0.094c0.043-0.116,0.08-0.217,0.104-0.281
	c0.002-0.004,0.004-0.01,0.005-0.014c0.024-0.065,0.039-0.104,0.039-0.104l174.21,18.218c0,0,0.005,0.022,0.015,0.063
	c0,0.002,0.001,0.006,0.001,0.008c0.008,0.034,0.021,0.091,0.034,0.152c0.005,0.021,0.011,0.049,0.016,0.073
	c0.078,0.358,0.224,1.035,0.425,2.022c0.001,0.001,0.001,0.003,0.002,0.004c0.049,0.242,0.102,0.506,0.158,0.784
	c0.004,0.02,0.008,0.04,0.012,0.06c0.058,0.287,0.117,0.591,0.181,0.914c-23.013,11.7-87.092,46.695-101.042,80.177
	c-17.079,40.991-19.2,99.347-19.2,99.347l0,0c-0.034,0.129-0.07,0.269-0.105,0.403c-0.047,0.178-0.094,0.356-0.144,0.544
	c-0.039,0.152-0.08,0.309-0.121,0.466c-0.051,0.193-0.103,0.392-0.155,0.594c-0.042,0.159-0.083,0.318-0.126,0.483
	c-0.062,0.234-0.125,0.477-0.188,0.722c-0.039,0.149-0.076,0.294-0.116,0.447c-0.098,0.379-0.199,0.771-0.303,1.17
	c-0.032,0.125-0.065,0.253-0.098,0.379c-0.083,0.321-0.167,0.646-0.252,0.979c-0.035,0.135-0.069,0.27-0.104,0.406
	c-0.086,0.334-0.173,0.674-0.261,1.02c-0.035,0.139-0.07,0.275-0.106,0.416c-0.119,0.468-0.24,0.942-0.363,1.427
	c-0.017,0.064-0.033,0.131-0.05,0.196c-0.107,0.425-0.216,0.855-0.326,1.291c-0.042,0.166-0.084,0.333-0.126,0.5
	c-0.089,0.356-0.18,0.715-0.271,1.078c-0.04,0.16-0.08,0.32-0.12,0.482c-0.104,0.412-0.207,0.828-0.311,1.247
	c-0.031,0.123-0.062,0.245-0.092,0.369c-0.133,0.535-0.266,1.073-0.399,1.616c-0.021,0.088-0.043,0.177-0.064,0.265
	c-0.11,0.45-0.221,0.901-0.332,1.355c-0.04,0.164-0.08,0.329-0.119,0.493c-0.098,0.398-0.193,0.796-0.29,1.195
	c-0.04,0.168-0.081,0.335-0.121,0.503c-0.123,0.512-0.246,1.024-0.368,1.537c-0.008,0.034-0.016,0.068-0.024,0.103
	c-0.131,0.552-0.261,1.103-0.391,1.653c-0.034,0.146-0.067,0.291-0.102,0.437c-0.097,0.41-0.191,0.818-0.286,1.226
	c-0.039,0.168-0.077,0.335-0.116,0.503c-0.096,0.417-0.19,0.831-0.285,1.244c-0.029,0.131-0.06,0.262-0.089,0.392
	c-0.124,0.543-0.245,1.082-0.364,1.615c-0.014,0.063-0.027,0.125-0.041,0.188c-0.103,0.459-0.202,0.913-0.301,1.364
	c-0.035,0.159-0.069,0.317-0.104,0.477c-0.08,0.366-0.158,0.729-0.234,1.089c-0.035,0.163-0.069,0.326-0.104,0.487
	c-0.084,0.401-0.167,0.797-0.248,1.188c-0.02,0.094-0.04,0.189-0.059,0.282c-0.1,0.483-0.195,0.956-0.288,1.422
	c-0.022,0.115-0.044,0.229-0.067,0.343c-0.067,0.344-0.133,0.682-0.196,1.014c-0.029,0.152-0.058,0.303-0.086,0.453
	c-0.058,0.305-0.112,0.603-0.165,0.897c-0.024,0.133-0.05,0.269-0.073,0.4c-0.073,0.412-0.144,0.816-0.209,1.204
	c-2.276,13.664,11.387,235.695,0,283.518c-11.386,47.822-21.634,67.18-46.684,71.733
	C1319.835,1657.92,1315.998,1652.947,1312.489,1643.774z"/>
<path style="fill:#FF5862;" d="M1468.059,824.254c0,0-13.094,24.48-27.896,18.788c-14.802-5.693-9.415-20.739-9.415-20.739
	s-38.208-2.961-65.208,18.039c-41.591,32.349-153-2-177-38l-17,28c18.328,57.102,81.359,99.038,145,105
	c-29.434,84.412-20.245,119.435-3.902,162.752c69.968,12.903,133.16,8.826,186.734-19.356l13.663-83.12
	c0,0,31.882-28.465,28.466-72.871c-3.416-44.406-22.772-69.457-38.713-79.704C1486.846,832.794,1468.059,824.254,1468.059,824.254z"
	/>
<path style="fill:#FF2E57;" d="M1513.172,995.492c0.024-0.023,0.063-0.059,0.095-0.089c0.17-0.158,0.43-0.405,0.773-0.743
	c0.029-0.028,0.06-0.059,0.09-0.088c0.396-0.393,0.89-0.891,1.465-1.498c0.003-0.002,0.006-0.005,0.009-0.008
	c0.789-0.831,1.729-1.861,2.776-3.078c0.021-0.024,0.043-0.05,0.063-0.074c0.744-0.866,1.542-1.829,2.377-2.881
	c0.086-0.109,0.174-0.221,0.262-0.332c0.257-0.326,0.515-0.656,0.777-0.999l-55.509-70.927c0,0-37.458,24.051-70.595,33.02
	c-36.596,9.906-63.063,7.31-83.813,1.316c-23.776,74.598-14.73,108.101,0.693,148.982l0,0c8.746,1.613,17.386,2.961,25.915,4.029
	c2.132,0.267,4.257,0.517,6.375,0.748c4.236,0.464,8.444,0.857,12.624,1.178c2.09,0.161,4.172,0.303,6.247,0.428
	c4.15,0.248,8.271,0.422,12.362,0.521c45,1.097,86.379-6.885,123.211-26.261l13.663-83.12c0,0,0.033-0.029,0.054-0.048
	C1513.107,995.551,1513.14,995.521,1513.172,995.492z"/>
<path style="fill:#1B1464;" d="M1450.341,1656.22c0,0,10.317,21.435,8.04,30.543c-2.277,9.109-80.843,10.248-83.12,5.693
	s9.109-19.356,22.772-25.05c13.664-5.693,31.354-11.187,31.354-11.187H1450.341z"/>
<path style="fill:#1B1464;" d="M1332.92,1652.604c0,0,9.089,18.882,7.083,26.906c-2.007,8.024-71.218,9.027-73.224,5.016
	c-2.006-4.013,8.024-17.052,20.061-22.067c12.037-5.016,27.622-9.854,27.622-9.854H1332.92z"/>
<g>
	<g>
		<path style="fill:#35105F;" d="M1229.039,998.842c0.778,1.018,1.736,1.877,2.654,2.765c0.93,0.878,1.877,1.738,2.827,2.594
			l5.755,5.079l11.575,10.088c7.722,6.72,15.433,13.457,23.047,20.309c7.606,6.861,15.105,13.85,22.274,21.211
			c3.552,3.717,7.09,7.45,10.097,11.77c0.733,1.101,1.442,2.228,1.953,3.58c0.23,0.696,0.484,1.405,0.313,2.453
			c-0.124,0.573-0.475,1.054-0.827,1.356c-0.357,0.315-0.723,0.515-1.076,0.677c-1.418,0.605-2.749,0.758-4.076,0.902
			c-1.325,0.123-2.635,0.162-3.938,0.164c-5.207-0.02-10.332-0.521-15.441-1.101c-5.109-0.587-10.188-1.348-15.251-2.179
			c-10.127-1.664-20.195-3.607-30.23-5.705c-20.061-4.236-40.009-8.991-59.739-14.648c-4.926-1.443-9.835-2.95-14.713-4.583
			c-4.876-1.651-9.73-3.355-14.484-5.562c-1.188-0.563-2.366-1.159-3.533-1.889c-0.584-0.369-1.165-0.766-1.746-1.291
			c-0.289-0.268-0.584-0.568-0.863-0.992c-0.139-0.215-0.275-0.472-0.373-0.796c-0.107-0.313-0.118-0.784-0.092-0.982
			c0.098-1.036,0.527-1.803,0.954-2.437c0.438-0.643,0.924-1.166,1.42-1.661c0.997-0.979,2.052-1.799,3.123-2.575
			c4.304-3.05,8.847-5.47,13.393-7.879c9.116-4.75,18.366-9.13,27.515-13.695c9.147-4.554,18.287-9.136,26.977-14.431
			c4.325-2.66,8.57-5.483,12.357-8.788c0.941-0.828,1.85-1.689,2.699-2.596c0.84-0.929,1.709-1.874,2.526-2.84
			c1.663-1.919,3.261-3.894,4.771-5.932c3.023-4.068,5.735-8.381,7.828-12.977c1.049-2.293,1.934-4.664,2.535-7.102
			c0.61-2.432,0.945-4.941,0.802-7.426c-0.125-2.481-0.784-4.945-2.108-7.033c-1.325-2.078-3.246-3.822-5.499-4.848
			c-2.253-1.039-4.828-1.328-7.289-0.91c-2.466,0.42-4.81,1.503-6.81,3.028c-4.032,3.06-6.579,7.858-7.315,12.876
			c-0.768,5.048,0.163,10.25,2.011,15.004c-1.939-4.716-2.985-9.918-2.311-15.047c0.641-5.095,3.14-10.065,7.267-13.283
			c2.043-1.605,4.459-2.772,7.04-3.25c2.574-0.478,5.313-0.217,7.732,0.857c2.43,1.063,4.471,2.881,5.945,5.072
			c1.478,2.211,2.241,4.84,2.435,7.456c0.213,2.625-0.078,5.258-0.652,7.798c-0.565,2.547-1.421,5.014-2.443,7.397
			c-2.058,4.77-4.784,9.2-7.796,13.39c-1.507,2.098-3.103,4.127-4.763,6.1c-0.821,1-1.671,1.951-2.534,2.933
			c-0.887,0.975-1.825,1.89-2.792,2.765c-3.884,3.486-8.159,6.412-12.505,9.174c-17.479,10.929-36.311,19.207-54.366,28.692
			c-4.481,2.397-8.984,4.84-13.022,7.734c-0.997,0.729-1.962,1.493-2.787,2.314c-0.407,0.408-0.79,0.833-1.069,1.253
			c-0.29,0.415-0.456,0.834-0.47,1.08c-0.002,0.121-0.005-0.025-0.014-0.033c-0.005-0.018,0.003,0.014,0.039,0.067
			c0.074,0.11,0.222,0.278,0.404,0.441c0.369,0.333,0.846,0.667,1.346,0.977c1.006,0.623,2.116,1.182,3.243,1.709
			c4.545,2.085,9.373,3.762,14.196,5.368c4.836,1.594,9.721,3.067,14.626,4.479c19.614,5.679,39.49,10.551,59.47,14.857
			c9.994,2.14,20.021,4.124,30.089,5.827c5.034,0.846,10.078,1.622,15.128,2.295c5.048,0.648,10.123,1.213,15.156,1.304
			c1.255,0.017,2.508-0.005,3.732-0.102c1.209-0.102,2.459-0.272,3.405-0.672c0.482-0.195,0.738-0.478,0.733-0.562
			c0.055-0.225-0.029-0.804-0.218-1.304c-0.377-1.052-1.013-2.128-1.688-3.158c-2.794-4.13-6.271-7.914-9.738-11.63
			c-7.009-7.411-14.452-14.437-21.898-21.446c-7.461-6.999-15.028-13.89-22.609-20.767l-11.359-10.334l-5.614-5.24
			c-0.928-0.882-1.852-1.769-2.758-2.673C1230.726,1000.769,1229.79,999.882,1229.039,998.842z"/>
	</g>
</g>
<path style="fill:#F2BC9C;" d="M1272.785,971.707c0,0-8.275-24.365-16.246-24.365c-7.97,0,3.721,12.979,3.721,12.979
	s-14.422-16.225-19.721-2.979c-10,25,15.166,31.443,15.166,31.443L1272.785,971.707z"/>
<path style="fill:#FF5862;" d="M1255.705,988.785c4.689-6.438,10.479-12.059,17.08-17.078c0,0,53.515,22.772,108.169,11.386
	c54.654-11.386,80.843-76.288,80.843-76.288l76.329-6.566c1.58,6.872,2.747,14.361,3.374,22.508
	c3.416,44.406-28.466,72.871-28.466,72.871C1442.439,1074.183,1298.973,1085.568,1255.705,988.785z"/>
<g>
	<path style="fill:#35105F;" d="M1457.539,1037.354c-4.283-7.777-10.972-14.164-18.979-17.297c-2.005-0.766-4.073-1.331-6.172-1.735
		c-2.111-0.343-4.246-0.548-6.392-0.522c-4.285,0-8.587,0.739-12.732,1.938c-8.325,2.268-15.896,7.048-21.245,13.851
		c-1.357,1.682-2.547,3.501-3.623,5.391c-1.083,1.888-2.023,3.864-2.834,5.9c-1.632,4.069-2.786,8.369-3.332,12.79
		c-0.12-4.469,0.656-8.953,1.942-13.279c1.35-4.306,3.279-8.496,5.975-12.207c1.331-1.859,2.796-3.646,4.471-5.225
		c1.652-1.598,3.428-3.083,5.344-4.362c3.812-2.602,8.081-4.467,12.476-5.74c4.403-1.211,8.965-1.987,13.585-1.888
		c2.307,0.045,4.606,0.336,6.872,0.781c2.26,0.489,4.465,1.217,6.569,2.157c4.226,1.864,7.951,4.697,11.021,8.03
		C1453.52,1029.303,1456.008,1033.155,1457.539,1037.354z"/>
</g>
<path style="fill:#1B1464;" d="M1530.539,738.342c-3-31-27-19-27-19s10-39-12-43c-16.16-2.938-22.063,10.303-24.061,17.544
	c-8.518-9.112-19.053-12.833-29.593-9.112c-17.364,6.125-18.241,35.172-5.067,48.483c1.503,1.525,3.199,2.835,5.067,3.893
	c18.218,10.248,34.796,5.386,34.796,5.386c6.741,10.043,10.771,23.74,5.5,36.391c2.687,0.547,5.249,2.322,5.249,7.185
	c0,10.248-7.971,10.248-11.387,7.971c-1.149-0.763-2.038-1.788-2.71-2.813c-1.082,1.002-2.266,1.981-3.529,2.938l-0.593,4.43
	c0,0,5.693,2.276,12.525,3.415c6.831,1.139,21.634-4.555,22.772-21.633c0.164-2.463,0.061-4.684-0.244-6.782
	c0.165-2.06,0.273-4.204,0.273-6.294C1500.539,758.342,1533.539,769.342,1530.539,738.342z"/>
<path style="fill:#FFC371;" d="M1181.539,1016.342c0,0,8.539,58.891,34.02,64.695s47.98-55.695,47.98-55.695s53.5,38.5,75.5,79.5
	s7,274-13,277s-38-138-38-138s14,95-19,115s-157-25-165-81s-8-74-8-74s-20-28-10-64s18-82,50-103
	C1151.658,1026.592,1181.539,1016.342,1181.539,1016.342z"/>
<path style="fill:#FFA658;" d="M1105.039,1100.842c8.412-26.635,22.709-51.287,30.514-63.661
	c-31.587,21.148-39.564,66.849-49.514,102.661c-10,36,10,64,10,64S1093.039,1138.842,1105.039,1100.842z"/>
<g>
	<path style="fill:#D9FFF9;" d="M217.648,738.837c-13.798,13.798-8.422,164.931,6.316,171.247c14.739,6.316,135.454,7.721,140.367,0
		s18.95-162.123,13.335-171.247C372.052,729.713,230.983,725.502,217.648,738.837z"/>
	<path style="fill:#CBEBFF;" d="M235.039,757.893c-10.668,10.668-6.512,127.522,4.884,132.405c11.396,4.884,104.73,5.97,108.529,0
		c3.799-5.969,14.651-125.351,10.31-132.405C354.42,750.838,245.349,747.582,235.039,757.893z"/>
</g>
<g>
	<path style="fill:#D9FFF9;" d="M452.988,977.837c13.798,13.798,8.422,164.931-6.316,171.247c-14.739,6.316-135.454,7.72-140.367,0
		c-4.913-7.721-18.949-162.123-13.335-171.247C298.585,968.713,439.653,964.502,452.988,977.837z"/>
	<path style="fill:#CBEBFF;" d="M435.598,996.893c10.668,10.669,6.512,127.521-4.884,132.405c-11.396,4.884-104.73,5.97-108.529,0
		c-3.798-5.969-14.651-125.351-10.31-132.405C316.216,989.838,425.288,986.582,435.598,996.893z"/>
</g>
<g>
	<path style="fill:#FFFFFF;" d="M523.04,1133.842c0.188,17.346,0.276,34.684,0.078,52.025c-0.164,17.342-0.59,34.691-1.548,52.032
		l-0.886,12.997c-0.389,4.327-0.708,8.66-1.154,12.982c-0.517,4.316-0.937,8.642-1.535,12.948l-0.919,6.457l-0.476,3.226
		l-0.57,3.213c-0.788,4.277-1.465,8.573-2.48,12.807l-1.42,6.366l-1.675,6.305c-2.255,8.397-5.133,16.618-8.414,24.642l1.953-6.203
		c0.666-2.061,1.364-4.107,1.881-6.213c1.118-4.183,2.309-8.338,3.153-12.583l1.42-6.323l1.173-6.375
		c0.849-4.235,1.44-8.52,2.096-12.788l0.481-3.203l0.385-3.219l0.803-6.431c0.525-4.288,0.871-8.601,1.316-12.898l1.058-12.927
		l0.816-12.952l0.688-12.964l0.552-12.977l0.971-25.973l0.979-25.987C522.18,1151.165,522.515,1142.5,523.04,1133.842z"/>
</g>
</svg>
