<?xml version="1.0" encoding="utf-8"?>
<!-- Generator: Adobe Illustrator 27.5.0, SVG Export Plug-In . SVG Version: 6.00 Build 0)  -->
<svg version="1.1" xmlns="http://www.w3.org/2000/svg" xmlns:xlink="http://www.w3.org/1999/xlink" x="0px" y="0px"
	 viewBox="0 0 3710 3710" style="enable-background:new 0 0 3710 3710;" xml:space="preserve">
<g id="Background">
	<g>
		<g>
			<rect style="fill:#FFFFFF;" width="3710" height="3710"/>
		</g>
	</g>
</g>
<g id="Illustration">
	<g id="Freight_quote_request">
		<path style="fill:#F4F7FA;" d="M1898.261,455.637C1186.512,434.023,569.989,965.121,476.842,1661.988
			C375.001,2423.917,935.525,3109.47,1625.227,3219.271c857.874,136.575,1689.962-653.526,1615.249-1510.668
			C3184.187,1062.822,2621.767,477.607,1898.261,455.637z"/>
		<g>
			<g>
				<linearGradient id="SVGID_1_" gradientUnits="userSpaceOnUse" x1="1165.6121" y1="1160.8799" x2="2006.6862" y2="1160.8799">
					<stop  offset="0" style="stop-color:#FFC444"/>
					<stop  offset="0.3138" style="stop-color:#FBA94A"/>
					<stop  offset="0.9964" style="stop-color:#F36F56"/>
				</linearGradient>
				<polygon style="fill:url(#SVGID_1_);" points="1165.612,1468.832 2006.686,1320.927 1960.328,852.928 1300.272,852.928 				"/>
				
					<linearGradient id="SVGID_00000065771855558271681010000014013371015174763405_" gradientUnits="userSpaceOnUse" x1="-1096.9694" y1="1147.9144" x2="-255.897" y2="1147.9144" gradientTransform="matrix(-1 0 0 1 909.7168 0)">
					<stop  offset="0" style="stop-color:#FFC444"/>
					<stop  offset="0.3138" style="stop-color:#FBA94A"/>
					<stop  offset="0.9964" style="stop-color:#F36F56"/>
				</linearGradient>
				<path style="opacity:0.4;fill:url(#SVGID_00000065771855558271681010000014013371015174763405_);" d="M1463.441,1153.361
					c129.822-95.915,303.632-61.609,362.038-176.602c18.914-37.241,20.513-79.913,11.716-123.83h123.133l46.359,467.998
					L1313.075,1442.9C1338.481,1287.278,1397.807,1201.854,1463.441,1153.361z"/>
				<g>
					<g>
						
							<rect x="1595.324" y="795.739" transform="matrix(-1 -1.224647e-16 1.224647e-16 -1 3204.0823 1663.1198)" style="fill:#97A6B7;" width="13.434" height="71.641"/>
						
							<rect x="1545.429" y="795.739" transform="matrix(-1 -1.224647e-16 1.224647e-16 -1 3104.2925 1663.1198)" style="fill:#97A6B7;" width="13.434" height="71.641"/>
						
							<rect x="1495.534" y="795.739" transform="matrix(-1 -1.224647e-16 1.224647e-16 -1 3004.5027 1663.1198)" style="fill:#97A6B7;" width="13.434" height="71.641"/>
						
							<rect x="1445.639" y="795.739" transform="matrix(-1 -1.224647e-16 1.224647e-16 -1 2904.7129 1663.1198)" style="fill:#97A6B7;" width="13.434" height="71.641"/>
						
							<rect x="1345.849" y="795.739" transform="matrix(-1 -1.224647e-16 1.224647e-16 -1 2705.1338 1663.1198)" style="fill:#97A6B7;" width="13.435" height="71.641"/>
						
							<rect x="1395.744" y="795.739" transform="matrix(-1 -1.224647e-16 1.224647e-16 -1 2804.9236 1663.1198)" style="fill:#97A6B7;" width="13.435" height="71.641"/>
						
							<rect x="1295.955" y="795.739" transform="matrix(-1 -1.224647e-16 1.224647e-16 -1 2605.3442 1663.1198)" style="fill:#97A6B7;" width="13.434" height="71.641"/>
						
							<rect x="1246.06" y="795.739" transform="matrix(-1 -1.224647e-16 1.224647e-16 -1 2505.5544 1663.1198)" style="fill:#97A6B7;" width="13.434" height="71.641"/>
						
							<rect x="1246.06" y="784.702" transform="matrix(-1 -1.224647e-16 1.224647e-16 -1 3253.9775 1584.8561)" style="fill:#97A6B7;" width="761.857" height="15.453"/>
						
							<linearGradient id="SVGID_00000059308103395469824940000007228917686005407396_" gradientUnits="userSpaceOnUse" x1="2001.2002" y1="1464.4513" x2="2001.2002" y2="721.9035">
							<stop  offset="0" style="stop-color:#AA80F9"/>
							<stop  offset="0.9964" style="stop-color:#6165D7"/>
						</linearGradient>
						<polygon style="fill:url(#SVGID_00000059308103395469824940000007228917686005407396_);" points="1994.483,867.38 
							2007.917,867.38 2007.917,795.739 1994.483,795.739 						"/>
						
							<linearGradient id="SVGID_00000141441459541906669610000003642032490493680303_" gradientUnits="userSpaceOnUse" x1="1951.3053" y1="1464.4513" x2="1951.3053" y2="721.9035">
							<stop  offset="0" style="stop-color:#AA80F9"/>
							<stop  offset="0.9964" style="stop-color:#6165D7"/>
						</linearGradient>
						<polygon style="fill:url(#SVGID_00000141441459541906669610000003642032490493680303_);" points="1944.588,867.38 
							1958.023,867.38 1958.023,795.739 1944.588,795.739 						"/>
						
							<linearGradient id="SVGID_00000113334452704593488020000014903702949038654625_" gradientUnits="userSpaceOnUse" x1="1901.4105" y1="1464.4513" x2="1901.4105" y2="721.9035">
							<stop  offset="0" style="stop-color:#AA80F9"/>
							<stop  offset="0.9964" style="stop-color:#6165D7"/>
						</linearGradient>
						<polygon style="fill:url(#SVGID_00000113334452704593488020000014903702949038654625_);" points="1894.693,867.38 
							1908.128,867.38 1908.128,795.739 1894.693,795.739 						"/>
						
							<linearGradient id="SVGID_00000036240043975447945170000015814804808587349174_" gradientUnits="userSpaceOnUse" x1="1851.5156" y1="1464.4513" x2="1851.5156" y2="721.9035">
							<stop  offset="0" style="stop-color:#AA80F9"/>
							<stop  offset="0.9964" style="stop-color:#6165D7"/>
						</linearGradient>
						<polygon style="fill:url(#SVGID_00000036240043975447945170000015814804808587349174_);" points="1844.798,867.38 
							1858.233,867.38 1858.233,795.739 1844.798,795.739 						"/>
						
							<linearGradient id="SVGID_00000006667056133555832400000017316323975267308949_" gradientUnits="userSpaceOnUse" x1="1801.6207" y1="1464.4513" x2="1801.6207" y2="721.9035">
							<stop  offset="0" style="stop-color:#AA80F9"/>
							<stop  offset="0.9964" style="stop-color:#6165D7"/>
						</linearGradient>
						<polygon style="fill:url(#SVGID_00000006667056133555832400000017316323975267308949_);" points="1794.904,867.38 
							1808.338,867.38 1808.338,795.739 1794.904,795.739 						"/>
						
							<linearGradient id="SVGID_00000159460778504151721740000016291529464726540207_" gradientUnits="userSpaceOnUse" x1="1751.7258" y1="1464.4513" x2="1751.7258" y2="721.9035">
							<stop  offset="0" style="stop-color:#AA80F9"/>
							<stop  offset="0.9964" style="stop-color:#6165D7"/>
						</linearGradient>
						<polygon style="fill:url(#SVGID_00000159460778504151721740000016291529464726540207_);" points="1745.009,867.38 
							1758.443,867.38 1758.443,795.739 1745.009,795.739 						"/>
						
							<linearGradient id="SVGID_00000183971500827992271510000013972014463849087619_" gradientUnits="userSpaceOnUse" x1="1701.8309" y1="1464.4513" x2="1701.8309" y2="721.9035">
							<stop  offset="0" style="stop-color:#AA80F9"/>
							<stop  offset="0.9964" style="stop-color:#6165D7"/>
						</linearGradient>
						<polygon style="fill:url(#SVGID_00000183971500827992271510000013972014463849087619_);" points="1695.114,867.38 
							1708.548,867.38 1708.548,795.739 1695.114,795.739 						"/>
						
							<linearGradient id="SVGID_00000042697770732210943010000015173900547850407859_" gradientUnits="userSpaceOnUse" x1="1651.936" y1="1464.4513" x2="1651.936" y2="721.9035">
							<stop  offset="0" style="stop-color:#AA80F9"/>
							<stop  offset="0.9964" style="stop-color:#6165D7"/>
						</linearGradient>
						<polygon style="fill:url(#SVGID_00000042697770732210943010000015173900547850407859_);" points="1645.219,867.38 
							1658.653,867.38 1658.653,795.739 1645.219,795.739 						"/>
					</g>
					
						<rect x="1246.06" y="833.268" transform="matrix(-1 -1.224647e-16 1.224647e-16 -1 3253.9775 1734.7612)" style="fill:#97A6B7;" width="761.857" height="68.226"/>
				</g>
			</g>
			<g>
				<g>
					
						<rect x="1525.925" y="1056.872" transform="matrix(-1 -1.224647e-16 1.224647e-16 -1 3739.9187 2448.4397)" style="fill:#D8DEE8;" width="688.068" height="334.696"/>
					
						<rect x="1554.437" y="1076.906" transform="matrix(-1 -1.224647e-16 1.224647e-16 -1 3739.9192 2443.2168)" style="opacity:0.3;fill:#D8DEE8;" width="631.045" height="289.405"/>
					<g>
						<g>
							
								<rect x="2115.984" y="1076.906" transform="matrix(-1 -1.224647e-16 1.224647e-16 -1 4261.1138 2443.2168)" style="opacity:0.6;fill:#D8DEE8;" width="29.146" height="289.405"/>
							
								<rect x="2114.841" y="1076.906" transform="matrix(-1 -1.224647e-16 1.224647e-16 -1 4249.1123 2443.2168)" style="fill:#D8DEE8;" width="19.431" height="289.405"/>
						</g>
						<g>
							
								<rect x="2041.691" y="1076.906" transform="matrix(-1 -1.224647e-16 1.224647e-16 -1 4112.5273 2443.2168)" style="opacity:0.6;fill:#D8DEE8;" width="29.146" height="289.405"/>
							
								<rect x="2040.548" y="1076.906" transform="matrix(-1 -1.224647e-16 1.224647e-16 -1 4100.5264 2443.2168)" style="fill:#D8DEE8;" width="19.431" height="289.405"/>
						</g>
						<g>
							
								<rect x="1967.398" y="1076.906" transform="matrix(-1 -1.224647e-16 1.224647e-16 -1 3963.9412 2443.2168)" style="opacity:0.6;fill:#D8DEE8;" width="29.146" height="289.405"/>
							
								<rect x="1966.255" y="1076.906" transform="matrix(-1 -1.224647e-16 1.224647e-16 -1 3951.9402 2443.2168)" style="fill:#D8DEE8;" width="19.431" height="289.405"/>
						</g>
						<g>
							
								<rect x="1893.105" y="1076.906" transform="matrix(-1 -1.224647e-16 1.224647e-16 -1 3815.355 2443.2168)" style="opacity:0.6;fill:#D8DEE8;" width="29.146" height="289.405"/>
							
								<rect x="1891.962" y="1076.906" transform="matrix(-1 -1.224647e-16 1.224647e-16 -1 3803.3535 2443.2168)" style="fill:#D8DEE8;" width="19.43" height="289.405"/>
						</g>
						<g>
							
								<rect x="1818.812" y="1076.906" transform="matrix(-1 -1.224647e-16 1.224647e-16 -1 3666.7688 2443.2168)" style="opacity:0.6;fill:#D8DEE8;" width="29.146" height="289.405"/>
							
								<rect x="1817.669" y="1076.906" transform="matrix(-1 -1.224647e-16 1.224647e-16 -1 3654.7676 2443.2168)" style="fill:#D8DEE8;" width="19.43" height="289.405"/>
						</g>
						<g>
							
								<rect x="1744.518" y="1076.906" transform="matrix(-1 -1.224647e-16 1.224647e-16 -1 3518.1826 2443.2168)" style="opacity:0.6;fill:#D8DEE8;" width="29.146" height="289.405"/>
							
								<rect x="1743.376" y="1076.906" transform="matrix(-1 -1.224647e-16 1.224647e-16 -1 3506.1816 2443.2168)" style="fill:#D8DEE8;" width="19.43" height="289.405"/>
						</g>
						<g>
							
								<rect x="1670.225" y="1076.906" transform="matrix(-1 -1.224647e-16 1.224647e-16 -1 3369.5964 2443.2168)" style="opacity:0.6;fill:#D8DEE8;" width="29.146" height="289.405"/>
							
								<rect x="1669.082" y="1076.906" transform="matrix(-1 -1.224647e-16 1.224647e-16 -1 3357.595 2443.2168)" style="fill:#D8DEE8;" width="19.431" height="289.405"/>
						</g>
						<g>
							
								<rect x="1595.932" y="1076.906" transform="matrix(-1 -1.224647e-16 1.224647e-16 -1 3221.01 2443.2168)" style="opacity:0.6;fill:#D8DEE8;" width="29.146" height="289.405"/>
							
								<rect x="1594.789" y="1076.906" transform="matrix(-1 -1.224647e-16 1.224647e-16 -1 3209.0088 2443.2168)" style="fill:#D8DEE8;" width="19.431" height="289.405"/>
						</g>
					</g>
				</g>
				<g>
					
						<rect x="2213.994" y="1056.872" transform="matrix(-1 -1.224647e-16 1.224647e-16 -1 4772.249 2448.4397)" style="fill:#D8DEE8;" width="344.262" height="334.696"/>
					
						<rect x="2229.3" y="1062.613" transform="matrix(-1.836970e-16 1 -1 -1.836970e-16 3610.3445 -1161.9047)" style="fill:#D8DEE8;" width="313.649" height="323.214"/>
					<g>
						<g>
							<g>
								
									<rect x="2229.09" y="1073.729" transform="matrix(-1 -1.224647e-16 1.224647e-16 -1 4612.8799 2448.4397)" style="fill:#D8DEE8;" width="154.7" height="300.981"/>
								
									<rect x="2388.459" y="1073.729" transform="matrix(-1 -1.224647e-16 1.224647e-16 -1 4931.6182 2448.4397)" style="fill:#D8DEE8;" width="154.7" height="300.981"/>
							</g>
							<g>
								
									<rect x="2388.459" y="1159.498" transform="matrix(-1 -1.224647e-16 1.224647e-16 -1 4931.6182 2345.3062)" style="opacity:0.3;fill:#D8DEE8;" width="154.7" height="26.309"/>
								
									<rect x="2388.459" y="1262.632" transform="matrix(-1 -1.224647e-16 1.224647e-16 -1 4931.6182 2551.573)" style="opacity:0.3;fill:#D8DEE8;" width="154.7" height="26.31"/>
							</g>
						</g>
						<g>
							
								<rect x="2229.09" y="1159.498" transform="matrix(-1 -1.224647e-16 1.224647e-16 -1 4612.8799 2345.3062)" style="opacity:0.3;fill:#D8DEE8;" width="154.7" height="26.309"/>
							
								<rect x="2229.09" y="1262.632" transform="matrix(-1 -1.224647e-16 1.224647e-16 -1 4612.8799 2551.573)" style="opacity:0.3;fill:#D8DEE8;" width="154.7" height="26.31"/>
						</g>
					</g>
					<g>
						<g>
							
								<rect x="2465.987" y="1065.827" transform="matrix(-1 -1.224647e-16 1.224647e-16 -1 4940.1064 2445.2644)" style="fill:#D8DEE8;" width="8.133" height="313.61"/>
							<polygon style="fill:#97A6B7;" points="2474.12,1379.437 2474.12,1065.827 2470.053,1065.827 							"/>
							
								<rect x="2462.906" y="1058.811" transform="matrix(-1 -1.224647e-16 1.224647e-16 -1 4940.1069 2134.1099)" style="fill:#D8DEE8;" width="14.295" height="16.487"/>
							
								<rect x="2462.906" y="1371.193" transform="matrix(-1 -1.224647e-16 1.224647e-16 -1 4940.1069 2758.8735)" style="fill:#D8DEE8;" width="14.295" height="16.487"/>
						</g>
						<g>
							
								<rect x="2354.082" y="1065.827" transform="matrix(-1 -1.224647e-16 1.224647e-16 -1 4716.2969 2445.2644)" style="fill:#D8DEE8;" width="8.133" height="313.61"/>
							<polygon style="fill:#97A6B7;" points="2362.215,1379.437 2362.215,1065.827 2358.148,1065.827 							"/>
							
								<rect x="2351.001" y="1058.811" transform="matrix(-1 -1.224647e-16 1.224647e-16 -1 4716.2969 2134.1099)" style="fill:#D8DEE8;" width="14.295" height="16.487"/>
							
								<rect x="2351.001" y="1371.193" transform="matrix(-1 -1.224647e-16 1.224647e-16 -1 4716.2969 2758.8735)" style="fill:#D8DEE8;" width="14.295" height="16.487"/>
						</g>
						<g>
							
								<rect x="2298.129" y="1065.827" transform="matrix(-1 -1.224647e-16 1.224647e-16 -1 4604.3916 2445.2644)" style="fill:#D8DEE8;" width="8.133" height="313.61"/>
							<polygon style="fill:#97A6B7;" points="2306.262,1379.437 2306.262,1065.827 2302.196,1065.827 							"/>
							
								<rect x="2295.048" y="1058.811" transform="matrix(-1 -1.224647e-16 1.224647e-16 -1 4604.3916 2134.1099)" style="fill:#D8DEE8;" width="14.295" height="16.487"/>
							
								<rect x="2295.048" y="1371.193" transform="matrix(-1 -1.224647e-16 1.224647e-16 -1 4604.3916 2758.8735)" style="fill:#D8DEE8;" width="14.295" height="16.487"/>
						</g>
						<g>
							
								<rect x="2410.034" y="1065.827" transform="matrix(-1 -1.224647e-16 1.224647e-16 -1 4828.2017 2445.2644)" style="fill:#D8DEE8;" width="8.134" height="313.61"/>
							<polygon style="fill:#97A6B7;" points="2418.167,1379.437 2418.167,1065.827 2414.101,1065.827 							"/>
							
								<rect x="2406.954" y="1058.811" transform="matrix(-1 -1.224647e-16 1.224647e-16 -1 4828.2017 2134.1099)" style="fill:#D8DEE8;" width="14.295" height="16.487"/>
							
								<rect x="2406.954" y="1371.193" transform="matrix(-1 -1.224647e-16 1.224647e-16 -1 4828.2017 2758.8735)" style="fill:#D8DEE8;" width="14.295" height="16.487"/>
						</g>
					</g>
				</g>
			</g>
			<g>
				<g>
					
						<rect x="1640.038" y="724.115" transform="matrix(-1 -1.224647e-16 1.224647e-16 -1 3968.145 1782.9264)" style="fill:#D8DEE8;" width="688.068" height="334.696"/>
					
						<rect x="1668.55" y="744.149" transform="matrix(-1 -1.224647e-16 1.224647e-16 -1 3968.1455 1777.7028)" style="opacity:0.3;fill:#D8DEE8;" width="631.045" height="289.405"/>
					<g>
						<g>
							
								<rect x="2230.097" y="744.149" transform="matrix(-1 -1.224647e-16 1.224647e-16 -1 4489.3403 1777.7028)" style="opacity:0.6;fill:#D8DEE8;" width="29.146" height="289.405"/>
							
								<rect x="2228.954" y="744.149" transform="matrix(-1 -1.224647e-16 1.224647e-16 -1 4477.3389 1777.7028)" style="fill:#D8DEE8;" width="19.431" height="289.405"/>
						</g>
						<g>
							
								<rect x="2155.804" y="744.149" transform="matrix(-1 -1.224647e-16 1.224647e-16 -1 4340.7539 1777.7028)" style="opacity:0.6;fill:#D8DEE8;" width="29.146" height="289.405"/>
							
								<rect x="2154.661" y="744.149" transform="matrix(-1 -1.224647e-16 1.224647e-16 -1 4328.7529 1777.7028)" style="fill:#D8DEE8;" width="19.431" height="289.405"/>
						</g>
						<g>
							
								<rect x="2081.511" y="744.149" transform="matrix(-1 -1.224647e-16 1.224647e-16 -1 4192.1675 1777.7028)" style="opacity:0.6;fill:#D8DEE8;" width="29.146" height="289.405"/>
							
								<rect x="2080.368" y="744.149" transform="matrix(-1 -1.224647e-16 1.224647e-16 -1 4180.1665 1777.7028)" style="fill:#D8DEE8;" width="19.431" height="289.405"/>
						</g>
						<g>
							
								<rect x="2007.218" y="744.149" transform="matrix(-1 -1.224647e-16 1.224647e-16 -1 4043.5815 1777.7028)" style="opacity:0.6;fill:#D8DEE8;" width="29.146" height="289.405"/>
							
								<rect x="2006.075" y="744.149" transform="matrix(-1 -1.224647e-16 1.224647e-16 -1 4031.5801 1777.7028)" style="fill:#D8DEE8;" width="19.43" height="289.405"/>
						</g>
						<g>
							
								<rect x="1932.925" y="744.149" transform="matrix(-1 -1.224647e-16 1.224647e-16 -1 3894.9951 1777.7028)" style="opacity:0.6;fill:#D8DEE8;" width="29.146" height="289.405"/>
							
								<rect x="1931.782" y="744.149" transform="matrix(-1 -1.224647e-16 1.224647e-16 -1 3882.9939 1777.7028)" style="fill:#D8DEE8;" width="19.43" height="289.405"/>
						</g>
						<g>
							
								<rect x="1858.631" y="744.149" transform="matrix(-1 -1.224647e-16 1.224647e-16 -1 3746.4089 1777.7028)" style="opacity:0.6;fill:#D8DEE8;" width="29.146" height="289.405"/>
							
								<rect x="1857.489" y="744.149" transform="matrix(-1 -1.224647e-16 1.224647e-16 -1 3734.408 1777.7028)" style="fill:#D8DEE8;" width="19.43" height="289.405"/>
						</g>
						<g>
							
								<rect x="1784.339" y="744.149" transform="matrix(-1 -1.224647e-16 1.224647e-16 -1 3597.823 1777.7028)" style="opacity:0.6;fill:#D8DEE8;" width="29.146" height="289.405"/>
							
								<rect x="1783.195" y="744.149" transform="matrix(-1 -1.224647e-16 1.224647e-16 -1 3585.8213 1777.7028)" style="fill:#D8DEE8;" width="19.431" height="289.405"/>
						</g>
						<g>
							
								<rect x="1710.046" y="744.149" transform="matrix(-1 -1.224647e-16 1.224647e-16 -1 3449.2366 1777.7028)" style="opacity:0.6;fill:#D8DEE8;" width="29.146" height="289.405"/>
							
								<rect x="1708.902" y="744.149" transform="matrix(-1 -1.224647e-16 1.224647e-16 -1 3437.2354 1777.7028)" style="fill:#D8DEE8;" width="19.431" height="289.405"/>
						</g>
					</g>
				</g>
				<g>
					
						<rect x="2328.107" y="724.115" transform="matrix(-1 -1.224647e-16 1.224647e-16 -1 5000.4756 1782.9264)" style="fill:#FFFFFF;" width="344.262" height="334.696"/>
					
						<rect x="2343.414" y="729.856" transform="matrix(-1.836970e-16 1 -1 -1.836970e-16 3391.7007 -1608.7748)" style="opacity:0.3;fill:#D8DEE8;" width="313.648" height="323.214"/>
					<g>
						<g>
							<g>
								
									<rect x="2343.203" y="740.972" transform="matrix(-1 -1.224647e-16 1.224647e-16 -1 4841.106 1782.926)" style="fill:#FFFFFF;" width="154.7" height="300.981"/>
								
									<rect x="2502.573" y="740.972" transform="matrix(-1 -1.224647e-16 1.224647e-16 -1 5159.8447 1782.926)" style="fill:#FFFFFF;" width="154.7" height="300.981"/>
							</g>
							<g>
								
									<rect x="2502.573" y="826.742" transform="matrix(-1 -1.224647e-16 1.224647e-16 -1 5159.8447 1679.7928)" style="opacity:0.3;fill:#D8DEE8;" width="154.7" height="26.309"/>
								
									<rect x="2502.573" y="929.875" transform="matrix(-1 -1.224647e-16 1.224647e-16 -1 5159.8447 1886.0594)" style="opacity:0.3;fill:#D8DEE8;" width="154.7" height="26.31"/>
							</g>
						</g>
						<g>
							
								<rect x="2343.203" y="826.742" transform="matrix(-1 -1.224647e-16 1.224647e-16 -1 4841.106 1679.7928)" style="opacity:0.3;fill:#D8DEE8;" width="154.7" height="26.309"/>
							
								<rect x="2343.203" y="929.875" transform="matrix(-1 -1.224647e-16 1.224647e-16 -1 4841.106 1886.0594)" style="opacity:0.3;fill:#D8DEE8;" width="154.7" height="26.31"/>
						</g>
					</g>
					<g>
						<g>
							
								<rect x="2580.1" y="733.07" transform="matrix(-1 -1.224647e-16 1.224647e-16 -1 5168.333 1779.7504)" style="fill:#D8DEE8;" width="8.133" height="313.61"/>
							<polygon style="fill:#97A6B7;" points="2588.233,1046.68 2588.233,733.07 2584.167,733.07 							"/>
							
								<rect x="2577.019" y="726.055" transform="matrix(-1 -1.224647e-16 1.224647e-16 -1 5168.3335 1468.5961)" style="fill:#D8DEE8;" width="14.295" height="16.487"/>
							
								<rect x="2577.019" y="1038.436" transform="matrix(-1 -1.224647e-16 1.224647e-16 -1 5168.3335 2093.3601)" style="fill:#D8DEE8;" width="14.295" height="16.487"/>
						</g>
						<g>
							
								<rect x="2468.195" y="733.07" transform="matrix(-1 -1.224647e-16 1.224647e-16 -1 4944.5234 1779.7504)" style="fill:#D8DEE8;" width="8.133" height="313.61"/>
							<polygon style="fill:#97A6B7;" points="2476.328,1046.68 2476.328,733.07 2472.262,733.07 							"/>
							
								<rect x="2465.114" y="726.055" transform="matrix(-1 -1.224647e-16 1.224647e-16 -1 4944.5234 1468.5961)" style="fill:#D8DEE8;" width="14.295" height="16.487"/>
							
								<rect x="2465.114" y="1038.436" transform="matrix(-1 -1.224647e-16 1.224647e-16 -1 4944.5234 2093.3601)" style="fill:#D8DEE8;" width="14.295" height="16.487"/>
						</g>
						<g>
							
								<rect x="2412.242" y="733.07" transform="matrix(-1 -1.224647e-16 1.224647e-16 -1 4832.6182 1779.7504)" style="fill:#D8DEE8;" width="8.133" height="313.61"/>
							<polygon style="fill:#97A6B7;" points="2420.375,1046.68 2420.375,733.07 2416.309,733.07 							"/>
							
								<rect x="2409.162" y="726.055" transform="matrix(-1 -1.224647e-16 1.224647e-16 -1 4832.6182 1468.5961)" style="fill:#D8DEE8;" width="14.295" height="16.487"/>
							
								<rect x="2409.162" y="1038.436" transform="matrix(-1 -1.224647e-16 1.224647e-16 -1 4832.6182 2093.3601)" style="fill:#D8DEE8;" width="14.295" height="16.487"/>
						</g>
						<g>
							
								<rect x="2524.148" y="733.07" transform="matrix(-1 -1.224647e-16 1.224647e-16 -1 5056.4287 1779.7504)" style="fill:#D8DEE8;" width="8.133" height="313.61"/>
							<polygon style="fill:#97A6B7;" points="2532.281,1046.68 2532.281,733.07 2528.214,733.07 							"/>
							
								<rect x="2521.067" y="726.055" transform="matrix(-1 -1.224647e-16 1.224647e-16 -1 5056.4282 1468.5961)" style="fill:#D8DEE8;" width="14.295" height="16.487"/>
							
								<rect x="2521.067" y="1038.436" transform="matrix(-1 -1.224647e-16 1.224647e-16 -1 5056.4282 2093.3601)" style="fill:#D8DEE8;" width="14.295" height="16.487"/>
						</g>
					</g>
				</g>
			</g>
			<g>
				
					<linearGradient id="SVGID_00000036964410278140862160000006748556944680124041_" gradientUnits="userSpaceOnUse" x1="-2184.0371" y1="1313.2004" x2="-229.0082" y2="1313.2004" gradientTransform="matrix(-1 0 0 1 909.7168 0)">
					<stop  offset="0" style="stop-color:#AA80F9"/>
					<stop  offset="0.9964" style="stop-color:#6165D7"/>
				</linearGradient>
				<path style="fill:url(#SVGID_00000036964410278140862160000006748556944680124041_);" d="M3032.112,980.609l58.13,150.362
					c7.037,18.2,3.334,38.808-9.629,53.393c-71.452,80.393-299.996,347.903-316.74,498.601H1234.046
					c0,0-15.453-55.189-50.773-86.094c-35.321-30.906-61.811-109.074-30.906-158.943l516.565-118.104l73.792-143.085
					c10.345-20.059,30.604-33.076,53.148-34.15l64.714-3.082c23.586-1.123,44.918-14.354,56.405-34.984l74.852-134.428
					c9.163-16.456,26.521-26.659,45.357-26.659h940.689C3001.906,943.437,3023.451,958.206,3032.112,980.609z"/>
				
					<linearGradient id="SVGID_00000135660006081008669050000007361642537882819213_" gradientUnits="userSpaceOnUse" x1="-1667.9614" y1="1384.7858" x2="-2323.6016" y2="1636.4454" gradientTransform="matrix(-1 0 0 1 909.7168 0)">
					<stop  offset="0" style="stop-color:#AA80F9"/>
					<stop  offset="0.9964" style="stop-color:#6165D7"/>
				</linearGradient>
				<path style="fill:url(#SVGID_00000135660006081008669050000007361642537882819213_);" d="M2958.138,1080.305
					c52.48,6.997,101.251,39.253,135.597,68.128c0.335,12.997-4.198,25.89-13.122,35.93
					c-71.45,80.393-300.924,473.251-316.74,663.097h-168.345c0.418-90.34,4.262-395.745,22.647-471.344
					C2655.704,1221.802,2958.138,1080.305,2958.138,1080.305z"/>
				
					<linearGradient id="SVGID_00000018236106877959636880000011486805419286220463_" gradientUnits="userSpaceOnUse" x1="-905.2819" y1="1193.2927" x2="-1305.0607" y2="1600.4741" gradientTransform="matrix(-1 0 0 1 909.7168 0)">
					<stop  offset="0" style="stop-color:#AA80F9"/>
					<stop  offset="0.9964" style="stop-color:#6165D7"/>
				</linearGradient>
				<path style="fill:url(#SVGID_00000018236106877959636880000011486805419286220463_);" d="M1152.367,1437.927l516.565-118.104
					l177.523-16.35c46.79-4.31,88.988-29.93,114.397-69.455l48.462-75.385c31.482-48.971,85.384-78.911,143.596-79.732
					c213.779-3.017,726.921-9.036,805.229,1.404c0,0-302.434,141.497-339.963,295.81c-18.385,75.6-22.229,412.421-22.647,502.761
					H1234.045c0,0-15.452-251.1-50.772-282.007C1147.951,1565.964,1121.46,1487.795,1152.367,1437.927z"/>
				
					<linearGradient id="SVGID_00000036955273403940617850000008572379782883511943_" gradientUnits="userSpaceOnUse" x1="-1414.8555" y1="1391.5684" x2="-1304.4785" y2="1391.5684" gradientTransform="matrix(-1 0 0 1 909.7168 0)">
					<stop  offset="0" style="stop-color:#311944"/>
					<stop  offset="1" style="stop-color:#6B3976"/>
				</linearGradient>
				<polygon style="fill:url(#SVGID_00000036955273403940617850000008572379782883511943_);" points="2324.572,1431.304 
					2284.836,1351.833 2214.195,1351.833 2260.554,1431.304 				"/>
				
					<linearGradient id="SVGID_00000015324932040988270970000000966135702159842705_" gradientUnits="userSpaceOnUse" x1="-1914.4396" y1="1391.5684" x2="-1804.0626" y2="1391.5684" gradientTransform="matrix(-1 0 0 1 909.7168 0)">
					<stop  offset="0" style="stop-color:#311944"/>
					<stop  offset="1" style="stop-color:#6B3976"/>
				</linearGradient>
				<polygon style="fill:url(#SVGID_00000015324932040988270970000000966135702159842705_);" points="2713.779,1431.304 
					2753.515,1351.833 2824.156,1351.833 2777.798,1431.304 				"/>
				
					<linearGradient id="SVGID_00000166637322586973120720000017381877231754079408_" gradientUnits="userSpaceOnUse" x1="-962.3419" y1="1031.7249" x2="-1390.1028" y2="1467.4067" gradientTransform="matrix(-1 0 0 1 909.7168 0)">
					<stop  offset="0" style="stop-color:#AA80F9"/>
					<stop  offset="0.9964" style="stop-color:#6165D7"/>
				</linearGradient>
				<path style="opacity:0.3;fill:url(#SVGID_00000166637322586973120720000017381877231754079408_);" d="M1837.039,1552.13
					c103.083-122.894,109.865-264.279,262.338-337.909c155.663-75.171,260.992,17.919,432.605-39.45
					c49.568-16.571,105.831-46.095,163.345-100.347c126.702,0.103,230.889,1.623,262.81,5.881c0,0-302.434,141.497-339.963,295.81
					c-18.385,75.601-22.228,408.501-22.647,498.841h-933.951C1741.757,1837.878,1797.32,1599.481,1837.039,1552.13z"/>
			</g>
		</g>
		<g>
			
				<linearGradient id="SVGID_00000145761536840955762280000005348972442111152277_" gradientUnits="userSpaceOnUse" x1="1851.1919" y1="2445.8228" x2="2900.9839" y2="2445.8228">
				<stop  offset="0" style="stop-color:#444B8C"/>
				<stop  offset="0.9964" style="stop-color:#26264F"/>
			</linearGradient>
			<path style="fill:url(#SVGID_00000145761536840955762280000005348972442111152277_);" d="M1851.192,2328.334v76.725
				c0,7.137,5.402,13.117,12.502,13.84l785.548,74.439l105.736,69.974l146.006-194.222L1851.192,2328.334z"/>
			
				<linearGradient id="SVGID_00000139271575275206674570000006172567317651725243_" gradientUnits="userSpaceOnUse" x1="2453.3132" y1="2483.1924" x2="2651.7676" y2="2483.1924">
				<stop  offset="0" style="stop-color:#444B8C"/>
				<stop  offset="0.9964" style="stop-color:#26264F"/>
			</linearGradient>
			<path style="fill:url(#SVGID_00000139271575275206674570000006172567317651725243_);" d="M2453.313,2433.784v68.67
				c0,5.757,4.18,10.663,9.864,11.576l188.59,30.296l-5.484-110.702l-180.498-11.54
				C2459.03,2421.652,2453.313,2427.014,2453.313,2433.784z"/>
			<g>
				
					<linearGradient id="SVGID_00000121962401758412426820000005540238959289736872_" gradientUnits="userSpaceOnUse" x1="1902.5885" y1="2411.3699" x2="1958.9532" y2="2411.3699">
					<stop  offset="0" style="stop-color:#311944"/>
					<stop  offset="1" style="stop-color:#6B3976"/>
				</linearGradient>
				<path style="fill:url(#SVGID_00000121962401758412426820000005540238959289736872_);" d="M1930.771,2363.73
					c-0.639,0-1.271,0.049-1.899,0.12l-9.973-0.12l0.058,4.389c-9.662,7.554-16.369,24.073-16.369,43.251
					c0,19.933,7.245,36.998,17.525,44.104l0.047,3.535h10.61c15.564,0,28.182-21.329,28.182-47.639
					C1958.953,2385.059,1946.335,2363.73,1930.771,2363.73z"/>
				
					<linearGradient id="SVGID_00000173849760629539687260000004327999929447478918_" gradientUnits="userSpaceOnUse" x1="1890.7163" y1="2411.3699" x2="1947.0808" y2="2411.3699">
					<stop  offset="0" style="stop-color:#311944"/>
					<stop  offset="1" style="stop-color:#6B3976"/>
				</linearGradient>
				
					<ellipse style="fill:url(#SVGID_00000173849760629539687260000004327999929447478918_);" cx="1918.899" cy="2411.37" rx="28.182" ry="47.639"/>
				<ellipse style="fill:#D8DEE8;" cx="1914.938" cy="2411.37" rx="15.833" ry="26.764"/>
				
					<linearGradient id="SVGID_00000109026783403282866520000001205077653289497751_" gradientUnits="userSpaceOnUse" x1="1945.6205" y1="2415.1775" x2="1901.6071" y2="2409.2527">
					<stop  offset="0.0054" style="stop-color:#D8DEE8"/>
					<stop  offset="1" style="stop-color:#F4F7FA"/>
				</linearGradient>
				
					<ellipse style="fill:url(#SVGID_00000109026783403282866520000001205077653289497751_);" cx="1917.333" cy="2411.37" rx="13.437" ry="24.848"/>
			</g>
			<g>
				
					<linearGradient id="SVGID_00000151536949172840992200000000157715171720675716_" gradientUnits="userSpaceOnUse" x1="1966.4929" y1="2421.2864" x2="2028.2484" y2="2421.2864">
					<stop  offset="0" style="stop-color:#311944"/>
					<stop  offset="1" style="stop-color:#6B3976"/>
				</linearGradient>
				<path style="fill:url(#SVGID_00000151536949172840992200000000157715171720675716_);" d="M1997.37,2369.091
					c-0.7,0-1.392,0.053-2.081,0.131l-10.927-0.131l0.064,4.809c-10.586,8.277-17.934,26.375-17.934,47.387
					c0,21.84,7.938,40.537,19.201,48.322l0.051,3.873h11.625c17.053,0,30.878-23.369,30.878-52.195
					C2028.248,2392.459,2014.423,2369.091,1997.37,2369.091z"/>
				
					<linearGradient id="SVGID_00000135682585183962058370000004290063139565586571_" gradientUnits="userSpaceOnUse" x1="1953.4852" y1="2421.2866" x2="2015.2405" y2="2421.2866">
					<stop  offset="0" style="stop-color:#311944"/>
					<stop  offset="1" style="stop-color:#6B3976"/>
				</linearGradient>
				
					<ellipse style="fill:url(#SVGID_00000135682585183962058370000004290063139565586571_);" cx="1984.363" cy="2421.287" rx="30.878" ry="52.196"/>
				<path style="fill:#D8DEE8;" d="M1997.37,2421.287c0,16.195-7.767,29.324-17.347,29.324c-9.581,0-17.348-13.129-17.348-29.324
					c0-16.195,7.767-29.324,17.348-29.324C1989.604,2391.962,1997.37,2405.091,1997.37,2421.287z"/>
				
					<linearGradient id="SVGID_00000005241006769578701510000015144841346044505998_" gradientUnits="userSpaceOnUse" x1="2013.6401" y1="2425.4585" x2="1965.4176" y2="2418.9668">
					<stop  offset="0.0054" style="stop-color:#D8DEE8"/>
					<stop  offset="1" style="stop-color:#F4F7FA"/>
				</linearGradient>
				<path style="fill:url(#SVGID_00000005241006769578701510000015144841346044505998_);" d="M1997.37,2421.287
					c0,15.035-6.591,27.224-14.722,27.224c-8.131,0-14.723-12.188-14.723-27.224c0-15.036,6.591-27.224,14.723-27.224
					C1990.779,2394.062,1997.37,2406.251,1997.37,2421.287z"/>
			</g>
			<g>
				
					<linearGradient id="SVGID_00000029010719141273877000000010054611232762130573_" gradientUnits="userSpaceOnUse" x1="2034.7471" y1="2426.0815" x2="2102.176" y2="2426.0815">
					<stop  offset="0" style="stop-color:#311944"/>
					<stop  offset="1" style="stop-color:#6B3976"/>
				</linearGradient>
				<path style="fill:url(#SVGID_00000029010719141273877000000010054611232762130573_);" d="M2068.462,2369.091
					c-0.765,0-1.52,0.059-2.272,0.144l-11.93-0.144l0.07,5.251c-11.559,9.037-19.582,28.799-19.582,51.741
					c0,23.846,8.667,44.261,20.966,52.761l0.056,4.229h12.693c18.619,0,33.714-25.516,33.714-56.99
					C2102.176,2394.606,2087.081,2369.091,2068.462,2369.091z"/>
				
					<linearGradient id="SVGID_00000120545672704413296820000016240176561523905201_" gradientUnits="userSpaceOnUse" x1="2020.5444" y1="2426.0815" x2="2087.9731" y2="2426.0815">
					<stop  offset="0" style="stop-color:#311944"/>
					<stop  offset="1" style="stop-color:#6B3976"/>
				</linearGradient>
				
					<ellipse style="fill:url(#SVGID_00000120545672704413296820000016240176561523905201_);" cx="2054.259" cy="2426.082" rx="33.714" ry="56.991"/>
				<path style="fill:#D8DEE8;" d="M2068.462,2426.082c0,17.683-8.48,32.018-18.941,32.018c-10.461,0-18.941-14.335-18.941-32.018
					c0-17.683,8.48-32.018,18.941-32.018C2059.981,2394.064,2068.462,2408.398,2068.462,2426.082z"/>
				
					<linearGradient id="SVGID_00000146489238259203572760000011363605179864065163_" gradientUnits="userSpaceOnUse" x1="2086.2261" y1="2430.637" x2="2033.5731" y2="2423.5491">
					<stop  offset="0.0054" style="stop-color:#D8DEE8"/>
					<stop  offset="1" style="stop-color:#F4F7FA"/>
				</linearGradient>
				<path style="fill:url(#SVGID_00000146489238259203572760000011363605179864065163_);" d="M2068.462,2426.082
					c0,16.417-7.197,29.725-16.075,29.725c-8.878,0-16.075-13.309-16.075-29.725c0-16.417,7.197-29.725,16.075-29.725
					C2061.265,2396.356,2068.462,2409.665,2068.462,2426.082z"/>
			</g>
			<g>
				
					<linearGradient id="SVGID_00000012474674967386129800000012495489867232409516_" gradientUnits="userSpaceOnUse" x1="2353.2051" y1="2471.5706" x2="2439.2849" y2="2471.5706">
					<stop  offset="0" style="stop-color:#311944"/>
					<stop  offset="1" style="stop-color:#6B3976"/>
				</linearGradient>
				<path style="fill:url(#SVGID_00000012474674967386129800000012495489867232409516_);" d="M2396.245,2398.816
					c-0.976,0-1.941,0.075-2.901,0.183l-15.23-0.183l0.089,6.703c-14.756,11.537-24.998,36.764-24.998,66.052
					c0,30.442,11.065,56.503,26.765,67.355l0.071,5.399h16.204c23.769,0,43.04-32.573,43.04-72.754
					C2439.285,2431.389,2420.014,2398.816,2396.245,2398.816z"/>
				
					<linearGradient id="SVGID_00000036220875411570022450000003967245153216931504_" gradientUnits="userSpaceOnUse" x1="2335.0742" y1="2471.5708" x2="2421.1536" y2="2471.5708">
					<stop  offset="0" style="stop-color:#311944"/>
					<stop  offset="1" style="stop-color:#6B3976"/>
				</linearGradient>
				
					<ellipse style="fill:url(#SVGID_00000036220875411570022450000003967245153216931504_);" cx="2378.114" cy="2471.571" rx="43.04" ry="72.755"/>
				<ellipse style="fill:#D8DEE8;" cx="2372.065" cy="2471.571" rx="24.18" ry="40.874"/>
				
					<linearGradient id="SVGID_00000020372218498989141510000010585409747544744117_" gradientUnits="userSpaceOnUse" x1="2418.9231" y1="2477.386" x2="2351.7063" y2="2468.3376">
					<stop  offset="0.0054" style="stop-color:#D8DEE8"/>
					<stop  offset="1" style="stop-color:#F4F7FA"/>
				</linearGradient>
				
					<ellipse style="fill:url(#SVGID_00000020372218498989141510000010585409747544744117_);" cx="2375.724" cy="2471.571" rx="20.521" ry="37.947"/>
			</g>
			<g>
				
					<linearGradient id="SVGID_00000062158340550982240540000008692457687422731167_" gradientUnits="userSpaceOnUse" x1="2627.6736" y1="2503.2646" x2="2737.6438" y2="2503.2646">
					<stop  offset="0" style="stop-color:#311944"/>
					<stop  offset="1" style="stop-color:#6B3976"/>
				</linearGradient>
				<path style="fill:url(#SVGID_00000062158340550982240540000008692457687422731167_);" d="M2682.659,2410.318
					c-1.247,0-2.479,0.095-3.706,0.234l-19.457-0.234l0.114,8.563c-18.852,14.739-31.936,46.968-31.936,84.384
					c0,38.89,14.136,72.185,34.192,86.049l0.092,6.897h20.701c30.366,0,54.985-41.614,54.985-92.946
					C2737.644,2451.931,2713.025,2410.318,2682.659,2410.318z"/>
				
					<linearGradient id="SVGID_00000137817844953382631880000017159231482619376283_" gradientUnits="userSpaceOnUse" x1="2604.5105" y1="2503.2649" x2="2714.4802" y2="2503.2649">
					<stop  offset="0" style="stop-color:#311944"/>
					<stop  offset="1" style="stop-color:#6B3976"/>
				</linearGradient>
				
					<ellipse style="fill:url(#SVGID_00000137817844953382631880000017159231482619376283_);" cx="2659.495" cy="2503.265" rx="54.985" ry="92.947"/>
				<ellipse style="fill:#D8DEE8;" cx="2651.768" cy="2503.265" rx="30.891" ry="52.219"/>
				
					<linearGradient id="SVGID_00000024698147549960225650000011022190676850178954_" gradientUnits="userSpaceOnUse" x1="2711.6309" y1="2510.6941" x2="2625.7588" y2="2499.1345">
					<stop  offset="0.0054" style="stop-color:#D8DEE8"/>
					<stop  offset="1" style="stop-color:#F4F7FA"/>
				</linearGradient>
				
					<ellipse style="fill:url(#SVGID_00000024698147549960225650000011022190676850178954_);" cx="2656.442" cy="2503.265" rx="26.217" ry="48.479"/>
			</g>
			
				<linearGradient id="SVGID_00000044881621939035214140000011304446442223722908_" gradientUnits="userSpaceOnUse" x1="2407.6172" y1="2001.2086" x2="1297.363" y2="2722.657">
				<stop  offset="0" style="stop-color:#FFC444"/>
				<stop  offset="0.3138" style="stop-color:#FBA94A"/>
				<stop  offset="0.9964" style="stop-color:#F36F56"/>
			</linearGradient>
			<path style="fill:url(#SVGID_00000044881621939035214140000011304446442223722908_);" d="M1804.463,1919.933
				c-10.287,1.711-17.828,10.609-17.828,21.036v388.917c0,11.316,8.838,20.661,20.136,21.292l731.008,40.785v-593.954
				L1804.463,1919.933z"/>
			
				<linearGradient id="SVGID_00000043431225878671801440000001494956210672353950_" gradientUnits="userSpaceOnUse" x1="3149.9763" y1="1843.8063" x2="2307.5645" y2="2379.4944">
				<stop  offset="0" style="stop-color:#FFC444"/>
				<stop  offset="0.3138" style="stop-color:#FBA94A"/>
				<stop  offset="0.9964" style="stop-color:#F36F56"/>
			</linearGradient>
			<path style="fill:url(#SVGID_00000043431225878671801440000001494956210672353950_);" d="M2950.011,1811.876l-412.231-13.868
				v593.954h434.396V1834.8C2972.176,1822.432,2962.371,1812.292,2950.011,1811.876z"/>
			
				<linearGradient id="SVGID_00000171688465303895617540000012346920069583020216_" gradientUnits="userSpaceOnUse" x1="1786.6353" y1="2143.0374" x2="2500.0701" y2="2143.0374">
				<stop  offset="0" style="stop-color:#FFC444"/>
				<stop  offset="0.9964" style="stop-color:#F36F56"/>
			</linearGradient>
			<path style="opacity:0.3;fill:url(#SVGID_00000171688465303895617540000012346920069583020216_);" d="M2383.328,2242.662
				c-93.874-43.238-181.989,22.758-267.878-41.027c-75.217-55.857-50.966-138.643-111.014-236.505
				c-13.748-22.407-32.163-45.928-57.328-68.914l-142.646,23.717c-10.287,1.711-17.828,10.609-17.828,21.036v388.917
				c0,11.316,8.838,20.661,20.136,21.292l693.299,38.681C2468.256,2302.819,2425.023,2261.866,2383.328,2242.662z"/>
			<path style="fill:#F4F7FA;" d="M3191.787,2204.048l-30.468-76.622l-0.905-63.349l30.777-6.155
				c2.985-0.597,4.866-3.549,4.131-6.503c-4.652-18.681-21.683-80.384-48.18-100.769c-18.678-14.367-372.86-18.664-372.86-18.664
				l-170.468,11.083c-13.387,0.872-23.802,11.984-23.802,25.4v377.742c0,9.913,7.579,18.178,17.453,19.033l117.016,10.149
				l23.162,23.422c0,0,331.66,26.558,464.017,2.422c6.856-1.25,11.846-7.18,11.846-14.148v-166.147
				C3213.507,2196.808,3191.787,2204.048,3191.787,2204.048z"/>
			
				<linearGradient id="SVGID_00000120546628321880612570000002311213602675151794_" gradientUnits="userSpaceOnUse" x1="2580.0117" y1="2169.3784" x2="2865.9895" y2="2169.3784">
				<stop  offset="0.0054" style="stop-color:#D8DEE8"/>
				<stop  offset="1" style="stop-color:#F4F7FA"/>
			</linearGradient>
			<path style="opacity:0.8;fill:url(#SVGID_00000120546628321880612570000002311213602675151794_);" d="M2832.204,2226.975
				c0,0-3.62-164.106,0-231.678c1.755-32.778-14.664-51.903-32.033-62.932c-16.198-0.26-25.889-0.378-25.889-0.378l-170.468,11.083
				c-13.387,0.872-23.802,11.984-23.802,25.4v377.742c0,9.913,7.579,18.178,17.453,19.033l117.016,10.149l23.162,23.422
				c0,0,54.607,4.373,128.346,7.956v-139.977L2832.204,2226.975z"/>
			<path style="fill:#97A6B7;" d="M3209.73,2430.673l-13.116-4.591v-26.584c0-7.166-5.809-12.975-12.975-12.975h-410.721
				c-9.908,0-17.94,8.032-17.94,17.94v158.851c0,8.739,7.262,15.727,15.995,15.391l439.79-16.916
				c8.271-0.318,14.812-7.115,14.812-15.392v-93.391C3225.574,2442.951,3219.22,2433.995,3209.73,2430.673z"/>
			
				<linearGradient id="SVGID_00000052803215774662166650000005430805457913690800_" gradientUnits="userSpaceOnUse" x1="2902.0107" y1="2405.6753" x2="3173.8276" y2="2405.6753">
				<stop  offset="0" style="stop-color:#444B8C"/>
				<stop  offset="0.9964" style="stop-color:#26264F"/>
			</linearGradient>
			<path style="fill:url(#SVGID_00000052803215774662166650000005430805457913690800_);" d="M3159.685,2294.19h-243.532
				c-8.2,0-14.681,6.952-14.107,15.132l13.416,191.201c0.673,9.605,8.829,16.955,18.452,16.627l209.225-7.088
				c9.138-0.309,16.573-7.461,17.237-16.58l13.414-184.122C3174.385,2301.166,3167.9,2294.19,3159.685,2294.19z"/>
			<g style="opacity:0.3;">
				<path style="fill:#97A6B7;" d="M3209.73,2430.673l-13.116-4.591v-26.585c0-5.663-3.634-10.465-8.692-12.237l-24.995,117.52
					c-2.976,13.995-15.073,24.184-29.37,24.74l-191.948,7.46c-13.76,0.535-26.25-7.996-30.759-21.007l-44.86-129.452l0,0h-93.072
					c-9.908,0-17.939,8.031-17.939,17.939v158.851c0,8.739,7.263,15.728,15.995,15.391l439.79-16.916
					c8.27-0.319,14.811-7.115,14.811-15.392v-93.391C3225.574,2442.951,3219.219,2433.995,3209.73,2430.673z"/>
			</g>
			
				<linearGradient id="SVGID_00000137823392582486547840000002977427548630877324_" gradientUnits="userSpaceOnUse" x1="2861.1475" y1="2401.8354" x2="2727.2263" y2="2868.4011">
				<stop  offset="0" style="stop-color:#FF9085"/>
				<stop  offset="1" style="stop-color:#FB6FBB"/>
			</linearGradient>
			<path style="fill:url(#SVGID_00000137823392582486547840000002977427548630877324_);" d="M2886.503,2526.226l-45.67,2.283
				c-28.354,1.418-52.72-19.916-55.06-48.209l-1.836-22.2h91.429c6.151,0,11.137,4.986,11.137,11.136V2526.226z"/>
			
				<linearGradient id="SVGID_00000047779257339001620180000015390097393652446594_" gradientUnits="userSpaceOnUse" x1="3192.7527" y1="2497.0183" x2="3058.8311" y2="2963.585">
				<stop  offset="0" style="stop-color:#FF9085"/>
				<stop  offset="1" style="stop-color:#FB6FBB"/>
			</linearGradient>
			<path style="fill:url(#SVGID_00000047779257339001620180000015390097393652446594_);" d="M3181.117,2467.497l-7.29,49.664
				c0,0,48.149-1.686,46.942-62.375l-29.879,3.286C3185.868,2458.624,3181.851,2462.497,3181.117,2467.497z"/>
			<path style="fill:#808080;" d="M2842.652,2227.775c-7.119,0-14.174-2.301-19.925-6.512l-18.792-13.761
				c-6.909-5.06-11.035-13.191-11.035-21.756v-109.392c0-4.927,2.162-9.574,5.931-12.75c3.77-3.173,8.7-4.513,13.573-3.68
				l18.419,3.174l330.385-0.014l31.591,140.951l-0.044,0.205l-3.471,17.375l-0.797,0.013l-345.248,6.14
				C2843.046,2227.773,2842.849,2227.775,2842.652,2227.775z M2809.561,2061.663c-3.434,0-6.78,1.206-9.454,3.458
				c-3.322,2.798-5.226,6.892-5.226,11.233v109.392c0,7.934,3.824,15.47,10.227,20.158l18.792,13.761
				c5.412,3.962,12.05,6.128,18.751,6.128c0.183,0,0.366-0.002,0.553-0.005l344.45-6.126l3.115-15.602l-31.15-138.993h-328.967
				l-18.588-3.188C2811.231,2061.734,2810.393,2061.663,2809.561,2061.663z"/>
			
				<linearGradient id="SVGID_00000036955094550625017770000010727192361561938327_" gradientUnits="userSpaceOnUse" x1="2793.8923" y1="2143.7268" x2="3191.7869" y2="2143.7268">
				<stop  offset="0" style="stop-color:#444B8C"/>
				<stop  offset="0.9964" style="stop-color:#26264F"/>
			</linearGradient>
			<path style="fill:url(#SVGID_00000036955094550625017770000010727192361561938327_);" d="M3160.414,2064.076h-329.762
				l-18.417-3.174c-9.583-1.652-18.343,5.728-18.343,15.452v109.391c0,8.281,3.948,16.065,10.629,20.958l18.792,13.76
				c5.768,4.224,12.761,6.442,19.91,6.315l345.247-6.139l3.318-16.592L3160.414,2064.076z"/>
			<g>
				<path style="fill:#97A6B7;" d="M2955.434,2026.066h-28.055c-4.249,0-7.692,3.443-7.692,7.693v11.765
					c0,4.249,3.443,7.692,7.692,7.692h28.055c4.249,0,7.692-3.443,7.692-7.692v-11.765
					C2963.126,2029.509,2959.683,2026.066,2955.434,2026.066z"/>
				<path style="fill:#97A6B7;" d="M3120.142,2026.066h-28.055c-4.249,0-7.692,3.443-7.692,7.693v11.765
					c0,4.249,3.443,7.692,7.692,7.692h28.055c4.249,0,7.693-3.443,7.693-7.692v-11.765
					C3127.835,2029.509,3124.391,2026.066,3120.142,2026.066z"/>
			</g>
			<path style="opacity:0.3;fill:#FFFFFF;" d="M3057.245,2141.905c-85.096-32.546-165.142,8.018-201.814-36.2
				c-9.916-11.956-13.919-26.832-14.847-41.63h-9.932l-18.416-3.175c-9.584-1.651-18.344,5.729-18.344,15.452v109.393
				c0,8.281,3.949,16.065,10.63,20.958l18.791,13.759c5.768,4.224,12.76,6.443,19.91,6.315l312.74-5.561
				C3120.612,2173.566,3084.71,2152.41,3057.245,2141.905z"/>
		</g>
		<g>
			<path style="fill:#BFC8D6;" d="M3051.877,2957.362l-2447.7-20.864v61.733c0,16.756,10.676,31.003,25.134,33.542l692.137,121.563
				c8.214,1.443,16.544,1.825,24.832,1.141l1678.997-138.602c14.99-1.237,26.599-15.529,26.599-32.744V2957.362z"/>
			<g>
				<path style="fill:#BFC8D6;" d="M2163.616,2858.433L629.488,2971.366c-27.452,2.021-49.773-19.453-49.773-47.967V1780.977
					c0-28.515,22.321-51.631,49.773-51.631h1534.128c22.616,0,40.903,20.896,40.903,46.674v1032.728
					C2204.519,2834.524,2186.232,2856.768,2163.616,2858.433z"/>
				
					<linearGradient id="SVGID_00000046325088892458110740000013161118849138621580_" gradientUnits="userSpaceOnUse" x1="604.1769" y1="2350.4219" x2="2228.98" y2="2350.4219">
					<stop  offset="0" style="stop-color:#444B8C"/>
					<stop  offset="0.9964" style="stop-color:#26264F"/>
				</linearGradient>
				<path style="fill:url(#SVGID_00000046325088892458110740000013161118849138621580_);" d="M2188.078,2858.433L653.95,2971.366
					c-27.453,2.021-49.773-19.453-49.773-47.967V1780.977c0-28.515,22.32-51.631,49.773-51.631h1534.128
					c22.617,0,40.902,20.896,40.902,46.674v1032.728C2228.98,2834.524,2210.695,2856.768,2188.078,2858.433z"/>
				<path style="fill:#FFFFFF;" d="M2140.285,2785.623l-1428.88,98.098c-22.34,1.534-40.494-16.091-40.494-39.37V1844.16
					c0-23.279,18.155-42.229,40.494-42.325l1428.88-6.16c18.657-0.081,33.749,17.043,33.749,38.245v910.996
					C2174.033,2766.118,2158.942,2784.343,2140.285,2785.623z"/>
			</g>
			
				<linearGradient id="SVGID_00000021824131507909021560000003788638806991419066_" gradientUnits="userSpaceOnUse" x1="604.1769" y1="2975.1636" x2="3051.8767" y2="2975.1636">
				<stop  offset="0.494" style="stop-color:#EBEFF2"/>
				<stop  offset="1" style="stop-color:#FFFFFF"/>
			</linearGradient>
			<path style="fill:url(#SVGID_00000021824131507909021560000003788638806991419066_);" d="M2249.224,2852.168L604.177,2971.042
				l717.271,125.978c8.214,1.443,16.544,1.825,24.832,1.142l1705.597-140.798l-776.485-104.386
				C2266.708,2851.809,2257.95,2851.538,2249.224,2852.168z"/>
			<polygon style="fill:#D8DEE8;" points="844.215,2972.064 2213.765,2871.624 2637.629,2928.147 1279.877,3035.513 			"/>
			<g>
				<path style="fill:#D8DEE8;" d="M1287.948,2842.464l-582.903,39.223c-17.102,1.151-31.607-12.411-31.607-29.551V1831.244
					c0-16.311,13.188-29.552,29.499-29.618l585.011-2.362V2842.464z"/>
				<polygon style="fill:#FFFFFF;" points="1218.199,2114.997 865.543,2127.019 865.543,2080.606 1218.199,2069.553 				"/>
				<polygon style="fill:#FFFFFF;" points="1218.199,2189.447 865.543,2203.054 865.543,2156.642 1218.199,2144.003 				"/>
				<polygon style="fill:#FFFFFF;" points="1218.199,2263.896 865.543,2279.089 865.543,2232.677 1218.199,2218.452 				"/>
				<polygon style="fill:#FFFFFF;" points="1218.199,2338.346 865.543,2355.125 865.543,2308.712 1218.199,2292.901 				"/>
				
					<linearGradient id="SVGID_00000049180959687430109590000008403820873912971694_" gradientUnits="userSpaceOnUse" x1="1446.2446" y1="3037.2061" x2="1446.2446" y2="2334.7488" gradientTransform="matrix(1.0043 -0.0159 0.0012 0.9957 -6.523 23.7065)">
					<stop  offset="0" style="stop-color:#FFC444"/>
					<stop  offset="0.9964" style="stop-color:#F36F56"/>
				</linearGradient>
				<path style="fill:url(#SVGID_00000049180959687430109590000008403820873912971694_);" d="M1909.788,2736.251l-911.902,61.275
					c-47.405,3.186-87.326-31.256-87.379-75.385l-0.133-111.865c-0.049-40.943,34.435-75.249,78.429-78.025l911.906-57.536
					c47.273-2.983,86.963,31.413,87.016,75.408l0.128,108.126C1987.902,2699.062,1953.631,2733.305,1909.788,2736.251z"/>
				<g>
					<path style="fill:#FFFFFF;" d="M1012.891,2675.812l0.339,34.06l-17.077,1.114l-0.847-85.208l29.477-1.923
						c9.709-0.633,17.325,1.086,22.846,5.155c5.521,4.072,8.324,10.067,8.403,17.987c0.043,4.369-1.08,8.22-3.368,11.55
						c-2.288,3.332-5.645,6.118-10.07,8.359c5.045,1.154,8.685,3.395,10.923,6.724s3.382,7.548,3.433,12.659l0.062,6.262
						c0.024,2.38,0.37,4.847,1.038,7.399c0.67,2.553,1.79,4.402,3.362,5.549l0.012,1.229l-17.604,1.148
						c-1.573-1.147-2.597-3.149-3.074-6.006c-0.477-2.857-0.729-5.632-0.756-8.325l-0.06-6.029
						c-0.042-4.252-1.235-7.482-3.578-9.692c-2.343-2.208-5.64-3.175-9.89-2.898L1012.891,2675.812z M1012.76,2662.645l12.107-0.79
						c4.797-0.313,8.354-1.559,10.673-3.741c2.319-2.181,3.46-5.262,3.42-9.241c-0.039-3.9-1.249-6.925-3.631-9.074
						c-2.383-2.147-5.854-3.073-10.416-2.775l-12.4,0.809L1012.76,2662.645z"/>
					<path style="fill:#FFFFFF;" d="M1120.766,2665.379l-31.584,2.06l0.242,24.344l37.55-2.449l0.13,13.11l-54.626,3.563
						l-0.847-85.208l54.51-3.556l0.131,13.167l-37.433,2.442l0.213,21.419l31.584-2.06L1120.766,2665.379z"/>
					<path style="fill:#FFFFFF;" d="M1207.644,2662.23c0.043,4.292-0.513,8.369-1.664,12.229c-1.152,3.863-2.804,7.387-4.957,10.573
						l12.818,11.871l-11.081,9.858l-12.579-11.476c-2.598,1.575-5.385,2.821-8.361,3.736c-2.975,0.917-6.122,1.483-9.434,1.699
						c-10.527,0.687-19.101-2.169-25.72-8.57c-6.619-6.399-9.979-14.827-10.083-25.284l-0.152-15.333
						c-0.104-10.417,3.076-19.261,9.539-26.535c6.463-7.272,14.939-11.251,25.427-11.935c10.567-0.689,19.198,2.174,25.896,8.587
						c6.696,6.415,10.096,14.83,10.2,25.248L1207.644,2662.23z M1190.472,2647.89c-0.066-6.632-1.779-11.967-5.135-16.003
						s-7.959-5.864-13.808-5.482c-5.77,0.376-10.242,2.796-13.417,7.258c-3.175,4.462-4.729,10.01-4.663,16.642l0.153,15.45
						c0.067,6.749,1.74,12.146,5.018,16.186c3.279,4.041,7.823,5.873,13.634,5.494c5.847-0.381,10.389-2.806,13.622-7.271
						c3.232-4.466,4.817-10.074,4.75-16.823L1190.472,2647.89z"/>
					<path style="fill:#FFFFFF;" d="M1290.022,2606.554l0.554,55.771c0.095,9.598-3.014,17.316-9.315,23.154
						c-6.301,5.838-14.522,9.086-24.655,9.747c-10.1,0.659-18.326-1.517-24.676-6.53c-6.352-5.012-9.575-12.317-9.67-21.915
						l-0.554-55.771l17.137-1.118l0.554,55.771c0.057,5.696,1.62,9.948,4.691,12.753c3.071,2.807,7.199,4.04,12.387,3.702
						c5.264-0.344,9.421-2.117,12.472-5.323c3.051-3.204,4.548-7.656,4.491-13.352l-0.554-55.771L1290.022,2606.554z"/>
					<path style="fill:#FFFFFF;" d="M1353.95,2650.169l-31.582,2.06l0.242,24.344l37.55-2.449l0.13,13.11l-54.626,3.563
						l-0.847-85.208l54.508-3.555l0.131,13.167l-37.431,2.442l0.213,21.419l31.582-2.06L1353.95,2650.169z"/>
					<path style="fill:#FFFFFF;" d="M1416.45,2661.317c-0.032-3.277-1.199-5.836-3.499-7.677c-2.3-1.841-6.327-3.452-12.075-4.833
						c-9.857-2.324-17.347-5.33-22.475-9.017c-5.128-3.687-7.726-9.001-7.795-15.946c-0.069-6.984,2.739-12.876,8.426-17.68
						c5.687-4.8,12.978-7.492,21.868-8.072c9.433-0.615,17.052,1.269,22.851,5.653c5.796,4.385,8.639,10.446,8.518,18.183
						l-0.112,0.359l-16.552,1.08c-0.042-4.252-1.36-7.437-3.957-9.551c-2.597-2.115-6.213-3.021-10.856-2.718
						c-4.208,0.275-7.455,1.502-9.736,3.68c-2.281,2.18-3.405,4.849-3.373,8.009c0.029,2.888,1.298,5.177,3.815,6.866
						c2.511,1.691,6.839,3.372,12.981,5.038c9.386,2.044,16.555,5.04,21.51,8.992c4.957,3.951,7.469,9.42,7.539,16.403
						c0.073,7.297-2.718,13.236-8.37,17.822c-5.649,4.584-13.154,7.182-22.511,7.792c-9.163,0.598-17.054-1.171-23.667-5.308
						c-6.616-4.136-9.873-10.734-9.766-19.799l0.112-0.359l16.552-1.08c0.05,5.033,1.57,8.644,4.556,10.829
						c2.986,2.187,7.015,3.114,12.085,2.783c4.56-0.298,8.032-1.48,10.411-3.548S1416.482,2664.516,1416.45,2661.317z"/>
					<path style="fill:#FFFFFF;" d="M1504.972,2605.708l-24.33,1.587l0.716,72.04l-17.077,1.114l-0.716-72.04l-23.981,1.564
						l-0.131-13.167l65.387-4.265L1504.972,2605.708z"/>
					<path style="fill:#FFFFFF;" d="M1613.422,2635.761c0.043,4.292-0.511,8.368-1.662,12.229
						c-1.151,3.862-2.803,7.387-4.956,10.572l12.816,11.871l-11.08,9.858l-12.578-11.476c-2.6,1.575-5.388,2.821-8.361,3.736
						c-2.976,0.917-6.123,1.483-9.437,1.699c-10.527,0.687-19.1-2.169-25.717-8.57c-6.62-6.399-9.981-14.827-10.085-25.284
						l-0.152-15.333c-0.104-10.417,3.076-19.261,9.539-26.535c6.463-7.272,14.937-11.251,25.428-11.935
						c10.564-0.689,19.197,2.174,25.893,8.587c6.696,6.415,10.096,14.831,10.199,25.247L1613.422,2635.761z M1596.25,2621.421
						c-0.066-6.632-1.776-11.967-5.132-16.003c-3.356-4.036-7.959-5.864-13.808-5.482c-5.773,0.377-10.246,2.797-13.417,7.258
						c-3.175,4.462-4.731,10.01-4.665,16.642l0.154,15.45c0.067,6.749,1.741,12.145,5.018,16.186
						c3.278,4.041,7.823,5.873,13.632,5.494c5.849-0.382,10.391-2.806,13.623-7.272c3.232-4.466,4.815-10.074,4.748-16.823
						L1596.25,2621.421z"/>
					<path style="fill:#FFFFFF;" d="M1695.802,2580.085l0.554,55.771c0.095,9.598-3.011,17.316-9.312,23.154
						c-6.301,5.837-14.522,9.086-24.658,9.748c-10.1,0.659-18.323-1.517-24.674-6.53c-6.352-5.012-9.574-12.317-9.669-21.915
						l-0.554-55.771l17.134-1.118l0.554,55.771c0.057,5.696,1.622,9.948,4.693,12.753c3.071,2.807,7.2,4.04,12.385,3.702
						c5.264-0.343,9.421-2.117,12.472-5.323c3.051-3.205,4.548-7.656,4.491-13.352l-0.554-55.771L1695.802,2580.085z"/>
					<path style="fill:#FFFFFF;" d="M1779.994,2624.896c0.104,10.494-3.103,19.36-9.624,26.598
						c-6.524,7.24-15.068,11.202-25.635,11.891c-10.527,0.687-19.1-2.169-25.717-8.57c-6.62-6.399-9.981-14.827-10.085-25.284
						l-0.152-15.333c-0.104-10.417,3.076-19.261,9.539-26.535c6.463-7.272,14.937-11.251,25.428-11.935
						c10.564-0.689,19.197,2.174,25.893,8.587c6.696,6.415,10.096,14.831,10.2,25.248L1779.994,2624.896z M1762.821,2610.556
						c-0.066-6.632-1.775-11.967-5.132-16.003c-3.356-4.036-7.959-5.864-13.808-5.482c-5.773,0.377-10.246,2.797-13.417,7.258
						c-3.175,4.462-4.731,10.01-4.665,16.642l0.154,15.45c0.067,6.749,1.741,12.145,5.018,16.186
						c3.278,4.041,7.823,5.873,13.632,5.494c5.849-0.382,10.391-2.806,13.623-7.272s4.815-10.074,4.748-16.823L1762.821,2610.556z"
						/>
					<path style="fill:#FFFFFF;" d="M1850.922,2583.142l-24.33,1.587l0.716,72.04l-17.077,1.114l-0.716-72.04l-23.981,1.564
						l-0.131-13.167l65.387-4.265L1850.922,2583.142z"/>
					<path style="fill:#FFFFFF;" d="M1909.285,2613.944l-31.582,2.06l0.242,24.344l37.549-2.449l0.13,13.11l-54.626,3.563
						l-0.847-85.207l54.508-3.556l0.131,13.167l-37.431,2.441l0.213,21.42l31.582-2.06L1909.285,2613.944z"/>
				</g>
				<g>
					<path style="fill:#D8DEE8;" d="M1515.61,2345.972c0,0,86.057-22.104,123.913-80.69c37.855-58.585,40.559-96.44,65.796-96.44
						c25.237,0,16.224,18.928,53.177,25.237c36.954,6.309,56.783,0,62.191-24.335c5.408-24.335,0-105.454-9.914-118.072
						c-9.914-12.619-30.645-54.98-33.349-68.5c-2.704-13.52-8.57-62.073-8.57-62.073l21.188,4.389c0,0,18.026,68.5,28.842,83.822
						c10.816,15.322,13.52,105.454,69.401,107.256c55.881,1.802,35.151-67.599,101.848-91.033
						c66.697-23.434,73.908-23.434,73.908-23.434v36.954c0,0-79.316,14.421-99.145,50.474
						c-19.829,36.053-53.177,76.612-64.895,97.342s-42.362,45.967-54.079,52.276c-11.717,6.309,4.507,75.71-54.079,103.651
						c-58.585,27.941-82.02-45.967-97.342-43.263c-15.322,2.704-47.77,51.375-63.092,67.599
						c-15.322,16.224-27.941,36.052-65.796,42.362c-37.855,6.309-145.111,7.211-145.111,7.211v-65.796L1515.61,2345.972z"/>
					<path style="fill:#D8DEE8;" d="M1471.878,2274.295c0,0,78.414-51.375,83.822-63.993
						c5.408-12.618,28.842-127.987,36.954-143.309c8.112-15.322,89.23-79.316,95.539-90.131c6.309-10.816,3.605-69.401,3.605-69.401
						h-271.295v373.144L1471.878,2274.295z"/>
					<g>
						
							<linearGradient id="SVGID_00000047763617174582927960000013940578722716169149_" gradientUnits="userSpaceOnUse" x1="1552.776" y1="2196.3052" x2="1975.1304" y2="2196.3052">
							<stop  offset="0" style="stop-color:#AA80F9"/>
							<stop  offset="0.9964" style="stop-color:#6165D7"/>
						</linearGradient>
						<path style="fill:url(#SVGID_00000047763617174582927960000013940578722716169149_);" d="M1556.731,2201.833
							c-1.21,0-2.402-0.553-3.178-1.598c-1.3-1.752-0.932-4.228,0.821-5.528c0.007-0.005,1.519-1.126,4.181-3.134
							c1.746-1.315,4.225-0.967,5.534,0.774c1.315,1.742,0.969,4.221-0.774,5.534c-2.703,2.039-4.235,3.175-4.235,3.175
							C1558.373,2201.581,1557.549,2201.833,1556.731,2201.833z"/>
						
							<linearGradient id="SVGID_00000139975217467543413590000017763352641607266734_" gradientUnits="userSpaceOnUse" x1="1552.8486" y1="2154.8887" x2="1972.7368" y2="2154.8887">
							<stop  offset="0" style="stop-color:#AA80F9"/>
							<stop  offset="0.9964" style="stop-color:#6165D7"/>
						</linearGradient>
						<path style="fill:url(#SVGID_00000139975217467543413590000017763352641607266734_);" d="M1925.1,2218.61
							c-0.702,0-1.452-0.031-2.236-0.092c-2.175-0.17-3.8-2.072-3.631-4.247c0.173-2.175,2.033-3.813,4.248-3.633
							c0.587,0.046,1.15,0.044,1.673,0.068c0.947,0,1.758-0.075,2.423-0.22c1.564-0.343,3.112-0.765,4.608-1.257
							c2.077-0.68,4.306,0.443,4.988,2.516c0.682,2.073-0.444,4.308-2.518,4.99c-1.747,0.577-3.559,1.072-5.385,1.471
							C1928.036,2218.478,1926.6,2218.608,1925.1,2218.61z M1912.912,2216.549c-0.346,0-0.699-0.046-1.049-0.143
							c-3.074-0.843-6.529-1.955-10.268-3.302c-2.056-0.738-3.122-3.001-2.382-5.056c0.74-2.054,3.013-3.118,5.056-2.379
							c3.549,1.276,6.81,2.324,9.684,3.115c2.107,0.578,3.342,2.752,2.766,4.857
							C1916.237,2215.396,1914.646,2216.549,1912.912,2216.549z M1942.942,2212.646c-1.361,0-2.684-0.702-3.421-1.965
							c-1.096-1.887-0.455-4.306,1.432-5.402c2.728-1.588,5.371-3.495,7.852-5.668c1.639-1.432,4.14-1.274,5.575,0.368
							c1.439,1.642,1.272,4.138-0.37,5.577c-2.86,2.506-5.918,4.711-9.087,6.554
							C1944.299,2212.475,1943.617,2212.646,1942.942,2212.646z M1893.156,2209.557c-0.502,0-1.011-0.097-1.503-0.299
							c-3.135-1.288-6.39-2.688-9.739-4.182c-1.992-0.889-2.888-3.225-1.995-5.219c0.889-1.989,3.214-2.893,5.219-1.999
							c3.275,1.461,6.454,2.83,9.521,4.091c2.016,0.828,2.983,3.137,2.151,5.156
							C1896.183,2208.632,1894.71,2209.557,1893.156,2209.557z M1874.001,2201.043c-0.563,0-1.137-0.122-1.683-0.38
							c-3.112-1.468-6.284-3.001-9.498-4.586c-1.958-0.965-2.762-3.334-1.795-5.292c0.964-1.958,3.329-2.76,5.29-1.797
							c3.173,1.564,6.305,3.078,9.376,4.529c1.975,0.931,2.82,3.286,1.887,5.26
							C1876.902,2200.205,1875.484,2201.043,1874.001,2201.043z M1958.65,2199.005c-0.879,0-1.761-0.292-2.494-0.891
							c-1.693-1.379-1.944-3.868-0.563-5.56c2.022-2.479,3.936-5.205,5.684-8.103c1.12-1.87,3.553-2.469,5.422-1.344
							c1.87,1.128,2.47,3.556,1.344,5.426c-1.938,3.217-4.068,6.25-6.328,9.019
							C1960.933,2198.51,1959.796,2199.005,1958.65,2199.005z M1569.254,2192.351c-1.188,0-2.36-0.531-3.139-1.546
							c-1.328-1.73-1.003-4.211,0.73-5.541c2.482-1.906,5.258-4.05,8.263-6.39c1.724-1.345,4.206-1.031,5.545,0.687
							c1.342,1.722,1.033,4.206-0.687,5.546c-3.02,2.353-5.813,4.511-8.308,6.427
							C1570.938,2192.085,1570.092,2192.351,1569.254,2192.351z M1855.199,2191.786c-0.604,0-1.218-0.139-1.792-0.433
							c-3.095-1.578-6.216-3.193-9.348-4.835c-1.931-1.015-2.677-3.404-1.663-5.336c1.011-1.932,3.39-2.68,5.334-1.664
							c3.105,1.629,6.2,3.23,9.267,4.795c1.944,0.991,2.718,3.371,1.724,5.316
							C1858.026,2190.997,1856.638,2191.786,1855.199,2191.786z M1836.635,2182.059c-0.631,0-1.272-0.153-1.868-0.472
							c-3.086-1.659-6.171-3.334-9.238-5.015c-1.914-1.05-2.616-3.451-1.568-5.365c1.05-1.914,3.453-2.611,5.365-1.568
							c3.05,1.671,6.115,3.335,9.182,4.985c1.924,1.033,2.643,3.431,1.612,5.353
							C1839.407,2181.304,1838.043,2182.059,1836.635,2182.059z M1585.774,2179.475c-1.167,0-2.323-0.514-3.102-1.498
							c-1.356-1.712-1.065-4.198,0.645-5.552c2.63-2.08,5.361-4.258,8.161-6.51c1.698-1.367,4.186-1.101,5.555,0.601
							c1.369,1.7,1.099,4.187-0.601,5.555c-2.816,2.268-5.565,4.457-8.208,6.551
							C1587.498,2179.197,1586.632,2179.475,1585.774,2179.475z M1818.257,2171.985c-0.653,0-1.313-0.163-1.924-0.504
							c-3.088-1.724-6.144-3.446-9.155-5.156c-1.899-1.077-2.564-3.488-1.485-5.387c1.079-1.897,3.492-2.565,5.387-1.484
							c2.995,1.7,6.037,3.412,9.107,5.129c1.905,1.064,2.587,3.471,1.522,5.376
							C1820.986,2171.254,1819.641,2171.985,1818.257,2171.985z M1602.085,2166.347c-1.144,0-2.277-0.494-3.059-1.447
							c-1.383-1.688-1.135-4.179,0.553-5.562c2.654-2.173,5.339-4.394,8.03-6.644c1.676-1.398,4.165-1.177,5.567,0.497
							c1.4,1.675,1.178,4.167-0.497,5.567c-2.711,2.267-5.417,4.505-8.091,6.695
							C1603.853,2166.053,1602.966,2166.347,1602.085,2166.347z M1800.03,2161.635c-0.67,0-1.349-0.171-1.971-0.529
							c-3.102-1.79-6.135-3.554-9.084-5.281c-1.883-1.104-2.516-3.526-1.413-5.407c1.103-1.885,3.526-2.513,5.407-1.413
							c2.935,1.72,5.952,3.475,9.04,5.254c1.89,1.091,2.538,3.507,1.449,5.399
							C1802.724,2160.925,1801.396,2161.635,1800.03,2161.635z M1618.141,2152.913c-1.115,0-2.221-0.469-3.003-1.381
							c-1.42-1.658-1.227-4.152,0.431-5.572c2.647-2.268,5.277-4.549,7.859-6.826c1.637-1.44,4.135-1.284,5.577,0.351
							c1.444,1.637,1.286,4.133-0.351,5.577c-2.609,2.301-5.266,4.608-7.944,6.9
							C1619.964,2152.601,1619.05,2152.913,1618.141,2152.913z M1781.944,2151.038c-0.687,0-1.383-0.178-2.017-0.555
							c-3.149-1.873-6.162-3.682-9.016-5.409c-1.868-1.13-2.467-3.56-1.337-5.426c1.13-1.868,3.563-2.465,5.426-1.337
							c2.84,1.717,5.836,3.515,8.968,5.378c1.875,1.116,2.491,3.541,1.376,5.417
							C1784.604,2150.349,1783.291,2151.038,1781.944,2151.038z M1764,2140.183c-0.708,0-1.423-0.188-2.068-0.587
							c-3.347-2.062-6.347-3.936-8.94-5.579c-1.843-1.167-2.391-3.609-1.221-5.453c1.167-1.841,3.612-2.391,5.451-1.222
							c2.567,1.625,5.539,3.483,8.853,5.524c1.859,1.144,2.438,3.578,1.293,5.436
							C1766.621,2139.516,1765.327,2140.183,1764,2140.183z M1633.836,2139.057c-1.071,0-2.138-0.433-2.918-1.284
							c-1.473-1.61-1.361-4.111,0.25-5.583c2.615-2.391,5.149-4.759,7.575-7.087c1.575-1.513,4.074-1.459,5.587,0.114
							c1.512,1.574,1.461,4.077-0.114,5.587c-2.47,2.372-5.053,4.784-7.715,7.219
							C1635.743,2138.714,1634.788,2139.057,1633.836,2139.057z M1746.314,2128.907c-0.76,0-1.527-0.217-2.204-0.673
							c-2.199-1.483-4.457-3.032-6.763-4.613l-1.905-1.306c-1.8-1.233-2.258-3.692-1.025-5.494c1.234-1.798,3.694-2.257,5.494-1.025
							l1.907,1.308c2.287,1.569,4.527,3.105,6.707,4.574c1.81,1.22,2.289,3.677,1.071,5.485
							C1748.832,2128.296,1747.585,2128.907,1746.314,2128.907z M1648.916,2124.539c-0.994,0-1.988-0.372-2.755-1.12
							c-1.564-1.522-1.598-4.024-0.076-5.587c2.589-2.662,4.932-5.194,6.965-7.525c1.435-1.644,3.929-1.812,5.577-0.382
							c1.644,1.436,1.815,3.931,0.382,5.577c-2.128,2.44-4.571,5.078-7.26,7.84
							C1650.974,2124.14,1649.944,2124.539,1648.916,2124.539z M1729,2117.155c-0.747,0-1.5-0.21-2.17-0.652
							c-2.867-1.886-5.775-3.743-8.707-5.499c-1.871-1.121-2.48-3.549-1.359-5.421c1.121-1.875,3.549-2.482,5.421-1.359
							c3.027,1.814,6.03,3.728,8.992,5.679c1.822,1.199,2.328,3.649,1.127,5.473C1731.545,2116.531,1730.285,2117.155,1729,2117.155
							z M1662.777,2108.86c-0.986,0-1.972-0.366-2.738-1.103c-1.573-1.512-1.624-4.012-0.11-5.587
							c2.833-2.949,5.94-5.339,9.228-7.104c1.924-1.028,4.318-0.307,5.351,1.615c1.032,1.924,0.307,4.32-1.615,5.351
							c-2.56,1.373-5.005,3.261-7.267,5.614C1664.85,2108.454,1663.814,2108.86,1662.777,2108.86z M1711.002,2106.497
							c-0.599,0-1.206-0.137-1.778-0.426c-3.2-1.615-6.278-2.964-9.148-4.011c-2.051-0.747-3.108-3.015-2.36-5.064
							c0.748-2.053,3.017-3.105,5.064-2.36c3.162,1.15,6.529,2.625,10.007,4.381c1.948,0.982,2.73,3.359,1.746,5.309
							C1713.837,2105.701,1712.446,2106.497,1711.002,2106.497z M1691.349,2099.59c-0.21,0-0.424-0.017-0.64-0.051
							c-3.271-0.531-6.389-0.609-9.27-0.236c-2.155,0.289-4.145-1.245-4.428-3.41c-0.282-2.163,1.245-4.146,3.41-4.428
							c3.629-0.472,7.53-0.382,11.557,0.273c2.155,0.351,3.615,2.38,3.266,4.535
							C1694.928,2098.212,1693.252,2099.59,1691.349,2099.59z"/>
						
							<linearGradient id="SVGID_00000029022696879130608530000013969660082758220983_" gradientUnits="userSpaceOnUse" x1="1552.6083" y1="2175.0972" x2="1975.1235" y2="2175.0972">
							<stop  offset="0" style="stop-color:#AA80F9"/>
							<stop  offset="0.9964" style="stop-color:#6165D7"/>
						</linearGradient>
						<path style="fill:url(#SVGID_00000029022696879130608530000013969660082758220983_);" d="M1969.27,2181.5
							c-0.526,0-1.062-0.107-1.578-0.331c-1.999-0.874-2.915-3.203-2.039-5.204c1.188-2.723,1.737-4.474,1.744-4.493
							c0.648-2.08,2.857-3.246,4.944-2.599c2.083,0.646,3.247,2.855,2.606,4.937c-0.027,0.087-0.668,2.15-2.053,5.317
							C1972.246,2180.612,1970.794,2181.5,1969.27,2181.5z"/>
					</g>
					<g>
						<g>
							
								<linearGradient id="SVGID_00000063629826683674947250000015400748739044760465_" gradientUnits="userSpaceOnUse" x1="1542.9572" y1="1943.0061" x2="1650.4602" y2="2219.9077">
								<stop  offset="0" style="stop-color:#AA80F9"/>
								<stop  offset="0.9964" style="stop-color:#6165D7"/>
							</linearGradient>
							<path style="fill:url(#SVGID_00000063629826683674947250000015400748739044760465_);" d="M1663.476,1981.761
								c0,45.615-63.904,128.853-92.825,164.186c-7.197,8.793-20.65,8.793-27.847,0c-28.92-35.334-92.825-118.571-92.825-164.186
								c0-58.955,47.793-106.748,106.748-106.748C1615.683,1875.013,1663.476,1922.806,1663.476,1981.761z"/>
							
								<ellipse transform="matrix(0.9239 -0.3827 0.3827 0.9239 -639.8882 746.5865)" style="fill:#FFFFFF;" cx="1556.728" cy="1981.761" rx="59.535" ry="59.535"/>
							<g style="opacity:0.3;">
								
									<linearGradient id="SVGID_00000124849894347047964500000000342280504808890296_" gradientUnits="userSpaceOnUse" x1="1504.4641" y1="1957.9504" x2="1611.9674" y2="2234.8525">
									<stop  offset="0" style="stop-color:#AA80F9"/>
									<stop  offset="0.9964" style="stop-color:#6165D7"/>
								</linearGradient>
								<path style="fill:url(#SVGID_00000124849894347047964500000000342280504808890296_);" d="M1556.256,2102.119
									c6.773-44.601,36.225-58.877,31.17-100.991c-5.83-48.569-48.834-61.504-49.872-104.731
									c-0.167-6.959,0.78-13.67,2.566-20.096c-51.067,7.978-90.14,52.154-90.14,105.46c0,45.615,63.904,128.853,92.824,164.186
									c4.236,5.176,10.639,7.301,16.659,6.384C1554.288,2132.797,1554.131,2116.115,1556.256,2102.119z"/>
							</g>
						</g>
						
							<linearGradient id="SVGID_00000047765701272105849190000008600725792192999095_" gradientUnits="userSpaceOnUse" x1="1584.7079" y1="2155.4128" x2="1514.8875" y2="2261.3904">
							<stop  offset="0" style="stop-color:#AA80F9"/>
							<stop  offset="0.9964" style="stop-color:#6165D7"/>
						</linearGradient>
						
							<circle style="fill:url(#SVGID_00000047765701272105849190000008600725792192999095_);" cx="1556.728" cy="2197.882" r="21.819"/>
					</g>
					<g>
						<g>
							
								<linearGradient id="SVGID_00000112613035448518256720000003795468062808641182_" gradientUnits="userSpaceOnUse" x1="1963.9474" y1="2035.6113" x2="2020.3309" y2="2180.8416">
								<stop  offset="0" style="stop-color:#FF9085"/>
								<stop  offset="1" style="stop-color:#FB6FBB"/>
							</linearGradient>
							<path style="fill:url(#SVGID_00000112613035448518256720000003795468062808641182_);" d="M2027.158,2055.938
								c0,23.924-33.517,67.581-48.685,86.113c-3.775,4.612-10.831,4.612-14.605,0c-15.168-18.532-48.685-62.189-48.685-86.113
								c0-30.921,25.067-55.988,55.988-55.988S2027.158,2025.017,2027.158,2055.938z"/>
							
								<ellipse transform="matrix(0.1602 -0.9871 0.9871 0.1602 -373.9668 3672.3301)" style="fill:#FFFFFF;" cx="1971.17" cy="2055.938" rx="31.225" ry="31.225"/>
							<g style="opacity:0.3;">
								
									<linearGradient id="SVGID_00000018932284594660644750000007281839180137986746_" gradientUnits="userSpaceOnUse" x1="1943.7584" y1="2043.4493" x2="2000.1422" y2="2188.6799">
									<stop  offset="0" style="stop-color:#FF9085"/>
									<stop  offset="1" style="stop-color:#FB6FBB"/>
								</linearGradient>
								<path style="fill:url(#SVGID_00000018932284594660644750000007281839180137986746_);" d="M1970.923,2119.063
									c3.552-23.392,18.999-30.88,16.348-52.968c-3.058-25.474-25.613-32.258-26.157-54.93c-0.088-3.65,0.409-7.17,1.346-10.54
									c-26.784,4.184-47.277,27.354-47.277,55.312c0,23.924,33.517,67.581,48.685,86.113c2.222,2.715,5.58,3.829,8.737,3.348
									C1969.89,2135.153,1969.808,2126.404,1970.923,2119.063z"/>
							</g>
						</g>
						
							<linearGradient id="SVGID_00000182517081423437496740000016475560291884083607_" gradientUnits="userSpaceOnUse" x1="1985.845" y1="2147.0151" x2="1949.2253" y2="2202.5986">
							<stop  offset="0" style="stop-color:#FF9085"/>
							<stop  offset="1" style="stop-color:#FB6FBB"/>
						</linearGradient>
						
							<circle style="fill:url(#SVGID_00000182517081423437496740000016475560291884083607_);" cx="1971.17" cy="2169.29" r="11.444"/>
					</g>
				</g>
			</g>
			<path style="opacity:0.48;fill:#FFFFFF;" d="M653.944,2971.366l1526.366-112.362l7.767-0.572
				c10.377-0.764,19.813-5.893,27.02-13.675c-109.839-6.011-178.062-44.99-222.071-85.266
				c-88.379-80.884-73.049-160.647-168.356-213.826c-118.872-66.331-212.342,17.718-302.547-65.209
				c-54.687-50.276-27.838-87.768-95.131-162.899c-74.531-83.214-123.055-55.242-197.958-130.135
				c-94.708-94.698-47.341-168.375-128.921-236.365c-98.969-82.483-205.701-6.14-299.912-85.243
				c-40.634-34.117-62.931-83.718-74.572-136.468H653.95c-27.453,0-49.773,23.116-49.773,51.631v1142.422
				C604.177,2951.911,626.493,2973.383,653.944,2971.366z"/>
		</g>
		<g>
			<g>
				
					<linearGradient id="SVGID_00000115497803330780743490000008639703372830412220_" gradientUnits="userSpaceOnUse" x1="-3752.3047" y1="-579.2693" x2="-3442.5845" y2="-257.8617" gradientTransform="matrix(0.6508 -0.7592 0.7592 0.6508 3488.3733 -1145.7214)">
					<stop  offset="0" style="stop-color:#444B8C"/>
					<stop  offset="0.9964" style="stop-color:#26264F"/>
				</linearGradient>
				<path style="fill:url(#SVGID_00000115497803330780743490000008639703372830412220_);" d="M775.43,1143.1
					c-57.559-12.347-128.779,27.776-162.345,77.369c-61.029,90.171-20.848,246.05,82.662,284.72
					c66.776,24.947,153.454-1.299,191.429-53.237c34.541-47.244,9.396-89.225,52.436-132.01
					c36.054-35.839,66.391-22.326,96.573-61.354c22.222-28.736,38.424-78.901,15.885-113.947
					c-18.998-29.539-59.804-39.452-89.936-36.64c-54.761,5.11-66.885,51.555-121.519,52.861
					C810.749,1161.576,806.008,1149.659,775.43,1143.1z"/>
				
					<linearGradient id="SVGID_00000066490487995628676550000015819342798569810364_" gradientUnits="userSpaceOnUse" x1="1048.3271" y1="1087.2289" x2="1173.571" y2="1500.2665">
					<stop  offset="0" style="stop-color:#FF9085"/>
					<stop  offset="1" style="stop-color:#FB6FBB"/>
				</linearGradient>
				<path style="fill:url(#SVGID_00000066490487995628676550000015819342798569810364_);" d="M1014.728,1244.17
					c16.769-12.721,69.579,19.507,102.939,58.955c39.192,46.345,32.767,80.461,65.549,136.595
					c16.296,27.906,45.11,66.098,99.028,102.149c-4.925,9.682-9.85,19.367-14.774,29.047c-27.573-0.833-81.324-6.679-128.578-44.054
					c-32.825-25.964-48.041-57.804-77.133-120.427C1032.565,1343.587,993.768,1260.073,1014.728,1244.17z"/>
				
					<linearGradient id="SVGID_00000083774719404834449420000009196287891792751289_" gradientUnits="userSpaceOnUse" x1="1369.4713" y1="1795.0182" x2="1339.493" y2="2066.823">
					<stop  offset="0" style="stop-color:#444B8C"/>
					<stop  offset="0.9964" style="stop-color:#26264F"/>
				</linearGradient>
				<path style="fill:url(#SVGID_00000083774719404834449420000009196287891792751289_);" d="M1366.561,2106.422l-18.465-39.232
					c-2.623-5.573-6.713-10.328-11.832-13.754l-9.142-6.119c0,0-21.856-0.58-25.257,13.158
					c-0.732,17.446,33.171,56.426,54.611,71.905c3.56,2.569,8.635,5.994,11.719,4.231
					C1373.417,2133.626,1369.753,2117.579,1366.561,2106.422z"/>
				
					<linearGradient id="SVGID_00000179611017042933694950000003851281265937107361_" gradientUnits="userSpaceOnUse" x1="1450.0391" y1="1864.2795" x2="1317.1339" y2="2089.1189">
					<stop  offset="0" style="stop-color:#311944"/>
					<stop  offset="1" style="stop-color:#A03976"/>
				</linearGradient>
				<path style="fill:url(#SVGID_00000179611017042933694950000003851281265937107361_);" d="M1331.862,2025.986
					c-2.908,16.827,0.77,25.6,4.735,30.514c2.79,3.459,25.435,40.796,16.134,46.825c-4.198,2.72-32.966-33.003-35.756-38.477
					c-2.526-4.957-4.17-3.787-4.317-17.292c-0.096-8.892-1.904-16.048-3.326-20.525
					C1316.843,2026.682,1324.352,2026.335,1331.862,2025.986z"/>
				
					<linearGradient id="SVGID_00000026851901796194897060000000935918562116394687_" gradientUnits="userSpaceOnUse" x1="1367.4652" y1="1794.7971" x2="1337.4869" y2="2066.6021">
					<stop  offset="0" style="stop-color:#444B8C"/>
					<stop  offset="0.9964" style="stop-color:#26264F"/>
				</linearGradient>
				<path style="fill:url(#SVGID_00000026851901796194897060000000935918562116394687_);" d="M1364.562,1892.627
					c0,0,20.438,24.386,17.112,51.12c-3.326,26.732-39.118-12.352-44.106-25.561c-4.991-13.208-10.821-32.027-10.821-32.027
					S1351.846,1870.545,1364.562,1892.627z"/>
				
					<linearGradient id="SVGID_00000075141921252723348160000006575889063316759728_" gradientUnits="userSpaceOnUse" x1="1355.7614" y1="1891.6577" x2="1398.7306" y2="2003.5778">
					<stop  offset="0" style="stop-color:#311944"/>
					<stop  offset="1" style="stop-color:#A03976"/>
				</linearGradient>
				<path style="fill:url(#SVGID_00000075141921252723348160000006575889063316759728_);" d="M1356.766,1854.471
					c0,0-5.544,28.411,5.03,43.405c5.267,7.468,12.371,13.803,10.282,19.882c-1.4,4.074-6.716,7.001-11.219,6.538
					c-8.621-0.885-13.4-14.102-16.772-23.425c-4.978-13.769-7.754-43.233-7.754-43.233L1356.766,1854.471z"/>
				
					<linearGradient id="SVGID_00000137816238040645272270000011809464587134200211_" gradientUnits="userSpaceOnUse" x1="-3489.8333" y1="11715.6904" x2="-3136.48" y2="11354.7871" gradientTransform="matrix(-1 0 0 1 7587.4121 0)">
					<stop  offset="0" style="stop-color:#311944"/>
					<stop  offset="1" style="stop-color:#A03976"/>
				</linearGradient>
				<path style="fill:url(#SVGID_00000137816238040645272270000011809464587134200211_);" d="M1340.477,1878.421
					c6.286-2.289,12.57-4.579,18.856-6.868c9.805-22.396,21.772-59.181,17.775-103.891
					c-10.28-114.981-116.625-175.911-128.439-182.432c-28.975,14.538-58.322,35.046-59.386,60.9
					c-1.333,32.455,42.88,49.611,84.442,97.068C1298.673,1771.683,1325.33,1814.129,1340.477,1878.421z"/>
				
					<linearGradient id="SVGID_00000013878905279854160650000008124043944960971680_" gradientUnits="userSpaceOnUse" x1="6379.6802" y1="2073.7397" x2="6475.4336" y2="1770.6964" gradientTransform="matrix(-1 0 0 1 7587.4121 0)">
					<stop  offset="0" style="stop-color:#311944"/>
					<stop  offset="1" style="stop-color:#A03976"/>
				</linearGradient>
				<path style="fill:url(#SVGID_00000013878905279854160650000008124043944960971680_);" d="M1333.702,2039.138
					c20.767-81.123,15.461-147.321,9.471-185.456c-9.055-57.639-27.472-174.883-105.75-218.602
					c-17.094-9.547-41.53-18.096-71.313-44.639c-24.872-22.165-40.68-45.477-50.219-61.9
					c-104.687-30.71-201.247-18.265-243.856,37.88c-4.923,6.488-17.249,20.559-19.633,41.309
					c-5.381,46.816,40.62,103.178,92.237,114.949c65.601,14.959,103.659-52.4,161.781-29.989
					c16.258,6.269,30.042,21.804,57.61,52.874c35.07,39.525,54.784,75.997,62.243,90.591
					c22.209,43.457,39.051,75.537,41.507,117.113c0.571,9.685,0.914,29.253,12.258,50.357c8.708,16.201,20.512,27.002,29.294,33.675
					C1317.457,2037.912,1325.579,2038.526,1333.702,2039.138z"/>
				
					<linearGradient id="SVGID_00000109741553993557054540000002978297126452413372_" gradientUnits="userSpaceOnUse" x1="6379.6885" y1="2073.7432" x2="6475.4419" y2="1770.6997" gradientTransform="matrix(-1 0 0 1 7587.4121 0)">
					<stop  offset="0" style="stop-color:#AA80F9"/>
					<stop  offset="0.9964" style="stop-color:#6165D7"/>
				</linearGradient>
				<path style="opacity:0.3;fill:url(#SVGID_00000109741553993557054540000002978297126452413372_);" d="M852.403,1607.731
					c2.384-20.75,14.71-34.821,19.633-41.309c42.609-56.145,139.168-68.59,243.856-37.88c9.538,16.423,25.347,39.735,50.218,61.9
					c29.784,26.543,54.22,35.092,71.314,44.639c47.8,26.697,73.256,80.802,87.913,132.018
					c-21.746-33.717-40.361-42.681-54.767-42.841c-20.62-0.229-29.833,17.401-54.454,14.994
					c-26.316-2.571-32.332-24.331-53.664-26.831c-6.385-0.748-14.241,0.237-23.676,5.26c-12.592-13.184-21.977-20.989-32.356-24.989
					c-58.121-22.411-96.179,44.948-161.781,29.989C893.023,1710.91,847.022,1654.547,852.403,1607.731z"/>
				
					<linearGradient id="SVGID_00000008141200087231416240000016467873657775691953_" gradientUnits="userSpaceOnUse" x1="-3404.3411" y1="11799.4131" x2="-3050.9866" y2="11438.5088" gradientTransform="matrix(-1 0 0 1 7587.4121 0)">
					<stop  offset="0" style="stop-color:#311944"/>
					<stop  offset="1" style="stop-color:#A03976"/>
				</linearGradient>
				<path style="fill:url(#SVGID_00000008141200087231416240000016467873657775691953_);" d="M1279.462,1671.364
					c-11.849-0.629-30.096-0.994-52.106,1.181c-104.456,10.323-133.252,61.991-219.582,74.599
					c-20.422,2.983-111.35,16.263-150.733-36.302c-28.273-37.739-23.996-102.765,6.93-128.341
					c13.088-10.824,26.047-10.523,109.868-9.765c31.567,0.286,63.135,0.387,94.701,0.79c133.621,1.703,159.175-7.551,183.488,14.55
					C1263.37,1598.385,1279.954,1620.53,1279.462,1671.364z"/>
				<g>
					<g>
						
							<linearGradient id="SVGID_00000151535766333735109340000009705259419913735071_" gradientUnits="userSpaceOnUse" x1="2351.3123" y1="1622.9659" x2="2021.1563" y2="1205.2683" gradientTransform="matrix(-1 0 0 1 3173.0376 0)">
							<stop  offset="0" style="stop-color:#FF9085"/>
							<stop  offset="1" style="stop-color:#FB6FBB"/>
						</linearGradient>
						<path style="fill:url(#SVGID_00000151535766333735109340000009705259419913735071_);" d="M997.373,1242.641
							c0,0-105.471-30.758-151.922,21.825c-8.529,9.654-15.271,22.349-20.177,46.854c-25.003,124.878,69.567,199.883,32.308,265.763
							c-14.796,26.161-40.855,34.044-59.374,81.06c-3.135,7.959-14.475,36.75-4.07,45.821c9.164,7.99,24.235-8.878,51.007-5.62
							c28.35,3.449,34.974,25.228,54.048,22.057c12.437-2.068,17.798-12.686,36.12-39.158
							c26.525-38.325,39.787-57.487,49.294-64.206c37.51-26.51,66.503,8.061,109.279-18.188
							c15.486-9.505,72.865-83.381,55.985-63.087l0,0c-40.18-50.126-49.517-91.481-50.477-120.235
							c-1.053-31.523,8.034-45.851,0-83.116c0,0-8.964-41.579-41.304-77.284C1053.446,1250.002,1047.912,1244.664,997.373,1242.641z
							"/>
					</g>
				</g>
				<g>
					
						<linearGradient id="SVGID_00000017516548601647899660000008981182412552774318_" gradientUnits="userSpaceOnUse" x1="958.9192" y1="1126.4916" x2="992.9988" y2="1307.261">
						<stop  offset="0" style="stop-color:#311944"/>
						<stop  offset="1" style="stop-color:#A03976"/>
					</linearGradient>
					<path style="fill:url(#SVGID_00000017516548601647899660000008981182412552774318_);" d="M963.509,1174.23
						c1.428,6.674,8.7,42.483-5.952,51.696c-3.175,1.999-9.277,3.142-21.484,5.43c-7.99,1.498-14.695,2.416-19.424,2.981
						c21.391,28.905,54.572,43.842,85.457,37.879c21.732-4.196,36.003-17.518,42.303-24.316
						c-6.304-4.887-15.594-10.934-27.868-15.396c-8.034-2.921-15.384-4.449-21.438-5.257c-1.077-6.917-2.157-13.834-3.233-20.753
						C982.415,1195.739,972.963,1184.985,963.509,1174.23z"/>
					
						<linearGradient id="SVGID_00000067207472549700890570000018125266924944290707_" gradientUnits="userSpaceOnUse" x1="2278.0227" y1="1020.4056" x2="2152.9634" y2="1225.5026" gradientTransform="matrix(-1 0 0 1 3173.0376 0)">
						<stop  offset="0" style="stop-color:#311944"/>
						<stop  offset="1" style="stop-color:#A03976"/>
					</linearGradient>
					<path style="fill:url(#SVGID_00000067207472549700890570000018125266924944290707_);" d="M962.823,1192.077
						c0,0,2.648,26.242,28.157,30.867c22.84,4.141,40.034-51.054,28.345-65.33c-3.899-4.762-13.525-9.293-21.87-9.053
						c-5.869,0.17-25.692,7.719-28.458,27.554c-3.948-4.159-8.867-5.354-11.293-3.613c-3.077,2.21-1.429,8.633-1.054,10.089
						C957.945,1187.633,961.237,1190.758,962.823,1192.077z"/>
				</g>
				
					<linearGradient id="SVGID_00000060717453385140693170000012371944413234516120_" gradientUnits="userSpaceOnUse" x1="2020.0912" y1="1560.5383" x2="2383.2017" y2="1560.5383" gradientTransform="matrix(-1 0 0 1 3173.0376 0)">
					<stop  offset="0" style="stop-color:#FFC444"/>
					<stop  offset="0.9964" style="stop-color:#F36F56"/>
				</linearGradient>
				<path style="opacity:0.3;fill:url(#SVGID_00000060717453385140693170000012371944413234516120_);" d="M1149.87,1535.762
					c-4.834-6.031-9.199-11.928-13.18-17.699c-22.16-7.425-41.332-10.188-56.797-10.939c-34.885-1.692-53.986,6.516-77.732-7.773
					c-26.953-16.22-22.183-38.735-48.193-51.303c-27.376-13.227-46.732,1.721-73.068-3.108
					c-15.905-2.916-35.278-13.552-55.048-44.579c15.139,74.701,59.17,128.201,31.728,176.722
					c-14.796,26.161-40.855,34.044-59.374,81.06c-3.135,7.959-14.475,36.75-4.07,45.821c9.165,7.99,24.235-8.878,51.007-5.62
					c28.35,3.449,34.975,25.228,54.048,22.057c12.437-2.068,17.798-12.686,36.12-39.158c26.525-38.325,39.787-57.487,49.294-64.206
					c37.51-26.51,66.503,8.061,109.279-18.188C1109.372,1589.344,1166.751,1515.468,1149.87,1535.762z"/>
			</g>
			<g>
				
					<linearGradient id="SVGID_00000055692029894569041330000006720021289693653645_" gradientUnits="userSpaceOnUse" x1="7909.3647" y1="1567.9653" x2="8170.2095" y2="1567.9653" gradientTransform="matrix(-1 0 0 1 9097.4053 0)">
					<stop  offset="0" style="stop-color:#40447E"/>
					<stop  offset="0.9964" style="stop-color:#3C3B6B"/>
				</linearGradient>
				<path style="fill:url(#SVGID_00000055692029894569041330000006720021289693653645_);" d="M1181.651,1548.579l-238.648,11.613
					c-3.284,0.16-6.281,1.92-8.019,4.711l-6.603,10.599c-3.286,5.276,0.662,12.08,6.875,11.844l252.784-9.63L1181.651,1548.579z"/>
				
					<linearGradient id="SVGID_00000023971680856882139540000009374951976496554369_" gradientUnits="userSpaceOnUse" x1="7742.5552" y1="1403.4233" x2="7913.5718" y2="1573.0719" gradientTransform="matrix(-1 0 0 1 9097.4053 0)">
					<stop  offset="0" style="stop-color:#40447E"/>
					<stop  offset="0.9964" style="stop-color:#3C3B6B"/>
				</linearGradient>
				<path style="fill:url(#SVGID_00000023971680856882139540000009374951976496554369_);" d="M1429.865,1415.684l-246.549,4.778
					c-7.295,0.141-13.975,4.115-17.58,10.458l-85.377,150.213l260.386-10.373c7.147-0.285,13.668-4.155,17.342-10.292
					l79.101-132.151C1440.556,1422.691,1436.42,1415.556,1429.865,1415.684z"/>
				
					<linearGradient id="SVGID_00000099661671999392039450000000502876521075440546_" gradientUnits="userSpaceOnUse" x1="7742.5552" y1="1403.4233" x2="7913.5723" y2="1573.0721" gradientTransform="matrix(-1 0 0 1 9097.4053 0)">
					<stop  offset="0" style="stop-color:#40447E"/>
					<stop  offset="0.9964" style="stop-color:#3C3B6B"/>
				</linearGradient>
				<path style="opacity:0.3;fill:url(#SVGID_00000099661671999392039450000000502876521075440546_);" d="M1165.735,1430.92
					c3.605-6.343,10.285-10.318,17.581-10.459l5.403-0.104c0.805,7.958,3.247,15.239,8.118,21.116
					c15.202,18.35,40.46,7.032,59.286,26.451c20.68,21.333,1.576,46.728,20.065,66.582c19.462,20.897,50.932,3.883,87.108,17.256
					l-5.209,8.703c-3.673,6.138-10.195,10.008-17.342,10.293l-260.386,10.373L1165.735,1430.92z"/>
			</g>
			<g>
				
					<linearGradient id="SVGID_00000103973467215368356880000007205580600605479591_" gradientUnits="userSpaceOnUse" x1="2413.5845" y1="1574.3577" x2="2071.8503" y2="1142.012" gradientTransform="matrix(-1 0 0 1 3173.0376 0)">
					<stop  offset="0" style="stop-color:#FF9085"/>
					<stop  offset="1" style="stop-color:#FB6FBB"/>
				</linearGradient>
				<path style="fill:url(#SVGID_00000103973467215368356880000007205580600605479591_);" d="M962.451,1540.604
					c3.106-8.203,6.213-16.404,9.319-24.608c-34.33-9.413-81.81-23.319-130.51-40.721c-7.627-2.726-16.689-6.102-19.657-14.128
					c-8.327-22.514,44.612-45.843,65.192-95.002c19.034-45.465,20.151-113.54-1.939-120.994
					c-45.966-15.51-220.56,192.368-162.343,277.898C755.422,1571.4,856.878,1579.099,962.451,1540.604z"/>
			</g>
			
				<linearGradient id="SVGID_00000149366529221499825240000016265194531479965059_" gradientUnits="userSpaceOnUse" x1="-6332.4395" y1="1516.5297" x2="-6419.1489" y2="1598.2424" gradientTransform="matrix(1 0 0 1 7357.1265 0)">
				<stop  offset="0" style="stop-color:#311944"/>
				<stop  offset="1" style="stop-color:#A03976"/>
			</linearGradient>
			<path style="fill:url(#SVGID_00000149366529221499825240000016265194531479965059_);" d="M971.77,1515.996
				c21.552-11.449,47.35,0.287,49.013,1.072c4.736,2.235,11.628,6.217,18.591,13.331c0.787,1.074,10.136,14.028,6.731,18.179
				c-2.73,3.325-13.302,0.569-26.009-7.334c-5.326-0.747-13.255-1.433-22.754-0.558c-17.444,1.609-25.434,7.12-31.767,2.363
				c-4.637-3.482-6.217-10.845-4.548-16.318C962.819,1520.851,968.122,1517.935,971.77,1515.996z"/>
		</g>
		<g>
			<g>
				
					<linearGradient id="SVGID_00000168804884936402793060000006136322078822189461_" gradientUnits="userSpaceOnUse" x1="-3196.2891" y1="2148.2788" x2="-3405.3708" y2="3766.9673" gradientTransform="matrix(0.996 -0.0892 0.0892 0.996 5593.2568 18.7124)">
					<stop  offset="0" style="stop-color:#FFC444"/>
					<stop  offset="0.9964" style="stop-color:#F36F56"/>
				</linearGradient>
				<path style="fill:url(#SVGID_00000168804884936402793060000006136322078822189461_);" d="M2542.125,3131.412
					c-26.683,0.271-61.239-4.056-95.678-22.412c-37.261-19.86-87.344-63.049-78.046-93.921c3.471-11.526,15.481-22.205,26.869-22.31
					c16.824-0.155,20.847,22.874,52.114,45.514c5.778,4.184,35.654,25.816,48.705,16.457c6.488-4.653,7.511-16.029,5.632-24.439
					c-5.495-24.592-36.22-25.692-67.841-50.015c-32.059-24.66-61.011-70.093-49.785-103.568c6.451-19.237,26.59-35.776,41.057-32.93
					c6.183,1.216,10.443,5.799,32.277,43.683c17.92,31.094,22.107,40.25,32.063,42.459c10.248,2.274,25.384-3.086,30.393-13.431
					c13.045-26.941-56.614-58.754-69.041-129.768c-5.569-31.823-1.15-80.124,26.975-92.911c19.013-8.644,47.921-0.632,59.643,16.471
					c10.568,15.418,0.59,28.624,10.809,64.471c3.101,10.878,9.482,33.263,18.752,33.637c10.883,0.439,20.317-29.677,22.465-36.998
					c16.173-55.116-10.291-80.344,7.14-107.958c13.593-21.532,46.372-32.628,73.824-24.825
					c24.023,6.828,44.677,28.328,48.069,52.223c3.45,24.312-14.915,50.467-51.646,102.776
					c-17.419,24.806-31.525,41.775-28.591,64.618c1.43,11.135,7.269,26.456,15.401,27.175c17.948,1.586,20.272-70.322,61.153-85.057
					c20.925-7.542,48.543,1.124,61.974,19.392c16.456,22.383,9.855,56.787-6.576,76.038c-21.439,25.118-47.105,9.787-89.11,38.467
					c-18.634,12.723-47.373,38.811-41.131,57.698c2.717,8.223,12.257,15.66,22.017,15.891c21.877,0.519,25.851-35.614,59.271-54.333
					c24.078-13.487,58.873-15.378,68.379-1.969c13.42,18.93-23.831,67.971-44.001,89.973
					C2721.279,3068.109,2662.772,3119.646,2542.125,3131.412z"/>
				<g style="opacity:0.5;">
					<path style="fill:#FFFFFF;" d="M2551.684,3119.167c-8.85-59.262,19.697-184.03,43.238-243.888
						c22.938-58.327,41.769-149.105,41.956-150.015l4.403,0.907c-0.188,0.914-19.095,92.063-42.176,150.752
						c-23.361,59.402-51.716,183.043-42.974,241.579L2551.684,3119.167z"/>
				</g>
			</g>
			
				<linearGradient id="SVGID_00000132803708628627552910000014532642052463637637_" gradientUnits="userSpaceOnUse" x1="2753.585" y1="3156.322" x2="2343.8186" y2="2671.7805">
				<stop  offset="0.0036" style="stop-color:#E38DDD"/>
				<stop  offset="1" style="stop-color:#9571F6"/>
			</linearGradient>
			<path style="fill:url(#SVGID_00000132803708628627552910000014532642052463637637_);" d="M2527.309,3117.886
				c-10.977-32.466-24.324-89.06-9.641-154.776c6.05-27.079,17.867-79.967,63.15-114.805c22.57-17.364,66.054-39.939,85.706-23.533
				c12.645,10.557,14.533,36.51,5.018,52.88c-9.594,16.506-25.124,13.536-50.755,38.674c-9.485,9.302-20.428,20.28-17.389,29.315
				c2.537,7.546,14.383,12.417,24.663,11.519c21.235-1.856,22.559-27.177,48.153-37.765c18.199-7.529,44.127-5.729,51.55,7.3
				c6.446,11.313-1.255,30.746-13.346,41.562c-19.362,17.319-40.447,4.013-62.585,22.649c-9.822,8.268-19.338,22.39-15.408,30.337
				c4.478,9.056,25.868,8.988,40.766,5.076c19.669-5.164,23.628-15.874,34.928-13.896c12.604,2.206,24.226,18.427,22.669,31.942
				c-2.18,18.93-30.087,31.493-50.065,34.538c-25.575,3.898-40.188-7.493-55.576,3.841c-5.648,4.16-12.008,11.828-10.373,18.17
				c2.332,9.047,19.987,11.722,31.709,13.499c28.529,4.323,39.08-3.262,47.378,4.549c8.402,7.908,8.455,25.915,0.631,36.131
				c-4.348,5.677-14.544,13.408-51.863,8.741C2620.508,3160.566,2577.928,3150.831,2527.309,3117.886z"/>
		</g>
	</g>
</g>
</svg>
