<?xml version="1.0" encoding="utf-8"?>
<!-- Generator: Adobe Illustrator 27.5.0, SVG Export Plug-In . SVG Version: 6.00 Build 0)  -->
<svg version="1.1" id="Illustration" xmlns="http://www.w3.org/2000/svg" xmlns:xlink="http://www.w3.org/1999/xlink" x="0px"
	 y="0px" viewBox="0 0 2500 2500" style="enable-background:new 0 0 2500 2500;" xml:space="preserve">
<g id="Corporate_tax_1_">
	<circle style="fill:#F2E6DC;" cx="1250" cy="1250" r="915"/>
	<g>
		<g>
			<g>
				<path style="fill:#D3BBA3;" d="M2114.164,2007.479h-1076.59c-0.553,0-1-0.448-1-1v-812.483c0-0.552,0.447-1,1-1h1076.59
					c0.553,0,1,0.448,1,1v812.483C2115.164,2007.031,2114.717,2007.479,2114.164,2007.479z M1038.574,2005.479h1074.59v-810.483
					h-1074.59V2005.479z"/>
				
					<rect x="1235.835" y="1063.142" transform="matrix(-1.836970e-16 1 -1 -1.836970e-16 3143.5293 -8.2092)" style="fill:#E6D0BE;" width="680.068" height="1009.036"/>
				
					<rect x="1235.835" y="1063.142" transform="matrix(-1.836970e-16 1 -1 -1.836970e-16 3143.5293 -8.2092)" style="fill:#E6D0BE;" width="680.068" height="1009.036"/>
				
					<rect x="1356.589" y="1069.564" transform="matrix(-1.836970e-16 1 -1 -1.836970e-16 3107.5049 -48.6376)" style="fill:#F2E6DC;" width="442.965" height="919.739"/>
				<path style="fill:#FFFFFF;" d="M1596.135,1953.094c0,11.144-9.073,20.177-20.265,20.177c-11.192,0-20.265-9.034-20.265-20.177
					c0-11.144,9.073-20.178,20.265-20.178C1587.061,1932.916,1596.135,1941.95,1596.135,1953.094z"/>
			</g>
			<path style="fill:#D3BBA3;" d="M2029.597,2114.96H1028.665c-47.182,0-85.567-38.667-85.567-86.195c0-0.552,0.447-1,1-1h1170.066
				c0.553,0,1,0.448,1,1C2115.164,2076.293,2076.778,2114.96,2029.597,2114.96z M945.104,2029.765
				c0.534,45.965,37.815,83.195,83.562,83.195h1000.932c45.747,0,83.027-37.229,83.562-83.195H945.104z"/>
			<path style="fill:#D3BBA3;" d="M1830.787,2106.132c-0.553,0-1-0.448-1-1s0.447-1,1-1c36.415,0,66.041-29.849,66.041-66.539
				c0-0.552,0.447-1,1-1s1,0.448,1,1C1898.828,2075.385,1868.305,2106.132,1830.787,2106.132z"/>
			<path style="fill:#F2E6DC;" d="M1436.162,2048.902c0,19.993-16.089,36.201-35.935,36.201h-126.508
				c-19.847,0-35.935-16.208-35.935-36.201H1436.162z"/>
		</g>
		<g>
			<g>
				
					<rect x="1111.147" y="410.867" transform="matrix(-1 -1.224647e-16 1.224647e-16 -1 3121.1443 2065.6931)" style="fill:#FFFFFF;" width="898.85" height="1243.958"/>
				<path style="fill:#D3BBA3;" d="M1983.559,1682.264h-898.851c-0.553,0-1-0.448-1-1V517.853c0-0.552,0.447-1,1-1s1,0.448,1,1
					v1162.411h896.851V438.302l-287.846-1.05c-0.552-0.002-0.998-0.452-0.996-1.004c0.002-0.551,0.449-0.996,1-0.996
					c0.001,0,0.003,0,0.004,0l288.842,1.054c0.551,0.002,0.996,0.449,0.996,1v1243.958
					C1984.559,1681.816,1984.11,1682.264,1983.559,1682.264z"/>
			</g>
			<g>
				<g>
					<g>
						<rect x="1464.3" y="1303.732" style="fill:#F2E6DC;" width="306.497" height="23.674"/>
						<rect x="1511.864" y="1362.874" style="fill:#F2E6DC;" width="376.803" height="23.673"/>
						<rect x="1464.3" y="1422.016" style="fill:#F2E6DC;" width="362.542" height="23.673"/>
					</g>
					<g>
						<rect x="1545.411" y="1043.305" style="fill:#F2E6DC;" width="379.158" height="23.673"/>
						<rect x="1454.044" y="1102.446" style="fill:#F2E6DC;" width="362.542" height="23.673"/>
						<rect x="1454.044" y="1161.588" style="fill:#F2E6DC;" width="425.711" height="23.673"/>
					</g>
					<g>
						<rect x="1546.756" y="798.648" style="fill:#F2E6DC;" width="333" height="23.674"/>
						<rect x="1455.389" y="857.79" style="fill:#F2E6DC;" width="361.197" height="23.674"/>
						<rect x="1455.389" y="916.932" style="fill:#F2E6DC;" width="469.18" height="23.673"/>
					</g>
				</g>
				<g>
					<g>
						<path style="fill:#9E6C5A;" d="M1385.931,1500.025h-191.401c-0.553,0-1-0.448-1-1v-191.304c0-0.552,0.447-1,1-1h191.401
							c0.553,0,1,0.448,1,1v191.304C1386.931,1499.578,1386.483,1500.025,1385.931,1500.025z M1195.529,1498.025h189.401v-189.304
							h-189.401V1498.025z"/>
						<polygon style="fill:#D87355;" points="1279.964,1470.105 1220.039,1415.626 1238.552,1392.809 1276.547,1423.17 
							1336.166,1336.642 1360.421,1353.337 						"/>
					</g>
					<g>
						<path style="fill:#9E6C5A;" d="M1385.931,1224.164h-191.401c-0.553,0-1-0.448-1-1V1031.86c0-0.552,0.447-1,1-1h191.401
							c0.553,0,1,0.448,1,1v191.305C1386.931,1223.717,1386.483,1224.164,1385.931,1224.164z M1195.529,1222.164h189.401V1032.86
							h-189.401V1222.164z"/>
						<polygon style="fill:#D87355;" points="1279.964,1194.244 1220.039,1139.765 1238.552,1116.948 1276.547,1147.308 
							1336.166,1060.78 1360.421,1077.475 						"/>
					</g>
					<g>
						<path style="fill:#9E6C5A;" d="M1385.931,979.508h-191.401c-0.553,0-1-0.448-1-1V787.203c0-0.552,0.447-1,1-1h191.401
							c0.553,0,1,0.448,1,1v191.305C1386.931,979.06,1386.483,979.508,1385.931,979.508z M1195.529,977.508h189.401V788.203
							h-189.401V977.508z"/>
						<polygon style="fill:#D87355;" points="1279.964,949.587 1220.039,895.109 1238.552,872.291 1276.547,902.652 
							1336.166,816.124 1360.421,832.819 						"/>
					</g>
				</g>
				<g>
					<path style="fill:#40484C;" d="M1690.767,555.08h-39.351v108.465h-21.756V555.08h-39.005v-17.673h100.111V555.08z"/>
					<path style="fill:#40484C;" d="M1767.563,634.177h-48.886l-10.228,29.369h-22.796l47.672-126.138h19.676l47.759,126.138
						h-22.883L1767.563,634.177z M1724.831,616.503h36.577l-18.288-52.327L1724.831,616.503z"/>
					<path style="fill:#40484C;" d="M1858.486,582.976l26.523-45.569h25.31l-38.138,62.549l39.005,63.589h-25.57l-27.13-46.262
						l-27.216,46.262h-25.483l39.091-63.589l-38.224-62.549h25.31L1858.486,582.976z"/>
				</g>
				<g>
					<rect x="1201.642" y="537.397" style="fill:#F2E6DC;" width="231.875" height="21.569"/>
					<rect x="1201.642" y="587.266" style="fill:#F2E6DC;" width="294.859" height="21.569"/>
					<rect x="1201.642" y="637.136" style="fill:#F2E6DC;" width="294.859" height="21.569"/>
				</g>
				<path style="fill:#9E6C5A;" d="M1911.302,706.815h-716.144c-0.553,0-1-0.448-1-1c0-0.552,0.447-1,1-1h716.144
					c0.553,0,1,0.448,1,1C1912.302,706.367,1911.854,706.815,1911.302,706.815z"/>
			</g>
		</g>
	</g>
	<g>
		
			<rect x="738.837" y="512.894" transform="matrix(0.9291 -0.3699 0.3699 0.9291 -179.389 388.0685)" style="fill:#84524D;" width="366.549" height="297.717"/>
		
			<rect x="1066.445" y="685.919" transform="matrix(0.9291 -0.3699 0.3699 0.9291 -185.0228 453.4017)" style="fill:#FFFFFF;" width="46.375" height="46.375"/>
		<polygon style="fill:#84524D;" points="1037.466,456.033 696.922,591.632 647.282,514.192 987.827,378.593 		"/>
		<polygon style="fill:#FFD092;" points="996.698,450.026 710.631,563.933 683.128,521.028 969.195,407.12 		"/>
		
			<rect x="1040.116" y="619.795" transform="matrix(0.9291 -0.3699 0.3699 0.9291 -162.4285 438.967)" style="fill:#FFFFFF;" width="46.375" height="46.375"/>
		
			<rect x="1013.787" y="553.672" transform="matrix(0.9291 -0.3699 0.3699 0.9291 -139.8353 424.5393)" style="fill:#FFD092;" width="46.375" height="46.375"/>
		
			<rect x="987.457" y="487.548" transform="matrix(0.9291 -0.3699 0.3699 0.9291 -117.2415 410.1081)" style="fill:#FFD092;" width="46.375" height="46.375"/>
		
			<rect x="1002.061" y="711.556" transform="matrix(0.9291 -0.3699 0.3699 0.9291 -199.0738 431.4)" style="fill:#FFFFFF;" width="46.375" height="46.375"/>
		
			<rect x="975.732" y="645.432" transform="matrix(0.9291 -0.3699 0.3699 0.9291 -176.4804 416.9703)" style="fill:#FFFFFF;" width="46.375" height="46.375"/>
		
			<rect x="949.403" y="579.308" transform="matrix(0.9291 -0.3699 0.3699 0.9291 -153.8864 402.5378)" style="fill:#FFFFFF;" width="46.375" height="46.375"/>
		
			<rect x="923.074" y="513.184" transform="matrix(0.9291 -0.3699 0.3699 0.9291 -131.293 388.1089)" style="fill:#FFFFFF;" width="46.375" height="46.375"/>
		
			<rect x="937.677" y="737.193" transform="matrix(0.9291 -0.3699 0.3699 0.9291 -213.1259 409.4032)" style="fill:#FFFFFF;" width="46.375" height="46.375"/>
		
			<rect x="911.348" y="671.069" transform="matrix(0.9291 -0.3699 0.3699 0.9291 -190.5315 394.9698)" style="fill:#FFFFFF;" width="46.375" height="46.375"/>
		
			<rect x="885.019" y="604.945" transform="matrix(0.9291 -0.3699 0.3699 0.9291 -167.9385 380.5413)" style="fill:#FFFFFF;" width="46.375" height="46.375"/>
		
			<rect x="858.69" y="538.821" transform="matrix(0.9291 -0.3699 0.3699 0.9291 -145.3439 366.1062)" style="fill:#FFFFFF;" width="46.375" height="46.375"/>
		
			<rect x="873.294" y="762.829" transform="matrix(0.9291 -0.3699 0.3699 0.9291 -227.1771 387.4031)" style="fill:#FFFFFF;" width="46.375" height="46.375"/>
		
			<rect x="846.964" y="696.705" transform="matrix(0.9291 -0.3699 0.3699 0.9291 -204.5837 372.9728)" style="fill:#FFFFFF;" width="46.375" height="46.375"/>
		
			<rect x="820.635" y="630.582" transform="matrix(0.9291 -0.3699 0.3699 0.9291 -181.9893 358.5395)" style="fill:#FFFFFF;" width="46.375" height="46.375"/>
		
			<rect x="794.306" y="564.458" transform="matrix(0.9291 -0.3699 0.3699 0.9291 -159.3959 344.1096)" style="fill:#FFFFFF;" width="46.375" height="46.375"/>
		
			<rect x="796.317" y="722.801" transform="matrix(0.9291 -0.3699 0.3699 0.9291 -230.4221 358.5002)" style="fill:#FFD092;" width="46.375" height="114.454"/>
		
			<rect x="756.251" y="656.218" transform="matrix(0.9291 -0.3699 0.3699 0.9291 -196.0407 336.5404)" style="fill:#FFD092;" width="46.375" height="46.375"/>
		
			<rect x="729.922" y="590.094" transform="matrix(0.9291 -0.3699 0.3699 0.9291 -173.4471 322.1093)" style="fill:#FFFFFF;" width="46.375" height="46.375"/>
	</g>
	<g>
		<g>
			<polygon style="fill:#E2A18D;" points="492.974,2101.585 402.687,2100.229 429.588,1983.815 521.597,1999.15 			"/>
			<path style="fill:#FFD092;" d="M619.121,2161.521l-233.805,0l21.529-89.379h91.596l66.236,20.205
				C597.138,2101.139,619.42,2129.45,619.121,2161.521z"/>
			<g>
				<path style="fill:#84524D;" d="M533.537,2072.471c-0.066,0-0.132,0-0.198-0.001l-35.577-0.534
					c-0.424-0.006-0.798-0.279-0.933-0.681c-0.136-0.401-0.003-0.845,0.33-1.106l28.001-21.955c3.259-2.555,7.401-3.34,11.37-2.154
					c3.968,1.186,7.001,4.116,8.323,8.041l0.602,1.786c1.322,3.924,0.681,8.093-1.76,11.438
					C541.293,2070.595,537.6,2072.471,533.537,2072.471z M500.618,2069.979l32.75,0.491c3.473,0.046,6.658-1.531,8.711-4.345
					c2.054-2.813,2.593-6.32,1.481-9.621l-0.602-1.786c-1.112-3.301-3.664-5.766-7.002-6.763c-3.338-0.998-6.822-0.336-9.563,1.813
					L500.618,2069.979z"/>
				<path style="fill:#84524D;" d="M462.539,2096.42c-1.215,0-2.443-0.178-3.656-0.541c-3.968-1.186-7.001-4.117-8.323-8.041
					l-0.602-1.785c-1.322-3.924-0.681-8.093,1.76-11.438c2.442-3.345,6.224-5.237,10.355-5.166l35.578,0.534
					c0.424,0.006,0.798,0.279,0.933,0.681c0.136,0.401,0.003,0.845-0.33,1.106l-28.001,21.955
					C467.99,2095.499,465.3,2096.42,462.539,2096.42z M461.877,2071.448c-3.417,0-6.524,1.578-8.543,4.346
					c-2.054,2.813-2.593,6.32-1.482,9.621l0.602,1.785c1.112,3.301,3.664,5.766,7.002,6.764c3.335,0.997,6.821,0.337,9.563-1.813
					l25.776-20.21l-32.751-0.491C461.988,2071.448,461.932,2071.448,461.877,2071.448z"/>
			</g>
			<polygon style="fill:#E2A18D;" points="914.4,2119.004 824.113,2117.647 826.901,1983.815 918.911,1999.15 			"/>
			<path style="fill:#FFD092;" d="M1038.739,2161.521l-233.805,0l20.134-89.379h92.99l66.236,20.205
				C1016.756,2101.139,1039.039,2129.45,1038.739,2161.521z"/>
			<g>
				<path style="fill:#84524D;" d="M953.156,2072.471c-0.067,0-0.132,0-0.198-0.001l-35.578-0.534
					c-0.424-0.006-0.798-0.279-0.933-0.681c-0.136-0.401-0.003-0.845,0.33-1.106l28.001-21.955c3.258-2.554,7.403-3.341,11.37-2.154
					c3.968,1.186,7.001,4.116,8.323,8.041l0.602,1.786c1.322,3.924,0.681,8.093-1.76,11.438
					C960.911,2070.595,957.219,2072.471,953.156,2072.471z M920.236,2069.979l32.751,0.491c0.056,0.001,0.112,0.001,0.167,0.001
					c3.417,0,6.523-1.578,8.543-4.346c2.054-2.813,2.593-6.32,1.481-9.621l-0.602-1.786c-1.112-3.301-3.664-5.766-7.001-6.763
					c-3.338-0.998-6.823-0.337-9.563,1.813L920.236,2069.979z"/>
				<path style="fill:#84524D;" d="M882.157,2096.42c-1.215,0-2.443-0.178-3.656-0.541c-3.968-1.186-7.001-4.117-8.323-8.041
					l-0.602-1.785c-1.322-3.924-0.681-8.093,1.76-11.438c2.441-3.346,6.235-5.237,10.357-5.166l35.577,0.534
					c0.424,0.006,0.798,0.279,0.933,0.681c0.136,0.401,0.003,0.845-0.33,1.106l-28.001,21.955
					C887.608,2095.499,884.918,2096.42,882.157,2096.42z M881.495,2071.448c-3.417,0-6.523,1.578-8.543,4.346
					c-2.054,2.813-2.593,6.32-1.481,9.621l0.602,1.785c1.112,3.301,3.664,5.766,7.002,6.764c3.336,0.997,6.821,0.337,9.563-1.813
					l25.776-20.21l-32.75-0.491C881.607,2071.448,881.551,2071.448,881.495,2071.448z"/>
			</g>
			<path style="fill:#363E44;" d="M612.213,1218.465c0,0-55.763,124.073-93.403,274.634
				c-37.64,150.561-104.556,528.357-104.556,528.357h103.162c0,0,203.536-232.812,221.659-552.056l62.734-252.329L612.213,1218.465z
				"/>
			<path style="fill:#363E44;" d="M695.857,1516.798c0,0,105.95,153.349,114.315,496.293h118.497c0,0,86.433-192.383,37.64-394.525
				c-48.793-202.142-128.255-419.618-128.255-419.618H711.192L695.857,1516.798z"/>
			<path style="fill:#F2E6DC;" d="M729.826,1555.182c-0.067,0-0.136-0.007-0.204-0.021c-0.54-0.112-0.888-0.641-0.776-1.182
				l21.215-102.473c0.053-0.255,0.203-0.479,0.419-0.625l30.867-20.892c0.458-0.31,1.079-0.189,1.389,0.268
				c0.31,0.458,0.189,1.079-0.268,1.389l-30.531,20.665l-21.132,102.075C730.707,1554.857,730.29,1555.182,729.826,1555.182z"/>
		</g>
		<g>
			<g>
				<path style="fill:#E2A18D;" d="M771.164,1065.152c53.711,11.191,206.745,52.977,223.58-11.464
					c13.925-53.303-136.905-87.422-189.521-101.993C793.87,989.513,782.517,1027.332,771.164,1065.152z"/>
				<g>
					<path style="fill:#E2A18D;" d="M899.885,1007.116c0,0,120.66-72.347,162.117-93.7c43.538-22.425,111.085-49.195,114.708-39.697
						c2.064,5.41-6.394,10.965-29.986,24.311c1.868,0.518,7.136,3.486,8.228,8.818c1.615,7.89-4.402,10.945-4.802,11.464
						c0.647,0.124,7.947,1.935,9.922,7.034c2.225,5.742-0.025,10.461-3.475,13.846c1.597,0.359,8.117,2.998,9.767,7.99
						c2.146,6.489-2.839,12.18-7.893,14.69c-9.271,4.603-34.919,16.55-47.676,24.601c-25.103,15.842-106.698,84.065-149.031,97.371
						C963.024,1045.455,899.885,1007.116,899.885,1007.116z"/>
					<path style="fill:#363E44;" d="M1087.594,961.126c-0.247,0-0.494-0.091-0.688-0.274c-0.401-0.38-0.418-1.013-0.038-1.414
						c7.247-7.65,9.687-15.868,11.647-22.471c2.022-6.813,3.62-12.195,9.732-12.665c3.972-0.305,8.633-2.677,13.479-6.859
						c1.327-1.145,1.369-2.711,0.967-3.795c-0.409-1.1-1.48-2.275-3.263-2.275h-31.837c-0.553,0-1-0.448-1-1s0.447-1,1-1h31.837
						c2.313,0,4.329,1.405,5.137,3.578c0.801,2.153,0.198,4.511-1.534,6.006c-5.245,4.526-10.168,6.996-14.631,7.339
						c-4.53,0.348-5.849,4.094-7.97,11.24c-2.021,6.808-4.536,15.28-12.113,23.278
						C1088.123,961.021,1087.858,961.126,1087.594,961.126z"/>
					<path style="fill:#363E44;" d="M1139.836,965.272c-0.367,0-0.72-0.203-0.896-0.553c-3.604-7.209-1.542-15.921,4.617-20.812
						l-3.649,1.216c-5.122,1.707-10.729-0.487-13.33-5.218c-1.466-2.664-1.785-5.733-0.9-8.642c0.885-2.908,2.858-5.279,5.56-6.676
						l4.448-2.301c-3.462-0.146-6.713-2.261-8.104-5.641c-1.771-4.303-0.033-9.239,4.044-11.482l10.216-5.618
						c0.481-0.266,1.092-0.09,1.357,0.394c0.267,0.484,0.09,1.092-0.395,1.358l-10.215,5.618c-3.184,1.752-4.542,5.607-3.158,8.968
						c1.469,3.566,5.587,5.331,9.184,3.933l7.492-2.914c0.496-0.192,1.055,0.036,1.273,0.52s0.021,1.056-0.452,1.3l-14.772,7.641
						c-2.217,1.147-3.838,3.094-4.564,5.481c-0.727,2.388-0.464,4.908,0.739,7.095c2.137,3.885,6.74,5.687,10.945,4.285
						l11.853-3.951c0.483-0.161,1.014,0.068,1.227,0.534c0.212,0.465,0.039,1.016-0.401,1.276l-5.473,3.234
						c-6.711,3.965-9.237,12.533-5.751,19.505c0.247,0.494,0.047,1.095-0.447,1.342
						C1140.139,965.238,1139.986,965.272,1139.836,965.272z"/>
				</g>
			</g>
			<path style="fill:#E2A18D;" d="M456.65,1091.297c-31.121,45.184-128.92,170.087-76.029,210.568
				c43.749,33.484,133.626-92.358,167.438-135.222C517.589,1141.527,487.12,1116.412,456.65,1091.297z"/>
			<g>
				<path style="fill:#FFFFFF;" d="M425.996,1103.692c0,0,123.101-125.831,220.54-150.512
					c76.388-19.349,140.764-20.141,238.106,12.818l-23.516,131.457l-21.664-8.012c20.897,48.165,33.444,84.411,45.991,126.234
					l-365.249,25.094l6.594-39.516l-19.512,17.798L425.996,1103.692z"/>
			</g>
			<g>
				<circle style="fill:#EFBC73;" cx="576.997" cy="1339.396" r="147.283"/>
				
					<ellipse transform="matrix(0.7071 -0.7071 0.7071 0.7071 -778.0975 800.2988)" style="fill:#E0AA63;" cx="576.997" cy="1339.396" rx="104.145" ry="104.145"/>
				<path style="fill:#FFFFFF;" d="M604.088,1514.77c-81.763,0-148.282-66.52-148.282-148.283s66.52-148.283,148.282-148.283
					c81.764,0,148.283,66.52,148.283,148.283S685.852,1514.77,604.088,1514.77z M604.088,1220.204
					c-80.66,0-146.282,65.622-146.282,146.283s65.622,146.283,146.282,146.283c80.661,0,146.283-65.622,146.283-146.283
					S684.749,1220.204,604.088,1220.204z"/>
			</g>
			<g>
				<path style="fill:#E2A18D;" d="M488.657,1243.174c44.25,35.359,152.58,113.469,162.851,121.514
					c19.2,15.041,61.008,45.955,53.623,60.974c-2.456,4.995-8.237,8.146-14.882,8.533c2.034,6.844-0.133,14.165-5.433,18.483
					c-6.965,5.675-15.554,3.078-16.181,2.877c2.258,5.048,1.878,10.782-1.182,14.781c-4.222,5.518-13.032,7.06-20.157,2.602
					c-0.142,1.561-0.841,7.104-5.405,11.133c-5.057,4.465-12.818,5.268-19.636,1.999c-17.069-13.35-47.078-29.808-81.771-51.683
					c-81.48-51.375-115.657-77.703-150.523-109.648c-13.524-12.39-33.123-41.558-20.627-80.395
					C409.427,1243.867,448.562,1243.651,488.657,1243.174z"/>
				<path style="fill:#363E44;" d="M505.442,1257.449c-0.215,0-0.431-0.069-0.613-0.211c-11.28-8.788-18.338-14.309-22.211-17.377
					c-0.433-0.343-0.506-0.972-0.163-1.405c0.343-0.432,0.972-0.506,1.405-0.163c3.868,3.064,10.922,8.583,22.197,17.367
					c0.436,0.339,0.514,0.968,0.175,1.404C506.035,1257.317,505.74,1257.449,505.442,1257.449z"/>
				<g>
					<path style="fill:#363E44;" d="M673.295,1411.498c-0.238,0-0.476-0.084-0.667-0.255c-0.411-0.368-0.446-1-0.078-1.412
						l7.158-7.997c0.369-0.412,1.003-0.445,1.412-0.078c0.411,0.369,0.446,1.001,0.078,1.412l-7.158,7.997
						C673.843,1411.386,673.569,1411.498,673.295,1411.498z"/>
					<path style="fill:#363E44;" d="M655.16,1431.816c-0.238,0-0.477-0.084-0.667-0.255c-0.411-0.369-0.446-1.001-0.078-1.412
						l7.158-7.997c0.369-0.412,1.001-0.445,1.412-0.078c0.411,0.368,0.446,1,0.078,1.412l-7.158,7.997
						C655.708,1431.704,655.435,1431.816,655.16,1431.816z"/>
					<path style="fill:#363E44;" d="M636.923,1452.708c-0.238,0-0.476-0.084-0.667-0.255c-0.411-0.368-0.446-1-0.078-1.412
						l7.158-7.997c0.369-0.412,1.003-0.446,1.412-0.078c0.411,0.369,0.446,1.001,0.078,1.412l-7.158,7.997
						C637.471,1452.596,637.197,1452.708,636.923,1452.708z"/>
					<path style="fill:#363E44;" d="M619.993,1471.315c-0.238,0-0.476-0.084-0.667-0.255c-0.411-0.368-0.446-1-0.078-1.412
						l7.158-7.997c0.369-0.412,1.003-0.445,1.412-0.078c0.411,0.369,0.446,1,0.078,1.412l-7.158,7.997
						C620.541,1471.203,620.268,1471.315,619.993,1471.315z"/>
				</g>
			</g>
		</g>
		<g>
			<path style="fill:#E2A18D;" d="M703.368,959.026c3.779,12.675-16.951,30.044-46.302,38.794
				c-29.351,8.75-56.207,5.568-59.986-7.108c-3.779-12.675,16.952-30.044,46.302-38.794
				C672.733,943.168,699.589,946.351,703.368,959.026z"/>
			<g>
				<path style="fill:#E2A18D;" d="M691.848,913.35c-12.29,15.721-65.295-1.211-65.295-1.211l-40.912-45.197
					c-8.02-26.902,7.287-55.212,34.189-63.232c26.903-8.02,55.212,7.287,63.232,34.189
					C683.062,837.899,704.366,897.338,691.848,913.35z"/>
				
					<rect x="602.55" y="854.918" transform="matrix(0.9583 -0.2857 0.2857 0.9583 -236.2024 219.2515)" style="fill:#E2A18D;" width="61.593" height="128.503"/>
				<path style="fill:#E2A18D;" d="M681.283,852.376c0,0,17.93,10.242,18.33,14.237c0.477,4.77-13.922,12.059-13.922,12.059
					S681.656,852.303,681.283,852.376z"/>
				<g>
					<path style="fill:#FFFFFF;" d="M636.702,863.397c0,0,6.847-6.817,16.678-9.747c2.091-0.624,3.135,17.29,0.867,16.934
						C644.276,869.019,636.702,863.397,636.702,863.397z"/>
					<g>
						<defs>
							<path id="SVGID_1_" d="M636.702,863.397c0,0,10.071-10.027,23.321-10.987c13.25-0.96,24.661,7.51,24.661,7.51
								s-10.071,10.027-23.321,10.987C648.113,871.867,636.702,863.397,636.702,863.397z"/>
						</defs>
						<clipPath id="SVGID_00000183955296050754010360000008282767241436322704_">
							<use xlink:href="#SVGID_1_"  style="overflow:visible;"/>
						</clipPath>
						<path style="clip-path:url(#SVGID_00000183955296050754010360000008282767241436322704_);fill:#363E44;" d="M653.668,853.095
							c4.564-8.44,15.105-11.583,23.545-7.019c8.44,4.564,11.583,15.105,7.019,23.545c-4.564,8.44-15.105,11.583-23.545,7.019
							C652.247,872.076,649.104,861.535,653.668,853.095z"/>
					</g>
				</g>
				<path style="fill:#363E44;" d="M674.106,891.997c-0.76,0-1.524-0.107-2.273-0.327c-2.944-0.866-5.188-3.39-5.715-6.431
					c-0.095-0.544,0.27-1.062,0.814-1.156c0.546-0.094,1.063,0.27,1.156,0.814c0.398,2.296,2.09,4.201,4.309,4.854
					c2.306,0.679,4.81-0.071,6.387-1.907c0.362-0.419,0.993-0.466,1.41-0.107c0.419,0.36,0.467,0.991,0.108,1.41
					C678.726,890.983,676.444,891.997,674.106,891.997z"/>
				<path style="fill:#363E44;" d="M671.047,921.88c-19.415,0-43.417-7.588-44.548-7.949c-0.525-0.168-0.815-0.731-0.647-1.257
					c0.168-0.526,0.727-0.816,1.257-0.648c0.306,0.098,30.845,9.753,50.481,7.51c0.548-0.064,1.045,0.332,1.106,0.88
					c0.063,0.549-0.331,1.044-0.88,1.107C675.658,921.77,673.386,921.88,671.047,921.88z"/>
			</g>
			<g>
				<path style="fill:#363E44;" d="M583.101,897.81c-14.514-6.956-18.974-41.173-10.057-63.09
					c11.497-28.257,44.84-44.938,71.781-42.665c6.623,0.559,21.756,3.797,26.783,13.237c3.914,7.35-3.545,22.623-16.179,27.013
					c-17.764,6.173-42.659,2.062-33.458,22.305C649.853,915.949,599.049,905.453,583.101,897.81z"/>
			</g>
			
				<ellipse transform="matrix(0.7071 -0.7071 0.7071 0.7071 -471.0656 601.242)" style="fill:#363E44;" cx="490.23" cy="869.247" rx="106.647" ry="106.647"/>
			<g>
				<path style="fill:#FFFFFF;" d="M664.139,883.405c-9.063,0-17.382-7.886-19.213-18.768c-0.965-5.739-0.006-11.456,2.703-16.098
					c2.742-4.702,6.945-7.744,11.833-8.566c10.028-1.688,19.801,6.638,21.806,18.551c0.965,5.739,0.006,11.456-2.703,16.098
					c-2.742,4.702-6.945,7.744-11.833,8.566C665.863,883.334,664.997,883.405,664.139,883.405z M662.063,841.755
					c-0.752,0-1.51,0.062-2.269,0.19c-4.293,0.722-7.999,3.422-10.438,7.602c-2.474,4.239-3.346,9.481-2.458,14.758
					c1.821,10.826,10.57,18.415,19.501,16.911c4.293-0.722,7.999-3.422,10.438-7.602c2.474-4.239,3.346-9.481,2.458-14.759
					C677.629,848.949,670.162,841.755,662.063,841.755z"/>
				<path style="fill:#FFFFFF;" d="M617.788,872.339c-0.443,0-0.848-0.297-0.966-0.746c-0.141-0.534,0.178-1.081,0.712-1.221
					l26.487-6.971c0.536-0.139,1.081,0.178,1.222,0.713c0.141,0.534-0.178,1.081-0.712,1.221l-26.487,6.971
					C617.958,872.328,617.873,872.339,617.788,872.339z"/>
				<path style="fill:#FFFFFF;" d="M680.521,855.61c-0.198,0-0.397-0.059-0.572-0.181c-0.453-0.317-0.563-0.94-0.246-1.393
					c1.548-2.209,5.865-5.429,11.145-1.797c0.454,0.313,0.569,0.936,0.257,1.391c-0.313,0.455-0.935,0.571-1.392,0.257
					c-4.977-3.427-8.236,1.102-8.372,1.296C681.148,855.461,680.837,855.61,680.521,855.61z"/>
			</g>
			<path style="fill:#363E44;" d="M502.08,919.737c-46.673,0-84.645-37.972-84.645-84.645c0-46.673,37.972-84.645,84.645-84.645
				c46.673,0,84.645,37.971,84.645,84.645C586.725,881.766,548.753,919.737,502.08,919.737z M502.08,752.448
				c-45.57,0-82.645,37.074-82.645,82.645c0,45.571,37.074,82.645,82.645,82.645s82.645-37.074,82.645-82.645
				C584.725,789.522,547.65,752.448,502.08,752.448z"/>
			<path style="fill:#FFFFFF;" d="M512.536,961.56c-29.672,0-57.019-17.351-69.672-44.204c-0.235-0.5-0.021-1.096,0.479-1.331
				c0.499-0.236,1.096-0.021,1.33,0.478c12.324,26.156,38.962,43.057,67.863,43.057c33.029,0,61.806-21.171,71.607-52.681
				c0.164-0.526,0.724-0.823,1.252-0.658c0.527,0.164,0.822,0.725,0.658,1.252C575.99,939.824,546.445,961.56,512.536,961.56z"/>
		</g>
	</g>
	<g>
		<g>
			<g>
				<ellipse style="fill:#E0AA63;" cx="1904.691" cy="1969.549" rx="136.015" ry="43.058"/>
				
					<rect x="1768.676" y="1926.654" transform="matrix(-1 -1.224647e-16 1.224647e-16 -1 3809.3821 3897.6714)" style="fill:#E0AA63;" width="272.031" height="44.363"/>
				<ellipse style="fill:#EFBC73;" cx="1904.691" cy="1927.497" rx="136.015" ry="43.058"/>
				<path style="fill:#FFFFFF;" d="M1888.667,1971.555c-36.431,0-70.694-4.496-96.479-12.658
					c-26.14-8.275-40.536-19.426-40.536-31.4s14.396-23.125,40.536-31.4c25.785-8.163,60.049-12.658,96.479-12.658
					s70.694,4.495,96.479,12.658c26.14,8.275,40.536,19.427,40.536,31.4s-14.396,23.125-40.536,31.4
					C1959.361,1967.06,1925.098,1971.555,1888.667,1971.555z M1888.667,1885.439c-36.231,0-70.281,4.462-95.876,12.564
					c-24.874,7.875-39.14,18.625-39.14,29.494s14.266,21.619,39.14,29.493c25.596,8.103,59.645,12.565,95.876,12.565
					s70.28-4.462,95.876-12.565c24.874-7.874,39.14-18.624,39.14-29.493s-14.266-21.619-39.14-29.494
					C1958.948,1889.901,1924.898,1885.439,1888.667,1885.439z"/>
			</g>
			<g>
				<ellipse style="fill:#E0AA63;" cx="1876.649" cy="1899.462" rx="136.015" ry="43.058"/>
				
					<rect x="1740.634" y="1856.567" transform="matrix(-1 -1.224647e-16 1.224647e-16 -1 3753.2983 3757.4966)" style="fill:#E0AA63;" width="272.031" height="44.363"/>
				<ellipse style="fill:#EFBC73;" cx="1876.649" cy="1857.409" rx="136.015" ry="43.058"/>
				<path style="fill:#FFFFFF;" d="M1860.625,1901.468c-36.431,0-70.694-4.496-96.479-12.658
					c-26.141-8.275-40.536-19.426-40.536-31.4s14.396-23.125,40.536-31.4c25.784-8.163,60.048-12.658,96.479-12.658
					s70.694,4.495,96.479,12.658c26.14,8.275,40.536,19.427,40.536,31.4s-14.396,23.125-40.536,31.4
					C1931.319,1896.972,1897.056,1901.468,1860.625,1901.468z M1860.625,1815.352c-36.231,0-70.28,4.462-95.875,12.564
					c-24.874,7.875-39.14,18.625-39.14,29.494s14.266,21.619,39.14,29.493c25.595,8.103,59.644,12.565,95.875,12.565
					s70.28-4.462,95.876-12.565c24.874-7.874,39.14-18.624,39.14-29.493s-14.266-21.619-39.14-29.494
					C1930.906,1819.814,1896.856,1815.352,1860.625,1815.352z"/>
			</g>
			<g>
				<ellipse style="fill:#E0AA63;" cx="1904.691" cy="1829.375" rx="136.015" ry="43.058"/>
				
					<rect x="1768.676" y="1786.479" transform="matrix(-1 -1.224647e-16 1.224647e-16 -1 3809.3821 3617.322)" style="fill:#E0AA63;" width="272.031" height="44.363"/>
				<ellipse style="fill:#EFBC73;" cx="1904.691" cy="1787.322" rx="136.015" ry="43.058"/>
				<path style="fill:#FFFFFF;" d="M1888.667,1831.38c-36.431,0-70.694-4.496-96.479-12.658c-26.14-8.275-40.536-19.426-40.536-31.4
					s14.396-23.125,40.536-31.4c25.785-8.163,60.049-12.658,96.479-12.658s70.694,4.495,96.479,12.658
					c26.14,8.275,40.536,19.427,40.536,31.4s-14.396,23.125-40.536,31.4C1959.361,1826.885,1925.098,1831.38,1888.667,1831.38z
					 M1888.667,1745.264c-36.231,0-70.281,4.462-95.876,12.564c-24.874,7.875-39.14,18.625-39.14,29.494s14.266,21.619,39.14,29.493
					c25.596,8.103,59.645,12.565,95.876,12.565s70.28-4.462,95.876-12.565c24.874-7.874,39.14-18.624,39.14-29.493
					s-14.266-21.619-39.14-29.494C1958.948,1749.727,1924.898,1745.264,1888.667,1745.264z"/>
			</g>
			<g>
				<ellipse style="fill:#E0AA63;" cx="1860.625" cy="1767.045" rx="136.015" ry="43.058"/>
				
					<rect x="1724.61" y="1724.15" transform="matrix(-1 -1.224647e-16 1.224647e-16 -1 3721.2505 3492.6628)" style="fill:#E0AA63;" width="272.031" height="44.363"/>
				<ellipse style="fill:#EFBC73;" cx="1860.625" cy="1724.993" rx="136.015" ry="43.058"/>
				<path style="fill:#FFFFFF;" d="M1844.602,1769.051c-36.431,0-70.694-4.496-96.479-12.658
					c-26.14-8.275-40.536-19.426-40.536-31.4s14.396-23.125,40.536-31.4c25.785-8.163,60.049-12.658,96.479-12.658
					s70.694,4.496,96.479,12.658c26.141,8.275,40.536,19.426,40.536,31.4s-14.396,23.125-40.536,31.4
					C1915.296,1764.555,1881.032,1769.051,1844.602,1769.051z M1844.602,1682.935c-36.231,0-70.28,4.462-95.876,12.565
					c-24.874,7.874-39.14,18.624-39.14,29.493s14.266,21.619,39.14,29.493c25.596,8.103,59.645,12.565,95.876,12.565
					s70.28-4.462,95.875-12.565c24.874-7.874,39.14-18.624,39.14-29.493s-14.266-21.619-39.14-29.493
					C1914.882,1687.397,1880.833,1682.935,1844.602,1682.935z"/>
			</g>
			<g>
				<ellipse style="fill:#E0AA63;" cx="1899.831" cy="1718.268" rx="136.015" ry="43.058"/>
				
					<rect x="1763.816" y="1675.373" transform="matrix(-1 -1.224647e-16 1.224647e-16 -1 3799.6619 3395.1091)" style="fill:#E0AA63;" width="272.031" height="44.363"/>
				<ellipse style="fill:#EFBC73;" cx="1899.831" cy="1676.216" rx="136.015" ry="43.058"/>
				<path style="fill:#FFFFFF;" d="M1883.807,1720.274c-36.431,0-70.694-4.496-96.479-12.658
					c-26.141-8.275-40.536-19.426-40.536-31.4s14.396-23.125,40.536-31.4c25.784-8.163,60.048-12.658,96.479-12.658
					s70.694,4.496,96.479,12.658c26.14,8.275,40.536,19.426,40.536,31.4s-14.396,23.125-40.536,31.4
					C1954.501,1715.778,1920.237,1720.274,1883.807,1720.274z M1883.807,1634.158c-36.231,0-70.28,4.462-95.875,12.565
					c-24.874,7.874-39.14,18.624-39.14,29.493s14.266,21.619,39.14,29.493c25.595,8.103,59.644,12.565,95.875,12.565
					s70.28-4.462,95.876-12.565c24.874-7.874,39.14-18.624,39.14-29.493s-14.266-21.619-39.14-29.493
					C1954.087,1638.62,1920.038,1634.158,1883.807,1634.158z"/>
			</g>
			<g>
				<ellipse style="fill:#E0AA63;" cx="1927.873" cy="1648.181" rx="136.015" ry="43.058"/>
				
					<rect x="1791.857" y="1605.286" transform="matrix(-1 -1.224647e-16 1.224647e-16 -1 3855.7456 3254.9343)" style="fill:#E0AA63;" width="272.031" height="44.363"/>
				<ellipse style="fill:#EFBC73;" cx="1927.873" cy="1606.128" rx="136.015" ry="43.058"/>
				<path style="fill:#FFFFFF;" d="M1911.849,1650.187c-36.431,0-70.694-4.496-96.479-12.658
					c-26.141-8.275-40.536-19.426-40.536-31.4s14.396-23.125,40.536-31.4c25.784-8.163,60.048-12.658,96.479-12.658
					s70.694,4.496,96.479,12.658c26.14,8.275,40.536,19.426,40.536,31.4s-14.396,23.125-40.536,31.4
					C1982.543,1645.691,1948.279,1650.187,1911.849,1650.187z M1911.849,1564.07c-36.231,0-70.28,4.462-95.875,12.565
					c-24.874,7.874-39.14,18.624-39.14,29.493s14.266,21.619,39.14,29.493c25.595,8.103,59.644,12.565,95.875,12.565
					s70.28-4.462,95.876-12.565c24.874-7.874,39.14-18.624,39.14-29.493s-14.266-21.619-39.14-29.493
					C1982.129,1568.533,1948.08,1564.07,1911.849,1564.07z"/>
			</g>
			<g>
				<ellipse style="fill:#E0AA63;" cx="1907.45" cy="1584.908" rx="136.015" ry="43.058"/>
				
					<rect x="1771.435" y="1542.012" transform="matrix(-1 -1.224647e-16 1.224647e-16 -1 3814.9004 3128.3879)" style="fill:#E0AA63;" width="272.031" height="44.363"/>
				<ellipse style="fill:#EFBC73;" cx="1907.45" cy="1542.855" rx="136.015" ry="43.058"/>
				<path style="fill:#FFFFFF;" d="M1891.426,1586.913c-36.431,0-70.694-4.495-96.479-12.658
					c-26.141-8.275-40.536-19.427-40.536-31.4s14.396-23.125,40.536-31.4c25.784-8.163,60.048-12.658,96.479-12.658
					s70.694,4.496,96.479,12.658c26.14,8.275,40.536,19.426,40.536,31.4s-14.396,23.125-40.536,31.4
					C1962.12,1582.418,1927.856,1586.913,1891.426,1586.913z M1891.426,1500.797c-36.231,0-70.28,4.462-95.875,12.565
					c-24.874,7.874-39.14,18.624-39.14,29.493s14.266,21.619,39.14,29.494c25.595,8.102,59.644,12.564,95.875,12.564
					s70.281-4.462,95.876-12.564c24.874-7.875,39.14-18.625,39.14-29.494s-14.266-21.619-39.14-29.493
					C1961.706,1505.259,1927.657,1500.797,1891.426,1500.797z"/>
			</g>
		</g>
		<g>
			<g>
				<ellipse style="fill:#E0AA63;" cx="1610.319" cy="1970.767" rx="136.015" ry="43.058"/>
				
					<rect x="1474.304" y="1927.872" transform="matrix(-1 -1.224647e-16 1.224647e-16 -1 3220.6389 3900.1062)" style="fill:#E0AA63;" width="272.031" height="44.363"/>
				<ellipse style="fill:#EFBC73;" cx="1610.319" cy="1928.714" rx="136.015" ry="43.058"/>
				<path style="fill:#FFFFFF;" d="M1594.296,1972.772c-36.431,0-70.694-4.496-96.479-12.658
					c-26.14-8.275-40.536-19.426-40.536-31.4s14.396-23.125,40.536-31.4c25.785-8.163,60.049-12.658,96.479-12.658
					s70.694,4.496,96.479,12.658c26.141,8.275,40.536,19.426,40.536,31.4s-14.396,23.125-40.536,31.4
					C1664.99,1968.277,1630.727,1972.772,1594.296,1972.772z M1594.296,1886.656c-36.231,0-70.28,4.462-95.876,12.565
					c-24.874,7.874-39.14,18.624-39.14,29.493s14.266,21.619,39.14,29.493c25.596,8.103,59.645,12.565,95.876,12.565
					s70.28-4.462,95.875-12.565c24.874-7.874,39.14-18.624,39.14-29.493s-14.266-21.619-39.14-29.493
					C1664.576,1891.119,1630.527,1886.656,1594.296,1886.656z"/>
			</g>
			<g>
				<ellipse style="fill:#E0AA63;" cx="1582.278" cy="1900.445" rx="136.015" ry="42.94"/>
				
					<rect x="1446.262" y="1857.668" transform="matrix(-1 -1.224647e-16 1.224647e-16 -1 3164.5554 3759.5769)" style="fill:#E0AA63;" width="272.031" height="44.241"/>
				<ellipse style="fill:#EFBC73;" cx="1582.278" cy="1858.508" rx="136.015" ry="42.94"/>
				<path style="fill:#FFFFFF;" d="M1566.254,1902.448c-36.431,0-70.693-4.483-96.479-12.623
					c-26.141-8.252-40.537-19.374-40.537-31.316s14.396-23.064,40.537-31.316c25.785-8.14,60.048-12.623,96.479-12.623
					s70.693,4.483,96.479,12.623c26.141,8.252,40.537,19.374,40.537,31.316s-14.396,23.064-40.537,31.316
					C1636.947,1897.965,1602.685,1902.448,1566.254,1902.448z M1566.254,1816.569c-36.231,0-70.281,4.45-95.876,12.53
					c-24.874,7.853-39.14,18.572-39.14,29.409s14.266,21.557,39.14,29.409c25.595,8.08,59.645,12.53,95.876,12.53
					s70.281-4.45,95.876-12.53c24.874-7.853,39.14-18.572,39.14-29.409s-14.266-21.557-39.14-29.409
					C1636.535,1821.019,1602.485,1816.569,1566.254,1816.569z"/>
			</g>
			<g>
				
					<ellipse transform="matrix(0.7039 -0.7103 0.7103 0.7039 -768.0671 1709.2122)" style="fill:#E0AA63;" cx="1665.924" cy="1775.793" rx="135.998" ry="43.063"/>
				
					<rect x="1515.206" y="1739.032" transform="matrix(0.7039 -0.7103 0.7103 0.7039 -762.0729 1694.5073)" style="fill:#E0AA63;" width="271.997" height="44.368"/>
				
					<ellipse transform="matrix(0.7039 -0.7103 0.7103 0.7039 -755.8941 1679.2224)" style="fill:#EFBC73;" cx="1636.041" cy="1746.198" rx="135.998" ry="43.063"/>
				<path style="fill:#FFFFFF;" d="M1542.596,1859.852c-6.094,0-10.913-1.643-14.259-4.956c-8.508-8.427-6.301-26.5,6.215-50.89
					c12.347-24.059,33.266-51.558,58.904-77.434c25.639-25.875,52.946-47.047,76.894-59.617
					c24.276-12.742,42.33-15.119,50.841-6.693c8.508,8.427,6.301,26.5-6.215,50.89c-12.347,24.059-33.266,51.558-58.904,77.434
					c-25.639,25.875-52.946,47.047-76.894,59.617C1564.445,1855.936,1552.003,1859.852,1542.596,1859.852z M1706.958,1657.354
					c-9.079,0-21.333,3.843-35.679,11.374c-23.771,12.477-50.904,33.52-76.403,59.254c-25.498,25.733-46.29,53.058-58.545,76.938
					c-11.909,23.208-14.31,40.906-6.586,48.556c7.725,7.651,25.405,5.082,48.503-7.043c23.771-12.477,50.904-33.52,76.403-59.254
					c25.498-25.733,46.29-53.058,58.545-76.938c11.909-23.208,14.31-40.906,6.586-48.556
					C1716.855,1658.785,1712.497,1657.354,1706.958,1657.354z"/>
			</g>
		</g>
	</g>
</g>
</svg>
