<?xml version="1.0" encoding="utf-8"?>
<!-- Generator: Adobe Illustrator 27.5.0, SVG Export Plug-In . SVG Version: 6.00 Build 0)  -->
<svg version="1.1" xmlns="http://www.w3.org/2000/svg" xmlns:xlink="http://www.w3.org/1999/xlink" x="0px" y="0px"
	 viewBox="0 0 500 500" style="enable-background:new 0 0 500 500;" xml:space="preserve">
<g id="BACKGROUND">
	<rect style="fill:#E3FFF2;" width="500" height="500"/>
</g>
<g id="OBJECTS">
	<g>
		<g>
			<path style="fill:#E3FFF2;" d="M196.778,210.261c-0.023-0.147-0.053-0.295-0.088-0.442c-0.018-0.077-0.038-0.155-0.059-0.232
				c-0.041-0.145-0.089-0.289-0.139-0.434c-0.025-0.071-0.048-0.142-0.076-0.212c-0.08-0.203-0.169-0.406-0.269-0.607
				c-0.034-0.067-0.074-0.133-0.109-0.2c-0.073-0.136-0.148-0.273-0.23-0.408c-0.059-0.097-0.123-0.193-0.187-0.289
				c-0.067-0.101-0.136-0.201-0.206-0.301c-0.075-0.106-0.153-0.21-0.234-0.314c-0.064-0.082-0.132-0.163-0.2-0.243
				c-0.35-0.424-0.741-0.83-1.171-1.217c-0.037-0.034-0.073-0.068-0.111-0.101c-0.147-0.129-0.298-0.253-0.452-0.378
				c-0.04-0.033-0.081-0.065-0.123-0.097c-0.164-0.129-0.332-0.256-0.506-0.378c-0.005-0.004-0.01-0.007-0.016-0.011
				c-0.579-0.409-1.201-0.78-1.859-1.106c-0.006-0.003-0.012-0.007-0.02-0.011v0c-0.942-0.466-1.949-0.845-3.004-1.095
				c-7.637-1.816-11.994-2.851-18.713-4.448c-1.15-3.562-2.17-6.512-2.949-8.744v-24.915c0-2.63-0.647-5.105-1.774-7.292h0.004
				c-0.008-0.016-0.017-0.029-0.025-0.044c-0.123-0.237-0.254-0.467-0.387-0.696c-0.088-0.15-0.179-0.298-0.272-0.445
				c-0.137-0.218-0.273-0.436-0.42-0.648c-0.157-0.225-0.323-0.44-0.491-0.656c-0.198-0.256-0.406-0.504-0.619-0.747
				c-0.14-0.161-0.283-0.318-0.429-0.473c-0.154-0.163-0.311-0.323-0.472-0.479c-0.2-0.194-0.407-0.379-0.618-0.562
				c-0.202-0.176-0.407-0.347-0.618-0.512c-0.23-0.18-0.463-0.357-0.702-0.526c-0.153-0.107-0.308-0.21-0.465-0.311
				c-0.257-0.167-0.52-0.326-0.786-0.478c-0.123-0.07-0.241-0.144-0.364-0.211c-0.379-0.203-0.769-0.389-1.166-0.561
				c-0.132-0.057-0.267-0.11-0.4-0.164c-0.316-0.128-0.638-0.245-0.964-0.352c-0.125-0.042-0.249-0.085-0.375-0.123
				c-0.132-0.04-0.263-0.076-0.396-0.113v-5.507H203.4l-10.314-8.885c0,0-5.216-4.505-6.617-8.309
				c-3.141-8.523-3.028-16.895-3.028-16.895s-0.094-2.441-0.11-2.674c-0.336-4.924-2.85-9.599-5.873-13.848
				c-4.837-6.803-15.229-6.803-15.229-6.803h-0.376h-49.285H90.086c0,0-5.607,2.691-10.485,8.821
				c-1.723,2.165-4.311,6.302-5.588,8.971c-1.67,3.49-2.766,10.244-2.991,13.756c-0.193,3.011-0.205,8.84-0.164,14.205h-7.152
				c-3.964,0-7.176,3.213-7.176,7.177v9.992c-0.132,0.036-0.265,0.073-0.397,0.113c-0.125,0.037-0.247,0.081-0.37,0.121
				c-0.328,0.108-0.653,0.226-0.97,0.355c-0.132,0.053-0.265,0.104-0.394,0.16c-0.4,0.173-0.791,0.36-1.172,0.564
				c-0.119,0.064-0.233,0.135-0.35,0.202c-0.274,0.156-0.542,0.318-0.802,0.489c-0.154,0.099-0.306,0.2-0.456,0.305
				c-0.244,0.172-0.484,0.353-0.72,0.539c-0.2,0.158-0.395,0.32-0.588,0.486c-0.217,0.189-0.432,0.381-0.637,0.581
				c-0.16,0.154-0.314,0.312-0.467,0.472c-0.149,0.157-0.294,0.319-0.437,0.482c-0.19,0.215-0.374,0.433-0.551,0.657
				c-0.191,0.243-0.379,0.489-0.556,0.743c-0.147,0.209-0.282,0.425-0.418,0.642c-0.093,0.149-0.186,0.299-0.273,0.452
				c-0.134,0.227-0.264,0.456-0.386,0.69c-0.007,0.016-0.018,0.03-0.025,0.046h0.004c-1.127,2.187-1.774,4.662-1.774,7.292v24.917
				c-4.561,13.063-17.236,50.122-17.236,96.48c0,48.087,9.899,98.896,17.559,115.443v-0.017c0.595,2.917,1.996,5.538,3.948,7.642
				c0.041,0.045,0.084,0.087,0.126,0.134c0.215,0.224,0.433,0.446,0.661,0.659c0.036,0.034,0.073,0.066,0.109,0.1
				c0.486,0.444,0.995,0.866,1.534,1.251c0.009,0.006,0.017,0.013,0.026,0.019c0.196,0.139,0.399,0.269,0.601,0.401
				c0.142,0.09,0.284,0.184,0.431,0.271c0.186,0.113,0.374,0.218,0.565,0.322c0.179,0.098,0.361,0.192,0.544,0.284
				c0.174,0.085,0.347,0.175,0.524,0.254c0.255,0.117,0.518,0.222,0.782,0.327c0.12,0.045,0.237,0.098,0.36,0.143
				c0.37,0.134,0.749,0.252,1.132,0.358c0.138,0.04,0.277,0.07,0.414,0.105c0.277,0.068,0.556,0.134,0.837,0.188
				c0.15,0.028,0.301,0.056,0.453,0.079c0.29,0.049,0.584,0.087,0.88,0.12c0.137,0.013,0.271,0.032,0.409,0.043
				c0.431,0.036,0.866,0.057,1.304,0.057h89.339c0.441,0,0.875-0.021,1.305-0.057c0.137-0.011,0.272-0.03,0.409-0.043
				c0.296-0.032,0.59-0.07,0.881-0.12c0.151-0.023,0.302-0.051,0.452-0.079c0.282-0.053,0.561-0.119,0.838-0.188
				c0.138-0.034,0.276-0.064,0.412-0.105c0.386-0.107,0.767-0.226,1.141-0.361c0.116-0.043,0.227-0.094,0.343-0.137
				c0.267-0.107,0.534-0.213,0.793-0.331c0.174-0.079,0.343-0.166,0.515-0.252c0.187-0.092,0.373-0.188,0.557-0.288
				c0.186-0.102,0.372-0.207,0.554-0.318c0.15-0.09,0.299-0.186,0.447-0.282c0.196-0.126,0.395-0.254,0.586-0.388
				c0.03-0.021,0.059-0.047,0.091-0.068c0.508-0.369,0.992-0.766,1.454-1.191c0.044-0.038,0.09-0.079,0.134-0.12
				c0.221-0.209,0.436-0.425,0.645-0.647c0.05-0.051,0.098-0.102,0.145-0.151c0.218-0.237,0.43-0.476,0.633-0.726
				c0.007-0.007,0.013-0.013,0.019-0.021c1.606-1.963,2.762-4.306,3.287-6.884v0.015c3.529-7.622,7.531-22.524,10.822-41.07
				c3.352-0.796,6.695-1.592,11.164-2.652c1.055-0.252,2.063-0.629,3.004-1.097l0,0c0.013-0.007,0.027-0.013,0.039-0.019
				c0.652-0.324,1.269-0.694,1.844-1.101c0.003-0.002,0.005-0.004,0.01-0.006c0.176-0.124,0.345-0.252,0.512-0.382
				c0.037-0.03,0.076-0.06,0.113-0.09c0.157-0.126,0.313-0.254,0.462-0.384c0.032-0.03,0.064-0.06,0.096-0.088
				c0.437-0.395,0.835-0.806,1.192-1.238c0.063-0.077,0.126-0.154,0.187-0.233c0.084-0.104,0.163-0.211,0.24-0.32
				c0.07-0.098,0.136-0.194,0.202-0.292c0.064-0.098,0.13-0.196,0.19-0.294c0.08-0.132,0.153-0.267,0.225-0.399
				c0.038-0.07,0.079-0.139,0.114-0.209c0.1-0.201,0.189-0.401,0.268-0.606c0.028-0.068,0.052-0.143,0.077-0.213
				c0.052-0.143,0.098-0.288,0.139-0.431c0.021-0.077,0.041-0.156,0.059-0.233c0.035-0.147,0.064-0.295,0.088-0.442
				c0.011-0.068,0.023-0.137,0.032-0.203c0.025-0.216,0.043-0.427,0.043-0.64c0-45.724,0-91.448,0-137.171
				c0-0.212-0.018-0.425-0.043-0.639C196.801,210.397,196.789,210.329,196.778,210.261z"/>
			<g>
				<g>
					<path style="fill:#DCE0EF;" d="M183.972,82.038c-4.837-6.803-15.229-6.803-15.229-6.803h-49.661c0,0-0.413,19.413,0,25.866
						c0.225,3.512,1.321,10.266,2.992,13.756c1.276,2.67,4.646,6.99,6.578,8.971c2.407,2.467,10.392,8.821,10.392,8.821h70.87
						l-10.314-8.885c0,0-5.217-4.505-6.618-8.309c-3.14-8.523-3.028-16.895-3.028-16.895s-0.094-2.44-0.11-2.674
						C189.508,90.962,186.995,86.287,183.972,82.038z"/>
					<rect x="114.596" y="83.01" style="opacity:0.4;fill:#4C505C;" width="59.059" height="1.795"/>
					<rect x="124.913" y="92.579" style="opacity:0.4;fill:#4C505C;" width="41.042" height="1.794"/>
					<rect x="124.913" y="102.148" style="opacity:0.4;fill:#4C505C;" width="48.743" height="1.795"/>
					<rect x="135.23" y="116.801" style="opacity:0.4;fill:#4C505C;" width="48.742" height="1.795"/>
					<rect x="143.191" y="122.389" style="opacity:0.4;fill:#4C505C;" width="27.923" height="1.795"/>
					<rect x="149.284" y="126.501" style="opacity:0.4;fill:#4C505C;" width="27.922" height="1.795"/>
				</g>
				<g>
					<g>
						<path style="fill:#383B44;" d="M203.367,337.746c0,3.726-4.09,7.721-9.135,8.918c-8.877,2.111-13.313,3.163-22.19,5.275
							c-5.046,1.199-9.135-1.235-9.135-5.437c0-51.561,0-103.123,0-154.685c0-4.202,4.09-6.635,9.135-5.436
							c8.877,2.111,13.313,3.164,22.19,5.275c5.045,1.2,9.135,5.192,9.135,8.918C203.367,246.297,203.367,292.022,203.367,337.746z"
							/>
					</g>
					<g>
						<path style="fill:#4C505C;" d="M189.908,190.627c-6.251-1.485-10.554-2.508-17.867-4.247
							c-5.046-1.199-9.135,1.234-9.135,5.436v154.685c0,4.202,4.09,6.637,9.135,5.437c7.313-1.739,11.616-2.761,17.867-4.249
							V190.627z"/>
					</g>
					<g>
						<path style="fill:#4C505C;" d="M197.236,192.751v152.819c3.568-1.767,6.131-4.876,6.131-7.823V200.573
							C203.367,197.626,200.803,194.517,197.236,192.751z"/>
					</g>
				</g>
				<path style="fill:#4C505C;" d="M160.828,185.13c0,3.964-3.213,7.177-7.177,7.177H70.22c-3.964,0-7.177-3.213-7.177-7.177
					v-56.966c0-3.964,3.213-7.176,7.177-7.176h83.431c3.964,0,7.177,3.213,7.177,7.176V185.13z"/>
				<path style="fill:#687D8E;" d="M189.805,274.944c0-46.358-12.676-83.419-17.236-96.48v-24.915
					c0-8.817-7.147-15.964-15.964-15.964H67.267c-8.816,0-15.964,7.147-15.964,15.964v24.917
					c-4.56,13.063-17.235,50.122-17.235,96.479c0,48.089,9.899,98.897,17.558,115.445v-0.017
					c1.485,7.279,7.924,12.755,15.641,12.755h89.338c7.719,0,14.156-5.476,15.64-12.753v0.015
					C179.907,373.84,189.805,323.032,189.805,274.944z"/>
				<path style="fill:#7F9BAD;" d="M53.157,394.606c2.673,5.066,7.983,8.521,14.11,8.521h89.338c6.128,0,11.438-3.455,14.111-8.521
					H53.157z"/>
				<path style="fill:#4C505C;" d="M154.217,169.581H120.01h-16.254H69.547c0,0-24.104,53.431-24.104,100.103
					c0,48.816,13.452,100.245,19.843,120.072h38.471h16.254h38.468c6.392-19.827,19.843-71.255,19.843-120.072
					C178.321,223.011,154.217,169.581,154.217,169.581z"/>
				<path style="fill:#7F9BAD;" d="M170.799,146.256c-2.648-5.148-8.006-8.672-14.195-8.672H67.267
					c-6.188,0-11.546,3.524-14.194,8.672H170.799z"/>
				<g>
					<g>
						<path style="fill:#C6C8D4;" d="M126.73,379.271c0,1.615-1.308,2.923-2.924,2.923h-21.556c-1.615,0-2.923-1.308-2.923-2.923
							v-9.255c0-1.615,1.308-2.924,2.923-2.924h21.556c1.616,0,2.924,1.308,2.924,2.924V379.271z"/>
						<path style="fill:#DBB619;" d="M125.834,378.375c0,1.613-1.31,2.922-2.923,2.922h-21.556c-1.615,0-2.924-1.308-2.924-2.922
							v-9.255c0-1.615,1.309-2.923,2.924-2.923h21.556c1.613,0,2.923,1.308,2.923,2.923V378.375z"/>
						<path style="fill:#FFDA3E;" d="M124.402,377.892c0,1.445-1.171,2.616-2.617,2.616h-19.306c-1.446,0-2.617-1.172-2.617-2.616
							v-8.29c0-1.447,1.171-2.616,2.617-2.616h19.306c1.446,0,2.617,1.169,2.617,2.616V377.892z"/>
					</g>
					<g>
						<g>
							<path style="fill:#C6C8D4;" d="M156.149,367.092h-20.26c-1.615,0-2.923,1.308-2.923,2.924v9.255
								c0,1.615,1.308,2.923,2.923,2.923h13.776c1.337,0,2.145-0.395,2.682-0.789c3.29-2.409,4.782-7.1,5.439-10.465
								C158.173,368.96,157.633,367.092,156.149,367.092z"/>
							<path style="fill:#769B26;" d="M155.25,366.196h-20.258c-1.614,0-2.923,1.308-2.923,2.923v9.255
								c0,1.613,1.308,2.922,2.923,2.922h13.776c1.337,0,2.145-0.395,2.683-0.787c3.29-2.409,4.783-7.1,5.439-10.465
								C157.277,368.063,156.736,366.196,155.25,366.196z"/>
							<path style="fill:#A6BF49;" d="M155.717,370.044c0.234-1.27,0-2.411-1.007-2.911c-0.248-0.087-0.509-0.147-0.786-0.147
								h-18.178c-1.363,0-2.465,1.169-2.465,2.616v8.29c0,1.445,1.103,2.616,2.465,2.616H148.4
								C151.96,380.509,154.848,374.753,155.717,370.044z"/>
						</g>
						<g>
							<path style="fill:#C6C8D4;" d="M69.891,367.092h20.26c1.614,0,2.922,1.308,2.922,2.924v9.255
								c0,1.615-1.309,2.923-2.922,2.923H76.375c-1.338,0-2.146-0.395-2.685-0.789c-3.29-2.409-4.782-7.1-5.438-10.465
								C67.866,368.96,68.406,367.092,69.891,367.092z"/>
							<path style="fill:#D1290D;" d="M69.013,366.196h20.258c1.614,0,2.924,1.308,2.924,2.923v9.255
								c0,1.613-1.309,2.922-2.924,2.922H75.497c-1.339,0-2.146-0.395-2.684-0.787c-3.29-2.409-4.782-7.1-5.439-10.465
								C66.988,368.063,67.528,366.196,69.013,366.196z"/>
							<path style="fill:#FF451A;" d="M68.547,370.044c-0.234-1.27,0-2.411,1.007-2.911c0.25-0.087,0.511-0.147,0.787-0.147H88.52
								c1.362,0,2.465,1.169,2.465,2.616v8.29c0,1.445-1.104,2.616-2.465,2.616H75.864
								C72.304,380.509,69.416,374.753,68.547,370.044z"/>
						</g>
					</g>
				</g>
				<g>
					<g>
						<path style="fill:#C6C8D4;" d="M75.897,263.571c0,2.56-4.294,4.635-9.591,4.635c-5.3,0-9.595-2.076-9.595-4.635
							c0-2.561,4.295-4.635,9.595-4.635C71.603,258.936,75.897,261.01,75.897,263.571z"/>
						<g>
							<path style="fill:#C6C8D4;" d="M75.151,262.73c0,2.561-4.295,4.636-9.593,4.636c-5.299,0-9.594-2.075-9.594-4.636
								c0-2.561,4.294-4.636,9.594-4.636C70.856,258.094,75.151,260.17,75.151,262.73z"/>
							<path style="fill:#DCE0EF;" d="M73.772,262.73c0,2.561-3.678,4.636-8.214,4.636c-4.538,0-8.216-2.075-8.216-4.636
								c0-2.561,3.678-4.636,8.216-4.636C70.094,258.094,73.772,260.17,73.772,262.73z"/>
						</g>
					</g>
					<g>
						<path style="fill:#C6C8D4;" d="M98.999,263.571c0,2.56-4.296,4.635-9.593,4.635c-5.299,0-9.595-2.076-9.595-4.635
							c0-2.561,4.296-4.635,9.595-4.635C94.703,258.936,98.999,261.01,98.999,263.571z"/>
						<g>
							<path style="fill:#C6C8D4;" d="M98.252,262.73c0,2.561-4.295,4.636-9.593,4.636c-5.299,0-9.595-2.075-9.595-4.636
								c0-2.561,4.296-4.636,9.595-4.636C93.956,258.094,98.252,260.17,98.252,262.73z"/>
							<path style="fill:#DCE0EF;" d="M96.873,262.73c0,2.561-3.678,4.636-8.214,4.636c-4.537,0-8.215-2.075-8.215-4.636
								c0-2.561,3.678-4.636,8.215-4.636C93.195,258.094,96.873,260.17,96.873,262.73z"/>
						</g>
					</g>
					<g>
						<path style="fill:#C6C8D4;" d="M122.099,263.571c0,2.56-4.294,4.635-9.593,4.635c-5.298,0-9.593-2.076-9.593-4.635
							c0-2.561,4.295-4.635,9.593-4.635C117.805,258.936,122.099,261.01,122.099,263.571z"/>
						<g>
							<path style="fill:#C6C8D4;" d="M121.352,262.73c0,2.561-4.295,4.636-9.593,4.636c-5.3,0-9.594-2.075-9.594-4.636
								c0-2.561,4.295-4.636,9.594-4.636C117.057,258.094,121.352,260.17,121.352,262.73z"/>
							<path style="fill:#DCE0EF;" d="M119.974,262.73c0,2.561-3.678,4.636-8.214,4.636c-4.538,0-8.216-2.075-8.216-4.636
								c0-2.561,3.678-4.636,8.216-4.636C116.296,258.094,119.974,260.17,119.974,262.73z"/>
						</g>
					</g>
					<g>
						<path style="fill:#C6C8D4;" d="M145.2,263.571c0,2.56-4.294,4.635-9.593,4.635c-5.299,0-9.594-2.076-9.594-4.635
							c0-2.561,4.296-4.635,9.594-4.635C140.905,258.936,145.2,261.01,145.2,263.571z"/>
						<g>
							<path style="fill:#C6C8D4;" d="M144.454,262.73c0,2.561-4.297,4.636-9.594,4.636c-5.299,0-9.595-2.075-9.595-4.636
								c0-2.561,4.296-4.636,9.595-4.636C140.157,258.094,144.454,260.17,144.454,262.73z"/>
							<path style="fill:#DCE0EF;" d="M143.074,262.73c0,2.561-3.677,4.636-8.214,4.636c-4.538,0-8.215-2.075-8.215-4.636
								c0-2.561,3.677-4.636,8.215-4.636C139.396,258.094,143.074,260.17,143.074,262.73z"/>
						</g>
					</g>
					<g>
						<path style="fill:#C6C8D4;" d="M168.299,263.571c0,2.56-4.294,4.635-9.593,4.635c-5.298,0-9.594-2.076-9.594-4.635
							c0-2.561,4.296-4.635,9.594-4.635C164.006,258.936,168.299,261.01,168.299,263.571z"/>
						<g>
							<path style="fill:#C6C8D4;" d="M167.554,262.73c0,2.561-4.296,4.636-9.595,4.636c-5.299,0-9.593-2.075-9.593-4.636
								c0-2.561,4.294-4.636,9.593-4.636C163.258,258.094,167.554,260.17,167.554,262.73z"/>
							<path style="fill:#DCE0EF;" d="M166.175,262.73c0,2.561-3.678,4.636-8.215,4.636c-4.537,0-8.215-2.075-8.215-4.636
								c0-2.561,3.678-4.636,8.215-4.636C162.497,258.094,166.175,260.17,166.175,262.73z"/>
						</g>
					</g>
				</g>
				<g>
					<g>
						<path style="fill:#383B44;" d="M165.613,352.359c0,4.351-3.971,7.879-8.867,7.879h-89.62c-4.899,0-8.868-3.527-8.868-7.879
							v-71.676c0-4.349,3.969-7.876,8.868-7.876h89.62c4.896,0,8.867,3.527,8.867,7.876V352.359z"/>
						<path style="fill:#383B44;" d="M155.894,244.34c0,3.963-3.213,7.176-7.176,7.176H76.182c-3.964,0-7.176-3.213-7.176-7.176
							v-65.301c0-3.964,3.212-7.177,7.176-7.177h72.536c3.963,0,7.176,3.213,7.176,7.177V244.34z"/>
						<path style="fill:#8DC9BB;" d="M152.469,241.765c0,3.65-2.96,6.612-6.611,6.612H79.04c-3.651,0-6.61-2.961-6.61-6.612v-60.153
							c0-3.651,2.959-6.611,6.61-6.611h66.818c3.65,0,6.611,2.96,6.611,6.611V241.765z"/>
					</g>
					<g>
						<g>
							<path style="fill:#C6C8D4;" d="M90.694,291.044c0,1.615-1.308,2.923-2.922,2.923H66.217c-1.615,0-2.924-1.308-2.924-2.923
								v-9.255c0-1.613,1.309-2.922,2.924-2.922h21.555c1.614,0,2.922,1.308,2.922,2.922V291.044z"/>
							<path style="fill:#C6C8D4;" d="M89.798,290.148c0,1.615-1.308,2.923-2.922,2.923H65.32c-1.615,0-2.924-1.308-2.924-2.923
								v-9.257c0-1.613,1.308-2.921,2.924-2.921h21.556c1.614,0,2.922,1.308,2.922,2.921V290.148z"/>
							<path style="fill:#DCE0EF;" d="M88.368,289.664c0,1.447-1.173,2.618-2.618,2.618H66.444c-1.446,0-2.617-1.172-2.617-2.618
								v-8.288c0-1.447,1.171-2.616,2.617-2.616h19.305c1.446,0,2.618,1.169,2.618,2.616V289.664z"/>
						</g>
						<g>
							<path style="fill:#C6C8D4;" d="M126.73,291.044c0,1.615-1.308,2.923-2.924,2.923h-21.556c-1.615,0-2.923-1.308-2.923-2.923
								v-9.255c0-1.613,1.308-2.922,2.923-2.922h21.556c1.616,0,2.924,1.308,2.924,2.922V291.044z"/>
							<path style="fill:#C6C8D4;" d="M125.834,290.148c0,1.615-1.31,2.923-2.923,2.923h-21.556c-1.615,0-2.924-1.308-2.924-2.923
								v-9.257c0-1.613,1.309-2.921,2.924-2.921h21.556c1.613,0,2.923,1.308,2.923,2.921V290.148z"/>
							<path style="fill:#DCE0EF;" d="M124.402,289.664c0,1.447-1.171,2.618-2.617,2.618h-19.306c-1.446,0-2.617-1.172-2.617-2.618
								v-8.288c0-1.447,1.171-2.616,2.617-2.616h19.306c1.446,0,2.617,1.169,2.617,2.616V289.664z"/>
						</g>
						<g>
							<path style="fill:#C6C8D4;" d="M162.765,291.044c0,1.615-1.309,2.923-2.922,2.923h-21.557c-1.614,0-2.923-1.308-2.923-2.923
								v-9.255c0-1.613,1.309-2.922,2.923-2.922h21.557c1.613,0,2.922,1.308,2.922,2.922V291.044z"/>
							<path style="fill:#C6C8D4;" d="M161.868,290.148c0,1.615-1.309,2.923-2.922,2.923h-21.557c-1.614,0-2.922-1.308-2.922-2.923
								v-9.257c0-1.613,1.308-2.921,2.922-2.921h21.557c1.613,0,2.922,1.308,2.922,2.921V290.148z"/>
							<path style="fill:#DCE0EF;" d="M160.438,289.664c0,1.447-1.172,2.618-2.618,2.618h-19.306c-1.446,0-2.618-1.172-2.618-2.618
								v-8.288c0-1.447,1.171-2.616,2.618-2.616h19.306c1.446,0,2.618,1.169,2.618,2.616V289.664z"/>
						</g>
						<g>
							<path style="fill:#C6C8D4;" d="M90.694,311.379c0,1.613-1.308,2.921-2.922,2.921H66.217c-1.615,0-2.924-1.308-2.924-2.921
								v-9.257c0-1.613,1.309-2.921,2.924-2.921h21.555c1.614,0,2.922,1.308,2.922,2.921V311.379z"/>
							<path style="fill:#C6C8D4;" d="M89.798,310.483c0,1.613-1.308,2.921-2.922,2.921H65.32c-1.615,0-2.924-1.308-2.924-2.921
								v-9.255c0-1.615,1.308-2.923,2.924-2.923h21.556c1.614,0,2.922,1.308,2.922,2.923V310.483z"/>
							<path style="fill:#DCE0EF;" d="M88.368,309.998c0,1.445-1.173,2.618-2.618,2.618H66.444c-1.446,0-2.617-1.174-2.617-2.618
								v-8.288c0-1.447,1.171-2.618,2.617-2.618h19.305c1.446,0,2.618,1.172,2.618,2.618V309.998z"/>
						</g>
						<g>
							<path style="fill:#C6C8D4;" d="M126.73,311.379c0,1.613-1.308,2.921-2.924,2.921h-21.556c-1.615,0-2.923-1.308-2.923-2.921
								v-9.257c0-1.613,1.308-2.921,2.923-2.921h21.556c1.616,0,2.924,1.308,2.924,2.921V311.379z"/>
							<path style="fill:#C6C8D4;" d="M125.834,310.483c0,1.613-1.31,2.921-2.923,2.921h-21.556c-1.615,0-2.924-1.308-2.924-2.921
								v-9.255c0-1.615,1.309-2.923,2.924-2.923h21.556c1.613,0,2.923,1.308,2.923,2.923V310.483z"/>
							<path style="fill:#DCE0EF;" d="M124.402,309.998c0,1.445-1.171,2.618-2.617,2.618h-19.306c-1.446,0-2.617-1.174-2.617-2.618
								v-8.288c0-1.447,1.171-2.618,2.617-2.618h19.306c1.446,0,2.617,1.172,2.617,2.618V309.998z"/>
						</g>
						<g>
							<path style="fill:#C6C8D4;" d="M162.765,311.379c0,1.613-1.309,2.921-2.922,2.921h-21.557c-1.614,0-2.923-1.308-2.923-2.921
								v-9.257c0-1.613,1.309-2.921,2.923-2.921h21.557c1.613,0,2.922,1.308,2.922,2.921V311.379z"/>
							<path style="fill:#C6C8D4;" d="M161.868,310.483c0,1.613-1.309,2.921-2.922,2.921h-21.557c-1.614,0-2.922-1.308-2.922-2.921
								v-9.255c0-1.615,1.308-2.923,2.922-2.923h21.557c1.613,0,2.922,1.308,2.922,2.923V310.483z"/>
							<path style="fill:#DCE0EF;" d="M160.438,309.998c0,1.445-1.172,2.618-2.618,2.618h-19.306c-1.446,0-2.618-1.174-2.618-2.618
								v-8.288c0-1.447,1.171-2.618,2.618-2.618h19.306c1.446,0,2.618,1.172,2.618,2.618V309.998z"/>
						</g>
						<g>
							<path style="fill:#C6C8D4;" d="M90.694,331.713c0,1.615-1.308,2.923-2.922,2.923H66.217c-1.615,0-2.924-1.308-2.924-2.923
								v-9.257c0-1.616,1.309-2.922,2.924-2.922h21.555c1.614,0,2.922,1.306,2.922,2.922V331.713z"/>
							<path style="fill:#C6C8D4;" d="M89.798,330.815c0,1.615-1.308,2.921-2.922,2.921H65.32c-1.615,0-2.924-1.306-2.924-2.921
								v-9.255c0-1.615,1.308-2.923,2.924-2.923h21.556c1.614,0,2.922,1.308,2.922,2.923V330.815z"/>
							<path style="fill:#DCE0EF;" d="M88.368,330.331c0,1.449-1.173,2.618-2.618,2.618H66.444c-1.446,0-2.617-1.169-2.617-2.618
								v-8.286c0-1.447,1.171-2.621,2.617-2.621h19.305c1.446,0,2.618,1.174,2.618,2.621V330.331z"/>
						</g>
						<g>
							<path style="fill:#C6C8D4;" d="M126.73,331.713c0,1.615-1.308,2.923-2.924,2.923h-21.556c-1.615,0-2.923-1.308-2.923-2.923
								v-9.257c0-1.616,1.308-2.922,2.923-2.922h21.556c1.616,0,2.924,1.306,2.924,2.922V331.713z"/>
							<path style="fill:#C6C8D4;" d="M125.834,330.815c0,1.615-1.31,2.921-2.923,2.921h-21.556c-1.615,0-2.924-1.306-2.924-2.921
								v-9.255c0-1.615,1.309-2.923,2.924-2.923h21.556c1.613,0,2.923,1.308,2.923,2.923V330.815z"/>
							<path style="fill:#DCE0EF;" d="M124.402,330.331c0,1.449-1.171,2.618-2.617,2.618h-19.306c-1.446,0-2.617-1.169-2.617-2.618
								v-8.286c0-1.447,1.171-2.621,2.617-2.621h19.306c1.446,0,2.617,1.174,2.617,2.621V330.331z"/>
						</g>
						<g>
							<path style="fill:#C6C8D4;" d="M162.765,331.713c0,1.615-1.309,2.923-2.922,2.923h-21.557c-1.614,0-2.923-1.308-2.923-2.923
								v-9.257c0-1.616,1.309-2.922,2.923-2.922h21.557c1.613,0,2.922,1.306,2.922,2.922V331.713z"/>
							<path style="fill:#C6C8D4;" d="M161.868,330.815c0,1.615-1.309,2.921-2.922,2.921h-21.557c-1.614,0-2.922-1.306-2.922-2.921
								v-9.255c0-1.615,1.308-2.923,2.922-2.923h21.557c1.613,0,2.922,1.308,2.922,2.923V330.815z"/>
							<path style="fill:#DCE0EF;" d="M160.438,330.331c0,1.449-1.172,2.618-2.618,2.618h-19.306c-1.446,0-2.618-1.169-2.618-2.618
								v-8.286c0-1.447,1.171-2.621,2.618-2.621h19.306c1.446,0,2.618,1.174,2.618,2.621V330.331z"/>
						</g>
						<g>
							<path style="fill:#C6C8D4;" d="M90.694,352.046c0,1.615-1.308,2.924-2.922,2.924H66.217c-1.615,0-2.924-1.308-2.924-2.924
								v-9.255c0-1.613,1.309-2.923,2.924-2.923h21.555c1.614,0,2.922,1.31,2.922,2.923V352.046z"/>
							<path style="fill:#C6C8D4;" d="M89.798,351.15c0,1.615-1.308,2.923-2.922,2.923H65.32c-1.615,0-2.924-1.308-2.924-2.923
								v-9.257c0-1.613,1.308-2.921,2.924-2.921h21.556c1.614,0,2.922,1.308,2.922,2.921V351.15z"/>
							<path style="fill:#DCE0EF;" d="M88.368,350.665c0,1.447-1.173,2.618-2.618,2.618H66.444c-1.446,0-2.617-1.172-2.617-2.618
								v-8.288c0-1.445,1.171-2.616,2.617-2.616h19.305c1.446,0,2.618,1.172,2.618,2.616V350.665z"/>
						</g>
						<g>
							<path style="fill:#C6C8D4;" d="M126.73,352.046c0,1.615-1.308,2.924-2.924,2.924h-21.556c-1.615,0-2.923-1.308-2.923-2.924
								v-9.255c0-1.613,1.308-2.923,2.923-2.923h21.556c1.616,0,2.924,1.31,2.924,2.923V352.046z"/>
							<path style="fill:#C6C8D4;" d="M125.834,351.15c0,1.615-1.31,2.923-2.923,2.923h-21.556c-1.615,0-2.924-1.308-2.924-2.923
								v-9.257c0-1.613,1.309-2.921,2.924-2.921h21.556c1.613,0,2.923,1.308,2.923,2.921V351.15z"/>
							<path style="fill:#DCE0EF;" d="M124.402,350.665c0,1.447-1.171,2.618-2.617,2.618h-19.306c-1.446,0-2.617-1.172-2.617-2.618
								v-8.288c0-1.445,1.171-2.616,2.617-2.616h19.306c1.446,0,2.617,1.172,2.617,2.616V350.665z"/>
						</g>
						<g>
							<path style="fill:#C6C8D4;" d="M162.765,352.046c0,1.615-1.309,2.924-2.922,2.924h-21.557c-1.614,0-2.923-1.308-2.923-2.924
								v-9.255c0-1.613,1.309-2.923,2.923-2.923h21.557c1.613,0,2.922,1.31,2.922,2.923V352.046z"/>
							<path style="fill:#C6C8D4;" d="M161.868,351.15c0,1.615-1.309,2.923-2.922,2.923h-21.557c-1.614,0-2.922-1.308-2.922-2.923
								v-9.257c0-1.613,1.308-2.921,2.922-2.921h21.557c1.613,0,2.922,1.308,2.922,2.921V351.15z"/>
							<path style="fill:#DCE0EF;" d="M160.438,350.665c0,1.447-1.172,2.618-2.618,2.618h-19.306c-1.446,0-2.618-1.172-2.618-2.618
								v-8.288c0-1.445,1.171-2.616,2.618-2.616h19.306c1.446,0,2.618,1.172,2.618,2.616V350.665z"/>
						</g>
					</g>
					<g>
						
							<text transform="matrix(1 0 0 1 89.5723 216.0811)" style="fill:#4C505C; font-family:'CooperHewitt-Medium'; font-size:10.7653px;">APPROVED</text>
						<g>
							<rect x="85.471" y="184.458" style="opacity:0.4;fill:#4C505C;" width="36.628" height="3.588"/>
							<rect x="85.471" y="191.635" style="opacity:0.4;fill:#4C505C;" width="24.82" height="3.588"/>
							<rect x="85.471" y="198.812" style="opacity:0.4;fill:#4C505C;" width="49.641" height="3.588"/>
							<rect x="85.471" y="221.986" style="opacity:0.4;fill:#4C505C;" width="56.219" height="3.589"/>
							<rect x="85.471" y="229.313" style="opacity:0.4;fill:#4C505C;" width="31.997" height="3.588"/>
							<rect x="85.471" y="236.639" style="opacity:0.4;fill:#4C505C;" width="14.055" height="3.587"/>
						</g>
					</g>
				</g>
				<path style="fill:#383B44;" d="M152.469,130.575c0,1.146-0.929,2.074-2.075,2.074H73.753c-1.146,0-2.075-0.928-2.075-2.074l0,0
					c0-1.146,0.929-2.075,2.075-2.075h76.641C151.539,128.5,152.469,129.429,152.469,130.575L152.469,130.575z"/>
				<g>
					<path style="fill:#F2F2F2;" d="M148.408,132.649H77.536c0,0-0.413-19.413,0-25.866c0.225-3.512,1.32-10.266,2.991-13.755
						c1.279-2.671,3.866-6.807,5.588-8.972c4.878-6.129,10.485-8.821,10.485-8.821h71.768c0,0-7.775,2.915-12.333,9.195
						c-1.889,2.6-3.197,4.195-4.6,8c-3.138,8.523-3.027,16.895-3.027,16.895V132.649z"/>
					<rect x="83.368" y="123.08" style="opacity:0.4;fill:#4C505C;" width="59.059" height="1.794"/>
					<rect x="83.368" y="113.511" style="opacity:0.4;fill:#4C505C;" width="41.043" height="1.794"/>
					<rect x="83.368" y="103.943" style="opacity:0.4;fill:#4C505C;" width="48.742" height="1.794"/>
					<rect x="93.684" y="89.29" style="opacity:0.4;fill:#4C505C;" width="48.743" height="1.794"/>
					<rect x="101.646" y="83.701" style="opacity:0.4;fill:#4C505C;" width="27.922" height="1.794"/>
					<rect x="107.739" y="79.59" style="opacity:0.4;fill:#4C505C;" width="27.921" height="1.794"/>
				</g>
			</g>
		</g>
		<g>
			<path style="opacity:0.5;fill:#9DCEB5;" d="M420.452,379.792l-1.854,0.687l-13.529-33.78l-2.529,0.792
				c-0.776-2.217-1.484-4.332-2.092-6.278c-5.454-17.437,12.58-51.68,16.622-71.68c1.277-6.321-2.761-39.688-3.871-48.577
				c0.029-0.824-0.052-1.564-0.276-2.184c-2.118-5.917-14.249-19.4-25.693-29.032c-0.342-0.288-0.684-0.554-1.025-0.805
				c-0.104-0.077-0.208-0.144-0.312-0.218c-0.237-0.167-0.474-0.332-0.71-0.482c-0.127-0.081-0.253-0.153-0.379-0.23
				c-0.213-0.128-0.427-0.255-0.639-0.37c-0.136-0.074-0.27-0.142-0.406-0.211c-0.202-0.103-0.403-0.201-0.605-0.293
				c-0.141-0.065-0.282-0.125-0.422-0.184c-0.192-0.081-0.384-0.156-0.576-0.227c-0.146-0.054-0.291-0.108-0.436-0.156
				c-0.184-0.062-0.366-0.117-0.547-0.17c-0.151-0.044-0.303-0.089-0.452-0.128c-0.17-0.043-0.338-0.08-0.506-0.116
				c-0.161-0.035-0.322-0.073-0.481-0.102c-0.14-0.026-0.277-0.043-0.416-0.064c-1.068-0.162-2.108-0.197-3.112-0.13
				c-0.026,0.002-0.051,0.003-0.077,0.004c-0.263,0.019-0.523,0.046-0.78,0.078c-0.022,0.003-0.045,0.005-0.067,0.008
				c-0.267,0.034-0.528,0.075-0.788,0.121c-0.006,0.002-0.014,0.003-0.021,0.004c-1.334,0.241-2.584,0.635-3.716,1.108
				c-0.127-0.081-0.252-0.156-0.378-0.233c-0.15-0.09-0.299-0.174-0.447-0.259c-0.252-0.142-0.503-0.275-0.752-0.4
				c-0.149-0.074-0.298-0.148-0.447-0.216c-0.26-0.12-0.52-0.227-0.779-0.329c-0.131-0.052-0.263-0.108-0.394-0.156
				c-0.35-0.126-0.698-0.237-1.043-0.333c-0.043-0.012-0.085-0.027-0.127-0.038c-0.374-0.1-0.743-0.18-1.111-0.248
				c-0.132-0.025-0.263-0.041-0.395-0.06c-0.244-0.038-0.488-0.072-0.729-0.096c-0.147-0.015-0.293-0.026-0.44-0.035
				c-0.226-0.016-0.45-0.027-0.674-0.032c-0.144-0.003-0.288-0.006-0.431-0.005c-0.23,0.002-0.459,0.011-0.685,0.024
				c-0.128,0.007-0.255,0.011-0.381,0.021c-0.299,0.023-0.593,0.057-0.886,0.097c-0.048,0.007-0.098,0.01-0.146,0.018
				c-0.337,0.05-0.667,0.111-0.992,0.181c-0.113,0.024-0.223,0.052-0.335,0.079c-0.217,0.051-0.431,0.103-0.642,0.161
				c-0.124,0.034-0.244,0.07-0.366,0.106c-0.197,0.059-0.392,0.12-0.585,0.185c-0.116,0.039-0.232,0.078-0.346,0.118
				c-0.203,0.073-0.4,0.148-0.596,0.225c-0.094,0.037-0.19,0.073-0.282,0.111c-0.265,0.109-0.523,0.221-0.774,0.337
				c-0.019,0.009-0.039,0.017-0.059,0.026c-0.275,0.128-0.54,0.259-0.799,0.393c-0.014,0.008-0.03,0.014-0.044,0.022
				c0.002,0,0.003-0.001,0.005-0.001c-0.491,0.255-0.948,0.516-1.374,0.776c-0.031-0.017-0.063-0.033-0.095-0.05
				c-0.064-0.035-0.128-0.064-0.192-0.098c-0.257-0.133-0.513-0.257-0.768-0.372c-0.095-0.043-0.19-0.084-0.284-0.125
				c-0.261-0.111-0.522-0.215-0.781-0.308c-0.054-0.02-0.11-0.043-0.164-0.062c-0.31-0.108-0.619-0.203-0.926-0.287
				c-0.08-0.022-0.159-0.041-0.239-0.061c-0.239-0.061-0.477-0.116-0.714-0.164c-0.084-0.017-0.169-0.035-0.253-0.05
				c-0.304-0.055-0.607-0.104-0.907-0.139c-0.005-0.001-0.011-0.001-0.016-0.002c-0.296-0.034-0.59-0.055-0.881-0.071
				c-0.081-0.004-0.161-0.007-0.241-0.01c-0.237-0.008-0.471-0.011-0.704-0.008c-0.063,0.001-0.127,0-0.189,0.002
				c-0.29,0.007-0.578,0.023-0.862,0.047c-0.049,0.004-0.096,0.01-0.145,0.014c-0.239,0.022-0.475,0.051-0.708,0.083
				c-0.074,0.011-0.147,0.021-0.221,0.033c-0.246,0.038-0.49,0.081-0.731,0.13c-0.029,0.006-0.058,0.011-0.087,0.016
				c-0.271,0.057-0.538,0.12-0.801,0.188c-0.06,0.015-0.118,0.033-0.179,0.048c-0.023,0.006-0.047,0.013-0.069,0.019
				c-3.693-6.835-7.464-12.681-11.87-19.838c-10.175-16.528-17.985-21.529-43.74-25.338c-4.878-0.72-23.589-1.307-33.635-0.147
				c-0.01,0.001-0.019,0.002-0.03,0.003c-0.339,0.039-0.667,0.081-0.987,0.125c-0.034,0.005-0.072,0.009-0.107,0.014
				c-0.309,0.043-0.604,0.088-0.891,0.135c-0.038,0.006-0.081,0.012-0.12,0.018c-0.276,0.046-0.538,0.096-0.792,0.146
				c-0.042,0.008-0.089,0.015-0.13,0.024c-0.233,0.047-0.448,0.097-0.66,0.148c-0.054,0.013-0.115,0.025-0.167,0.037
				c-0.258,0.064-0.5,0.132-0.723,0.202c-0.547,0.172-1.071,0.35-1.574,0.532c-0.187,0.068-0.356,0.141-0.537,0.21
				c-0.307,0.118-0.619,0.235-0.909,0.357c-0.154,0.065-0.291,0.133-0.441,0.199c-0.298,0.132-0.599,0.263-0.877,0.399
				c-0.114,0.055-0.215,0.114-0.325,0.17c-0.298,0.151-0.595,0.302-0.872,0.457c-0.074,0.042-0.14,0.085-0.212,0.127
				c-0.299,0.173-0.591,0.347-0.864,0.524c-0.046,0.029-0.084,0.06-0.129,0.089c-0.289,0.192-0.57,0.385-0.831,0.581
				c-0.031,0.023-0.059,0.048-0.09,0.072c-0.266,0.203-0.521,0.408-0.757,0.615c-0.026,0.022-0.048,0.046-0.075,0.069
				c-0.234,0.208-0.458,0.418-0.665,0.629c-0.003,0.003-0.006,0.005-0.01,0.008c0,0,0,0.001,0.001,0.001
				c-5.428,5.553-1.506,12.061,0.972,12.352c4.809,0.565,19.036,1.896,30.438,3.122c5.598,0.602,10.149,1.235,14.156,2.423
				l-120.347-12.32l0.15-1.463c0.07-0.718-0.448-1.359-1.165-1.431l-11.797-1.209c-0.717-0.073-1.357,0.448-1.432,1.167l-0.15,1.463
				l-2.939-0.301l0.149-1.463c0.074-0.719-0.449-1.359-1.165-1.433l-11.797-1.206c-0.717-0.073-1.357,0.448-1.431,1.165l-0.15,1.463
				l-35.144-3.598c-1.251-0.129-2.46,0.052-3.563,0.467c0.001-0.001,0.001-0.001,0.001-0.001c-0.002,0.001-0.004,0.002-0.007,0.003
				c-0.664,0.25-1.286,0.588-1.853,1.001c-0.018,0.013-0.036,0.026-0.053,0.039c-0.551,0.408-1.048,0.885-1.477,1.423
				c-0.03,0.038-0.059,0.078-0.088,0.116c-0.177,0.23-0.341,0.471-0.492,0.721c-0.03,0.049-0.061,0.097-0.091,0.147
				c-0.162,0.284-0.31,0.579-0.438,0.886c-0.021,0.052-0.038,0.107-0.059,0.16c-0.099,0.256-0.186,0.519-0.259,0.788
				c-0.023,0.089-0.047,0.177-0.068,0.266c-0.077,0.326-0.141,0.658-0.175,1.001L78.387,255.101
				c-0.444,4.319,2.702,8.177,7.022,8.619l41.82,4.281l-0.143,1.385c-0.111,1.093,0.683,2.068,1.774,2.179l17.945,1.837
				c1.091,0.113,2.064-0.681,2.176-1.773l0.142-1.385l61.529,6.299c-3.698,4.895-3.304,11.376-1.518,13.207
				c7.703,4.607,25.711,14.246,31.216,17.863c5.506,3.611,45.575,0.476,75.277,41.234c1.693,2.324,3.96,4.831,6.233,9.565
				c1.254,3.465,2.679,7.994,4.16,13.034l-5.402,1.69l10.686,39.666l-2.73,1.011L345.455,500h38.791h83.245L420.452,379.792z
				 M310.457,227.293c-1.292,18.711-3.331,28.666-9.288,36.85c-0.283,0.275-0.563,0.551-0.859,0.817l7.603-74.27
				C311.852,204.701,310.496,220.182,310.457,227.293z"/>
			<g>
				<g>
					<g>
						<path style="fill:#E8E8E8;" d="M155.848,140.215c0.716,0.074,1.239,0.714,1.165,1.433l-0.299,2.921
							c-0.075,0.718-0.715,1.239-1.434,1.166l-11.792-1.206c-0.717-0.073-1.241-0.715-1.168-1.432l0.301-2.922
							c0.074-0.717,0.714-1.238,1.431-1.165L155.848,140.215z"/>
						<path style="fill:#E8E8E8;" d="M173.182,141.991c0.717,0.072,1.235,0.714,1.165,1.431l-0.299,2.92
							c-0.075,0.719-0.715,1.24-1.43,1.167l-11.798-1.207c-0.718-0.074-1.241-0.714-1.166-1.433l0.299-2.921
							c0.075-0.719,0.715-1.239,1.432-1.167L173.182,141.991z"/>
						<path style="fill:#E8E8E8;" d="M157.497,257.359c1.091,0.111,1.886,1.086,1.774,2.177l-0.457,4.445
							c-0.112,1.093-1.085,1.887-2.176,1.773l-17.945-1.837c-1.091-0.111-1.885-1.086-1.774-2.179l0.457-4.445
							c0.112-1.088,1.086-1.884,2.177-1.771L157.497,257.359z"/>
						<g>
							<path style="fill:#FFFFFF;" d="M312.297,159.022c4.322,0.443,7.469,4.301,7.026,8.622l-10.484,102.398
								c-0.441,4.317-4.303,7.458-8.626,7.016L95.242,256.072c-4.32-0.442-7.466-4.299-7.022-8.62l10.484-102.396
								c0.442-4.321,4.302-7.46,8.621-7.018L312.297,159.022z"/>
							<path style="fill:#E8E8E8;" d="M304.512,273.155L99.539,252.171c-4.322-0.444-7.465-4.305-7.021-8.626L103,141.152
								c0.097-0.951,0.367-1.836,0.764-2.647c-2.704,1.017-4.747,3.483-5.06,6.552L88.22,247.453
								c-0.444,4.32,2.702,8.178,7.022,8.62l204.972,20.986c3.37,0.346,6.453-1.496,7.859-4.372
								C306.971,273.102,305.763,273.283,304.512,273.155z"/>
							
								<rect x="146.836" y="117.576" transform="matrix(0.1018 -0.9948 0.9948 0.1018 -27.7315 383.278)" style="fill:#474747;" width="103.118" height="178.842"/>
							<polygon style="fill:#E8E8E8;" points="202.025,163.138 192.881,251.786 178.353,250.12 187.499,161.474 							"/>
							<polygon style="fill:#52ABE8;" points="183.697,198.685 178.353,250.12 192.881,251.786 198.235,200.242 							"/>
							<polygon style="fill:#2B2B2B;" points="114.613,147.343 291.712,165.474 281.283,267.31 282.1,267.396 292.602,164.813 
								114.691,146.599 							"/>
							<path style="fill:#5B5B5B;" d="M106.596,146.856c1.53,0.158,2.64,1.524,2.486,3.055c-0.157,1.528-1.525,2.644-3.054,2.487
								c-1.533-0.156-2.646-1.526-2.49-3.055C103.697,147.812,105.062,146.699,106.596,146.856z"/>
							<path style="fill:#5B5B5B;" d="M105.881,153.802c0.62,0.063,1.073,0.617,1.012,1.235c-0.065,0.618-0.62,1.071-1.242,1.007
								c-0.617-0.062-1.069-0.619-1.004-1.237C104.709,154.189,105.264,153.739,105.881,153.802z"/>
							<g>
								
									<linearGradient id="SVGID_1_" gradientUnits="userSpaceOnUse" x1="351.8744" y1="-31.3481" x2="382.5465" y2="-31.3481" gradientTransform="matrix(0.1018 -0.9948 0.9948 0.1018 294.9681 586.0112)">
									<stop  offset="0" style="stop-color:#FFFFFF;stop-opacity:0.9"/>
									<stop  offset="1" style="stop-color:#FFFFFF;stop-opacity:0"/>
								</linearGradient>
								<path style="fill:url(#SVGID_1_);" d="M302.728,202.263c3.025,0.31,5.226,3.014,4.916,6.042l-2,19.552
									c-0.314,3.026-3.015,5.226-6.04,4.919l0,0c-3.028-0.312-5.227-3.013-4.918-6.041l2.002-19.551
									C296.997,204.155,299.699,201.953,302.728,202.263L302.728,202.263z"/>
								<path style="fill:#8C8C8C;" d="M307.9,208.331l-2.002,19.551c-0.323,3.161-3.158,5.471-6.32,5.149
									c-3.166-0.324-5.48-3.161-5.156-6.325l2.002-19.551c0.324-3.164,3.167-5.476,6.327-5.151
									C305.918,202.327,308.225,205.165,307.9,208.331z M294.943,226.76c-0.296,2.879,1.807,5.459,4.686,5.755
									c2.878,0.294,5.46-1.807,5.754-4.684l2.002-19.553c0.296-2.879-1.807-5.461-4.684-5.755
									c-2.881-0.296-5.462,1.807-5.756,4.686L294.943,226.76z"/>
							</g>
						</g>
					</g>
					<g>
						<g>
							<path style="fill:#FABB86;" d="M410.28,333.564c-5.454-17.437,12.58-51.68,16.622-71.681
								c1.277-6.321-2.761-39.688-3.871-48.576c0.029-0.824-0.052-1.564-0.276-2.184c-2.118-5.917-14.249-19.4-25.693-29.031
								c-11.446-9.633-22.828,1.491-22.828,1.491s5.988,23.374,14.502,37.801c-22.491,7.63-48.961,18.524-55.275,29.222
								c-11.459,19.416-22.494,16.248-22.494,16.248l61.364,135.343l54.819-24.859C423.274,368.166,414.46,346.933,410.28,333.564z"
								/>
							<path style="fill:#FFC69C;" d="M410.28,333.564c-5.454-17.437,12.58-51.68,16.622-71.681
								c1.277-6.321-2.761-39.688-3.871-48.576c0.029-0.824-0.052-1.564-0.276-2.184c-2.118-5.917-14.249-19.4-25.693-29.031
								c-5.129-4.319-10.242-4.459-14.327-3.308c3.537-0.121,7.491,0.971,11.276,4.632c10.751,10.399,21.916,24.689,23.619,30.738
								c0.181,0.636,0.215,1.383,0.125,2.199c0.494,8.943,2.213,42.513,0.499,48.73c-5.416,19.671-25.773,52.588-21.544,70.355
								c3.247,13.623,10.567,35.419,13.803,44.841l-41.17,15.326l2.989,6.592l54.819-24.859
								C423.274,368.166,414.46,346.933,410.28,333.564z"/>
							<path style="fill:#FABB86;" d="M262.895,272.21c-44.74-23.691-48.075,5.642-43.928,9.893
								c7.703,4.607,25.711,14.246,31.216,17.863c5.506,3.611,45.575,0.476,75.277,41.235c2.232,3.062,5.463,6.44,8.391,14.831
								l-16.097-110.826C312.761,267.041,271.456,273.956,262.895,272.21z"/>
							<path style="fill:#FABB86;" d="M368.162,305.609c-11.936-16.254-45.231-44.479-47.565-44.795
								c-0.18-0.025-0.353-0.094-0.531-0.134l-22.55,45.098c10.66,11.927,28.137,31.107,32.577,40.955
								c5.894,13.066,18.648,66.157,18.648,66.157l0.01-0.002l39.311-17.825C386.232,379.685,378.545,319.748,368.162,305.609z"/>
							<path style="fill:#FABB86;" d="M359.764,182.5c0,0,11.387-11.123,22.83-1.494c11.445,9.634,23.573,23.118,25.692,29.035
								c2.116,5.915-7.611,22.56-21.965,21.334C371.964,230.153,359.764,182.5,359.764,182.5z"/>
							<path style="fill:#FFC69C;" d="M408.241,209.929c-2.221-5.969-14.272-19.349-25.647-28.923
								c-6.857-5.77-13.69-4.09-18.069-1.815c3.796-0.695,9.904-0.29,14.414,3.501C388.513,190.753,408.241,209.929,408.241,209.929
								z"/>
							<path style="fill:#FABB86;" d="M343.394,183.57c0,0,11.387-11.123,22.831-1.493c11.441,9.633,23.577,23.117,25.689,29.033
								c2.118,5.917-7.608,22.56-21.962,21.338C355.594,231.219,343.394,183.57,343.394,183.57z"/>
							<path style="fill:#FFC69C;" d="M391.778,210.759c-2.443-6.079-14.326-19.235-25.552-28.682
								c-8.312-6.993-16.588-3.044-20.499-0.356c4.387-2.132,10.96-3.474,17.553,2.075
								C373.081,192.042,391.778,210.759,391.778,210.759z"/>
							<path style="fill:#FABB86;" d="M304.138,281.926c0,0,3.778-21.202,6.83-25.38c5.985-8.195,8.028-18.152,9.322-36.901
								c0.054-9.717,2.578-35.058-9.322-50.924c-8.823-10.731-16.335-12.408-30.58-13.939c-11.402-1.225-25.629-2.556-30.438-3.122
								c-3.317-0.39-9.235-11.929,8.195-17.392c7.108-2.228,32.446-1.561,38.243-0.705c25.755,3.808,33.565,8.81,43.74,25.338
								c8.236,13.378,14.255,22.137,21.682,41.44c7.404,18.98,6.141,20.414,11.846,41.268c5.703,20.855-29.968,47.389-47.135,42.02
								C309.355,278.262,304.138,281.926,304.138,281.926z"/>
							<g>
								<g>
									<g>
										<path style="fill:#FFC69C;" d="M361.809,200.341c-7.427-19.303-13.446-28.062-21.682-41.44
											c-10.175-16.528-17.985-21.53-43.74-25.338c-5.797-0.856-31.135-1.523-38.243,0.705c-8.9,2.79-11.706,7.162-11.885,10.827
											c1.79-2.099,4.835-4.099,9.703-5.625c7.108-2.228,32.446-1.561,38.243-0.705c25.755,3.808,33.565,8.809,43.74,25.338
											c8.236,13.378,19.152,27.353,26.58,46.656c1.492,3.823,2.426,6.712,3.025,9.076l1.64,3.863
											C367.595,216.88,366.285,211.815,361.809,200.341z"/>
									</g>
									<g>
										<path style="fill:#FFC69C;" d="M313.885,251.805c-0.854,1.668-1.817,3.236-2.917,4.741
											c-0.712,0.974-1.463,2.882-2.197,5.225c0.004-0.007,0.01-0.017,0.015-0.023
											C310.954,258.779,312.599,255.571,313.885,251.805z"/>
									</g>
								</g>
							</g>
							<g>
								<g>
									<polygon style="fill:#FFFFFF;" points="429.762,376.158 414.901,339.05 330.451,365.49 343.822,415.124 									"/>
								</g>
								<g>
									<polygon style="fill:#EFEFEF;" points="330.451,365.49 343.822,415.124 360.459,407.578 345.781,360.69 									"/>
								</g>
								<g>
									<polygon style="fill:#565656;" points="485.367,500 430.285,372.143 338.406,406.167 374.159,500 									"/>
								</g>
								<g>
									<polygon style="fill:#444444;" points="402.122,500 362.093,397.397 338.406,406.167 363.49,500 									"/>
								</g>
							</g>
						</g>
						<path style="fill:#F4D0AE;" d="M248.977,139.308c0.537,0.734,1.202,1.299,1.96,1.568c2.13,0.76,4.261,1.561,13.773,0.486
							c1.515-2.542,1.82-5.634,1.7-8.27c-3.513,0.237-6.47,0.615-8.265,1.177C253.731,135.651,250.818,137.426,248.977,139.308z"/>
						<path style="fill:#F4D0AE;" d="M222.178,283.977c0,0,0.708-6.308,6.696-12.646c11.452,3.237,14.262,5.22,16.305,9.739
							c2.037,4.526-4.211,13.457-5.18,12.913C238.871,293.349,222.178,283.977,222.178,283.977z"/>
					</g>
				</g>
				<g>
					<g>
						<path style="fill:#E8E8E8;" d="M173.245,159.983c1.375,0.145,2.371,1.373,2.227,2.747l-8.697,83.009
							c-0.144,1.373-1.375,2.37-2.749,2.226l-48.153-5.044c-1.375-0.145-2.372-1.374-2.227-2.749l8.696-83.008
							c0.145-1.373,1.375-2.369,2.748-2.227L173.245,159.983z"/>
					</g>
					<path style="fill:#FFC522;" d="M134.888,214.77c-5.533-0.579-10.503,3.449-11.082,8.981h-0.001l0,0l0,0
						c-0.578,5.53,3.45,10.502,8.981,11.083c5.531,0.579,10.503-3.451,11.084-8.983l0,0l0,0l0,0
						C144.448,220.32,140.419,215.349,134.888,214.77z M142.671,225.725c0,0.002,0,0.002,0,0.002
						c-0.049,0.465-0.361,0.918-0.879,1.321l0.292-2.796C142.508,224.754,142.719,225.262,142.671,225.725z M142.245,222.724
						l0.063-0.586c0.086,0.271,0.155,0.546,0.217,0.825C142.435,222.883,142.338,222.805,142.245,222.724z M141.954,228.398
						c-0.116,0.261-0.243,0.517-0.382,0.763l0.06-0.587C141.74,228.516,141.851,228.458,141.954,228.398z M140.503,227.775
						c-0.677,0.283-1.503,0.508-2.434,0.655l0.66-6.303c0.882,0.338,1.641,0.729,2.249,1.145L140.503,227.775z M136.843,228.574
						c-0.863,0.068-1.803,0.069-2.797-0.005l0.778-7.408c0.988,0.133,1.904,0.328,2.737,0.573L136.843,228.574z M133.514,233.666
						l0.408-3.9c0.971,0.075,1.908,0.079,2.796,0.023l-0.369,3.527C135.447,233.584,134.492,233.702,133.514,233.666z
						 M125.004,223.875L125.004,223.875c0.049-0.465,0.361-0.918,0.879-1.323l-0.292,2.8
						C125.166,224.848,124.954,224.342,125.004,223.875z M125.43,226.877l-0.062,0.589c-0.085-0.27-0.156-0.548-0.216-0.828
						C125.238,226.718,125.335,226.798,125.43,226.877z M125.719,221.205c0.118-0.264,0.244-0.519,0.385-0.767l-0.062,0.589
						C125.935,221.087,125.822,221.143,125.719,221.205z M127.171,221.824c0.679-0.282,1.502-0.505,2.431-0.652l-0.658,6.303
						c-0.882-0.337-1.64-0.728-2.245-1.146L127.171,221.824z M130.831,221.027c0.864-0.066,1.803-0.067,2.797,0.007l-0.778,7.409
						c-0.988-0.132-1.906-0.329-2.738-0.573L130.831,221.027z M134.16,215.934l-0.407,3.901c-0.973-0.074-1.91-0.082-2.797-0.024
						l0.37-3.526C132.227,216.018,133.181,215.899,134.16,215.934z M132.724,229.641l-0.408,3.901
						c-0.966-0.169-1.875-0.482-2.699-0.931l0.367-3.527C130.84,229.322,131.758,229.51,132.724,229.641z M134.948,219.963
						l0.41-3.902c0.967,0.168,1.876,0.482,2.701,0.928l-0.37,3.529C136.833,220.278,135.914,220.091,134.948,219.963z
						 M130.063,216.773l-0.329,3.159c-0.885,0.122-1.698,0.309-2.424,0.556l0.202-1.907
						C128.245,217.833,129.111,217.223,130.063,216.773z M126.357,229.577l0.202-1.908c0.656,0.393,1.415,0.745,2.256,1.044
						l-0.333,3.159C127.645,231.235,126.922,230.459,126.357,229.577z M137.609,232.827l0.332-3.157
						c0.882-0.119,1.697-0.308,2.423-0.555l-0.201,1.905C139.427,231.768,138.563,232.378,137.609,232.827z M141.316,220.028
						l-0.199,1.906c-0.659-0.391-1.419-0.743-2.257-1.045l0.331-3.159C140.03,218.368,140.749,219.143,141.316,220.028z"/>
					<g>
						<g>
							
								<rect x="116.424" y="188.734" transform="matrix(0.1042 -0.9946 0.9946 0.1042 -62.9452 308.1906)" style="fill:#455677;" width="46.37" height="0.607"/>
						</g>
						<g>
							
								<rect x="112.232" y="186.776" transform="matrix(0.1042 -0.9946 0.9946 0.1042 -66.2698 303.6192)" style="fill:#455677;" width="46.37" height="3.646"/>
						</g>
						<g>
							
								<rect x="137.434" y="224.678" transform="matrix(0.1041 -0.9946 0.9946 0.1041 -90.2556 349.7663)" style="fill:#455677;" width="23.165" height="0.606"/>
						</g>
						<g>
							
								<rect x="140.455" y="224.995" transform="matrix(0.1041 -0.9946 0.9946 0.1041 -87.8675 353.049)" style="fill:#455677;" width="23.166" height="0.607"/>
						</g>
						<g>
							
								<rect x="143.477" y="225.311" transform="matrix(0.1042 -0.9946 0.9946 0.1042 -85.487 356.3145)" style="fill:#455677;" width="23.166" height="0.606"/>
						</g>
						<g>
							
								<rect x="140.481" y="218.948" transform="matrix(0.1042 -0.9946 0.9946 0.1042 -75.8183 354.3293)" style="fill:#455677;" width="36.599" height="0.607"/>
						</g>
						<g>
							
								<rect x="143.503" y="219.263" transform="matrix(0.1042 -0.9946 0.9946 0.1042 -73.4248 357.6184)" style="fill:#455677;" width="36.598" height="0.608"/>
						</g>
					</g>
				</g>
			</g>
		</g>
	</g>
</g>
</svg>
