<?xml version="1.0" encoding="utf-8"?>
<!-- Generator: Adobe Illustrator 27.5.0, SVG Export Plug-In . SVG Version: 6.00 Build 0)  -->
<svg version="1.1" xmlns="http://www.w3.org/2000/svg" xmlns:xlink="http://www.w3.org/1999/xlink" x="0px" y="0px"
	 viewBox="0 0 3710 3710" style="enable-background:new 0 0 3710 3710;" xml:space="preserve">
<g id="Background">
	<g>
		<g>
			<rect style="fill:#FFFFFF;" width="3710" height="3710"/>
		</g>
	</g>
</g>
<g id="Illustration">
	<g>
		<linearGradient id="SVGID_1_" gradientUnits="userSpaceOnUse" x1="3574.6462" y1="4037.7146" x2="1118.999" y2="987.9546">
			<stop  offset="0" style="stop-color:#B37CFF"/>
			<stop  offset="1" style="stop-color:#F895E7"/>
		</linearGradient>
		<path style="opacity:0.3;fill:url(#SVGID_1_);" d="M2899.082,2835c-56.405,59.381-109.775,97.675-151.942,127.93
			c-495.661,355.642-1082.16,251.974-1206.807,226.657c-184.065-37.385-539.859-109.648-797.092-412.149
			c-389.172-457.658-328.572-1178.685-26.704-1654.645c55.216-87.061,346.885-570.271,939.701-647.763
			c358.766-46.897,776.971,47.689,1079.824,301.419C3371.777,1309.053,3326.521,2385.006,2899.082,2835z"/>
		<g>
			
				<linearGradient id="SVGID_00000101795863697240050060000013670759638195308688_" gradientUnits="userSpaceOnUse" x1="-938.5711" y1="2831.8057" x2="-383.2591" y2="1165.8649" gradientTransform="matrix(-1 0 0 1 1155.7772 0)">
				<stop  offset="0" style="stop-color:#2B3582"/>
				<stop  offset="1" style="stop-color:#150E42"/>
			</linearGradient>
			<path style="fill:url(#SVGID_00000101795863697240050060000013670759638195308688_);" d="M660.487,2892.241
				c0,23.891,19.566,43.438,43.48,43.438h2351.241c23.914,0,43.48-19.547,43.48-43.438l19.565-1351.193
				c0-23.891-28.148-70.533-79.734-67.028l-2297.892-59.458c-30.005-0.776-59.017,10.772-80.265,31.951
				c-21.248,21.179-32.874,50.136-32.165,80.113L660.487,2892.241z"/>
			
				<linearGradient id="SVGID_00000110465176172697112050000012246168273518189473_" gradientUnits="userSpaceOnUse" x1="2806.729" y1="1353.1857" x2="781.3643" y2="3131.4099">
				<stop  offset="0" style="stop-color:#A737D5"/>
				<stop  offset="1" style="stop-color:#EF497A"/>
			</linearGradient>
			<path style="fill:url(#SVGID_00000110465176172697112050000012246168273518189473_);" d="M703.414,2850.567
				c0,22.624,18.511,41.135,41.135,41.135h2253.958c22.625,0,41.135-18.511,41.135-41.135l18.462-1226.625
				c-2.175-73.816-66.89-100.345-106.119-98.779l-2202.32-59.085c-21.08-0.566-41.461,7.556-56.392,22.448
				c-14.93,14.892-23.141,35.273-22.613,56.354L703.414,2850.567z"/>
			<g>
				<path style="fill:#FFFFFF;" d="M3015.287,2267.834c-0.03,0-0.06,0-0.09,0c-3.331-0.048-5.99-2.786-5.939-6.119l1.459-99.477
					c0.048-3.298,2.738-5.939,6.023-5.939c0.03,0,0.06,0,0.09,0c3.331,0.048,5.99,2.786,5.939,6.119l-1.459,99.477
					C3021.262,2265.192,3018.572,2267.834,3015.287,2267.834z"/>
				<path style="fill:#FFFFFF;" d="M3018.867,2024.063c-0.03,0-0.06,0-0.09,0c-3.331-0.048-5.99-2.792-5.939-6.12l5.593-381
					c-0.105-22.631-6.974-40.701-20.419-53.584c-25.098-24.045-64.944-22.817-66.623-22.739l-703.91-18.876
					c-3.327-0.084-5.954-2.858-5.864-6.186c0.087-3.328,2.645-6.162,6.189-5.861l703.492,18.876
					c4.378-0.259,46.802-0.993,75.056,26.079c15.895,15.23,24.015,36.212,24.135,62.351l-5.596,381.121
					C3024.842,2021.422,3022.152,2024.063,3018.867,2024.063z"/>
			</g>
			
				<linearGradient id="SVGID_00000096044977036602266570000013711371364422888066_" gradientUnits="userSpaceOnUse" x1="353.9706" y1="2732.1194" x2="-2119.8037" y2="3333.8479" gradientTransform="matrix(-1 0 0 1 1155.7772 0)">
				<stop  offset="0" style="stop-color:#2B3582"/>
				<stop  offset="1" style="stop-color:#150E42"/>
			</linearGradient>
			<path style="fill:url(#SVGID_00000096044977036602266570000013711371364422888066_);" d="M475.398,3047.845H3236.11
				c3.109,0,5.654-2.544,5.654-5.654v-107.413c0-3.11-2.544-5.654-5.654-5.654H475.398c-3.109,0-5.654,2.544-5.654,5.654v107.413
				C469.744,3045.301,472.288,3047.845,475.398,3047.845z"/>
		</g>
		<g>
			
				<linearGradient id="SVGID_00000168094208774267248950000017838273230259131523_" gradientUnits="userSpaceOnUse" x1="2084.7212" y1="13.6085" x2="1349.0227" y2="5368.5596">
				<stop  offset="0" style="stop-color:#53D8FF"/>
				<stop  offset="0.2057" style="stop-color:#4DB9FD"/>
				<stop  offset="1" style="stop-color:#3840F7"/>
			</linearGradient>
			<path style="fill:url(#SVGID_00000168094208774267248950000017838273230259131523_);" d="M2611.697,479.474l-1631.585-9.989
				c-53.621-0.329-96.506,44.46-93.851,98.017l112.249,2318.093h1815.65l100.812-2071.092L2611.697,479.474z"/>
			
				<linearGradient id="SVGID_00000167377720440548575860000003005438519879805584_" gradientUnits="userSpaceOnUse" x1="2894.594" y1="462.428" x2="3527.7791" y2="-417.9997">
				<stop  offset="0" style="stop-color:#53D8FF"/>
				<stop  offset="0.2057" style="stop-color:#4DB9FD"/>
				<stop  offset="1" style="stop-color:#3840F7"/>
			</linearGradient>
			<path style="fill:url(#SVGID_00000167377720440548575860000003005438519879805584_);" d="M2679.542,804.573
				c-53.148-1.87-94.009-47.677-89.82-100.693l17.491-221.352l308.08,330.616L2679.542,804.573z"/>
			<g>
				<path style="opacity:0.39;fill:#FFFFFF;" d="M2619.313,1656.179H1203.955c-42.703,0-77.68-19.512-78.98-44.059l-29.573-558.273
					c-1.358-25.627,34.398-46.826,78.98-46.826h1444.931c43.64,0,79.017,20.345,79.017,45.442v558.273
					C2698.33,1635.834,2662.953,1656.179,2619.313,1656.179z"/>
				<path style="fill:#FFFFFF;" d="M2617.042,1661.172H1201.684c-45.635,0-82.518-21.43-83.968-48.789l-29.573-558.272
					c-0.501-9.475,3.275-18.744,10.923-26.807c14.788-15.591,42.776-25.277,73.043-25.277h1444.932
					c47.108,0,84.01,22.155,84.01,50.435v558.274C2701.052,1639.018,2664.15,1661.172,2617.042,1661.172z M1172.11,1012.015
					c-27.619,0-52.831,8.491-65.797,22.161c-5.796,6.113-8.555,12.641-8.195,19.408l29.573,558.272
					c1.148,21.688,34.342,39.33,73.994,39.33h1415.358c40.125,0,74.023-18.523,74.023-40.449v-558.274
					c0-21.925-33.898-40.449-74.023-40.449H1172.11z"/>
				
					<rect x="1183.046" y="1324.381" transform="matrix(0.0049 -1 1 0.0049 173.1181 2832.7148)" style="fill:#FFFFFF;" width="653.618" height="9.987"/>
				
					<rect x="2015.272" y="1324.381" transform="matrix(0.0049 -1 1 0.0049 1001.2778 3664.9312)" style="fill:#FFFFFF;" width="653.618" height="9.987"/>
				
					<rect x="2098.78" y="595.569" transform="matrix(0.0049 -1 1 0.0049 905.6222 3285.7927)" style="fill:#FFFFFF;" width="9.987" height="1184.586"/>
				<rect x="1508.222" y="1436.726" style="fill:#FFFFFF;" width="1187.72" height="9.987"/>
			</g>
			<g>
				<path style="opacity:0.39;fill:#FFFFFF;" d="M2621.735,2741.391H1206.377c-42.703,0-77.68-19.512-78.98-44.059l-29.573-558.273
					c-1.358-25.627,34.398-46.826,78.98-46.826h1444.931c43.64,0,79.017,20.345,79.017,45.442v558.273
					C2700.752,2721.046,2665.375,2741.391,2621.735,2741.391z"/>
				<path style="fill:#FFFFFF;" d="M2619.464,2746.385H1204.106c-45.635,0-82.518-21.43-83.968-48.789l-29.573-558.272
					c-0.501-9.475,3.275-18.745,10.923-26.807c14.788-15.591,42.776-25.277,73.045-25.277h1444.931
					c47.108,0,84.01,22.155,84.01,50.435v558.274C2703.474,2724.23,2666.572,2746.385,2619.464,2746.385z M1174.533,2097.227
					c-27.621,0-52.833,8.491-65.799,22.163c-5.796,6.112-8.555,12.641-8.195,19.406l29.573,558.272
					c1.147,21.688,34.342,39.331,73.994,39.331h1415.358c40.125,0,74.024-18.523,74.024-40.449v-558.274
					c0-21.925-33.898-40.448-74.024-40.448H1174.533z"/>
				
					<rect x="1185.467" y="2409.594" transform="matrix(0.0049 -1 1 0.0049 -909.6713 3915.0461)" style="fill:#FFFFFF;" width="653.618" height="9.987"/>
				
					<rect x="2017.694" y="2409.594" transform="matrix(0.0049 -1 1 0.0049 -81.5117 4747.2627)" style="fill:#FFFFFF;" width="653.618" height="9.987"/>
				
					<rect x="2101.201" y="1680.782" transform="matrix(0.0049 -1 1 0.0049 -177.167 4368.1128)" style="fill:#FFFFFF;" width="9.987" height="1184.586"/>
				<rect x="1510.644" y="2521.938" style="fill:#FFFFFF;" width="1187.722" height="9.987"/>
			</g>
			<path style="opacity:0.55;fill:#FFFFFF;" d="M2541.145,896.586H1218.454c-4.285,0-7.758-3.473-7.758-7.758v-99.383
				c0-4.284,3.473-7.758,7.758-7.758h1322.691c4.284,0,7.758,3.473,7.758,7.758v99.383
				C2548.903,893.113,2545.43,896.586,2541.145,896.586z"/>
			<path style="opacity:0.42;fill:#FFFFFF;" d="M2671.491,1850.965H1136.046c-3.811,0-6.9-3.089-6.9-6.9v-72.75
				c0-3.811,3.089-6.9,6.9-6.9h1535.445c3.811,0,6.9,3.089,6.9,6.9v72.75C2678.391,1847.876,2675.302,1850.965,2671.491,1850.965z"
				/>
			<path style="opacity:0.42;fill:#FFFFFF;" d="M2666.992,1984.12H1131.547c-3.811,0-6.9-3.089-6.9-6.9v-72.75
				c0-3.811,3.089-6.9,6.9-6.9h1535.445c3.811,0,6.9,3.089,6.9,6.9v72.75C2673.892,1981.031,2670.803,1984.12,2666.992,1984.12z"/>
		</g>
		<g>
			
				<linearGradient id="SVGID_00000083803101551859855540000013949405032695815069_" gradientUnits="userSpaceOnUse" x1="718.5382" y1="2019.1362" x2="861.728" y2="1589.5658" gradientTransform="matrix(0.9994 -0.0353 0.0353 0.9994 1148.4005 -306.2733)">
				<stop  offset="0" style="stop-color:#2C759E"/>
				<stop  offset="1" style="stop-color:#051042"/>
			</linearGradient>
			<path style="fill:url(#SVGID_00000083803101551859855540000013949405032695815069_);" d="M2303.74,1336.597l3.557,304.992
				l0.547,47.224c0.218,6.159-4.656,11.379-10.815,11.597l-605.92,21.39c-6.16,0.218-11.389-4.646-11.606-10.805l-2.35-47.161
				l-14.983-300.864c-0.218-6.16,6.616-18.436,19.941-17.999l591.633-36.232c7.724-0.465,15.309,2.239,20.977,7.511
				C2300.389,1321.514,2303.65,1328.869,2303.74,1336.597z"/>
			<g style="opacity:0.2;">
				
					<linearGradient id="SVGID_00000137124602090705585500000007421041132681350551_" gradientUnits="userSpaceOnUse" x1="721.8969" y1="2011.7521" x2="856.4739" y2="1608.02" gradientTransform="matrix(0.9994 -0.0353 0.0353 0.9994 1148.4005 -306.2733)">
					<stop  offset="0" style="stop-color:#9CFFFB"/>
					<stop  offset="1" style="stop-color:#9BFFFA"/>
				</linearGradient>
				<path style="fill:url(#SVGID_00000137124602090705585500000007421041132681350551_);" d="M2292.692,1679.809
					c0.203,5.746-4.434,10.616-10.305,10.823l-577.205,20.377c-5.871,0.207-10.84-4.324-11.043-10.07l-16.274-324.779
					c-0.203-5.746,6.311-17.206,19.005-16.811l563.604-34.213c7.359-0.447,14.579,2.079,19.975,6.988
					c5.396,4.909,8.496,11.772,8.576,18.988L2292.692,1679.809z"/>
			</g>
			<path style="fill:#FFFFFF;" d="M2217.475,1697.475c-1.648,0-3.012-1.307-3.071-2.966c-0.06-1.697,1.266-3.122,2.963-3.181
				l64.615-2.28c3.392-0.12,6.898-1.874,9.619-4.811c2.721-2.939,4.213-6.578,4.093-9.985l-6.976-197.631
				c-0.06-1.697,1.266-3.122,2.963-3.181c1.729-0.039,3.121,1.268,3.181,2.963l6.976,197.631
				c0.372,10.507-9.172,20.789-19.638,21.158l-64.615,2.281C2217.548,1697.473,2217.51,1697.475,2217.475,1697.475z"/>
			<path style="fill:#FFFFFF;" d="M1682.632,1501.091c-1.648,0-3.012-1.307-3.07-2.966l-4.182-118.459
				c-0.224-6.316,1.972-12.773,6.026-17.714c4.311-5.257,10.165-8.275,16.487-8.498l51.329-1.812
				c1.731-0.098,3.121,1.268,3.181,2.963c0.06,1.697-1.266,3.121-2.963,3.181l-51.329,1.812c-4.532,0.161-8.776,2.381-11.95,6.253
				c-3.117,3.8-4.806,8.756-4.636,13.597l4.182,118.459c0.06,1.697-1.266,3.121-2.963,3.181
				C1682.705,1501.089,1682.667,1501.091,1682.632,1501.091z"/>
			<g>
				
					<linearGradient id="SVGID_00000135690648535303371500000013701742208151190441_" gradientUnits="userSpaceOnUse" x1="785.5036" y1="1758.2389" x2="536.6203" y2="1852.9468" gradientTransform="matrix(0.9994 -0.0353 0.0353 0.9994 1148.4005 -306.2733)">
					<stop  offset="0" style="stop-color:#E92556"/>
					<stop  offset="1" style="stop-color:#F9C342"/>
				</linearGradient>
				<path style="fill:url(#SVGID_00000135690648535303371500000013701742208151190441_);" d="M1828.196,1483.599
					c-0.219-6.191-5.414-11.032-11.605-10.814l-74.841,2.642c-6.191,0.219-11.032,5.414-10.814,11.605l2.01,56.925
					c0.219,6.191,5.414,11.032,11.605,10.814l74.841-2.642c6.191-0.219,11.032-5.414,10.814-11.605L1828.196,1483.599z"/>
				<g>
					<path style="opacity:0.8;fill:#FFFFFF;" d="M1766.432,1531.444c-3.469,0-6.349-2.758-6.472-6.251l-0.663-18.785
						c-0.127-3.571,2.676-6.58,6.246-6.707l21.345-0.754c3.638-0.136,6.58,2.675,6.707,6.248l0,0l0.663,18.785
						c0.127,3.571-2.676,6.58-6.248,6.707l-21.345,0.753C1766.586,1531.442,1766.508,1531.444,1766.432,1531.444z
						 M1787.114,1505.091c-0.003,0-0.005,0-0.008,0l-21.345,0.754c-0.182,0.006-0.327,0.161-0.32,0.345l0.663,18.785
						c0.005,0.182,0.119,0.322,0.343,0.32l21.345-0.753c0.184-0.006,0.328-0.161,0.322-0.345l-0.663-18.785
						C1787.444,1505.258,1787.268,1505.091,1787.114,1505.091z"/>
					<g>
						<path style="fill:#FFFFFF;" d="M1731.804,1514.731c-1.648,0-3.012-1.307-3.07-2.966c-0.06-1.697,1.266-3.122,2.963-3.181
							l30.714-1.084c1.783-0.039,3.123,1.268,3.181,2.963c0.06,1.697-1.266,3.122-2.963,3.181l-30.714,1.084
							C1731.877,1514.73,1731.84,1514.731,1731.804,1514.731z"/>
						<path style="fill:#FFFFFF;" d="M1732.074,1522.41c-1.648,0-3.012-1.307-3.071-2.966c-0.06-1.697,1.266-3.122,2.963-3.181
							l30.714-1.084c1.742-0.063,3.121,1.266,3.181,2.963c0.06,1.697-1.266,3.123-2.963,3.181l-30.714,1.084
							C1732.147,1522.408,1732.109,1522.41,1732.074,1522.41z"/>
					</g>
					<g>
						<path style="fill:#FFFFFF;" d="M1795.791,1512.472c-1.648,0-3.012-1.307-3.071-2.966c-0.06-1.697,1.266-3.123,2.963-3.181
							l33.274-1.174c1.752-0.063,3.121,1.266,3.181,2.963c0.06,1.697-1.266,3.122-2.963,3.181l-33.274,1.173
							C1795.864,1512.47,1795.826,1512.472,1795.791,1512.472z"/>
						<path style="fill:#FFFFFF;" d="M1796.062,1520.151c-1.648,0-3.012-1.307-3.07-2.966c-0.06-1.697,1.266-3.121,2.963-3.181
							l33.272-1.175c1.788-0.086,3.121,1.268,3.181,2.963c0.06,1.697-1.266,3.121-2.963,3.181l-33.273,1.175
							C1796.135,1520.149,1796.098,1520.151,1796.062,1520.151z"/>
					</g>
					<g>
						<g>
							<path style="fill:#FFFFFF;" d="M1769.239,1505.842c-1.351,0-2.589-0.896-2.963-2.261l-7.581-27.621
								c-0.45-1.638,0.514-3.33,2.151-3.779c1.645-0.449,3.33,0.512,3.779,2.15l7.581,27.621c0.45,1.638-0.514,3.331-2.15,3.779
								C1769.782,1505.806,1769.509,1505.842,1769.239,1505.842z"/>
							<path style="fill:#FFFFFF;" d="M1787.08,1505.211c-0.208,0-0.419-0.021-0.631-0.065c-1.663-0.348-2.729-1.975-2.383-3.638
								l5.858-28.095c0.346-1.661,1.976-2.723,3.638-2.383c1.663,0.348,2.729,1.975,2.383,3.638l-5.858,28.096
								C1789.785,1504.215,1788.505,1505.211,1787.08,1505.211z"/>
						</g>
						<g>
							<path style="fill:#FFFFFF;" d="M1764.485,1558.117c-0.2,0-0.403-0.02-0.606-0.06c-1.665-0.333-2.745-1.952-2.412-3.618
								l5.612-28.087c0.333-1.664,1.957-2.74,3.618-2.412c1.664,0.333,2.745,1.952,2.412,3.618l-5.613,28.087
								C1767.204,1557.106,1765.92,1558.117,1764.485,1558.117z"/>
							<path style="fill:#FFFFFF;" d="M1795.753,1557.012c-1.341,0-2.573-0.884-2.957-2.237l-7.825-27.611
								c-0.463-1.634,0.486-3.334,2.12-3.797c1.643-0.463,3.335,0.488,3.797,2.12l7.825,27.611c0.463,1.633-0.486,3.334-2.12,3.797
								C1796.312,1556.975,1796.031,1557.012,1795.753,1557.012z"/>
						</g>
					</g>
				</g>
			</g>
			
				<linearGradient id="SVGID_00000180365193412891007060000005101907793570865544_" gradientUnits="userSpaceOnUse" x1="555.7576" y1="1733.245" x2="338.5688" y2="1925.3738" gradientTransform="matrix(0.9994 -0.0353 0.0353 0.9994 1148.4005 -306.2733)">
				<stop  offset="0" style="stop-color:#53D8FF"/>
				<stop  offset="1" style="stop-color:#3840F7"/>
			</linearGradient>
			<path style="fill:url(#SVGID_00000180365193412891007060000005101907793570865544_);" d="M1825.252,1400.21
				c0.26,7.352-5.49,13.522-12.842,13.781l-83.435,2.945c-7.352,0.26-13.522-5.49-13.781-12.842l-0.054-1.531
				c-0.26-7.352,5.49-13.522,12.842-13.781l83.435-2.945c7.352-0.26,13.522,5.49,13.782,12.842L1825.252,1400.21z"/>
			<g>
				
					<linearGradient id="SVGID_00000021830063250863926400000017568413678002291108_" gradientUnits="userSpaceOnUse" x1="497.7822" y1="1982.4683" x2="400.4973" y2="2059.1169" gradientTransform="matrix(0.9994 -0.0353 0.0353 0.9994 1148.4005 -306.2733)">
					<stop  offset="0" style="stop-color:#53D8FF"/>
					<stop  offset="1" style="stop-color:#3840F7"/>
				</linearGradient>
				<path style="fill:url(#SVGID_00000021830063250863926400000017568413678002291108_);" d="M1840,1600.189
					c0.248,7.015-5.238,12.902-12.253,13.15l-92.334,3.26c-7.015,0.248-12.902-5.238-13.15-12.253l-0.007-0.192
					c-0.248-7.015,5.238-12.902,12.253-13.15l92.333-3.26c7.015-0.248,12.902,5.238,13.15,12.253L1840,1600.189z"/>
				
					<linearGradient id="SVGID_00000091013229833028495590000010839404521927929519_" gradientUnits="userSpaceOnUse" x1="630.9555" y1="1982.4707" x2="533.6707" y2="2059.1194" gradientTransform="matrix(0.9994 -0.0353 0.0353 0.9994 1148.4005 -306.2733)">
					<stop  offset="0" style="stop-color:#53D8FF"/>
					<stop  offset="1" style="stop-color:#3840F7"/>
				</linearGradient>
				<path style="fill:url(#SVGID_00000091013229833028495590000010839404521927929519_);" d="M1973.094,1595.49
					c0.248,7.015-5.238,12.902-12.253,13.15l-92.333,3.26c-7.015,0.248-12.902-5.238-13.15-12.253l-0.007-0.192
					c-0.248-7.015,5.238-12.902,12.253-13.15l92.334-3.26c7.015-0.248,12.902,5.238,13.15,12.253L1973.094,1595.49z"/>
				
					<linearGradient id="SVGID_00000029028729199279311350000001652188833496946839_" gradientUnits="userSpaceOnUse" x1="764.1287" y1="1982.4733" x2="666.8439" y2="2059.1218" gradientTransform="matrix(0.9994 -0.0353 0.0353 0.9994 1148.4005 -306.2733)">
					<stop  offset="0" style="stop-color:#53D8FF"/>
					<stop  offset="1" style="stop-color:#3840F7"/>
				</linearGradient>
				<path style="fill:url(#SVGID_00000029028729199279311350000001652188833496946839_);" d="M2106.187,1590.792
					c0.248,7.015-5.238,12.902-12.253,13.15l-92.333,3.26c-7.015,0.248-12.902-5.238-13.15-12.253l-0.007-0.192
					c-0.248-7.015,5.238-12.902,12.253-13.15l92.334-3.26c7.015-0.248,12.902,5.238,13.15,12.253L2106.187,1590.792z"/>
				
					<linearGradient id="SVGID_00000142863232854643842390000003167814999456403334_" gradientUnits="userSpaceOnUse" x1="899.863" y1="1982.4758" x2="802.5781" y2="2059.1245" gradientTransform="matrix(0.9994 -0.0353 0.0353 0.9994 1148.4005 -306.2733)">
					<stop  offset="0" style="stop-color:#53D8FF"/>
					<stop  offset="1" style="stop-color:#3840F7"/>
				</linearGradient>
				<path style="fill:url(#SVGID_00000142863232854643842390000003167814999456403334_);" d="M2241.84,1586.003
					c0.248,7.015-5.238,12.902-12.253,13.15l-92.333,3.26c-7.015,0.248-12.902-5.238-13.15-12.253l-0.007-0.192
					c-0.248-7.015,5.238-12.902,12.253-13.15l92.334-3.26c7.015-0.248,12.902,5.238,13.15,12.253L2241.84,1586.003z"/>
			</g>
			<g style="opacity:0.8;">
				
					<linearGradient id="SVGID_00000074413441328636914340000011563417442721877643_" gradientUnits="userSpaceOnUse" x1="508.5075" y1="2069.7073" x2="354.4294" y2="2191.1021" gradientTransform="matrix(0.9994 -0.0353 0.0353 0.9994 1148.4005 -306.2733)">
					<stop  offset="0" style="stop-color:#9CFFFB"/>
					<stop  offset="1" style="stop-color:#9BFFFA"/>
				</linearGradient>
				<path style="fill:url(#SVGID_00000074413441328636914340000011563417442721877643_);" d="M1929.012,1653.469
					c0.197,5.577-4.165,10.258-9.742,10.455l-171.765,6.064c-5.577,0.197-10.258-4.165-10.455-9.742l-0.01-0.279
					c-0.197-5.577,4.165-10.258,9.742-10.455l171.765-6.064c5.577-0.197,10.258,4.165,10.455,9.742L1929.012,1653.469z"/>
				
					<linearGradient id="SVGID_00000169534123885753624250000001177987600533830801_" gradientUnits="userSpaceOnUse" x1="909.1448" y1="2023.356" x2="830.8677" y2="2085.0288" gradientTransform="matrix(0.9994 -0.0353 0.0353 0.9994 1148.4005 -306.2733)">
					<stop  offset="0" style="stop-color:#9CFFFB"/>
					<stop  offset="1" style="stop-color:#9BFFFA"/>
				</linearGradient>
				<path style="fill:url(#SVGID_00000169534123885753624250000001177987600533830801_);" d="M2228.292,1637.778
					c0.197,5.577-4.165,10.258-9.742,10.455l-74.504,2.63c-5.577,0.197-10.258-4.165-10.455-9.742l-0.01-0.279
					c-0.197-5.577,4.165-10.258,9.742-10.455l74.504-2.63c5.577-0.197,10.258,4.165,10.455,9.742L2228.292,1637.778z"/>
			</g>
		</g>
		<g>
			<g>
				
					<linearGradient id="SVGID_00000155849845899382143190000010482785717141366940_" gradientUnits="userSpaceOnUse" x1="1608.912" y1="1268.7865" x2="1750.9149" y2="1103.962">
					<stop  offset="0" style="stop-color:#FDF53F"/>
					<stop  offset="1" style="stop-color:#D93C65"/>
				</linearGradient>
				
					<circle style="fill:url(#SVGID_00000155849845899382143190000010482785717141366940_);" cx="1753.783" cy="1100.633" r="105.868"/>
				
					<linearGradient id="SVGID_00000013908331083886701510000001014303927269808562_" gradientUnits="userSpaceOnUse" x1="1831.1555" y1="983.745" x2="1411.2494" y2="1618.1035">
					<stop  offset="0" style="stop-color:#FDF53F"/>
					<stop  offset="1" style="stop-color:#D93C65"/>
				</linearGradient>
				
					<circle style="fill:url(#SVGID_00000013908331083886701510000001014303927269808562_);" cx="1753.783" cy="1100.633" r="102.348"/>
				<path style="fill:#FFFFFF;" d="M1669.385,1062.093c-0.601,0-1.213-0.136-1.788-0.427c-1.961-0.988-2.747-3.379-1.757-5.34
					c16.856-33.398,50.553-54.146,87.942-54.146c5.972,0,11.945,0.538,17.757,1.596c2.16,0.394,3.593,2.463,3.199,4.624
					c-0.392,2.16-2.456,3.587-4.624,3.199c-5.342-0.975-10.837-1.468-16.332-1.468c-34.37,0-65.348,19.075-80.845,49.779
					C1672.238,1061.295,1670.838,1062.093,1669.385,1062.093z"/>
				
					<ellipse transform="matrix(0.7071 -0.7071 0.7071 0.7071 -265.5175 1564.7097)" style="opacity:0.78;fill:#FFFFFF;" cx="1756.013" cy="1102.863" rx="86.625" ry="86.625"/>
				<g>
					
						<linearGradient id="SVGID_00000031193270256347066860000017371910137437061031_" gradientUnits="userSpaceOnUse" x1="1818.6294" y1="1001.9215" x2="1595.0383" y2="1377.2938">
						<stop  offset="0" style="stop-color:#FDF53F"/>
						<stop  offset="1" style="stop-color:#D93C65"/>
					</linearGradient>
					<path style="fill:url(#SVGID_00000031193270256347066860000017371910137437061031_);" d="M1747.512,1167.261v-9.424
						c-9.825-0.393-19.542-2.712-26.444-5.734c-2.465-1.078-3.721-3.845-3.013-6.44l2.394-8.779c0.878-3.22,4.38-4.885,7.459-3.596
						c6.847,2.871,15.3,5.141,24.415,5.141c9.463,0,16.52-3.208,16.52-9.784c0-5.933-5.453-9.462-18.605-12.99
						c-18.765-5.132-32.238-13.312-32.238-29.832c0-14.917,10.907-26.304,29.833-29.351v-9.425c0-3.032,2.458-5.491,5.491-5.491
						h5.538c3.032,0,5.491,2.459,5.491,5.491v8.463c9.091,0.364,15.708,1.918,20.96,3.763c2.691,0.945,4.161,3.844,3.414,6.597
						l-2.202,8.119c-0.849,3.131-4.195,4.845-7.229,3.698c-4.835-1.828-11.672-3.732-20.557-3.732
						c-11.227,0-14.434,4.651-14.434,8.821c0,5.132,6.736,8.661,21.331,13.152c20.85,6.255,29.511,14.915,29.511,30.473
						c0,14.275-10.585,27.106-31.115,30.314v10.547c0,3.033-2.458,5.491-5.491,5.491h-5.538
						C1749.971,1172.752,1747.512,1170.294,1747.512,1167.261z"/>
				</g>
			</g>
			<g>
				
					<linearGradient id="SVGID_00000034774230821521369540000008481282111548263578_" gradientUnits="userSpaceOnUse" x1="1802.9438" y1="1267.8119" x2="2050.1462" y2="980.8811">
					<stop  offset="0" style="stop-color:#FDF53F"/>
					<stop  offset="1" style="stop-color:#D93C65"/>
				</linearGradient>
				
					<circle style="fill:url(#SVGID_00000034774230821521369540000008481282111548263578_);" cx="2055.139" cy="975.085" r="184.299"/>
				
					<linearGradient id="SVGID_00000065048784920435291410000011736752135727115664_" gradientUnits="userSpaceOnUse" x1="2189.8318" y1="771.6041" x2="1458.8478" y2="1875.9125">
					<stop  offset="0" style="stop-color:#FDF53F"/>
					<stop  offset="1" style="stop-color:#D93C65"/>
				</linearGradient>
				
					<circle style="fill:url(#SVGID_00000065048784920435291410000011736752135727115664_);" cx="2055.139" cy="975.085" r="178.17"/>
				<path style="fill:#FFFFFF;" d="M1908.219,905.049c-0.602,0-1.213-0.136-1.788-0.427c-1.961-0.988-2.747-3.379-1.757-5.34
					c28.844-57.145,86.5-92.643,150.465-92.643c10.202,0,20.426,0.92,30.384,2.733c2.16,0.394,3.593,2.463,3.199,4.623
					c-0.393,2.159-2.456,3.579-4.624,3.199c-9.49-1.729-19.232-2.605-28.959-2.605c-60.949,0-115.884,33.825-143.369,88.275
					C1911.072,904.251,1909.673,905.049,1908.219,905.049z"/>
				
					<ellipse transform="matrix(0.7071 -0.7071 0.7071 0.7071 -89.1608 1742.6812)" style="opacity:0.78;fill:#FFFFFF;" cx="2059.022" cy="978.967" rx="150.799" ry="150.799"/>
				<g>
					
						<linearGradient id="SVGID_00000052801210885955404470000007905556330767333505_" gradientUnits="userSpaceOnUse" x1="2168.0256" y1="803.2459" x2="1778.7917" y2="1456.7051">
						<stop  offset="0" style="stop-color:#FDF53F"/>
						<stop  offset="1" style="stop-color:#D93C65"/>
					</linearGradient>
					<path style="fill:url(#SVGID_00000052801210885955404470000007905556330767333505_);" d="M2044.223,1091.073v-16.406
						c-17.103-0.685-34.019-4.721-46.035-9.981c-4.291-1.878-6.477-6.692-5.245-11.212l4.168-15.282
						c1.529-5.606,7.626-8.506,12.985-6.259c11.918,4.997,26.635,8.949,42.504,8.949c16.473,0,28.758-5.585,28.758-17.033
						c0-10.33-9.493-16.472-32.388-22.614c-32.666-8.935-56.12-23.175-56.12-51.933c0-25.967,18.987-45.791,51.932-51.095v-16.408
						c0-5.28,4.28-9.559,9.559-9.559h9.639c5.28,0,9.56,4.28,9.56,9.559v14.731c15.826,0.633,27.346,3.34,36.488,6.552
						c4.684,1.645,7.243,6.691,5.944,11.483l-3.833,14.133c-1.478,5.45-7.303,8.435-12.585,6.438
						c-8.417-3.183-20.318-6.498-35.787-6.498c-19.545,0-25.128,8.096-25.128,15.357c0,8.934,11.726,15.076,37.133,22.895
						c36.298,10.888,51.374,25.965,51.374,53.049c0,24.85-18.427,47.186-54.165,52.771v18.36c0,5.28-4.28,9.56-9.56,9.56h-9.64
						C2048.503,1100.633,2044.223,1096.353,2044.223,1091.073z"/>
				</g>
			</g>
			<g>
				
					<linearGradient id="SVGID_00000153673583702167559440000000550963056959093178_" gradientUnits="userSpaceOnUse" x1="1922.7369" y1="1687.9382" x2="2177.1052" y2="1392.6897">
					<stop  offset="0" style="stop-color:#FDF53F"/>
					<stop  offset="1" style="stop-color:#D93C65"/>
				</linearGradient>
				
					<circle style="fill:url(#SVGID_00000153673583702167559440000000550963056959093178_);" cx="2182.243" cy="1386.726" r="189.641"/>
				
					<linearGradient id="SVGID_00000065039820525363345800000013294616632128391322_" gradientUnits="userSpaceOnUse" x1="2320.8398" y1="1177.3458" x2="1568.6663" y2="2313.6658">
					<stop  offset="0" style="stop-color:#FDF53F"/>
					<stop  offset="1" style="stop-color:#D93C65"/>
				</linearGradient>
				
					<circle style="fill:url(#SVGID_00000065039820525363345800000013294616632128391322_);" cx="2182.243" cy="1386.726" r="183.335"/>
				<path style="fill:#FFFFFF;" d="M2031.063,1314.543c-0.602,0-1.213-0.136-1.788-0.427c-1.961-0.988-2.747-3.379-1.757-5.34
					c29.661-58.76,88.947-95.264,154.724-95.264c10.497,0,21.008,0.945,31.245,2.809c2.16,0.394,3.591,2.463,3.199,4.624
					c-0.392,2.158-2.452,3.583-4.624,3.199c-9.767-1.778-19.801-2.681-29.82-2.681c-62.759,0-119.325,34.829-147.628,90.896
					C2033.916,1313.745,2032.517,1314.543,2031.063,1314.543z"/>
				
					<ellipse transform="matrix(0.7071 -0.7071 0.7071 0.7071 -343.0538 1953.2362)" style="opacity:0.78;fill:#FFFFFF;" cx="2186.238" cy="1390.721" rx="155.171" ry="155.171"/>
				<g>
					
						<linearGradient id="SVGID_00000081632519114213144560000002660661397989112452_" gradientUnits="userSpaceOnUse" x1="2298.4016" y1="1209.905" x2="1897.8844" y2="1882.3073">
						<stop  offset="0" style="stop-color:#FDF53F"/>
						<stop  offset="1" style="stop-color:#D93C65"/>
					</linearGradient>
					<path style="fill:url(#SVGID_00000081632519114213144560000002660661397989112452_);" d="M2171.01,1506.077v-16.882
						c-17.599-0.705-35.006-4.858-47.369-10.27c-4.415-1.933-6.665-6.887-5.397-11.537l4.289-15.725
						c1.573-5.769,7.847-8.752,13.361-6.441c12.265,5.141,27.407,9.209,43.736,9.209c16.951,0,29.592-5.747,29.592-17.527
						c0-10.629-9.768-16.949-33.326-23.269c-33.614-9.193-57.748-23.846-57.748-53.438c0-26.72,19.538-47.118,53.438-52.576v-16.884
						c0-5.433,4.404-9.836,9.836-9.836h9.919c5.433,0,9.836,4.404,9.836,9.836v15.159c16.285,0.652,28.139,3.437,37.546,6.742
						c4.82,1.693,7.454,6.885,6.116,11.816l-3.944,14.542c-1.521,5.608-7.515,8.68-12.949,6.625
						c-8.661-3.276-20.907-6.686-36.824-6.686c-20.112,0-25.856,8.331-25.856,15.801c0,9.193,12.066,15.514,38.21,23.559
						c37.349,11.205,52.863,26.718,52.863,54.587c0,25.57-18.961,48.554-55.735,54.301v18.893c0,5.432-4.404,9.837-9.837,9.837
						h-9.92C2175.415,1515.913,2171.01,1511.509,2171.01,1506.077z"/>
				</g>
			</g>
			<g>
				
					<linearGradient id="SVGID_00000142858331290913558290000017886783250867311795_" gradientUnits="userSpaceOnUse" x1="2235.3889" y1="1349.0936" x2="2421.7625" y2="1132.7672">
					<stop  offset="0" style="stop-color:#FDF53F"/>
					<stop  offset="1" style="stop-color:#D93C65"/>
				</linearGradient>
				
					<circle style="fill:url(#SVGID_00000142858331290913558290000017886783250867311795_);" cx="2425.527" cy="1128.398" r="138.948"/>
				
					<linearGradient id="SVGID_00000028327506272741334190000007590841114547801789_" gradientUnits="userSpaceOnUse" x1="2527.0757" y1="974.9869" x2="1975.9639" y2="1807.5597">
					<stop  offset="0" style="stop-color:#FDF53F"/>
					<stop  offset="1" style="stop-color:#D93C65"/>
				</linearGradient>
				
					<circle style="fill:url(#SVGID_00000028327506272741334190000007590841114547801789_);" cx="2425.527" cy="1128.398" r="134.328"/>
				<path style="fill:#FFFFFF;" d="M2314.759,1076.573c-0.602,0-1.213-0.136-1.788-0.427c-1.961-0.988-2.747-3.379-1.757-5.34
					c21.913-43.414,65.715-70.383,114.313-70.383c7.76,0,15.526,0.699,23.085,2.077c2.159,0.394,3.591,2.465,3.197,4.624
					c-0.396,2.162-2.448,3.593-4.626,3.199c-7.087-1.293-14.374-1.949-21.656-1.949c-45.58,0-86.663,25.296-107.217,66.016
					C2317.612,1075.775,2316.213,1076.573,2314.759,1076.573z"/>
				
					<ellipse transform="matrix(0.9612 -0.2757 0.2757 0.9612 -217.781 713.3236)" style="opacity:0.78;fill:#FFFFFF;" cx="2428.454" cy="1131.325" rx="113.692" ry="113.692"/>
				<g>
					
						<linearGradient id="SVGID_00000151531176821721590720000010124712684216465589_" gradientUnits="userSpaceOnUse" x1="2510.6357" y1="998.8427" x2="2217.1802" y2="1491.5056">
						<stop  offset="0" style="stop-color:#FDF53F"/>
						<stop  offset="1" style="stop-color:#D93C65"/>
					</linearGradient>
					<path style="fill:url(#SVGID_00000151531176821721590720000010124712684216465589_);" d="M2417.297,1215.845v-12.369
						c-12.894-0.516-25.648-3.559-34.707-7.525c-3.234-1.416-4.883-5.046-3.954-8.453l3.142-11.522
						c1.153-4.227,5.75-6.413,9.79-4.719c8.986,3.767,20.081,6.748,32.045,6.748c12.419,0,21.682-4.211,21.682-12.842
						c0-7.788-7.157-12.419-24.419-17.049c-24.628-6.737-42.311-17.472-42.311-39.154c0-19.578,14.314-34.523,39.154-38.521v-12.371
						c0-3.98,3.226-7.207,7.207-7.207h7.267c3.981,0,7.208,3.227,7.208,7.207v11.106c11.932,0.478,20.617,2.518,27.51,4.941
						c3.531,1.241,5.461,5.045,4.481,8.657l-2.89,10.655c-1.114,4.108-5.505,6.36-9.488,4.854c-6.347-2.4-15.319-4.898-26.981-4.898
						c-14.735,0-18.945,6.104-18.945,11.577c0,6.736,8.841,11.367,27.997,17.261c27.365,8.21,38.732,19.576,38.732,39.995
						c0,18.735-13.893,35.575-40.837,39.786v13.842c0,3.98-3.226,7.207-7.207,7.207h-7.268
						C2420.524,1223.052,2417.297,1219.825,2417.297,1215.845z"/>
				</g>
			</g>
		</g>
		<g>
			
				<linearGradient id="SVGID_00000142874410472629517010000009549366264823330960_" gradientUnits="userSpaceOnUse" x1="1062.4983" y1="2571.0317" x2="1104.9755" y2="3448.897">
				<stop  offset="0" style="stop-color:#FDF53F"/>
				<stop  offset="1" style="stop-color:#D93C65"/>
			</linearGradient>
			<path style="fill:url(#SVGID_00000142874410472629517010000009549366264823330960_);" d="M1657.318,3221.871H484.993
				c-9.255,0-16.757-7.502-16.757-16.757v-910.742h1205.839v910.742C1674.075,3214.368,1666.572,3221.871,1657.318,3221.871z"/>
			
				<linearGradient id="SVGID_00000152264390580217856190000001602151579639053225_" gradientUnits="userSpaceOnUse" x1="1755.7583" y1="2289.1919" x2="-814.0617" y2="3836.7649">
				<stop  offset="0" style="stop-color:#FDF53F"/>
				<stop  offset="1" style="stop-color:#D93C65"/>
			</linearGradient>
			<path style="fill:url(#SVGID_00000152264390580217856190000001602151579639053225_);" d="M1657.318,3155.211H484.993
				c-9.255,0-16.757-7.502-16.757-16.757v-883.446h1205.839v883.446C1674.075,3147.708,1666.572,3155.211,1657.318,3155.211z"/>
			<g>
				
					<linearGradient id="SVGID_00000056411841276829845690000011659230564797319564_" gradientUnits="userSpaceOnUse" x1="2272.47" y1="1799.4625" x2="634.2875" y2="2306.1887">
					<stop  offset="0" style="stop-color:#53D8FF"/>
					<stop  offset="1" style="stop-color:#3840F7"/>
				</linearGradient>
				
					<rect x="537.655" y="2294.371" style="fill:url(#SVGID_00000056411841276829845690000011659230564797319564_);" width="41.515" height="70.576"/>
				
					<linearGradient id="SVGID_00000172435204531856358240000010914125412564328320_" gradientUnits="userSpaceOnUse" x1="2280.6289" y1="1825.8324" x2="642.444" y2="2332.5593">
					<stop  offset="0" style="stop-color:#53D8FF"/>
					<stop  offset="1" style="stop-color:#3840F7"/>
				</linearGradient>
				
					<rect x="631.064" y="2294.371" style="fill:url(#SVGID_00000172435204531856358240000010914125412564328320_);" width="41.515" height="70.576"/>
				
					<linearGradient id="SVGID_00000003063328988857537800000008358894631890199481_" gradientUnits="userSpaceOnUse" x1="2287.8291" y1="1849.1278" x2="649.6467" y2="2355.854">
					<stop  offset="0" style="stop-color:#53D8FF"/>
					<stop  offset="1" style="stop-color:#3840F7"/>
				</linearGradient>
				
					<rect x="713.575" y="2294.371" style="fill:url(#SVGID_00000003063328988857537800000008358894631890199481_);" width="41.515" height="70.576"/>
				
					<linearGradient id="SVGID_00000152224094655143626130000004407395207698782372_" gradientUnits="userSpaceOnUse" x1="2295.9856" y1="1875.4984" x2="657.8032" y2="2382.2246">
					<stop  offset="0" style="stop-color:#53D8FF"/>
					<stop  offset="1" style="stop-color:#3840F7"/>
				</linearGradient>
				
					<rect x="806.985" y="2294.371" style="fill:url(#SVGID_00000152224094655143626130000004407395207698782372_);" width="41.515" height="70.576"/>
				
					<linearGradient id="SVGID_00000138569365870465036470000007383340074731455163_" gradientUnits="userSpaceOnUse" x1="2303.1963" y1="1898.7906" x2="665.0112" y2="2405.5176">
					<stop  offset="0" style="stop-color:#53D8FF"/>
					<stop  offset="1" style="stop-color:#3840F7"/>
				</linearGradient>
				
					<rect x="889.496" y="2294.371" style="fill:url(#SVGID_00000138569365870465036470000007383340074731455163_);" width="41.515" height="70.576"/>
				
					<linearGradient id="SVGID_00000026859171450655092000000003379312720013297332_" gradientUnits="userSpaceOnUse" x1="2311.3503" y1="1925.1619" x2="673.1681" y2="2431.8882">
					<stop  offset="0" style="stop-color:#53D8FF"/>
					<stop  offset="1" style="stop-color:#3840F7"/>
				</linearGradient>
				
					<rect x="982.905" y="2294.371" style="fill:url(#SVGID_00000026859171450655092000000003379312720013297332_);" width="41.515" height="70.576"/>
				
					<linearGradient id="SVGID_00000084524520328766636150000008238394839551492782_" gradientUnits="userSpaceOnUse" x1="2318.5532" y1="1948.4565" x2="680.3708" y2="2455.1829">
					<stop  offset="0" style="stop-color:#53D8FF"/>
					<stop  offset="1" style="stop-color:#3840F7"/>
				</linearGradient>
				
					<rect x="1065.417" y="2294.371" style="fill:url(#SVGID_00000084524520328766636150000008238394839551492782_);" width="41.515" height="70.576"/>
				
					<linearGradient id="SVGID_00000069392226207173027840000000349731657788366513_" gradientUnits="userSpaceOnUse" x1="2326.7095" y1="1974.8271" x2="688.5272" y2="2481.5532">
					<stop  offset="0" style="stop-color:#53D8FF"/>
					<stop  offset="1" style="stop-color:#3840F7"/>
				</linearGradient>
				
					<rect x="1158.826" y="2294.371" style="fill:url(#SVGID_00000069392226207173027840000000349731657788366513_);" width="41.515" height="70.576"/>
				
					<linearGradient id="SVGID_00000102527275574775550850000011618428599244003236_" gradientUnits="userSpaceOnUse" x1="2333.9182" y1="1998.12" x2="695.7358" y2="2504.8462">
					<stop  offset="0" style="stop-color:#53D8FF"/>
					<stop  offset="1" style="stop-color:#3840F7"/>
				</linearGradient>
				
					<rect x="1241.338" y="2294.371" style="fill:url(#SVGID_00000102527275574775550850000011618428599244003236_);" width="41.515" height="70.576"/>
				
					<linearGradient id="SVGID_00000154383638561860033840000007841356409775825563_" gradientUnits="userSpaceOnUse" x1="2342.0745" y1="2024.4906" x2="703.8922" y2="2531.2168">
					<stop  offset="0" style="stop-color:#53D8FF"/>
					<stop  offset="1" style="stop-color:#3840F7"/>
				</linearGradient>
				
					<rect x="1334.747" y="2294.371" style="fill:url(#SVGID_00000154383638561860033840000007841356409775825563_);" width="41.515" height="70.576"/>
				
					<linearGradient id="SVGID_00000005989716171456421590000004869444836025735849_" gradientUnits="userSpaceOnUse" x1="2349.2773" y1="2047.7853" x2="711.0949" y2="2554.5115">
					<stop  offset="0" style="stop-color:#53D8FF"/>
					<stop  offset="1" style="stop-color:#3840F7"/>
				</linearGradient>
				
					<rect x="1417.258" y="2294.371" style="fill:url(#SVGID_00000005989716171456421590000004869444836025735849_);" width="41.515" height="70.576"/>
				
					<linearGradient id="SVGID_00000003077710632214782600000012286220792320273305_" gradientUnits="userSpaceOnUse" x1="2357.4336" y1="2074.1558" x2="719.2513" y2="2580.8821">
					<stop  offset="0" style="stop-color:#53D8FF"/>
					<stop  offset="1" style="stop-color:#3840F7"/>
				</linearGradient>
				
					<rect x="1510.667" y="2294.371" style="fill:url(#SVGID_00000003077710632214782600000012286220792320273305_);" width="41.515" height="70.576"/>
			</g>
			<g>
				<g>
					<rect x="1004.908" y="2401.466" style="fill:#FFFFFF;" width="125.304" height="125.304"/>
					<rect x="1157.196" y="2401.466" style="fill:#FFFFFF;" width="125.304" height="125.304"/>
					<rect x="1307.933" y="2401.466" style="fill:#FFFFFF;" width="125.304" height="125.304"/>
					<rect x="1457.429" y="2401.466" style="fill:#FFFFFF;" width="125.304" height="125.304"/>
				</g>
				<g>
					<rect x="552.542" y="2559.027" style="fill:#FFFFFF;" width="125.304" height="125.304"/>
					<rect x="703.279" y="2559.027" style="fill:#FFFFFF;" width="125.304" height="125.304"/>
					<rect x="852.776" y="2559.027" style="fill:#FFFFFF;" width="125.304" height="125.304"/>
					<rect x="1004.753" y="2559.027" style="fill:#FFFFFF;" width="125.304" height="125.304"/>
					<rect x="1157.041" y="2559.027" style="fill:#FFFFFF;" width="125.304" height="125.304"/>
					<rect x="1307.778" y="2559.027" style="fill:#FFFFFF;" width="125.304" height="125.304"/>
					<rect x="1457.274" y="2559.027" style="fill:#FFFFFF;" width="125.304" height="125.304"/>
				</g>
				<g>
					<rect x="556.264" y="2709.144" style="fill:#FFFFFF;" width="125.304" height="125.304"/>
					<rect x="707.001" y="2709.144" style="fill:#FFFFFF;" width="125.304" height="125.304"/>
					
						<linearGradient id="SVGID_00000025407210180543464700000009699132760435086263_" gradientUnits="userSpaceOnUse" x1="-611.7341" y1="1640.8733" x2="929.2696" y2="2779.2717">
						<stop  offset="0" style="stop-color:#FDF53F"/>
						<stop  offset="0.6645" style="stop-color:#E57A58"/>
						<stop  offset="1" style="stop-color:#D93C65"/>
					</linearGradient>
					
						<rect x="856.497" y="2709.144" style="fill:url(#SVGID_00000025407210180543464700000009699132760435086263_);" width="125.304" height="125.304"/>
					<rect x="1008.475" y="2709.144" style="fill:#FFFFFF;" width="125.304" height="125.304"/>
					<rect x="1160.763" y="2709.144" style="fill:#FFFFFF;" width="125.304" height="125.304"/>
					<rect x="1311.5" y="2709.144" style="fill:#FFFFFF;" width="125.304" height="125.304"/>
					<rect x="1460.996" y="2709.144" style="fill:#FFFFFF;" width="125.304" height="125.304"/>
				</g>
				<g>
					<rect x="559.986" y="2857.399" style="fill:#FFFFFF;" width="125.304" height="125.304"/>
					<rect x="710.723" y="2857.399" style="fill:#FFFFFF;" width="125.304" height="125.304"/>
					<rect x="860.219" y="2857.399" style="fill:#FFFFFF;" width="125.304" height="125.304"/>
					<rect x="1012.197" y="2857.399" style="fill:#FFFFFF;" width="125.304" height="125.304"/>
					<rect x="1164.485" y="2857.399" style="fill:#FFFFFF;" width="125.304" height="125.304"/>
					<rect x="1315.222" y="2857.399" style="fill:#FFFFFF;" width="125.304" height="125.304"/>
					<rect x="1464.718" y="2857.399" style="fill:#FFFFFF;" width="125.304" height="125.304"/>
				</g>
				<g>
					<rect x="559.986" y="3005.322" style="fill:#FFFFFF;" width="125.304" height="125.304"/>
					<rect x="710.723" y="3005.322" style="fill:#FFFFFF;" width="125.304" height="125.304"/>
					<rect x="860.219" y="3005.322" style="fill:#FFFFFF;" width="125.304" height="125.304"/>
				</g>
			</g>
			<g>
				
					<linearGradient id="SVGID_00000075147287802195889570000012821782289788356789_" gradientUnits="userSpaceOnUse" x1="1824.4979" y1="2173.2051" x2="-257.9326" y2="2339.7988">
					<stop  offset="0" style="stop-color:#FDF53F"/>
					<stop  offset="0.6645" style="stop-color:#E57A58"/>
					<stop  offset="1" style="stop-color:#D93C65"/>
				</linearGradient>
				<path style="fill:url(#SVGID_00000075147287802195889570000012821782289788356789_);" d="M619.621,2238.194h-53.303
					c-12.272,0-22.313,10.041-22.313,22.313v49.584h16.115v-32.229c0-12.272,10.041-22.313,22.313-22.313h53.304
					c2.004,0,3.939,0.293,5.792,0.794C639.562,2246.045,630.47,2238.194,619.621,2238.194z"/>
				
					<linearGradient id="SVGID_00000129922434908616481780000011548573884148251280_" gradientUnits="userSpaceOnUse" x1="1825.1581" y1="2181.4365" x2="-257.2744" y2="2348.0303">
					<stop  offset="0" style="stop-color:#FDF53F"/>
					<stop  offset="0.6645" style="stop-color:#E57A58"/>
					<stop  offset="1" style="stop-color:#D93C65"/>
				</linearGradient>
				<path style="fill:url(#SVGID_00000129922434908616481780000011548573884148251280_);" d="M723.175,2238.194h-53.303
					c-12.272,0-22.313,10.041-22.313,22.313v49.584h16.115v-32.229c0-12.272,10.041-22.313,22.313-22.313h53.304
					c2.004,0,3.939,0.293,5.792,0.794C743.116,2246.045,734.024,2238.194,723.175,2238.194z"/>
				
					<linearGradient id="SVGID_00000173139605143602401280000007610216850761246599_" gradientUnits="userSpaceOnUse" x1="1825.7023" y1="2188.2786" x2="-256.7303" y2="2354.8723">
					<stop  offset="0" style="stop-color:#FDF53F"/>
					<stop  offset="0.6645" style="stop-color:#E57A58"/>
					<stop  offset="1" style="stop-color:#D93C65"/>
				</linearGradient>
				<path style="fill:url(#SVGID_00000173139605143602401280000007610216850761246599_);" d="M809.243,2238.194h-53.303
					c-12.272,0-22.313,10.041-22.313,22.313v49.584h16.115v-32.229c0-12.272,10.041-22.313,22.313-22.313h53.304
					c2.004,0,3.939,0.293,5.792,0.794C829.184,2246.045,820.092,2238.194,809.243,2238.194z"/>
				
					<linearGradient id="SVGID_00000078732009998507129560000011704467656209658766_" gradientUnits="userSpaceOnUse" x1="1826.2654" y1="2195.3267" x2="-256.165" y2="2361.9204">
					<stop  offset="0" style="stop-color:#FDF53F"/>
					<stop  offset="0.6645" style="stop-color:#E57A58"/>
					<stop  offset="1" style="stop-color:#D93C65"/>
				</linearGradient>
				<path style="fill:url(#SVGID_00000078732009998507129560000011704467656209658766_);" d="M897.91,2238.194h-53.303
					c-12.272,0-22.313,10.041-22.313,22.313v49.584h16.115v-32.229c0-12.272,10.041-22.313,22.313-22.313h53.304
					c2.004,0,3.939,0.293,5.792,0.794C917.85,2246.045,908.758,2238.194,897.91,2238.194z"/>
				
					<linearGradient id="SVGID_00000098221578140384399440000017231711580868563114_" gradientUnits="userSpaceOnUse" x1="1826.7874" y1="2201.8423" x2="-255.6452" y2="2368.436">
					<stop  offset="0" style="stop-color:#FDF53F"/>
					<stop  offset="0.6645" style="stop-color:#E57A58"/>
					<stop  offset="1" style="stop-color:#D93C65"/>
				</linearGradient>
				<path style="fill:url(#SVGID_00000098221578140384399440000017231711580868563114_);" d="M979.877,2238.194h-53.303
					c-12.272,0-22.313,10.041-22.313,22.313v49.584h16.115v-32.229c0-12.272,10.041-22.313,22.313-22.313h53.304
					c2.004,0,3.939,0.293,5.792,0.794C999.818,2246.045,990.726,2238.194,979.877,2238.194z"/>
				
					<linearGradient id="SVGID_00000018225681318513594080000008358015559803074473_" gradientUnits="userSpaceOnUse" x1="1827.3516" y1="2208.8904" x2="-255.081" y2="2375.4844">
					<stop  offset="0" style="stop-color:#FDF53F"/>
					<stop  offset="0.6645" style="stop-color:#E57A58"/>
					<stop  offset="1" style="stop-color:#D93C65"/>
				</linearGradient>
				<path style="fill:url(#SVGID_00000018225681318513594080000008358015559803074473_);" d="M1068.544,2238.194h-53.303
					c-12.272,0-22.313,10.041-22.313,22.313v49.584h16.115v-32.229c0-12.272,10.041-22.313,22.313-22.313h53.304
					c2.004,0,3.939,0.293,5.792,0.794C1088.484,2246.045,1079.392,2238.194,1068.544,2238.194z"/>
				
					<linearGradient id="SVGID_00000139983475076757320900000005507864155255487373_" gradientUnits="userSpaceOnUse" x1="1827.8986" y1="2215.7322" x2="-254.5339" y2="2382.3259">
					<stop  offset="0" style="stop-color:#FDF53F"/>
					<stop  offset="0.6645" style="stop-color:#E57A58"/>
					<stop  offset="1" style="stop-color:#D93C65"/>
				</linearGradient>
				<path style="fill:url(#SVGID_00000139983475076757320900000005507864155255487373_);" d="M1154.612,2238.194h-53.303
					c-12.272,0-22.313,10.041-22.313,22.313v49.584h16.115v-32.229c0-12.272,10.041-22.313,22.313-22.313h53.303
					c2.004,0,3.939,0.293,5.792,0.794C1174.552,2246.045,1165.46,2238.194,1154.612,2238.194z"/>
				
					<linearGradient id="SVGID_00000025410773306909210290000000326645513477966212_" gradientUnits="userSpaceOnUse" x1="1828.5096" y1="2223.3721" x2="-253.9228" y2="2389.9658">
					<stop  offset="0" style="stop-color:#FDF53F"/>
					<stop  offset="0.6645" style="stop-color:#E57A58"/>
					<stop  offset="1" style="stop-color:#D93C65"/>
				</linearGradient>
				<path style="fill:url(#SVGID_00000025410773306909210290000000326645513477966212_);" d="M1250.722,2238.194h-53.303
					c-12.272,0-22.313,10.041-22.313,22.313v49.584h16.115v-32.229c0-12.272,10.041-22.313,22.313-22.313h53.304
					c2.004,0,3.939,0.293,5.792,0.794C1270.662,2246.045,1261.571,2238.194,1250.722,2238.194z"/>
				
					<linearGradient id="SVGID_00000021081895032168649510000016451480292758915718_" gradientUnits="userSpaceOnUse" x1="1828.9734" y1="2229.1704" x2="-253.4591" y2="2395.7642">
					<stop  offset="0" style="stop-color:#FDF53F"/>
					<stop  offset="0.6645" style="stop-color:#E57A58"/>
					<stop  offset="1" style="stop-color:#D93C65"/>
				</linearGradient>
				<path style="fill:url(#SVGID_00000021081895032168649510000016451480292758915718_);" d="M1333.597,2237.4h-53.303
					c-12.272,0-22.313,10.041-22.313,22.313v49.584h16.115v-32.229c0-12.272,10.041-22.313,22.313-22.313h53.304
					c2.004,0,3.939,0.293,5.792,0.794C1353.537,2245.25,1344.445,2237.4,1333.597,2237.4z"/>
				
					<linearGradient id="SVGID_00000082369400679812195030000003536300599783549361_" gradientUnits="userSpaceOnUse" x1="1829.5201" y1="2236.012" x2="-252.9104" y2="2402.6057">
					<stop  offset="0" style="stop-color:#FDF53F"/>
					<stop  offset="0.6645" style="stop-color:#E57A58"/>
					<stop  offset="1" style="stop-color:#D93C65"/>
				</linearGradient>
				<path style="fill:url(#SVGID_00000082369400679812195030000003536300599783549361_);" d="M1419.665,2237.4h-53.303
					c-12.272,0-22.313,10.041-22.313,22.313v49.584h16.115v-32.229c0-12.272,10.041-22.313,22.313-22.313h53.304
					c2.004,0,3.939,0.293,5.792,0.794C1439.605,2245.25,1430.514,2237.4,1419.665,2237.4z"/>
				
					<linearGradient id="SVGID_00000140708850275729786990000009963816583597942707_" gradientUnits="userSpaceOnUse" x1="1830.7645" y1="2251.5637" x2="-251.666" y2="2418.1572">
					<stop  offset="0" style="stop-color:#FDF53F"/>
					<stop  offset="0.6645" style="stop-color:#E57A58"/>
					<stop  offset="1" style="stop-color:#D93C65"/>
				</linearGradient>
				<path style="fill:url(#SVGID_00000140708850275729786990000009963816583597942707_);" d="M1590.12,2239.415h-53.303
					c-12.272,0-22.313,10.041-22.313,22.313v49.584h16.115v-32.229c0-12.272,10.041-22.313,22.313-22.313h53.304
					c2.004,0,3.939,0.293,5.792,0.794C1610.061,2247.265,1600.969,2239.415,1590.12,2239.415z"/>
				
					<linearGradient id="SVGID_00000093870025281480268710000016741146281994498981_" gradientUnits="userSpaceOnUse" x1="1830.1323" y1="2243.6519" x2="-252.2982" y2="2410.2456">
					<stop  offset="0" style="stop-color:#FDF53F"/>
					<stop  offset="0.6645" style="stop-color:#E57A58"/>
					<stop  offset="1" style="stop-color:#D93C65"/>
				</linearGradient>
				<path style="fill:url(#SVGID_00000093870025281480268710000016741146281994498981_);" d="M1515.775,2237.4h-53.303
					c-12.272,0-22.313,10.041-22.313,22.313v49.584h16.115v-32.229c0-12.272,10.041-22.313,22.313-22.313h53.303
					c2.004,0,3.94,0.293,5.792,0.794C1535.715,2245.25,1526.624,2237.4,1515.775,2237.4z"/>
			</g>
		</g>
		<g>
			
				<linearGradient id="SVGID_00000085237589275732515810000014303152008529510564_" gradientUnits="userSpaceOnUse" x1="21744.8945" y1="2208.491" x2="21275.6133" y2="2476.3494" gradientTransform="matrix(1 0 0 1 -19663.6602 0)">
				<stop  offset="0" style="stop-color:#F9B776"/>
				<stop  offset="1" style="stop-color:#F47960"/>
			</linearGradient>
			<path style="fill:url(#SVGID_00000085237589275732515810000014303152008529510564_);" d="M2009.888,2645.163
				c-0.554-0.212-298.213-521.485-338.436-570.541c-6.768-8.251-17.239-12.452-27.836-11.19l-83.082,9.901l-97.603,211.152
				l162.604-94.698c-16.09,111.278,192.797,276.651,264.437,336.994c7.27,6.124,7.867,17.092,1.301,23.966l-28.601,29.94
				c46.955,47.595,101.137,78.156,162.29,92.291L2009.888,2645.163z"/>
			
				<linearGradient id="SVGID_00000092417997936312110710000002634677839266925702_" gradientUnits="userSpaceOnUse" x1="-11256.4609" y1="-5182.9551" x2="-11292.4854" y2="-4630.5742" gradientTransform="matrix(-0.8974 -0.4412 -0.4412 0.8974 -10368.3799 2161.1482)">
				<stop  offset="0" style="stop-color:#CB236D"/>
				<stop  offset="1" style="stop-color:#4C246D"/>
			</linearGradient>
			<path style="fill:url(#SVGID_00000092417997936312110710000002634677839266925702_);" d="M1879.217,2564.527
				c0,0-18.254,5.897-24.434,22.154c-2.957,7.779,0.231,16.588,6.995,21.434c30.057,21.534,129.202,91.056,174.953,104.672
				c3.75,1.116,7.319-2.277,6.475-6.098c-2.348-10.628-9.943-31.853-34.41-62.924l2.195,4.44c2.778,5.619-3.341,11.469-8.799,8.388
				C1971.591,2639.32,1909.261,2601.51,1879.217,2564.527z"/>
			
				<linearGradient id="SVGID_00000132090434918378018040000018398808132190478985_" gradientUnits="userSpaceOnUse" x1="21699.4961" y1="2275.2927" x2="23305.1406" y2="1270.135" gradientTransform="matrix(1 0 0 1 -19663.6602 0)">
				<stop  offset="0" style="stop-color:#F9B776"/>
				<stop  offset="1" style="stop-color:#F47960"/>
			</linearGradient>
			<path style="fill:url(#SVGID_00000132090434918378018040000018398808132190478985_);" d="M1893.947,2773.1
				c-0.499-0.321-45.158-107.917-45.657-108.237c-40.947-249.301-140.849-462.809-170.311-518.99
				c-4.957-9.449-14.362-15.683-24.996-16.591l-83.366-7.118l-138.316,187.03l178.404-59.831
				c-38.277,105.719,132.82,309.944,190.766,383.536c5.88,7.469,4.246,18.331-3.576,23.734l-34.068,23.532
				c36.351,56.112,83.228,97.006,140.254,123.224L1893.947,2773.1z"/>
			
				<linearGradient id="SVGID_00000092418247515684283240000012610684129624621960_" gradientUnits="userSpaceOnUse" x1="-9373.5303" y1="-8022.6099" x2="-9409.5527" y2="-7470.2651" gradientTransform="matrix(-0.7895 -0.6137 -0.6137 0.7895 -10385.9697 3191.1018)">
				<stop  offset="0" style="stop-color:#CB236D"/>
				<stop  offset="1" style="stop-color:#4C246D"/>
			</linearGradient>
			<path style="fill:url(#SVGID_00000092418247515684283240000012610684129624621960_);" d="M1782.3,2667.688
				c0,0-19.069,2.08-28.412,16.751c-4.469,7.019-3.131,16.292,2.512,22.406c25.077,27.171,108.1,115.319,150.15,137.913
				c3.447,1.853,7.628-0.749,7.575-4.661c-0.148-10.884-3.29-33.207-20.964-68.586l1.251,4.792
				c1.583,6.066-5.593,10.556-10.315,6.434C1857.625,2759.628,1804.237,2709.986,1782.3,2667.688z"/>
			<g>
				
					<linearGradient id="SVGID_00000129898943544519645160000012211325487841979538_" gradientUnits="userSpaceOnUse" x1="13473.626" y1="1872.1678" x2="13087.6602" y2="2295.1433" gradientTransform="matrix(1 0 0 1 -11831.959 0)">
					<stop  offset="0" style="stop-color:#CB236D"/>
					<stop  offset="1" style="stop-color:#4C246D"/>
				</linearGradient>
				<path style="fill:url(#SVGID_00000129898943544519645160000012211325487841979538_);" d="M1179.391,2082.775
					c0,0-75.415,112.171-81.604,163.339c-6.188,51.167,20.854,68.862,99.789,75.388c234.896,19.418,350.691-50.981,350.691-50.981
					c16.069-102.453,27.502-128.518,161.703-184.223c0,0-169.741,13.476-203.902,0.219
					C1471.906,2073.259,1179.391,2082.775,1179.391,2082.775z"/>
			</g>
			<g>
				
					<linearGradient id="SVGID_00000035492645387906648470000010152469137965523897_" gradientUnits="userSpaceOnUse" x1="-14291.5264" y1="-1793.7565" x2="-14176.1289" y2="-1504.2853" gradientTransform="matrix(-0.9446 -0.3283 -0.3283 0.9446 -12528.123 -1699.1722)">
					<stop  offset="0" style="stop-color:#2B3582"/>
					<stop  offset="1" style="stop-color:#150E42"/>
				</linearGradient>
				<path style="fill:url(#SVGID_00000035492645387906648470000010152469137965523897_);" d="M1480.123,1454.322
					c0,0-52.526-62.147-108.369,14.103c-10.114,13.81-48.96,2.417-63.201,31.323c-7.353,14.925-23.235,23.403-39.596,20.385
					c-40.749-7.516-107.354-8.149-140.239,55.707c-25.101,48.741-5.721,77.266,19.371,93.528
					c18.429,11.945,25.007,36.195,13.862,55.118c-10.689,18.151-12.699,42.73,14.901,72.311
					c61.85,66.289,184.285-42.068,184.285-42.068l97.212-229.713L1480.123,1454.322z"/>
				
					<linearGradient id="SVGID_00000095310861444876143060000017354432020187976617_" gradientUnits="userSpaceOnUse" x1="21208.6934" y1="1696.9669" x2="20102.4199" y2="2764.0818" gradientTransform="matrix(1 0 0 1 -19663.6602 0)">
					<stop  offset="0" style="stop-color:#FDF53F"/>
					<stop  offset="1" style="stop-color:#D93C65"/>
				</linearGradient>
				<path style="fill:url(#SVGID_00000095310861444876143060000017354432020187976617_);" d="M1383.345,2067.925
					c0,0,87.822-83.624,131.052-139.012c23.368-29.94,30.706-69.355,19.9-105.765c-19.737-66.494-54.812-135.363-58.011-146.083
					c-4.903-16.429-103.374-15.746-103.374-15.746s-193.772,125.76-269.906,338.788l85.503,26.619c0,0,50.594-84.88,100.584-138.846
					c0,0-86.5,114.27-89.546,161.049L1383.345,2067.925z"/>
				
					<linearGradient id="SVGID_00000145762028492502921280000009874712620566717860_" gradientUnits="userSpaceOnUse" x1="-12526.5049" y1="2054.0945" x2="-12059.0322" y2="2054.0945" gradientTransform="matrix(-1 0 0 1 -11267.1963 0)">
					<stop  offset="0" style="stop-color:#F9B776"/>
					<stop  offset="1" style="stop-color:#F47960"/>
				</linearGradient>
				<path style="fill:url(#SVGID_00000145762028492502921280000009874712620566717860_);" d="M1550.673,2100.925l-65.989-71.797
					l-76.21,20.521c0,0-88.85,13.766-139.701,0c-50.852-13.765-50.852-13.765-50.852-13.765l-114.915-35.776l-18.048,51.006
					c-4.583,12.95,0.022,27.327,11.219,35.284c9.942,7.065,21.595,14.828,29.023,18.078c15.133,6.62,348.609,2.093,348.609,2.093
					L1550.673,2100.925z"/>
				
					<linearGradient id="SVGID_00000127737586778107897950000012884206981181639096_" gradientUnits="userSpaceOnUse" x1="-14469.7324" y1="689.9709" x2="-14446.8809" y2="522.7916" gradientTransform="matrix(-0.9974 -0.0717 -0.0717 0.9974 -12933.0674 105.0094)">
					<stop  offset="0" style="stop-color:#F9B776"/>
					<stop  offset="1" style="stop-color:#F47960"/>
				</linearGradient>
				<path style="fill:url(#SVGID_00000127737586778107897950000012884206981181639096_);" d="M1440.588,1542.924l-66.183,123.069
					c4.37,26.865,72.033,27.622,82.485,11.58c1.064-1.632,1.672-3.521,2.076-5.427l39.591-82.231
					c1.7-8.018-20.283-35.037-27.518-38.888l-26.306-14.002C1434.604,1531.633,1476.87,1531.209,1440.588,1542.924z"/>
				<g>
					
						<linearGradient id="SVGID_00000106118387223562556150000013003418330367706294_" gradientUnits="userSpaceOnUse" x1="-11556.291" y1="-6731.4961" x2="-11341.126" y2="-7114.4175" gradientTransform="matrix(-0.5458 -0.8379 -0.8379 0.5458 -10514.082 -4320.769)">
						<stop  offset="0" style="stop-color:#F9B776"/>
						<stop  offset="1" style="stop-color:#F47960"/>
					</linearGradient>
					<path style="fill:url(#SVGID_00000106118387223562556150000013003418330367706294_);" d="M1574.53,1514.041
						c0,0,7.471,41.579-25.21,94.445c-32.681,52.866-65.224,50.479-81.758,31.626c-16.534-18.854-36.338-50.254-27.327-102.982
						C1449.247,1484.402,1563.241,1461.018,1574.53,1514.041z"/>
					
						<linearGradient id="SVGID_00000001650304983795978920000005423207508304123805_" gradientUnits="userSpaceOnUse" x1="-11510.0215" y1="-7064.9609" x2="-11402.4404" y2="-6795.0947" gradientTransform="matrix(-0.5458 -0.8379 -0.8379 0.5458 -10514.082 -4320.769)">
						<stop  offset="0" style="stop-color:#2B3582"/>
						<stop  offset="1" style="stop-color:#150E42"/>
					</linearGradient>
					<path style="fill:url(#SVGID_00000001650304983795978920000005423207508304123805_);" d="M1479.798,1542.86
						c0,0,52.918-69.507,93.545-8.915l-0.685,20.931c0,0,52.832-2.47,47.102-51.164c-5.729-48.695-48.861-81.96-108.657-65.323
						s-94.735,35.584-101.487,77.099c-6.753,41.515,27.146,34.733,27.146,34.733s12.948-28.646,28.585-30.602
						c15.636-1.957,9.986,20.703,9.986,20.703L1479.798,1542.86z"/>
					
						<linearGradient id="SVGID_00000062909767388346047460000006443662358020066178_" gradientUnits="userSpaceOnUse" x1="-11510.4893" y1="-6705.7642" x2="-11295.3252" y2="-7088.6826" gradientTransform="matrix(-0.5458 -0.8379 -0.8379 0.5458 -10514.082 -4320.769)">
						<stop  offset="0" style="stop-color:#F9B776"/>
						<stop  offset="1" style="stop-color:#F47960"/>
					</linearGradient>
					<path style="fill:url(#SVGID_00000062909767388346047460000006443662358020066178_);" d="M1467.655,1541.007
						c0,0,27.412-35.571,2.46-42.953c-24.952-7.383-24.02,34.854-22.394,50.568L1467.655,1541.007z"/>
				</g>
			</g>
			<g>
				
					<linearGradient id="SVGID_00000020387549796545111360000015476792500869265842_" gradientUnits="userSpaceOnUse" x1="-12594.8613" y1="1483.3223" x2="-12839.4111" y2="1550.3468" gradientTransform="matrix(-0.9988 -0.0494 -0.0494 0.9988 -11225.7275 -55.0328)">
					<stop  offset="0" style="stop-color:#2B3582"/>
					<stop  offset="1" style="stop-color:#150E42"/>
				</linearGradient>
				<path style="fill:url(#SVGID_00000020387549796545111360000015476792500869265842_);" d="M1332.24,2129.341
					c0.232,0.011,0.464,0.018,0.698,0.016l303.522-0.332c7.503-0.006,13.579-6.095,13.572-13.598
					c-0.007-7.506-6.119-13.707-13.602-13.571l-303.522,0.331c-7.503,0.006-13.579,6.095-13.571,13.599
					C1319.345,2123.055,1325.062,2128.986,1332.24,2129.341z"/>
				
					<linearGradient id="SVGID_00000150062963234293509030000005339626191938854822_" gradientUnits="userSpaceOnUse" x1="-1631.5363" y1="2009.3318" x2="567.9266" y2="1824.281" gradientTransform="matrix(-1 0 0 1 283.9132 0)">
					<stop  offset="0" style="stop-color:#2B3582"/>
					<stop  offset="1" style="stop-color:#150E42"/>
				</linearGradient>
				<path style="fill:url(#SVGID_00000150062963234293509030000005339626191938854822_);" d="M1909.313,1853.761h-252.776
					c-18.647,0-35.62,10.761-43.574,27.627l-116.858,247.79h314.132c12.017,0,22.814-7.342,27.23-18.518l90.618-229.293
					C1933.323,1868.119,1923.559,1853.761,1909.313,1853.761z"/>
				
					<linearGradient id="SVGID_00000016763105513011848470000007969078625992254143_" gradientUnits="userSpaceOnUse" x1="-12983.8262" y1="1936.3793" x2="-13062.5586" y2="2054.9409" gradientTransform="matrix(-1 0 0 1 -11267.1963 0)">
					<stop  offset="0" style="stop-color:#53D8FF"/>
					<stop  offset="1" style="stop-color:#3840F7"/>
				</linearGradient>
				<path style="fill:url(#SVGID_00000016763105513011848470000007969078625992254143_);" d="M1731.23,1980.811
					c-5.478,17.018-1.431,33.547,9.039,36.916c10.47,3.37,23.397-7.694,28.875-24.713c5.478-17.018,1.431-33.546-9.038-36.916
					C1749.636,1952.728,1736.708,1963.792,1731.23,1980.811z"/>
			</g>
		</g>
	</g>
</g>
</svg>
