<?xml version="1.0" encoding="utf-8"?>
<!-- Generator: Adobe Illustrator 27.5.0, SVG Export Plug-In . SVG Version: 6.00 Build 0)  -->
<svg version="1.1" xmlns="http://www.w3.org/2000/svg" xmlns:xlink="http://www.w3.org/1999/xlink" x="0px" y="0px"
	 viewBox="0 0 500 500" style="enable-background:new 0 0 500 500;" xml:space="preserve">
<g id="Background_Simple">
	<g>
		<path style="fill:#C6FF00;" d="M132.357,86.75c0,0-61.842,50.888-84.82,113.759c-22.979,62.871-5.289,133.518,47.881,177.419
			c53.17,43.901,132.089,19.64,206.424,38.691c74.335,19.05,147.155-3.816,164.069-81.687
			c16.914-77.871-36.635-94.086-62.134-174.504C378.279,80.009,280.189-24.688,132.357,86.75z"/>
		<path style="opacity:0.7;fill:#FFFFFF;" d="M132.357,86.75c0,0-61.842,50.888-84.82,113.759
			c-22.979,62.871-5.289,133.518,47.881,177.419c53.17,43.901,132.089,19.64,206.424,38.691
			c74.335,19.05,147.155-3.816,164.069-81.687c16.914-77.871-36.635-94.086-62.134-174.504
			C378.279,80.009,280.189-24.688,132.357,86.75z"/>
	</g>
</g>
<g id="Floor">
	<g>
		<line style="fill:none;stroke:#263238;stroke-miterlimit:10;" x1="49.916" y1="425.459" x2="462" y2="425.459"/>
		<line style="fill:none;stroke:#263238;stroke-miterlimit:10;" x1="32.4" y1="425.459" x2="38.853" y2="425.459"/>
	</g>
</g>
<g id="Icons">
	<g>
		<path style="fill:none;stroke:#263238;stroke-miterlimit:10;" d="M226.636,134.384h-51.648c-0.915,0-1.656-0.741-1.656-1.656
			v-31.26c0-0.915,0.741-1.656,1.656-1.656h51.648c0.915,0,1.656,0.741,1.656,1.656v31.26
			C228.292,133.642,227.551,134.384,226.636,134.384z"/>
		<rect x="173.332" y="120.201" style="fill:none;stroke:#263238;stroke-miterlimit:10;" width="54.96" height="7.978"/>
		<circle style="fill:none;stroke:#263238;stroke-miterlimit:10;" cx="219.649" cy="106.461" r="3.767"/>
		<circle style="fill:none;stroke:#263238;stroke-miterlimit:10;" cx="213.887" cy="106.461" r="3.767"/>
		<line style="fill:none;stroke:#263238;stroke-miterlimit:10;" x1="178.208" y1="105.353" x2="193.277" y2="105.353"/>
	</g>
	<g>
		<path style="fill:none;stroke:#263238;stroke-miterlimit:10;" d="M110,288.572H58.352c-0.915,0-1.656-0.741-1.656-1.656v-31.26
			c0-0.915,0.741-1.656,1.656-1.656H110c0.915,0,1.656,0.741,1.656,1.656v31.26C111.656,287.83,110.915,288.572,110,288.572z"/>
		<rect x="56.696" y="274.388" style="fill:none;stroke:#263238;stroke-miterlimit:10;" width="54.96" height="7.978"/>
		<path style="fill:none;stroke:#263238;stroke-miterlimit:10;" d="M106.78,260.648c0,2.081-1.687,3.767-3.767,3.767
			c-2.081,0-3.768-1.687-3.768-3.767c0-2.081,1.687-3.767,3.768-3.767C105.094,256.881,106.78,258.568,106.78,260.648z"/>
		<circle style="fill:none;stroke:#263238;stroke-miterlimit:10;" cx="97.251" cy="260.648" r="3.767"/>
		<line style="fill:none;stroke:#263238;stroke-miterlimit:10;" x1="61.571" y1="259.54" x2="76.641" y2="259.54"/>
	</g>
	<g>
		<rect x="366.562" y="66.565" style="fill:none;stroke:#263238;stroke-miterlimit:10;" width="34.152" height="34.152"/>
		<polygon style="fill:none;stroke:#263238;stroke-miterlimit:10;" points="394.185,81.013 385.484,81.013 385.484,72.312 
			381.793,72.312 381.793,81.013 373.092,81.013 373.092,84.704 381.793,84.704 381.793,93.405 385.484,93.405 385.484,84.704 
			394.185,84.704 		"/>
		<rect x="400.635" y="66.565" style="fill:none;stroke:#263238;stroke-miterlimit:10;" width="34.152" height="34.152"/>
		<rect x="408.615" y="81.013" style="fill:none;stroke:#263238;stroke-miterlimit:10;" width="18.193" height="3.164"/>
		<rect x="366.562" y="100.647" style="fill:none;stroke:#263238;stroke-miterlimit:10;" width="34.152" height="34.152"/>
		<polygon style="fill:none;stroke:#263238;stroke-miterlimit:10;" points="389.791,108.178 383.639,114.33 377.486,108.178 
			374.876,110.788 381.028,116.94 374.876,123.093 377.486,125.703 383.639,119.551 389.791,125.703 392.401,123.093 
			386.249,116.94 392.401,110.788 		"/>
		<rect x="400.635" y="100.647" style="fill:none;stroke:#263238;stroke-miterlimit:10;" width="34.152" height="34.152"/>
		<g>
			<rect x="408.615" y="115.095" style="fill:none;stroke:#263238;stroke-miterlimit:10;" width="18.193" height="3.164"/>
			<path style="fill:none;stroke:#263238;stroke-miterlimit:10;" d="M417.711,112.199c1.263,0,2.287-1.024,2.287-2.287
				c0-1.263-1.024-2.287-2.287-2.287s-2.287,1.024-2.287,2.287C415.425,111.176,416.449,112.199,417.711,112.199z"/>
			<circle style="fill:none;stroke:#263238;stroke-miterlimit:10;" cx="417.711" cy="123.796" r="2.287"/>
		</g>
	</g>
	<g>
		<rect x="36.078" y="366" style="fill:none;stroke:#263238;stroke-miterlimit:10;" width="21.57" height="21.57"/>
		<polygon style="fill:none;stroke:#263238;stroke-miterlimit:10;" points="53.524,375.125 48.029,375.125 48.029,369.63 
			45.697,369.63 45.697,375.125 40.202,375.125 40.202,377.456 45.697,377.456 45.697,382.952 48.029,382.952 48.029,377.456 
			53.524,377.456 		"/>
		<rect x="57.598" y="366" style="fill:none;stroke:#263238;stroke-miterlimit:10;" width="21.57" height="21.57"/>
		<rect x="62.638" y="375.125" style="fill:none;stroke:#263238;stroke-miterlimit:10;" width="11.49" height="1.998"/>
		<rect x="36.078" y="387.525" style="fill:none;stroke:#263238;stroke-miterlimit:10;" width="21.57" height="21.57"/>
		<polygon style="fill:none;stroke:#263238;stroke-miterlimit:10;" points="50.749,392.282 46.863,396.167 42.977,392.282 
			41.329,393.93 45.215,397.816 41.329,401.702 42.977,403.35 46.863,399.464 50.749,403.35 52.397,401.702 48.512,397.816 
			52.397,393.93 		"/>
		<rect x="57.598" y="387.525" style="fill:none;stroke:#263238;stroke-miterlimit:10;" width="21.57" height="21.57"/>
		<g>
			<rect x="62.638" y="396.65" style="fill:none;stroke:#263238;stroke-miterlimit:10;" width="11.49" height="1.998"/>
			<circle style="fill:none;stroke:#263238;stroke-miterlimit:10;" cx="68.383" cy="393.377" r="1.444"/>
			<path style="fill:none;stroke:#263238;stroke-miterlimit:10;" d="M68.383,400.702c-0.798,0-1.444,0.647-1.444,1.444
				c0,0.798,0.647,1.444,1.444,1.444s1.444-0.647,1.444-1.444C69.827,401.348,69.18,400.702,68.383,400.702z"/>
		</g>
	</g>
	<g>
		<g>
			<path style="fill:none;stroke:#263238;stroke-miterlimit:10;" d="M297.482,109.197c-0.132,0.033-0.198,0.132-0.198,0.231
				l0.033,1.483c0,0.395-0.198,0.56-0.56,0.56h-1.945c-0.362,0-0.56-0.165-0.56-0.56l0.066-1.516c0-0.099-0.066-0.198-0.198-0.231
				c-3.758-0.462-5.933-2.736-5.933-5.9v-1.418c0-0.362,0.198-0.56,0.56-0.56h3.428c0.363,0,0.56,0.165,0.56,0.429v0.462
				c0,1.681,1.088,3.132,3.33,3.132c2.11,0,2.999-1.286,2.999-2.604c0-2.34-4.285-2.703-7.449-4.747
				c-2.044-1.252-3.461-2.868-3.461-5.67c0-3.461,2.143-5.9,5.933-6.461c0.132-0.033,0.198-0.132,0.198-0.23l-0.066-1.78
				c0-0.396,0.198-0.56,0.56-0.56h1.879c0.362,0,0.56,0.198,0.56,0.56l-0.033,1.747c0,0.099,0.066,0.198,0.198,0.231
				c3.956,0.429,6.197,2.835,6.197,6.23v1.088c0,0.362-0.198,0.56-0.56,0.56h-3.461c-0.362,0-0.56-0.132-0.56-0.33v-0.329
				c0-1.747-0.989-3.33-3.296-3.33c-1.846,0-2.967,0.956-2.967,2.439c0,2.143,3,2.472,6.098,3.824
				c3.395,1.516,4.878,3.626,4.878,6.527C303.712,106.098,301.503,108.67,297.482,109.197z"/>
		</g>
		<circle style="fill:none;stroke:#263238;stroke-miterlimit:10;" cx="295.657" cy="97.54" r="18.736"/>
	</g>
	<g>
		<g>
			<path style="fill:none;stroke:#263238;stroke-miterlimit:10;" d="M147.327,74.351c-0.088,0.022-0.132,0.089-0.132,0.155
				l0.022,0.993c0,0.265-0.132,0.375-0.375,0.375h-1.302c-0.243,0-0.375-0.11-0.375-0.375l0.044-1.015
				c0-0.066-0.044-0.133-0.132-0.155c-2.516-0.309-3.973-1.832-3.973-3.951v-0.949c0-0.243,0.132-0.375,0.375-0.375h2.295
				c0.243,0,0.375,0.111,0.375,0.287v0.309c0,1.126,0.728,2.097,2.229,2.097c1.413,0,2.008-0.861,2.008-1.744
				c0-1.567-2.869-1.81-4.988-3.178c-1.368-0.839-2.317-1.92-2.317-3.796c0-2.317,1.435-3.951,3.973-4.326
				c0.088-0.022,0.132-0.088,0.132-0.154l-0.044-1.192c0-0.265,0.132-0.375,0.375-0.375h1.258c0.243,0,0.375,0.133,0.375,0.375
				l-0.022,1.17c0,0.066,0.044,0.132,0.132,0.154c2.649,0.287,4.15,1.898,4.15,4.172v0.728c0,0.243-0.132,0.375-0.375,0.375h-2.318
				c-0.243,0-0.375-0.088-0.375-0.221v-0.221c0-1.17-0.662-2.229-2.207-2.229c-1.236,0-1.987,0.64-1.987,1.633
				c0,1.435,2.009,1.655,4.083,2.56c2.273,1.015,3.266,2.428,3.266,4.37C151.498,72.276,150.02,73.997,147.327,74.351z"/>
		</g>
		
			<ellipse transform="matrix(0.7071 -0.7071 0.7071 0.7071 -4.2615 122.8024)" style="fill:none;stroke:#263238;stroke-miterlimit:10;" cx="146.105" cy="66.545" rx="12.545" ry="12.545"/>
	</g>
	<g>
		<g>
			<path style="fill:none;stroke:#263238;stroke-miterlimit:10;" d="M50.192,200.066c-0.088,0.022-0.132,0.089-0.132,0.155
				l0.022,0.993c0,0.265-0.132,0.375-0.375,0.375h-1.302c-0.243,0-0.375-0.111-0.375-0.375l0.044-1.015
				c0-0.066-0.044-0.133-0.132-0.155c-2.516-0.309-3.973-1.832-3.973-3.951v-0.949c0-0.243,0.132-0.375,0.375-0.375h2.295
				c0.243,0,0.375,0.111,0.375,0.287v0.309c0,1.126,0.728,2.097,2.229,2.097c1.412,0,2.008-0.861,2.008-1.744
				c0-1.567-2.869-1.81-4.988-3.178c-1.368-0.839-2.317-1.92-2.317-3.796c0-2.317,1.435-3.951,3.973-4.326
				c0.088-0.022,0.132-0.088,0.132-0.154l-0.044-1.192c0-0.265,0.132-0.375,0.375-0.375h1.258c0.243,0,0.375,0.133,0.375,0.375
				l-0.022,1.17c0,0.066,0.044,0.132,0.132,0.154c2.649,0.287,4.15,1.898,4.15,4.171v0.728c0,0.243-0.132,0.375-0.375,0.375h-2.318
				c-0.243,0-0.375-0.088-0.375-0.221v-0.221c0-1.17-0.662-2.229-2.207-2.229c-1.236,0-1.986,0.64-1.986,1.633
				c0,1.435,2.009,1.655,4.083,2.56c2.273,1.015,3.266,2.428,3.266,4.37C54.363,197.992,52.885,199.713,50.192,200.066z"/>
		</g>
		
			<ellipse transform="matrix(0.7071 -0.7071 0.7071 0.7071 -121.6062 90.9387)" style="fill:none;stroke:#263238;stroke-miterlimit:10;" cx="48.97" cy="192.261" rx="12.545" ry="12.545"/>
	</g>
	<g>
		<g>
			<path style="fill:none;stroke:#263238;stroke-miterlimit:10;" d="M463.222,371.805c-0.088,0.022-0.132,0.089-0.132,0.155
				l0.022,0.993c0,0.265-0.132,0.375-0.375,0.375h-1.302c-0.243,0-0.375-0.111-0.375-0.375l0.044-1.015
				c0-0.066-0.044-0.133-0.132-0.155c-2.516-0.309-3.973-1.832-3.973-3.951v-0.949c0-0.242,0.132-0.375,0.375-0.375h2.295
				c0.243,0,0.375,0.111,0.375,0.287v0.309c0,1.126,0.728,2.097,2.229,2.097c1.413,0,2.008-0.861,2.008-1.744
				c0-1.567-2.869-1.81-4.988-3.178c-1.368-0.839-2.317-1.92-2.317-3.796c0-2.317,1.435-3.951,3.973-4.326
				c0.088-0.022,0.132-0.088,0.132-0.154l-0.044-1.192c0-0.265,0.132-0.375,0.375-0.375h1.258c0.243,0,0.375,0.133,0.375,0.375
				l-0.022,1.17c0,0.066,0.044,0.132,0.132,0.154c2.649,0.287,4.15,1.898,4.15,4.172v0.728c0,0.243-0.132,0.375-0.375,0.375h-2.318
				c-0.243,0-0.375-0.088-0.375-0.221v-0.221c0-1.17-0.662-2.229-2.207-2.229c-1.236,0-1.986,0.64-1.986,1.633
				c0,1.435,2.009,1.655,4.083,2.56c2.273,1.015,3.267,2.428,3.267,4.37C467.394,369.73,465.915,371.452,463.222,371.805z"/>
		</g>
		<circle style="fill:none;stroke:#263238;stroke-miterlimit:10;" cx="462" cy="364" r="12.545"/>
	</g>
</g>
<g id="Device">
	<g>
		<path style="fill:#CCCCCC;" d="M421.853,448.514c0,3.337-76.582,6.043-171.05,6.043s-171.05-2.705-171.05-6.043
			s76.582-6.043,171.05-6.043S421.853,445.177,421.853,448.514z"/>
		<g id="XMLID_139_">
			<path style="fill:#FFFFFF;stroke:#263238;stroke-linecap:round;stroke-linejoin:round;stroke-miterlimit:10;" d="
				M238.499,394.206c0,0,8.316,35.76,4.697,41.637c-4.734,7.686-55.142,12.317-55.142,12.317h111.155c0,0,13.928-3.908,9.741-15.106
				c-3.24-8.664-18.787-38.848-18.787-38.848H238.499z"/>
			<path style="fill:#FFFFFF;stroke:#263238;stroke-linecap:round;stroke-linejoin:round;stroke-miterlimit:10;" d="
				M236.064,394.206c0,0,8.872,36.059,4.697,41.637c-4.175,5.578-52.707,9.839-52.707,9.839H299.73c0,0,9.393-3.796,6.784-12.627
				c-2.609-8.831-18.787-38.848-18.787-38.848H236.064z"/>
			<path style="fill:#263238;stroke:#263238;stroke-linecap:round;stroke-linejoin:round;stroke-miterlimit:10;" d="
				M287.727,394.206h-51.663c0,0,5.254,21.366,5.768,33.747h62.746C299.501,416.054,287.727,394.206,287.727,394.206z"/>
			
				<rect x="188.054" y="445.862" style="fill:#FFFFFF;stroke:#263238;stroke-linecap:round;stroke-linejoin:round;stroke-miterlimit:10;" width="111.154" height="2.298"/>
			<path id="XMLID_1_" style="fill:#FFFFFF;stroke:#263238;stroke-linecap:round;stroke-linejoin:round;stroke-miterlimit:10;" d="
				M424.888,397.728H106.477c-4.686,0-8.484-3.798-8.484-8.484V154.678c0-4.686,3.799-8.484,8.484-8.484h318.411
				c4.686,0,8.484,3.798,8.484,8.484v234.566C433.372,393.93,429.574,397.728,424.888,397.728z"/>
			
				<path id="XMLID_146_" style="fill:#263238;stroke:#263238;stroke-linecap:round;stroke-linejoin:round;stroke-miterlimit:10;" d="
				M416.981,397.728H98.571c-4.686,0-8.484-3.798-8.484-8.484V154.678c0-4.686,3.799-8.484,8.484-8.484h318.411
				c4.686,0,8.484,3.798,8.484,8.484v234.566C425.466,393.93,421.667,397.728,416.981,397.728z"/>
			
				<path id="XMLID_145_" style="fill:#FFFFFF;stroke:#263238;stroke-linecap:round;stroke-linejoin:round;stroke-miterlimit:10;" d="
				M416.981,397.728H98.571c-4.686,0-8.484-3.798-8.484-8.484V358.63h335.379v30.614
				C425.466,393.93,421.667,397.728,416.981,397.728z"/>
			
				<rect id="XMLID_144_" x="106.956" y="161.842" style="fill:#FFFFFF;stroke:#263238;stroke-linecap:round;stroke-linejoin:round;stroke-miterlimit:10;" width="301.64" height="177.709"/>
			<g>
				<rect x="122.082" y="264.154" style="fill:#C6FF00;" width="256.059" height="11.242"/>
				<rect x="122.082" y="285.388" style="fill:#C6FF00;" width="256.059" height="11.242"/>
				<g>
					<path style="fill:#263238;" d="M122.064,190.702v-15.013c0-0.248,0.135-0.383,0.383-0.383h2.412
						c0.248,0,0.382,0.135,0.382,0.383v15.013c0,0.248-0.134,0.383-0.382,0.383h-2.412
						C122.199,191.086,122.064,190.95,122.064,190.702z"/>
					<path style="fill:#263238;" d="M127.991,190.702v-15.013c0-0.248,0.135-0.383,0.383-0.383h2.322
						c0.203,0,0.338,0.068,0.451,0.248l5.635,9.378c0.068,0.113,0.157,0.09,0.157-0.045v-9.197c0-0.248,0.135-0.383,0.383-0.383
						h2.368c0.248,0,0.382,0.135,0.382,0.383v15.013c0,0.248-0.135,0.383-0.382,0.383h-2.3c-0.203,0-0.338-0.09-0.451-0.27
						l-5.657-9.468c-0.068-0.113-0.158-0.09-0.158,0.045l0.023,9.31c0,0.248-0.135,0.383-0.383,0.383h-2.39
						C128.127,191.086,127.991,190.95,127.991,190.702z"/>
					<path style="fill:#263238;" d="M146.697,190.77l-4.576-15.036c-0.068-0.248,0.045-0.428,0.316-0.428h2.615
						c0.226,0,0.361,0.113,0.429,0.316l2.953,10.866c0.022,0.112,0.157,0.112,0.18,0l2.907-10.843
						c0.068-0.203,0.203-0.338,0.429-0.338h2.547c0.271,0,0.405,0.18,0.316,0.428l-4.644,15.036
						c-0.068,0.203-0.203,0.316-0.428,0.316h-2.616C146.9,191.086,146.765,190.973,146.697,190.77z"/>
					<path style="fill:#263238;" d="M155.779,185.608v-4.824c0-3.381,2.367-5.658,5.929-5.658c3.583,0,5.951,2.277,5.951,5.658
						v4.824c0,3.426-2.368,5.726-5.951,5.726C158.145,191.334,155.779,189.034,155.779,185.608z M164.48,185.721v-4.959
						c0-1.758-1.104-2.908-2.772-2.908c-1.646,0-2.751,1.15-2.751,2.908v4.959c0,1.736,1.105,2.885,2.751,2.885
						C163.375,188.606,164.48,187.456,164.48,185.721z"/>
					<path style="fill:#263238;" d="M170.089,190.702v-15.013c0-0.248,0.135-0.383,0.383-0.383h2.413
						c0.248,0,0.382,0.135,0.382,0.383v15.013c0,0.248-0.135,0.383-0.382,0.383h-2.413
						C170.225,191.086,170.089,190.95,170.089,190.702z"/>
					<path style="fill:#263238;" d="M175.7,185.788v-5.207c0-3.291,2.322-5.455,5.861-5.455c3.494,0,5.839,2.074,5.839,5.207
						c0,0.135-0.135,0.225-0.361,0.248l-2.411,0.158c-0.248,0.022-0.406-0.045-0.406-0.113v-0.135c0-1.578-1.059-2.638-2.66-2.638
						c-1.623,0-2.683,1.059-2.683,2.638v5.433c0,1.555,1.06,2.615,2.683,2.615c1.6,0,2.66-1.059,2.66-2.615
						c0-0.158,0.135-0.271,0.383-0.248l2.412,0.113c0.225,0.022,0.383,0.045,0.383,0.113v0.113c0,3.156-2.345,5.252-5.839,5.252
						C178.022,191.266,175.7,189.079,175.7,185.788z"/>
					<path style="fill:#263238;" d="M200.291,178.034h-7.259c-0.068,0-0.135,0.045-0.135,0.135v3.449
						c0,0.09,0.046,0.135,0.135,0.135h4.711c0.248,0,0.383,0.135,0.383,0.383v1.961c0,0.248-0.135,0.383-0.383,0.383h-4.711
						c-0.068,0-0.135,0.045-0.135,0.135v3.607c0,0.068,0.046,0.135,0.135,0.135h7.259c0.248,0,0.382,0.135,0.382,0.383v1.961
						c0,0.248-0.134,0.383-0.382,0.383h-10.189c-0.248,0-0.383-0.135-0.383-0.383v-15.013c0-0.248,0.135-0.383,0.383-0.383h10.189
						c0.248,0,0.382,0.135,0.382,0.383v1.961C200.674,177.898,200.539,178.034,200.291,178.034z"/>
				</g>
				<line style="fill:none;stroke:#263238;stroke-miterlimit:10;" x1="122.064" y1="197.109" x2="167.109" y2="197.109"/>
				<line style="fill:none;stroke:#263238;stroke-miterlimit:10;" x1="122.064" y1="203.733" x2="167.109" y2="203.733"/>
				<line style="fill:none;stroke:#263238;stroke-miterlimit:10;" x1="268.133" y1="203.733" x2="313.178" y2="203.733"/>
				<line style="fill:none;stroke:#263238;stroke-miterlimit:10;" x1="268.133" y1="210.323" x2="313.178" y2="210.323"/>
				<line style="fill:none;stroke:#263238;stroke-miterlimit:10;" x1="268.133" y1="216.913" x2="313.178" y2="216.913"/>
				<line style="fill:none;stroke:#263238;stroke-miterlimit:10;" x1="122.064" y1="210.358" x2="167.109" y2="210.358"/>
				<line style="fill:none;stroke:#263238;stroke-miterlimit:10;" x1="122.064" y1="321.546" x2="167.109" y2="321.546"/>
				<line style="fill:none;stroke:#263238;stroke-miterlimit:10;" x1="122.064" y1="327.695" x2="167.109" y2="327.695"/>
				<line style="fill:none;stroke:#263238;stroke-miterlimit:10;" x1="122.064" y1="216.982" x2="167.109" y2="216.982"/>
				<rect x="122.064" y="223.606" style="fill:#C6FF00;" width="107.975" height="11.924"/>
				<g>
					<rect x="320.791" y="211.682" style="fill:#C6FF00;" width="56.968" height="5.962"/>
					<rect x="320.791" y="196.447" style="fill:none;stroke:#263238;stroke-miterlimit:10;" width="56.968" height="21.198"/>
					<rect x="320.791" y="202.409" style="fill:none;stroke:#263238;stroke-miterlimit:10;" width="56.968" height="9.274"/>
					<line style="fill:none;stroke:#263238;stroke-miterlimit:10;" x1="329.464" y1="196.631" x2="329.464" y2="217.387"/>
				</g>
				<rect x="122.082" y="243.544" style="fill:none;stroke:#263238;stroke-miterlimit:10;" width="256.059" height="71.821"/>
				<rect x="122.082" y="243.544" style="fill:#C6FF00;stroke:#263238;stroke-miterlimit:10;" width="256.059" height="11.242"/>
				<line style="fill:none;stroke:#263238;stroke-miterlimit:10;" x1="302.853" y1="243.815" x2="302.853" y2="315.236"/>
				<line style="fill:none;stroke:#263238;stroke-miterlimit:10;" x1="330.676" y1="243.815" x2="330.676" y2="315.236"/>
				<g>
					<rect x="294.588" y="320.947" style="fill:#C6FF00;" width="36.529" height="14.001"/>
					<g>
						<path style="fill:#263238;" d="M308.742,327.085c0,1.427-1.022,2.381-2.551,2.381h-1.584c-0.033,0-0.067,0.023-0.067,0.068
							v2.798c0,0.124-0.068,0.191-0.191,0.191h-1.202c-0.124,0-0.191-0.068-0.191-0.191v-7.493c0-0.124,0.068-0.191,0.191-0.191
							h3.112C307.754,324.647,308.742,325.624,308.742,327.085z M307.169,327.119c0-0.663-0.461-1.102-1.146-1.102h-1.416
							c-0.045,0-0.067,0.023-0.067,0.068v2.045c0,0.045,0.022,0.068,0.067,0.068h1.416
							C306.709,328.198,307.169,327.76,307.169,327.119z"/>
						<path style="fill:#263238;" d="M313.937,332.366l-0.315-1.045c-0.012-0.045-0.034-0.056-0.067-0.056h-2.753
							c-0.034,0-0.056,0.011-0.068,0.056l-0.314,1.045c-0.034,0.102-0.101,0.157-0.214,0.157h-1.303
							c-0.135,0-0.202-0.09-0.157-0.213l2.393-7.494c0.033-0.101,0.101-0.157,0.213-0.157h1.652c0.112,0,0.18,0.057,0.214,0.157
							l2.393,7.494c0.045,0.124-0.023,0.213-0.157,0.213h-1.304C314.038,332.523,313.97,332.467,313.937,332.366z M311.184,330.04
							h1.988c0.045,0,0.068-0.023,0.056-0.079l-1.011-3.427c-0.022-0.056-0.068-0.056-0.09,0l-1,3.427
							C311.117,330.017,311.139,330.04,311.184,330.04z"/>
						<path style="fill:#263238;" d="M317.637,332.321v-2.776c0-0.022-0.012-0.067-0.022-0.09l-2.27-4.572
							c-0.067-0.124-0.011-0.225,0.135-0.225h1.303c0.101,0,0.18,0.057,0.225,0.146l1.371,2.921c0.022,0.045,0.067,0.045,0.09,0
							l1.37-2.921c0.045-0.09,0.124-0.146,0.225-0.146h1.315c0.146,0,0.214,0.102,0.146,0.225l-2.292,4.572
							c-0.011,0.023-0.022,0.068-0.022,0.09v2.776c0,0.124-0.068,0.191-0.191,0.191h-1.191
							C317.704,332.512,317.637,332.445,317.637,332.321z"/>
					</g>
				</g>
			</g>
			
				<rect id="XMLID_2_" x="106.956" y="161.842" style="fill:#C6FF00;stroke:#263238;stroke-linecap:round;stroke-linejoin:round;stroke-miterlimit:10;" width="301.64" height="8.21"/>
			
				<path id="XMLID_143_" style="fill:#263238;stroke:#263238;stroke-linecap:round;stroke-linejoin:round;stroke-miterlimit:10;" d="
				M263.961,378.179c0-3.416-2.769-6.185-6.185-6.185c-3.416,0-6.185,2.769-6.185,6.185c0,3.416,2.769,6.185,6.185,6.185
				C261.192,384.365,263.961,381.595,263.961,378.179z"/>
		</g>
	</g>
</g>
<g id="Character">
	<g>
		<path style="fill:#CCCCCC;" d="M434.475,462.813c0,3.97-17.783,7.188-39.721,7.188c-21.937,0-39.721-3.218-39.721-7.188
			c0-3.97,17.784-7.188,39.721-7.188C416.691,455.625,434.475,458.843,434.475,462.813z"/>
		<path id="XMLID_99_" style="fill:#C6FF00;stroke:#263238;stroke-linecap:round;stroke-linejoin:round;stroke-miterlimit:10;" d="
			M370.203,278.5c0,0-4.278,1.604-5.615,7.621s-4.145,24.2-5.615,32.756c-1.471,8.557-9.359,36.366-9.359,36.366l4.145,2.808
			c0,0,10.161-14.841,12.969-21.793c2.808-6.952,5.615-11.766,6.016-17.114c0.401-5.348-0.267-34.762-0.267-37.035
			C372.476,279.837,371.406,278.233,370.203,278.5z"/>
		<path id="XMLID_115_" style="fill:#FFFFFF;stroke:#263238;stroke-linecap:round;stroke-linejoin:round;stroke-miterlimit:10;" d="
			M374.08,453.067c0,0-10.562,6.819-11.766,9.225c-1.203,2.407,1.07,3.075,6.952,2.273c5.883-0.802,10.027-3.877,12.835-5.482
			c2.808-1.604,4.145-1.738,3.209-5.348C384.375,450.126,374.08,453.067,374.08,453.067z"/>
		<path id="XMLID_116_" style="fill:#FFFFFF;stroke:#263238;stroke-linecap:round;stroke-linejoin:round;stroke-miterlimit:10;" d="
			M415.393,454.137c0,0,11.632,7.888,10.963,9.626c-0.668,1.738-4.145,2.54-10.295,0.535s-7.487-3.61-10.027-5.749
			c-2.54-2.139-1.604-4.813-1.604-6.685S415.393,454.137,415.393,454.137z"/>
		<path id="XMLID_113_" style="fill:#263238;stroke:#263238;stroke-linecap:round;stroke-linejoin:round;stroke-miterlimit:10;" d="
			M368.599,331.98c0,0-2.407,21.124-2.674,37.971c-0.267,16.846,7.487,81.111,7.487,81.78c0,0.668,0,0.668,0,0.668v1.337
			c0,0,3.075,1.471,6.284,1.604s6.819-0.267,6.819-0.267s0-11.899,0.267-21.125c0.267-9.225,1.738-51.296,1.738-51.296l0.401-18.183
			l2.674,1.738l12.568,89.133l11.231-1.203c0,0,1.337-59.318,1.07-75.629c-0.267-16.311-3.476-45.057-3.476-45.057L368.599,331.98z"
			/>
		<path id="XMLID_100_" style="fill:#C6FF00;stroke:#263238;stroke-linecap:round;stroke-linejoin:round;stroke-miterlimit:10;" d="
			M389.589,272.216c0,0-17.782,5.482-19.386,6.284c-1.604,0.802-2.674,5.081-2.674,10.429s2.005,31.82,1.738,35.029
			s-1.872,7.22-0.535,9.493c1.337,2.273,18.985,3.744,28.478,3.342c9.493-0.401,14.841,0.535,16.178-2.139
			c1.337-2.674,2.139-35.698,3.476-43.319c1.337-7.621,2.273-11.632-0.401-13.771c-2.674-2.139-16.846-4.68-20.322-5.482
			L389.589,272.216z"/>
		<path id="XMLID_98_" style="fill:#FFFFFF;stroke:#263238;stroke-linecap:round;stroke-linejoin:round;stroke-miterlimit:10;" d="
			M388.99,268.849c0,0-2.945,0.982-3.927,3.213c-0.982,2.231-3.926,13.207-2.856,13.743c1.071,0.535,9.37-3.48,10.619-3.213
			c1.249,0.268,6.336,6.871,7.853,5.979c1.517-0.892,5.087-10.262,3.748-15.081S390.328,267.6,388.99,268.849z"/>
		<path id="XMLID_94_" style="fill:#CCCCCC;stroke:#263238;stroke-linecap:round;stroke-linejoin:round;stroke-miterlimit:10;" d="
			M387.383,265.815c0,0-0.089,4.908-0.089,7.407c0,2.499,2.142,11.423,4.016,11.066c1.874-0.357,9.638-9.102,10.887-11.423
			c1.249-2.32,1.517-7.139,1.517-7.139s-5.533,3.927-9.727,2.677C389.793,267.154,387.383,265.815,387.383,265.815z"/>
		<path style="fill:#263238;stroke:#263238;stroke-linecap:round;stroke-linejoin:round;stroke-miterlimit:10;" d="M393.987,268.403
			c-4.194-1.249-6.604-2.588-6.604-2.588s-0.035,1.931-0.061,3.988c0.61,1.311,1.19,2.411,1.6,3.19
			c1.455,2.764,4.073,3.71,6.619,2.764c2.172-0.807,5.083-2.839,7.563-5.585c0.483-2.175,0.61-4.447,0.61-4.447
			S398.181,269.652,393.987,268.403z"/>
		<g>
			<path id="XMLID_81_" style="fill:#CCCCCC;stroke:#263238;stroke-linecap:round;stroke-linejoin:round;stroke-miterlimit:10;" d="
				M385.285,251.462c0,0-0.509-3.564-2.182-2.109s-1.382,5.092-0.582,6.837c0.8,1.746,1.673,1.528,1.891,1.455
				C384.63,257.572,385.285,251.462,385.285,251.462z"/>
			<path id="XMLID_88_" style="fill:#263238;stroke:#263238;stroke-linecap:round;stroke-linejoin:round;stroke-miterlimit:10;" d="
				M408.561,254.88c0.223-0.361,2.91-9.383,3.055-14.257c0.145-4.874-6.91-9.456-11.929-10.402
				c-5.019-0.946-12.438,0.291-14.039,3.128c-1.6,2.837-1.746,13.966-1.746,15.857c0,1.891,1.455,2.182,1.819,1.746
				c0.364-0.436,1.455-11.42,2.109-12.22c0.655-0.8,12.293-0.436,14.111,0.073c1.818,0.509,2.837,2.4,2.473,5.165
				c-0.364,2.764,0.073,2.619,0.8,4.219c0.727,1.6,0.727,2.182,0.727,4.364C405.943,254.735,407.034,257.353,408.561,254.88z"/>
			<path id="XMLID_86_" style="fill:#CCCCCC;stroke:#263238;stroke-linecap:round;stroke-linejoin:round;stroke-miterlimit:10;" d="
				M386.885,238.368c0,0-2.255,9.747-2.619,16.221c-0.364,6.474,3.201,13.166,4.655,15.93s4.073,3.71,6.619,2.764
				c2.546-0.946,6.11-3.564,8.801-7.056c2.691-3.491,4.073-11.856,4.073-11.856s-1.091,0.582-1.164-0.364
				c-0.073-0.946,0.655-4.219-0.073-6.328c-0.727-2.109-2.328-2.619-1.382-4.655s1.309-3.273,1.309-3.637
				c0-0.364-3.637-2.546-10.256-3.128C390.231,235.677,387.249,236.55,386.885,238.368z"/>
			<path style="fill:none;stroke:#263238;stroke-linecap:round;stroke-linejoin:round;stroke-miterlimit:10;" d="M387.608,244.333
				c0,0,1.951-1.697,4.666,0.255"/>
			<path style="fill:none;stroke:#263238;stroke-linecap:round;stroke-linejoin:round;stroke-miterlimit:10;" d="M397.448,245.096
				c0,0,4.666-1.866,6.532,1.442"/>
			<path id="XMLID_87_" style="fill:#CCCCCC;stroke:#263238;stroke-linecap:round;stroke-linejoin:round;stroke-miterlimit:10;" d="
				M407.688,255.462c0,0,1.455-3.273,3.564-3.419c2.109-0.145,1.818,4.001-0.146,6.692c-1.964,2.691-4.801,3.782-4.874,1.818"/>
			<path id="XMLID_89_" style="fill:none;stroke:#263238;stroke-linecap:round;stroke-linejoin:round;stroke-miterlimit:10;" d="
				M393.431,249.57c0,0-2.4,6.91-1.891,7.856c0.509,0.946,2.473,1.964,4.874,0.873"/>
			<path id="XMLID_91_" style="fill:none;stroke:#263238;stroke-linecap:round;stroke-linejoin:round;stroke-miterlimit:10;" d="
				M394.377,261.572c0,0,3.346,1.309,6.256-1.091"/>
			<path id="XMLID_90_" style="fill:#263238;" d="M391.031,249.825c0,0.783-0.277,1.418-0.618,1.418
				c-0.342,0-0.618-0.635-0.618-1.418s0.277-1.418,0.618-1.418C390.754,248.406,391.031,249.042,391.031,249.825z"/>
			<ellipse id="XMLID_93_" style="fill:#263238;" cx="399.505" cy="250.77" rx="0.618" ry="1.418"/>
			<path id="XMLID_92_" style="fill:none;stroke:#263238;stroke-linecap:round;stroke-linejoin:round;stroke-miterlimit:10;" d="
				M393.504,249.389c0,2.31-1.873,4.182-4.183,4.182c-2.31,0-4.182-1.873-4.182-4.182c0-2.31,1.872-4.183,4.182-4.183
				C391.632,245.206,393.504,247.079,393.504,249.389z"/>
			<path id="XMLID_95_" style="fill:none;stroke:#263238;stroke-linecap:round;stroke-linejoin:round;stroke-miterlimit:10;" d="
				M404.354,250.285c0,2.431-1.97,4.401-4.401,4.401c-2.43,0-4.401-1.97-4.401-4.401c0-2.43,1.97-4.401,4.401-4.401
				C402.384,245.885,404.354,247.855,404.354,250.285z"/>
			<path id="XMLID_96_" style="fill:none;stroke:#263238;stroke-linecap:round;stroke-linejoin:round;stroke-miterlimit:10;" d="
				M393.504,248.625c0,0,1.091-0.582,1.964,0.364"/>
			
				<line id="XMLID_97_" style="fill:none;stroke:#263238;stroke-linecap:round;stroke-linejoin:round;stroke-miterlimit:10;" x1="404.27" y1="250.734" x2="409.507" y2="252.916"/>
		</g>
		
			<line id="XMLID_102_" style="fill:#FFFFFF;stroke:#263238;stroke-linecap:round;stroke-linejoin:round;stroke-miterlimit:10;" x1="350.683" y1="352.168" x2="356.298" y2="354.441"/>
		<g>
			
				<path id="XMLID_105_" style="fill:#CCCCCC;stroke:#263238;stroke-linecap:round;stroke-linejoin:round;stroke-miterlimit:10;" d="
				M345.497,369.293c0,0,0.79,4.621,1.338,4.864c0.547,0.243,0.73-2.25,0.547-3.831c-0.182-1.581-0.182-1.581-0.182-1.581
				s0.851,4.135,1.702,4.5c0.851,0.365,0.365-1.459,0.122-2.371c-0.243-0.912-0.243-0.912-0.243-0.912s2.128,2.25,2.311,1.703
				c0.182-0.547-1.277-3.283-1.338-3.466c-0.061-0.182-0.73-2.371-0.791-3.223c-0.061-0.851-1.277-4.256-2.493-2.128
				C345.254,364.976,345.497,369.293,345.497,369.293z"/>
			
				<path id="XMLID_103_" style="fill:#CCCCCC;stroke:#263238;stroke-linecap:round;stroke-linejoin:round;stroke-miterlimit:10;" d="
				M349.613,355.243c0,0-4.011,6.418-5.081,8.557c-1.07,2.139-1.872,10.161-0.936,10.696c0.936,0.535,1.196-1.411,1.414-2.77
				c0.296-1.847,1.702-4.621,1.702-4.621s-0.576,5.119,0.226,4.985c0.802-0.134,1.471-4.813,2.006-6.017
				c0.535-1.203,3.744-2.941,4.813-8.022L349.613,355.243z"/>
		</g>
		<path id="XMLID_104_" style="fill:#FFFFFF;stroke:#263238;stroke-linecap:round;stroke-linejoin:round;stroke-miterlimit:10;" d="
			M346.713,367.104c0,0,0.042-0.685,0.487-3.223"/>
		<path id="XMLID_106_" style="fill:#C6FF00;stroke:#263238;stroke-linecap:round;stroke-linejoin:round;stroke-miterlimit:10;" d="
			M415.928,277.297c0,0,4.145,2.674,6.685,8.958s11.231,33.692,11.498,34.227c0.267,0.535,0,5.883-4.278,7.621
			c-4.278,1.738-6.284-2.005-8.824-6.284c-2.54-4.278-8.423-23.264-8.423-23.264"/>
		<path id="XMLID_101_" style="fill:#C6FF00;stroke:#263238;stroke-linecap:round;stroke-linejoin:round;stroke-miterlimit:10;" d="
			M426.892,312.727l20.758-10.193l3.61,4.145c0,0-15.276,18.616-18.619,20.755s-7.487,1.604-9.092-2.005"/>
		
			<line id="XMLID_108_" style="fill:#FFFFFF;stroke:#263238;stroke-linecap:round;stroke-linejoin:round;stroke-miterlimit:10;" x1="445.377" y1="304.005" x2="449.254" y2="308.684"/>
		<g>
			
				<path id="XMLID_107_" style="fill:#CCCCCC;stroke:#263238;stroke-linecap:round;stroke-linejoin:round;stroke-miterlimit:10;" d="
				M447.65,302.534c0,0,4.546-7.086,5.883-7.621c1.337-0.535,5.081-1.337,7.22-2.941s3.342-1.203,2.139,0.535
				c-1.203,1.738-2.54,2.005-3.744,2.54c-1.203,0.535-1.738,0.936-1.738,0.936s3.342,0.134,5.482,0.267
				c2.139,0.134,3.877-0.267,3.877-0.267s5.482-2.407,4.145,0.535s-1.203,4.813-6.551,6.418s-10.696,1.471-10.696,1.471
				l-2.407,2.273L447.65,302.534z"/>
			
				<path id="XMLID_109_" style="fill:#CCCCCC;stroke:#263238;stroke-linecap:round;stroke-linejoin:round;stroke-miterlimit:10;" d="
				M468.641,300.93c0,0,2.674-0.802,3.61-3.744c0.936-2.941,0.401-3.075-0.802-2.006c-1.203,1.07-2.139,2.808-2.808,4.145
				C467.972,300.662,468.641,300.93,468.641,300.93z"/>
			
				<path id="XMLID_111_" style="fill:#CCCCCC;stroke:#263238;stroke-linecap:round;stroke-linejoin:round;stroke-miterlimit:10;" d="
				M467.437,301.063c0,0,1.604,1.07,2.808-2.139s1.07-5.749,0-5.214c-1.07,0.535-1.337,0.669-2.674,3.476
				c-1.337,2.808-2.54,4.011-1.738,4.278C466.635,301.732,467.437,301.063,467.437,301.063z"/>
			
				<path id="XMLID_110_" style="fill:#CCCCCC;stroke:#263238;stroke-linecap:round;stroke-linejoin:round;stroke-miterlimit:10;" d="
				M452.062,302.267c0,0,2.005-3.342,4.278-3.342c2.273,0,8.289,1.07,8.289,1.07s4.412-6.418,5.348-5.482
				c0.936,0.936-1.471,5.348-2.54,6.551s-1.203,1.337-2.139,1.604"/>
		</g>
		
			<line id="XMLID_114_" style="fill:none;stroke:#7D7D7D;stroke-linecap:round;stroke-linejoin:round;stroke-miterlimit:10;" x1="388.921" y1="364.469" x2="382.771" y2="361.527"/>
	</g>
</g>
</svg>
