<?xml version="1.0" encoding="utf-8"?>
<!-- Generator: Adobe Illustrator 27.5.0, SVG Export Plug-In . SVG Version: 6.00 Build 0)  -->
<svg version="1.1" xmlns="http://www.w3.org/2000/svg" xmlns:xlink="http://www.w3.org/1999/xlink" x="0px" y="0px"
	 viewBox="0 0 3710 3710" style="enable-background:new 0 0 3710 3710;" xml:space="preserve">
<g id="Background">
	<g>
		<g>
			<rect style="fill:#FFFFFF;" width="3710" height="3710"/>
		</g>
	</g>
</g>
<g id="Illustration">
	<g>
		<path style="fill:#F4F7FA;" d="M2958.741,2840.667c-75.803,78.136-143.63,124.067-195.56,158.741
			c-506.466,338.172-1085.412,240.703-1264.408,207.388c-288.788-53.75-532.565-91.667-742.012-280.895
			c-475.928-429.983-452.78-1326.959-89.112-1882.596c43.12-65.882,406.237-604.134,986.436-679.979
			c14.191-1.855,24.779-2.911,34.053-3.893c89.756-9.503,645.952-59.659,1099.476,320.304
			c64.92,54.389,169.394,152.494,266.276,302.12C3408.132,1528.958,3409.254,2376.296,2958.741,2840.667z"/>
		<g>
			<g>
				<path style="fill:#97A6B7;" d="M2373.969,2762.776c-34.643-11.49-60.536-40.892-67.837-77.029l-50.422-249.553l-431.323,15.316
					l-53.083,259.979c-7.435,36.41,22.326,72.938,56.6,86.348l180.456,70.606c33.563,13.133,69.642,18.363,105.5,15.295
					l381.368-32.625c11.148-0.954,20.091-9.717,21.388-20.96c1.298-11.243,9.109-23.866-1.522-27.393L2373.969,2762.776z"/>
				<linearGradient id="SVGID_1_" gradientUnits="userSpaceOnUse" x1="2104.1628" y1="3230.6245" x2="2157.9453" y2="2710.7234">
					<stop  offset="0" style="stop-color:#444B8C"/>
					<stop  offset="0.9964" style="stop-color:#26264F"/>
				</linearGradient>
				<path style="fill:url(#SVGID_1_);" d="M2378.237,2747.598c-34.608-11.346-60.475-40.378-67.769-76.061l-50.371-246.416
					l-420.809,15.14l-53.03,256.71c-7.427,35.952,12.224,72.005,46.463,85.246l180.275,69.718
					c33.53,12.967,69.572,18.132,105.394,15.103l380.985-32.215c11.137-0.942,20.071-9.595,21.367-20.697
					s-5.404-21.58-16.025-25.062L2378.237,2747.598z"/>
			</g>
			<g>
				<g>
					
						<linearGradient id="SVGID_00000102506053399940043920000007104583565605820606_" gradientUnits="userSpaceOnUse" x1="1730.922" y1="1780.0048" x2="1163.2128" y2="1845.7391">
						<stop  offset="0" style="stop-color:#444B8C"/>
						<stop  offset="0.3946" style="stop-color:#383C74"/>
						<stop  offset="0.9964" style="stop-color:#26264F"/>
					</linearGradient>
					<path style="fill:url(#SVGID_00000102506053399940043920000007104583565605820606_);" d="M943.039,2602.06
						c-46.774,2.788-85.039-27.556-85.039-67.656V1089.088c0-40.1,38.266-71.067,85.039-69.041l2163.108,93.726
						c34.34,1.488,62.146,30.44,62.146,64.545v1229.23c0,34.105-27.806,63.51-62.146,65.558L943.039,2602.06z"/>
					
						<linearGradient id="SVGID_00000016063449456389865340000007957939609149919108_" gradientUnits="userSpaceOnUse" x1="2697.1135" y1="737.4626" x2="1173.2666" y2="3056.0984">
						<stop  offset="0" style="stop-color:#444B8C"/>
						<stop  offset="0.9964" style="stop-color:#26264F"/>
					</linearGradient>
					<path style="fill:url(#SVGID_00000016063449456389865340000007957939609149919108_);" d="M962.479,2602.06
						c-46.774,2.788-85.04-27.556-85.04-67.656V1089.088c0-40.1,38.266-71.067,85.04-69.041l2163.108,93.726
						c34.34,1.488,62.146,30.44,62.146,64.545v1229.23c0,34.105-27.806,63.51-62.146,65.558L962.479,2602.06z"/>
					<path style="opacity:0.3;fill:#D8DEE8;" d="M3125.588,1142.702l-2163.108-88.987c-25.006-1.028-45.336,15.494-45.336,36.906
						v1124.075v317.526c0,21.414,20.331,37.604,45.336,36.168l2163.108-124.215c18.406-1.057,33.289-16.745,33.289-35.044v-280.998
						v-950.931C3158.877,1158.905,3143.994,1143.459,3125.588,1142.702z"/>
					
						<linearGradient id="SVGID_00000075870254540197646740000005084100259097838739_" gradientUnits="userSpaceOnUse" x1="2502.0779" y1="1033.3312" x2="721.2714" y2="3644.7866">
						<stop  offset="0.0036" style="stop-color:#E38DDD"/>
						<stop  offset="1" style="stop-color:#9571F6"/>
					</linearGradient>
					<path style="fill:url(#SVGID_00000075870254540197646740000005084100259097838739_);" d="M962.479,2445.608
						c-9.735,0.481-17.664-5.905-17.664-14.233V1091.69c0-8.328,7.929-14.792,17.664-14.406l2163.108,85.669
						c7.179,0.284,13.015,6.327,13.015,13.467v1148.66c0,7.141-5.836,13.24-13.015,13.595L962.479,2445.608z"/>
				</g>
				<path style="opacity:0.6;fill:#FFFFFF;" d="M2899.768,2383.644c-181.981-112.57-54.873-432.634-259.243-593.448
					c-206.043-162.13-495.971,36.721-640.299-131.183c-107.466-125.02,18.28-275.976-84.332-393.55
					c-160.918-184.381-572.855,69.205-762.112-112.443c-26.871-25.79-53.987-64.917-69.419-127.692l-121.883-5.281
					c-46.774-2.026-85.04,28.941-85.04,69.041v1445.316c0,40.101,38.266,70.445,85.04,67.656l2163.108-128.954
					c34.34-2.047,62.146-31.452,62.146-65.558v-21.854C3044.104,2434.431,2956.298,2418.612,2899.768,2383.644z"/>
			</g>
		</g>
		<g>
			
				<linearGradient id="SVGID_00000003807373701638849720000014558033192878031238_" gradientUnits="userSpaceOnUse" x1="1545.907" y1="3074.803" x2="1378.6029" y2="3145.0706">
				<stop  offset="0" style="stop-color:#40447E"/>
				<stop  offset="0.9964" style="stop-color:#3C3B6B"/>
			</linearGradient>
			<path style="fill:url(#SVGID_00000003807373701638849720000014558033192878031238_);" d="M2921.542,2983.254l-2381.625-20.742
				v61.373c0,16.657,10.388,30.822,24.456,33.346l673.452,120.854c7.993,1.435,16.098,1.815,24.162,1.135l1633.673-137.794
				c14.585-1.23,25.881-15.438,25.881-32.553V2983.254z"/>
			
				<linearGradient id="SVGID_00000088111993452134081430000000597999570951260601_" gradientUnits="userSpaceOnUse" x1="1322.505" y1="2337.4377" x2="1140.9369" y2="2413.6963">
				<stop  offset="0" style="stop-color:#40447E"/>
				<stop  offset="0.9964" style="stop-color:#3C3B6B"/>
			</linearGradient>
			<path style="fill:url(#SVGID_00000088111993452134081430000000597999570951260601_);" d="M2154.867,2883.765L566.13,2996.04
				c-28.429,2.009-51.545-19.339-51.545-47.688V1812.594c0-28.349,23.115-51.33,51.545-51.33h1588.737
				c23.422,0,42.359,20.774,42.359,46.401V2834.37C2197.226,2859.996,2178.289,2882.11,2154.867,2883.765z"/>
			
				<linearGradient id="SVGID_00000167393141618026735760000002863797740006176917_" gradientUnits="userSpaceOnUse" x1="539.9172" y1="2378.717" x2="2222.5581" y2="2378.717">
				<stop  offset="0" style="stop-color:#40447E"/>
				<stop  offset="0.9964" style="stop-color:#3C3B6B"/>
			</linearGradient>
			<path style="fill:url(#SVGID_00000167393141618026735760000002863797740006176917_);" d="M2180.199,2883.765L591.462,2996.04
				c-28.43,2.009-51.545-19.339-51.545-47.688V1812.594c0-28.349,23.115-51.33,51.545-51.33h1588.738
				c23.422,0,42.359,20.774,42.359,46.401V2834.37C2222.558,2859.996,2203.621,2882.11,2180.199,2883.765z"/>
			
				<linearGradient id="SVGID_00000108991160744647332930000003334403015575620261_" gradientUnits="userSpaceOnUse" x1="1947.2032" y1="1540.8839" x2="579.723" y2="3451.8477">
				<stop  offset="0.0036" style="stop-color:#E38DDD"/>
				<stop  offset="1" style="stop-color:#9571F6"/>
			</linearGradient>
			<path style="fill:url(#SVGID_00000108991160744647332930000003334403015575620261_);" d="M2130.706,2811.381l-1479.743,97.526
				c-23.135,1.524-41.936-15.997-41.936-39.14v-994.359c0-23.142,18.801-41.982,41.936-42.078l1479.743-6.124
				c19.321-0.08,34.95,16.943,34.95,38.022v905.682C2165.655,2791.989,2150.027,2810.108,2130.706,2811.381z"/>
			
				<linearGradient id="SVGID_00000163769955152422650880000015289639381689760902_" gradientUnits="userSpaceOnUse" x1="539.9172" y1="3000.9512" x2="2921.5425" y2="3000.9512">
				<stop  offset="0" style="stop-color:#40447E"/>
				<stop  offset="0.9964" style="stop-color:#3C3B6B"/>
			</linearGradient>
			<path style="fill:url(#SVGID_00000163769955152422650880000015289639381689760902_);" d="M2140.557,2878.674l-1600.64,118.18
				l697.909,125.243c7.993,1.434,16.098,1.815,24.162,1.134l1659.555-139.977l-755.524-103.778
				C2157.569,2878.316,2149.048,2878.047,2140.557,2878.674z"/>
			
				<linearGradient id="SVGID_00000000922250735901625800000004091516174366165181_" gradientUnits="userSpaceOnUse" x1="773.4757" y1="2981.4373" x2="2518.4775" y2="2981.4373">
				<stop  offset="0" style="stop-color:#40447E"/>
				<stop  offset="0.9964" style="stop-color:#3C3B6B"/>
			</linearGradient>
			<polygon style="opacity:0.3;fill:url(#SVGID_00000000922250735901625800000004091516174366165181_);" points="773.476,2999.825 
				2106.056,2899.971 2518.478,2956.164 1197.377,3062.904 			"/>
			<path style="opacity:0.48;fill:#FFFFFF;" d="M1797.418,2572.266c-122.477-65.899-218.781,17.602-311.72-64.785
				c-56.346-49.949-28.682-87.196-98.016-161.838c-76.791-82.672-126.787-54.882-203.961-129.288
				c-97.581-94.081-48.776-167.279-132.831-234.826c-101.969-81.945-211.938-6.1-309.006-84.687
				c-41.866-33.895-64.837-83.173-76.833-135.579h-94.977c-16.643,0-30.158,13.489-30.158,30.129v1177.313
				c0,16.64,13.515,29.17,30.158,27.988L2189.26,2881.76c7.946-0.564,14.992-5.203,19.514-11.929
				c-118.529-4.32-191.347-44.054-237.894-85.131C1879.819,2704.343,1895.614,2625.099,1797.418,2572.266z"/>
			<g>
				<ellipse style="fill:#FFFFFF;" cx="1423.645" cy="2368.102" rx="366.055" ry="370.741"/>
				
					<linearGradient id="SVGID_00000017491766597039461830000010794237818640712370_" gradientUnits="userSpaceOnUse" x1="1227.7251" y1="2359.3672" x2="1619.5656" y2="2359.3672">
					<stop  offset="0" style="stop-color:#FF9085"/>
					<stop  offset="1" style="stop-color:#FB6FBB"/>
				</linearGradient>
				<path style="fill:url(#SVGID_00000017491766597039461830000010794237818640712370_);" d="M1410.754,2567.87
					c-15.868,0-30.627-8.417-38.837-22.258l-137.713-232.163c-12.89-21.729-5.945-49.921,15.509-62.973
					c21.443-13.05,49.285-6.024,62.175,15.704l95.597,161.162l126.375-251.397c11.354-22.588,38.644-31.575,60.941-20.075
					c22.303,11.5,31.179,39.133,19.824,61.718l-163.483,325.211c-7.476,14.869-22.334,24.46-38.795,25.042
					C1411.816,2567.86,1411.284,2567.87,1410.754,2567.87z"/>
			</g>
		</g>
		<g>
			<g>
				<g>
					
						<linearGradient id="SVGID_00000160902736405047964970000011303923241141936825_" gradientUnits="userSpaceOnUse" x1="3026.2654" y1="2715.8884" x2="2696.5784" y2="2434.6501">
						<stop  offset="0" style="stop-color:#444B8C"/>
						<stop  offset="0.9964" style="stop-color:#26264F"/>
					</linearGradient>
					<path style="fill:url(#SVGID_00000160902736405047964970000011303923241141936825_);" d="M2946.541,2116.146v702.066
						c0,10.499-9.188,12.958-19.594,13.515l-349.866,25.255l-5.2,0.277c-10.661,0.568-19.39-7.669-19.39-18.305v-711.222
						c0-10.636,8.728-19.589,19.39-19.896l7.058-0.203l351.243,5.647C2940.592,2112.989,2946.541,2105.647,2946.541,2116.146z"/>
					
						<linearGradient id="SVGID_00000076603583745392216440000007944889636512586409_" gradientUnits="userSpaceOnUse" x1="-1086.1201" y1="4136.5112" x2="163.5043" y2="4182.9961" gradientTransform="matrix(0 -1 1 0 -1389.0323 1734.3226)">
						<stop  offset="0" style="stop-color:#444B8C"/>
						<stop  offset="0.9964" style="stop-color:#26264F"/>
					</linearGradient>
					<path style="fill:url(#SVGID_00000076603583745392216440000007944889636512586409_);" d="M2957.677,2115.481v702.481
						c0,10.505-8.52,19.554-18.94,20.109l-356.16,18.966c-10.674,0.568-19.412-7.673-19.412-18.315v-711.634
						c0-10.642,8.739-19.601,19.412-19.908l356.16-10.254C2949.157,2096.626,2957.677,2104.976,2957.677,2115.481z"/>
					
						<linearGradient id="SVGID_00000046341071775824994130000013665878714331568046_" gradientUnits="userSpaceOnUse" x1="2869.9556" y1="2338.606" x2="2450.0486" y2="2903.1995">
						<stop  offset="0.0036" style="stop-color:#E38DDD"/>
						<stop  offset="1" style="stop-color:#9571F6"/>
					</linearGradient>
					<path style="fill:url(#SVGID_00000046341071775824994130000013665878714331568046_);" d="M2945.911,2154.778v650.359
						c0,9.802-7.952,18.241-17.678,18.754l-334.911,17.672c-9.948,0.525-18.092-7.163-18.092-17.085V2166.16
						c0-9.922,8.144-18.285,18.092-18.584l334.911-10.087C2937.959,2137.196,2945.911,2144.976,2945.911,2154.778z"/>
				</g>
				<path style="fill:#DE8BDF;" d="M2768.316,2123.175c0,3.664-2.962,6.723-6.618,6.831c-3.656,0.109-6.62-2.775-6.62-6.441
					c0-3.666,2.965-6.725,6.62-6.832C2765.353,2116.627,2768.316,2119.511,2768.316,2123.175z"/>
			</g>
			<g style="opacity:0.48;">
				<path style="fill:#FFFFFF;" d="M2839.719,2532.781c-32.781-81.957-120.425-65.011-147.519-146.927
					c-22.042-66.64,27.077-104.83,7.809-181.885c-10.789-43.148-37.27-75.206-64.243-98.321l-53.188,1.531
					c-10.673,0.307-19.413,9.266-19.413,19.908v711.634c0,10.642,8.739,18.883,19.413,18.315l271.519-14.458
					c-22.16-35.408-31.045-67.158-34.181-93.311C2808.511,2654.182,2869.878,2608.183,2839.719,2532.781z"/>
			</g>
			<g>
				<ellipse style="fill:#FFFFFF;" cx="2761.697" cy="2459.362" rx="162.634" ry="164.716"/>
				
					<linearGradient id="SVGID_00000079486944314285592350000011535585291008533685_" gradientUnits="userSpaceOnUse" x1="2674.6514" y1="2455.4812" x2="2848.7417" y2="2455.4812">
					<stop  offset="0" style="stop-color:#FF9085"/>
					<stop  offset="1" style="stop-color:#FB6FBB"/>
				</linearGradient>
				<path style="fill:url(#SVGID_00000079486944314285592350000011535585291008533685_);" d="M2755.969,2548.117
					c-7.05,0-13.607-3.74-17.255-9.889l-61.185-103.147c-5.727-9.653-2.642-22.179,6.89-27.978
					c9.527-5.798,21.897-2.677,27.623,6.977l42.473,71.603l56.147-111.693c5.045-10.035,17.169-14.029,27.075-8.919
					c9.909,5.109,13.852,17.386,8.808,27.42l-72.634,144.487c-3.321,6.606-9.923,10.867-17.236,11.126
					C2756.441,2548.112,2756.205,2548.117,2755.969,2548.117z"/>
			</g>
		</g>
		<g>
			
				<linearGradient id="SVGID_00000109747743204849073400000014465080251728804752_" gradientUnits="userSpaceOnUse" x1="3251.5471" y1="336.027" x2="2959.2385" y2="616.9842">
				<stop  offset="0" style="stop-color:#FFC444"/>
				<stop  offset="0.9964" style="stop-color:#F36F56"/>
			</linearGradient>
			<path style="fill:url(#SVGID_00000109747743204849073400000014465080251728804752_);" d="M2668.301,1649.759
				c-25.786,0.746-50.937-5.752-72.723-18.808c-66.375-39.789-164.451-105.497-252.688-191.51
				c-111.964-109.147-176.293-220.093-190.368-329.04l-0.22-1.708l-2.731-464.87c0-91.873,59.923-166.449,172.428-215.453
				c92.952-40.486,216.151-60.547,346.303-56.78c128.637,3.723,247.669,30.265,335.772,74.491
				c104.73,52.573,159.68,126.455,159.68,214.048l-2.491,444.187l-0.201,1.633c-12.863,104.327-72.051,212.164-176.663,321.215
				c-83.91,87.463-178.729,156.778-243.848,199.725C2719.006,1641.099,2694.028,1649.015,2668.301,1649.759z"/>
			
				<linearGradient id="SVGID_00000123405266423163787200000016384758670788987811_" gradientUnits="userSpaceOnUse" x1="2382.7583" y1="400.047" x2="3376.3865" y2="2025.1912">
				<stop  offset="0" style="stop-color:#FFC444"/>
				<stop  offset="0.9964" style="stop-color:#F36F56"/>
			</linearGradient>
			<path style="fill:url(#SVGID_00000123405266423163787200000016384758670788987811_);" d="M2693.829,1649.759
				c-25.445,0.746-50.265-5.752-71.763-18.808c-65.499-39.789-162.279-105.497-249.349-191.51
				c-110.484-109.147-173.964-220.093-187.852-329.04l-0.218-1.708l-2.695-464.87c0-91.873,59.132-166.449,170.149-215.453
				c91.724-40.486,213.295-60.547,341.728-56.78c126.938,3.723,244.397,30.265,331.335,74.491
				c103.347,52.573,157.572,126.455,157.572,214.048l-2.459,444.187l-0.199,1.633c-12.691,104.327-71.098,212.164-174.329,321.215
				c-82.801,87.463-176.366,156.778-240.625,199.725C2743.864,1641.099,2719.216,1649.015,2693.829,1649.759z"/>
			
				<linearGradient id="SVGID_00000119830796731997315780000008295397019152829350_" gradientUnits="userSpaceOnUse" x1="2909.6409" y1="1325.3392" x2="2102.6704" y2="-297.3117">
				<stop  offset="0" style="stop-color:#FFC444"/>
				<stop  offset="0.9964" style="stop-color:#F36F56"/>
			</linearGradient>
			<path style="fill:url(#SVGID_00000119830796731997315780000008295397019152829350_);" d="M2212.645,644.157l2.713,462.522
				c30.446,235.991,307.788,427.056,428.58,499.647c34.604,20.795,78.844,19.562,113.202-3.046
				c118.271-77.824,380.423-273.748,408.432-500.644l2.488-442.963C3168.06,331.032,2212.645,300.987,2212.645,644.157z"/>
			<g style="opacity:0.3;">
				<path style="fill:#FFFFFF;" d="M2703.66,1242.658c18.812-207.514,127.637-294.875,120.22-480.882
					c-5.396-135.309-69.672-256.41-161.102-362.059c-229.317,0.756-450.133,79.461-450.133,244.439l2.713,462.522
					c30.446,235.991,307.787,427.055,428.579,499.646c34.602,20.796,78.843,19.563,113.201-3.046
					c2.68-1.763,5.457-3.608,8.279-5.491C2706.36,1458.51,2694.828,1340.076,2703.66,1242.658z"/>
			</g>
			
				<linearGradient id="SVGID_00000124872924562714195530000000617207744032366743_" gradientUnits="userSpaceOnUse" x1="3352.9214" y1="653.1086" x2="2816.553" y2="909.7331">
				<stop  offset="0" style="stop-color:#FFC444"/>
				<stop  offset="0.9964" style="stop-color:#F36F56"/>
			</linearGradient>
			<path style="fill:url(#SVGID_00000124872924562714195530000000617207744032366743_);" d="M2700.682,1535.033
				c-2.213,0.052-5.564-0.316-8.95-2.369c-49.735-30.117-146.147-93.203-230.021-175.589
				c-90.596-88.992-142.847-175.514-154.829-256.775l-2.658-454.863c0.11-43.644,34.659-80.997,102.381-110.883
				c75.601-33.366,182.963-50.875,294.078-48.236c110.006,2.612,214.236,24.757,286.446,60.589
				c63.873,31.694,96.165,69.057,96.269,111.192l-2.477,439.115c-11.183,78.635-60.224,163.409-146.329,252.522
				c-80.96,83.789-175.534,150.209-224.965,182.509C2706.245,1534.453,2702.897,1534.98,2700.682,1535.033z"/>
			
				<linearGradient id="SVGID_00000149350409610826727270000006737464262769603769_" gradientUnits="userSpaceOnUse" x1="2943.7048" y1="480.0577" x2="2083.6631" y2="1816.3578">
				<stop  offset="0" style="stop-color:#FFC444"/>
				<stop  offset="0.9964" style="stop-color:#F36F56"/>
			</linearGradient>
			<path style="fill:url(#SVGID_00000149350409610826727270000006737464262769603769_);" d="M2689.334,1503.943
				c-50.228-30.936-139.542-90.67-217.468-167.36c-85.139-83.791-134.41-164.197-145.992-238.595l-2.638-452.222
				c0.079-31.205,28.762-59.829,85.037-84.744c71.616-31.712,174.225-48.421,281.059-46.023
				c105.81,2.376,205.543,23.274,274.079,57.185c53.252,26.347,80.192,55.088,80.265,85.522l-2.471,437.499
				c-10.867,72.185-57.34,151.129-138.608,235.082C2827.146,1408.233,2739.333,1470.911,2689.334,1503.943z"/>
			<g style="opacity:0.3;">
				<path style="fill:#FFFFFF;" d="M2703.66,1242.658c18.812-207.514,127.637-294.875,120.22-480.882
					c-3.475-87.162-31.401-168.423-75.258-243.466c-19.433-1.741-39.251-2.86-59.291-3.31c-106.834-2.4-209.442,14.31-281.06,46.022
					c-56.274,24.914-84.957,53.54-85.036,84.745l2.637,452.222c11.582,74.397,60.853,154.802,145.993,238.594
					c77.926,76.689,167.24,136.425,217.468,167.36c10.327-6.823,22.336-14.978,35.449-24.203
					C2701.31,1390.324,2697.44,1311.28,2703.66,1242.658z"/>
			</g>
		</g>
		<g>
			<g>
				
					<linearGradient id="SVGID_00000009583760238296914100000005733134326915876248_" gradientUnits="userSpaceOnUse" x1="-1312.2659" y1="493.1278" x2="-103.2598" y2="1314.3389" gradientTransform="matrix(-1 0 0 1 230.2854 0)">
					<stop  offset="0" style="stop-color:#311944"/>
					<stop  offset="1" style="stop-color:#6B3976"/>
				</linearGradient>
				<path style="fill:url(#SVGID_00000009583760238296914100000005733134326915876248_);" d="M1476.128,929.945
					c22.744-14.746,2.02-57.643,0.796-149.782c-1.502-112.911,28.488-133.952,4.401-178.25
					c-29.452-54.169-103.594-76.585-152.715-77.642c-10.833-0.231-13.366-6.148-104.128,17.357
					c-163.519,42.35-204.454-3.048-277.681,42.299c-70.747,43.815-39.767,91.797-108.469,143.179
					c-111.359,83.287-228.462-6.756-308.049,62.912c-75.28,65.896-77.014,233.785,2.169,325.407
					c89.765,103.866,251.626,72.661,360.115,52.065c22.826-4.331,138.117-28.543,258.157-117.144
					c66.405-49.016,112.001-101.359,141.009-139.926c6.808-7.662,17.432-16.945,31.456-18.439
					c16.836-1.798,30.361,8.501,36.879,13.015C1394.291,928.695,1453.785,944.427,1476.128,929.945z"/>
				
					<linearGradient id="SVGID_00000070798398609658364080000001941841196478769331_" gradientUnits="userSpaceOnUse" x1="1812.6184" y1="1512.4138" x2="1653.3846" y2="1144.037">
					<stop  offset="0" style="stop-color:#FFC444"/>
					<stop  offset="0.9964" style="stop-color:#F36F56"/>
				</linearGradient>
				<path style="fill:url(#SVGID_00000070798398609658364080000001941841196478769331_);" d="M1384.741,868.063
					c29.244-26.643,133.604,24.707,202.765,92.859c81.252,80.068,75.006,144.986,145.914,244.455
					c35.249,49.45,95.685,116.021,202.766,174.337c-7.581,18.949-15.161,37.903-22.739,56.849
					c-51.775,3.114-153.42,1.283-248.248-60.636c-65.872-43.014-99.766-100.009-164.865-212.243
					C1435.003,1051.046,1348.187,901.37,1384.741,868.063z"/>
				
					<linearGradient id="SVGID_00000044859101166536183330000017015517890210508211_" gradientUnits="userSpaceOnUse" x1="-1943.9188" y1="1313.5111" x2="-1766.2412" y2="1313.5111" gradientTransform="matrix(-0.831 -0.5562 -0.5562 0.831 1166.3326 279.3084)">
					<stop  offset="0" style="stop-color:#311944"/>
					<stop  offset="1" style="stop-color:#6B3976"/>
				</linearGradient>
				<path style="fill:url(#SVGID_00000044859101166536183330000017015517890210508211_);" d="M2023.445,2433.439l-33.254-70.653
					c-4.724-10.037-12.09-18.6-21.309-24.77l-16.465-11.021c0,0-39.36-1.045-45.486,23.696
					c-1.318,31.418,59.738,101.619,98.352,129.496c6.411,4.626,15.551,10.795,21.106,7.62
					C2035.793,2482.433,2029.194,2453.533,2023.445,2433.439z"/>
				
					<linearGradient id="SVGID_00000139994823948258839930000016036352246630211492_" gradientUnits="userSpaceOnUse" x1="-1772.4209" y1="2491.4568" x2="-1482.4817" y2="1621.6368" gradientTransform="matrix(-1 0 0 1 230.2854 0)">
					<stop  offset="0" style="stop-color:#FFC444"/>
					<stop  offset="0.9964" style="stop-color:#F36F56"/>
				</linearGradient>
				<path style="fill:url(#SVGID_00000139994823948258839930000016036352246630211492_);" d="M1960.954,2288.58
					c-5.237,30.304,1.388,46.104,8.528,54.954c5.025,6.229,45.807,73.471,29.056,84.329c-7.559,4.899-59.37-59.437-64.395-69.295
					c-4.55-8.927-7.509-6.82-7.774-31.142c-0.173-16.013-3.429-28.902-5.989-36.965
					C1933.906,2289.833,1947.429,2289.208,1960.954,2288.58z"/>
				
					<linearGradient id="SVGID_00000173133700449478050390000003459436612144710286_" gradientUnits="userSpaceOnUse" x1="-1821.0358" y1="2092.0276" x2="-1721.4576" y2="2092.0276" gradientTransform="matrix(-1 0 0 1 230.2854 0)">
					<stop  offset="0" style="stop-color:#311944"/>
					<stop  offset="1" style="stop-color:#6B3976"/>
				</linearGradient>
				<path style="fill:url(#SVGID_00000173133700449478050390000003459436612144710286_);" d="M2019.846,2048.41
					c0,0,36.806,43.918,30.817,92.064c-5.99,48.143-70.448-22.244-79.432-46.033c-8.989-23.787-19.487-57.679-19.487-57.679
					S1996.944,2008.641,2019.846,2048.41z"/>
				
					<linearGradient id="SVGID_00000145754465639469951410000008382419852958622895_" gradientUnits="userSpaceOnUse" x1="-1878.748" y1="2365.4509" x2="-1716.1476" y2="1877.6481" gradientTransform="matrix(-1 0 0 1 230.2854 0)">
					<stop  offset="0" style="stop-color:#FFC444"/>
					<stop  offset="0.9964" style="stop-color:#F36F56"/>
				</linearGradient>
				<path style="fill:url(#SVGID_00000145754465639469951410000008382419852958622895_);" d="M2005.805,1979.693
					c0,0-9.985,51.165,9.06,78.169c9.485,13.449,22.279,24.858,18.517,35.806c-2.521,7.337-12.095,12.609-20.205,11.776
					c-15.526-1.594-24.133-25.397-30.204-42.186c-8.966-24.797-13.964-77.859-13.964-77.859L2005.805,1979.693z"/>
				
					<linearGradient id="SVGID_00000130604942174263952550000004294229797081535872_" gradientUnits="userSpaceOnUse" x1="2231.3665" y1="1385.0219" x2="1736.8549" y2="1926.6306">
					<stop  offset="0" style="stop-color:#311944"/>
					<stop  offset="1" style="stop-color:#893976"/>
				</linearGradient>
				<path style="fill:url(#SVGID_00000130604942174263952550000004294229797081535872_);" d="M1976.47,2022.824
					c11.32-4.121,22.639-8.246,33.958-12.369c17.658-40.333,39.21-106.58,32.011-187.1
					c-18.513-207.074-210.033-316.805-231.31-328.549c-52.181,26.182-105.035,63.116-106.949,109.678
					c-2.402,58.449,77.223,89.345,152.073,174.814C1901.184,1830.598,1949.191,1907.04,1976.47,2022.824z"/>
				
					<linearGradient id="SVGID_00000040558549158423715240000006779749349454876307_" gradientUnits="userSpaceOnUse" x1="1611.1748" y1="1478.1021" x2="1484.0146" y2="2193.9651">
					<stop  offset="0" style="stop-color:#311944"/>
					<stop  offset="0.4607" style="stop-color:#5A285B"/>
					<stop  offset="1" style="stop-color:#893976"/>
				</linearGradient>
				<path style="fill:url(#SVGID_00000040558549158423715240000006779749349454876307_);" d="M1964.27,2312.266
					c37.399-146.096,27.844-265.314,17.055-333.993c-16.308-103.805-49.474-314.952-190.448-393.687
					c-30.786-17.195-74.794-32.591-128.432-80.392c-44.792-39.918-73.262-81.9-90.442-111.478
					c-188.534-55.307-362.431-32.892-439.166,68.219c-8.865,11.685-31.064,37.028-35.359,74.396
					c-9.689,84.314,73.154,185.817,166.112,207.014c7.222,1.647,32.951,2.703,75.884,7.725c23.927,2.799,41.284,5.175,46.184,5.833
					c99.969,13.41,185.408,4.495,273.696,29.44c65.42,18.485,105.491,29.832,135.238,67.619
					c43.215,54.894,45.913,141.95,50.954,304.658c0.489,15.797,1.392,52.207,22.077,90.69
					c15.682,29.176,36.941,48.628,52.755,60.646C1935.012,2310.059,1949.639,2311.165,1964.27,2312.266z"/>
				
					<linearGradient id="SVGID_00000086655247270727002670000014813247658697147039_" gradientUnits="userSpaceOnUse" x1="-1507.1044" y1="2374.5891" x2="-1334.6586" y2="1828.827" gradientTransform="matrix(-1 0 0 1 230.2854 0)">
					<stop  offset="0" style="stop-color:#AA80F9"/>
					<stop  offset="0.9964" style="stop-color:#6165D7"/>
				</linearGradient>
				<path style="opacity:0.3;fill:url(#SVGID_00000086655247270727002670000014813247658697147039_);" d="M1097.479,1535.331
					c4.294-37.368,26.493-62.711,35.359-74.396c76.735-101.112,250.632-123.527,439.166-68.219
					c17.179,29.578,45.65,71.56,90.44,111.478c53.64,47.801,97.648,63.197,128.433,80.392
					c86.084,48.078,131.929,145.518,158.325,237.756c-39.164-60.722-72.688-76.867-98.631-77.154
					c-40.045-0.444-60.912,15.495-98.067,27.003c-6.413,1.986-12.58,3.074-20.333,4.492c-47.767,8.742-86.483,1.713-103.174-1.001
					c-34.46-5.602-84.589-10.624-162.616-12.545c0.62-1.089,2.026-3.523,3.979-6.472c30.406-45.897,88.723-58.959,86.462-66.735
					c-0.186-0.641-0.792-1.175-1.873-1.593c-104.673-40.362-173.213,80.947-291.358,54.007
					C1170.634,1721.148,1087.791,1619.645,1097.479,1535.331z"/>
				
					<linearGradient id="SVGID_00000101789778763128435170000013653214102567874220_" gradientUnits="userSpaceOnUse" x1="1920.109" y1="1100.8313" x2="1425.5986" y2="1642.4387">
					<stop  offset="0" style="stop-color:#311944"/>
					<stop  offset="1" style="stop-color:#893976"/>
				</linearGradient>
				<path style="fill:url(#SVGID_00000101789778763128435170000013653214102567874220_);" d="M1866.585,1649.929
					c-21.339-1.133-54.2-1.789-93.839,2.127c-188.118,18.59-239.978,111.642-395.453,134.348
					c-36.779,5.372-200.533,29.288-271.46-65.377c-50.918-67.964-43.214-185.073,12.48-231.133
					c23.571-19.494,46.909-18.952,197.865-17.587c56.849,0.515,113.702,0.698,170.55,1.423
					c240.643,3.066,286.664-13.599,330.449,26.203C1837.604,1518.499,1867.473,1558.381,1866.585,1649.929z"/>
				<g>
					<g>
						
							<linearGradient id="SVGID_00000034051861574218262940000006010344742301752508_" gradientUnits="userSpaceOnUse" x1="1135.2761" y1="1874.8782" x2="1315.8995" y2="1287.8512">
							<stop  offset="0" style="stop-color:#FFC444"/>
							<stop  offset="0.9964" style="stop-color:#F36F56"/>
						</linearGradient>
						<path style="fill:url(#SVGID_00000034051861574218262940000006010344742301752508_);" d="M1358.563,877.829
							c0,0-189.947-55.394-273.602,39.304c-15.359,17.385-27.501,40.25-36.338,84.381
							c-45.028,224.896,125.286,359.976,58.185,478.622c-26.646,47.115-73.578,61.31-106.928,145.984
							c-5.646,14.334-26.068,66.184-7.329,82.521c16.504,14.389,43.646-15.989,91.859-10.122
							c51.057,6.212,62.986,45.434,97.339,39.724c22.398-3.725,32.052-22.847,65.049-70.521
							c47.769-69.02,71.653-103.53,88.775-115.631c67.554-47.742,119.767,14.519,196.803-32.756
							c27.89-17.118,131.225-150.163,100.824-113.615l0,0c-72.362-90.274-89.177-164.751-90.906-216.536
							c-1.896-56.772,14.469-82.574,0-149.687c0,0-16.144-74.881-74.386-139.182C1459.547,891.084,1449.58,881.471,1358.563,877.829
							z"/>
					</g>
				</g>
				<g>
					
						<linearGradient id="SVGID_00000114046348485182311520000003793935879107845030_" gradientUnits="userSpaceOnUse" x1="2999.7668" y1="736.8973" x2="3012.1235" y2="407.7535" gradientTransform="matrix(0.984 0.1784 -0.1784 0.984 -1518.1509 -244.2395)">
						<stop  offset="0" style="stop-color:#FFC444"/>
						<stop  offset="0.9964" style="stop-color:#F36F56"/>
					</linearGradient>
					<path style="fill:url(#SVGID_00000114046348485182311520000003793935879107845030_);" d="M1297.576,754.624
						c2.573,12.019,15.667,76.509-10.72,93.102c-5.719,3.599-16.708,5.658-38.69,9.778c-14.391,2.697-26.465,4.351-34.981,5.369
						c1.23,10.813,4.873,28.415,17.353,44.427c34.985,44.883,105.131,33.269,115.135,31.446
						c35.284-6.424,70.004-17.326,78.39-23.989c12.768-10.146,22.806-17.757,28.744-25.49c-13.656-6.598-41.221-24-59.722-29.695
						c-13.826-4.253-26.804-7.289-38.61-9.467c-1.939-12.458-3.882-24.915-5.823-37.374
						C1331.625,793.361,1314.6,773.994,1297.576,754.624z"/>
					
						<linearGradient id="SVGID_00000173868682535413138340000016933533267004573827_" gradientUnits="userSpaceOnUse" x1="2995.9104" y1="446.3285" x2="2990.6211" y2="872.4818" gradientTransform="matrix(0.984 0.1784 -0.1784 0.984 -1518.1509 -244.2395)">
						<stop  offset="0" style="stop-color:#FFC444"/>
						<stop  offset="0.9964" style="stop-color:#F36F56"/>
					</linearGradient>
					<path style="fill:url(#SVGID_00000173868682535413138340000016933533267004573827_);" d="M1296.34,786.765
						c0,0,4.769,47.261,50.709,55.589c41.135,7.458,72.099-91.943,51.048-117.655c-7.022-8.576-24.357-16.736-39.386-16.304
						c-10.569,0.306-46.269,13.902-51.252,49.623c-7.11-7.49-15.969-9.643-20.338-6.507c-5.541,3.979-2.573,15.548-1.898,18.169
						C1287.554,778.762,1293.483,784.391,1296.34,786.765z"/>
				</g>
				
					<linearGradient id="SVGID_00000014630829508593682610000005063658739149604249_" gradientUnits="userSpaceOnUse" x1="984.8019" y1="1450.3396" x2="1638.7397" y2="1450.3396">
					<stop  offset="0" style="stop-color:#FFC444"/>
					<stop  offset="0.9964" style="stop-color:#F36F56"/>
				</linearGradient>
				<path style="opacity:0.3;fill:url(#SVGID_00000014630829508593682610000005063658739149604249_);" d="M1633.199,1405.719
					c-8.706-10.862-16.568-21.482-23.736-31.874c-39.908-13.372-74.436-18.347-102.287-19.699
					c-62.824-3.047-97.226,11.734-139.99-13.999c-48.541-29.211-39.949-69.76-86.793-92.393
					c-49.302-23.821-84.161,3.098-131.59-5.598c-28.643-5.252-63.533-24.407-99.137-80.284
					c27.265,134.532,106.561,230.882,57.14,318.265c-26.646,47.115-73.578,61.31-106.928,145.984
					c-5.646,14.334-26.068,66.184-7.329,82.521c16.505,14.389,43.646-15.989,91.859-10.122
					c51.057,6.212,62.988,45.434,97.339,39.724c22.398-3.725,32.052-22.847,65.049-70.521c47.77-69.02,71.653-103.53,88.775-115.631
					c67.554-47.742,119.767,14.519,196.803-32.756C1560.265,1502.216,1663.6,1369.171,1633.199,1405.719z"/>
			</g>
			<g>
				
					<linearGradient id="SVGID_00000153679457720844890090000008474598547047754633_" gradientUnits="userSpaceOnUse" x1="38.3373" y1="1463.7153" x2="508.1008" y2="1463.7153" gradientTransform="matrix(-1 0 0 1 1740.2787 0)">
					<stop  offset="0" style="stop-color:#40447E"/>
					<stop  offset="0.9964" style="stop-color:#3C3B6B"/>
				</linearGradient>
				<path style="fill:url(#SVGID_00000153679457720844890090000008474598547047754633_);" d="M1690.435,1428.802l-429.788,20.914
					c-5.915,0.289-11.311,3.458-14.441,8.484l-11.893,19.088c-5.918,9.501,1.193,21.756,12.38,21.33l455.247-17.343
					L1690.435,1428.802z"/>
				
					<linearGradient id="SVGID_00000081648456153994452750000004751859861644632720_" gradientUnits="userSpaceOnUse" x1="-262.0763" y1="1167.3861" x2="45.9134" y2="1472.9119" gradientTransform="matrix(-1 0 0 1 1740.2787 0)">
					<stop  offset="0" style="stop-color:#40447E"/>
					<stop  offset="0.9964" style="stop-color:#3C3B6B"/>
				</linearGradient>
				<path style="fill:url(#SVGID_00000081648456153994452750000004751859861644632720_);" d="M2137.451,1189.466l-444.018,8.605
					c-13.139,0.254-25.169,7.412-31.661,18.834l-153.758,270.523l468.938-18.682c12.87-0.514,24.616-7.483,31.232-18.536
					l142.456-237.994C2156.705,1202.086,2149.257,1189.236,2137.451,1189.466z"/>
				
					<linearGradient id="SVGID_00000051384153767997916160000007805772287685900730_" gradientUnits="userSpaceOnUse" x1="-262.0755" y1="1167.3865" x2="45.9142" y2="1472.9124" gradientTransform="matrix(-1 0 0 1 1740.2787 0)">
					<stop  offset="0" style="stop-color:#40447E"/>
					<stop  offset="0.9964" style="stop-color:#3C3B6B"/>
				</linearGradient>
				<path style="opacity:0.3;fill:url(#SVGID_00000051384153767997916160000007805772287685900730_);" d="M1661.771,1216.906
					c6.493-11.424,18.523-18.582,31.662-18.836l9.73-0.188c1.45,14.333,5.848,27.444,14.62,38.029
					c27.378,33.048,72.867,12.663,106.771,47.637c37.243,38.419,2.837,84.153,36.136,119.91
					c35.049,37.634,91.724,6.993,156.875,31.077l-9.381,15.673c-6.615,11.054-18.36,18.023-31.231,18.537l-468.938,18.682
					L1661.771,1216.906z"/>
			</g>
			<g>
				
					<linearGradient id="SVGID_00000173159119250450673410000012318044455838413214_" gradientUnits="userSpaceOnUse" x1="1019.7875" y1="1537.0106" x2="1136.2421" y2="1094.9579">
					<stop  offset="0" style="stop-color:#FFC444"/>
					<stop  offset="0.9964" style="stop-color:#F36F56"/>
				</linearGradient>
				<path style="fill:url(#SVGID_00000173159119250450673410000012318044455838413214_);" d="M1295.67,1414.44
					c5.594-14.773,11.189-29.543,16.782-44.317c-61.826-16.953-147.334-41.996-235.039-73.336
					c-13.736-4.909-30.055-10.989-35.4-25.442c-14.997-40.546,80.343-82.561,117.407-171.092
					c34.278-81.879,15.411-195.507-24.37-208.93c-82.781-27.933-376.335,337.47-271.49,491.505
					C922.825,1469.902,1105.541,1483.766,1295.67,1414.44z"/>
			</g>
			
				<linearGradient id="SVGID_00000048502811968971336940000003461597380657388166_" gradientUnits="userSpaceOnUse" x1="1407.7532" y1="1371.0831" x2="1251.5955" y2="1518.2418">
				<stop  offset="0" style="stop-color:#FFC444"/>
				<stop  offset="0.9964" style="stop-color:#F36F56"/>
			</linearGradient>
			<path style="fill:url(#SVGID_00000048502811968971336940000003461597380657388166_);" d="M1312.452,1370.123
				c38.814-20.619,85.275,0.516,88.269,1.93c8.528,4.026,20.941,11.198,33.481,24.008c1.418,1.934,18.255,25.264,12.121,32.74
				c-4.917,5.99-23.956,1.025-46.84-13.207c-9.592-1.345-23.872-2.58-40.978-1.004c-31.415,2.898-45.805,12.822-57.209,4.255
				c-8.351-6.271-11.197-19.53-8.191-29.388C1296.333,1378.866,1305.882,1373.614,1312.452,1370.123z"/>
		</g>
	</g>
</g>
</svg>
