<?xml version="1.0" encoding="utf-8"?>
<!-- Generator: Adobe Illustrator 27.5.0, SVG Export Plug-In . SVG Version: 6.00 Build 0)  -->
<svg version="1.1" xmlns="http://www.w3.org/2000/svg" xmlns:xlink="http://www.w3.org/1999/xlink" x="0px" y="0px"
	 viewBox="0 0 499.999 500" style="enable-background:new 0 0 499.999 500;" xml:space="preserve">

<g id="OBJECTS">
	<g>
		<path style="opacity:0.29;fill:#C9DEFF;" d="M152.714,438.231c17.735,4.837,36.166,7.02,54.528,8.441
			c29.615,2.291,59.378,2.671,89.042,1.136c22.88-1.184,45.928-3.553,67.661-10.804c58.276-19.444,90.499-71.686,96.486-131.089
			c3.898-38.678-2.876-81.339-14.962-118.045c-17.362-52.731-58.674-92.193-106.594-119.462
			c-51.93-29.551-117.603-33.119-172.837-10.334c-55.234,22.786-99.056,71.158-117.3,128.055
			c-20.314,63.35-8.744,119.803,19.385,179.027c5.783,12.176,11.965,24.311,20.535,34.716c13.895,16.869,33.499,28.365,54.204,35.36
			C146.117,436.332,149.403,437.328,152.714,438.231z"/>
		
			<line style="opacity:0.54;fill:none;stroke:#000000;stroke-miterlimit:10;" x1="355.971" y1="402.101" x2="424.574" y2="402.101"/>
		
			<line style="opacity:0.54;fill:none;stroke:#000000;stroke-miterlimit:10;" x1="276.482" y1="398.034" x2="207.879" y2="398.034"/>
		<g style="opacity:0.13;">
			<line style="fill:none;stroke:#000000;stroke-miterlimit:10;" x1="94.029" y1="420.898" x2="216.054" y2="343.964"/>
			<line style="fill:none;stroke:#000000;stroke-miterlimit:10;" x1="59.391" y1="407.237" x2="191.432" y2="342.996"/>
			<line style="fill:none;stroke:#000000;stroke-miterlimit:10;" x1="159.215" y1="420.898" x2="238.061" y2="343.964"/>
			<line style="fill:none;stroke:#000000;stroke-miterlimit:10;" x1="217.037" y1="420.898" x2="261.275" y2="343.964"/>
			<line style="fill:none;stroke:#000000;stroke-miterlimit:10;" x1="460.361" y1="419.105" x2="350.636" y2="342.996"/>
			<line style="fill:none;stroke:#000000;stroke-miterlimit:10;" x1="404.13" y1="420.898" x2="325.283" y2="343.964"/>
			<line style="fill:none;stroke:#000000;stroke-miterlimit:10;" x1="346.308" y1="420.898" x2="302.07" y2="343.964"/>
			<line style="fill:none;stroke:#000000;stroke-miterlimit:10;" x1="281.075" y1="420.898" x2="281.075" y2="345.234"/>
			<line style="fill:none;stroke:#000000;stroke-miterlimit:10;" x1="78.961" y1="406.013" x2="448.173" y2="406.013"/>
			<line style="fill:none;stroke:#000000;stroke-miterlimit:10;" x1="403.196" y1="384.593" x2="148.395" y2="384.593"/>
			<line style="fill:none;stroke:#000000;stroke-miterlimit:10;" x1="362.113" y1="361.065" x2="125.101" y2="361.065"/>
		</g>
		<g>
			<g style="opacity:0.63;">
				<g>
					<g>
						<path style="fill:#A7CFF2;" d="M346.754,251.799h-14.83V238.47c0-2.186,0.907-4.296,2.565-5.721
							c1.672-1.436,2.807-4.048,2.807-6.086h4.197c0,1.983,1.097,4.539,2.718,5.962c1.635,1.436,2.544,3.525,2.544,5.701V251.799z"
							/>
						<rect x="336.894" y="224.738" style="fill:#4081E3;" width="4.89" height="2.886"/>
					</g>
					<path style="fill:#4081E3;" d="M339.172,247.918L339.172,247.918c-2.84,0-5.142-2.302-5.142-5.142l0,0
						c0-2.84,2.302-5.142,5.142-5.142l0,0c2.84,0,5.142,2.302,5.142,5.142l0,0C344.314,245.616,342.012,247.918,339.172,247.918z"/>
				</g>
				<g>
					<g>
						<path style="fill:#A7CFF2;" d="M365.237,251.799h-14.83V238.47c0-2.186,0.907-4.296,2.565-5.721
							c1.672-1.436,2.807-4.048,2.807-6.086h4.197c0,1.983,1.097,4.539,2.718,5.962c1.635,1.436,2.544,3.525,2.544,5.701V251.799z"
							/>
						<rect x="355.377" y="224.738" style="fill:#4081E3;" width="4.89" height="2.886"/>
					</g>
					<path style="fill:#4081E3;" d="M357.656,247.918L357.656,247.918c-2.84,0-5.142-2.302-5.142-5.142l0,0
						c0-2.84,2.302-5.142,5.142-5.142l0,0c2.84,0,5.142,2.302,5.142,5.142l0,0C362.798,245.616,360.496,247.918,357.656,247.918z"/>
				</g>
				<g>
					<g>
						<path style="fill:#A7CFF2;" d="M387.284,251.799h-14.83V238.47c0-2.186,0.907-4.296,2.565-5.721
							c1.672-1.436,2.807-4.048,2.807-6.086h4.197c0,1.983,1.097,4.539,2.718,5.962c1.635,1.436,2.544,3.525,2.544,5.701V251.799z"
							/>
						<rect x="377.424" y="224.738" style="fill:#4081E3;" width="4.889" height="2.886"/>
					</g>
					<path style="fill:#4081E3;" d="M379.703,247.918L379.703,247.918c-2.84,0-5.142-2.302-5.142-5.142l0,0
						c0-2.84,2.302-5.142,5.142-5.142l0,0c2.84,0,5.142,2.302,5.142,5.142l0,0C384.844,245.616,382.542,247.918,379.703,247.918z"/>
				</g>
				<g>
					<g>
						<path style="fill:#A7CFF2;" d="M405.103,251.799h-14.83V238.47c0-2.186,0.907-4.296,2.565-5.721
							c1.672-1.436,2.807-4.048,2.807-6.086h4.197c0,1.983,1.097,4.539,2.718,5.962c1.635,1.436,2.544,3.525,2.544,5.701V251.799z"
							/>
						<rect x="395.243" y="224.738" style="fill:#4081E3;" width="4.889" height="2.886"/>
					</g>
					<path style="fill:#4081E3;" d="M397.521,247.918L397.521,247.918c-2.84,0-5.142-2.302-5.142-5.142l0,0
						c0-2.84,2.302-5.142,5.142-5.142l0,0c2.84,0,5.142,2.302,5.142,5.142l0,0C402.663,245.616,400.361,247.918,397.521,247.918z"/>
				</g>
				<line style="fill:none;stroke:#000000;stroke-miterlimit:10;" x1="309.659" y1="251.188" x2="415.05" y2="251.188"/>
				<g>
					<g>
						<path style="fill:#A7CFF2;" d="M340.816,204.228c-0.247-0.786-0.549-1.562-0.66-2.379c-0.162-1.197,0.097-2.404,0.273-3.598
							c0.639-4.345,1.452-9.982-2.278-13.047c-0.005-0.004-0.01-0.008-0.015-0.012c-0.951-0.777-1.55-1.901-1.55-3.128v-3.255
							h-1.732h-0.159h-1.733v3.255c0,1.228-0.599,2.352-1.55,3.128c-0.005,0.004-0.01,0.008-0.015,0.012
							c-3.73,3.065-2.917,8.702-2.278,13.047c0.176,1.195,0.435,2.402,0.273,3.598c-0.111,0.817-0.414,1.593-0.66,2.379
							c-1.012,3.227-1.74,7.898-0.205,10.996c0.257,0.518,0.699,0.953,1.261,1.088c1.354,0.326,2.168-1.105,2.633-2.298
							c0.24,1.22,1.078,2.417,2.274,2.686v0.041c0.028-0.004,0.052-0.016,0.079-0.021c0.027,0.005,0.052,0.016,0.079,0.021v-0.041
							c1.196-0.269,2.034-1.466,2.274-2.686c0.464,1.193,1.278,2.624,2.632,2.298c0.562-0.135,1.004-0.57,1.261-1.088
							C342.555,212.126,341.827,207.455,340.816,204.228z"/>
						<rect x="332.611" y="178.808" style="fill:#4081E3;" width="4.326" height="1.98"/>
					</g>
					<g>
						<defs>
							<path id="SVGID_1_" d="M340.816,204.228c-0.247-0.786-0.549-1.562-0.66-2.379c-0.162-1.197,0.097-2.404,0.273-3.598
								c0.639-4.345,1.452-9.982-2.278-13.047c-0.005-0.004-0.01-0.008-0.015-0.012c-0.951-0.777-1.55-1.901-1.55-3.128v-3.255
								h-1.732h-0.159h-1.733v3.255c0,1.228-0.599,2.352-1.55,3.128c-0.005,0.004-0.01,0.008-0.015,0.012
								c-3.73,3.065-2.917,8.702-2.278,13.047c0.176,1.195,0.435,2.402,0.273,3.598c-0.111,0.817-0.414,1.593-0.66,2.379
								c-1.012,3.227-1.74,7.898-0.205,10.996c0.257,0.518,0.699,0.953,1.261,1.088c1.354,0.326,2.168-1.105,2.633-2.298
								c0.24,1.22,1.078,2.417,2.274,2.686v0.041c0.028-0.004,0.052-0.016,0.079-0.021c0.027,0.005,0.052,0.016,0.079,0.021v-0.041
								c1.196-0.269,2.034-1.466,2.274-2.686c0.464,1.193,1.278,2.624,2.632,2.298c0.562-0.135,1.004-0.57,1.261-1.088
								C342.555,212.126,341.827,207.455,340.816,204.228z"/>
						</defs>
						<clipPath id="SVGID_00000170988803482760265240000010740590203423147661_">
							<use xlink:href="#SVGID_1_"  style="overflow:visible;"/>
						</clipPath>
						
							<rect x="327.542" y="189.794" style="clip-path:url(#SVGID_00000170988803482760265240000010740590203423147661_);fill:#4081E3;" width="14.464" height="7.749"/>
					</g>
				</g>
				<g>
					<g>
						<path style="fill:#A7CFF2;" d="M357.143,204.228c-0.247-0.786-0.549-1.562-0.66-2.379c-0.162-1.197,0.097-2.404,0.273-3.598
							c0.639-4.345,1.452-9.982-2.278-13.047c-0.005-0.004-0.01-0.008-0.015-0.012c-0.951-0.777-1.55-1.901-1.55-3.128v-3.255
							h-1.732h-0.159h-1.732v3.255c0,1.228-0.599,2.352-1.55,3.128c-0.005,0.004-0.01,0.008-0.015,0.012
							c-3.73,3.065-2.917,8.702-2.278,13.047c0.176,1.195,0.435,2.402,0.273,3.598c-0.111,0.817-0.414,1.593-0.66,2.379
							c-1.012,3.227-1.74,7.898-0.205,10.996c0.257,0.518,0.699,0.953,1.261,1.088c1.354,0.326,2.168-1.105,2.633-2.298
							c0.24,1.22,1.078,2.417,2.274,2.686v0.041c0.028-0.004,0.052-0.016,0.08-0.021c0.027,0.005,0.052,0.016,0.079,0.021v-0.041
							c1.196-0.269,2.034-1.466,2.274-2.686c0.464,1.193,1.278,2.624,2.633,2.298c0.562-0.135,1.004-0.57,1.261-1.088
							C358.883,212.126,358.155,207.455,357.143,204.228z"/>
						<rect x="348.938" y="178.808" style="fill:#4081E3;" width="4.326" height="1.98"/>
					</g>
					<g>
						<defs>
							<path id="SVGID_00000114787387867350489870000000377403227076577973_" d="M357.143,204.228
								c-0.247-0.786-0.549-1.562-0.66-2.379c-0.162-1.197,0.097-2.404,0.273-3.598c0.639-4.345,1.452-9.982-2.278-13.047
								c-0.005-0.004-0.01-0.008-0.015-0.012c-0.951-0.777-1.55-1.901-1.55-3.128v-3.255h-1.732h-0.159h-1.732v3.255
								c0,1.228-0.599,2.352-1.55,3.128c-0.005,0.004-0.01,0.008-0.015,0.012c-3.73,3.065-2.917,8.702-2.278,13.047
								c0.176,1.195,0.435,2.402,0.273,3.598c-0.111,0.817-0.414,1.593-0.66,2.379c-1.012,3.227-1.74,7.898-0.205,10.996
								c0.257,0.518,0.699,0.953,1.261,1.088c1.354,0.326,2.168-1.105,2.633-2.298c0.24,1.22,1.078,2.417,2.274,2.686v0.041
								c0.028-0.004,0.052-0.016,0.08-0.021c0.027,0.005,0.052,0.016,0.079,0.021v-0.041c1.196-0.269,2.034-1.466,2.274-2.686
								c0.464,1.193,1.278,2.624,2.633,2.298c0.562-0.135,1.004-0.57,1.261-1.088C358.883,212.126,358.155,207.455,357.143,204.228z
								"/>
						</defs>
						<clipPath id="SVGID_00000023247712233562961940000007405450238610751930_">
							<use xlink:href="#SVGID_00000114787387867350489870000000377403227076577973_"  style="overflow:visible;"/>
						</clipPath>
						
							<rect x="343.87" y="189.794" style="clip-path:url(#SVGID_00000023247712233562961940000007405450238610751930_);fill:#4081E3;" width="14.464" height="7.749"/>
					</g>
				</g>
				<g>
					<g>
						<path style="fill:#A7CFF2;" d="M373.47,204.228c-0.247-0.786-0.549-1.562-0.66-2.379c-0.162-1.197,0.097-2.404,0.273-3.598
							c0.639-4.345,1.452-9.982-2.278-13.047c-0.005-0.004-0.01-0.008-0.015-0.012c-0.951-0.777-1.55-1.901-1.55-3.128v-3.255
							h-1.732h-0.159h-1.732v3.255c0,1.228-0.599,2.352-1.55,3.128c-0.005,0.004-0.01,0.008-0.015,0.012
							c-3.73,3.065-2.917,8.702-2.278,13.047c0.176,1.195,0.435,2.402,0.273,3.598c-0.111,0.817-0.414,1.593-0.66,2.379
							c-1.011,3.227-1.74,7.898-0.205,10.996c0.256,0.518,0.699,0.953,1.261,1.088c1.354,0.326,2.168-1.105,2.633-2.298
							c0.24,1.22,1.078,2.417,2.274,2.686v0.041c0.028-0.004,0.052-0.016,0.08-0.021c0.027,0.005,0.052,0.016,0.079,0.021v-0.041
							c1.196-0.269,2.034-1.466,2.274-2.686c0.464,1.193,1.278,2.624,2.633,2.298c0.562-0.135,1.004-0.57,1.261-1.088
							C375.21,212.126,374.482,207.455,373.47,204.228z"/>
						<rect x="365.266" y="178.808" style="fill:#4081E3;" width="4.326" height="1.98"/>
					</g>
					<g>
						<defs>
							<path id="SVGID_00000028326479319810289900000010330564461159222971_" d="M373.47,204.228
								c-0.247-0.786-0.549-1.562-0.66-2.379c-0.162-1.197,0.097-2.404,0.273-3.598c0.639-4.345,1.452-9.982-2.278-13.047
								c-0.005-0.004-0.01-0.008-0.015-0.012c-0.951-0.777-1.55-1.901-1.55-3.128v-3.255h-1.732h-0.159h-1.732v3.255
								c0,1.228-0.599,2.352-1.55,3.128c-0.005,0.004-0.01,0.008-0.015,0.012c-3.73,3.065-2.917,8.702-2.278,13.047
								c0.176,1.195,0.435,2.402,0.273,3.598c-0.111,0.817-0.414,1.593-0.66,2.379c-1.011,3.227-1.74,7.898-0.205,10.996
								c0.256,0.518,0.699,0.953,1.261,1.088c1.354,0.326,2.168-1.105,2.633-2.298c0.24,1.22,1.078,2.417,2.274,2.686v0.041
								c0.028-0.004,0.052-0.016,0.08-0.021c0.027,0.005,0.052,0.016,0.079,0.021v-0.041c1.196-0.269,2.034-1.466,2.274-2.686
								c0.464,1.193,1.278,2.624,2.633,2.298c0.562-0.135,1.004-0.57,1.261-1.088C375.21,212.126,374.482,207.455,373.47,204.228z"
								/>
						</defs>
						<clipPath id="SVGID_00000048462942695298559790000011832207043486804144_">
							<use xlink:href="#SVGID_00000028326479319810289900000010330564461159222971_"  style="overflow:visible;"/>
						</clipPath>
						
							<rect x="360.197" y="189.794" style="clip-path:url(#SVGID_00000048462942695298559790000011832207043486804144_);fill:#4081E3;" width="14.464" height="7.749"/>
					</g>
				</g>
				<g>
					<g>
						<path style="fill:#A7CFF2;" d="M389.798,204.228c-0.247-0.786-0.549-1.562-0.66-2.379c-0.162-1.197,0.097-2.404,0.273-3.598
							c0.639-4.345,1.452-9.982-2.278-13.047c-0.005-0.004-0.01-0.008-0.015-0.012c-0.951-0.777-1.55-1.901-1.55-3.128v-3.255
							h-1.732h-0.159h-1.732v3.255c0,1.228-0.599,2.352-1.55,3.128c-0.005,0.004-0.01,0.008-0.015,0.012
							c-3.73,3.065-2.917,8.702-2.278,13.047c0.176,1.195,0.435,2.402,0.273,3.598c-0.111,0.817-0.414,1.593-0.66,2.379
							c-1.011,3.227-1.74,7.898-0.205,10.996c0.256,0.518,0.699,0.953,1.261,1.088c1.354,0.326,2.168-1.105,2.632-2.298
							c0.24,1.22,1.078,2.417,2.274,2.686v0.041c0.028-0.004,0.052-0.016,0.08-0.021c0.027,0.005,0.052,0.016,0.079,0.021v-0.041
							c1.196-0.269,2.034-1.466,2.274-2.686c0.464,1.193,1.278,2.624,2.633,2.298c0.562-0.135,1.004-0.57,1.261-1.088
							C391.537,212.126,390.809,207.455,389.798,204.228z"/>
						<rect x="381.593" y="178.808" style="fill:#4081E3;" width="4.326" height="1.98"/>
					</g>
					<g>
						<defs>
							<path id="SVGID_00000054970047338133798820000008457247759693371824_" d="M389.798,204.228
								c-0.247-0.786-0.549-1.562-0.66-2.379c-0.162-1.197,0.097-2.404,0.273-3.598c0.639-4.345,1.452-9.982-2.278-13.047
								c-0.005-0.004-0.01-0.008-0.015-0.012c-0.951-0.777-1.55-1.901-1.55-3.128v-3.255h-1.732h-0.159h-1.732v3.255
								c0,1.228-0.599,2.352-1.55,3.128c-0.005,0.004-0.01,0.008-0.015,0.012c-3.73,3.065-2.917,8.702-2.278,13.047
								c0.176,1.195,0.435,2.402,0.273,3.598c-0.111,0.817-0.414,1.593-0.66,2.379c-1.011,3.227-1.74,7.898-0.205,10.996
								c0.256,0.518,0.699,0.953,1.261,1.088c1.354,0.326,2.168-1.105,2.632-2.298c0.24,1.22,1.078,2.417,2.274,2.686v0.041
								c0.028-0.004,0.052-0.016,0.08-0.021c0.027,0.005,0.052,0.016,0.079,0.021v-0.041c1.196-0.269,2.034-1.466,2.274-2.686
								c0.464,1.193,1.278,2.624,2.633,2.298c0.562-0.135,1.004-0.57,1.261-1.088C391.537,212.126,390.809,207.455,389.798,204.228z
								"/>
						</defs>
						<clipPath id="SVGID_00000108297076718832405380000004988331395473712792_">
							<use xlink:href="#SVGID_00000054970047338133798820000008457247759693371824_"  style="overflow:visible;"/>
						</clipPath>
						
							<rect x="376.524" y="189.794" style="clip-path:url(#SVGID_00000108297076718832405380000004988331395473712792_);fill:#4081E3;" width="14.464" height="7.749"/>
					</g>
				</g>
				<g>
					<g>
						<path style="fill:#A7CFF2;" d="M406.125,204.228c-0.246-0.786-0.549-1.562-0.66-2.379c-0.162-1.197,0.097-2.404,0.273-3.598
							c0.639-4.345,1.452-9.982-2.278-13.047c-0.005-0.004-0.01-0.008-0.015-0.012c-0.951-0.777-1.55-1.901-1.55-3.128v-3.255
							h-1.732h-0.159h-1.732v3.255c0,1.228-0.599,2.352-1.55,3.128c-0.005,0.004-0.01,0.008-0.015,0.012
							c-3.73,3.065-2.917,8.702-2.278,13.047c0.176,1.195,0.435,2.402,0.273,3.598c-0.111,0.817-0.413,1.593-0.66,2.379
							c-1.012,3.227-1.74,7.898-0.205,10.996c0.257,0.518,0.699,0.953,1.261,1.088c1.354,0.326,2.168-1.105,2.632-2.298
							c0.24,1.22,1.078,2.417,2.274,2.686v0.041c0.028-0.004,0.052-0.016,0.079-0.021c0.027,0.005,0.052,0.016,0.08,0.021v-0.041
							c1.196-0.269,2.034-1.466,2.274-2.686c0.464,1.193,1.278,2.624,2.633,2.298c0.562-0.135,1.004-0.57,1.261-1.088
							C407.865,212.126,407.136,207.455,406.125,204.228z"/>
						<rect x="397.92" y="178.808" style="fill:#4081E3;" width="4.326" height="1.98"/>
					</g>
					<g>
						<defs>
							<path id="SVGID_00000093141318426756139000000014014768104081005453_" d="M406.125,204.228
								c-0.246-0.786-0.549-1.562-0.66-2.379c-0.162-1.197,0.097-2.404,0.273-3.598c0.639-4.345,1.452-9.982-2.278-13.047
								c-0.005-0.004-0.01-0.008-0.015-0.012c-0.951-0.777-1.55-1.901-1.55-3.128v-3.255h-1.732h-0.159h-1.732v3.255
								c0,1.228-0.599,2.352-1.55,3.128c-0.005,0.004-0.01,0.008-0.015,0.012c-3.73,3.065-2.917,8.702-2.278,13.047
								c0.176,1.195,0.435,2.402,0.273,3.598c-0.111,0.817-0.413,1.593-0.66,2.379c-1.012,3.227-1.74,7.898-0.205,10.996
								c0.257,0.518,0.699,0.953,1.261,1.088c1.354,0.326,2.168-1.105,2.632-2.298c0.24,1.22,1.078,2.417,2.274,2.686v0.041
								c0.028-0.004,0.052-0.016,0.079-0.021c0.027,0.005,0.052,0.016,0.08,0.021v-0.041c1.196-0.269,2.034-1.466,2.274-2.686
								c0.464,1.193,1.278,2.624,2.633,2.298c0.562-0.135,1.004-0.57,1.261-1.088C407.865,212.126,407.136,207.455,406.125,204.228z
								"/>
						</defs>
						<clipPath id="SVGID_00000072282081511394565660000003411910947228273036_">
							<use xlink:href="#SVGID_00000093141318426756139000000014014768104081005453_"  style="overflow:visible;"/>
						</clipPath>
						
							<rect x="392.852" y="189.794" style="clip-path:url(#SVGID_00000072282081511394565660000003411910947228273036_);fill:#4081E3;" width="14.464" height="7.749"/>
					</g>
				</g>
				<line style="fill:none;stroke:#000000;stroke-miterlimit:10;" x1="315.957" y1="216.104" x2="409.046" y2="216.104"/>
			</g>
			<path style="fill:#B8D9FF;" d="M214.158,187.575c3.709,2.704,7.54,5.545,9.71,9.59c2.051,3.823,2.104,9.182-1.241,11.945
				c-3.771,3.115-9.48,1.417-13.729-1.006c-6.968-3.974-13.115-9.697-16.57-16.936c-1.566-3.281-2.568-7.003-1.792-10.555
				C193.508,167.011,208.784,183.657,214.158,187.575z"/>
			<rect x="105.468" y="230.212" width="57.508" height="3.884"/>
			
				<line style="fill:none;stroke:#678FB5;stroke-width:3;stroke-miterlimit:10;" x1="96.415" y1="382.24" x2="321.575" y2="382.24"/>
			<path style="fill:#356CCB;" d="M284.982,200.143c0.812-0.004,1.608-0.023,2.326-0.185c-0.364-9.479,3.595-20.224-0.055-29.355
				c-2.035-5.089-3.658-6.938-7.934-10.368c-5.421-4.349-19.979-8.998-26.921-8.647c-8.786,0.444-20.367,2.014-25.695,9.787
				c-2.867,4.182-4.211,9.2-5.326,14.146c-1.695,7.522-2.973,15.139-3.828,22.802c-0.893,8.003-0.343,16.251-1.379,24.182
				c-1.245,9.531-4.952,24.653,0.906,33.421c6.098,9.124,22.325,6.474,31.343,5.105c8.983-1.363,28.576-2.161,31.564-12.725
				c0.495-1.75,0.411-3.604,0.323-5.421c-0.563-11.66-1.127-23.32-1.69-34.98c-0.096-1.986-0.161-4.104,0.858-5.812
				C280.684,200.066,282.884,200.154,284.982,200.143z"/>
			<rect x="100.166" y="233.846" style="fill:#78AEFF;" width="215.63" height="146.94"/>
			<path style="fill:#B8D9FF;" d="M256.817,135.933c-0.004-0.88-0.005-1.757-0.008-2.629c-0.01-3.057,0.019-6.262-1.409-8.964
				c-1.566-2.964-8.89-2.942-12.242-2.855c-7.328,0.192-7.877,6.205-6.211,12.81c0.457,1.81,1.506,3.059,2.913,4.221
				c1.512,1.249,3.427,1.669,3.83,3.862c0.146,0.793,0.052,1.608-0.042,2.409c-0.149,1.273-0.298,2.545-0.447,3.818
				c-0.118,1-0.256,2.055-0.868,2.854c-0.791,1.033-2.165,1.386-3.433,1.675c2.865,3.953,7.384,5.661,12.172,5.339
				c3.851-0.259,8.902-1.97,11.17-5.292c-0.108,0.158-3.522-1.388-3.853-1.767c-0.848-0.972-0.89-2.928-1.035-4.121
				C256.901,143.563,256.834,139.72,256.817,135.933z"/>
			<polygon points="220.484,221.061 153.76,221.061 139.685,172.453 206.409,172.453 			"/>
			<polyline style="fill:none;stroke:#4F5662;stroke-width:4;stroke-miterlimit:10;" points="180.085,196.757 168.116,233.846 
				199.393,233.846 			"/>
			<path style="fill:#B8D9FF;" d="M286.163,226.017c-3.828,5.581-11.248,7.315-17.602,7.651c-17.391,0.918-35.45,1.65-52.786-0.176
				c-0.939-0.099-2.027-0.323-2.437-1.174c-0.523-1.087,0.455-2.291,1.433-2.997c3.686-2.659,8.414-3.449,12.959-3.451
				c2.271-0.001,4.558,0.174,6.801-0.18c2.647-0.418,4.665-1.886,7.104-2.772c2.438-0.885,5.15-1.495,7.663-2.197
				c5.847-1.633,11.806-2.825,17.755-4.017c-0.269,0.054-1.93-14.07-1.975-15.196c-0.212-5.426,0.501-10.928,2.579-15.97
				c1.277-3.098,3.153-6.097,6.008-7.852c2.856-1.754,6.844-1.958,9.406,0.203c2.417,2.038,2.995,5.473,3.377,8.611
				c0.845,6.934,1.506,13.89,1.983,20.858c0.4,5.841,1.357,12.621-1.808,17.933C286.479,225.541,286.324,225.783,286.163,226.017z"
				/>
			<rect x="92.781" y="233.574" style="fill:#2A83E8;" width="230.401" height="8.706"/>
			<rect x="92.781" y="254.71" style="fill:#2A83E8;" width="230.401" height="8.706"/>
			<path style="fill:#356CCB;" d="M269.127,166.601c0.225-0.244,0.462-0.48,0.71-0.708c2.97-2.722,8.164-3.992,11.944-2.234
				c3.576,1.663,5.433,6.788,6.552,10.377c0.699,2.242,4.63,25.498,4.363,25.602c-3.805,1.492-9.095,1.209-13.107,1.579
				c-5.301,0.488-11.347,0.32-16.343,1.46c-0.145-0.258-0.208-0.536-0.19-0.835c0.298-6.898,0.753-13.788,1.366-20.665
				C264.883,175.997,265.653,170.367,269.127,166.601z"/>
			<path style="fill:#282F3F;" d="M237.518,122.869c1.01,0.939,2.264,1.057,3.843,1.284c2.831,0.406,5.694,0.587,8.554,0.541
				c0.485-0.008,0.989-0.019,1.431,0.18c1.197,0.536,1.002,4.71,1.286,5.99c0.495,2.234,1.229,4.414,2.187,6.492
				c0.267,0.578,0.637,1.216,1.263,1.328c1.026,0.183,1.628-1.107,1.82-2.132c0.592-3.158,0.84-6.381,0.739-9.592
				c-0.064-2.031-1.08-3.848-1.196-5.805c-0.112-1.904-0.479-3.591-2.071-4.849c-0.95-0.751-2.123-1.17-3.309-1.414
				c-1.374-0.282-2.794-0.342-4.187-0.178c-2.19,0.259-3.95,1.127-6.026-0.124c-0.592-0.357-1.362-0.829-1.889-0.383
				c-0.285,0.241-0.337,0.65-0.469,0.999s-0.481,0.702-0.828,0.565c-0.143-0.057-0.243-0.184-0.338-0.305
				c-0.474-0.601-1.109-1.21-1.873-1.164c-0.908,0.054-1.496,1.012-1.659,1.906c-0.421,2.299,0.865,4.019,2.034,5.827
				C237.047,122.37,237.275,122.643,237.518,122.869z"/>
			<path style="fill:#94B9FF;" d="M236.373,130.899c-0.036,0.022-0.072,0.044-0.107,0.067c-1.328,0.836,0.046,4.202,0.628,5.192
				c0.999,1.702,2.627,3.001,4.463,3.724c1.787,0.703,3.899,0.851,5.572-0.093c1.478-0.834,3.033-3.436,3.517-5.022
				c0.233-0.763,0.247-1.627-0.139-2.324c-0.414-0.749-1.213-1.193-1.992-1.548C244.543,129.176,239.903,128.743,236.373,130.899z"
				/>
			<path style="fill:none;stroke:#94B9FF;stroke-miterlimit:10;" d="M244.512,131.084c2.871-0.942,5.742-1.885,8.612-2.827
				c4.079-1.339,1.917,4.78,0.602,6.252c-1.861,2.084-4.8,2.945-7.328,3.901"/>
			<path style="fill:none;stroke:#000000;stroke-width:0.5;stroke-miterlimit:10;" d="M247.193,232.154
				c-2.726,0.224-7.2,0.368-9.926,0.592c-1.222,0.101-2.537,0.181-3.588-0.45c-0.638-0.383-1.105-0.989-1.664-1.481
				c-2.178-1.92-5.47-1.898-8.28-1.165c-2.81,0.733-5.471,2.063-8.352,2.426c-3.951,0.498-7.965-0.866-11.914-0.344
				c-2.325,0.307-4.545,1.261-6.887,1.389"/>
			<path style="fill:#B8D9FF;" d="M257.042,128.927c0.626,2-0.075,4.372-1.746,5.637c-0.405,0.306-0.878,0.555-1.385,0.568
				c-2.358,0.061-3.207-4.228-2.519-5.953C252.404,126.644,256.128,126.007,257.042,128.927z"/>
			<path style="fill:#282F3F;" d="M253.423,129.454c0.628-0.08,1.174,0.529,1.265,1.155c0.091,0.627-0.145,1.25-0.377,1.84"/>
			
				<rect x="225.677" y="185.236" transform="matrix(0.9925 0.1224 -0.1224 0.9925 24.6534 -26.9048)" style="fill:#FFFFFF;" width="11.371" height="4.037"/>
			<path style="fill:#356CCB;" d="M243.204,122.77c-2.737-0.103-5.33-0.821-7.642-2.225c-0.955,0.628-1.868,1.32-2.727,2.074
				c-0.49,0.429-0.973,0.892-1.254,1.48s-0.322,1.329,0.053,1.862c0.328,0.466,0.899,0.688,1.445,0.851
				c3.176,0.95,6.611,0.751,9.825-0.063c3.214-0.814,6.243-2.22,9.219-3.682l-3.062-0.606
				C247.114,122.668,245.162,122.844,243.204,122.77z"/>
			<path style="fill:#356CCB;" d="M255.666,122.007c-1.415,0.077-2.835,0.102-4.251,0.157c-0.004,0-0.008,0-0.012,0.001
				c-0.016,0.003-0.031,0.005-0.047,0.008c-1.041,0.159-4.012,0.125-4.158,1.599c-0.023,0.227,0.03,0.377,0.116,0.493
				c1.73-0.153,3.465-0.255,5.2-0.334c1.321-0.06,2.647-0.09,3.966-0.178c0.64-0.043,1.272-0.146,1.904-0.244
				c-0.099-0.555-0.193-1.111-0.331-1.656C257.257,121.898,256.462,121.964,255.666,122.007z"/>
			<g>
				<path d="M198.413,368.781l8.955,28.141c0.211,0.662,0.826,1.112,1.52,1.112h48.247c0.73,0,1.366-0.495,1.546-1.202l7.164-28.141
					c0.257-1.009-0.505-1.989-1.546-1.989h-64.366C198.854,366.702,198.086,367.752,198.413,368.781z M218.14,392.63
					c0,2.9-4.499,2.895-4.499,0v-17.753c0-2.9,4.499-2.895,4.499,0V392.63z M229.634,392.403c0,2.9-4.499,2.895-4.499,0V374.82
					c0-2.9,4.499-2.895,4.499,0V392.403z M241.071,391.891c0,2.9-4.499,2.895-4.499,0v-17.07c0-2.9,4.499-2.895,4.499,0V391.891z
					 M253.191,391.549c0,2.9-4.499,2.895-4.499,0V374.82c0-2.9,4.499-2.895,4.499,0V391.549z"/>
				<path style="fill:#1B5EAF;" d="M268.423,369.64h-72.741c-0.655,0-1.186-0.531-1.186-1.186v-1.851
					c0-0.655,0.531-1.186,1.186-1.186h72.741c0.655,0,1.186,0.531,1.186,1.186v1.852C269.609,369.109,269.078,369.64,268.423,369.64
					z"/>
				
					<line style="fill:none;stroke:#000000;stroke-width:3;stroke-linecap:round;stroke-miterlimit:10;" x1="274.935" y1="363.539" x2="235.894" y2="366.702"/>
			</g>
			<g>
				<path style="fill:#2A83E8;" d="M149.471,360.497c-3.717,0-7.09-0.284-10.121-0.848c-3.03-0.566-5.636-1.413-7.818-2.545
					c-2.182-1.131-3.878-2.524-5.09-4.181c-1.212-1.655-1.818-3.575-1.818-5.757c0-2.262,0.646-4.161,1.939-5.697
					c1.291-1.534,2.746-2.746,4.363-3.636c2.261,1.697,4.685,3.173,7.272,4.424c2.585,1.254,5.857,1.878,9.818,1.878
					c3.797,0,6.503-0.848,8.121-2.545c1.615-1.696,2.424-3.757,2.424-6.181c0-2.343-0.708-4.282-2.121-5.818
					c-1.415-1.534-3.859-2.302-7.333-2.302c-2.182,0-4,0.242-5.454,0.727c-1.454,0.484-3.112,1.172-4.969,2.061
					c-3.96-0.162-7.091-1.232-9.393-3.212c-2.303-1.979-3.454-5.03-3.454-9.151c0-0.242,0-0.545,0-0.909s0.04-1.109,0.121-2.242
					l1.454-18.423c0.243-3.474,1.333-6.221,3.272-8.242c1.939-2.019,4.646-3.03,8.121-3.03h34.907
					c0.485,0.89,0.97,2.061,1.454,3.515c0.485,1.454,0.727,2.99,0.727,4.605c0,3.072-0.688,5.254-2.061,6.545
					c-1.375,1.293-3.112,1.94-5.212,1.94H145.35l-0.848,11.393c1.534-0.404,3.091-0.767,4.666-1.091
					c1.576-0.322,3.576-0.484,5.999-0.484c4.201,0,7.837,0.626,10.909,1.878c3.07,1.254,5.594,2.97,7.575,5.151
					c1.979,2.182,3.434,4.727,4.363,7.636c0.928,2.909,1.394,6.021,1.394,9.333c0,3.314-0.566,6.505-1.697,9.575
					c-1.133,3.072-2.909,5.758-5.333,8.06c-2.424,2.303-5.515,4.141-9.272,5.515C159.349,359.81,154.804,360.497,149.471,360.497z"
					/>
			</g>
			<path style="fill:none;stroke:#282F3F;stroke-miterlimit:10;" d="M283.539,222.933c-0.405,0.934-0.959,1.803-1.636,2.563"/>
			<path style="fill:none;stroke:#282F3F;stroke-miterlimit:10;" d="M263.246,202.678c0.216-3.924,1.601-23.259,2.286-27.129"/>
			<g>
				
					<line style="fill:none;stroke:#000000;stroke-width:2;stroke-miterlimit:10;" x1="364.891" y1="337.281" x2="370.448" y2="293.834"/>
				<path style="fill:none;stroke:#000000;stroke-width:2;stroke-miterlimit:10;" d="M355.71,337.281h-53.463l-11.227-58.098
					c-0.521-2.698-2.883-4.647-5.631-4.647h-13.681"/>
				<path style="fill:none;stroke:#000000;stroke-width:2;stroke-miterlimit:10;" d="M290.122,293.834h95.148
					c3.436,0,5.899,3.316,4.904,6.606l-10.037,33.2c-0.654,2.162-2.646,3.641-4.904,3.641H355.71"/>
				<path style="fill:none;stroke:#000000;stroke-width:2;stroke-miterlimit:10;" d="M379.031,393.007c0,0-43.286-0.443-59.575,0
					c-3.559,0.097-6.7-2.484-7.535-5.945l-3.227-16.945c-0.419-2.198,1.233-4.248,3.471-4.305l61.471-1.579
					c3.002-0.077,5.396-2.533,5.396-5.536v-0.757c0-3.059-2.479-5.538-5.538-5.538h-63.433c-2.48,0-4.635-1.704-5.206-4.117
					l-2.606-11.004"/>
				<g>
					
						<ellipse transform="matrix(0.2305 -0.9731 0.9731 0.2305 -132.2763 621.7748)" style="fill:#2973E3;" cx="326.996" cy="394.523" rx="7.578" ry="7.578"/>
				</g>
				<g>
					<path style="fill:#2973E3;" d="M369.937,394.523c0,4.185-3.393,7.578-7.578,7.578c-4.185,0-7.578-3.393-7.578-7.578
						c0-4.185,3.393-7.578,7.578-7.578C366.545,386.945,369.937,390.337,369.937,394.523z"/>
				</g>
				
					<line style="fill:none;stroke:#000000;stroke-width:2;stroke-miterlimit:10;" x1="348.22" y1="293.834" x2="347.715" y2="337.281"/>
				
					<line style="fill:none;stroke:#000000;stroke-width:2;stroke-miterlimit:10;" x1="327.001" y1="293.834" x2="330.538" y2="337.281"/>
				
					<line style="fill:none;stroke:#000000;stroke-width:2;stroke-miterlimit:10;" x1="305.828" y1="293.552" x2="312.396" y2="336.293"/>
				<line style="fill:none;stroke:#000000;stroke-width:2;stroke-miterlimit:10;" x1="296.55" y1="307.8" x2="387.95" y2="307.8"/>
				
					<line style="fill:none;stroke:#000000;stroke-width:2;stroke-miterlimit:10;" x1="298.069" y1="318.787" x2="384.628" y2="318.787"/>
				
					<line style="fill:none;stroke:#000000;stroke-width:2;stroke-miterlimit:10;" x1="300.642" y1="328.978" x2="381.547" y2="328.978"/>
				<g>
					<path style="fill:none;stroke:#000000;stroke-width:2;stroke-miterlimit:10;" d="M329.288,394.523
						c0,1.266-1.026,2.292-2.292,2.292c-1.266,0-2.292-1.026-2.292-2.292c0-1.266,1.026-2.292,2.292-2.292
						C328.262,392.23,329.288,393.257,329.288,394.523z"/>
				</g>
				<g>
					<path style="fill:none;stroke:#000000;stroke-width:2;stroke-miterlimit:10;" d="M364.652,394.523
						c0,1.266-1.026,2.292-2.292,2.292c-1.266,0-2.292-1.026-2.292-2.292c0-1.266,1.026-2.292,2.292-2.292
						C363.625,392.23,364.652,393.257,364.652,394.523z"/>
				</g>
				
					<line style="fill:none;stroke:#000000;stroke-width:5;stroke-linecap:round;stroke-miterlimit:10;" x1="265.725" y1="274.536" x2="280.19" y2="274.536"/>
			</g>
			<path style="opacity:0.29;fill:#87B5FF;" d="M288.608,97.237H127.355c-6.835,0-12.375,5.541-12.375,12.375v124.087h120.907
				v-11.903c0-4.152,3.366-7.518,7.518-7.518h24.165c4.152,0,7.518,3.366,7.518,7.518v11.903h25.895V109.612
				C300.983,102.778,295.443,97.237,288.608,97.237z"/>
			
				<line style="opacity:0.51;fill:none;stroke:#FFFFFF;stroke-width:2;stroke-miterlimit:10;" x1="199.393" y1="120.545" x2="134.222" y2="164.767"/>
			
				<line style="opacity:0.51;fill:none;stroke:#FFFFFF;stroke-width:2;stroke-miterlimit:10;" x1="220.484" y1="113.022" x2="155.313" y2="157.244"/>
			
				<line style="opacity:0.51;fill:none;stroke:#FFFFFF;stroke-width:2;stroke-miterlimit:10;" x1="194.84" y1="182.178" x2="167.968" y2="200.413"/>
			
				<line style="opacity:0.51;fill:none;stroke:#FFFFFF;stroke-width:2;stroke-miterlimit:10;" x1="212.049" y1="162.85" x2="134.222" y2="215.66"/>
			<path d="M256.048,228.384c-0.024,0.015-0.047,0.03-0.071,0.045c-3.014,1.793-6.902,2.111-10.488,2.059
				c-0.84-0.012-1.525,0.663-1.525,1.503v1.642c0.62,0.057,1.331-0.029,1.919-0.024c1.874,0.017,3.747,0.035,5.621,0.052
				c4.766,0.044,9.533,0.088,14.3,0.132v0v-4.405c0-0.554-0.449-1.004-1.004-1.004H256.048z"/>
			<g>
				<path style="fill:#78AEFF;" d="M419.55,169.195h-89.664c-4.098,0-7.421-3.322-7.421-7.421v-56.067
					c0-4.098,3.322-7.421,7.421-7.421h89.664c4.098,0,7.421,3.322,7.421,7.421v56.067
					C426.971,165.873,423.649,169.195,419.55,169.195z"/>
				<g>
					<path style="fill:#FFFFFF;" d="M354.615,111.675c1.403,0,2.646,0.179,3.729,0.535c1.083,0.358,2.007,0.844,2.77,1.459
						c0.763,0.616,1.342,1.342,1.736,2.179c0.393,0.837,0.591,1.736,0.591,2.696c0,2.585-1.465,5.047-4.395,7.386l-4.837,3.878
						h8.862c0.148,0.271,0.29,0.615,0.425,1.034c0.136,0.419,0.204,0.874,0.204,1.366c0,0.886-0.198,1.521-0.591,1.902
						c-0.394,0.382-0.912,0.572-1.551,0.572h-12.814c-0.542-0.369-0.966-0.843-1.274-1.422c-0.308-0.578-0.461-1.261-0.461-2.049
						c0-0.837,0.171-1.544,0.517-2.123c0.344-0.578,0.726-1.04,1.145-1.385l5.096-4.357c0.64-0.542,1.169-1.028,1.588-1.459
						c0.418-0.431,0.757-0.818,1.015-1.163c0.258-0.344,0.444-0.665,0.554-0.96c0.111-0.295,0.166-0.578,0.166-0.849
						c0-0.689-0.302-1.23-0.905-1.624c-0.604-0.394-1.347-0.591-2.234-0.591c-0.986,0-1.865,0.154-2.641,0.462
						c-0.775,0.308-1.421,0.634-1.938,0.979c-0.419-0.295-0.764-0.665-1.034-1.108c-0.271-0.443-0.406-0.96-0.406-1.551
						c0-1.28,0.603-2.234,1.809-2.862C350.947,111.989,352.571,111.675,354.615,111.675z"/>
					<path style="fill:#FFFFFF;" d="M390.25,129.178c-0.321,0.271-0.733,0.487-1.238,0.646c-0.504,0.161-1.089,0.24-1.754,0.24
						c-0.886,0-1.619-0.111-2.197-0.332c-0.579-0.221-0.954-0.603-1.126-1.145c-0.689-2.166-1.255-3.92-1.698-5.262
						c-0.444-1.341-0.788-2.517-1.034-3.526h-0.184c-0.074,1.453-0.13,2.776-0.166,3.97c-0.037,1.194-0.062,2.358-0.074,3.49
						c-0.013,1.133-0.037,2.278-0.074,3.434c-0.037,1.158-0.092,2.437-0.166,3.84c-0.32,0.123-0.738,0.227-1.256,0.314
						c-0.517,0.086-1.033,0.129-1.551,0.129c-1.083,0-1.926-0.172-2.529-0.517c-0.604-0.344-0.906-0.973-0.906-1.883l1.072-18.833
						c0.197-0.32,0.627-0.665,1.292-1.034c0.665-0.37,1.601-0.554,2.807-0.554c1.304,0,2.326,0.203,3.065,0.609
						c0.738,0.406,1.28,1.065,1.625,1.976c0.222,0.591,0.462,1.268,0.72,2.031c0.258,0.763,0.517,1.551,0.775,2.364
						c0.259,0.813,0.511,1.619,0.758,2.419c0.245,0.8,0.467,1.52,0.665,2.16h0.184c0.591-2.068,1.181-4.068,1.773-6.001
						c0.591-1.932,1.132-3.551,1.625-4.856c0.369-0.197,0.843-0.363,1.421-0.498c0.578-0.135,1.224-0.203,1.939-0.203
						c1.206,0,2.19,0.179,2.954,0.535c0.763,0.357,1.206,0.868,1.329,1.533c0.098,0.492,0.204,1.25,0.314,2.271
						c0.11,1.022,0.227,2.173,0.351,3.453c0.123,1.28,0.246,2.634,0.37,4.062c0.123,1.428,0.24,2.801,0.351,4.118
						c0.11,1.317,0.203,2.524,0.277,3.619c0.074,1.096,0.123,1.939,0.148,2.53c-0.418,0.247-0.855,0.424-1.311,0.535
						s-1.04,0.166-1.754,0.166c-0.936,0-1.724-0.16-2.363-0.48c-0.64-0.319-0.985-0.947-1.034-1.883
						c-0.148-2.683-0.24-5.096-0.277-7.238c-0.037-2.142-0.092-3.938-0.166-5.392h-0.185c-0.246,0.96-0.603,2.167-1.071,3.619
						C391.48,125.055,390.914,126.914,390.25,129.178z"/>
				</g>
				<g>
					<path style="fill:#FFFFFF;" d="M336.445,155.589c-0.217,0-0.467-0.007-0.748-0.019c-0.281-0.013-0.572-0.038-0.873-0.077
						c-0.3-0.038-0.601-0.086-0.901-0.144c-0.3-0.057-0.578-0.137-0.834-0.24c-0.703-0.268-1.054-0.735-1.054-1.4v-8.955
						c0-0.268,0.073-0.476,0.22-0.623c0.147-0.147,0.349-0.265,0.605-0.355c0.549-0.179,1.131-0.298,1.745-0.355
						c0.613-0.057,1.163-0.086,1.649-0.086c0.997,0,1.901,0.122,2.713,0.364c0.812,0.243,1.508,0.617,2.09,1.122
						c0.581,0.505,1.032,1.141,1.352,1.908c0.319,0.767,0.479,1.675,0.479,2.723c0,1.023-0.153,1.915-0.46,2.675
						c-0.307,0.761-0.745,1.4-1.314,1.918c-0.569,0.518-1.25,0.905-2.042,1.16C338.28,155.461,337.404,155.589,336.445,155.589z
						 M335.372,152.789c0.14,0.026,0.313,0.048,0.518,0.067c0.204,0.019,0.396,0.029,0.575,0.029c0.435,0,0.834-0.064,1.199-0.192
						c0.365-0.128,0.678-0.326,0.94-0.595c0.262-0.268,0.466-0.616,0.613-1.045c0.147-0.428,0.221-0.942,0.221-1.544
						c0-1.15-0.269-2.016-0.806-2.598c-0.537-0.581-1.253-0.872-2.148-0.872c-0.179,0-0.361,0.007-0.546,0.019
						c-0.185,0.013-0.374,0.032-0.565,0.058V152.789z"/>
					<path style="fill:#FFFFFF;" d="M348.162,155.206c-0.141,0.038-0.362,0.076-0.662,0.115s-0.598,0.057-0.892,0.057
						s-0.553-0.022-0.777-0.067s-0.412-0.124-0.565-0.24c-0.153-0.115-0.269-0.275-0.345-0.479
						c-0.077-0.204-0.115-0.473-0.115-0.805v-10.125c0.14-0.025,0.365-0.06,0.671-0.105c0.307-0.045,0.601-0.067,0.882-0.067
						c0.294,0,0.553,0.022,0.777,0.067c0.224,0.045,0.412,0.124,0.566,0.24c0.153,0.115,0.268,0.275,0.345,0.479
						c0.077,0.205,0.116,0.473,0.116,0.805V155.206z"/>
					<path style="fill:#FFFFFF;" d="M353.952,150.661c-0.562-0.192-1.073-0.387-1.534-0.585c-0.46-0.198-0.857-0.438-1.189-0.719
						c-0.332-0.281-0.592-0.617-0.777-1.007c-0.185-0.39-0.278-0.866-0.278-1.429c0-1.087,0.418-1.956,1.256-2.608
						c0.837-0.652,2.01-0.978,3.519-0.978c0.55,0,1.06,0.038,1.534,0.115c0.473,0.077,0.879,0.195,1.218,0.355
						c0.338,0.16,0.604,0.365,0.796,0.614c0.191,0.249,0.288,0.54,0.288,0.872c0,0.333-0.077,0.617-0.23,0.853
						s-0.338,0.438-0.556,0.604c-0.282-0.179-0.658-0.336-1.132-0.47c-0.473-0.134-0.991-0.201-1.553-0.201
						c-0.576,0-0.998,0.08-1.266,0.24c-0.269,0.16-0.403,0.361-0.403,0.604c0,0.192,0.083,0.349,0.249,0.47
						c0.166,0.121,0.416,0.233,0.748,0.335l1.016,0.326c1.202,0.383,2.126,0.872,2.771,1.467c0.645,0.595,0.968,1.403,0.968,2.426
						c0,1.087-0.428,1.965-1.285,2.637c-0.857,0.671-2.116,1.007-3.778,1.007c-0.588,0-1.134-0.048-1.639-0.144
						c-0.505-0.096-0.947-0.237-1.323-0.422c-0.378-0.185-0.672-0.415-0.882-0.69c-0.211-0.275-0.317-0.592-0.317-0.95
						c0-0.37,0.108-0.687,0.326-0.949c0.217-0.262,0.453-0.463,0.709-0.604c0.357,0.281,0.796,0.525,1.313,0.729
						c0.518,0.205,1.084,0.307,1.697,0.307c0.626,0,1.067-0.096,1.323-0.288c0.256-0.192,0.384-0.415,0.384-0.671
						c0-0.255-0.103-0.451-0.307-0.585c-0.204-0.134-0.492-0.265-0.863-0.393L353.952,150.661z"/>
					<path style="fill:#FFFFFF;" d="M360.435,146.346c-0.09-0.141-0.173-0.332-0.25-0.575c-0.077-0.243-0.115-0.498-0.115-0.767
						c0-0.499,0.111-0.856,0.336-1.074c0.224-0.217,0.514-0.326,0.872-0.326h8.36c0.09,0.141,0.172,0.333,0.249,0.575
						c0.077,0.243,0.116,0.498,0.116,0.767c0,0.499-0.112,0.857-0.336,1.074c-0.224,0.217-0.515,0.326-0.872,0.326h-2.129v8.859
						c-0.141,0.038-0.361,0.076-0.661,0.115c-0.301,0.038-0.598,0.057-0.893,0.057c-0.294,0-0.552-0.022-0.776-0.067
						c-0.224-0.045-0.412-0.124-0.566-0.24c-0.153-0.115-0.268-0.275-0.344-0.479c-0.077-0.204-0.116-0.473-0.116-0.805v-7.44
						H360.435z"/>
					<path style="fill:#FFFFFF;" d="M373.34,144.007c0.217-0.128,0.546-0.249,0.987-0.365c0.441-0.115,0.885-0.173,1.333-0.173
						c0.639,0,1.205,0.093,1.697,0.278c0.491,0.185,0.808,0.476,0.949,0.873c0.23,0.664,0.479,1.438,0.748,2.32
						c0.268,0.882,0.537,1.793,0.805,2.733c0.268,0.939,0.53,1.867,0.786,2.781c0.256,0.914,0.48,1.723,0.671,2.426
						c-0.153,0.179-0.384,0.323-0.691,0.431c-0.306,0.109-0.671,0.163-1.093,0.163c-0.307,0-0.565-0.026-0.777-0.076
						c-0.21-0.051-0.384-0.128-0.518-0.23c-0.134-0.102-0.243-0.236-0.326-0.402c-0.083-0.166-0.157-0.358-0.22-0.576l-0.345-1.323
						h-3.471c-0.103,0.384-0.204,0.78-0.307,1.189c-0.103,0.409-0.204,0.806-0.307,1.189c-0.179,0.064-0.367,0.118-0.565,0.163
						c-0.198,0.044-0.438,0.067-0.719,0.067c-0.651,0-1.134-0.112-1.448-0.336c-0.313-0.224-0.47-0.534-0.47-0.93
						c0-0.179,0.025-0.358,0.077-0.537c0.051-0.179,0.109-0.39,0.173-0.633c0.089-0.345,0.214-0.773,0.373-1.285
						c0.16-0.512,0.336-1.064,0.528-1.659c0.191-0.594,0.396-1.205,0.613-1.831c0.217-0.626,0.422-1.218,0.614-1.774
						c0.191-0.556,0.367-1.051,0.527-1.486C373.125,144.57,373.251,144.237,373.34,144.007z M375.641,146.48
						c-0.179,0.537-0.381,1.135-0.604,1.793c-0.224,0.658-0.425,1.326-0.605,2.004h2.378c-0.179-0.69-0.362-1.364-0.547-2.023
						c-0.185-0.659-0.354-1.25-0.508-1.774H375.641z"/>
					<path style="fill:#FFFFFF;" d="M393.416,154.88c-0.179,0.179-0.438,0.317-0.777,0.412c-0.338,0.096-0.745,0.144-1.217,0.144
						c-0.473,0-0.921-0.071-1.343-0.211c-0.421-0.14-0.766-0.479-1.035-1.016l-1.898-3.874c-0.192-0.396-0.365-0.77-0.518-1.122
						c-0.154-0.351-0.32-0.758-0.499-1.218l-0.115,0.019c0.051,0.691,0.08,1.393,0.086,2.109c0.007,0.716,0.01,1.419,0.01,2.11
						v2.972c-0.141,0.038-0.355,0.076-0.642,0.115c-0.288,0.038-0.572,0.057-0.853,0.057c-0.282,0-0.531-0.019-0.748-0.057
						c-0.217-0.038-0.397-0.115-0.537-0.23c-0.141-0.115-0.25-0.271-0.326-0.47c-0.077-0.198-0.115-0.457-0.115-0.777v-9.588
						c0.179-0.256,0.453-0.447,0.825-0.575c0.371-0.127,0.767-0.191,1.189-0.191c0.472,0,0.923,0.074,1.352,0.22
						c0.428,0.147,0.77,0.482,1.026,1.006l1.917,3.874c0.192,0.396,0.365,0.77,0.518,1.122c0.153,0.352,0.319,0.758,0.499,1.218
						l0.096-0.019c-0.051-0.69-0.084-1.381-0.096-2.071c-0.013-0.69-0.019-1.381-0.019-2.071v-3.107
						c0.14-0.038,0.355-0.076,0.642-0.115c0.288-0.038,0.572-0.057,0.853-0.057c0.563,0,0.991,0.099,1.285,0.297
						c0.294,0.198,0.441,0.611,0.441,1.237V154.88z"/>
					<path style="fill:#FFFFFF;" d="M401.835,146.001c-0.985,0-1.739,0.301-2.263,0.901c-0.524,0.601-0.785,1.451-0.785,2.55
						c0,1.112,0.29,1.969,0.872,2.57c0.581,0.601,1.364,0.901,2.349,0.901c0.524,0,0.968-0.07,1.333-0.211
						c0.364-0.141,0.712-0.3,1.045-0.479c0.217,0.179,0.387,0.393,0.509,0.642c0.121,0.249,0.182,0.54,0.182,0.872
						c0,0.524-0.291,0.968-0.872,1.333c-0.582,0.364-1.467,0.547-2.656,0.547c-0.857,0-1.662-0.122-2.417-0.364
						c-0.754-0.243-1.413-0.617-1.975-1.122c-0.563-0.505-1.007-1.144-1.333-1.918c-0.326-0.773-0.489-1.697-0.489-2.771
						c0-0.997,0.156-1.876,0.47-2.637c0.313-0.76,0.741-1.403,1.285-1.927c0.543-0.524,1.179-0.92,1.908-1.189
						c0.729-0.268,1.508-0.402,2.339-0.402c1.176,0,2.087,0.192,2.733,0.575c0.646,0.384,0.968,0.876,0.968,1.477
						c0,0.333-0.083,0.62-0.25,0.863c-0.166,0.243-0.358,0.435-0.575,0.575c-0.332-0.217-0.687-0.403-1.064-0.556
						C402.771,146.078,402.333,146.001,401.835,146.001z"/>
					<path style="fill:#FFFFFF;" d="M406.858,145.445c0-0.55,0.159-0.984,0.479-1.304c0.319-0.32,0.754-0.48,1.304-0.48h6.328
						c0.089,0.141,0.169,0.326,0.239,0.556c0.07,0.23,0.105,0.473,0.105,0.729c0,0.486-0.105,0.831-0.316,1.036
						c-0.211,0.205-0.489,0.307-0.834,0.307h-4.047v1.784h4.315c0.09,0.141,0.17,0.323,0.24,0.546
						c0.07,0.224,0.105,0.464,0.105,0.719c0,0.486-0.103,0.831-0.307,1.035c-0.204,0.205-0.479,0.307-0.824,0.307h-3.529v2.013
						h4.929c0.089,0.141,0.169,0.326,0.239,0.556c0.07,0.23,0.106,0.473,0.106,0.729c0,0.486-0.106,0.834-0.317,1.045
						c-0.211,0.211-0.489,0.316-0.834,0.316h-5.599c-0.55,0-0.985-0.16-1.304-0.479c-0.32-0.319-0.479-0.754-0.479-1.304V145.445z"
						/>
				</g>
			</g>
			<path style="fill:none;stroke:#000000;stroke-width:2;stroke-miterlimit:10;" d="M314.622,218.698"/>
		</g>
		
			<line style="opacity:0.54;fill:none;stroke:#000000;stroke-miterlimit:10;" x1="107.854" y1="155.282" x2="107.854" y2="180.253"/>
		<path style="opacity:0.54;fill:none;stroke:#000000;stroke-miterlimit:10;" d="M180.836,91.002c-17.26,0-34.52,0-51.78,0
			c-6.712,0-13.133,0.218-17.986,5.821c-5.352,6.179-4.107,14.832-4.107,22.405c0,7.966,0,15.931,0,23.897"/>
		<path style="opacity:0.54;fill:none;stroke:#000000;stroke-miterlimit:10;" d="M437.545,133.968v33.125
			c0,5.248-4.255,9.503-9.503,9.503h-6.757"/>
		<line style="opacity:0.54;fill:none;stroke:#000000;stroke-miterlimit:10;" x1="236.861" y1="91.002" x2="381.08" y2="91.002"/>
		<path style="opacity:0.54;fill:none;stroke:#000000;stroke-miterlimit:10;" d="M91.075,324.727v58.411
			c0,5.294,4.291,9.585,9.585,9.585h18.32"/>
		<path style="opacity:0.54;fill:none;stroke:#000000;stroke-miterlimit:10;" d="M387.266,351.657
			c0.66,3.94,1.319,7.88,1.979,11.819"/>
		<path style="opacity:0.54;fill:none;stroke:#000000;stroke-miterlimit:10;" d="M403.329,288.029
			c-3.606,11.92-7.212,23.839-10.818,35.759"/>
	</g>
</g>
</svg>
