<?xml version="1.0" encoding="utf-8"?>
<!-- Generator: Adobe Illustrator 27.5.0, SVG Export Plug-In . SVG Version: 6.00 Build 0)  -->
<svg version="1.1" xmlns="http://www.w3.org/2000/svg" xmlns:xlink="http://www.w3.org/1999/xlink" x="0px" y="0px"
	 viewBox="0 0 750 500" style="enable-background:new 0 0 750 500;" xml:space="preserve">
<g id="BACKGROUND">
	<g>
		<g>
			<g>
				<rect x="60.635" y="37.573" style="opacity:0.5;fill:#9BDBDD;" width="251.539" height="217.954"/>
				<g style="opacity:0.3;">
					<polygon style="fill:#FFFFFF;" points="312.174,53.249 124.746,255.527 204.722,255.527 312.174,139.562 					"/>
					<polygon style="fill:#FFFFFF;" points="200.596,37.573 60.634,188.622 60.634,239.856 248.069,37.573 					"/>
				</g>
			</g>
			<g>
				<path style="fill:#83B8B9;" d="M235.693,204.181c0,0,2.855-6.229,7.786-5.45c4.931,0.779,11.419,7.007,6.488,12.197
					C245.036,216.119,233.617,213.005,235.693,204.181z"/>
				<path style="fill:#83B8B9;" d="M230.424,194.083c0,0-4.022-5.926-0.655-9.913c3.367-3.987,12.45-6.413,14.419,0.807
					C246.158,192.197,237.188,200.719,230.424,194.083z"/>
				<path style="fill:#75A1A5;" d="M219.065,201.165c0,0-5.216-3.04-4.108-7.297c1.108-4.257,7.129-9.41,11.256-4.638
					C230.339,194.001,226.623,203.746,219.065,201.165z"/>
				<path style="fill:#75A1A5;" d="M208.398,190.212c0,0-5.977,2.757-9.086-0.895c-3.109-3.651-3.945-12.251,2.897-12.952
					C209.051,175.664,215.431,185.076,208.398,190.212z"/>
				<path style="fill:#83B8B9;" d="M206.812,203.7c0,0-5.977,2.757-9.086-0.895c-3.109-3.652-3.945-12.251,2.897-12.952
					C207.465,189.152,213.844,198.564,206.812,203.7z"/>
				<path style="fill:#75A1A5;" d="M186.825,208.311c0,0,3.588-5,8.381-3.638c4.792,1.362,10.464,7.664,4.944,11.475
					C194.631,219.958,183.692,215.668,186.825,208.311z"/>
				
					<path style="fill:none;stroke:#587A7B;stroke-width:0.75;stroke-linecap:round;stroke-linejoin:round;stroke-miterlimit:10;" d="
					M223.236,229.355c0,0-2.076-29.586,20.762-24.395"/>
				<path style="fill:#75A1A5;" d="M233.249,213.441c0,0,1.954-4.264,5.331-3.731c3.376,0.533,7.818,4.798,4.442,8.351
					C239.646,221.615,231.828,219.483,233.249,213.441z"/>
				
					<path style="fill:none;stroke:#587A7B;stroke-width:0.75;stroke-linecap:round;stroke-linejoin:round;stroke-miterlimit:10;" d="
					M224.721,230.677c0,0-1.421-20.256,14.215-16.702"/>
				
					<path style="fill:none;stroke:#587A7B;stroke-width:0.75;stroke-linecap:round;stroke-linejoin:round;stroke-miterlimit:10;" d="
					M237.326,186.868c0,0-17.674,21.7-16.561,45.688c0,0-4.792-26.289,0.942-40.361"/>
				
					<path style="fill:none;stroke:#587A7B;stroke-width:0.75;stroke-linecap:round;stroke-linejoin:round;stroke-miterlimit:10;" d="
					M204.196,183.329c0,0,13.752,14.281,11.636,46.545c0,0-2.116-24.859-15.074-34.645"/>
				
					<path style="fill:none;stroke:#587A7B;stroke-width:0.75;stroke-linecap:round;stroke-linejoin:round;stroke-miterlimit:10;" d="
					M189.302,210.287c0,0,14.366-6.832,27.455,22.173"/>
				<g>
					<path style="fill:#FFFFFF;" d="M202.239,224.495h34.986c0,0,3.499,31.089-13.12,32.552
						C207.487,258.51,200.053,246.806,202.239,224.495z"/>
					<path style="opacity:0.3;fill:#C8D0DB;" d="M205.266,248.246c3.544,6.519,9.843,9.593,18.839,8.801
						c9.668-0.851,12.523-11.725,13.224-20.675C227.078,241.104,216.357,245.098,205.266,248.246z"/>
				</g>
			</g>
			<g>
				<rect x="49.47" y="259.796" style="opacity:0.1;fill:#012A3A;" width="287.005" height="11.165"/>
				<rect x="42.902" y="255.527" style="fill:#BB969D;" width="287.005" height="11.165"/>
			</g>
		</g>
		<g>
			<g>
				<rect x="451.115" y="37.573" style="opacity:0.5;fill:#9BDBDD;" width="251.539" height="217.954"/>
				<g style="opacity:0.3;">
					<polygon style="fill:#FFFFFF;" points="702.655,53.249 515.227,255.527 595.203,255.527 702.655,139.562 					"/>
					<polygon style="fill:#FFFFFF;" points="591.077,37.573 451.115,188.622 451.115,239.856 638.549,37.573 					"/>
				</g>
			</g>
			<g>
				<g>
					<path style="fill:#83B8B9;" d="M498.381,229.594c0,0,0.992-42.518-11.543-55.093c-12.535-12.575,4.685-11.139,10.759,4.601
						c6.074,15.74,3,55.571,3,55.571L498.381,229.594z"/>
					<g>
						<path style="fill:#75A1A5;" d="M497.015,233.108c0,0-5.418-30.647-19.703-38.309c-14.285-7.662,2.955-8.513,11.329,2.128
							c8.374,10.641,11.329,39.586,11.329,39.586L497.015,233.108z"/>
						<path style="fill:#83B8B9;" d="M504.089,231.829c0,0,5.665-36.259,15.76-44.963c10.095-8.704-1.42-10.197-7.745,2.212
							c-6.325,12.409-10.224,46.714-10.224,46.714L504.089,231.829z"/>
						<path style="fill:#75A1A5;" d="M506.581,237.097c0,0,6.565-34.981,19.199-43.269c12.633-8.288-1.968-9.875-9.767,2.042
							c-7.799,11.917-12.162,45.031-12.162,45.031L506.581,237.097z"/>
						<path style="fill:#75A1A5;" d="M502.358,229.109c0,0-7.78-59.498-0.778-60.276c7.002-0.778,2.475,62.996,2.475,62.996
							L502.358,229.109z"/>
					</g>
				</g>
				<g>
					<path style="fill:#FFFFFF;" d="M486.183,224.495h34.986c0,0,3.499,31.089-13.12,32.552
						C491.431,258.51,483.996,246.806,486.183,224.495z"/>
					<path style="opacity:0.3;fill:#C8D0DB;" d="M489.21,248.246c3.544,6.519,9.843,9.593,18.839,8.801
						c9.668-0.851,12.523-11.725,13.224-20.675C511.021,241.104,500.301,245.098,489.21,248.246z"/>
				</g>
			</g>
			<g>
				<rect x="445.787" y="259.796" style="opacity:0.1;fill:#012A3A;" width="287.005" height="11.165"/>
				<rect x="439.22" y="255.527" style="fill:#BB969D;" width="287.005" height="11.165"/>
			</g>
		</g>
	</g>
</g>
<g id="OBJECTS">
	<g>
		<ellipse style="opacity:0.15;fill:#001627;" cx="535.491" cy="440.659" rx="41.5" ry="10.151"/>
		<g>
			<path style="fill:#7A8696;" d="M541.049,431.401c0,1.34-1.086,2.426-2.426,2.426l0,0c-1.34,0-2.426-1.086-2.426-2.426V311.554
				c0-1.34,1.086-2.426,2.426-2.426l0,0c1.34,0,2.426,1.086,2.426,2.426V431.401z"/>
			<path style="fill:#606D7C;" d="M536.197,394.714v13.242c1.611-0.443,3.229-0.852,4.852-1.24v-11.633
				C539.432,394.961,537.814,394.838,536.197,394.714z"/>
			<path style="fill:#606D7C;" d="M541.049,323.143v-11.589c0-1.34-1.086-2.426-2.426-2.426c-1.34,0-2.426,1.086-2.426,2.426v11.069
				C537.814,322.796,539.432,322.964,541.049,323.143z"/>
			<rect x="509.998" y="306.432" style="fill:#959FAF;" width="57.249" height="6.47"/>
			<path style="fill:#BB969D;" d="M573.447,305.085c0,2.233-1.81,4.044-4.044,4.044h-61.562c-2.233,0-4.044-1.81-4.044-4.044l0,0
				c0-2.233,1.81-4.044,4.044-4.044h61.562C571.637,301.041,573.447,302.852,573.447,305.085L573.447,305.085z"/>
			<path style="fill:#959FAF;" d="M569.005,394.099c0,1.34-1.086,2.426-2.426,2.426h-55.912c-1.34,0-2.426-1.086-2.426-2.426l0,0
				c0-1.34,1.086-2.426,2.426-2.426h55.912C567.919,391.673,569.005,392.759,569.005,394.099L569.005,394.099z"/>
			<path style="fill:#959FAF;" d="M512.906,438.68c0,2.68,11.514,4.852,25.717,4.852c14.203,0,25.717-2.172,25.717-4.852
				s-11.514-9.704-25.717-9.704C524.42,428.975,512.906,436,512.906,438.68z"/>
			<path style="fill:#7A8696;" d="M538.623,440.836c-12.024,0-22.092-1.559-24.906-3.663c-0.51,0.575-0.81,1.095-0.81,1.507
				c0,2.68,11.514,4.852,25.717,4.852c14.203,0,25.717-2.172,25.717-4.852c0-0.411-0.3-0.932-0.81-1.507
				C560.714,439.277,550.647,440.836,538.623,440.836z"/>
		</g>
	</g>
	<g>
		<g>
			
				<line style="fill:none;stroke:#001627;stroke-width:1.9477;stroke-miterlimit:10;" x1="190.346" y1="90.964" x2="190.346" y2="0"/>
			<ellipse style="fill:#959FAF;" cx="190.346" cy="80.739" rx="11.452" ry="10.225"/>
			<path style="fill:#959FAF;" d="M136.46,102.078c0,6.275,23.616,11.361,52.748,11.361c29.132,0,52.748-5.087,52.748-11.361
				c0-6.275-23.616-22.722-52.748-22.722C160.077,79.355,136.46,95.803,136.46,102.078z"/>
			<path style="opacity:0.3;fill:#001627;" d="M189.209,107.127c-24.663,0-45.312-3.651-51.086-8.577
				c-1.046,1.345-1.662,2.565-1.662,3.527c0,6.275,23.616,11.361,52.748,11.361c29.132,0,52.748-5.087,52.748-11.361
				c0-0.962-0.616-2.182-1.662-3.527C234.521,103.476,213.872,107.127,189.209,107.127z"/>
		</g>
		<g>
			
				<line style="fill:none;stroke:#001627;stroke-width:1.9477;stroke-miterlimit:10;" x1="591.012" y1="90.964" x2="591.012" y2="0"/>
			<ellipse style="fill:#959FAF;" cx="591.012" cy="80.739" rx="11.452" ry="10.225"/>
			<path style="fill:#959FAF;" d="M537.127,102.078c0,6.275,23.616,11.361,52.748,11.361c29.132,0,52.748-5.087,52.748-11.361
				c0-6.275-23.616-22.722-52.748-22.722C560.743,79.355,537.127,95.803,537.127,102.078z"/>
			<path style="opacity:0.3;fill:#001627;" d="M589.875,107.127c-24.663,0-45.313-3.651-51.086-8.577
				c-1.046,1.345-1.662,2.565-1.662,3.527c0,6.275,23.616,11.361,52.748,11.361c29.132,0,52.748-5.087,52.748-11.361
				c0-0.962-0.616-2.182-1.662-3.527C635.188,103.476,614.539,107.127,589.875,107.127z"/>
		</g>
	</g>
	<g>
		<g>
			<ellipse style="opacity:0.15;fill:#001627;" cx="655.86" cy="439.199" rx="41.5" ry="10.151"/>
			<g>
				<path style="fill:#7A8696;" d="M660.88,429.941c0,1.34-1.086,2.426-2.426,2.426l0,0c-1.34,0-2.426-1.086-2.426-2.426V310.094
					c0-1.34,1.086-2.426,2.426-2.426l0,0c1.34,0,2.426,1.086,2.426,2.426V429.941z"/>
				<path style="fill:#606D7C;" d="M656.027,393.254v13.242c1.611-0.443,3.229-0.852,4.852-1.24v-11.633
					C659.262,393.501,657.645,393.378,656.027,393.254z"/>
				<path style="fill:#606D7C;" d="M660.88,321.683v-11.589c0-1.34-1.086-2.426-2.426-2.426c-1.34,0-2.426,1.086-2.426,2.426v11.069
					C657.645,321.336,659.263,321.504,660.88,321.683z"/>
				<rect x="636.349" y="304.973" style="fill:#959FAF;" width="57.249" height="6.47"/>
				<path style="fill:#BB969D;" d="M699.798,303.625c0,2.233-1.81,4.044-4.044,4.044h-61.562c-2.233,0-4.043-1.81-4.043-4.044l0,0
					c0-2.233,1.81-4.044,4.043-4.044h61.562C697.987,299.581,699.798,301.392,699.798,303.625L699.798,303.625z"/>
				<path style="fill:#959FAF;" d="M687.144,392.639c0,1.34-1.086,2.426-2.426,2.426h-55.912c-1.34,0-2.426-1.086-2.426-2.426l0,0
					c0-1.34,1.086-2.426,2.426-2.426h55.912C686.057,390.213,687.144,391.299,687.144,392.639L687.144,392.639z"/>
				<path style="fill:#959FAF;" d="M632.737,437.22c0,2.68,11.514,4.852,25.717,4.852c14.203,0,25.717-2.173,25.717-4.852
					c0-2.68-11.514-9.704-25.717-9.704C644.25,427.515,632.737,434.54,632.737,437.22z"/>
				<path style="fill:#7A8696;" d="M658.453,439.376c-12.024,0-22.092-1.559-24.906-3.663c-0.51,0.575-0.81,1.095-0.81,1.507
					c0,2.68,11.514,4.852,25.717,4.852c14.203,0,25.717-2.173,25.717-4.852c0-0.411-0.3-0.932-0.81-1.507
					C680.545,437.817,670.478,439.376,658.453,439.376z"/>
			</g>
		</g>
		<g>
			<g>
				<g>
					<path style="fill:#012A3A;" d="M682.162,263.087c0,0,6.324,16.788,1.401,29.996c-4.923,13.208-77.744,17.331-77.744,17.331
						s10.528,12.397,12.779,24.71c1.828,10.002,11.6,50.058,11.6,50.058l-10.328,3.3c0,0-39.566-79.455-35.938-88.265
						c6.193-15.039,59.271-45.117,59.271-45.117L682.162,263.087z"/>
					<path style="fill:#FFA95D;" d="M606.679,367.078l21.835-7.5l3.954,32.611l-25.768,5.964c0,0,3.763-4.765,9.658-9.781
						L606.679,367.078z"/>
					<path style="opacity:0.2;fill:#012A3A;" d="M606.679,367.078l21.835-7.5l3.954,32.611l-25.768,5.964
						c0,0,3.763-4.765,9.658-9.781L606.679,367.078z"/>
				</g>
				<g>
					<path style="fill:#00344E;" d="M691.563,259.82c0,0,7.667,16.218,3.833,29.783c-3.833,13.564-76.079,23.59-76.079,23.59
						s11.5,11.5,14.744,23.59c2.635,9.821,15.629,48.95,15.629,48.95l-10.026,4.128c0,0-52.784-77.848-49.245-86.695
						c3.539-8.846,56.027-38.629,56.027-38.629L691.563,259.82z"/>
					<path style="fill:#FFA95D;" d="M624.625,371.874l20.347-10.911l9.141,31.552l-24.475,10.026c0,0,2.949-5.308,7.962-11.205
						L624.625,371.874z"/>
				</g>
			</g>
			<g>
				<path style="fill:#FFA95D;" d="M578.329,250.383l30.04-0.208c0,0-0.499,4.086-4.69,5.425
					c-4.191,1.339-19.935,0.052-19.935,0.052S578.664,253.947,578.329,250.383z"/>
				<path style="opacity:0.5;fill:#BF6E4B;" d="M579.345,252.742c1.576,1.96,4.4,2.911,4.4,2.911s15.743,1.287,19.935-0.052
					c1.889-0.604,3.024-1.764,3.705-2.859H579.345z"/>
			</g>
			<g>
				<g>
					<path style="fill:#032E3F;" d="M666.901,134.906c0,0-11.257-12.708-25.586-2.806c-24.8,17.139-11.383,64.615,0.117,63.73
						s11.401,1.546,14.744-9.141C658.437,167.694,666.901,134.906,666.901,134.906z"/>
					<path style="fill:#FFD7CC;" d="M668.023,185.748l0.06-22.864l-15.703,9.023l0.833,15.507l-12.616,5.143
						c0,0-5.222,17.979,16.245,16.188c21.467-1.791,24.842-20.876,24.842-20.876L668.023,185.748z"/>
					<path style="opacity:0.5;fill:#DD9F9E;" d="M668.003,179.218l0.08-16.334l-15.703,9.023l0.647,13.496
						C658.247,184.339,662.716,182.754,668.003,179.218z"/>
					<path style="fill:#FFD7CC;" d="M635.748,153.514c1.059-19.197,19.424-19.121,28.202-13.974
						c0.038,10.366,3.485,15.924,6.69,25.499C656.289,191.088,634.079,183.776,635.748,153.514z"/>
					<path style="fill:#032E3F;" d="M657.116,133.602c0,0,1.428,5.128-5.428,10.348c-6.856,5.22-17.972,1.478-17.972,1.478
						S640.872,131.288,657.116,133.602z"/>
					<path style="fill:#00344E;" d="M679.849,144.456c-1.922-11.717-17.917-21.708-23.731-9.783
						c-5.007,10.272,6.196,17.239,8.953,18.926c0.441,2.213,2.623,8.246,2.307,11.746c-0.155,1.725,0.064,2.897,0.542,3.581
						C668.002,171.124,682.44,160.245,679.849,144.456z"/>
					<path style="fill:#00344E;" d="M665.318,152.041c0,0-6.93,28.309,1.769,34.354c6.854,4.763,12.385-1.769,19.462,3.244
						c0,0,2.212-6.635,1.917-13.122c-0.295-6.487-7.077-13.859-8.404-30.078c-1.327-16.218-14.154-5.455-15.186,5.75"/>
				</g>
				<g>
					<g>
						<path style="fill:#001627;" d="M649.431,153.513c0,0,0.324-0.665,1.137-1.387c0.408-0.353,0.925-0.736,1.562-1.024
							c0.626-0.303,1.379-0.499,2.158-0.532c0.392,0.003,0.785,0,1.164,0.106c0.387,0.056,0.74,0.207,1.07,0.366
							c0.346,0.127,0.607,0.376,0.871,0.566c0.276,0.178,0.462,0.428,0.64,0.641c0.174,0.217,0.348,0.397,0.438,0.607
							c0.108,0.195,0.186,0.373,0.252,0.516c0.128,0.288,0.184,0.455,0.184,0.455s-0.166-0.09-0.425-0.253
							c-0.128-0.083-0.285-0.179-0.447-0.298c-0.155-0.129-0.384-0.204-0.586-0.331c-0.213-0.113-0.427-0.252-0.679-0.334
							c-0.249-0.087-0.487-0.22-0.761-0.263c-0.265-0.072-0.531-0.145-0.815-0.159c-0.276-0.052-0.565-0.04-0.853-0.038
							c-1.155,0.027-2.368,0.425-3.305,0.749C650.073,153.267,649.431,153.513,649.431,153.513z"/>
					</g>
					<g>
						<path style="fill:#001627;" d="M635.853,155.101c0,0,0.193-0.653,0.835-1.406c0.32-0.375,0.744-0.779,1.294-1.113
							c0.536-0.347,1.225-0.593,1.955-0.673c0.371-0.017,0.743-0.033,1.106,0.064c0.37,0.044,0.697,0.206,1.007,0.356
							c0.327,0.123,0.543,0.387,0.785,0.565c0.251,0.174,0.387,0.431,0.544,0.63c0.324,0.392,0.44,0.807,0.543,1.072
							c0.094,0.272,0.129,0.43,0.129,0.43s-0.153-0.082-0.391-0.23c-0.117-0.076-0.26-0.162-0.406-0.271
							c-0.141-0.116-0.339-0.196-0.522-0.305c-0.195-0.092-0.373-0.24-0.595-0.307c-0.221-0.065-0.421-0.206-0.656-0.232
							c-0.227-0.051-0.447-0.124-0.685-0.123c-0.229-0.039-0.469-0.017-0.709-0.003c-0.961,0.083-2.009,0.523-2.82,0.887
							C636.418,154.837,635.853,155.101,635.853,155.101z"/>
					</g>
					<g>
						<path style="fill:#C99991;" d="M645.709,159.708c-0.113,1.004-0.328,1.974-0.603,2.923c-0.274,0.949-0.59,1.884-0.969,2.798
							l-0.115-0.401c0.499,0.438,0.991,0.886,1.469,1.35c0.478,0.465,0.948,0.939,1.398,1.439c-0.583-0.335-1.144-0.697-1.699-1.067
							c-0.554-0.371-1.094-0.759-1.627-1.156l-0.187-0.139l0.071-0.262c0.26-0.954,0.582-1.887,0.947-2.805
							C644.759,161.469,645.183,160.571,645.709,159.708z"/>
					</g>
					<g>
						<path style="fill:#001627;" d="M643.847,158.336c0,0,0,0.159-0.018,0.432c-0.014,0.137-0.007,0.3-0.078,0.49
							c-0.061,0.185-0.109,0.429-0.229,0.644c-0.123,0.21-0.221,0.476-0.416,0.686c-0.176,0.226-0.367,0.469-0.622,0.66
							c-0.232,0.218-0.52,0.388-0.814,0.557c-0.317,0.128-0.633,0.276-0.992,0.333c-0.173,0.04-0.353,0.059-0.541,0.049
							c-0.185-0.004-0.366,0.011-0.554-0.044c-0.374-0.049-0.728-0.245-1.02-0.467c-0.132-0.133-0.267-0.261-0.375-0.399
							c-0.074-0.155-0.147-0.307-0.218-0.455c-0.121-0.294-0.126-0.591-0.151-0.843c0.019-0.253,0.051-0.48,0.082-0.674
							c0.041-0.192,0.116-0.351,0.162-0.482c0.102-0.26,0.17-0.399,0.17-0.399s0.029,0.162,0.062,0.428
							c0.019,0.132,0.028,0.292,0.056,0.467c0.047,0.174,0.098,0.364,0.137,0.565c0.089,0.181,0.156,0.389,0.272,0.554
							c0.061,0.077,0.123,0.156,0.187,0.236c0.087,0.052,0.161,0.111,0.236,0.173c0.174,0.094,0.364,0.152,0.585,0.178
							c0.101,0.034,0.225,0.011,0.341,0.009c0.116,0.005,0.236-0.014,0.358-0.049c0.246-0.022,0.487-0.128,0.728-0.206
							c0.222-0.13,0.476-0.202,0.677-0.358c0.218-0.129,0.414-0.276,0.598-0.427c0.197-0.139,0.33-0.32,0.495-0.461
							c0.153-0.15,0.251-0.304,0.373-0.439c0.12-0.129,0.2-0.283,0.273-0.396C643.754,158.465,643.847,158.336,643.847,158.336z"/>
					</g>
					<g>
						<path style="fill:#001627;" d="M656.45,158.336c0,0,0,0.159-0.018,0.432c-0.014,0.137-0.007,0.3-0.078,0.49
							c-0.061,0.185-0.109,0.429-0.229,0.644c-0.123,0.21-0.221,0.476-0.416,0.686c-0.176,0.226-0.367,0.469-0.622,0.66
							c-0.232,0.218-0.52,0.388-0.814,0.557c-0.317,0.128-0.633,0.276-0.993,0.333c-0.174,0.04-0.353,0.059-0.541,0.049
							c-0.185-0.004-0.366,0.011-0.554-0.044c-0.374-0.049-0.728-0.245-1.02-0.467c-0.132-0.133-0.267-0.261-0.375-0.399
							c-0.074-0.155-0.147-0.307-0.218-0.455c-0.121-0.294-0.126-0.591-0.151-0.843c0.019-0.253,0.051-0.48,0.082-0.674
							c0.041-0.192,0.116-0.351,0.162-0.482c0.102-0.26,0.17-0.399,0.17-0.399s0.029,0.162,0.062,0.428
							c0.019,0.132,0.028,0.292,0.056,0.467c0.047,0.174,0.098,0.364,0.137,0.565c0.089,0.181,0.156,0.389,0.272,0.554
							c0.061,0.077,0.123,0.156,0.187,0.236c0.087,0.052,0.161,0.111,0.236,0.173c0.174,0.094,0.364,0.152,0.585,0.178
							c0.101,0.034,0.225,0.011,0.341,0.009c0.116,0.005,0.236-0.014,0.358-0.049c0.246-0.022,0.487-0.128,0.728-0.206
							c0.222-0.13,0.476-0.202,0.677-0.358c0.218-0.129,0.414-0.276,0.598-0.427c0.197-0.139,0.33-0.32,0.495-0.461
							c0.153-0.15,0.251-0.304,0.373-0.439c0.12-0.129,0.2-0.283,0.273-0.396C656.357,158.465,656.45,158.336,656.45,158.336z"/>
					</g>
					<g>
						<path style="fill:#C99991;" d="M646.003,169.055c-0.152,0.833-0.454,1.587-0.811,2.311l-0.296-0.553
							c0.62,0.034,1.283,0.023,1.926-0.013c0.646-0.046,1.293-0.109,1.933-0.221c0.644-0.095,1.279-0.242,1.909-0.416
							c0.316-0.088,0.633-0.176,0.944-0.288c0.317-0.099,0.614-0.242,0.935-0.349c-0.536,0.398-1.118,0.752-1.735,1.029
							c-0.616,0.283-1.262,0.5-1.92,0.666c-0.661,0.155-1.331,0.282-2.01,0.332c-0.681,0.061-1.35,0.073-2.055,0.01l-0.587-0.052
							l0.291-0.501C644.933,170.312,645.394,169.643,646.003,169.055z"/>
					</g>
				</g>
			</g>
			<g>
				<g>
					<g>
						<path style="fill:#FFD7CC;" d="M615.483,183.445c0,0-7.962,2.064-10.321,5.308c-2.359,3.244-2.634,57.991,7.372,58.681
							c8.552,0.59,25.065-19.757,28.309-29.488l-12.09-9.141l-10.026,14.154l-5.013-29.193c0,0,3.465-1.143,3.465-2.027
							C617.179,190.854,615.483,183.445,615.483,183.445z"/>
						<path style="opacity:0.5;fill:#DD9F9E;" d="M636.459,226.422c2.035-3.148,3.6-6.123,4.384-8.475l-12.09-9.141l-4.849,6.846
							C627.844,219.541,632.033,223.152,636.459,226.422z"/>
						<g>
							<path style="fill:#C07979;" d="M684.014,223.904c-0.138-0.424-0.276-0.837-0.413-1.24c0,0,6.782-27.719,5.603-30.668
								c-1.18-2.949-8.846-4.718-8.846-4.718s0,17.693-22.411,20.052c-10.404,1.095-17.103-10.026-16.097-15.471
								c-3.66,1.589-8.217,4.309-11.032,8.688c-5.308,8.257-7.667,11.206-7.667,11.206s4.128,7.077,12.385,9.731
								c0,0-2.064,9.141,7.667,12.975c0,0-2.359,12.09-5.898,23.296c0,0,18.872,16.513,56.617,5.603
								C693.922,263.358,688.64,238.061,684.014,223.904z"/>
						</g>
						<g style="opacity:0.1;">
							<path style="fill:#111102;" d="M684.014,223.904c-0.138-0.424-0.276-0.837-0.413-1.24c0,0,0.774-3.165,1.753-7.464
								c-6.73,8.67-15.244,15.728-25.568,20.154c-5.722,2.453-11.703,3.941-17.811,4.839c-1.033,4.558-2.661,11.202-4.67,17.563
								c0,0,18.872,16.513,56.617,5.603C693.922,263.358,688.64,238.061,684.014,223.904z"/>
							<path style="fill:#111102;" d="M635.535,221.485c0,0-0.007,0.029-0.017,0.082c2.958-5.763,0.357-14.361,0.357-14.361
								c-1.623,3.098-4.585,7.065-7.336,10.475C630.396,219.159,632.719,220.58,635.535,221.485z"/>
						</g>
					</g>
					<g>
						<path style="fill:#FFA95D;" d="M621.762,194.912c0.266,1.375,3.817,1.846,7.931,1.05c4.114-0.795,7.234-2.555,6.968-3.931
							c-0.266-1.375-3.817-1.846-7.931-1.05C624.616,191.777,621.496,193.537,621.762,194.912z"/>
						<polygon style="fill:#FFA95D;" points="617.527,179.491 621.762,194.912 636.661,192.031 634.842,176.143 						"/>
						<g>
							<path style="fill:#BF6E4B;" d="M622.001,180.386c-2.874,0-4.029-0.577-4.105-0.965c-0.161-0.838,3.304-2.839,7.878-3.724
								c1.491-0.288,3.123-0.447,4.594-0.447c2.874,0,4.029,0.577,4.104,0.965c0.069,0.358-0.598,1.081-2.242,1.891
								c-1.556,0.766-3.662,1.451-5.636,1.833C625.103,180.227,623.471,180.386,622.001,180.386
								C622.001,180.386,622.001,180.386,622.001,180.386z"/>
							<path style="fill:#FFA95D;" d="M630.367,175.625c2.441,0,3.539,0.432,3.728,0.663c-0.185,0.689-3.348,2.464-7.572,3.28
								c-1.468,0.284-3.074,0.44-4.521,0.44c-2.441,0-3.539-0.432-3.728-0.663c0.185-0.689,3.348-2.464,7.572-3.281
								C627.314,175.782,628.92,175.625,630.367,175.625 M630.367,174.873c-1.462,0-3.109,0.153-4.664,0.454
								c-4.114,0.796-8.442,2.789-8.176,4.164c0.165,0.855,2.069,1.27,4.475,1.27c1.462,0,3.109-0.153,4.664-0.454
								c4.114-0.796,8.442-2.789,8.176-4.164C634.676,175.288,632.772,174.873,630.367,174.873L630.367,174.873z"/>
						</g>
					</g>
					<path style="fill:none;stroke:#FFA95D;stroke-width:1.4495;stroke-miterlimit:10;" d="M615.123,188.691
						c0.507,2.62,3.253,4.292,6.135,3.735c2.882-0.557,4.807-3.133,4.301-5.753c-0.507-2.62-3.253-4.292-6.135-3.735
						C616.542,183.496,614.616,186.071,615.123,188.691z"/>
					<path style="fill:#FFD7CC;" d="M608.112,186.21c0,0,9.51-5.308,8.404-0.995c0,0,2.322,0.442,1.106,2.212
						c0,0,1.769,0.553,0.885,1.88c0,0,2.654,2.101-2.101,3.76c-4.755,1.659-5.308,1.548-5.308,1.548L608.112,186.21z"/>
				</g>
				<g>
					<path style="fill:#FFD7CC;" d="M686.55,189.638c0,0,9.584,2.433,7.814,14.597c-1.273,8.754-6.414,39.588-9.068,44.011
						c-2.654,4.423-39.83,25.963-41.947,27.055c-2.285,1.179-12.532,7.225-3.17-0.811c0,0-12.827,7.151-2.433-1.032
						c0,0-11.206,5.013,0.516-2.728c0,0-11.869,5.087-0.811-1.769l3.391-2.138c0,0-12.827-2.875,2.212-2.212
						c0,0,17.914-15.039,27.645-24.77C673.704,236.837,673.501,195.609,686.55,189.638z"/>
					<path style="opacity:0.5;fill:#DD9F9E;" d="M690.436,227.393c1.74-9.215,3.302-18.855,3.928-23.158
						c1.769-12.164-7.814-14.597-7.814-14.597c-8.18,3.743-11.152,21.342-12.971,34.693
						C679.152,225.779,684.768,226.731,690.436,227.393z"/>
					<path style="fill:#C07979;" d="M671.953,221.338c-0.036,0.441,15.039,1.917,22.706-0.295c0,0,8.994-27.424-9.878-32.437
						C684.78,188.606,673.722,199.959,671.953,221.338z"/>
				</g>
			</g>
		</g>
	</g>
	<g>
		<g>
			<g>
				<path style="fill:#3B212E;" d="M399.485,168.555c0,0-4.875,20.25,3.5,34.375c0,0-1-8.5,0.625-16.125
					S399.485,168.555,399.485,168.555z"/>
				<path style="fill:#3B212E;" d="M433.665,153.831c0,0-5.486-15.312,7.146-12.505c16.078,3.573,2.975,10.725,7.344,12.505
					c5.359,2.184,6.55-3.771,6.55-3.771s1.985,5.359-3.176,6.749c0,0,3.97-0.397,4.962-3.573c0,0,1.389,6.947-4.367,8.734
					c0,0,1.588,0.199,4.168-2.382c0,0-3.771,9.131-13.299,2.977C435.686,157.845,433.665,153.831,433.665,153.831z"/>
				<path style="fill:#C07979;" d="M426.718,154.626c0,3.289,2.755,5.955,6.153,5.955c3.398,0,6.153-2.666,6.153-5.955
					s-2.755-5.955-6.153-5.955C429.473,148.671,426.718,151.337,426.718,154.626z"/>
				<g>
					<path style="fill:#FFC1AC;" d="M433.165,206.533l0.628-21.713l-16.51,8.969l0.48,14.104l-13.212,5.023
						c0,0-5.861,18.518,16.448,17.192c22.31-1.326,26.282-21.038,26.282-21.038L433.165,206.533z"/>
					<path style="opacity:0.5;fill:#DD9F9E;" d="M433.344,200.217l0.487-16.94l-16.51,8.969l0.336,14.014
						C423.098,205.287,427.773,203.753,433.344,200.217z"/>
				</g>
				<path style="fill:#FFC1AC;" d="M400.488,175.176c1.573-19.885,20.62-19.352,29.596-13.796
					c-0.217,10.752,3.22,16.602,6.308,26.613C420.864,214.656,398.009,206.523,400.488,175.176z"/>
				<path style="fill:#D8AE91;" d="M427.11,152.43c0,0-2.612,7.977-9.852,13.222c-7.24,5.244-18.677,1.088-18.677,1.088
					S401.86,142.18,427.11,152.43z"/>
				<path style="fill:#3B212E;" d="M446.454,166.874c-1.704-12.201-18.046-22.958-24.371-10.734c-5.448,10.53,6,18.033,8.817,19.851
					c0.403,2.306,2.516,8.617,2.103,12.24c-0.204,1.786-0.005,3.006,0.474,3.728C433.505,194.24,448.75,183.314,446.454,166.874z"/>
				<path style="fill:#FFC1AC;" d="M434.855,176.067c0,0,4.024-1.235,3.897,4.087c-0.127,5.323-4.153,5.294-4.153,5.294
					L434.855,176.067z"/>
				<path style="fill:#3B212E;" d="M423.353,159.389c0,0-4.624,13.358-15.669,13.872l1.798-2.312c0,0-4.881,1.541-13.871,0
					c0,0,0.771-22.862,18.238-22.348c15.671,0.461,16.954,7.193,16.954,7.193L423.353,159.389z"/>
				<path style="fill:#3B212E;" d="M431.485,171.93c0,0-3.625,20.375,5.25,27.5c0,0-3-15.5-1.625-24.25
					S431.485,171.93,431.485,171.93z"/>
			</g>
			<g>
				<g>
					<path style="fill:#3B212E;" d="M414.68,175.514c0,0,0.358-0.676,1.22-1.399c0.433-0.353,0.979-0.735,1.645-1.016
						c0.656-0.297,1.44-0.48,2.246-0.495c0.405,0.013,0.811,0.02,1.201,0.138c0.398,0.067,0.759,0.232,1.098,0.403
						c0.355,0.139,0.62,0.402,0.889,0.604c0.282,0.19,0.468,0.452,0.648,0.677c0.176,0.228,0.352,0.418,0.441,0.637
						c0.107,0.204,0.186,0.389,0.251,0.538c0.127,0.301,0.183,0.474,0.183,0.474s-0.168-0.099-0.431-0.276
						c-0.13-0.09-0.289-0.194-0.454-0.323c-0.157-0.139-0.392-0.224-0.597-0.362c-0.218-0.123-0.435-0.275-0.695-0.368
						c-0.256-0.098-0.5-0.243-0.784-0.296c-0.273-0.082-0.549-0.165-0.845-0.188c-0.286-0.062-0.588-0.057-0.888-0.062
						c-0.3-0.011-0.607,0.041-0.91,0.063c-0.302,0.063-0.608,0.089-0.9,0.174c-0.597,0.117-1.147,0.322-1.642,0.47
						C415.35,175.271,414.68,175.514,414.68,175.514z"/>
				</g>
				<g>
					<path style="fill:#3B212E;" d="M400.558,176.825c0,0,0.231-0.659,0.92-1.41c0.344-0.374,0.795-0.775,1.371-1.102
						c0.563-0.341,1.276-0.574,2.027-0.638c0.381-0.008,0.762-0.016,1.131,0.092c0.378,0.053,0.71,0.225,1.024,0.385
						c0.333,0.132,0.55,0.406,0.796,0.593c0.255,0.183,0.391,0.449,0.55,0.655c0.329,0.408,0.445,0.835,0.551,1.108
						c0.096,0.28,0.133,0.442,0.133,0.442s-0.153-0.092-0.39-0.255c-0.117-0.083-0.26-0.179-0.407-0.298
						c-0.141-0.127-0.341-0.218-0.527-0.339c-0.199-0.104-0.378-0.266-0.608-0.345c-0.228-0.077-0.432-0.232-0.679-0.268
						c-0.237-0.062-0.468-0.147-0.719-0.153c-0.242-0.049-0.496-0.032-0.75-0.023c-1.018,0.064-2.119,0.511-2.963,0.882
						C401.143,176.555,400.558,176.825,400.558,176.825z"/>
				</g>
				<g>
					<path style="fill:#C99991;" d="M410.61,178.805c-0.113,1.522-0.365,3.012-0.656,4.492c-0.296,1.479-0.638,2.947-1.047,4.4
						l-0.123-0.374c1.009,0.94,2,1.902,2.904,2.964c-1.194-0.722-2.303-1.544-3.394-2.388l-0.169-0.131l0.046-0.243
						c0.281-1.483,0.63-2.949,1.023-4.406C409.595,181.664,410.033,180.218,410.61,178.805z"/>
				</g>
				<g>
					<path style="fill:#001627;" d="M408.77,180.378c0,0-0.004,0.165-0.029,0.448c-0.018,0.141-0.015,0.311-0.094,0.507
						c-0.068,0.19-0.124,0.443-0.253,0.662c-0.133,0.214-0.241,0.489-0.448,0.701c-0.188,0.23-0.392,0.478-0.662,0.67
						c-0.246,0.22-0.549,0.389-0.858,0.557c-0.332,0.125-0.664,0.27-1.038,0.321c-0.181,0.038-0.368,0.052-0.563,0.038
						c-0.192-0.009-0.379,0.002-0.573-0.059c-0.387-0.06-0.749-0.272-1.046-0.51c-0.134-0.141-0.271-0.277-0.379-0.423
						c-0.073-0.163-0.145-0.322-0.215-0.478c-0.118-0.308-0.116-0.616-0.136-0.878c0.026-0.262,0.065-0.496,0.101-0.697
						c0.047-0.199,0.129-0.361,0.18-0.496c0.112-0.267,0.186-0.409,0.186-0.409s0.026,0.169,0.054,0.445
						c0.016,0.138,0.021,0.304,0.046,0.486c0.044,0.182,0.092,0.38,0.128,0.59c0.088,0.19,0.152,0.407,0.268,0.581
						c0.061,0.081,0.124,0.165,0.188,0.25c0.089,0.056,0.164,0.119,0.24,0.185c0.178,0.102,0.374,0.166,0.603,0.199
						c0.104,0.038,0.233,0.017,0.353,0.018c0.12,0.008,0.245-0.009,0.372-0.042c0.256-0.016,0.508-0.12,0.761-0.196
						c0.234-0.13,0.499-0.197,0.711-0.354c0.229-0.128,0.436-0.276,0.631-0.428c0.208-0.139,0.35-0.324,0.525-0.466
						c0.162-0.152,0.267-0.31,0.398-0.446c0.128-0.131,0.215-0.288,0.292-0.404C408.67,180.51,408.77,180.378,408.77,180.378z"/>
				</g>
				<g>
					<path style="fill:#001627;" d="M421.841,180.69c0,0-0.004,0.165-0.029,0.448c-0.018,0.141-0.015,0.311-0.094,0.507
						c-0.068,0.191-0.124,0.443-0.253,0.662c-0.133,0.214-0.241,0.489-0.448,0.701c-0.188,0.23-0.392,0.478-0.662,0.669
						c-0.246,0.22-0.549,0.39-0.858,0.557c-0.332,0.125-0.664,0.27-1.038,0.321c-0.181,0.038-0.368,0.052-0.563,0.038
						c-0.192-0.009-0.379,0.002-0.573-0.059c-0.386-0.06-0.749-0.272-1.046-0.51c-0.134-0.141-0.271-0.277-0.379-0.423
						c-0.073-0.163-0.145-0.322-0.215-0.478c-0.118-0.308-0.116-0.616-0.136-0.878c0.026-0.262,0.065-0.496,0.101-0.697
						c0.047-0.199,0.129-0.361,0.18-0.496c0.112-0.267,0.186-0.409,0.186-0.409s0.026,0.169,0.054,0.445
						c0.016,0.138,0.021,0.304,0.046,0.486c0.044,0.182,0.092,0.38,0.128,0.59c0.088,0.19,0.152,0.407,0.268,0.581
						c0.061,0.081,0.124,0.165,0.188,0.25c0.089,0.057,0.164,0.12,0.24,0.185c0.178,0.102,0.374,0.166,0.603,0.199
						c0.104,0.038,0.233,0.017,0.353,0.018c0.12,0.008,0.245-0.009,0.372-0.042c0.256-0.016,0.508-0.12,0.761-0.196
						c0.234-0.13,0.499-0.197,0.711-0.354c0.229-0.128,0.436-0.276,0.631-0.428c0.208-0.139,0.35-0.324,0.525-0.466
						c0.162-0.152,0.267-0.31,0.398-0.446c0.128-0.131,0.215-0.288,0.293-0.404C421.74,180.822,421.841,180.69,421.841,180.69z"/>
				</g>
				<g>
					<path style="fill:#D38D8D;" d="M407.74,193.517c0,0,2.121,4.655,6.953,3.746c4.832-0.909,5.93-5.845,5.93-5.845L407.74,193.517
						z"/>
					<path style="opacity:0.6;fill:#6D3B3B;" d="M419.193,193.18c0.251,0,0.489,0.019,0.729,0.036
						c0.519-1.005,0.701-1.798,0.701-1.798l-12.884,2.099c0,0,1.282,2.788,4.107,3.623
						C413.233,194.837,415.677,193.18,419.193,193.18z"/>
				</g>
			</g>
		</g>
		<g>
			<ellipse style="opacity:0.15;fill:#001627;" cx="420.693" cy="441.555" rx="48" ry="7.5"/>
			<g>
				<g>
					<path style="fill:#FFC1AC;" d="M442.101,422.676c2.162,4.355,3.909,7.734,5.153,9.77c-2.806,2.877-10.503,10.917-10.504,12.534
						c-0.002,1.978,18.119-5.748,19.796-9.356c0.564-1.214-0.753-7.522-2.749-15.357
						C450.114,421.654,446.181,422.49,442.101,422.676z"/>
					<g>
						<path style="fill:#00344E;" d="M456.513,433.05l1.121,2.54c0,0-20.531,15.58-22.267,12.389
							c-1.736-3.19,9.334-12.986,9.334-12.986S440.903,442.528,456.513,433.05z"/>
						<g>
							<path style="fill:#FFFFFF;" d="M457.192,434.589l0.442,1.001c0,0-20.531,15.58-22.267,12.389
								c-0.179-0.328-0.215-0.73-0.149-1.181C436.942,449.655,454.797,436.387,457.192,434.589z"/>
						</g>
					</g>
				</g>
				<g>
					<path style="fill:#FFC1AC;" d="M410.36,424.055c-3.988,0-7.851-0.624-11.498-1.779c0.289,4.934,0.554,8.813,0.747,11.465
						c-3.818,1.292-14.359,4.968-15.102,6.407c-0.909,1.759,18.77,3.077,21.919,0.623c1.14-0.889,3.046-8.016,5.014-16.745
						C411.08,424.037,410.722,424.055,410.36,424.055z"/>
					<g>
						<path style="fill:#00344E;" d="M407.577,438.465l-0.167,2.767c0,0-25.427,4.584-25.51,0.96
							c-0.082-3.625,14.267-7.339,14.267-7.339S389.331,439.843,407.577,438.465z"/>
						<g>
							<path style="fill:#FFFFFF;" d="M407.476,440.142l-0.066,1.091c0,0-25.427,4.584-25.51,0.96
								c-0.008-0.373,0.143-0.747,0.409-1.118C382.534,444.396,404.519,440.66,407.476,440.142z"/>
						</g>
					</g>
				</g>
				<g>
					<path style="fill:#FFDD7D;" d="M448.913,272.616c0,0,13.974,16.988,11.447,43.106c-2.527,26.117-12.5,40.069-14.333,54.333
						c0,0,12.577,54.888,10.333,56.625c-3.875,3-8.625,4.167-11.625,3.5c-1.254-0.279-25.973-64.839-26.375-68.792
						c-0.165-1.624-6.601,69.714-8.375,70.542c-3.75,1.75-7.25,1.875-11.75-0.75c0,0-9.462-94.661-8.189-116.391
						c1.272-21.73,15.68-46.167,15.68-46.167L448.913,272.616z"/>
					<path style="opacity:0.1;fill:#00344E;" d="M421.693,357.722v-58.667c18.755-1.223,30.268-4.938,36.391-7.641
						c-3.459-11.841-9.171-18.798-9.171-18.798l-43.188-3.994c0,0-14.407,24.436-15.68,46.167
						c-1.272,21.73,8.189,116.391,8.189,116.391c4.5,2.625,8,2.5,11.75,0.75c1.774-0.828,8.21-72.166,8.375-70.542
						c0.105,1.034,2.871,0.174,6.924-2.106L421.693,357.722z"/>
				</g>
			</g>
		</g>
		<g>
			<g>
				<g>
					<path style="fill:#FFC1AC;" d="M388.617,278.923c8.621-2.183,18.323-27.58,18.375-38.221l-14.874-5.103l-5.308,17.195
						C386.81,252.793,378.529,281.478,388.617,278.923z"/>
					<path style="opacity:0.5;fill:#DD9F9E;" d="M405.409,250.474c0.989-3.761,1.57-7.2,1.582-9.772l-14.874-5.103l-2.567,8.317
						C394.692,246.476,399.989,248.682,405.409,250.474z"/>
				</g>
				<g>
					<path style="fill:#FFDD7D;" d="M376.372,248.953l-3.558,25.636c-0.056,0.404,0.226,0.778,0.631,0.834l1.099,0.152
						c0.404,0.056,0.778-0.226,0.834-0.631l3.558-25.636L376.372,248.953z"/>
					<g>
						<path style="fill:#00344E;" d="M378.607,252.133l1.616-11.648c0.059-0.424-0.237-0.816-0.661-0.875l-1.152-0.16
							c-0.424-0.059-0.816,0.237-0.875,0.661l-1.616,11.648L378.607,252.133z"/>
						<path style="fill:#00344E;" d="M379.424,255.639c-0.039,0.283-0.3,0.48-0.583,0.441l0,0c-0.283-0.039-0.48-0.3-0.441-0.583
							l1.883-13.568c0.039-0.283,0.3-0.48,0.583-0.441l0,0c0.283,0.039,0.48,0.3,0.441,0.583L379.424,255.639z"/>
						
							<rect x="374.591" y="246.479" transform="matrix(0.1374 -0.9905 0.9905 0.1374 82.5157 588.7821)" style="fill:#00344E;" width="9.458" height="1.067"/>
					</g>
				</g>
			</g>
			<g>
				<g>
					<path style="fill:#83B8B9;" d="M448.807,246.504c-0.133-0.443-0.266-0.875-0.398-1.296c0,0,6.534-28.374,6.57-31.669
						c0.043-3.917-17.997-6.744-17.997-6.744s2.695,12.822-16.304,13.724c-7.464,0.355-11.589-4.479-10.41-10.101
						c-3.835,1.558-10.629,4.082-13.658,8.554c-5.71,8.432-10,17.917-10,17.917s3.478,2.95,11.976,5.907
						c0,0-2.367,9.43,7.631,13.647c0,0-2.746,12.481-6.693,24.016c0,0,19.165,17.594,58.584,7.212
						C458.107,287.67,453.254,261.301,448.807,246.504z"/>
				</g>
				<g style="opacity:0.1;">
					<path style="fill:#111102;" d="M448.807,246.504c-0.133-0.443-0.266-0.875-0.398-1.296c0,0,0.881-3.263,2.003-7.699
						c-7.194,8.826-16.2,15.936-27.018,20.27c-5.996,2.402-12.236,3.797-18.593,4.578c-1.184,4.702-3.037,11.552-5.278,18.101
						c0,0,19.165,17.594,58.584,7.212C458.107,287.67,453.254,261.301,448.807,246.504z"/>
				</g>
			</g>
			<g>
				<path style="fill:#00344E;" d="M439.88,207.148c0,0-6.401,27.721-6.148,64.534c0.253,36.813,2.018,91.403,2.018,91.403
					s-28.728,2.449-54.778-4.027c0,0,15.754-129.941,24.94-147.422l2.628-0.878L404.693,231l27.001-0.957l4.18-23.578
					L439.88,207.148z"/>
				<path style="fill:#012A3A;" d="M406.609,330.324c10.837-6.97,20.099-16.135,27.59-26.559
					c0.606,30.101,1.551,59.321,1.551,59.321s-28.728,2.449-54.778-4.027c0,0,0.882-7.272,2.349-18.603
					C391.475,337.99,399.517,334.885,406.609,330.324z"/>
				<path style="fill:#00344E;" d="M430.463,276.089c0,0,21.63-2.026,24.506-2.549l0.539,2.725c0,0-18.664,3.848-26.556,3.124
					C421.061,278.665,430.463,276.089,430.463,276.089z"/>
				<path style="fill:#00344E;" d="M454.033,275.236c10.767-3.545,18.994-15.674,12.312-16.791
					C459.663,257.328,454.033,275.236,454.033,275.236z M455.945,273.098c0,0,3.605-11.468,7.884-10.752
					C468.108,263.06,462.839,270.828,455.945,273.098z"/>
				<path style="fill:#00344E;" d="M453.779,275.7c9.17,2.567,20.682-2.007,16.577-5.901
					C466.252,265.906,453.779,275.7,453.779,275.7z M456.129,275.109c0,0,7.987-6.272,10.615-3.779
					C469.374,273.824,462.001,276.753,456.129,275.109z"/>
				<path style="fill:#00344E;" d="M454.033,275.236c0,0,6.421,46.628,8.28,47.212c1.859,0.583,3.348-0.494,3.348-0.494
					s-8.681-31.436-9.792-47.656L454.033,275.236z"/>
				<path style="fill:#00344E;" d="M454.127,274.97c0,0,13.992,38.553,15.775,38.724c1.783,0.171,2.941-1.007,2.941-1.007
					s-13.369-25.23-17.22-38.837L454.127,274.97z"/>
			</g>
			<g>
				<g>
					<polygon style="fill:#FFF3D2;" points="409.301,288.561 385.254,263.38 368.423,267.809 393.465,294.18 					"/>
					<polygon style="fill:#FFF3D2;" points="408.567,289.095 384.52,263.914 367.69,268.343 392.731,294.713 					"/>
					<polygon style="opacity:0.1;fill:#001627;" points="408.567,289.095 384.52,263.914 367.69,268.343 392.731,294.713 					"/>
					<polygon style="fill:#FFF3D2;" points="407.559,289.715 383.513,264.534 366.682,268.963 391.724,295.333 					"/>
					<polygon style="opacity:0.2;fill:#001627;" points="407.559,289.715 383.513,264.534 366.682,268.963 391.724,295.333 					"/>
					<polygon style="fill:#FFF3D2;" points="404.35,292.29 383.513,264.534 366.425,268.743 387.523,297.943 					"/>
					<polygon style="opacity:0.3;fill:#001627;" points="404.35,292.29 383.513,264.534 366.425,268.743 387.523,297.943 					"/>
					<g>
						<path style="fill:#8B95B5;" d="M369.511,266.881c-0.027-0.302,0.055-0.749,0.596-1.165c0.579-0.446,1.078-0.434,1.394-0.347
							c0.751,0.207,1.172,1,1.302,1.284l-0.852,0.221c-0.134-0.245-0.38-0.592-0.678-0.674c-0.07-0.019-0.285-0.075-0.641,0.199
							c-0.281,0.216-0.268,0.359-0.264,0.406c0.03,0.341,0.632,0.807,1.03,1.015c0.21,0.11,0.292,0.37,0.182,0.581
							c-0.055,0.105-0.147,0.178-0.251,0.211c-0.105,0.033-0.223,0.027-0.328-0.028
							C370.858,268.509,369.595,267.827,369.511,266.881z"/>
						<path style="fill:#8B95B5;" d="M367.937,267.28c-0.027-0.302,0.055-0.749,0.596-1.165c0.579-0.446,1.078-0.434,1.394-0.347
							c0.751,0.207,1.172,1,1.302,1.284l-0.852,0.221c-0.134-0.245-0.38-0.592-0.678-0.674c-0.07-0.019-0.285-0.075-0.641,0.199
							c-0.281,0.216-0.268,0.359-0.264,0.406c0.03,0.341,0.632,0.807,1.03,1.015c0.21,0.11,0.292,0.37,0.182,0.581
							c-0.055,0.105-0.147,0.178-0.251,0.211c-0.105,0.033-0.223,0.027-0.328-0.028C369.284,268.908,368.021,268.226,367.937,267.28
							z"/>
						<path style="fill:#8B95B5;" d="M379.789,264.159c-0.027-0.302,0.055-0.749,0.596-1.165c0.579-0.446,1.078-0.434,1.394-0.347
							c0.751,0.207,1.172,0.999,1.302,1.283l-0.852,0.221c-0.134-0.245-0.38-0.592-0.678-0.674c-0.07-0.019-0.285-0.074-0.641,0.199
							c-0.281,0.216-0.268,0.359-0.264,0.406c0.03,0.341,0.632,0.807,1.031,1.015c0.21,0.11,0.292,0.37,0.182,0.581
							c-0.055,0.105-0.147,0.178-0.251,0.211c-0.105,0.033-0.223,0.026-0.328-0.028
							C381.136,265.787,379.873,265.105,379.789,264.159z"/>
						<path style="fill:#8B95B5;" d="M377.204,264.844c-0.027-0.302,0.055-0.749,0.596-1.165c0.579-0.446,1.078-0.434,1.394-0.347
							c0.751,0.207,1.172,0.999,1.302,1.283l-0.852,0.221c-0.134-0.245-0.38-0.592-0.678-0.674c-0.07-0.019-0.285-0.074-0.641,0.199
							c-0.281,0.216-0.268,0.359-0.264,0.406c0.03,0.341,0.632,0.807,1.03,1.015c0.21,0.11,0.292,0.37,0.182,0.581
							c-0.055,0.105-0.147,0.178-0.251,0.211c-0.105,0.033-0.223,0.026-0.328-0.028C378.551,266.472,377.288,265.79,377.204,264.844
							z"/>
						<path style="fill:#8B95B5;" d="M375.266,265.358c-0.027-0.302,0.055-0.749,0.596-1.165c0.579-0.446,1.078-0.434,1.394-0.347
							c0.751,0.207,1.172,1,1.302,1.284l-0.852,0.221c-0.134-0.245-0.38-0.592-0.678-0.674c-0.07-0.019-0.285-0.074-0.641,0.199
							c-0.281,0.216-0.268,0.359-0.264,0.406c0.03,0.341,0.632,0.807,1.03,1.015c0.21,0.11,0.292,0.37,0.182,0.581
							c-0.055,0.105-0.147,0.178-0.251,0.211c-0.105,0.033-0.223,0.026-0.328-0.028C376.613,266.986,375.35,266.304,375.266,265.358
							z"/>
						<path style="fill:#8B95B5;" d="M373.288,265.852c-0.027-0.302,0.055-0.749,0.596-1.165c0.579-0.446,1.078-0.434,1.394-0.347
							c0.751,0.207,1.172,1,1.302,1.283l-0.852,0.221c-0.134-0.245-0.38-0.592-0.678-0.674c-0.07-0.019-0.285-0.074-0.641,0.199
							c-0.281,0.216-0.268,0.359-0.264,0.406c0.03,0.341,0.632,0.807,1.03,1.015c0.21,0.11,0.292,0.37,0.182,0.581
							c-0.055,0.105-0.147,0.178-0.251,0.211c-0.105,0.033-0.223,0.026-0.328-0.028
							C374.635,267.479,373.371,266.798,373.288,265.852z"/>
						<path style="fill:#8B95B5;" d="M371.541,266.338c-0.027-0.302,0.055-0.749,0.596-1.165c0.579-0.446,1.078-0.434,1.394-0.347
							c0.751,0.207,1.172,1,1.302,1.283l-0.852,0.221c-0.134-0.245-0.38-0.592-0.678-0.674c-0.07-0.019-0.286-0.074-0.642,0.199
							c-0.281,0.216-0.268,0.359-0.264,0.406c0.03,0.341,0.632,0.807,1.03,1.015c0.21,0.11,0.292,0.37,0.182,0.581
							c-0.055,0.105-0.147,0.178-0.251,0.211c-0.105,0.033-0.223,0.027-0.328-0.028
							C372.888,267.966,371.624,267.284,371.541,266.338z"/>
					</g>
				</g>
				<g>
					<path style="fill:#FFC1AC;" d="M452.285,211.026c0,0,8.908,6.623,6.772,19.195c-1.537,9.048-6.661,37.038-9.523,41.56
						c-2.862,4.522-42.893,13.615-45.115,14.696c-2.399,1.167-13.177,7.183-3.268-0.919c0,0-13.481,7.099-2.498-1.131
						c0,0-11.746,4.922,0.603-2.816c0,0-12.436,4.982-0.797-1.855l3.57-2.133c0,0-13.233-3.299,2.349-2.239
						c0,0,20.394-8.833,30.225-12.679C438.708,261.098,438.604,216.896,452.285,211.026z"/>
					<path style="opacity:0.5;fill:#DD9F9E;" d="M455.382,250.281c2.033-9.515,1.576-15.111,2.332-19.559
						c2.136-12.572-5.429-19.696-5.429-19.696c-8.577,3.68-12.095,21.859-14.313,35.662
						C443.718,248.328,449.52,249.455,455.382,250.281z"/>
					<path style="fill:#83B8B9;" d="M436.361,243.543c-0.049,0.456,13.282,3.128,21.289,1.024c0,0,8.347-31.755-8.757-34.759
						C448.893,209.808,438.725,221.413,436.361,243.543z"/>
				</g>
			</g>
		</g>
	</g>
	<g>
		<g>
			<ellipse style="opacity:0.15;fill:#001627;" cx="194.86" cy="442.971" rx="164.5" ry="12.084"/>
		</g>
		<g>
			<g>
				<polygon style="fill:#677584;" points="309.905,356.799 317.133,434.956 311.467,435.281 304.437,357.853 				"/>
				<polygon style="fill:#677584;" points="275.068,357.184 270.175,433.415 264.13,433.156 269.511,357.317 				"/>
				<polygon style="fill:#7A8696;" points="336.82,367.785 344.048,440.224 338.382,440.525 331.352,368.761 				"/>
				<polygon style="fill:#7A8696;" points="301.983,368.17 297.359,441.872 292.171,441.91 296.43,368.281 				"/>
				<path style="fill:#677584;" d="M332.84,383.952l-1.488-15.191l5.468-0.976l1.448,14.516
					C336.477,382.904,334.666,383.449,332.84,383.952z"/>
				<path style="fill:#677584;" d="M295.148,389.938l1.281-21.657l5.553-0.111l-1.329,21.182
					C298.812,389.55,296.976,389.744,295.148,389.938z"/>
				<path style="fill:#BB969D;" d="M318.416,276.005c0,0,24.898,3.417,26.85,10.252c1.953,6.835,4.882,76.158,1.953,82.016
					c-2.929,5.858-55.97,8.926-60.297,7.685c-8.733-2.507-25.267-17.028-25.267-17.028L318.416,276.005z"/>
				<path style="fill:#A87984;" d="M310.937,273.808c0,0,24.268,3.342,26.171,10.027c1.903,6.685,4.758,74.488,1.903,80.218
					c-2.855,5.73-54.554,8.731-58.77,7.516c-8.512-2.452-24.628-16.655-24.628-16.655L310.937,273.808z"/>
			</g>
			<g>
				<g>
					<g>
						<g>
							<path style="fill:#F2D0AE;" d="M241.078,377.463c0,0-16.635,62.379-23.112,58.525c-6.477-3.854,6.727-69.266,6.727-69.266
								L241.078,377.463z"/>
							<path style="fill:#F2D0AE;" d="M229.946,414.031l-6.514,21.708c-6-0.802-35.308-4.415-7.334-9.135L229.946,414.031z"/>
							<path style="fill:#35344C;" d="M224.19,433.788l-1.251,3.221c0,0-26.958-0.386-25.618-4.674
								c1.34-4.288,16.996-5.396,16.996-5.396S205.595,431.259,224.19,433.788z"/>
							<g>
								<path style="fill:#FFFFFF;" d="M223.843,435.848l-0.512,1.318c0,0-27.976-0.401-26.585-4.851
									c0.143-0.458,0.451-0.879,0.875-1.27C196.5,435.159,220.596,435.783,223.843,435.848z"/>
							</g>
						</g>
					</g>
					<path style="fill:#8B95B5;" d="M277.844,313.524l-2.603,9.826c0,0-36.872,5.807-47.283,15.186
						c-10.411,9.38-15.932,81.184-15.932,81.184s5.833,6.667,18.667,3.333l14.667-61.333l49.836-19.611l1.301-31.266
						L277.844,313.524z"/>
					<path style="opacity:0.1;fill:#101C2B;" d="M277.844,313.524l-2.603,9.826c0,0-36.872,5.807-47.283,15.186
						c-10.411,9.38-15.932,81.184-15.932,81.184s5.833,6.667,18.667,3.333l14.667-61.333l49.836-19.611l1.301-31.266
						L277.844,313.524z"/>
					<path style="fill:#A7B1C9;" d="M209.751,421.113c0,0,9.708,8.179,21.586,4.446l1.323-5.926c0,0-10.217,1.669-21.306-3.976
						L209.751,421.113z"/>
				</g>
				<g>
					<g>
						<g>
							<path style="fill:#F2D0AE;" d="M266.928,378.106c0,0,7.091,64.168-0.342,62.923c-7.434-1.246-23.035-59.757-23.035-59.757
								L266.928,378.106z"/>
							<path style="fill:#F2D0AE;" d="M269.799,416.224l1.792,22.593c-5.883,1.426-34.509,8.674-10.145-5.858L269.799,416.224z"/>
							<path style="fill:#35344C;" d="M271.59,436.723l0.001,3.456c0,0-25.267,9.405-25.571,4.923
								c-0.304-4.482,13.887-11.186,13.887-11.186S253.342,441.102,271.59,436.723z"/>
							<g>
								<path style="fill:#FFFFFF;" d="M272.013,438.77l0.001,1.414c0,0-26.222,9.76-26.537,5.109
									c-0.032-0.479,0.102-0.983,0.356-1.501C246.277,448.032,268.963,439.885,272.013,438.77z"/>
							</g>
						</g>
						<g>
							<path style="fill:#8B95B5;" d="M322.958,313.078c0,0,9.11,34.839-0.867,46.006c-9.977,11.166-56.392,6.253-56.392,6.253
								s7.493,39.958,9.661,58.718c0,0-6.018,7.127-20.333,4c0,0-30.082-76.953-15.333-86.333
								c9.903-6.298,46.393-17.478,46.393-17.478l-1.735-17.42L322.958,313.078z"/>
							<path style="fill:#A7B1C9;" d="M253.193,429.555c0,0,13.5,3.5,23.5-5.833l-1.5-6.5c0,0-9.333,6.5-23,6.167L253.193,429.555z"
								/>
						</g>
					</g>
					<path style="opacity:0.1;fill:#101C2B;" d="M319.054,323.091c1.951,0.1,3.996,0.279,6.058,0.382
						c-1.027-6.076-2.154-10.396-2.154-10.396l-38.607-6.253l1.234,12.384C296.676,321.036,307.818,322.516,319.054,323.091z"/>
				</g>
			</g>
		</g>
		<g>
			<g>
				<g>
					<path style="fill:#DDB192;" d="M102.193,236.706l-4.028,17.331c0,0,4.628,7.059,17.077,6.571l6.18-15.243L102.193,236.706z"/>
					<path style="fill:#FFD2AF;" d="M107.314,210.947c-11.254,3.956-9.774,10.687-9.774,10.687s1.263,5.178,2.567,11.376
						c-1.293-1.098-2.808-1.42-4.561-0.468c-3.716,2.018,1.19,14.322,6.504,10.432c-0.961-0.54-0.573,2.901-0.143,3.732
						c2.233,4.313,12.137,9.064,18.855,8.814c6.718-0.251,13.419-7.977,12.284-14.568c-1.136-6.591-4.185-25.5-4.185-25.5
						S125.95,204.395,107.314,210.947z"/>
					<path style="fill:#FFA95D;" d="M100.512,233.361l1.633,5.523c0,0,2.33,0.216,2.031-0.147
						c-0.299-0.363-2.001-14.216-2.001-14.216s4.182-2.354,3.674-9.241c0,0,7.621,3.68,14.749,2.523c0,0,11.046-7.082,5.966-9.535
						c0,0-18.037-12.029-28.771,2.98c0,0-5.385,1.804-5.225,6.661c0.218,6.651,3.417,14.101,3.417,14.101
						S99.326,232.036,100.512,233.361z"/>
					<path style="fill:#FFA95D;" d="M103.728,213.751c0,0,6.406,6.528,23.18,4.645l-2.231-1.415c0,0,6.957,1.456,12.498-6.362
						l-4.407,1.458c0,0,5.697-4.166,2.757-13.246c0,0-0.333,4.179-7.847,4.64c0,0,2.756-1.258,2.123-4.132
						c0,0-3.148,4.052-6.823,1.692c-3.675-2.36-11.512-4.773-17.954-1.85c-8.679,3.939-10.734,9.594-9.67,13.585
						c1.063,3.99,8.273,1.619,8.273,1.619"/>
				</g>
				<g>
					<g>
						<path style="fill:#D8B084;" d="M122.306,225.546c0.688,0.953,1.294,1.944,1.874,2.945c0.577,1.004,1.12,2.022,1.633,3.055
							c0.251,0.52,0.477,1.052,0.716,1.577c0.243,0.524,0.46,1.059,0.681,1.594c0.221,0.534,0.446,1.066,0.644,1.609
							c0.202,0.542,0.418,1.077,0.6,1.627l0.149,0.449l-0.285,0.2c-0.35,0.246-0.679,0.524-1.051,0.712
							c-0.361,0.211-0.739,0.375-1.112,0.541c-0.765,0.288-1.54,0.528-2.343,0.626c0.692-0.414,1.364-0.821,1.994-1.272
							c0.313-0.226,0.626-0.446,0.905-0.7c0.302-0.229,0.546-0.503,0.81-0.752l-0.136,0.648c-0.274-0.508-0.514-1.031-0.768-1.547
							c-0.258-0.515-0.489-1.041-0.724-1.565c-0.236-0.524-0.474-1.047-0.688-1.581c-0.216-0.533-0.446-1.059-0.652-1.597
							c-0.436-1.067-0.861-2.14-1.242-3.232C122.933,227.793,122.579,226.688,122.306,225.546z"/>
					</g>
					<g>
						<path style="fill:#D8B084;" d="M99.199,241.809c-0.386-0.48-0.683-1.057-0.703-1.775c0.007-0.178,0.025-0.368,0.099-0.553
							c0.03-0.095,0.067-0.187,0.126-0.272c0.056-0.085,0.103-0.182,0.178-0.25c0.137-0.16,0.302-0.274,0.474-0.368
							c0.171-0.104,0.344-0.146,0.522-0.218l-0.423,0.582c-0.17-0.796-0.383-1.617-0.637-2.384
							c-0.245-0.767-0.563-1.519-0.986-2.032c-0.102-0.128-0.216-0.23-0.33-0.306l-0.175-0.103c-0.064-0.01-0.126-0.021-0.19-0.045
							c-0.015-0.037-0.457-0.037-0.492-0.013c-0.114,0.004-0.262,0.054-0.364,0.122c-0.234,0.124-0.382,0.472-0.448,0.864
							c-0.061,0.394-0.066,0.828-0.027,1.267c-0.236-0.375-0.421-0.794-0.494-1.261c-0.041-0.232-0.051-0.484-0.007-0.743
							c0.054-0.257,0.159-0.538,0.365-0.762c0.098-0.119,0.212-0.219,0.343-0.288c0.123-0.087,0.265-0.142,0.415-0.187l0.222-0.065
							l0.16-0.027l0.16-0.027c0.05-0.004,0.001-0.01,0.132-0.012l0.111,0.006c0.149,0.007,0.299,0.029,0.448,0.051
							c0.138,0.048,0.276,0.104,0.412,0.163c0.258,0.126,0.491,0.301,0.679,0.483c0.393,0.373,0.633,0.8,0.854,1.224
							c0.206,0.426,0.365,0.863,0.492,1.299c0.127,0.438,0.219,0.878,0.287,1.321c0.063,0.446,0.127,0.877,0.136,1.342l0.009,0.47
							l-0.432,0.112c-0.103,0.027-0.233,0.028-0.325,0.067c-0.103,0.029-0.19,0.073-0.269,0.124
							c-0.05,0.018-0.073,0.059-0.112,0.088c-0.041,0.028-0.072,0.068-0.098,0.113c-0.067,0.08-0.106,0.19-0.143,0.304
							C99.013,240.598,99.089,241.214,99.199,241.809z"/>
					</g>
					<g>
						<path style="fill:#DD8C50;" d="M116.358,222.526c0,0-0.18,0.024-0.496,0.067c-0.295,0.036-0.717,0.087-1.223,0.148
							c-0.472,0.062-1.022,0.135-1.611,0.212c-0.568,0.096-1.161,0.176-1.735,0.317c-0.294,0.047-0.575,0.129-0.856,0.203
							c-0.287,0.061-0.553,0.16-0.825,0.237c-0.278,0.065-0.525,0.18-0.78,0.261c-0.259,0.076-0.497,0.17-0.72,0.262
							c-0.217,0.099-0.45,0.156-0.634,0.242c-0.181,0.09-0.356,0.154-0.5,0.213c-0.291,0.112-0.479,0.17-0.479,0.17
							s0.053-0.176,0.183-0.471c0.129-0.295,0.333-0.719,0.7-1.13c0.172-0.219,0.367-0.454,0.618-0.65
							c0.245-0.202,0.501-0.436,0.81-0.6c0.303-0.176,0.618-0.369,0.968-0.485c0.342-0.145,0.702-0.252,1.069-0.327
							c1.472-0.33,2.979-0.096,3.976,0.346C115.839,221.947,116.358,222.526,116.358,222.526z"/>
					</g>
					<g>
						<path style="fill:#DD8C50;" d="M130.516,221.339c0,0-0.169-0.025-0.444-0.052c-0.271-0.033-0.647-0.07-1.062-0.102
							c-0.418-0.031-0.878-0.033-1.336-0.024c-0.23,0.018-0.46,0.02-0.688,0.058c-0.23,0.013-0.455,0.072-0.682,0.11
							c-0.229,0.035-0.446,0.126-0.678,0.163c-0.216,0.093-0.444,0.153-0.667,0.228c-0.213,0.099-0.432,0.183-0.65,0.261
							c-0.208,0.095-0.411,0.192-0.61,0.273c-0.403,0.156-0.723,0.349-0.989,0.446c-0.26,0.106-0.428,0.16-0.428,0.16
							s0.027-0.164,0.111-0.438c0.097-0.264,0.2-0.682,0.49-1.072c0.136-0.203,0.279-0.434,0.468-0.648
							c0.202-0.201,0.425-0.41,0.67-0.614c0.26-0.184,0.553-0.353,0.854-0.513c0.321-0.123,0.652-0.253,0.999-0.324
							c0.351-0.052,0.702-0.118,1.051-0.087c0.349-0.006,0.684,0.063,1,0.136c0.627,0.172,1.164,0.44,1.551,0.764
							c0.4,0.297,0.663,0.627,0.823,0.869C130.46,221.176,130.516,221.339,130.516,221.339z"/>
					</g>
					<path style="fill:#FFFFFF;" d="M115.749,245.538c0,0,6.561,5.543,12.048-1.867"/>
					<path style="fill:#001627;" d="M115.11,228.805c0.235,1.361-0.071,2.549-0.684,2.655c-0.612,0.106-1.299-0.912-1.534-2.272
						c-0.235-1.361,0.071-2.549,0.684-2.655C114.189,226.427,114.875,227.444,115.11,228.805z"/>
					<path style="fill:#001627;" d="M128.935,226.841c0.235,1.361-0.071,2.549-0.684,2.655c-0.612,0.106-1.299-0.912-1.534-2.272
						c-0.235-1.361,0.071-2.549,0.684-2.655C128.014,224.463,128.7,225.481,128.935,226.841z"/>
				</g>
			</g>
			<g>
				<polygon style="fill:#677584;" points="88.004,356.799 80.775,434.956 86.441,435.281 93.471,357.853 				"/>
				<polygon style="fill:#677584;" points="122.841,357.184 127.734,433.415 133.779,433.156 128.398,357.317 				"/>
				<polygon style="fill:#7A8696;" points="61.089,367.785 53.86,440.224 59.526,440.525 66.556,368.761 				"/>
				<polygon style="fill:#7A8696;" points="95.926,368.17 100.549,441.872 105.737,441.91 101.479,368.281 				"/>
				<path style="fill:#677584;" d="M65.068,383.952l1.488-15.191l-5.468-0.976l-1.449,14.516
					C61.431,382.904,63.243,383.449,65.068,383.952z"/>
				<path style="fill:#677584;" d="M102.76,389.938l-1.281-21.657l-5.553-0.111l1.329,21.182
					C99.097,389.55,100.933,389.744,102.76,389.938z"/>
				<path style="fill:#BB969D;" d="M79.493,276.005c0,0-24.898,3.417-26.851,10.252c-1.953,6.835-4.882,76.158-1.953,82.016
					c2.929,5.858,55.97,8.926,60.297,7.685c8.733-2.507,25.267-17.028,25.267-17.028L79.493,276.005z"/>
				<path style="fill:#A87984;" d="M86.971,273.808c0,0-24.268,3.342-26.171,10.027c-1.903,6.685-4.758,74.488-1.903,80.218
					c2.855,5.73,54.554,8.731,58.77,7.516c8.512-2.452,24.628-16.655,24.628-16.655L86.971,273.808z"/>
			</g>
			<g>
				<g>
					<path style="fill:#FFD2AF;" d="M152.611,399.786l-4.288,26.817l18.025,12.007l-32.057-4.72
						c0.922-3.017,4.115-18.466,5.961-36.07C144.371,398.478,148.491,399.134,152.611,399.786z"/>
					<path style="fill:#E56161;" d="M149.497,425.152l-3.397,1.925l-11.551-3.031l-0.864,11.677l35.327,4.962
						c0,0,0.972-1.558-0.816-4.428C165.867,432.518,149.497,425.152,149.497,425.152z"/>
					<polygon style="fill:#FFFFFF;" points="167.633,438.32 169.013,440.686 133.686,435.724 133.909,432.989 					"/>
					<polygon style="fill:#E56161;" points="151.889,426.727 151.129,420.314 144.26,422.276 145.11,429.336 					"/>
					
						<line style="fill:none;stroke:#FFFFFF;stroke-width:1.1338;stroke-linecap:round;stroke-miterlimit:10;" x1="157.929" y1="429.162" x2="155.548" y2="431.755"/>
					
						<line style="fill:none;stroke:#FFFFFF;stroke-width:1.1338;stroke-linecap:round;stroke-miterlimit:10;" x1="155.36" y1="427.726" x2="152.98" y2="430.319"/>
					
						<line style="fill:none;stroke:#FFFFFF;stroke-width:1.1338;stroke-linecap:round;stroke-miterlimit:10;" x1="152.64" y1="426.371" x2="150.26" y2="428.964"/>
				</g>
				<path style="opacity:0.1;fill:#032E3F;" d="M169.304,439.221l-0.036-0.006c-0.012-0.2-0.039-0.419-0.089-0.659
					c-0.027-0.127-0.06-0.259-0.1-0.396c-0.12-0.412-0.305-0.873-0.578-1.38c-0.091-0.169-0.192-0.343-0.304-0.523
					c-0.066-0.107-0.147-0.217-0.236-0.329c-0.028-0.035-0.06-0.072-0.09-0.108c-0.067-0.079-0.137-0.16-0.214-0.242
					c-0.038-0.041-0.077-0.082-0.118-0.124c-0.081-0.083-0.169-0.168-0.259-0.254c-0.041-0.038-0.079-0.076-0.122-0.115
					c-0.132-0.121-0.271-0.243-0.419-0.367c-0.037-0.031-0.079-0.063-0.117-0.094c-0.116-0.095-0.236-0.191-0.361-0.289
					c-0.07-0.054-0.142-0.109-0.214-0.163c-0.101-0.077-0.204-0.154-0.311-0.231c-0.081-0.059-0.163-0.119-0.247-0.179
					c-0.105-0.075-0.213-0.15-0.322-0.226c-0.088-0.061-0.174-0.122-0.265-0.184c-0.139-0.095-0.283-0.19-0.428-0.286
					c-0.162-0.107-0.328-0.215-0.496-0.323c-0.083-0.053-0.166-0.107-0.251-0.161c-0.136-0.086-0.274-0.172-0.414-0.259
					c-0.073-0.045-0.147-0.091-0.221-0.136c-0.152-0.093-0.304-0.186-0.459-0.279c-0.042-0.026-0.086-0.051-0.128-0.077
					c-0.576-0.344-1.17-0.689-1.775-1.03c-0.004-0.003-0.009-0.005-0.013-0.007v0c-3.201-1.803-6.666-3.504-8.887-4.558
					l-0.702-5.924l-1.886,0.539l3.368-21.066c-4.12-0.652-8.24-1.308-12.359-1.967c-1.084,10.337-2.632,19.926-3.912,26.697
					l-1.79-0.47l-0.717,9.687l-0.119,0.66l0.07,0.01l-0.098,1.321l24.833,3.488l10.493,1.474v0h0c0,0,0.194-0.316,0.249-0.919
					l0.002,0L169.304,439.221z"/>
				<path style="fill:#35344C;" d="M61.55,353.986c0,0-1.648,10.986,19.774,14.281c21.422,3.296,45.591,6.591,45.591,6.591
					s19.774-17.028,10.986-21.971c-8.789-4.944-20.324-8.789-20.324-8.789s24.718,7.69,25.267,10.986
					c0.549,3.296-9.887,60.421-8.789,68.112l18.676,1.648c0,0,26.366-69.759,19.774-82.393
					c-6.592-12.634-63.717-20.324-63.717-20.324L61.55,353.986z"/>
			</g>
			<g>
				<path style="fill:#F7C9A9;" d="M134.871,272.832l8.299,30.268c0,0,30.756,6.347,38.811,7.567c8.055,1.22-4.882,1.22-4.882,1.22
					s17.819,3.906,0,1.953c0,0,12.937,4.394-1.22,1.709c0,0,12.693,3.905-1.221,2.197c0,0-43.449,2.929-46.622-5.614
					c-3.173-8.543-5.126-27.339-5.126-27.339l10.008-6.591L134.871,272.832z"/>
				<path style="fill:#DDB192;" d="M139.832,290.923l-4.961-18.092l-1.953,5.37l-10.008,6.591c0,0,0.551,5.292,1.541,11.536
					C129.55,294.442,134.68,292.651,139.832,290.923z"/>
				<g>
					<path style="fill:#2F8B90;" d="M116.062,258.587l-0.819,2.02c-10.447,0.41-15.372-4.482-16.69-6.071
						c-5.978-0.276-13.986,0.772-20.037,6.822c-10.984,10.984-23.677,63.221-17.575,95.197c0,0,44.914-16.11,55.898-24.165
						s15.5-55.532,15.866-59.559C133.259,266.743,127.062,262.35,116.062,258.587z"/>
					<path style="opacity:0.2;fill:#032E3F;" d="M125.762,301.888c-8.817-0.291-18.104-1.037-26.608-3.543
						c-10.113-2.979-23.608-8.407-30.382-17.766c-7.141,21.137-12.112,53.543-7.83,75.978c0,0,44.914-16.11,55.898-24.165
						c5.378-3.944,9.204-17.337,11.753-30.454C127.647,301.932,126.703,301.919,125.762,301.888z"/>
				</g>
				<g>
					<g>
						<path style="fill:#7A8696;" d="M180.029,434.753c0,1.145-1.52,2.074-3.394,2.074l0,0c-1.874,0-3.394-0.928-3.394-2.074
							V332.312c0-1.145,1.52-2.074,3.394-2.074l0,0c1.874,0,3.394,0.928,3.394,2.074V434.753z"/>
						<path style="fill:#959FAF;" d="M146.358,440.974c0,2.291,13.555,4.148,30.277,4.148s30.277-1.857,30.277-4.148
							c0-2.291-13.555-8.295-30.277-8.295S146.358,438.683,146.358,440.974z"/>
						<path style="fill:#7A8696;" d="M176.634,442.817c-14.156,0-26.009-1.333-29.322-3.131c-0.601,0.491-0.954,0.936-0.954,1.288
							c0,2.291,13.555,4.148,30.277,4.148s30.277-1.857,30.277-4.148c0-0.351-0.354-0.796-0.954-1.288
							C202.643,441.484,190.791,442.817,176.634,442.817z"/>
						<path style="fill:#606D7C;" d="M180.029,355.226v-22.915c0-1.145-1.52-2.074-3.394-2.074c-1.874,0-3.394,0.928-3.394,2.074
							v24.438C175.505,356.246,177.768,355.74,180.029,355.226z"/>
					</g>
					<g>
						<ellipse style="fill:#A87984;" cx="176.547" cy="326.899" rx="86.964" ry="11.35"/>
						<rect x="89.583" y="320.274" style="fill:#A87984;" width="9.667" height="6.625"/>
						<polygon style="fill:#A87984;" points="263.506,320.233 253.668,320.274 253.668,326.899 263.685,326.899 						"/>
						<ellipse style="fill:#BB969D;" cx="176.547" cy="320.674" rx="86.964" ry="11.35"/>
					</g>
				</g>
				<path style="fill:#2F8B90;" d="M127.824,264.532c0,0,7.286,2.989,14.609,22.029l-13.389,4.822L127.824,264.532z"/>
				<path style="fill:#F7C9A9;" d="M177.1,311.887c0,0,12.937,0,4.882-1.22c-8.055-1.22-38.811-7.567-38.811-7.567l-0.806-2.94
					c-5.334,2.169-9.999,6.494-15.207,8.904c0.467,1.913,0,1.382,0.879,3.068c4.215,8.08,44.323,6.174,44.323,6.174
					c15.264,0.347,3.134-2.194,3.134-2.194c14.157,2.685,1.397-1.842,1.397-1.842C194.71,316.222,177.1,311.887,177.1,311.887z"/>
				<path style="fill:#FFEDC0;" d="M93.998,317.184c0,0,14.556-6.591,24.443-4.394l25.267,10.986c0,0-17.303-1.098-26.915,8.514
					L93.998,317.184z"/>
				<path style="fill:#FFEDC0;" d="M118.441,312.79c0,0,10.162-8.514,23.619-5.768l26.091,11.535c0,0-16.204-2.746-24.443,5.218
					L118.441,312.79z"/>
				<path style="opacity:0.05;fill:#00344E;" d="M118.441,312.79c0,0,10.162-8.514,23.619-5.768l26.091,11.535
					c0,0-16.204-2.746-24.443,5.218L118.441,312.79z"/>
				<g>
					<path style="fill:#F7C9A9;" d="M106.837,253.883c0,0-6.294-5.519-5.372-9.209c1.279-5.116,12.79-16.626,3.07-0.512
						c0,0,15.092-16.371,2.814,1.535c0,0,12.022-12.79,2.814,1.79c0,0,5.116,1.023,4.86,5.116
						c-0.256,4.093,14.021,59.039-3.798,63.433C101.043,318.547,97.8,312.985,106.837,253.883z"/>
					<path style="fill:#F7C9A9;" d="M82.422,288.698c0,0,11.724,33.983,30.268,26.85c3.173-1.22-1.22-13.181-1.22-13.181
						l-3.173-5.37l-9.032-17.575L82.422,288.698z"/>
					<path style="fill:#DDB192;" d="M100.587,281.996l-1.322-2.573l-16.843,9.276c0,0,0.629,1.82,1.823,4.528
						C89.984,289.904,95.526,286.285,100.587,281.996z"/>
				</g>
			</g>
			<g>
				<g>
					<path style="fill:#FFD2AF;" d="M171.096,404.406l14.264,23.109l21.492-2.678l-27.36,17.359
						c-1.272-2.887-8.942-16.672-19.04-31.21C164.002,408.796,167.55,406.602,171.096,404.406z"/>
					<path style="fill:#E56161;" d="M185.302,425.65l-1.316,3.676l-10.727,5.248l6.971,9.408l29.995-19.311
						c0,0-0.281-1.815-3.509-2.821C202.51,420.538,185.302,425.65,185.302,425.65z"/>
					<polygon style="fill:#FFFFFF;" points="209.647,423.341 210.226,424.67 180.231,443.981 178.615,441.764 					"/>
					<polygon style="fill:#E56161;" points="188.143,425.281 183.379,420.92 179.458,426.891 184.712,431.683 					"/>
					
						<line style="fill:none;stroke:#FFFFFF;stroke-width:1.1338;stroke-linecap:round;stroke-miterlimit:10;" x1="194.307" y1="423.181" x2="194.197" y2="426.698"/>
					
						<line style="fill:none;stroke:#FFFFFF;stroke-width:1.1338;stroke-linecap:round;stroke-miterlimit:10;" x1="191.424" y1="423.771" x2="191.314" y2="427.288"/>
					
						<line style="fill:none;stroke:#FFFFFF;stroke-width:1.1338;stroke-linecap:round;stroke-miterlimit:10;" x1="188.479" y1="424.521" x2="188.369" y2="428.038"/>
				</g>
				<path style="fill:#423F59;" d="M142.295,352.338c-8.789-4.944-24.718-8.239-24.718-8.239l-3.878-9.695
					c-13.318,7.731-46.433,19.86-51.968,21.867c0.781,3.401,4.332,9.649,19.593,11.997c21.422,3.296,45.591,6.591,45.591,6.591
					l41.746,54.379c0,0,9.887-5.493,14.831-10.436C183.492,418.802,151.084,357.282,142.295,352.338z"/>
			</g>
		</g>
		<g>
			<g>
				<g>
					<path style="fill:#DD9B90;" d="M276.102,271.555l-12.255,22.468c-3.307-1.907-18.952-11.152-18.952-11.152
						c-3.601-11.145-2.486-1.972-2.486-1.972l0.129,0.3c-12.56-7.973-3.472-0.086-3.472-0.086
						c-12.303-7.459-1.415,1.072-1.415,1.072c-12.603-6.602-0.857,1.629-0.857,1.629s-3.472-2.272-4.93-2.443
						c-1.218-0.143,6.747,6.671,11.439,10.611c6.682,5.693,18.422,15.29,22.255,15.837c5.467,0.781,19.752-23.856,19.752-23.856
						L276.102,271.555z"/>
					<path style="opacity:0.05;fill:#00344E;" d="M282.041,289.319c1.965-3.108,3.268-5.355,3.268-5.355l-9.207-12.409
						l-5.899,10.814C273.565,285.841,277.619,287.751,282.041,289.319z"/>
					<path style="fill:#FFDD7D;" d="M287.027,260.888c0,0-8.792,1.042-17.042,17.167c0,0,4.019,6.075,9.875,5.75
						c5.856-0.325,8.612-22.853,8.612-22.853L287.027,260.888z"/>
				</g>
				<g>
					<polygon style="fill:#FFEDC0;" points="219.36,282.722 241.11,274.972 244.61,297.972 					"/>
					<polygon style="opacity:0.1;fill:#00344E;" points="219.36,282.722 241.11,274.972 244.61,297.972 					"/>
					<polygon style="fill:#FFEDC0;" points="219.36,282.722 223.11,318.222 248.36,323.055 245.36,283.722 					"/>
				</g>
			</g>
			<g>
				<g>
					<path style="fill:#DD9B90;" d="M312.277,263.638l2.083-19.833l-16.75,1.75l-1.064,15.977l-8.073-0.581
						c0,0-13.934,25.475,6.573,29.335c20.507,3.86,26.565-18.982,26.565-18.982L312.277,263.638z"/>
					<path style="fill:#DD9B90;" d="M319.903,226.953c-7.426-17.896-26.302-6.513-35.418-1.523c3.43,9.867,3.75,12,5.375,22.625
						c8.375,10.875,20.853,9.286,27.625,7.875C323.485,254.68,326.487,242.822,319.903,226.953z"/>
					<path style="fill:#00344E;" d="M321.527,212.722c0-2.273-5.36-4.538-10.785-2.967c0.041-0.244,0.033-0.479-0.048-0.699
						c-1.167-3.167-11.167-2.167-17.5,7.667c0,0-9.708-0.75-12.708,10.083c-3,10.833,6.25,21.625,16.625,27.375
						c0,0-1.875-5.25-2.917-8.458c0,0-3.833,0-4.667-4.667c-0.833-4.667,3.167-5.667,4.333-1.833c1.167,3.833,3.833,4.333,2.5-0.667
						c-0.037-0.139-0.072-0.268-0.106-0.393c1.197-1.434,5.072-6.893,1.939-14.441c0,0,15.333,7,13.667-0.333c0,0,7,3,8.333-2
						c1.333-5-5-6.333-5-6.333S321.527,215.722,321.527,212.722z"/>
					<path style="fill:#00344E;" d="M281.86,225.43c0,0,0.125-11-6-11.25s-2.625,6.25-2.625,6.25s-3.625-8.375-12.5-4.125
						c-8.875,4.25-2.5,11.25,3.25,12.75s-3.625-3.75-4.375,1.875s10.25,3,10.25,3s-6.75,2.875-2.25,7.375s17-8.25,14.875-15.75"/>
				</g>
				<g>
					<g>
						<path style="fill:#00344E;" d="M310.235,229.406c0,0-0.647-0.119-1.575-0.238c-0.468-0.041-1.003-0.11-1.572-0.109
							c-0.284-0.025-0.574,0.021-0.868,0.015c-0.291,0.026-0.588,0.048-0.876,0.105c-0.286,0.06-0.582,0.091-0.849,0.198
							c-0.136,0.047-0.272,0.087-0.41,0.123c-0.129,0.057-0.256,0.113-0.381,0.169c-0.258,0.101-0.49,0.231-0.707,0.369
							c-0.227,0.123-0.432,0.258-0.605,0.407c-0.174,0.146-0.363,0.258-0.501,0.388c-0.139,0.132-0.261,0.248-0.361,0.343
							c-0.215,0.189-0.338,0.297-0.338,0.297s0.057-0.15,0.175-0.412c0.115-0.265,0.292-0.644,0.622-1.027
							c0.078-0.1,0.16-0.205,0.244-0.313c0.102-0.091,0.208-0.185,0.317-0.282c0.216-0.199,0.453-0.404,0.743-0.549
							c0.274-0.174,0.57-0.329,0.897-0.429c0.315-0.134,0.654-0.189,0.989-0.267c0.677-0.097,1.361-0.112,1.982-0.009
							c0.624,0.075,1.18,0.259,1.641,0.431C309.725,228.979,310.235,229.406,310.235,229.406z"/>
					</g>
					<g>
						<path style="fill:#00344E;" d="M320.777,229.138c0,0-0.455-0.224-1.137-0.561c-0.335-0.157-0.72-0.331-1.132-0.473
							c-0.204-0.079-0.419-0.132-0.631-0.183c-0.212-0.074-0.427-0.064-0.639-0.1c-0.204,0.018-0.421-0.026-0.611,0.042
							c-0.096,0.026-0.197,0.036-0.294,0.057l-0.273,0.114c-0.191,0.055-0.341,0.194-0.509,0.287
							c-0.173,0.089-0.294,0.24-0.433,0.352c-0.284,0.222-0.466,0.477-0.626,0.636c-0.155,0.163-0.254,0.257-0.254,0.257
							s0.022-0.127,0.078-0.35c0.066-0.219,0.124-0.557,0.351-0.898c0.108-0.173,0.195-0.387,0.381-0.548
							c0.175-0.167,0.331-0.387,0.587-0.506c0.234-0.15,0.488-0.29,0.783-0.342c0.284-0.1,0.582-0.074,0.878-0.097
							c0.282,0.051,0.579,0.069,0.835,0.168c0.27,0.071,0.509,0.194,0.735,0.311c0.234,0.106,0.423,0.264,0.615,0.389
							c0.179,0.142,0.348,0.276,0.487,0.418C320.539,228.658,320.777,229.138,320.777,229.138z"/>
					</g>
					<g>
						<path style="fill:#AA6F5C;" d="M313.86,230.555c0.589,0.835,1.153,1.685,1.684,2.553c0.546,0.86,1.069,1.732,1.578,2.612
							c1.01,1.764,1.986,3.548,2.878,5.378l0.124,0.254l-0.239,0.102c-1.327,0.565-2.664,1.108-4.025,1.602
							c1.251-0.728,2.524-1.408,3.808-2.065l-0.115,0.355c-1.081-1.725-2.077-3.497-3.039-5.289
							c-0.477-0.898-0.939-1.804-1.38-2.722C314.68,232.425,314.257,231.497,313.86,230.555z"/>
					</g>
					<g>
						<path style="fill:#101C2B;" d="M310.462,236.349c0,0-0.464-0.428-1.16-1.071c-0.35-0.304-0.754-0.656-1.205-0.963
							c-0.447-0.293-0.964-0.569-1.389-0.533c-0.415-0.009-0.793,0.31-1.102,0.738c-0.147,0.213-0.292,0.436-0.406,0.666
							c-0.121,0.225-0.222,0.452-0.322,0.66c-0.186,0.432-0.34,0.792-0.448,1.044c-0.11,0.257-0.182,0.404-0.182,0.404
							s-0.011-0.161-0.013-0.444c-0.005-0.283,0.015-0.687,0.093-1.17c0.044-0.241,0.086-0.505,0.181-0.777
							c0.078-0.275,0.188-0.566,0.352-0.853c0.157-0.287,0.366-0.588,0.67-0.833c0.308-0.241,0.72-0.418,1.141-0.434
							c0.858-0.007,1.488,0.433,1.964,0.837c0.48,0.42,0.832,0.878,1.1,1.284C310.272,235.722,310.462,236.349,310.462,236.349z"/>
					</g>
					<g>
						<path style="fill:#101C2B;" d="M321.872,234.124c0,0-0.429-0.408-1.073-1.021c-0.318-0.298-0.688-0.639-1.094-0.958
							c-0.402-0.308-0.872-0.614-1.265-0.654c-0.191-0.027-0.343,0.003-0.498,0.114c-0.145,0.12-0.32,0.264-0.438,0.479
							c-0.126,0.199-0.247,0.417-0.34,0.636c-0.1,0.216-0.181,0.434-0.262,0.634c-0.15,0.414-0.274,0.759-0.362,1
							c-0.089,0.246-0.15,0.388-0.15,0.388s-0.021-0.15-0.042-0.414c-0.023-0.264-0.032-0.643,0.01-1.099
							c0.025-0.228,0.047-0.478,0.118-0.739c0.056-0.262,0.138-0.543,0.281-0.824c0.127-0.28,0.329-0.583,0.635-0.821
							c0.303-0.247,0.766-0.372,1.159-0.319c0.787,0.132,1.306,0.572,1.722,0.982c0.414,0.42,0.726,0.856,0.959,1.247
							C321.705,233.534,321.872,234.124,321.872,234.124z"/>
					</g>
					<g>
						<path style="fill:#FFFFFF;" d="M306.84,246.69c0,0,9.268,6.65,11.318-1.603L306.84,246.69"/>
					</g>
					<circle style="fill:#FFFFFF;" cx="294.11" cy="246.222" r="1.5"/>
					<g>
						<path style="fill:#AA6F5C;" d="M293.527,244.222c-0.332,0.087-0.692,0.134-1.061-0.008c-0.183-0.07-0.361-0.248-0.414-0.465
							c-0.036-0.109-0.027-0.211-0.028-0.316c0.015-0.113,0.017-0.167,0.063-0.32c0.083-0.163,0.085-0.308,0.235-0.486
							c0.074-0.089,0.155-0.177,0.24-0.258l0.293-0.155c0.1-0.051,0.207-0.053,0.313-0.079c0.108-0.028,0.208-0.011,0.313-0.011
							c0.21,0.013,0.39,0.055,0.602,0.135l-0.453,0.381c-0.206-0.622-0.416-1.259-0.67-1.864c-0.119-0.306-0.249-0.607-0.394-0.893
							c-0.146-0.287-0.303-0.56-0.481-0.796c-0.094-0.107-0.189-0.204-0.282-0.261c-0.092-0.044-0.139-0.081-0.299-0.044
							c-0.032,0.013-0.164,0.068-0.243,0.178c-0.09,0.099-0.174,0.228-0.244,0.366c-0.277,0.567-0.439,1.233-0.57,1.896
							c-0.056-0.678-0.046-1.37,0.168-2.062c0.059-0.172,0.126-0.349,0.246-0.513c0.115-0.165,0.262-0.326,0.548-0.421
							c0.148-0.039,0.128-0.034,0.322-0.046c0.117,0.024,0.258,0.043,0.355,0.098c0.205,0.106,0.352,0.243,0.491,0.382
							c0.501,0.57,0.785,1.211,1.057,1.846c0.248,0.646,0.468,1.29,0.628,1.965l0.155,0.656l-0.609-0.274
							c-0.104-0.047-0.257-0.098-0.386-0.112c-0.065-0.001-0.137-0.027-0.197-0.013c-0.059,0.011-0.132-0.003-0.185,0.023
							c-0.054,0.023-0.11,0.044-0.171,0.062c-0.037,0.038-0.077,0.071-0.123,0.102c-0.05,0.013-0.092,0.105-0.136,0.176
							l-0.131,0.221c-0.001,0.009-0.045,0.121-0.059,0.176c-0.009,0.065-0.026,0.135-0.017,0.193
							c0.003,0.121,0.061,0.232,0.182,0.317C292.83,244.164,293.189,244.207,293.527,244.222z"/>
					</g>
				</g>
			</g>
			<g>
				<path style="fill:#FFDD7D;" d="M322.693,270.888l-8.833-6.167c0,0-6,8.583-14.5,8.333c-15.532-0.457-6.75-11.917-6.75-11.917
					l-5.583-0.25c0,0-21.654,23.813-5.387,39.429l-5.205,14.315c0,0,10.387,7.576,49.075,4.037l-0.028-25.573L322.693,270.888z"/>
				<path style="opacity:0.08;fill:#00344E;" d="M324.059,281.762c-5.78,4.52-12.592,7.869-19.452,10.212
					c-5.969,2.04-13.495,4.852-19.875,3.202c-3.396-0.879-6.17-2.804-8.769-5.006c0.69,3.54,2.409,7.01,5.677,10.148l-5.206,14.315
					c0,0,10.387,7.576,49.075,4.037l-0.028-25.573L324.059,281.762z"/>
			</g>
			<g>
				<g>
					<g>
						<path style="fill:#DD9B90;" d="M261.701,316.977c0,0-2.592-0.913-0.51-1.609c0,0-1.687-0.785-0.314-1.53
							c0,0-8.437-0.589-0.079-1.53c1.663-0.187,7.769-0.549,7.769-0.549s1.473,0.585,2.511,1.609
							c0.068,0.067-3.646-0.675-3.576-0.611c-2.44,4.147-1.108,6.775-1.604,6.654C260.249,318.036,261.701,316.977,261.701,316.977z
							"/>
						<path style="fill:#DD9B90;" d="M269.575,313.004c0,0-3.218-2.78-4.928-3.042c-1.71-0.262,1.327,3.059,1.327,3.059
							L269.575,313.004z"/>
					</g>
					<path style="fill:#DD9B90;" d="M306.114,293.248c0,0,4.535-23.908,14.227-22.51c12.133,1.749,4.212,21.46,1.22,31.108
						c-2.634,8.493-9.405,27.461-18.189,27.272c-5.686-0.123-39.014-10.034-39.777-10.362c-2.078-0.895-2.171-3.867-1.927-4.923
						c1.125-4.867,37.441-0.189,37.441-0.189L306.114,293.248z"/>
				</g>
				<g style="opacity:0.05;">
					<path style="fill:#00344E;" d="M320.809,304.194c0.278-0.843,0.531-1.635,0.752-2.348c2.992-9.648,10.913-29.358-1.22-31.108
						c-9.692-1.398-14.227,22.51-14.227,22.51l-1.73,5.036C308.977,301.433,314.768,303.268,320.809,304.194z"/>
				</g>
				<path style="fill:#FFDD7D;" d="M313.86,264.722c0,0,14.5,6.333,14.5,16.333c0,9.498-4,20.75-4,20.75s-13.884-0.827-21.542-6.637
					C302.818,295.168,313.027,275.055,313.86,264.722z"/>
			</g>
		</g>
	</g>
</g>
<g id="DESIGNED_BY_FREEPIK">
	<g>
		<g id="XMLID_319_">
			<g id="XMLID_338_">
			
				
			
				
			</g>
		
	
		</g>
	</g>
</g>
</svg>
