<?xml version="1.0" encoding="utf-8"?>
<!-- Generator: Adobe Illustrator 27.5.0, SVG Export Plug-In . SVG Version: 6.00 Build 0)  -->
<svg version="1.1" xmlns="http://www.w3.org/2000/svg" xmlns:xlink="http://www.w3.org/1999/xlink" x="0px" y="0px"
	 viewBox="0 0 3710 3710" style="enable-background:new 0 0 3710 3710;" xml:space="preserve">

<g id="Illustration">
	<g>
		<path style="fill:#F4F7FA;" d="M3213.822,1629.244c-55.197-361.291-99.509-610.975-298.829-747.794
			c-336.204-230.78-711.677,143.864-1187.924-107.527c-234.486-123.775-243.275-267.282-441.865-286.33
			c-351.348-33.701-639.081,385.599-664.017,421.558c-151.509,218.481-202.119,484.887-140.698,738.871
			c39.891,164.966,66.849,335.699,59.449,505.213c-12.875,295.02-5.467,570.399,280.844,746.341
			c255.64,157.097,577.371,295.651,884.306,319.917c208.59,16.494,442.511-10.196,643.552-64.501
			C3373.197,2878.227,3289.714,2125.999,3213.822,1629.244z"/>
		<g>
			<g>
				<g>
					<defs>
						<path id="SVGID_1_" d="M2613.511,1778.069c-7.835,0.696-15.321,1.499-22.155,2.165c-21.209,2.067-67.709,14.937-83.74-6.187
							c-26.431-34.85,40.717-93.95,57.622-120.501c20.911-32.842,46.821-69.41,51.025-109.297
							c6.393-60.663-35.163-142.723-86.448-174.404c-70.74-43.699-169.56-13.962-233.117,28.939
							c-92.071,62.149-156.766,164.662-183.025,271.735c-28.304,115.412,10.73,234.873-0.457,351.847
							c-17.584,183.855-278.161-50.377-227.238,433.094c11.242,106.728,29.576,223.486,89.539,314.964
							c24.867,37.936,74.579,90.652,124.13,87.608c70.256-4.315,67.117-103.708,88.913-149.59
							c25.479-53.633,69.93-96.007,119.326-127.703c62.828-40.316,135.669-76.373,160.643-152.493
							c16.218-49.429-8.189-100.333-39.418-138.784c-17.211-21.191-53.895-45.42-48.395-76.643
							c4.562-25.899,40.953-44.926,59.928-58.579c58.361-41.995,115.103-87.241,167.001-137.05
							c46.576-44.701,125.346-112.51,118.97-185.151C2721.482,1773.578,2661.079,1773.844,2613.511,1778.069z"/>
					</defs>
					
						<linearGradient id="SVGID_00000067214571048580508850000011742569977276163467_" gradientUnits="userSpaceOnUse" x1="2473.5161" y1="756.2861" x2="1826.9928" y2="5761.5967">
						<stop  offset="0" style="stop-color:#FF9085"/>
						<stop  offset="1" style="stop-color:#FB6FBB"/>
					</linearGradient>
					
						<use xlink:href="#SVGID_1_"  style="overflow:visible;fill:url(#SVGID_00000067214571048580508850000011742569977276163467_);"/>
					<clipPath id="SVGID_00000035532868769782079720000016704926912245328813_">
						<use xlink:href="#SVGID_1_"  style="overflow:visible;"/>
					</clipPath>
					<g style="opacity:0.8;clip-path:url(#SVGID_00000035532868769782079720000016704926912245328813_);">
						<g>
							<path style="fill:#FFFFFF;" d="M2239.081,2984.331c-0.717,0-1.44-0.216-2.069-0.664
								c-119.919-85.657-176.356-216.439-172.534-399.819c3.331-159.873,50.193-333.342,95.513-501.098
								c35.689-132.107,69.398-256.888,75.535-357.112c4.916-80.301,27.846-153.139,68.152-216.492
								c32.234-50.663,75.576-95.38,128.823-132.908c90.573-63.835,179.787-85.023,180.677-85.23
								c1.918-0.448,3.833,0.75,4.278,2.667c0.446,1.918-0.749,3.833-2.666,4.279c-0.88,0.204-88.937,21.151-178.386,84.257
								c-82.346,58.093-182.804,164.907-193.761,343.863c-6.18,100.947-39.981,226.068-75.769,358.535
								c-89.183,330.123-190.266,704.292,74.283,893.255c1.602,1.144,1.973,3.372,0.829,4.974
								C2241.289,2983.812,2240.194,2984.331,2239.081,2984.331z"/>
						</g>
						<g>
							<path style="fill:#FFFFFF;" d="M2241.915,1698.529c-0.362,0-0.731-0.056-1.094-0.173c-0.959-0.31-23.782-7.918-48.754-37.608
								c-22.771-27.074-51.738-78.611-60.419-170.384c-0.186-1.96,1.253-3.7,3.214-3.885c1.946-0.195,3.7,1.254,3.884,3.214
								c8.471,89.552,36.426,139.697,58.385,165.996c23.692,28.372,45.668,35.812,45.888,35.882
								c1.867,0.613,2.892,2.623,2.284,4.493C2244.812,1697.57,2243.417,1698.529,2241.915,1698.529z"/>
						</g>
						<g>
							<path style="fill:#FFFFFF;" d="M2206.258,1922.601c-1.806,0-3.354-1.367-3.542-3.203c-0.199-1.958,1.226-3.708,3.185-3.909
								c0.608-0.063,61.777-6.641,141.938-42.015c73.911-32.615,179.571-97.1,263.204-219.083c1.113-1.624,3.33-2.039,4.957-0.925
								c1.624,1.114,2.038,3.333,0.925,4.957c-84.654,123.472-191.635,188.708-266.473,221.693
								c-81.137,35.759-143.209,42.404-143.828,42.466C2206.501,1922.595,2206.378,1922.601,2206.258,1922.601z"/>
						</g>
						<g>
							<path style="fill:#FFFFFF;" d="M2077.56,2469.33c-0.393,0-0.794-0.066-1.185-0.204c-2.483-0.875-61.37-22.122-110.02-81.643
								c-28.584-34.97-47.507-75.893-56.245-121.632c-10.89-57-5.883-121.64,14.881-192.127c0.555-1.889,2.535-2.968,4.428-2.413
								c1.889,0.557,2.969,2.539,2.413,4.427c-46.163,156.709-3.818,253.428,39.833,306.972
								c47.363,58.097,106.491,79.481,107.083,79.69c1.856,0.657,2.83,2.692,2.174,4.548
								C2080.405,2468.415,2079.029,2469.33,2077.56,2469.33z"/>
						</g>
						<g>
							<path style="fill:#FFFFFF;" d="M2098.299,2349.002c-1.762,0-3.294-1.306-3.53-3.1c-0.257-1.952,1.118-3.743,3.07-4
								c2.85-0.376,285.884-38.824,355.238-145.923c1.073-1.651,3.28-2.124,4.931-1.055c1.653,1.071,2.125,3.279,1.055,4.931
								c-29.954,46.253-99.78,85.415-207.54,116.4c-79.89,22.97-152.034,32.621-152.754,32.716
								C2098.612,2348.992,2098.455,2349.002,2098.299,2349.002z"/>
						</g>
					</g>
				</g>
			</g>
			<g>
				<g>
					<defs>
						<path id="SVGID_00000087402908068818266090000010421260883325758106_" d="M3212.457,1623.916
							c-29.582-106.613-123.249-187.359-230.405-215.235c-65.245-16.973-144.892-22.712-211.437-11.128
							c-93.593,16.292-170.852,77.345-231.073,148.11c-70.758,83.146-77.382,186.188-102.673,288.541
							c-4.958,20.066-37.669,130.563-62.439,65.805c-34.538-90.303-111.564-74.376-111.58-74.373
							c-60.267,12.466-106.588,56.719-128.871,112.408c-59.522,148.757-41.123,341.996-28.535,497.921
							c5.922,73.343,15.044,146.297,25.92,219.009c2.689,17.977,15.598,32.736,33.067,37.76
							c17.469,5.024,36.262-0.613,48.086-14.419c12.294-14.36,25.175-27.543,37.097-39.145
							c114.667-111.593,294.212-128.108,445.705-134.785c88.452-3.898,161.329-9.521,238.397-57.017
							c32.024-19.736,66.827-43.973,81.674-80.041c13.431-32.625,16.042-88.497-4.184-118.838
							c-25.19-37.789-81.137-35.409-114.442-63.244c-53.811-44.973,86.93-76.275,115.279-85.387
							c45.198-14.531,75.163-50.574,109.022-81.83c25.865-23.875,50.184-49.858,68.952-79.764
							C3247.349,1846.914,3240.309,1724.291,3212.457,1623.916z"/>
					</defs>
					
						<linearGradient id="SVGID_00000039841190499648094370000008001599931156867222_" gradientUnits="userSpaceOnUse" x1="2806.8918" y1="850.4402" x2="2228.1277" y2="5331.1675">
						<stop  offset="0" style="stop-color:#AA80F9"/>
						<stop  offset="0.9964" style="stop-color:#6165D7"/>
					</linearGradient>
					
						<use xlink:href="#SVGID_00000087402908068818266090000010421260883325758106_"  style="overflow:visible;fill:url(#SVGID_00000039841190499648094370000008001599931156867222_);"/>
					<clipPath id="SVGID_00000038404632629408860420000007420759360347344566_">
						<use xlink:href="#SVGID_00000087402908068818266090000010421260883325758106_"  style="overflow:visible;"/>
					</clipPath>
					<g style="opacity:0.8;clip-path:url(#SVGID_00000038404632629408860420000007420759360347344566_);">
						<g>
							<path style="fill:#FFFFFF;" d="M2113.603,2731.028c-0.613,0-1.235-0.133-1.827-0.411c-2.143-1.01-3.062-3.567-2.052-5.711
								c1.412-2.995,143.397-303.006,339.355-610.496c115.148-180.684,226.144-328.591,329.906-439.612
								c130.1-139.2,249.316-220.619,354.337-241.994c2.331-0.474,4.588,1.027,5.06,3.348c0.473,2.323-1.027,4.588-3.348,5.06
								c-103.239,21.014-220.921,101.574-349.779,239.445c-103.403,110.637-214.074,258.123-328.938,438.365
								c-195.669,307.035-337.421,606.553-338.83,609.543C2116.755,2730.117,2115.212,2731.028,2113.603,2731.028z"/>
						</g>
						<g>
							<path style="fill:#FFFFFF;" d="M2623.897,1872.483c-0.225,0-0.453-0.017-0.682-0.053c-2.341-0.374-3.935-2.574-3.562-4.914
								c0.647-4.046,63.871-405.384,1.091-473.108c-1.61-1.737-1.508-4.451,0.23-6.063c1.738-1.612,4.454-1.506,6.063,0.23
								c65.595,70.761,3.754,463.604,1.091,480.292C2627.791,1870.98,2625.968,1872.483,2623.897,1872.483z"/>
						</g>
						<g>
							<path style="fill:#FFFFFF;" d="M3374.154,1664.689c-0.777,0-1.563-0.209-2.27-0.652
								c-168.306-105.193-518.447-50.257-521.965-49.69c-2.345,0.374-4.541-1.214-4.919-3.553c-0.377-2.339,1.214-4.542,3.553-4.919
								c0.887-0.142,89.907-14.305,198.753-15.133c100.709-0.789,239.597,10.063,329.126,66.019c2.01,1.256,2.62,3.902,1.365,5.912
								C3376.983,1663.975,3375.584,1664.689,3374.154,1664.689z"/>
						</g>
						<g>
							<path style="fill:#FFFFFF;" d="M2254.861,2457.017c-0.321,0-0.647-0.036-0.972-0.112c-2.307-0.535-3.746-2.84-3.212-5.148
								c45.934-198.509-126.307-487.928-128.051-490.828c-1.222-2.031-0.567-4.667,1.464-5.889c2.035-1.219,4.669-0.566,5.888,1.464
								c0.441,0.732,44.481,74.322,82.175,171.731c34.884,90.15,71.336,219.791,46.885,325.458
								C2258.578,2455.675,2256.813,2457.017,2254.861,2457.017z"/>
						</g>
						<g>
							<path style="fill:#FFFFFF;" d="M2397.265,2210.013c-1.8,0-3.478-1.144-4.073-2.948c-0.743-2.25,0.48-4.676,2.731-5.418
								c1.539-0.509,156.051-51.181,343.181-87.893c173.026-33.943,410.182-62.542,557.418-6.027
								c2.212,0.849,3.317,3.331,2.468,5.544c-0.849,2.214-3.328,3.316-5.543,2.468c-145.334-55.785-380.774-27.29-552.69,6.438
								c-186.609,36.608-340.612,87.114-342.146,87.619C2398.165,2209.943,2397.711,2210.013,2397.265,2210.013z"/>
						</g>
					</g>
				</g>
			</g>
		</g>
		<g>
			<g>
				<g>
					<path style="fill:#97A6B7;" d="M2067.5,2950.363l-120.815,57.659l169.457,97.919c15.311,8.847,33.464,11.374,50.61,7.049
						l73.227-18.479L2067.5,2950.363z"/>
					<path style="opacity:0.2;fill:#97A6B7;" d="M2067.5,2950.363l-120.815,57.659l169.457,97.919
						c15.311,8.847,33.464,11.374,50.61,7.049l73.227-18.479L2067.5,2950.363z"/>
				</g>
				<path style="fill:#97A6B7;" d="M2093.048,2975.792l146.93,118.72c0,0,548.705-177.783,661.621-389.2l-57.659-50.861
					L2093.048,2975.792z"/>
			</g>
			<path style="fill:#D8DEE8;" d="M2165.242,2975.589l-205.7,68.578c-6.307,2.091-12.685,3.82-19.136,5.082
				c-39.965,8.001-81.768,0.54-116.688-21.441l-966.694-607.802l41.695-165.807l79.101-314.675l28.721,25.047L2165.242,2975.589z"/>
			<g>
				<path style="fill:#97A6B7;" d="M2657.972,2301.48v68.687l-17.529-14.054l-745.723-581.17l7.907-79.714
					c0.973-9.982,6.151-18.992,13.934-24.937c2.488-1.946,5.292-3.531,8.32-4.758c12.287-5.045,26.394-2.845,36.593,5.694
					l662.167,555.62C2645.696,2245.371,2657.972,2272.687,2657.972,2301.48z"/>
				<path style="opacity:0.3;fill:#97A6B7;" d="M2640.894,2308.688v47.425l-745.948-581.17l7.794-79.714
					c0.973-9.982,6.095-18.992,13.877-24.937c9.551-1.045,19.282,1.802,26.851,8.144l662.631,555.62
					C2628.154,2252.578,2640.894,2279.895,2640.894,2308.688z"/>
			</g>
			<path style="fill:#AABBCC;" d="M1701.445,1980.858c-89.66,44.255-211.357-7.999-309.737-120.615l-336.586,173.986l-18.416-14.557
				l-14.017-11.1l-437.887-346.209c0,0,736.201-418.642,749.571-425.237c8.541-4.216,17.369-7.531,26.452-10.018l14.846-3.315
				c81.877-14.019,180.511,35.821,263.466,128.363c37.154,41.407,71.173,91.427,99.139,148.078
				c17.155,34.703,30.883,69.695,41.335,104.182c2.449,8.038,4.719,16.072,6.81,24.073l5.911,24.686
				C1824.872,1803.305,1792.799,1935.776,1701.445,1980.858z"/>
			<path style="fill:#BFC8D6;" d="M2901.274,2530.546l-1121.627-926.045l-756.153,420.071c0,0,597.589,475.328,1141.748,951.017
				c389.283,8.781,656.218-270.088,742.747-375.139C2925.424,2579.284,2922.42,2548.003,2901.274,2530.546z"/>
			<path style="fill:#BFC8D6;" d="M1013.534,2350.67c-16,24.108-36.577,43.065-61.659,55.424
				c-28.902,14.272-61.155,18.489-94.85,13.912c-108.292-14.739-231.791-120.436-309.09-277.017
				c-101.372-205.376-84.867-420.553,36.83-480.626c5.01-2.486,10.091-4.649,15.28-6.486
				c121.157-43.785,291.468,72.614,388.66,269.593c6.415,13.009,12.36,26.055,17.838,39.101
				C1069.751,2115.06,1070.437,2265.191,1013.534,2350.67z"/>
			<g>
				<path style="fill:#97A6B7;" d="M2746.239,2488.601c13.773,10.848,13.396,26.496-0.865,34.945l-66.827,39.594
					c-14.313,8.48-37.078,6.503-50.827-4.41l-177.111-140.591c-13.55-10.756-12.955-26.24,1.307-34.59l66.591-38.986
					c14.211-8.32,36.719-6.401,50.293,4.29L2746.239,2488.601z"/>
				<path style="fill:#97A6B7;" d="M1565.31,2335.671c-19.265,11.039-48.652,8.789-65.472-5.009l-290.031-237.912
					c-16.413-13.463-14.164-33.17,4.98-43.937l540.162-303.79c18.681-10.506,47.35-8.433,63.942,4.629l293.142,230.778
					c16.998,13.381,15.565,33.036-3.227,43.805L1565.31,2335.671z"/>
				<path style="fill:#EAEDF3;" d="M2101.097,2018.156l-543.44,311.252c-14.45,8.29-36.433,6.63-49.081-3.748l-290.063-237.807
					c-12.361-10.127-10.667-24.867,3.711-32.938l25.766-14.487l514.466-289.486c14.019-7.892,35.497-6.342,47.966,3.496
					l246.565,194.202l46.524,36.651C2116.304,1995.346,2115.223,2010.048,2101.097,2018.156z"/>
				<path style="fill:#FFFFFF;" d="M2101.097,2018.156l-543.44,311.252c-14.45,8.29-36.433,6.63-49.081-3.748l-290.063-237.807
					c-12.361-10.127-10.667-24.867,3.711-32.938l25.766-14.487c31.965,17.046,73.049,25.731,99.968,18.703
					c95.463-24.974,181.158-139.32,283.215-62.921c60.038,45.009,113.265,132.797,199.97,102.957
					c75.857-26.127,112.795-106.272,181.447-141.804c14.161-7.317,29.298-9.803,44.397-8.722l46.524,36.651
					C2116.304,1995.346,2115.223,2010.048,2101.097,2018.156z"/>
				<g>
					<path style="fill:#97A6B7;" d="M1777.714,2378.56c12.021,9.775,10.786,24.05-2.775,31.879l-70.968,40.971
						c-13.612,7.858-34.385,6.253-46.38-3.581l-54.798-44.925c-11.932-9.782-10.576-24.036,3.012-31.839l70.847-40.688
						c13.538-7.775,34.192-6.198,46.149,3.526L1777.714,2378.56z"/>
					<path style="fill:#97A6B7;" d="M1938.336,2285.937c12.054,9.697,10.924,23.864-2.541,31.637l-70.465,40.681
						c-13.515,7.802-34.237,6.216-46.266-3.54l-54.952-44.565c-11.966-9.704-10.715-23.849,2.777-31.598l70.347-40.401
						c13.442-7.72,34.046-6.162,46.036,3.485L1938.336,2285.937z"/>
					<path style="fill:#97A6B7;" d="M2097.825,2193.968c12.086,9.62,11.059,23.679-2.311,31.398l-69.968,40.394
						c-13.419,7.747-34.091,6.179-46.152-3.498l-55.103-44.209c-11.999-9.627-10.851-23.665,2.546-31.359l69.852-40.117
						c13.348-7.666,33.901-6.126,45.924,3.444L2097.825,2193.968z"/>
					<path style="fill:#97A6B7;" d="M2256.193,2102.645c12.117,9.543,11.192,23.497-2.084,31.161l-69.476,40.11
						c-13.325,7.693-33.945,6.143-46.039-3.457l-55.249-43.857c-12.031-9.55-10.986-23.483,2.318-31.123l69.363-39.835
						c13.255-7.612,33.758-6.09,45.812,3.404L2256.193,2102.645z"/>
				</g>
				<g>
					<path style="fill:#97A6B7;" d="M1898.075,2476.443l-55.432-45.08c-12.071-9.817-32.84-11.415-46.405-3.574l-70.994,41.032
						c-13.618,7.869-14.906,22.252-2.859,32.127l55.319,45.351c12.108,9.928,32.998,11.555,46.637,3.63l71.115-41.319
						C1909.047,2500.713,1910.212,2486.311,1898.075,2476.443z"/>
					<path style="fill:#97A6B7;" d="M2059.026,2383.035l-55.583-44.717c-12.104-9.738-32.82-11.318-46.29-3.533l-70.49,40.742
						c-13.521,7.814-14.703,22.087-2.624,31.883l55.472,44.987c12.143,9.847,32.981,11.455,46.523,3.586l70.608-41.025
						C2070.135,2407.117,2071.194,2392.824,2059.026,2383.035z"/>
					<path style="fill:#97A6B7;" d="M2218.837,2290.289l-55.731-44.36c-12.136-9.658-32.803-11.221-46.178-3.489l-69.993,40.454
						c-13.424,7.758-14.503,21.923-2.39,31.64l55.622,44.626c12.175,9.769,32.961,11.358,46.408,3.546l70.107-40.735
						C2230.081,2314.185,2231.036,2300,2218.837,2290.289z"/>
					<path style="fill:#97A6B7;" d="M2377.518,2198.199l-55.875-44.006c-12.168-9.583-32.783-11.126-46.063-3.449l-69.5,40.168
						c-13.329,7.704-14.306,21.761-2.161,31.401l55.768,44.269c12.208,9.692,32.942,11.261,46.294,3.503l69.612-40.447
						C2388.894,2221.91,2389.749,2207.831,2377.518,2198.199z"/>
				</g>
				<path style="fill:#97A6B7;" d="M2019.582,2575.254c12.25,9.962,11.157,24.497-2.46,32.46l-71.262,41.673
					c-13.668,7.993-34.674,6.344-46.899-3.678l-55.846-45.783c-12.16-9.969-10.943-24.482,2.702-32.419l71.141-41.382
					c13.594-7.907,34.478-6.288,46.663,3.622L2019.582,2575.254z"/>
				<path style="fill:#97A6B7;" d="M2180.86,2481.051c12.283,9.882,11.295,24.305-2.225,32.211l-70.752,41.375
					c-13.57,7.936-34.523,6.306-46.782-3.635l-55.999-45.414c-12.194-9.889-11.082-24.291,2.466-32.171l70.634-41.087
					c13.497-7.851,34.329-6.251,46.547,3.579L2180.86,2481.051z"/>
				<path style="fill:#97A6B7;" d="M2340.99,2387.52c12.315,9.802,11.431,24.115-1.992,31.965l-70.248,41.08
					c-13.474,7.879-34.375,6.269-46.666-3.593l-56.148-45.048c-12.227-9.809-11.219-24.101,2.232-31.926l70.133-40.795
					c13.401-7.796,34.182-6.214,46.432,3.537L2340.99,2387.52z"/>
				<path style="fill:#97A6B7;" d="M2499.983,2294.652c12.346,9.724,11.564,23.928-1.764,31.722l-69.749,40.788
					c-13.378,7.823-34.227,6.232-46.55-3.55l-56.294-44.687c-12.258-9.731-11.354-23.914,2.002-31.683l69.637-40.507
					c13.307-7.74,34.036-6.177,46.317,3.496L2499.983,2294.652z"/>
				<g>
					<path style="fill:#97A6B7;" d="M2142.247,2675.009c12.367,10.057,11.347,24.725-2.298,32.756l-71.408,42.031
						c-13.696,8.062-34.82,6.391-47.162-3.728l-56.381-46.222c-12.277-10.065-11.13-24.709,2.543-32.715l71.288-41.736
						c13.622-7.975,34.622-6.334,46.924,3.67L2142.247,2675.009z"/>
					<path style="fill:#97A6B7;" d="M2303.852,2580c12.4,9.976,11.485,24.531-2.062,32.504l-70.895,41.729
						c-13.598,8.004-34.668,6.352-47.044-3.684l-56.534-45.847c-12.31-9.983-11.27-24.516,2.305-32.463l70.778-41.438
						c13.524-7.918,34.472-6.296,46.807,3.627L2303.852,2580z"/>
					<path style="fill:#97A6B7;" d="M2464.3,2485.671c12.432,9.896,11.621,24.339-1.828,32.255l-70.387,41.43
						c-13.5,7.946-34.518,6.314-46.927-3.641l-56.683-45.477c-12.343-9.903-11.407-24.324,2.071-32.215l70.273-41.142
						c13.428-7.862,34.324-6.259,46.69,3.585L2464.3,2485.671z"/>
				</g>
				<g>
					<path style="fill:#97A6B7;" d="M2264.082,2774.089c12.484,10.153,11.537,24.953-2.135,33.052l-71.551,42.388
						c-13.724,8.13-34.965,6.437-47.425-3.778l-56.915-46.66c-12.393-10.16-11.318-24.937,2.383-33.01l71.431-42.09
						c13.649-8.042,34.766-6.379,47.183,3.719L2264.082,2774.089z"/>
					<path style="fill:#97A6B7;" d="M2426.007,2678.276c12.517,10.07,11.675,24.756-1.898,32.797l-71.035,42.083
						c-13.625,8.072-34.812,6.398-47.305-3.733l-57.067-46.28c-12.426-10.077-11.458-24.74,2.145-32.755l70.918-41.787
						c13.551-7.985,34.615-6.341,47.065,3.675L2426.007,2678.276z"/>
					<path style="fill:#97A6B7;" d="M2586.767,2583.152c12.549,9.988,11.812,24.561-1.664,32.544l-70.524,41.78
						c-13.527,8.013-34.661,6.36-47.186-3.689l-57.216-45.904c-12.458-9.996-11.596-24.546,1.909-32.503l70.41-41.488
						c13.454-7.927,34.465-6.303,46.947,3.632L2586.767,2583.152z"/>
				</g>
			</g>
			<path style="fill:#97A6B7;" d="M1779.611,1604.415l-742.905,415.257l-8.793,4.901c-1.657-5.333-3.387-10.667-5.224-16
				c-9.335-27.605-20.614-55.462-34.272-83.102c-26.631-53.983-58.632-101.914-93.732-142.13l74.056-48.615
				c0,0,72.111,72.074,91.317,132.112l571.801-314.712l-93.661-141.734l100.939-58.237c37.154,41.407,71.173,91.427,99.139,148.078
				C1755.43,1534.936,1769.158,1569.928,1779.611,1604.415z"/>
			<path style="fill:#97A6B7;" d="M1538.198,1410.392c0,0,50.062,130.785,34.04,174.549c59.621-32.815,63.26-31.013,63.26-31.013
				L1538.198,1410.392z"/>
			<path style="opacity:0.1;fill:#97A6B7;" d="M1940.407,3049.249c-39.965,8.001-81.768,0.54-116.688-21.441l-966.694-607.802
				c-108.292-14.739-231.791-120.436-309.09-277.017c-101.372-205.376-84.867-420.553,36.83-480.626
				c5.01-2.486,10.091-4.649,15.28-6.486c47.965,43.28,89.047,108.111,74.453,198.96c-31.209,194.6-38.416,299.108,108.111,351.361
				c38.091,13.549,79.245,29.442,116.111,48.001c5.081,2.559,10.055,5.154,14.955,7.822c40.433,21.981,74.02,47.568,89.84,77.371
				c0,0,3.496,4.072,10.018,11.279c44.326,49.01,227.935,243.071,391.327,284.981
				C1566.883,2677.203,1867.576,2896.704,1940.407,3049.249z"/>
		</g>
		<g>
			
				<linearGradient id="SVGID_00000084504618065531099520000013555068480896143793_" gradientUnits="userSpaceOnUse" x1="4176.1606" y1="3447.2637" x2="4220.3545" y2="3486.574" gradientTransform="matrix(0.9902 -0.14 0.14 0.9902 -1645.2657 206.9384)">
				<stop  offset="0" style="stop-color:#444B8C"/>
				<stop  offset="0.9964" style="stop-color:#26264F"/>
			</linearGradient>
			<path style="fill:url(#SVGID_00000084504618065531099520000013555068480896143793_);" d="M2985.012,3055.751
				c1.258-6.928,23.631-13.199,34.709-3.919c5.502,4.608,9.289,13.947,6.107,18.166c-1.158,1.534,3.585,4.233-0.959,4.286
				C3009.797,3074.46,2983.761,3062.636,2985.012,3055.751z"/>
			
				<linearGradient id="SVGID_00000129901892141338714060000001094268625779601810_" gradientUnits="userSpaceOnUse" x1="3962.1526" y1="3403.9146" x2="3962.1526" y2="3326.926" gradientTransform="matrix(0.9988 0.0498 -0.0498 0.9988 -768.8194 -528.7908)">
				<stop  offset="0" style="stop-color:#FFC444"/>
				<stop  offset="0.9964" style="stop-color:#F36F56"/>
			</linearGradient>
			<path style="fill:url(#SVGID_00000129901892141338714060000001094268625779601810_);" d="M3009.477,3055.788l23.21,1.157
				c-8.041-14.619,1.627-54.381,1.627-54.381l-25.062,0.736c0,0,0.617,11.544,2.144,28.691
				C3011.92,3037.862,3010.956,3046.704,3009.477,3055.788z"/>
			
				<linearGradient id="SVGID_00000103255127793120593110000010058471465879156920_" gradientUnits="userSpaceOnUse" x1="4180.6045" y1="3442.2705" x2="4224.7969" y2="3481.5801" gradientTransform="matrix(0.9902 -0.14 0.14 0.9902 -1645.2657 206.9384)">
				<stop  offset="0" style="stop-color:#444B8C"/>
				<stop  offset="0.9964" style="stop-color:#26264F"/>
			</linearGradient>
			<path style="fill:url(#SVGID_00000103255127793120593110000010058471465879156920_);" d="M3006.422,3055.438
				c0,0,27.703-6.383,30.699-0.888c2.998,5.496,5.323,20.208-12.252,19.734C3007.292,3073.81,3004.861,3060.098,3006.422,3055.438z"
				/>
			
				<linearGradient id="SVGID_00000101801132648605421820000013562130275066704557_" gradientUnits="userSpaceOnUse" x1="4224.1333" y1="3084.4644" x2="4268.3281" y2="3123.7759" gradientTransform="matrix(1 0 0 1 -1542.423 0)">
				<stop  offset="0" style="stop-color:#444B8C"/>
				<stop  offset="0.9964" style="stop-color:#26264F"/>
			</linearGradient>
			<path style="fill:url(#SVGID_00000101801132648605421820000013562130275066704557_);" d="M2691.214,3106.003
				c2.215-6.683,25.246-9.761,34.917,0.977c4.801,5.331,7.245,15.11,3.503,18.84c-1.361,1.358,2.956,4.695-1.551,4.111
				C2713.137,3127.997,2689.013,3112.643,2691.214,3106.003z"/>
			
				<linearGradient id="SVGID_00000039838114284468835450000008527116454692496028_" gradientUnits="userSpaceOnUse" x1="4019.3596" y1="2990.0486" x2="4019.3596" y2="2913.0576" gradientTransform="matrix(0.9813 0.1926 -0.1926 0.9813 -642.201 -582.0115)">
				<stop  offset="0" style="stop-color:#FFC444"/>
				<stop  offset="0.9964" style="stop-color:#F36F56"/>
			</linearGradient>
			<path style="fill:url(#SVGID_00000039838114284468835450000008527116454692496028_);" d="M2718.431,3112.44l22.803,4.475
				c-5.861-15.621,9.412-53.585,9.412-53.585l-24.909-2.868c0,0-1.046,11.513-1.993,28.702
				C2723.419,3095.049,2721.197,3103.662,2718.431,3112.44z"/>
			
				<linearGradient id="SVGID_00000033362993231375432190000018274528480397176241_" gradientUnits="userSpaceOnUse" x1="4228.5762" y1="3079.4705" x2="4272.771" y2="3118.782" gradientTransform="matrix(1 0 0 1 -1542.423 0)">
				<stop  offset="0" style="stop-color:#444B8C"/>
				<stop  offset="0.9964" style="stop-color:#26264F"/>
			</linearGradient>
			<path style="fill:url(#SVGID_00000033362993231375432190000018274528480397176241_);" d="M2712.457,3108.689
				c0,0,28.324-2.443,30.521,3.419c2.198,5.859,2.442,20.753-14.895,17.823C2710.748,3127.002,2710.259,3113.084,2712.457,3108.689z
				"/>
			
				<linearGradient id="SVGID_00000101816909494918578140000018083766308729384373_" gradientUnits="userSpaceOnUse" x1="1855.3018" y1="2659.0618" x2="2037.917" y2="2659.0618" gradientTransform="matrix(1 0 0 1 1066.6564 0)">
				<stop  offset="0" style="stop-color:#311944"/>
				<stop  offset="1" style="stop-color:#6B3976"/>
			</linearGradient>
			<path style="fill:url(#SVGID_00000101816909494918578140000018083766308729384373_);" d="M2921.958,2309.797
				c6.212,106.193,14.908,216.62,26.622,330.9c13.571,132.393,30.058,258.894,48.544,379.121c22.788,7.815,43.848,0,43.848,0
				s26.645-43.642,46.979-159.63c13.046-74.423,13.947-73.485,14.094-86.466c0.737-65.498-22.24-84.46-26.621-143.002
				c-4.053-54.164,13.188-70.386,23.49-131.362c7.921-46.889,10.891-115.219-14.094-204.526
				C3030.532,2299.82,2976.245,2304.809,2921.958,2309.797z"/>
			
				<linearGradient id="SVGID_00000022543719130172706680000017692967197501110666_" gradientUnits="userSpaceOnUse" x1="1855.3018" y1="2659.0618" x2="2023.0432" y2="2659.0618" gradientTransform="matrix(1 0 0 1 1066.6564 0)">
				<stop  offset="0" style="stop-color:#311944"/>
				<stop  offset="1" style="stop-color:#6B3976"/>
			</linearGradient>
			<path style="opacity:0.3;fill:url(#SVGID_00000022543719130172706680000017692967197501110666_);" d="M2921.958,2309.798
				c6.211,106.192,14.908,216.62,26.622,330.899c13.571,132.393,30.058,258.894,48.545,379.121c22.788,7.815,43.847,0,43.847,0
				c-0.289-11.129-1.066-27.898-3.39-48.154c-6.164-53.729-15.989-69.016-16.997-101.986c-1.29-42.166,13.977-43.464,16.997-84.988
				c4.682-64.362-30.659-79.625-33.995-135.981c-3.526-59.546,33.759-79.141,62.324-152.979
				c16.862-43.587,31.829-109.028,18.908-200.898C3030.532,2299.82,2976.246,2304.809,2921.958,2309.798z"/>
			
				<linearGradient id="SVGID_00000120550401611157485730000004078196039913849535_" gradientUnits="userSpaceOnUse" x1="2193.1187" y1="2784.0479" x2="1690.7449" y2="2693.3938" gradientTransform="matrix(1 0 0 1 1066.6564 0)">
				<stop  offset="0" style="stop-color:#311944"/>
				<stop  offset="0.7407" style="stop-color:#5C3169"/>
				<stop  offset="1" style="stop-color:#6B3976"/>
			</linearGradient>
			<path style="fill:url(#SVGID_00000120550401611157485730000004078196039913849535_);" d="M2807.643,2306.472
				c-31.202,105.108-61.441,235.663-78.298,387.435c-16.359,147.297-16.062,278.107-9.396,385.772
				c9.918,2.771,19.836,5.543,29.753,8.314c57.67-60.339,78.261-115.798,86.129-156.304c11.639-59.918-5.898-80.235,9.396-147.99
				c3.518-15.586,8.468-32.327,65.77-144.664c54.691-107.217,65.904-122.789,75.166-161.292
				c13.222-54.96,9.734-103.701,4.698-136.351C2929.788,2329.752,2868.716,2318.112,2807.643,2306.472z"/>
			<g>
				<path style="fill:#26264F;" d="M2561.722,2079.297l-97.863-229.242c-4.89-11.453,1.676-24.555,13.777-27.495l179.264-43.536
					c9.688-2.353,19.641,2.733,23.411,11.963l90.013,220.33c4.482,10.972-1.426,23.424-12.759,26.891l-171.413,52.447
					C2576.303,2093.669,2565.767,2088.77,2561.722,2079.297z"/>
				<path style="fill:#F4F7FA;" d="M2566.152,2068.271l-91.412-214.129c-4.566-10.698,1.566-22.937,12.87-25.682l167.445-40.665
					c9.049-2.198,18.345,2.552,21.867,11.173l84.078,205.804c4.187,10.248-1.331,21.879-11.918,25.119l-160.112,48.99
					C2579.771,2081.696,2569.93,2077.12,2566.152,2068.271z"/>
			</g>
			
				<linearGradient id="SVGID_00000103265106618644816500000014134305154532298641_" gradientUnits="userSpaceOnUse" x1="1445.8114" y1="1922.7909" x2="1418.7985" y2="2046.1107" gradientTransform="matrix(1 0 0 1 1066.6564 0)">
				<stop  offset="0" style="stop-color:#FFC444"/>
				<stop  offset="0.9964" style="stop-color:#F36F56"/>
			</linearGradient>
			<path style="fill:url(#SVGID_00000103265106618644816500000014134305154532298641_);" d="M2509.718,2005.325l-2.936-27.013
				l-15.564-29.67c-2.12-4.04-3.227-8.535-3.227-13.098v-29.462l18.791,43.456c0,0,12.332-11.158,17.03-13.507
				c4.698-2.349,4.11,7.047,0.587,10.571c-3.523,3.523,1.762,32.297-1.761,35.234l1.174,17.617L2509.718,2005.325z"/>
			
				<linearGradient id="SVGID_00000036940294704636148140000005086819774781586612_" gradientUnits="userSpaceOnUse" x1="1585.4642" y1="2076.8889" x2="2094.9746" y2="2076.8889" gradientTransform="matrix(1 0 0 1 1066.6564 0)">
				<stop  offset="0" style="stop-color:#FF9085"/>
				<stop  offset="1" style="stop-color:#FB6FBB"/>
			</linearGradient>
			<path style="fill:url(#SVGID_00000036940294704636148140000005086819774781586612_);" d="M2658.877,1833.264
				c14.614-35.735,45.981-56.287,62.247-66.945c38.486-25.216,63.125-20.613,151.507-34.06
				c117.788-17.921,131.886-34.903,171.473-21.141c52.001,18.078,79.162,65.281,91.609,86.911
				c62.75,109.051-10.615,164.477,8.222,381.704c7.692,88.716,27.416,165.81-19.967,211.405c-9.977,9.6-21.136,14.621-43.455,24.664
				c-88.516,39.828-167.877,32.962-216.103,28.188c-53.066-5.254-79.887-8.264-93.958-27.013
				c-22.476-29.949,0.661-68.013,4.698-133.89c2.899-47.296-7.855-84.774-29.362-159.728
				C2695.789,1949.105,2630.878,1901.729,2658.877,1833.264z"/>
			<g>
				<g>
					
						<linearGradient id="SVGID_00000151538107225452905080000012402665847686296511_" gradientUnits="userSpaceOnUse" x1="5039.7339" y1="1307.2146" x2="5234.6157" y2="1552.4005" gradientTransform="matrix(0.9663 0.2576 -0.2576 0.9663 -1677.6844 -923.8408)">
						<stop  offset="0" style="stop-color:#FFC444"/>
						<stop  offset="0.9964" style="stop-color:#F36F56"/>
					</linearGradient>
					<path style="fill:url(#SVGID_00000151538107225452905080000012402665847686296511_);" d="M2856.033,1667.979
						c-5.362-19.104,4.012-36.797,6.079-40.609c8.651-15.96,10.868-18.141,14.995-20.905l5.738-3.54c0,0,0.333-0.133,0.682-0.258
						c3.682-1.31,16.232-1.692,18.774-1.148c8.122,1.734,16.769,34.822,14.302,81.601c0.337,1.782,0.662,3.581,0.976,5.394
						c1.279,7.388,2.295,14.629,3.081,21.708c0.751,6.772,10.354,6.617,17.154,6.183c27.6-1.762,41.106,0.587,42.281,4.698
						c2.201,7.703-30.537,32.886-70.96,38.551c-54.251,0.403-98.383-5.373-93.64-13.916c2.106-3.793,44.141-14.776,55.962-25.662
						c10.824-9.969,9.942-20.26,10.833-27.628C2879.009,1690.744,2859.98,1682.054,2856.033,1667.979z"/>
					<path style="fill:#26264F;" d="M2866.012,1589.638c0.048,14.492,6.877,29.97,10.356,32.457
						c0.449,0.321,2.978,2.319,5.249,5.734c0.309,0.465,0.583,1.009,0.826,1.713c3.175,9.132-11.346,19.88-8.543,23.969
						c2.033,2.966,11.902-1.001,13.076,1.561c1.105,2.41-7.096,7.403-5.84,10.289c0.947,2.18,5.995,0.186,9.178,3.525
						c1.587,1.663,1.121,2.981,2.802,8.066c0.95,2.875,2.28,6.021,3.311,7.772c5.009,8.509,19.194,11.617,21.924,8.213
						c0.759-0.95,0.107-1.747,0.883-4.932c0,0,0.719-2.951,2.773-6.364c2.934-4.876,10.017-8.363,17.165-13.509
						c13.235-9.531,16.833-17.656,17.912-20.4c0.384-0.978,0.623-1.716,0.795-2.247c3.442-10.683,3.457-26.373-1.345-36.022
						c-8.045-16.164-26.193-8.49-41.047-24.505c-17.139-18.478-6.931-43.736-16.232-46.525
						C2889.003,1535.356,2865.923,1562.841,2866.012,1589.638z"/>
					
						<linearGradient id="SVGID_00000010296067166602652860000015949115069226912180_" gradientUnits="userSpaceOnUse" x1="5015.5112" y1="1252.6631" x2="5233.1001" y2="1526.4181" gradientTransform="matrix(0.9663 0.2576 -0.2576 0.9663 -1677.6844 -923.8408)">
						<stop  offset="0" style="stop-color:#FFC444"/>
						<stop  offset="0.9964" style="stop-color:#F36F56"/>
					</linearGradient>
					<path style="fill:url(#SVGID_00000010296067166602652860000015949115069226912180_);" d="M2879.108,1650.104
						c3.552-4.88,9.793-0.294,9.83,6.021c0.037,6.314-6.082,12.879-12.018,11.633
						C2870.984,1666.51,2874.328,1656.674,2879.108,1650.104z"/>
				</g>
				<path style="fill:#26264F;" d="M2881.989,1639.54l-8.24,10.72c0,0-8.884,13.133-14.07,5.939
					c-4.237-5.879-5.335-5.748-5.595-5.501c-0.049,0.046-0.063,0.117-0.074,0.114c-0.074-0.02,0.621-2.926,1.246-5.481
					c-2.194,3.149-5.217,8.257-7.048,15.13c-1.778,6.676-3.684,13.823,0.083,20.69c0.217,0.396,4.367,7.705,12.114,9.473
					c0,0,3.047,0.695,15.919-1.567c0,0-14.07-10.21-14.286-12.636c-0.583-6.595,8.564-10.16,15.355-23.681
					C2880.013,1647.524,2881.304,1642.794,2881.989,1639.54z"/>
			</g>
			
				<linearGradient id="SVGID_00000093855639966834218660000014063341232510037420_" gradientUnits="userSpaceOnUse" x1="1574.5676" y1="2032.962" x2="1886.9778" y2="2331.2781" gradientTransform="matrix(1 0 0 1 1066.6564 0)">
				<stop  offset="0" style="stop-color:#FF9085"/>
				<stop  offset="1" style="stop-color:#FB6FBB"/>
			</linearGradient>
			<path style="opacity:0.3;fill:url(#SVGID_00000093855639966834218660000014063341232510037420_);" d="M2910.214,2381.743
				c-15.612-31.085,22.644-72.406-2.349-119.796c-21.226-40.248-59.786-31.231-77.515-68.119
				c-21.414-44.554,25.157-77.853,23.489-145.635c-1.993-81.031-71.716-162.144-112.749-155.03
				c-26.549,4.601-29.959,44.209-48.638,87.569c16.528,36.243,35.84,81.651,53.336,142.628
				c21.507,74.955,32.26,112.433,29.362,159.728c-4.037,65.877-27.174,103.941-4.698,133.89
				c14.071,18.75,40.892,21.759,93.958,27.013c48.226,4.775,127.587,11.64,216.103-28.188c11.204-5.042,19.592-8.817,26.433-12.542
				C2968.656,2424.028,2922.596,2406.4,2910.214,2381.743z"/>
			
				<linearGradient id="SVGID_00000041259387372615023780000012993594683359871139_" gradientUnits="userSpaceOnUse" x1="1437.2697" y1="1956.2158" x2="1715.7714" y2="1956.2158" gradientTransform="matrix(1 0 0 1 1066.6564 0)">
				<stop  offset="0" style="stop-color:#FF9085"/>
				<stop  offset="1" style="stop-color:#FB6FBB"/>
			</linearGradient>
			<path style="fill:url(#SVGID_00000041259387372615023780000012993594683359871139_);" d="M2504.434,2000.039
				c8.613-3.719,17.225-7.438,25.838-11.157c14.556,14.888,33.123,29.364,48.741,24.664c23.28-7.006,17.459-49.833,45.804-125.081
				c32.116-85.259,68.555-107.173,86.911-115.098c10.252-4.427,17.331-7.365,25.838-5.286
				c39.148,9.57,52.091,111.584,41.107,187.916c-6.189,43.007-18.324,127.335-87.499,167.363
				c-9.827,5.687-63.917,36.986-117.447,12.333C2527.996,2114.629,2499.738,2060.593,2504.434,2000.039z"/>
		</g>
		<g>
			
				<linearGradient id="SVGID_00000096023204742014181670000016535316477909055655_" gradientUnits="userSpaceOnUse" x1="3324.8735" y1="-188.3403" x2="1939.9691" y2="1206.8605" gradientTransform="matrix(0.999 0.0445 -0.0445 0.999 -185.4776 -138.2787)">
				<stop  offset="0" style="stop-color:#FFC444"/>
				<stop  offset="0.9964" style="stop-color:#F36F56"/>
			</linearGradient>
			<path style="fill:url(#SVGID_00000096023204742014181670000016535316477909055655_);" d="M1344.084,1803.855l186.188,108.243
				l60.432,18.619l3.455-9.89l172.541-256.511l11.839-12.839l-46.589,2.543l-71.878,27.767c-8.791,3.396-15.732-1.062-15.474-9.97
				l56.862-294.954l-51.933-12.8l-93.638,31.718c-6.599,2.097-12.916,11.871-15.426,6.75c-2.515-5.126-1.168-12.459,3.428-18.687
				l227.581-308.428c5.917-8.024,16.814-10.815,22.314-5.748l191.721,176.453c3.512,3.232,4.267,9.229,1.924,15.309
				c-2.342,6.085-7.351,11.122-12.786,12.85l-84.086,26.722l-3.1,109.389l42.871,19.001l247.34-100.934
				c93.309-32.442,169.491-141.649,173.721-244.678c2.108-51.375-12.765-95.187-42.235-123.736
				c-15.599-15.108-2.825-21.427-23.326-25.82c-3.658-0.784-39.345-5.088-43.195-5.531c-16.048-1.847-33.191-0.627-51.004,3.806
				c-2.74,0.682-5.468,1.432-8.186,2.252c-21.571,6.611-39.765-7.12-41.246-31.144c-12.442-202.04-166.473-333.923-375-302.842
				c-173.718,25.892-347.504,161.327-433.514,348.545c-11.214,24.426-36.273,42.695-62.612,45.466
				c-20.037,2.1-40.746,5.912-61.549,11.356c-191.553,50.093-363.937,235.909-378.849,420.171
				c-8.12,100.332,30.014,181.247,105.652,226.6c73.509,44.089,170.872,47.741,272.501,12.406l225.349-78.35
				c9.666-3.361,17.249,1.458,16.976,10.752l-4.405,149.836c-0.273,9.301-8.312,19.859-17.994,23.599L1344.084,1803.855z"/>
			
				<linearGradient id="SVGID_00000147929542018203461420000008420286351993028511_" gradientUnits="userSpaceOnUse" x1="1388.4091" y1="1264.7687" x2="5280.9731" y2="1298.4081">
				<stop  offset="0" style="stop-color:#FFC444"/>
				<stop  offset="0.9964" style="stop-color:#F36F56"/>
			</linearGradient>
			<path style="fill:url(#SVGID_00000147929542018203461420000008420286351993028511_);" d="M2344.461,964.25
				c-29.391-28.704-70.191-38.547-115.325-27.154c-2.688,0.679-5.363,1.423-8.031,2.24c-21.16,6.571-39.004-7.007-40.452-30.795
				c-12.168-200.062-163.151-330.348-367.41-299.176c-170.003,25.944-339.954,160.158-424.038,345.336
				c-10.96,24.153-35.444,42.235-61.171,45c-19.569,2.094-39.791,5.883-60.106,11.282
				c-186.954,49.66-355.084,233.252-369.659,415.166c-7.937,99.049,29.213,178.948,102.946,223.767
				c71.684,43.587,166.68,47.262,265.895,12.415l220.169-77.329c9.448-3.319,16.86,1.448,16.592,10.638l-4.335,148.144
				c-0.27,9.195-8.13,19.628-17.594,23.317l-82.751,32.26l191.516,131.354l187.835-279.24l-70.353,27.427
				c-8.602,3.353-15.394-1.06-15.139-9.873l8.413-292.168l-95.569,30.71c-6.454,2.074-12.205,0.154-14.659-4.911
				c-2.457-5.07-1.14-12.32,3.357-18.479l222.749-305.193c5.795-7.945,16.465-10.715,21.849-5.706l187.78,174.523
				c3.44,3.198,4.179,9.136,1.882,15.155c-2.296,6.024-7.205,11.014-12.531,12.726l-82.396,26.476l-3.59,127.228l285.042-100.114
				c91.559-32.157,166.358-140.386,170.528-242.474C2387.98,1035.898,2373.384,992.503,2344.461,964.25z"/>
		</g>
		<g>
			<g>
				
					<linearGradient id="SVGID_00000009557318914977592830000006450926012354841751_" gradientUnits="userSpaceOnUse" x1="430.4406" y1="2935.2705" x2="61.2757" y2="2718.8992" gradientTransform="matrix(-0.9996 0.0299 0.0299 0.9996 1295.5205 -64.223)">
					<stop  offset="0" style="stop-color:#FF9085"/>
					<stop  offset="1" style="stop-color:#FB6FBB"/>
				</linearGradient>
				<path style="fill:url(#SVGID_00000009557318914977592830000006450926012354841751_);" d="M1121.392,2840.759
					c8.491,10.249,17.633,19.675,27.353,28.224c-0.73,1.072-1.448,2.156-2.102,3.305c-12.717,22.379-5.357,50.832,16.338,63.622
					c21.641,12.758,49.514,5.181,62.36-16.988c0.673-1.161,1.26-2.349,1.825-3.542c12.103,4.371,24.523,7.771,37.158,10.175
					c-0.132,1.31-0.242,2.627-0.265,3.965c-0.436,25.534,19.51,46.135,44.553,46.134c25.049-0.001,45.908-20.613,46.586-46.158
					c0.034-1.313-0.019-2.603-0.09-3.888c12.637-2.382,25.221-5.802,37.66-10.252c0.51,1.183,1.042,2.361,1.659,3.513
					c11.901,22.181,39.504,29.754,61.757,16.971c22.318-12.819,30.946-41.327,19.166-63.73c-0.611-1.163-1.292-2.262-1.986-3.346
					c10.339-8.738,19.94-18.177,28.741-28.245c1.021,0.749-13.373,7.525-12.272,8.193c21.465,13,65.397-0.772,79.21-23.417
					c13.88-22.752,7.721-51.982-13.865-65.215c-1.129-0.692-2.289-1.293-3.454-1.871c4.975-12.852,9.008-26.067,12.061-39.535
					c1.312,0.115,2.634,0.206,3.98,0.204c25.784-0.032,47.831-21.816,49.243-48.79c1.42-27.122-18.538-49.18-44.581-49.136
					c-1.332,0.003-2.647,0.101-3.958,0.216c-1.775-13.642-4.614-27.22-8.513-40.63c1.231-0.6,2.46-1.22,3.666-1.936
					c23.319-13.836,32.611-44.536,20.641-68.634c-12.026-24.212-40.881-32.473-64.334-18.388c-1.213,0.728-2.364,1.529-3.5,2.345
					c-8.41-11.023-17.568-21.198-27.397-30.458c0.802-1.167,1.594-2.348,2.319-3.601c14.203-24.51,7.577-55.96-14.918-70.168
					c-22.554-14.246-52.334-5.664-66.401,19.089c-0.733,1.291-1.375,2.61-1.995,3.933c-12.68-4.816-25.728-8.561-39.031-11.2
					c0.154-1.458,0.286-2.924,0.325-4.415c0.759-28.609-18.795-52.852-77.236-46.132c-26.765,3.078-18.466,17.807-18.955,46.403
					c-0.025,1.462,0.043,2.895,0.13,4.324c-13.285,2.679-26.481,6.506-39.487,11.463c-0.556-1.307-1.135-2.61-1.805-3.885
					c-12.965-24.655-36.475-45.82-90.361-13.415c-23.18,13.939-6.079,40.465,7.011,64.864c0.677,1.261,1.421,2.452,2.181,3.625
					c-10.415,9.47-20,19.657-28.695,30.474c-1.084-0.8-2.181-1.585-3.345-2.299c-22.747-13.946-51.834-5.564-64.855,18.646
					c-12.957,24.091-5.045,54.675,17.561,68.386c1.18,0.715,2.385,1.336,3.595,1.933c-4.395,13.258-7.801,26.817-10.189,40.559
					c-1.325-0.116-2.658-0.209-4.012-0.207c-25.908,0.045-46.716,22.112-46.481,49.153c0.234,26.894,21.213,48.561,46.866,48.528
					c1.314-0.002,2.605-0.097,3.892-0.209c2.425,13.308,5.876,26.482,10.337,39.426c-1.174,0.576-2.346,1.172-3.489,1.859
					c-22.058,13.248-29.456,42.416-16.634,65.089c12.763,22.571,40.812,30.266,62.756,17.246
					C1119.254,2842.259,1120.33,2841.516,1121.392,2840.759z M1167.611,2758.682c-46.244-83.999-17.912-193.656,64.794-244.136
					c83.61-51.033,188.792-21.045,233.406,66.132c43.866,85.713,11.804,193.33-70.16,241.2
					C1314.548,2869.245,1213.096,2841.299,1167.611,2758.682z"/>
				
					<linearGradient id="SVGID_00000026854539125100377790000007339276585571720100_" gradientUnits="userSpaceOnUse" x1="-14.7273" y1="2686.178" x2="66.0352" y2="2722.521" gradientTransform="matrix(-0.9996 0.0299 0.0299 0.9996 1295.5205 -64.223)">
					<stop  offset="0" style="stop-color:#FF9085"/>
					<stop  offset="1" style="stop-color:#FB6FBB"/>
				</linearGradient>
				<path style="fill:url(#SVGID_00000026854539125100377790000007339276585571720100_);" d="M1061.255,2719.524
					c-25.653,0.032-46.633-21.635-46.866-48.529c-0.234-27.041,20.573-49.108,46.481-49.152c1.354-0.002,2.687,0.092,4.012,0.207
					c2.387-13.743,5.793-27.3,10.189-40.559c-1.211-0.596-2.415-1.218-3.595-1.934c-22.606-13.71-51.171-49.426-35.985-72.21
					c29.019-43.539,60.532-28.767,83.279-14.821c1.164,0.714,2.261,1.499,3.345,2.299c8.696-10.817,18.28-21.003,28.696-30.474
					c-0.759-1.173-1.504-2.364-2.181-3.624c-7.116-13.265-7.965-28.589-3.592-42.133c22.353,37.258,44.256,74.441,65.621,111.604
					c-65.619,55.196-84.96,152.352-43.046,228.484c35.027,63.625,103.093,94.719,169.341,84.246
					c2.926,7.259,5.794,14.552,8.921,21.7c8.462,19.344,18.059,38.099,27.63,56.756c-6.113,1.65-12.248,3.063-18.396,4.223
					c0.071,1.286,0.125,2.576,0.09,3.889c-0.678,25.546-16.697,48.477-62.082,50.063c-25.09,0.877-29.492-24.503-29.057-50.038
					c0.023-1.338,0.133-2.654,0.264-3.964c-12.635-2.403-25.055-5.804-37.157-10.175c-0.565,1.193-1.152,2.38-1.825,3.542
					c-12.846,22.17-57.803,34.987-79.452,22.244c-21.702-12.775-11.963-46.499,0.754-68.877c0.653-1.149,1.372-2.233,2.102-3.306
					c-9.721-8.549-18.863-17.976-27.353-28.224c-1.062,0.758-2.138,1.501-3.277,2.175c-21.944,13.021-49.992,5.326-62.756-17.245
					c-12.821-22.673-5.424-51.842,16.635-65.089c1.144-0.688,2.315-1.284,3.49-1.859c-4.461-12.944-7.912-26.119-10.337-39.425
					C1063.861,2719.427,1062.569,2719.521,1061.255,2719.524z"/>
				
					<linearGradient id="SVGID_00000011002598757063707510000011425877294421836464_" gradientUnits="userSpaceOnUse" x1="-36.1578" y1="2563.1157" x2="350.6157" y2="3091.01" gradientTransform="matrix(-0.9996 0.0299 0.0299 0.9996 1295.5205 -64.223)">
					<stop  offset="0" style="stop-color:#FF9085"/>
					<stop  offset="1" style="stop-color:#FB6FBB"/>
				</linearGradient>
				<path style="fill:url(#SVGID_00000011002598757063707510000011425877294421836464_);" d="M1097.591,2845.536
					c8.51,10.237,17.67,19.653,27.404,28.193c-0.727,1.071-1.442,2.155-2.092,3.301c-12.652,22.355-5.228,50.778,16.482,63.554
					c21.656,12.744,49.491,5.177,62.274-16.968c0.669-1.159,1.253-2.346,1.815-3.537c12.105,4.366,24.525,7.763,37.157,10.164
					c-0.129,1.308-0.235,2.623-0.255,3.96c-0.373,25.507,19.609,46.085,44.635,46.085c25.032-0.001,45.824-20.59,46.439-46.107
					c0.031-1.312-0.026-2.6-0.1-3.885c12.621-2.379,25.188-5.795,37.608-10.24c0.512,1.182,1.046,2.359,1.666,3.509
					c11.947,22.158,39.548,29.724,61.755,16.955c22.271-12.806,30.823-41.281,18.995-63.66c-0.614-1.162-1.297-2.261-1.993-3.343
					c10.31-8.728,19.88-18.156,28.651-28.213c1.022,0.748,2.057,1.482,3.16,2.15c21.478,13.002,49.947,5.264,63.693-17.355
					c13.813-22.727,7.586-51.925-14.017-65.143c-1.13-0.693-2.29-1.293-3.456-1.869c4.939-12.838,8.937-26.038,11.954-39.491
					c1.312,0.115,2.633,0.206,3.979,0.205c25.764-0.033,47.741-21.792,49.085-48.735c1.352-27.092-18.647-49.125-44.67-49.082
					c-1.331,0.004-2.646,0.101-3.956,0.216c-1.807-13.627-4.678-27.189-8.607-40.584c1.229-0.598,2.454-1.219,3.658-1.934
					c23.268-13.82,32.477-44.485,20.456-68.555c-12.078-24.184-40.932-32.437-64.333-18.369c-1.21,0.728-2.359,1.528-3.491,2.343
					c-8.432-11.011-17.609-21.175-27.453-30.425c0.8-1.166,1.587-2.346,2.309-3.597c14.132-24.482,7.433-55.896-15.081-70.089
					c-22.573-14.23-52.31-5.658-66.304,19.066c-0.729,1.29-1.368,2.607-1.983,3.928c-12.683-4.811-25.731-8.552-39.03-11.189
					c0.149-1.456,0.278-2.92,0.314-4.409c0.688-28.576-20.385-51.796-47.067-51.714c-26.675,0.08-48.634,23.419-49.051,51.982
					c-0.021,1.46,0.05,2.892,0.14,4.32c-13.268,2.675-26.445,6.497-39.428,11.449c-0.559-1.306-1.141-2.607-1.814-3.88
					c-13.015-24.626-42.358-33.02-65.42-18.679c-22.992,14.297-30.882,45.696-17.742,70.067c0.68,1.259,1.427,2.449,2.189,3.621
					c-10.385,9.459-19.938,19.634-28.599,30.438c-1.085-0.799-2.183-1.583-3.349-2.296c-22.765-13.931-51.81-5.559-64.762,18.623
					c-12.888,24.063-4.907,54.613,17.715,68.309c1.181,0.715,2.386,1.335,3.597,1.931c-4.36,13.243-7.729,26.786-10.082,40.513
					c-1.325-0.115-2.656-0.208-4.01-0.207c-25.889,0.044-46.627,22.086-46.327,49.097c0.299,26.864,21.317,48.507,46.951,48.475
					c1.314-0.001,2.603-0.096,3.888-0.209c2.456,13.293,5.937,26.453,10.426,39.383c-1.172,0.575-2.342,1.171-3.483,1.857
					c-22.01,13.233-29.331,42.368-16.464,65.017c12.81,22.547,40.857,30.234,62.754,17.229
					C1095.459,2847.034,1096.532,2846.292,1097.591,2845.536z M1143.576,2763.55c-46.417-83.907-18.374-193.44,64.147-243.861
					c83.422-50.973,188.6-21.017,233.398,66.062c44.045,85.619,12.273,193.115-69.513,240.93
					C1290.677,2873.995,1189.231,2846.077,1143.576,2763.55z"/>
			</g>
		</g>
	</g>
</g>
</svg>
