<?xml version="1.0" encoding="utf-8"?>
<!-- Generator: Adobe Illustrator 27.5.0, SVG Export Plug-In . SVG Version: 6.00 Build 0)  -->
<svg version="1.1" xmlns="http://www.w3.org/2000/svg" xmlns:xlink="http://www.w3.org/1999/xlink" x="0px" y="0px"
	 viewBox="0 0 700 500" style="enable-background:new 0 0 700 500;" xml:space="preserve">

<g id="OBJECTS">
	<g>
		<rect x="552.93" y="326.346" style="fill:#353C8E;" width="103.402" height="74.603"/>
		<g>
			
				<rect x="503.86" y="298.219" transform="matrix(-1.836970e-16 1 -1 -1.836970e-16 923.6093 -123.4123)" style="fill:#FF92A4;" width="39.302" height="203.758"/>
			<g>
				<polygon style="fill:#FF5053;" points="679.325,400.098 665.841,395.186 665.841,405.011 				"/>
				<polygon style="fill:#FFE9CE;" points="665.841,395.186 625.39,380.447 625.39,419.75 665.841,405.011 				"/>
			</g>
			
				<rect x="518.598" y="298.219" transform="matrix(-1.836970e-16 1 -1 -1.836970e-16 923.6092 -123.4123)" style="fill:#F97D97;" width="9.825" height="203.758"/>
		</g>
		<rect x="375.626" y="376.585" style="fill:#353C8E;" width="111.499" height="52.107"/>
		<g>
			<g>
				<polygon style="fill:#142544;" points="432.977,435.128 418.131,435.128 474.696,156.001 487.125,156.001 				"/>
				<polygon style="fill:#142544;" points="528.844,435.128 543.689,435.128 487.125,156.001 474.696,156.001 				"/>
			</g>
			<rect x="368.021" y="166.875" style="fill:#F4F5FE;" width="237.446" height="233.43"/>
			<g>
				<rect x="383.568" y="166.875" style="fill:#7C87D8;" width="3.808" height="219.791"/>
				<rect x="586.112" y="166.875" style="fill:#7C87D8;" width="3.808" height="219.791"/>
				<g>
					<rect x="376.886" y="175.803" style="fill:#F6E5E8;" width="220.073" height="215.573"/>
					<rect x="376.528" y="175.803" style="fill:#4E51BF;" width="220.431" height="8.998"/>
				</g>
				<g>
					<g>
						<path style="fill:#FF92A4;" d="M584.089,360.714L584.089,360.714c-21.53,0-45.868-25.104-47.339-49.44l5.578-24.301
							C568.964,251.643,584.089,360.714,584.089,360.714z"/>
						<g>
							<path style="fill:#243172;" d="M558.032,207.859h-5.102h-5.102c0,0,0.638,8.716-15.093,15.093v11.479
								c0,0,7.548,14.03,7.548,28.91c0.917,0.917,2.165,1.68,3.523,2.311c5.754,2.671,12.494,2.671,18.247,0
								c1.357-0.63,2.606-1.394,3.523-2.311c0-14.88,7.548-28.91,7.548-28.91v-11.479
								C557.394,216.574,558.032,207.859,558.032,207.859z"/>
							<path style="fill:#243172;" d="M563.633,258.73h-21.63c0,0-14.924,13.303-11.548,52.543l0,0
								c14.445,5.256,30.28,5.256,44.725,0l0,0C578.556,272.033,563.633,258.73,563.633,258.73z"/>
						</g>
						<path style="fill:#F97D97;" d="M539.142,253.653c0,0-15.933,28.786-6.406,53.253c9.527,24.467,51.353,53.808,51.353,53.808
							s-0.408-74.559-16.747-97.137C551.315,253.965,539.142,253.653,539.142,253.653z"/>
						<path style="fill:#F97D97;" d="M566.086,219.317c0,0-6.878,9.675-20.796,27.967c4.684,10.322,22.052,2.568,22.052,2.568
							l3.152-9.595l2.631-17.305L566.086,219.317z"/>
						<path style="fill:#FF92A4;" d="M544.752,214.988l-12.016,7.963c0,0-8.048,46.803,34.606,40.625v-13.725
							C567.342,249.852,548.506,245.886,544.752,214.988z"/>
					</g>
					<g>
						<g>
							<path style="fill:none;stroke:#C56F60;stroke-width:0.5013;stroke-miterlimit:10;" d="M417.849,207.859h-28.451
								c0.148,30.826,24.946,55.81,55.695,56.28v-28.546C430.735,233.792,419.396,222.295,417.849,207.859z"/>
						</g>
						<path style="fill:none;stroke:#C56F60;stroke-width:0.5013;stroke-miterlimit:10;" d="M389.399,285.752
							c0,73.667,49.463,77.895,49.463,77.895v-77.895H389.399z"/>
						<path style="fill:none;stroke:#C56F60;stroke-width:0.4825;stroke-miterlimit:10;" d="M458.826,285.752
							c0,82.948,51.595,87.709,51.595,87.709v-87.709H458.826z"/>
						<polygon style="fill:none;stroke:#C56F60;stroke-width:0.5013;stroke-miterlimit:10;" points="466.313,264.139 
							486.676,207.859 510.421,207.859 510.421,264.139 						"/>
						<g>
							<g>
								
									<line style="fill:none;stroke:#C56F60;stroke-width:0.2506;stroke-miterlimit:10;" x1="510.296" y1="267.654" x2="466.438" y2="267.654"/>
								<g>
									<rect x="510.17" y="266.84" style="fill:#C56F60;" width="0.251" height="1.629"/>
								</g>
								<g>
									<rect x="466.313" y="266.84" style="fill:#C56F60;" width="0.251" height="1.629"/>
								</g>
							</g>
						</g>
						<g>
							<g>
								
									<line style="fill:none;stroke:#C56F60;stroke-width:0.2506;stroke-miterlimit:10;" x1="444.968" y1="267.654" x2="389.524" y2="267.654"/>
								<g>
									<rect x="444.843" y="266.84" style="fill:#C56F60;" width="0.251" height="1.629"/>
								</g>
								<g>
									<rect x="389.399" y="266.84" style="fill:#C56F60;" width="0.251" height="1.629"/>
								</g>
							</g>
						</g>
						<g>
							<g>
								
									<line style="fill:none;stroke:#C56F60;stroke-width:0.2506;stroke-miterlimit:10;" x1="513.926" y1="263.813" x2="513.926" y2="207.984"/>
								<g>
									<rect x="513.112" y="263.687" style="fill:#C56F60;" width="1.629" height="0.251"/>
								</g>
								<g>
									<rect x="513.112" y="207.859" style="fill:#C56F60;" width="1.629" height="0.251"/>
								</g>
							</g>
						</g>
						<g>
							<g>
								
									<line style="fill:none;stroke:#C56F60;stroke-width:0.2506;stroke-miterlimit:10;" x1="448.714" y1="263.813" x2="448.714" y2="236.024"/>
								<g>
									<rect x="447.899" y="263.687" style="fill:#C56F60;" width="1.629" height="0.251"/>
								</g>
								<g>
									<rect x="447.899" y="235.898" style="fill:#C56F60;" width="1.629" height="0.251"/>
								</g>
							</g>
						</g>
						<g>
							<g>
								
									<line style="fill:none;stroke:#C56F60;stroke-width:0.2506;stroke-miterlimit:10;" x1="442.482" y1="285.877" x2="442.482" y2="363.522"/>
								<g>
									<rect x="441.667" y="285.752" style="fill:#C56F60;" width="1.629" height="0.251"/>
								</g>
								<g>
									<rect x="441.667" y="363.397" style="fill:#C56F60;" width="1.629" height="0.251"/>
								</g>
							</g>
						</g>
						<g>
							<g>
								
									<line style="fill:none;stroke:#C56F60;stroke-width:0.2506;stroke-miterlimit:10;" x1="389.524" y1="282.423" x2="438.736" y2="282.423"/>
								<g>
									<rect x="389.399" y="281.609" style="fill:#C56F60;" width="0.251" height="1.629"/>
								</g>
								<g>
									<rect x="438.611" y="281.609" style="fill:#C56F60;" width="0.251" height="1.629"/>
								</g>
							</g>
						</g>
						<g>
							<g>
								
									<line style="fill:none;stroke:#C56F60;stroke-width:0.2506;stroke-miterlimit:10;" x1="513.926" y1="373.336" x2="513.926" y2="285.877"/>
								<g>
									<rect x="513.112" y="373.211" style="fill:#C56F60;" width="1.629" height="0.251"/>
								</g>
								<g>
									<rect x="513.112" y="285.752" style="fill:#C56F60;" width="1.629" height="0.251"/>
								</g>
							</g>
						</g>
						<g>
							<g>
								
									<line style="fill:none;stroke:#C56F60;stroke-width:0.2506;stroke-miterlimit:10;" x1="458.952" y1="282.423" x2="510.296" y2="282.423"/>
								<g>
									<rect x="458.826" y="281.609" style="fill:#C56F60;" width="0.251" height="1.629"/>
								</g>
								<g>
									<rect x="510.17" y="281.609" style="fill:#C56F60;" width="0.251" height="1.629"/>
								</g>
							</g>
						</g>
						<g>
							<g>
								
									<line style="fill:none;stroke:#C56F60;stroke-width:0.2506;stroke-miterlimit:10;" x1="510.241" y1="203.908" x2="487.028" y2="203.908"/>
								<g>
									<rect x="510.116" y="203.093" style="fill:#C56F60;" width="0.251" height="1.629"/>
								</g>
								<g>
									<rect x="486.903" y="203.093" style="fill:#C56F60;" width="0.251" height="1.629"/>
								</g>
							</g>
						</g>
					</g>
				</g>
			</g>
		</g>
		<g>
			<path style="fill:#656DCE;" d="M94.967,218.666H79.065c-10.799,0-19.553-8.754-19.553-19.553V169.69
				c0-10.799,8.754-19.553,19.554-19.553h15.902c2.306,0,4.175,1.869,4.175,4.176v60.178
				C99.143,216.796,97.273,218.666,94.967,218.666z"/>
			<g>
				<g>
					<path style="fill:#656DCE;" d="M389.233,282.903L389.233,282.903c4.433,0,8.026-3.594,8.026-8.026v-8.027h-16.053v8.027
						C381.207,279.31,384.801,282.903,389.233,282.903z"/>
					<path style="fill:#656DCE;" d="M389.233,312.842L389.233,312.842c0.95,0,1.72-0.77,1.72-1.72v-29.239h-3.44v29.239
						C387.513,312.072,388.283,312.842,389.233,312.842z"/>
				</g>
			</g>
			<g>
				<defs>
					<path id="XMLID_2_" d="M476.958,322.281H232.882c-5.283,0-9.566-4.283-9.566-9.565v-46.942
						c0-18.023,14.611-32.634,32.634-32.634h46.942c8.486,0,15.365,6.879,15.365,15.365l0,0c0,14.565,11.807,26.373,26.372,26.373
						h82.557c14.565,0,26.373-11.807,26.373-26.373v-41.737v-56.414c0-14.565-11.807-26.372-26.372-26.372h-82.557H196.943H94.321
						c-5.51,0-9.977,4.467-9.977,9.977v72.81v201.807c0,14.565,11.807,26.373,26.373,26.373h83.491h2.736h280.015
						c13.814,0,25.012-11.199,25.012-25.013v-62.64C501.971,333.479,490.772,322.281,476.958,322.281z"/>
				</defs>
				<use xlink:href="#XMLID_2_"  style="overflow:visible;fill:#7C87D8;"/>
				<clipPath id="XMLID_00000044169957990276164060000003200237776240566181_">
					<use xlink:href="#XMLID_2_"  style="overflow:visible;"/>
				</clipPath>
				<path style="clip-path:url(#XMLID_00000044169957990276164060000003200237776240566181_);fill:#656DCE;" d="M504.996,351.816
					H202.768c-9.191,0-16.643-7.451-16.643-16.643v-85.392c0-9.191,7.451-16.643,16.643-16.643h65.59
					c9.191,0,16.642,7.451,16.642,16.643v29.802c0,7.59,5.136,14.219,12.485,16.115l86.459,22.305
					c1.358,0.35,2.755,0.528,4.157,0.528h116.895c8.758,0,16.017,6.787,16.605,15.525l0,0
					C522.248,343.666,514.628,351.816,504.996,351.816z"/>
			</g>
			<path style="fill:#656DCE;" d="M320.894,169.387H220.679c-13.109,0-23.735-10.627-23.735-23.736V123.98h147.686v21.671
				C344.629,158.76,334.003,169.387,320.894,169.387z"/>
			<path style="fill:#656DCE;" d="M355.929,243.269h12.914c1.353,0,2.45-1.097,2.45-2.45v-5.23c0-1.353-1.097-2.45-2.45-2.45
				h-12.914c-1.353,0-2.45,1.097-2.45,2.45v5.23C353.479,242.172,354.576,243.269,355.929,243.269z"/>
			<path style="fill:#656DCE;" d="M332.46,243.269h12.914c1.353,0,2.45-1.097,2.45-2.45v-5.23c0-1.353-1.097-2.45-2.45-2.45H332.46
				c-1.353,0-2.45,1.097-2.45,2.45v5.23C330.01,242.172,331.107,243.269,332.46,243.269z"/>
			<g>
				<g>
					<polyline style="fill:#656DCE;" points="150.564,123.98 153.258,123.98 153.258,437.422 150.564,437.422 					"/>
				</g>
			</g>
			<g>
				<g>
					<polyline style="fill:#656DCE;" points="142.936,123.98 145.63,123.98 145.63,437.422 142.936,437.422 					"/>
				</g>
			</g>
			<g>
				
					<ellipse transform="matrix(0.9135 -0.4068 0.4068 0.9135 -143.8876 93.5947)" style="fill:#353C8E;" cx="148.16" cy="385.173" rx="31.957" ry="31.957"/>
				<path style="fill:#142544;" d="M131.15,385.173c0,9.394,7.615,17.009,17.009,17.009s17.01-7.615,17.01-17.009
					c0-9.394-7.616-17.01-17.01-17.01S131.15,375.779,131.15,385.173z"/>
				<path style="fill:#656DCE;" d="M148.16,150.897L148.16,150.897c-18.504,0-33.504,15-33.504,33.504v0
					c0,18.504,15,33.504,33.504,33.504h0c18.504,0,33.504-15,33.504-33.504v0C181.664,165.897,166.663,150.897,148.16,150.897z"/>
			</g>
			<g>
				<g>
					<polygon style="fill:#353C8E;" points="129.912,123.98 148.878,123.98 167.844,123.98 158.187,112.461 148.878,112.461 
						139.57,112.461 					"/>
					<polygon style="fill:#353C8E;" points="167.844,64.523 148.878,64.523 129.912,64.523 139.57,76.042 148.878,76.042 
						158.187,76.042 					"/>
				</g>
				
					<rect x="128.734" y="83.321" transform="matrix(6.123234e-17 -1 1 6.123234e-17 54.6268 243.1295)" style="fill:#353C8E;" width="40.289" height="21.861"/>
				<path style="fill:#F3A6B4;" d="M162.201,74.828v38.846c0,0.987-0.8,1.787-1.787,1.787h-23.072c-0.987,0-1.787-0.8-1.787-1.787
					V74.828c0-0.987,0.8-1.787,1.787-1.787h23.072C161.401,73.042,162.201,73.842,162.201,74.828z"/>
			</g>
			
				<polyline style="fill:none;stroke:#FF5053;stroke-width:0.749;stroke-linecap:round;stroke-linejoin:round;stroke-miterlimit:10;" points="
				135.555,73.042 162.201,80.293 135.555,87.21 162.201,92.788 135.555,103.35 162.201,108.741 135.555,115.461 			"/>
			
				<polyline style="fill:none;stroke:#FF5053;stroke-width:0.749;stroke-linecap:round;stroke-linejoin:round;stroke-miterlimit:10;" points="
				162.201,114.542 135.555,110.939 162.201,101.266 135.555,96.581 162.201,85.983 135.555,76.835 162.201,73.042 			"/>
		</g>
		<g>
			<rect x="182.29" y="368.164" style="fill:#353C8E;" width="215.577" height="72.875"/>
			<rect x="182.29" y="368.164" style="opacity:0.5;fill:#293277;" width="18.825" height="72.875"/>
			<rect x="215.107" y="368.164" style="opacity:0.5;fill:#293277;" width="18.826" height="72.875"/>
			<rect x="247.924" y="368.164" style="opacity:0.5;fill:#293277;" width="18.826" height="72.875"/>
			<rect x="280.741" y="368.164" style="opacity:0.5;fill:#293277;" width="18.825" height="72.875"/>
			<rect x="313.558" y="368.164" style="opacity:0.5;fill:#293277;" width="18.826" height="72.875"/>
			<rect x="346.375" y="368.164" style="opacity:0.5;fill:#293277;" width="18.826" height="72.875"/>
			<rect x="379.193" y="368.164" style="opacity:0.5;fill:#293277;" width="18.825" height="72.875"/>
		</g>
		<path style="fill:#F7A079;" d="M321.729,111.213c0,0,4.353,1.043,7.354,1.018c1.129-0.01,7.489-0.963,7.039-2.605
			c-0.213-0.778-5.596-0.243-5.596-0.243s3.337-3.314,7.164-6.316c3.827-3.002,2.414-2.961-1.543-3.524
			c-3.957-0.562-10.736,2.238-16.065,7.135"/>
		<path style="fill:#FF92A4;" d="M324.57,235.35c0,0-0.801,155.087,64.035,166.363c-19.935-56.07-20.752-159.299-20.752-159.299
			L324.57,235.35z"/>
		<g>
			<path style="fill:#FFFFFF;" d="M358.127,88.415h-8.671h-8.672c0,0,1.084,14.814-25.653,25.653v19.511
				c0,0,12.829,23.846,12.829,49.138c1.558,1.558,3.68,2.856,5.987,3.927c9.779,4.54,21.236,4.54,31.015,0
				c2.307-1.071,4.43-2.369,5.987-3.927c0-25.292,12.83-49.138,12.83-49.138v-19.511C357.043,103.229,358.127,88.415,358.127,88.415
				z"/>
			<path style="fill:#FFFFFF;" d="M349.429,331.357c-17.117,0-26.934,2.486-26.934,6.821h1.462c0-1.991,5.365-5.359,25.472-5.359
				c20.105,0,25.47,3.368,25.47,5.359h1.462C376.361,333.843,366.544,331.357,349.429,331.357z"/>
			<path style="fill:#FFFFFF;" d="M367.977,174.387h-37.043c0,0-25.558,22.783-19.777,89.986l0,0
				c24.739,9.001,51.858,9.001,76.597,0l0,0C393.535,197.169,367.977,174.387,367.977,174.387z"/>
			<rect x="347.83" y="240.888" style="fill:#142544;" width="3.252" height="195.261"/>
			<path style="fill:#142544;" d="M368.211,431.799c-7.994-13.442-18.755-14.76-18.755-14.76s-10.761,1.318-18.755,14.76
				c-7.994,13.442-16.603,14.76-16.603,14.76v1.845c0,0,13.103,0.11,18.989-9.243c1.569-2.493,3.479-4.839,5.787-6.867
				c6.064-5.327,10.582-5.503,10.582-5.503s4.518,0.176,10.582,5.503c2.308,2.027,4.218,4.374,5.787,6.867
				c5.885,9.353,18.989,9.243,18.989,9.243v-1.845C384.813,446.56,376.205,445.242,368.211,431.799z"/>
			<path style="fill:#142544;" d="M343.855,396.112c0,3.093,2.507,5.6,5.6,5.6c3.093,0,5.6-2.507,5.6-5.6c0-3.093-2.507-5.6-5.6-5.6
				C346.363,390.512,343.855,393.019,343.855,396.112z"/>
			<path style="fill:#142544;" d="M343.855,437.204c0,3.093,2.507,5.6,5.6,5.6c3.093,0,5.6-2.507,5.6-5.6c0-3.093-2.507-5.6-5.6-5.6
				C346.363,431.604,343.855,434.111,343.855,437.204z"/>
			<circle style="fill:#142544;" cx="349.456" cy="410.023" r="8.31"/>
			<g>
				
					<rect x="317.237" y="262.715" transform="matrix(0.9902 -0.1395 0.1395 0.9902 -38.849 47.2931)" style="fill:#FFFFFF;" width="1.471" height="76.174"/>
			</g>
			<g>
				
					<rect x="333.405" y="261.228" transform="matrix(0.9972 -0.0749 0.0749 0.9972 -21.7051 25.8675)" style="fill:#FFFFFF;" width="1.472" height="82.37"/>
			</g>
			<g>
				
					<rect x="342.851" y="300.067" transform="matrix(0.1387 -0.9903 0.9903 0.1387 30.211 636.3411)" style="fill:#FFFFFF;" width="76.174" height="1.471"/>
			</g>
			<g>
				
					<rect x="323.585" y="301.677" transform="matrix(0.0742 -0.9972 0.9972 0.0742 36.1338 643.7474)" style="fill:#FFFFFF;" width="82.37" height="1.472"/>
			</g>
			<path style="fill:#FFFFFF;" d="M349.427,344.999c17.117,0,26.934-2.486,26.934-6.821h-1.462c0,1.991-5.365,5.359-25.472,5.359
				c-20.105,0-25.47-3.368-25.47-5.359h-1.462C322.495,342.513,332.312,344.999,349.427,344.999z"/>
			<path style="fill:#F97D97;" d="M324.57,178.358c0,0-13.684,19.543-13.684,52.136s49.125,79.262,55.61,120.429
				c6.485,41.167,22.109,50.789,22.109,50.789s-7.976-45.432-2.354-94.494c5.622-49.063,6.468-78.387-2.471-101.797
				C346.867,209.65,324.57,178.358,324.57,178.358z"/>
			<g>
				<path style="fill:#FF92A4;" d="M371.54,173.032c-29.575-16.103-36.157-72.297-36.157-72.297l-20.252,13.334
					c0,0-0.551,46.953,14.117,74.816c5.187,9.853,16.437,15.301,27.201,12.452c7.008-1.855,13.127-6.84,15.798-14.532
					C373.761,182.443,373.889,177.762,371.54,173.032z"/>
				<path style="fill:#FF92A4;" d="M332.926,194.968C329.493,191.506,335.735,198.993,332.926,194.968L332.926,194.968z"/>
			</g>
		</g>
		<g>
			<g>
				<g>
					<polygon style="fill:#FF92A4;" points="98.338,341.803 65.367,341.803 32.396,341.803 49.185,361.829 65.367,361.829 
						81.549,361.829 					"/>
					<polygon style="fill:#FF92A4;" points="32.396,445.167 65.367,445.167 98.338,445.167 81.549,425.142 65.367,425.142 
						49.185,425.142 					"/>
				</g>
			</g>
			
				<rect x="30.347" y="374.483" transform="matrix(-1.836970e-16 1 -1 -1.836970e-16 458.8524 328.1183)" style="fill:#353C8E;" width="70.041" height="38.005"/>
			<path style="fill:#FF5053;" d="M42.206,427.251v-67.532c0-1.715,1.391-3.106,3.106-3.106h40.11c1.715,0,3.106,1.391,3.106,3.106
				v67.532c0,1.715-1.391,3.106-3.106,3.106h-40.11C43.597,430.357,42.206,428.967,42.206,427.251z"/>
			
				<polyline style="fill:none;stroke:#FF92A4;stroke-width:0.7355;stroke-linecap:round;stroke-linejoin:round;stroke-miterlimit:10;" points="
				42.206,363.135 88.528,373.735 42.206,383.845 88.528,391.999 42.206,407.439 88.528,415.319 42.206,425.142 			"/>
			
				<polyline style="fill:none;stroke:#FF92A4;stroke-width:0.7355;stroke-linecap:round;stroke-linejoin:round;stroke-miterlimit:10;" points="
				88.528,423.799 42.206,418.532 88.528,404.393 42.206,397.543 88.528,382.051 42.206,368.679 88.528,363.135 			"/>
		</g>
		<g>
			<rect x="196.828" y="300.108" style="fill:#243172;" width="115.51" height="70.041"/>
			
				<line style="fill:none;stroke:#353C8E;stroke-width:1.4711;stroke-miterlimit:10;" x1="196.828" y1="316.668" x2="311.932" y2="316.668"/>
			
				<line style="fill:none;stroke:#353C8E;stroke-width:1.4711;stroke-miterlimit:10;" x1="255.855" y1="370.15" x2="255.855" y2="316.668"/>
		</g>
		<g>
			<rect x="167.375" y="355.133" style="fill:#142544;" width="95.978" height="63.313"/>
			
				<line style="fill:none;stroke:#353C8E;stroke-width:1.4711;stroke-miterlimit:10;" x1="167.375" y1="363.59" x2="263.353" y2="363.59"/>
			
				<line style="fill:none;stroke:#353C8E;stroke-width:1.4711;stroke-miterlimit:10;" x1="167.375" y1="408.55" x2="263.353" y2="408.55"/>
			
				<line style="fill:none;stroke:#353C8E;stroke-width:1.4711;stroke-miterlimit:10;" x1="167.375" y1="386.07" x2="263.353" y2="386.07"/>
		</g>
		<g>
			<rect x="129.303" y="416.91" style="fill:#4957BA;" width="159.366" height="31.608"/>
			<rect x="128.599" y="416.91" style="fill:#243172;" width="160.774" height="11.783"/>
		</g>
		<g>
			<path style="fill:#243172;" d="M266.522,97.942c0,0-8.625,0.648-8.625,13.6c0,12.952,9.903,20.724,0,41.447
				c13.736,7.448,25.218,9.035,25.218,9.035s0.657-18.102,3.532-30.73C289.521,118.665,293.354,115.427,266.522,97.942z"/>
			<path style="fill:#F7A079;" d="M278.021,287.369c-6.771-13.86-12.139-29.708-7.083-60.693
				c-23.958-46.304-12.196-75.534-12.196-75.534s20.557-16.61,23.751,5.733c3.194,22.343,0.639,47.402,0.639,54.85
				c0,7.448,0,74.349,0,74.349s3.75,5.328,6.59,8.168c2.84,2.84,9.57,2.329,8.353,5.867c-5.275,0-22.315-0.717-22.315-0.717
				S272.91,292.48,278.021,287.369z"/>
			<polygon style="fill:#F7A079;" points="260.81,101.316 266.232,83.257 277.046,89.911 273.283,104.539 			"/>
			<g>
				<path style="fill:#F7A079;" d="M293.758,134.645c0,0-21.246-13.44-26.808-16.958c-0.927-0.586-1.65-1.291-2.212-2.059
					c-4.64-6.345,3.322-14.658,9.921-10.386c0.961,0.622,1.961,1.445,2.992,2.515c6.05,6.273,19.072,14.864,19.072,14.864
					l24.6-16.701l3.246,1.935C324.57,107.854,307.99,131.442,293.758,134.645z"/>
				<polygon style="fill:#243172;" points="277.046,105.798 293.962,118.364 285.504,129.983 273.283,117.89 				"/>
			</g>
			<polygon style="fill:#353C8E;" points="279.915,129.779 290.629,115.467 297.44,121.446 287.181,135.463 			"/>
			<path style="fill:#F6B28F;" d="M277.248,166.372l-19.352-13.383c0,0-2.093,3.455-4.191,9.849
				c-3.316,10.107-3.364,20.987-0.693,31.288c1.821,7.021,3.908,13.611,4.974,33.398c-12.298,17.122-17.246,41.666-18.823,51.586
				c-6.259,2.149-7.246,8.947-7.246,8.947s14.679,8.656,19.223,11.335c2.845-2.43-2.495-5.068-3.499-8.957
				c-0.855-3.314-2.144-8.304-2.507-9.711c7.622-12.565,26.149-43.614,26.756-49.493
				C272.655,223.822,277.248,166.372,277.248,166.372z"/>
			<g>
				<defs>
					<path id="XMLID_1_" d="M279.39,107.721c0,0-9.261,9.274-21.493,7.323c2.914,28.665-15.382,55.037-13.96,78.51
						c1.036,17.099,1.423,17.072,1.423,17.072s20.162,8.034,43.31,1.869C282.179,145.204,301.859,117.416,279.39,107.721z"/>
				</defs>
				<use xlink:href="#XMLID_1_"  style="overflow:visible;fill:#F4BACD;"/>
				<clipPath id="XMLID_00000129166654493774487650000012707897238018850219_">
					<use xlink:href="#XMLID_1_"  style="overflow:visible;"/>
				</clipPath>
				
					<path style="clip-path:url(#XMLID_00000129166654493774487650000012707897238018850219_);fill:none;stroke:#FF92A4;stroke-width:0.7355;stroke-miterlimit:10;" d="
					M240.843,199.413c0,0,23.076,11.021,50.39,1.445"/>
				
					<path style="clip-path:url(#XMLID_00000129166654493774487650000012707897238018850219_);fill:none;stroke:#FF92A4;stroke-width:0.7355;stroke-miterlimit:10;" d="
					M240.843,203.767c0,0,23.076,11.021,50.39,1.445"/>
			</g>
			<path style="fill:#F6B28F;" d="M288.183,139.049c0,0-17.828-17.726-22.494-22.366c-0.778-0.773-1.331-1.618-1.713-2.49
				c-3.154-7.2,6.421-13.59,11.936-7.989c0.803,0.815,1.601,1.836,2.376,3.104c4.546,7.435,15.396,18.645,15.396,18.645
				s15.277,8.243,29.601,18.89c-3.001,6.146-3.001,6.146-3.001,6.146S298.317,145.82,288.183,139.049z"/>
			<path style="fill:#243172;" d="M277.248,103.426c0,0,0,0,0-2.845c-5.453-5.453-17.832-6.876-17.832-6.876l-1.52,4.237
				c-11.904,11.904,1.349,33.766-9.255,44.37c-10.604,10.604-11.038,22.999-11.038,22.999s13.278,11.381,29.638,7.664
				c8.536-20.314,10.007-41.334,10.007-41.334l6.59,6.179l10.123-12.344L277.248,103.426z"/>
			<path style="fill:#142544;" d="M270.603,270.994l13.391-1.614v8.656c0,6.143,2.605,12.063,7.322,15.999
				c0.358,0.299,0.691,0.554,0.988,0.75c2.667,1.766,6.885,1.958,6.885,5.324h-24.407c0,0-0.855-2.38-0.641-6.535
				c0.225-4.385-0.294-8.78-1.296-13.056C271.66,275.46,270.603,270.994,270.603,270.994z"/>
			<path style="fill:#142544;" d="M242.266,260.444l12.318,5.495l-4.447,7.426c-3.156,5.271-3.963,11.687-1.938,17.488
				c0.154,0.44,0.308,0.83,0.462,1.151c1.381,2.886,4.901,5.218,3.172,8.105l-20.939-12.54c0,0,0.49-2.481,2.808-5.936
				c2.447-3.646,4.259-7.684,5.596-11.866C240.878,264.819,242.266,260.444,242.266,260.444z"/>
			<path style="fill:#F6B28F;" d="M260.788,76.623c-0.145-2.917,0.483-5.863,2.049-8.328c1.666-2.621,4.602-5.208,9.702-5.208
				c10.335,0,10.749,7.527,11.135,14.385c2.023,3.758,0.631,8.631-2.125,13.31c-0.777,1.319-2.294,2.021-3.806,1.785
				C272.623,91.771,264.077,90.438,260.788,76.623z"/>
			<path style="fill:#142544;" d="M264.788,88.37c0,0-13.857-3.784-8.513-21.619c-4.958,0-4.121-5.666-1.803-6.439
				c-1.839-5.988,6.571-12.746,13.264-6.053c5.537-0.257,5.473,4.894,5.473,4.894s12.501-1.958,13.297,10.17
				c-7.832,3.176-18.246-1.325-18.246-1.325S271.369,80.95,264.788,88.37z"/>
			<path style="fill:#F6B28F;" d="M269.325,83.634c0.052-2.157-0.976-4.192-2.616-5.594c-1.39-1.189-3.144-2.092-4.286-0.511
				c-2.144,2.967,2.265,9.17,5.174,8.801C268.905,86.163,269.294,84.934,269.325,83.634z"/>
			<path style="fill:#262425;" d="M275.859,78.025c0,0.589-0.358,1.017-0.8,1.017c-0.442,0-0.8-0.428-0.8-1.017
				c0-0.589,0.358-1.066,0.8-1.066C275.501,76.959,275.859,77.436,275.859,78.025z"/>
			<path style="fill:#262425;" d="M282.191,78.025c0,0.589-0.358,1.017-0.8,1.017c-0.442,0-0.8-0.428-0.8-1.017
				c0-0.589,0.358-1.066,0.8-1.066C281.832,76.959,282.191,77.436,282.191,78.025z"/>
			<path style="fill:#142544;" d="M273.467,75.592L273.467,75.592c0.185,0.427,0.72,0.586,1.096,0.313
				c0.276-0.201,0.612-0.404,0.973-0.526c0.313-0.106,0.538-0.379,0.538-0.709v-0.166c0-0.47-0.431-0.825-0.89-0.724
				c-0.489,0.108-1.1,0.383-1.615,1.05C273.401,75.047,273.357,75.34,273.467,75.592z"/>
			<path style="fill:#142544;" d="M282.79,75.694L282.79,75.694c-0.185,0.427-0.72,0.586-1.096,0.313
				c-0.276-0.201-0.612-0.404-0.973-0.525c-0.313-0.106-0.538-0.379-0.538-0.709v-0.166c0-0.47,0.431-0.825,0.89-0.724
				c0.489,0.108,1.1,0.383,1.615,1.05C282.856,75.15,282.9,75.442,282.79,75.694z"/>
			
				<path style="fill:none;stroke:#262425;stroke-width:0.3478;stroke-linecap:round;stroke-linejoin:round;stroke-miterlimit:10;" d="
				M278.674,77.322c0,0,0.529,1.995,1.861,4.191c1.332,2.196-0.836,1.695-0.836,1.695"/>
			<path style="fill:#FF5053;" d="M274.602,84.071c0,0,1.471,0.12,2.968,0.12c1.565,0,2.384,0.597,2.384,0.597
				s0.714-0.893,1.687,0.003C281.177,87.836,278.128,88.118,274.602,84.071z"/>
			<polygon style="fill:#353C8E;" points="278.878,133.713 290.499,120.128 296.907,126.536 285.759,139.857 			"/>
			<path style="fill:#353C8E;" d="M257.897,92.612l-0.831,6.23c0,0,13.531-0.36,21.813,6.735c0-4.402,0.577-6.105,0.577-6.105
				S273.531,92.612,257.897,92.612z"/>
			<path style="fill:#353C8E;" d="M267.097,143.919c-5.064,7.393-10.032,9.07-10.032,9.07l1.412,2.585
				c7.305-2.585,10.786-9.489,10.786-9.489L267.097,143.919z"/>
			<polygon style="fill:#1E2C60;" points="277.832,132.13 268.22,123.39 276.502,138.194 			"/>
			
				<path style="fill:none;stroke:#262425;stroke-width:0.3478;stroke-linecap:round;stroke-linejoin:round;stroke-miterlimit:10;" d="
				M274.74,84.071c0,0,4.712,2.092,6.777,0.845"/>
			
				<path style="fill:none;stroke:#262425;stroke-width:0.3478;stroke-linecap:round;stroke-linejoin:round;stroke-miterlimit:10;" d="
				M263.701,79.091c0,0,1.871-0.682,2.687,3.013c-0.768,1.2,0,1.967,0,1.967"/>
		</g>
		<path style="fill:#F6B28F;" d="M337.937,151.288c-4.702-1.976-8.996-4.403-8.996-4.403s5.592-0.95,5.592-1.796
			c0-1.785-6.697-0.987-7.841-0.684c-3.042,0.806-7.156,3.067-7.156,3.067l-0.409,5.043c6.747,3.476,14.38,4.43,18.225,2.765
			C341.199,153.614,342.639,153.264,337.937,151.288z"/>
		<g>
			<g>
				<polygon style="fill:#353C8E;" points="578.314,448.518 597.985,448.518 617.656,448.518 607.639,436.571 597.985,436.571 
					588.331,436.571 				"/>
				<polygon style="fill:#353C8E;" points="617.656,386.852 597.985,386.852 578.314,386.852 588.331,398.799 597.985,398.799 
					607.639,398.799 				"/>
			</g>
			
				<rect x="577.092" y="406.348" transform="matrix(6.123234e-17 -1 1 6.123234e-17 180.3 1015.6697)" style="fill:#353C8E;" width="41.786" height="22.673"/>
			<path style="fill:#142544;" d="M611.802,397.54v40.289c0,1.023-0.83,1.853-1.853,1.853H586.02c-1.023,0-1.853-0.83-1.853-1.853
				V397.54c0-1.023,0.83-1.853,1.853-1.853h23.929C610.973,395.687,611.802,396.517,611.802,397.54z"/>
			
				<polyline style="fill:none;stroke:#353C8E;stroke-width:0.7355;stroke-linecap:round;stroke-linejoin:round;stroke-miterlimit:10;" points="
				584.167,396.836 611.802,403.972 584.167,410.778 611.802,416.267 584.167,426.661 611.802,431.965 584.167,438.578 			"/>
			
				<polyline style="fill:none;stroke:#353C8E;stroke-width:0.7355;stroke-linecap:round;stroke-linejoin:round;stroke-miterlimit:10;" points="
				611.802,437.673 584.167,434.128 611.802,424.61 584.167,419.999 611.802,409.57 584.167,400.568 611.802,396.836 			"/>
		</g>
		<g>
			<path style="fill:#C6CEFB;" d="M100.165,399.344L100.165,399.344c-8.941,0-16.19,7.249-16.19,16.19v30.568h32.38v-30.568
				C116.355,406.592,109.107,399.344,100.165,399.344z"/>
			<path style="fill:#E2E5FF;" d="M83.492,448.518h33.347c1.335,0,2.416-1.082,2.416-2.416l0,0c0-1.335-1.082-2.416-2.416-2.416
				H83.492c-1.335,0-2.416,1.082-2.416,2.416l0,0C81.076,447.436,82.157,448.518,83.492,448.518z"/>
			
				<line style="fill:none;stroke:#E2E5FF;stroke-width:0.8659;stroke-miterlimit:10;stroke-dasharray:0.8659,2.5976;" x1="100.165" y1="401.198" x2="100.165" y2="442.398"/>
			<path style="fill:none;stroke:#E2E5FF;stroke-width:0.8659;stroke-miterlimit:10;stroke-dasharray:0.8659,2.5976;" d="
				M87.015,442.398v-27.657c0-7.479,5.888-13.543,13.151-13.543l0,0c7.263,0,13.151,6.063,13.151,13.543v27.657"/>
			<path style="fill:none;stroke:#E2E5FF;stroke-width:0.8659;stroke-miterlimit:10;stroke-dasharray:0.8659,2.5976;" d="
				M93.41,442.398v-34.089c0-3.927,3.092-7.111,6.905-7.111l0,0c3.814,0,6.905,3.184,6.905,7.111v34.089"/>
		</g>
	</g>
</g>
</svg>
