<?xml version="1.0" encoding="utf-8"?>
<!-- Generator: Adobe Illustrator 27.5.0, SVG Export Plug-In . SVG Version: 6.00 Build 0)  -->
<svg version="1.1" xmlns="http://www.w3.org/2000/svg" xmlns:xlink="http://www.w3.org/1999/xlink" x="0px" y="0px"
	 viewBox="0 0 750 500" style="enable-background:new 0 0 750 500;" xml:space="preserve">
<g id="BACKGROUND">
	<rect style="fill:#FDEDEE;" width="750" height="500"/>
</g>
<g id="OBJECTS">
	<g>
		<g>
			<g>
				<path style="fill:#352C38;stroke:#765E69;stroke-width:2.2844;stroke-miterlimit:10;" d="M534.726,429.148
					c0,4.206-3.409,7.615-7.615,7.615H155.512c-4.205,0-7.615-3.409-7.615-7.615V161.109c0-4.206,3.409-7.615,7.615-7.615h371.599
					c4.206,0,7.615,3.409,7.615,7.615V429.148z"/>
				<rect x="162.002" y="168.425" style="fill:#FFFFFF;" width="358.636" height="239.852"/>
			</g>
			<g>
				<path style="fill:#765E69;" d="M598.498,423.838h-7.615H91.74h-7.615c-2.103,0-3.807,1.705-3.807,3.807v8.376
					c0,0.348,0.062,0.679,0.15,1c0.849,5.469,5.565,9.661,11.273,9.661h499.143c5.707,0,10.423-4.191,11.273-9.661
					c0.088-0.321,0.149-0.652,0.149-1v-8.376C602.305,425.543,600.601,423.838,598.498,423.838z"/>
				<path style="opacity:0.4;fill:#352C38;" d="M275.912,423.838c0.833,7.827,7.454,13.925,15.502,13.925h99.795
					c8.048,0,14.668-6.098,15.502-13.925H275.912z"/>
			</g>
		</g>
		<path style="opacity:0.1;fill:#352C38;" d="M613.946,451.863c-0.756,0-1.504,0.005-2.255,0.008
			c3.44-1.073,5.259-2.181,5.259-3.317c0-9.375-123.038-16.975-274.814-16.975s-274.815,7.6-274.815,16.975
			c0,9.375,123.039,16.976,274.815,16.976c74.658,0,142.349-1.84,191.876-4.824c-1.98,1.035-3.062,2.126-3.062,3.253
			c0,6.68,37.159,12.096,82.996,12.096c45.837,0,82.996-5.415,82.996-12.096C696.942,457.279,659.784,451.863,613.946,451.863z"/>
	</g>
	<g>
		<g>
			<g>
				<g>
					<g>
						<g>
							<path style="fill:#352C38;" d="M592.998,438.293l-1.188,26.203c0,0-69.223,19.616-14.433-7.263l0.513-35.243L592.998,438.293
								z"/>
							<path style="opacity:0.3;fill:#161826;" d="M586.769,457.479c1.75-0.007,3.413-0.054,5.377-0.391l0.852-18.794
								l-15.109-16.303l-0.494,33.959C580.42,457.087,583.556,457.492,586.769,457.479z"/>
						</g>
						<g>
							<path style="fill:#FFFFFF;" d="M568.941,461.518c-24.835,13.153-7.996,10.543,7.014,7.053
								C574.505,465.37,572.298,462.666,568.941,461.518z"/>
							<g>
								<path style="fill:#FFFFFF;" d="M556.792,469.285c-6.355,7.107,35.075-4.508,35.075-4.508l0.065-1.511
									C588.63,464.186,558.753,472.399,556.792,469.285z"/>
							</g>
							<g>
								<path style="fill:none;stroke:#FFFFFF;stroke-width:0.9833;stroke-linecap:round;stroke-miterlimit:10;" d="
									M576.306,457.123c0,0,3.468-0.078,5.012,2.112"/>
								<path style="fill:none;stroke:#FFFFFF;stroke-width:0.9833;stroke-linecap:round;stroke-miterlimit:10;" d="
									M573.514,458.784c0,0,3.468-0.078,5.012,2.112"/>
								<path style="fill:none;stroke:#FFFFFF;stroke-width:0.9833;stroke-linecap:round;stroke-miterlimit:10;" d="
									M570.376,460.522c0,0,3.468-0.078,5.012,2.112"/>
							</g>
						</g>
					</g>
					<g>
						<g>
							<path style="fill:#352C38;" d="M636.744,437.3l2.635,26.102c0,0,70.206,15.933,14.011-8.014l-2.46-35.165L636.744,437.3z"/>
							<path style="opacity:0.3;fill:#161826;" d="M644.025,456.129c-1.748,0.085-3.411,0.126-5.391-0.106l-1.89-18.722
								l14.186-17.076l2.371,33.883C650.343,455.403,647.234,455.973,644.025,456.129z"/>
						</g>
						<g>
							<path style="fill:#FFFFFF;" d="M662.899,459.617c-3.335,1.077-5.906,4.101-4.581,7.512
								C672.417,469.461,685.643,470.279,662.899,459.617z"/>
							<g>
								<path style="fill:#FFFFFF;" d="M674.611,466.336c6.739,6.761-35.273-2.65-35.273-2.65l-0.148-1.505
									C642.538,462.924,672.825,469.549,674.611,466.336z"/>
							</g>
							<g>
								<path style="fill:none;stroke:#FFFFFF;stroke-width:0.9833;stroke-linecap:round;stroke-miterlimit:10;" d="
									M654.453,455.221c0,0-3.467,0.105-4.888,2.374"/>
								<path style="fill:none;stroke:#FFFFFF;stroke-width:0.9833;stroke-linecap:round;stroke-miterlimit:10;" d="
									M657.333,456.732c0,0-3.467,0.105-4.888,2.374"/>
								<path style="fill:none;stroke:#FFFFFF;stroke-width:0.9833;stroke-linecap:round;stroke-miterlimit:10;" d="
									M660.562,458.302c0,0-3.467,0.105-4.888,2.374"/>
							</g>
						</g>
					</g>
				</g>
				<g>
					<g>
						<path style="fill:#6F96BD;" d="M579.976,227.322c0,0-10.83,125.124-5.24,225.979c0,0,14.298,4.665,18.699,0.767
							c3.2-24.036,2.639-70.428,7.473-105.222c4.551-32.76,9.619-71.502,9.619-71.502l2.822,0.392c0,0,19.802,163.221,22.708,175.12
							c14.907,3.388,19.882-3.046,19.882-3.046s-5.845-191.904-10.853-223.627C638.523,184.619,579.976,227.322,579.976,227.322z"/>
						<path style="opacity:0.1;fill:#352C38;" d="M577.059,268.624c-2.735,45.228-5.911,119.949-2.323,184.677
							c0,0,14.298,4.665,18.699,0.767c3.2-24.036,2.639-70.428,7.473-105.222c4.255-30.625,8.96-66.474,9.555-71.017
							C598.79,276.432,587.46,273.69,577.059,268.624z"/>
					</g>
					<g>
						<path style="fill:#352C38;" d="M591.607,219.901c-6.909,3.979-11.632,7.422-11.632,7.422s-0.64,7.407-1.529,20.043
							c2.786,0.82,6.7,1.874,11.438,2.895C590.376,240.136,590.909,230.014,591.607,219.901z"/>
						<path style="fill:#352C38;" d="M627.949,208.094c-9.264-0.743-20.578,3.573-29.893,8.309
							c-0.851,11.678-1.46,23.369-2.024,35.063c9.492,1.683,21.194,2.913,33.434,2.217
							C629.038,238.486,628.407,223.291,627.949,208.094z"/>
						<path style="fill:#352C38;" d="M635.669,253.157c3.918-0.439,7.861-1.084,11.778-2.009
							c-0.791-11.292-1.587-20.051-2.362-24.965c-1.459-9.238-5.49-14.302-10.871-16.609
							C634.664,224.101,635.257,238.628,635.669,253.157z"/>
					</g>
					<g>
						<path style="fill:#88BBE5;" d="M634.654,452.658c0,0,11.572,5.479,23.42-3.172l-0.827-9.516c0,0-9.644,2.883-23.971,2.883
							L634.654,452.658z"/>
						<path style="fill:#88BBE5;" d="M594.35,454.965c0,0-8.939,3.748-21.922-2.776l-0.051-10.194c0,0,9.388,2.317,22.959,1.199
							L594.35,454.965z"/>
					</g>
				</g>
			</g>
			<g>
				<g>
					<path style="fill:#FFAC9D;" d="M636.81,94.445c0,0-7.843,27.053,3.124,31.691c10.967,4.638,32.627,6.054,33.034,26.289
						c0.406,20.235-96.265-1.074-96.265-1.074s-0.108-22.671,19.058-24.444c19.167-1.773,14.495-3.993,15.911-25.653
						S636.81,94.445,636.81,94.445z"/>
					<path style="fill:#DD938A;" d="M634.267,115.953c-4.109,4.013-8.977,7.048-14.953,7.945c-3.512,0.528-7.333,0.655-11.168,0.339
						c4.319-2.803,2.586-8.613,3.525-22.983c1.416-21.66,25.139-6.809,25.139-6.809S633.307,106.549,634.267,115.953z"/>
				</g>
				<g>
					<path style="fill:#FFAC9D;" d="M635.784,105.622c0,0,17.346-22.858,2.814-41.914c-14.532-19.056-32.525-7.82-35.772,4.094
						c-3.247,11.915-14.433,47.31,7.272,49.253C631.803,118.999,635.784,105.622,635.784,105.622z"/>
					<g>
						<g>
							<path style="fill:#352C38;" d="M596.921,41.897l1.926,4.763c0,0,1.923-6.295,6.686-8.221c0,0-1.931,7.015,5.65,6.994
								c7.581-0.02,24.838-8.443,31.757,8.057c7.312,17.436-8.387,4.16-7.625,5.833c2.523-0.36,7.477-8.567,14.246-2.773
								c7.507,6.426,8.294,33.697-14.526,51.962l3.001-9.926c0,0,2.477,1.619,5.243-2.22c4.792-6.653,1.789-10.422-1.34-9.332
								c-3.129,1.091-4.08,8.029-4.08,8.029l-2.41-0.223l2.626-14.793c-4.962-4.06-1.276-13.712-1.276-13.712
								s-24.51,5.558-37.039-0.816C580.866,55.909,596.921,41.897,596.921,41.897z"/>
						</g>
						<path style="fill:#FFAC9D;" d="M636.438,103.527c0,0,7.054,0.468,9.141-9.064c2.087-9.531-4.007-10.587-6.224-4.772
							C637.138,95.505,636.438,103.527,636.438,103.527z"/>
					</g>
				</g>
				<g>
					<path style="fill:#FFFFFF;" d="M604.402,99.8l19.874,3.227C624.277,103.027,609.674,112.585,604.402,99.8z"/>
					<g>
						<path style="fill:#E27C71;" d="M615,82.085c-0.139,1.188-0.423,2.333-0.754,3.462c-0.343,1.125-0.76,2.225-1.231,3.307
							c-0.259,0.532-0.508,1.066-0.792,1.591c-0.264,0.532-0.604,1.031-0.917,1.542c-0.336,0.506-0.701,0.993-1.127,1.458
							c-0.19,0.237-0.452,0.459-0.687,0.676c-0.229,0.218-0.577,0.396-0.858,0.579l-0.035-1.162
							c0.591,0.359,1.161,0.758,1.732,1.155c0.566,0.407,1.128,0.823,1.664,1.291c-0.695-0.15-1.364-0.353-2.029-0.564
							c-0.66-0.221-1.32-0.441-1.961-0.701l-0.794-0.322l0.759-0.84c0.166-0.184,0.34-0.289,0.497-0.508
							c0.155-0.212,0.337-0.372,0.482-0.611c0.149-0.228,0.312-0.432,0.449-0.675c0.137-0.241,0.296-0.465,0.441-0.7
							c0.284-0.483,0.551-0.973,0.829-1.468c0.288-0.485,0.545-0.995,0.816-1.496c0.551-1,1.094-2.014,1.668-3.02
							c0.297-0.499,0.576-1.008,0.889-1.504C614.337,83.071,614.665,82.579,615,82.085z"/>
					</g>
					<g>
						<path style="fill:#E27C71;" d="M639.362,100.028c0.258-0.419,0.42-0.934,0.258-1.342c-0.082-0.199-0.221-0.364-0.402-0.489
							c-0.176-0.131-0.384-0.226-0.598-0.31l-0.202-0.079l0.051-0.238c0.264-1.222,0.614-2.413,1.03-3.593
							c0.436-1.171,0.91-2.336,1.632-3.419c0.177-0.272,0.383-0.536,0.625-0.781c0.242-0.241,0.531-0.484,0.943-0.607
							c0.223-0.048,0.416-0.073,0.693,0.012c0.154,0.073,0.26,0.07,0.469,0.233c0.402,0.262,0.527,0.639,0.619,0.987
							c0.066,0.352,0.056,0.693,0.007,1.015c-0.039,0.325-0.121,0.634-0.219,0.936c-0.201,0.6-0.445,1.177-0.764,1.713
							c0.165-0.599,0.324-1.194,0.404-1.796c0.074-0.595,0.12-1.21-0.034-1.715c-0.077-0.23-0.222-0.466-0.367-0.522
							c-0.02-0.058-0.24-0.094-0.368-0.141c-0.021-0.002-0.144-0.002-0.219,0.026c-0.381,0.137-0.759,0.644-1.069,1.115
							c-0.62,0.993-1.107,2.12-1.566,3.245c-0.463,1.127-0.887,2.283-1.3,3.434l-0.15-0.316c0.236,0.13,0.47,0.271,0.67,0.471
							c0.199,0.197,0.352,0.459,0.407,0.738C640.016,99.185,639.716,99.689,639.362,100.028z"/>
					</g>
					<path style="fill:#352C38;" d="M625.705,86.663c-0.373,1.936-1.264,3.392-1.99,3.252c-0.726-0.14-1.012-1.823-0.639-3.759
						c0.373-1.936,1.264-3.392,1.99-3.252C625.792,83.044,626.078,84.727,625.705,86.663z"/>
					
						<ellipse transform="matrix(0.1892 -0.9819 0.9819 0.1892 410.7437 665.1381)" style="fill:#352C38;" cx="608.134" cy="83.851" rx="3.57" ry="1.339"/>
					<g>
						<path style="fill:#352C38;" d="M619.311,79.971c0,0,0.172-1.028,1.13-2.25c0.244-0.299,0.528-0.615,0.885-0.903
							c0.333-0.312,0.774-0.555,1.227-0.802c0.483-0.205,0.997-0.412,1.571-0.467c0.562-0.137,1.149-0.023,1.729,0.008
							c0.535,0.178,1.134,0.27,1.588,0.566c0.467,0.27,0.954,0.517,1.294,0.873c0.355,0.341,0.734,0.641,0.985,1
							c0.259,0.354,0.492,0.693,0.695,1.009c0.219,0.305,0.332,0.638,0.455,0.916c0.124,0.276,0.209,0.53,0.282,0.733
							c0.144,0.41,0.198,0.654,0.198,0.654s-0.23-0.127-0.584-0.368c-0.176-0.121-0.393-0.263-0.616-0.44
							c-0.234-0.167-0.472-0.38-0.771-0.554c-0.288-0.187-0.588-0.391-0.891-0.613c-0.297-0.233-0.66-0.37-0.983-0.585
							c-0.321-0.235-0.694-0.319-1.033-0.493c-0.169-0.098-0.35-0.135-0.526-0.176l-0.526-0.148
							c-0.352-0.003-0.702-0.117-1.054-0.057c-0.354-0.009-0.702,0.078-1.057,0.138c-0.341,0.114-0.703,0.182-1.024,0.341
							c-0.336,0.125-0.648,0.282-0.946,0.431c-0.591,0.303-1.099,0.603-1.454,0.827C619.52,79.84,619.311,79.971,619.311,79.971z"/>
					</g>
					<g>
						<path style="fill:#352C38;" d="M603.428,78.355c0,0,0.097-1.006,0.937-2.256c0.219-0.303,0.468-0.632,0.797-0.933
							c0.303-0.325,0.716-0.589,1.142-0.86c0.463-0.224,0.953-0.461,1.518-0.539c0.547-0.159,1.133-0.07,1.703-0.051l0.814,0.22
							l0.4,0.122l0.354,0.187c0.465,0.252,0.934,0.499,1.268,0.841c0.345,0.329,0.723,0.615,0.959,0.968
							c0.253,0.342,0.48,0.67,0.678,0.975c0.214,0.294,0.318,0.621,0.44,0.888c0.12,0.267,0.204,0.513,0.275,0.711
							c0.14,0.397,0.192,0.635,0.192,0.635s-0.227-0.119-0.575-0.345c-0.173-0.114-0.386-0.247-0.606-0.414
							c-0.231-0.156-0.462-0.362-0.755-0.525c-0.282-0.176-0.575-0.368-0.871-0.578c-0.285-0.231-0.641-0.348-0.954-0.552
							c-0.313-0.221-0.666-0.304-0.993-0.459l-0.248-0.109c-0.086-0.013-0.169-0.032-0.252-0.051l-0.497-0.128
							c-0.329,0.005-0.658-0.092-0.985-0.021c-0.331,0.001-0.655,0.106-0.989,0.174c-0.318,0.13-0.659,0.213-0.96,0.383
							c-0.317,0.136-0.607,0.309-0.887,0.466c-0.552,0.326-1.03,0.641-1.363,0.877C603.624,78.218,603.428,78.355,603.428,78.355z"
							/>
					</g>
				</g>
			</g>
			<g>
				<g>
					<path style="fill:#F3FAFF;" d="M602.368,148.504c2.465-6.728,0.632-19.373,0.632-19.373l-31.43,2.018l-25.086,42.099
						l-25.951-27.97c0,0-13.205,4.857-13.841,11.534c0,0,33.16,53.921,43.252,53.921
						C556.632,210.734,600.627,153.257,602.368,148.504z"/>
					<g>
						<path style="fill:#FFAC9D;" d="M524.281,155.948c0,0-8.074-11.822-11.246-12.111c-3.172-0.288-23.068,0.865-23.068,0.865
							s-15.282-10.381-2.595,2.307l6.92,1.153h-8.362c0,0-4.902-4.037-6.92-3.46c-2.018,0.577,6.92,6.632,6.92,6.632
							s-9.227-3.46-8.939-2.018c0.288,1.442,7.785,5.19,10.957,6.055c3.172,0.865,18.166-1.442,18.166-1.442l10.669,10.669
							L524.281,155.948z"/>
						<g>
							<path style="fill:#FFFFFF;" d="M602.368,148.504c2.465-6.728,0.632-19.373,0.632-19.373l-31.43,2.018l-25.086,42.099
								l-25.951-27.97c0,0-13.205,4.857-13.841,11.534c0,0,33.16,53.921,43.252,53.921
								C556.632,210.734,600.627,153.257,602.368,148.504z"/>
							<path style="fill:#EAF5F9;" d="M603,129.131l-31.43,2.018l-15.258,25.605c2.036,6.616,4.841,13.015,8.251,18.428
								c2.632,4.179,5.707,8.019,8.973,11.708c13.542-16.41,27.853-35.717,28.831-38.387C604.833,141.776,603,129.131,603,129.131z"
								/>
						</g>
					</g>
				</g>
				<g>
					<g>
						<g>
							<path style="fill:#FFFFFF;" d="M642.151,125.653c0,0-9.254,9.644-25.021,9.245c-13.372-0.339-15.859-9.516-15.859-9.516
								s-26.406-1.607-29.7,5.767c-3.294,7.374-0.577,33.16-0.577,33.16s3.931,68.043,4.325,86.216c0,0,12.012,12.872,26.528,13.841
								c1.785,0.119,1.892-14.8,3.764-14.703c1.134,0.059,4.306,14.943,5.463,14.991c13.908,0.582,35.084-7.436,37.485-13.264
								c0,0,4.338-87.813,11.846-118.642L642.151,125.653z"/>
						</g>
					</g>
					<g>
						<polygon style="fill:#765E69;" points="609.055,139.079 612.659,144.991 599.252,221.691 607.469,233.513 618.716,224.43 
							619.868,145.567 628.086,136.917 621.743,132.015 612.948,130.861 						"/>
						<g>
							<path style="fill:#EAF5F9;" d="M598.963,124.229c0,0-1.442,8.506,9.371,20.617l7.312-13.632l-11.781-10.734L598.963,124.229z
								"/>
							<path style="fill:#EAF5F9;" d="M637.025,117.021l-18.959,14.354l7.136,13.904c0,0,12.558-9.263,16.948-19.626
								L637.025,117.021z"/>
						</g>
					</g>
				</g>
				<g>
					<g>
						<path style="fill:#FFAC9D;" d="M673.148,144.177c0,0,29.385,46.663,26.536,54.634c-2.849,7.971-41.255,43.572-46.978,43.243
							c-5.723-0.328-5.79-7.509-5.79-7.509s-23.904,16.335-0.79-2.916c0,0-31.058,15.925-1.157-4.851c0,0-28.999,5.037,1.145-3.284
							c0,0-22.334-2.715,2.971-1.744l3.406,7.373l24.751-31.12l-30.749-39.563L673.148,144.177z"/>
					</g>
					<path style="fill:#FFFFFF;" d="M696.288,181.031c-8.856-15.55-24.503-42.503-28.371-45.766
						c-5.477-4.62-25.767-9.611-25.767-9.611l-0.224,33.755l32.583,37.485l-21.914,29.411c0,0,4.325,10.38,10.38,13.264
						c0,0,41.522-38.927,41.522-43.541C704.499,193.108,699.765,185.918,696.288,181.031z"/>
				</g>
			</g>
		</g>
		<g>
			<g>
				<path style="fill:#FFA65B;" d="M562.002,116.354c0,2.173-1.761,3.934-3.934,3.934H436.909c-2.173,0-3.934-1.761-3.934-3.934
					V53.315c0-2.173,1.761-3.934,3.934-3.934h121.159c2.173,0,3.934,1.761,3.934,3.934V116.354z"/>
				<polygon style="fill:#FFA65B;" points="490.714,112.414 498.442,137.026 504.881,109.337 				"/>
			</g>
			<rect x="431.164" y="68.126" style="fill:none;" width="132.649" height="45.719"/>
			<text transform="matrix(1 0 0 1 447.3717 101.9696)" style="fill:#FFFFFF; font-family:'Raleway-Black'; font-size:46.3629px;">CMS</text>
		</g>
	</g>
	<g>
		<g>
			<g>
				<g>
					<g>
						<path style="fill:#FFA65B;" d="M447.35,214.385c0,1.948-1.579,3.527-3.527,3.527h-35.27c-1.948,0-3.527-1.579-3.527-3.527
							v-35.27c0-1.948,1.579-3.527,3.527-3.527h35.27c1.948,0,3.527,1.579,3.527,3.527V214.385z"/>
					</g>
				</g>
			</g>
			<g>
				
					<rect x="412.31" y="191.593" style="fill:none;stroke:#FFFFFF;stroke-width:3.3987;stroke-linecap:round;stroke-linejoin:round;stroke-miterlimit:10;" width="27.614" height="18.541"/>
				<g>
					
						<line style="fill:none;stroke:#FFFFFF;stroke-width:3.3987;stroke-linecap:round;stroke-linejoin:round;stroke-miterlimit:10;" x1="426.511" y1="202.639" x2="426.511" y2="181.336"/>
					
						<polyline style="fill:none;stroke:#FFFFFF;stroke-width:3.3987;stroke-linecap:round;stroke-linejoin:round;stroke-miterlimit:10;" points="
						420.2,186.07 426.117,180.153 432.231,186.267 					"/>
				</g>
			</g>
		</g>
		<g>
			<path style="fill:#6F96BD;" d="M505.251,296.611c0,1.797-1.033,3.254-2.307,3.254h-71.069c-1.274,0-2.307-1.457-2.307-3.254
				v-67.032c0-1.797,1.033-3.254,2.307-3.254h71.069c1.274,0,2.307,1.457,2.307,3.254V296.611z"/>
			<g>
				<polygon style="fill:none;stroke:#FFFFFF;stroke-width:3.5725;stroke-miterlimit:10;" points="495.331,281.596 441.978,281.596 
					458.432,241.706 470.898,265.64 478.377,258.659 				"/>
				<circle style="fill:none;stroke:#FFFFFF;stroke-width:3.5725;stroke-miterlimit:10;" cx="479.655" cy="245.04" r="6.731"/>
			</g>
		</g>
		<g>
			<circle style="fill:#6F96BD;" cx="321.447" cy="78.59" r="38.153"/>
			<g>
				<circle style="fill:none;stroke:#FFFFFF;stroke-width:2.5757;stroke-miterlimit:10;" cx="321.447" cy="78.59" r="27.045"/>
				<path style="fill:none;stroke:#FFFFFF;stroke-width:2.5757;stroke-miterlimit:10;" d="M301.818,59.073
					c4.929,5.198,11.9,8.441,19.63,8.441c7.207,0,13.757-2.819,18.604-7.416"/>
				<path style="fill:none;stroke:#FFFFFF;stroke-width:2.5757;stroke-miterlimit:10;" d="M340.051,98.423
					c-4.929-5.198-11.9-8.441-19.629-8.441c-7.207,0-13.757,2.819-18.604,7.415"/>
				
					<ellipse style="fill:none;stroke:#FFFFFF;stroke-width:2.5757;stroke-miterlimit:10;" cx="321.447" cy="78.59" rx="15.647" ry="27.045"/>
				
					<line style="fill:none;stroke:#FFFFFF;stroke-width:2.5757;stroke-miterlimit:10;" x1="321.447" y1="51.545" x2="321.447" y2="105.635"/>
				
					<line style="fill:none;stroke:#FFFFFF;stroke-width:2.5757;stroke-miterlimit:10;" x1="294.402" y1="78.59" x2="348.492" y2="78.59"/>
			</g>
		</g>
		<g>
			<path style="fill:#FFA65B;" d="M267.87,178.249c0,1.902-1.542,3.444-3.444,3.444H192.11c-1.902,0-3.444-1.542-3.444-3.444
				v-72.316c0-1.902,1.542-3.444,3.444-3.444h72.316c1.902,0,3.444,1.542,3.444,3.444V178.249z"/>
			<g>
				<path style="fill:#FFFFFF;" d="M198.955,139.216l15.63-9.511v7.447l-5.456,3.503l5.456,3.207v7.815l-15.63-9.216V139.216z"/>
				<path style="fill:#FFFFFF;" d="M238.559,124.028l-15.667,36.127h-7.704l15.63-36.127H238.559z"/>
				<path style="fill:#FFFFFF;" d="M257.581,142.46l-15.63,9.216v-7.815l5.456-3.207l-5.456-3.503v-7.447l15.63,9.511V142.46z"/>
			</g>
		</g>
		<g>
			
				<ellipse transform="matrix(0.3915 -0.9202 0.9202 0.3915 -51.1374 583.5739)" style="fill:#FFA65B;" cx="415.648" cy="330.45" rx="36.945" ry="36.945"/>
			<g>
				
					<ellipse transform="matrix(0.7071 -0.7071 0.7071 0.7071 -112.0099 390.4841)" style="fill:none;stroke:#FFFFFF;stroke-width:3.8636;stroke-miterlimit:10;" cx="415.351" cy="330.45" rx="25.113" ry="25.113"/>
				
					<ellipse transform="matrix(0.7071 -0.7071 0.7071 0.7071 -112.0099 390.4841)" style="fill:none;stroke:#FFFFFF;stroke-width:3.8636;stroke-miterlimit:10;" cx="415.351" cy="330.45" rx="13.523" ry="13.523"/>
				<g>
					
						<line style="fill:none;stroke:#FFFFFF;stroke-width:3.8636;stroke-miterlimit:10;" x1="415.351" y1="298.652" x2="415.351" y2="322.156"/>
					
						<line style="fill:none;stroke:#FFFFFF;stroke-width:3.8636;stroke-miterlimit:10;" x1="415.351" y1="339.22" x2="415.351" y2="362.724"/>
				</g>
				<g>
					
						<line style="fill:none;stroke:#FFFFFF;stroke-width:3.8636;stroke-miterlimit:10;" x1="383.315" y1="330.688" x2="406.819" y2="330.688"/>
					
						<line style="fill:none;stroke:#FFFFFF;stroke-width:3.8636;stroke-miterlimit:10;" x1="423.883" y1="330.688" x2="447.387" y2="330.688"/>
				</g>
			</g>
		</g>
		<g>
			<path style="fill:#FFA65B;" d="M298.944,379.466c0,2.667-2.162,4.829-4.829,4.829H99.004c-2.667,0-4.829-2.162-4.829-4.829
				V251.002c0-2.667,2.162-4.829,4.829-4.829h195.111c2.667,0,4.829,2.162,4.829,4.829V379.466z"/>
			<g>
				<g>
					<circle style="fill:#FFFFFF;" cx="116.859" cy="301.555" r="11.5"/>
					
						<line style="fill:none;stroke:#FFFFFF;stroke-width:3;stroke-linecap:round;stroke-linejoin:round;stroke-miterlimit:10;" x1="136.359" y1="297.056" x2="280.359" y2="297.056"/>
					
						<line style="fill:none;stroke:#FFFFFF;stroke-width:3;stroke-linecap:round;stroke-linejoin:round;stroke-miterlimit:10;" x1="136.359" y1="305.056" x2="219.859" y2="305.056"/>
				</g>
				<g>
					<circle style="fill:#FFFFFF;" cx="116.859" cy="333.305" r="11.5"/>
					
						<line style="fill:none;stroke:#FFFFFF;stroke-width:3;stroke-linecap:round;stroke-linejoin:round;stroke-miterlimit:10;" x1="136.359" y1="328.806" x2="280.359" y2="328.806"/>
					
						<line style="fill:none;stroke:#FFFFFF;stroke-width:3;stroke-linecap:round;stroke-linejoin:round;stroke-miterlimit:10;" x1="136.359" y1="336.806" x2="270.859" y2="336.806"/>
				</g>
				<g>
					<circle style="fill:#FFFFFF;" cx="116.859" cy="365.055" r="11.5"/>
					
						<line style="fill:none;stroke:#FFFFFF;stroke-width:3;stroke-linecap:round;stroke-linejoin:round;stroke-miterlimit:10;" x1="136.359" y1="360.556" x2="280.359" y2="360.556"/>
					
						<line style="fill:none;stroke:#FFFFFF;stroke-width:3;stroke-linecap:round;stroke-linejoin:round;stroke-miterlimit:10;" x1="136.359" y1="368.556" x2="179.859" y2="368.556"/>
				</g>
				<path style="fill:#FFFFFF;" d="M228.859,273.055c0,2.761-2.239,5-5,5h-115.5c-2.761,0-5-2.239-5-5v-12c0-2.761,2.239-5,5-5
					h115.5c2.761,0,5,2.239,5,5V273.055z"/>
			</g>
		</g>
		<g>
			<circle style="fill:#6F96BD;" cx="320.008" cy="358.364" r="40.809"/>
			<path style="fill:#FFFFFF;" d="M342.226,359.12c-0.011-2.663-0.492-5.217-1.367-7.583l6.042-2.225
				c-1.156-3.138-2.841-6.028-5.009-8.592l-4.923,4.164c-1.667-1.97-3.671-3.645-5.921-4.939l3.21-5.592
				c-2.911-1.671-6.063-2.806-9.367-3.374l-1.091,6.347c-1.233-0.213-2.499-0.33-3.792-0.33c-1.339,0-2.648,0.126-3.922,0.354
				l-1.129-6.341c-3.3,0.587-6.444,1.741-9.346,3.43l3.242,5.572c-2.242,1.307-4.237,2.992-5.893,4.972l-4.946-4.134
				c-2.154,2.577-3.823,5.479-4.96,8.624l6.056,2.19c-0.856,2.359-1.324,4.903-1.324,7.554c0,0.015,0.001,0.03,0.001,0.045
				l-6.433,0.013c0.007,3.363,0.592,6.658,1.74,9.793l6.045-2.213c0.9,2.452,2.224,4.7,3.877,6.661l-4.93,4.154
				c2.159,2.563,4.723,4.711,7.62,6.381l3.222-5.584c2.205,1.274,4.647,2.179,7.243,2.633l-1.105,6.345
				c1.621,0.282,3.284,0.425,4.939,0.425c0.004,0,0.008,0,0.012,0c1.671,0,3.348-0.146,4.985-0.435l-1.117-6.343
				c2.595-0.459,5.034-1.368,7.237-2.646l3.232,5.579c2.894-1.677,5.454-3.828,7.608-6.395l-4.937-4.145
				c1.65-1.965,2.969-4.216,3.865-6.671l6.05,2.201c1.142-3.138,1.721-6.435,1.72-9.841v-0.053H342.226z M320.008,345.34
				c7.66,0,13.892,6.232,13.892,13.892c0,7.66-6.232,13.892-13.892,13.892c-7.66,0-13.892-6.232-13.892-13.892
				C306.115,351.572,312.347,345.34,320.008,345.34z"/>
		</g>
		<g>
			<g>
				<path style="fill:#6F96BD;" d="M372.579,286.257c0,2.667-2.162,4.829-4.829,4.829H246.047c-2.667,0-4.829-2.162-4.829-4.829
					v-92.243c0-2.667,2.162-4.829,4.829-4.829H367.75c2.667,0,4.829,2.162,4.829,4.829V286.257z"/>
				<polygon style="fill:#6F96BD;" points="334.668,283.359 358.815,307.507 358.815,283.794 				"/>
			</g>
			<g>
				<rect x="251.842" y="200.775" style="fill:#FFFFFF;" width="33.806" height="33.806"/>
				<g>
					<path style="fill:#FFFFFF;" d="M361.471,204.397c0,1.467-1.189,2.656-2.656,2.656h-63.749c-1.467,0-2.656-1.189-2.656-2.656
						l0,0c0-1.467,1.189-2.656,2.656-2.656h63.749C360.282,201.741,361.471,202.93,361.471,204.397L361.471,204.397z"/>
					<path style="fill:#FFFFFF;" d="M361.471,218.161c0,1.467-1.189,2.656-2.656,2.656h-63.749c-1.467,0-2.656-1.189-2.656-2.656
						l0,0c0-1.467,1.189-2.656,2.656-2.656h63.749C360.282,215.505,361.471,216.694,361.471,218.161L361.471,218.161z"/>
					<path style="fill:#FFFFFF;" d="M361.471,231.925c0,1.467-1.189,2.656-2.656,2.656h-63.749c-1.467,0-2.656-1.189-2.656-2.656
						l0,0c0-1.467,1.189-2.656,2.656-2.656h63.749C360.282,229.269,361.471,230.458,361.471,231.925L361.471,231.925z"/>
					<g>
						<path style="fill:#FFFFFF;" d="M361.471,245.931c0,1.467-1.189,2.656-2.656,2.656H253.774c-1.467,0-2.656-1.189-2.656-2.656
							l0,0c0-1.467,1.189-2.656,2.656-2.656h105.041C360.282,243.275,361.471,244.464,361.471,245.931L361.471,245.931z"/>
						<path style="fill:#FFFFFF;" d="M361.471,259.695c0,1.467-1.189,2.656-2.656,2.656H253.774c-1.467,0-2.656-1.189-2.656-2.656
							l0,0c0-1.467,1.189-2.656,2.656-2.656h105.041C360.282,257.039,361.471,258.228,361.471,259.695L361.471,259.695z"/>
						<path style="fill:#FFFFFF;" d="M361.471,273.459c0,1.467-1.189,2.656-2.656,2.656H253.774c-1.467,0-2.656-1.189-2.656-2.656
							l0,0c0-1.467,1.189-2.656,2.656-2.656h105.041C360.282,270.802,361.471,271.992,361.471,273.459L361.471,273.459z"/>
					</g>
				</g>
			</g>
		</g>
		<g>
			<circle style="fill:#6F96BD;" cx="90.459" cy="236.082" r="38.153"/>
			<polygon style="fill:#FFFFFF;" points="76.963,215.406 112.964,236.191 76.963,256.976 			"/>
		</g>
	</g>
</g>
</svg>
