<?xml version="1.0" encoding="utf-8"?>
<!-- Generator: Adobe Illustrator 27.5.0, SVG Export Plug-In . SVG Version: 6.00 Build 0)  -->
<svg version="1.1" xmlns="http://www.w3.org/2000/svg" xmlns:xlink="http://www.w3.org/1999/xlink" x="0px" y="0px"
	 viewBox="0 0 500 500" style="enable-background:new 0 0 500 500;" xml:space="preserve">
<g id="BACKGROUND">
	<rect style="fill:#FFFFFF;" width="500" height="500"/>
</g>
<g id="OBJECTS">
	<path style="fill:#E9FFFE;" d="M48.203,454.229c-4.076-22.86-6.5-47.32,2.943-68.534c12.276-27.578,44.558-43.992,74.441-39.71
		c14.175,2.031,27.78,8.115,42.099,8.027c8.658-0.053,17.291-2.435,24.752-6.828c22.826-13.442,31.012-42.072,47.955-62.435
		c11.222-13.487,26.652-23.421,43.574-28.054c36.035-9.867,71.625,7.082,91.24,37.931c9.697,15.251,15.353,33.155,15.985,51.228
		c0.201,5.743-5.575,53.837-7.86,52.81c12.641,5.681,20.579,21.317,21.037,35.169c10.883,0.04,21.396,8.08,23.835,18.686
		L48.203,454.229z"/>
	<polygon style="fill:#F79FC9;" points="411.181,213.491 351.612,212.951 322.294,161.093 352.546,109.774 412.116,110.313 
		441.433,162.172 	"/>
	<polygon style="fill:#211D1D;" points="311.516,273.592 263.448,273.157 239.791,231.311 264.202,189.901 312.27,190.336 
		335.928,232.182 	"/>
	<polygon style="fill:#6E55FF;" points="318.936,416.562 255.61,415.989 224.444,360.86 256.604,306.306 319.929,306.879 
		351.095,362.007 	"/>
	
		<line style="fill:none;stroke:#211D1D;stroke-width:1.6649;stroke-linecap:round;stroke-linejoin:round;stroke-miterlimit:10;" x1="41.721" y1="452.853" x2="458.279" y2="452.853"/>
	
		<line style="fill:none;stroke:#211D1D;stroke-width:1.6649;stroke-linecap:round;stroke-linejoin:round;stroke-miterlimit:10;" x1="412.25" y1="110.215" x2="425.902" y2="87.24"/>
	<path style="fill:none;stroke:#211D1D;stroke-width:1.6649;stroke-linecap:round;stroke-linejoin:round;stroke-miterlimit:10;" d="
		M432.229,84.409c0,2.115-1.714,3.829-3.829,3.829c-2.115,0-3.829-1.714-3.829-3.829c0-2.115,1.715-3.829,3.829-3.829
		C430.515,80.58,432.229,82.295,432.229,84.409z"/>
	<path style="fill:none;stroke:#211D1D;stroke-width:1.6649;stroke-linecap:round;stroke-linejoin:round;stroke-miterlimit:10;" d="
		M289.547,162.16c0,2.115-1.714,3.829-3.829,3.829c-2.115,0-3.829-1.714-3.829-3.829c0-2.115,1.714-3.829,3.829-3.829
		C287.832,158.331,289.547,160.046,289.547,162.16z"/>
	
		<line style="fill:none;stroke:#211D1D;stroke-width:1.6649;stroke-linecap:round;stroke-linejoin:round;stroke-miterlimit:10;" x1="285.385" y1="165.823" x2="285.385" y2="199.454"/>
	<g>
		
			<circle style="fill:none;stroke:#211D1D;stroke-width:1.6649;stroke-linecap:round;stroke-linejoin:round;stroke-miterlimit:10;" cx="397.599" cy="377.932" r="3.829"/>
		
			<line style="fill:none;stroke:#211D1D;stroke-width:1.6649;stroke-linecap:round;stroke-linejoin:round;stroke-miterlimit:10;" x1="397.517" y1="344.66" x2="397.517" y2="373.603"/>
	</g>
	<g>
		
			<path style="fill:none;stroke:#211D1D;stroke-width:1.6649;stroke-linecap:round;stroke-linejoin:round;stroke-miterlimit:10;" d="
			M291.878,438.201c0,2.115-1.714,3.829-3.829,3.829c-2.115,0-3.829-1.715-3.829-3.829c0-2.115,1.714-3.829,3.829-3.829
			C290.163,434.372,291.878,436.086,291.878,438.201z"/>
		
			<line style="fill:none;stroke:#211D1D;stroke-width:1.6649;stroke-linecap:round;stroke-linejoin:round;stroke-miterlimit:10;" x1="287.903" y1="414.421" x2="287.903" y2="434.872"/>
	</g>
	<g>
		<path style="fill:none;stroke:#211D1D;stroke-width:1.056;stroke-linecap:round;stroke-linejoin:round;stroke-miterlimit:10;" d="
			M251.749,355.956c1.703,0,3.344-0.936,4.164-2.56c1.16-2.295,0.242-5.096-2.051-6.259l0,0c-0.075-0.038-7.55-3.892-15.144-11.473
			c-9.924-9.907-15.401-21.228-16.279-33.647c-0.182-2.568-2.413-4.5-4.979-4.321c-2.568,0.182-4.503,2.411-4.321,4.979
			c1.034,14.624,7.682,28.393,19.227,39.82c8.622,8.534,16.936,12.783,17.285,12.96
			C250.324,355.795,251.042,355.956,251.749,355.956z"/>
	</g>
	<g>
		<path style="fill:none;stroke:#211D1D;stroke-width:1.056;stroke-linecap:round;stroke-linejoin:round;stroke-miterlimit:10;" d="
			M344.984,136.855c1.703,0,3.344-0.936,4.164-2.56c1.16-2.296,0.242-5.096-2.051-6.259l0,0c-0.075-0.038-7.55-3.892-15.145-11.473
			c-9.924-9.907-15.401-21.228-16.279-33.647c-0.182-2.568-2.413-4.5-4.979-4.322c-2.568,0.182-4.503,2.411-4.321,4.979
			c1.034,14.624,7.682,28.393,19.227,39.82c8.622,8.535,16.935,12.783,17.285,12.96
			C343.559,136.693,344.277,136.855,344.984,136.855z"/>
	</g>
	<g>
		
			<ellipse transform="matrix(0.9232 -0.3844 0.3844 0.9232 -86.5093 109.9444)" style="fill:#6E55FF;" cx="231.775" cy="271.378" rx="7.326" ry="7.326"/>
		<path style="fill:#191319;" d="M227.468,277.302c1.209,0.881,2.697,1.401,4.307,1.401c4.046,0,7.326-3.28,7.326-7.326
			c0-1.603-0.517-3.085-1.39-4.292C234.007,270.141,230.596,273.593,227.468,277.302z"/>
	</g>
	
		<ellipse transform="matrix(0.2307 -0.973 0.973 0.2307 -126.1874 669.5197)" style="fill:#F79FC9;" cx="360.305" cy="414.56" rx="9.323" ry="9.323"/>
	<path style="fill:#191319;" d="M354.824,422.1c1.539,1.121,3.432,1.783,5.482,1.783c5.149,0,9.323-4.174,9.323-9.323
		c0-2.041-0.658-3.927-1.769-5.462C363.147,412.985,358.805,417.379,354.824,422.1z"/>
	
		<ellipse transform="matrix(0.1606 -0.987 0.987 0.1606 255.0329 544.3042)" style="fill:#F4D834;" cx="447.546" cy="122.203" rx="9.323" ry="9.324"/>
	<path style="fill:#191319;" d="M442.064,129.743c1.539,1.121,3.432,1.783,5.482,1.783c5.149,0,9.324-4.174,9.324-9.323
		c0-2.041-0.658-3.927-1.77-5.462C450.388,120.628,446.046,125.022,442.064,129.743z"/>
	<path style="fill:none;stroke:#76DDA6;stroke-width:0.9989;stroke-linecap:round;stroke-miterlimit:10;" d="M227.446,205.281
		c0,3.218-2.609,5.827-5.827,5.827c-3.218,0-5.827-2.609-5.827-5.827c0-3.218,2.609-5.827,5.827-5.827
		C224.837,199.454,227.446,202.063,227.446,205.281z"/>
	
		<circle style="fill:none;stroke:#76DDA6;stroke-width:0.9989;stroke-linecap:round;stroke-miterlimit:10;" cx="433.894" cy="403.571" r="5.494"/>
	<path style="fill:none;stroke:#76DDA6;stroke-width:0.9989;stroke-linecap:round;stroke-miterlimit:10;" d="M455.038,354.29
		c0,2.115-1.714,3.829-3.829,3.829c-2.115,0-3.829-1.714-3.829-3.829c0-2.115,1.714-3.829,3.829-3.829
		C453.324,350.461,455.038,352.175,455.038,354.29z"/>
	
		<circle style="fill:none;stroke:#76DDA6;stroke-width:0.9989;stroke-linecap:round;stroke-miterlimit:10;" cx="390.606" cy="434.206" r="2.164"/>
	<path style="fill:none;stroke:#76DDA6;stroke-width:0.9989;stroke-linecap:round;stroke-miterlimit:10;" d="M233.273,406.235
		c0,1.563-1.267,2.83-2.83,2.83c-1.563,0-2.83-1.267-2.83-2.83c0-1.563,1.267-2.83,2.83-2.83
		C232.006,403.405,233.273,404.672,233.273,406.235z"/>
	
		<circle style="fill:none;stroke:#76DDA6;stroke-width:0.9989;stroke-linecap:round;stroke-miterlimit:10;" cx="470.688" cy="163.659" r="5.328"/>
	<path style="fill:none;stroke:#76DDA6;stroke-width:0.9989;stroke-linecap:round;stroke-miterlimit:10;" d="M367.464,84.076
		c0,2.023-1.64,3.663-3.663,3.663c-2.023,0-3.663-1.64-3.663-3.663c0-2.023,1.64-3.663,3.663-3.663
		C365.824,80.414,367.464,82.053,367.464,84.076z"/>
	
		<circle style="fill:none;stroke:#76DDA6;stroke-width:0.9989;stroke-linecap:round;stroke-miterlimit:10;" cx="304.031" cy="147.509" r="1.831"/>
	<path style="fill:none;stroke:#FFFFFF;stroke-width:0.9989;stroke-linecap:round;stroke-linejoin:round;stroke-miterlimit:10;" d="
		M260.65,201.452c0,0,21.238,16.149,43.381-9.819"/>
	<path style="fill:none;stroke:#FFFFFF;stroke-width:0.9989;stroke-linecap:round;stroke-linejoin:round;stroke-miterlimit:10;" d="
		M256.415,261.995c0,0,30.332-12.723,43.219,10.9"/>
	<path style="fill:none;stroke:#FFFFFF;stroke-width:0.9989;stroke-linecap:round;stroke-linejoin:round;stroke-miterlimit:10;" d="
		M310.525,256.061c0,2.299-1.864,4.162-4.162,4.162c-2.299,0-4.162-1.863-4.162-4.162c0-2.299,1.863-4.162,4.162-4.162
		C308.661,251.899,310.525,253.762,310.525,256.061z"/>
	<path style="fill:none;stroke:#FFFFFF;stroke-width:0.9989;stroke-linecap:round;stroke-linejoin:round;stroke-miterlimit:10;" d="
		M309.193,203.949c0,0.736-0.596,1.332-1.332,1.332s-1.332-0.596-1.332-1.332s0.596-1.332,1.332-1.332
		S309.193,203.214,309.193,203.949z"/>
	<polygon style="fill:#FCD201;" points="371.96,370.258 374.79,375.434 379.967,378.265 374.79,381.096 371.96,386.272 
		369.129,381.096 363.953,378.265 369.129,375.434 	"/>
	<polygon style="fill:#FCD201;" points="354.811,223.814 356.029,226.04 358.255,227.258 356.029,228.476 354.811,230.702 
		353.593,228.476 351.367,227.258 353.593,226.04 	"/>
	<polygon style="fill:#FCD201;" points="224.283,106.605 225.5,108.831 227.727,110.049 225.5,111.267 224.283,113.493 
		223.065,111.267 220.838,110.049 223.065,108.831 	"/>
	<polygon style="fill:#FCD201;" points="40.477,302.065 41.695,304.291 43.921,305.509 41.695,306.726 40.477,308.953 
		39.26,306.726 37.033,305.509 39.26,304.291 	"/>
	<polygon style="fill:#FCD201;" points="456.703,176.841 458.753,180.589 462.501,182.639 458.753,184.688 456.703,188.436 
		454.653,184.688 450.906,182.639 454.653,180.589 	"/>
	<polygon style="fill:#FCD201;" points="291.212,65.959 293.85,70.783 298.673,73.421 293.85,76.059 291.212,80.883 288.574,76.059 
		283.75,73.421 288.574,70.783 	"/>
	<polygon style="fill:#FCD201;" points="210.63,118.963 212.776,122.887 216.7,125.033 212.776,127.179 210.63,131.103 
		208.484,127.179 204.561,125.033 208.484,122.887 	"/>
	<polygon style="fill:#FCD201;" points="51.466,254.153 53.612,258.077 57.535,260.223 53.612,262.369 51.466,266.293 
		49.32,262.369 45.396,260.223 49.32,258.077 	"/>
	<polygon style="fill:#FCD201;" points="267.237,286.669 269.071,290.022 272.424,291.856 269.071,293.69 267.237,297.044 
		265.403,293.69 262.05,291.856 265.403,290.022 	"/>
	<polygon style="fill:#FCD201;" points="240.932,424.085 242.921,427.721 246.557,429.71 242.921,431.699 240.932,435.336 
		238.943,431.699 235.306,429.71 238.943,427.721 	"/>
	<g>
		<g>
			
				<polyline style="fill:none;stroke:#FFFFFF;stroke-width:1.0988;stroke-linecap:round;stroke-linejoin:round;stroke-miterlimit:10;" points="
				263.071,334.639 263.071,388.482 318.012,388.482 			"/>
			<g>
				<rect x="270.579" y="334.822" style="fill:#FFFFFF;" width="9.157" height="47.982"/>
				<rect x="284.681" y="346.177" style="fill:#FFFFFF;" width="9.157" height="36.628"/>
				<rect x="299.332" y="352.404" style="fill:#FFFFFF;" width="9.157" height="30.401"/>
			</g>
		</g>
		<g>
			<path style="fill:#17152A;" d="M270.579,372.198v10.607h9.157v-13.713C276.623,369.936,273.562,370.971,270.579,372.198z"/>
			<path style="fill:#17152A;" d="M284.681,367.926v14.878h9.157v-16.143C290.761,366.895,287.702,367.319,284.681,367.926z"/>
			<path style="fill:#17152A;" d="M299.651,366.446c-0.106,0-0.212,0.003-0.319,0.003v16.356h9.157V367.03
				C305.56,366.656,302.61,366.455,299.651,366.446z"/>
		</g>
	</g>
	<g>
		<ellipse style="fill:#FFFFFF;" cx="386.275" cy="166.619" rx="18.028" ry="27.042"/>
		<rect x="379.37" y="139.577" style="fill:#17152A;" width="6.904" height="54.084"/>
		<g>
			<ellipse style="fill:#17152A;" cx="377.969" cy="161.632" rx="21.996" ry="32.307"/>
			<ellipse style="fill:#FFFFFF;" cx="386.217" cy="161.632" rx="21.538" ry="32.307"/>
			
				<ellipse style="fill:none;stroke:#211D1D;stroke-width:1.2165;stroke-linecap:round;stroke-linejoin:round;stroke-miterlimit:10;" cx="387.134" cy="161.632" rx="15.581" ry="23.371"/>
			<text transform="matrix(0.5809 0 0 1 380.9307 172.5039)" style="font-family:'Montserrat-ExtraLight'; font-size:35.1631px;">$</text>
		</g>
	</g>
	
		<circle style="fill:none;stroke:#FFFFFF;stroke-width:0.9989;stroke-linecap:round;stroke-linejoin:round;stroke-miterlimit:10;" cx="309.193" cy="327.818" r="3.33"/>
	<path style="fill:none;stroke:#FFFFFF;stroke-width:0.9989;stroke-linecap:round;stroke-linejoin:round;stroke-miterlimit:10;" d="
		M264.906,401.906c0,0.828-0.671,1.498-1.498,1.498c-0.828,0-1.499-0.671-1.499-1.498c0-0.828,0.671-1.498,1.499-1.498
		C264.235,400.408,264.906,401.079,264.906,401.906z"/>
	<path style="fill:none;stroke:#FFFFFF;stroke-width:0.9989;stroke-linecap:round;stroke-linejoin:round;stroke-miterlimit:10;" d="
		M330.836,362.948c0,0.828-0.671,1.499-1.498,1.499c-0.828,0-1.498-0.671-1.498-1.499c0-0.827,0.671-1.498,1.498-1.498
		C330.166,361.449,330.836,362.12,330.836,362.948z"/>
	<g>
		<polygon style="fill:#76DDA6;" points="430.988,344.967 365.32,344.372 333.001,287.205 366.35,230.632 432.018,231.227 
			464.337,288.394 		"/>
		<polygon style="fill:#FCD201;" points="461.817,248.402 463.985,252.367 467.95,254.535 463.985,256.703 461.817,260.667 
			459.649,256.703 455.685,254.535 459.649,252.367 		"/>
		<path style="fill:#FFFAF5;" d="M419.767,267.73c0.492-0.44-41.191-0.147-40.698,0.293l-14.441,15.815l34.791,34.462l34.134-35.447
			L419.767,267.73z"/>
		<line style="fill:#FFFAF5;" x1="365.284" y1="283.151" x2="433.552" y2="282.876"/>
		<polygon style="fill:#FFFAF5;" points="380.015,267.981 391.072,281.839 400.286,267.756 		"/>
		<polygon style="fill:#FFFAF5;" points="399.496,267.981 410.553,281.839 419.767,267.756 		"/>
		<polyline style="fill:#FFFAF5;" points="390.228,283.072 399.418,318.301 410.796,283.072 		"/>
		<polyline style="fill:#FFFAF5;" points="377.975,284.385 399.418,318.301 421.737,283.51 		"/>
		
			<line style="fill:none;stroke:#211D1D;stroke-width:1.056;stroke-linecap:round;stroke-linejoin:round;stroke-miterlimit:10;" x1="365.284" y1="283.151" x2="433.552" y2="282.876"/>
		
			<polyline style="fill:none;stroke:#211D1D;stroke-width:1.056;stroke-linecap:round;stroke-linejoin:round;stroke-miterlimit:10;" points="
			380.015,267.981 391.072,281.839 400.286,267.756 		"/>
		
			<polyline style="fill:none;stroke:#211D1D;stroke-width:1.056;stroke-linecap:round;stroke-linejoin:round;stroke-miterlimit:10;" points="
			399.496,267.981 410.553,281.839 419.767,267.756 		"/>
		
			<polyline style="fill:none;stroke:#211D1D;stroke-width:1.056;stroke-linecap:round;stroke-linejoin:round;stroke-miterlimit:10;" points="
			390.228,283.072 399.418,318.301 410.796,283.072 		"/>
		
			<polyline style="fill:none;stroke:#211D1D;stroke-width:1.056;stroke-linecap:round;stroke-linejoin:round;stroke-miterlimit:10;" points="
			377.975,284.385 399.418,318.301 421.737,283.51 		"/>
		
			<path style="fill:none;stroke:#FFFFFF;stroke-width:1.0967;stroke-linecap:round;stroke-linejoin:round;stroke-miterlimit:10;" d="
			M372.621,305.713c0,2.221-1.8,4.021-4.021,4.021c-2.221,0-4.021-1.8-4.021-4.021c0-2.221,1.8-4.021,4.021-4.021
			C370.821,301.692,372.621,303.492,372.621,305.713z"/>
		
			<path style="fill:none;stroke:#FFFFFF;stroke-width:1.0967;stroke-linecap:round;stroke-linejoin:round;stroke-miterlimit:10;" d="
			M426.724,312.11c0,1.312-1.064,2.376-2.376,2.376s-2.376-1.064-2.376-2.376c0-1.312,1.064-2.376,2.376-2.376
			S426.724,310.798,426.724,312.11z"/>
		
			<circle style="fill:none;stroke:#FFFFFF;stroke-width:1.0967;stroke-linecap:round;stroke-linejoin:round;stroke-miterlimit:10;" cx="388.34" cy="247.955" r="2.924"/>
		
			<circle style="fill:none;stroke:#FFFFFF;stroke-width:1.0967;stroke-linecap:round;stroke-linejoin:round;stroke-miterlimit:10;" cx="362.203" cy="267.147" r="0.914"/>
		
			<path style="fill:none;stroke:#FFFFFF;stroke-width:1.0967;stroke-linecap:round;stroke-linejoin:round;stroke-miterlimit:10;" d="
			M445.733,280.49c0,0.808-0.655,1.462-1.462,1.462c-0.808,0-1.462-0.655-1.462-1.462c0-0.807,0.655-1.462,1.462-1.462
			C445.078,279.027,445.733,279.682,445.733,280.49z"/>
	</g>
	<path style="fill:none;stroke:#FFFFFF;stroke-width:1.0967;stroke-linecap:round;stroke-linejoin:round;stroke-miterlimit:10;" d="
		M407.755,123.368c0,2.391-1.938,4.329-4.329,4.329c-2.391,0-4.329-1.938-4.329-4.329c0-2.391,1.938-4.329,4.329-4.329
		C405.817,119.039,407.755,120.977,407.755,123.368z"/>
	<path style="fill:none;stroke:#FFFFFF;stroke-width:1.0967;stroke-linecap:round;stroke-linejoin:round;stroke-miterlimit:10;" d="
		M349.816,166.156c0,1.563-1.267,2.83-2.83,2.83c-1.563,0-2.83-1.267-2.83-2.83c0-1.563,1.267-2.83,2.83-2.83
		C348.549,163.326,349.816,164.593,349.816,166.156z"/>
	<path style="fill:none;stroke:#FFFFFF;stroke-width:1.0967;stroke-linecap:round;stroke-linejoin:round;stroke-miterlimit:10;" d="
		M403.426,197.956c0,1.655-1.342,2.997-2.997,2.997s-2.997-1.342-2.997-2.997c0-1.655,1.342-2.997,2.997-2.997
		S403.426,196.301,403.426,197.956z"/>
	
		<circle style="fill:none;stroke:#FFFFFF;stroke-width:1.0967;stroke-linecap:round;stroke-linejoin:round;stroke-miterlimit:10;" cx="359.972" cy="200.786" r="1.831"/>
	<path style="fill:none;stroke:#FFFFFF;stroke-width:1.0967;stroke-linecap:round;stroke-linejoin:round;stroke-miterlimit:10;" d="
		M423.405,166.822c0,1.195-0.969,2.164-2.164,2.164c-1.195,0-2.164-0.969-2.164-2.164c0-1.195,0.969-2.164,2.164-2.164
		C422.436,164.658,423.405,165.627,423.405,166.822z"/>
	
		<polyline style="fill:none;stroke:#211D1D;stroke-width:0.333;stroke-linecap:round;stroke-linejoin:round;stroke-miterlimit:10;" points="
		142.702,124.7 145.366,125.033 148.03,124.7 	"/>
	<path style="fill:none;stroke:#211D1D;stroke-width:0.3103;stroke-miterlimit:10;" d="M124.222,122.536
		c0,0,3.148-1.038,4.404,1.646c0,0-3.072,0.685-2.073,3.682"/>
	<g>
		<g>
			<g>
				<g>
					<g>
						<g>
							<path style="fill:#17152A;" d="M214.693,431.181c-1.323-0.572-2.673-1.068-4.046-1.484c-2.814-0.851-5.729-1.386-8.587-2.076
								c-2.858-0.69-5.661-1.534-8.249-3.005c-0.519-0.295-1.021-0.62-1.511-0.965c-0.159-0.111-0.31-0.236-0.465-0.352
								c-0.326-0.245-0.648-0.493-0.96-0.758c-0.174-0.148-0.342-0.304-0.511-0.458c-0.281-0.255-0.556-0.516-0.824-0.787
								c-0.167-0.169-0.331-0.343-0.494-0.518c-0.258-0.28-0.508-0.568-0.752-0.862c-0.15-0.18-0.3-0.359-0.444-0.544
								c-0.25-0.321-0.488-0.652-0.722-0.987c-0.12-0.172-0.244-0.339-0.36-0.515c-0.286-0.434-0.555-0.88-0.813-1.333
								c-0.049-0.086-0.104-0.168-0.153-0.255c-0.302-0.546-0.583-1.107-0.844-1.678c-0.071-0.155-0.131-0.315-0.198-0.47
								c-0.182-0.42-0.358-0.843-0.517-1.273c-1.372-3.713-1.89-7.79-1.314-11.748l-20.874-0.716v23.935v28.224h74.315
								C231.841,442.899,223.952,435.185,214.693,431.181z"/>
							<path style="fill:#17152A;" d="M234.535,456.839h-72.032c-2.145,0-3.9-1.755-3.9-3.901v-0.33c0-2.145,1.755-3.9,3.9-3.9
								h72.032c2.145,0,3.9,1.755,3.9,3.9v0.33C238.435,455.084,236.68,456.839,234.535,456.839z"/>
						</g>
						<g>
							<g>
								<path style="fill:#17152A;" d="M100.352,401.106c0.571,3.923,0.058,7.965-1.302,11.646
									c-0.158,0.429-0.333,0.849-0.514,1.267c-0.066,0.153-0.125,0.309-0.194,0.46c-0.259,0.567-0.538,1.123-0.837,1.665
									c-0.047,0.085-0.101,0.165-0.149,0.249c-0.257,0.451-0.525,0.895-0.809,1.326c-0.114,0.172-0.237,0.338-0.355,0.507
									c-0.233,0.333-0.469,0.663-0.717,0.982c-0.143,0.182-0.291,0.359-0.438,0.537c-0.243,0.292-0.491,0.579-0.748,0.856
									c-0.16,0.174-0.322,0.344-0.487,0.512c-0.265,0.269-0.539,0.528-0.818,0.781c-0.168,0.153-0.334,0.308-0.506,0.454
									c-0.31,0.263-0.63,0.51-0.954,0.753c-0.154,0.115-0.302,0.237-0.459,0.347c-0.486,0.341-0.984,0.664-1.499,0.957
									c-5.132,2.915-11.111,3.348-16.69,5.037c-10.886,3.294-20.367,11.72-25.498,22.659h73.667v-27.977v-23.727L100.352,401.106z
									"/>
								<path style="fill:#17152A;" d="M49.196,456.347H120.6c2.126,0,3.866-1.74,3.866-3.866v-0.327
									c0-2.127-1.74-3.866-3.866-3.866H49.196c-2.126,0-3.866,1.74-3.866,3.866v0.327C45.33,454.607,47.07,456.347,49.196,456.347
									z"/>
							</g>
						</g>
						<g>
							<path style="fill:#9C88FA;" d="M169.618,151.76l61.479,3.46l-10.761,4.271l35.629-27.253
								c3.656-2.796,8.573-2.098,10.983,1.559c1.995,3.027,1.64,7.138-0.612,10.049l-27.85,35.96
								c-2.331,3.01-5.757,4.528-9.058,4.368l-1.704-0.097l-61.479-3.46c-7.532-0.424-12.883-7.227-11.952-15.196
								C155.225,157.453,162.086,151.337,169.618,151.76z"/>
							<path style="fill:#F4D834;" d="M133.838,283.059l14.706-0.827c11.668-0.655,20.678-10.739,20.023-22.407l-2.331-41.493
								c-0.656-11.668-10.739-20.678-22.407-20.023l-14.706,0.826c-11.668,0.656-20.678,10.739-20.023,22.407l2.331,41.493
								C112.087,274.704,122.17,283.714,133.838,283.059z"/>
							<path style="fill:#F4D834;" d="M152.116,422.947c2.676-6.243-10.976-158.762-10.937-176.535l25.962-9.192
								c3.623,22.189,28.678,130.429,35.813,183.943L152.116,422.947z"/>
							<path style="fill:#17152A;" d="M160.389,289.252c0.173-2.73,0.701-7.689-2.564-8.927c-0.81-0.307-3.908,0.554-4.986,0.699
								c-3.161,0.426-6.319,0.784-9.484,1.046c0.895,12.217,1.979,26.412,3.083,41.011c1.218-1.54,2.385-3.131,3.457-4.816
								C155.119,310.051,159.765,299.108,160.389,289.252z"/>
							<path style="fill:#F4D834;" d="M92.358,348.026c3.568-99.002,17.944-89.62,17.726-108.543l28.509,10.111
								c1.383,19.273-2.282,75.184-4.292,94.377L92.358,348.026z"/>
							<polygon style="fill:#F4D834;" points="138.291,278.457 134.278,421.163 81.655,421.163 98.601,281.133 							"/>
							<g>
								<path style="fill:#B3A7F5;" d="M128.529,123.39c0.536,2.765-0.664,11.468-0.58,14.28c0.126,4.208-3.525,9.654-6.52,12.668
									c1.861,2.505,9.171,3.16,12.234,3.929c3.063,0.769,6.395,0.457,9.249-0.865c0.779-0.361,1.52-0.793,2.261-1.224
									c0.908-0.529,1.816-1.058,2.725-1.587c-3.948-6.649-7.323-14.005-6.277-21.618c-1.967-0.361-4.752-1.176-6.719-1.537
									c-0.853-0.157-1.715-0.314-2.582-0.278C130.944,127.213,129.886,123.619,128.529,123.39z"/>
								<path style="fill:#211D1D;" d="M173.728,187.83c0.019,4.249-0.111,8.503-0.334,12.744c-0.196,3.696-0.461,7.388-0.78,11.073
									c-0.215,2.474-0.438,4.937-0.78,7.388c-0.457,2.401-0.976,4.787-1.514,7.169c-0.342,1.525-0.695,3.054-1.037,4.58
									c-0.392,1.487-0.788,2.974-1.168,4.461c-0.265,1.041-0.507,2.09-0.753,3.143c-0.008,0.042-0.019,0.088-0.031,0.131
									c-0.181,0.791-0.365,1.587-0.565,2.374c-0.238,0.411-0.515,0.791-0.834,1.137c-0.165,0.18-0.342,0.349-0.53,0.511
									c-0.68,0.576-1.61,0.853-2.436,1.149c-0.98,0.354-1.979,0.661-2.985,0.922c-1.952,0.503-3.934,0.784-5.928,0.984
									c-0.742,0.073-1.483,0.139-2.229,0.196c-2.897,0.231-5.798,0.342-8.702,0.369c-1.03,0.008-2.056,0.008-3.085-0.008
									c-0.453,0-0.91-0.008-1.364-0.015c-3.719-0.065-7.431-0.238-11.115-0.457c-0.004,0-0.004,0-0.004,0
									c-0.526-0.031-1.053-0.066-1.575-0.096c-0.849-0.05-11.845-1.268-15.622-1.71c-0.012,0-0.023-0.004-0.035-0.004
									c-0.054-0.008-0.111-0.012-0.161-0.02c-0.346-0.042-0.615-0.073-0.803-0.096c-0.008,0-0.015-0.004-0.019-0.004l-0.077-0.008
									c-0.119-0.015-0.181-0.027-0.181-0.027c-0.273-3.892-0.841-8.36-1.579-13.129c-0.58-3.734-1.268-7.654-2.002-11.63
									c-0.188-1.041-0.384-2.082-0.584-3.127c-0.004-0.016-0.004-0.031-0.008-0.043c-1.176-6.22-2.432-12.498-3.55-18.334
									c-0.196-1.018-0.384-2.017-0.569-3.005c-0.442-2.355-0.853-4.622-1.214-6.762c-0.042-0.235-0.085-0.469-0.119-0.699
									c-0.023-0.119-0.042-0.238-0.062-0.354c-0.008-0.054-0.019-0.107-0.027-0.161c-1.091-6.455-3.343-14.396-3.062-21.354
									c0.054-1.306,0.2-2.578,0.454-3.8c0.89-4.254,4.449-7.138,8.315-9.251c0.014-0.008,0.028-0.016,0.042-0.023
									c0.324-0.177,0.649-0.35,0.976-0.516c0.069-0.035,0.142-0.073,0.211-0.107c0.173-0.085,0.342-0.173,0.515-0.254
									c0.181-0.088,0.361-0.177,0.542-0.261c0.361-0.173,0.722-0.334,1.08-0.495c0.046-0.023,0.092-0.042,0.138-0.062
									c0.549-0.25,1.095-0.48,1.621-0.703c3.32-1.402,6.985-2.109,10.712-2.436c0.742-0.061,1.483-0.111,2.229-0.146
									c0.05-0.004,0.1-0.004,0.146-0.007c0.081-0.004,0.161-0.008,0.242-0.008c0.599-0.027,1.199-0.046,1.794-0.058
									c0.976-0.019,1.944-0.019,2.909-0.004c0.004,0,0.004,0,0.004,0c0.596,0.007,1.187,0.023,1.775,0.038
									c5.948,0.177,11.861,0.834,17.793,1.26c0.945,0.069,1.89,0.131,2.836,0.184c0.738,0.042,1.452,0.073,2.144,0.1
									c0.177,0.004,0.35,0.012,0.519,0.019c0.073,0,0.146,0.004,0.219,0.004c0.208,0.011,0.415,0.019,0.619,0.023
									c0.354,0.015,0.707,0.027,1.053,0.039c1.783,0.069,3.42,0.161,4.952,0.411c1.775,0.792,3.596,1.498,5.279,2.486
									c1.149,0.672,2.175,1.452,2.982,2.49c0.622,0.807,1.099,1.74,1.487,2.697c0.142,0.342,0.273,0.688,0.392,1.034
									c0.038,0.111,0.077,0.219,0.115,0.331c1.033,3.077,1.51,6.332,1.909,9.525c0.434,3.477,0.868,6.943,1.095,10.443
									C173.617,181.321,173.716,184.576,173.728,187.83z"/>
							</g>
							<path style="fill:#5A525D;" d="M99.632,190.851c-0.125-1.411-0.239-2.822-0.339-4.236c-0.135,0.249-0.268,0.497-0.394,0.748
								C99.114,188.394,99.362,189.57,99.632,190.851z"/>
							<path style="fill:#211D1D;" d="M182.212,181.646c-0.042-10.516-0.877-20.802-3.803-30.013l-11.73-0.563
								c-6.71-0.322-14.01,6.005-16.307,14.132c-2.296,8.127,1.281,14.977,7.991,15.299L182.212,181.646z"/>
							<path style="fill:#211D1D;" d="M107.701,251.7h68.846l-0.379-23.401l-0.684-42.167l-0.369-22.799l-0.019-1.291
								c0,0-0.507-1.506-1.741-3.523c-2.236-3.654-6.85-8.991-15.141-10.128l-0.008-0.061l-0.519-0.004
								c-1.667-0.188-3.477-0.215-5.444-0.019l-4.442-0.02v0.004l-0.027,0.488l-2.612,45.037l-8.591-23.756l-3.673-10.166
								l-3.231-8.929l-1.437-3.977l-2.985,0.092l-1.625,0.05h-0.011c0-0.004,0-0.004,0-0.008c0.004-0.02,0.007-0.046,0.011-0.065
								h-0.077c-0.134,0.008-0.273,0.012-0.403,0.008c-0.745,0.035-1.487,0.084-2.229,0.146c-3.727,0.327-7.392,1.034-10.712,2.436
								c-0.526,0.223-1.072,0.453-1.621,0.703c-0.046,0.02-0.092,0.039-0.138,0.062c-0.357,0.161-0.718,0.323-1.079,0.495
								c-0.181,0.085-0.361,0.173-0.542,0.261c-0.173,0.081-0.342,0.169-0.515,0.254c-0.069,0.034-0.142,0.073-0.211,0.107
								c-0.665,0.338-1.326,0.699-1.971,1.084c1.856,2.708,2.443,6.274,2.736,9.459c0.396,4.384,0.327,9.194-0.938,13.447
								c-0.972,3.266-2.567,6.263-4.56,9.029c-0.6,0.834-1.237,1.648-1.902,2.439c-0.043,0.046-0.081,0.097-0.123,0.142
								c-0.127,0.15-0.257,0.3-0.388,0.449c-0.084,0.1-0.173,0.2-0.261,0.3c0.98,4.495,1.821,9.014,2.551,13.547
								c0.042,0.192,0.085,0.388,0.123,0.58c3.304,15.457,5.156,31.218,6.178,47.024C107.595,249.922,107.648,250.81,107.701,251.7z
								"/>
						</g>
					</g>
					<path style="fill:#B3A7F5;" d="M154.706,131.095c-0.004,0.111-0.011,0.222-0.02,0.333c-0.005,0.056-0.009,0.113-0.015,0.169
						c-0.004,0.035-0.006,0.07-0.011,0.105c-0.011,0.107-0.025,0.212-0.041,0.317c-0.005,0.032-0.009,0.063-0.014,0.095
						c-0.025,0.154-0.053,0.307-0.086,0.458c-0.034,0.161-0.074,0.321-0.117,0.48c-0.015,0.057-0.031,0.112-0.048,0.168
						c-0.009,0.034-0.02,0.067-0.031,0.101c-0.04,0.135-0.085,0.267-0.134,0.4c-0.114,0.32-0.249,0.634-0.4,0.941
						c-0.036,0.074-0.074,0.148-0.112,0.22c-0.347,0.657-0.772,1.277-1.266,1.85c-0.108,0.124-0.218,0.246-0.331,0.365
						c-0.061,0.065-0.123,0.127-0.186,0.191c-0.105,0.104-0.211,0.206-0.32,0.307c-0.266,0.247-0.547,0.481-0.841,0.704
						c-0.138,0.104-0.277,0.204-0.419,0.303c-0.583,0.402-1.21,0.756-1.875,1.057c-0.501,0.228-1.024,0.425-1.566,0.589
						c-0.119,0.036-0.238,0.07-0.358,0.103c-0.085,0.024-0.171,0.046-0.257,0.067c-0.046,0.012-0.093,0.024-0.141,0.035
						c-0.044,0.01-0.087,0.021-0.131,0.03c-0.139,0.033-0.279,0.063-0.421,0.09c-0.838,0.164-1.709,0.25-2.604,0.252
						c-0.197,0-0.391-0.004-0.585-0.012c-2.185-0.089-4.231-0.686-5.974-1.657c-3.283-1.827-5.497-4.976-5.562-8.539l-0.043-2.418
						l-0.128-7.111l-0.041-2.224l-0.056-3.069c-0.003-0.169-0.001-0.337,0.006-0.503c0.003-0.082,0.008-0.165,0.013-0.247
						c0.004-0.066,0.009-0.13,0.016-0.195c0.005-0.065,0.012-0.131,0.02-0.196c0.001-0.016,0.003-0.032,0.005-0.047
						c0.004-0.04,0.009-0.08,0.015-0.12c0.005-0.048,0.012-0.095,0.02-0.143c0.003-0.029,0.008-0.058,0.013-0.087
						c0.011-0.07,0.023-0.139,0.036-0.209c0.01-0.059,0.022-0.117,0.035-0.176c0.006-0.035,0.013-0.069,0.022-0.103
						c0.029-0.136,0.062-0.27,0.099-0.404c0.02-0.075,0.041-0.152,0.064-0.226c0.02-0.069,0.042-0.138,0.064-0.207
						c0.021-0.067,0.045-0.135,0.068-0.202c0.001-0.002,0.001-0.004,0.003-0.006c0.024-0.067,0.048-0.133,0.074-0.2
						c0.026-0.067,0.052-0.134,0.079-0.201c0.027-0.066,0.055-0.133,0.084-0.199c0.058-0.134,0.121-0.267,0.185-0.399
						c0.012-0.025,0.026-0.05,0.039-0.075c0.054-0.108,0.111-0.216,0.17-0.322c0.014-0.025,0.028-0.049,0.042-0.074
						c0.062-0.11,0.126-0.218,0.192-0.326c0.011-0.017,0.021-0.034,0.032-0.051c1.979-3.159,5.868-5.315,10.355-5.322
						c5.047-0.007,9.438,2.707,11.243,6.517c0.543,1.146,0.853,2.39,0.876,3.689l0.269,14.823
						C154.715,130.755,154.712,130.925,154.706,131.095z"/>
					<path style="fill:#17152A;" d="M176.453,254.646h-70.499c-2.067,0-3.758-1.559-3.758-3.465l0,0
						c0-1.906,1.691-3.465,3.758-3.465h70.499c2.067,0,3.757,1.559,3.757,3.465l0,0C180.211,253.086,178.52,254.646,176.453,254.646
						z"/>
					<path style="fill:#B3A7F5;" d="M122.042,124.292c0.061,3.258,2.705,5.849,5.905,5.788c3.2-0.061,5.745-2.751,5.684-6.009
						c-0.061-3.258-2.705-5.849-5.905-5.788C124.526,118.343,121.981,121.034,122.042,124.292z"/>
				</g>
				<path style="fill:#9C88FA;" d="M106.774,172.617l24.382,45.637l56.19,16.5c3.974,1.89-7.112,12.743-9.171,16.39
					c-1.705,3.018-5.358,4.51-8.816,3.864l-56.394-11.558c-3.579-0.67-6.365-2.923-7.669-5.801l-0.661-1.492l-23.883-53.818
					c-2.926-6.593,0.527-14.115,7.713-16.8C95.65,162.855,103.848,166.023,106.774,172.617z"/>
				<path style="fill:#9C88FA;" d="M213.295,246.795h-19.566c-2.345,0-4.264-1.919-4.264-4.264l0,0c0-2.345,1.919-4.265,4.264-4.265
					h19.566c2.345,0,4.264,1.919,4.264,4.265l0,0C217.559,244.876,215.641,246.795,213.295,246.795z"/>
				<path style="fill:#9C88FA;" d="M286.557,111.593l3.032-2.578c1.962-1.668,2.202-4.638,0.534-6.601
					c-1.668-1.962-4.638-2.202-6.601-0.534l-18.839,16.019c0.73-4.218,1.559-10.87-0.356-11.429
					c-4.761-1.388-12.669,28.193-12.669,28.193l8.222,14.63c0,0,5.815-2.479,12.692-5.646c4.427-0.897,8.537-3.303,11.472-6.737
					c0.706-0.827,1.354-1.739,1.83-2.717l1.49-0.822c2.255-1.244,3.082-4.107,1.838-6.362c-0.69-1.249-1.877-2.058-3.181-2.321
					c0.188-0.259,0.339-0.534,0.452-0.821c1.866-1.683,2.072-4.58,0.434-6.507c-1.102-1.296-2.771-1.835-4.343-1.575
					c-0.102-0.06-0.206-0.118-0.31-0.172C283.812,114.275,285.33,112.885,286.557,111.593z"/>
				<path style="fill:#211D1D;" d="M83.539,202.259c2.618-1.249,5.224-2.521,7.826-3.803c10.412-5.133,20.802-10.27,31.714-14.228
					l-11.544-19.994c-5.948-10.302-19.243-13.865-29.545-7.917l0,0c-10.302,5.948-13.865,19.244-7.917,29.545L83.539,202.259z"/>
				<g>
					<g>
						<path style="fill:#9C88FA;" d="M199.249,229.009c1.398,2.31-9.459,9.874-9.459,9.874s26.078,2.077,26.105,5.584
							c0.001,0.141-0.042,0.27-0.103,0.393c-0.807,0.369-1.607,0.753-2.395,1.157c-5.383,1.019-17.6-0.427-17.6-0.427
							s4.136,0.752,8.692,1.935c-3.045,0.877-5.908,2.245-8.621,3.932c-0.58-0.166-0.914-0.267-0.914-0.267s0.322,0.106,0.869,0.294
							c-3.943,2.457-7.574,5.574-11.009,8.789c-7.918-2.477-15.188-5.047-15.188-5.047l3.528-15.01
							C173.156,240.216,196.89,225.111,199.249,229.009z"/>
					</g>
					<path style="fill:#9C88FA;" d="M199.898,254.442c1.005,1.643,0.404,3.915-0.973,5.262c-1.376,1.348-3.337,1.925-5.249,2.158
						c-4.278,0.519-8.727-0.494-12.357-2.818c-2.458-1.572-4.708-4.23-4.181-7.1c0.445-2.425,2.695-4.063,4.873-5.218
						c5.192-2.751,15.785-6.819,21.449-3.296C208.323,246.455,206.285,257.208,199.898,254.442z"/>
				</g>
				
					<path style="fill:none;stroke:#17152A;stroke-width:1.3379;stroke-linecap:round;stroke-linejoin:round;stroke-miterlimit:10;" d="
					M260.65,142.764c0,0,12.891-8.997,13.116-20.461"/>
				
					<path style="fill:none;stroke:#17152A;stroke-width:1.3379;stroke-linecap:round;stroke-linejoin:round;stroke-miterlimit:10;" d="
					M117.22,218.365c-0.467-0.155,13.118-2.503,21.406,0.335"/>
				<path style="fill:none;stroke:#FFFFFF;stroke-width:1.3379;stroke-miterlimit:10;" d="M99.493,448.812
					c0,0,2.074-26.19,21.551-24.69"/>
				<path style="fill:none;stroke:#FFFFFF;stroke-width:1.3379;stroke-miterlimit:10;" d="M162.055,424.331
					c0,0,25.737,6.643,23.953,26.265"/>
				<path style="fill:none;stroke:#FFFFFF;stroke-width:1.3379;stroke-miterlimit:10;" d="M72.876,429.441
					c0,0,13.239-0.697,15.915,12.236"/>
				<path style="fill:none;stroke:#FFFFFF;stroke-width:1.3379;stroke-miterlimit:10;" d="M194.927,440.339
					c0,0,2.453-10.582,15.72-10.642"/>
				<circle style="fill:#F4D834;" cx="92.135" cy="383.48" r="18.061"/>
				
					<ellipse transform="matrix(0.1611 -0.9869 0.9869 0.1611 -266.364 387.5935)" style="fill:#F4D834;" cx="94.811" cy="350.479" rx="18.061" ry="18.061"/>
				
					<ellipse transform="matrix(0.228 -0.9737 0.9737 0.228 -190.0792 442.4994)" style="fill:#F4D834;" cx="184.001" cy="341.114" rx="18.061" ry="18.061"/>
				
					<ellipse transform="matrix(0.3677 -0.9299 0.9299 0.3677 -227.6271 416.7743)" style="fill:#F4D834;" cx="192.675" cy="375.78" rx="18.061" ry="18.061"/>
				
					<path style="fill:none;stroke:#17152A;stroke-width:1.3379;stroke-linecap:round;stroke-linejoin:round;stroke-miterlimit:10;" d="
					M111.713,251.995c-1.825,5.338-0.892,11.539,2.423,16.104c3.315,4.565,8.923,7.371,14.564,7.288
					c1.991-0.029,3.967-0.396,5.876-0.965c9.519-2.837,17.225-11.069,19.429-20.754"/>
				<g>
					<defs>
						<path id="SVGID_1_" d="M210.736,375.78c0-9.974-8.086-18.061-18.061-18.061c-0.254,0-0.502,0.027-0.753,0.038
							c-0.026-0.131-0.051-0.261-0.077-0.393c6.041-2.921,10.218-9.09,10.218-16.25c0-8.525-5.914-15.652-13.858-17.549
							c3.837-3.312,6.276-8.201,6.276-13.667c0-9.315-7.054-16.979-16.111-17.952c-5.122-24.209-9.401-44.188-10.996-53.348
							l-1.138-20.265c-0.656-11.668-10.739-20.679-22.407-20.023l-14.706,0.826c-11.668,0.655-20.678,10.739-20.023,22.407
							l1.009,17.95l-0.025-0.009c0.176,15.342-9.239,12.102-14.71,63.089c-7.189,2.383-12.381,9.148-12.381,17.136
							c0,5.435,2.412,10.297,6.211,13.608c-7.228,2.361-12.454,9.147-12.454,17.163c0,6.893,3.864,12.88,9.542,15.924
							c-7.104,2.431-12.218,9.149-12.218,17.076c0,7.144,4.158,13.301,10.177,16.231l-2.596,21.452h52.623l3.564-126.724
							c0.2-3.923,0.381-7.829,0.533-11.635l5.012-0.281c3.735,50.927,10.71,135.8,8.728,140.425l50.839-1.784
							c-1.106-8.292-2.642-17.901-4.462-28.297C205.609,390.442,210.736,383.717,210.736,375.78z"/>
					</defs>
					<clipPath id="SVGID_00000105400429736507100690000016918635543451877516_">
						<use xlink:href="#SVGID_1_"  style="overflow:visible;"/>
					</clipPath>
					
						<path style="clip-path:url(#SVGID_00000105400429736507100690000016918635543451877516_);fill:none;stroke:#17152A;stroke-width:1.3379;stroke-linecap:round;stroke-linejoin:round;stroke-miterlimit:10;" d="
						M89.342,267.704c14.919,8.086,24.51,25.116,23.688,42.066c-0.564,11.642-5.662,22.764-12.931,31.875
						c-7.269,9.111-16.624,16.359-26.47,22.595"/>
					
						<path style="clip-path:url(#SVGID_00000105400429736507100690000016918635543451877516_);fill:none;stroke:#17152A;stroke-width:1.3379;stroke-linecap:round;stroke-linejoin:round;stroke-miterlimit:10;" d="
						M140.495,350.2c-4.664,3.111-9.159,6.474-13.46,10.07c-4.082,3.414-8.023,7.077-11.05,11.453
						c-5.645,8.159-7.769,18.669-5.735,28.379c2.034,9.71,8.196,18.485,16.641,23.693"/>
					
						<path style="clip-path:url(#SVGID_00000105400429736507100690000016918635543451877516_);fill:none;stroke:#17152A;stroke-width:1.3379;stroke-linecap:round;stroke-linejoin:round;stroke-miterlimit:10;" d="
						M198.851,274.482c-14.171,7.393-26.929,18.995-31.881,34.193c-4.952,15.197-0.223,34.081,13.475,42.317
						c5.358,3.221,11.614,4.658,17.833,5.3c10.137,1.047,21.312-0.268,28.711-7.275"/>
					
						<path style="clip-path:url(#SVGID_00000105400429736507100690000016918635543451877516_);fill:none;stroke:#17152A;stroke-width:1.3379;stroke-linecap:round;stroke-linejoin:round;stroke-miterlimit:10;" d="
						M141.552,346.36c16.659,3.47,29.84,19.085,30.966,36.065c1.126,16.98-9.563,33.971-25.157,40.782"/>
				</g>
			</g>
			<path style="fill:#211D1D;" d="M154.856,128.148v2.325c0,0.536-0.041,1.056-0.115,1.576c-0.525,3.57-2.798,6.628-5.958,8.33
				c-0.747,0.402-1.551,0.733-2.388,0.969c-1.067,0.307-2.191,0.473-3.356,0.473c-1.526,0-2.987-0.284-4.333-0.796
				c-4.382-1.663-7.492-5.777-7.492-10.553v-10.474c2.536-0.008,4.612,1.647,5.4,3.909c0.426,1.222,0.32,2.404,1.789,2.553
				c0.131,0.016,0.271,0.024,0.427,0.016c1.067-0.024,2.125-0.441,3.192-0.544c1.321-0.134,2.659-0.189,3.98-0.134
				c1.567,0.063,3.126,0.291,4.628,0.693c0.189,0.055,0.812,0.221,1.518,0.434C153.371,127.304,154.856,127.824,154.856,128.148z"/>
			<g>
				<g>
					<path style="fill:#FFFFFF;" d="M145.285,121.897c0.003,0.41,0.873,0.765,2.096,0.91c0.358,0.043,0.748,0.067,1.155,0.07
						c0.479,0.003,0.933-0.025,1.342-0.078c1.121-0.145,1.898-0.475,1.895-0.863c-0.002-0.362-0.68-0.68-1.679-0.849
						c-0.466-0.079-1.002-0.126-1.572-0.129c-0.514-0.003-0.999,0.03-1.43,0.09C146.02,121.197,145.283,121.52,145.285,121.897z"/>
					<path style="fill:#211D1D;" d="M146.788,121.761c-0.014,0.41,0.217,0.786,0.593,1.046c0.358,0.043,0.748,0.067,1.155,0.07
						c0.479,0.003,0.933-0.025,1.342-0.078c0.316-0.232,0.515-0.553,0.527-0.914c0.01-0.293-0.105-0.57-0.31-0.798
						c-0.466-0.079-1.002-0.126-1.572-0.129c-0.514-0.003-0.999,0.03-1.43,0.09C146.909,121.25,146.797,121.495,146.788,121.761z"/>
				</g>
				<g>
					<path style="fill:#FFFFFF;" d="M137.167,121.991c0.003,0.41,0.873,0.765,2.095,0.91c0.359,0.043,0.748,0.067,1.155,0.069
						c0.479,0.003,0.933-0.025,1.342-0.078c1.121-0.145,1.898-0.475,1.895-0.863c-0.002-0.362-0.68-0.68-1.679-0.849
						c-0.466-0.079-1.002-0.126-1.572-0.129c-0.514-0.003-0.999,0.029-1.43,0.09C137.902,121.29,137.164,121.614,137.167,121.991z"
						/>
					<path style="fill:#211D1D;" d="M138.67,121.855c-0.014,0.41,0.217,0.786,0.592,1.046c0.359,0.043,0.748,0.067,1.155,0.069
						c0.479,0.003,0.933-0.025,1.342-0.078c0.316-0.231,0.514-0.553,0.527-0.914c0.01-0.293-0.105-0.57-0.31-0.798
						c-0.466-0.079-1.002-0.126-1.572-0.129c-0.514-0.003-0.999,0.029-1.43,0.09C138.791,121.344,138.679,121.589,138.67,121.855z"
						/>
				</g>
				
					<path style="fill:none;stroke:#211D1D;stroke-width:1.6649;stroke-linecap:round;stroke-linejoin:round;stroke-miterlimit:10;" d="
					M142.804,119.332c-1.261-0.384-2.672-0.232-3.807,0.445"/>
				
					<path style="fill:none;stroke:#211D1D;stroke-width:1.6649;stroke-linecap:round;stroke-linejoin:round;stroke-miterlimit:10;" d="
					M151.599,119.81c-1.092-0.739-2.485-1.009-3.77-0.696"/>
				<path style="fill:#FFFFFF;" d="M147.121,127.411c0.008,0.087,0.013,0.174,0.013,0.263c0,1.547-1.255,2.802-2.802,2.802
					c-1.547,0-2.802-1.255-2.802-2.802c0-0.089,0.005-0.176,0.013-0.263H147.121z"/>
			</g>
			<path style="fill:none;stroke:#211D1D;stroke-width:0.3103;stroke-miterlimit:10;" d="M132.879,116.875h10.988v4.06
				c0,2.355-1.658,4.264-3.703,4.264h-4.162c-1.725,0-3.123-1.61-3.123-3.597v-3.396V116.875z"/>
			<path style="fill:none;stroke:#211D1D;stroke-width:0.3395;stroke-miterlimit:10;" d="M145.2,117.041h13.153v4.06
				c0,2.355-1.984,4.264-4.433,4.264h-4.981c-2.065,0-3.739-1.61-3.739-3.597v-3.396V117.041z"/>
			
				<line style="fill:none;stroke:#211D1D;stroke-width:0.3395;stroke-miterlimit:10;" x1="143.868" y1="118.748" x2="145.2" y2="118.748"/>
			<path style="fill:none;stroke:#211D1D;stroke-width:0.3395;stroke-miterlimit:10;" d="M123.056,118.373
				c0-0.333,1.998-2.664,1.998-2.664l7.991,2.664"/>
		</g>
		<path style="fill:#211D1D;" d="M136.196,107.11c0.544,1.203,1.656,2.178,2.828,2.858c3.948,2.289,8.816,2.06,12.887,0.21
			c1.776-0.807,3.423-1.95,4.655-3.463c1.792-2.201,2.615-5.127,2.402-7.957c-0.213-2.83-1.429-5.549-3.269-7.71
			c0.493,1.498,0.49,3.273,0.352,4.844c-0.137,1.571-0.956,3.17-2.385,3.837c-1.656,0.774-3.584,0.146-5.36-0.286
			c-2.623-0.637-5.481-0.797-7.944,0.308c-2.251,1.01-4.701,3.369-4.506,6.049C135.89,106.262,136.01,106.7,136.196,107.11z"/>
	</g>
	<circle style="fill:#211D1D;" cx="333.001" cy="69.592" r="3.663"/>
	<path style="fill:#211D1D;" d="M470.855,325.82c0,1.563-1.267,2.83-2.83,2.83c-1.563,0-2.83-1.267-2.83-2.83
		c0-1.563,1.267-2.83,2.83-2.83C469.588,322.99,470.855,324.257,470.855,325.82z"/>
	<path style="fill:#211D1D;" d="M36.981,374.103c0,1.563-1.267,2.83-2.83,2.83c-1.563,0-2.83-1.267-2.83-2.83
		c0-1.563,1.267-2.83,2.83-2.83C35.714,371.272,36.981,372.539,36.981,374.103z"/>
	<circle style="fill:#211D1D;" cx="457.369" cy="424.716" r="1.831"/>
	<circle style="fill:#211D1D;" cx="51.466" cy="122.036" r="1.831"/>
	<path style="fill:#9C88FA;" d="M198.477,275.707c0,1.471-1.193,2.664-2.664,2.664s-2.664-1.193-2.664-2.664
		c0-1.471,1.193-2.664,2.664-2.664S198.477,274.236,198.477,275.707z"/>
	<g>
		<path style="fill:none;stroke:#211D1D;stroke-width:1.056;stroke-linecap:round;stroke-linejoin:round;stroke-miterlimit:10;" d="
			M420.33,259.471c-1.87,0-3.671-1.028-4.572-2.811c-1.273-2.52-0.265-5.594,2.252-6.872l0,0c0.082-0.042,8.289-4.273,16.626-12.596
			c10.895-10.876,16.908-23.304,17.872-36.939c0.2-2.82,2.649-4.94,5.466-4.744c2.82,0.199,4.944,2.647,4.744,5.466
			c-1.135,16.055-8.434,31.171-21.108,43.716c-9.466,9.37-18.592,14.034-18.976,14.227
			C421.895,259.294,421.106,259.471,420.33,259.471z"/>
	</g>
</g>
<g id="PHOTOS">
</g>
<g id="TEXTS">
	
		<text transform="matrix(1 0 0 1 260.7451 240.1104)" style="fill:#FFFFFF; font-family:'Montserrat-ExtraBold'; font-size:26.3605px;">ERP</text>
</g>
</svg>
