<?xml version="1.0" encoding="utf-8"?>
<!-- Generator: Adobe Illustrator 27.5.0, SVG Export Plug-In . SVG Version: 6.00 Build 0)  -->
<svg version="1.1" xmlns="http://www.w3.org/2000/svg" xmlns:xlink="http://www.w3.org/1999/xlink" x="0px" y="0px"
	 viewBox="0 0 750 500" style="enable-background:new 0 0 750 500;" xml:space="preserve">
<g id="BACKGROUND">
	<rect y="0" style="fill:#FFFFFF;" width="750" height="500"/>
</g>
<g id="OBJECTS">
	<g>
		<g>
			<g>
				<polygon style="fill:#CE714D;" points="564.756,61.972 451.066,61.972 451.066,78.252 505.476,78.252 505.476,90.746 
					510.346,90.746 510.346,78.252 564.756,78.252 				"/>
				<g>
					<rect x="411.982" y="86.898" style="fill:#CE714D;" width="191.858" height="292.852"/>
					<g>
						<g>
							<rect x="416.912" y="238.637" style="fill:#B25234;" width="180.971" height="66.226"/>
							<g>
								<polygon style="fill:#ED6663;" points="434.854,267.864 428.547,267.864 428.547,304.862 434.854,304.862 448.627,304.862 
									454.934,304.862 454.934,267.864 448.627,267.864 								"/>
								<polygon style="fill:#ED6663;" points="468.25,267.864 461.943,267.864 461.943,304.862 468.25,304.862 482.023,304.862 
									488.33,304.862 488.33,267.864 482.023,267.864 								"/>
								<polygon style="fill:#ED6663;" points="501.646,267.864 495.339,267.864 495.339,304.862 501.646,304.862 515.419,304.862 
									521.726,304.862 521.726,267.864 515.419,267.864 								"/>
								<polygon style="fill:#ED6663;" points="535.042,267.864 528.734,267.864 528.734,304.862 535.042,304.862 548.814,304.862 
									555.121,304.862 555.121,267.864 548.814,267.864 								"/>
								<polygon style="fill:#ED6663;" points="582.21,267.864 568.437,267.864 562.13,267.864 562.13,304.862 568.437,304.862 
									582.21,304.862 588.517,304.862 588.517,267.864 								"/>
							</g>
						</g>
						<g>
							<rect x="416.912" y="166.395" style="fill:#B25234;" width="180.971" height="66.225"/>
							<g>
								<path style="fill:#AECAD3;" d="M462.503,205.598c-1.183,0-2.142-0.959-2.142-2.142v-6.074h0.363v-1.008
									c0-0.596-5.273-0.596-5.273,0v1.008h0.363v6.074c0,1.183-0.959,2.142-2.142,2.142c-1.183,0-2.142,0.959-2.142,2.142v24.882
									h13.114v-24.882C464.645,206.556,463.686,205.598,462.503,205.598z"/>
								<path style="fill:#AECAD3;" d="M482.705,205.598c-1.183,0-2.142-0.959-2.142-2.142v-6.074h0.363v-1.008
									c0-0.596-5.273-0.596-5.273,0v1.008h0.363v6.074c0,1.183-0.959,2.142-2.142,2.142c-1.183,0-2.142,0.959-2.142,2.142v24.882
									h13.114v-24.882C484.847,206.556,483.888,205.598,482.705,205.598z"/>
								<path style="fill:#AECAD3;" d="M502.908,205.598c-1.183,0-2.142-0.959-2.142-2.142v-6.074h0.363v-1.008
									c0-0.596-5.273-0.596-5.273,0v1.008h0.363v6.074c0,1.183-0.959,2.142-2.142,2.142s-2.142,0.959-2.142,2.142v24.882h13.114
									v-24.882C505.049,206.556,504.09,205.598,502.908,205.598z"/>
								<path style="fill:#AECAD3;" d="M523.11,205.598c-1.183,0-2.142-0.959-2.142-2.142v-6.074h0.363v-1.008
									c0-0.596-5.273-0.596-5.273,0v1.008h0.363v6.074c0,1.183-0.959,2.142-2.142,2.142c-1.183,0-2.142,0.959-2.142,2.142v24.882
									h13.114v-24.882C525.252,206.556,524.293,205.598,523.11,205.598z"/>
								<path style="fill:#AECAD3;" d="M543.312,205.598c-1.183,0-2.142-0.959-2.142-2.142v-6.074h0.363v-1.008
									c0-0.596-5.273-0.596-5.273,0v1.008h0.363v6.074c0,1.183-0.959,2.142-2.142,2.142c-1.183,0-2.142,0.959-2.142,2.142v24.882
									h13.114v-24.882C545.454,206.556,544.495,205.598,543.312,205.598z"/>
								<path style="fill:#AECAD3;" d="M563.515,205.598L563.515,205.598c-1.183,0-2.142-0.959-2.142-2.142v-6.074h0.363v-1.008
									c0-0.596-5.273-0.596-5.273,0v1.008h0.363v6.074c0,1.183-0.959,2.142-2.142,2.142c-1.183,0-2.142,0.959-2.142,2.142v24.882
									h13.114v-24.882C565.656,206.556,564.698,205.598,563.515,205.598z"/>
							</g>
						</g>
						<g>
							<rect x="416.912" y="94.154" style="fill:#B25234;" width="180.971" height="66.225"/>
							<g>
								<polygon style="fill:#ED6663;" points="462.836,133.51 464.648,130.189 439.184,130.189 440.493,133.51 436.635,138.542 
									436.635,160.379 443.479,160.379 459.582,160.379 466.426,160.379 466.426,138.542 								"/>
								<polygon style="fill:#ED6663;" points="497.934,133.51 499.746,130.189 474.282,130.189 475.591,133.51 471.733,138.542 
									471.733,160.379 478.576,160.379 494.68,160.379 501.524,160.379 501.524,138.542 								"/>
								<polygon style="fill:#ED6663;" points="533.032,133.51 534.843,130.189 509.38,130.189 510.688,133.51 506.83,138.542 
									506.83,160.379 513.674,160.379 529.777,160.379 536.621,160.379 536.621,138.542 								"/>
								<polygon style="fill:#ED6663;" points="568.13,133.51 569.941,130.189 544.478,130.189 545.786,133.51 541.928,138.542 
									541.928,160.379 548.772,160.379 564.875,160.379 571.719,160.379 571.719,138.542 								"/>
							</g>
						</g>
					</g>
				</g>
			</g>
			<g>
				<polygon style="fill:#EABA56;" points="366.301,61.972 252.612,61.972 252.612,78.252 307.022,78.252 307.022,90.746 
					311.892,90.746 311.892,78.252 366.301,78.252 				"/>
				<g>
					<rect x="213.528" y="86.898" style="fill:#EABA56;" width="191.858" height="292.852"/>
					<g>
						<g>
							<rect x="218.458" y="238.637" style="fill:#B78429;" width="180.971" height="66.226"/>
							<g>
								<polygon style="fill:#ED6663;" points="236.4,267.864 230.092,267.864 230.092,304.862 236.4,304.862 250.173,304.862 
									256.48,304.862 256.48,267.864 250.173,267.864 								"/>
								<polygon style="fill:#ED6663;" points="269.796,267.864 263.488,267.864 263.488,304.862 269.796,304.862 283.568,304.862 
									289.875,304.862 289.875,267.864 283.568,267.864 								"/>
								<polygon style="fill:#ED6663;" points="303.191,267.864 296.884,267.864 296.884,304.862 303.191,304.862 316.964,304.862 
									323.271,304.862 323.271,267.864 316.964,267.864 								"/>
								<polygon style="fill:#ED6663;" points="336.587,267.864 330.28,267.864 330.28,304.862 336.587,304.862 350.36,304.862 
									356.667,304.862 356.667,267.864 350.36,267.864 								"/>
								<polygon style="fill:#ED6663;" points="383.756,267.864 369.983,267.864 363.676,267.864 363.676,304.862 369.983,304.862 
									383.756,304.862 390.063,304.862 390.063,267.864 								"/>
							</g>
						</g>
						<g>
							<rect x="218.458" y="166.395" style="fill:#B78429;" width="180.971" height="66.225"/>
							<g>
								<path style="fill:#CE714D;" d="M264.049,205.598c-1.183,0-2.142-0.959-2.142-2.142v-6.074h0.363v-1.008
									c0-0.596-5.273-0.596-5.273,0v1.008h0.363v6.074c0,1.183-0.959,2.142-2.142,2.142c-1.183,0-2.142,0.959-2.142,2.142v24.882
									h13.114v-24.882C266.19,206.556,265.231,205.598,264.049,205.598z"/>
								<path style="fill:#B25234;" d="M284.251,205.598c-1.183,0-2.142-0.959-2.142-2.142v-6.074h0.363v-1.008
									c0-0.596-5.273-0.596-5.273,0v1.008h0.363v6.074c0,1.183-0.959,2.142-2.142,2.142c-1.183,0-2.142,0.959-2.142,2.142v24.882
									h13.114v-24.882C286.393,206.556,285.434,205.598,284.251,205.598z"/>
								<path style="fill:#B25234;" d="M304.453,205.598c-1.183,0-2.142-0.959-2.142-2.142v-6.074h0.363v-1.008
									c0-0.596-5.273-0.596-5.273,0v1.008h0.363v6.074c0,1.183-0.959,2.142-2.142,2.142c-1.183,0-2.142,0.959-2.142,2.142v24.882
									h13.114v-24.882C306.595,206.556,305.636,205.598,304.453,205.598z"/>
								<path style="fill:#B25234;" d="M324.656,205.598c-1.183,0-2.142-0.959-2.142-2.142v-6.074h0.363v-1.008
									c0-0.596-5.273-0.596-5.273,0v1.008h0.363v6.074c0,1.183-0.959,2.142-2.142,2.142c-1.183,0-2.142,0.959-2.142,2.142v24.882
									h13.114v-24.882C326.797,206.556,325.838,205.598,324.656,205.598z"/>
								<path style="fill:#B25234;" d="M344.858,205.598c-1.183,0-2.142-0.959-2.142-2.142v-6.074h0.363v-1.008
									c0-0.596-5.273-0.596-5.273,0v1.008h0.363v6.074c0,1.183-0.959,2.142-2.142,2.142s-2.142,0.959-2.142,2.142v24.882H347
									v-24.882C347,206.556,346.041,205.598,344.858,205.598z"/>
								<path style="fill:#CE714D;" d="M365.06,205.598L365.06,205.598c-1.183,0-2.142-0.959-2.142-2.142v-6.074h0.363v-1.008
									c0-0.596-5.273-0.596-5.273,0v1.008h0.363v6.074c0,1.183-0.959,2.142-2.142,2.142c-1.183,0-2.142,0.959-2.142,2.142v24.882
									h13.114v-24.882C367.202,206.556,366.243,205.598,365.06,205.598z"/>
							</g>
						</g>
						<g>
							<rect x="218.458" y="94.154" style="fill:#B78429;" width="180.971" height="66.225"/>
							<g>
								<polygon style="fill:#B25234;" points="264.382,133.51 266.193,130.189 240.73,130.189 242.038,133.51 238.18,138.542 
									238.18,160.379 245.024,160.379 261.128,160.379 267.971,160.379 267.971,138.542 								"/>
								<polygon style="fill:#B25234;" points="299.48,133.51 301.291,130.189 275.828,130.189 277.136,133.51 273.278,138.542 
									273.278,160.379 280.122,160.379 296.225,160.379 303.069,160.379 303.069,138.542 								"/>
								<polygon style="fill:#B25234;" points="334.577,133.51 336.389,130.189 310.926,130.189 312.234,133.51 308.376,138.542 
									308.376,160.379 315.22,160.379 331.323,160.379 338.167,160.379 338.167,138.542 								"/>
								<polygon style="fill:#B25234;" points="369.675,133.51 371.487,130.189 346.024,130.189 347.332,133.51 343.474,138.542 
									343.474,160.379 350.318,160.379 366.421,160.379 373.265,160.379 373.265,138.542 								"/>
							</g>
						</g>
					</g>
				</g>
			</g>
		</g>
		<g>
			<ellipse style="fill:#CEE6F4;" cx="379.725" cy="419.213" rx="261.77" ry="18.815"/>
			<g>
				<g>
					<g>
						<g>
							<g>
								<g>
									<path style="fill:#E7AC8D;" d="M249.476,163.504c-1.035-15.426-3.712-32.795-8.364-47.539
										c13.374-8.943,26.381-9.102,38.941,1.356c0.014,5.593,0.028,11.186,0.042,16.78c0.005,2.145-0.003,4.358-0.844,6.33
										c-1.353,3.171-4.538,5.072-7.13,7.346c-4.775,4.188-7.871,10.238-8.475,16.56c0,0,12.487,4.781,12.877,16.153
										c0.457,13.338-44.225,16.697-44.225,0.742C232.297,165.277,249.476,163.504,249.476,163.504z"/>
									<g>
										<g>
											<path style="fill:#1B1B28;" d="M274.028,129.982c0,1.242,0.569,2.248,1.27,2.248c0.702,0,1.27-1.006,1.27-2.248
												c0-1.242-0.569-2.248-1.27-2.248C274.597,127.734,274.028,128.74,274.028,129.982z"/>
											<path style="fill:#FFFFFF;" d="M274.64,129.24c0,0.425,0.195,0.77,0.435,0.77c0.24,0,0.435-0.345,0.435-0.77
												s-0.195-0.77-0.435-0.77C274.835,128.47,274.64,128.814,274.64,129.24z"/>
										</g>
										<g>
											<path style="fill:#1B1B28;" d="M265.343,129.982c0,1.242,0.569,2.248,1.27,2.248c0.702,0,1.27-1.006,1.27-2.248
												c0-1.242-0.569-2.248-1.27-2.248C265.912,127.734,265.343,128.74,265.343,129.982z"/>
											<path style="fill:#FFFFFF;" d="M265.956,129.24c0,0.425,0.195,0.77,0.435,0.77c0.24,0,0.435-0.345,0.435-0.77
												s-0.195-0.77-0.435-0.77C266.15,128.47,265.956,128.814,265.956,129.24z"/>
										</g>
										<path style="fill:#BC7D61;" d="M271.507,136.202c-0.209,0-0.397-0.144-0.446-0.356c-0.056-0.246,0.098-0.492,0.345-0.548
											c0.415-0.095,0.774-0.415,0.914-0.817c0.075-0.215,0.074-0.509-0.074-0.633c-0.155-0.131-0.481-0.104-0.775-0.069
											c-0.252,0.024-0.479-0.15-0.508-0.402c-0.029-0.251,0.151-0.479,0.402-0.508c0.373-0.044,0.998-0.117,1.469,0.276
											c0.493,0.413,0.532,1.119,0.351,1.637c-0.241,0.692-0.86,1.245-1.574,1.409
											C271.575,136.198,271.541,136.202,271.507,136.202z"/>
										<path style="fill:#BC7D61;" d="M269.69,140.276c-1.318,0-2.65-0.424-3.715-1.194c-1.19-0.86-2.076-2.171-2.429-3.597
											c-0.06-0.245,0.089-0.494,0.335-0.554c0.241-0.059,0.494,0.089,0.554,0.335c0.301,1.218,1.058,2.339,2.076,3.074
											c1.018,0.736,2.317,1.103,3.571,1.006c0.251-0.014,0.473,0.169,0.492,0.421c0.019,0.252-0.169,0.472-0.421,0.492
											C270,140.271,269.845,140.276,269.69,140.276z"/>
										<path style="fill:#1B1B28;" d="M268.21,126.081c-0.241-0.252-0.643-0.542-1.019-0.722
											c-0.389-0.189-0.807-0.302-1.233-0.323c-0.424-0.014-0.864,0.026-1.283,0.196c-0.427,0.142-0.824,0.392-1.215,0.661
											l-0.03,0.021c-0.208,0.143-0.493,0.091-0.636-0.117c-0.134-0.194-0.095-0.457,0.08-0.607
											c0.417-0.356,0.861-0.701,1.388-0.94c0.511-0.264,1.103-0.395,1.695-0.429c0.596-0.03,1.2,0.071,1.755,0.276
											c0.565,0.217,1.047,0.471,1.563,0.906c0.321,0.271,0.362,0.751,0.091,1.071c-0.271,0.321-0.75,0.362-1.071,0.091
											c-0.021-0.018-0.041-0.036-0.059-0.056L268.21,126.081z"/>
										<path style="fill:#1B1B28;" d="M273.066,125.076c0.384-0.42,0.755-0.681,1.218-0.922c0.453-0.226,0.985-0.364,1.518-0.334
											c0.528,0.032,1.043,0.202,1.444,0.477c0.416,0.26,0.738,0.595,1.035,0.934c0.167,0.19,0.148,0.479-0.042,0.645
											c-0.175,0.154-0.435,0.149-0.605-0.001l-0.026-0.023c-0.284-0.252-0.575-0.486-0.887-0.627
											c-0.307-0.162-0.624-0.203-0.919-0.188c-0.297,0.022-0.585,0.133-0.853,0.312c-0.257,0.169-0.538,0.443-0.685,0.659
											l-0.008,0.012c-0.237,0.347-0.71,0.437-1.057,0.2c-0.347-0.237-0.436-0.71-0.2-1.057
											C273.019,125.132,273.043,125.102,273.066,125.076z"/>
									</g>
								</g>
								<g>
									<path style="fill:#1B1B28;" d="M246.945,130.01c0,0,3.432-3.835,3.312-11.291c0,0,4.618-0.513,6.764,1.586
										c0,0,0.047-2.193-1.026-3.079c0,0,5.645-0.56,9.96,2.939c0,0-0.303-2.212-1.749-2.972c0,0,5.555-0.2,9.822,3.532
										c0,0,0.022-1.913-1.471-2.986c0,0,5.318,0.886,8.117,4.012v-4.898c0,0-7.511-8.304-18.66-8.304
										c-11.15,0-21.292,10.396-21.292,10.396l3.378,12.929L246.945,130.01z"/>
									<path style="fill:#1B1B28;" d="M245.499,138.965c0,0,1.169,9.018,2.627,10.527c1.458,1.509,0.385-11.227,0.385-11.227
										L245.499,138.965z"/>
								</g>
								<path style="fill:#FFFFFF;" d="M280.096,136.26c0,0-3.498-1.818-7.278-2.029c-3.78-0.211-12.181,0.958-12.181,0.958
									l-15.138-7.201l1.981,1.306l11.761,6.966c0,0-1.213,1.399-1.213,6.718l-12.428-3.284l0.083,0.565l12.438,4.119
									c0,0,6.345,4.726,13.296,4.043C271.417,148.42,281.917,143.817,280.096,136.26z"/>
								<g>
									<path style="fill:#E7AC8D;" d="M240.972,137.091c2.868,2.868,6.801,3.586,8.784,1.603c1.983-1.983,1.266-5.916-1.603-8.784
										c-2.868-2.868-6.801-3.586-8.784-1.603C237.385,130.29,238.103,134.223,240.972,137.091z"/>
									<path style="fill:#BC7D61;" d="M245.928,138.059c-0.196,0-0.378-0.127-0.438-0.324c-0.073-0.242,0.063-0.498,0.305-0.572
										c0.476-0.145,0.764-0.658,0.838-1.102c0.101-0.608-0.092-1.262-0.246-1.701c-0.556-1.585-1.526-2.997-2.805-4.084
										c-0.193-0.163-0.216-0.452-0.053-0.645c0.165-0.193,0.454-0.216,0.645-0.052c1.403,1.191,2.466,2.74,3.077,4.479
										c0.187,0.534,0.421,1.339,0.286,2.154c-0.147,0.883-0.727,1.601-1.475,1.828
										C246.017,138.053,245.972,138.059,245.928,138.059z"/>
								</g>
							</g>
							<g>
								<path style="fill:#0F4C81;" d="M242.84,127.155c0,0,6.855-9.247,23.979-10.833c17.124-1.586,13.287,6.753,13.287,6.753
									s-0.698-25.407-24.492-21.102C229.912,106.623,242.84,127.155,242.84,127.155z"/>
								<path style="fill:#D65050;" d="M242.84,127.155c0,0,29.935-19.904,37.266-4.079c0,0,15.801-1.774,8.073-8.191
									C280.45,108.466,255.424,111.982,242.84,127.155z"/>
							</g>
						</g>
						<g>
							<g>
								<g>
									<path style="fill:#6BA9CE;" d="M172.294,202.33c0,0-5.485-4.743-9.009-6.693c-3.524-1.95-12.025-3.201-12.64-0.992
										c-0.616,2.209,9.863,4.161,9.863,4.161s-14.157-0.491-14.28,1.852c-0.123,2.343,11.811,1.057,11.811,1.057
										s-12.48,2.332-12.032,4.542c0.448,2.211,11.91-1.361,11.91-1.361s-12.037,5.042-10.324,6.799
										c1.713,1.757,9.683-3.363,9.683-3.363s4.087,7.673,13.341,5.135L172.294,202.33z"/>
									<path style="fill:#0F4C81;" d="M171.365,201.066l37.441,5.376c5.26-13.923,10.934-25.601,17.972-35.908l9.907,6.684
										c0,0-3.345,32.022-16.452,43.853c-9.789,8.836-51.61-7.377-51.61-7.377L171.365,201.066z"/>
								</g>
								<path style="fill:#0F4C81;" d="M263.645,164.336c0,0,14.408,4.91,17.542,10.644c3.134,5.734,1.892,83.95,1.892,83.95
									s-11.966,22.552-64.746-2.719c0,0,2.342-81.468,9.21-86.585s21.932-6.122,21.932-6.122S257.39,172.51,263.645,164.336z"/>
								<g>
									<path style="fill:#6BA9CE;" d="M335.737,222.748c0,0,7.003-1.88,11.025-2.1c4.022-0.22,12.218,2.357,11.81,4.614
										c-0.408,2.257-10.691-0.551-10.691-0.551s12.957,5.726,12.046,7.888c-0.91,2.162-11.092-4.194-11.092-4.194
										s10.217,7.536,8.851,9.331c-1.366,1.795-10.127-6.414-10.127-6.414s8.638,9.782,6.331,10.617
										c-2.307,0.835-7.251-7.245-7.251-7.245s-7.021,5.126-14.246-1.191L335.737,222.748z"/>
									<path style="fill:#0F4C81;" d="M280.891,174.492l18.135,36.231l37.75,11.426l-3.171,13.675c0,0-37.732-2.041-46.066-13.315
										c-8.335-11.274-15.304-30.301-15.304-30.301L280.891,174.492z"/>
								</g>
							</g>
							<rect x="234.468" y="186.736" style="fill:#FFFFFF;" width="15.704" height="2.986"/>
							<path style="fill:#0A3B60;" d="M283.161,213.588c-0.154,0-0.286-0.116-0.303-0.272l-2.906-26.776
								c-0.018-0.167,0.103-0.318,0.271-0.336c0.168-0.016,0.319,0.103,0.336,0.271l2.906,26.776
								c0.018,0.167-0.103,0.318-0.271,0.336C283.183,213.588,283.172,213.588,283.161,213.588z"/>
							<path style="fill:#0A3B60;" d="M220.546,216.031c-0.005,0-0.01,0-0.016-0.001c-0.168-0.008-0.298-0.151-0.289-0.32
								c0.487-9.697,1.273-19.506,2.335-29.153c0.018-0.168,0.174-0.287,0.337-0.27c0.167,0.019,0.288,0.169,0.27,0.337
								c-1.061,9.635-1.846,19.432-2.333,29.117C220.842,215.904,220.707,216.031,220.546,216.031z"/>
						</g>
					</g>
					<g>
						<g>
							<g>
								<polygon style="fill:#3D4A54;" points="350.992,417.929 143.571,417.929 115.088,253.182 350.992,253.182 								"/>
								<polygon style="fill:#53606B;" points="403.712,417.929 196.291,417.929 167.809,253.182 403.712,253.182 								"/>
								<rect x="108.505" y="247.112" style="fill:#3D4A54;" width="299.313" height="10.079"/>
							</g>
							<g>
								<rect x="354.55" y="186.937" style="fill:#3D4A54;" width="16.146" height="60.175"/>
								<g>
									<rect x="316.774" y="154.298" style="fill:#3D4A54;" width="91.697" height="61.08"/>
									<path style="fill:#FFFFFF;" d="M369.683,184.838c0,3.899-3.161,7.06-7.06,7.06c-3.899,0-7.06-3.161-7.06-7.06
										c0-3.899,3.161-7.06,7.06-7.06C366.522,177.778,369.683,180.939,369.683,184.838z"/>
								</g>
							</g>
						</g>
						<g>
							<g>
								<rect x="183.765" y="193.474" style="fill:#C15F40;" width="29.11" height="53.638"/>
								<rect x="174.621" y="193.474" style="fill:#CE714D;" width="29.11" height="53.638"/>
								<ellipse style="fill:#C15F40;" cx="189.176" cy="220.293" rx="4.758" ry="11.662"/>
							</g>
							<g>
								<g>
									<path style="fill:#A8CBE5;" d="M221.94,213.371v-7.038c0-0.316-0.256-0.572-0.572-0.572h-4.118
										c-0.316,0-0.572,0.256-0.572,0.572v7.038c0,1.368-1.109,2.478-2.478,2.478l0,0c-1.368,0-2.478,1.109-2.478,2.478v28.786
										h15.172v-28.786c0-1.368-1.109-2.478-2.478-2.478l0,0C223.05,215.849,221.94,214.74,221.94,213.371z"/>
									<path style="fill:#1B1B28;" d="M222.36,206.344h-6.101v-1.166c0-0.69,6.101-0.69,6.101,0V206.344z"/>
								</g>
								<path style="fill:#FFFFFF;" d="M221.59,229.306c0,3.092-1.021,5.598-2.281,5.598c-1.26,0-2.281-2.506-2.281-5.598
									s1.021-5.598,2.281-5.598C220.569,223.707,221.59,226.214,221.59,229.306z"/>
							</g>
							<g>
								<polygon style="fill:#D65050;" points="169.79,247.112 141.725,247.112 141.725,220.406 165.4,214.252 169.79,220.406 
																	"/>
								<polygon style="fill:#ED6663;" points="136.474,210.19 138.074,214.252 133.355,220.406 133.355,247.112 161.42,247.112 
									161.42,220.406 165.4,214.252 167.615,210.19 								"/>
								<rect x="137.951" y="225.74" style="fill:#D65050;" width="19.284" height="2.79"/>
							</g>
						</g>
					</g>
				</g>
				<g>
					<g>
						<g>
							<g>
								<rect x="383.362" y="322.526" style="fill:#C15F40;" width="29.11" height="53.638"/>
								<rect x="374.218" y="322.526" style="fill:#CE714D;" width="29.11" height="53.638"/>
								<ellipse style="fill:#C15F40;" cx="388.773" cy="349.345" rx="4.758" ry="11.662"/>
							</g>
							<g>
								
									<rect x="314.639" y="325.674" transform="matrix(0.9004 -0.435 0.435 0.9004 -118.1173 176.1526)" style="fill:#C15F40;" width="22.152" height="40.817"/>
								
									<rect x="308.374" y="328.701" transform="matrix(0.9004 -0.435 0.435 0.9004 -120.0575 173.7276)" style="fill:#CE714D;" width="22.152" height="40.817"/>
								<path style="fill:#C15F40;" d="M322.71,347.534c2.132,4.413,2.401,8.696,0.6,9.566c-1.801,0.87-4.989-2.003-7.121-6.416
									c-2.132-4.413-2.401-8.696-0.6-9.566C317.39,340.248,320.578,343.121,322.71,347.534z"/>
							</g>
							<g>
								<g>
									<path style="fill:#A8CBE5;" d="M366.306,341.922v-7.038c0-0.316-0.256-0.572-0.572-0.572h-4.118
										c-0.316,0-0.572,0.256-0.572,0.572v7.038c0,1.368-1.109,2.478-2.478,2.478l0,0c-1.368,0-2.478,1.109-2.478,2.478v28.786
										h15.172v-28.786c0-1.368-1.109-2.478-2.478-2.478l0,0C367.416,344.4,366.306,343.291,366.306,341.922z"/>
									<path style="fill:#1B1B28;" d="M366.726,334.896h-6.101v-1.166c0-0.69,6.101-0.69,6.101,0V334.896z"/>
								</g>
								<path style="fill:#FFFFFF;" d="M365.957,357.857c0,3.092-1.021,5.598-2.281,5.598c-1.26,0-2.281-2.506-2.281-5.598
									c0-3.092,1.021-5.598,2.281-5.598C364.935,352.259,365.957,354.765,365.957,357.857z"/>
							</g>
							<g>
								<polygon style="fill:#D65050;" points="359.017,374.605 330.953,374.605 330.953,347.899 354.627,341.744 359.017,347.899 
																	"/>
								<polygon style="fill:#ED6663;" points="325.701,337.682 327.301,341.744 322.583,347.899 322.583,374.605 350.647,374.605 
									350.647,347.899 354.627,341.744 356.842,337.682 								"/>
								<rect x="327.178" y="353.233" style="fill:#D65050;" width="19.284" height="2.79"/>
							</g>
						</g>
						<g>
							<path style="fill:#1B262C;" d="M443.472,276.154c0,2.435-1.974,4.409-4.409,4.409c-2.435,0-4.409-1.974-4.409-4.409
								c0-2.435,1.974-4.408,4.409-4.408C441.498,271.746,443.472,273.719,443.472,276.154z"/>
							<g>
								<g>
									
										<ellipse transform="matrix(0.2415 -0.9704 0.9704 0.2415 -162.9612 629.707)" style="fill:#1B262C;" cx="321.316" cy="419.093" rx="8.211" ry="8.211"/>
									<path style="fill:#FFFFFF;" d="M325.019,419.093c0,2.045-1.658,3.703-3.703,3.703c-2.045,0-3.703-1.658-3.703-3.703
										c0-2.045,1.658-3.703,3.703-3.703C323.361,415.39,325.019,417.048,325.019,419.093z"/>
								</g>
								<path style="fill:#A8CBE5;" d="M321.316,420.924c-1.012,0-1.831-0.82-1.831-1.831V407.15c0-1.011,0.819-1.831,1.831-1.831
									s1.831,0.82,1.831,1.831v11.942C323.147,420.104,322.327,420.924,321.316,420.924z"/>
							</g>
							<g>
								<g>
									
										<ellipse transform="matrix(0.7319 -0.6814 0.6814 0.7319 -182.3206 374.7968)" style="fill:#1B262C;" cx="385.134" cy="419.093" rx="8.211" ry="8.211"/>
									<path style="fill:#FFFFFF;" d="M388.837,419.093c0,2.045-1.658,3.703-3.703,3.703c-2.045,0-3.703-1.658-3.703-3.703
										c0-2.045,1.658-3.703,3.703-3.703C387.18,415.39,388.837,417.048,388.837,419.093z"/>
								</g>
								<path style="fill:#A8CBE5;" d="M385.135,420.924c-1.011,0-1.831-0.82-1.831-1.831V407.15c0-1.011,0.82-1.831,1.831-1.831
									c1.011,0,1.831,0.82,1.831,1.831v11.942C386.966,420.104,386.146,420.924,385.135,420.924z"/>
							</g>
							<path style="fill:#AECAD3;" d="M440.573,275.119c-0.572-0.836-1.714-1.047-2.545-0.476l-22.671,15.541H281.569
								c-0.616,0-1.191,0.31-1.53,0.825c-0.339,0.515-0.396,1.165-0.152,1.731l8.864,20.559c0,0.001,0.001,0.002,0.002,0.004
								l8.566,19.868c0.001,0.003,0.002,0.005,0.003,0.008l9.229,21.406c0.001,0.001,0.001,0.003,0.002,0.004l3.246,7.53
								c4.259,9.876,13.96,16.259,24.716,16.259h79.577v10.671c0,8.972-7.298,16.27-16.27,16.27h-98.34
								c-1.012,0-1.831,0.82-1.831,1.831c0,1.011,0.82,1.831,1.831,1.831h98.34c10.99,0,19.932-8.942,19.932-19.932v-12.503V292.98
								l22.342-15.316C440.932,277.092,441.145,275.953,440.573,275.119z M301.791,334.293h26.091v17.75h-18.438L301.791,334.293z
								 M414.093,310.758h-18.73v-16.911h18.73V310.758z M374.09,314.42h17.611v16.211H374.09V314.42z M370.428,330.631h-17.611
								V314.42h17.611V330.631z M391.701,334.293v17.75H374.09v-17.75H391.701z M395.363,334.293h18.73v17.75h-18.73V334.293z
								 M395.363,330.631V314.42h18.73v16.211H395.363z M391.701,310.758H374.09v-16.911h17.611V310.758z M370.428,310.758h-17.611
								v-16.911h17.611V310.758z M349.155,310.758h-17.611v-16.911h17.611V310.758z M349.155,314.42v16.211h-17.611V314.42H349.155z
								 M327.882,330.631h-27.67l-6.989-16.211h34.659V330.631z M331.544,334.293h17.611v17.75h-17.611V334.293z M352.818,334.293
								h17.611v17.75h-17.611V334.293z M370.428,355.706v19.01h-17.611v-19.01H370.428z M374.09,355.706h17.611v19.01H374.09
								V355.706z M395.363,355.706h18.73v19.01h-18.73V355.706z M327.882,293.847v16.911h-36.238l-7.291-16.911H327.882z
								 M313.163,360.67l-2.14-4.964h16.859v18.043C321.386,371.818,315.938,367.104,313.163,360.67z M331.544,374.514v-18.808
								h17.611v19.01h-14.639C333.512,374.716,332.522,374.639,331.544,374.514z"/>
						</g>
					</g>
					<g>
						<g>
							<g>
								<path style="fill:#1B262C;" d="M613.599,387.841l13.983,8.372c0,0-16.558,37.575-19.942,36.237s-2.693-15.853-0.925-23.323
									c1.768-7.47-0.225-8.966-0.225-8.966L613.599,387.841z"/>
								<path style="fill:#3D4A54;" d="M522.807,276.201c0,0,8.434,66.962,18.492,82.395c10.058,15.432,65.17,43.183,65.17,43.183
									l10.91-12.74l-50.817-40.943l-6.248-75.697L522.807,276.201z"/>
							</g>
							<g>
								<path style="fill:#1B262C;" d="M500.301,420.739l-4.567,15.644c0,0-40.54-6.525-40.101-10.137
									c0.439-3.612,14.657-6.612,22.332-6.789c7.675-0.178,8.618-2.484,8.618-2.484L500.301,420.739z"/>
								<path style="fill:#53606B;" d="M584.062,271.987c0,0,9.561,19.842-31.688,54.199c-40.805,33.988-50,97.019-50,97.019
									l-21.273-5.978c0,0,19.151-89.33,57.16-141.839L584.062,271.987z"/>
							</g>
						</g>
						<g>
							<path style="fill:#1B1B28;" d="M561.644,147.678c0,0,6.695-12.473,2.682-19.437c-4.012-6.964-12.759-9.113-12.759-9.113
								l0.63,3.038c0,0-9.305-3.482-18.228-3.482l1.853,2.89c0,0-8.467-0.035-16.094,4.243l2.939,1.833
								c0,0-9.673,14.081,2.169,22.004C536.678,157.576,561.644,147.678,561.644,147.678z"/>
							<g>
								<path style="fill:#E7AC8D;" d="M554.612,181.453c1.035-15.426,3.712-32.795,8.364-47.539
									c-13.375-8.943-26.38-9.102-38.941,1.356c-0.014,5.593-0.028,11.187-0.042,16.78c-0.005,2.144,0.003,4.358,0.844,6.33
									c1.353,3.171,4.538,5.072,7.13,7.346c4.775,4.188,7.871,10.238,8.475,16.56c0,0-12.487,4.781-12.877,16.153
									c-0.457,13.338,44.225,16.697,44.225,0.742C571.79,183.225,554.612,181.453,554.612,181.453z"/>
								<g>
									<g>
										<path style="fill:#1B1B28;" d="M530.059,147.93c0,1.242-0.569,2.248-1.271,2.248s-1.27-1.006-1.27-2.248
											c0-1.242,0.569-2.248,1.27-2.248S530.059,146.689,530.059,147.93z"/>
										<path style="fill:#FFFFFF;" d="M529.447,147.189c0,0.425-0.195,0.77-0.435,0.77c-0.24,0-0.435-0.345-0.435-0.77
											c0-0.425,0.195-0.77,0.435-0.77C529.252,146.419,529.447,146.764,529.447,147.189z"/>
									</g>
									<g>
										<path style="fill:#1B1B28;" d="M538.744,147.93c0,1.242-0.569,2.248-1.27,2.248c-0.702,0-1.271-1.006-1.271-2.248
											c0-1.242,0.569-2.248,1.271-2.248C538.175,145.682,538.744,146.689,538.744,147.93z"/>
										<path style="fill:#FFFFFF;" d="M538.132,147.189c0,0.425-0.195,0.77-0.435,0.77c-0.24,0-0.435-0.345-0.435-0.77
											c0-0.425,0.195-0.77,0.435-0.77C537.937,146.419,538.132,146.764,538.132,147.189z"/>
									</g>
									<path style="fill:#BC7D61;" d="M532.579,154.15c-0.033,0-0.068-0.004-0.102-0.011c-0.714-0.163-1.333-0.717-1.573-1.409
										c-0.18-0.518-0.142-1.225,0.352-1.636c0.471-0.393,1.092-0.32,1.469-0.277c0.25,0.029,0.43,0.257,0.401,0.508
										c-0.029,0.25-0.227,0.429-0.508,0.402c-0.293-0.035-0.619-0.061-0.775,0.07c-0.148,0.123-0.148,0.418-0.073,0.632
										c0.14,0.402,0.497,0.722,0.913,0.817c0.246,0.057,0.401,0.302,0.343,0.548C532.977,154.007,532.788,154.15,532.579,154.15z
										"/>
									<path style="fill:#BC7D61;" d="M534.397,158.225c-0.155,0-0.309-0.005-0.463-0.017c-0.253-0.02-0.441-0.24-0.422-0.492
										c0.019-0.251,0.209-0.445,0.491-0.421c1.259,0.094,2.553-0.271,3.572-1.006c1.018-0.736,1.775-1.857,2.076-3.076
										c0.062-0.244,0.306-0.396,0.554-0.335c0.246,0.061,0.396,0.309,0.335,0.554c-0.353,1.427-1.239,2.738-2.43,3.598
										C537.046,157.801,535.714,158.225,534.397,158.225z"/>
									<path style="fill:#1B1B28;" d="M534.811,142.951c0.516-0.435,0.998-0.689,1.563-0.906c0.555-0.204,1.158-0.306,1.755-0.276
										c0.592,0.035,1.184,0.165,1.695,0.43c0.526,0.239,0.97,0.584,1.388,0.94c0.192,0.164,0.215,0.452,0.051,0.644
										c-0.153,0.179-0.415,0.211-0.605,0.081l-0.032-0.022c-0.39-0.269-0.788-0.52-1.215-0.661
										c-0.418-0.17-0.859-0.21-1.283-0.196c-0.426,0.021-0.844,0.133-1.233,0.322c-0.376,0.18-0.778,0.469-1.019,0.722
										l-0.026,0.027c-0.29,0.304-0.771,0.315-1.075,0.025c-0.304-0.29-0.315-0.771-0.026-1.075
										C534.77,142.988,534.791,142.969,534.811,142.951z"/>
									<path style="fill:#1B1B28;" d="M529.823,143.956c-0.147-0.216-0.428-0.49-0.685-0.659c-0.268-0.179-0.556-0.29-0.853-0.312
										c-0.295-0.015-0.612,0.026-0.919,0.188c-0.313,0.142-0.603,0.376-0.887,0.627l-0.026,0.023
										c-0.189,0.167-0.478,0.15-0.645-0.039c-0.155-0.174-0.152-0.434-0.002-0.605c0.297-0.339,0.619-0.674,1.035-0.934
										c0.401-0.275,0.916-0.444,1.444-0.477c0.533-0.03,1.066,0.108,1.518,0.334c0.463,0.241,0.833,0.502,1.218,0.922
										c0.284,0.31,0.263,0.791-0.047,1.075c-0.31,0.284-0.791,0.263-1.075-0.047c-0.024-0.026-0.045-0.053-0.065-0.081
										L529.823,143.956z"/>
								</g>
							</g>
							<g>
								<path style="fill:#1B1B28;" d="M557.142,147.958c0,0-3.432-3.835-3.312-11.291c0,0-4.619-0.513-6.765,1.586
									c0,0-0.047-2.193,1.026-3.079c0,0-5.645-0.56-9.96,2.939c0,0,0.303-2.212,1.749-2.972c0,0-5.555-0.2-9.822,3.532
									c0,0-0.022-1.913,1.471-2.986c0,0-5.318,0.886-8.117,4.012v-4.898c0,0,7.511-8.304,18.66-8.304
									c11.15,0,22.253,6.718,22.253,6.718l-4.339,16.608L557.142,147.958z"/>
								<path style="fill:#1B1B28;" d="M558.588,156.914c0,0-1.169,9.018-2.627,10.527c-1.458,1.509-0.385-11.227-0.385-11.227
									L558.588,156.914z"/>
							</g>
							<path style="fill:#FFFFFF;" d="M523.992,154.208c0,0,3.498-1.818,7.278-2.029c3.78-0.21,12.181,0.958,12.181,0.958
								l15.138-7.201l-1.981,1.305l-11.761,6.966c0,0,1.213,1.4,1.213,6.718l12.428-3.284l-0.083,0.565l-12.438,4.119
								c0,0-6.345,4.727-13.296,4.043C532.67,166.369,522.171,161.766,523.992,154.208z"/>
							<g>
								<path style="fill:#E7AC8D;" d="M563.116,155.04c-2.868,2.868-6.801,3.586-8.785,1.603c-1.983-1.983-1.265-5.916,1.603-8.785
									c2.868-2.868,6.801-3.586,8.784-1.603C566.702,148.239,565.984,152.172,563.116,155.04z"/>
								<path style="fill:#BC7D61;" d="M558.159,156.009c-0.044,0-0.089-0.007-0.134-0.02c-0.75-0.229-1.328-0.947-1.475-1.829
									c-0.135-0.815,0.098-1.62,0.286-2.154c0.609-1.738,1.672-3.287,3.076-4.478c0.194-0.163,0.483-0.141,0.646,0.052
									c0.163,0.193,0.139,0.482-0.052,0.645c-1.28,1.087-2.251,2.499-2.806,4.084c-0.154,0.439-0.347,1.093-0.246,1.701
									c0.074,0.444,0.361,0.957,0.838,1.103c0.242,0.074,0.378,0.329,0.304,0.572
									C558.537,155.882,558.356,156.009,558.159,156.009z"/>
							</g>
						</g>
						<g>
							<g>
								<path style="fill:#EABA56;" d="M540.442,182.285c0,0-14.408,4.91-17.542,10.644c-3.134,5.734-1.892,83.95-1.892,83.95
									s11.966,22.552,64.745-2.719c0,0-2.342-81.468-9.21-86.585c-6.868-5.117-21.932-6.122-21.932-6.122
									S546.697,190.458,540.442,182.285z"/>
								<g>
									<path style="fill:#6BA9CE;" d="M467.23,255.189c0,0-7.228-0.582-11.223-0.071c-3.995,0.511-11.59,4.528-10.781,6.674
										c0.81,2.146,10.415-2.476,10.415-2.476s-11.707,7.975-10.421,9.937c1.286,1.962,10.15-6.131,10.15-6.131
										s-8.686,9.26-7.017,10.777c1.668,1.518,8.8-8.14,8.8-8.14s-6.726,11.183-4.306,11.587c2.421,0.404,5.821-8.437,5.821-8.437
										s7.833,3.771,13.795-3.748L467.23,255.189z"/>
									<path style="fill:#EABA56;" d="M522.9,192.929l-17.334,40.869l-39.467,20.99l5.592,12.876c0,0,41.146-11.756,47.304-24.352
										c6.158-12.596,12.264-28.924,12.264-28.924L522.9,192.929z"/>
								</g>
								<g>
									<path style="fill:#6BA9CE;" d="M588.969,272.398c0,0-6.213,3.738-9.162,6.482c-2.949,2.743-6.781,10.434-4.873,11.706
										c1.908,1.272,7.021-8.081,7.021-8.081s-4.867,13.303-2.679,14.148c2.189,0.845,4.676-10.897,4.676-10.897
										s-1.663,12.586,0.577,12.848c2.241,0.261,2.409-11.743,2.409-11.743s1.05,13.008,3.253,11.926
										c2.202-1.082-0.186-10.249-0.186-10.249s8.563-1.499,9.027-11.084L588.969,272.398z"/>
									<path style="fill:#EABA56;" d="M587.479,272.889l16.749-33.915l-22.643-15.928l-5.872-36.064
										c0,0,38.802,29.544,45.972,45.679c5.355,12.051-23.055,46.76-23.055,46.76L587.479,272.889z"/>
								</g>
							</g>
							<path style="fill:#AA4E31;" d="M520.966,237.458c-0.002,0-0.005,0-0.007,0c-0.169-0.004-0.302-0.144-0.298-0.312
								c0.253-10.381,1.194-20.849,2.801-31.114c0.026-0.166,0.174-0.278,0.349-0.255c0.166,0.026,0.28,0.182,0.254,0.349
								c-1.602,10.239-2.543,20.681-2.794,31.034C521.268,237.327,521.131,237.458,520.966,237.458z"/>
							<path style="fill:#AA4E31;" d="M581.237,222.866c-0.072,0-0.144-0.025-0.203-0.076c-3.809-3.369-6.673-7.701-8.283-12.526
								c-0.054-0.16,0.033-0.333,0.193-0.386c0.161-0.053,0.333,0.033,0.386,0.193c1.576,4.724,4.38,8.964,8.109,12.262
								c0.126,0.112,0.137,0.305,0.026,0.431C581.405,222.831,581.321,222.866,581.237,222.866z"/>
						</g>
					</g>
				</g>
			</g>
		</g>
	</g>
</g>
</svg>
