<?xml version="1.0" encoding="utf-8"?>
<!-- Generator: Adobe Illustrator 27.5.0, SVG Export Plug-In . SVG Version: 6.00 Build 0)  -->
<svg version="1.1" xmlns="http://www.w3.org/2000/svg" xmlns:xlink="http://www.w3.org/1999/xlink" x="0px" y="0px"
	 viewBox="0 0 3710 3710" style="enable-background:new 0 0 3710 3710;" xml:space="preserve">

<g id="Illustration">
	<g>
		<linearGradient id="SVGID_1_" gradientUnits="userSpaceOnUse" x1="3606.491" y1="4063.4121" x2="1127.0443" y2="984.0951">
			<stop  offset="0" style="stop-color:#B37CFF"/>
			<stop  offset="1" style="stop-color:#F895E7"/>
		</linearGradient>
		<path style="opacity:0.3;fill:url(#SVGID_1_);" d="M2926.857,2847.325c-57.088,59.863-111.104,98.468-153.781,128.969
			c-501.658,358.529-1095.254,254.02-1221.41,228.498c-186.292-37.688-546.391-110.539-806.737-415.494
			C351.05,2327.924,412.383,1601.044,717.903,1121.22c55.884-87.768,351.083-574.9,951.071-653.021
			c363.107-47.278,786.372,48.076,1092.89,303.866C3405.271,1308.992,3359.468,2393.679,2926.857,2847.325z"/>
		<g>
			<g>
				
					<linearGradient id="SVGID_00000065755458904607641030000014974701289829417103_" gradientUnits="userSpaceOnUse" x1="1678.3386" y1="1874.4187" x2="-278.4768" y2="825.4034">
					<stop  offset="0" style="stop-color:#53D8FF"/>
					<stop  offset="1" style="stop-color:#3840F7"/>
				</linearGradient>
				<path style="fill:url(#SVGID_00000065755458904607641030000014974701289829417103_);" d="M1045.861,2297.516
					c-9.142-234.786-62.505-1167.159-344.827-1738.887c-20.159-40.824-84.169-46.433-100.405-4.165
					c-94.196,245.234-415.39,1006.626,404.681,1762.34C1021.093,2331.348,1046.691,2318.836,1045.861,2297.516z"/>
				<path style="opacity:0.24;fill:#FFFFFF;" d="M1006.474,2296.172c-2.106-1.324-3.873-3.237-5.029-5.64
					c-212.088-442.316-295.263-809.01-327.685-1038.744c-35.226-249.567-20.347-392.275-19.695-398.23
					c0.817-7.486,7.55-12.89,15.034-12.07c7.485,0.796,12.893,7.547,12.082,15.03c-0.621,5.73-57.573,582.946,344.863,1422.215
					c3.255,6.797,0.39,14.94-6.403,18.198C1015.255,2299.034,1010.307,2298.582,1006.474,2296.172z"/>
			</g>
			<g>
				
					<linearGradient id="SVGID_00000132059351383952162090000000181103001669454473_" gradientUnits="userSpaceOnUse" x1="803.075" y1="612.728" x2="1186.3674" y2="2065.2075">
					<stop  offset="0" style="stop-color:#53D8FF"/>
					<stop  offset="1" style="stop-color:#3840F7"/>
				</linearGradient>
				<path style="fill:url(#SVGID_00000132059351383952162090000000181103001669454473_);" d="M1065.043,1989.592
					c14.718,18.302,43.324,15.639,54.643-4.916c62.458-113.421,210.047-450.111,42.119-864.749
					C1019.996,769.781,976.35,566.472,962.927,472.81c-2.839-19.806-29.298-24.501-38.77-6.891
					C819.646,660.196,531.726,1326.371,1065.043,1989.592z"/>
				<path style="opacity:0.24;fill:#FFFFFF;" d="M1093.148,1979.245c-3.35-1.687-5.548-5.253-5.301-9.229
					c0.357-5.689,33.625-574.668-140.268-1066.698c-1.776-5.027,0.859-10.546,5.886-12.322c5.029-1.77,10.548,0.855,12.322,5.886
					c175.233,495.828,141.693,1068.613,141.335,1074.339c-0.337,5.325-4.921,9.367-10.242,9.031
					C1095.539,1980.168,1094.279,1979.814,1093.148,1979.245z"/>
			</g>
		</g>
		<g>
			
				<linearGradient id="SVGID_00000084522774562059976720000010886480592691996592_" gradientUnits="userSpaceOnUse" x1="1725.7606" y1="3037.9231" x2="2956.4497" y2="-1024.3467">
				<stop  offset="0" style="stop-color:#A737D5"/>
				<stop  offset="1" style="stop-color:#EF497A"/>
			</linearGradient>
			
				<rect x="812.496" y="1348.517" style="fill:url(#SVGID_00000084522774562059976720000010886480592691996592_);" width="2355.983" height="1631.187"/>
			<g>
				
					<linearGradient id="SVGID_00000003808767558165196630000004814266550841817775_" gradientUnits="userSpaceOnUse" x1="-136.5995" y1="295.2684" x2="4774.374" y2="6481.2104">
					<stop  offset="0" style="stop-color:#2B3582"/>
					<stop  offset="1" style="stop-color:#150E42"/>
				</linearGradient>
				<path style="fill:url(#SVGID_00000003808767558165196630000004814266550841817775_);" d="M1924.479,2972.938h-917.335V1655.44
					c0-7.301,5.919-13.22,13.22-13.22h885.345c10.366,0,18.77,8.404,18.77,18.77V2972.938z"/>
				
					<linearGradient id="SVGID_00000155832748430442565710000013585759759154275989_" gradientUnits="userSpaceOnUse" x1="1547.4636" y1="1181.326" x2="1489.8671" y2="1596.019">
					<stop  offset="0" style="stop-color:#A737D5"/>
					<stop  offset="1" style="stop-color:#EF497A"/>
				</linearGradient>
				<path style="fill:url(#SVGID_00000155832748430442565710000013585759759154275989_);" d="M1959.81,1739.191H996.32
					c-7.868,0-14.245-6.378-14.245-14.246v-87.899c0-7.868,6.378-14.246,14.245-14.246h963.49c7.868,0,14.245,6.378,14.245,14.246
					v87.899C1974.055,1732.813,1967.677,1739.191,1959.81,1739.191z"/>
			</g>
			<g>
				
					<linearGradient id="SVGID_00000018922667980493177780000007615901867199099823_" gradientUnits="userSpaceOnUse" x1="504.8191" y1="-220.6784" x2="5415.7925" y2="5965.2637">
					<stop  offset="0" style="stop-color:#2B3582"/>
					<stop  offset="1" style="stop-color:#150E42"/>
				</linearGradient>
				<path style="fill:url(#SVGID_00000018922667980493177780000007615901867199099823_);" d="M2982.101,2981.248h-917.335V1663.75
					c0-7.301,5.919-13.22,13.22-13.22h885.345c10.366,0,18.77,8.404,18.77,18.77V2981.248z"/>
				
					<linearGradient id="SVGID_00000160885831672862308140000006099390944343193997_" gradientUnits="userSpaceOnUse" x1="2577.0117" y1="748.1989" x2="2545.1829" y2="1342.3356">
					<stop  offset="0" style="stop-color:#A737D5"/>
					<stop  offset="1" style="stop-color:#EF497A"/>
				</linearGradient>
				<path style="fill:url(#SVGID_00000160885831672862308140000006099390944343193997_);" d="M2975.434,1750.863h-896.967
					c-26.237-10.005-47.507-31.274-47.507-57.512v-21.376c0-26.237,21.27-47.507,47.507-47.507h896.967
					c26.237,0,47.507,21.27,47.507,47.507v21.376C3022.941,1719.588,3001.672,1740.858,2975.434,1750.863z"/>
			</g>
			<g>
				<g>
					
						<linearGradient id="SVGID_00000124863863942740955200000010701081556350926014_" gradientUnits="userSpaceOnUse" x1="1789.6418" y1="2168.5579" x2="917.7831" y2="3125.7747">
						<stop  offset="0" style="stop-color:#FDF53F"/>
						<stop  offset="1" style="stop-color:#D93C65"/>
					</linearGradient>
					<path style="fill:url(#SVGID_00000124863863942740955200000010701081556350926014_);" d="M1533.813,2894.174
						c31.167,0.656,56.751-27.158,56.751-61.698v-274.568c0-36.074-26.165-65.427-58.72-65.82
						c-97.707-1.179-299.222-1.238-464.105,14.158c-22.5,2.1-40.001,22.534-40.817,47.536l-15.41,265.452
						c-1.145,35.111,23.908,64.445,55.612,65.113L1533.813,2894.174z"/>
					<path style="fill:#FFFFFF;" d="M1533.973,2587.615c0.415,23.363-0.211,60.432-0.723,84.381
						c-0.266,12.46-10.139,21.955-21.311,20.504l-80.409-10.442c-10.712-1.391-18.259-12.33-16.66-24.149l9.87-72.955
						c1.402-10.357,9.431-18.02,18.883-18.02h71.261C1525.266,2566.935,1533.768,2576.112,1533.973,2587.615z"/>
					<path style="opacity:0.37;fill:#FFFFFF;" d="M1323.836,2725.876l-67.076,8.017c-9.386,1.123-17.395-7.454-16.703-17.886
						l14.664-221.084c28.118-0.988,55.853-1.708,82.615-2.215v216.508C1337.336,2717.775,1331.516,2724.958,1323.836,2725.876z"/>
					<path style="fill:#FFFFFF;" d="M1296.344,2687.557c-0.207,3.977-3.18,7.043-6.729,7.043c-0.132,0-0.264-0.005-0.396-0.015
						c-3.72-0.238-6.563-3.772-6.343-7.894l10.114-192.955c4.535-0.124,9.034-0.236,13.531-0.347L1296.344,2687.557z"/>
					<g>
						
							<linearGradient id="SVGID_00000012439356244870316120000015930804797677236654_" gradientUnits="userSpaceOnUse" x1="95.1839" y1="2580.5493" x2="-64.4869" y2="2812.5706" gradientTransform="matrix(-1 0 0 1 1563.5464 0)">
							<stop  offset="0" style="stop-color:#2B3582"/>
							<stop  offset="1" style="stop-color:#150E42"/>
						</linearGradient>
						<path style="fill:url(#SVGID_00000012439356244870316120000015930804797677236654_);" d="M1496.786,2657.26
							c1.177,0,2.17-1.012,2.245-2.337l3.479-60.775c0.079-1.373-0.861-2.555-2.104-2.643c-1.305-0.112-2.306,0.959-2.385,2.332
							l-3.479,60.775c-0.079,1.372,0.861,2.555,2.104,2.643C1496.694,2657.26,1496.742,2657.26,1496.786,2657.26z"/>
						
							<linearGradient id="SVGID_00000106117596898707357740000005603428128554442423_" gradientUnits="userSpaceOnUse" x1="99.9988" y1="2584.5786" x2="-59.3623" y2="2816.1497" gradientTransform="matrix(-1 0 0 1 1563.5464 0)">
							<stop  offset="0" style="stop-color:#2B3582"/>
							<stop  offset="1" style="stop-color:#150E42"/>
						</linearGradient>
						<path style="fill:url(#SVGID_00000106117596898707357740000005603428128554442423_);" d="M1489.626,2657.26
							c1.208,0,2.21-1.061,2.249-2.409l1.823-61.938c0.039-1.378-0.936-2.531-2.174-2.575c-1.432-0.078-2.28,1.037-2.324,2.409
							l-1.823,61.939c-0.04,1.377,0.936,2.531,2.175,2.575C1489.552,2657.26,1489.604,2657.26,1489.626,2657.26z"/>
						
							<linearGradient id="SVGID_00000036232410901132546660000018004826489025645202_" gradientUnits="userSpaceOnUse" x1="105.9505" y1="2589.3015" x2="-53.5644" y2="2821.0964" gradientTransform="matrix(-1 0 0 1 1563.5464 0)">
							<stop  offset="0" style="stop-color:#2B3582"/>
							<stop  offset="1" style="stop-color:#150E42"/>
						</linearGradient>
						<path style="fill:url(#SVGID_00000036232410901132546660000018004826489025645202_);" d="M1479.918,2657.255
							c-1.243-0.063-2.2-1.231-2.139-2.604c0.892-20.807,2.592-60.494,2.618-61.846c0.009-1.363,1.015-2.468,2.249-2.468
							c1.243,0,2.249,1.115,2.249,2.492c0,1.027-2.188,51.874-2.627,62.055c-0.057,1.339-1.05,2.375-2.245,2.375
							C1479.989,2657.26,1479.954,2657.26,1479.918,2657.255z M1480.353,2592.829h0.044H1480.353z"/>
						
							<linearGradient id="SVGID_00000149341685396655024170000010345466274174405812_" gradientUnits="userSpaceOnUse" x1="116.1685" y1="2597.6394" x2="-42.7515" y2="2828.5698" gradientTransform="matrix(-1 0 0 1 1563.5464 0)">
							<stop  offset="0" style="stop-color:#2B3582"/>
							<stop  offset="1" style="stop-color:#150E42"/>
						</linearGradient>
						<path style="fill:url(#SVGID_00000149341685396655024170000010345466274174405812_);" d="M1465.032,2659.752
							c2.412,0,4.406-2.117,4.489-4.809c1.902-60.011,1.568-61.365,1.349-62.26c-0.65-2.662-3.145-4.224-5.522-3.499
							c-2.201,0.667-3.576,3.032-3.277,5.47c0.145,3.606-0.861,38.523-1.537,59.938c-0.088,2.75,1.854,5.062,4.335,5.154
							C1464.922,2659.752,1464.979,2659.752,1465.032,2659.752z"/>
						
							<linearGradient id="SVGID_00000182512123642187626610000013776578916257462153_" gradientUnits="userSpaceOnUse" x1="122.9516" y1="2603.0334" x2="-36.0973" y2="2834.1511" gradientTransform="matrix(-1 0 0 1 1563.5464 0)">
							<stop  offset="0" style="stop-color:#2B3582"/>
							<stop  offset="1" style="stop-color:#150E42"/>
						</linearGradient>
						<path style="fill:url(#SVGID_00000182512123642187626610000013776578916257462153_);" d="M1455.285,2657.26
							c1.244,0,2.249-1.115,2.249-2.492v-60.775c0-1.378-1.006-2.492-2.249-2.492c-1.243,0-2.248,1.114-2.248,2.492v60.775
							C1453.036,2656.146,1454.042,2657.26,1455.285,2657.26z"/>
						
							<linearGradient id="SVGID_00000084519994522180065630000013836469421700294588_" gradientUnits="userSpaceOnUse" x1="127.1837" y1="2606.3445" x2="-32.3256" y2="2838.1309" gradientTransform="matrix(-1 0 0 1 1563.5464 0)">
							<stop  offset="0" style="stop-color:#2B3582"/>
							<stop  offset="1" style="stop-color:#150E42"/>
						</linearGradient>
						<path style="fill:url(#SVGID_00000084519994522180065630000013836469421700294588_);" d="M1447.413,2657.26
							c1.221,0,2.223-1.081,2.249-2.434c0.431-21.118,1.437-55.611,2.337-59.758c0.395-0.783,0.391-1.777-0.083-2.584
							c-0.681-1.158-2.074-1.47-3.114-0.715c-1.226,0.89-2.39,1.733-3.637,62.941c-0.026,1.377,0.957,2.516,2.196,2.551H1447.413z"
							/>
						
							<linearGradient id="SVGID_00000052104009501998353470000013302808585700827038_" gradientUnits="userSpaceOnUse" x1="88.1585" y1="2575.0481" x2="-71.0251" y2="2806.3613" gradientTransform="matrix(-1 0 0 1 1563.5464 0)">
							<stop  offset="0" style="stop-color:#2B3582"/>
							<stop  offset="1" style="stop-color:#150E42"/>
						</linearGradient>
						<path style="fill:url(#SVGID_00000052104009501998353470000013302808585700827038_);" d="M1508.888,2662.794
							c2.376,0,4.362-2.064,4.489-4.726l3-63.818c0.128-2.75-1.779-5.091-4.261-5.237c-2.354-0.185-4.594,1.971-4.726,4.721
							l-3,63.817c-0.128,2.75,1.779,5.091,4.26,5.237C1508.73,2662.794,1508.809,2662.794,1508.888,2662.794z"/>
					</g>
				</g>
				<g>
					
						<linearGradient id="SVGID_00000016073595332537264990000013247479450510635936_" gradientUnits="userSpaceOnUse" x1="1783.4441" y1="1750.515" x2="960.3616" y2="2719.9248">
						<stop  offset="0" style="stop-color:#FDF53F"/>
						<stop  offset="1" style="stop-color:#D93C65"/>
					</linearGradient>
					<path style="fill:url(#SVGID_00000016073595332537264990000013247479450510635936_);" d="M1527.465,2459.723V2213.05
						c0-32.409-22.509-58.78-50.516-59.133c-84.057-1.059-257.419-1.112-399.267,12.719c-19.356,1.887-34.413,20.245-35.114,42.707
						l-13.257,238.483c-0.985,31.544,20.568,57.898,47.842,58.498l401.49,8.828
						C1505.456,2515.742,1527.465,2490.753,1527.465,2459.723z"/>
					<path style="fill:#FFFFFF;" d="M1478.781,2239.739c0.358,20.989-0.181,54.292-0.622,75.809
						c-0.23,11.193-8.723,19.724-18.334,18.421l-69.176-9.382c-9.215-1.25-15.708-11.077-14.332-21.695l8.491-65.543
						c1.206-9.305,8.114-16.189,16.245-16.189h61.305C1471.291,2221.16,1478.605,2229.404,1478.781,2239.739z"/>
					<path style="opacity:0.37;fill:#FFFFFF;" d="M1298.001,2363.953l-57.705,7.203c-8.074,1.009-14.964-6.697-14.369-16.069
						l12.615-198.623c24.19-0.887,48.05-1.535,71.073-1.99v194.512C1309.615,2356.675,1304.608,2363.128,1298.001,2363.953z"/>
					<path style="fill:#FFFFFF;" d="M1274.35,2329.527c-0.178,3.573-2.736,6.328-5.789,6.328c-0.114,0-0.227-0.005-0.341-0.014
						c-3.201-0.214-5.645-3.389-5.457-7.092l8.701-173.351c3.901-0.112,7.771-0.212,11.641-0.312L1274.35,2329.527z"/>
					<g>
						
							<linearGradient id="SVGID_00000023278962642249010290000012812962389326110646_" gradientUnits="userSpaceOnUse" x1="142.3731" y1="2233.3711" x2="-1.1487" y2="2441.9258" gradientTransform="matrix(-1 0 0 1 1563.5464 0)">
							<stop  offset="0" style="stop-color:#2B3582"/>
							<stop  offset="1" style="stop-color:#150E42"/>
						</linearGradient>
						<path style="fill:url(#SVGID_00000023278962642249010290000012812962389326110646_);" d="M1446.789,2302.308
							c1.013,0,1.867-0.909,1.932-2.099l2.993-54.6c0.068-1.233-0.741-2.296-1.81-2.375c-1.123-0.101-1.984,0.861-2.052,2.094
							l-2.993,54.601c-0.068,1.233,0.741,2.295,1.81,2.374C1446.71,2302.308,1446.751,2302.308,1446.789,2302.308z"/>
						
							<linearGradient id="SVGID_00000139983337162631652070000013539574640550267063_" gradientUnits="userSpaceOnUse" x1="146.374" y1="2237.0203" x2="3.2402" y2="2445.0112" gradientTransform="matrix(-1 0 0 1 1563.5464 0)">
							<stop  offset="0" style="stop-color:#2B3582"/>
							<stop  offset="1" style="stop-color:#150E42"/>
						</linearGradient>
						<path style="fill:url(#SVGID_00000139983337162631652070000013539574640550267063_);" d="M1440.63,2302.308
							c1.039,0,1.901-0.953,1.935-2.164l1.568-55.646c0.034-1.238-0.805-2.274-1.87-2.314c-1.233-0.07-1.962,0.932-1.999,2.165
							l-1.569,55.646c-0.034,1.237,0.805,2.274,1.871,2.313C1440.565,2302.308,1440.61,2302.308,1440.63,2302.308z"/>
						
							<linearGradient id="SVGID_00000058570356438116567270000013859549397103544976_" gradientUnits="userSpaceOnUse" x1="151.3797" y1="2241.25" x2="8.0527" y2="2449.5217" gradientTransform="matrix(-1 0 0 1 1563.5464 0)">
							<stop  offset="0" style="stop-color:#2B3582"/>
							<stop  offset="1" style="stop-color:#150E42"/>
						</linearGradient>
						<path style="fill:url(#SVGID_00000058570356438116567270000013859549397103544976_);" d="M1432.278,2302.304
							c-1.069-0.057-1.893-1.106-1.84-2.34c0.767-18.693,2.23-54.347,2.252-55.563c0.008-1.225,0.874-2.217,1.935-2.217
							c1.07,0,1.935,1.001,1.935,2.239c0,0.923-1.882,46.604-2.26,55.751c-0.049,1.203-0.903,2.134-1.931,2.134
							C1432.339,2302.308,1432.308,2302.308,1432.278,2302.304z M1432.652,2244.423h0.038H1432.652z"/>
						
							<linearGradient id="SVGID_00000114062395116383812690000012568688749433720489_" gradientUnits="userSpaceOnUse" x1="159.9428" y1="2248.7759" x2="17.3532" y2="2455.9761" gradientTransform="matrix(-1 0 0 1 1563.5464 0)">
							<stop  offset="0" style="stop-color:#2B3582"/>
							<stop  offset="1" style="stop-color:#150E42"/>
						</linearGradient>
						<path style="fill:url(#SVGID_00000114062395116383812690000012568688749433720489_);" d="M1419.471,2304.546
							c2.075,0,3.79-1.902,3.862-4.32c1.636-53.914,1.349-55.13,1.16-55.935c-0.559-2.392-2.706-3.795-4.75-3.144
							c-1.893,0.599-3.076,2.724-2.819,4.915c0.124,3.24-0.741,34.609-1.323,53.849c-0.076,2.47,1.594,4.548,3.73,4.631
							C1419.377,2304.546,1419.426,2304.546,1419.471,2304.546z"/>
						
							<linearGradient id="SVGID_00000069365387806638907600000007757514056465106088_" gradientUnits="userSpaceOnUse" x1="165.6446" y1="2253.6104" x2="22.9006" y2="2461.0349" gradientTransform="matrix(-1 0 0 1 1563.5464 0)">
							<stop  offset="0" style="stop-color:#2B3582"/>
							<stop  offset="1" style="stop-color:#150E42"/>
						</linearGradient>
						<path style="fill:url(#SVGID_00000069365387806638907600000007757514056465106088_);" d="M1411.086,2302.308
							c1.07,0,1.935-1.001,1.935-2.239v-54.6c0-1.238-0.865-2.239-1.935-2.239c-1.069,0-1.934,1.001-1.934,2.239v54.6
							C1409.151,2301.307,1410.016,2302.308,1411.086,2302.308z"/>
						
							<linearGradient id="SVGID_00000026850027229213194300000013966892894726449085_" gradientUnits="userSpaceOnUse" x1="169.2116" y1="2256.5632" x2="25.8896" y2="2464.8276" gradientTransform="matrix(-1 0 0 1 1563.5464 0)">
							<stop  offset="0" style="stop-color:#2B3582"/>
							<stop  offset="1" style="stop-color:#150E42"/>
						</linearGradient>
						<path style="fill:url(#SVGID_00000026850027229213194300000013966892894726449085_);" d="M1404.314,2302.308
							c1.051,0,1.912-0.97,1.935-2.186c0.371-18.973,1.236-49.962,2.01-53.687c0.34-0.704,0.337-1.596-0.072-2.322
							c-0.586-1.04-1.784-1.321-2.679-0.642c-1.054,0.799-2.056,1.557-3.129,56.546c-0.022,1.238,0.824,2.261,1.89,2.291H1404.314z"
							/>
						
							<linearGradient id="SVGID_00000099641105731100533940000002567905461663757460_" gradientUnits="userSpaceOnUse" x1="136.4798" y1="2228.4773" x2="-6.44" y2="2436.1575" gradientTransform="matrix(-1 0 0 1 1563.5464 0)">
							<stop  offset="0" style="stop-color:#2B3582"/>
							<stop  offset="1" style="stop-color:#150E42"/>
						</linearGradient>
						<path style="fill:url(#SVGID_00000099641105731100533940000002567905461663757460_);" d="M1457.2,2307.28
							c2.044,0,3.753-1.854,3.862-4.246l2.581-57.334c0.11-2.471-1.531-4.574-3.665-4.705c-2.026-0.166-3.953,1.771-4.066,4.241
							l-2.581,57.334c-0.11,2.471,1.53,4.573,3.665,4.705C1457.064,2307.28,1457.132,2307.28,1457.2,2307.28z"/>
					</g>
				</g>
				<g>
					
						<linearGradient id="SVGID_00000152973977409876016750000009684432334361698237_" gradientUnits="userSpaceOnUse" x1="1588.2045" y1="1581.5354" x2="966.6138" y2="2313.6323">
						<stop  offset="0" style="stop-color:#FDF53F"/>
						<stop  offset="1" style="stop-color:#D93C65"/>
					</linearGradient>
					<path style="fill:url(#SVGID_00000152973977409876016750000009684432334361698237_);" d="M1394.89,2117.128v-186.287
						c0-24.475-16.999-44.39-38.15-44.657c-63.48-0.8-194.403-0.84-301.526,9.606c-14.618,1.425-25.988,15.289-26.518,32.252
						l-10.012,180.102c-0.744,23.823,15.533,43.725,36.13,44.177l303.205,6.667
						C1378.268,2159.434,1394.89,2140.563,1394.89,2117.128z"/>
					<path style="fill:#FFFFFF;" d="M1358.123,1950.997c0.27,15.851-0.137,41.001-0.47,57.25
						c-0.173,8.453-6.587,14.896-13.846,13.911l-52.241-7.085c-6.959-0.944-11.863-8.365-10.824-16.384l6.412-49.498
						c0.911-7.027,6.127-12.226,12.268-12.226h46.298C1352.467,1936.966,1357.99,1943.192,1358.123,1950.997z"/>
					<path style="opacity:0.37;fill:#FFFFFF;" d="M1221.599,2044.803l-43.579,5.44c-6.098,0.762-11.301-5.057-10.852-12.135
						l9.527-150c18.268-0.67,36.287-1.159,53.674-1.503V2033.5C1230.37,2039.307,1226.588,2044.18,1221.599,2044.803z"/>
					<path style="fill:#FFFFFF;" d="M1203.738,2018.805c-0.134,2.698-2.066,4.779-4.372,4.779c-0.086,0-0.172-0.004-0.257-0.01
						c-2.417-0.162-4.263-2.559-4.121-5.356l6.571-130.915c2.946-0.084,5.869-0.16,8.791-0.235L1203.738,2018.805z"/>
					<g>
						
							<linearGradient id="SVGID_00000032637267767788260220000005240084664598923949_" gradientUnits="userSpaceOnUse" x1="248.9283" y1="1946.1876" x2="140.5408" y2="2103.688" gradientTransform="matrix(-1 0 0 1 1563.5464 0)">
							<stop  offset="0" style="stop-color:#2B3582"/>
							<stop  offset="1" style="stop-color:#150E42"/>
						</linearGradient>
						<path style="fill:url(#SVGID_00000032637267767788260220000005240084664598923949_);" d="M1333.963,1998.249
							c0.765,0,1.41-0.687,1.459-1.585l2.26-41.234c0.051-0.932-0.559-1.734-1.367-1.793c-0.848-0.076-1.498,0.65-1.55,1.582
							l-2.26,41.235c-0.051,0.931,0.559,1.734,1.367,1.793C1333.903,1998.249,1333.935,1998.249,1333.963,1998.249z"/>
						
							<linearGradient id="SVGID_00000087391088313728097400000007676220981227013810_" gradientUnits="userSpaceOnUse" x1="251.9497" y1="1948.9436" x2="143.8553" y2="2106.0181" gradientTransform="matrix(-1 0 0 1 1563.5464 0)">
							<stop  offset="0" style="stop-color:#2B3582"/>
							<stop  offset="1" style="stop-color:#150E42"/>
						</linearGradient>
						<path style="fill:url(#SVGID_00000087391088313728097400000007676220981227013810_);" d="M1329.312,1998.249
							c0.785,0,1.435-0.72,1.461-1.634l1.184-42.024c0.026-0.935-0.608-1.717-1.413-1.747c-0.931-0.053-1.481,0.704-1.51,1.635
							l-1.185,42.024c-0.026,0.934,0.608,1.717,1.413,1.747C1329.263,1998.249,1329.297,1998.249,1329.312,1998.249z"/>
						
							<linearGradient id="SVGID_00000062913365546044537870000017497728254518976396_" gradientUnits="userSpaceOnUse" x1="255.73" y1="1952.1378" x2="147.4897" y2="2109.4243" gradientTransform="matrix(-1 0 0 1 1563.5464 0)">
							<stop  offset="0" style="stop-color:#2B3582"/>
							<stop  offset="1" style="stop-color:#150E42"/>
						</linearGradient>
						<path style="fill:url(#SVGID_00000062913365546044537870000017497728254518976396_);" d="M1323.005,1998.245
							c-0.807-0.043-1.43-0.835-1.39-1.767c0.579-14.117,1.684-41.043,1.701-41.961c0.006-0.925,0.66-1.674,1.461-1.674
							c0.808,0,1.461,0.756,1.461,1.691c0,0.697-1.421,35.195-1.707,42.103c-0.037,0.908-0.682,1.611-1.458,1.611
							C1323.05,1998.249,1323.027,1998.249,1323.005,1998.245z M1323.287,1954.534h0.029H1323.287z"/>
						
							<linearGradient id="SVGID_00000066507611232856846270000000309600218748859307_" gradientUnits="userSpaceOnUse" x1="262.1969" y1="1957.8213" x2="154.5133" y2="2114.2988" gradientTransform="matrix(-1 0 0 1 1563.5464 0)">
							<stop  offset="0" style="stop-color:#2B3582"/>
							<stop  offset="1" style="stop-color:#150E42"/>
						</linearGradient>
						<path style="fill:url(#SVGID_00000066507611232856846270000000309600218748859307_);" d="M1313.333,1999.939
							c1.567,0,2.863-1.437,2.917-3.262c1.236-40.716,1.019-41.634,0.876-42.242c-0.422-1.806-2.043-2.866-3.587-2.374
							c-1.43,0.452-2.323,2.057-2.129,3.712c0.094,2.447-0.559,26.137-0.999,40.667c-0.057,1.865,1.204,3.434,2.817,3.497
							C1313.262,1999.939,1313.299,1999.939,1313.333,1999.939z"/>
						
							<linearGradient id="SVGID_00000078753270740169193060000011941716522547971228_" gradientUnits="userSpaceOnUse" x1="266.5029" y1="1961.4723" x2="158.7028" y2="2118.1191" gradientTransform="matrix(-1 0 0 1 1563.5464 0)">
							<stop  offset="0" style="stop-color:#2B3582"/>
							<stop  offset="1" style="stop-color:#150E42"/>
						</linearGradient>
						<path style="fill:url(#SVGID_00000078753270740169193060000011941716522547971228_);" d="M1307,1998.249
							c0.808,0,1.461-0.756,1.461-1.691v-41.234c0-0.935-0.654-1.691-1.461-1.691c-0.807,0-1.461,0.756-1.461,1.691v41.234
							C1305.539,1997.493,1306.193,1998.249,1307,1998.249z"/>
						
							<linearGradient id="SVGID_00000126284541245920937420000006590688739163256972_" gradientUnits="userSpaceOnUse" x1="269.1967" y1="1963.7023" x2="160.9599" y2="2120.9836" gradientTransform="matrix(-1 0 0 1 1563.5464 0)">
							<stop  offset="0" style="stop-color:#2B3582"/>
							<stop  offset="1" style="stop-color:#150E42"/>
						</linearGradient>
						<path style="fill:url(#SVGID_00000126284541245920937420000006590688739163256972_);" d="M1301.886,1998.249
							c0.793,0,1.444-0.733,1.461-1.651c0.28-14.328,0.934-37.731,1.518-40.544c0.257-0.532,0.254-1.205-0.054-1.754
							c-0.442-0.786-1.347-0.997-2.023-0.485c-0.796,0.604-1.552,1.176-2.363,42.704c-0.017,0.935,0.622,1.707,1.427,1.73H1301.886z
							"/>
						
							<linearGradient id="SVGID_00000083070380356183287720000012803255076002024841_" gradientUnits="userSpaceOnUse" x1="244.4777" y1="1942.4919" x2="136.5448" y2="2099.3315" gradientTransform="matrix(-1 0 0 1 1563.5464 0)">
							<stop  offset="0" style="stop-color:#2B3582"/>
							<stop  offset="1" style="stop-color:#150E42"/>
						</linearGradient>
						<path style="fill:url(#SVGID_00000083070380356183287720000012803255076002024841_);" d="M1341.826,2002.003
							c1.544,0,2.834-1.4,2.917-3.207l1.949-43.298c0.083-1.866-1.156-3.454-2.768-3.553c-1.53-0.125-2.985,1.338-3.071,3.203
							l-1.949,43.298c-0.083,1.866,1.156,3.454,2.768,3.553C1341.723,2002.003,1341.774,2002.003,1341.826,2002.003z"/>
					</g>
				</g>
			</g>
			
				<linearGradient id="SVGID_00000098205394649253600830000002486870882722073002_" gradientUnits="userSpaceOnUse" x1="1954.5922" y1="1453.2606" x2="2805.0618" y2="-367.7469">
				<stop  offset="0" style="stop-color:#A737D5"/>
				<stop  offset="1" style="stop-color:#EF497A"/>
			</linearGradient>
			
				<rect x="812.496" y="1348.517" style="fill:url(#SVGID_00000098205394649253600830000002486870882722073002_);" width="2355.983" height="55.771"/>
			
				<linearGradient id="SVGID_00000037691591895621592040000010919534656533717931_" gradientUnits="userSpaceOnUse" x1="1996.5679" y1="1331.8977" x2="2476.7861" y2="-548.9596">
				<stop  offset="0" style="stop-color:#233894"/>
				<stop  offset="0.9964" style="stop-color:#DD397A"/>
			</linearGradient>
			<path style="fill:url(#SVGID_00000037691591895621592040000010919534656533717931_);" d="M3226.571,1364.929H762.884
				c-21.479,0-34.112-27.233-21.875-47.154l237.123-386.027c6.613-10.765,18.34-17.325,30.974-17.325h2038.546
				c20.396,0,38.823,12.171,46.829,30.93l158.68,371.815C3262.599,1339.283,3248.321,1364.929,3226.571,1364.929z"/>
		</g>
		<g>
			<g>
				<g>
					
						<linearGradient id="SVGID_00000156574814858139536520000001820146081145834171_" gradientUnits="userSpaceOnUse" x1="1596.0919" y1="2577.6523" x2="2441.6274" y2="3163.9722">
						<stop  offset="0" style="stop-color:#FDF53F"/>
						<stop  offset="1" style="stop-color:#D93C65"/>
					</linearGradient>
					<path style="fill:url(#SVGID_00000156574814858139536520000001820146081145834171_);" d="M2277.478,2956.737v-325.015
						c0-42.702-34.318-77.448-77.017-77.913c-128.152-1.396-392.46-1.465-608.72,16.759c-29.511,2.487-52.466,26.674-53.535,56.27
						l-20.212,314.224c-1.502,41.563,31.358,76.286,72.941,77.076l612.11,11.632
						C2243.922,3030.547,2277.478,2997.622,2277.478,2956.737z"/>
					<path style="fill:#FFFFFF;" d="M2203.253,2666.887c0.545,27.655-0.276,71.535-0.949,99.884
						c-0.35,14.749-13.298,25.989-27.952,24.272l-105.465-12.361c-14.05-1.647-23.948-14.596-21.851-28.586l12.945-86.359
						c1.838-12.26,12.37-21.331,24.767-21.331h93.466C2191.833,2642.406,2202.985,2653.27,2203.253,2666.887z"/>
					<path style="opacity:0.37;fill:#FFFFFF;" d="M1927.639,2830.55l-87.977,9.491c-12.311,1.329-22.815-8.824-21.908-21.173
						l19.233-261.705c36.88-1.169,73.257-2.022,108.358-2.621v256.288C1945.345,2820.961,1937.711,2829.463,1927.639,2830.55z"/>
					<path style="fill:#FFFFFF;" d="M1891.58,2785.191c-0.271,4.708-4.171,8.337-8.826,8.337c-0.173,0-0.346-0.006-0.519-0.017
						c-4.88-0.282-8.607-4.465-8.319-9.345l13.265-228.407c5.949-0.147,11.849-0.28,17.748-0.411L1891.58,2785.191z"/>
					<g>
						
							<linearGradient id="SVGID_00000140010191082864866150000015567493633999594894_" gradientUnits="userSpaceOnUse" x1="-3626.2654" y1="2658.5823" x2="-3815.0535" y2="2932.9146" gradientTransform="matrix(-1 0 0 1 -1505.1685 0)">
							<stop  offset="0" style="stop-color:#2B3582"/>
							<stop  offset="1" style="stop-color:#150E42"/>
						</linearGradient>
						<path style="fill:url(#SVGID_00000140010191082864866150000015567493633999594894_);" d="M2154.479,2749.327
							c1.544,0,2.846-1.198,2.944-2.766l4.563-71.941c0.104-1.625-1.129-3.025-2.76-3.129c-1.711-0.133-3.024,1.135-3.129,2.76
							l-4.563,71.942c-0.104,1.624,1.129,3.024,2.76,3.128C2154.358,2749.327,2154.422,2749.327,2154.479,2749.327z"/>
						
							<linearGradient id="SVGID_00000142871453756926923260000014364260772281953934_" gradientUnits="userSpaceOnUse" x1="-3619.4771" y1="2663.2539" x2="-3808.2654" y2="2937.5864" gradientTransform="matrix(-1 0 0 1 -1505.1685 0)">
							<stop  offset="0" style="stop-color:#2B3582"/>
							<stop  offset="1" style="stop-color:#150E42"/>
						</linearGradient>
						<path style="fill:url(#SVGID_00000142871453756926923260000014364260772281953934_);" d="M2145.089,2749.327
							c1.584,0,2.898-1.256,2.95-2.852l2.391-73.318c0.052-1.631-1.227-2.996-2.852-3.048c-1.879-0.092-2.99,1.228-3.048,2.852
							l-2.391,73.319c-0.052,1.631,1.228,2.996,2.852,3.048C2144.99,2749.327,2145.059,2749.327,2145.089,2749.327z"/>
						
							<linearGradient id="SVGID_00000005978017310461385470000009700967011928731294_" gradientUnits="userSpaceOnUse" x1="-3611.2866" y1="2668.8904" x2="-3800.075" y2="2943.2231" gradientTransform="matrix(-1 0 0 1 -1505.1685 0)">
							<stop  offset="0" style="stop-color:#2B3582"/>
							<stop  offset="1" style="stop-color:#150E42"/>
						</linearGradient>
						<path style="fill:url(#SVGID_00000005978017310461385470000009700967011928731294_);" d="M2132.356,2749.321
							c-1.63-0.075-2.886-1.458-2.806-3.082c1.17-24.63,3.399-71.608,3.434-73.209c0.012-1.614,1.331-2.921,2.95-2.921
							c1.631,0,2.95,1.319,2.95,2.95c0,1.216-2.869,61.405-3.445,73.457c-0.075,1.584-1.377,2.812-2.944,2.812
							C2132.448,2749.327,2132.402,2749.327,2132.356,2749.321z M2132.926,2673.059h0.058H2132.926z"/>
						
							<linearGradient id="SVGID_00000135689559950997490940000009002139498065821073_" gradientUnits="userSpaceOnUse" x1="-3597.1194" y1="2678.6399" x2="-3785.9072" y2="2952.9719" gradientTransform="matrix(-1 0 0 1 -1505.1685 0)">
							<stop  offset="0" style="stop-color:#2B3582"/>
							<stop  offset="1" style="stop-color:#150E42"/>
						</linearGradient>
						<path style="fill:url(#SVGID_00000135689559950997490940000009002139498065821073_);" d="M2112.83,2752.277
							c3.164,0,5.779-2.506,5.888-5.692c2.495-71.037,2.057-72.639,1.769-73.699c-0.853-3.151-4.125-5-7.242-4.142
							c-2.887,0.789-4.69,3.59-4.298,6.476c0.19,4.269-1.129,45.601-2.016,70.951c-0.115,3.255,2.431,5.992,5.686,6.101
							C2112.687,2752.277,2112.761,2752.277,2112.83,2752.277z"/>
						
							<linearGradient id="SVGID_00000098931368882101206750000013575275612657418639_" gradientUnits="userSpaceOnUse" x1="-3587.7778" y1="2685.0686" x2="-3776.5662" y2="2959.4009" gradientTransform="matrix(-1 0 0 1 -1505.1685 0)">
							<stop  offset="0" style="stop-color:#2B3582"/>
							<stop  offset="1" style="stop-color:#150E42"/>
						</linearGradient>
						<path style="fill:url(#SVGID_00000098931368882101206750000013575275612657418639_);" d="M2100.046,2749.327
							c1.631,0,2.95-1.319,2.95-2.95v-71.941c0-1.631-1.319-2.95-2.95-2.95c-1.63,0-2.949,1.319-2.949,2.95v71.941
							C2097.097,2748.008,2098.416,2749.327,2100.046,2749.327z"/>
						
							<linearGradient id="SVGID_00000165939928737632749330000005367954483882784689_" gradientUnits="userSpaceOnUse" x1="-3581.9785" y1="2689.0598" x2="-3770.7656" y2="2963.3904" gradientTransform="matrix(-1 0 0 1 -1505.1685 0)">
							<stop  offset="0" style="stop-color:#2B3582"/>
							<stop  offset="1" style="stop-color:#150E42"/>
						</linearGradient>
						<path style="fill:url(#SVGID_00000165939928737632749330000005367954483882784689_);" d="M2089.722,2749.327
							c1.602,0,2.915-1.279,2.95-2.881c0.565-24.998,1.884-65.829,3.065-70.737c0.518-0.927,0.512-2.103-0.109-3.059
							c-0.893-1.371-2.72-1.74-4.085-0.847c-1.607,1.054-3.134,2.051-4.77,74.506c-0.034,1.63,1.255,2.979,2.881,3.019H2089.722z"/>
						
							<linearGradient id="SVGID_00000098221980491718252070000011645921106216526746_" gradientUnits="userSpaceOnUse" x1="-3635.9792" y1="2651.8982" x2="-3824.7666" y2="2926.2292" gradientTransform="matrix(-1 0 0 1 -1505.1685 0)">
							<stop  offset="0" style="stop-color:#2B3582"/>
							<stop  offset="1" style="stop-color:#150E42"/>
						</linearGradient>
						<path style="fill:url(#SVGID_00000098221980491718252070000011645921106216526746_);" d="M2170.352,2755.878
							c3.117,0,5.721-2.442,5.888-5.594l3.935-75.543c0.167-3.255-2.333-6.026-5.588-6.199c-3.088-0.219-6.026,2.334-6.199,5.589
							l-3.935,75.543c-0.167,3.255,2.333,6.026,5.588,6.199C2170.145,2755.878,2170.248,2755.878,2170.352,2755.878z"/>
					</g>
				</g>
				<g>
					
						<linearGradient id="SVGID_00000025406290590094189700000000194906050820198298_" gradientUnits="userSpaceOnUse" x1="1797.9309" y1="2129.4253" x2="2125.0349" y2="2802.1487">
						<stop  offset="0" style="stop-color:#FDF53F"/>
						<stop  offset="1" style="stop-color:#D93C65"/>
					</linearGradient>
					<path style="fill:url(#SVGID_00000025406290590094189700000000194906050820198298_);" d="M2192.608,2511.6v-228.25
						c0-29.989-24.1-54.39-54.087-54.716c-89.999-0.98-275.615-1.029-427.49,11.769c-20.724,1.746-36.845,18.733-37.596,39.517
						l-14.195,220.672c-1.055,29.188,22.022,53.574,51.224,54.129l429.87,8.169
						C2169.043,2563.436,2192.608,2540.313,2192.608,2511.6z"/>
					<path style="fill:#FFFFFF;" d="M2140.482,2308.046c0.383,19.422-0.194,50.237-0.666,70.147
						c-0.246,10.357-9.339,18.251-19.63,17.045l-74.065-8.681c-9.867-1.156-16.818-10.25-15.346-20.075l9.091-60.648
						c1.291-8.61,8.687-14.979,17.393-14.979h65.639C2132.463,2290.854,2140.294,2298.483,2140.482,2308.046z"/>
					<path style="opacity:0.37;fill:#FFFFFF;" d="M1946.925,2422.983l-61.784,6.665c-8.645,0.934-16.022-6.197-15.385-14.869
						l13.507-183.789c25.9-0.821,51.447-1.42,76.097-1.841v179.984C1959.359,2416.248,1953.998,2422.219,1946.925,2422.983z"/>
					<path style="fill:#FFFFFF;" d="M1921.602,2391.128c-0.19,3.306-2.93,5.855-6.198,5.855c-0.122,0-0.243-0.004-0.365-0.013
						c-3.427-0.198-6.044-3.135-5.842-6.562l9.316-160.404c4.177-0.103,8.321-0.197,12.464-0.288L1921.602,2391.128z"/>
					<g>
						
							<linearGradient id="SVGID_00000124880820965686543100000016904901344160120746_" gradientUnits="userSpaceOnUse" x1="-3587.9543" y1="2302.2139" x2="-3720.5354" y2="2494.8706" gradientTransform="matrix(-1 0 0 1 -1505.1685 0)">
							<stop  offset="0" style="stop-color:#2B3582"/>
							<stop  offset="1" style="stop-color:#150E42"/>
						</linearGradient>
						<path style="fill:url(#SVGID_00000124880820965686543100000016904901344160120746_);" d="M2106.229,2365.942
							c1.084,0,1.999-0.841,2.068-1.942l3.204-50.522c0.073-1.141-0.793-2.125-1.938-2.197c-1.202-0.093-2.124,0.797-2.197,1.938
							l-3.205,50.523c-0.072,1.141,0.793,2.124,1.938,2.197C2106.145,2365.942,2106.189,2365.942,2106.229,2365.942z"/>
						
							<linearGradient id="SVGID_00000130642275019820459890000016180178131370382991_" gradientUnits="userSpaceOnUse" x1="-3583.1873" y1="2305.4946" x2="-3715.7683" y2="2498.1514" gradientTransform="matrix(-1 0 0 1 -1505.1685 0)">
							<stop  offset="0" style="stop-color:#2B3582"/>
							<stop  offset="1" style="stop-color:#150E42"/>
						</linearGradient>
						<path style="fill:url(#SVGID_00000130642275019820459890000016180178131370382991_);" d="M2099.635,2365.942
							c1.112,0,2.035-0.882,2.072-2.002l1.679-51.49c0.036-1.146-0.862-2.104-2.002-2.141c-1.32-0.064-2.1,0.862-2.141,2.003
							l-1.679,51.49c-0.037,1.145,0.862,2.104,2.003,2.14C2099.566,2365.942,2099.614,2365.942,2099.635,2365.942z"/>
						
							<linearGradient id="SVGID_00000136373523602277786930000012790427553580623501_" gradientUnits="userSpaceOnUse" x1="-3577.4351" y1="2309.4529" x2="-3710.0166" y2="2502.1101" gradientTransform="matrix(-1 0 0 1 -1505.1685 0)">
							<stop  offset="0" style="stop-color:#2B3582"/>
							<stop  offset="1" style="stop-color:#150E42"/>
						</linearGradient>
						<path style="fill:url(#SVGID_00000136373523602277786930000012790427553580623501_);" d="M2090.693,2365.938
							c-1.145-0.053-2.027-1.024-1.97-2.165c0.821-17.297,2.387-50.288,2.411-51.413c0.009-1.133,0.935-2.052,2.072-2.052
							c1.145,0,2.072,0.927,2.072,2.072c0,0.854-2.015,43.123-2.42,51.587c-0.052,1.113-0.967,1.974-2.068,1.974
							C2090.758,2365.942,2090.725,2365.942,2090.693,2365.938z M2091.093,2312.38h0.04H2091.093z"/>
						
							<linearGradient id="SVGID_00000174602102059109005010000003551677093635875764_" gradientUnits="userSpaceOnUse" x1="-3567.4858" y1="2316.2998" x2="-3700.0671" y2="2508.9565" gradientTransform="matrix(-1 0 0 1 -1505.1685 0)">
							<stop  offset="0" style="stop-color:#2B3582"/>
							<stop  offset="1" style="stop-color:#150E42"/>
						</linearGradient>
						<path style="fill:url(#SVGID_00000174602102059109005010000003551677093635875764_);" d="M2076.981,2368.013
							c2.222,0,4.059-1.76,4.135-3.997c1.752-49.887,1.444-51.013,1.242-51.757c-0.599-2.213-2.897-3.512-5.086-2.909
							c-2.027,0.554-3.293,2.521-3.018,4.548c0.133,2.998-0.793,32.024-1.416,49.827c-0.081,2.286,1.707,4.208,3.993,4.285
							C2076.88,2368.013,2076.932,2368.013,2076.981,2368.013z"/>
						
							<linearGradient id="SVGID_00000153695796786716473610000005022451199095972001_" gradientUnits="userSpaceOnUse" x1="-3560.9255" y1="2320.8142" x2="-3693.5068" y2="2513.4712" gradientTransform="matrix(-1 0 0 1 -1505.1685 0)">
							<stop  offset="0" style="stop-color:#2B3582"/>
							<stop  offset="1" style="stop-color:#150E42"/>
						</linearGradient>
						<path style="fill:url(#SVGID_00000153695796786716473610000005022451199095972001_);" d="M2068.002,2365.942
							c1.146,0,2.072-0.926,2.072-2.072v-50.522c0-1.145-0.927-2.072-2.072-2.072c-1.145,0-2.071,0.927-2.071,2.072v50.522
							C2065.931,2365.015,2066.858,2365.942,2068.002,2365.942z"/>
						
							<linearGradient id="SVGID_00000056401607095999218680000004001240329706933153_" gradientUnits="userSpaceOnUse" x1="-3556.8528" y1="2323.6174" x2="-3689.4333" y2="2516.2729" gradientTransform="matrix(-1 0 0 1 -1505.1685 0)">
							<stop  offset="0" style="stop-color:#2B3582"/>
							<stop  offset="1" style="stop-color:#150E42"/>
						</linearGradient>
						<path style="fill:url(#SVGID_00000056401607095999218680000004001240329706933153_);" d="M2060.752,2365.942
							c1.125,0,2.048-0.898,2.072-2.023c0.397-17.556,1.323-46.23,2.153-49.677c0.364-0.651,0.36-1.477-0.077-2.149
							c-0.627-0.963-1.91-1.222-2.869-0.594c-1.129,0.74-2.201,1.44-3.35,52.323c-0.024,1.145,0.882,2.092,2.023,2.12H2060.752z"/>
						
							<linearGradient id="SVGID_00000013195138662305461200000002453410684223807630_" gradientUnits="userSpaceOnUse" x1="-3594.7761" y1="2297.5195" x2="-3727.3574" y2="2490.1765" gradientTransform="matrix(-1 0 0 1 -1505.1685 0)">
							<stop  offset="0" style="stop-color:#2B3582"/>
							<stop  offset="1" style="stop-color:#150E42"/>
						</linearGradient>
						<path style="fill:url(#SVGID_00000013195138662305461200000002453410684223807630_);" d="M2117.377,2370.542
							c2.189,0,4.018-1.716,4.135-3.929l2.763-53.052c0.117-2.286-1.639-4.232-3.925-4.354c-2.168-0.154-4.232,1.639-4.353,3.925
							l-2.764,53.052c-0.117,2.286,1.638,4.232,3.924,4.353C2117.231,2370.542,2117.304,2370.542,2117.377,2370.542z"/>
					</g>
				</g>
			</g>
			
				<linearGradient id="SVGID_00000129927300552482774040000016368016198983106227_" gradientUnits="userSpaceOnUse" x1="-4754.2803" y1="2872.6406" x2="-3754.7112" y2="2872.6406" gradientTransform="matrix(-1 0 0 1 -1505.1685 0)">
				<stop  offset="0" style="stop-color:#FDF53F"/>
				<stop  offset="1" style="stop-color:#D93C65"/>
			</linearGradient>
			<path style="fill:url(#SVGID_00000129927300552482774040000016368016198983106227_);" d="M2819.043,2866.271v-255.807h430.068
				v505.176c0,10.592-8.587,19.179-19.178,19.179h-962.229c-10.03,0-18.161-8.131-18.161-18.161v-250.386H2819.043z"/>
			
				<linearGradient id="SVGID_00000154393007702594375710000015730759297658269885_" gradientUnits="userSpaceOnUse" x1="3049.1475" y1="2929.3689" x2="2970.7239" y2="3338.5352">
				<stop  offset="0" style="stop-color:#FDF53F"/>
				<stop  offset="1" style="stop-color:#D93C65"/>
			</linearGradient>
			<path style="fill:url(#SVGID_00000154393007702594375710000015730759297658269885_);" d="M2857.28,3136.079
				c-6.055,0-11.096-4.851-11.101-10.906c0-0.037,0-0.074,0-0.111c0-92.169,74.718-166.887,166.887-166.887
				s166.887,74.718,166.887,166.887c0,0.037,0,0.074,0,0.111c-0.004,6.055-5.045,10.906-11.1,10.906H2857.28z"/>
			
				<linearGradient id="SVGID_00000046322432765971428620000007391120499934903458_" gradientUnits="userSpaceOnUse" x1="2524.2097" y1="2923.925" x2="2285.5291" y2="3401.2856">
				<stop  offset="0" style="stop-color:#FDF53F"/>
				<stop  offset="1" style="stop-color:#D93C65"/>
			</linearGradient>
			<path style="fill:url(#SVGID_00000046322432765971428620000007391120499934903458_);" d="M2275.133,3139.945
				c-6.055,0-11.096-4.851-11.101-10.906c0-0.037,0-0.074,0-0.111c0-92.169,74.718-166.887,166.887-166.887
				c92.169,0,166.887,74.718,166.887,166.887c0,0.037,0,0.074,0,0.111c-0.004,6.055-5.045,10.906-11.101,10.906H2275.133z"/>
			<g>
				<g>
					
						<linearGradient id="SVGID_00000065766894508448894710000007268154564715297698_" gradientUnits="userSpaceOnUse" x1="-1119.2029" y1="3123.1355" x2="-877.1828" y2="3123.1355" gradientTransform="matrix(-1 0 0 1 2014.8315 0)">
						<stop  offset="0" style="stop-color:#2B3582"/>
						<stop  offset="1" style="stop-color:#150E42"/>
					</linearGradient>
					
						<circle style="fill:url(#SVGID_00000065766894508448894710000007268154564715297698_);" cx="3013.024" cy="3123.135" r="121.01"/>
					
						<linearGradient id="SVGID_00000032648541553767327110000015232452845447567542_" gradientUnits="userSpaceOnUse" x1="3047.5149" y1="2802.8665" x2="2999.7791" y2="3246.1309">
						<stop  offset="0" style="stop-color:#FDF53F"/>
						<stop  offset="1" style="stop-color:#D93C65"/>
					</linearGradient>
					
						<circle style="fill:url(#SVGID_00000032648541553767327110000015232452845447567542_);" cx="3013.025" cy="3123.135" r="98.273"/>
					<path style="fill:#FFFFFF;" d="M2930.48,3160.444c-1.339,0-2.613-0.789-3.167-2.1c-4.717-11.152-7.108-22.999-7.108-35.208
						c0-49.872,40.574-90.446,90.446-90.446c15.471,0,30.74,3.973,44.155,11.491c1.657,0.928,2.248,3.023,1.319,4.68
						c-0.927,1.656-3.02,2.249-4.68,1.319c-12.391-6.944-26.497-10.615-40.794-10.615c-46.082,0-83.571,37.489-83.571,83.571
						c0,11.285,2.209,22.23,6.565,32.529c0.74,1.749-0.079,3.767-1.826,4.505C2931.379,3160.355,2930.926,3160.444,2930.48,3160.444
						z"/>
				</g>
				
					<linearGradient id="SVGID_00000045595571084514647070000014108688411496684200_" gradientUnits="userSpaceOnUse" x1="-953.7789" y1="3050.365" x2="-1076.79" y2="3251.9138" gradientTransform="matrix(-1 0 0 1 2014.8315 0)">
					<stop  offset="0" style="stop-color:#2B3582"/>
					<stop  offset="1" style="stop-color:#150E42"/>
				</linearGradient>
				
					<circle style="fill:url(#SVGID_00000045595571084514647070000014108688411496684200_);" cx="3013.024" cy="3123.135" r="45.069"/>
			</g>
			<g>
				<g>
					
						<linearGradient id="SVGID_00000021812264667967654630000011648214130672610967_" gradientUnits="userSpaceOnUse" x1="-537.0981" y1="3133.9897" x2="-295.078" y2="3133.9897" gradientTransform="matrix(-1 0 0 1 2014.8315 0)">
						<stop  offset="0" style="stop-color:#2B3582"/>
						<stop  offset="1" style="stop-color:#150E42"/>
					</linearGradient>
					
						<circle style="fill:url(#SVGID_00000021812264667967654630000011648214130672610967_);" cx="2430.92" cy="3133.99" r="121.01"/>
					
						<linearGradient id="SVGID_00000116198421814878462740000012497984509083314830_" gradientUnits="userSpaceOnUse" x1="2501.9751" y1="2858.9365" x2="2396.2739" y2="3268.1038">
						<stop  offset="0" style="stop-color:#FDF53F"/>
						<stop  offset="1" style="stop-color:#D93C65"/>
					</linearGradient>
					
						<circle style="fill:url(#SVGID_00000116198421814878462740000012497984509083314830_);" cx="2430.92" cy="3133.99" r="98.273"/>
					<path style="fill:#FFFFFF;" d="M2348.376,3171.297c-1.339,0-2.613-0.789-3.167-2.1c-4.718-11.155-7.11-23-7.11-35.207
						c0-49.873,40.574-90.448,90.448-90.448c15.471,0,30.739,3.975,44.155,11.493c1.657,0.928,2.248,3.025,1.319,4.68
						c-0.928,1.657-3.025,2.249-4.68,1.319c-12.392-6.946-26.499-10.616-40.794-10.616c-46.081,0-83.573,37.491-83.573,83.573
						c0,11.281,2.209,22.225,6.566,32.528c0.74,1.749-0.079,3.767-1.826,4.505
						C2349.275,3171.208,2348.822,3171.297,2348.376,3171.297z"/>
				</g>
				
					<linearGradient id="SVGID_00000018201443976550174040000002095947462396978365_" gradientUnits="userSpaceOnUse" x1="-371.6741" y1="3061.2195" x2="-494.6852" y2="3262.7683" gradientTransform="matrix(-1 0 0 1 2014.8315 0)">
					<stop  offset="0" style="stop-color:#2B3582"/>
					<stop  offset="1" style="stop-color:#150E42"/>
				</linearGradient>
				<circle style="fill:url(#SVGID_00000018201443976550174040000002095947462396978365_);" cx="2430.92" cy="3133.99" r="45.069"/>
			</g>
			
				<linearGradient id="SVGID_00000127728982428427031370000003795735010494371262_" gradientUnits="userSpaceOnUse" x1="-4762.6929" y1="2613.5891" x2="-4326.6289" y2="2613.5891" gradientTransform="matrix(-1 0 0 1 -1505.1685 0)">
				<stop  offset="0" style="stop-color:#53D8FF"/>
				<stop  offset="1" style="stop-color:#3840F7"/>
			</linearGradient>
			<path style="fill:url(#SVGID_00000127728982428427031370000003795735010494371262_);" d="M2821.46,2638.782h436.064v-44.486
				c0-3.259-2.642-5.9-5.901-5.9H2821.46V2638.782z"/>
			
				<linearGradient id="SVGID_00000069397723504618697230000010409507186800566672_" gradientUnits="userSpaceOnUse" x1="2413.7573" y1="2247.0991" x2="2163.0237" y2="3118.0681">
				<stop  offset="0" style="stop-color:#53D8FF"/>
				<stop  offset="1" style="stop-color:#3840F7"/>
			</linearGradient>
			<path style="fill:url(#SVGID_00000069397723504618697230000010409507186800566672_);" d="M2249.542,2866.271h91.994v-411.055
				c0-3.305-2.679-5.984-5.984-5.984h-86.01V2866.271z"/>
			
				<linearGradient id="SVGID_00000070092549320363553800000005936630049767989648_" gradientUnits="userSpaceOnUse" x1="-3608.7695" y1="2576.6589" x2="-4070.3945" y2="3465.3477" gradientTransform="matrix(-1 0 0 1 -1505.1685 0)">
				<stop  offset="0" style="stop-color:#2B3582"/>
				<stop  offset="1" style="stop-color:#150E42"/>
			</linearGradient>
			<polygon style="fill:url(#SVGID_00000070092549320363553800000005936630049767989648_);" points="2227.477,3042.071 
				2249.542,3042.071 2249.542,2630.68 2227.477,2630.68 			"/>
			
				<linearGradient id="SVGID_00000122681366757607050950000017387398227603265415_" gradientUnits="userSpaceOnUse" x1="-3573.4253" y1="2929.2546" x2="-3753.7935" y2="3276.4871" gradientTransform="matrix(-1 0 0 1 -1505.1685 0)">
				<stop  offset="0" style="stop-color:#2B3582"/>
				<stop  offset="1" style="stop-color:#150E42"/>
			</linearGradient>
			<path style="fill:url(#SVGID_00000122681366757607050950000017387398227603265415_);" d="M1991.393,3046.555h258.15v-33.575
				h-251.903c-3.45,0-6.246,2.797-6.246,6.246V3046.555z"/>
			
				<linearGradient id="SVGID_00000066491275977884305840000009594184356088470149_" gradientUnits="userSpaceOnUse" x1="2758.9119" y1="2427.5676" x2="2672.2883" y2="2871.1865">
				<stop  offset="0" style="stop-color:#53D8FF"/>
				<stop  offset="1" style="stop-color:#3840F7"/>
			</linearGradient>
			<polygon style="fill:url(#SVGID_00000066491275977884305840000009594184356088470149_);" points="2551.93,2866.271 
				2817.686,2866.271 2817.686,2747.87 2551.93,2747.87 			"/>
			
				<linearGradient id="SVGID_00000026852569578533739150000005029509377147781800_" gradientUnits="userSpaceOnUse" x1="5983.979" y1="2013.4913" x2="5836.853" y2="2237.0654" gradientTransform="matrix(0.9717 0.0711 0.0711 0.8218 -3292.8696 347.7659)">
				<stop  offset="0" style="stop-color:#FDF53F"/>
				<stop  offset="1" style="stop-color:#D93C65"/>
			</linearGradient>
			<polygon style="fill:url(#SVGID_00000026852569578533739150000005029509377147781800_);" points="2449.904,2725.051 
				2464.697,2730.949 2494.352,2656.58 2479.559,2650.682 			"/>
			
				<linearGradient id="SVGID_00000098905738152969851660000003677201960957942160_" gradientUnits="userSpaceOnUse" x1="5854.9932" y1="2326.1094" x2="5696.4111" y2="2567.0923" gradientTransform="matrix(1 0 0 1 -3154.7878 0)">
				<stop  offset="0" style="stop-color:#FDF53F"/>
				<stop  offset="1" style="stop-color:#D93C65"/>
			</linearGradient>
			<path style="fill:url(#SVGID_00000098905738152969851660000003677201960957942160_);" d="M2449.8,2647.354l63.867,33.78
				l6.689-12.647c1.276-2.412,0.354-5.402-2.057-6.677l-63.867-33.78l-6.689,12.648
				C2446.467,2643.089,2447.388,2646.079,2449.8,2647.354z"/>
			
				<linearGradient id="SVGID_00000062874419223411833400000015388218922561826740_" gradientUnits="userSpaceOnUse" x1="-3862.2937" y1="2687.0525" x2="-4067.2549" y2="3081.6296" gradientTransform="matrix(-1 0 0 1 -1505.1685 0)">
				<stop  offset="0" style="stop-color:#2B3582"/>
				<stop  offset="1" style="stop-color:#150E42"/>
			</linearGradient>
			<path style="fill:url(#SVGID_00000062874419223411833400000015388218922561826740_);" d="M2339.187,2858.676h150.153v-118.491
				c0-10.742-8.708-19.451-19.451-19.451h-76.43L2339.187,2858.676z"/>
			<g>
				
					<linearGradient id="SVGID_00000147937029226314788260000004811812755855080329_" gradientUnits="userSpaceOnUse" x1="3232.8723" y1="1682.2327" x2="3250.5808" y2="1637.576" gradientTransform="matrix(-0.9885 -0.1515 -0.1515 0.9885 6096.1865 1296.475)">
					<stop  offset="0" style="stop-color:#F9B776"/>
					<stop  offset="1" style="stop-color:#F47960"/>
				</linearGradient>
				<path style="fill:url(#SVGID_00000147937029226314788260000004811812755855080329_);" d="M2642,2401.468
					c0,0,14.895,39.254,33.043,59.946l-46.737,17.424c0,0-3.842-39.728-24.291-54.323L2642,2401.468z"/>
				
					<linearGradient id="SVGID_00000002352033577630547970000000148519943631094440_" gradientUnits="userSpaceOnUse" x1="3438.5405" y1="1118.5679" x2="3517.5864" y2="1118.5679" gradientTransform="matrix(-0.955 -0.2968 -0.2968 0.955 6129.1641 2610.6604)">
					<stop  offset="0" style="stop-color:#F9B776"/>
					<stop  offset="1" style="stop-color:#F47960"/>
				</linearGradient>
				<path style="fill:url(#SVGID_00000002352033577630547970000000148519943631094440_);" d="M2513.122,2659.123l-9.421-5.929
					l-28.941-16.913c-3.484-2.036-7.637-2.597-11.537-1.559l-26.731,7.12c-1.538,0.409-1.58,2.576-0.06,3.045l68.824,21.26
					L2513.122,2659.123z"/>
				<g>
					
						<linearGradient id="SVGID_00000098904633034882159480000015988629117947829176_" gradientUnits="userSpaceOnUse" x1="5223.2036" y1="2355.4717" x2="5134.2896" y2="2423.5044" gradientTransform="matrix(-0.9602 -0.2793 -0.2793 0.9602 8279.1504 1568.7338)">
						<stop  offset="0" style="stop-color:#F9B776"/>
						<stop  offset="1" style="stop-color:#F47960"/>
					</linearGradient>
					<path style="fill:url(#SVGID_00000098904633034882159480000015988629117947829176_);" d="M2617.861,2342.33
						c0,0-24.914,29.963-31.154,47.678c-6.24,17.714-13.519,28.27,6.247,37.952c19.765,9.682,40.322,4.412,55.041-10.761
						c0,0,22.927-23.308,22.88-35.598C2670.827,2369.311,2617.861,2342.33,2617.861,2342.33z"/>
					
						<linearGradient id="SVGID_00000161615238425963959090000014153200098662873244_" gradientUnits="userSpaceOnUse" x1="5152.1938" y1="2308.2996" x2="5232.7905" y2="2412.0681" gradientTransform="matrix(-0.9602 -0.2793 -0.2793 0.9602 8279.1504 1568.7338)">
						<stop  offset="0" style="stop-color:#2B3582"/>
						<stop  offset="1" style="stop-color:#150E42"/>
					</linearGradient>
					<path style="fill:url(#SVGID_00000161615238425963959090000014153200098662873244_);" d="M2610.864,2336.448
						c6.608-6.676,18.284-16.127,28.532-13.768c3.077,0.708,5.953,2.084,8.8,3.45c17.677,8.479,44.602,24.458,38.325,48.147
						c-0.3,1.132,0.722,2.101,1.853,1.794c2.233-0.604,5.426-0.263,8.49,4.327c5.328,7.983-2.033,22.529-21.178,30.688
						c-0.91,0.388-1.237,1.537-0.592,2.286c2.272,2.64,5.188,8.198-7.324,10.836c-12.799,2.699-19.166,0.146-21.457-1.206
						c-0.616-0.364-0.886-1.101-0.645-1.774l5.549-15.451c0.287-0.799-0.16-1.675-0.975-1.912l-5.61-1.632l-2.632-0.766
						c0,0,17.315-19.09,8.922-25.77c-7.748-6.166-46.393-24.149-42.273-36.19C2609.059,2338.305,2609.97,2337.351,2610.864,2336.448
						z"/>
					
						<linearGradient id="SVGID_00000102510694479842334870000013058017165398950281_" gradientUnits="userSpaceOnUse" x1="5212.1748" y1="2341.0579" x2="5123.2607" y2="2409.0906" gradientTransform="matrix(-0.9602 -0.2793 -0.2793 0.9602 8279.1504 1568.7338)">
						<stop  offset="0" style="stop-color:#F9B776"/>
						<stop  offset="1" style="stop-color:#F47960"/>
					</linearGradient>
					<path style="fill:url(#SVGID_00000102510694479842334870000013058017165398950281_);" d="M2643.027,2405.337
						c0,0,12.072-20.257,20.109-11.255c8.038,9.002-12.24,23.071-20.378,21.594L2643.027,2405.337z"/>
				</g>
				
					<linearGradient id="SVGID_00000086659838397105658340000004084490538203982978_" gradientUnits="userSpaceOnUse" x1="-3639.98" y1="2797.7085" x2="-3401.803" y2="2797.7085" gradientTransform="matrix(-1 0 0 1 -921.4771 0)">
					<stop  offset="0" style="stop-color:#2B3582"/>
					<stop  offset="1" style="stop-color:#150E42"/>
				</linearGradient>
				<path style="fill:url(#SVGID_00000086659838397105658340000004084490538203982978_);" d="M2536.591,2868.59h-47.26
					c-9.666-53.366-14.557-105.325,1.056-112.676c33.482-15.761,196.695-29.088,196.695-29.088l31.421,36.564l-176.717,28.904
					C2536.097,2805.288,2535.312,2835.535,2536.591,2868.59z"/>
				
					<linearGradient id="SVGID_00000037658288258227795560000002998913908678904961_" gradientUnits="userSpaceOnUse" x1="3148.0083" y1="1790.1825" x2="3341.7092" y2="2108.1758" gradientTransform="matrix(-0.9885 -0.1515 -0.1515 0.9885 6096.1865 1296.475)">
					<stop  offset="0" style="stop-color:#FDF53F"/>
					<stop  offset="1" style="stop-color:#D93C65"/>
				</linearGradient>
				<path style="fill:url(#SVGID_00000037658288258227795560000002998913908678904961_);" d="M2787.814,2728.364
					c0,0-53.51,18.541-100.732-1.538c0,0-24.804-116.916-47.553-146.154c0,0-39.806,102.996-138.171,86.47
					c-1.19-0.2-1.913-1.447-1.502-2.582l3.806-10.498c0.956-2.637,3.518-4.326,6.319-4.185
					c33.246,1.668,79.451-60.593,89.434-145.271c2.048-17.376,14.258-24.847,37.448-35.516c14.424-6.636,23.18-11.341,27.739-13.949
					c2.493-1.427,5.6-1.173,7.799,0.677C2692.65,2472.85,2786.801,2560.997,2787.814,2728.364z"/>
				
					<linearGradient id="SVGID_00000125587227518486881970000011217799361050673846_" gradientUnits="userSpaceOnUse" x1="-3859.0376" y1="2476.6433" x2="-3597.124" y2="2726.8689" gradientTransform="matrix(-1 0 0 1 -921.4771 0)">
					<stop  offset="0" style="stop-color:#2B3582"/>
					<stop  offset="1" style="stop-color:#150E42"/>
				</linearGradient>
				<path style="fill:url(#SVGID_00000125587227518486881970000011217799361050673846_);" d="M2496.217,2788.455
					c5.9-9.738,15.385-16.772,26.416-19.592l164.449-42.036l-7.965-34.195l-30.524-96.244l0.985-0.709
					c4.406-3.17,10.623-1.061,12.191,4.135l28.956,95.943c1.19,4.168,4.999,7.041,9.333,7.041h87.756l2.152,42.271
					c0.351,3.159,0.565,6.574,0.519,10.198c-0.3,23.52-19.209,42.605-42.702,43.779l-192.944,8.799
					c-4.075,0.186-7.522,3.005-8.543,6.955c-2.216,8.573-8.654,25.835-27.306,53.79h-69.7L2496.217,2788.455z"/>
				
					<linearGradient id="SVGID_00000054965309636055957340000006329167708758084528_" gradientUnits="userSpaceOnUse" x1="2885.7319" y1="2291.4678" x2="2623.1838" y2="2615.3906">
					<stop  offset="0" style="stop-color:#2B3582"/>
					<stop  offset="1" style="stop-color:#150E42"/>
				</linearGradient>
				<path style="fill:url(#SVGID_00000054965309636055957340000006329167708758084528_);" d="M2615.747,2480.184
					c41.727,27.313,82.3,66.614,122.095,114.002l21.479-2.374c-46.957-50.456-91.717-94.519-129.792-119.124L2615.747,2480.184z"/>
				
					<linearGradient id="SVGID_00000117674458145237136560000009335112868589618057_" gradientUnits="userSpaceOnUse" x1="3040.0156" y1="2441.4153" x2="2702.4521" y2="2686.9163">
					<stop  offset="0" style="stop-color:#2B3582"/>
					<stop  offset="1" style="stop-color:#150E42"/>
				</linearGradient>
				<path style="fill:url(#SVGID_00000117674458145237136560000009335112868589618057_);" d="M2762.186,2587.743l-27.987,0.52
					c-4.322,0.08-8.176,2.741-9.783,6.754l-36.546,91.278l5.574,21.332l94.37-4.829
					C2784.486,2664.973,2776.794,2626.707,2762.186,2587.743z"/>
				<g>
					<g>
						
							<linearGradient id="SVGID_00000095300767958383401860000008161845672629053328_" gradientUnits="userSpaceOnUse" x1="6825.1533" y1="2704.9429" x2="6603.0742" y2="2938.7104" gradientTransform="matrix(0.982 0.1887 -0.1887 0.982 -5019.6064 -516.4102)">
							<stop  offset="0" style="stop-color:#FDF53F"/>
							<stop  offset="1" style="stop-color:#D93C65"/>
						</linearGradient>
						<path style="fill:url(#SVGID_00000095300767958383401860000008161845672629053328_);" d="M2604.358,2340.357
							c51.596-64.233,137.233,19.581,79.995,71.045C2654.739,2382.304,2622.823,2341.374,2604.358,2340.357z"/>
					</g>
					
						<linearGradient id="SVGID_00000113339501764247434720000013409140710774371221_" gradientUnits="userSpaceOnUse" x1="-3426.8267" y1="1752.4537" x2="-3648.9004" y2="1986.2157" gradientTransform="matrix(-0.982 -0.1887 -0.1887 0.982 -148.6022 419.2887)">
						<stop  offset="0" style="stop-color:#FDF53F"/>
						<stop  offset="1" style="stop-color:#D93C65"/>
					</linearGradient>
					<path style="fill:url(#SVGID_00000113339501764247434720000013409140710774371221_);" d="M2657.668,2382.01l-67.575-15.164
						c-1.716-0.385-3.109-1.644-3.656-3.315c-3.977-12.167-11.542-20.885-21.944-26.874c-1.316-0.758-0.625-2.78,0.882-2.595
						l42.221,5.173c0.047,0.006,0.094,0.015,0.139,0.027c20.463,5.587,36.45,21.617,50.844,41.359
						C2659.06,2381.279,2658.463,2382.188,2657.668,2382.01z"/>
				</g>
			</g>
			
				<linearGradient id="SVGID_00000068653403895793932600000009771498996913730957_" gradientUnits="userSpaceOnUse" x1="-3096.302" y1="2981.7588" x2="-4240.8335" y2="2022.5327" gradientTransform="matrix(-1 0 0 1 -921.4771 0)">
				<stop  offset="0" style="stop-color:#53D8FF"/>
				<stop  offset="1" style="stop-color:#3840F7"/>
			</linearGradient>
			<path style="fill:url(#SVGID_00000068653403895793932600000009771498996913730957_);" d="M2800.035,2886.895h-444.782
				c-11.063,0-21.186-6.157-27.774-16.889c-7.26-11.83-8.955-27.117-4.534-40.893l172.842-538.605
				c10.17-31.688,34.142-52.165,61.074-52.165h285.226v596.429C2842.087,2863.512,2823.222,2886.895,2800.035,2886.895z
				 M2363.402,2839.904h435.991c0.537-0.646,1.443-2.413,1.443-5.132v-549.438h-243.975c-9.411,0-18.177,8.363-22.331,21.308
				L2363.402,2839.904z"/>
		</g>
		<g>
			<g>
				
					<linearGradient id="SVGID_00000086664272870462811810000014166293860641309078_" gradientUnits="userSpaceOnUse" x1="-1209.9242" y1="10030.2773" x2="-1537.6907" y2="10378.2139" gradientTransform="matrix(1 0 0 1 -5210.5654 0)">
					<stop  offset="0" style="stop-color:#C4421B"/>
					<stop  offset="1" style="stop-color:#5C0E16"/>
				</linearGradient>
				<path style="fill:url(#SVGID_00000086664272870462811810000014166293860641309078_);" d="M1243.966,2155.651l-33.226,17.88
					c-39.849,24.261-75.507,37.081-107.596,41.896c-100.194,15.034-165.498-48.186-214.16-86.535
					c-64.247-50.632-114.243-26-114.243-26l68.516,130.764c102.319,96.473,207.228,75.049,273.365,43.786
					c42.102-19.9,68.497-43.786,68.497-43.786C1260.389,2188.773,1243.966,2155.651,1243.966,2155.651z"/>
				
					<linearGradient id="SVGID_00000137847891780778865720000007114169684520514186_" gradientUnits="userSpaceOnUse" x1="-1043.8215" y1="10186.751" x2="-1371.589" y2="10534.6885" gradientTransform="matrix(1 0 0 1 -5210.5654 0)">
					<stop  offset="0" style="stop-color:#C4421B"/>
					<stop  offset="1" style="stop-color:#5C0E16"/>
				</linearGradient>
				<path style="fill:url(#SVGID_00000137847891780778865720000007114169684520514186_);" d="M1341.85,2202.473
					c-2.145-7.131-7.417-12.9-14.327-15.678l-67.432-27.117c0,0-1.018-8.648,14.247-14.525
					c15.266-5.877,11.697-22.974,11.697-22.974s-20.855,9.514-51.388,24.603c-17.461,8.629-27.258,23.865-32.453,35.334
					l17.359,22.829c41.56,12.485,83.615,14.872,126.027,9.92L1341.85,2202.473z"/>
			</g>
			
				<linearGradient id="SVGID_00000078004056980156578550000011472166407245752968_" gradientUnits="userSpaceOnUse" x1="-3355.3726" y1="3093.7617" x2="-3325.178" y2="3240.6177" gradientTransform="matrix(-1 0 0 1 -2491.208 0)">
				<stop  offset="0" style="stop-color:#2B3582"/>
				<stop  offset="1" style="stop-color:#150E42"/>
			</linearGradient>
			<path style="fill:url(#SVGID_00000078004056980156578550000011472166407245752968_);" d="M760.016,3155.514
				c0,0-5.133,29.059-7.65,57.823c-0.984,11.242,7.683,21.004,18.959,21.473c38.306,1.595,120.246,4.697,149.648,3.386
				c4.42-0.197,7.31-4.722,5.674-8.834l0,0c-1.37-3.444-4.014-6.229-7.383-7.778l-135.349-62.206L760.016,3155.514z"/>
			
				<linearGradient id="SVGID_00000007391878823153569650000004999397260701665961_" gradientUnits="userSpaceOnUse" x1="7263.395" y1="3155.3945" x2="7307.4194" y2="3155.3945" gradientTransform="matrix(1 0 0 1 -6507.5835 0)">
				<stop  offset="0" style="stop-color:#C4421B"/>
				<stop  offset="1" style="stop-color:#5C0E16"/>
			</linearGradient>
			<path style="fill:url(#SVGID_00000007391878823153569650000004999397260701665961_);" d="M755.811,3138.44l4.124,34.759
				c0,0,23.709,11.037,39.901-1.391l-9.819-38.734L755.811,3138.44z"/>
			
				<linearGradient id="SVGID_00000088828862777847254240000006065170485581792166_" gradientUnits="userSpaceOnUse" x1="856.2063" y1="2464.9509" x2="593.9787" y2="3204.5686">
				<stop  offset="0" style="stop-color:#2B3582"/>
				<stop  offset="1" style="stop-color:#150E42"/>
			</linearGradient>
			<path style="fill:url(#SVGID_00000088828862777847254240000006065170485581792166_);" d="M749.192,2462.062
				c-1.781,9.411,3.196,492.953,50.644,699.194c0.774,3.366,5.681,9.971,3.988,12.867c-4.117,7.042-34.436,5.065-51.534,5.661
				c-5.295,0.185-8.138-6.03-9.633-11.3c-13.563-47.851-78.553-287.599-87.031-516.624c-9.472-255.912,0-8.714,0-8.714
				l-4.21-162.131L749.192,2462.062z"/>
			
				<linearGradient id="SVGID_00000165234561923230688110000011588009461032876190_" gradientUnits="userSpaceOnUse" x1="-3113.3191" y1="3101.4109" x2="-3114.6914" y2="3246.8948" gradientTransform="matrix(-1 0 0 1 -2491.208 0)">
				<stop  offset="0" style="stop-color:#2B3582"/>
				<stop  offset="1" style="stop-color:#150E42"/>
			</linearGradient>
			<path style="fill:url(#SVGID_00000165234561923230688110000011588009461032876190_);" d="M604.32,3170.674
				c0,0-8.171,14.67-16.081,53.652c-1.429,7.039,3.49,13.778,10.639,14.48c12.648,1.243,32.121,2.843,47.719,2.735
				c7.191-0.049,12.802-6.311,11.935-13.449c-1.727-14.228-7.11-37.572-23.739-55.767L604.32,3170.674z"/>
			
				<linearGradient id="SVGID_00000094614233360612899680000010346180237003378848_" gradientUnits="userSpaceOnUse" x1="7104.7275" y1="3153.1367" x2="7142.7393" y2="3153.1367" gradientTransform="matrix(1 0 0 1 -6507.5835 0)">
				<stop  offset="0" style="stop-color:#C4421B"/>
				<stop  offset="1" style="stop-color:#5C0E16"/>
			</linearGradient>
			<path style="fill:url(#SVGID_00000094614233360612899680000010346180237003378848_);" d="M597.144,3125.967l9.636,52.563
				c0,0,9.527,7.087,28.376,1.95l-4.6-56.555L597.144,3125.967z"/>
			
				<linearGradient id="SVGID_00000079484009115038376520000009774090982913911980_" gradientUnits="userSpaceOnUse" x1="749.4633" y1="2427.1057" x2="487.2368" y2="3166.72">
				<stop  offset="0" style="stop-color:#2B3582"/>
				<stop  offset="1" style="stop-color:#150E42"/>
			</linearGradient>
			<path style="fill:url(#SVGID_00000079484009115038376520000009774090982913911980_);" d="M573.982,2480.921
				c-38.805,244.454,5.548,622.94,21.474,693.348c0.976,4.311,4.308,7.613,8.494,8.337c7.109,1.23,18.814,2.234,30.352-1.263
				c3.976-1.206,6.768-4.949,6.931-9.267c2.137-56.923-1.709-406.376,34.449-544.482c1.832-6.998,5.928-13.102,11.593-17.306
				l59.503-48.496l1.107-104.566L573.982,2480.921z"/>
			
				<linearGradient id="SVGID_00000180354182656904263420000016834808884451296384_" gradientUnits="userSpaceOnUse" x1="781.0611" y1="2171.7175" x2="495.3011" y2="2504.5442">
				<stop  offset="0" style="stop-color:#FDF53F"/>
				<stop  offset="1" style="stop-color:#D93C65"/>
			</linearGradient>
			<path style="fill:url(#SVGID_00000180354182656904263420000016834808884451296384_);" d="M796.328,2088.743
				c-102.276-1.689-215.125,26.855-215.125,26.855c-25.13,146.631-15.039,309.137-9.809,362.652
				c1.072,10.971-4.796,22.585,6.086,24.344c53.514,8.645,137.628-0.152,163.765-7.746c9.552-2.775,7.928-12.946,9.959-22.684
				c17.547-84.166,67.727-269.801,67.727-269.801c24.326,31.292,58.648,75.078,109.39,86.734
				c-25.858-29.974,23.74-92.832,18.445-115.377C900.893,2122.178,827.873,2089.265,796.328,2088.743z"/>
			
				<linearGradient id="SVGID_00000155843055027948158880000017798130124137645488_" gradientUnits="userSpaceOnUse" x1="5837.4155" y1="2161.0181" x2="5985.8564" y2="1982.5729" gradientTransform="matrix(1 0 0 1 -5210.5654 0)">
				<stop  offset="0" style="stop-color:#C4421B"/>
				<stop  offset="1" style="stop-color:#5C0E16"/>
			</linearGradient>
			<path style="fill:url(#SVGID_00000155843055027948158880000017798130124137645488_);" d="M692.732,2005.712l-32.542,94.11
				c-0.54,1.559,0.101,3.285,1.545,4.083c8.871,4.905,40.831,19.081,79.345-5.337c4.012-2.544,6.743-6.692,7.353-11.403
				l10.538-81.453H692.732z"/>
			<g>
				
					<linearGradient id="SVGID_00000101818632593755440880000014727726013304756134_" gradientUnits="userSpaceOnUse" x1="-2264.5576" y1="1971.078" x2="-2106.5725" y2="1993.88" gradientTransform="matrix(-1 0 0 1 -1466.3145 0)">
					<stop  offset="0" style="stop-color:#C4421B"/>
					<stop  offset="1" style="stop-color:#5C0E16"/>
				</linearGradient>
				<path style="fill:url(#SVGID_00000101818632593755440880000014727726013304756134_);" d="M763.539,1918.563
					c0,0,35.735,67.267,31.155,94.44c-4.581,27.173-48.869,25.222-87.542,3.153l-27.025-72.634L763.539,1918.563z"/>
				
					<linearGradient id="SVGID_00000165203834362166798530000005108337508965671833_" gradientUnits="userSpaceOnUse" x1="-291.9352" y1="3346.3992" x2="-265.9299" y2="3494.7261" gradientTransform="matrix(0.746 -0.6659 0.6659 0.746 -1381.248 -803.1727)">
					<stop  offset="0" style="stop-color:#2B3582"/>
					<stop  offset="1" style="stop-color:#150E42"/>
				</linearGradient>
				<path style="fill:url(#SVGID_00000165203834362166798530000005108337508965671833_);" d="M708.861,1980.486
					c1.572-0.697,2.152-2.62,1.21-4.058c-2.863-4.373-8.229-13.296-9.942-21.108c0,0-6.424-4.115,16.351-9.566
					c12.4-2.968,34.385-5.424,44.047-14.339c10.813-9.977-9.123-28.827-17.505-33.888c-11.062-6.679-24.53-10.63-37.005-7.264
					c-6.02,1.624-11.468,4.842-16.831,8.024c-9.133,5.418-18.588,11.138-24.395,20.028c-3.76,5.756-5.73,12.471-7.534,19.104
					c-2.592,9.531-4.964,19.293-4.514,29.16c1.199,26.288,32.007,49.839,56.783,52.717c2.026,0.235,3.597-1.766,2.933-3.695
					l-10.128-29.439c-0.47-1.367,0.184-2.867,1.506-3.453L708.861,1980.486z"/>
				
					<linearGradient id="SVGID_00000034787599854803107850000009170732614355536262_" gradientUnits="userSpaceOnUse" x1="-2264.9656" y1="1973.9037" x2="-2106.9805" y2="1996.7057" gradientTransform="matrix(-1 0 0 1 -1466.3145 0)">
					<stop  offset="0" style="stop-color:#C4421B"/>
					<stop  offset="1" style="stop-color:#5C0E16"/>
				</linearGradient>
				<path style="fill:url(#SVGID_00000034787599854803107850000009170732614355536262_);" d="M712.932,1984.664
					c0,0-25.443-17.457-27.302-2.756c-1.859,14.701,22.912,21.293,35.181,15.813L712.932,1984.664z"/>
			</g>
			<g>
				
					<linearGradient id="SVGID_00000093161932760673507030000015906380040442291856_" gradientUnits="userSpaceOnUse" x1="5860.147" y1="1857.6753" x2="6376.5332" y2="2494.8682" gradientTransform="matrix(1 0 0 1 -5210.5654 0)">
					<stop  offset="0" style="stop-color:#FDF53F"/>
					<stop  offset="1" style="stop-color:#D93C65"/>
				</linearGradient>
				<path style="fill:url(#SVGID_00000093161932760673507030000015906380040442291856_);" d="M776.557,1902.063
					c-52.206-98.611-187.515-9.026-124.543,74.043C698.835,1944.975,751.74,1898.697,776.557,1902.063z"/>
			</g>
			
				<linearGradient id="SVGID_00000026157726707388921190000008211089787608441765_" gradientUnits="userSpaceOnUse" x1="5896.0488" y1="1828.5798" x2="6412.4355" y2="2465.7734" gradientTransform="matrix(1 0 0 1 -5210.5654 0)">
				<stop  offset="0" style="stop-color:#FDF53F"/>
				<stop  offset="1" style="stop-color:#D93C65"/>
			</linearGradient>
			<path style="fill:url(#SVGID_00000026157726707388921190000008211089787608441765_);" d="M695.015,1943.836l93.745-2.899
				c2.381-0.074,4.555-1.391,5.709-3.475c8.398-15.165,20.686-24.826,36.052-30.133c1.944-0.671,1.541-3.538-0.51-3.677
				l-57.473-3.909c-0.064-0.004-0.128-0.004-0.192,0.001c-28.643,2.202-54,19.435-78.188,42.012
				C693.35,1942.508,693.911,1943.87,695.015,1943.836z"/>
			
				<linearGradient id="SVGID_00000078747831780855898830000013388316174407385529_" gradientUnits="userSpaceOnUse" x1="673.5468" y1="2079.407" x2="387.7868" y2="2412.2336">
				<stop  offset="0" style="stop-color:#FDF53F"/>
				<stop  offset="1" style="stop-color:#D93C65"/>
			</linearGradient>
			<path style="fill:url(#SVGID_00000078747831780855898830000013388316174407385529_);" d="M592.787,2264.868
				c56.55-63.488,51.574-112.54-10.849-148.054c-1.412-0.804-3.166-0.716-4.489,0.228
				c-15.278,10.905-106.407,79.032-122.532,163.499c20.235,1.491,57.057,6.753,93.097,24.952
				C555.935,2261.93,592.787,2264.868,592.787,2264.868z"/>
			
				<linearGradient id="SVGID_00000177457278102405289930000012645900657901520792_" gradientUnits="userSpaceOnUse" x1="806.6774" y1="2106.8025" x2="636.3419" y2="2364.5469">
				<stop  offset="0" style="stop-color:#2B3582"/>
				<stop  offset="1" style="stop-color:#150E42"/>
			</linearGradient>
			<polygon style="fill:url(#SVGID_00000177457278102405289930000012645900657901520792_);" points="742.149,2248.585 
				774.742,2251.704 789.151,2086.099 755.976,2086.944 			"/>
			
				<linearGradient id="SVGID_00000042734071715512761680000015118183424816329887_" gradientUnits="userSpaceOnUse" x1="710.0197" y1="2042.9241" x2="539.6846" y2="2300.668">
				<stop  offset="0" style="stop-color:#2B3582"/>
				<stop  offset="1" style="stop-color:#150E42"/>
			</linearGradient>
			<polygon style="fill:url(#SVGID_00000042734071715512761680000015118183424816329887_);" points="604.361,2262.727 
				635.639,2265.042 626.339,2104.081 592.787,2110.747 			"/>
			
				<linearGradient id="SVGID_00000138535489759235576140000009703742484256276643_" gradientUnits="userSpaceOnUse" x1="770.153" y1="2087.5247" x2="578.5255" y2="2605.2556">
				<stop  offset="0" style="stop-color:#2B3582"/>
				<stop  offset="1" style="stop-color:#150E42"/>
			</linearGradient>
			<path style="fill:url(#SVGID_00000138535489759235576140000009703742484256276643_);" d="M581.261,2482.581
				c45.564,20.876,108.703,18.344,167.859,1.789l24.166-224.67c1.183-10.996-7.434-20.589-18.493-20.589H598.366
				c-10.526,0-15.326,11.225-15.131,15.405L581.261,2482.581z"/>
			
				<linearGradient id="SVGID_00000045597790401025210810000015571531502048914074_" gradientUnits="userSpaceOnUse" x1="716.0781" y1="2378.5408" x2="565.9142" y2="2681.1101">
				<stop  offset="0" style="stop-color:#2B3582"/>
				<stop  offset="1" style="stop-color:#150E42"/>
			</linearGradient>
			<path style="fill:url(#SVGID_00000045597790401025210810000015571531502048914074_);" d="M748.938,2475.141
				c-52.41,12.876-112.696,12.627-178.613-0.657l-0.708,30.269c-0.02,0.834,0.531,1.584,1.333,1.818
				c60.495,17.602,118.985,17.428,176.747,1.906c2.362-0.635,4.001-2.799,4.001-5.245v-25.59
				C751.626,2475.981,750.321,2474.801,748.938,2475.141z"/>
			
				<linearGradient id="SVGID_00000069372497261508318750000017994472162486048640_" gradientUnits="userSpaceOnUse" x1="9033.165" y1="2352.1714" x2="9313.7871" y2="2352.1714" gradientTransform="matrix(1 0 0 1 -8580.6895 0)">
				<stop  offset="0" style="stop-color:#C4421B"/>
				<stop  offset="1" style="stop-color:#5C0E16"/>
			</linearGradient>
			<path style="fill:url(#SVGID_00000069372497261508318750000017994472162486048640_);" d="M717.186,2331
				c0,0-120.238,67.953-160.809,9.929c-8.424-12.048-10.437-24.022-8.363-35.438c-36.041-18.198-72.863-23.461-93.097-24.952
				c-5.31,27.812-2.503,57.393,13.841,87.291c71.065,129.999,264.34-7.184,264.34-7.184L717.186,2331z"/>
			<g>
				
					<linearGradient id="SVGID_00000009591145857096874910000014895813695380492429_" gradientUnits="userSpaceOnUse" x1="894.3501" y1="1850.2686" x2="743.0719" y2="3479.0205">
					<stop  offset="0" style="stop-color:#53D8FF"/>
					<stop  offset="1" style="stop-color:#3840F7"/>
				</linearGradient>
				<path style="fill:url(#SVGID_00000009591145857096874910000014895813695380492429_);" d="M702.74,2416.968l65.621-229.166
					c0.745-2.602,2.964-4.499,5.652-4.813c11.889-1.386,46.341-5.281,86.118-8.646c47.913-4.053,103.554-7.336,136.804-4.543
					c4.726,0.397,7.583,5.396,5.481,9.65c-18.907,38.252-96.682,193.855-135.629,244.829c-1.29,1.688-3.285,2.676-5.411,2.656
					l-152.253-1.416C704.693,2425.478,701.52,2421.227,702.74,2416.968z"/>
				
					<linearGradient id="SVGID_00000158711260375936358780000005177804536120839603_" gradientUnits="userSpaceOnUse" x1="6455.8784" y1="1683.3771" x2="5885.0112" y2="2448.4822" gradientTransform="matrix(1 0 0 1 -5210.5654 0)">
					<stop  offset="0" style="stop-color:#2B3582"/>
					<stop  offset="1" style="stop-color:#150E42"/>
				</linearGradient>
				<path style="fill:url(#SVGID_00000158711260375936358780000005177804536120839603_);" d="M866.937,2154.477l47.578-7.927
					c2.534-0.422,4.609,1.999,3.803,4.438l-4.71,14.271c-0.41,1.242-1.494,2.142-2.79,2.314l-45.783,6.116
					c-2.368,0.316-4.321-1.835-3.777-4.162l2.916-12.46C864.488,2155.724,865.578,2154.702,866.937,2154.477z"/>
				
					<linearGradient id="SVGID_00000089544926833468872750000015143042716265416617_" gradientUnits="userSpaceOnUse" x1="888.7736" y1="2135.1094" x2="848.4329" y2="2785.6013">
					<stop  offset="0" style="stop-color:#2B3582"/>
					<stop  offset="1" style="stop-color:#150E42"/>
				</linearGradient>
				<path style="fill:url(#SVGID_00000089544926833468872750000015143042716265416617_);" d="M831.313,2194.754l3.92-20.415
					c0.393-2.047,2.083-3.595,4.157-3.805l96.095-9.751c3.235-0.329,5.825,2.636,5.065,5.796l-6.11,25.44
					c-0.489,2.035-2.261,3.506-4.351,3.611l-93.905,4.727C833.129,2200.51,830.736,2197.76,831.313,2194.754z"/>
				
					<linearGradient id="SVGID_00000148625340882730209140000005501766119341308326_" gradientUnits="userSpaceOnUse" x1="9292.9521" y1="2322.7483" x2="9380.3779" y2="2322.7483" gradientTransform="matrix(1 0 0 1 -8580.6895 0)">
					<stop  offset="0" style="stop-color:#C4421B"/>
					<stop  offset="1" style="stop-color:#5C0E16"/>
				</linearGradient>
				<path style="fill:url(#SVGID_00000148625340882730209140000005501766119341308326_);" d="M718.594,2361.602
					c0,0-9.142-37.588-5.454-50.924c3.687-13.335,10.832-30.481,34.645-26.671c23.814,3.81,51.904,13.841,51.904,13.841
					s-1.419,17.37-19.518,11.766l11.223,8.684c0,0-1.604,13.908-16.891,6.478l10.438,11.517c0,0-6.565,11.422-17.813,4.096
					C755.882,2333.063,750.49,2366.128,718.594,2361.602z"/>
			</g>
		</g>
	</g>
</g>
</svg>
