<?xml version="1.0" encoding="utf-8"?>
<!-- Generator: Adobe Illustrator 27.5.0, SVG Export Plug-In . SVG Version: 6.00 Build 0)  -->
<svg version="1.1" xmlns="http://www.w3.org/2000/svg" xmlns:xlink="http://www.w3.org/1999/xlink" x="0px" y="0px"
	 viewBox="0 0 3710 3710" style="enable-background:new 0 0 3710 3710;" xml:space="preserve">

<g id="Illustration">
	<g>
		<linearGradient id="SVGID_1_" gradientUnits="userSpaceOnUse" x1="3590.8672" y1="4068.4521" x2="1118.6139" y2="998.0687">
			<stop  offset="0" style="stop-color:#DAE3FE"/>
			<stop  offset="1" style="stop-color:#E9EFFD"/>
		</linearGradient>
		<path style="fill:url(#SVGID_1_);" d="M2918.692,2852.08c-57.223,59.481-111.367,97.84-154.145,128.146
			c-502.846,356.243-1097.847,252.4-1224.301,227.04c-186.733-37.448-547.685-109.833-808.647-412.844
			c-394.813-458.431-333.335-1180.675-27.091-1657.439c56.017-87.208,351.914-571.234,953.323-648.857
			c363.966-46.976,788.234,47.769,1095.477,301.928C3398.239,1323.557,3352.327,2401.326,2918.692,2852.08z"/>
		<g>
			<g>
				<path style="fill:#91B3FA;" d="M3109.088,747.764c-4.436-14.814-25.83-13.833-28.824,1.338
					c-28.954,146.673-116.922,528.895-281.913,741.046c-268.643,345.43-423.085,884.144-213.384,1140.339
					C2584.967,2630.488,3592.372,2361.859,3109.088,747.764z"/>
				<path style="opacity:0.43;fill:#FFFFFF;" d="M3096.904,954.753c0.006,4.719-0.364,8.614-0.579,12.819l-0.901,12.385
					l-2.075,24.724c-1.496,16.468-3.243,32.906-4.992,49.346c-3.615,32.864-7.639,65.68-11.963,98.46
					c-8.77,65.543-19.314,130.839-30.838,195.964c-11.433,65.146-24.688,129.973-39.311,194.491
					c-14.679,64.502-30.276,128.823-47.981,192.596c-35.154,127.591-77.281,253.392-128.127,375.711
					c-26.062,60.878-53.728,121.109-84.83,179.604c-31.51,58.251-65.514,115.192-103.517,169.398
					c-0.826,1.179-2.451,1.464-3.63,0.637c-1.149-0.805-1.45-2.372-0.698-3.542l0.02-0.03
					c35.739-55.438,68.434-112.697,98.251-171.437c29.984-58.665,56.53-119.021,81.466-179.975
					c24.909-60.987,47.356-122.967,68.392-185.409c21.014-62.466,39.433-125.771,57.49-189.161
					c35.583-126.97,64.371-255.791,89.597-385.273c12.476-64.776,23.647-129.81,33.662-195.027
					c5.059-32.601,9.819-65.251,14.174-97.956l6.146-49.1l2.821-24.571l1.273-12.287c0.352-4.031,0.798-8.359,0.961-11.899
					l0.026-0.585c0.065-1.426,1.274-2.529,2.699-2.463C3095.821,952.239,3096.899,953.384,3096.904,954.753z"/>
			</g>
			<g>
				<path style="fill:#BDD0FB;" d="M2586.15,461.033c-8.109-12.375-27.461-5.639-26.069,9.091
					c13.461,142.405,37.061,516.92-56.368,756.483c-152.125,390.063-146.794,926.223,115.403,1103.961
					C2619.116,2330.568,3469.675,1809.399,2586.15,461.033z"/>
				<path style="opacity:0.43;fill:#FFFFFF;" d="M2631.486,654.161c1.297,4.335,2.02,8.003,2.972,11.919l2.555,11.604l4.849,23.238
					c3.125,15.51,6.01,31.061,8.894,46.614c5.657,31.123,10.927,62.315,15.909,93.555c9.849,62.499,17.998,125.256,25.206,188.123
					c7.298,62.862,12.83,125.928,17.023,189.086c4.138,63.158,7.384,126.4,8.548,189.716
					c2.572,126.602-1.753,253.465-15.021,379.514c-7.302,62.94-16.252,125.724-28.826,187.853
					c-13.021,62.016-28.683,123.51-48.768,183.582c-0.445,1.33-1.884,2.048-3.214,1.604c-1.297-0.433-2.012-1.812-1.635-3.113
					l0.01-0.033c17.628-60.594,31.979-122.021,43.283-184.023c11.483-61.978,19.352-124.566,25.581-187.265
					c6.198-62.721,9.874-125.681,12.126-188.679c2.229-63.015,1.842-126.091,1.114-189.146
					c-1.997-126.141-10.745-252.125-22.915-377.747c-6.221-62.805-13.712-125.492-22.308-188.031
					c-4.247-31.277-8.782-62.518-13.705-93.699l-7.748-46.705l-4.11-23.303l-2.181-11.616c-0.776-3.791-1.547-7.886-2.36-11.167
					l-0.138-0.554c-0.334-1.349,0.489-2.715,1.838-3.049C2629.778,652.114,2631.102,652.884,2631.486,654.161z"/>
			</g>
		</g>
		<g>
			<g>
				<g style="opacity:0.3;">
					<path style="fill:#BDD0FB;" d="M1262.087,941.803c5.127-0.828,10.156,2.336,11.542,7.458
						c3.035,11.202,5.625,22.703,7.704,34.181c1.011,5.585-2.695,10.932-8.278,11.942c-0.067,0.011-0.133,0.021-0.198,0.032
						c-5.511,0.89-10.745-2.794-11.743-8.312c-1.974-10.906-4.437-21.829-7.318-32.471c-1.484-5.476,1.753-11.121,7.232-12.603
						C1261.38,941.933,1261.734,941.86,1262.087,941.803z M1275.699,1030.268c0.396-0.064,0.802-0.105,1.214-0.123
						c5.669-0.24,10.461,4.161,10.702,9.83c0.492,11.645,0.491,23.426-0.004,35.014c-0.241,5.67-5.012,10.053-10.702,9.83
						c-5.669-0.243-10.068-5.038-9.826-10.703c0.469-11.016,0.47-22.207,0-33.274
						C1266.859,1035.585,1270.63,1031.087,1275.699,1030.268z M1269.493,1119.53c1.129-0.182,2.309-0.177,3.498,0.041
						c5.579,1.03,9.271,6.386,8.244,11.966c-2.105,11.438-4.736,22.929-7.819,34.15c-1.507,5.471-7.162,8.681-12.629,7.186
						c-5.47-1.503-8.688-7.159-7.186-12.629c2.928-10.656,5.425-21.564,7.426-32.428
						C1261.835,1123.425,1265.325,1120.203,1269.493,1119.53z M1243.478,1205.182c1.866-0.301,3.837-0.091,5.701,0.714
						c5.209,2.249,7.608,8.297,5.359,13.505c-4.617,10.685-9.749,21.299-15.256,31.546c-2.688,4.991-8.914,6.866-13.915,4.185
						c-4.997-2.685-6.871-8.916-4.186-13.914c5.23-9.731,10.107-19.812,14.49-29.967
						C1237.119,1207.907,1240.128,1205.722,1243.478,1205.182z M1199.017,1282.879c2.617-0.422,5.395,0.162,7.702,1.85
						c4.582,3.35,5.579,9.779,2.228,14.357c-6.853,9.371-14.206,18.583-21.853,27.371c-3.721,4.284-10.211,4.738-14.494,1.011
						c-4.28-3.724-4.732-10.213-1.009-14.497c7.27-8.353,14.257-17.108,20.771-26.013
						C1194.024,1284.686,1196.442,1283.295,1199.017,1282.879z M1138.48,1348.802c3.39-0.547,6.976,0.614,9.396,3.394
						c3.726,4.281,3.277,10.768-1.001,14.496c-8.77,7.636-17.979,14.993-27.369,21.858c-4.583,3.35-11.009,2.351-14.359-2.231
						c-3.349-4.577-2.35-11.007,2.229-14.357c8.923-6.526,17.671-13.512,26.004-20.768
						C1134.881,1349.887,1136.651,1349.097,1138.48,1348.802z M770.71,1432.955c1.405-0.227,2.876-0.164,4.337,0.235
						c10.649,2.907,21.568,5.388,32.453,7.371c5.581,1.017,9.283,6.367,8.265,11.947c-1.015,5.583-6.365,9.284-11.948,8.267
						c-11.464-2.088-22.965-4.699-34.179-7.759c-5.475-1.494-8.701-7.145-7.206-12.618
						C763.526,1436.384,766.855,1433.578,770.71,1432.955z M1064.886,1399.637c4.208-0.679,8.566,1.324,10.692,5.291
						c2.682,5.002,0.801,11.229-4.199,13.91c-10.249,5.496-20.863,10.612-31.547,15.208c-5.221,2.217-11.256-0.163-13.499-5.378
						c-2.242-5.212,0.167-11.255,5.38-13.499c10.146-4.362,20.224-9.221,29.957-14.439
						C1062.705,1400.176,1063.791,1399.813,1064.886,1399.637z M859.159,1446.636c0.669-0.108,1.359-0.155,2.063-0.126
						c11.036,0.45,22.238,0.426,33.294-0.062c5.67-0.248,10.468,4.144,10.719,9.811c0.248,5.668-4.135,10.493-9.811,10.718
						c-11.633,0.512-23.421,0.537-35.033,0.067c-5.67-0.231-10.081-5.015-9.849-10.683
						C850.742,1451.397,854.436,1447.399,859.159,1446.636z M981.782,1432.758c5.119-0.827,10.142,2.326,11.537,7.439
						c1.494,5.475-1.733,11.122-7.207,12.62c-11.208,3.058-22.699,5.673-34.155,7.766c-0.07,0.016-0.144,0.027-0.215,0.039
						c-5.503,0.888-10.73-2.784-11.74-8.292c-1.021-5.583,2.674-10.936,8.257-11.956c10.88-1.992,21.795-4.478,32.444-7.384
						C981.062,1432.894,981.424,1432.816,981.782,1432.758z"/>
					<path style="fill:#BDD0FB;" d="M703.116,1407.741c1.997-0.322,4.11-0.062,6.073,0.881c4.775,2.294,9.678,4.523,14.572,6.636
						c5.21,2.244,7.615,8.291,5.369,13.5c-2.244,5.212-8.292,7.623-13.502,5.367c-5.149-2.217-10.304-4.564-15.33-6.977
						c-5.114-2.455-7.272-8.595-4.817-13.707C696.994,1410.286,699.907,1408.259,703.116,1407.741z"/>
				</g>
				<g style="opacity:0.3;">
					<path style="fill:#BDD0FB;" d="M496.095,1172.671c4.895-0.79,9.777,2.064,11.383,6.923c1.66,5.029,3.454,10.11,5.332,15.095
						c2,5.311-0.684,11.237-5.993,13.237c-5.333,2.007-11.238-0.686-13.237-5.994c-1.976-5.25-3.866-10.599-5.615-15.895
						c-1.779-5.388,1.147-11.198,6.535-12.978C495.028,1172.884,495.562,1172.757,496.095,1172.671z"/>
					<path style="fill:#BDD0FB;" d="M811.792,651.943c4.667-0.753,9.365-1.43,14.091-2.031c5.629-0.714,10.772,3.269,11.488,8.898
						c0.716,5.629-3.292,10.797-8.896,11.49c-10.909,1.387-21.736,3.213-32.303,5.455c-5.558,1.169-11.005-2.366-12.183-7.916
						c-1.179-5.554,2.367-11.009,7.918-12.186C798.443,654.265,805.134,653.018,811.792,651.943z M880.035,646.767
						c0.566-0.091,1.151-0.137,1.745-0.131c11.463,0.105,23.049,0.698,34.435,1.762c5.648,0.527,9.801,5.536,9.273,11.182
						c-0.529,5.651-5.545,9.818-11.186,9.274c-10.814-1.01-21.82-1.571-32.713-1.674c-5.673-0.052-10.23-4.694-10.178-10.365
						C871.459,651.733,875.184,647.55,880.035,646.767z M739.924,670.518c4.782-0.772,9.587,1.936,11.291,6.657
						c1.925,5.34-0.842,11.226-6.18,13.153c-10.211,3.681-20.402,7.851-30.294,12.399c-5.16,2.362-11.257,0.11-13.626-5.045
						c-2.369-5.158-0.11-11.259,5.046-13.628c10.417-4.788,21.152-9.179,31.904-13.058
						C738.679,670.776,739.302,670.618,739.924,670.518z M967.507,657.276c1.288-0.208,2.635-0.169,3.983,0.146
						c11.149,2.619,22.321,5.746,33.204,9.294c5.394,1.759,8.34,7.557,6.581,12.95c-1.759,5.398-7.554,8.346-12.952,6.583
						c-10.333-3.368-20.941-6.339-31.53-8.825c-5.524-1.295-8.95-6.828-7.652-12.35C960.12,660.9,963.519,657.92,967.507,657.276z
						 M660.936,709.369c3.922-0.633,8.028,1.053,10.303,4.617c3.053,4.784,1.65,11.136-3.134,14.19
						c-9.146,5.834-18.17,12.145-26.825,18.754c-4.509,3.444-10.958,2.582-14.402-1.931c-3.442-4.51-2.578-10.954,1.932-14.398
						c9.111-6.959,18.612-13.603,28.242-19.748C658.269,710.076,659.593,709.586,660.936,709.369z M592.384,764.614
						c3.136-0.506,6.462,0.445,8.888,2.854c4.024,4.001,4.044,10.506,0.043,14.53c-7.671,7.719-15.107,15.85-22.1,24.167
						c-3.646,4.349-10.125,4.911-14.475,1.255c-4.344-3.653-4.904-10.132-1.254-14.477c7.359-8.753,15.184-17.31,23.257-25.431
						C588.331,765.914,590.315,764.948,592.384,764.614z M537.506,833.489c2.385-0.385,4.913,0.064,7.117,1.456
						c4.798,3.026,6.233,9.372,3.204,14.171c-5.814,9.211-11.302,18.764-16.312,28.403c-2.616,5.032-8.814,6.997-13.855,4.375
						c-5.033-2.619-6.993-8.819-4.375-13.856c5.274-10.14,11.048-20.199,17.165-29.89
						C532.089,835.555,534.697,833.942,537.506,833.489z M498.959,912.687c1.652-0.267,3.392-0.133,5.08,0.469
						c5.345,1.905,8.131,7.781,6.225,13.126c-3.658,10.254-6.917,20.776-9.688,31.281c-1.448,5.486-7.076,8.761-12.553,7.316
						c-5.488-1.447-8.762-7.07-7.314-12.556c2.919-11.065,6.351-22.148,10.201-32.941
						C492.215,915.723,495.379,913.265,498.959,912.687z M478.73,998.449c0.929-0.15,1.895-0.172,2.876-0.053
						c5.632,0.68,9.648,5.8,8.965,11.431c-1.302,10.78-2.162,21.757-2.553,32.633c-0.204,5.672-4.984,10.098-10.637,9.897
						c-5.671-0.203-10.103-4.967-9.899-10.638c0.412-11.449,1.316-23.006,2.69-34.355
						C470.735,1002.712,474.324,999.16,478.73,998.449z M477.837,1086.5c0.208-0.034,0.419-0.059,0.631-0.082
						c5.645-0.562,10.679,3.561,11.239,9.206c0.793,7.97,1.841,16.008,3.115,23.901c0.461,2.857,0.955,5.704,1.475,8.535
						c1.025,5.583-2.667,10.939-8.248,11.962c-5.63,1.149-10.935-2.666-11.962-8.244c-0.548-2.981-1.065-5.971-1.551-8.978
						c-1.34-8.3-2.442-16.761-3.275-25.143C468.72,1092.224,472.518,1087.359,477.837,1086.5z"/>
					<path style="fill:#BDD0FB;" d="M1050.734,686.903c2.017-0.326,4.147-0.056,6.122,0.902c5.003,2.432,10.048,5.016,14.996,7.681
						c4.998,2.69,6.868,8.92,4.178,13.916c-2.692,4.996-8.916,6.871-13.916,4.178c-4.701-2.53-9.494-4.984-14.243-7.294
						c-5.102-2.477-7.229-8.626-4.748-13.73C1044.646,689.426,1047.545,687.417,1050.734,686.903z"/>
				</g>
				<g>
					<path style="fill:#BDD0FB;" d="M1056.042,806.757c-1.531-1.36-3.758-1.6-5.543-0.595l-50.936,28.656
						c-24.002-12.994-50.248-22.255-77.926-27.034l-22.269-53.994c-0.781-1.895-2.678-3.083-4.723-2.963l-69.98,4.141
						c-2.046,0.122-3.788,1.527-4.341,3.499l-15.744,56.244c-26.922,8.011-51.892,20.302-74.193,36.038L676.424,828.3
						c-1.891-0.787-4.073-0.287-5.434,1.244l-46.555,52.412c-1.361,1.533-1.6,3.759-0.595,5.544l28.656,50.936
						c-12.994,24.001-22.255,50.249-27.034,77.927l-53.995,22.269c-1.894,0.781-3.083,2.677-2.963,4.722l4.142,69.981
						c0.121,2.045,1.526,3.788,3.499,4.34l56.244,15.745c8.011,26.922,20.301,51.892,36.037,74.193l-22.449,53.962
						c-0.786,1.89-0.286,4.073,1.245,5.433l52.412,46.555c1.532,1.362,3.758,1.599,5.543,0.595l50.936-28.657
						c24.001,12.995,50.248,22.256,77.926,27.034l22.269,53.995c0.781,1.893,2.677,3.083,4.722,2.963l69.981-4.142
						c2.045-0.12,3.788-1.526,4.34-3.499l15.744-56.244c26.922-8.01,51.893-20.302,74.194-36.037l53.961,22.448
						c1.891,0.788,4.075,0.287,5.435-1.244l46.555-52.412c1.36-1.531,1.599-3.757,0.595-5.543l-28.656-50.936
						c12.995-24.001,22.255-50.249,27.034-77.927l53.995-22.269c1.893-0.78,3.084-2.677,2.962-4.723l-4.141-69.98
						c-0.121-2.045-1.526-3.788-3.499-4.341l-56.244-15.744c-8.011-26.921-20.302-51.891-36.037-74.193l22.448-53.961
						c0.787-1.892,0.287-4.073-1.244-5.435L1056.042,806.757z"/>
					
						<linearGradient id="SVGID_00000162348623860933103000000011069031581233606326_" gradientUnits="userSpaceOnUse" x1="807.3664" y1="1060.176" x2="948.3102" y2="1060.176">
						<stop  offset="0" style="stop-color:#DAE3FE"/>
						<stop  offset="1" style="stop-color:#E9EFFD"/>
					</linearGradient>
					<path style="fill:url(#SVGID_00000162348623860933103000000011069031581233606326_);" d="M866.652,990.583
						c33.911-5.475,67.707,14.619,78.37,48.322c11.719,37.048-8.885,76.718-45.93,88.439c-17.947,5.682-37.03,4.027-53.73-4.647
						c-16.704-8.673-29.031-23.335-34.707-41.281c-11.72-37.049,8.885-76.718,45.93-88.439
						C859.924,991.921,863.29,991.126,866.652,990.583z M886.338,1113.525c2.619-0.423,5.221-1.038,7.797-1.852
						c28.403-8.984,44.2-39.406,35.216-67.807c-8.986-28.404-39.4-44.215-67.809-35.217c-28.403,8.984-44.199,39.405-35.216,67.806
						c4.354,13.762,13.803,25.001,26.611,31.653C863.347,1113.513,874.965,1115.361,886.338,1113.525z"/>
					
						<linearGradient id="SVGID_00000130636386624045156150000014160482015032298652_" gradientUnits="userSpaceOnUse" x1="703.6702" y1="1061.3551" x2="1050.2134" y2="1061.3551">
						<stop  offset="0" style="stop-color:#DAE3FE"/>
						<stop  offset="1" style="stop-color:#E9EFFD"/>
					</linearGradient>
					<path style="fill:url(#SVGID_00000130636386624045156150000014160482015032298652_);" d="M849.008,890.337
						c5.824-0.94,11.729-1.593,17.699-1.947l0,0c1.878-0.112,3.76-0.193,5.642-0.244c9.279-0.25,18.564,0.239,27.71,1.458
						c0.125,0.016,0.249,0.033,0.374,0.049c0.353,0.049,0.707,0.097,1.061,0.15c0.688,0.096,1.376,0.201,2.062,0.305
						c1.805,0.278,3.153,1.69,3.431,3.402c0.067,0.416,0.07,0.85,0.003,1.288c-0.346,2.243-2.448,3.773-4.688,3.432
						c-11.542-1.783-23.354-2.332-35.107-1.633c-58.384,3.446-107.957,37.012-134.511,84.667
						c-14.773,26.504-22.42,57.37-20.497,89.842c0.336,5.694,0.957,11.33,1.856,16.884c6.04,37.384,24.599,71.272,53.294,96.759
						c32.96,29.278,75.35,43.968,119.356,41.363c90.887-5.388,160.385-83.665,155.008-174.508
						c-0.331-5.601-0.945-11.165-1.835-16.668c-3.854-23.847-12.883-46.585-26.52-66.552c-0.352-0.516-0.571-1.083-0.663-1.661
						c-0.246-1.521,0.38-3.122,1.739-4.049c1.879-1.275,4.431-0.805,5.713,1.078c14.316,20.962,23.798,44.835,27.844,69.87
						c0.935,5.776,1.578,11.615,1.928,17.494c5.646,95.378-67.383,177.558-162.726,183.203
						c-46.201,2.735-90.699-12.688-125.301-43.424c-30.126-26.756-49.608-62.332-55.95-101.578
						c-0.941-5.832-1.594-11.748-1.949-17.723c-2.733-46.203,12.687-90.703,43.422-125.305
						C774.164,916.157,809.753,896.675,849.008,890.337z"/>
				</g>
			</g>
			<g>
				<g style="opacity:0.3;">
					<path style="fill:#BDD0FB;" d="M1565.057,618.631c2.71-0.438,5.492,0.927,6.734,3.532c2.322,4.861,4.529,9.859,6.557,14.854
						c1.318,3.246-0.244,6.944-3.493,8.266c-3.247,1.333-6.948-0.247-8.266-3.493c-1.933-4.76-4.036-9.524-6.251-14.163
						c-1.511-3.158-0.17-6.946,2.991-8.461C1563.893,618.901,1564.473,618.725,1565.057,618.631z"/>
					<path style="fill:#BDD0FB;" d="M1581.964,664.424c3.175-0.513,6.286,1.452,7.133,4.623c2.401,8.96,4.368,18.146,5.845,27.297
						c0.311,1.927,0.601,3.864,0.875,5.81c0.483,3.475-2.142,6.579-5.405,7.169c-3.471,0.485-6.677-1.935-7.165-5.403
						c-0.26-1.86-0.536-3.712-0.833-5.553c-1.41-8.73-3.285-17.491-5.572-26.036c-0.908-3.387,1.101-6.863,4.485-7.773
						C1581.54,664.505,1581.753,664.458,1581.964,664.424z M1591.087,729.677c0.296-0.048,0.602-0.079,0.909-0.084
						c3.506-0.058,6.395,2.734,6.456,6.239c0.195,11.243-0.307,22.598-1.492,33.742c-0.369,3.487-3.513,6.003-6.98,5.64
						c-3.487-0.372-6.009-3.493-5.64-6.98c1.13-10.634,1.607-21.464,1.423-32.187
						C1585.709,732.855,1588.021,730.172,1591.087,729.677z M1584.113,795.193c0.795-0.128,1.627-0.105,2.459,0.086
						c3.412,0.799,5.527,4.218,4.728,7.629c-2.567,10.929-5.842,21.821-9.746,32.363c-1.217,3.292-4.858,4.965-8.155,3.746
						c-3.285-1.215-4.963-4.867-3.748-8.151c3.721-10.054,6.848-20.433,9.292-30.859
						C1579.55,797.43,1581.65,795.591,1584.113,795.193z M1561.245,856.993c1.297-0.209,2.668-0.017,3.924,0.628
						c3.11,1.613,4.329,5.446,2.716,8.557c-5.177,9.988-11.016,19.737-17.363,28.985c-1.985,2.888-5.939,3.614-8.822,1.638
						c-2.89-1.981-3.625-5.93-1.641-8.824c6.05-8.811,11.623-18.116,16.557-27.637
						C1557.578,858.483,1559.328,857.303,1561.245,856.993z M1523.978,911.331c1.811-0.292,3.736,0.2,5.219,1.511
						c2.624,2.319,2.87,6.328,0.551,8.956c-7.443,8.414-15.472,16.452-23.87,23.884c-2.624,2.332-6.635,2.082-8.957-0.544
						c-2.323-2.626-2.079-6.638,0.544-8.957c8.013-7.094,15.674-14.759,22.772-22.791
						C1521.249,912.249,1522.58,911.557,1523.978,911.331z M1474.659,954.973c2.346-0.379,4.812,0.586,6.248,2.676
						c1.982,2.888,1.244,6.836-1.643,8.821c-9.263,6.354-19.01,12.19-28.969,17.339c-3.127,1.603-6.943,0.386-8.553-2.725
						c-1.61-3.111-0.389-6.942,2.722-8.549c9.499-4.911,18.788-10.472,27.619-16.53
						C1472.881,955.455,1473.762,955.117,1474.659,954.973z M1416.181,985.223c2.936-0.474,5.893,1.176,6.958,4.068
						c1.212,3.288-0.471,6.937-3.759,8.152c-10.504,3.874-21.389,7.138-32.355,9.706c-3.433,0.743-6.83-1.327-7.625-4.738
						c-0.799-3.411,1.321-6.824,4.732-7.625c10.462-2.442,20.844-5.556,30.859-9.251
						C1415.385,985.389,1415.783,985.287,1416.181,985.223z M1319.047,1001.721c0.361-0.058,0.736-0.087,1.117-0.08
						c9.25,0.145,18.671-0.214,28.002-1.068c1.414-0.122,2.802-0.258,4.183-0.411c3.486-0.374,6.616,2.139,6.994,5.625
						c0.384,3.491-2.144,6.724-5.622,6.997c-1.475,0.156-2.948,0.306-4.431,0.433c-9.749,0.89-19.625,1.266-29.326,1.113
						c-3.506-0.056-6.3-2.938-6.244-6.443C1313.77,1004.764,1316.065,1002.202,1319.047,1001.721z"/>
				</g>
				<g style="opacity:0.3;">
					<path style="fill:#BDD0FB;" d="M1277.048,470.331c3.42-0.552,6.66,1.75,7.26,5.174c0.604,3.449-1.705,6.741-5.158,7.342
						c-10.394,1.816-20.764,4.282-30.824,7.33c-3.342,0.979-6.899-0.876-7.915-4.233c-1.016-3.357,0.882-6.897,4.233-7.915
						c10.552-3.191,21.422-5.781,32.317-7.684C1276.99,470.34,1277.021,470.335,1277.048,470.331z M1309.306,466.673
						c0.227-0.037,0.452-0.06,0.685-0.073c11.031-0.589,22.211-0.51,33.227,0.228c3.497,0.239,6.141,3.258,5.905,6.755
						c-0.232,3.503-3.278,6.135-6.754,5.911c-10.512-0.707-21.18-0.78-31.707-0.223c-3.498,0.188-6.486-2.5-6.672-5.997
						C1303.817,470.001,1306.149,467.183,1309.306,466.673z M1215.042,489.129c2.778-0.448,5.616,1.002,6.811,3.696
						c1.418,3.198-0.027,6.947-3.231,8.368c-9.65,4.282-19.119,9.182-28.147,14.576c-3.022,1.787-6.905,0.813-8.7-2.199
						c-1.797-3.005-0.814-6.905,2.194-8.703c9.464-5.652,19.393-10.789,29.51-15.272
						C1213.992,489.368,1214.516,489.214,1215.042,489.129z M1373.987,471.057c0.712-0.115,1.457-0.11,2.208,0.032
						c10.857,2.083,21.694,4.859,32.207,8.252c3.337,1.075,5.167,4.652,4.092,7.989c-1.077,3.325-4.653,5.158-7.987,4.089
						c-10.026-3.233-20.355-5.878-30.707-7.867c-3.44-0.662-5.697-3.988-5.035-7.429
						C1369.284,473.436,1371.43,471.47,1373.987,471.057z M1159.424,522.358c2.218-0.358,4.559,0.475,6.029,2.372
						c2.152,2.772,1.647,6.758-1.12,8.906c-8.321,6.453-16.331,13.484-23.811,20.906c-2.491,2.474-6.509,2.451-8.976-0.039
						c-2.467-2.489-2.451-6.509,0.038-8.976c7.846-7.776,16.244-15.152,24.966-21.921
						C1157.42,522.932,1158.412,522.521,1159.424,522.358z M1113.399,567.959c1.698-0.274,3.497,0.139,4.95,1.285
						c2.749,2.174,3.217,6.165,1.044,8.914c-6.547,8.282-12.648,17.032-18.133,26.003c-1.83,2.994-5.739,3.934-8.724,2.105
						c-2.991-1.827-3.931-5.73-2.104-8.718c5.75-9.409,12.144-18.582,19.004-27.26
						C1110.459,568.993,1111.888,568.203,1113.399,567.959z M1079.621,623.279c1.193-0.193,2.452-0.051,3.635,0.492
						c3.191,1.45,4.599,5.215,3.147,8.406c-4.379,9.602-8.201,19.56-11.361,29.592c-1.056,3.334-4.619,5.196-7.959,4.141
						c-3.343-1.054-5.198-4.615-4.144-7.962c3.318-10.517,7.324-20.962,11.912-31.037
						C1075.766,624.905,1077.596,623.606,1079.621,623.279z"/>
					<path style="fill:#BDD0FB;" d="M1435.958,491.063c1.208-0.195,2.485-0.043,3.679,0.511c4.927,2.287,9.806,4.732,14.508,7.261
						c3.084,1.662,4.242,5.511,2.581,8.598c-1.667,3.075-5.509,4.235-8.598,2.58c-4.483-2.415-9.14-4.745-13.84-6.93
						c-3.179-1.476-4.557-5.252-3.081-8.428C1432.132,492.673,1433.948,491.388,1435.958,491.063z"/>
				</g>
				<g>
					<path style="fill:#BDD0FB;" d="M1443.816,572.832c-1.024-0.91-2.514-1.07-3.709-0.398l-34.084,19.175
						c-16.061-8.695-33.624-14.892-52.145-18.09l-14.901-36.13c-0.522-1.268-1.792-2.063-3.16-1.983l-46.828,2.771
						c-1.369,0.081-2.535,1.022-2.905,2.341l-10.535,37.636c-18.015,5.361-34.724,13.585-49.647,24.115l-36.108-15.022
						c-1.266-0.526-2.726-0.192-3.637,0.833l-31.152,35.072c-0.91,1.026-1.07,2.515-0.398,3.709l19.175,34.084
						c-8.696,16.061-14.892,33.624-18.09,52.145l-36.131,14.901c-1.267,0.523-2.063,1.792-1.983,3.16l2.772,46.828
						c0.081,1.369,1.021,2.535,2.341,2.904l37.636,10.536c5.36,18.015,13.585,34.724,24.114,49.647l-15.021,36.109
						c-0.526,1.265-0.192,2.726,0.833,3.635l35.072,31.153c1.024,0.911,2.514,1.07,3.709,0.398l34.084-19.176
						c16.06,8.696,33.623,14.892,52.145,18.09l14.902,36.131c0.523,1.267,1.791,2.063,3.16,1.982l46.828-2.772
						c1.368-0.081,2.534-1.021,2.904-2.341l10.535-37.636c18.015-5.36,34.725-13.585,49.648-24.115l36.107,15.021
						c1.266,0.527,2.727,0.192,3.637-0.833l31.152-35.072c0.91-1.025,1.071-2.514,0.398-3.709l-19.175-34.084
						c8.696-16.06,14.892-33.624,18.089-52.145l36.131-14.901c1.266-0.522,2.063-1.792,1.981-3.16l-2.771-46.827
						c-0.082-1.369-1.021-2.535-2.341-2.905l-37.636-10.536c-5.361-18.014-13.585-34.723-24.114-49.646l15.021-36.109
						c0.526-1.266,0.192-2.725-0.833-3.637L1443.816,572.832z"/>
					<path style="opacity:0.56;fill:#BDD0FB;" d="M1317.019,694.989c10.106-1.632,20.427,0.01,29.676,4.813
						c11.377,5.909,19.772,15.897,23.639,28.122c7.983,25.226-6.049,52.248-31.283,60.239c-25.282,7.949-52.263-6.056-60.244-31.288
						c-3.869-12.225-2.744-25.224,3.165-36.599c5.908-11.38,15.896-19.778,28.124-23.642
						C1312.382,695.914,1314.697,695.364,1317.019,694.989z M1330.179,777.261c1.686-0.272,3.369-0.67,5.045-1.198
						c18.56-5.877,28.882-25.754,23.01-44.315c-2.845-8.988-9.019-16.34-17.387-20.682c-8.373-4.348-17.93-5.165-26.926-2.332l0,0
						c-8.991,2.845-16.339,9.022-20.685,17.388c-4.348,8.373-5.174,17.934-2.328,26.928
						C1296.248,769.934,1313.187,780.004,1330.179,777.261z"/>
					
						<linearGradient id="SVGID_00000055674682419534608040000014262299774350471597_" gradientUnits="userSpaceOnUse" x1="1204.4323" y1="743.1967" x2="1443.5168" y2="743.1967">
						<stop  offset="0" style="stop-color:#DAE3FE"/>
						<stop  offset="1" style="stop-color:#E9EFFD"/>
					</linearGradient>
					<path style="fill:url(#SVGID_00000055674682419534608040000014262299774350471597_);" d="M1304.828,625.197
						c3.964-0.64,7.992-1.083,12.082-1.329c8.123-0.483,16.304-0.14,24.335,1.024c0.36,0.055,0.721,0.11,1.081,0.165
						c2.787,0.429,4.869,2.61,5.299,5.252c0.104,0.642,0.108,1.313,0.004,1.989c-0.534,3.463-3.781,5.821-7.239,5.299
						c-7.488-1.158-15.133-1.511-22.725-1.058l-0.003,0c-0.417,0.024-0.835,0.054-1.248,0.083
						c-17.957,1.236-34.926,6.901-49.717,16.318c-8.028,5.113-15.416,11.34-21.965,18.58c-0.053,0.059-0.106,0.117-0.16,0.176
						c-0.162,0.184-0.325,0.36-0.484,0.543c-18.951,21.339-28.463,48.78-26.776,77.269c0.215,3.688,0.619,7.332,1.199,10.93
						c3.911,24.201,15.927,46.139,34.503,62.643c21.339,18.952,48.78,28.457,77.266,26.771c28.469-1.696,54.617-14.367,73.573-35.7
						c18.951-21.338,28.463-48.78,26.776-77.269c-0.212-3.625-0.611-7.227-1.186-10.787c-2.496-15.441-8.34-30.159-17.168-43.083
						c-0.543-0.797-0.883-1.671-1.024-2.565c-0.379-2.349,0.587-4.822,2.685-6.253c2.899-1.968,6.841-1.236,8.822,1.664
						c9.877,14.462,16.418,30.932,19.213,48.201c0.644,3.989,1.09,8.016,1.33,12.07c1.886,31.878-8.754,62.578-29.96,86.452
						c-21.205,23.868-50.416,38.076-82.307,39.941c-31.875,1.889-62.573-8.748-86.446-29.958
						c-20.785-18.458-34.226-43.003-38.601-70.079c-0.649-4.019-1.101-8.102-1.345-12.224
						C1200.995,688.55,1245.065,634.846,1304.828,625.197z"/>
				</g>
			</g>
		</g>
		<g>
			
				<linearGradient id="SVGID_00000038396527649715132330000014515133401528537762_" gradientUnits="userSpaceOnUse" x1="2022.7238" y1="2602.3735" x2="2426.1318" y2="1882.9617">
				<stop  offset="0" style="stop-color:#09005D"/>
				<stop  offset="1" style="stop-color:#1A0F91"/>
			</linearGradient>
			<polygon style="fill:url(#SVGID_00000038396527649715132330000014515133401528537762_);" points="1596.317,2577.164 
				1539.949,3082.703 2193.924,3082.703 2108.742,2577.164 			"/>
			
				<linearGradient id="SVGID_00000165914906204255399360000017523725316157868472_" gradientUnits="userSpaceOnUse" x1="1849.6469" y1="1171.4049" x2="1735.3478" y2="2838.8269">
				<stop  offset="0" style="stop-color:#09005D"/>
				<stop  offset="1" style="stop-color:#1A0F91"/>
			</linearGradient>
			<path style="fill:url(#SVGID_00000165914906204255399360000017523725316157868472_);" d="M458.347,1295.491v1191.404
				c0,98.009,78.101,178.156,176.077,180.683c435.159,11.221,1957.134,38.43,2371.376,32.323
				c71.197-1.05,128.874-58.024,130.928-129.2c7.988-276.78,20.961-942.341-27.048-1251.335
				c-10.11-65.071-65.036-113.729-130.854-115.835c-364.608-11.664-1978.002-48.701-2392.05-39.402
				C515.367,1165.734,458.347,1224.064,458.347,1295.491z"/>
			<path style="fill:#91B3FA;" d="M533.104,1289.692v1131.916c0,57.223,45.934,103.85,103.151,104.705l2309.95,28.539
				c56.726,0.848,103.224-44.79,103.436-101.522l3.864-1121.803c0.151-40.565-32.166-73.802-72.719-74.789l-2364.96-47.778
				C570.469,1207.856,533.104,1244.323,533.104,1289.692z"/>
			
				<linearGradient id="SVGID_00000078730747718411674760000015398004840488771257_" gradientUnits="userSpaceOnUse" x1="529.3928" y1="2576.4512" x2="3070.7432" y2="2576.4512">
				<stop  offset="0" style="stop-color:#DAE3FE"/>
				<stop  offset="1" style="stop-color:#E9EFFD"/>
			</linearGradient>
			<path style="fill:url(#SVGID_00000078730747718411674760000015398004840488771257_);" d="M3067.033,2601.751c0,0-0.042,0-0.065,0
				l-2533.926-43.173c-2.049-0.037-3.684-1.727-3.649-3.777c0.033-2.05,1.705-3.666,3.775-3.651l2533.926,43.173
				c2.05,0.037,3.684,1.727,3.649,3.777C3070.709,2600.128,3069.053,2601.751,3067.033,2601.751z"/>
			
				<linearGradient id="SVGID_00000065058704847362131440000017816831616747521685_" gradientUnits="userSpaceOnUse" x1="1901.1473" y1="2120.781" x2="1887.7" y2="2430.0642">
				<stop  offset="0" style="stop-color:#09005D"/>
				<stop  offset="1" style="stop-color:#1A0F91"/>
			</linearGradient>
			<path style="fill:url(#SVGID_00000065058704847362131440000017816831616747521685_);" d="M2334.789,3186.136h-957.136
				c-26.002,0-45.529-18.511-40.502-38.395l12.282-48.572c3.693-14.607,19.763-25.331,38.85-25.927l922.713-28.792
				c19.941-0.622,37.597,9.963,41.942,25.144l22.141,77.364C2380.832,3167.057,2361.211,3186.136,2334.789,3186.136z"/>
		</g>
		<g>
			<path style="fill:#FFFFFF;" d="M1325.955,2347.576l-413.532-0.656c-6.741-0.011-12.211-5.03-12.211-11.212v-26.311
				c0-6.181,5.47-11.162,12.211-11.124l413.532,2.321c6.28,0.035,11.367,4.894,11.367,10.852v25.36
				C1337.322,2342.764,1332.235,2347.586,1325.955,2347.576z"/>
			<path style="fill:#FFFFFF;" d="M928.459,2356.833l35.552,130.384c2.246,8.241,10.306,13.947,19.538,13.843l275.287-3.093
				c8.801-0.099,16.461-5.832,18.595-13.905l33.526-126.935L928.459,2356.833z M1030.51,2479.569c0,5.173-4.533,9.413-10.127,9.47
				l-9.663,0.099c-5.608,0.058-10.161-4.1-10.161-9.286v-101.054c0-5.186,4.552-9.391,10.161-9.393l9.663-0.003
				c5.594-0.001,10.127,4.191,10.127,9.364V2479.569z M1084.235,2479.059c0,5.15-4.492,9.371-10.036,9.427l-9.576,0.098
				c-5.558,0.057-10.07-4.082-10.07-9.244v-100.6c0-5.163,4.512-9.349,10.07-9.351l9.576-0.003
				c5.544-0.001,10.036,4.172,10.036,9.322V2479.059z M1137.48,2478.554c0,5.127-4.453,9.329-9.947,9.385l-9.491,0.097
				c-5.508,0.056-9.98-4.064-9.98-9.204v-100.149c0-5.139,4.471-9.307,9.98-9.309l9.491-0.003c5.495-0.001,9.947,4.153,9.947,9.28
				V2478.554z M1190.251,2478.054c0,5.104-4.413,9.287-9.859,9.343l-9.406,0.096c-5.459,0.056-9.891-4.046-9.891-9.163v-99.702
				c0-5.116,4.431-9.266,9.891-9.267l9.406-0.003c5.446-0.001,9.859,4.135,9.859,9.239V2478.054z M1242.555,2477.558
				c0,5.081-4.374,9.246-9.771,9.301l-9.323,0.096c-5.411,0.056-9.803-4.029-9.803-9.123v-99.259c0-5.094,4.392-9.225,9.803-9.226
				l9.323-0.002c5.398-0.001,9.771,4.116,9.771,9.198V2477.558z"/>
			<g>
				<g>
					<path style="fill:#FFFFFF;" d="M974.918,2285.356c-6.281,5.001-15.822,4.338-21.31-1.492
						c-5.493-5.834-4.836-14.624,1.466-19.622c6.295-4.993,15.833-4.305,21.305,1.526
						C981.846,2271.595,981.192,2280.36,974.918,2285.356z"/>
					<path style="fill:#FFFFFF;" d="M1107.623,2161.468c-2.071-2.25-6.355-2.007-9.569,0.545l-130.939,103.98
						c-3.286,2.61-4.232,6.557-2.111,8.815c2.12,2.256,6.502,1.967,9.784-0.643l130.773-104.003
						C1108.771,2167.609,1109.694,2163.718,1107.623,2161.468z"/>
				</g>
				<g>
					<path style="fill:#FFFFFF;" d="M1267.066,2287.318c5.973,4.956,15.024,4.426,20.216-1.175
						c5.188-5.596,4.568-14.145-1.386-19.103c-5.96-4.963-15.014-4.456-20.221,1.143
						C1260.463,2273.786,1261.086,2282.357,1267.066,2287.318z"/>
					<path style="fill:#FFFFFF;" d="M1137.915,2161.99c2.06-2.173,6.316-1.782,9.505,0.871l127.064,105.691
						c3.119,2.594,4.016,6.453,2.004,8.62c-2.013,2.168-6.176,1.823-9.299-0.77l-127.223-105.672
						C1136.773,2168.076,1135.854,2164.163,1137.915,2161.99z"/>
				</g>
			</g>
		</g>
		<g>
			
				<linearGradient id="SVGID_00000074404199736890313120000011003756541786110633_" gradientUnits="userSpaceOnUse" x1="2772.6934" y1="1325.7434" x2="2557.542" y2="2092.2219">
				<stop  offset="0" style="stop-color:#4F52FF"/>
				<stop  offset="1" style="stop-color:#4042E2"/>
			</linearGradient>
			
				<circle style="fill:url(#SVGID_00000074404199736890313120000011003756541786110633_);" cx="2705.022" cy="1566.824" r="213.333"/>
			<g>
				
					<linearGradient id="SVGID_00000025406605046472405050000011253008779580184751_" gradientUnits="userSpaceOnUse" x1="2557.6462" y1="1569.6189" x2="2853.2778" y2="1569.6189">
					<stop  offset="0" style="stop-color:#DAE3FE"/>
					<stop  offset="1" style="stop-color:#E9EFFD"/>
				</linearGradient>
				<path style="fill:url(#SVGID_00000025406605046472405050000011253008779580184751_);" d="M2706.544,1707.81
					c-2.368,0-4.739-0.052-7.123-0.157c-81.435-3.591-144.979-68.428-141.65-144.538c1.616-37.011,18.59-71.082,47.792-95.941
					c28.997-24.688,66.65-37.306,105.937-35.593c81.435,3.59,144.982,68.428,141.653,144.536v0.006
					c-1.619,37.007-18.593,71.077-47.793,95.937C2778.118,1695.25,2743.262,1707.81,2706.544,1707.81z M2704.385,1450.905
					c-32.096,0-62.493,10.924-86.193,31.103c-25.033,21.311-39.579,50.417-40.958,81.955
					c-2.859,65.384,52.339,121.114,123.045,124.23c34.366,1.483,67.218-9.48,92.452-30.967
					c25.033-21.311,39.581-50.417,40.961-81.958c2.858-65.38-52.342-121.11-123.048-124.225
					C2708.553,1450.952,2706.464,1450.905,2704.385,1450.905z"/>
				<g>
					<g>
						
							<linearGradient id="SVGID_00000017499985685528079610000000543694251072802467_" gradientUnits="userSpaceOnUse" x1="2670.0579" y1="1570.6324" x2="2740.739" y2="1570.6324">
							<stop  offset="0" style="stop-color:#DAE3FE"/>
							<stop  offset="1" style="stop-color:#E9EFFD"/>
						</linearGradient>
						<path style="fill:url(#SVGID_00000017499985685528079610000000543694251072802467_);" d="M2740.739,1570.238
							c-0.033,22.651-1.581,45.349-5.557,67.679c-1.007,5.579-2.173,11.13-3.565,16.628c-1.394,5.496-3.004,10.945-4.976,16.272
							c-1.988,5.313-4.295,10.551-7.425,15.337c-1.576,2.376-3.365,4.653-5.573,6.525c-1.103,0.931-2.315,1.755-3.647,2.36
							c-1.33,0.6-2.783,0.98-4.258,1.007c-1.473,0.043-2.949-0.246-4.305-0.794c-1.362-0.543-2.602-1.331-3.733-2.231
							c-2.261-1.814-4.088-4.065-5.693-6.422c-3.185-4.753-5.524-9.979-7.533-15.284c-1.997-5.318-3.622-10.762-5.03-16.256
							c-1.404-5.495-2.582-11.044-3.598-16.62c-2.026-11.156-3.407-22.417-4.339-33.71c-0.927-11.296-1.39-22.626-1.447-33.959
							c-0.028-5.666,0.125-11.331,0.326-16.992c0.211-5.662,0.521-11.319,0.937-16.969c0.834-11.297,2.082-22.571,3.935-33.752
							c0.931-5.589,2.015-11.154,3.319-16.67c1.308-5.514,2.827-10.985,4.713-16.336c0.947-2.673,1.983-5.318,3.165-7.901
							c1.18-2.582,2.501-5.108,4.051-7.496c1.555-2.378,3.342-4.646,5.569-6.463c1.113-0.901,2.339-1.685,3.682-2.215
							c1.338-0.538,2.79-0.81,4.234-0.755c1.444,0.041,2.869,0.403,4.183,0.984c1.317,0.583,2.526,1.378,3.635,2.278
							c2.22,1.811,4.059,4.027,5.689,6.352c3.24,4.683,5.685,9.849,7.801,15.105c2.102,5.27,3.837,10.676,5.348,16.139
							c1.505,5.465,2.781,10.992,3.884,16.55C2738.9,1524.882,2740.674,1547.582,2740.739,1570.238z M2739.069,1570.238
							c0.021-11.287-0.406-22.576-1.341-33.824c-0.922-11.247-2.316-22.46-4.396-33.551c-1.038-5.544-2.248-11.058-3.686-16.51
							c-1.444-5.448-3.111-10.842-5.14-16.097c-2.043-5.239-4.414-10.386-7.558-15.037c-1.58-2.309-3.364-4.502-5.504-6.286
							c-1.069-0.887-2.23-1.666-3.487-2.239c-1.256-0.568-2.607-0.939-3.982-0.975c-1.374-0.044-2.747,0.234-4.017,0.759
							c-1.277,0.519-2.447,1.284-3.514,2.168c-2.136,1.781-3.866,4.022-5.37,6.378c-1.501,2.366-2.779,4.876-3.919,7.445
							c-1.141,2.57-2.14,5.203-3.052,7.867c-1.813,5.333-3.266,10.789-4.506,16.289c-1.238,5.502-2.258,11.054-3.123,16.63
							c-1.724,11.154-2.845,22.399-3.554,33.664c-0.716,11.267-0.963,22.56-0.944,33.849c-0.03,11.286,0.346,22.575,1.182,33.83
							c0.842,11.254,2.133,22.479,4.063,33.594c0.968,5.556,2.098,11.084,3.451,16.555c1.356,5.469,2.929,10.887,4.867,16.169
							c1.948,5.267,4.224,10.45,7.302,15.118c1.549,2.313,3.311,4.509,5.447,6.249c1.067,0.864,2.229,1.611,3.485,2.122
							c1.251,0.513,2.595,0.798,3.942,0.752c1.345-0.035,2.67-0.391,3.901-0.958c1.233-0.57,2.369-1.355,3.413-2.25
							c2.09-1.8,3.814-4.023,5.336-6.358c3.023-4.705,5.268-9.9,7.194-15.175c1.91-5.291,3.466-10.713,4.808-16.186
							c1.339-5.474,2.455-11.005,3.413-16.563c1.918-11.117,3.191-22.344,4.038-33.597
							C2738.677,1592.817,2739.073,1581.527,2739.069,1570.238z"/>
						
							<linearGradient id="SVGID_00000079487265000672930670000011051503263426962109_" gradientUnits="userSpaceOnUse" x1="2666.7698" y1="1570.6346" x2="2744.0273" y2="1570.6346">
							<stop  offset="0" style="stop-color:#DAE3FE"/>
							<stop  offset="1" style="stop-color:#E9EFFD"/>
						</linearGradient>
						<path style="fill:url(#SVGID_00000079487265000672930670000011051503263426962109_);" d="M2705.416,1699.354
							c-1.719,0-3.524-0.358-5.21-1.039c-1.549-0.619-3.041-1.505-4.549-2.707c-2.26-1.811-4.278-4.081-6.365-7.147
							c-2.895-4.322-5.4-9.389-7.891-15.973c-1.881-5.011-3.562-10.443-5.141-16.607c-1.355-5.299-2.548-10.812-3.649-16.849
							c-1.941-10.695-3.374-21.823-4.381-34.031c-0.91-11.092-1.4-22.603-1.458-34.215c-0.03-6.067,0.148-12.059,0.328-17.123
							c0.217-5.757,0.533-11.507,0.946-17.094c0.906-12.273,2.204-23.409,3.97-34.05c1.009-6.064,2.109-11.589,3.363-16.895
							c1.469-6.199,3.044-11.654,4.812-16.669c1.072-3.029,2.143-5.705,3.276-8.178c1.377-3.011,2.778-5.602,4.284-7.924
							c2.038-3.11,4.021-5.402,6.251-7.22c1.488-1.206,3.014-2.119,4.549-2.724c1.767-0.713,3.694-1.049,5.564-0.985
							c1.785,0.052,3.606,0.475,5.383,1.261c1.493,0.661,2.924,1.554,4.377,2.73c2.22,1.812,4.223,4.038,6.313,7.021
							c2.957,4.271,5.547,9.277,8.16,15.767c1.994,4.996,3.781,10.389,5.469,16.494c1.466,5.316,2.753,10.806,3.941,16.789
							c4.147,21.136,6.198,43.456,6.269,68.241v0.013c-0.037,24.94-1.871,47.268-5.609,68.256
							c-1.089,6.034-2.27,11.547-3.614,16.863c-1.56,6.157-3.221,11.589-5.08,16.611c-2.47,6.598-4.935,11.679-7.759,15.998
							c-2.049,3.089-4.015,5.381-6.198,7.234c-1.466,1.232-2.906,2.16-4.414,2.847c-1.846,0.832-3.711,1.267-5.558,1.298
							C2705.669,1699.35,2705.543,1699.354,2705.416,1699.354z M2703.703,1449.016c-0.827,0-1.678,0.175-2.492,0.512
							c-0.875,0.359-1.771,0.916-2.671,1.663c-1.62,1.347-3.114,3.134-4.697,5.611c-1.287,2.032-2.494,4.327-3.683,7.009
							c-1.014,2.283-1.979,4.768-2.947,7.598c-1.623,4.771-3.066,9.99-4.41,15.944c-1.159,5.154-2.167,10.521-3.08,16.411
							c-1.615,10.437-2.767,21.351-3.521,33.36c-0.654,10.266-0.961,21.269-0.938,33.634c-0.03,11.415,0.365,22.71,1.172,33.592
							c0.894,11.944,2.209,22.829,4.023,33.274c1.018,5.84,2.131,11.182,3.404,16.327c1.465,5.908,3.023,11.082,4.76,15.822
							c2.23,6.03,4.441,10.62,6.959,14.438c1.621,2.421,3.142,4.177,4.776,5.509c0.902,0.732,1.794,1.28,2.645,1.625
							c0.907,0.37,1.757,0.503,2.599,0.516c0.856-0.023,1.735-0.245,2.637-0.661c0.862-0.4,1.755-0.994,2.649-1.76
							c1.609-1.387,3.109-3.182,4.721-5.654c2.466-3.836,4.649-8.449,6.859-14.503c1.716-4.755,3.256-9.941,4.702-15.844
							c1.253-5.116,2.354-10.46,3.367-16.336c1.785-10.351,3.094-21.237,4-33.28c0.829-10.857,1.246-22.155,1.24-33.586v-0.006
							c0.021-11.385-0.425-22.672-1.329-33.545c-0.98-11.966-2.404-22.829-4.351-33.215c-1.082-5.786-2.27-11.109-3.633-16.276
							c-1.552-5.855-3.195-11.005-5.025-15.747c-2.329-5.97-4.621-10.544-7.213-14.376c-1.666-2.431-3.22-4.213-4.885-5.6
							c-0.926-0.767-1.852-1.367-2.749-1.775c-0.942-0.426-1.856-0.658-2.705-0.678
							C2703.829,1449.016,2703.765,1449.016,2703.703,1449.016z"/>
					</g>
					<g>
						
							<linearGradient id="SVGID_00000049216172617616586760000011730371279855750308_" gradientUnits="userSpaceOnUse" x1="2605.8547" y1="1570.2866" x2="2797.6616" y2="1570.2866">
							<stop  offset="0" style="stop-color:#DAE3FE"/>
							<stop  offset="1" style="stop-color:#E9EFFD"/>
						</linearGradient>
						<path style="fill:url(#SVGID_00000049216172617616586760000011730371279855750308_);" d="M2797.662,1570.238
							c-0.079,14.587-1.946,29.18-5.835,43.247c-3.959,14.035-9.924,27.536-18.024,39.657c-4.05,6.054-8.64,11.753-13.766,16.924
							c-5.125,5.168-10.793,9.807-16.946,13.694c-6.158,3.873-12.81,6.972-19.772,9.075c-6.959,2.109-14.223,3.208-21.495,3.216
							c-7.271-0.002-14.537-1.095-21.5-3.197c-6.966-2.098-13.623-5.192-19.788-9.061c-6.159-3.883-11.836-8.517-16.968-13.684
							c-5.137-5.168-9.734-10.865-13.794-16.92c-8.116-12.124-14.094-25.63-18.071-39.672c-1.957-7.034-3.412-14.207-4.376-21.443
							c-0.958-7.237-1.44-14.537-1.472-21.838c0.036-7.301,0.523-14.6,1.486-21.836c0.969-7.235,2.428-14.406,4.39-21.436
							c3.986-14.037,9.974-27.535,18.095-39.645c4.061-6.049,8.659-11.74,13.794-16.901c5.134-5.159,10.806-9.79,16.964-13.661
							c6.163-3.858,12.818-6.93,19.773-9.027c6.95-2.106,14.204-3.203,21.465-3.21c7.262,0.014,14.515,1.117,21.461,3.228
							c6.95,2.102,13.601,5.18,19.757,9.043c6.151,3.876,11.816,8.51,16.941,13.671c5.126,5.163,9.716,10.855,13.767,16.905
							c8.106,12.108,14.081,25.602,18.05,39.63C2795.695,1541.059,2797.573,1555.651,2797.662,1570.238z M2795.747,1570.238
							c-0.021-14.422-1.811-28.858-5.602-42.779c-3.81-13.9-9.549-27.318-17.45-39.387c-3.949-6.027-8.432-11.709-13.455-16.873
							c-5.024-5.156-10.573-9.822-16.644-13.7c-6.076-3.856-12.64-6.96-19.52-9.059c-6.878-2.1-14.059-3.204-21.253-3.229
							c-7.193,0.03-14.372,1.141-21.247,3.247c-6.878,2.104-13.435,5.214-19.505,9.073c-6.062,3.883-11.604,8.552-16.621,13.71
							c-5.013,5.168-9.488,10.85-13.427,16.878c-7.884,12.066-13.612,25.479-17.404,39.372c-1.889,6.954-3.258,14.045-4.185,21.189
							c-0.929,7.145-1.387,14.349-1.403,21.557c0.021,7.207,0.483,14.412,1.417,21.555c0.932,7.143,2.305,14.232,4.199,21.183
							c3.802,13.888,9.538,27.292,17.428,39.346c3.941,6.022,8.416,11.697,13.43,16.858c5.016,5.15,10.553,9.816,16.616,13.686
							c6.068,3.849,12.623,6.936,19.49,9.04c6.861,2.109,14.029,3.224,21.212,3.261c7.185-0.03,14.354-1.139,21.219-3.242
							c6.869-2.099,13.429-5.18,19.505-9.027c6.067-3.866,11.614-8.527,16.638-13.674c5.022-5.159,9.507-10.833,13.456-16.854
							c7.906-12.057,13.655-25.466,17.476-39.36C2793.917,1599.094,2795.717,1584.659,2795.747,1570.238z"/>
						
							<linearGradient id="SVGID_00000021827120354914862100000018367974672371763887_" gradientUnits="userSpaceOnUse" x1="2602.5654" y1="1570.2878" x2="2800.9497" y2="1570.2878">
							<stop  offset="0" style="stop-color:#DAE3FE"/>
							<stop  offset="1" style="stop-color:#E9EFFD"/>
						</linearGradient>
						<path style="fill:url(#SVGID_00000021827120354914862100000018367974672371763887_);" d="M2701.828,1699.354
							c-7.562,0-15.116-1.122-22.451-3.337c-7.095-2.134-14.022-5.305-20.585-9.425c-6.204-3.91-12.109-8.668-17.553-14.151
							c-5.135-5.168-9.912-11.026-14.194-17.408c-8.058-12.036-14.283-25.701-18.506-40.612c-1.979-7.115-3.482-14.481-4.471-21.908
							c-0.964-7.27-1.469-14.758-1.503-22.259c0.04-7.543,0.549-15.031,1.517-22.29c0.993-7.43,2.502-14.793,4.481-21.888
							c4.238-14.918,10.472-28.574,18.535-40.598c4.274-6.37,9.05-12.219,14.196-17.391c5.455-5.484,11.356-10.235,17.546-14.125
							c6.521-4.085,13.441-7.241,20.572-9.391c7.315-2.215,14.856-3.343,22.407-3.348c7.569,0.012,15.107,1.147,22.417,3.369
							c7.118,2.153,14.031,5.315,20.547,9.402c6.186,3.9,12.081,8.655,17.526,14.138c5.136,5.175,9.903,11.025,14.167,17.395
							c8.053,12.03,14.272,25.679,18.484,40.572c3.884,14.003,5.897,28.84,5.99,44.121v0.039
							c-0.082,15.276-2.085,30.118-5.957,44.111c-4.203,14.911-10.413,28.57-18.461,40.613c-4.269,6.384-9.036,12.243-14.167,17.414
							c-5.437,5.483-11.334,10.248-17.525,14.161c-6.56,4.122-13.481,7.298-20.576,9.441
							C2716.945,1698.213,2709.396,1699.343,2701.828,1699.354z M2701.813,1448.513c-6.816,0.029-13.646,1.07-20.277,3.1
							c-6.409,1.964-12.703,4.894-18.705,8.707c-5.56,3.56-10.956,8.011-16.028,13.227c-4.724,4.868-9.109,10.384-13.032,16.385
							c-7.396,11.318-13.108,24.248-16.981,38.432c-1.78,6.557-3.159,13.538-4.096,20.744c-0.897,6.905-1.36,14.015-1.376,21.137
							c0.022,7.118,0.489,14.228,1.391,21.121c0.937,7.192,2.32,14.171,4.109,20.739c3.883,14.174,9.604,27.094,17.007,38.403
							c3.92,5.995,8.305,11.501,13.034,16.365c5.078,5.213,10.468,9.658,16.025,13.207c5.958,3.778,12.248,6.694,18.684,8.669
							c6.619,2.033,13.437,3.084,20.271,3.117c6.806-0.029,13.626-1.071,20.242-3.099c6.449-1.973,12.746-4.886,18.712-8.661
							c5.553-3.537,10.953-7.978,16.043-13.194c4.732-4.861,9.128-10.367,13.061-16.36c7.411-11.304,13.148-24.231,17.051-38.421
							c3.625-13.277,5.48-27.375,5.51-41.897c-0.023-14.515-1.867-28.615-5.484-41.906c-3.89-14.19-9.621-27.126-17.027-38.443
							c-3.929-5.997-8.324-11.509-13.061-16.38c-5.07-5.202-10.472-9.651-16.058-13.22c-5.994-3.804-12.293-6.727-18.709-8.684
							C2715.484,1449.573,2708.653,1448.535,2701.813,1448.513z"/>
					</g>
					<g>
						
							<linearGradient id="SVGID_00000039829640512347581520000006000893106078396075_" gradientUnits="userSpaceOnUse" x1="2589.8633" y1="1520.5791" x2="2820.323" y2="1520.5791">
							<stop  offset="0" style="stop-color:#DAE3FE"/>
							<stop  offset="1" style="stop-color:#E9EFFD"/>
						</linearGradient>
						<path style="fill:url(#SVGID_00000039829640512347581520000006000893106078396075_);" d="M2589.988,1520.452l28.782-0.233
							l28.782-0.132l57.561-0.107l57.563,0.117l28.782,0.144l28.781,0.252c0.047,0,0.084,0.038,0.084,0.085
							c0,0-0.038,0.083-0.084,0.084l-28.781,0.252l-28.782,0.144l-57.563,0.117l-57.561-0.107l-28.782-0.132l-28.782-0.234
							c-0.069-0.001-0.124-0.058-0.124-0.058C2589.863,1520.509,2589.92,1520.453,2589.988,1520.452z"/>
						
							<linearGradient id="SVGID_00000180350660932643680450000012673244001949350029_" gradientUnits="userSpaceOnUse" x1="2586.5769" y1="1520.5787" x2="2823.6118" y2="1520.5787">
							<stop  offset="0" style="stop-color:#DAE3FE"/>
							<stop  offset="1" style="stop-color:#E9EFFD"/>
						</linearGradient>
						<polygon style="fill:url(#SVGID_00000180350660932643680450000012673244001949350029_);" points="2705.121,1524.479 
							2618.754,1524.241 2588.593,1523.991 2586.578,1521.977 2586.577,1520.501 2586.652,1517.278 2589.962,1517.151 
							2647.533,1516.784 2705.108,1516.678 2791.474,1516.942 2823.528,1517.223 2823.612,1523.879 2820.239,1523.963 
							2762.693,1524.359 						"/>
					</g>
					<g>
						
							<linearGradient id="SVGID_00000096046001692764160290000016249051618298144160_" gradientUnits="userSpaceOnUse" x1="2623.2537" y1="1472.1859" x2="2786.9316" y2="1472.1859">
							<stop  offset="0" style="stop-color:#DAE3FE"/>
							<stop  offset="1" style="stop-color:#E9EFFD"/>
						</linearGradient>
						<path style="fill:url(#SVGID_00000096046001692764160290000016249051618298144160_);" d="M2623.377,1472.06
							c6.812-0.109,13.622-0.155,20.433-0.234l20.434-0.132c6.812-0.057,13.624-0.051,20.435-0.068l20.432-0.039l40.868,0.117
							l20.434,0.145c6.812,0.085,13.623,0.136,20.434,0.252c0.047,0.001,0.083,0.04,0.083,0.04c0,0.092-0.037,0.129-0.083,0.129
							c-6.811,0.117-13.622,0.166-20.434,0.253l-20.434,0.145l-40.868,0.117l-20.432-0.039c-6.812-0.016-13.624-0.011-20.435-0.068
							l-20.434-0.132c-6.811-0.078-13.622-0.125-20.433-0.234c-0.069-0.001-0.124-0.058-0.124-0.128
							C2623.255,1472.116,2623.31,1472.061,2623.377,1472.06z"/>
						
							<linearGradient id="SVGID_00000052816832420517778550000015878746369922221478_" gradientUnits="userSpaceOnUse" x1="2619.9644" y1="1472.1862" x2="2790.2539" y2="1472.1862">
							<stop  offset="0" style="stop-color:#DAE3FE"/>
							<stop  offset="1" style="stop-color:#E9EFFD"/>
						</linearGradient>
						<path style="fill:url(#SVGID_00000052816832420517778550000015878746369922221478_);" d="M2705.124,1476.086l-25.747-0.051
							c-5.053-0.006-10.105-0.016-15.158-0.058l-27.248-0.203c-4.548-0.045-9.097-0.086-13.645-0.161l-3.236-0.051l-0.126-6.679
							l3.362-0.123c4.402-0.07,8.804-0.112,13.205-0.158l27.694-0.208c4.793-0.039,9.595-0.049,14.394-0.055l26.489-0.052
							l68.771,0.345c4.342,0.048,8.684,0.093,13.026,0.168l3.349,0.057l-0.15,6.631l-3.256,0.084
							c-4.492,0.078-9.041,0.126-13.59,0.174l-27.256,0.223L2705.124,1476.086z"/>
					</g>
					<g>
						
							<linearGradient id="SVGID_00000134957143569070321500000005529375803090400688_" gradientUnits="userSpaceOnUse" x1="2579.8611" y1="1568.9712" x2="2830.3242" y2="1568.9712">
							<stop  offset="0" style="stop-color:#DAE3FE"/>
							<stop  offset="1" style="stop-color:#E9EFFD"/>
						</linearGradient>
						<path style="fill:url(#SVGID_00000134957143569070321500000005529375803090400688_);" d="M2579.986,1568.845l31.282-0.233
							l31.281-0.133l62.563-0.107l62.565,0.118l31.282,0.145l31.281,0.251c0.046,0,0.085,0.038,0.083,0.085
							c0,0-0.038,0.083-0.083,0.085l-31.281,0.252l-31.282,0.144l-62.565,0.117l-62.563-0.105l-31.281-0.134l-31.282-0.232
							c-0.069-0.001-0.125-0.058-0.125-0.128C2579.861,1568.902,2579.917,1568.846,2579.986,1568.845z"/>
						
							<linearGradient id="SVGID_00000049928128417280783700000018249236113010272429_" gradientUnits="userSpaceOnUse" x1="2576.573" y1="1568.9725" x2="2833.6326" y2="1568.9725">
							<stop  offset="0" style="stop-color:#DAE3FE"/>
							<stop  offset="1" style="stop-color:#E9EFFD"/>
						</linearGradient>
						<polygon style="fill:url(#SVGID_00000049928128417280783700000018249236113010272429_);" points="2705.121,1572.871 
							2611.254,1572.632 2576.699,1572.375 2576.573,1565.67 2579.962,1565.544 2642.536,1565.179 2705.11,1565.074 
							2798.973,1565.335 2831.646,1565.595 2833.633,1567.623 2833.504,1572.275 2830.24,1572.358 2767.691,1572.755 						"/>
					</g>
					<g>
						
							<linearGradient id="SVGID_00000142898617677200284280000014773757915282058406_" gradientUnits="userSpaceOnUse" x1="2589.8633" y1="1617.3647" x2="2820.323" y2="1617.3647">
							<stop  offset="0" style="stop-color:#DAE3FE"/>
							<stop  offset="1" style="stop-color:#E9EFFD"/>
						</linearGradient>
						<path style="fill:url(#SVGID_00000142898617677200284280000014773757915282058406_);" d="M2589.988,1617.239l28.782-0.234
							l28.782-0.132l57.561-0.107l57.563,0.118l28.782,0.145l28.781,0.251c0.047,0,0.084,0.038,0.084,0.038
							c-0.001,0.094-0.038,0.131-0.084,0.131l-28.781,0.252l-28.782,0.145l-57.563,0.118l-57.561-0.107l-28.782-0.132l-28.782-0.234
							c-0.069,0-0.124-0.058-0.124-0.127C2589.863,1617.294,2589.92,1617.239,2589.988,1617.239z"/>
						
							<linearGradient id="SVGID_00000112617070799796238660000013243708437605003199_" gradientUnits="userSpaceOnUse" x1="2586.5769" y1="1617.3638" x2="2823.6118" y2="1617.3638">
							<stop  offset="0" style="stop-color:#DAE3FE"/>
							<stop  offset="1" style="stop-color:#E9EFFD"/>
						</linearGradient>
						<polygon style="fill:url(#SVGID_00000112617070799796238660000013243708437605003199_);" points="2705.121,1621.262 
							2618.754,1621.024 2588.593,1620.783 2586.58,1618.767 2586.577,1617.289 2586.649,1614.062 2589.96,1613.939 
							2647.535,1613.572 2705.108,1613.466 2791.474,1613.726 2823.528,1614.007 2823.612,1620.666 2820.239,1620.751 
							2762.693,1621.146 						"/>
					</g>
					<g>
						
							<linearGradient id="SVGID_00000145041229434831699630000002372125293325238153_" gradientUnits="userSpaceOnUse" x1="2627.0542" y1="1665.7578" x2="2791.408" y2="1665.7578">
							<stop  offset="0" style="stop-color:#DAE3FE"/>
							<stop  offset="1" style="stop-color:#E9EFFD"/>
						</linearGradient>
						<path style="fill:url(#SVGID_00000145041229434831699630000002372125293325238153_);" d="M2790.967,1666.201h-163.471
							c-0.244,0-0.442-0.199-0.442-0.443c0-0.244,0.198-0.443,0.442-0.443h163.471c0.244,0,0.441,0.199,0.441,0.443
							C2791.408,1666.002,2791.211,1666.201,2790.967,1666.201z"/>
						
							<linearGradient id="SVGID_00000047748345762670471880000003432725528033398459_" gradientUnits="userSpaceOnUse" x1="2623.7668" y1="1665.7576" x2="2794.696" y2="1665.7576">
							<stop  offset="0" style="stop-color:#DAE3FE"/>
							<stop  offset="1" style="stop-color:#E9EFFD"/>
						</linearGradient>
						<path style="fill:url(#SVGID_00000047748345762670471880000003432725528033398459_);" d="M2790.966,1669.5h-163.469
							c-2.057,0-3.73-1.679-3.73-3.742c0-2.063,1.673-3.743,3.73-3.743h163.469c2.058,0,3.73,1.68,3.73,3.743
							C2794.696,1667.821,2793.024,1669.5,2790.966,1669.5z"/>
					</g>
				</g>
			</g>
		</g>
		<g>
			
				<linearGradient id="SVGID_00000161612428264161496680000006324526044258119069_" gradientUnits="userSpaceOnUse" x1="2320.0562" y1="688.2951" x2="2098.1809" y2="1468.2225">
				<stop  offset="0" style="stop-color:#4F52FF"/>
				<stop  offset="1" style="stop-color:#4042E2"/>
			</linearGradient>
			<circle style="fill:url(#SVGID_00000161612428264161496680000006324526044258119069_);" cx="2250.43" cy="933.041" r="221.904"/>
			<g>
				<g>
					<g>
						
							<linearGradient id="SVGID_00000000921036740780974370000017681355750156921008_" gradientUnits="userSpaceOnUse" x1="2090.6555" y1="929.2584" x2="2310.3064" y2="929.2584">
							<stop  offset="0" style="stop-color:#DAE3FE"/>
							<stop  offset="1" style="stop-color:#E9EFFD"/>
						</linearGradient>
						<path style="fill:url(#SVGID_00000000921036740780974370000017681355750156921008_);" d="M2298.181,998.731h-129.237
							c-3.519,0-6.574-2.42-7.379-5.845c-0.241-1.024-0.59-1.996-1.035-2.886c-0.052-0.104-0.102-0.209-0.149-0.316
							c-0.529-1.19-1.121-2.247-1.864-3.327c-4.402-6.495-11.636-10.348-19.383-10.348c-7.731,0-15.013,3.87-19.478,10.352
							c-0.74,1.078-1.332,2.134-1.858,3.319c-0.048,0.108-0.098,0.215-0.151,0.319c-0.447,0.892-0.795,1.863-1.034,2.882
							c-0.803,3.426-3.861,5.848-7.38,5.848h-6.453c-6.686,0-12.125-5.439-12.125-12.124V871.91c0-6.686,5.439-12.124,12.125-12.124
							h195.401c6.686,0,12.125,5.439,12.125,12.124v114.697C2310.306,993.293,2304.867,998.731,2298.181,998.731z M2174.263,983.57
							h120.883V874.947h-189.329v104.936c0.422-0.714,0.871-1.417,1.351-2.115c7.298-10.595,19.247-16.918,31.967-16.918
							c12.781,0,24.708,6.341,31.905,16.961c1.205,1.753,2.239,3.589,3.127,5.564
							C2174.199,983.439,2174.231,983.505,2174.263,983.57z"/>
					</g>
				</g>
				<g>
					<g>
						
							<linearGradient id="SVGID_00000183959554814857326380000007030990230446755721_" gradientUnits="userSpaceOnUse" x1="2314.2583" y1="941.7361" x2="2405.8445" y2="941.7361">
							<stop  offset="0" style="stop-color:#DAE3FE"/>
							<stop  offset="1" style="stop-color:#E9EFFD"/>
						</linearGradient>
						<path style="fill:url(#SVGID_00000183959554814857326380000007030990230446755721_);" d="M2393.456,998.731h-5.544
							c-3.518,0-6.575-2.42-7.379-5.846c-0.24-1.022-0.59-1.994-1.038-2.891c-0.052-0.103-0.1-0.207-0.146-0.311
							c-0.529-1.19-1.12-2.247-1.862-3.324c-4.463-6.48-11.744-10.349-19.475-10.349s-15.012,3.87-19.477,10.351
							c-0.74,1.076-1.332,2.132-1.861,3.322c-0.047,0.106-0.097,0.21-0.148,0.314c-0.448,0.895-0.796,1.865-1.035,2.884
							c-0.803,3.426-3.86,5.849-7.38,5.849h-1.727c-6.686,0-12.125-5.44-12.125-12.125v-89.704c0-6.686,5.44-12.124,12.125-12.124
							h19.548c4.893-0.215,27.493-0.106,44.541,18.127c16.813,17.981,15.682,40.168,15.109,45.589v38.113
							C2405.581,993.292,2400.141,998.731,2393.456,998.731z M2358.011,960.849c12.72,0,24.669,6.322,31.963,16.913
							c0.152,0.22,0.301,0.441,0.446,0.663V948.07c0-0.302,0.018-0.605,0.054-0.905c0.392-3.264,1.703-20.238-11.076-33.904
							c-12.725-13.609-29.645-13.49-32.919-13.33c-0.124,0.006-0.249,0.009-0.374,0.009h-16.686v73.582
							C2336.746,965.505,2347.094,960.849,2358.011,960.849z"/>
					</g>
				</g>
				<g>
					<g>
						
							<linearGradient id="SVGID_00000103233106847629863650000012337131494313506745_" gradientUnits="userSpaceOnUse" x1="2118.6484" y1="1008.5938" x2="2159.5293" y2="1008.5938">
							<stop  offset="0" style="stop-color:#DAE3FE"/>
							<stop  offset="1" style="stop-color:#E9EFFD"/>
						</linearGradient>
						<path style="fill:url(#SVGID_00000103233106847629863650000012337131494313506745_);" d="M2139.135,1029.079
							c-11.296,0-20.486-9.189-20.486-20.485c0-4.851,1.761-9.549,4.963-13.246c3.775-4.603,9.424-7.239,15.523-7.239
							c6.042,0,11.657,2.636,15.431,7.239c3.202,3.698,4.963,8.395,4.963,13.246
							C2159.529,1019.89,2150.381,1029.079,2139.135,1029.079z M2139.135,1003.27c-1.594,0-2.916,0.596-3.824,1.721
							c-0.067,0.085-0.137,0.168-0.209,0.249c-0.589,0.67-1.291,1.795-1.291,3.353c0,2.936,2.389,5.324,5.325,5.324
							c2.886,0,5.234-2.389,5.234-5.324c0-1.558-0.702-2.684-1.291-3.353c-0.072-0.082-0.142-0.164-0.209-0.249
							C2141.972,1003.882,2140.646,1003.27,2139.135,1003.27z"/>
					</g>
				</g>
				<g>
					<g>
						
							<linearGradient id="SVGID_00000138532280240358952450000007032023809247679666_" gradientUnits="userSpaceOnUse" x1="2337.5249" y1="1008.5938" x2="2378.4971" y2="1008.5938">
							<stop  offset="0" style="stop-color:#DAE3FE"/>
							<stop  offset="1" style="stop-color:#E9EFFD"/>
						</linearGradient>
						<path style="fill:url(#SVGID_00000138532280240358952450000007032023809247679666_);" d="M2358.011,1029.079
							c-11.296,0-20.486-9.189-20.486-20.485c0-4.852,1.761-9.55,4.965-13.247c3.775-4.602,9.423-7.238,15.521-7.238
							c6.1,0,11.747,2.636,15.522,7.238c3.203,3.698,4.964,8.396,4.964,13.247
							C2378.497,1019.89,2369.307,1029.079,2358.011,1029.079z M2358.011,1003.27c-1.548,0-2.941,0.628-3.823,1.721
							c-0.068,0.085-0.138,0.169-0.21,0.25c-0.589,0.67-1.292,1.794-1.292,3.353c0,2.886,2.439,5.324,5.325,5.324
							s5.325-2.438,5.325-5.324c0-1.558-0.703-2.683-1.292-3.353c-0.072-0.082-0.143-0.166-0.211-0.251
							C2360.952,1003.897,2359.559,1003.27,2358.011,1003.27z"/>
					</g>
				</g>
			</g>
		</g>
		<g>
			
				<linearGradient id="SVGID_00000134955959593166849990000013193368438808414866_" gradientUnits="userSpaceOnUse" x1="1385.1754" y1="1134.2921" x2="1501.1494" y2="660.3094">
				<stop  offset="0" style="stop-color:#4F52FF"/>
				<stop  offset="1" style="stop-color:#4042E2"/>
			</linearGradient>
			
				<circle style="fill:url(#SVGID_00000134955959593166849990000013193368438808414866_);" cx="1446.213" cy="884.834" r="220.951"/>
			<g>
				
					<linearGradient id="SVGID_00000098219838835395255310000004881964828700295071_" gradientUnits="userSpaceOnUse" x1="1425.7087" y1="805.5101" x2="1516.998" y2="805.5101">
					<stop  offset="0" style="stop-color:#DAE3FE"/>
					<stop  offset="1" style="stop-color:#E9EFFD"/>
				</linearGradient>
				<path style="fill:url(#SVGID_00000098219838835395255310000004881964828700295071_);" d="M1435.509,837.725h71.689
					c5.404,0,9.8-4.396,9.8-9.8v-44.829c0-5.404-4.396-9.8-9.8-9.8h-71.689c-5.404,0-9.8,4.396-9.8,9.8v44.829
					C1425.709,833.329,1430.104,837.725,1435.509,837.725z M1440.365,823.068v-35.116h61.977v35.116H1440.365z"/>
				
					<linearGradient id="SVGID_00000031182174606119562470000000426600543647546284_" gradientUnits="userSpaceOnUse" x1="1280.6714" y1="914.3903" x2="1624.7545" y2="914.3903">
					<stop  offset="0" style="stop-color:#DAE3FE"/>
					<stop  offset="1" style="stop-color:#E9EFFD"/>
				</linearGradient>
				<path style="fill:url(#SVGID_00000031182174606119562470000000426600543647546284_);" d="M1622.695,871.13
					c-2.852-5.089-8.227-8.236-14-8.236c-0.037,0-0.076,0-0.112,0.001h-39.245v-9.941c0-5.404-4.396-9.8-9.8-9.8h-71.688
					c-5.404,0-9.801,4.396-9.801,9.8v41.537l-5.841,0.042v-41.579c0-5.404-4.396-9.801-9.8-9.801h-71.688
					c-5.404,0-9.801,4.397-9.801,9.801v42.252l-85.005,0.666c-5.666,0.044-10.826,3.189-13.466,8.208
					c-2.653,5.042-2.318,11.108,0.907,15.878l34.761,50.584c6.507,9.447,17.228,15.087,28.679,15.087h199.196
					c10.134,0,19.404-5.127,24.844-13.792l51.487-84.296C1625.426,882.547,1625.569,876.258,1622.695,871.13z M1492.704,894.377
					V857.81h61.977v5.085h-19.321c-8.921,0-17.277,4.402-22.348,11.769l-13.559,19.657L1492.704,894.377z M1395.574,857.809h61.977
					v36.831l-60.583,0.44l-1.394,0.011V857.809z M1609.844,879.851l-51.47,84.268c-2.694,4.29-7.323,6.852-12.383,6.852h-199.196
					c-6.628,0-12.838-3.269-16.604-8.738l-34.725-50.531c-0.078-0.117-0.262-0.389-0.046-0.8c0.196-0.372,0.464-0.375,0.609-0.376
					l101.051-0.791l76.642-0.544l11.717-0.099h0l17.946-0.148c2.387-0.02,4.616-1.201,5.972-3.167l15.726-22.799
					c2.339-3.399,6.182-5.428,10.278-5.428l73.274-0.001h0.014c0.561,0,0.985,0.25,1.261,0.743
					C1610.193,878.801,1610.181,879.307,1609.844,879.851z"/>
			</g>
		</g>
		<g>
			
				<linearGradient id="SVGID_00000181060664658780347870000007175281019483423881_" gradientUnits="userSpaceOnUse" x1="1001.5042" y1="1343.8895" x2="846.8637" y2="2056.5823">
				<stop  offset="0" style="stop-color:#4F52FF"/>
				<stop  offset="1" style="stop-color:#4042E2"/>
			</linearGradient>
			
				<circle style="fill:url(#SVGID_00000181060664658780347870000007175281019483423881_);" cx="962.102" cy="1525.485" r="214.288"/>
			<g>
				<g>
					
						<linearGradient id="SVGID_00000023249951917678743580000016139931388860922757_" gradientUnits="userSpaceOnUse" x1="909.0666" y1="1511.3105" x2="1087.0573" y2="1511.3105">
						<stop  offset="0" style="stop-color:#DAE3FE"/>
						<stop  offset="1" style="stop-color:#E9EFFD"/>
					</linearGradient>
					<path style="fill:url(#SVGID_00000023249951917678743580000016139931388860922757_);" d="M1079.251,1519.117H916.873
						c-4.312,0-7.806-3.495-7.806-7.806c0-4.312,3.495-7.807,7.806-7.807h162.378c4.312,0,7.807,3.495,7.807,7.807
						C1087.057,1515.622,1083.563,1519.117,1079.251,1519.117z"/>
					<g>
						
							<linearGradient id="SVGID_00000097498562483777512770000017440965400048777406_" gradientUnits="userSpaceOnUse" x1="959.9273" y1="1541.688" x2="975.5408" y2="1541.688">
							<stop  offset="0" style="stop-color:#DAE3FE"/>
							<stop  offset="1" style="stop-color:#E9EFFD"/>
						</linearGradient>
						<path style="fill:url(#SVGID_00000097498562483777512770000017440965400048777406_);" d="M967.734,1623.907
							c-4.312,0-7.807-5.75-7.807-12.846v-138.744c0-7.096,3.495-12.847,7.807-12.847s7.807,5.751,7.807,12.847v138.744
							C975.541,1618.156,972.046,1623.907,967.734,1623.907z"/>
						
							<linearGradient id="SVGID_00000121238283044495103110000002349707840267990935_" gradientUnits="userSpaceOnUse" x1="1019.2575" y1="1541.688" x2="1034.871" y2="1541.688">
							<stop  offset="0" style="stop-color:#DAE3FE"/>
							<stop  offset="1" style="stop-color:#E9EFFD"/>
						</linearGradient>
						<path style="fill:url(#SVGID_00000121238283044495103110000002349707840267990935_);" d="M1027.064,1623.907
							c-4.312,0-7.807-5.75-7.807-12.846v-138.744c0-7.096,3.495-12.847,7.807-12.847s7.807,5.751,7.807,12.847v138.744
							C1034.871,1618.156,1031.376,1623.907,1027.064,1623.907z"/>
					</g>
					
						<linearGradient id="SVGID_00000160898905065488870100000016566353102143392178_" gradientUnits="userSpaceOnUse" x1="909.0666" y1="1565.9568" x2="1082.9773" y2="1565.9568">
						<stop  offset="0" style="stop-color:#DAE3FE"/>
						<stop  offset="1" style="stop-color:#E9EFFD"/>
					</linearGradient>
					<path style="fill:url(#SVGID_00000160898905065488870100000016566353102143392178_);" d="M1074.282,1573.763h-156.52
						c-4.802,0-8.695-3.495-8.695-7.807c0-4.312,3.893-7.806,8.695-7.806h156.52c4.803,0,8.696,3.495,8.696,7.806
						C1082.977,1570.269,1079.085,1573.763,1074.282,1573.763z"/>
					
						<linearGradient id="SVGID_00000124152072737135905710000012435423344697770158_" gradientUnits="userSpaceOnUse" x1="901.7359" y1="1541.3342" x2="1093.0635" y2="1541.3342">
						<stop  offset="0" style="stop-color:#DAE3FE"/>
						<stop  offset="1" style="stop-color:#E9EFFD"/>
					</linearGradient>
					<path style="fill:url(#SVGID_00000124152072737135905710000012435423344697770158_);" d="M1082.978,1628.687H911.821
						c-5.571,0-10.085-4.516-10.085-10.085v-154.536c0-5.57,4.514-10.085,10.085-10.085h171.157c5.571,0,10.085,4.516,10.085,10.085
						v154.536C1093.063,1624.172,1088.549,1628.687,1082.978,1628.687z M921.906,1608.517h150.987v-134.365H921.906V1608.517z"/>
				</g>
				
					<linearGradient id="SVGID_00000160892979497485211980000017557608074744919721_" gradientUnits="userSpaceOnUse" x1="828.5353" y1="1515.4834" x2="921.9054" y2="1515.4834">
					<stop  offset="0" style="stop-color:#DAE3FE"/>
					<stop  offset="1" style="stop-color:#E9EFFD"/>
				</linearGradient>
				<path style="fill:url(#SVGID_00000160892979497485211980000017557608074744919721_);" d="M911.821,1628.687h-73.2
					c-2.843,0-5.551-1.2-7.465-3.303c-1.911-2.104-2.846-4.918-2.574-7.746l19.803-206.237c0.496-5.174,4.842-9.122,10.039-9.122
					h35.361c5.23,0,9.593,3.997,10.046,9.207l18.037,206.237c0.246,2.817-0.699,5.607-2.61,7.692S914.648,1628.687,911.821,1628.687
					z M849.721,1608.517h51.096l-16.274-186.067h-16.957L849.721,1608.517z"/>
			</g>
		</g>
		<g>
			<g>
				
					<linearGradient id="SVGID_00000011003105659312723480000007417227531629104797_" gradientUnits="userSpaceOnUse" x1="2902.2512" y1="2585.2515" x2="2754.334" y2="3284.4944">
					<stop  offset="0" style="stop-color:#FF928E"/>
					<stop  offset="1" style="stop-color:#FE7062"/>
				</linearGradient>
				<path style="fill:url(#SVGID_00000011003105659312723480000007417227531629104797_);" d="M2384.147,3170.073v-372.65
					c0-48.961,39.347-88.799,88.305-89.332c146.934-1.6,449.979-1.68,697.935,19.215c33.836,2.851,60.155,30.583,61.382,64.517
					l23.174,360.277c1.722,47.654-35.954,87.467-83.631,88.373l-701.822,13.337
					C2422.621,3254.701,2384.147,3216.95,2384.147,3170.073z"/>
				<path style="opacity:0.37;fill:#FFFFFF;" d="M2785.26,3025.392l100.871,10.881c14.115,1.524,26.159-10.117,25.118-24.276
					l-22.052-300.061c-42.285-1.341-83.993-2.319-124.239-3.006v293.849C2764.958,3014.397,2773.711,3024.146,2785.26,3025.392z"/>
				<path style="fill:#FFFFFF;" d="M2826.603,2973.385c0.311,5.397,4.783,9.559,10.12,9.559c0.199,0,0.397-0.007,0.595-0.02
					c5.595-0.324,9.869-5.12,9.539-10.714l-15.209-261.883c-6.821-0.168-13.585-0.321-20.349-0.471L2826.603,2973.385z"/>
			</g>
			<g>
				
					<linearGradient id="SVGID_00000094615194314571573070000010030649639792872366_" gradientUnits="userSpaceOnUse" x1="2815.9104" y1="2125.1299" x2="2802.4629" y2="2797.4814">
					<stop  offset="0" style="stop-color:#FF928E"/>
					<stop  offset="1" style="stop-color:#FE7062"/>
				</linearGradient>
				<path style="fill:url(#SVGID_00000094615194314571573070000010030649639792872366_);" d="M2501.949,2669.788v-261.703
					c0-34.384,27.632-62.361,62.014-62.736c103.189-1.124,316.01-1.18,490.144,13.494c23.762,2.002,42.245,21.479,43.106,45.309
					l16.275,253.014c1.21,33.466-25.249,61.426-58.731,62.062l-492.873,9.366C2528.969,2729.22,2501.949,2702.709,2501.949,2669.788
					z"/>
				<path style="opacity:0.37;fill:#FFFFFF;" d="M2783.641,2568.182l70.84,7.642c9.912,1.071,18.37-7.105,17.64-17.048
					l-15.486-210.725c-29.696-0.942-58.987-1.628-87.25-2.111v206.363C2769.384,2560.461,2775.531,2567.307,2783.641,2568.182z"/>
				<path style="fill:#FFFFFF;" d="M2812.675,2531.659c0.218,3.791,3.359,6.713,7.107,6.713c0.14,0,0.279-0.005,0.418-0.014
					c3.929-0.227,6.93-3.595,6.698-7.524l-10.682-183.914c-4.789-0.118-9.54-0.225-14.29-0.331L2812.675,2531.659z"/>
			</g>
		</g>
		<g>
			<g>
				<g>
					
						<linearGradient id="SVGID_00000073692762873436006300000002382194659299718545_" gradientUnits="userSpaceOnUse" x1="1937.9604" y1="1346.8849" x2="1463.9065" y2="3525.5134">
						<stop  offset="0" style="stop-color:#4F52FF"/>
						<stop  offset="1" style="stop-color:#4042E2"/>
					</linearGradient>
					<path style="fill:url(#SVGID_00000073692762873436006300000002382194659299718545_);" d="M2370.07,2114.005l-37.635-44.958
						c-10.177-12.159-13.581-28.509-9.455-43.818c10.376-38.52,16.142-77.696,17.496-116.778c0.55-15.871,8.6-30.525,21.922-39.17
						l49.232-31.952c20.749-13.467,30.672-38.614,24.705-62.619l-17.812-71.67c-5.969-24.008-26.51-41.586-51.151-43.77
						l-58.458-5.184c-15.817-1.402-29.792-10.582-37.708-24.349c-19.494-33.902-42.931-65.822-70.134-95
						c-10.811-11.597-15.459-27.639-12.158-43.147l12.208-57.349c5.152-24.194-5.615-48.991-26.809-61.747l-63.276-38.083
						c-21.194-12.756-48.147-10.661-67.116,5.216l-44.958,37.635c-12.157,10.178-28.509,13.581-43.818,9.457
						c-38.519-10.378-77.697-16.142-116.78-17.496c-15.872-0.55-30.525-8.6-39.169-21.921l-31.951-49.23
						c-13.466-20.751-38.617-30.672-62.624-24.706l-71.667,17.813c-24.006,5.966-41.584,26.507-43.77,51.147l-5.184,58.46
						c-1.402,15.818-10.583,29.792-24.348,37.709c-33.902,19.493-65.823,42.929-95.001,70.133
						c-11.598,10.812-27.64,15.459-43.148,12.158l-57.348-12.208c-24.192-5.149-48.989,5.617-61.745,26.811l-38.084,63.277
						c-12.755,21.194-10.663,48.146,5.216,67.114l37.634,44.959c10.177,12.158,13.582,28.508,9.456,43.816
						c-10.377,38.52-16.142,77.697-17.496,116.78c-0.549,15.87-8.599,30.524-21.921,39.168l-49.231,31.951
						c-20.75,13.468-30.671,38.617-24.704,62.624l17.813,71.668c5.966,24.008,26.507,41.585,51.148,43.77l58.459,5.184
						c15.82,1.403,29.792,10.582,37.71,24.35c19.492,33.901,42.928,65.822,70.131,95c10.811,11.597,15.46,27.638,12.159,43.146
						l-12.206,57.346c-5.149,24.195,5.617,48.994,26.811,61.75l63.273,38.083c21.193,12.756,48.147,10.661,67.116-5.217
						l44.958-37.634c12.16-10.176,28.509-13.581,43.818-9.457c38.52,10.376,77.697,16.142,116.781,17.496
						c15.872,0.551,30.525,8.601,39.169,21.921l31.95,49.232c13.466,20.75,38.617,30.672,62.624,24.705l71.667-17.814
						c24.006-5.966,41.584-26.508,43.77-51.147l5.184-58.46c1.403-15.819,10.581-29.793,24.348-37.708
						c33.902-19.493,65.823-42.929,95.001-70.134c11.598-10.812,27.639-15.459,43.147-12.157l57.345,12.207
						c24.195,5.15,48.995-5.616,61.751-26.811l38.082-63.272C2388.042,2159.928,2385.948,2132.974,2370.07,2114.005z
						 M1636.428,2278.563c-214.656-101.276-306.57-357.391-205.294-572.048c101.277-214.656,357.392-306.569,572.048-205.294
						c214.659,101.277,306.57,357.391,205.293,572.048C2107.199,2287.927,1851.087,2379.84,1636.428,2278.563z"/>
				</g>
				<g>
					
						<linearGradient id="SVGID_00000002343915776395006830000017938280014073682602_" gradientUnits="userSpaceOnUse" x1="2092.2598" y1="1560.7528" x2="1789.7021" y2="2175.9539">
						<stop  offset="0" style="stop-color:#FF928E"/>
						<stop  offset="1" style="stop-color:#FE7062"/>
					</linearGradient>
					<path style="fill:url(#SVGID_00000002343915776395006830000017938280014073682602_);" d="M1563.652,1770.522
						c0,0,184.385-46.255,379.204-18.361c54.813,7.848,103.364,39.74,132.944,86.55c53.298,84.343,128.65,234.644,112.711,391.399
						l-83.653,20.685c0,0-57.813-186.024-122.882-261.734c0,0-77.061,175.654-73.165,272.111c0.11,2.726,0.285,5.389,0.528,7.984
						c8.843,94.371-369.918,17.61-369.918,17.61L1563.652,1770.522z"/>
					
						<linearGradient id="SVGID_00000099648670364512158450000017044614408016133804_" gradientUnits="userSpaceOnUse" x1="1653.5732" y1="1577.3896" x2="1649.7476" y2="1317.2365" gradientTransform="matrix(0.9329 0.3602 -0.3602 0.9329 756.8203 -140.6929)">
						<stop  offset="0" style="stop-color:#FEBBBA"/>
						<stop  offset="1" style="stop-color:#FF928E"/>
					</linearGradient>
					<path style="fill:url(#SVGID_00000099648670364512158450000017044614408016133804_);" d="M1762.988,1613.054l-39.256,125.04
						c-3.652,11.632-0.019,24.089,9.102,31.114c21.011,16.183,62.542,41.946,113.285,41.206c9.286-0.135,17.09-8.06,17.739-17.784
						l13.948-208.994L1762.988,1613.054z"/>
					<g>
						
							<linearGradient id="SVGID_00000083062896862151398750000004987221419620423309_" gradientUnits="userSpaceOnUse" x1="12577.6719" y1="1276.0278" x2="12350.3047" y2="1449.998" gradientTransform="matrix(0.9672 0.2541 -0.2541 0.9672 -9938.2715 -2874.2493)">
							<stop  offset="0" style="stop-color:#FEBBBA"/>
							<stop  offset="1" style="stop-color:#FF928E"/>
						</linearGradient>
						<path style="fill:url(#SVGID_00000083062896862151398750000004987221419620423309_);" d="M1914.987,1476.014
							c0,0,15.25,98.473,5.647,145.532c-9.603,47.059-7.516,79.78-63.598,75.029c-56.082-4.751-94.24-43.336-106.576-95.967
							c0,0-19.642-81.265-3.38-108.159C1763.343,1465.556,1914.987,1476.014,1914.987,1476.014z"/>
						
							<linearGradient id="SVGID_00000089563737649119862360000006734382817356768190_" gradientUnits="userSpaceOnUse" x1="12417.9404" y1="1138.6975" x2="12623.8193" y2="1403.7664" gradientTransform="matrix(0.9672 0.2541 -0.2541 0.9672 -9938.2715 -2874.2493)">
							<stop  offset="0" style="stop-color:#09005D"/>
							<stop  offset="1" style="stop-color:#1A0F91"/>
						</linearGradient>
						<path style="fill:url(#SVGID_00000089563737649119862360000006734382817356768190_);" d="M1777.514,1572.206l6.779,1.781
							c0,0-12.879-64.636,14.31-68.253c27.189-3.617,129.621,2.101,159.662-26.885c28.96-27.944,22.213-75.641-1.611-94.753
							c-1.507-1.209-3.731-0.935-5.038,0.488l-3.347,3.642c-2.291,2.495-6.454,0.932-6.538-2.455l0,0
							c-0.08-3.211-3.932-4.92-6.267-2.714c-9.132,8.629-30.926,20.836-79.821,17.19c-69.379-5.173-120.159,10.113-133.25,55.56
							c-0.829,2.879-4.345,3.662-6.424,1.504c-4.103-4.26-11.553-7.711-24.309-1.672c-22.183,10.504-25.161,52.088,6.103,95.152
							c1.485,2.046,0.694,4.997-1.707,5.793c-8.456,2.804-22.156,11.16,1.817,33.397c24.523,22.747,41.844,25.52,48.645,25.564
							c1.83,0.012,3.393-1.248,3.748-3.043l8.145-41.184c0.421-2.13,2.552-3.464,4.651-2.912L1777.514,1572.206z"/>
						
							<linearGradient id="SVGID_00000003095635907877450090000016058802598113812389_" gradientUnits="userSpaceOnUse" x1="12549.4697" y1="1239.1677" x2="12322.1035" y2="1413.1381" gradientTransform="matrix(0.9672 0.2541 -0.2541 0.9672 -9938.2715 -2874.2493)">
							<stop  offset="0" style="stop-color:#FEBBBA"/>
							<stop  offset="1" style="stop-color:#FF928E"/>
						</linearGradient>
						<path style="fill:url(#SVGID_00000003095635907877450090000016058802598113812389_);" d="M1776.952,1581.123
							c0,0,0.156-60.302-29.31-51.125c-29.466,9.177-3.485,66.697,16.306,74.155L1776.952,1581.123z"/>
					</g>
					<g>
						
							<linearGradient id="SVGID_00000048485946678379341560000001668095921232104376_" gradientUnits="userSpaceOnUse" x1="1814.1794" y1="1423.9922" x2="1511.6229" y2="2039.1908">
							<stop  offset="0" style="stop-color:#FF928E"/>
							<stop  offset="1" style="stop-color:#FE7062"/>
						</linearGradient>
						<path style="fill:url(#SVGID_00000048485946678379341560000001668095921232104376_);" d="M1564.796,2146.568
							c-8.167-57.675,51.559-142.456,76.265-174.626c7.067-9.202,11.018-20.453,11.119-32.055
							c0.723-81.682-33.575-134.14-88.527-169.365c0,0-199.447,232.363-148.663,411.089c5.479,19.287,13.972,35.859,24.739,50.099
							C1447.731,2164.367,1525.569,2149.676,1564.796,2146.568z"/>
						
							<linearGradient id="SVGID_00000106853690762690833230000016390178730800415377_" gradientUnits="userSpaceOnUse" x1="1558.7268" y1="1891.23" x2="1644.8046" y2="2201.1099">
							<stop  offset="0" style="stop-color:#E1473D"/>
							<stop  offset="1" style="stop-color:#E9605A"/>
						</linearGradient>
						<path style="fill:url(#SVGID_00000106853690762690833230000016390178730800415377_);" d="M1568.515,2124.259l-7.599-0.867
							c6.441-56.56,56.073-126.384,77.111-153.78l6.067,4.659C1623.444,2001.161,1574.743,2069.603,1568.515,2124.259z"/>
						
							<linearGradient id="SVGID_00000176007532107199746300000013831519362828901543_" gradientUnits="userSpaceOnUse" x1="1543.8234" y1="2080.4487" x2="1689.2067" y2="2463.0361">
							<stop  offset="0" style="stop-color:#FEBBBA"/>
							<stop  offset="1" style="stop-color:#FF928E"/>
						</linearGradient>
						<path style="fill:url(#SVGID_00000176007532107199746300000013831519362828901543_);" d="M1566.361,2154.555
							c-0.697-2.59-1.181-5.269-1.565-7.986c-39.227,3.107-117.065,17.798-125.067,85.141
							c89.006,117.716,334.335,75.246,334.335,75.246v-45.806C1774.064,2261.15,1585.649,2226.146,1566.361,2154.555z"/>
					</g>
					
						<linearGradient id="SVGID_00000013163350737133477170000011789982280973524402_" gradientUnits="userSpaceOnUse" x1="1724.2045" y1="2011.9047" x2="1869.5873" y2="2394.4905">
						<stop  offset="0" style="stop-color:#FEBBBA"/>
						<stop  offset="1" style="stop-color:#FF928E"/>
					</linearGradient>
					<path style="fill:url(#SVGID_00000013163350737133477170000011789982280973524402_);" d="M1750.479,2294.311
						c0,0,36.223-85.474,100.05-55.156c63.827,30.319,58.81,50.158,58.81,50.158L1750.479,2294.311z"/>
					
						<linearGradient id="SVGID_00000056403907532416635000000017959955840165194368_" gradientUnits="userSpaceOnUse" x1="2039.7341" y1="2150.8303" x2="1964.4921" y2="2247.7522">
						<stop  offset="0" style="stop-color:#09005D"/>
						<stop  offset="1" style="stop-color:#1A0F91"/>
					</linearGradient>
					<path style="fill:url(#SVGID_00000056403907532416635000000017959955840165194368_);" d="M1742.342,2312.044L1742.342,2312.044
						c0.507,6.467,6.018,11.388,12.501,11.162l330.747-11.539c5.141-0.179,9.608-3.585,11.142-8.494l9.6-30.72
						c2.358-7.547-3.027-15.293-10.922-15.713l-120.612-6.407c-1.095-0.058-2.192,0.032-3.263,0.27l-219.735,48.665
						C1745.904,2300.574,1741.87,2306.023,1742.342,2312.044z"/>
					
						<linearGradient id="SVGID_00000093151103990742776170000013056363776029363597_" gradientUnits="userSpaceOnUse" x1="2095.9524" y1="2194.4736" x2="2020.7106" y2="2291.395">
						<stop  offset="0" style="stop-color:#09005D"/>
						<stop  offset="1" style="stop-color:#1A0F91"/>
					</linearGradient>
					<polygon style="fill:url(#SVGID_00000093151103990742776170000013056363776029363597_);" points="1964.047,2299.975 
						1973.149,2257.568 2097.041,2263.48 2088.889,2298.665 					"/>
					
						<linearGradient id="SVGID_00000020382261316565535200000013570322282342224288_" gradientUnits="userSpaceOnUse" x1="2241.218" y1="1713.572" x2="2106.748" y2="2211.1111">
						<stop  offset="0" style="stop-color:#09005D"/>
						<stop  offset="1" style="stop-color:#1A0F91"/>
					</linearGradient>
					<path style="fill:url(#SVGID_00000020382261316565535200000013570322282342224288_);" d="M1900.534,1843.519
						c-7.012,57.294-38.555,290.074-47.583,356.586c-1.27,9.354,6.159,17.58,15.595,17.31l535.089-15.312
						c7.002-0.2,12.973-5.132,14.491-11.971l83.238-374.86c2.2-9.91-5.689-19.175-15.823-18.581l-570.724,33.428
						C1907.438,1830.551,1901.432,1836.182,1900.534,1843.519z"/>
					
						<linearGradient id="SVGID_00000079444500684211770370000001192803629869948035_" gradientUnits="userSpaceOnUse" x1="2105.2913" y1="2000.356" x2="2181.8086" y2="2470.9368">
						<stop  offset="0" style="stop-color:#09005D"/>
						<stop  offset="1" style="stop-color:#1A0F91"/>
					</linearGradient>
					<path style="fill:url(#SVGID_00000079444500684211770370000001192803629869948035_);" d="M2115.619,2078.596l-79.083,224.461
						l183.888,3.898l15.311-227.012c0.719-10.653-8.116-19.498-18.77-18.79l-85.876,5.702
						C2124.049,2067.323,2117.964,2071.941,2115.619,2078.596z"/>
					
						<linearGradient id="SVGID_00000137849661505575578040000007639879580921379509_" gradientUnits="userSpaceOnUse" x1="2070.843" y1="2274.0894" x2="2296.5688" y2="2422.0227">
						<stop  offset="0" style="stop-color:#09005D"/>
						<stop  offset="1" style="stop-color:#1A0F91"/>
					</linearGradient>
					<path style="fill:url(#SVGID_00000137849661505575578040000007639879580921379509_);" d="M1961.986,2306.256L1961.986,2306.256
						c-2.026,6.176,2.574,12.529,9.075,12.529h287.979c5.275,0,9.551-4.276,9.551-9.551v-12.352c0-5.435-4.53-9.775-9.96-9.542
						l-287.978,12.351C1966.678,2299.862,1963.226,2302.477,1961.986,2306.256z"/>
				</g>
				<path style="fill:#BDD0FB;" d="M1892.45,2080.331l-3.796-0.478l26.292-207.336c1.629-12.864,12.202-22.761,25.141-23.542
					l493.196-29.785l0.231,3.818l-493.196,29.785c-11.104,0.669-20.179,9.165-21.577,20.202L1892.45,2080.331z"/>
				
					<rect x="1857.595" y="2159.68" transform="matrix(0.125 -0.9922 0.9922 0.125 -499.4267 3756.8965)" style="fill:#BDD0FB;" width="45.246" height="3.826"/>
			</g>
			<g>
				<g>
					<g>
						
							<linearGradient id="SVGID_00000027567949043965826710000009755080970684498562_" gradientUnits="userSpaceOnUse" x1="1797.4664" y1="1837.2998" x2="1886.8218" y2="1776.72" gradientTransform="matrix(0.9856 -0.1691 0.1691 0.9856 -316.3687 156.5187)">
							<stop  offset="0" style="stop-color:#4F52FF"/>
							<stop  offset="1" style="stop-color:#4042E2"/>
						</linearGradient>
						<path style="fill:url(#SVGID_00000027567949043965826710000009755080970684498562_);" d="M1862.467,1644.693
							c-59.422,4.489-93.96-56.953-94.303-57.576l3.98-2.191c0.329,0.594,33.498,59.503,89.98,55.237L1862.467,1644.693z"/>
					</g>
					<path style="fill:#3840F7;" d="M1886.691,1642.398c0,3.522-2.855,6.377-6.377,6.377h-17.004c-3.522,0-6.377-2.855-6.377-6.377
						l0,0c0-3.522,2.855-6.376,6.377-6.376h17.004C1883.836,1636.021,1886.691,1638.876,1886.691,1642.398L1886.691,1642.398z"/>
				</g>
				<g>
					
						<linearGradient id="SVGID_00000114758824803159213810000017129325677526117288_" gradientUnits="userSpaceOnUse" x1="1842.8859" y1="1368.5927" x2="1747.0762" y2="1568.6168">
						<stop  offset="0" style="stop-color:#4F52FF"/>
						<stop  offset="1" style="stop-color:#4042E2"/>
					</linearGradient>
					<path style="fill:url(#SVGID_00000114758824803159213810000017129325677526117288_);" d="M1772.26,1518.959
						c0,0,21.328-109.393,84.162-119.714c0,0-17.796-8.959-36.346,0.759c-18.55,9.717-65.439,62.962-63.527,121.651
						C1769.304,1526.248,1772.26,1518.959,1772.26,1518.959z"/>
					
						<linearGradient id="SVGID_00000179626305761836529940000014605967493744038054_" gradientUnits="userSpaceOnUse" x1="1875.8674" y1="1362.9583" x2="1815.3562" y2="1472.2147">
						<stop  offset="0" style="stop-color:#4F52FF"/>
						<stop  offset="1" style="stop-color:#4042E2"/>
					</linearGradient>
					<path style="fill:url(#SVGID_00000179626305761836529940000014605967493744038054_);" d="M1761.344,1513.781
						c-32.666,6.63-28.65,47.939-28.65,47.939c-2.354,29.979,6.396,44.84,17.609,51.921c7.659,4.838,17.302,5.286,25.39,1.205
						c8.087-4.081,13.444-12.105,14.111-21.139c0.603-8.158,1.294-15.914,1.9-18.668
						C1793.169,1568.365,1794.01,1507.15,1761.344,1513.781z"/>
				</g>
				
					<linearGradient id="SVGID_00000129178785741099973660000001060451505581067446_" gradientUnits="userSpaceOnUse" x1="1861.4393" y1="1451.0114" x2="2143.8262" y2="1128.2832">
					<stop  offset="0" style="stop-color:#4F52FF"/>
					<stop  offset="1" style="stop-color:#4042E2"/>
				</linearGradient>
				<path style="fill:url(#SVGID_00000129178785741099973660000001060451505581067446_);" d="M1764.344,1524.226
					c-6.781-1.179-13.469,2.424-16.197,8.744c-19.523,45.226,4.448,74.646,16.215,75.26c12.403,0.646,12.151-59.024,9.518-74.321
					C1772.777,1527.499,1768.704,1524.984,1764.344,1524.226z"/>
			</g>
		</g>
		<g>
			<g>
				
					<linearGradient id="SVGID_00000090254123393150627570000016001841678621318807_" gradientUnits="userSpaceOnUse" x1="588.6262" y1="3549.8206" x2="709.2169" y2="2140.4158" gradientTransform="matrix(-1 0 0 1 1415.2515 0)">
					<stop  offset="0" style="stop-color:#FEBBBA"/>
					<stop  offset="1" style="stop-color:#FF928E"/>
				</linearGradient>
				<path style="fill:url(#SVGID_00000090254123393150627570000016001841678621318807_);" d="M814.689,2740.112l3.645,67.181
					c0,0-20.877,224.832-25.247,324.373c-0.685,15.606,3.352,31.029,11.543,44.331l42.72,69.373l-108.572-64.067l-2.161-13.25
					l17.773-24.437l-23.28-278.781c-1.367-16.377,2.012-32.801,9.734-47.308l22.457-42.189L814.689,2740.112z"/>
				
					<linearGradient id="SVGID_00000132787379378625209640000005205520290603461559_" gradientUnits="userSpaceOnUse" x1="843.0963" y1="3143.8799" x2="1018.8734" y2="2891.7969">
					<stop  offset="0" style="stop-color:#09005D"/>
					<stop  offset="1" style="stop-color:#1A0F91"/>
				</linearGradient>
				<path style="fill:url(#SVGID_00000132787379378625209640000005205520290603461559_);" d="M854.5,3255.42h-34.647
					c-6.485,0-12.601-2.977-16.557-8.117c-10.802-14.035-33.18-41.417-43.881-42.132c-14.405-0.962-12.562,50.249-12.562,50.249
					h-8.075l-10.228-63.635c-2.573-16.012,5.389-31.873,19.766-39.375l0,0c0,0,3.293,24.352,21.148,35.124
					c17.855,10.772,72.658,49.347,72.658,49.347s6.713-0.957,14.081,0.375C867.137,3239.231,865.61,3255.42,854.5,3255.42z"/>
			</g>
			<g>
				
					<linearGradient id="SVGID_00000166650645897357512650000002208463482641096895_" gradientUnits="userSpaceOnUse" x1="680.1758" y1="3549.6658" x2="800.7666" y2="2140.261" gradientTransform="matrix(-1 0 0 1 1415.2515 0)">
					<stop  offset="0" style="stop-color:#FEBBBA"/>
					<stop  offset="1" style="stop-color:#FF928E"/>
				</linearGradient>
				<path style="fill:url(#SVGID_00000166650645897357512650000002208463482641096895_);" d="M721.33,2740.112l7.337,43.157
					c0,0-24.568,248.856-28.939,348.398c-0.684,15.606,3.353,31.029,11.544,44.331l42.719,69.373l-108.572-64.067l-2.161-13.25
					l17.773-24.437l-23.28-278.781c-1.367-16.377,2.012-32.801,9.734-47.308l22.458-42.189L721.33,2740.112z"/>
				
					<linearGradient id="SVGID_00000026127038205306783500000005432023514981556136_" gradientUnits="userSpaceOnUse" x1="644.9475" y1="3203.9153" x2="780.5385" y2="3203.9153" gradientTransform="matrix(-1 0 0 1 1415.2515 0)">
					<stop  offset="0" style="stop-color:#09005D"/>
					<stop  offset="1" style="stop-color:#1A0F91"/>
				</linearGradient>
				<path style="fill:url(#SVGID_00000026127038205306783500000005432023514981556136_);" d="M761.142,3255.42h-34.648
					c-6.485,0-12.602-2.977-16.557-8.117c-10.801-14.035-33.18-41.417-43.88-42.132c-14.405-0.962-12.563,50.249-12.563,50.249
					h-8.074l-10.228-63.635c-2.573-16.012,5.39-31.873,19.767-39.375l0,0c0,0,3.293,24.352,21.148,35.124
					c17.855,10.772,72.658,49.347,72.658,49.347s6.712-0.957,14.082,0.375C773.778,3239.231,772.252,3255.42,761.142,3255.42z"/>
			</g>
			
				<linearGradient id="SVGID_00000104696949315190618900000001585222765725576370_" gradientUnits="userSpaceOnUse" x1="2151.8296" y1="2199.3638" x2="1952.1396" y2="2360.6296" gradientTransform="matrix(0.9684 -0.2493 0.2493 0.9684 -1636.6222 344.8383)">
				<stop  offset="0" style="stop-color:#FEBBBA"/>
				<stop  offset="1" style="stop-color:#FF928E"/>
			</linearGradient>
			<path style="fill:url(#SVGID_00000104696949315190618900000001585222765725576370_);" d="M792.24,2027.287
				c0,0,15.815-0.122,42.484,17.096c26.668,17.218,74.715,65.653,74.715,65.653l-48.512-134.58l35.603-9.167
				c0,0,89.659,162.691,72.82,191.207c-16.839,28.516-103.194,20.672-147.216-54.1
				C799.169,2048.565,792.24,2027.287,792.24,2027.287z"/>
			
				<linearGradient id="SVGID_00000145761635862764974770000018088107544853700485_" gradientUnits="userSpaceOnUse" x1="2148.1479" y1="511.408" x2="1724.524" y2="1005.6359">
				<stop  offset="0" style="stop-color:#09005D"/>
				<stop  offset="1" style="stop-color:#1A0F91"/>
			</linearGradient>
			<path style="fill:url(#SVGID_00000145761635862764974770000018088107544853700485_);" d="M598.23,2074.134
				c-4.066,3.156,67.382,154.576,67.531,277.858c0,0,68.553,14.918,125.701-12.263c0,0,55.939-165.57,53.901-185.043
				c-2.309-22.064-46.697-126.839-46.697-126.839S698.568,1996.261,598.23,2074.134z"/>
			
				<linearGradient id="SVGID_00000071523925981692483650000010119068232858059409_" gradientUnits="userSpaceOnUse" x1="1813.2539" y1="2324.875" x2="1879.5072" y2="2471.8506" gradientTransform="matrix(0.9684 -0.2493 0.2493 0.9684 -1636.6222 344.8383)">
				<stop  offset="0" style="stop-color:#FEBBBA"/>
				<stop  offset="1" style="stop-color:#FF928E"/>
			</linearGradient>
			<path style="fill:url(#SVGID_00000071523925981692483650000010119068232858059409_);" d="M834.704,2235.407
				c-3.178-5.251-8.572-8.773-14.658-9.57l-59.401-7.788c0,0-2.59-6.694,8.388-14.523c10.978-7.829,4.615-20.743,4.615-20.743
				s-14.692,11.881-35.964,30.201c-12.165,10.477-16.853,24.652-18.644,34.875l18.549,14.655
				c35.742,1.425,69.801-5.313,102.639-17.983L834.704,2235.407z"/>
			
				<linearGradient id="SVGID_00000175291586992963072970000015211142164117886373_" gradientUnits="userSpaceOnUse" x1="1697.0447" y1="2377.2625" x2="1763.2988" y2="2524.2397" gradientTransform="matrix(0.9684 -0.2493 0.2493 0.9684 -1636.6222 344.8383)">
				<stop  offset="0" style="stop-color:#FEBBBA"/>
				<stop  offset="1" style="stop-color:#FF928E"/>
			</linearGradient>
			<path style="fill:url(#SVGID_00000175291586992963072970000015211142164117886373_);" d="M598.23,2074.134
				c0,0-113.295,101.361-65.969,225.362c47.326,124,215.151-44.232,215.151-44.232l-12.716-29.5c0,0-112.094,66.345-140.057,41.304
				c-20.51-18.367,15.728-83.1,36.502-116.302c7.618-12.175,6.681-27.825-2.367-38.979L598.23,2074.134z"/>
			<g>
				
					<linearGradient id="SVGID_00000012464161139544833450000001630951066080939441_" gradientUnits="userSpaceOnUse" x1="7567.75" y1="2396.0271" x2="7519.2725" y2="2464.4236" gradientTransform="matrix(0.844 -0.5364 0.5364 0.844 -6838.6943 3975.4028)">
					<stop  offset="0" style="stop-color:#FEBBBA"/>
					<stop  offset="1" style="stop-color:#FF928E"/>
				</linearGradient>
				<path style="fill:url(#SVGID_00000012464161139544833450000001630951066080939441_);" d="M841.607,1978.819
					c0,0-12.353-6.743-17.05-15.498c-4.697-8.755-17.713-17.724-11.59-20.34c6.123-2.616,6.796-4.085,14.679,4.994
					C835.529,1957.053,872.59,1985.461,841.607,1978.819z"/>
				<g>
					
						<linearGradient id="SVGID_00000176733162583408232810000002013259512728723385_" gradientUnits="userSpaceOnUse" x1="7623.3057" y1="2358.064" x2="7453.5132" y2="2597.623" gradientTransform="matrix(0.844 -0.5364 0.5364 0.844 -6838.6943 3975.4028)">
						<stop  offset="0" style="stop-color:#09005D"/>
						<stop  offset="1" style="stop-color:#1A0F91"/>
					</linearGradient>
					<path style="fill:url(#SVGID_00000176733162583408232810000002013259512728723385_);" d="M844.06,1890.112
						c-1.061-1.53-2.747-2.509-4.601-2.671c-1.855-0.163-3.685,0.508-4.996,1.83l-32.719,33.009
						c-1.271,1.281-1.375,3.313-0.244,4.719l74.302,92.347c0.32,0.398,0.786,0.652,1.295,0.704c0.508,0.052,1.017-0.1,1.412-0.424
						l30.815-25.263c2.524-2.07,3.037-5.73,1.177-8.413L844.06,1890.112z"/>
					
						<linearGradient id="SVGID_00000078025452028362831330000014110276479190037167_" gradientUnits="userSpaceOnUse" x1="7611.6177" y1="2369.8201" x2="7474.8359" y2="2562.8049" gradientTransform="matrix(0.844 -0.5364 0.5364 0.844 -6838.6943 3975.4028)">
						<stop  offset="0" style="stop-color:#FF928E"/>
						<stop  offset="1" style="stop-color:#FE7062"/>
					</linearGradient>
					<path style="fill:url(#SVGID_00000078025452028362831330000014110276479190037167_);" d="M836.948,1902.683
						c-0.616-0.86-1.583-1.399-2.638-1.472c-1.055-0.073-2.087,0.328-2.815,1.095l-21.167,22.285
						c-1.224,1.288-1.305,3.284-0.19,4.667l63.352,78.592c0.333,0.412,0.82,0.669,1.348,0.708c0.527,0.04,1.048-0.141,1.438-0.499
						l20.582-18.878c0.714-0.655,0.827-1.74,0.262-2.527L836.948,1902.683z"/>
					
						<linearGradient id="SVGID_00000034790227241493115010000008097528158271169206_" gradientUnits="userSpaceOnUse" x1="7261.6069" y1="5971.3374" x2="7249.9829" y2="5987.7378" gradientTransform="matrix(0.7176 -0.6964 0.3659 0.377 -6578.8594 4715.9165)">
						<stop  offset="0" style="stop-color:#8D55D1"/>
						<stop  offset="0.9964" style="stop-color:#1C2873"/>
					</linearGradient>
					<path style="fill:url(#SVGID_00000034790227241493115010000008097528158271169206_);" d="M821.039,1909.595
						c0.252,0.26,0.056,0.861-0.439,1.342l-7.307,7.092c-0.495,0.481-1.102,0.66-1.354,0.4l-0.245-0.253
						c-0.253-0.26-0.056-0.861,0.439-1.342l7.306-7.092c0.496-0.481,1.102-0.66,1.355-0.4L821.039,1909.595z"/>
				</g>
				
					<linearGradient id="SVGID_00000054968729906351248020000002529740191371322526_" gradientUnits="userSpaceOnUse" x1="7621.1064" y1="2380.2805" x2="7539.7944" y2="2495.0032" gradientTransform="matrix(0.844 -0.5364 0.5364 0.844 -6838.6943 3975.4028)">
					<stop  offset="0" style="stop-color:#FEBBBA"/>
					<stop  offset="1" style="stop-color:#FF928E"/>
				</linearGradient>
				<path style="fill:url(#SVGID_00000054968729906351248020000002529740191371322526_);" d="M867.526,1905.75
					c-6.181,1.337-26.756-9.393-25.088-2.621c1.669,6.772,9.197,12.72,9.912,15.596c0.715,2.876,3.671,19.502,9.964,24.015
					c4.541,3.256,16.002,14.874,22.031,21.091c2.001,2.063,5.176,2.438,7.603,0.897c2.427-1.54,3.439-4.573,2.423-7.262
					C893.963,1956.388,873.706,1904.412,867.526,1905.75z"/>
			</g>
			
				<linearGradient id="SVGID_00000155854094549626580180000013772099973232155539_" gradientUnits="userSpaceOnUse" x1="1824.5626" y1="2320.8667" x2="1944.4979" y2="2098.1301" gradientTransform="matrix(0.9684 -0.2493 0.2493 0.9684 -1636.6222 344.8383)">
				<stop  offset="0" style="stop-color:#FEBBBA"/>
				<stop  offset="1" style="stop-color:#FF928E"/>
			</linearGradient>
			<path style="fill:url(#SVGID_00000155854094549626580180000013772099973232155539_);" d="M725.859,1936.843
				c0,0-11.937,62.06-21.224,89.322c-2.725,8,1.012,16.814,8.691,20.344c8.768,4.03,22.055,6.839,40.406,2.309
				c7.715-1.905,13.136-8.852,13.252-16.798l0.986-67.634L725.859,1936.843z"/>
			<g>
				
					<linearGradient id="SVGID_00000178196190960923066930000004851003109029980037_" gradientUnits="userSpaceOnUse" x1="-293.4279" y1="-2260.8335" x2="-152.472" y2="-2165.0901" gradientTransform="matrix(-0.8724 -0.4888 -0.4888 0.8724 -533.7189 3750.0251)">
					<stop  offset="0" style="stop-color:#FEBBBA"/>
					<stop  offset="1" style="stop-color:#FF928E"/>
				</linearGradient>
				<path style="fill:url(#SVGID_00000178196190960923066930000004851003109029980037_);" d="M803.639,1868.234
					c0,0,19.332,24.88,16.05,71.119c-3.282,46.239-25.606,55.931-43.057,49.202c-17.451-6.729-41.406-20.614-53.712-58.566
					C710.615,1892.037,777.821,1837.117,803.639,1868.234z"/>
				
					<linearGradient id="SVGID_00000086678346808250232520000015576149830551404443_" gradientUnits="userSpaceOnUse" x1="1914.9387" y1="2053.0012" x2="1787.0023" y2="1838.2502" gradientTransform="matrix(0.9684 -0.2493 0.2493 0.9684 -1636.6222 344.8383)">
					<stop  offset="0" style="stop-color:#E1473D"/>
					<stop  offset="1" style="stop-color:#E9605A"/>
				</linearGradient>
				<path style="fill:url(#SVGID_00000086678346808250232520000015576149830551404443_);" d="M751.04,1920.074
					c0,0,10.888-64.24,58.707-38.281l6.795,14.064c0,0,34.045-19.925,13.398-50.109c-20.646-30.183-70.366-41.463-104.105-9.767
					c-33.739,31.695-40.551,60.552-30.636,90.314c9.915,29.763,29.96,13.544,29.96,13.544s-1.366-23.407,8.286-30.114
					c9.652-6.707,13.766,10.218,13.766,10.218L751.04,1920.074z"/>
				
					<linearGradient id="SVGID_00000146476307406957000830000014070516782294962333_" gradientUnits="userSpaceOnUse" x1="-284.9801" y1="-2273.27" x2="-144.0242" y2="-2177.5264" gradientTransform="matrix(-0.8724 -0.4888 -0.4888 0.8724 -533.7189 3750.0251)">
					<stop  offset="0" style="stop-color:#FEBBBA"/>
					<stop  offset="1" style="stop-color:#FF928E"/>
				</linearGradient>
				<path style="fill:url(#SVGID_00000146476307406957000830000014070516782294962333_);" d="M742.376,1923.055
					c0,0,5.79-32.99-13.249-29.226c-19.039,3.763-3.798,31.342,2.717,41.159L742.376,1923.055z"/>
				
					<linearGradient id="SVGID_00000002341915663998877650000017611434473029408897_" gradientUnits="userSpaceOnUse" x1="1799.0494" y1="2122.0474" x2="1671.1157" y2="1907.3011" gradientTransform="matrix(0.9684 -0.2493 0.2493 0.9684 -1636.6222 344.8383)">
					<stop  offset="0" style="stop-color:#E1473D"/>
					<stop  offset="1" style="stop-color:#E9605A"/>
				</linearGradient>
				<path style="fill:url(#SVGID_00000002341915663998877650000017611434473029408897_);" d="M715.168,1861.499
					c10.184-3.987,11.068-18.065,1.907-24.036c-29.573-19.276-80.344-36.041-131.357,22.877
					c-57.464,66.368-89.658,97.99-108.015,97.82c-12.055-0.111-18.99,13.571-10.989,22.588c5.917,6.667,16,12.625,32.698,16.121
					C628.221,2023.836,655.438,1884.881,715.168,1861.499z"/>
			</g>
			
				<linearGradient id="SVGID_00000100384351683084888550000002631600734648953744_" gradientUnits="userSpaceOnUse" x1="816.1222" y1="2351.749" x2="631.2249" y2="2859.3752">
				<stop  offset="0" style="stop-color:#4F52FF"/>
				<stop  offset="1" style="stop-color:#4042E2"/>
			</linearGradient>
			<path style="fill:url(#SVGID_00000100384351683084888550000002631600734648953744_);" d="M603.932,2456.232
				c5.909-47.596,61.829-104.24,61.829-104.24c88.91,13.286,130.811-17.373,130.811-17.373s18.673,62.712,18.921,111.75
				c0.249,49.038,9.694,364.824,9.694,364.824c-87.01,36.468-196.216,16.351-196.216,16.351
				C635.685,2714.183,598.022,2503.827,603.932,2456.232z"/>
		</g>
	</g>
</g>
</svg>
