<?xml version="1.0" encoding="utf-8"?>
<!-- Generator: Adobe Illustrator 27.5.0, SVG Export Plug-In . SVG Version: 6.00 Build 0)  -->
<svg version="1.1" xmlns="http://www.w3.org/2000/svg" xmlns:xlink="http://www.w3.org/1999/xlink" x="0px" y="0px"
	 viewBox="0 0 3710 3710" style="enable-background:new 0 0 3710 3710;" xml:space="preserve">

<g id="Illustration">
	<g>
		<linearGradient id="SVGID_1_" gradientUnits="userSpaceOnUse" x1="455" y1="1869.1302" x2="3255" y2="1869.1302">
			<stop  offset="0" style="stop-color:#DAE3FE"/>
			<stop  offset="1" style="stop-color:#E9EFFD"/>
		</linearGradient>
		<path style="fill:url(#SVGID_1_);" d="M764.401,2925.112c57.16,59.62,91.941,116.399,140.324,136.594
			c620.011,258.781,1139.905,187.077,1266.221,161.659c186.528-37.535,547.083-110.09,807.758-413.808
			c394.379-459.5,332.969-1183.429,27.062-1661.304c-55.955-87.412-351.527-572.566-952.275-650.37
			c-363.566-47.086-787.368,47.881-1094.273,302.632C314.996,1335.262,331.243,2473.308,764.401,2925.112z"/>
		<g>
			<path style="fill:#91B3FA;" d="M1104.274,2835.521c229.184-52.643,392.225-395.771,308.04-542.982
				c-56.882-99.468-189.747-44.985-275.6-155.089c-109.615-140.578,42.54-312.03,1.593-596.391
				c-34.846-241.994-200.879-505.603-340.312-496.66c-145.955,9.361-302.353,319.909-239.072,547.762
				c41.152,148.176,153.782,184.234,147.415,310.431c-7.389,146.432-162.855,173.634-198.664,308.145
				C443.35,2452.359,801.079,2905.165,1104.274,2835.521z"/>
			<path style="fill:#7D97F4;" d="M971.302,2899.66c1.204,0.313,2.495,0.367,3.797,0.105c4.602-0.92,7.585-5.393,6.665-9.993
				c-124.101-620.958-36.132-1280.974-35.23-1287.568c0.638-4.649-2.619-8.938-7.262-9.567c-4.647-0.637-8.932,2.615-9.567,7.262
				c-0.907,6.623-89.254,669.473,35.401,1293.201C965.765,2896.398,968.251,2898.866,971.302,2899.66z"/>
			
				<linearGradient id="SVGID_00000054984215740168083210000007476197567761934500_" gradientUnits="userSpaceOnUse" x1="620.6615" y1="1409.3823" x2="783.8602" y2="1409.3823">
				<stop  offset="0" style="stop-color:#DAE3FE"/>
				<stop  offset="1" style="stop-color:#E9EFFD"/>
			</linearGradient>
			<path style="fill:url(#SVGID_00000054984215740168083210000007476197567761934500_);" d="M693.887,1713.317
				c0.844,0.22,1.767,0.168,2.629-0.201c2.058-0.89,3.007-3.276,2.119-5.335c-56.246-130.381-107.471-317.6-32.073-469.106
				c44.903-90.23,114.34-125.316,115.036-125.66c2.01-0.993,2.835-3.424,1.842-5.436c-0.994-2.011-3.429-2.838-5.438-1.841
				c-2.942,1.451-72.596,36.661-118.708,129.321c-42.381,85.16-71.252,236.861,31.886,475.934
				C691.696,1712.19,692.719,1713.013,693.887,1713.317z"/>
		</g>
		<g>
			<path style="fill:#BDD0FB;" d="M1627.525,2425.615c239.04-65.395,395.806-433.792,300.761-585.144
				c-64.221-102.265-201.759-39.12-296.947-151.327c-121.535-143.263,31.231-330.413-24.246-628.062
				c-47.212-253.302-233.502-523.663-379.935-508.185c-153.283,16.202-304.469,350.005-227.929,587.18
				c49.774,154.239,169.939,187.312,168.72,320.473c-1.414,154.512-163.937,189.915-195.796,333.109
				C914.923,2050.879,1311.292,2512.129,1627.525,2425.615z"/>
			<path style="fill:#91B3FA;" d="M1490.296,2498.933c1.28,0.277,2.643,0.278,4.003-0.054c4.806-1.168,7.753-6.008,6.584-10.813
				c-157.67-648.468-93.729-1347.283-93.067-1354.265c0.469-4.923-3.148-9.297-8.063-9.758c-4.922-0.469-9.292,3.141-9.758,8.063
				c-0.667,7.013-64.883,708.829,93.492,1360.19C1484.324,2495.739,1487.049,2498.23,1490.296,2498.933z"/>
			
				<linearGradient id="SVGID_00000152247149298420188280000007514421593785324932_" gradientUnits="userSpaceOnUse" x1="1056.532" y1="939.8546" x2="1214.2018" y2="939.8546">
				<stop  offset="0" style="stop-color:#DAE3FE"/>
				<stop  offset="1" style="stop-color:#E9EFFD"/>
			</linearGradient>
			<path style="fill:url(#SVGID_00000152247149298420188280000007514421593785324932_);" d="M1147.515,1260.981
				c-1.257,0-2.465-0.705-3.049-1.914c-52.421-108.924-81.704-210.292-87.037-301.288c-4.277-72.988,6.755-139.512,32.788-197.725
				c44.401-99.291,118.247-140.506,118.986-140.91c1.637-0.898,3.686-0.294,4.584,1.343c0.894,1.637,0.294,3.691-1.343,4.587
				c-0.723,0.396-72.829,40.745-116.237,138.136c-40.111,90.002-63.246,248.577,54.352,492.926c0.808,1.681,0.102,3.701-1.581,4.51
				C1148.505,1260.874,1148.007,1260.981,1147.515,1260.981z"/>
			<path style="fill:#F0F0F0;" d="M1658.899,2377.766c-0.898,0-1.792-0.355-2.455-1.059c-1.284-1.356-1.221-3.495,0.135-4.777
				c98.35-92.877,167.602-179.104,205.832-256.284c31.006-62.599,41.837-119.577,32.194-169.355
				c-19.089-98.528-112.96-136.43-113.904-136.801c-1.739-0.682-2.594-2.642-1.911-4.379c0.683-1.738,2.647-2.597,4.38-1.911
				c0.98,0.385,98.284,39.672,118.072,141.806c22.296,115.089-58.46,260.382-240.022,431.839
				C1660.566,2377.461,1659.731,2377.766,1658.899,2377.766z"/>
		</g>
		<g>
			<g>
				
					<linearGradient id="SVGID_00000137812066795455544250000008876294815039579574_" gradientUnits="userSpaceOnUse" x1="-429.6132" y1="2018.521" x2="3873.293" y2="4970.8311" gradientTransform="matrix(-1 0 0 1 1594.063 0)">
					<stop  offset="0" style="stop-color:#09005D"/>
					<stop  offset="1" style="stop-color:#1A0F91"/>
				</linearGradient>
				<path style="fill:url(#SVGID_00000137812066795455544250000008876294815039579574_);" d="M1554.131,3068.493
					c0.537,53.012,46.08,95.991,101.738,96.113l1345.456,2.932c56.061,0.122,102.596-42.828,103.927-96.048l62.695-2506.006
					c1.491-59.585-45.563-107.77-105.084-107.486l-1428.185,6.828c-59.068,0.283-106.449,48.715-105.848,108.039L1554.131,3068.493z
					"/>
				<path style="fill:#7D97F4;" d="M1675.402,717.497c-0.401-57.257,46.575-103.985,104.941-104.241l1133.541-4.984
					c58.726-0.258,105.324,46.219,104.067,103.682l-46.598,2130.701c-1.142,52.189-47.297,94.334-103.08,94.245l-1076.908-1.709
					c-55.459-0.088-100.7-42.24-101.065-94.259L1675.402,717.497z"/>
				
					<linearGradient id="SVGID_00000137810435181143113100000014967788003708688825_" gradientUnits="userSpaceOnUse" x1="-743.4091" y1="136.3853" x2="-750.2846" y2="555.7833" gradientTransform="matrix(-1 0 0 1 1594.063 0)">
					<stop  offset="0" style="stop-color:#4F52FF"/>
					<stop  offset="1" style="stop-color:#4042E2"/>
				</linearGradient>
				<path style="opacity:0.46;fill:url(#SVGID_00000137810435181143113100000014967788003708688825_);" d="M2176.318,532.177
					c-0.03,11.109,8.905,20.07,19.957,20.02l295.002-1.337c11.074-0.05,20.161-9.103,20.296-20.226l0,0
					c0.134-11.13-8.745-20.116-19.833-20.064l-295.337,1.379C2185.339,512.001,2176.347,521.061,2176.318,532.177L2176.318,532.177z
					"/>
			</g>
			<g style="opacity:0.27;">
				<polygon style="fill:#FFFFFF;" points="1917.614,2228.82 1747.681,2060.104 1753.983,2416.047 1917.25,2229.222 				"/>
				<path style="fill:#FFFFFF;" d="M1999.69,2310.326l-240.181,275.008l-2.433,2.819l6.923,217.912
					c0.552,20.906,11.741,41.017,29.456,55.888c15.616,13.074,35.889,21.096,57.103,22.808l339.372-385.497L1999.69,2310.326z"/>
				<polygon style="fill:#FFFFFF;" points="1798.293,1950.119 1992.275,2143.492 2074.105,2225.085 2264.365,2414.744 
					2577.162,2059.491 2577.115,2059.446 2387.59,1867.334 2388.143,1867.325 2389.172,1866.785 2389.172,1866.74 
					2306.574,1784.016 2305.799,1784.106 2305.601,1784.174 2305.461,1784.106 2305.332,1784.016 2111.255,1587.472 
					1724.479,1196.329 1739.077,1837.967 				"/>
				<polygon style="fill:#FFFFFF;" points="2000.219,2885.22 2579.064,2885.648 2270.54,2579.286 				"/>
				<path style="fill:#FFFFFF;" d="M2344.916,2495.07l391.913,390.695l35.809,0.026c23.853,0.018,46.981-8.037,64.34-22.482
					c17.414-14.453,27.646-34.096,28.385-54.635l16.301-440.527l-224.007-227.088L2344.916,2495.07z"/>
				<polygon style="fill:#FFFFFF;" points="2733.257,2055.351 2887.161,2212.165 2899.665,1867.174 2733.396,2055.352 				"/>
				<path style="fill:#FFFFFF;" d="M2104.649,1415.489l311.038-361.7l-327.706-339.047l-270.491-1.739
					c-57.585-0.37-102.575,45.209-101.171,102.201l5.146,210.327L2104.649,1415.489z"/>
				<polygon style="fill:#FFFFFF;" points="2703.877,718.702 2253.886,715.809 2492.835,964.052 				"/>
				<polygon style="fill:#FFFFFF;" points="2498.337,1139.321 2187.353,1499.633 2381.194,1696.936 2462.771,1779.979 
					2649.846,1973.156 2900.48,1684.828 2900.48,1684.782 2908.744,1566.651 2909.423,1566.003 				"/>
				<path style="fill:#FFFFFF;" d="M2858.657,721.798l-283.14,328.122l341.868,355.083l21.514-580.177
					C2940.8,774.424,2906.26,731.885,2858.657,721.798z"/>
			</g>
			<g>
				<path style="fill:#FFFFFF;" d="M2342.571,840.776c0,8.722,7.071,15.793,15.793,15.793h493.298
					c8.722,0,15.792-7.071,15.792-15.793v-0.089c0-8.722-7.071-15.793-15.792-15.793h-493.298c-8.722,0-15.793,7.071-15.793,15.793
					V840.776z"/>
				<path style="fill:#FFFFFF;" d="M2342.571,926.748c0,8.722,7.071,15.792,15.793,15.792h493.298
					c8.722,0,15.792-7.07,15.792-15.792v-0.089c0-8.722-7.071-15.793-15.792-15.793h-493.298c-8.722,0-15.793,7.071-15.793,15.793
					V926.748z"/>
				<path style="fill:#FFFFFF;" d="M2342.571,1012.72c0,8.722,7.071,15.793,15.793,15.793h493.298
					c8.722,0,15.792-7.071,15.792-15.793v-0.089c0-8.722-7.071-15.793-15.792-15.793h-493.298c-8.722,0-15.793,7.071-15.793,15.793
					V1012.72z"/>
			</g>
			<path style="fill:#FFFFFF;" d="M1906.304,2923.256c-2.832,0-5.673-1.012-7.94-3.063c-4.838-4.387-5.208-11.868-0.822-16.707
				l22.692-25.042c4.389-4.84,11.864-5.208,16.709-0.823c4.838,4.388,5.208,11.868,0.822,16.708l-22.692,25.042
				C1912.736,2921.946,1909.525,2923.256,1906.304,2923.256z M1963.035,2860.649c-2.832,0-5.673-1.011-7.937-3.063
				c-4.841-4.386-5.211-11.866-0.825-16.708l22.689-25.042c4.383-4.84,11.868-5.208,16.706-0.823
				c4.841,4.386,5.211,11.866,0.825,16.707l-22.689,25.042C1969.471,2859.339,1966.26,2860.649,1963.035,2860.649z
				 M2019.763,2798.042c-2.832,0-5.673-1.011-7.94-3.063c-4.838-4.388-5.208-11.868-0.822-16.708l22.693-25.042
				c4.383-4.84,11.861-5.208,16.709-0.823c4.838,4.388,5.208,11.867,0.822,16.707l-22.692,25.042
				C2026.195,2796.732,2022.984,2798.042,2019.763,2798.042z M2076.494,2735.435c-2.832,0-5.673-1.012-7.937-3.063
				c-4.841-4.386-5.211-11.866-0.825-16.708l22.689-25.044c4.383-4.838,11.865-5.209,16.706-0.823s5.211,11.866,0.825,16.708
				l-22.689,25.044C2082.929,2734.125,2079.718,2735.435,2076.494,2735.435z M2133.222,2672.828c-2.832,0-5.673-1.011-7.94-3.063
				c-4.838-4.386-5.208-11.866-0.822-16.708l22.692-25.044c4.389-4.842,11.864-5.208,16.706-0.823
				c4.842,4.386,5.211,11.866,0.825,16.708l-22.692,25.044C2139.657,2671.518,2136.446,2672.828,2133.222,2672.828z
				 M2189.953,2610.221c-2.832,0-5.673-1.011-7.937-3.063c-4.841-4.386-5.211-11.866-0.825-16.707l22.689-25.044
				c4.383-4.838,11.861-5.209,16.706-0.823c4.842,4.386,5.211,11.866,0.825,16.707l-22.689,25.044
				C2196.388,2608.911,2193.177,2610.221,2189.953,2610.221z M2246.68,2547.614c-2.832,0-5.673-1.012-7.937-3.063
				c-4.842-4.386-5.211-11.866-0.825-16.707l22.692-25.044c4.383-4.84,11.861-5.208,16.709-0.823
				c4.838,4.386,5.208,11.866,0.822,16.707l-22.692,25.044C2253.112,2546.304,2249.901,2547.614,2246.68,2547.614z
				 M2303.411,2485.007c-2.832,0-5.673-1.011-7.937-3.063c-4.841-4.386-5.211-11.866-0.825-16.708l22.689-25.044
				c4.383-4.838,11.864-5.209,16.706-0.823s5.211,11.866,0.825,16.708l-22.689,25.044
				C2309.847,2483.697,2306.635,2485.007,2303.411,2485.007z M2360.139,2422.4c-2.832,0-5.673-1.012-7.94-3.063
				c-4.838-4.386-5.208-11.866-0.822-16.707l22.692-25.044c4.389-4.84,11.861-5.208,16.709-0.823
				c4.838,4.386,5.208,11.866,0.822,16.707l-22.692,25.044C2366.574,2421.09,2363.36,2422.4,2360.139,2422.4z M2416.87,2359.793
				c-2.832,0-5.673-1.011-7.937-3.063c-4.842-4.386-5.211-11.866-0.825-16.708l22.689-25.044c4.383-4.838,11.861-5.209,16.706-0.823
				c4.841,4.386,5.211,11.866,0.825,16.708l-22.689,25.044C2423.305,2358.483,2420.094,2359.793,2416.87,2359.793z
				 M2473.597,2297.186c-2.832,0-5.673-1.011-7.94-3.063c-4.838-4.386-5.208-11.866-0.822-16.708l22.692-25.044
				c4.386-4.84,11.864-5.206,16.706-0.823c4.842,4.386,5.211,11.866,0.825,16.708l-22.692,25.044
				C2480.033,2295.875,2476.819,2297.186,2473.597,2297.186z M2530.329,2234.579c-2.832,0-5.673-1.011-7.937-3.063
				c-4.841-4.386-5.211-11.866-0.825-16.707l22.689-25.044c4.383-4.838,11.865-5.209,16.706-0.823
				c4.841,4.386,5.211,11.866,0.825,16.708l-22.689,25.044C2536.764,2233.269,2533.553,2234.579,2530.329,2234.579z
				 M2587.056,2171.972c-2.832,0-5.673-1.011-7.94-3.063c-4.838-4.386-5.208-11.866-0.822-16.708l22.692-25.044
				c4.379-4.838,11.861-5.209,16.709-0.823c4.838,4.386,5.208,11.866,0.822,16.708l-22.692,25.044
				C2593.488,2170.662,2590.277,2171.972,2587.056,2171.972z M2635.315,2104.127c-0.729,0-1.465-0.068-2.208-0.206
				c-6.419-1.213-10.64-7.397-9.429-13.816c0.634-3.359,0.957-6.81,0.96-10.257c0-5.86-0.927-11.655-2.759-17.217
				c-2.04-6.206,1.337-12.891,7.541-14.932c6.218-2.043,12.891,1.335,14.93,7.54c2.617,7.952,3.944,16.235,3.944,24.62
				c-0.003,4.917-0.465,9.838-1.37,14.635C2645.853,2100.169,2640.889,2104.127,2635.315,2104.127z M2603.406,2030.379
				c-3.106,0-6.208-1.216-8.531-3.634l-23.412-24.37c-4.524-4.711-4.373-12.199,0.337-16.724c4.709-4.521,12.194-4.379,16.726,0.335
				l23.412,24.371c4.525,4.711,4.373,12.199-0.337,16.724C2609.306,2029.283,2606.356,2030.379,2603.406,2030.379z
				 M2544.876,1969.452c-3.105,0-6.208-1.216-8.531-3.634l-23.412-24.37c-4.525-4.711-4.373-12.199,0.337-16.724
				c4.709-4.523,12.198-4.376,16.726,0.335l23.412,24.371c4.525,4.711,4.373,12.199-0.337,16.724
				C2550.777,1968.356,2547.826,1969.452,2544.876,1969.452z M2486.346,1908.524c-3.105,0-6.208-1.216-8.531-3.634l-23.412-24.371
				c-4.525-4.711-4.373-12.199,0.337-16.724c4.706-4.523,12.194-4.379,16.726,0.335l23.412,24.371
				c4.525,4.711,4.373,12.199-0.337,16.724C2492.247,1907.429,2489.297,1908.524,2486.346,1908.524z M2427.817,1847.597
				c-3.105,0-6.208-1.216-8.531-3.634l-23.412-24.371c-4.525-4.711-4.373-12.199,0.337-16.724
				c4.706-4.521,12.198-4.379,16.726,0.335l23.412,24.371c4.524,4.711,4.373,12.199-0.337,16.724
				C2433.718,1846.501,2430.767,1847.597,2427.817,1847.597z M2369.29,1786.67c-3.109,0-6.211-1.216-8.534-3.634l-23.412-24.371
				c-4.525-4.711-4.373-12.199,0.337-16.724c4.709-4.521,12.194-4.379,16.726,0.335l23.412,24.37
				c4.525,4.711,4.373,12.199-0.336,16.724C2375.188,1785.574,2372.238,1786.67,2369.29,1786.67z M2310.758,1725.743
				c-3.105,0-6.208-1.216-8.531-3.633l-23.412-24.371c-4.525-4.711-4.373-12.199,0.336-16.724
				c4.709-4.521,12.195-4.379,16.726,0.335l23.412,24.37c4.525,4.711,4.373,12.199-0.337,16.724
				C2316.658,1724.647,2313.705,1725.743,2310.758,1725.743z M2252.228,1664.815c-3.105,0-6.208-1.216-8.531-3.634l-23.412-24.371
				c-4.524-4.711-4.373-12.199,0.337-16.724c4.706-4.521,12.194-4.379,16.726,0.335l23.412,24.37
				c4.525,4.711,4.373,12.199-0.337,16.724C2258.129,1663.72,2255.178,1664.815,2252.228,1664.815z M2193.702,1603.888
				c-3.109,0-6.211-1.216-8.534-3.633l-23.412-24.371c-4.525-4.711-4.373-12.199,0.337-16.724
				c4.709-4.525,12.198-4.376,16.726,0.335l23.412,24.37c4.524,4.711,4.373,12.199-0.337,16.724
				C2199.599,1602.793,2196.649,1603.888,2193.702,1603.888z M2135.169,1542.961c-3.105,0-6.208-1.216-8.531-3.634l-23.412-24.371
				c-4.525-4.711-4.373-12.199,0.337-16.724c4.709-4.525,12.194-4.376,16.726,0.335l23.412,24.37
				c4.525,4.711,4.373,12.199-0.336,16.724C2141.07,1541.865,2138.119,1542.961,2135.169,1542.961z M2076.639,1482.034
				c-3.105,0-6.208-1.216-8.531-3.634l-23.412-24.371c-4.525-4.711-4.373-12.199,0.337-16.724
				c4.709-4.523,12.194-4.379,16.725,0.335l23.412,24.371c4.524,4.711,4.373,12.199-0.337,16.724
				C2082.54,1480.938,2079.586,1482.034,2076.639,1482.034z M2018.11,1421.107c-3.105,0-6.208-1.216-8.531-3.633l-23.412-24.371
				c-4.525-4.711-4.373-12.199,0.337-16.724c4.706-4.521,12.194-4.379,16.725,0.335l23.412,24.37
				c4.525,4.711,4.373,12.199-0.337,16.724C2024.01,1420.011,2021.06,1421.107,2018.11,1421.107z M1959.58,1360.179
				c-3.105,0-6.208-1.216-8.531-3.634l-23.412-24.371c-4.525-4.711-4.373-12.199,0.337-16.724
				c4.713-4.525,12.198-4.376,16.725,0.335l23.412,24.37c4.525,4.711,4.373,12.199-0.337,16.724
				C1965.481,1359.084,1962.53,1360.179,1959.58,1360.179z M1901.235,1299.084c-3.449,0-6.868-1.502-9.208-4.394
				c-8.346-10.331-13.983-22.714-16.293-35.809c-1.139-6.432,3.155-12.567,9.591-13.704c6.425-1.122,12.564,3.16,13.703,9.59
				c1.62,9.165,5.561,17.828,11.402,25.055c4.105,5.081,3.313,12.528-1.766,16.633
				C1906.473,1298.224,1903.846,1299.084,1901.235,1299.084z M1897.311,1220.17c-2.228,0-4.475-0.627-6.475-1.939
				c-5.465-3.582-6.99-10.914-3.406-16.377c1.964-2.997,4.158-5.888,6.518-8.594l16.161-18.557
				c4.287-4.926,11.755-5.447,16.689-1.153c4.924,4.29,5.442,11.762,1.152,16.689l-16.168,18.564
				c-1.66,1.903-3.195,3.927-4.571,6.025C1904.941,1218.289,1901.163,1220.17,1897.311,1220.17z"/>
		</g>
		<g>
			
				<linearGradient id="SVGID_00000083085205523718472030000006224666934153152160_" gradientUnits="userSpaceOnUse" x1="1039.9318" y1="2443.9175" x2="2200.3401" y2="2443.9175" gradientTransform="matrix(1 0 0 1 190.4042 0)">
				<stop  offset="0" style="stop-color:#09005D"/>
				<stop  offset="1" style="stop-color:#1A0F91"/>
			</linearGradient>
			<path style="fill:url(#SVGID_00000083085205523718472030000006224666934153152160_);" d="M1309.448,2435.537l-69.076,55.379
				c-19.181,15.374-9.024,48.25,14.875,48.131l1135.497-6.694l-307.407-183.563h-530.874
				C1464.923,2348.789,1379.711,2379.204,1309.448,2435.537z"/>
			
				<linearGradient id="SVGID_00000024700984576159245890000016065649379329383309_" gradientUnits="userSpaceOnUse" x1="1714.8264" y1="2384.6252" x2="1762.9705" y2="3306.2546" gradientTransform="matrix(1 0 0 1 190.4042 0)">
				<stop  offset="0" style="stop-color:#FF928E"/>
				<stop  offset="1" style="stop-color:#FE7062"/>
			</linearGradient>
			<path style="fill:url(#SVGID_00000024700984576159245890000016065649379329383309_);" d="M3000.702,2929.459
				c-0.992-9.308-2.009-18.632-3.033-27.866c-10.503-94.751-58.859-179.802-132.455-232.737l-5.701-4.096
				c-88.642-63.754-190.476-102.972-296.503-114.187l-172.267-18.221l-1135.497,6.694c-23.898,0.119-34.055-32.757-14.875-48.131
				l69.076-55.379c70.263-56.333,155.475-86.748,243.015-86.748h530.874l-3.981-1.792c-31.899-14.354-66.118-21.745-100.679-21.745
				h-499.935c-30.376,0-60.578,4.912-89.605,14.564l-376.017,150.126c-18.583,6.184-35.172,17.893-47.865,33.785l-77.674,97.266
				c-16.167,20.245-25.06,46.079-25.06,72.802v158.501c0,41.95,137.509,185.284,137.509,185.284
				c14.978,8.229,31.547,12.518,48.355,12.518h1689.205l179.405-12.61C2968.375,3033.874,3006.586,2984.64,3000.702,2929.459z"/>
			
				<linearGradient id="SVGID_00000107580294869616577490000009467845308920225156_" gradientUnits="userSpaceOnUse" x1="2877.5562" y1="2846.1936" x2="2534.7095" y2="3222.5522" gradientTransform="matrix(1 0 0 1 190.4042 0)">
				<stop  offset="0" style="stop-color:#4F52FF"/>
				<stop  offset="1" style="stop-color:#4042E2"/>
			</linearGradient>
			<path style="fill:url(#SVGID_00000107580294869616577490000009467845308920225156_);" d="M2994.737,3001.258h-5.37
				c-10.455,0-18.93-9.144-18.93-20.423v-102.627c0-11.28,8.475-20.423,18.93-20.423l0,0c10.041,0,18.335,8.457,18.901,19.272
				l5.37,102.627C3014.25,2991.397,3005.611,3001.258,2994.737,3001.258z"/>
			
				<linearGradient id="SVGID_00000029036538570462501450000017247783697723739070_" gradientUnits="userSpaceOnUse" x1="2590.4861" y1="2875.929" x2="3026.4119" y2="2445.0728" gradientTransform="matrix(1 0 0 1 190.4042 0)">
				<stop  offset="0" style="stop-color:#E1473D"/>
				<stop  offset="1" style="stop-color:#E9605A"/>
			</linearGradient>
			<path style="fill:url(#SVGID_00000029036538570462501450000017247783697723739070_);" d="M2928.119,2838.089h56.367
				c-20.98-68.622-62.597-128.469-119.271-169.233l-5.701-4.096c-5.874-4.223-11.813-8.324-17.801-12.334
				c11.507,43.307,25.695,102.691,35.036,142.546C2882.7,2820.354,2903.85,2838.089,2928.119,2838.089z"/>
			
				<linearGradient id="SVGID_00000067934514782643203960000010758862154072227226_" gradientUnits="userSpaceOnUse" x1="672.9259" y1="2585.3047" x2="822.7167" y2="2585.3047" gradientTransform="matrix(1 0 0 1 190.4042 0)">
				<stop  offset="0" style="stop-color:#FF928E"/>
				<stop  offset="1" style="stop-color:#FE7062"/>
			</linearGradient>
			<path style="fill:url(#SVGID_00000067934514782643203960000010758862154072227226_);" d="M1013.121,2607.304v-117.361
				c-18.583,6.184-35.172,17.893-47.865,33.785l-77.674,97.266c-13.497,16.901-21.836,37.716-24.252,59.673l106.031-18.099
				C994.562,2658.27,1013.121,2634.829,1013.121,2607.304z"/>
			
				<linearGradient id="SVGID_00000044158881471703951360000011651393342651849643_" gradientUnits="userSpaceOnUse" x1="2582.9873" y1="1907.3101" x2="2349.8174" y2="2191.1687">
				<stop  offset="0" style="stop-color:#FF928E"/>
				<stop  offset="1" style="stop-color:#FE7062"/>
			</linearGradient>
			<path style="fill:url(#SVGID_00000044158881471703951360000011651393342651849643_);" d="M2204.164,2527.19l-39.924-41.851
				c-16.636-17.439-37.574-29.344-60.313-34.29l-78.963-17.178c-21.669-4.714-42.41,11.674-44.781,35.384l-0.557,5.57
				c-2.415,24.151,15.267,45.155,37.781,44.879l101.728-1.247c14.187-0.174,27.079,8.874,32.682,22.936l1.874,4.703
				c2.487,6.242,8.18,10.287,14.477,10.287h25.014C2207.331,2556.383,2214.311,2537.826,2204.164,2527.19z"/>
			
				<linearGradient id="SVGID_00000007398765209493280500000010578317749419731124_" gradientUnits="userSpaceOnUse" x1="1587.6537" y1="2733.3459" x2="1696.7457" y2="2624.2539" gradientTransform="matrix(1 0 0 1 190.4042 0)">
				<stop  offset="0" style="stop-color:#E1473D"/>
				<stop  offset="1" style="stop-color:#E9605A"/>
			</linearGradient>
			<path style="fill:url(#SVGID_00000007398765209493280500000010578317749419731124_);" d="M1795.111,2603.001h174.114
				c13.581,0,23.155,14.561,18.446,28.303c-7.966,23.251-26.942,52.907-72.041,56.371c-40.561,3.115-91.685-21.662-130.247-45.204
				C1767.902,2631.799,1775.025,2603.001,1795.111,2603.001z"/>
			
				<linearGradient id="SVGID_00000155832651990211848580000006865401611678969751_" gradientUnits="userSpaceOnUse" x1="862.2019" y1="3008.2671" x2="1321.8945" y2="3008.2671" gradientTransform="matrix(1 0 0 1 190.4042 0)">
				<stop  offset="0" style="stop-color:#09005D"/>
				<stop  offset="1" style="stop-color:#1A0F91"/>
			</linearGradient>
			
				<circle style="fill:url(#SVGID_00000155832651990211848580000006865401611678969751_);" cx="1282.453" cy="3008.267" r="229.846"/>
			
				<linearGradient id="SVGID_00000123403193914275546040000000210232930121685377_" gradientUnits="userSpaceOnUse" x1="1275.9958" y1="2706.8762" x2="766.5256" y2="3541.624" gradientTransform="matrix(1 0 0 1 190.4042 0)">
				<stop  offset="0" style="stop-color:#4F52FF"/>
				<stop  offset="1" style="stop-color:#4042E2"/>
			</linearGradient>
			
				<circle style="opacity:0.53;fill:url(#SVGID_00000123403193914275546040000000210232930121685377_);" cx="1282.453" cy="3008.267" r="186.66"/>
			
				<linearGradient id="SVGID_00000179639242614444735060000012256196548173522318_" gradientUnits="userSpaceOnUse" x1="2217.8171" y1="3008.2671" x2="2677.5105" y2="3008.2671" gradientTransform="matrix(1 0 0 1 190.4042 0)">
				<stop  offset="0" style="stop-color:#09005D"/>
				<stop  offset="1" style="stop-color:#1A0F91"/>
			</linearGradient>
			
				<circle style="fill:url(#SVGID_00000179639242614444735060000012256196548173522318_);" cx="2638.068" cy="3008.267" r="229.846"/>
			
				<linearGradient id="SVGID_00000019665585897878543590000015841695009906187420_" gradientUnits="userSpaceOnUse" x1="2647.4138" y1="2667.1553" x2="2137.9429" y2="3537.176" gradientTransform="matrix(1 0 0 1 190.4042 0)">
				<stop  offset="0" style="stop-color:#4F52FF"/>
				<stop  offset="1" style="stop-color:#4042E2"/>
			</linearGradient>
			
				<circle style="opacity:0.53;fill:url(#SVGID_00000019665585897878543590000015841695009906187420_);" cx="2638.068" cy="3008.267" r="186.66"/>
			<path style="fill:#91B3FA;" d="M2790.345,3075.795c-0.415,0-0.837-0.083-1.245-0.255c-1.627-0.687-2.388-2.564-1.699-4.191
				c8.45-19.978,12.733-41.201,12.733-63.082c0-89.364-72.703-162.067-162.066-162.067c-27.723,0-55.081,7.119-79.113,20.588
				c-1.54,0.864-3.489,0.315-4.354-1.228c-0.864-1.54-0.314-3.49,1.228-4.354c24.985-14.001,53.423-21.403,82.24-21.403
				c92.891,0,168.463,75.572,168.463,168.463c0,22.741-4.454,44.803-13.239,65.574
				C2792.777,3075.061,2791.592,3075.795,2790.345,3075.795z"/>
			<path style="fill:#91B3FA;" d="M1439.239,3075.795c-0.415,0-0.837-0.083-1.245-0.255c-1.627-0.687-2.388-2.564-1.699-4.191
				c8.45-19.979,12.735-41.203,12.735-63.082c0-89.364-72.703-162.067-162.068-162.067c-27.721,0-55.079,7.119-79.113,20.588
				c-1.535,0.864-3.487,0.315-4.354-1.228c-0.864-1.541-0.314-3.49,1.227-4.354c24.987-14.001,53.425-21.403,82.24-21.403
				c92.891,0,168.464,75.572,168.464,168.463c0,22.74-4.455,44.802-13.241,65.574
				C1441.67,3075.061,1440.485,3075.795,1439.239,3075.795z"/>
			<path style="opacity:0.7;fill:#FFFFFF;" d="M1560.571,2937.393c-1.505,0-2.847-1.066-3.139-2.6
				c-20.422-107.378-81.615-175.72-181.877-203.124c-75.066-20.519-145.097-9.09-145.795-8.974c-1.735,0.306-3.392-0.878-3.685-2.62
				c-0.295-1.741,0.879-3.392,2.62-3.685c0.709-0.12,71.947-11.77,148.343,9.054c70.77,19.293,160.605,71.068,186.677,208.154
				c0.33,1.735-0.809,3.411-2.544,3.74C1560.969,2937.375,1560.769,2937.393,1560.571,2937.393z"/>
			<path style="opacity:0.7;fill:#FFFFFF;" d="M2357.337,2972.415c-1.721,0-3.14-1.366-3.195-3.098
				c-2.651-84.704,20.043-151.05,67.45-197.198c78.258-76.174,198.331-70.101,199.534-70.041c1.763,0.103,3.109,1.616,3.006,3.379
				c-0.103,1.76-1.558,3.073-3.378,3.008c-1.179-0.076-118.534-5.942-194.737,68.273c-46.042,44.841-68.074,109.568-65.482,192.379
				c0.055,1.765-1.331,3.242-3.097,3.296C2357.404,2972.415,2357.369,2972.415,2357.337,2972.415z"/>
			<path style="fill:#91B3FA;" d="M1262.499,2513.485c-1.112,0-2.194-0.581-2.783-1.616c-0.873-1.535-0.337-3.489,1.198-4.362
				l153.953-87.597c43.798-24.92,93.578-38.57,143.958-39.474l176.597-3.17c1.718,0.017,3.225,1.374,3.256,3.14
				c0.031,1.766-1.374,3.223-3.141,3.256l-176.597,3.17c-49.313,0.884-98.04,14.245-140.91,38.637l-153.953,87.597
				C1263.578,2513.351,1263.035,2513.485,1262.499,2513.485z"/>
		</g>
		<g>
			
				<linearGradient id="SVGID_00000041290464479543933360000013257586651695177380_" gradientUnits="userSpaceOnUse" x1="1162.9596" y1="1814.6658" x2="1100.7893" y2="2423.4141" gradientTransform="matrix(1 0 0 1 -539.9255 0)">
				<stop  offset="0" style="stop-color:#FEBBBA"/>
				<stop  offset="1" style="stop-color:#FF928E"/>
			</linearGradient>
			<path style="fill:url(#SVGID_00000041290464479543933360000013257586651695177380_);" d="M584.445,2291.222
				c-10.22-27.173-14.631-59.49-7.908-97.179c-41.267-7.182-79.768-21.898-113.55-45.322
				c-4.016,58.005,11.386,122.058,64.798,185.587l0,0c25.93,30.841,60.809,61.56,106.779,91.402l13.541,28.906l40.68-50.67
				C688.783,2403.947,613.397,2368.19,584.445,2291.222z"/>
			<g>
				
					<linearGradient id="SVGID_00000111893005764699139140000015693656516702176166_" gradientUnits="userSpaceOnUse" x1="1639.8323" y1="2055.2126" x2="1572.3966" y2="2715.5164" gradientTransform="matrix(1 0 0 1 -539.9255 0)">
					<stop  offset="0" style="stop-color:#FEBBBA"/>
					<stop  offset="1" style="stop-color:#FF928E"/>
				</linearGradient>
				<path style="fill:url(#SVGID_00000111893005764699139140000015693656516702176166_);" d="M1156.758,2038.814
					c-41.704,7.303-78.209,1.849-110.463-10.115c-0.85,7.164-2.059,14.366-3.732,21.615c-7.048,31.714-16.754,62.429-30.363,90.744
					c62.49,9.239,118.924-8.891,160.997-30.526C1173.781,2081.186,1165.767,2056.787,1156.758,2038.814z"/>
				
					<linearGradient id="SVGID_00000083080083827829107390000011813317857857921205_" gradientUnits="userSpaceOnUse" x1="5171.4297" y1="-8445.9639" x2="5097.082" y2="-8273.6123" gradientTransform="matrix(-1 0 0 1 1594.063 0)">
					<stop  offset="0" style="stop-color:#FF928E"/>
					<stop  offset="1" style="stop-color:#FE7062"/>
				</linearGradient>
				<path style="fill:url(#SVGID_00000083080083827829107390000011813317857857921205_);" d="M1046.295,2028.699
					c-54.179-20.097-96.361-58.566-131.01-85.831c-72.983-57.429-128.372-27.773-128.372-27.773l79.515,150.375
					c49.667,46.799,99.388,68.731,145.773,75.589c13.609-28.315,23.316-59.031,30.363-90.744
					C1044.236,2043.065,1045.445,2035.863,1046.295,2028.699z"/>
				
					<linearGradient id="SVGID_00000170277685130695410230000010766808300436633782_" gradientUnits="userSpaceOnUse" x1="829.616" y1="1780.6868" x2="304.0576" y2="2453.0928" gradientTransform="matrix(0.9998 -0.0189 0.0189 0.9998 563.8705 -2.4894)">
					<stop  offset="0" style="stop-color:#FEBBBA"/>
					<stop  offset="1" style="stop-color:#FF928E"/>
				</linearGradient>
				<path style="fill:url(#SVGID_00000170277685130695410230000010766808300436633782_);" d="M1312.983,1966.438l-36.778,21.461
					c-44.045,29.011-83.655,44.648-119.447,50.915c9.009,17.973,17.023,42.371,16.439,71.717
					c46.662-23.994,75.667-52.284,75.667-52.284C1332.082,2004.547,1312.983,1966.438,1312.983,1966.438z"/>
			</g>
			<g>
				
					<linearGradient id="SVGID_00000013169848449565643720000012355911654552338063_" gradientUnits="userSpaceOnUse" x1="882.3969" y1="2483.8396" x2="1324.7111" y2="2483.8396">
					<stop  offset="0" style="stop-color:#DAE3FE"/>
					<stop  offset="1" style="stop-color:#E9EFFD"/>
				</linearGradient>
				<path style="fill:url(#SVGID_00000013169848449565643720000012355911654552338063_);" d="M894.301,3015.232l-8.273,42.866
					c-14.196,73.556,14.5,140.942,64.097,150.514l58.961,11.379c49.596,9.571,101.308-42.297,115.504-115.853l8.273-42.865
					c0.548-2.838,1.035-5.689,1.46-8.547l190.389-1281.385l-128.458-24.792L896.126,3006.755
					C895.458,3009.566,894.848,3012.394,894.301,3015.232z M954.651,3023.385c10.688-55.378,46.026-95.124,78.932-88.775
					c32.906,6.352,50.918,56.394,40.23,111.773c-10.688,55.378-46.028,95.125-78.935,88.773
					C961.972,3128.805,943.962,3078.764,954.651,3023.385z"/>
				
					<linearGradient id="SVGID_00000110439325359583317660000002518203360254362035_" gradientUnits="userSpaceOnUse" x1="985.4668" y1="1546.4331" x2="1620.8684" y2="1546.4331">
					<stop  offset="0" style="stop-color:#DAE3FE"/>
					<stop  offset="1" style="stop-color:#E9EFFD"/>
				</linearGradient>
				<path style="fill:url(#SVGID_00000110439325359583317660000002518203360254362035_);" d="M1215.299,1299.768l-48.002,248.723
					c-3.418,17.709,1.578,36.001,13.523,49.515l61.228,69.272c17.477,19.773,46.08,25.292,69.66,13.444l82.608-41.513
					c16.115-8.099,27.56-23.218,30.978-40.927l48.002-248.722c7.24-37.515,55.606-49.608,78.944-19.356
					c55.833,72.371,81.463,169.162,62.363,268.123c-34.521,178.867-197.739,274.994-369.786,241.79
					s-287.771-183.167-253.251-362.033c19.099-98.962,78.906-179.265,157.66-225.661
					C1182.147,1233.03,1222.539,1262.252,1215.299,1299.768z"/>
				
					<linearGradient id="SVGID_00000179619652451924907270000018258775737522604460_" gradientUnits="userSpaceOnUse" x1="1783.1135" y1="1741.7178" x2="589.3571" y2="4595.96" gradientTransform="matrix(1 0 0 1 -539.9255 0)">
					<stop  offset="0" style="stop-color:#4F52FF"/>
					<stop  offset="1" style="stop-color:#4042E2"/>
				</linearGradient>
				<path style="fill:url(#SVGID_00000179619652451924907270000018258775737522604460_);" d="M1238.739,1304.292l-48.002,248.722
					c-3.418,17.709,1.577,36.002,13.522,49.515l61.23,69.273c17.477,19.774,46.079,25.293,69.659,13.443l82.609-41.512
					c16.115-8.098,27.559-23.218,30.977-40.926l48.002-248.723c7.24-37.517,55.605-49.608,78.944-19.358
					c55.833,72.372,81.461,169.163,62.363,268.125c-34.521,178.867-197.739,274.994-369.786,241.79
					c-172.046-33.205-287.771-183.166-253.251-362.034c19.099-98.961,78.906-179.264,157.662-225.66
					C1205.589,1237.553,1245.98,1266.776,1238.739,1304.292z"/>
				
					<linearGradient id="SVGID_00000017504334613317935470000004903855727102370495_" gradientUnits="userSpaceOnUse" x1="1975.1597" y1="1822.0392" x2="781.4046" y2="4676.2783" gradientTransform="matrix(1 0 0 1 -539.9255 0)">
					<stop  offset="0" style="stop-color:#4F52FF"/>
					<stop  offset="1" style="stop-color:#4042E2"/>
				</linearGradient>
				<path style="fill:url(#SVGID_00000017504334613317935470000004903855727102370495_);" d="M912.999,3018.84l-8.273,42.866
					c-14.195,73.556,14.501,140.943,64.096,150.514l58.962,11.38c49.597,9.571,101.308-42.297,115.504-115.853l8.273-42.866
					c0.547-2.837,1.035-5.689,1.46-8.546l190.388-1281.384l-128.457-24.791L914.825,3010.365
					C914.157,3013.175,913.547,3016.002,912.999,3018.84z M973.349,3026.993c10.687-55.378,46.026-95.125,78.933-88.774
					c32.905,6.351,50.918,56.392,40.23,111.772c-10.689,55.379-46.028,95.124-78.934,88.773
					C980.671,3132.414,962.661,3082.372,973.349,3026.993z"/>
			</g>
			
				<linearGradient id="SVGID_00000032620961828950745190000010910833117152719513_" gradientUnits="userSpaceOnUse" x1="-2.5223" y1="2885.814" x2="221.1009" y2="3478.4163" gradientTransform="matrix(-0.4243 0.9055 0.9055 0.4243 -1640.8872 493.1536)">
				<stop  offset="0" style="stop-color:#FEBBBA"/>
				<stop  offset="1" style="stop-color:#FF928E"/>
			</linearGradient>
			<path style="fill:url(#SVGID_00000032620961828950745190000010910833117152719513_);" d="M1317.778,2021.91
				c1.368-8.035-0.982-16.192-6.312-22.358c-10.329-11.949-28.175-28.32-41.119-17.286c-19.278,16.434,1.846,72.639,1.846,72.639
				l21.373,32.64l0.301,20.832C1305.43,2094.838,1312.345,2061.531,1317.778,2021.91z"/>
			
				<linearGradient id="SVGID_00000091014348169098507030000010331488936249591429_" gradientUnits="userSpaceOnUse" x1="904.6887" y1="2876.5105" x2="908.6933" y2="3316.9749" gradientTransform="matrix(0.9998 -0.0189 0.0189 0.9998 -203.7613 12.0052)">
				<stop  offset="0" style="stop-color:#020039"/>
				<stop  offset="1" style="stop-color:#090056"/>
			</linearGradient>
			<path style="fill:url(#SVGID_00000091014348169098507030000010331488936249591429_);" d="M825.052,3233.152
				c-0.003-0.892-0.079-1.794-0.325-2.7c-14.491-53.191-82.029-85.219-82.029-85.219l-26.476,2.58
				c-14.356,47.396-11.851,76.251-9.159,89.073c0.074,0.36,0.19,0.7,0.293,1.047C729.264,3239.474,774.307,3239.9,825.052,3233.152z
				"/>
			
				<linearGradient id="SVGID_00000143619527418786376300000018051616956182046614_" gradientUnits="userSpaceOnUse" x1="1147.759" y1="3056.2253" x2="712.2244" y2="3398.2083" gradientTransform="matrix(0.9998 -0.0189 0.0189 0.9998 -203.7613 12.0052)">
				<stop  offset="0" style="stop-color:#4F52FF"/>
				<stop  offset="1" style="stop-color:#4042E2"/>
			</linearGradient>
			<path style="fill:url(#SVGID_00000143619527418786376300000018051616956182046614_);" d="M707.355,3237.933
				c1.262,4.275,4.497,7.561,8.575,8.339c31.236,5.955,80.588-0.244,101.299-3.351c4.569-0.685,7.838-4.985,7.823-9.769
				C774.307,3239.9,729.264,3239.474,707.355,3237.933z"/>
			
				<linearGradient id="SVGID_00000072252426306939017730000008109082729947017610_" gradientUnits="userSpaceOnUse" x1="881.3474" y1="3061.1594" x2="858.4787" y2="3260.7422" gradientTransform="matrix(0.9998 -0.0189 0.0189 0.9998 -203.7613 12.0052)">
				<stop  offset="0" style="stop-color:#FEBBBA"/>
				<stop  offset="1" style="stop-color:#FF928E"/>
			</linearGradient>
			<path style="fill:url(#SVGID_00000072252426306939017730000008109082729947017610_);" d="M704.815,3108.521l12.251,53.848
				c0.897,3.945,3.998,6.854,7.691,7.131c4.521,0.338,10.95,0.466,17.393-0.606c5.778-0.96,9.7-6.924,8.554-13.222l-8.711-47.853
				L704.815,3108.521z"/>
			
				<linearGradient id="SVGID_00000025408429538706660930000012853181120296859827_" gradientUnits="userSpaceOnUse" x1="1225.1332" y1="3154.7642" x2="789.5974" y2="3496.748" gradientTransform="matrix(0.9998 -0.0189 0.0189 0.9998 -203.7613 12.0052)">
				<stop  offset="0" style="stop-color:#4F52FF"/>
				<stop  offset="1" style="stop-color:#4042E2"/>
			</linearGradient>
			<path style="fill:url(#SVGID_00000025408429538706660930000012853181120296859827_);" d="M939.921,3232.999
				c-29.298-0.268-44.51-3.43-52.399-6.483c0.036,2.912,0.108,5.876,0.261,8.944c0.162,3.277,2.641,5.85,5.628,5.775l160.764-4.074
				c5.13-0.13,8.016-6.137,5.704-10.8C1038.83,3228.499,985.212,3233.411,939.921,3232.999z"/>
			
				<linearGradient id="SVGID_00000176032548052232960560000009335801092308728497_" gradientUnits="userSpaceOnUse" x1="1113.2336" y1="2874.6157" x2="1117.2382" y2="3315.0837" gradientTransform="matrix(0.9998 -0.0189 0.0189 0.9998 -203.7613 12.0052)">
				<stop  offset="0" style="stop-color:#020039"/>
				<stop  offset="1" style="stop-color:#090056"/>
			</linearGradient>
			<path style="fill:url(#SVGID_00000176032548052232960560000009335801092308728497_);" d="M1059.879,3226.361
				c-0.202-0.406-0.376-0.82-0.66-1.201c-14.573-19.572-51.486-58.397-123.271-74.183l-34.304-0.436
				c0,0-14.764,26.822-14.123,75.974c7.89,3.053,23.101,6.215,52.399,6.483C985.212,3233.411,1038.83,3228.499,1059.879,3226.361z"
				/>
			
				<linearGradient id="SVGID_00000147214809433229758220000011118284992534021538_" gradientUnits="userSpaceOnUse" x1="1067.6282" y1="3082.5098" x2="1044.76" y2="3282.0881" gradientTransform="matrix(0.9998 -0.0189 0.0189 0.9998 -203.7613 12.0052)">
				<stop  offset="0" style="stop-color:#FEBBBA"/>
				<stop  offset="1" style="stop-color:#FF928E"/>
			</linearGradient>
			<path style="fill:url(#SVGID_00000147214809433229758220000011118284992534021538_);" d="M894.307,3098.705
				c0.429,2.549,5.862,41.299,7.965,56.323c0.499,3.569,3.144,6.291,6.419,6.618c5.851,0.588,15.31,1.044,23.542-0.806
				c4.441-1,7.588-5.342,7.494-10.323l-1.151-60.966L894.307,3098.705z"/>
			
				<linearGradient id="SVGID_00000140713913369075125490000014946914718212885924_" gradientUnits="userSpaceOnUse" x1="1255.5507" y1="1775.2324" x2="794.7119" y2="3319.3428" gradientTransform="matrix(0.9998 -0.0189 0.0189 0.9998 -203.7613 12.0052)">
				<stop  offset="0" style="stop-color:#09005D"/>
				<stop  offset="1" style="stop-color:#1A0F91"/>
			</linearGradient>
			<path style="fill:url(#SVGID_00000140713913369075125490000014946914718212885924_);" d="M850.299,2368.94
				c0,0,95.298,395.61,101.271,791.08c0.108,7.21-55.039,13.571-56.302,6.931c-12.878-67.773-97.771-509.205-136.854-570.672
				c0,0,0.882,389.046,12.196,565.885c0.281,4.397-49.737,18.804-60.182,7.579c0,0-70.487-430.571-73.377-700.775
				c-0.149-13.916,24.968-100.027,24.968-100.027H850.299z"/>
			
				<linearGradient id="SVGID_00000010283597701512484310000000541767000168895903_" gradientUnits="userSpaceOnUse" x1="1459.939" y1="1947.2048" x2="1458.4572" y2="1961.714" gradientTransform="matrix(1 0 0 1 -539.9255 0)">
				<stop  offset="0" style="stop-color:#FDF53F"/>
				<stop  offset="0.6645" style="stop-color:#E57A58"/>
				<stop  offset="1" style="stop-color:#D93C65"/>
			</linearGradient>
			<path style="fill:url(#SVGID_00000010283597701512484310000000541767000168895903_);" d="M920.8,1948.099
				C914.904,1940.546,922.335,1963.449,920.8,1948.099L920.8,1948.099z"/>
			
				<linearGradient id="SVGID_00000162319828962740441340000007982241461469356210_" gradientUnits="userSpaceOnUse" x1="5386.8818" y1="-8353.0391" x2="5312.5347" y2="-8180.688" gradientTransform="matrix(-1 0 0 1 1594.063 0)">
				<stop  offset="0" style="stop-color:#FF928E"/>
				<stop  offset="1" style="stop-color:#FE7062"/>
			</linearGradient>
			<path style="fill:url(#SVGID_00000162319828962740441340000007982241461469356210_);" d="M920.8,1948.099
				c-0.143-1.428-0.361-3.178-0.677-5.324c-104.255-72.28-258.425-31.787-318.191-23.109c-19.597,2.845-37.38,12.869-50.042,28.095
				c-30.448,36.611-82.717,111.609-88.903,200.96c33.782,23.424,72.284,38.14,113.55,45.322c3.44-19.283,9.787-39.969,19.779-62.099
				c1.147,5.116,2.542,10.177,4.214,15.151c44.907,133.438,68.332,209.635,68.723,235.381c0.052,3.496,205.705-5.023,169.281-6.088
				c-15.219-0.445,70.902-304.242,115.901-358.159C957.108,2015.027,914.904,1940.546,920.8,1948.099z"/>
			
				<linearGradient id="SVGID_00000165948954078449627780000006291544604305811111_" gradientUnits="userSpaceOnUse" x1="931.8953" y1="1785.2986" x2="844.5797" y2="2162.627" gradientTransform="matrix(0.9998 -0.0189 0.0189 0.9998 -203.7613 12.0052)">
				<stop  offset="0" style="stop-color:#FEBBBA"/>
				<stop  offset="1" style="stop-color:#FF928E"/>
			</linearGradient>
			<path style="fill:url(#SVGID_00000165948954078449627780000006291544604305811111_);" d="M696.281,1809.957l-8.674,110.011
				c0,0,62.125,17.44,106.454-15.11l-33.468-99.203L696.281,1809.957z"/>
			<g>
				
					<linearGradient id="SVGID_00000086682002619227320780000016320631840757887880_" gradientUnits="userSpaceOnUse" x1="1264.1185" y1="1823.4451" x2="1331.2626" y2="1715.2683" gradientTransform="matrix(1 0 0 1 -539.9255 0)">
					<stop  offset="0" style="stop-color:#FEBBBA"/>
					<stop  offset="1" style="stop-color:#FF928E"/>
				</linearGradient>
				<path style="fill:url(#SVGID_00000086682002619227320780000016320631840757887880_);" d="M765.596,1683.448
					c1.514,1.372,65.044,120.514,65.044,120.514l-68.799,34.829l-76.991-103.976C684.85,1734.815,740.264,1660.489,765.596,1683.448
					z"/>
				
					<linearGradient id="SVGID_00000086672506527374202960000016703927981912592259_" gradientUnits="userSpaceOnUse" x1="1015.1036" y1="1377.7141" x2="965.5385" y2="1452.0616">
					<stop  offset="0" style="stop-color:#09005D"/>
					<stop  offset="1" style="stop-color:#1A0F91"/>
				</linearGradient>
				<path style="fill:url(#SVGID_00000086672506527374202960000016703927981912592259_);" d="M742.468,1708.954
					c-15.432,2.263-23.596,19.308-26.843,28.199c-1.177,3.228-0.805,6.799,1.017,9.711l35.719,57.073
					c0.543,0.866,1.183,1.645,1.944,2.328c4.194,3.759,18.509,14.652,29.126-0.748c9.049-13.126,17.546-25.064,26.798-30.096
					c5.402-2.939,12.16-0.801,15.033,4.636c5.919,11.201,17.405,34.043,24.761,55.77c1.843,5.446-0.874,11.381-6.16,13.64
					c-13.951,5.962-41.543,16.787-66.137,20.656c-4.04,0.636-8.083-0.998-10.555-4.255c-10.882-14.332-41.549-54.381-51.945-64.354
					c-9.659-9.266-27.09-5.375-34.931-2.96c-2.977,0.917-6.171,0.563-8.869-0.993c-8.091-4.667-22.278-16.403-9.891-36.958
					c3.079-5.111,1.334-11.809-3.713-14.993c-9.042-5.707-18.942-16.551-10.044-34.586c11.238-22.776,43.092-20.63,60.967-37.409
					c8.811-8.27,17.47-17.475,28.915-21.353c2.456-0.832,5.029-1.403,7.621-1.35c11.246,0.227,28.274,18.761,29.04,29.955
					C775.414,1696.852,755.907,1706.984,742.468,1708.954z"/>
				
					<linearGradient id="SVGID_00000073715479977949650670000007956306689722781592_" gradientUnits="userSpaceOnUse" x1="-810.2826" y1="116.3531" x2="-686.0317" y2="-11.125" gradientTransform="matrix(0.6715 -0.7409 0.7409 0.6715 1171.6327 1305.1805)">
					<stop  offset="0" style="stop-color:#FEBBBA"/>
					<stop  offset="1" style="stop-color:#FF928E"/>
				</linearGradient>
				<path style="fill:url(#SVGID_00000073715479977949650670000007956306689722781592_);" d="M728.632,1822.468
					c0,0-14.057-38.726-31.082-36.973c-17.025,1.752-30.125,18.993-8.632,37.69C715.654,1846.441,728.632,1822.468,728.632,1822.468
					z"/>
			</g>
			
				<linearGradient id="SVGID_00000079451310741317947060000017085207322893047209_" gradientUnits="userSpaceOnUse" x1="847.6584" y1="1876.0439" x2="666.9033" y2="2208.1294" gradientTransform="matrix(0.9998 -0.0189 0.0189 0.9998 -203.7613 12.0052)">
				<stop  offset="0" style="stop-color:#E1473D"/>
				<stop  offset="1" style="stop-color:#E9605A"/>
			</linearGradient>
			<path style="fill:url(#SVGID_00000079451310741317947060000017085207322893047209_);" d="M590.501,2122.011
				c-23.637-61.086-16.886-135.517-16.815-136.261l6.206,0.59c-0.068,0.731-6.673,73.733,16.427,133.42L590.501,2122.011z"/>
			
				<linearGradient id="SVGID_00000078745085997032691770000011294453176600547502_" gradientUnits="userSpaceOnUse" x1="1876.5449" y1="1778.4701" x2="1325.9305" y2="2478.7092" gradientTransform="matrix(1 0 0 1 -539.9255 0)">
				<stop  offset="0" style="stop-color:#09005D"/>
				<stop  offset="1" style="stop-color:#1A0F91"/>
			</linearGradient>
			<path style="fill:url(#SVGID_00000078745085997032691770000011294453176600547502_);" d="M755.224,2588.325
				c-1.385,0.026-2.67-0.88-3.059-2.278c-7.356-26.317-59.251-54.411-59.774-54.692c-1.517-0.813-2.089-2.704-1.274-4.222
				c0.815-1.517,2.695-2.09,4.222-1.274c2.23,1.197,54.763,29.637,62.832,58.509c0.464,1.659-0.506,3.38-2.164,3.842
				C755.747,2588.284,755.482,2588.32,755.224,2588.325z"/>
			
				<linearGradient id="SVGID_00000096780865450560049520000006378363293331852196_" gradientUnits="userSpaceOnUse" x1="1406.1262" y1="1811.5325" x2="945.2864" y2="3355.6465" gradientTransform="matrix(1 0 0 1 -539.9255 0)">
				<stop  offset="0" style="stop-color:#09005D"/>
				<stop  offset="1" style="stop-color:#1A0F91"/>
			</linearGradient>
			<path style="fill:url(#SVGID_00000096780865450560049520000006378363293331852196_);" d="M607.241,2170.806l76.73-115.601
				c0.549-0.828,1.476-1.325,2.469-1.325h140.481c2.305,0,4.438,1.217,5.611,3.202l66.767,112.989
				c1.159,1.96,1.571,4.273,1.161,6.513c-26.432,80.255-52,159.233-50.162,197.664c-47.88,37.406-132.119,29.59-189.626,12.384
				c-2.959-50.144-27.629-129.067-54.425-210.806C605.904,2174.086,606.261,2172.282,607.241,2170.806z"/>
			
				<linearGradient id="SVGID_00000010298948571274567620000000449381989737025414_" gradientUnits="userSpaceOnUse" x1="1278.8911" y1="1773.5587" x2="818.051" y2="3317.6738" gradientTransform="matrix(1 0 0 1 -539.9255 0)">
				<stop  offset="0" style="stop-color:#09005D"/>
				<stop  offset="1" style="stop-color:#1A0F91"/>
			</linearGradient>
			<path style="fill:url(#SVGID_00000010298948571274567620000000449381989737025414_);" d="M633.281,1915.584l51.57,148.195h31.036
				l-45.858-154.32c-0.451-1.518-1.989-2.438-3.54-2.119l-32.309,6.66C633.463,1914.149,633.04,1914.894,633.281,1915.584z"/>
			
				<linearGradient id="SVGID_00000090296938905755615600000004136832261606852792_" gradientUnits="userSpaceOnUse" x1="1409.075" y1="1812.4125" x2="948.2371" y2="3356.5198" gradientTransform="matrix(1 0 0 1 -539.9255 0)">
				<stop  offset="0" style="stop-color:#09005D"/>
				<stop  offset="1" style="stop-color:#1A0F91"/>
			</linearGradient>
			<path style="fill:url(#SVGID_00000090296938905755615600000004136832261606852792_);" d="M809.916,1905.161l-12.66,154.522
				l28.641,3.515l24.378-154.058c0.177-1.115-0.627-2.147-1.751-2.25l-36.679-3.351
				C810.863,1903.45,809.996,1904.178,809.916,1905.161z"/>
			<g>
				
					<linearGradient id="SVGID_00000104676928571400399200000013908801110538088884_" gradientUnits="userSpaceOnUse" x1="837.1231" y1="1608.6726" x2="362.3079" y2="2134.0005" gradientTransform="matrix(-1 0 0 1 1457.7305 0)">
					<stop  offset="0" style="stop-color:#09005D"/>
					<stop  offset="1" style="stop-color:#1A0F91"/>
				</linearGradient>
				<path style="fill:url(#SVGID_00000104676928571400399200000013908801110538088884_);" d="M804.895,1691.08
					c-61.233-115.663-219.941-10.587-146.08,86.847C713.732,1741.413,775.786,1687.132,804.895,1691.08z"/>
				
					<linearGradient id="SVGID_00000003065755902726072810000011512742479363656579_" gradientUnits="userSpaceOnUse" x1="44.8676" y1="1890.3466" x2="199.7557" y2="1890.3466" gradientTransform="matrix(-0.9854 0.1702 0.1702 0.9854 581.0863 -177.5386)">
					<stop  offset="0" style="stop-color:#09005D"/>
					<stop  offset="1" style="stop-color:#1A0F91"/>
				</linearGradient>
				<path style="fill:url(#SVGID_00000003065755902726072810000011512742479363656579_);" d="M800.893,1678.613
					c123.795-6.301,21.891,39.597-90.849,64.095C738.107,1712.917,766.163,1690.714,800.893,1678.613z"/>
			</g>
		</g>
		<g>
			<g>
				<g>
					
						<linearGradient id="SVGID_00000091724206017803912840000012400039128931260545_" gradientUnits="userSpaceOnUse" x1="-373.0453" y1="1069.3706" x2="-373.0453" y2="221.7716" gradientTransform="matrix(-1 0 0 1 1594.063 0)">
						<stop  offset="0" style="stop-color:#FF928E"/>
						<stop  offset="1" style="stop-color:#FE7062"/>
					</linearGradient>
					
						<circle style="fill:url(#SVGID_00000091724206017803912840000012400039128931260545_);" cx="1967.108" cy="672.849" r="183.441"/>
					
						<linearGradient id="SVGID_00000090991611269688253600000013282777146883927205_" gradientUnits="userSpaceOnUse" x1="-373.2035" y1="1069.297" x2="-373.2035" y2="221.2112" gradientTransform="matrix(-1 0 0 1 1594.063 0)">
						<stop  offset="0" style="stop-color:#FF928E"/>
						<stop  offset="1" style="stop-color:#FE7062"/>
					</linearGradient>
					<path style="fill:url(#SVGID_00000090991611269688253600000013282777146883927205_);" d="M1784.003,657.079h183.106h183.441
						c0,0,14.604,104.786-149.114,383.667c-7.143,12.168-20.195,20.923-34.304,20.929c-14.109,0.007-27.184-9.369-34.326-21.537
						C1769.103,761.233,1784.003,657.079,1784.003,657.079z"/>
				</g>
				<g>
					<path style="fill:#FFFFFF;" d="M1928.85,1047.04c-94.068-160.266-129.948-262.323-142.943-319.948
						c-5.02-17.181-7.566-35.028-7.566-53.045l0.008-0.678c-0.105-5.515,0.163-8.815,0.303-10.115
						c5.594-99.322,88.345-177.102,188.455-177.102c98.812,0,180.822,76.675,188.213,175.213l0.482,2.911
						c0.1,0.607,0.948,6.305-0.16,19.946c-0.65,13.335-2.707,26.245-6.289,39.512c-12.561,57.676-47.628,160.557-143.326,323.572
						c-8.024,13.666-22.927,22.065-38.894,22.065h1.254v-0.259C1948.111,1069.111,1936.924,1060.797,1928.85,1047.04z
						 M2145.202,670.597l-0.268-5.081c-5.377-94.573-83.463-168.711-177.791-168.711c-94.509,0-172.585,73.438-177.793,167.188
						l0.043,0.309c-0.086,0.753-0.115,3.625-0.115,8.935v0.06l-1.906,0.749c0,17.06,1.906,33.954,5.285,50.211v0.329
						c13.518,56.855,50.198,158.054,143.662,317.294c6.17,10.512,18.551,17.043,32.069,17.043v5.325l-0.621-5.324
						c12.208-0.005,22.955-6.482,29.075-16.906c95.057-161.922,129.76-263.727,142.134-320.62l0.063-0.253
						c3.408-12.591,5.361-24.839,5.971-37.471l0.012-0.148c0.483-5.914,0.566-12.929,0.522-12.929H2145.202z"/>
				</g>
				
					<ellipse transform="matrix(0.7071 -0.7071 0.7071 0.7071 100.6214 1587.437)" style="opacity:0.8;fill:#FFFFFF;" cx="1966.517" cy="672.258" rx="105.922" ry="105.922"/>
				<g>
					
						<linearGradient id="SVGID_00000170273595117042737210000012036649769337765296_" gradientUnits="userSpaceOnUse" x1="-292.5338" y1="159.9523" x2="-424.2325" y2="1004.1727" gradientTransform="matrix(-1 0 0 1 1594.063 0)">
						<stop  offset="0" style="stop-color:#FF928E"/>
						<stop  offset="1" style="stop-color:#FE7062"/>
					</linearGradient>
					<path style="fill:url(#SVGID_00000170273595117042737210000012036649769337765296_);" d="M1854.677,672.258
						c0-61.669,50.171-111.84,111.84-111.84c61.669,0,111.84,50.171,111.84,111.84c0,61.669-50.171,111.84-111.84,111.84
						C1904.848,784.097,1854.677,733.927,1854.677,672.258z M1866.512,672.258c0,55.143,44.862,100.005,100.005,100.005
						s100.005-44.862,100.005-100.005c0-55.143-44.862-100.005-100.005-100.005S1866.512,617.115,1866.512,672.258z"/>
				</g>
			</g>
			<g>
				<path style="fill:#FFFFFF;" d="M2066.995,561.976c0.499,0,0.996-0.21,1.348-0.618c0.638-0.744,0.553-1.864-0.191-2.503
					c-29.756-25.555-67.773-39.629-107.049-39.629c-0.98,0-1.775,0.795-1.775,1.775c0,0.981,0.795,1.776,1.775,1.776
					c38.428,0,75.623,13.769,104.736,38.771C2066.173,561.835,2066.585,561.976,2066.995,561.976z"/>
			</g>
			<g>
				<path style="fill:#FFFFFF;" d="M2123.714,685.387c0.981,0,1.775-0.795,1.775-1.775c0-30.673-8.503-60.596-24.591-86.531
					c-0.518-0.834-1.612-1.09-2.445-0.573c-0.833,0.517-1.09,1.611-0.573,2.444c15.74,25.374,24.059,54.649,24.059,84.66
					C2121.939,684.593,2122.734,685.387,2123.714,685.387z"/>
			</g>
			<g>
				<circle style="fill:#FFFFFF;" cx="1958.146" cy="1126.286" r="35.194"/>
			</g>
		</g>
	</g>
</g>
</svg>
