<?xml version="1.0" encoding="utf-8"?>
<!-- Generator: Adobe Illustrator 27.5.0, SVG Export Plug-In . SVG Version: 6.00 Build 0)  -->
<svg version="1.1" xmlns="http://www.w3.org/2000/svg" xmlns:xlink="http://www.w3.org/1999/xlink" x="0px" y="0px"
	 viewBox="0 0 750 500" style="enable-background:new 0 0 750 500;" xml:space="preserve">

<g id="OBJECTS">
	<g>
		<g>
			<path style="fill:#EBE3FF;" d="M257.773,148.798c-101.354,52.612-144.551,26.706-181.008,74.991
				c-26.543,35.154-37.51,111.22,42.532,176.807c93.943,76.977,408.123,69.823,517.466,9.876
				c58.984-32.337,67.572-76.358,43.688-106.05c-31.46-39.111-5.862-56.421-3.531-90.518
				c3.531-51.641-69.924-142.122-199.217-159.558C283.37,28.138,338.67,106.805,257.773,148.798z"/>
		</g>
		<path style="fill:none;stroke:#FFFFFF;stroke-width:4;stroke-miterlimit:10;" d="M199.626,295.37v-17.476
			c0-5.195,4.212-9.407,9.407-9.407h25.699c5.195,0,9.407,4.212,9.407,9.407v45.844c0,5.196,4.212,9.407,9.407,9.407h9.723"/>
		<g>
			
				<ellipse transform="matrix(0.7071 -0.7071 0.7071 0.7071 -61.2754 135.0855)" style="fill:#97F2D6;" cx="132.425" cy="141.509" rx="34.092" ry="34.092"/>
			<g>
				<g>
					<rect x="132.423" y="93.502" style="fill:#97F2D6;" width="1.469" height="20.008"/>
				</g>
				<path style="fill:#97F2D6;" d="M135.558,93.502c0,1.325-1.074,2.4-2.4,2.4c-1.325,0-2.399-1.074-2.399-2.4
					c0-1.325,1.074-2.4,2.399-2.4C134.484,91.102,135.558,92.176,135.558,93.502z"/>
			</g>
			<g>
				<g>
					
						<rect x="104.775" y="100.337" transform="matrix(0.7071 -0.7071 0.7071 0.7071 -47.1203 106.9324)" style="fill:#97F2D6;" width="1.469" height="20.008"/>
				</g>
				<path style="fill:#97F2D6;" d="M100.133,101.57c0.937,0.937,0.937,2.456,0,3.394c-0.937,0.937-2.456,0.937-3.394,0
					c-0.937-0.937-0.937-2.456,0-3.394C97.677,100.633,99.196,100.633,100.133,101.57z"/>
			</g>
			<g>
				<g>
					<rect x="80.828" y="135.835" style="fill:#97F2D6;" width="20.008" height="1.469"/>
				</g>
				<path style="fill:#97F2D6;" d="M80.827,134.169c1.325,0,2.399,1.074,2.399,2.4c0,1.325-1.074,2.4-2.399,2.4
					c-1.325,0-2.4-1.074-2.4-2.4C78.428,135.243,79.502,134.169,80.827,134.169z"/>
			</g>
			<g>
				<g>
					
						<rect x="97.342" y="168.102" transform="matrix(0.6396 -0.7687 0.7687 0.6396 -91.1002 143.3762)" style="fill:#97F2D6;" width="20.008" height="1.469"/>
				</g>
				<path style="fill:#97F2D6;" d="M99.102,174.993c0.848-1.019,2.36-1.158,3.379-0.31c1.019,0.848,1.158,2.361,0.31,3.379
					c-0.847,1.019-2.36,1.158-3.379,0.31C98.393,177.525,98.255,176.012,99.102,174.993z"/>
			</g>
			<g>
				<g>
					
						<rect x="157.013" y="157.904" transform="matrix(0.6743 -0.7385 0.7385 0.6743 -72.6142 171.1924)" style="fill:#97F2D6;" width="1.469" height="20.008"/>
				</g>
				<path style="fill:#97F2D6;" d="M163.518,176.426c-0.979-0.893-1.048-2.411-0.154-3.39c0.894-0.979,2.411-1.048,3.39-0.154
					c0.979,0.894,1.048,2.411,0.154,3.39C166.014,177.251,164.496,177.32,163.518,176.426z"/>
			</g>
			<g>
				<g>
					<rect x="133.355" y="165.43" style="fill:#97F2D6;" width="1.469" height="20.008"/>
				</g>
				<circle style="fill:#97F2D6;" cx="134.089" cy="185.439" r="2.399"/>
			</g>
			<g>
				<g>
					
						<rect x="159.882" y="145.356" transform="matrix(0.2845 -0.9587 0.9587 0.2845 -34.0243 265.1287)" style="fill:#97F2D6;" width="1.469" height="20.008"/>
				</g>
				<path style="fill:#97F2D6;" d="M169.524,160.508c-1.27-0.377-1.995-1.713-1.617-2.983c0.377-1.271,1.713-1.995,2.983-1.618
					c1.27,0.377,1.995,1.713,1.618,2.983C172.13,160.16,170.795,160.885,169.524,160.508z"/>
			</g>
			<g>
				<g>
					
						<rect x="147.449" y="170.551" transform="matrix(0.9581 -0.2866 0.2866 0.9581 -45.5297 50.0419)" style="fill:#97F2D6;" width="1.469" height="20.008"/>
				</g>
				<path style="fill:#97F2D6;" d="M148.751,190.828c-0.38-1.27,0.341-2.607,1.611-2.986c1.27-0.38,2.607,0.341,2.987,1.611
					c0.38,1.27-0.342,2.607-1.611,2.987C150.468,192.819,149.131,192.098,148.751,190.828z"/>
			</g>
			<g>
				<g>
					<rect x="156.762" y="140.773" style="fill:#97F2D6;" width="20.008" height="1.469"/>
				</g>
				<circle style="fill:#97F2D6;" cx="176.77" cy="141.509" r="2.399"/>
			</g>
			<g>
				<g>
					
						<rect x="119.907" y="99.729" transform="matrix(0.9698 -0.2438 0.2438 0.9698 -23.1114 32.7212)" style="fill:#97F2D6;" width="1.469" height="20.008"/>
				</g>
				<path style="fill:#97F2D6;" d="M120.531,99.445c0.323,1.285-0.457,2.589-1.742,2.912c-1.285,0.323-2.589-0.457-2.912-1.742
					c-0.323-1.285,0.457-2.589,1.742-2.912C118.904,97.38,120.208,98.16,120.531,99.445z"/>
			</g>
			<g>
				<g>
					
						<rect x="136.449" y="111.142" transform="matrix(0.5404 -0.8414 0.8414 0.5404 -26.823 174.6478)" style="fill:#97F2D6;" width="20.008" height="1.469"/>
				</g>
				<path style="fill:#97F2D6;" d="M153.88,104.756c-0.716,1.115-2.201,1.438-3.316,0.722c-1.115-0.716-1.438-2.201-0.722-3.316
					c0.716-1.115,2.201-1.438,3.316-0.722C154.272,102.156,154.596,103.641,153.88,104.756z"/>
			</g>
			<g>
				<g>
					
						<rect x="89.435" y="151.074" transform="matrix(0.8432 -0.5375 0.5375 0.8432 -66.014 77.2481)" style="fill:#97F2D6;" width="20.008" height="1.469"/>
				</g>
				<path style="fill:#97F2D6;" d="M89.713,155.162c1.118-0.712,2.601-0.384,3.313,0.734c0.712,1.117,0.384,2.601-0.734,3.313
					c-1.117,0.712-2.601,0.384-3.313-0.734C88.267,157.358,88.595,155.875,89.713,155.162z"/>
			</g>
			<g>
				<g>
					
						<rect x="109.056" y="177.356" transform="matrix(0.3484 -0.9374 0.9374 0.3484 -89.3525 227.6478)" style="fill:#97F2D6;" width="20.008" height="1.469"/>
				</g>
				<path style="fill:#97F2D6;" d="M113.325,186.632c0.462-1.242,1.843-1.875,3.085-1.413c1.242,0.462,1.875,1.843,1.413,3.085
					c-0.462,1.242-1.843,1.875-3.085,1.413C113.496,189.256,112.863,187.875,113.325,186.632z"/>
			</g>
			<g>
				<g>
					
						<rect x="154.483" y="117.958" transform="matrix(0.7695 -0.6386 0.6386 0.7695 -37.8893 132.3952)" style="fill:#97F2D6;" width="20.008" height="1.469"/>
				</g>
				<path style="fill:#97F2D6;" d="M173.719,114.151c-1.02,0.846-2.533,0.706-3.379-0.314c-0.846-1.02-0.706-2.533,0.314-3.379
					s2.533-0.706,3.379,0.314C174.879,111.792,174.739,113.305,173.719,114.151z"/>
			</g>
			<g>
				<g>
					
						<rect x="101.098" y="117.289" transform="matrix(0.5538 -0.8326 0.8326 0.5538 -60.5528 141.5876)" style="fill:#97F2D6;" width="1.469" height="20.008"/>
				</g>
				<path style="fill:#97F2D6;" d="M94.831,119.754c1.104,0.734,1.403,2.223,0.669,3.327c-0.734,1.104-2.223,1.403-3.327,0.669
					s-1.403-2.223-0.669-3.327C92.238,119.32,93.727,119.02,94.831,119.754z"/>
			</g>
			<circle style="fill:#77D8BA;" cx="137.161" cy="141.509" r="22.491"/>
		</g>
		<g>
			<g>
				<g>
					<path style="fill:#2C4977;" d="M117.258,217.872c-2.695-1.856-5.861-3.804-9.023-2.959c-2.987,0.798-4.834,3.927-5.264,6.989
						c-0.43,3.062,0.229,6.155,0.55,9.23c0.163,1.556,0.222,3.206-0.488,4.599c-0.819,1.607-2.516,2.575-4.217,3.175
						c-1.701,0.6-3.504,0.928-5.123,1.722c-2.515,1.233-4.467,3.654-4.93,6.417s0.667,5.784,2.952,7.404
						c1.334,0.946,2.97,1.395,4.599,1.537c3.917,0.342,7.94-1.073,10.832-3.736c2.892-2.663,4.628-6.522,4.778-10.451
						c0.168-4.403-1.551-8.684-1.659-13.089c-0.038-1.548,0.133-3.13,0.772-4.54c0.639-1.41,1.795-2.635,3.269-3.108
						L117.258,217.872z"/>
				</g>
				<path style="fill:#AA6F59;" d="M192.787,222.636c0,0,2.682-3.369,3.648-3.982c1.437-0.913,7.168-3.745,7.671-3.31
					c0.214,0.185,0.24,0.707,0.071,0.955c-0.169,0.248-3.691,2.961-3.691,2.961s0.962,0.776,1.259,1.569
					c0.22,0.588-1.591,4.031-2.068,4.637c-0.565,0.718-4.793,1.998-4.793,1.998l-0.728-0.402
					C194.156,227.061,193.864,225.48,192.787,222.636z"/>
				<path style="fill:#2C4977;" d="M134.031,223.159c0,0,2.387-4.031-0.987-8.706c-4.276-5.923-13.543-4.896-17.351,0.224
					c-3.755,5.049-1.669,12.447,0.254,14.622c3.632,4.106,7.183,3.338,7.183,3.338L134.031,223.159z"/>
				<g>
					<path style="fill:#AACAE5;" d="M113.365,415.393c2.182-0.421,5.538,0.25,5.538,0.25c1.129,3.305,0.477,5.496,0.477,5.496
						s-19.932,0.149-20.345-0.11C96.539,419.461,102.873,417.415,113.365,415.393z"/>
					<path style="fill:#AACAE5;" d="M145.06,415.393c-2.182-0.421-5.538,0.25-5.538,0.25c-1.129,3.305-0.477,5.496-0.477,5.496
						s19.932,0.149,20.345-0.11C161.886,419.461,155.552,417.415,145.06,415.393z"/>
					<path style="fill:#535999;" d="M139.521,415.643c-5.766-71.49-11.552-103.666-11.552-103.666
						c-7.813,47.132-9.066,103.666-9.066,103.666c-3.502,0.576-6.491-0.134-6.217-0.182c-14.253-84.551-4.91-119.875-4.91-119.875
						c14.218-6.116,37.783,2.416,37.783,2.416s12.23,32.441-0.499,117.392C145.06,415.393,142.678,416.368,139.521,415.643z"/>
					<path style="fill:#E6EFEF;" d="M144.557,308.656"/>
					<path style="fill:#FFFFFF;" d="M152.598,341.767c-23.923,5.717-52.775-0.458-52.775-0.458
						c5.944-50.173,6.747-72.966,6.747-72.966s-6.462,11.788-8.116,17.153c-0.85,4.347-4.244,27.591-4.244,27.591l-4.919,1.183
						c0,0-1.803-19.232-1.77-30.051c1.728-8.919,15.214-40.787,19-43.206c4.523-2.671,11.027-2.635,17.746-2.732
						c11.38-0.165,20.855,0.967,24.069,1.135c6.141,0.322,20.315-1.765,22.804-2.896c1.649-0.75,21.647-13.883,21.647-13.883
						l2.234,4.791c0,0-16.036,15.488-19.949,18.382c-2.309,1.708-18.121,8.089-26.97,8.905L152.598,341.767z"/>
					<g>
						<g>
							<g>
								<path style="fill:#AFAFAF;" d="M128.162,264.982c-1.373-3.423-4.154-9.693-7.494-16.822
									c-0.437-0.927-0.867-1.838-1.285-2.724c0.599-1.085,1.179-2.138,1.737-3.15c-0.881-0.087-1.736-0.171-2.565-0.252
									c-0.3-0.027-0.596-0.054-0.886-0.081l-0.264-0.011c0.092-0.059,0.109-0.077,0.323-0.204
									c0.338-0.195,0.669-0.386,0.991-0.571c0.642-0.375,1.25-0.73,1.821-1.063c1.139-0.671,2.123-1.264,2.923-1.762
									c-0.851,0.404-1.882,0.911-3.063,1.507c-0.589,0.3-1.217,0.62-1.879,0.957c-0.888,0.466-1.822,0.957-2.798,1.47
									c1.368,0.167,2.827,0.346,4.378,0.535c-0.477,0.834-0.974,1.702-1.486,2.597c0.462,0.992,0.936,2.011,1.419,3.048
									C123.376,255.585,126.412,261.736,128.162,264.982z"/>
							</g>
						</g>
					</g>
					<g>
						<g>
							<g>
								<path style="fill:#AFAFAF;" d="M128.162,264.982c1.563-3.169,4.246-9.169,7.177-16.118c0.294-0.699,0.584-1.39,0.868-2.066
									c-0.507-0.889-0.999-1.752-1.473-2.582c1.491-0.182,2.9-0.354,4.214-0.514c-0.876-0.656-1.714-1.283-2.507-1.877
									c-0.63-0.46-1.226-0.895-1.783-1.302c-1.118-0.809-2.089-1.496-2.884-2.04c0.725,0.634,1.633,1.403,2.695,2.283
									c0.533,0.438,1.103,0.906,1.706,1.402c0.546,0.447,1.481,1.194,1.392,1.144l-0.12,0.004l-0.052,0.002l-0.132,0.01
									c-0.327,0.031-0.66,0.062-0.998,0.093c-0.834,0.083-1.694,0.168-2.578,0.256c0.563,1.017,1.147,2.074,1.75,3.164
									c-0.243,0.573-0.492,1.159-0.743,1.752C131.765,255.542,129.341,261.651,128.162,264.982z"/>
							</g>
						</g>
					</g>
					<g>
						<g>
							<g>
								<path style="fill:#AFAFAF;" d="M128.162,264.982c-0.208,7.921-0.349,22.675-0.349,39.613
									c0,16.938,0.141,31.692,0.349,39.611c0.208-7.919,0.349-22.674,0.349-39.611
									C128.511,287.658,128.371,272.903,128.162,264.982z"/>
							</g>
						</g>
					</g>
					<polygon style="fill:#966050;" points="123.464,238.341 123.907,228.546 131.692,228.546 131.775,238.481 128.162,264.982 
											"/>
					<path style="fill:#9E9CFF;" d="M124.174,242.478c0,0,3.545,2.53,7.09-0.251l-3.102,22.756L124.174,242.478z"/>
					<path style="fill:#AA6F59;" d="M119.095,226.12c-2.029-1.356-2.846,0.325-2.061,1.967c1.043,2.181,3.412,1.63,3.412,1.63
						s5.044,7.091,10.102,5.295c6.699-2.378,3.29-15.292,3.29-15.292s-3.211,0.323-6.47-2.109
						C127.369,217.612,126.513,222.385,119.095,226.12z"/>
					<g>
						<g>
							<g>
								<path style="fill:#D88F79;" d="M129.389,227.083c0.222-0.03,0.54-0.104,0.871-0.349c0.08-0.065,0.162-0.142,0.228-0.249
									c0.038-0.127,0.221-0.416-0.051-0.438l-0.199-0.075l-0.137-0.071c-0.095-0.043-0.18-0.108-0.271-0.166
									c-0.704-0.52-1.05-1.279-1.258-1.665c0.007,0.431,0.231,1.331,1.055,1.948c0.106,0.068,0.207,0.14,0.32,0.188l0.164,0.074
									c0.058,0.019,0.124,0.04,0.109,0.033c0.014-0.001,0.022,0.001,0.01,0.032c-0.032,0.071-0.084,0.139-0.14,0.202
									C129.851,226.796,129.572,226.959,129.389,227.083z"/>
							</g>
						</g>
					</g>
					<g>
						<path style="fill:#FFFFFF;" d="M125.907,225.418c0.209,0.59-0.099,1.238-0.689,1.448c-0.59,0.209-1.238-0.099-1.448-0.689
							c-0.209-0.59,0.099-1.238,0.689-1.448C125.049,224.52,125.697,224.828,125.907,225.418z"/>
						<path style="fill:#444444;" d="M125.302,226.356c-0.331,0.117-0.694-0.056-0.811-0.386c-0.117-0.331,0.055-0.694,0.386-0.811
							c0.331-0.117,0.694,0.055,0.811,0.386C125.806,225.875,125.633,226.238,125.302,226.356z"/>
					</g>
					<g>
						<path style="fill:#FFFFFF;" d="M133.225,222.821c0.209,0.59-0.099,1.238-0.689,1.448c-0.59,0.21-1.238-0.099-1.448-0.689
							c-0.209-0.59,0.099-1.238,0.689-1.447C132.367,221.922,133.016,222.231,133.225,222.821z"/>
						<path style="fill:#444444;" d="M132.62,223.758c-0.331,0.117-0.694-0.055-0.811-0.386s0.055-0.694,0.386-0.811
							c0.331-0.117,0.694,0.055,0.811,0.386S132.951,223.641,132.62,223.758z"/>
					</g>
					<g>
						<g>
							<g>
								<path style="fill:#444444;" d="M125.148,224.023c-0.212-0.12-0.688-0.191-1.178,0.012c-0.489,0.199-0.787,0.582-0.84,0.824
									c0.22-0.114,0.557-0.332,0.973-0.501C124.517,224.186,124.913,224.112,125.148,224.023z"/>
							</g>
						</g>
					</g>
					<g>
						<g>
							<g>
								<path style="fill:#444444;" d="M130.84,222.003c0.239-0.08,0.592-0.272,1.023-0.399c0.429-0.13,0.828-0.174,1.071-0.224
									c-0.194-0.154-0.667-0.263-1.172-0.11C131.254,221.422,130.929,221.776,130.84,222.003z"/>
							</g>
						</g>
					</g>
					<g>
						<g>
							<g>
								<path style="fill:#EA725E;" d="M131.552,227.698c-0.286,0.15-0.747,0.441-1.337,0.631c-0.588,0.196-1.136,0.272-1.448,0.344
									c0.29,0.136,0.904,0.204,1.558-0.013C130.986,228.447,131.425,227.987,131.552,227.698z"/>
							</g>
						</g>
					</g>
					<g>
						<path style="fill:#697E9E;" d="M74.813,332.371l6.757-16.522c0.48-1.175,1.822-1.738,2.997-1.257l23.482,9.603
							c1.175,0.48,1.738,1.823,1.257,2.997l-6.757,16.522c-0.48,1.175-1.822,1.738-2.997,1.257l-23.482-9.603
							C74.895,334.888,74.332,333.546,74.813,332.371z"/>
						
							<rect x="100.816" y="332.227" transform="matrix(-0.3785 0.9256 -0.9256 -0.3785 455.324 364.6367)" style="fill:#BFCED8;" width="8.868" height="5.897"/>
					</g>
					<path style="fill:#AA6F59;" d="M96.087,319.302c0,0-0.315,2.266,1.296,6.14c0.098,0.802-4.814,1.585-6.965-0.075
						c-0.999-1.005-1.892-4.463-1.853-5.587c0.056-1.646,0.727-5.511,0.727-5.511l4.919-1.183c0,0,2.737,2.056,3.249,2.927
						c0.497,0.847,1.332,2.961,1.332,4.394L96.087,319.302z"/>
				</g>
			</g>
			<g>
				<g>
					<path style="fill:none;stroke:#444444;stroke-width:0.25;stroke-miterlimit:10;" d="M127.117,224.851
						c0.436,1.332-0.29,2.766-1.622,3.203c-1.332,0.436-2.766-0.29-3.203-1.622c-0.436-1.332,0.29-2.766,1.622-3.203
						C125.247,222.792,126.681,223.518,127.117,224.851z"/>
					<path style="fill:none;stroke:#444444;stroke-width:0.25;stroke-miterlimit:10;" d="M134.579,222.242
						c0.436,1.332-0.29,2.766-1.622,3.203s-2.766-0.29-3.203-1.622c-0.436-1.332,0.29-2.766,1.622-3.203
						S134.143,220.909,134.579,222.242z"/>
					
						<line style="fill:none;stroke:#444444;stroke-width:0.25;stroke-miterlimit:10;" x1="127.117" y1="224.851" x2="129.754" y2="223.822"/>
				</g>
				
					<line style="fill:none;stroke:#444444;stroke-width:0.25;stroke-linecap:round;stroke-miterlimit:10;" x1="122.292" y1="226.431" x2="118.914" y2="226.22"/>
			</g>
		</g>
		<g>
			<path style="opacity:0.43;fill:#43D7FF;" d="M277.714,117.4v49.005c0,6.189,5.017,11.207,11.207,11.207h189.834v-71.419H288.92
				C282.731,106.194,277.714,111.211,277.714,117.4z"/>
			
				<rect x="495.308" y="48.578" transform="matrix(6.123234e-17 -1 1 6.123234e-17 377.2737 661.0803)" style="opacity:0.54;fill:#43D7FF;" width="47.737" height="186.65"/>
			
				<rect x="511.221" y="48.578" transform="matrix(6.123234e-17 -1 1 6.123234e-17 377.2737 661.0803)" style="opacity:0.62;fill:#43D7FF;" width="15.913" height="186.65"/>
			<path style="opacity:0.62;fill:#43D7FF;" d="M277.714,122.247v39.313h-5.964c-3.12,0-5.649-2.529-5.649-5.649v-28.015
				c0-3.12,2.529-5.649,5.649-5.649H277.714z"/>
			
				<line style="fill:none;stroke:#697E9E;stroke-width:2;stroke-miterlimit:10;" x1="210.614" y1="141.904" x2="130.798" y2="141.904"/>
			<path style="opacity:0.62;fill:#43D7FF;" d="M620.985,108.257v67.292c0,1.14-0.924,2.063-2.063,2.063h-4.356
				c-1.14,0-2.063-0.924-2.063-2.063v-67.292c0-1.139,0.924-2.063,2.063-2.063h4.356
				C620.061,106.194,620.985,107.117,620.985,108.257z"/>
			<path style="fill:#9E9CFF;" d="M282.853,165.799v-47.791c0-3.54,2.87-6.409,6.409-6.409h123.039v60.609H289.262
				C285.722,172.208,282.853,169.339,282.853,165.799z"/>
			<rect x="411.973" y="111.599" style="fill:#3179B5;" width="13.879" height="60.609"/>
			<path style="opacity:0.62;fill:#43D7FF;" d="M210.614,139.251v5.305c0,1.388,1.125,2.512,2.513,2.512h52.974v-10.329h-52.974
				C211.739,136.739,210.614,137.864,210.614,139.251z"/>
			<path style="opacity:0.62;fill:#43D7FF;" d="M490.835,90.751v102.304c0,1.623-1.316,2.938-2.938,2.938h-6.204
				c-1.623,0-2.938-1.316-2.938-2.938V90.751c0-1.623,1.316-2.938,2.938-2.938h6.204C489.519,87.813,490.835,89.128,490.835,90.751z
				"/>
			<path style="opacity:0.63;fill:#FFFFFF;" d="M297.903,152.558c1.926,0,3.487,1.537,3.487,3.434c0,1.897-1.561,3.434-3.487,3.434
				c-1.926,0-3.487-1.537-3.487-3.434C294.416,154.095,295.977,152.558,297.903,152.558z"/>
			<path style="opacity:0.63;fill:#FFFFFF;" d="M357.441,123.797c1.926,0,3.487,1.537,3.487,3.434s-1.561,3.434-3.487,3.434
				c-1.926,0-3.487-1.537-3.487-3.434S355.515,123.797,357.441,123.797z"/>
			<path style="opacity:0.63;fill:#FFFFFF;" d="M359.755,153.682c1.278,0,2.314,1.02,2.314,2.278c0,1.258-1.036,2.278-2.314,2.278
				c-1.278,0-2.314-1.02-2.314-2.278C357.441,154.702,358.477,153.682,359.755,153.682z"/>
			<path style="opacity:0.63;fill:#FFFFFF;" d="M305.176,121.519c1.278,0,2.314,1.02,2.314,2.278c0,1.258-1.036,2.278-2.314,2.278
				s-2.314-1.02-2.314-2.278C302.863,122.539,303.899,121.519,305.176,121.519z"/>
			<path style="opacity:0.63;fill:#FFFFFF;" d="M395.843,140.868c3.477,0,6.296,2.776,6.296,6.2c0,3.424-2.819,6.2-6.296,6.2
				c-3.477,0-6.296-2.776-6.296-6.2C389.546,143.644,392.365,140.868,395.843,140.868z"/>
			<path style="opacity:0.63;fill:#FFFFFF;" d="M331.862,140.759c2.848,0,5.156,2.273,5.156,5.078c0,2.804-2.309,5.077-5.156,5.077
				c-2.848,0-5.156-2.273-5.156-5.077C326.706,143.033,329.015,140.759,331.862,140.759z"/>
		</g>
		<g>
			<g>
				<path style="fill:#FFFFFF;" d="M575.147,252.23h-89.261c-3.364,0-6.091,2.727-6.091,6.091v48.839
					c0,3.364,2.727,6.091,6.091,6.091h89.261c3.364,0,6.091-2.727,6.091-6.091v-48.839
					C581.237,254.957,578.511,252.23,575.147,252.23z"/>
				<rect x="486.582" y="259.017" style="fill:#697E9E;" width="48.432" height="33.456"/>
				<circle style="fill:#697E9E;" cx="490.379" cy="302.268" r="3.797"/>
				<circle style="fill:#697E9E;" cx="510.798" cy="302.268" r="3.797"/>
				<circle style="fill:#697E9E;" cx="531.217" cy="302.268" r="3.797"/>
				<path style="fill:#97B2D3;" d="M570.563,299.729h-26.243c-1.268,0-2.296,1.028-2.296,2.296v0.487
					c0,1.268,1.028,2.296,2.296,2.296h26.243c1.268,0,2.296-1.028,2.296-2.296v-0.487
					C572.859,300.757,571.831,299.729,570.563,299.729z"/>
				<g>
					<g>
						<rect x="542.87" y="264.798" style="fill:#697E9E;" width="6.658" height="5.11"/>
						<rect x="555.806" y="264.798" style="fill:#697E9E;" width="6.658" height="5.11"/>
						<rect x="567.048" y="264.798" style="fill:#697E9E;" width="6.658" height="5.11"/>
					</g>
					<g>
						<rect x="542.87" y="281.582" style="fill:#697E9E;" width="6.658" height="5.11"/>
						<rect x="555.806" y="281.582" style="fill:#697E9E;" width="6.658" height="5.11"/>
						<rect x="567.048" y="281.582" style="fill:#697E9E;" width="6.658" height="5.11"/>
					</g>
					<g>
						<rect x="542.87" y="273.19" style="fill:#697E9E;" width="6.658" height="5.11"/>
						<rect x="555.806" y="273.19" style="fill:#697E9E;" width="6.658" height="5.11"/>
						<rect x="567.048" y="273.19" style="fill:#697E9E;" width="6.658" height="5.11"/>
					</g>
				</g>
			</g>
			<g>
				<rect x="472.1" y="313.251" style="fill:#98B5D8;" width="116.832" height="7.055"/>
				<path style="fill:#829BBF;" d="M569.137,421.671h-77.241c-8.62,0-15.609-6.988-15.609-15.609v-85.756h108.458v85.756
					C584.745,414.683,577.757,421.671,569.137,421.671z"/>
			</g>
		</g>
		<path style="fill:none;stroke:#FFFFFF;stroke-width:4;stroke-miterlimit:10;" d="M301.391,264.174v-15.352
			c0-5.196,4.212-9.407,9.407-9.407h78.844c5.195,0,9.407,4.212,9.407,9.407V368.98"/>
		<path style="fill:none;stroke:#FFFFFF;stroke-width:4;stroke-miterlimit:10;" d="M438.401,370.989h4.16
			c5.195,0,9.407-4.212,9.407-9.407v-69.434c0-5.195,4.212-9.407,9.407-9.407h22.376"/>
		
			<line style="fill:none;stroke:#FFFFFF;stroke-width:4;stroke-miterlimit:10;" x1="350.22" y1="239.415" x2="350.22" y2="177.612"/>
		<g>
			<path style="opacity:0.62;fill:#43D7FF;" d="M339.511,421.181h-76.241V302.126c0-19.825,16.071-35.896,35.896-35.896h4.449
				c19.825,0,35.896,16.071,35.896,35.896V421.181z"/>
			<path style="fill:#FCE68D;" d="M269.642,338.584v49.084c0,4.939,4.004,8.942,8.942,8.942h45.613c4.939,0,8.942-4.004,8.942-8.942
				v-49.084H269.642z"/>
			<path style="opacity:0.63;fill:#FFFFFF;" d="M288.116,377.666c2.488,0,4.504,1.986,4.504,4.435c0,2.45-2.017,4.435-4.504,4.435
				s-4.504-1.986-4.504-4.435C283.611,379.652,285.628,377.666,288.116,377.666z"/>
			<ellipse style="opacity:0.63;fill:#FFFFFF;" cx="323.711" cy="361.729" rx="3.316" ry="3.265"/>
			<path style="opacity:0.63;fill:#FFFFFF;" d="M296.177,349.633c1.241,0,2.247,0.991,2.247,2.213s-1.006,2.213-2.247,2.213
				c-1.241,0-2.247-0.991-2.247-2.213S294.936,349.633,296.177,349.633z"/>
			<ellipse style="opacity:0.63;fill:#FFFFFF;" cx="317.367" cy="382.101" rx="2.247" ry="2.213"/>
			<path style="fill:#697E9E;" d="M339.334,402.788h-75.886c-2.518,0-4.559,2.041-4.559,4.559v9.276
				c0,2.518,2.041,4.559,4.559,4.559h75.886c2.518,0,4.559-2.041,4.559-4.559v-9.276
				C343.892,404.829,341.851,402.788,339.334,402.788z"/>
			<path style="fill:#FFF0B0;" d="M333.139,338.584c0,3.003-14.214,5.437-31.749,5.437c-17.534,0-31.749-2.434-31.749-5.437
				c0-3.003,14.214-5.436,31.749-5.436C318.925,333.148,333.139,335.582,333.139,338.584z"/>
			
				<rect x="254.916" y="330.229" transform="matrix(-1.836970e-16 1 -1 -1.836970e-16 593.4998 72.791)" style="fill:#97B2D3;" width="10.877" height="5.832"/>
		</g>
		<g>
			<g>
				<path style="opacity:0.62;fill:#43D7FF;" d="M437.169,421.181h-76.241v-68.507c0-19.825,16.071-35.896,35.896-35.896h4.449
					c19.825,0,35.896,16.071,35.896,35.896V421.181z"/>
				<path style="fill:#E781F2;" d="M367.3,353.027v33.579c0,4.939,4.004,8.942,8.942,8.942h45.613c4.939,0,8.942-4.004,8.942-8.942
					v-33.579H367.3z"/>
				<ellipse style="fill:#EFACF9;" cx="399.049" cy="353.027" rx="31.749" ry="5.437"/>
				<path style="opacity:0.63;fill:#FFFFFF;" d="M417.876,379.884c2.783,0,5.039,2.221,5.039,4.962c0,2.74-2.256,4.962-5.039,4.962
					s-5.039-2.222-5.039-4.962C412.837,382.106,415.093,379.884,417.876,379.884z"/>
				<ellipse style="opacity:0.63;fill:#FFFFFF;" cx="396.529" cy="386.314" rx="2.52" ry="2.481"/>
				<path style="opacity:0.63;fill:#FFFFFF;" d="M425.429,362.513c1.391,0,2.52,1.111,2.52,2.481c0,1.37-1.128,2.481-2.52,2.481
					c-1.391,0-2.52-1.111-2.52-2.481C422.91,363.624,424.038,362.513,425.429,362.513z"/>
			</g>
			<path style="fill:#697E9E;" d="M436.992,402.788h-75.886c-2.518,0-4.559,2.041-4.559,4.559v9.276
				c0,2.518,2.041,4.559,4.559,4.559h75.886c2.518,0,4.559-2.041,4.559-4.559v-9.276
				C441.551,404.829,439.51,402.788,436.992,402.788z"/>
		</g>
		<g>
			<g>
				<path style="opacity:0.62;fill:#43D7FF;" d="M215.068,421.181h-30.883c-11.949,0-21.636-9.687-21.636-21.636v-73.862
					c0-11.949,9.687-21.636,21.636-21.636h30.883c11.949,0,21.636,9.687,21.636,21.636v73.862
					C236.704,411.495,227.017,421.181,215.068,421.181z"/>
				<path style="fill:#697E9E;" d="M221.123,286.692H178.13c-2.505,0-4.536,2.031-4.536,4.536v8.283
					c0,2.505,2.031,4.536,4.536,4.536h42.994c2.505,0,4.536-2.031,4.536-4.536v-8.283
					C225.66,288.723,223.629,286.692,221.123,286.692z"/>
			</g>
			<path style="fill:#9E9CFF;" d="M167.285,328.526L167.285,328.526v71.019c0,9.319,7.581,16.9,16.9,16.9h30.883
				c9.319,0,16.9-7.582,16.9-16.9v-71.019"/>
			<ellipse style="opacity:0.63;fill:#FFFFFF;" cx="215.383" cy="394.995" rx="6.296" ry="6.2"/>
			<path style="opacity:0.63;fill:#FFFFFF;" d="M221.679,335.484c1.739,0,3.148,1.388,3.148,3.1c0,1.712-1.41,3.1-3.148,3.1
				c-1.739,0-3.148-1.388-3.148-3.1C218.531,336.872,219.94,335.484,221.679,335.484z"/>
			<path style="opacity:0.63;fill:#FFFFFF;" d="M182.318,385.695c1.739,0,3.148,1.388,3.148,3.1s-1.41,3.1-3.148,3.1
				c-1.739,0-3.148-1.388-3.148-3.1S180.579,385.695,182.318,385.695z"/>
			<path style="opacity:0.63;fill:#FFFFFF;" d="M182.318,342.608c2.794,0,5.059,2.231,5.059,4.982c0,2.752-2.265,4.982-5.059,4.982
				c-2.794,0-5.06-2.23-5.06-4.982C177.259,344.839,179.524,342.608,182.318,342.608z"/>
			<ellipse style="fill:#B7B5F7;" cx="199.627" cy="328.526" rx="32.341" ry="4.619"/>
			<rect x="162.549" y="350.331" style="fill:#F0FFFC;" width="74.155" height="28.316"/>
		</g>
		<g>
			<path style="fill:#F9B4AA;" d="M570.774,287.663c0,0-2.859,1.427-7.012,1.511c-0.766,0.231,0.482,4.995,2.843,6.283
				c1.309,0.505,4.799-0.064,5.802-0.546c1.47-0.707,4.705-2.855,4.705-2.855s1.646-3.242-0.888-4.929c0,0-4.916-2.711-6.179-2.238
				c-1.426,0.534-3.696,0.234-3.692,0.821C566.359,286.671,568.401,287.963,570.774,287.663z"/>
			<g>
				<path style="fill:#AACAE5;" d="M607.81,418.81c2.019-0.348,5.124,0.207,5.124,0.207c0.615,2.872,0.441,4.55,0.441,4.55
					s-18.443,0.124-18.825-0.091L607.81,418.81z"/>
				<path style="fill:#AACAE5;" d="M637.668,418.81c2.019-0.348,5.213,0.432,5.213,0.432c0.576,2.844,0.352,4.325,0.352,4.325
					s-19.133,0.221-18.825-0.091L637.668,418.81z"/>
				<path style="fill:#535999;" d="M612.934,419.017c1.484-59.888,9.016-88.484,9.016-88.484
					c0.835,36.166,15.718,88.278,15.718,88.278c2.933,0.482,5.213,0.432,5.213,0.432c-4.947-65.373-0.83-97.185-0.83-97.185
					c-11.911-5.124-38.237,0-38.237,0s-6.198,20.728,3.995,96.752C607.81,418.81,610.29,419.625,612.934,419.017z"/>
			</g>
			<g>
				<path style="fill:#FFFFFF;" d="M620.406,266.063c0,0-20.427,11.554-25.725,10.497c-2.45-0.489-19.678-23.325-19.678-23.325
					l3.375-3.701c0,0,15.896,13.71,18.268,14.215c2.333,0.496,20.674-15.465,20.674-15.465L620.406,266.063z"/>
				<path style="fill:#F9B4AA;" d="M629.687,251.513l-1.478-16.146l-9.86,2.135l-0.115,13.768l0.612,1.695
					c1.56,4.322,7.499,4.76,9.676,0.714L629.687,251.513z"/>
				<path style="fill:#FFFFFF;" d="M606.639,261.352l-10.22,86.891c27.411,6.394,50.644,1.368,50.644,1.368
					c1.669-21.131-2.044-77.292-4.181-90.107c-2.028-12.157-11.024-19.378-23.035-16.618c-0.328,0.075-0.648,0.155-0.96,0.24
					C611.31,245.175,607.139,253.52,606.639,261.352z"/>
				<path style="fill:#F9B4AA;" d="M611.306,226.175c0,4.117,1.162,9.081,3.919,12.441c1.761,2.147,8.587-0.591,9.62-0.701
					c2.12-0.226,1.257-6.317-0.865-11.053C621.857,222.127,611.306,226.175,611.306,226.175z"/>
				<polygon style="fill:#FFFFFF;" points="616.118,287.83 577.112,292.056 576.224,287.126 608.405,275.272 				"/>
				<path style="fill:#97B2D3;" d="M628.612,236.08c-4.099,1.272-6.24,0.156-7.797-1.721c0,0,1.502,0.299,1.289-3.054
					c-0.169-2.653-2.366-2.776-2.532-0.983c0,0-0.57,0.357-1.364,0.02c0,0-0.509-2.594-2.823-2.593
					c-7.554,0.002-6.383-7.24-3.68-9.894c4.974-4.886,18.39-4.817,21.555-1.042c1.97,2.35-1.164,5.431-1.164,5.431
					S634.401,234.284,628.612,236.08z"/>
				<g>
					<g>
						<g>
							<path style="fill:#AFAFAF;" d="M615.225,250.288c-0.978,2.791-2.56,8.055-4.221,14.14c-0.831,3.043-1.574,5.898-2.181,8.356
								c-0.168,0.597-0.258,1.248-0.467,1.705c-0.229,0.477-0.625,0.84-1.065,1.039c-0.94,0.396-1.772,0.75-2.444,1.054
								c0.711-0.208,1.564-0.467,2.551-0.79c0.513-0.183,1.007-0.566,1.315-1.115c0.3-0.583,0.39-1.152,0.597-1.761
								c0.726-2.425,1.536-5.263,2.367-8.305C613.338,258.526,614.649,253.188,615.225,250.288z"/>
						</g>
					</g>
				</g>
				<g>
					<g>
						<g>
							<path style="fill:#AFAFAF;" d="M631.298,259.503c-1.98,4.097-5.439,11.827-9.263,20.763c-0.503,1.111-0.881,2.254-1.49,3.192
								c-0.594,0.962-1.357,1.785-2.204,2.451c-0.849,0.667-1.794,1.158-2.753,1.499c-0.964,0.342-1.944,0.454-2.921,0.586
								c-3.864,0.531-7.083,1.01-9.326,1.387c2.268-0.171,5.508-0.476,9.387-0.886c0.956-0.099,2.013-0.19,3.045-0.53
								c1.027-0.338,2.045-0.844,2.962-1.543c0.917-0.698,1.744-1.572,2.389-2.6c0.674-1.033,1.052-2.185,1.552-3.282
								C626.501,271.605,629.702,263.765,631.298,259.503z"/>
						</g>
					</g>
				</g>
				<g>
					<path style="fill:#697E9E;" d="M555.553,261.973l20.25-5.753c0.927-0.263,1.465-1.229,1.202-2.156l-3.801-13.38
						c-0.263-0.927-1.229-1.465-2.156-1.202l-20.25,5.753c-0.927,0.263-1.465,1.229-1.202,2.156l3.801,13.38
						C553.661,261.698,554.626,262.237,555.553,261.973z"/>
					
						<rect x="552.633" y="243.807" transform="matrix(0.9619 -0.2733 0.2733 0.9619 -47.1073 163.4181)" style="fill:#B9D4EF;" width="20.812" height="13.989"/>
				</g>
			</g>
			<path style="fill:#F9B4AA;" d="M574.474,245.154c-2.766-1.421-2.958-3.305-2.352-3.801c0.454-0.371,2.987,1.105,4.279,1.913
				c1.143,0.716,1.978,6.267,1.978,6.267l-2.028,2.224l0,0L574.474,245.154z"/>
		</g>
		<g>
			<path style="fill:#FFFFFF;" d="M309.681,323.974h-16.58c-1.763,0-3.193-1.43-3.193-3.193v-12.721c0-1.763,1.43-3.193,3.193-3.193
				h16.58c1.763,0,3.193,1.43,3.193,3.193v12.721C312.874,322.544,311.444,323.974,309.681,323.974z"/>
			<g>
				<rect x="294.482" y="308.013" style="fill:#697E9E;" width="5.527" height="5.11"/>
				<rect x="302.773" y="308.013" style="fill:#697E9E;" width="5.527" height="5.11"/>
				<rect x="294.482" y="315.716" style="fill:#697E9E;" width="5.527" height="5.11"/>
				<rect x="302.773" y="315.716" style="fill:#697E9E;" width="5.527" height="5.11"/>
			</g>
		</g>
		<g>
			<path style="fill:#F9B4AA;" d="M309.752,319.678c0,0-2.624,0.723-6.109,0.11c-0.678,0.067-0.418,4.254,1.344,5.718
				c1.011,0.637,4.021,0.735,4.939,0.497c1.344-0.349,4.401-1.613,4.401-1.613s1.908-2.439,0.068-4.266c0,0-3.663-3.073-4.797-2.886
				c-1.28,0.212-3.127-0.411-3.22,0.08C306.225,318.123,307.72,319.538,309.752,319.678z"/>
			<g>
				<path style="fill:#F9B4AA;" d="M387.734,298.105l-0.472-16.004l-9.181,1.602l-0.862,13.576l0.47,1.704
					c1.197,4.343,6.632,5.079,8.856,1.199L387.734,298.105z"/>
				<path style="fill:#F9B4AA;" d="M376.822,268.554c-1.067,2.807-3.129,7.976-3.048,11.977c0.052,2.556,5.405,3.753,6.215,4.262
					c1.662,1.043,4.451-3.89,5.611-8.525C386.76,271.632,376.822,268.554,376.822,268.554z"/>
				<path style="fill:#427BBA;" d="M385.694,286.963c-4.427-0.019-7.45-3.96-6.847-6.792c0,0,0.917,1.072,2.671-1.476
					c1.388-2.015-0.132-3.355-1.272-2.152c0,0-0.616-0.066-0.998-0.762c0,0,0.923-1.96-0.566-3.483
					c-4.409-4.512-3.534-15.625-0.444-16.731c3.4-1.217,7.738,5.463,8.476,6.728c0,0-0.614-2.722,0.533-3.573
					c1.817-1.349,6.828,3.558,8.812,13.936C397.446,279.911,395.306,287.004,385.694,286.963z"/>
			</g>
			<path style="fill:#F9B4AA;" d="M413.258,366.846c0,0,0.031,2.722-1.448,5.936c-0.108,0.673,4.007,1.487,5.872,0.156
				c0.874-0.816,1.735-3.701,1.738-4.649c0.004-1.389-0.439-4.667-0.439-4.667s-1.873-2.466-4.108-1.152c0,0-3.905,2.76-4.012,3.904
				c-0.121,1.292-1.194,2.919-0.743,3.134C410.857,369.861,412.606,368.776,413.258,366.846z"/>
			<g>
				<path style="fill:#535999;" d="M382.982,353.81c0,0-36.135-5.594-40.565-1.864c-4.43,3.729,0.059,56.216,3.324,63.911
					c0,0,2.52,1.639,5.318,0.24c-0.011,1.895,0.147-32.902,4.575-47.666c0,0,19.553,1.203,26.02,4.015
					c0,0-9.364,31.511-5.318,38.048c4.794,7.744,52.279,3.329,52.279,3.329s0-2.961-2.514-5.027c0,0-32.86-4.258-34.512-5.772
					c-1.868-1.712,8.764-29.573,11.016-35.88C404.857,360.837,382.982,353.81,382.982,353.81z"/>
				<path style="fill:#AACAE5;" d="M428.615,413.823c-1.696-1.296-2.514-5.027-2.514-5.027c2.37-2.517,2.79-2.956,2.79-2.956
					s12.843,14.193,12.921,14.655C442.283,423.285,436.769,420.051,428.615,413.823z"/>
				<path style="fill:#AACAE5;" d="M345.741,415.857c2.095-0.404,5.318,0.24,5.318,0.24c0.634,3.863,0.458,5.278,0.458,5.278
					s-19.141,0.143-19.537-0.106C329.583,419.763,335.665,417.799,345.741,415.857z"/>
				<path style="fill:#E6EFEF;" d="M366.944,341.379"/>
				<path style="fill:#F0FFFC;" d="M362.439,313.114l-0.905,38.556c0,0,1.79,18.143,5.968,26.996c0,0,20.214,6.22,40.822,0.957
					c-5.708-48.18-3.898-65.056-3.898-65.056s9.144,14.606,10.731,19.759c0.816,4.174-0.284,28.144-0.284,28.144l4.108,1.152
					c0,0,6.706-20.132,6.674-30.522c-1.659-8.565-14.15-34.33-19.94-38.755c-3.719-2.742-13.869-3.601-20.322-3.695
					c-10.928-0.158-16.781,1.019-22.849,3.273c-3.043,1.131-14.62,20.054-18.773,21.901c-1.883,0.837-29.376,4.3-29.376,4.3
					l-0.068,4.266c0,0,28.196,2.772,32.294,1.647C351.18,324.786,362.439,313.114,362.439,313.114z"/>
			</g>
		</g>
		<g>
			<g>
				<g>
					<g>
						<path style="fill:#C6B9ED;" d="M590.651,89.058c-4.427,4.427-11.628,4.427-16.055,0c-4.427-4.427-4.427-11.629,0-16.055
							c4.427-4.427,11.628-4.427,16.055,0C595.078,77.429,595.078,84.631,590.651,89.058z M587.086,85.493
							c2.461-2.461,2.461-6.466,0-8.927c-2.461-2.461-6.466-2.461-8.927,0c-2.461,2.461-2.461,6.466,0,8.927
							C580.621,87.954,584.625,87.954,587.086,85.493z"/>
					</g>
				</g>
				<g>
					<path style="fill:#97F2D6;" d="M582.623,105.115c13.28,0,24.084-10.805,24.084-24.085s-10.804-24.084-24.084-24.084v5.041
						c10.5,0,19.043,8.543,19.043,19.043c0,10.501-8.543,19.044-19.043,19.044c-10.501,0-19.044-8.543-19.044-19.044h-5.041
						C558.538,94.31,569.343,105.115,582.623,105.115z"/>
				</g>
				
					<rect x="530.983" y="69.483" transform="matrix(-1 -1.224647e-16 1.224647e-16 -1 1082.2917 142.3566)" style="fill:#C6B9ED;" width="20.325" height="3.39"/>
				
					<rect x="508.174" y="76.051" transform="matrix(-1 -1.224647e-16 1.224647e-16 -1 1059.483 155.4931)" style="fill:#C6B9ED;" width="43.134" height="3.39"/>
				
					<rect x="516.038" y="89.188" transform="matrix(-1 -1.224647e-16 1.224647e-16 -1 1067.3462 181.7662)" style="fill:#C6B9ED;" width="35.271" height="3.39"/>
				
					<rect x="508.174" y="82.62" transform="matrix(-1 -1.224647e-16 1.224647e-16 -1 1059.483 168.6297)" style="fill:#C6B9ED;" width="43.134" height="3.39"/>
			</g>
			<g>
				<path style="fill:#C6B9ED;" d="M193.163,105.049h26.806c3.383,0,6.126-2.743,6.126-6.126V72.117
					c0-3.383-2.742-6.126-6.126-6.126h-26.806c-3.383,0-6.126,2.743-6.126,6.126v26.807
					C187.037,102.306,189.78,105.049,193.163,105.049z"/>
				<g>
					<rect x="232.29" y="66.465" style="fill:#FCE68D;" width="25.483" height="3.278"/>
					<rect x="232.29" y="78.234" style="fill:#FCE68D;" width="54.08" height="3.278"/>
					<rect x="232.29" y="101.771" style="fill:#C6B9ED;" width="44.222" height="3.278"/>
					<rect x="232.29" y="90.002" style="fill:#C6B9ED;" width="54.08" height="3.278"/>
				</g>
			</g>
			<g>
				<rect x="431.417" y="199.51" style="fill:#C6B9ED;" width="18.686" height="3.117"/>
				<rect x="431.417" y="209.031" style="fill:#C6B9ED;" width="18.686" height="3.117"/>
				<rect x="431.417" y="218.551" style="fill:#C6B9ED;" width="18.686" height="3.117"/>
				<rect x="431.417" y="228.071" style="fill:#C6B9ED;" width="18.686" height="3.117"/>
				<rect x="431.417" y="237.592" style="fill:#C6B9ED;" width="18.686" height="3.117"/>
				
					<rect x="400.597" y="216.467" transform="matrix(6.123234e-17 -1 1 6.123234e-17 201.0867 641.3054)" style="fill:#C6B9ED;" width="41.198" height="7.286"/>
			</g>
			<g>
				<path style="fill:#E781F2;" d="M583.017,205.873H516.04c-1.729,0-3.13-1.401-3.13-3.13v-0.771c0-1.729,1.401-3.13,3.13-3.13
					h66.977c1.729,0,3.13,1.401,3.13,3.13v0.771C586.146,204.471,584.745,205.873,583.017,205.873z"/>
				<path style="fill:#C6B9ED;" d="M565.58,190.732h-49.54c-1.729,0-3.13-1.401-3.13-3.13v-0.771c0-1.729,1.401-3.13,3.13-3.13
					h49.54c1.729,0,3.13,1.401,3.13,3.13v0.771C568.71,189.331,567.308,190.732,565.58,190.732z"/>
				<g>
					<path style="fill:#C6B9ED;" d="M581.879,226.041c-2.357,0-4.267-1.911-4.267-4.267c0-2.357,1.911-4.267,4.267-4.267
						c2.357,0,4.267,1.91,4.267,4.267C586.146,224.13,584.236,226.041,581.879,226.041z"/>
					<path style="fill:#C6B9ED;" d="M538.745,226.041c-2.357,0-4.267-1.911-4.267-4.267c0-2.357,1.91-4.267,4.267-4.267
						s4.267,1.91,4.267,4.267C543.012,224.13,541.102,226.041,538.745,226.041z"/>
					<path style="fill:#C6B9ED;" d="M560.312,226.041c-2.357,0-4.267-1.911-4.267-4.267c0-2.357,1.91-4.267,4.267-4.267
						c2.357,0,4.267,1.91,4.267,4.267C564.579,224.13,562.669,226.041,560.312,226.041z"/>
					<path style="fill:#C6B9ED;" d="M517.178,226.041c-2.357,0-4.267-1.911-4.267-4.267c0-2.357,1.91-4.267,4.267-4.267
						c2.357,0,4.267,1.91,4.267,4.267C521.445,224.13,519.534,226.041,517.178,226.041z"/>
				</g>
			</g>
			<g>
				<path style="fill:#C6B9ED;" d="M429.801,88.582c-2.357,0-4.267-1.91-4.267-4.267c0-2.357,1.91-4.267,4.267-4.267
					c2.357,0,4.267,1.91,4.267,4.267C434.068,86.672,432.158,88.582,429.801,88.582z"/>
				<circle style="fill:#C6B9ED;" cx="386.667" cy="84.315" r="4.267"/>
				<circle style="fill:#C6B9ED;" cx="408.234" cy="84.315" r="4.267"/>
				<circle style="fill:#97F2D6;" cx="365.099" cy="84.315" r="4.267"/>
			</g>
			<g>
				<path style="fill:#E781F2;" d="M237.554,226.192c-11.76,0-21.328-9.568-21.328-21.328c0-11.762,9.568-21.33,21.328-21.33
					c11.762,0,21.33,9.568,21.33,21.33C258.884,216.624,249.316,226.192,237.554,226.192z M237.554,190.466
					c-7.939,0-14.396,6.46-14.396,14.398s6.458,14.396,14.396,14.396s14.398-6.458,14.398-14.396S245.493,190.466,237.554,190.466z"
					/>
			</g>
			<rect x="266.088" y="195.528" style="fill:#C6B9ED;" width="31.482" height="2.662"/>
			<rect x="266.088" y="203.532" style="fill:#C6B9ED;" width="48.91" height="2.662"/>
			<rect x="266.088" y="211.536" style="fill:#C6B9ED;" width="48.91" height="2.662"/>
			<g>
				<g>
					<circle style="fill:#C6B9ED;" cx="660.308" cy="151.408" r="3.557"/>
				</g>
				<g>
					<circle style="fill:#C6B9ED;" cx="648.018" cy="111.734" r="3.557"/>
				</g>
				<g>
					<polygon style="fill:#C6B9ED;" points="643.316,166.169 642.552,165.308 659.444,151.406 640.931,134.764 662.333,123.813 
						647.66,112.185 648.375,111.283 664.452,124.023 642.945,135.027 661.173,151.411 					"/>
				</g>
				<g>
					<circle style="fill:#C6B9ED;" cx="641.938" cy="134.895" r="3.557"/>
				</g>
				<g>
					<circle style="fill:#FCE68D;" cx="663.392" cy="123.918" r="3.557"/>
				</g>
				<g>
					<path style="fill:#C6B9ED;" d="M642.934,169.295c-1.964,0-3.557-1.592-3.557-3.557c0-1.964,1.592-3.557,3.557-3.557
						c1.964,0,3.557,1.592,3.557,3.557C646.491,167.703,644.899,169.295,642.934,169.295z"/>
				</g>
			</g>
		</g>
		<path style="fill:#97B2D3;" d="M357.661,246.947h-14.881c-3.917,0-7.092-3.175-7.092-7.092v-0.879
			c0-3.917,3.175-7.092,7.092-7.092h14.881c3.917,0,7.092,3.175,7.092,7.092v0.879C364.753,243.772,361.578,246.947,357.661,246.947
			z"/>
		<rect x="341.443" y="177.612" style="fill:#97B2D3;" width="17.553" height="5.832"/>
		
			<rect x="471.44" y="279.824" transform="matrix(-1.836970e-16 1 -1 -1.836970e-16 759.6193 -194.1388)" style="fill:#97B2D3;" width="10.877" height="5.832"/>
		
			<rect x="194.188" y="280.86" transform="matrix(-1 -1.224647e-16 1.224647e-16 -1 399.2529 567.5523)" style="fill:#97B2D3;" width="10.877" height="5.832"/>
		
			<rect x="434.647" y="368.073" transform="matrix(-1.836970e-16 1 -1 -1.836970e-16 811.0741 -69.0967)" style="fill:#97B2D3;" width="10.878" height="5.832"/>
		<path style="fill:#97B2D3;" d="M301.391,266.23L301.391,266.23c1.848,0,3.662,0.139,5.439,0.392v-5.674h-10.878v5.674
			C297.729,266.369,299.543,266.23,301.391,266.23z"/>
		<rect x="493.963" y="345.297" style="fill:#697E9E;" width="73.107" height="48.43"/>
	</g>
</g>
</svg>
