<?xml version="1.0" encoding="utf-8"?>
<!-- Generator: Adobe Illustrator 27.5.0, SVG Export Plug-In . SVG Version: 6.00 Build 0)  -->
<svg version="1.1" xmlns="http://www.w3.org/2000/svg" xmlns:xlink="http://www.w3.org/1999/xlink" x="0px" y="0px"
	 viewBox="0 0 3710 3710" style="enable-background:new 0 0 3710 3710;" xml:space="preserve">

<g id="Illustration">
	<g>
		<path style="fill:#F4F7FA;" d="M1135.809,617.716c-95.858,134.197,12.565,354.539-128.632,454.739
			c-137.444,97.537-303.305-66.455-432.751,17.388c-192.028,124.375-163.287,703.04,111.743,1065.282
			c82.711,108.938,152.329,151.719,182.071,274.252c63.868,263.11-171.941,416.743-128.744,546.995
			c97.263,293.28,1637.786,554.725,2266.188-316.99c293.489-407.127,342.988-998.96,89.353-1451.525
			C2636.723,390.08,1350.899,316.603,1135.809,617.716z"/>
		<g>
			<linearGradient id="SVGID_1_" gradientUnits="userSpaceOnUse" x1="1653.1996" y1="2221.115" x2="979.721" y2="2874.03">
				<stop  offset="0" style="stop-color:#FFC444"/>
				<stop  offset="0.9964" style="stop-color:#F36F56"/>
			</linearGradient>
			<path style="fill:url(#SVGID_1_);" d="M961.922,800.006c-42.425,17.883-296.564,128.773-387.495,289.837
				c-120.619,213.652,132.992,361.406,128.799,853.868c-1.908,223.943-55.399,316.362,18.139,395.857
				c104.099,112.533,285.919-4.514,515.479,109.969c135.914,67.781,157.788,138.248,302.414,281.795
				c189.935,188.517,437.892,434.623,707.924,433.002c330.168-1.982,511.805-373.226,783.527-281.795
				c56.99,19.176,144.267,67.563,158.08,48.112c12.134-17.086-36.027-81.423-82.477-116.842
				c-181.753-138.59-428.753,95.865-694.178,13.746c-194.979-60.323-148.207-213.607-357.398-357.399
				c-406.917-279.702-945.039,34.779-1079.068-171.826c-70.714-109.004,22.777-284.919,78.084-388.984
				c210.252-395.617,556.712-428.669,1172.811-937.514c0,0,277.786-229.428,247.43-274.922
				c-30.444-45.625-327.389,209.658-664.205,133.368c-152.277-34.492-161.275-102.459-332.922-119.527
				c-184.324-18.329-373.922,40.165-419.904,54.731C1038.259,771.407,1003.259,782.582,961.922,800.006z"/>
			<g>
				<g>
					
						<linearGradient id="SVGID_00000026141965474380055960000006784347452266275210_" gradientUnits="userSpaceOnUse" x1="2241.7412" y1="1123.4473" x2="2171.4973" y2="1402.5737">
						<stop  offset="0" style="stop-color:#FFC444"/>
						<stop  offset="0.9964" style="stop-color:#F36F56"/>
					</linearGradient>
					
						<rect x="2167.694" y="1092.516" style="fill:url(#SVGID_00000026141965474380055960000006784347452266275210_);" width="121.084" height="169.195"/>
					
						<linearGradient id="SVGID_00000002353619432241041980000005532068769258546104_" gradientUnits="userSpaceOnUse" x1="2231.8809" y1="1247.2273" x2="2212.9231" y2="1322.5592">
						<stop  offset="0" style="stop-color:#FFC444"/>
						<stop  offset="0.9964" style="stop-color:#F36F56"/>
					</linearGradient>
					<path style="fill:url(#SVGID_00000002353619432241041980000005532068769258546104_);" d="M2303.238,1253.888h-150.003
						c-4.321,0-7.823,3.503-7.823,7.823c0,4.32,3.502,7.823,7.823,7.823h150.003c4.321,0,7.823-3.503,7.823-7.823
						C2311.061,1257.391,2307.558,1253.888,2303.238,1253.888z"/>
					
						<linearGradient id="SVGID_00000067916292685621658670000015741276921638377388_" gradientUnits="userSpaceOnUse" x1="2231.9297" y1="1077.3297" x2="2212.7178" y2="1153.672">
						<stop  offset="0" style="stop-color:#FFC444"/>
						<stop  offset="0.9964" style="stop-color:#F36F56"/>
					</linearGradient>
					<path style="fill:url(#SVGID_00000067916292685621658670000015741276921638377388_);" d="M2288.778,1080.306h-121.083
						c-6.463,0-11.701,5.239-11.701,11.701c0,6.462,5.239,11.701,11.701,11.701h121.083c6.462,0,11.701-5.239,11.701-11.701
						C2300.479,1085.545,2295.24,1080.306,2288.778,1080.306z"/>
				</g>
				<g>
					
						<linearGradient id="SVGID_00000039851455599854413430000003953171734033195163_" gradientUnits="userSpaceOnUse" x1="2423.8767" y1="1123.4473" x2="2353.6331" y2="1402.5737">
						<stop  offset="0" style="stop-color:#FFC444"/>
						<stop  offset="0.9964" style="stop-color:#F36F56"/>
					</linearGradient>
					
						<rect x="2349.83" y="1092.516" style="fill:url(#SVGID_00000039851455599854413430000003953171734033195163_);" width="121.084" height="169.195"/>
					
						<linearGradient id="SVGID_00000114031389839055578410000009309879376334917027_" gradientUnits="userSpaceOnUse" x1="2414.0166" y1="1247.2273" x2="2395.0588" y2="1322.5591">
						<stop  offset="0" style="stop-color:#FFC444"/>
						<stop  offset="0.9964" style="stop-color:#F36F56"/>
					</linearGradient>
					<path style="fill:url(#SVGID_00000114031389839055578410000009309879376334917027_);" d="M2485.373,1253.888H2335.37
						c-4.32,0-7.823,3.503-7.823,7.823c0,4.32,3.503,7.823,7.823,7.823h150.003c4.32,0,7.823-3.503,7.823-7.823
						C2493.196,1257.391,2489.694,1253.888,2485.373,1253.888z"/>
					
						<linearGradient id="SVGID_00000074409110657261207230000008019669623185516452_" gradientUnits="userSpaceOnUse" x1="2414.0654" y1="1077.3297" x2="2394.8535" y2="1153.672">
						<stop  offset="0" style="stop-color:#FFC444"/>
						<stop  offset="0.9964" style="stop-color:#F36F56"/>
					</linearGradient>
					<path style="fill:url(#SVGID_00000074409110657261207230000008019669623185516452_);" d="M2470.913,1080.306H2349.83
						c-6.463,0-11.701,5.239-11.701,11.701c0,6.462,5.239,11.701,11.701,11.701h121.083c6.462,0,11.701-5.239,11.701-11.701
						C2482.615,1085.545,2477.375,1080.306,2470.913,1080.306z"/>
				</g>
				
					<linearGradient id="SVGID_00000109011235123307775460000002509762708893202865_" gradientUnits="userSpaceOnUse" x1="605.2923" y1="2760.9067" x2="1344.3008" y2="2760.9067">
					<stop  offset="0" style="stop-color:#AA80F9"/>
					<stop  offset="0.9964" style="stop-color:#6165D7"/>
				</linearGradient>
				<path style="fill:url(#SVGID_00000109011235123307775460000002509762708893202865_);" d="M605.292,2449.876v240.555
					c0,34.993,7.24,69.608,21.266,101.667v0c30.623,69.995,91.164,122.458,164.802,142.813l495.711,137.025l57.23-206.524
					l-57.23-263.754L605.292,2449.876z"/>
				
					<linearGradient id="SVGID_00000063596295918175425980000014115523265450453948_" gradientUnits="userSpaceOnUse" x1="1755.1174" y1="2649.9529" x2="1310.9644" y2="1537.7064">
					<stop  offset="0.0036" style="stop-color:#E38DDD"/>
					<stop  offset="1" style="stop-color:#9571F6"/>
				</linearGradient>
				<polygon style="fill:url(#SVGID_00000063596295918175425980000014115523265450453948_);" points="1951.433,2283.164 
					605.292,2449.876 1287.071,2601.659 2725.277,2400.111 				"/>
				<path style="fill:#D8DEE8;" d="M1636.26,2437.228l-292.123-52.175c-2.983-0.533-6.03-0.603-9.036-0.21l-312.236,40.877
					c-3.778,0.495-4.073,5.85-0.373,6.757l266.819,65.414c3.04,0.745,6.196,0.886,9.291,0.414l337.537-51.45
					C1641.593,2446.023,1641.691,2438.198,1636.26,2437.228z"/>
				
					<linearGradient id="SVGID_00000165924295049088615150000002706211091901196418_" gradientUnits="userSpaceOnUse" x1="1283.6802" y1="2441.6138" x2="1278.0817" y2="2301.6504">
					<stop  offset="0" style="stop-color:#444B8C"/>
					<stop  offset="0.1808" style="stop-color:#3F4481"/>
					<stop  offset="0.9964" style="stop-color:#26264F"/>
				</linearGradient>
				<polygon style="fill:url(#SVGID_00000165924295049088615150000002706211091901196418_);" points="1287.071,2406.643 
					1272.453,2428.104 1272.453,2259.215 1287.071,2259.215 				"/>
				
					<linearGradient id="SVGID_00000129174037512688356730000012695300487712324747_" gradientUnits="userSpaceOnUse" x1="1275.4532" y1="2289.4126" x2="1281.0518" y2="2124.2549">
					<stop  offset="0" style="stop-color:#444B8C"/>
					<stop  offset="0.1808" style="stop-color:#3F4481"/>
					<stop  offset="0.9964" style="stop-color:#26264F"/>
				</linearGradient>
				
					<rect x="1259.701" y="2083.464" style="fill:url(#SVGID_00000129174037512688356730000012695300487712324747_);" width="38.733" height="198.643"/>
				
					<linearGradient id="SVGID_00000129168463441449909570000001224840538371527093_" gradientUnits="userSpaceOnUse" x1="2697.2734" y1="1973.6335" x2="1738.0533" y2="1723.5643">
					<stop  offset="0.0036" style="stop-color:#E38DDD"/>
					<stop  offset="1" style="stop-color:#9571F6"/>
				</linearGradient>
				<path style="fill:url(#SVGID_00000129168463441449909570000001224840538371527093_);" d="M1963.874,1681.009
					c0,22.394-12.441,602.155-12.441,602.155l773.844,116.948l-57.23-938.068l-639.479,82.112L1963.874,1681.009z"/>
				
					<linearGradient id="SVGID_00000118388139553277502100000013704736498623326644_" gradientUnits="userSpaceOnUse" x1="1259.309" y1="2191.0339" x2="1260.2419" y2="1988.5531">
					<stop  offset="0" style="stop-color:#444B8C"/>
					<stop  offset="0.1808" style="stop-color:#3F4481"/>
					<stop  offset="0.9964" style="stop-color:#26264F"/>
				</linearGradient>
				<path style="fill:url(#SVGID_00000118388139553277502100000013704736498623326644_);" d="M1199.983,2044.292v123.168
					c0,19.926,16.152,36.079,36.079,36.079h47.276c19.927,0,36.081-16.153,36.081-36.079v-123.168H1199.983z"/>
				
					<linearGradient id="SVGID_00000178913080602274435660000003757484772158997130_" gradientUnits="userSpaceOnUse" x1="1094.2322" y1="2113.5505" x2="1191.6335" y2="2113.5505">
					<stop  offset="0" style="stop-color:#444B8C"/>
					<stop  offset="0.1808" style="stop-color:#3F4481"/>
					<stop  offset="0.9964" style="stop-color:#26264F"/>
				</linearGradient>
				<path style="fill:url(#SVGID_00000178913080602274435660000003757484772158997130_);" d="M1121.962,2061.71l-25.937,67.547
					c-6.688,17.42,6.171,36.134,24.833,36.134c9.863,0,18.915-5.458,23.521-14.18l47.256-89.501H1121.962z"/>
				
					<linearGradient id="SVGID_00000109026537429172421060000005260981927356254108_" gradientUnits="userSpaceOnUse" x1="2132.7915" y1="1103.7369" x2="1692.3739" y2="4373.2964">
					<stop  offset="0" style="stop-color:#AA80F9"/>
					<stop  offset="0.9964" style="stop-color:#6165D7"/>
				</linearGradient>
				<path style="fill:url(#SVGID_00000109026537429172421060000005260981927356254108_);" d="M3089.888,2491.535l-215.063-1070.689
					c-5.032-25.058-17.361-48.069-35.432-66.141l-48.435-48.435c-30.862-30.861-72.873-47.957-116.513-47.413l-1442.557,17.976
					c-57.527,0.716-114.726,8.801-170.2,24.057l-112.711,42.893l185.532,738.562c0,0,217.737-6.098,306.214-9.034
					c32.596-1.082,63.767-13.516,88.17-35.153l232.351-206.018c68.185-60.457,146.61-108.266,231.587-141.177l263.635-102.106
					c130.004-19.862,254.493,60.045,290.574,186.51l178.235,624.744l-1438.206,201.548v470.278l1648.646-317.782
					c42.824-8.255,79.019-36.692,97.175-76.346l47.391-103.509C3092.131,2548.416,3095.494,2519.446,3089.888,2491.535z"/>
				
					<linearGradient id="SVGID_00000169546643639292350250000008256407826483982737_" gradientUnits="userSpaceOnUse" x1="2765.4155" y1="1590.0348" x2="2705.6978" y2="1948.3429">
					<stop  offset="0" style="stop-color:#444B8C"/>
					<stop  offset="0.1808" style="stop-color:#3F4481"/>
					<stop  offset="0.9964" style="stop-color:#26264F"/>
				</linearGradient>
				<path style="fill:url(#SVGID_00000169546643639292350250000008256407826483982737_);" d="M2881.255,1783.306l-31.171-121.222
					c-3.16-12.294-14.244-20.888-26.938-20.888h-193.157c-17.608,0-30.786,16.155-27.249,33.404l28.026,136.618
					c2.82,13.745,15.434,23.238,29.422,22.141l196.304-15.397C2873.719,1816.612,2885.559,1800.042,2881.255,1783.306z"/>
				
					<linearGradient id="SVGID_00000080907616734677521970000012591242369265256347_" gradientUnits="userSpaceOnUse" x1="901.3938" y1="1696.0439" x2="1287.0707" y2="1696.0439">
					<stop  offset="0" style="stop-color:#AA80F9"/>
					<stop  offset="0.9964" style="stop-color:#6165D7"/>
				</linearGradient>
				<path style="fill:url(#SVGID_00000080907616734677521970000012591242369265256347_);" d="M1204.977,1321.579
					c-74.75-14.384-186.524-23.718-274.347,20.865c-18.004,9.14-29.236,27.752-29.236,47.944v440.04
					c0,4.87,0.674,9.717,2.007,14.401l54.845,192.975c6.174,21.726,25.514,37.098,48.072,38.212l128.193,6.33
					c21.314,1.053,40.95-11.526,48.906-31.329l96.234-239.561c4.902-12.204,7.421-25.234,7.421-38.386v-351.898
					C1287.071,1372.598,1252.676,1330.757,1204.977,1321.579z"/>
				
					<linearGradient id="SVGID_00000046321209477782525420000003497440620256713407_" gradientUnits="userSpaceOnUse" x1="1622.3468" y1="1703.8185" x2="1590.5797" y2="1806.4509" gradientTransform="matrix(0.9855 -0.1696 0.1696 0.9855 728.9166 108.9494)">
					<stop  offset="0" style="stop-color:#FF9085"/>
					<stop  offset="1" style="stop-color:#FB6FBB"/>
				</linearGradient>
				<path style="fill:url(#SVGID_00000046321209477782525420000003497440620256713407_);" d="M2632.878,1558.913
					c2.797,16.252-5.09,31.174-17.617,33.33c-12.527,2.156-24.95-9.27-27.748-25.522c-2.797-16.252,5.09-31.174,17.617-33.33
					S2630.081,1542.661,2632.878,1558.913z"/>
				
					<linearGradient id="SVGID_00000056388490107452760400000007525883910556376195_" gradientUnits="userSpaceOnUse" x1="1703.2703" y1="1717.7451" x2="1671.5032" y2="1820.3776" gradientTransform="matrix(0.9855 -0.1696 0.1696 0.9855 728.9166 108.9494)">
					<stop  offset="0" style="stop-color:#FF9085"/>
					<stop  offset="1" style="stop-color:#FB6FBB"/>
				</linearGradient>
				<path style="fill:url(#SVGID_00000056388490107452760400000007525883910556376195_);" d="M2714.99,1558.913
					c2.797,16.252-5.091,31.174-17.618,33.33c-12.527,2.156-24.951-9.27-27.748-25.522c-2.797-16.252,5.09-31.174,17.618-33.33
					C2699.77,1531.234,2712.193,1542.661,2714.99,1558.913z"/>
				
					<linearGradient id="SVGID_00000048500370408125125930000011672337164577802127_" gradientUnits="userSpaceOnUse" x1="1784.1938" y1="1731.6716" x2="1752.4268" y2="1834.3041" gradientTransform="matrix(0.9855 -0.1696 0.1696 0.9855 728.9166 108.9494)">
					<stop  offset="0" style="stop-color:#FF9085"/>
					<stop  offset="1" style="stop-color:#FB6FBB"/>
				</linearGradient>
				<path style="fill:url(#SVGID_00000048500370408125125930000011672337164577802127_);" d="M2797.102,1558.913
					c2.797,16.252-5.09,31.174-17.618,33.33c-12.527,2.156-24.95-9.27-27.747-25.522c-2.798-16.252,5.09-31.174,17.617-33.33
					C2781.882,1531.234,2794.305,1542.661,2797.102,1558.913z"/>
				
					<linearGradient id="SVGID_00000009570972494891888070000008721709136411118256_" gradientUnits="userSpaceOnUse" x1="1514.0026" y1="1436.5096" x2="1283.2477" y2="1811.4862">
					<stop  offset="0" style="stop-color:#444B8C"/>
					<stop  offset="0.1808" style="stop-color:#3F4481"/>
					<stop  offset="0.9964" style="stop-color:#26264F"/>
				</linearGradient>
				<path style="fill:url(#SVGID_00000009570972494891888070000008721709136411118256_);" d="M1443.209,1422.231h-50.387v315.09
					h50.387c15.46,0,27.993-12.533,27.993-27.993v-259.105C1471.201,1434.764,1458.668,1422.231,1443.209,1422.231z"/>
				
					<linearGradient id="SVGID_00000098935610073940825990000013279309790645742753_" gradientUnits="userSpaceOnUse" x1="2389.6692" y1="1138.3459" x2="1949.2531" y2="4407.8965">
					<stop  offset="0" style="stop-color:#AA80F9"/>
					<stop  offset="0.9964" style="stop-color:#6165D7"/>
				</linearGradient>
				<path style="opacity:0.3;fill:url(#SVGID_00000098935610073940825990000013279309790645742753_);" d="M2378.167,2631.518
					c-499.959-19.259-674.022,269.135-974.148,153.027c-34.621-13.394-74.607-33.633-116.948-65.704v353.096l1648.646-317.782
					c42.824-8.255,79.019-36.692,97.175-76.346l47.391-103.509c4.49-9.808,7.749-20.061,9.775-30.53
					c-50.028,42.796-108.966,80.538-178.162,106.409C2725.147,2720.001,2630.409,2641.235,2378.167,2631.518z"/>
				<path style="fill:#97A6B7;" d="M1392.822,1521.761l117.222-55.26c9.515-3.972,25.853,6.913,25.853,17.224v5.222
					c0,12.253-7.607,23.219-19.084,27.51l-123.99,46.361V1521.761z"/>
				<path style="fill:#D8DEE8;" d="M1392.822,1514.483l112.335-46.888c9.515-3.972,20.008,3.019,20.008,13.33v5.221
					c0,12.253-7.607,23.219-19.084,27.51l-113.26,42.349V1514.483z"/>
				<path style="opacity:0.5;fill:#FFFFFF;" d="M1975.518,1336.972c290.797-2.124,436.195-3.186,520.639,44.786
					c8.329,4.732,87.972,50.498,195.939,55.983c41.105,2.088,77.731,3.516,95.172-16.795c22.66-26.389,5.548-80.88-22.272-135.728
					c-26.697-17.437-58.169-26.765-90.55-26.361l-1442.557,17.976c-25.494,0.318-50.912,2.167-76.156,5.361
					c57.166,26.071,123.514,49.881,198.377,65.975C1533.699,1386.777,1571.159,1339.926,1975.518,1336.972z"/>
			</g>
			
				<linearGradient id="SVGID_00000036249475220564582970000010876948713349637004_" gradientUnits="userSpaceOnUse" x1="2001.9393" y1="2585.416" x2="1326.6973" y2="3240.041">
				<stop  offset="0" style="stop-color:#FFC444"/>
				<stop  offset="0.9964" style="stop-color:#F36F56"/>
			</linearGradient>
			<path style="fill:url(#SVGID_00000036249475220564582970000010876948713349637004_);" d="M3106.313,2813.809
				c-181.753-138.59-428.753,95.865-694.178,13.746c-194.979-60.324-148.207-213.607-357.398-357.399
				c-397.504-273.231-894.268,54.854-1079.068-171.826c-26.262-32.214-41.766-70.207-49.852-110.27
				c-15.988,9.753-31.798,19.802-47.423,30.13c-55.781,36.868-109.338,76.759-162.169,117.636c1.71,1.251,3.396,2.524,5.141,3.741
				c144.743,100.911,281.951-6.493,515.479,109.969c135.914,67.781,157.788,138.248,302.414,281.795
				c189.935,188.517,437.891,434.623,707.924,433.002c330.168-1.982,511.805-373.226,783.527-281.795
				c56.99,19.176,144.267,67.563,158.08,48.112C3200.923,2913.565,3152.763,2849.228,3106.313,2813.809z"/>
		</g>
		<g>
			<g>
				
					<linearGradient id="SVGID_00000148639275145155954530000006568451482954931114_" gradientUnits="userSpaceOnUse" x1="-1399.2682" y1="556.2972" x2="-676.5599" y2="1047.193" gradientTransform="matrix(-1 0 0 1 230.2854 0)">
					<stop  offset="0" style="stop-color:#311944"/>
					<stop  offset="1" style="stop-color:#6B3976"/>
				</linearGradient>
				<path style="fill:url(#SVGID_00000148639275145155954530000006568451482954931114_);" d="M1589.848,817.414
					c13.596-8.815,1.208-34.457,0.476-89.535c-0.898-67.495,17.029-80.072,2.631-106.553
					c-17.606-32.381-61.926-45.781-91.288-46.412c-6.476-0.139-7.99-3.675-62.245,10.375
					c-97.747,25.315-122.216-1.822-165.99,25.285c-42.29,26.191-23.771,54.874-64.839,85.588
					c-66.567,49.787-136.568-4.039-184.143,37.607c-45,39.391-46.037,139.75,1.297,194.519
					c53.659,62.088,150.414,43.435,215.266,31.123c13.645-2.589,82.563-17.062,154.319-70.025
					c39.695-29.3,66.951-60.589,84.292-83.644c4.069-4.58,10.42-10.13,18.803-11.022c10.064-1.075,18.149,5.082,22.045,7.78
					C1540.928,816.667,1576.492,826.071,1589.848,817.414z"/>
				<path style="fill:#EFEFEF;" d="M1535.219,780.423c17.481-15.926,79.864,14.769,121.207,55.508
					c48.57,47.862,44.836,86.669,87.224,146.128c21.071,29.56,57.197,69.354,121.207,104.213
					c-4.531,11.327-9.062,22.657-13.593,33.983c-30.949,1.862-91.71,0.767-148.395-36.246
					c-39.376-25.713-59.637-59.782-98.551-126.873C1565.264,889.804,1513.368,800.332,1535.219,780.423z"/>
				
					<linearGradient id="SVGID_00000162322465801744511590000005278552008378291871_" gradientUnits="userSpaceOnUse" x1="-1443.0619" y1="776.583" x2="-1336.8514" y2="776.583" gradientTransform="matrix(-0.831 -0.5562 -0.5562 0.831 1166.3326 279.3084)">
					<stop  offset="0" style="stop-color:#311944"/>
					<stop  offset="1" style="stop-color:#6B3976"/>
				</linearGradient>
				<path style="fill:url(#SVGID_00000162322465801744511590000005278552008378291871_);" d="M1917.018,1716.158l-19.878-42.234
					c-2.824-6-7.227-11.118-12.738-14.807l-9.843-6.588c0,0-23.528-0.625-27.19,14.165c-0.788,18.781,35.71,60.745,58.792,77.409
					c3.832,2.766,9.296,6.453,12.617,4.555C1924.399,1745.445,1920.455,1728.17,1917.018,1716.158z"/>
				
					<linearGradient id="SVGID_00000154391489734112128340000012924043773107687323_" gradientUnits="userSpaceOnUse" x1="-1674.3354" y1="1750.8398" x2="-1501.0179" y2="1230.8857" gradientTransform="matrix(-1 0 0 1 230.2854 0)">
					<stop  offset="0" style="stop-color:#FFC444"/>
					<stop  offset="0.9964" style="stop-color:#F36F56"/>
				</linearGradient>
				<path style="fill:url(#SVGID_00000154391489734112128340000012924043773107687323_);" d="M1879.663,1629.566
					c-3.13,18.115,0.83,27.559,5.098,32.85c3.004,3.724,27.382,43.919,17.369,50.41c-4.519,2.929-35.49-35.53-38.493-41.422
					c-2.72-5.336-4.489-4.077-4.647-18.616c-0.104-9.572-2.05-17.276-3.581-22.097
					C1863.494,1630.315,1871.578,1629.942,1879.663,1629.566z"/>
				
					<linearGradient id="SVGID_00000181804545203314083140000007425431584353429439_" gradientUnits="userSpaceOnUse" x1="-1703.3961" y1="1512.0728" x2="-1643.8713" y2="1512.0728" gradientTransform="matrix(-1 0 0 1 230.2854 0)">
					<stop  offset="0" style="stop-color:#311944"/>
					<stop  offset="1" style="stop-color:#6B3976"/>
				</linearGradient>
				<path style="fill:url(#SVGID_00000181804545203314083140000007425431584353429439_);" d="M1914.866,1485.999
					c0,0,22.001,26.253,18.421,55.033c-3.58,28.779-42.112-13.297-47.483-27.517c-5.373-14.219-11.648-34.479-11.648-34.479
					S1901.176,1462.227,1914.866,1485.999z"/>
				
					<linearGradient id="SVGID_00000054247983784329464590000017351423251014590104_" gradientUnits="userSpaceOnUse" x1="-1737.8947" y1="1675.5173" x2="-1640.6968" y2="1383.9227" gradientTransform="matrix(-1 0 0 1 230.2854 0)">
					<stop  offset="0" style="stop-color:#FFC444"/>
					<stop  offset="0.9964" style="stop-color:#F36F56"/>
				</linearGradient>
				<path style="fill:url(#SVGID_00000054247983784329464590000017351423251014590104_);" d="M1906.473,1444.922
					c0,0-5.969,30.585,5.416,46.727c5.67,8.04,13.318,14.859,11.069,21.404c-1.507,4.386-7.23,7.537-12.078,7.039
					c-9.281-0.953-14.426-15.182-18.055-25.218c-5.359-14.823-8.347-46.542-8.347-46.542L1906.473,1444.922z"/>
				
					<linearGradient id="SVGID_00000182498898548577661270000006835301457445485443_" gradientUnits="userSpaceOnUse" x1="-1618.1288" y1="1184.2498" x2="-1545.6316" y2="1603.3755" gradientTransform="matrix(-1 0 0 1 230.2854 0)">
					<stop  offset="0" style="stop-color:#444B8C"/>
					<stop  offset="0.9964" style="stop-color:#26264F"/>
				</linearGradient>
				<path style="fill:url(#SVGID_00000182498898548577661270000006835301457445485443_);" d="M1888.938,1470.705
					c6.767-2.464,13.533-4.929,20.299-7.394c10.556-24.11,23.439-63.71,19.136-111.843
					c-11.066-123.783-125.552-189.376-138.27-196.397c-31.192,15.651-62.786,37.729-63.931,65.562
					c-1.436,34.939,46.162,53.408,90.905,104.499C1843.934,1355.798,1872.631,1401.493,1888.938,1470.705z"/>
				
					<linearGradient id="SVGID_00000124882840487653224120000007843828700290057917_" gradientUnits="userSpaceOnUse" x1="-1515.7457" y1="1680.975" x2="-1412.663" y2="1354.7352" gradientTransform="matrix(-1 0 0 1 230.2854 0)">
					<stop  offset="0" style="stop-color:#444B8C"/>
					<stop  offset="0.9964" style="stop-color:#26264F"/>
				</linearGradient>
				<path style="fill:url(#SVGID_00000124882840487653224120000007843828700290057917_);" d="M1881.644,1643.725
					c22.356-87.332,16.644-158.598,10.196-199.652c-9.748-62.051-29.574-188.269-113.844-235.334
					c-18.402-10.278-44.709-19.481-76.772-48.056c-26.776-23.861-43.794-48.958-54.063-66.638
					c-112.7-33.061-216.651-19.663-262.521,40.78c-5.3,6.985-18.569,22.133-21.136,44.471
					c-5.792,50.4,43.729,111.076,99.297,123.747c70.623,16.104,111.594-56.411,174.164-32.285
					c17.503,6.749,32.341,23.473,62.02,56.922c37.755,42.55,58.978,81.814,67.008,97.525
					c23.908,46.783,42.039,81.319,44.684,126.077c0.615,10.426,0.983,31.492,13.196,54.211
					c9.375,17.441,22.082,29.068,31.536,36.253C1864.155,1642.405,1872.899,1643.067,1881.644,1643.725z"/>
				
					<linearGradient id="SVGID_00000103947569595884383390000014824684374884208061_" gradientUnits="userSpaceOnUse" x1="-1515.7367" y1="1680.979" x2="-1412.6538" y2="1354.7389" gradientTransform="matrix(-1 0 0 1 230.2854 0)">
					<stop  offset="0" style="stop-color:#AA80F9"/>
					<stop  offset="0.9964" style="stop-color:#6165D7"/>
				</linearGradient>
				<path style="opacity:0.3;fill:url(#SVGID_00000103947569595884383390000014824684374884208061_);" d="M1363.503,1179.296
					c2.567-22.338,15.837-37.486,21.136-44.471c45.87-60.443,149.821-73.841,262.521-40.78
					c10.269,17.68,27.287,42.776,54.062,66.638c32.064,28.574,58.371,37.778,76.773,48.056
					c51.459,28.74,78.864,86.987,94.642,142.123c-23.411-36.298-43.45-45.948-58.959-46.121
					c-22.198-0.246-32.116,18.733-58.622,16.142c-28.33-2.768-34.807-26.193-57.771-28.885c-6.874-0.805-15.331,0.255-25.489,5.663
					c-13.556-14.193-23.66-22.596-34.832-26.903c-62.571-24.126-103.542,48.389-174.164,32.285
					C1407.232,1290.372,1357.711,1229.695,1363.503,1179.296z"/>
				
					<linearGradient id="SVGID_00000130604800901686349030000013832523411540197791_" gradientUnits="userSpaceOnUse" x1="-1370.6851" y1="1141.9481" x2="-1298.3549" y2="1560.1079" gradientTransform="matrix(-1 0 0 1 230.2854 0)">
					<stop  offset="0" style="stop-color:#444B8C"/>
					<stop  offset="0.9964" style="stop-color:#26264F"/>
				</linearGradient>
				<path style="fill:url(#SVGID_00000130604800901686349030000013832523411540197791_);" d="M1823.251,1247.799
					c-12.756-0.677-32.399-1.07-56.094,1.271c-112.452,11.113-143.451,66.736-236.39,80.309
					c-21.985,3.211-119.872,17.508-162.27-39.08c-30.438-40.627-25.833-110.631,7.46-138.165
					c14.09-11.653,28.041-11.329,118.278-10.513c33.983,0.308,67.968,0.417,101.95,0.851
					c143.849,1.833,171.359-8.129,197.533,15.663C1805.928,1169.234,1823.782,1193.074,1823.251,1247.799z"/>
				<g>
					<g>
						<path style="fill:#EFEFEF;" d="M1519.571,786.26c0,0-113.545-33.113-163.551,23.495c-9.181,10.393-16.44,24.06-21.721,50.441
							c-26.917,134.436,74.892,215.183,34.781,286.106c-15.928,28.164-43.983,36.649-63.919,87.265
							c-3.375,8.568-15.583,39.563-4.381,49.328c9.866,8.602,26.09-9.557,54.911-6.051c30.521,3.713,37.652,27.159,58.186,23.746
							c13.389-2.227,19.16-13.657,38.884-42.156c28.555-41.258,42.832-61.887,53.067-69.121
							c40.381-28.539,71.593,8.679,117.643-19.581c16.672-10.232,78.443-89.763,60.27-67.916l0,0
							c-43.256-53.963-53.307-98.484-54.341-129.439c-1.133-33.936,8.649-49.36,0-89.478c0,0-9.65-44.762-44.466-83.199
							C1579.936,794.184,1573.978,788.437,1519.571,786.26z"/>
					</g>
				</g>
				<g>
					
						<linearGradient id="SVGID_00000084519693302678657490000003636452858004314795_" gradientUnits="userSpaceOnUse" x1="3154.2581" y1="559.3395" x2="3161.6448" y2="362.5872" gradientTransform="matrix(0.984 0.1784 -0.1784 0.984 -1518.1509 -244.2395)">
						<stop  offset="0" style="stop-color:#FFC444"/>
						<stop  offset="0.9964" style="stop-color:#F36F56"/>
					</linearGradient>
					<path style="fill:url(#SVGID_00000084519693302678657490000003636452858004314795_);" d="M1483.115,712.612
						c1.537,7.184,9.365,45.735-6.408,55.653c-3.419,2.152-9.988,3.382-23.128,5.845c-8.602,1.612-15.82,2.601-20.911,3.21
						c0.735,6.464,2.913,16.986,10.373,26.557c20.913,26.83,62.844,19.887,68.824,18.798c21.092-3.84,41.847-10.357,46.859-14.34
						c7.632-6.064,13.633-10.615,17.182-15.237c-8.162-3.944-24.641-14.346-35.7-17.751c-8.265-2.542-16.022-4.357-23.08-5.659
						c-1.159-7.447-2.321-14.893-3.481-22.341C1503.468,735.768,1493.291,724.191,1483.115,712.612z"/>
					
						<linearGradient id="SVGID_00000069372598337792786470000001403738888918362273_" gradientUnits="userSpaceOnUse" x1="3151.9529" y1="385.646" x2="3148.7913" y2="640.3876" gradientTransform="matrix(0.984 0.1784 -0.1784 0.984 -1518.1509 -244.2395)">
						<stop  offset="0" style="stop-color:#FFC444"/>
						<stop  offset="0.9964" style="stop-color:#F36F56"/>
					</linearGradient>
					<path style="fill:url(#SVGID_00000069372598337792786470000001403738888918362273_);" d="M1482.376,731.825
						c0,0,2.85,28.251,30.312,33.229c24.589,4.458,43.099-54.961,30.515-70.331c-4.197-5.126-14.56-10.004-23.544-9.746
						c-6.318,0.183-27.659,8.31-30.637,29.663c-4.25-4.477-9.546-5.764-12.157-3.889c-3.312,2.378-1.538,9.294-1.135,10.86
						C1477.124,727.041,1480.668,730.406,1482.376,731.825z"/>
				</g>
				<path style="opacity:0.57;fill:#D8DEE8;" d="M1683.74,1101.818c-5.204-6.493-9.903-12.842-14.189-19.054
					c-23.856-7.994-44.495-10.967-61.144-11.776c-37.554-1.821-58.119,7.014-83.681-8.368c-29.017-17.461-23.881-41.7-51.883-55.23
					c-29.471-14.24-50.309,1.852-78.661-3.346c-17.122-3.14-37.978-14.59-59.261-47.991
					c16.298,80.419,63.699,138.014,34.157,190.249c-15.928,28.164-43.983,36.649-63.919,87.265
					c-3.375,8.568-15.583,39.563-4.381,49.328c9.866,8.602,26.09-9.557,54.911-6.051c30.521,3.713,37.653,27.159,58.186,23.746
					c13.389-2.227,19.16-13.657,38.884-42.156c28.555-41.258,42.832-61.887,53.067-69.121
					c40.381-28.539,71.593,8.679,117.643-19.581C1640.142,1159.501,1701.913,1079.97,1683.74,1101.818z"/>
			</g>
			<g>
				
					<linearGradient id="SVGID_00000078750867661195698310000010449563470305241730_" gradientUnits="userSpaceOnUse" x1="15.4462" y1="1136.4861" x2="296.2571" y2="1136.4861" gradientTransform="matrix(-1 0 0 1 1740.2787 0)">
					<stop  offset="0" style="stop-color:#40447E"/>
					<stop  offset="0.9964" style="stop-color:#3C3B6B"/>
				</linearGradient>
				<path style="fill:url(#SVGID_00000078750867661195698310000010449563470305241730_);" d="M1717.954,1115.616l-256.915,12.502
					c-3.536,0.173-6.761,2.067-8.632,5.072l-7.109,11.41c-3.538,5.679,0.713,13.005,7.401,12.75l272.133-10.367L1717.954,1115.616z"
					/>
				
					<linearGradient id="SVGID_00000082359732812888074910000004121660854377426833_" gradientUnits="userSpaceOnUse" x1="-164.1321" y1="959.3492" x2="19.9752" y2="1141.9836" gradientTransform="matrix(-1 0 0 1 1740.2787 0)">
					<stop  offset="0" style="stop-color:#40447E"/>
					<stop  offset="0.9964" style="stop-color:#3C3B6B"/>
				</linearGradient>
				<path style="fill:url(#SVGID_00000082359732812888074910000004121660854377426833_);" d="M1985.167,972.548l-265.421,5.144
					c-7.854,0.152-15.045,4.431-18.926,11.259l-91.913,161.711l280.318-11.168c7.694-0.307,14.715-4.473,18.67-11.08l85.156-142.266
					C1996.677,980.092,1992.225,972.411,1985.167,972.548z"/>
				
					<linearGradient id="SVGID_00000003795245999472914400000012720803322756057272_" gradientUnits="userSpaceOnUse" x1="-164.1316" y1="959.3494" x2="19.9757" y2="1141.984" gradientTransform="matrix(-1 0 0 1 1740.2787 0)">
					<stop  offset="0" style="stop-color:#40447E"/>
					<stop  offset="0.9964" style="stop-color:#3C3B6B"/>
				</linearGradient>
				<path style="opacity:0.3;fill:url(#SVGID_00000003795245999472914400000012720803322756057272_);" d="M1700.819,988.951
					c3.881-6.829,11.073-11.107,18.927-11.26l5.817-0.112c0.867,8.568,3.496,16.405,8.739,22.733
					c16.366,19.755,43.558,7.57,63.824,28.476c22.263,22.966,1.696,50.304,21.601,71.679c20.951,22.496,54.83,4.18,93.775,18.577
					l-5.608,9.369c-3.954,6.608-10.975,10.773-18.669,11.081l-280.318,11.168L1700.819,988.951z"/>
			</g>
			<g>
				<path style="fill:#EFEFEF;" d="M1481.975,1107.031c3.344-8.831,6.688-17.66,10.032-26.492
					c-36.958-10.134-88.072-25.104-140.5-43.838c-8.211-2.935-17.966-6.569-21.161-15.209
					c-8.965-24.237,48.027-49.353,70.183-102.274c20.49-48.945,9.212-116.868-14.568-124.892
					c-49.484-16.698-224.962,201.73-162.288,293.807C1259.099,1140.184,1368.322,1148.472,1481.975,1107.031z"/>
			</g>
			
				<linearGradient id="SVGID_00000116945344940274738970000008864905264748411568_" gradientUnits="userSpaceOnUse" x1="1548.9752" y1="1081.1134" x2="1455.6289" y2="1169.0804">
				<stop  offset="0" style="stop-color:#FFC444"/>
				<stop  offset="0.9964" style="stop-color:#F36F56"/>
			</linearGradient>
			<path style="fill:url(#SVGID_00000116945344940274738970000008864905264748411568_);" d="M1492.007,1080.539
				c23.202-12.325,50.975,0.308,52.765,1.154c5.098,2.406,12.517,6.693,20.014,14.351c0.848,1.156,10.912,15.102,7.246,19.571
				c-2.94,3.581-14.321,0.612-28-7.895c-5.734-0.804-14.27-1.542-24.496-0.601c-18.779,1.733-27.381,7.665-34.198,2.544
				c-4.991-3.749-6.693-11.674-4.896-17.567C1482.372,1085.766,1488.08,1082.626,1492.007,1080.539z"/>
		</g>
		<g>
			<g>
				
					<linearGradient id="SVGID_00000005983519990980904650000004675656115293224873_" gradientUnits="userSpaceOnUse" x1="-92.1895" y1="2133.0308" x2="-47.2952" y2="2171.2517" gradientTransform="matrix(-0.9356 0.353 0.353 0.9356 1480.8118 -226.0846)">
					<stop  offset="0" style="stop-color:#AB316D"/>
					<stop  offset="1" style="stop-color:#792D3D"/>
				</linearGradient>
				<path style="fill:url(#SVGID_00000005983519990980904650000004675656115293224873_);" d="M2278.889,1784.298l5.024-22.228
					c0,0,6.749-18.552,29.786-23.568c23.036-5.015,23.84,7.579,23.84,7.579l-14.813,5.779c0,0-9.591,3.673-15.13,18.484
					c-8.204,15.304-17.191,22.764-17.191,22.764L2278.889,1784.298z"/>
				
					<linearGradient id="SVGID_00000171721324189144307680000011976366610312844986_" gradientUnits="userSpaceOnUse" x1="1689.9265" y1="3159.2109" x2="1689.9265" y2="3093.6948" gradientTransform="matrix(1 0 0 1 905.1393 0)">
					<stop  offset="0" style="stop-color:#AB316D"/>
					<stop  offset="1" style="stop-color:#792D3D"/>
				</linearGradient>
				<path style="fill:url(#SVGID_00000171721324189144307680000011976366610312844986_);" d="M2577.139,3098.832
					c0,0,14.311,35.987,10.545,51.947c15.366-0.302,25.309-2.259,25.309-2.259s-6.176-16.413-7.382-24.543
					c-1.628-10.985-1.507-28.759-1.507-28.759L2577.139,3098.832z"/>
				<path style="fill:#26264F;" d="M2312.612,3193.038c0.881,1.063,2.448,3.287,2.578,6.299c0.072,1.637-0.303,2.983-0.774,4.221
					c-2.325,6.117-5.978,6.922-9.919,13.413c-2.407,3.965-1.953,5.161-4.16,6.951c-2.907,2.359-6.425,2.494-9.475,2.529
					c-5.151,0.059-12.57-0.125-21.91-1.238c4.894-6.305,10.099-12.711,15.635-19.177c2.428-2.836,4.852-5.606,7.269-8.309
					l14.392-4.86C2308.369,3192.924,2310.491,3192.98,2312.612,3193.038z"/>
				
					<linearGradient id="SVGID_00000160876875586413104330000008032800804903770528_" gradientUnits="userSpaceOnUse" x1="1384.5048" y1="3188.1584" x2="1384.5048" y2="3112.918" gradientTransform="matrix(1 0 0 1 905.1393 0)">
					<stop  offset="0" style="stop-color:#AB316D"/>
					<stop  offset="1" style="stop-color:#792D3D"/>
				</linearGradient>
				<path style="fill:url(#SVGID_00000160876875586413104330000008032800804903770528_);" d="M2300.644,3123.203
					c0,0-8.226,42.899,2.242,54.912c8.917,12.012-4.307,3.443-4.307,3.443l-15.791,13.775l-9.475,16.357
					c0,0,8.722-41.988,6.396-58.65s-3.49-27.899-3.49-27.899L2300.644,3123.203z"/>
				
					<linearGradient id="SVGID_00000136402836392545597520000011916214812080733863_" gradientUnits="userSpaceOnUse" x1="-29.8408" y1="3222.6611" x2="-311.4657" y2="2085.604" gradientTransform="matrix(-1 0 0 1 2255.5764 0)">
					<stop  offset="0" style="stop-color:#444B8C"/>
					<stop  offset="0.9964" style="stop-color:#26264F"/>
				</linearGradient>
				<path style="fill:url(#SVGID_00000136402836392545597520000011916214812080733863_);" d="M2220.139,2317.572
					c-10.521,34.74-25.543,90.809-35.214,161.156c-27.585,200.653,31.045,207.054,20.095,429.403
					c-3.495,70.975,61.489,234.635,67.216,238.25c2.772,0.267,5.78,0.449,8.987,0.352c5.653-0.171,13.622-1.037,22.889-3.816
					c10.294-1.772,47.406-102.298,38.804-162.065c-6.088-42.301-4.323-87.699-0.793-178.495
					c0.571-14.712,38.213-286.229,38.213-286.229l0,0c11.45,100.5,24.617,185.894,36.033,252.101
					c36.677,212.71,155.93,341.457,162.15,343.522c1.229,0.494,12.419,4.558,21.567-1.472c4.072-2.684,5.458-6.147,5.458-6.147
					c3.19-2.498-0.94-212.368-37.314-370.313c-52.796-229.256-29.806-282.898-46.533-385.298
					C2507.224,2259.918,2220.139,2317.572,2220.139,2317.572z"/>
				<g>
					<path style="fill:#26264F;" d="M2583.919,3164.435c0,0-3.567,0-3.27,4.605c0.298,4.605-1.606,20.446,16.526,21.188
						c18.133,0.742,20.928-1.283,21.523-1.283s-4.756-15.152-4.756-15.152l-5.796-7.427l-15.606-1.634L2583.919,3164.435z"/>
					<path style="fill:#444B8C;" d="M2624.124,3180.335c-0.387-3.825-2.529-9.846-4.683-14.692
						c-3.202-7.198-0.574-9.892-3.633-16.449c-1.058-2.266-2.086-4.416-4.321-6.545c-0.515-0.491-5.518-5.112-12.804-4.877
						c-1.434,0.047-3.641,0.142-6.027,1.414c-2.812,1.497-4.221,3.747-5.424,5.722c-1.89,3.103-1.456,4.055-4.368,12.949
						c-0.234,0.712-0.746,2.264-1.141,4.406c-0.302,1.639-0.424,3.016-0.478,3.956c4.756,0,23.038,0.742,26.902,3.565
						c3.864,2.822,5.796,7.576,5.796,12.33c0,4.753,2.378,6.981,4.756,6.833C2620.823,3188.813,2625.043,3184.88,2624.124,3180.335z
						"/>
				</g>
				<path style="fill:#444B8C;" d="M2298.435,3172.088c3.892,0.061,6.747,3.157,8.901,10.618c2.154,7.461,12.49,14.062,0.431,12.483
					c-12.059-1.578-20.816,15.497-25.122,21.81c-4.308,6.313-15.869,11.923-15.582,5.753c0.287-6.17,5.389-9.053,6.824-15.366
					C2275.322,3201.073,2289.558,3171.949,2298.435,3172.088z"/>
				<path style="fill:#EFEFEF;" d="M2433.392,1901.781c-35.053-1.031-102.943-12.477-147.319,27.451
					c-0.771,0.694-4.36,4.625-8.836,9.869c-4.156,4.87-18.41,21.915-31.333,44.958c-9.359,16.69-17.808,36.144-26.332,65.137
					c-15.033,51.132-19.346,94.673-20.789,113.643c-8.11,106.682-0.067,155.901,7.232,189.37
					c31.692,16.28,113.355,45.41,210.659,30.936c44.436-6.61,79.998-21.396,105.022-34.596
					c-25.248-76.446-5.44-117.354,3.906-155.058c18.451-74.443,22.623-103.673,74.78-210.73
					c14.38-29.517-19.765-12.983-41.634-38.889C2525.209,1904.14,2464.775,1902.704,2433.392,1901.781z"/>
				<g>
					
						<linearGradient id="SVGID_00000045591711386916977560000014237986476642186404_" gradientUnits="userSpaceOnUse" x1="1564.799" y1="1840.4031" x2="1495.9875" y2="1951.7156" gradientTransform="matrix(1 0 0 1 905.1393 0)">
						<stop  offset="0" style="stop-color:#AB316D"/>
						<stop  offset="1" style="stop-color:#792D3D"/>
					</linearGradient>
					<path style="fill:url(#SVGID_00000045591711386916977560000014237986476642186404_);" d="M2406.009,1855.838
						c2.741-21.151,19.461-34.701,23.109-37.602c15.276-12.143,18.385-13.365,23.632-14.362l7.165-1.085
						c0,0,0.385,0.009,0.782,0.033c4.194,0.254,16.765,5.161,19.051,6.767c7.302,5.135,1.925,41.498-20.21,86.723
						c-0.87,3.83-1.74,7.66-2.611,11.49c19.292,3.391,24.072,6.871,24.223,9.649c0.329,6.02-20.794,13.7-40.372,14.2
						c-24.55,0.627-50.617-9.936-50.117-17.82c0.202-3.191,4.832-7.127,22.658-10.991c2.786-3.917,5.57-7.835,8.355-11.751
						C2419.149,1888.024,2403.989,1871.419,2406.009,1855.838z"/>
					<path style="fill:#26264F;" d="M2452.75,1788.99c-7.702,7.522-9.589,20.602-7.313,30.029c1.362,5.638,3.124,6.232,2.873,9.923
						c-0.705,10.368-19.592,14.885-18.54,20.107c0.751,3.73,10.58,2.366,12.273,7.05c1.855,5.132-8.938,9.548-13.578,22.456
						c-0.723,2.013-5.112,14.226,0.522,21.412c5.259,6.709,17.024,5.119,30.291,3.395c14.633-1.901,25.129-6.223,28.201-7.572
						c9.684-4.251,20.096-8.822,28.724-19.324c2.045-2.488,14.063-17.57,13.056-38.646c-1.323-27.694-24.475-51.34-48.307-55.098
						C2477.089,1782.114,2462.195,1779.765,2452.75,1788.99z"/>
					
						<linearGradient id="SVGID_00000101102839954440285630000003570632533975154610_" gradientUnits="userSpaceOnUse" x1="939.7245" y1="1447.6954" x2="873.1371" y2="1555.4103" gradientTransform="matrix(0.9717 -0.2361 0.2361 0.9717 1190.3512 640.4756)">
						<stop  offset="0" style="stop-color:#AB316D"/>
						<stop  offset="1" style="stop-color:#792D3D"/>
					</linearGradient>
					<path style="fill:url(#SVGID_00000101102839954440285630000003570632533975154610_);" d="M2436.356,1847.875
						c5.568-3.332,9.81,3.831,7.188,10.092c-2.623,6.26-11.438,10.178-16.783,6.444
						C2421.415,1860.679,2428.864,1852.358,2436.356,1847.875z"/>
				</g>
				<path style="fill:#EFEFEF;" d="M2356.314,1900.906c-34.186-3.465-103.587-0.499-106.252-10.395
					c-0.437-1.623-0.389-4.247,11.781-18.017c24.357-27.557,37.799-32.469,42.963-48.506c1.828-5.68,3.178-14.491-0.399-26.948
					c-0.061-0.071-15.115-17.469-15.163-17.549c-3.882-6.515-7.762-13.029-15.163-17.549c-13.346-3.049-29.202-5.015-46.886-3.784
					c-104.359,7.261-219.329,122.173-200.261,220.356c17.495,90.083,148.997,172.126,296.753,126.634
					C2382.046,1960.82,2379.61,1903.266,2356.314,1900.906z"/>
				
					<linearGradient id="SVGID_00000075131359598779077880000002225172696977800589_" gradientUnits="userSpaceOnUse" x1="-259.7926" y1="2199.9202" x2="-205.6579" y2="2415.155" gradientTransform="matrix(-1 0 0 1 2255.5764 0)">
					<stop  offset="0" style="stop-color:#AB316D"/>
					<stop  offset="1" style="stop-color:#792D3D"/>
				</linearGradient>
				<path style="fill:url(#SVGID_00000075131359598779077880000002225172696977800589_);" d="M2514.624,2261.628
					c0,0-4.892,3.262-12.392,1.631c-7.501-1.631-16.631-7.827-24.784-10.436c-8.153-2.609-8.805,9.458,3.261,15.654
					c12.066,6.196,22.502,18.588,27.067,28.045c4.565,9.457,15.979-11.414,15.979-11.414L2514.624,2261.628z"/>
				<path style="fill:#EFEFEF;" d="M2519.85,1917.536c18.526-0.754,102.739-2.183,172.312,60.978
					c13.99,12.702,80.472,73.058,74.838,159.378c-6.757,103.536-113.793,191.227-196.104,178.732
					c-19.196-2.914-34.779-10.933-46.427-18.892l0,0l-13.69-38.729c-0.221-27.674,14.915-47.022,22.699-57.712
					c19.188-26.353,46.549-30.958,50.585-54.31c2.233-12.92-4.07-23.5-9.702-32.952c-19.179-32.194-49.808-36.164-65.658-52.632
					C2492.34,2044.398,2473.627,2001.794,2519.85,1917.536z"/>
				<path style="fill:#EFEFEF;" d="M2359.63,2317.455c-16.805-20.558-53.494-66.521-65.294-134.024
					c-15.026-85.964,25.843-117.989,3.437-158.08c-40.866-73.123-202.112-11.83-247.43-75.604
					c-8.969-12.622-13.796-30.792-9.836-57.534c-13.384,28.165-19.084,57.93-13.573,86.302
					c12.548,64.609,83.748,125.07,177.523,137.321c-3.388,20.684-4.925,37.166-5.673,47.003
					c-8.11,106.682-0.067,155.901,7.232,189.37c31.692,16.28,113.355,45.41,210.66,30.936c4.542-0.676,8.969-1.457,13.323-2.293
					C2405.592,2364.7,2381.357,2344.032,2359.63,2317.455z"/>
			</g>
		</g>
	</g>
</g>
</svg>
