<?xml version="1.0" encoding="utf-8"?>
<!-- Generator: Adobe Illustrator 27.5.0, SVG Export Plug-In . SVG Version: 6.00 Build 0)  -->
<svg version="1.1" xmlns="http://www.w3.org/2000/svg" xmlns:xlink="http://www.w3.org/1999/xlink" x="0px" y="0px"
	 viewBox="0 0 3710 3710" style="enable-background:new 0 0 3710 3710;" xml:space="preserve">

<g id="Illustration">
	<g>
		<linearGradient id="SVGID_1_" gradientUnits="userSpaceOnUse" x1="3516.6326" y1="3675.6316" x2="1551.6658" y2="1583.8933">
			<stop  offset="0" style="stop-color:#B37CFF"/>
			<stop  offset="1" style="stop-color:#F895E7"/>
		</linearGradient>
		<path style="opacity:0.3;fill:url(#SVGID_1_);" d="M2926.653,2836.435c-72.538,74.77-137.443,118.723-187.137,151.904
			c-484.651,323.606-1038.66,230.335-1209.946,198.455c-276.349-51.434-509.625-87.719-710.051-268.796
			c-455.429-411.462-433.278-1269.801-85.274-1801.506c41.263-63.045,388.739-578.112,943.947-650.69
			c13.58-1.775,23.712-2.786,32.586-3.726c85.889-9.094,618.129-57.089,1052.117,306.507
			c62.124,52.047,162.098,145.926,254.806,289.107C3356.687,1581.226,3357.761,2392.066,2926.653,2836.435z"/>
		<g>
			<g>
				<path style="fill:#EAC4F9;" d="M3155.739,978.305c-1.076,0-2.134-0.507-2.798-1.456c-2.594-3.704-5.236-7.366-7.922-10.987
					c-1.123-1.513-0.804-3.651,0.708-4.774c1.519-1.113,3.651-0.803,4.772,0.71c2.723,3.674,5.402,7.383,8.032,11.14
					c1.079,1.543,0.705,3.671-0.84,4.751C3157.097,978.105,3156.414,978.305,3155.739,978.305z"/>
				<path style="fill:#EAC4F9;" d="M2745.482,1774.53c-1.871,0-3.395-1.506-3.411-3.381c-0.017-1.882,1.497-3.425,3.381-3.441
					c9.235-0.083,18.561-0.423,27.722-1.013c1.859-0.1,3.501,1.306,3.623,3.185c0.12,1.882-1.306,3.505-3.187,3.625
					c-9.285,0.596-18.738,0.943-28.099,1.026C2745.502,1774.53,2745.492,1774.53,2745.482,1774.53z M2700.143,1772.868
					c-0.093,0-0.186-0.003-0.281-0.01c-9.31-0.766-18.714-1.799-27.95-3.078c-1.866-0.257-3.17-1.979-2.912-3.844
					c0.258-1.869,1.984-3.202,3.848-2.912c9.112,1.259,18.388,2.278,27.571,3.031c1.879,0.157,3.277,1.802,3.122,3.681
					C2703.393,1771.519,2701.902,1772.868,2700.143,1772.868z M2818.488,1768.557c-1.652,0-3.105-1.203-3.366-2.888
					c-0.288-1.862,0.986-3.604,2.848-3.894c9.061-1.406,18.24-3.091,27.282-5.014c1.844-0.396,3.656,0.786,4.046,2.628
					c0.391,1.843-0.785,3.655-2.627,4.048c-9.167,1.946-18.471,3.654-27.656,5.08
					C2818.84,1768.544,2818.663,1768.557,2818.488,1768.557z M2889.886,1752.126c-1.459,0-2.808-0.942-3.26-2.412
					c-0.553-1.799,0.459-3.708,2.26-4.261c8.805-2.702,17.648-5.683,26.286-8.855c1.766-0.653,3.728,0.257,4.377,2.025
					c0.65,1.769-0.256,3.728-2.025,4.378c-8.753,3.218-17.715,6.236-26.636,8.975
					C2890.555,1752.08,2890.218,1752.126,2889.886,1752.126z M2958.187,1725.682c-1.278,0-2.504-0.72-3.087-1.952
					c-0.804-1.706-0.076-3.738,1.627-4.544c8.305-3.924,16.625-8.145,24.731-12.543c1.661-0.896,3.73-0.286,4.626,1.373
					c0.899,1.655,0.285,3.724-1.371,4.624c-8.217,4.458-16.652,8.735-25.071,12.716
					C2959.171,1725.578,2958.677,1725.682,2958.187,1725.682z M3021.944,1689.632c-1.103,0-2.185-0.533-2.844-1.522
					c-1.045-1.566-0.618-3.685,0.949-4.727c7.639-5.087,15.248-10.464,22.615-15.984c1.511-1.123,3.646-0.816,4.776,0.686
					c1.129,1.509,0.823,3.644-0.685,4.777c-7.469,5.593-15.181,11.044-22.925,16.197
					C3023.25,1689.449,3022.594,1689.632,3021.944,1689.632z M3079.738,1644.741c-0.933,0-1.862-0.38-2.535-1.126
					c-1.263-1.402-1.149-3.558,0.25-4.821c6.834-6.16,13.587-12.589,20.068-19.112c1.333-1.329,3.49-1.343,4.825-0.013
					c1.336,1.326,1.343,3.488,0.015,4.824c-6.57,6.609-13.414,13.129-20.342,19.372
					C3081.367,1644.451,3080.551,1644.741,3079.738,1644.741z M3130.43,1591.925c-0.768,0-1.539-0.256-2.176-0.786
					c-1.451-1.203-1.651-3.351-0.448-4.804c5.877-7.083,11.632-14.425,17.107-21.818c1.123-1.516,3.256-1.836,4.772-0.713
					c1.514,1.123,1.832,3.258,0.711,4.771c-5.55,7.495-11.383,14.935-17.34,22.117
					C3132.383,1591.505,3131.41,1591.925,3130.43,1591.925z M3172.993,1532.332c-0.606,0-1.219-0.16-1.776-0.5
					c-1.607-0.982-2.114-3.081-1.133-4.691c4.789-7.835,9.431-15.931,13.8-24.059c0.891-1.659,2.957-2.285,4.621-1.389
					c1.659,0.893,2.28,2.962,1.389,4.621c-4.429,8.235-9.135,16.441-13.987,24.386
					C3175.265,1531.752,3174.142,1532.332,3172.993,1532.332z M3206.569,1467.233c-0.448,0-0.903-0.087-1.339-0.273
					c-1.732-0.743-2.537-2.748-1.795-4.48c3.621-8.469,7.054-17.147,10.206-25.799c0.643-1.773,2.602-2.685,4.372-2.039
					c1.771,0.643,2.682,2.602,2.037,4.371c-3.193,8.768-6.673,17.567-10.343,26.152
					C3209.154,1466.456,3207.893,1467.233,3206.569,1467.233z M3230.441,1397.969c-0.29,0-0.583-0.036-0.878-0.113
					c-1.821-0.483-2.905-2.352-2.42-4.174c2.364-8.905,4.509-17.993,6.378-27.011c0.381-1.846,2.182-3.018,4.031-2.649
					c1.845,0.383,3.031,2.189,2.648,4.035c-1.892,9.138-4.068,18.349-6.465,27.378
					C3233.332,1396.959,3231.951,1397.969,3230.441,1397.969z M3244.057,1325.973c-0.13,0-0.261-0.006-0.393-0.023
					c-1.872-0.213-3.215-1.906-3.002-3.778c1.05-9.162,1.854-18.47,2.39-27.661c0.11-1.879,1.721-3.288,3.605-3.205
					c1.882,0.11,3.316,1.722,3.208,3.605c-0.545,9.314-1.361,18.749-2.424,28.041
					C3247.242,1324.691,3245.766,1325.973,3244.057,1325.973z M3247.052,1252.722c-1.834,0-3.348-1.456-3.408-3.302
					c-0.293-9.188-0.853-18.503-1.661-27.688c-0.165-1.879,1.223-3.531,3.099-3.698c1.902-0.19,3.533,1.223,3.698,3.098
					c0.82,9.311,1.386,18.753,1.684,28.067c0.06,1.886-1.417,3.458-3.302,3.518
					C3247.125,1252.722,3247.089,1252.722,3247.052,1252.722z M3239.375,1179.867c-1.621,0-3.058-1.159-3.355-2.808
					c-1.626-9.055-3.526-18.193-5.649-27.158c-0.433-1.832,0.701-3.671,2.534-4.104c1.844-0.446,3.671,0.7,4.106,2.532
					c2.151,9.088,4.078,18.346,5.725,27.524c0.333,1.855-0.901,3.628-2.755,3.961
					C3239.778,1179.85,3239.575,1179.867,3239.375,1179.867z M3221.302,1108.877c-1.431,0-2.761-0.906-3.238-2.335
					c-2.908-8.755-6.09-17.53-9.458-26.079c-0.691-1.752,0.17-3.731,1.922-4.424c1.76-0.68,3.735,0.176,4.424,1.925
					c3.415,8.662,6.64,17.553,9.588,26.425c0.593,1.789-0.375,3.718-2.162,4.314
					C3222.02,1108.82,3221.658,1108.877,3221.302,1108.877z M3193.274,1041.199c-1.249,0-2.454-0.69-3.052-1.882
					c-4.136-8.235-8.552-16.457-13.127-24.436c-0.936-1.632-0.371-3.718,1.262-4.654c1.637-0.936,3.719-0.37,4.657,1.263
					c4.635,8.085,9.113,16.417,13.304,24.769c0.846,1.682,0.167,3.731-1.517,4.577
					C3194.31,1041.083,3193.787,1041.199,3193.274,1041.199z"/>
				<path style="fill:#EAC4F9;" d="M2627.494,1761.521c-0.257,0-0.516-0.027-0.774-0.09c-4.461-1.036-8.905-2.129-13.331-3.282
					c-1.822-0.476-2.915-2.339-2.44-4.161c0.475-1.822,2.326-2.911,4.163-2.442c4.366,1.139,8.75,2.219,13.151,3.242
					c1.836,0.427,2.979,2.259,2.552,4.094C2630.448,1760.458,2629.045,1761.521,2627.494,1761.521z"/>
			</g>
			<g>
				<path style="fill:#EAC4F9;" d="M2311.017,1534.588c-1.144,0-2.262-0.577-2.906-1.619c-2.402-3.891-4.752-7.819-7.054-11.787
					c-0.944-1.632-0.39-3.718,1.241-4.664c1.631-0.946,3.716-0.386,4.662,1.239c2.269,3.914,4.589,7.789,6.958,11.627
					c0.99,1.602,0.492,3.704-1.111,4.694C2312.246,1534.424,2311.628,1534.588,2311.017,1534.588z"/>
				<path style="fill:#EAC4F9;" d="M2283.336,1483.31c-1.282,0-2.513-0.726-3.093-1.969c-3.879-8.305-7.589-16.847-11.023-25.379
					c-0.703-1.746,0.143-3.734,1.89-4.438c1.757-0.696,3.735,0.14,4.439,1.892c3.388,8.419,7.048,16.84,10.877,25.039
					c0.796,1.706,0.06,3.734-1.647,4.534C2284.31,1483.207,2283.821,1483.31,2283.336,1483.31z M2257.534,1415.992
					c-1.462,0-2.813-0.946-3.261-2.419c-0.594-1.946-1.175-3.897-1.744-5.85c-2.012-6.903-3.898-13.912-5.604-20.828
					c-0.451-1.829,0.665-3.678,2.495-4.127c1.819-0.46,3.676,0.663,4.128,2.495c1.684,6.823,3.544,13.739,5.53,20.548
					c0.563,1.932,1.138,3.858,1.721,5.777c0.55,1.802-0.468,3.708-2.27,4.257
					C2258.198,1415.945,2257.864,1415.992,2257.534,1415.992z M2241.438,1345.712c-1.652,0-3.103-1.203-3.366-2.888
					c-1.411-9.075-2.59-18.31-3.506-27.448c-0.188-1.876,1.179-3.548,3.055-3.734c1.894-0.13,3.547,1.179,3.735,3.055
					c0.903,9.015,2.067,18.123,3.46,27.081c0.288,1.859-0.986,3.605-2.847,3.895
					C2241.79,1345.698,2241.613,1345.712,2241.438,1345.712z M2235.488,1273.863c-1.867,0-3.391-1.502-3.411-3.375
					c-0.02-1.836-0.03-3.671-0.028-5.507c0-7.349,0.165-14.818,0.488-22.201c0.083-1.885,1.74-3.318,3.558-3.258
					c1.883,0.083,3.342,1.676,3.258,3.558c-0.32,7.283-0.481,14.651-0.481,21.904c-0.002,1.812,0.008,3.621,0.028,5.43
					c0.02,1.882-1.491,3.428-3.375,3.448C2235.513,1273.863,2235.5,1273.863,2235.488,1273.863z M2239.894,1201.864
					c-0.151,0-0.303-0.01-0.456-0.03c-1.867-0.25-3.18-1.966-2.93-3.834c1.22-9.122,2.707-18.32,4.419-27.334
					c0.352-1.852,2.135-3.058,3.988-2.715c1.851,0.353,3.067,2.135,2.715,3.988c-1.689,8.895-3.157,17.966-4.359,26.968
					C2243.041,1200.618,2241.576,1201.864,2239.894,1201.864z M2254.536,1131.248c-0.308,0-0.621-0.04-0.931-0.13
					c-1.813-0.513-2.867-2.399-2.352-4.211c2.504-8.842,5.282-17.727,8.262-26.415c0.61-1.782,2.544-2.722,4.333-2.122
					c1.782,0.613,2.732,2.552,2.121,4.334c-2.938,8.572-5.682,17.34-8.152,26.062
					C2257.391,1130.269,2256.023,1131.248,2254.536,1131.248z M2279.06,1063.453c-0.463,0-0.933-0.093-1.384-0.293
					c-1.721-0.766-2.497-2.782-1.732-4.504c3.738-8.409,7.746-16.811,11.915-24.969c0.856-1.676,2.906-2.342,4.591-1.486
					c1.677,0.859,2.342,2.912,1.486,4.591c-4.114,8.049-8.069,16.337-11.755,24.636
					C2281.613,1062.697,2280.368,1063.453,2279.06,1063.453z M2312.927,999.813c-0.62,0-1.246-0.167-1.809-0.52
					c-1.595-1.003-2.079-3.108-1.078-4.704c4.884-7.789,10.038-15.538,15.32-23.03c1.086-1.539,3.213-1.906,4.754-0.823
					c1.541,1.086,1.909,3.215,0.823,4.754c-5.212,7.393-10.298,15.038-15.117,22.724
					C2315.173,999.246,2314.063,999.813,2312.927,999.813z M2355.443,941.616c-0.778,0-1.561-0.263-2.2-0.807
					c-1.439-1.216-1.619-3.368-0.403-4.807c5.917-6.996,12.115-13.935,18.421-20.622c1.294-1.369,3.455-1.436,4.823-0.14
					c1.371,1.293,1.434,3.452,0.141,4.824c-6.223,6.596-12.338,13.439-18.175,20.342
					C2357.375,941.206,2356.413,941.616,2355.443,941.616z M2405.778,890.052c-0.941,0-1.879-0.386-2.552-1.146
					c-1.251-1.409-1.124-3.565,0.285-4.817c6.873-6.1,13.992-12.08,21.16-17.776c1.472-1.166,3.618-0.926,4.794,0.549
					c1.171,1.476,0.926,3.621-0.55,4.794c-7.071,5.617-14.094,11.516-20.873,17.536
					C2407.392,889.769,2406.582,890.052,2405.778,890.052z M2462.95,846.207c-1.109,0-2.196-0.54-2.852-1.536
					c-1.036-1.572-0.602-3.688,0.971-4.724c7.67-5.054,15.581-9.961,23.511-14.582c1.627-0.943,3.716-0.396,4.666,1.233
					c0.948,1.626,0.396,3.714-1.231,4.664c-7.822,4.558-15.624,9.395-23.191,14.382
					C2464.246,846.024,2463.594,846.207,2462.95,846.207z M2525.831,810.977c-1.281,0-2.509-0.726-3.09-1.962
					c-0.801-1.706-0.066-3.738,1.639-4.538c8.289-3.891,16.817-7.616,25.347-11.07c1.747-0.71,3.738,0.133,4.442,1.882
					c0.708,1.746-0.135,3.734-1.881,4.441c-8.417,3.408-16.832,7.083-25.01,10.924
					C2526.81,810.874,2526.317,810.977,2525.831,810.977z M2593.076,785.055c-1.459,0-2.812-0.943-3.26-2.412
					c-0.551-1.802,0.461-3.711,2.264-4.261c2.257-0.69,4.524-1.369,6.796-2.032c6.531-1.906,13.214-3.711,19.864-5.371
					c1.831-0.42,3.681,0.66,4.136,2.486c0.457,1.829-0.656,3.681-2.483,4.138c-6.564,1.635-13.159,3.418-19.606,5.297
					c-2.244,0.656-4.48,1.323-6.711,2.006C2593.742,785.009,2593.407,785.055,2593.076,785.055z M2834.274,771.317
					c-0.208,0-0.418-0.02-0.631-0.057c-8.938-1.676-18.01-3.122-26.958-4.301c-1.869-0.246-3.183-1.959-2.937-3.828
					c0.245-1.869,1.964-3.175,3.828-2.935c9.07,1.193,18.263,2.659,27.323,4.354c1.852,0.35,3.072,2.132,2.725,3.981
					C2837.318,770.174,2835.885,771.317,2834.274,771.317z M2663.322,768.832c-1.649,0-3.1-1.2-3.365-2.882
					c-0.293-1.859,0.978-3.608,2.838-3.901c9.088-1.429,18.321-2.625,27.442-3.555c1.846-0.14,3.548,1.172,3.738,3.048
					c0.192,1.876-1.174,3.552-3.048,3.741c-8.998,0.913-18.106,2.096-27.07,3.508
					C2663.679,768.818,2663.499,768.832,2663.322,768.832z M2762.647,763.135c-0.048,0-0.098,0-0.147-0.003
					c-9.033-0.38-18.195-0.513-27.296-0.396c-0.013,0-0.028,0-0.043,0c-1.864,0-3.386-1.499-3.41-3.368
					c-0.024-1.885,1.486-3.431,3.37-3.454c9.229-0.113,18.511,0.02,27.666,0.403c1.882,0.08,3.345,1.669,3.265,3.551
					C2765.975,761.699,2764.464,763.135,2762.647,763.135z"/>
				<path style="fill:#EAC4F9;" d="M2891.07,785.422c-0.335,0-0.676-0.05-1.013-0.153c-4.311-1.336-8.64-2.622-12.989-3.844
					c-1.814-0.513-2.87-2.395-2.359-4.211c0.511-1.809,2.4-2.855,4.208-2.359c4.406,1.242,8.795,2.542,13.163,3.898
					c1.799,0.56,2.805,2.469,2.247,4.267C2893.874,784.486,2892.525,785.422,2891.07,785.422z"/>
			</g>
			<g>
				
					<linearGradient id="SVGID_00000070105297619093263260000014772390794873260978_" gradientUnits="userSpaceOnUse" x1="2958.1326" y1="888.1793" x2="2236.6589" y2="2162.2686">
					<stop  offset="0" style="stop-color:#CB236D"/>
					<stop  offset="1" style="stop-color:#4C246D"/>
				</linearGradient>
				<path style="fill:url(#SVGID_00000070105297619093263260000014772390794873260978_);" d="M2902.233,911.503
					c-2.23-1.318-5.051-1.075-7.023,0.603l-56.268,47.888c-32.928-10.314-67.737-15.453-103.238-14.683l-40.701-61.607
					c-1.427-2.162-4.069-3.178-6.577-2.534l-85.832,22.077c-2.509,0.646-4.332,2.812-4.54,5.392l-5.923,73.601
					c-31.466,16.458-59.476,37.752-83.34,62.675l-72.391-14.793c-2.537-0.518-5.124,0.63-6.441,2.859l-45.081,76.304
					c-1.319,2.232-1.076,5.052,0.603,7.023l47.886,56.268c-10.315,32.927-15.451,67.737-14.682,103.238l-61.609,40.703
					c-2.161,1.427-3.178,4.067-2.533,6.576l22.078,85.833c0.645,2.508,2.81,4.331,5.392,4.538l73.601,5.922
					c16.456,31.467,37.75,59.477,62.675,83.34l-14.794,72.391c-0.518,2.536,0.631,5.124,2.86,6.441l76.303,45.081
					c2.23,1.319,5.051,1.075,7.023-0.604l56.267-47.887c32.927,10.315,67.737,15.453,103.239,14.684l40.702,61.609
					c1.427,2.159,4.068,3.177,6.576,2.533l85.834-22.078c2.507-0.644,4.331-2.811,4.537-5.392l5.923-73.601
					c31.467-16.455,59.477-37.752,83.341-62.676l72.39,14.794c2.538,0.521,5.125-0.63,6.442-2.86l45.081-76.303
					c1.316-2.229,1.075-5.05-0.603-7.022l-47.886-56.268c10.315-32.927,15.452-67.737,14.682-103.238l61.61-40.703
					c2.159-1.426,3.177-4.068,2.532-6.576l-22.078-85.832c-0.645-2.508-2.81-4.331-5.392-4.54l-73.601-5.922
					c-16.456-31.466-37.753-59.475-62.675-83.339l14.793-72.391c0.519-2.538-0.629-5.125-2.859-6.443L2902.233,911.503z"/>
				<path style="fill:#FFFFFF;" d="M2742.59,1352.868c-29.716,0-58.538-15.811-73.733-43.688
					c-10.716-19.655-13.133-42.309-6.81-63.784c6.323-21.474,20.632-39.201,40.289-49.918l0,0
					c40.58-22.114,91.584-7.096,113.7,33.481c22.117,40.577,7.099,91.584-33.479,113.705
					C2769.858,1349.583,2756.129,1352.868,2742.59,1352.868z M2707.234,1204.466c-35.623,19.416-48.807,64.193-29.392,99.816
					c19.417,35.623,64.198,48.819,99.818,29.393c35.623-19.416,48.807-64.197,29.392-99.819
					C2787.636,1198.236,2742.854,1185.051,2707.234,1204.466L2707.234,1204.466z"/>
				<path style="fill:#FFFFFF;" d="M2741.657,1489.76c-97.526,0.003-186.707-65.732-212.097-164.443
					c-4.682-18.199-6.996-36.635-6.994-54.948c0.005-38.681,10.343-76.806,30.536-110.983
					c29.751-50.358,77.331-86.114,133.977-100.686c13.592-3.495,27.498-5.694,41.4-6.546c0.788-0.047,1.576-0.09,2.364-0.13
					c0.786-0.04,1.572-0.076,2.357-0.106l0.403,10.227c-14.748,0.58-29.543,2.755-43.975,6.47
					c-53.997,13.885-99.353,47.973-127.714,95.975c-19.249,32.581-29.105,68.927-29.108,105.8
					c-0.002,17.457,2.204,35.03,6.666,52.377c24.203,94.089,109.226,156.754,202.185,156.76c17.167,0,34.592-2.135,51.969-6.606
					c94.104-24.206,156.773-109.238,156.76-202.211c-0.002-17.153-2.137-34.577-6.603-51.937
					c-9.43-36.652-28.569-69.996-55.348-96.435l7.189-7.283c28.099,27.738,48.179,62.721,58.07,101.166
					c4.686,18.213,6.926,36.492,6.928,54.489c0.013,97.531-65.729,186.73-164.448,212.126
					C2777.951,1487.518,2759.659,1489.76,2741.657,1489.76z"/>
			</g>
		</g>
		<g>
			<g>
				
					<linearGradient id="SVGID_00000054231280717199322550000004055562748238680244_" gradientUnits="userSpaceOnUse" x1="2243.7966" y1="1189.1176" x2="1271.6022" y2="3358.6443">
					<stop  offset="0" style="stop-color:#2B3582"/>
					<stop  offset="1" style="stop-color:#150E42"/>
				</linearGradient>
				<path style="fill:url(#SVGID_00000054231280717199322550000004055562748238680244_);" d="M3067.456,2804.053
					c0,24.135-19.766,43.882-43.925,43.882H648.249c-24.158,0-43.925-19.747-43.925-43.882l-19.765-1365.009
					c0-24.135,28.436-71.254,80.549-67.713l2321.388-60.066c30.312-0.784,59.62,10.882,81.085,32.278
					c21.466,21.396,33.21,50.648,32.494,80.932L3067.456,2804.053z"/>
				
					<linearGradient id="SVGID_00000170979418346806651430000009882382291862309000_" gradientUnits="userSpaceOnUse" x1="2869.9351" y1="949.3062" x2="-224.4823" y2="4483.6572">
					<stop  offset="0" style="stop-color:#FDF53F"/>
					<stop  offset="1" style="stop-color:#D93C65"/>
				</linearGradient>
				<path style="fill:url(#SVGID_00000170979418346806651430000009882382291862309000_);" d="M3024.091,2761.953
					c0,22.855-18.7,41.555-41.556,41.555H705.53c-22.855,0-41.556-18.7-41.556-41.555l-18.651-1239.167
					c2.197-74.57,67.574-101.371,107.205-99.789c0,0,1814.376-48.677,2224.838-59.689c21.296-0.571,41.885,7.634,56.968,22.678
					c15.083,15.044,23.378,35.633,22.844,56.93L3024.091,2761.953z"/>
				<g>
					<path style="fill:#FFFFFF;" d="M688.581,2170.306c-1.711,0-3.11-1.376-3.136-3.092l-1.476-100.495
						c-0.024-1.731,1.359-3.159,3.092-3.184c0.015,0,0.031,0,0.047,0c1.711,0,3.11,1.376,3.136,3.092l1.476,100.495
						c0.024,1.732-1.359,3.16-3.092,3.184C688.613,2170.306,688.598,2170.306,688.581,2170.306z"/>
					<path style="fill:#FFFFFF;" d="M684.965,1924.043c-1.711,0-3.11-1.376-3.136-3.092l-5.652-384.892
						c0.116-25.64,8.014-46.123,23.472-60.936c28.139-26.964,72.163-25.591,74.041-25.533l710.506-19.067
						c1.797,0.052,3.175,1.321,3.221,3.055c0.047,1.731-1.319,3.172-3.052,3.221l-710.685,19.067
						c-1.987-0.092-43.453-1.348-69.688,23.789c-14.184,13.59-21.43,32.556-21.538,56.373l5.652,384.831
						c0.024,1.731-1.359,3.16-3.092,3.184C684.997,1924.043,684.982,1924.043,684.965,1924.043z"/>
				</g>
				<path style="opacity:0.37;fill:#FFFFFF;" d="M764.29,2693.21c2.384-102.418,1.497-1009.362-4.38-1087.689
					c-5.877-78.328,116.113-93.019,303.405-101.834c187.292-8.815,1767.548-43.714,1808.235-47.013
					c91.458-7.416,110.389,129.285,101.239,426.054c-6.874,222.959-18.267,590.247-23.51,759.153
					c-1.561,50.293-42.667,90.197-92.984,90.335c-380.275,1.045-1837.753,5.222-1934.779,8.111
					C809.861,2743.652,763.345,2733.821,764.29,2693.21z"/>
			</g>
			
				<linearGradient id="SVGID_00000021810259229544509420000007551297601249823901_" gradientUnits="userSpaceOnUse" x1="1931.4329" y1="2246.6506" x2="2060.9143" y2="1060.5962">
				<stop  offset="0" style="stop-color:#2B3582"/>
				<stop  offset="1" style="stop-color:#150E42"/>
			</linearGradient>
			<path style="fill:url(#SVGID_00000021810259229544509420000007551297601249823901_);" d="M3249.885,2961.248H470.049
				c-5.645,0-10.264-4.619-10.264-10.264v-99.407c0-5.645,4.619-10.264,10.264-10.264h2779.836c5.645,0,10.264,4.619,10.264,10.264
				v99.407C3260.149,2956.629,3255.53,2961.248,3249.885,2961.248z"/>
		</g>
		<g style="opacity:0.56;">
			<path style="fill:#FFFFFF;" d="M1340.611,2123.947c0-9.774-9.844-17.698-21.987-17.698h-171.292
				c-12.143,0-21.987,7.924-21.987,17.698v601.346c0,9.774,9.844,17.698,21.987,17.698h171.292c12.143,0,21.987-7.924,21.987-17.698
				V2123.947z"/>
			<path style="fill:#FFFFFF;" d="M1057.914,2449.399c0-4.604-11.936-9.121-24.079-9.121H860.432c-12.143,0-22.97,4.517-22.97,9.121
				v282.866c0,4.604,10.827,10.727,22.97,10.727h173.403c12.143,0,24.079-6.122,24.079-10.727V2449.399z"/>
			<path style="fill:#FFFFFF;" d="M1878.451,2049.881h-173.255c-12.143,0-22.237,8.868-22.237,19.538v653.747
				c0,10.67,10.094,21.913,22.237,21.913h173.255c12.143,0,27.554-11.243,27.554-21.913v-653.747
				C1906.005,2058.749,1890.594,2049.881,1878.451,2049.881z"/>
			<path style="fill:#FFFFFF;" d="M1615.527,1927.705c0-9.774-9.844-17.698-21.987-17.698h-171.291
				c-12.143,0-21.987,7.924-21.987,17.698v797.589c0,9.774,9.844,17.698,21.987,17.698h171.291c12.143,0,21.987-7.924,21.987-17.698
				V1927.705z"/>
			<path style="fill:#FFFFFF;" d="M2863.025,1584.221c0-10.277-12.289-18.682-24.432-18.682h-173.404
				c-12.143,0-22.616,8.405-22.616,18.682v1138.44c0,10.277,10.473,20.33,22.616,20.33h173.404c12.143,0,24.432-10.052,24.432-20.33
				V1584.221z"/>
			<path style="fill:#FFFFFF;" d="M2232.792,1796.181c0-9.774-9.844-17.698-21.987-17.698h-171.291
				c-12.143,0-21.987,7.924-21.987,17.698v929.112c0,9.774,9.844,17.698,21.987,17.698h171.291c12.143,0,21.987-7.924,21.987-17.698
				V1796.181z"/>
			<path style="fill:#FFFFFF;" d="M2556.986,1643.78c0-9.774-9.844-17.698-21.987-17.698h-171.292
				c-12.143,0-21.987,7.924-21.987,17.698v1083.601c0,9.774,9.844,17.698,21.987,17.698H2535c12.143,0,21.987-7.924,21.987-17.698
				V1643.78z"/>
		</g>
		<g>
			
				<linearGradient id="SVGID_00000033359081760785579840000015159782947875768212_" gradientUnits="userSpaceOnUse" x1="3184.2502" y1="1990.7942" x2="2297.9961" y2="4298.9512">
				<stop  offset="0" style="stop-color:#53D8FF"/>
				<stop  offset="1" style="stop-color:#3840F7"/>
			</linearGradient>
			<path style="fill:url(#SVGID_00000033359081760785579840000015159782947875768212_);" d="M2545.682,3224.342h683.836
				c21.806,0,39.484-14.52,39.484-32.431v-841.283c0-17.877-17.613-32.383-39.378-32.431l-689.305-1.52
				c-21.93-0.048-39.706,14.591-39.589,32.604l5.469,842.802C2506.315,3209.927,2523.958,3224.342,2545.682,3224.342z"/>
			
				<linearGradient id="SVGID_00000031915390171536130030000001416686276994748056_" gradientUnits="userSpaceOnUse" x1="2454.7158" y1="3542.0623" x2="3160.0696" y2="2269.4656">
				<stop  offset="0" style="stop-color:#53D8FF"/>
				<stop  offset="1" style="stop-color:#3840F7"/>
			</linearGradient>
			<path style="fill:url(#SVGID_00000031915390171536130030000001416686276994748056_);" d="M2579.192,2358.189l611.46,3.092
				c22.102,0.112,39.919,14.905,39.816,33.059l-4.267,755.081c-0.101,17.881-17.566,32.423-39.332,32.749l-594.108,8.903
				c-22.189,0.333-40.479-14.214-40.79-32.441l-13.084-767.076C2538.572,2373.124,2556.75,2358.075,2579.192,2358.189z"/>
			<path style="opacity:0.6;fill:#FFFFFF;" d="M2634.756,2420.96v3.463c0,5.437,5.366,9.844,11.986,9.844h471.125
				c6.62,0,11.985-4.408,11.985-9.844v-3.463c0-5.437-5.366-9.845-11.985-9.845h-471.125
				C2640.122,2411.115,2634.756,2415.523,2634.756,2420.96z"/>
			<path style="opacity:0.61;fill:#FFFFFF;" d="M2614.564,3166.215c-19.154,0-34.942-12.699-35.281-28.472l-13.369-617.565v0.003
				c-0.347-15.953,15.173-29.186,34.595-29.498l556.314-8.893c9.461-0.101,18.363,2.725,25.157,8.094
				c6.793,5.372,10.634,12.593,10.812,20.337l14.338,620.964c0.18,7.782-3.353,15.143-9.948,20.731
				c-6.595,5.585-15.441,8.71-24.912,8.803l-557.282,5.495C2614.847,3166.212,2614.706,3166.215,2614.564,3166.215z
				 M3157.522,2492.992c-0.145,0-0.288,0.003-0.433,0.006l-556.314,8.893c-11.913,0.189-21.431,8.305-21.219,18.09l0,0
				l13.369,617.565c0.211,9.742,10.149,17.502,21.901,17.458l557.283-5.495c5.809-0.055,11.234-1.973,15.278-5.399
				c4.044-3.426,6.211-7.941,6.102-12.713l-14.338-620.964c-0.11-4.75-2.465-9.181-6.633-12.472
				C3168.454,2494.749,3163.144,2492.992,3157.522,2492.992z"/>
			<path style="opacity:0.61;fill:#FFFFFF;" d="M3186.875,2555.129h-606.921c-3.768,0-6.823-2.509-6.823-5.604
				s3.055-5.604,6.823-5.604h606.921c3.768,0,6.823,2.509,6.823,5.604S3190.643,2555.129,3186.875,2555.129z"/>
		</g>
		<g>
			
				<linearGradient id="SVGID_00000136403372827016762190000008192834051522777504_" gradientUnits="userSpaceOnUse" x1="2611.3193" y1="2636.6748" x2="2079.0029" y2="3409.8723">
				<stop  offset="0" style="stop-color:#53D8FF"/>
				<stop  offset="1" style="stop-color:#3840F7"/>
			</linearGradient>
			<path style="fill:url(#SVGID_00000136403372827016762190000008192834051522777504_);" d="M2009.126,3255h723.25
				c23.063,0,41.759-8.469,41.759-18.915V2745.41c0-10.427-18.628-18.887-41.647-18.915l-729.034-0.886
				c-23.194-0.028-41.994,8.51-41.871,19.016l5.784,491.561C1967.49,3246.593,1986.15,3255,2009.126,3255z"/>
			
				<linearGradient id="SVGID_00000079459568827778664320000017641868609326684292_" gradientUnits="userSpaceOnUse" x1="1952.9769" y1="3389.4961" x2="3536.5322" y2="1856.0118">
				<stop  offset="0" style="stop-color:#53D8FF"/>
				<stop  offset="1" style="stop-color:#3840F7"/>
			</linearGradient>
			<path style="fill:url(#SVGID_00000079459568827778664320000017641868609326684292_);" d="M2044.568,2749.82l646.702,1.803
				c23.376,0.065,42.219,8.693,42.111,19.282l-4.512,440.397c-0.107,10.429-18.579,18.91-41.599,19.101l-628.351,5.193
				c-23.468,0.194-42.812-8.29-43.141-18.921l-13.838-447.394C2001.606,2758.531,2020.832,2749.754,2044.568,2749.82z"/>
			<path style="opacity:0.6;fill:#FFFFFF;" d="M2077.685,2783.817v2.02c0,3.171,5.676,5.741,12.677,5.741h498.28
				c7.001,0,12.676-2.571,12.676-5.741v-2.02c0-3.171-5.675-5.742-12.676-5.742h-498.28
				C2083.36,2778.075,2077.685,2780.646,2077.685,2783.817z"/>
			<path style="opacity:0.61;fill:#FFFFFF;" d="M2081.961,3222.934c-21.289,0.003-38.208-8.032-38.615-18.381l-14.139-360.191
				c-0.169-4.323,2.721-8.558,8.139-11.927c7.17-4.457,18.026-7.073,29.782-7.177l588.38-5.185
				c21.379-0.162,38.911,8.042,39.344,18.353l15.167,362.176c0.181,4.345-2.726,8.598-8.187,11.979
				c-7.237,4.478-18.176,7.083-30.012,7.147l-589.401,3.206C2082.267,3222.934,2082.113,3222.934,2081.961,3222.934z
				 M2656.224,2830.282c-0.157,0-0.311,0-0.465,0.003l-588.381,5.185c-7.13,0.062-13.76,1.576-17.734,4.046
				c-1.583,0.985-3.453,2.583-3.373,4.607l0,0l14.14,360.191c0.181,4.622,10.158,8.473,21.854,8.409l589.401-3.206
				c7.187-0.038,13.875-1.546,17.893-4.034c1.596-0.987,3.48-2.593,3.394-4.627l-15.167-362.176
				C2677.594,2834.086,2667.77,2830.282,2656.224,2830.282z"/>
			<path style="opacity:0.61;fill:#FFFFFF;" d="M2687.277,2866.52h-641.904c-4.713,0-8.535-2.286-8.535-5.105
				c0-2.82,3.821-5.106,8.535-5.106h641.904c4.713,0,8.535,2.286,8.535,5.106C2695.812,2864.234,2691.99,2866.52,2687.277,2866.52z"
				/>
		</g>
		<g>
			<g>
				
					<linearGradient id="SVGID_00000170254271275267322780000015560886755480700591_" gradientUnits="userSpaceOnUse" x1="1248.0752" y1="3040.3044" x2="1244.1489" y2="3101.1616">
					<stop  offset="0" style="stop-color:#2B3582"/>
					<stop  offset="1" style="stop-color:#150E42"/>
				</linearGradient>
				<path style="fill:url(#SVGID_00000170254271275267322780000015560886755480700591_);" d="M1768.863,3149.688H710.964
					c-9.457,0-17.124,7.667-17.124,17.125c0,9.457,7.667,17.124,17.124,17.124h1057.899c9.458,0,17.124-7.667,17.124-17.124
					C1785.987,3157.354,1778.32,3149.688,1768.863,3149.688z"/>
				
					<linearGradient id="SVGID_00000074399701718026447780000005672861320244813758_" gradientUnits="userSpaceOnUse" x1="1249.6136" y1="2872.208" x2="1235.8715" y2="3170.605">
					<stop  offset="0" style="stop-color:#CB236D"/>
					<stop  offset="1" style="stop-color:#4C246D"/>
				</linearGradient>
				<path style="fill:url(#SVGID_00000074399701718026447780000005672861320244813758_);" d="M1619.021,2975.581H860.806
					c-22.858,0-41.388,18.531-41.388,41.388v132.718h840.992V3016.97C1660.409,2994.112,1641.879,2975.581,1619.021,2975.581z"/>
				
					<linearGradient id="SVGID_00000032648622361097330740000016706074810944736897_" gradientUnits="userSpaceOnUse" x1="1247.8369" y1="2791.0872" x2="1236.058" y2="3040.4058">
					<stop  offset="0" style="stop-color:#CB236D"/>
					<stop  offset="1" style="stop-color:#4C246D"/>
				</linearGradient>
				<path style="fill:url(#SVGID_00000032648622361097330740000016706074810944736897_);" d="M1562.925,2901.628H916.901
					c-22.858,0-41.388,18.531-41.388,41.388v32.564h728.801v-32.564C1604.314,2920.159,1585.783,2901.628,1562.925,2901.628z"/>
				
					<linearGradient id="SVGID_00000134931975980284428580000000756864811150154685_" gradientUnits="userSpaceOnUse" x1="1253.0098" y1="2615.7959" x2="1235.2845" y2="2858.041">
					<stop  offset="0" style="stop-color:#2B3582"/>
					<stop  offset="1" style="stop-color:#150E42"/>
				</linearGradient>
				<path style="fill:url(#SVGID_00000134931975980284428580000000756864811150154685_);" d="M1434.516,2901.629H1045.31v-213.518
					c0-2.556,2.072-4.628,4.628-4.628h379.949c2.556,0,4.628,2.072,4.628,4.628V2901.629z"/>
				<g>
					
						<linearGradient id="SVGID_00000108998955022287478790000014623069801871572912_" gradientUnits="userSpaceOnUse" x1="1011.837" y1="2857.0632" x2="949.3806" y2="3125.2588">
						<stop  offset="0" style="stop-color:#2B3582"/>
						<stop  offset="1" style="stop-color:#150E42"/>
					</linearGradient>
					
						<rect x="925.775" y="3011.74" style="fill:url(#SVGID_00000108998955022287478790000014623069801871572912_);" width="67.958" height="137.948"/>
					
						<linearGradient id="SVGID_00000124876762035830147550000003191170074392889515_" gradientUnits="userSpaceOnUse" x1="1080.0411" y1="2872.947" x2="1017.5847" y2="3141.1421">
						<stop  offset="0" style="stop-color:#2B3582"/>
						<stop  offset="1" style="stop-color:#150E42"/>
					</linearGradient>
					
						<rect x="1018.004" y="3011.74" style="fill:url(#SVGID_00000124876762035830147550000003191170074392889515_);" width="27.306" height="137.948"/>
					
						<linearGradient id="SVGID_00000036234472728564472620000011261326167422333097_" gradientUnits="userSpaceOnUse" x1="1116.5458" y1="2881.4473" x2="1054.0895" y2="3149.6426">
						<stop  offset="0" style="stop-color:#2B3582"/>
						<stop  offset="1" style="stop-color:#150E42"/>
					</linearGradient>
					
						<rect x="1056.488" y="3011.74" style="fill:url(#SVGID_00000036234472728564472620000011261326167422333097_);" width="27.306" height="137.948"/>
					
						<linearGradient id="SVGID_00000159445808880327612690000013867352490905337247_" gradientUnits="userSpaceOnUse" x1="1153.0505" y1="2889.9485" x2="1090.5941" y2="3158.1438">
						<stop  offset="0" style="stop-color:#2B3582"/>
						<stop  offset="1" style="stop-color:#150E42"/>
					</linearGradient>
					
						<rect x="1094.973" y="3011.74" style="fill:url(#SVGID_00000159445808880327612690000013867352490905337247_);" width="27.306" height="137.948"/>
				</g>
			</g>
			<g>
				<g>
					
						<linearGradient id="SVGID_00000135693183106647802830000004619426021964590481_" gradientUnits="userSpaceOnUse" x1="-1405.9528" y1="1018.3911" x2="-1320.5184" y2="1018.3911" gradientTransform="matrix(0.7357 -0.6774 0.6774 0.7357 1203.8007 712.3969)">
						<stop  offset="0" style="stop-color:#2B3582"/>
						<stop  offset="1" style="stop-color:#150E42"/>
					</linearGradient>
					<path style="fill:url(#SVGID_00000135693183106647802830000004619426021964590481_);" d="M605.233,2059.396
						c-9.483,8.732-10.308,23.42-1.861,33.158l532.587,621.919c8.808,10.156,24.268,11.024,34.158,1.918l45.311-41.72
						l-586.552-637.043L605.233,2059.396z"/>
					
						<linearGradient id="SVGID_00000147180033110233527700000010833965303174241723_" gradientUnits="userSpaceOnUse" x1="-1348.1637" y1="946.0358" x2="-1140.9642" y2="946.0358" gradientTransform="matrix(0.7357 -0.6774 0.6774 0.7357 1203.8007 712.3969)">
						<stop  offset="0" style="stop-color:#2B3582"/>
						<stop  offset="1" style="stop-color:#150E42"/>
					</linearGradient>
					<path style="fill:url(#SVGID_00000147180033110233527700000010833965303174241723_);" d="M678.164,1859.584
						c-18.131-18.898-48.047-19.825-67.313-2.086l-47.766,43.98c-19.266,17.739-20.807,47.629-3.467,67.255l635.475,724.658
						l133.207-122.65c10.803-9.947,11.295-26.838,1.09-37.396L678.164,1859.584z"/>
					
						<linearGradient id="SVGID_00000111186181879997240170000016263115854856934306_" gradientUnits="userSpaceOnUse" x1="-1097.3318" y1="510.0938" x2="-1288.4733" y2="1068.0735" gradientTransform="matrix(0.7357 -0.6774 0.6774 0.7357 1203.8007 712.3969)">
						<stop  offset="0" style="stop-color:#53D8FF"/>
						<stop  offset="1" style="stop-color:#3840F7"/>
					</linearGradient>
					<path style="fill:url(#SVGID_00000111186181879997240170000016263115854856934306_);" d="M723.739,2011.423l-4.996,4.601
						c-15.469,14.243-16.463,38.33-2.22,53.799l335.346,364.213c14.243,15.469,38.33,16.463,53.8,2.22l4.996-4.6
						c15.47-14.243,16.464-38.33,2.22-53.8l-335.346-364.213C763.295,1998.174,739.208,1997.18,723.739,2011.423z"/>
					
						<rect x="905.133" y="1938.223" transform="matrix(0.7357 -0.6773 0.6773 0.7357 -1264.5221 1207.4135)" style="opacity:0.39;fill:#FFFFFF;" width="19.14" height="571.233"/>
				</g>
				<g>
					
						<linearGradient id="SVGID_00000143588542979792746450000010408614507248709801_" gradientUnits="userSpaceOnUse" x1="-1443.2202" y1="1442.882" x2="-1103.6979" y2="1442.882" gradientTransform="matrix(0.7357 -0.6774 0.6774 0.7357 1203.8007 712.3969)">
						<stop  offset="0" style="stop-color:#53D8FF"/>
						<stop  offset="1" style="stop-color:#3840F7"/>
					</linearGradient>
					
						<circle style="fill:url(#SVGID_00000143588542979792746450000010408614507248709801_);" cx="1244.325" cy="2636.566" r="169.772"/>
					<circle style="opacity:0.39;fill:#FFFFFF;" cx="1244.325" cy="2636.566" r="129.683"/>
				</g>
			</g>
			<g>
				<g>
					
						<linearGradient id="SVGID_00000063607601512199610090000014550324140214897549_" gradientUnits="userSpaceOnUse" x1="-925.0037" y1="635.0115" x2="-901.4483" y2="470.1237" gradientTransform="matrix(0.7357 -0.6774 0.6774 0.7357 1203.8007 712.3969)">
						<stop  offset="0" style="stop-color:#2B3582"/>
						<stop  offset="1" style="stop-color:#150E42"/>
					</linearGradient>
					<path style="fill:url(#SVGID_00000063607601512199610090000014550324140214897549_);" d="M597.938,1900.034l33.503,36.386
						c7.312,7.942,19.742,8.27,27.463,0.725l467.377-462.486c7.404-7.235,7.716-19.045,0.704-26.66l-17.481-18.985L597.938,1900.034
						z"/>
					
						<linearGradient id="SVGID_00000155110054778307375550000003792082099915387529_" gradientUnits="userSpaceOnUse" x1="-1250.0824" y1="402.2753" x2="-438.5317" y2="402.2753" gradientTransform="matrix(0.7357 -0.6774 0.6774 0.7357 1203.8007 712.3969)">
						<stop  offset="0" style="stop-color:#2B3582"/>
						<stop  offset="1" style="stop-color:#150E42"/>
					</linearGradient>
					<path style="fill:url(#SVGID_00000155110054778307375550000003792082099915387529_);" d="M1135.845,1286.049l35.317,38.358
						c14.245,15.471,13.501,39.494-1.675,54.054l-556.516,537.901l-98.492-106.97c-7.987-8.675-7.264-22.226,1.602-30.001
						l565.754-496.127C1097.597,1269.34,1121.6,1270.578,1135.845,1286.049z"/>
					
						<linearGradient id="SVGID_00000171718825270370799980000000328466535033246126_" gradientUnits="userSpaceOnUse" x1="-825.8137" y1="236.5901" x2="-874.5333" y2="521.9471" gradientTransform="matrix(0.7357 -0.6774 0.6774 0.7357 1203.8007 712.3969)">
						<stop  offset="0" style="stop-color:#53D8FF"/>
						<stop  offset="1" style="stop-color:#3840F7"/>
					</linearGradient>
					<path style="fill:url(#SVGID_00000171718825270370799980000000328466535033246126_);" d="M974.669,1416.047l-305.813,281.574
						c-13.531,12.458-14.4,33.526-1.942,47.056c12.458,13.531,33.526,14.4,47.056,1.942l305.813-281.575
						c13.53-12.458,14.4-33.526,1.942-47.056C1009.266,1404.458,988.199,1403.589,974.669,1416.047z"/>
					
						<rect x="836.634" y="1340.182" transform="matrix(-0.6773 -0.7357 0.7357 -0.6773 252.8663 3273.5723)" style="opacity:0.39;fill:#FFFFFF;" width="15.37" height="482.303"/>
				</g>
				<g>
					
						<linearGradient id="SVGID_00000005964939595994578180000011802658865187330215_" gradientUnits="userSpaceOnUse" x1="-1379.6146" y1="425.4789" x2="-1106.9672" y2="425.4789" gradientTransform="matrix(0.7357 -0.6774 0.6774 0.7357 1203.8007 712.3969)">
						<stop  offset="0" style="stop-color:#53D8FF"/>
						<stop  offset="1" style="stop-color:#3840F7"/>
					</linearGradient>
					
						<circle style="fill:url(#SVGID_00000005964939595994578180000011802658865187330215_);" cx="577.331" cy="1867.627" r="136.332"/>
					
						<ellipse transform="matrix(0.2345 -0.9721 0.9721 0.2345 -1373.5975 1990.9912)" style="opacity:0.39;fill:#FFFFFF;" cx="577.331" cy="1867.627" rx="104.14" ry="104.14"/>
				</g>
			</g>
			<g>
				<g>
					
						<linearGradient id="SVGID_00000122705522601458690580000013287153389099488947_" gradientUnits="userSpaceOnUse" x1="3101.448" y1="681.7097" x2="3582.228" y2="681.7097" gradientTransform="matrix(0.8544 0.5197 -0.5197 0.8544 -1162.999 -912.0317)">
						<stop  offset="0" style="stop-color:#2B3582"/>
						<stop  offset="1" style="stop-color:#150E42"/>
					</linearGradient>
					<path style="fill:url(#SVGID_00000122705522601458690580000013287153389099488947_);" d="M1554.106,1514.458l-21.27,34.967
						c-8.579,14.104-24.096,20.439-34.914,14.255l-399.268-225.64l59.317-97.514c4.811-7.908,13.592-11.275,19.442-7.454
						l373.297,243.827C1561.177,1483.662,1562.686,1500.354,1554.106,1514.458z"/>
				</g>
				<g>
					
						<linearGradient id="SVGID_00000042000352674413406100000008826789842119192966_" gradientUnits="userSpaceOnUse" x1="3283.9163" y1="530.4122" x2="2934.4946" y2="862.1669" gradientTransform="matrix(0.8544 0.5197 -0.5197 0.8544 -1162.999 -912.0317)">
						<stop  offset="0" style="stop-color:#53D8FF"/>
						<stop  offset="1" style="stop-color:#3840F7"/>
					</linearGradient>
					
						<circle style="fill:url(#SVGID_00000042000352674413406100000008826789842119192966_);" cx="1152.341" cy="1294.256" r="107.016"/>
					
						<ellipse transform="matrix(0.9156 -0.4021 0.4021 0.9156 -423.1272 572.5304)" style="opacity:0.39;fill:#FFFFFF;" cx="1152.341" cy="1294.256" rx="81.746" ry="81.746"/>
				</g>
				<g>
					
						<linearGradient id="SVGID_00000039113644841600818590000001270269429979869338_" gradientUnits="userSpaceOnUse" x1="3404.1306" y1="844.1315" x2="3734.0686" y2="555.7245" gradientTransform="matrix(0.8544 0.5197 -0.5197 0.8544 -1162.999 -912.0317)">
						<stop  offset="0" style="stop-color:#CB236D"/>
						<stop  offset="1" style="stop-color:#4C246D"/>
					</linearGradient>
					<path style="fill:url(#SVGID_00000039113644841600818590000001270269429979869338_);" d="M1604.396,1488.612l-40.67-24.526
						c-0.378-0.228-0.869-0.106-1.097,0.272l-71.709,118.914c-0.228,0.378-0.106,0.869,0.271,1.096l40.67,24.525
						c0.378,0.228,0.869,0.106,1.096-0.271l71.709-118.914C1604.895,1489.331,1604.773,1488.84,1604.396,1488.612z"/>
					
						<linearGradient id="SVGID_00000058563920570051089990000004940953340189677750_" gradientUnits="userSpaceOnUse" x1="4056.875" y1="593.1133" x2="3768.103" y2="589.634" gradientTransform="matrix(0.8544 0.5197 -0.5197 0.8544 -1162.999 -912.0317)">
						<stop  offset="0" style="stop-color:#53D8FF"/>
						<stop  offset="1" style="stop-color:#3840F7"/>
					</linearGradient>
					<polygon style="fill:url(#SVGID_00000058563920570051089990000004940953340189677750_);" points="1655.24,1535.769 
						1744.652,1471.22 1868.54,1621.899 1849.757,1644.077 1737.746,1523.919 1668.552,1574.566 					"/>
					
						<linearGradient id="SVGID_00000086675104557029623130000003059487963526660744_" gradientUnits="userSpaceOnUse" x1="4054.6348" y1="778.6207" x2="3765.866" y2="775.1414" gradientTransform="matrix(0.8544 0.5197 -0.5197 0.8544 -1162.999 -912.0317)">
						<stop  offset="0" style="stop-color:#53D8FF"/>
						<stop  offset="1" style="stop-color:#3840F7"/>
					</linearGradient>
					<polygon style="fill:url(#SVGID_00000086675104557029623130000003059487963526660744_);" points="1598.306,1631.075 
						1584.53,1740.489 1776.16,1776.962 1786.617,1749.846 1627.465,1709.161 1638.735,1624.155 					"/>
					
						<linearGradient id="SVGID_00000106825684860072196270000008553863045107077291_" gradientUnits="userSpaceOnUse" x1="3654.446" y1="681.7225" x2="3733.4055" y2="681.7225" gradientTransform="matrix(0.8544 0.5197 -0.5197 0.8544 -1162.999 -912.0317)">
						<stop  offset="0" style="stop-color:#2B3582"/>
						<stop  offset="1" style="stop-color:#150E42"/>
					</linearGradient>
					<path style="fill:url(#SVGID_00000106825684860072196270000008553863045107077291_);" d="M1569.437,1628.226
						c18.392,15.068,44.065,20.256,67.974,11.405c35.861-13.275,54.171-53.108,40.895-88.97
						c-6.718-18.149-20.239-31.802-36.605-39.141L1569.437,1628.226z"/>
					
						<linearGradient id="SVGID_00000070111619874361089990000005439192616674355093_" gradientUnits="userSpaceOnUse" x1="3690.8777" y1="619.8617" x2="3560.9976" y2="772.5278" gradientTransform="matrix(0.8544 0.5197 -0.5197 0.8544 -1162.999 -912.0317)">
						<stop  offset="0" style="stop-color:#CB236D"/>
						<stop  offset="1" style="stop-color:#4C246D"/>
					</linearGradient>
					<path style="fill:url(#SVGID_00000070111619874361089990000005439192616674355093_);" d="M1530.095,1603.937l-11.311,18.756
						c-2.04,3.384-0.759,7.896,2.862,10.08l34.777,20.971c3.621,2.184,8.21,1.211,10.25-2.172l90.182-149.548
						c2.04-3.383,0.759-7.896-2.862-10.079l-34.777-20.971c-3.621-2.183-8.209-1.211-10.25,2.172l-10.363,17.186L1530.095,1603.937z
						"/>
				</g>
			</g>
		</g>
		<g>
			
				<linearGradient id="SVGID_00000160182362984220411430000010393794812203400588_" gradientUnits="userSpaceOnUse" x1="1910.6219" y1="665.9091" x2="1520.8776" y2="1415.2396">
				<stop  offset="0" style="stop-color:#53D8FF"/>
				<stop  offset="1" style="stop-color:#3840F7"/>
			</linearGradient>
			
				<circle style="fill:url(#SVGID_00000160182362984220411430000010393794812203400588_);" cx="1785.987" cy="905.535" r="254.092"/>
			
				<linearGradient id="SVGID_00000095305774022808566520000011702613905821016728_" gradientUnits="userSpaceOnUse" x1="1971.6869" y1="624.9955" x2="963.8802" y2="2147.5039">
				<stop  offset="0" style="stop-color:#53D8FF"/>
				<stop  offset="1" style="stop-color:#3840F7"/>
			</linearGradient>
			
				<circle style="fill:url(#SVGID_00000095305774022808566520000011702613905821016728_);" cx="1785.987" cy="905.535" r="245.643"/>
			<path style="fill:#FFFFFF;" d="M1559.547,896.096c-0.046,0-0.093,0-0.138-0.003c-1.432-0.076-2.53-1.297-2.456-2.727
				c0.504-9.651,1.626-19.342,3.334-28.808c0.253-1.409,1.594-2.347,3.015-2.094c1.41,0.256,2.347,1.605,2.092,3.016
				c-1.668,9.25-2.764,18.724-3.258,28.154C1562.063,895.022,1560.917,896.096,1559.547,896.096z"/>
			<path style="fill:#FFFFFF;" d="M1583.431,806.089c-0.393,0-0.792-0.089-1.167-0.279c-1.28-0.646-1.793-2.208-1.147-3.485
				c39.274-77.807,117.775-126.142,204.871-126.142c13.889,0,27.809,1.252,41.372,3.726c1.41,0.256,2.345,1.607,2.088,3.018
				c-0.256,1.411-1.603,2.354-3.019,2.085c-13.257-2.415-26.863-3.639-40.442-3.639c-85.125,0-161.851,47.243-200.238,123.289
				C1585.293,805.567,1584.379,806.089,1583.431,806.089z"/>
			
				<ellipse transform="matrix(0.7071 -0.7071 0.7071 0.7071 -119.4235 1533.4606)" style="opacity:0.78;fill:#FFFFFF;" cx="1791.339" cy="910.887" rx="207.907" ry="207.907"/>
			<g>
				
					<linearGradient id="SVGID_00000021102534853788813570000001564189530925562539_" gradientUnits="userSpaceOnUse" x1="-17.6852" y1="337.1067" x2="-726.1639" y2="1325.8643" gradientTransform="matrix(0.6704 -0.742 0.742 0.6704 1476.34 396.6715)">
					<stop  offset="0" style="stop-color:#53D8FF"/>
					<stop  offset="1" style="stop-color:#3840F7"/>
				</linearGradient>
				<path style="fill:url(#SVGID_00000021102534853788813570000001564189530925562539_);" d="M1779.922,801.028
					c-31.852-28.774-81.369-25.867-110.144,5.984c-28.773,31.851-26.694,81.456,5.157,110.23
					c28.056,25.345,71.102,24.67,98.26,5.005l21.457,19.384c0.252,5.752,1.877,12.745,6.763,17.159l71.507,64.598
					c9.043,8.168,22.661,5.259,30.83-3.783l0.476-0.526c8.168-9.043,7.967-20.985-1.076-29.154l-71.506-64.598
					c-4.886-4.414-12.007-5.322-15.007-8.033l-21.457-19.384C1811.994,868.901,1807.977,826.373,1779.922,801.028z
					 M1689.475,906.531c-24.563-22.19-26.487-60.091-4.297-84.654c22.19-24.563,60.091-26.487,84.654-4.297
					c24.563,22.19,26.487,60.091,4.297,84.654C1751.939,926.797,1714.038,928.721,1689.475,906.531z"/>
				<g>
					
						<linearGradient id="SVGID_00000034771075237799849650000009573368680854671759_" gradientUnits="userSpaceOnUse" x1="-176.67" y1="448.3669" x2="-212.4766" y2="498.3389" gradientTransform="matrix(0.6704 -0.742 0.742 0.6704 1476.34 396.6715)">
						<stop  offset="0" style="stop-color:#53D8FF"/>
						<stop  offset="1" style="stop-color:#3840F7"/>
					</linearGradient>
					<path style="fill:url(#SVGID_00000034771075237799849650000009573368680854671759_);" d="M1703.425,887.284
						c-0.184,0.204-0.384,0.398-0.599,0.579c-2.594,2.194-6.473,1.868-8.665-0.725c-14.317-16.934-13.889-42.13,0.996-58.607
						c2.278-2.521,6.165-2.718,8.686-0.441c2.521,2.277,2.718,6.165,0.441,8.685c-10.777,11.93-11.091,30.167-0.732,42.423
						C1705.563,881.575,1705.456,885.035,1703.425,887.284z"/>
				</g>
			</g>
		</g>
		<g>
			<g>
				
					<linearGradient id="SVGID_00000038392147576005578540000014600894478284029595_" gradientUnits="userSpaceOnUse" x1="1309.7653" y1="565.0021" x2="906.9426" y2="1339.4773">
					<stop  offset="0" style="stop-color:#53D8FF"/>
					<stop  offset="1" style="stop-color:#3840F7"/>
				</linearGradient>
				
					<circle style="fill:url(#SVGID_00000038392147576005578540000014600894478284029595_);" cx="1180.948" cy="812.669" r="262.618"/>
				
					<linearGradient id="SVGID_00000116951545655560337300000002485165132946070683_" gradientUnits="userSpaceOnUse" x1="1372.8792" y1="522.7156" x2="331.2544" y2="2096.3135">
					<stop  offset="0" style="stop-color:#53D8FF"/>
					<stop  offset="1" style="stop-color:#3840F7"/>
				</linearGradient>
				
					<circle style="fill:url(#SVGID_00000116951545655560337300000002485165132946070683_);" cx="1180.948" cy="812.669" r="253.886"/>
				<path style="fill:#FFFFFF;" d="M946.909,802.914c-0.047,0-0.096,0-0.143-0.003c-1.48-0.078-2.615-1.341-2.538-2.818
					c0.521-9.974,1.68-19.991,3.446-29.775c0.262-1.457,1.647-2.426,3.116-2.164c1.458,0.265,2.426,1.659,2.162,3.117
					c-1.724,9.561-2.856,19.353-3.367,29.099C949.51,801.803,948.326,802.914,946.909,802.914z"/>
				<path style="fill:#FFFFFF;" d="M971.595,709.886c-0.407,0-0.819-0.092-1.207-0.288c-1.322-0.668-1.853-2.282-1.185-3.602
					c40.591-80.418,121.727-130.375,211.745-130.375c14.356,0,28.743,1.294,42.761,3.851c1.458,0.264,2.424,1.661,2.159,3.12
					c-0.265,1.459-1.657,2.433-3.12,2.155c-13.702-2.496-27.764-3.761-41.799-3.761c-87.981,0-167.282,48.828-206.958,127.425
					C973.519,709.346,972.575,709.886,971.595,709.886z"/>
				
					<ellipse transform="matrix(0.7071 -0.7071 0.7071 0.7071 -231.0435 1078.6133)" style="opacity:0.78;fill:#FFFFFF;" cx="1186.48" cy="818.201" rx="214.883" ry="214.883"/>
			</g>
			<g>
				
					<linearGradient id="SVGID_00000137118924047587211040000012458070192529815429_" gradientUnits="userSpaceOnUse" x1="1041.4341" y1="584.3141" x2="1108.1892" y2="1159.679">
					<stop  offset="0" style="stop-color:#53D8FF"/>
					<stop  offset="1" style="stop-color:#3840F7"/>
				</linearGradient>
				<path style="fill:url(#SVGID_00000137118924047587211040000012458070192529815429_);" d="M1098.022,816.038
					c0-4.161-3.374-7.535-7.535-7.535H1054.4c-4.161,0-7.535,3.374-7.535,7.535v71.089c0,4.161,3.373,7.535,7.535,7.535h36.087
					c4.161,0,7.535-3.374,7.535-7.535V816.038z"/>
				
					<linearGradient id="SVGID_00000120517279819789196370000003408119625942719651_" gradientUnits="userSpaceOnUse" x1="1112.7974" y1="577.1801" x2="1179.3182" y2="1150.526">
					<stop  offset="0" style="stop-color:#53D8FF"/>
					<stop  offset="1" style="stop-color:#3840F7"/>
				</linearGradient>
				<path style="fill:url(#SVGID_00000120517279819789196370000003408119625942719651_);" d="M1168.026,778.343
					c0-4.161-3.374-7.535-7.535-7.535h-36.087c-4.161,0-7.535,3.373-7.535,7.535v108.784c0,4.161,3.374,7.535,7.535,7.535h36.087
					c4.161,0,7.535-3.374,7.535-7.535V778.343z"/>
				
					<linearGradient id="SVGID_00000111185927384776698390000002090848682031407004_" gradientUnits="userSpaceOnUse" x1="1184.106" y1="566.883" x2="1250.4999" y2="1139.1343">
					<stop  offset="0" style="stop-color:#53D8FF"/>
					<stop  offset="1" style="stop-color:#3840F7"/>
				</linearGradient>
				<path style="fill:url(#SVGID_00000111185927384776698390000002090848682031407004_);" d="M1238.03,737.956
					c0-4.161-3.373-7.535-7.535-7.535h-36.087c-4.161,0-7.535,3.373-7.535,7.535v146.479c0,4.161,3.374,7.535,7.535,7.535h36.087
					c4.161,0,7.535-3.373,7.535-7.535V737.956z"/>
				
					<linearGradient id="SVGID_00000023969604778638122730000006423363713945517497_" gradientUnits="userSpaceOnUse" x1="1254.8997" y1="557.532" x2="1321.5267" y2="1131.7925">
					<stop  offset="0" style="stop-color:#53D8FF"/>
					<stop  offset="1" style="stop-color:#3840F7"/>
				</linearGradient>
				<path style="fill:url(#SVGID_00000023969604778638122730000006423363713945517497_);" d="M1308.035,705.646
					c0-4.161-3.374-7.535-7.535-7.535h-36.087c-4.161,0-7.535,3.374-7.535,7.535v178.788c0,4.161,3.374,7.535,7.535,7.535h36.087
					c4.161,0,7.535-3.373,7.535-7.535V705.646z"/>
			</g>
		</g>
		<g>
			<g>
				
					<linearGradient id="SVGID_00000082368085377095581440000004410817215101601467_" gradientUnits="userSpaceOnUse" x1="2528.8728" y1="1717.6726" x2="2096.4666" y2="2549.0256">
					<stop  offset="0" style="stop-color:#53D8FF"/>
					<stop  offset="1" style="stop-color:#3840F7"/>
				</linearGradient>
				
					<circle style="fill:url(#SVGID_00000082368085377095581440000004410817215101601467_);" cx="2390.595" cy="1983.528" r="281.905"/>
				
					<linearGradient id="SVGID_00000093172547274158160430000004046208558742986141_" gradientUnits="userSpaceOnUse" x1="2596.6221" y1="1672.2805" x2="1478.4998" y2="3361.4443">
					<stop  offset="0" style="stop-color:#53D8FF"/>
					<stop  offset="1" style="stop-color:#3840F7"/>
				</linearGradient>
				
					<circle style="fill:url(#SVGID_00000093172547274158160430000004046208558742986141_);" cx="2390.595" cy="1983.529" r="272.531"/>
				<path style="fill:#FFFFFF;" d="M2139.368,1973.057c-0.051,0-0.103,0-0.153-0.003c-1.589-0.084-2.807-1.439-2.725-3.025
					c0.56-10.707,1.804-21.459,3.699-31.961c0.281-1.563,1.768-2.604,3.345-2.323c1.565,0.284,2.604,1.78,2.321,3.346
					c-1.85,10.263-3.066,20.773-3.615,31.236C2142.161,1971.864,2140.889,1973.057,2139.368,1973.057z"/>
				<path style="fill:#FFFFFF;" d="M2165.867,1873.197c-0.436,0-0.879-0.099-1.295-0.31c-1.42-0.717-1.989-2.449-1.272-3.866
					c43.573-86.324,130.667-139.95,227.296-139.95c15.41,0,30.854,1.389,45.901,4.134c1.565,0.284,2.602,1.783,2.317,3.349
					c-0.284,1.566-1.779,2.612-3.349,2.314c-14.708-2.679-29.803-4.037-44.868-4.037c-94.443,0-179.568,52.414-222.157,136.784
					C2167.933,1872.617,2166.919,1873.197,2165.867,1873.197z"/>
				
					<ellipse transform="matrix(0.7071 -0.7071 0.7071 0.7071 -704.8368 2277.3059)" style="opacity:0.78;fill:#FFFFFF;" cx="2396.533" cy="1989.466" rx="230.664" ry="230.664"/>
			</g>
			<g>
				<g>
					
						<linearGradient id="SVGID_00000027568707026154848300000015822527249306769335_" gradientUnits="userSpaceOnUse" x1="2385.5061" y1="1840.2484" x2="2391.4609" y2="2176.6936">
						<stop  offset="0" style="stop-color:#53D8FF"/>
						<stop  offset="1" style="stop-color:#3840F7"/>
					</linearGradient>
					<path style="fill:url(#SVGID_00000027568707026154848300000015822527249306769335_);" d="M2508.237,1887.226v220.756
						c0,14.628-10.295,29.646-24.924,29.646h-185.435c-14.628,0-29.528-15.018-29.528-29.646v-238.416
						c0-14.629,14.9-26.739,29.528-26.739h167.863L2508.237,1887.226z"/>
					<g>
						<g>
							<path style="fill:#FFFFFF;" d="M2326.944,1934.321c0,8.331-6.754,15.085-15.085,15.085s-15.085-6.754-15.085-15.085
								c0-8.331,6.754-15.085,15.085-15.085S2326.944,1925.99,2326.944,1934.321z"/>
							<path style="fill:#FFFFFF;" d="M2482.225,1940.145c0,6.909-5.601,12.51-12.51,12.51h-116.601
								c-6.909,0-12.51-5.601-12.51-12.51v-3.883c0-6.909,5.601-12.51,12.51-12.51h116.601c6.909,0,12.51,5.601,12.51,12.51
								V1940.145z"/>
						</g>
						<g>
							<path style="fill:#FFFFFF;" d="M2326.944,1987.302c0,8.331-6.754,15.085-15.085,15.085s-15.085-6.754-15.085-15.085
								s6.754-15.085,15.085-15.085S2326.944,1978.971,2326.944,1987.302z"/>
							<path style="fill:#FFFFFF;" d="M2482.225,1995.059c0,6.909-5.601,12.51-12.51,12.51h-116.601
								c-6.909,0-12.51-5.601-12.51-12.51v-3.883c0-6.909,5.601-12.51,12.51-12.51h116.601c6.909,0,12.51,5.601,12.51,12.51
								V1995.059z"/>
						</g>
						<g>
							
								<ellipse transform="matrix(0.9975 -0.0709 0.0709 0.9975 -138.8192 169.0206)" style="fill:#FFFFFF;" cx="2311.859" cy="2040.284" rx="15.085" ry="15.085"/>
							<path style="fill:#FFFFFF;" d="M2482.225,2044.193c0,6.909-5.601,12.51-12.51,12.51h-116.601
								c-6.909,0-12.51-5.601-12.51-12.51v-3.883c0-6.909,5.601-12.51,12.51-12.51h116.601c6.909,0,12.51,5.601,12.51,12.51
								V2044.193z"/>
						</g>
					</g>
				</g>
				
					<linearGradient id="SVGID_00000041987392559262727770000012223991575529631391_" gradientUnits="userSpaceOnUse" x1="2487.876" y1="1842.4702" x2="2488.8115" y2="1895.3226">
					<stop  offset="0" style="stop-color:#53D8FF"/>
					<stop  offset="1" style="stop-color:#3840F7"/>
				</linearGradient>
				<path style="fill:url(#SVGID_00000041987392559262727770000012223991575529631391_);" d="M2509.803,1889.07h-26.49
					c-9.743,0-15.539-9.762-15.539-19.504v-26.579l-0.973,1.01L2509.803,1889.07z"/>
			</g>
		</g>
		<g>
			
				<linearGradient id="SVGID_00000158014178437835791550000011936126780747776676_" gradientUnits="userSpaceOnUse" x1="2415.4214" y1="1105.0031" x2="2009.736" y2="1884.9822">
				<stop  offset="0" style="stop-color:#53D8FF"/>
				<stop  offset="1" style="stop-color:#3840F7"/>
			</linearGradient>
			
				<circle style="fill:url(#SVGID_00000158014178437835791550000011936126780747776676_);" cx="2285.688" cy="1354.43" r="264.484"/>
			
				<linearGradient id="SVGID_00000094592134556647450700000010829895733621828767_" gradientUnits="userSpaceOnUse" x1="2478.9839" y1="1062.416" x2="1429.9567" y2="2647.1973">
				<stop  offset="0" style="stop-color:#53D8FF"/>
				<stop  offset="1" style="stop-color:#3840F7"/>
			</linearGradient>
			<circle style="fill:url(#SVGID_00000094592134556647450700000010829895733621828767_);" cx="2285.688" cy="1354.43" r="255.69"/>
			<path style="fill:#FFFFFF;" d="M2074.847,1250.917c-0.409,0-0.825-0.092-1.215-0.291c-1.332-0.673-1.866-2.298-1.194-3.627
				c40.88-80.99,122.592-131.302,213.25-131.302c14.457,0,28.947,1.303,43.064,3.878c1.468,0.266,2.441,1.673,2.174,3.142
				c-0.267,1.469-1.668,2.451-3.142,2.171c-13.799-2.514-27.961-3.788-42.096-3.788c-88.607,0-168.471,49.175-208.428,128.331
				C2076.786,1250.373,2075.835,1250.917,2074.847,1250.917z"/>
			
				<ellipse transform="matrix(0.7071 -0.7071 0.7071 0.7071 -290.5715 2018.5002)" style="opacity:0.78;fill:#FFFFFF;" cx="2291.26" cy="1360.001" rx="216.41" ry="216.41"/>
			<g>
				
					<linearGradient id="SVGID_00000042708030370610425020000016960554861717618101_" gradientUnits="userSpaceOnUse" x1="2403.7725" y1="1036.295" x2="1983.4733" y2="1941.9716">
					<stop  offset="0" style="stop-color:#53D8FF"/>
					<stop  offset="1" style="stop-color:#3840F7"/>
				</linearGradient>
				<path style="fill:url(#SVGID_00000042708030370610425020000016960554861717618101_);" d="M2347.76,1283.056
					c0,32.61-26.436,67.814-59.045,67.814c-32.61,0-59.045-35.205-59.045-67.814c0-32.61,26.435-55.745,59.045-55.745
					C2321.324,1227.311,2347.76,1250.446,2347.76,1283.056z"/>
				
					<linearGradient id="SVGID_00000178927547121286703530000000863306595501875842_" gradientUnits="userSpaceOnUse" x1="2456.1609" y1="1060.6071" x2="2035.8617" y2="1966.2836">
					<stop  offset="0" style="stop-color:#53D8FF"/>
					<stop  offset="1" style="stop-color:#3840F7"/>
				</linearGradient>
				<path style="fill:url(#SVGID_00000178927547121286703530000000863306595501875842_);" d="M2215.439,1476.421h144.139
					c15.174,0,28.607-9.806,33.23-24.258l7.756-24.242c5.679-17.75-3.554-36.967-21.057-43.367
					c-58.659-21.448-119.316-18.696-181.451,1.979c-17.407,5.792-27.066,24.411-22.264,42.117l5.973,22.016
					C2185.89,1465.868,2199.688,1476.421,2215.439,1476.421z"/>
			</g>
		</g>
	</g>
</g>
</svg>
