<?xml version="1.0" encoding="utf-8"?>
<!-- Generator: Adobe Illustrator 27.5.0, SVG Export Plug-In . SVG Version: 6.00 Build 0)  -->
<svg version="1.1" xmlns="http://www.w3.org/2000/svg" xmlns:xlink="http://www.w3.org/1999/xlink" x="0px" y="0px"
	 viewBox="0 0 500 500" style="enable-background:new 0 0 500 500;" xml:space="preserve">
<g id="Background_Simple">
	<g>
		<path style="fill:#92E3A9;" d="M462.859,361.666c28.214-57.48,30.112-134.066,10.636-195.465
			c-16.769-52.865-54.084-93.185-97.184-117.195c-50.007-27.858-109.613-36.149-163.276-18.567
			c-14.119,4.626-27.861,8.862-41.17,16.458c-54.56,31.143-44.032,107.886-63.175,134.582
			c-16.105,22.46-46.902,15.837-66.317,33.047c-52.39,46.442-22.068,166.162,34.108,209.12
			C141.893,473.668,392.978,504.035,462.859,361.666z"/>
		<path style="opacity:0.8;fill:#FFFFFF;" d="M462.859,361.666c28.214-57.48,30.112-134.066,10.636-195.465
			c-16.769-52.865-54.084-93.185-97.184-117.195c-50.007-27.858-109.613-36.149-163.276-18.567
			c-14.119,4.626-27.861,8.862-41.17,16.458c-54.56,31.143-44.032,107.886-63.175,134.582
			c-16.105,22.46-46.902,15.837-66.317,33.047c-52.39,46.442-22.068,166.162,34.108,209.12
			C141.893,473.668,392.978,504.035,462.859,361.666z"/>
	</g>
</g>
<g id="Plants">
	<g>
		<path style="fill:#92E3A9;" d="M29.588,136.676c2.93-0.11,8.785-3.1,8.79-3.102c0.061-0.031-3.142-3.261-3.367-3.442
			c-2.61-2.09-8.881-4.594-12.006-2.53c-2.25,1.487-2.427,4.543-0.789,6.547C23.888,136.196,27.092,136.77,29.588,136.676z"/>
		<path style="fill:#92E3A9;" d="M90.088,109.089c0.068,0.008-0.822-4.453-0.91-4.728c-1.024-3.183-4.873-8.731-8.618-8.733
			c-2.697-0.001-4.53,2.45-4.27,5.025c0.265,2.63,2.622,4.877,4.755,6.175C83.55,108.352,90.083,109.088,90.088,109.089z"/>
		<path style="fill:#92E3A9;" d="M97.405,79.114c-3.527,1.257-5.294,7.774-5.192,11.116c0.009,0.289,0.666,4.79,0.728,4.76
			c0,0,0.057-0.029,0.071-0.035c-0.287,1.027-0.583,2.131-0.882,3.344c-0.534,2.244-1.117,4.785-1.565,7.592
			c-0.455,2.804-0.87,5.865-1.017,9.127c-0.151,3.27-0.144,6.717,0.324,10.269c0.005,0.04,0.016,0.081,0.021,0.121
			c-0.459-0.996-1.837-3.739-1.966-3.937c-1.828-2.8-7.006-7.135-10.618-6.148c-2.602,0.711-3.722,3.559-2.792,5.974
			c0.95,2.466,3.817,4.011,6.217,4.7c2.707,0.777,8.748-0.12,9.228-0.193c0.476,3.378,1.239,6.805,2.202,10.232
			c0.548,1.959,1.162,3.916,1.802,5.87c-0.425-0.849-0.811-1.604-0.876-1.704c-1.828-2.8-7.006-7.134-10.618-6.147
			c-2.602,0.711-3.722,3.559-2.792,5.974c0.95,2.467,3.817,4.011,6.217,4.7c2.436,0.699,7.601,0.038,8.965-0.156
			c0.254,0.747,0.498,1.496,0.754,2.242c1.228,3.579,2.47,7.146,3.58,10.682c0.392,1.246,0.732,2.487,1.077,3.728
			c-0.378-0.753-0.703-1.384-0.762-1.475c-1.828-2.8-7.006-7.135-10.618-6.147c-2.602,0.711-3.723,3.559-2.792,5.974
			c0.95,2.466,3.817,4.011,6.217,4.7c2.324,0.667,7.097,0.099,8.72-0.123c0.315,1.281,0.633,2.564,0.88,3.819
			c0.149,0.862,0.353,1.68,0.455,2.554c0.119,0.863,0.238,1.717,0.354,2.562c0.165,1.637,0.346,3.325,0.467,4.926
			c0.093,1.113,0.16,2.175,0.232,3.244c-0.375-1.244-1.162-3.666-1.251-3.86c-0.919-2.023-3.199-4.932-5.715-6.536
			c-0.134-0.299-0.293-0.586-0.481-0.856c-1.48-2.123-4.467-2.789-6.513-1.031c-2.84,2.44-2.147,9.157-0.85,12.239
			c0.076,0.182,1.127,2.062,1.809,3.237c-0.506-0.63-0.99-1.247-1.519-1.889c-1.037-1.276-2.11-2.52-3.259-3.862
			c-0.577-0.628-1.161-1.263-1.75-1.904c-0.571-0.648-1.256-1.26-1.887-1.9c-1.495-1.451-3.08-2.849-4.709-4.222
			c1.116-0.911,5.03-4.203,6.159-6.443c1.124-2.23,1.935-5.383,0.77-7.756c-1.142-2.323-3.993-3.434-6.282-2.006
			c-3.177,1.982-3.509,8.726-2.695,11.969c0.051,0.202,0.897,2.463,1.386,3.696c-0.986-0.818-1.965-1.639-2.988-2.434
			c-2.954-2.295-6.017-4.526-9.062-6.765c-0.933-0.685-1.854-1.379-2.78-2.071c0.401-0.32,5.139-4.132,6.403-6.641
			c1.124-2.23,1.936-5.383,0.77-7.756c-1.142-2.322-3.993-3.434-6.282-2.006c-3.177,1.982-3.509,8.727-2.695,11.969
			c0.062,0.244,1.284,3.496,1.635,4.308c-2.036-1.523-4.052-3.06-5.977-4.656c-2.66-2.198-5.148-4.502-7.393-6.912
			c0.187-0.148,5.15-4.105,6.445-6.675c1.124-2.23,1.936-5.384,0.77-7.756c-1.141-2.323-3.993-3.434-6.282-2.006
			c-3.177,1.982-3.509,8.726-2.695,11.969c0.054,0.213,0.983,2.693,1.452,3.861c-0.1,0.062-0.081,0.051-0.181,0.113
			c-2.375-2.612-4.346-5.44-6.061-8.178c-0.996-1.584-1.86-3.154-2.666-4.7c1-0.642,5.537-3.627,6.958-5.811
			c1.362-2.093,2.515-5.138,1.617-7.624c-0.88-2.434-3.592-3.852-6.024-2.684c-3.375,1.621-4.446,8.288-3.993,11.601
			c0.025,0.18,0.478,1.984,0.827,3.293c-0.352-0.703-0.73-1.423-1.055-2.103c-1.226-2.552-2.191-4.965-3.029-7.109
			c-0.467-1.223-0.864-2.338-1.225-3.385c0.653-1.142,3.224-5.777,3.474-8.324c0.244-2.485-0.136-5.719-2.078-7.511
			c-1.902-1.755-4.963-1.763-6.583,0.394c-2.249,2.994-0.127,9.405,1.802,12.136c0.167,0.236,3.198,3.628,3.233,3.568
			c0,0,0.032-0.055,0.04-0.069c0.327,1.015,0.69,2.099,1.11,3.275c0.792,2.166,1.708,4.607,2.883,7.196
			c1.168,2.59,2.509,5.371,4.187,8.173c1.678,2.811,3.586,5.682,5.935,8.386c0.027,0.031,0.058,0.059,0.085,0.089
			c-0.932-0.577-3.594-2.105-3.812-2.199c-3.069-1.326-9.779-2.086-12.247,0.73c-1.778,2.029-1.142,5.022,0.967,6.523
			c2.153,1.533,5.396,1.24,7.778,0.49c2.687-0.845,7.23-4.926,7.59-5.252c2.261,2.555,4.788,4.993,7.481,7.319
			c1.538,1.332,3.129,2.626,4.741,3.902c-0.822-0.473-1.561-0.891-1.671-0.938c-3.069-1.327-9.779-2.085-12.247,0.73
			c-1.778,2.029-1.141,5.022,0.967,6.523c2.153,1.533,5.396,1.24,7.779,0.491c2.417-0.761,6.361-4.162,7.392-5.076
			c0.623,0.483,1.24,0.973,1.865,1.454c3,2.307,6.003,4.598,8.879,6.934c1.015,0.823,1.983,1.671,2.955,2.515
			c-0.731-0.42-1.35-0.767-1.45-0.81c-3.069-1.326-9.779-2.086-12.247,0.73c-1.778,2.029-1.141,5.022,0.967,6.523
			c2.153,1.533,5.396,1.24,7.778,0.49c2.307-0.726,5.975-3.832,7.206-4.913c0.969,0.895,1.942,1.789,2.841,2.7
			c0.6,0.636,1.222,1.206,1.789,1.879c0.575,0.654,1.145,1.301,1.709,1.942c1.041,1.274,2.123,2.582,3.107,3.851
			c0.691,0.877,1.334,1.725,1.983,2.578c-1-0.831-2.992-2.416-3.173-2.53c-2.833-1.777-9.35-3.543-12.216-1.134
			c-2.065,1.736-1.889,4.791-0.032,6.594c1.896,1.841,5.146,2.043,7.614,1.663c2.717-0.419,7.641-3.61,8.254-4.013
			c1.07,1.415,2.098,2.801,3.046,4.125c1.619,2.248,3.06,4.338,4.319,6.216l2.175-1.049c-1.362-1.946-2.932-4.126-4.707-6.481
			c-1.081-1.441-2.265-2.96-3.495-4.508c0.318-0.347,2.118-2.33,3.565-4.393c2.628,1.036,8.106,1.09,8.813,1.092
			c0.112,1.77,0.204,3.494,0.265,5.121c0.1,2.52,0.148,4.841,0.167,6.946l2.336-1.127c-0.065-1.831-0.157-3.814-0.287-5.929
			c-0.106-1.799-0.256-3.718-0.428-5.688c0.699-0.173,6.398-1.624,8.553-3.337c1.954-1.554,4.013-4.077,3.948-6.72
			c-0.063-2.588-2.187-4.791-4.864-4.453c-3.715,0.468-6.842,6.453-7.461,9.739c-0.036,0.194-0.197,2.341-0.277,3.698
			c-0.074-0.804-0.138-1.586-0.225-2.413c-0.161-1.637-0.369-3.266-0.587-5.019c-0.135-0.843-0.271-1.694-0.41-2.554
			c-0.118-0.855-0.352-1.744-0.526-2.626c-0.446-2.035-0.997-4.076-1.598-6.119c1.433-0.144,6.514-0.73,8.692-1.976
			c2.167-1.24,4.584-3.423,4.921-6.044c0.329-2.567-1.436-5.067-4.133-5.139c-3.743-0.099-7.741,5.343-8.851,8.497
			c-0.069,0.197-0.611,2.549-0.884,3.847c-0.37-1.226-0.734-2.451-1.15-3.678c-1.198-3.544-2.521-7.094-3.826-10.641
			c-0.4-1.087-0.786-2.174-1.176-3.261c0.51-0.046,6.565-0.612,9.004-2.007c2.168-1.24,4.584-3.422,4.921-6.044
			c0.329-2.567-1.436-5.067-4.133-5.138c-3.743-0.1-7.741,5.342-8.85,8.496c-0.084,0.238-0.858,3.624-1.013,4.495
			c-0.858-2.394-1.692-4.788-2.417-7.181c-1.006-3.301-1.81-6.595-2.353-9.844c0.238-0.021,6.56-0.583,9.057-2.012
			c2.168-1.24,4.584-3.422,4.921-6.044c0.329-2.567-1.436-5.067-4.133-5.139c-3.743-0.099-7.741,5.343-8.851,8.497
			c-0.073,0.207-0.665,2.786-0.919,4.02c-0.118-0.004-0.096-0.003-0.214-0.006c-0.54-3.487-0.624-6.934-0.544-10.163
			c0.043-1.871,0.189-3.656,0.37-5.391c1.188,0.016,6.619,0.03,9.009-1.008c2.291-0.995,4.932-2.898,5.555-5.467
			c0.609-2.516-0.871-5.194-3.543-5.562c-3.71-0.51-8.281,4.46-9.73,7.473c-0.079,0.164-0.696,1.918-1.127,3.202
			c0.094-0.781,0.176-1.59,0.28-2.337c0.386-2.805,0.912-5.35,1.396-7.6c0.286-1.277,0.569-2.426,0.846-3.499
			c1.174-0.592,5.876-3.04,7.49-5.026c1.574-1.938,3.042-4.845,2.41-7.412C102.495,79.903,99.946,78.208,97.405,79.114z"/>
	</g>
	<g>
		<path style="fill:#92E3A9;" d="M483.17,282.592c-2.924,0.211-9.071-2.121-9.076-2.123c-0.064-0.024,2.767-3.585,2.971-3.789
			c2.366-2.362,8.326-5.537,11.657-3.827c2.399,1.232,2.909,4.25,1.5,6.421C488.784,281.492,485.661,282.413,483.17,282.592z"/>
		<path style="fill:#92E3A9;" d="M420.018,261.783c-0.067,0.015,0.33-4.516,0.388-4.799c0.67-3.276,3.89-9.212,7.612-9.623
			c2.681-0.296,4.77,1.94,4.793,4.528c0.024,2.643-2.073,5.134-4.052,6.658C426.436,260.336,420.023,261.782,420.018,261.783z"/>
		<path style="fill:#92E3A9;" d="M409.468,232.788c3.643,0.864,6.112,7.149,6.376,10.482c0.022,0.288-0.139,4.834-0.203,4.811
			c0,0-0.06-0.022-0.075-0.027c0.397,0.989,0.812,2.054,1.242,3.227c0.776,2.172,1.633,4.634,2.385,7.376
			c0.759,2.738,1.506,5.734,2.008,8.961c0.508,3.234,0.877,6.661,0.801,10.243c-0.001,0.04-0.007,0.082-0.008,0.123
			c0.348-1.04,1.417-3.917,1.524-4.128c1.511-2.983,6.184-7.858,9.882-7.272c2.664,0.423,4.089,3.131,3.428,5.633
			c-0.675,2.556-3.355,4.405-5.666,5.352c-2.606,1.068-8.708,0.837-9.194,0.816c-0.104,3.41-0.488,6.9-1.071,10.411
			c-0.331,2.008-0.727,4.02-1.149,6.032c0.329-0.89,0.631-1.683,0.685-1.789c1.511-2.983,6.184-7.858,9.882-7.271
			c2.665,0.423,4.089,3.131,3.428,5.633c-0.675,2.556-3.355,4.404-5.666,5.352c-2.345,0.961-7.551,0.868-8.929,0.825
			c-0.17,0.77-0.332,1.541-0.505,2.31c-0.83,3.692-1.674,7.374-2.391,11.009c-0.254,1.281-0.456,2.552-0.663,3.823
			c0.294-0.79,0.547-1.453,0.596-1.55c1.511-2.983,6.184-7.858,9.882-7.271c2.665,0.422,4.089,3.131,3.428,5.634
			c-0.675,2.555-3.356,4.404-5.666,5.351c-2.237,0.917-7.044,0.874-8.681,0.831c-0.173,1.308-0.348,2.618-0.457,3.893
			c-0.054,0.872-0.167,1.709-0.173,2.588c-0.024,0.871-0.048,1.732-0.072,2.585c0.015,1.645,0.02,3.343,0.074,4.948
			c0.029,1.116,0.078,2.179,0.124,3.25c0.237-1.278,0.755-3.771,0.822-3.974c0.692-2.111,2.64-5.252,4.967-7.121
			c0.1-0.312,0.227-0.615,0.385-0.904c1.239-2.272,4.136-3.26,6.362-1.736c3.09,2.115,3.135,8.868,2.183,12.073
			c-0.056,0.189-0.895,2.172-1.444,3.415c0.434-0.681,0.848-1.348,1.303-2.043c0.891-1.382,1.822-2.735,2.817-4.195
			c0.505-0.688,1.016-1.382,1.532-2.084c0.496-0.707,1.111-1.39,1.668-2.095c1.328-1.606,2.75-3.169,4.219-4.711
			c-1.208-0.784-5.459-3.628-6.826-5.731c-1.361-2.094-2.512-5.14-1.613-7.625c0.881-2.434,3.593-3.85,6.025-2.681
			c3.374,1.623,4.442,8.291,3.987,11.603c-0.028,0.207-0.622,2.547-0.974,3.826c0.89-0.921,1.774-1.843,2.704-2.746
			c2.686-2.604,5.486-5.156,8.268-7.715c0.853-0.783,1.692-1.574,2.537-2.362c-0.433-0.274-5.559-3.546-7.09-5.902
			c-1.361-2.094-2.513-5.14-1.613-7.625c0.881-2.433,3.594-3.85,6.025-2.681c3.374,1.623,4.442,8.291,3.987,11.603
			c-0.035,0.25-0.894,3.616-1.154,4.461c1.858-1.737,3.693-3.485,5.433-5.281c2.404-2.476,4.625-5.038,6.594-7.679
			c-0.202-0.127-5.567-3.517-7.136-5.93c-1.361-2.094-2.512-5.14-1.613-7.625c0.88-2.434,3.594-3.85,6.025-2.681
			c3.375,1.623,4.442,8.291,3.987,11.603c-0.03,0.218-0.682,2.784-1.021,3.997c0.106,0.051,0.087,0.041,0.192,0.092
			c2.075-2.855,3.726-5.882,5.131-8.792c0.817-1.684,1.504-3.338,2.136-4.963c-1.064-0.529-5.9-3-7.551-5.016
			c-1.582-1.932-3.062-4.832-2.441-7.402c0.608-2.516,3.149-4.221,5.694-3.326c3.532,1.242,5.325,7.753,5.237,11.095
			c-0.005,0.181-0.259,2.024-0.462,3.363c0.273-0.738,0.57-1.494,0.819-2.206c0.94-2.671,1.635-5.175,2.234-7.397
			c0.33-1.267,0.603-2.418,0.848-3.499c-0.773-1.064-3.836-5.39-4.363-7.894c-0.514-2.444-0.49-5.7,1.245-7.694
			c1.699-1.952,4.74-2.295,6.586-0.328c2.562,2.73,1.154,9.334-0.465,12.26c-0.14,0.253-2.782,3.955-2.824,3.9
			c0,0-0.038-0.052-0.047-0.064c-0.214,1.044-0.456,2.162-0.745,3.377c-0.551,2.24-1.194,4.766-2.079,7.468
			c-0.878,2.702-1.907,5.614-3.268,8.582c-1.361,2.977-2.943,6.04-4.983,8.985c-0.023,0.034-0.052,0.065-0.075,0.098
			c0.864-0.676,3.343-2.485,3.549-2.603c2.906-1.654,9.492-3.142,12.254-0.613c1.989,1.822,1.684,4.867-0.249,6.59
			c-1.973,1.759-5.228,1.822-7.678,1.338c-2.763-0.547-7.725-4.106-8.119-4.391c-1.968,2.787-4.213,5.486-6.637,8.093
			c-1.383,1.492-2.823,2.952-4.286,4.397c0.766-0.561,1.455-1.056,1.558-1.115c2.906-1.654,9.493-3.142,12.254-0.613
			c1.989,1.822,1.683,4.867-0.249,6.59c-1.973,1.759-5.228,1.823-7.678,1.338c-2.486-0.492-6.777-3.442-7.903-4.237
			c-0.567,0.548-1.126,1.103-1.695,1.649c-2.729,2.622-5.464,5.226-8.068,7.863c-0.919,0.929-1.788,1.877-2.663,2.823
			c0.681-0.497,1.258-0.91,1.353-0.964c2.906-1.654,9.492-3.142,12.253-0.613c1.989,1.822,1.684,4.867-0.249,6.59
			c-1.973,1.759-5.228,1.822-7.678,1.337c-2.372-0.469-6.358-3.156-7.699-4.096c-0.865,0.995-1.735,1.991-2.529,2.995
			c-0.527,0.698-1.082,1.333-1.572,2.063c-0.5,0.713-0.996,1.418-1.486,2.117c-0.895,1.38-1.828,2.799-2.667,4.168
			c-0.591,0.947-1.137,1.861-1.69,2.779c0.903-0.935,2.71-2.728,2.878-2.861c2.621-2.075,8.906-4.544,12.019-2.462
			c2.242,1.5,2.401,4.556,0.752,6.551c-1.684,2.038-4.892,2.593-7.387,2.485c-2.747-0.119-7.99-2.753-8.643-3.087
			c-0.909,1.523-1.779,3.014-2.577,4.433c-1.363,2.411-2.568,4.647-3.614,6.651l-2.277-0.805c1.141-2.083,2.464-4.422,3.97-6.957
			c0.917-1.551,1.928-3.19,2.981-4.863c-0.354-0.31-2.36-2.085-4.024-3.977c-2.499,1.317-7.938,1.969-8.641,2.048
			c0.082,1.772,0.179,3.495,0.297,5.12c0.176,2.516,0.382,4.828,0.593,6.922l-2.445-0.865c-0.136-1.827-0.261-3.809-0.363-5.925
			c-0.091-1.799-0.152-3.724-0.196-5.701c-0.713-0.096-6.537-0.915-8.866-2.382c-2.113-1.331-4.434-3.614-4.659-6.248
			c-0.22-2.579,1.65-5.001,4.348-4.958c3.744,0.059,7.507,5.667,8.481,8.865c0.057,0.189,0.452,2.305,0.679,3.645
			c-0.014-0.808-0.036-1.592-0.04-2.423c-0.019-1.644,0.01-3.286,0.035-5.053c0.042-0.853,0.085-1.714,0.128-2.583
			c0.024-0.863,0.159-1.772,0.236-2.667c0.221-2.072,0.546-4.16,0.92-6.257c-1.44,0.013-6.555-0.014-8.855-1.014
			c-2.29-0.996-4.931-2.901-5.552-5.47c-0.608-2.516,0.874-5.194,3.547-5.56c3.71-0.508,8.279,4.465,9.726,7.479
			c0.09,0.188,0.886,2.467,1.299,3.728c0.234-1.259,0.462-2.516,0.741-3.782c0.804-3.654,1.731-7.327,2.64-10.995
			c0.279-1.124,0.543-2.246,0.812-3.37c-0.512,0.01-6.593,0.11-9.169-1.011c-2.29-0.995-4.931-2.901-5.552-5.47
			c-0.608-2.516,0.874-5.193,3.547-5.559c3.71-0.508,8.279,4.464,9.726,7.478c0.109,0.227,1.249,3.509,1.498,4.357
			c0.592-2.473,1.158-4.944,1.618-7.402c0.639-3.391,1.079-6.754,1.263-10.042c-0.238,0.005-6.584,0.138-9.223-1.01
			c-2.29-0.996-4.931-2.9-5.552-5.47c-0.608-2.516,0.874-5.193,3.546-5.56c3.71-0.508,8.279,4.464,9.726,7.478
			c0.095,0.198,0.966,2.696,1.353,3.895c0.117-0.016,0.095-0.013,0.212-0.029c0.156-3.525-0.138-6.96-0.57-10.161
			c-0.247-1.855-0.587-3.614-0.957-5.318c-1.179,0.146-6.576,0.753-9.065-0.017c-2.386-0.738-5.22-2.342-6.119-4.827
			c-0.881-2.434,0.298-5.258,2.914-5.916c3.631-0.913,8.719,3.528,10.488,6.365c0.096,0.154,0.901,1.831,1.47,3.06
			c-0.179-0.766-0.349-1.561-0.534-2.292c-0.69-2.746-1.491-5.218-2.218-7.402c-0.424-1.238-0.831-2.35-1.223-3.386
			c-1.232-0.46-6.173-2.379-7.994-4.177c-1.777-1.755-3.553-4.484-3.206-7.104C404.495,234.129,406.843,232.165,409.468,232.788z"/>
	</g>
	<g>
		<path style="fill:#92E3A9;" d="M458.865,418.418c-1.602,0.799-5.616,0.913-5.619,0.913c-0.042,0.001,0.728-2.668,0.796-2.831
			c0.786-1.885,3.413-5.064,5.692-4.873c1.642,0.138,2.631,1.723,2.341,3.277C461.779,416.491,460.23,417.737,458.865,418.418z"/>
		<path style="fill:#92E3A9;" d="M418.361,421.36c-0.034,0.024-0.864-2.627-0.898-2.8c-0.384-2.006,0.053-6.107,2.06-7.205
			c1.445-0.791,3.145-0.014,3.76,1.442c0.628,1.487,0.024,3.382-0.739,4.703C421.648,419.05,418.363,421.358,418.361,421.36z"/>
		<path style="fill:#92E3A9;" d="M431.243,464.59c0.485,1.106,0.967,2.179,1.437,3.174c0.394,0.84,0.779,1.636,1.15,2.389h1.595
			c-0.485-0.92-0.996-1.912-1.525-2.979c-0.444-0.89-0.9-1.841-1.359-2.822c0.379-0.208,3.298-1.842,4.403-3.167
			c1.38,0.682,2.926,1.217,3.198,1.31c-0.206,1.19-0.395,2.351-0.552,3.44c-0.224,1.529-0.403,2.937-0.551,4.219h1.453
			c0.116-1.232,0.259-2.58,0.441-4.038c0.12-0.987,0.265-2.031,0.423-3.103c0.446,0.036,4.02,0.304,5.599-0.268
			c1.434-0.52,3.116-1.58,3.593-3.122c0.467-1.51-0.334-3.199-1.949-3.524c-2.242-0.452-5.217,2.405-6.215,4.187
			c-0.064,0.114-0.667,1.547-0.959,2.285c0.098-0.647,0.194-1.29,0.307-1.963c0.156-0.968,0.352-1.986,0.537-2.974
			c0.115-0.509,0.23-1.022,0.347-1.541c0.107-0.526,0.273-1.014,0.408-1.531c0.215-0.751,0.474-1.516,0.731-2.279
			c0.976,0.218,3.852,0.808,5.301,0.521c1.496-0.296,3.32-1.089,4.025-2.542c0.69-1.422,0.155-3.213-1.393-3.779
			c-2.148-0.786-5.521,1.587-6.777,3.197c-0.041,0.052-0.271,0.42-0.54,0.859c0.274-0.738,0.544-1.475,0.847-2.214
			c0.857-2.095,1.795-4.202,2.727-6.317c0.194-0.441,0.381-0.884,0.574-1.325c0.821,0.188,3.931,0.855,5.449,0.554
			c1.496-0.296,3.32-1.089,4.025-2.542c0.69-1.422,0.155-3.213-1.393-3.779c-2.147-0.786-5.521,1.587-6.777,3.197
			c-0.045,0.057-0.319,0.497-0.621,0.992c0.49-1.156,0.963-2.316,1.397-3.48c0.762-2.036,1.402-4.083,1.865-6.114
			c0.289,0.069,3.919,0.925,5.607,0.591c1.496-0.296,3.32-1.089,4.025-2.542c0.69-1.422,0.154-3.213-1.393-3.779
			c-2.148-0.786-5.521,1.587-6.777,3.197c-0.089,0.114-1.068,1.713-1.399,2.295c0.005-0.024,0.014-0.048,0.019-0.073
			c0.467-2.137,0.648-4.235,0.723-6.233c0.078-1.993-0.018-3.877-0.151-5.607c-0.129-1.732-0.353-3.308-0.563-4.701
			c-0.12-0.753-0.243-1.441-0.365-2.08c0.008,0.005,0.041,0.025,0.041,0.025c0.036,0.022,0.667-2.684,0.687-2.859
			c0.233-2.029-0.508-6.086-2.59-7.032c-1.5-0.681-3.138,0.22-3.643,1.718c-0.516,1.53,0.228,3.374,1.087,4.634
			c0.88,1.291,3.616,3.022,4.301,3.443c0.113,0.667,0.227,1.381,0.335,2.173c0.179,1.394,0.369,2.97,0.46,4.697
			c0.025,0.46,0.034,0.956,0.051,1.436c-0.197-0.804-0.482-1.903-0.522-2.007c-0.728-1.908-3.255-5.167-5.539-5.047
			c-1.645,0.086-2.683,1.641-2.442,3.203c0.247,1.595,1.757,2.889,3.1,3.612c1.401,0.754,4.707,1.025,5.431,1.076
			c0.021,1.065,0.018,2.159-0.051,3.3c-0.117,1.97-0.344,4.063-0.852,6.159c-0.072-0.004-0.059-0.003-0.13-0.007
			c-0.091-0.763-0.319-2.365-0.353-2.494c-0.514-1.976-2.668-5.493-4.951-5.625c-1.645-0.095-2.847,1.336-2.778,2.916
			c0.07,1.613,1.429,3.065,2.685,3.931c1.447,0.998,5.266,1.664,5.409,1.689c-0.497,1.95-1.155,3.913-1.937,5.871
			c-0.564,1.419-1.194,2.833-1.839,4.246c-0.05-0.538-0.347-2.639-0.386-2.788c-0.514-1.976-2.668-5.493-4.951-5.625
			c-1.645-0.095-2.847,1.336-2.779,2.915c0.07,1.613,1.43,3.065,2.685,3.931c1.413,0.974,5.069,1.629,5.377,1.683
			c-0.293,0.642-0.583,1.283-0.883,1.924c-0.976,2.092-1.963,4.185-2.874,6.28c-0.316,0.726-0.6,1.453-0.888,2.18
			c-0.099-0.804-0.308-2.264-0.34-2.387c-0.513-1.977-2.668-5.493-4.951-5.625c-1.645-0.095-2.847,1.336-2.779,2.915
			c0.07,1.613,1.429,3.065,2.685,3.931c1.261,0.87,4.324,1.487,5.188,1.648c-0.47,1.213-0.91,2.427-1.286,3.642
			c-0.151,0.528-0.339,1.056-0.455,1.571c-0.128,0.516-0.255,1.027-0.38,1.533c-0.223,1.056-0.433,2.037-0.615,3.024
			c-0.096,0.499-0.174,0.971-0.261,1.457c0.021-0.83,0.034-2.145,0.021-2.264c-0.208-2.031-1.805-5.834-4.042-6.31
			c-1.612-0.343-3.017,0.889-3.188,2.461c-0.022,0.2-0.023,0.4-0.007,0.6c-0.879,1.597-1.248,3.824-1.148,5.177
			c0.009,0.13,0.297,1.658,0.461,2.435c-0.275-0.594-0.55-1.183-0.826-1.807c-0.404-0.893-0.802-1.851-1.193-2.777
			c-0.185-0.487-0.372-0.979-0.561-1.477c-0.201-0.498-0.332-0.997-0.504-1.502c-0.235-0.745-0.441-1.526-0.648-2.305
			c0.935-0.357,3.659-1.451,4.709-2.489c1.085-1.073,2.168-2.74,1.955-4.34c-0.209-1.567-1.644-2.765-3.247-2.384
			c-2.225,0.529-3.729,4.369-3.889,6.405c-0.005,0.066,0.006,0.5,0.024,1.014c-0.178-0.766-0.36-1.531-0.515-2.313
			c-0.441-2.22-0.82-4.495-1.211-6.773c-0.081-0.475-0.169-0.948-0.252-1.422c0.788-0.296,3.75-1.455,4.85-2.543
			c1.085-1.073,2.168-2.74,1.955-4.341c-0.209-1.567-1.644-2.765-3.247-2.383c-2.225,0.529-3.729,4.369-3.889,6.405
			c-0.006,0.073,0.008,0.591,0.03,1.17c-0.23-1.234-0.474-2.463-0.754-3.673c-0.488-2.118-1.083-4.179-1.818-6.128
			c0.279-0.102,3.779-1.391,5.002-2.6c1.085-1.073,2.168-2.74,1.955-4.34c-0.209-1.567-1.644-2.765-3.247-2.384
			c-2.225,0.529-3.729,4.37-3.889,6.406c-0.011,0.144,0.054,2.018,0.1,2.686c-0.009-0.023-0.015-0.048-0.024-0.071
			c-0.79-2.04-1.796-3.89-2.835-5.598c-1.034-1.705-2.154-3.224-3.219-4.593c-1.063-1.373-2.12-2.564-3.063-3.61
			c-0.516-0.562-0.997-1.067-1.452-1.534c0.009,0,0.048-0.002,0.048-0.002c0.042-0.002-0.925-2.606-1.004-2.764
			c-0.925-1.821-3.781-4.796-6.039-4.436c-1.627,0.259-2.496,1.914-2.091,3.442c0.414,1.561,2.052,2.688,3.463,3.266
			c1.447,0.591,4.683,0.525,5.486,0.499c0.463,0.494,0.951,1.027,1.478,1.627c0.919,1.064,1.946,2.274,2.975,3.664
			c0.275,0.37,0.556,0.779,0.835,1.17c-0.607-0.562-1.452-1.321-1.542-1.386c-1.659-1.19-5.565-2.514-7.404-1.154
			c-1.324,0.98-1.333,2.849-0.269,4.019c1.086,1.194,3.059,1.44,4.578,1.302c1.585-0.144,4.491-1.742,5.123-2.099
			c0.605,0.876,1.206,1.791,1.778,2.781c0.989,1.707,1.954,3.578,2.686,5.606c-0.062,0.036-0.051,0.03-0.113,0.066
			c-0.497-0.587-1.57-1.795-1.67-1.885c-1.519-1.365-5.255-3.11-7.232-1.96c-1.424,0.829-1.638,2.686-0.709,3.965
			c0.949,1.307,2.883,1.768,4.408,1.797c1.757,0.034,5.31-1.517,5.443-1.576c0.661,1.9,1.195,3.901,1.623,5.965
			c0.312,1.495,0.567,3.022,0.809,4.556c-0.338-0.421-1.745-2.009-1.86-2.112c-1.518-1.365-5.256-3.11-7.232-1.96
			c-1.424,0.828-1.638,2.685-0.709,3.964c0.949,1.306,2.883,1.768,4.408,1.797c1.716,0.033,5.126-1.438,5.413-1.562
			c0.109,0.697,0.221,1.392,0.325,2.092c0.34,2.283,0.671,4.573,1.067,6.823c0.137,0.78,0.301,1.543,0.461,2.308
			c-0.527-0.616-1.506-1.718-1.601-1.803c-1.519-1.365-5.256-3.11-7.233-1.96c-1.424,0.829-1.638,2.685-0.709,3.965
			c0.948,1.306,2.883,1.768,4.408,1.797c1.532,0.03,4.426-1.145,5.237-1.488c0.277,1.271,0.579,2.526,0.936,3.747
			c0.165,0.523,0.3,1.068,0.487,1.561c0.178,0.501,0.354,0.997,0.529,1.489c0.397,1.003,0.762,1.938,1.156,2.862
			c0.196,0.469,0.391,0.906,0.587,1.359c-0.44-0.704-1.155-1.807-1.232-1.901c-1.294-1.579-4.724-3.87-6.852-3.033
			c-1.533,0.603-2.026,2.406-1.302,3.811c0.74,1.435,2.582,2.184,4.085,2.444C427.339,465.594,430.818,464.701,431.243,464.59z"/>
	</g>
</g>
<g id="Web_Page">
	<g>
		<g>
			<g>
				<rect x="103.151" y="38.946" style="fill:#263238;stroke:#263238;stroke-miterlimit:10;" width="324.326" height="384.117"/>
				<g>
					<path style="fill:#92E3A9;stroke:#263238;stroke-miterlimit:10;" d="M396.048,43.39c0,1.442-1.169,2.611-2.611,2.611
						c-1.442,0-2.611-1.169-2.611-2.611c0-1.442,1.169-2.611,2.611-2.611C394.879,40.779,396.048,41.948,396.048,43.39z"/>
					<path style="fill:#92E3A9;stroke:#263238;stroke-miterlimit:10;" d="M405.841,43.39c0,1.442-1.169,2.611-2.611,2.611
						c-1.442,0-2.611-1.169-2.611-2.611c0-1.442,1.169-2.611,2.611-2.611C404.671,40.779,405.841,41.948,405.841,43.39z"/>
					<path style="fill:#92E3A9;stroke:#263238;stroke-miterlimit:10;" d="M415.633,43.39c0,1.442-1.169,2.611-2.611,2.611
						s-2.611-1.169-2.611-2.611c0-1.442,1.169-2.611,2.611-2.611S415.633,41.948,415.633,43.39z"/>
				</g>
			</g>
			<rect x="103.151" y="47.433" style="fill:#92E3A9;stroke:#263238;stroke-miterlimit:10;" width="324.326" height="384.117"/>
			<path style="fill:#263238;stroke:#263238;stroke-miterlimit:10;" d="M193.702,69.503v-6.999c0-3.706-3.004-6.71-6.71-6.71
				h-68.616c-3.706,0-6.71,3.004-6.71,6.71v6.999h-8.514V431.55h324.326V69.503H193.702z"/>
			<path style="fill:#263238;stroke:#263238;stroke-miterlimit:10;" d="M280.999,69.503v-6.999c0-3.706-3.004-6.71-6.711-6.71
				h-68.616c-3.706,0-6.71,3.004-6.71,6.71v6.999h-95.811V431.55h324.326V69.503H280.999z"/>
			<path style="fill:#FFFFFF;stroke:#263238;stroke-miterlimit:10;" d="M374.662,69.503v-6.999c0-3.706-3.004-6.71-6.711-6.71
				h-68.616c-3.706,0-6.71,3.004-6.71,6.71v6.999H103.151V431.55h324.326V69.503H374.662z"/>
		</g>
		<rect x="201.193" y="259.473" style="fill:none;stroke:#263238;stroke-miterlimit:10;" width="98.39" height="67.24"/>
		<rect x="110.767" y="136.09" style="fill:#92E3A9;" width="309.436" height="99.881"/>
		<rect x="110.767" y="244.785" style="fill:#92E3A9;" width="79.317" height="168.427"/>
		<g>
			<g>
				<polygon style="fill:#FFFFFF;stroke:#263238;stroke-miterlimit:10;" points="414.712,235.971 313.399,235.971 313.399,123.607 
					414.712,155.97 				"/>
				<polygon style="fill:#FFFFFF;stroke:#263238;stroke-miterlimit:10;" points="414.712,235.971 313.399,235.971 313.399,215.682 
					414.712,221.526 				"/>
				<g>
					<polygon style="fill:#263238;stroke:#263238;stroke-miterlimit:10;" points="335.59,146.844 320.013,142.632 320.013,135.601 
						335.59,140.131 					"/>
					<polygon style="fill:#FFFFFF;stroke:#263238;stroke-miterlimit:10;" points="338.272,152.379 317.021,146.944 317.021,139.853 
						338.272,145.72 					"/>
				</g>
				<g>
					<polygon style="fill:#263238;stroke:#263238;stroke-miterlimit:10;" points="358.548,153.053 345.11,149.419 345.11,142.899 
						358.548,146.807 					"/>
					<polygon style="fill:#FFFFFF;stroke:#263238;stroke-miterlimit:10;" points="360.871,158.158 342.539,153.47 342.539,146.898 
						360.871,151.96 					"/>
				</g>
				<g>
					<polygon style="fill:#263238;stroke:#263238;stroke-miterlimit:10;" points="378.516,158.453 366.805,155.286 366.805,149.208 
						378.516,152.614 					"/>
					<polygon style="fill:#FFFFFF;stroke:#263238;stroke-miterlimit:10;" points="380.547,163.19 364.572,159.104 364.572,152.981 
						380.547,157.392 					"/>
				</g>
				<g>
					<polygon style="fill:#263238;stroke:#263238;stroke-miterlimit:10;" points="396.042,163.193 385.745,160.408 385.745,154.716 
						396.042,157.711 					"/>
					<polygon style="fill:#FFFFFF;stroke:#263238;stroke-miterlimit:10;" points="397.833,167.61 383.787,164.018 383.787,158.286 
						397.833,162.165 					"/>
				</g>
				<g>
					<polygon style="fill:#263238;stroke:#263238;stroke-miterlimit:10;" points="411.549,167.386 402.424,164.919 402.424,159.567 
						411.549,162.22 					"/>
					<polygon style="fill:#FFFFFF;stroke:#263238;stroke-miterlimit:10;" points="413.14,171.524 400.694,168.342 400.694,162.954 
						413.14,166.391 					"/>
				</g>
				<g>
					<polygon style="fill:#263238;stroke:#263238;stroke-miterlimit:10;" points="335.59,166.238 320.013,162.943 320.013,155.912 
						335.59,159.525 					"/>
					<polygon style="fill:#FFFFFF;stroke:#263238;stroke-miterlimit:10;" points="338.272,171.615 317.021,167.431 317.021,160.34 
						338.272,164.956 					"/>
				</g>
				<g>
					<polygon style="fill:#263238;stroke:#263238;stroke-miterlimit:10;" points="358.548,171.096 345.11,168.253 345.11,161.733 
						358.548,164.85 					"/>
					<polygon style="fill:#FFFFFF;stroke:#263238;stroke-miterlimit:10;" points="360.871,176.064 342.539,172.455 342.539,165.883 
						360.871,169.866 					"/>
				</g>
				<g>
					<polygon style="fill:#263238;stroke:#263238;stroke-miterlimit:10;" points="378.516,175.321 366.805,172.843 366.805,166.766 
						378.516,169.482 					"/>
					<polygon style="fill:#FFFFFF;stroke:#263238;stroke-miterlimit:10;" points="380.547,179.938 364.572,176.793 364.572,170.67 
						380.547,174.141 					"/>
				</g>
				<g>
					<polygon style="fill:#263238;stroke:#263238;stroke-miterlimit:10;" points="396.042,179.029 385.745,176.851 385.745,171.159 
						396.042,173.548 					"/>
					<polygon style="fill:#FFFFFF;stroke:#263238;stroke-miterlimit:10;" points="397.833,183.341 383.787,180.576 383.787,174.844 
						397.833,177.896 					"/>
				</g>
				<g>
					<polygon style="fill:#263238;stroke:#263238;stroke-miterlimit:10;" points="411.549,182.311 402.424,180.38 402.424,175.028 
						411.549,177.144 					"/>
					<polygon style="fill:#FFFFFF;stroke:#263238;stroke-miterlimit:10;" points="413.14,186.355 400.694,183.904 400.694,178.517 
						413.14,181.221 					"/>
				</g>
				<g>
					<polygon style="fill:#263238;stroke:#263238;stroke-miterlimit:10;" points="335.59,185.633 320.013,183.253 320.013,176.223 
						335.59,178.919 					"/>
					<polygon style="fill:#FFFFFF;stroke:#263238;stroke-miterlimit:10;" points="338.272,190.852 317.021,187.918 317.021,180.827 
						338.272,184.193 					"/>
				</g>
				<g>
					<polygon style="fill:#263238;stroke:#263238;stroke-miterlimit:10;" points="358.548,189.139 345.11,187.087 345.11,180.567 
						358.548,182.894 					"/>
					<polygon style="fill:#FFFFFF;stroke:#263238;stroke-miterlimit:10;" points="360.871,193.971 342.539,191.441 342.539,184.869 
						360.871,187.772 					"/>
				</g>
				<g>
					<polygon style="fill:#263238;stroke:#263238;stroke-miterlimit:10;" points="378.516,192.189 366.805,190.4 366.805,184.323 
						378.516,186.35 					"/>
					<polygon style="fill:#FFFFFF;stroke:#263238;stroke-miterlimit:10;" points="380.547,196.687 364.572,194.482 364.572,188.359 
						380.547,190.889 					"/>
				</g>
				<g>
					<polygon style="fill:#263238;stroke:#263238;stroke-miterlimit:10;" points="396.042,194.866 385.745,193.294 385.745,187.602 
						396.042,189.384 					"/>
					<polygon style="fill:#FFFFFF;stroke:#263238;stroke-miterlimit:10;" points="397.833,199.073 383.787,197.134 383.787,191.402 
						397.833,193.627 					"/>
				</g>
				<g>
					<polygon style="fill:#263238;stroke:#263238;stroke-miterlimit:10;" points="411.549,197.235 402.424,195.841 402.424,190.489 
						411.549,192.069 					"/>
					<polygon style="fill:#FFFFFF;stroke:#263238;stroke-miterlimit:10;" points="413.14,201.186 400.694,199.468 400.694,194.08 
						413.14,196.052 					"/>
				</g>
				<g>
					<polygon style="fill:#263238;stroke:#263238;stroke-miterlimit:10;" points="335.59,205.027 320.013,203.564 320.013,196.534 
						335.59,198.314 					"/>
					<polygon style="fill:#FFFFFF;stroke:#263238;stroke-miterlimit:10;" points="338.272,210.088 317.021,208.405 317.021,201.314 
						338.272,203.429 					"/>
				</g>
				<g>
					<polygon style="fill:#263238;stroke:#263238;stroke-miterlimit:10;" points="358.548,207.183 345.11,205.921 345.11,199.401 
						358.548,200.937 					"/>
					<polygon style="fill:#FFFFFF;stroke:#263238;stroke-miterlimit:10;" points="360.871,211.877 342.539,210.426 342.539,203.854 
						360.871,205.679 					"/>
				</g>
				<g>
					<polygon style="fill:#263238;stroke:#263238;stroke-miterlimit:10;" points="378.516,209.057 366.805,207.958 366.805,201.88 
						378.516,203.219 					"/>
					<polygon style="fill:#FFFFFF;stroke:#263238;stroke-miterlimit:10;" points="380.547,213.435 364.572,212.17 364.572,206.047 
						380.547,207.638 					"/>
				</g>
				<g>
					<polygon style="fill:#263238;stroke:#263238;stroke-miterlimit:10;" points="396.042,210.703 385.745,209.736 385.745,204.044 
						396.042,205.221 					"/>
					<polygon style="fill:#FFFFFF;stroke:#263238;stroke-miterlimit:10;" points="397.833,214.804 383.787,213.692 383.787,207.96 
						397.833,209.359 					"/>
				</g>
				<g>
					<polygon style="fill:#263238;stroke:#263238;stroke-miterlimit:10;" points="411.549,212.159 402.424,211.302 402.424,205.95 
						411.549,206.993 					"/>
					<polygon style="fill:#FFFFFF;stroke:#263238;stroke-miterlimit:10;" points="413.14,216.016 400.694,215.031 400.694,209.643 
						413.14,210.882 					"/>
				</g>
			</g>
			<rect x="265.261" y="130.797" style="fill:#263238;stroke:#263238;stroke-miterlimit:10;" width="25.818" height="105.132"/>
			<rect x="288.39" y="124.136" style="fill:#263238;stroke:#263238;stroke-miterlimit:10;" width="25.818" height="111.793"/>
			<g>
				<polygon style="fill:#FFFFFF;stroke:#263238;stroke-miterlimit:10;" points="265.261,235.822 161.156,235.971 161.156,151.699 
					265.261,130.797 				"/>
				<polygon style="fill:#FFFFFF;stroke:#263238;stroke-miterlimit:10;" points="265.261,235.822 161.156,235.971 161.156,220.754 
					265.261,216.858 				"/>
				<g>
					<polygon style="fill:#263238;stroke:#263238;stroke-miterlimit:10;" points="175.533,162.178 165.15,163.945 165.15,158.52 
						175.533,156.622 					"/>
					<polygon style="fill:#FFFFFF;stroke:#263238;stroke-miterlimit:10;" points="177.475,165.879 163.315,168.159 163.315,162.757 
						177.475,160.297 					"/>
				</g>
				<g>
					<polygon style="fill:#263238;stroke:#263238;stroke-miterlimit:10;" points="193.92,159.049 182.656,160.966 182.656,155.318 
						193.92,153.258 					"/>
					<polygon style="fill:#FFFFFF;stroke:#263238;stroke-miterlimit:10;" points="196.029,162.891 180.668,165.365 180.668,159.742 
						196.029,157.074 					"/>
				</g>
				<g>
					<polygon style="fill:#263238;stroke:#263238;stroke-miterlimit:10;" points="213.921,155.645 201.661,157.731 201.661,151.842 
						213.921,149.6 					"/>
					<polygon style="fill:#FFFFFF;stroke:#263238;stroke-miterlimit:10;" points="216.221,159.64 199.499,162.333 199.499,156.471 
						216.221,153.566 					"/>
				</g>
				<g>
					<polygon style="fill:#263238;stroke:#263238;stroke-miterlimit:10;" points="235.76,151.928 222.364,154.208 222.364,148.056 
						235.76,145.605 					"/>
					<polygon style="fill:#FFFFFF;stroke:#263238;stroke-miterlimit:10;" points="238.276,156.089 220.005,159.031 220.005,152.909 
						238.276,149.734 					"/>
				</g>
				<g>
					<polygon style="fill:#263238;stroke:#263238;stroke-miterlimit:10;" points="259.702,147.853 245.003,150.355 245.003,143.915 
						259.702,141.226 					"/>
					<polygon style="fill:#FFFFFF;stroke:#263238;stroke-miterlimit:10;" points="262.467,152.194 242.419,155.422 242.419,149.014 
						262.467,145.532 					"/>
				</g>
				<g>
					<polygon style="fill:#263238;stroke:#263238;stroke-miterlimit:10;" points="175.533,178.231 165.15,179.617 165.15,174.192 
						175.533,172.674 					"/>
					<polygon style="fill:#FFFFFF;stroke:#263238;stroke-miterlimit:10;" points="177.475,182.003 163.315,183.763 163.315,178.362 
						177.475,176.422 					"/>
				</g>
				<g>
					<polygon style="fill:#263238;stroke:#263238;stroke-miterlimit:10;" points="193.92,175.777 182.656,177.281 182.656,171.633 
						193.92,169.986 					"/>
					<polygon style="fill:#FFFFFF;stroke:#263238;stroke-miterlimit:10;" points="196.029,179.697 180.668,181.606 180.668,175.984 
						196.029,173.88 					"/>
				</g>
				<g>
					<polygon style="fill:#263238;stroke:#263238;stroke-miterlimit:10;" points="213.921,173.107 201.661,174.744 201.661,168.855 
						213.921,167.063 					"/>
					<polygon style="fill:#FFFFFF;stroke:#263238;stroke-miterlimit:10;" points="216.221,177.187 199.499,179.266 199.499,173.404 
						216.221,171.113 					"/>
				</g>
				<g>
					<polygon style="fill:#263238;stroke:#263238;stroke-miterlimit:10;" points="235.76,170.192 222.364,171.981 222.364,165.828 
						235.76,163.87 					"/>
					<polygon style="fill:#FFFFFF;stroke:#263238;stroke-miterlimit:10;" points="238.276,174.446 220.005,176.717 220.005,170.595 
						238.276,168.092 					"/>
				</g>
				<g>
					<polygon style="fill:#263238;stroke:#263238;stroke-miterlimit:10;" points="259.702,166.997 245.003,168.959 245.003,162.519 
						259.702,160.37 					"/>
					<polygon style="fill:#FFFFFF;stroke:#263238;stroke-miterlimit:10;" points="262.467,171.439 242.419,173.931 242.419,167.524 
						262.467,164.777 					"/>
				</g>
				<g>
					<polygon style="fill:#263238;stroke:#263238;stroke-miterlimit:10;" points="175.533,194.284 165.15,195.289 165.15,189.864 
						175.533,188.727 					"/>
					<polygon style="fill:#FFFFFF;stroke:#263238;stroke-miterlimit:10;" points="177.475,198.128 163.315,199.367 163.315,193.966 
						177.475,192.546 					"/>
				</g>
				<g>
					<polygon style="fill:#263238;stroke:#263238;stroke-miterlimit:10;" points="193.92,192.505 182.656,193.595 182.656,187.948 
						193.92,186.715 					"/>
					<polygon style="fill:#FFFFFF;stroke:#263238;stroke-miterlimit:10;" points="196.029,196.503 180.668,197.848 180.668,192.226 
						196.029,190.685 					"/>
				</g>
				<g>
					<polygon style="fill:#263238;stroke:#263238;stroke-miterlimit:10;" points="213.921,190.57 201.661,191.756 201.661,185.867 
						213.921,184.525 					"/>
					<polygon style="fill:#FFFFFF;stroke:#263238;stroke-miterlimit:10;" points="216.221,194.734 199.499,196.199 199.499,190.337 
						216.221,188.661 					"/>
				</g>
				<g>
					<polygon style="fill:#263238;stroke:#263238;stroke-miterlimit:10;" points="235.76,188.457 222.364,189.753 222.364,183.601 
						235.76,182.135 					"/>
					<polygon style="fill:#FFFFFF;stroke:#263238;stroke-miterlimit:10;" points="238.276,192.803 220.005,194.403 220.005,188.281 
						238.276,186.449 					"/>
				</g>
				<g>
					<polygon style="fill:#263238;stroke:#263238;stroke-miterlimit:10;" points="259.702,186.141 245.003,187.563 245.003,181.123 
						259.702,179.514 					"/>
					<polygon style="fill:#FFFFFF;stroke:#263238;stroke-miterlimit:10;" points="262.467,190.685 242.419,192.44 242.419,186.033 
						262.467,184.023 					"/>
				</g>
				<g>
					<polygon style="fill:#263238;stroke:#263238;stroke-miterlimit:10;" points="175.533,210.337 165.15,210.961 165.15,205.536 
						175.533,204.781 					"/>
					<polygon style="fill:#FFFFFF;stroke:#263238;stroke-miterlimit:10;" points="177.475,214.252 163.315,214.972 163.315,209.57 
						177.475,208.67 					"/>
				</g>
				<g>
					<polygon style="fill:#263238;stroke:#263238;stroke-miterlimit:10;" points="193.92,209.234 182.656,209.91 182.656,204.262 
						193.92,203.443 					"/>
					<polygon style="fill:#FFFFFF;stroke:#263238;stroke-miterlimit:10;" points="196.029,213.308 180.668,214.089 180.668,208.467 
						196.029,207.491 					"/>
				</g>
				<g>
					<polygon style="fill:#263238;stroke:#263238;stroke-miterlimit:10;" points="213.921,208.033 201.661,208.769 201.661,202.88 
						213.921,201.988 					"/>
					<polygon style="fill:#FFFFFF;stroke:#263238;stroke-miterlimit:10;" points="216.221,212.282 199.499,213.132 199.499,207.27 
						216.221,206.208 					"/>
				</g>
				<g>
					<polygon style="fill:#263238;stroke:#263238;stroke-miterlimit:10;" points="235.76,206.722 222.364,207.526 222.364,201.374 
						235.76,200.4 					"/>
					<polygon style="fill:#FFFFFF;stroke:#263238;stroke-miterlimit:10;" points="238.276,211.16 220.005,212.089 220.005,205.967 
						238.276,204.806 					"/>
				</g>
				<g>
					<polygon style="fill:#263238;stroke:#263238;stroke-miterlimit:10;" points="259.702,205.285 245.003,206.167 245.003,199.727 
						259.702,198.658 					"/>
					<polygon style="fill:#FFFFFF;stroke:#263238;stroke-miterlimit:10;" points="262.467,209.93 242.419,210.95 242.419,204.542 
						262.467,203.268 					"/>
				</g>
			</g>
			<polygon style="fill:#FFFFFF;stroke:#263238;stroke-miterlimit:10;" points="310.813,235.971 276.114,235.971 303.874,114.956 
				310.813,122.337 			"/>
			<polygon style="fill:#FFFFFF;stroke:#263238;stroke-miterlimit:10;" points="303.874,235.971 269.175,235.971 269.175,122.405 
				303.874,114.956 			"/>
		</g>
		<g>
			<path style="fill:#263238;" d="M319.303,254.448c-4.835,0-8.755,3.92-8.755,8.755c0,4.835,8.755,14.717,8.755,14.717
				s8.755-9.881,8.755-14.717C328.059,258.368,324.139,254.448,319.303,254.448z M319.303,266.371c-1.646,0-2.981-1.335-2.981-2.981
				c0-1.646,1.335-2.981,2.981-2.981c1.646,0,2.98,1.335,2.98,2.981C322.284,265.036,320.949,266.371,319.303,266.371z"/>
			<g>
				<path style="fill:#263238;" d="M354.167,265.192c-0.596-0.41-9.459-5.821-10.008-6.218c0.081-0.092,0.132-0.159,0.191-0.218
					c0.683-0.686,1.372-1.366,2.047-2.059c0.18-0.185,0.35-0.236,0.597-0.152c1.03,0.349,2.066,0.684,3.099,1.025
					c1.558,0.514,3.116,1.028,4.673,1.544c1.163,0.386,2.324,0.778,3.487,1.165c0.162,0.054,0.328,0.094,0.507,0.144
					c0.123-0.119,0.236-0.222,0.342-0.332c1.496-1.557,2.992-3.116,4.487-4.674c0.365-0.381,0.78-0.668,1.306-0.798
					c0.766-0.189,1.844,0.064,2.472,1.027c0.532,0.816,0.488,1.918-0.132,2.668c-0.34,0.41-0.74,0.773-1.125,1.144
					c-1.294,1.247-2.593,2.488-3.891,3.732c-0.037,0.036-0.071,0.077-0.112,0.108c-0.213,0.159-0.228,0.345-0.143,0.592
					c0.343,0.996,0.666,1.999,0.998,2.999c0.397,1.195,0.795,2.39,1.193,3.585c0.507,1.523,1.013,3.045,1.52,4.568
					c0.011,0.033,0.022,0.066,0.031,0.099c0.12,0.445,0.243,0.426-0.198,0.856c-0.607,0.59-1.198,1.197-1.798,1.795
					c-0.108,0.107-0.227,0.203-0.322,0.288c-0.162-0.011-0.196-0.121-0.248-0.205c-0.845-1.366-1.687-2.734-2.53-4.101
					c-1.016-1.647-2.032-3.293-3.048-4.939c-0.091-0.147-0.173-0.299-0.27-0.442c-0.056-0.082-0.133-0.149-0.221-0.245
					c-0.306,0.288-0.596,0.557-0.882,0.831c-1.298,1.242-2.596,2.485-3.891,3.729c-0.507,0.487-0.506,0.49-0.387,1.213
					c0.101,0.614,0.204,1.227,0.303,1.841c0.036,0.221,0.064,0.443,0.097,0.673c-0.334,0.431-0.741,0.781-1.118,1.157
					c-0.362,0.361-0.692,0.759-1.136,1.089c-0.285-0.516-0.41-1.053-0.599-1.565c-0.191-0.518-0.364-1.043-0.547-1.564
					c-0.183-0.521-0.369-1.04-0.562-1.586c-1.565-0.577-3.151-1.103-4.759-1.695c0.059-0.089,0.085-0.148,0.127-0.19
					c0.622-0.625,1.251-1.243,1.866-1.874c0.177-0.182,0.363-0.232,0.603-0.188c0.544,0.099,1.09,0.185,1.635,0.275
					c0.324,0.054,0.65,0.099,0.972,0.161c0.204,0.039,0.373,0.012,0.51-0.158c0.076-0.093,0.171-0.171,0.255-0.258
					c1.436-1.495,2.872-2.991,4.306-4.487C353.958,265.453,354.039,265.345,354.167,265.192z"/>
			</g>
			<g>
				<path style="fill:#263238;" d="M396.126,256.678h-11.963c-0.485,0-0.906,0.332-1.019,0.803l-1.509,6.288h17.02l-1.509-6.288
					C397.033,257.01,396.611,256.678,396.126,256.678z"/>
				<polygon style="fill:#FFFFFF;" points="395.319,257.856 384.971,257.856 383.677,263.246 396.612,263.246 				"/>
				<path style="fill:#263238;" d="M383.896,276.25h-2.82c-0.318,0-0.576-0.258-0.576-0.576v-5.098h3.971v5.098
					C384.472,275.993,384.214,276.25,383.896,276.25z"/>
				<path style="fill:#263238;" d="M399.592,276.25h-2.82c-0.318,0-0.576-0.258-0.576-0.576v-5.098h3.971v5.098
					C400.167,275.993,399.91,276.25,399.592,276.25z"/>
				<rect x="388.346" y="257.473" style="fill:#263238;" width="3.82" height="1.419"/>
				<g>
					<path style="fill:#263238;" d="M400.182,272.279h-19.507c-0.88,0-1.593-0.713-1.593-1.593v-6.458
						c0-0.88,0.713-1.593,1.593-1.593h19.507c0.88,0,1.593,0.713,1.593,1.593v6.458
						C401.775,271.566,401.062,272.279,400.182,272.279z"/>
					<path style="fill:#FFFFFF;" d="M386.457,266.889c0,1.41-1.143,2.553-2.553,2.553c-1.41,0-2.553-1.143-2.553-2.553
						c0-1.41,1.143-2.553,2.553-2.553C385.314,264.337,386.457,265.48,386.457,266.889z"/>
					<path style="fill:#FFFFFF;" d="M399.694,266.889c0,1.41-1.143,2.553-2.553,2.553c-1.41,0-2.553-1.143-2.553-2.553
						c0-1.41,1.143-2.553,2.553-2.553C398.551,264.337,399.694,265.48,399.694,266.889z"/>
					<g>
						<rect x="387.628" y="265.342" style="fill:#FFFFFF;" width="5.673" height="0.979"/>
					</g>
					<g>
						<rect x="387.628" y="267.061" style="fill:#FFFFFF;" width="5.673" height="0.979"/>
					</g>
				</g>
			</g>
		</g>
		<rect x="216.045" y="274.786" style="fill:#FFFFFF;stroke:#263238;stroke-miterlimit:10;" width="68.692" height="25.333"/>
		<path style="fill:#FFFFFF;stroke:#263238;stroke-miterlimit:10;" d="M284.737,318.145h-68.692v-17.943
			c0-2.198,1.782-3.98,3.98-3.98h60.732c2.198,0,3.98,1.782,3.98,3.98V318.145z"/>
		<polygon style="fill:#92E3A9;stroke:#263238;stroke-miterlimit:10;" points="238.333,295.574 235.368,294.889 222.364,294.889 
			218.713,295.574 219.626,292.836 219.626,285.307 218.713,282.57 222.478,283.368 235.938,283.368 238.333,282.57 
			237.421,285.763 237.421,292.151 		"/>
		<polygon style="fill:#92E3A9;stroke:#263238;stroke-miterlimit:10;" points="259.322,295.574 256.357,294.889 243.353,294.889 
			239.702,295.574 240.615,292.836 240.615,285.307 239.702,282.57 243.467,283.368 256.927,283.368 259.322,282.57 258.41,285.763 
			258.41,292.151 		"/>
		<polygon style="fill:#92E3A9;stroke:#263238;stroke-miterlimit:10;" points="280.311,295.574 277.345,294.889 264.341,294.889 
			260.691,295.574 261.604,292.836 261.604,285.307 260.691,282.57 264.456,283.368 277.916,283.368 280.311,282.57 
			279.399,285.763 279.399,292.151 		"/>
		<line style="fill:none;stroke:#263238;stroke-miterlimit:10;" x1="200.905" y1="318.145" x2="299.452" y2="318.145"/>
		<g>
			<g>
				<rect x="209.024" y="290.097" style="fill:none;stroke:#263238;stroke-miterlimit:10;" width="1.53" height="6.629"/>
				<rect x="204.689" y="278.113" style="fill:#263238;" width="10.199" height="12.749"/>
			</g>
			<g>
				<rect x="204.179" y="297.237" style="fill:none;stroke:#263238;stroke-miterlimit:10;" width="11.219" height="20.908"/>
				<rect x="204.179" y="297.237" style="fill:#263238;stroke:#263238;stroke-miterlimit:10;" width="11.219" height="3.06"/>
				<rect x="205.709" y="302.336" style="fill:none;stroke:#263238;stroke-miterlimit:10;" width="7.649" height="4.845"/>
				<rect x="205.709" y="309.476" style="fill:none;stroke:#263238;stroke-miterlimit:10;" width="7.649" height="4.845"/>
			</g>
		</g>
		<g>
			<g>
				<rect x="290.618" y="290.097" style="fill:none;stroke:#263238;stroke-miterlimit:10;" width="1.53" height="6.629"/>
				<rect x="286.283" y="278.113" style="fill:#263238;" width="10.199" height="12.749"/>
			</g>
			<g>
				<rect x="285.773" y="297.237" style="fill:none;stroke:#263238;stroke-miterlimit:10;" width="11.219" height="20.908"/>
				<rect x="285.773" y="297.237" style="fill:#263238;stroke:#263238;stroke-miterlimit:10;" width="11.219" height="3.06"/>
				<rect x="287.303" y="302.336" style="fill:none;stroke:#263238;stroke-miterlimit:10;" width="7.649" height="4.845"/>
				<rect x="287.303" y="309.476" style="fill:none;stroke:#263238;stroke-miterlimit:10;" width="7.649" height="4.845"/>
			</g>
		</g>
		<g>
			<g>
				<rect x="204.179" y="383.432" style="fill:none;stroke:#263238;stroke-miterlimit:10;" width="11.219" height="20.908"/>
				<rect x="204.179" y="383.432" style="fill:#263238;stroke:#263238;stroke-miterlimit:10;" width="11.219" height="3.06"/>
				<rect x="205.709" y="388.532" style="fill:none;stroke:#263238;stroke-miterlimit:10;" width="7.649" height="4.845"/>
				<rect x="205.709" y="395.672" style="fill:none;stroke:#263238;stroke-miterlimit:10;" width="7.649" height="4.845"/>
			</g>
		</g>
		<g>
			<g>
				<rect x="285.773" y="383.432" style="fill:none;stroke:#263238;stroke-miterlimit:10;" width="11.219" height="20.908"/>
				<rect x="285.773" y="383.432" style="fill:#263238;stroke:#263238;stroke-miterlimit:10;" width="11.219" height="3.06"/>
				<rect x="287.303" y="388.532" style="fill:none;stroke:#263238;stroke-miterlimit:10;" width="7.649" height="4.845"/>
				<rect x="287.303" y="395.672" style="fill:none;stroke:#263238;stroke-miterlimit:10;" width="7.649" height="4.845"/>
			</g>
		</g>
		<rect x="201.193" y="345.669" style="fill:none;stroke:#263238;stroke-miterlimit:10;" width="98.39" height="67.24"/>
		<rect x="216.045" y="360.982" style="fill:#263238;stroke:#263238;stroke-miterlimit:10;" width="68.692" height="25.333"/>
		<path style="fill:#FFFFFF;stroke:#263238;stroke-miterlimit:10;" d="M284.737,404.341h-68.692v-17.943
			c0-2.198,1.782-3.98,3.98-3.98h60.732c2.198,0,3.98,1.782,3.98,3.98V404.341z"/>
		<line style="fill:none;stroke:#263238;stroke-miterlimit:10;" x1="200.905" y1="404.341" x2="299.452" y2="404.341"/>
		<g>
			<path style="fill:#263238;" d="M119.198,91.237v6.824h-1.69V82.895h1.69v6.825h3.727v-6.825h1.69v15.166h-1.69v-6.824H119.198z"
				/>
			<path style="fill:#263238;" d="M126.215,86.557c0-2.318,1.148-3.813,3.467-3.813c2.339,0,3.488,1.495,3.488,3.813v7.843
				c0,2.297-1.148,3.813-3.488,3.813c-2.319,0-3.467-1.517-3.467-3.813V86.557z M127.884,94.486c0,1.387,0.585,2.188,1.798,2.188
				c1.234,0,1.798-0.802,1.798-2.188V86.47c0-1.365-0.564-2.188-1.798-2.188c-1.214,0-1.798,0.823-1.798,2.188V94.486z"/>
			<path style="fill:#263238;" d="M136.981,98.061V84.433h-2.795v-1.538h7.28v1.538h-2.795v13.628H136.981z"/>
			<path style="fill:#263238;" d="M148.028,89.612v1.517h-3.705v5.395h4.55v1.538h-6.24V82.895h6.24v1.538h-4.55v5.178H148.028z"/>
			<path style="fill:#263238;" d="M150.431,98.061V82.895h1.69v13.628h4.333v1.538H150.431z"/>
			<path style="fill:#263238;" d="M164.489,82.895c2.362,0,3.293,1.127,3.293,3.359v0.715c0,1.603-0.455,2.6-1.777,3.011
				c1.474,0.412,2.037,1.582,2.037,3.25v1.279c0,2.275-1.105,3.553-3.467,3.553h-3.488V82.895H164.489z M164.077,89.33
				c1.343,0,2.036-0.433,2.036-2.015v-0.888c0-1.343-0.455-1.993-1.668-1.993h-1.668v4.897H164.077z M164.576,96.523
				c1.235,0,1.798-0.65,1.798-2.058v-1.343c0-1.69-0.672-2.254-2.123-2.254h-1.473v5.655H164.576z"/>
			<path style="fill:#263238;" d="M169.448,86.557c0-2.318,1.148-3.813,3.466-3.813c2.34,0,3.488,1.495,3.488,3.813v7.843
				c0,2.297-1.148,3.813-3.488,3.813c-2.318,0-3.466-1.517-3.466-3.813V86.557z M171.116,94.486c0,1.387,0.585,2.188,1.798,2.188
				c1.235,0,1.798-0.802,1.798-2.188V86.47c0-1.365-0.564-2.188-1.798-2.188c-1.213,0-1.798,0.823-1.798,2.188V94.486z"/>
			<path style="fill:#263238;" d="M177.874,86.557c0-2.318,1.148-3.813,3.466-3.813c2.34,0,3.488,1.495,3.488,3.813v7.843
				c0,2.297-1.148,3.813-3.488,3.813c-2.318,0-3.466-1.517-3.466-3.813V86.557z M179.542,94.486c0,1.387,0.585,2.188,1.798,2.188
				c1.235,0,1.798-0.802,1.798-2.188V86.47c0-1.365-0.564-2.188-1.798-2.188c-1.214,0-1.798,0.823-1.798,2.188V94.486z"/>
			<path style="fill:#263238;" d="M189.008,91.475l-0.888,1.495v5.091h-1.69V82.895h1.69v7.323l4.03-7.323h1.712l-3.835,6.912
				l3.965,8.255h-1.733L189.008,91.475z"/>
			<path style="fill:#263238;" d="M196.978,82.895v15.166h-1.69V82.895H196.978z"/>
			<path style="fill:#263238;" d="M200.205,98.061h-1.517V82.895h2.145l3.51,10.963V82.895h1.495v15.166h-1.755l-3.878-12.263
				V98.061z"/>
			<path style="fill:#263238;" d="M214.264,86.557v1.3h-1.603V86.47c0-1.365-0.542-2.188-1.777-2.188
				c-1.213,0-1.776,0.823-1.776,2.188v8.016c0,1.365,0.563,2.188,1.776,2.188c1.235,0,1.777-0.823,1.777-2.188v-3.033h-1.56v-1.517
				h3.163v4.463c0,2.297-1.084,3.813-3.423,3.813c-2.318,0-3.402-1.517-3.402-3.813v-7.843c0-2.297,1.083-3.813,3.402-3.813
				C213.181,82.743,214.264,84.26,214.264,86.557z"/>
		</g>
		<rect x="117.513" y="108.327" style="fill:none;stroke:#263238;stroke-miterlimit:10;" width="57.796" height="9.741"/>
		<rect x="185.7" y="108.327" style="fill:none;stroke:#263238;stroke-miterlimit:10;" width="57.796" height="9.741"/>
		<line style="fill:none;stroke:#263238;stroke-miterlimit:10;" x1="305.189" y1="62.869" x2="361.687" y2="62.869"/>
		<g>
			<rect x="389.581" y="320.03" style="fill:none;stroke:#263238;stroke-miterlimit:10;" width="16.235" height="9.741"/>
			<rect x="370.099" y="320.03" style="fill:none;stroke:#263238;stroke-miterlimit:10;" width="16.235" height="9.741"/>
			<line style="fill:none;stroke:#263238;stroke-miterlimit:10;" x1="314.251" y1="292.756" x2="407.115" y2="292.756"/>
			<line style="fill:none;stroke:#263238;stroke-miterlimit:10;" x1="314.251" y1="299.899" x2="407.115" y2="299.899"/>
			<line style="fill:none;stroke:#263238;stroke-miterlimit:10;" x1="314.251" y1="307.043" x2="407.115" y2="307.043"/>
			<line style="fill:none;stroke:#263238;stroke-miterlimit:10;" x1="314.251" y1="314.186" x2="407.115" y2="314.186"/>
		</g>
		<g>
			<path style="fill:#263238;" d="M319.303,340.308c-4.835,0-8.755,3.92-8.755,8.755s8.755,14.716,8.755,14.716
				s8.755-9.881,8.755-14.716S324.139,340.308,319.303,340.308z M319.303,352.23c-1.646,0-2.981-1.334-2.981-2.98
				c0-1.646,1.335-2.981,2.981-2.981c1.646,0,2.98,1.335,2.98,2.981C322.284,350.896,320.949,352.23,319.303,352.23z"/>
			<g>
				<path style="fill:#263238;" d="M354.167,351.051c-0.596-0.41-9.459-5.821-10.008-6.218c0.081-0.092,0.132-0.159,0.191-0.218
					c0.683-0.686,1.372-1.366,2.047-2.059c0.18-0.185,0.35-0.236,0.597-0.152c1.03,0.35,2.066,0.684,3.099,1.025
					c1.558,0.514,3.116,1.027,4.673,1.544c1.163,0.386,2.324,0.778,3.487,1.165c0.162,0.054,0.328,0.093,0.507,0.144
					c0.123-0.119,0.236-0.222,0.342-0.332c1.496-1.558,2.992-3.116,4.487-4.674c0.365-0.381,0.78-0.668,1.306-0.798
					c0.766-0.189,1.844,0.064,2.472,1.027c0.532,0.816,0.488,1.918-0.132,2.668c-0.34,0.411-0.74,0.773-1.125,1.144
					c-1.294,1.247-2.593,2.488-3.891,3.732c-0.037,0.036-0.071,0.077-0.112,0.107c-0.213,0.159-0.228,0.345-0.143,0.592
					c0.343,0.996,0.666,1.999,0.998,2.999c0.397,1.195,0.795,2.39,1.193,3.585c0.507,1.523,1.013,3.045,1.52,4.568
					c0.011,0.033,0.022,0.066,0.031,0.099c0.12,0.445,0.243,0.426-0.198,0.856c-0.607,0.59-1.198,1.197-1.798,1.795
					c-0.108,0.107-0.227,0.203-0.322,0.288c-0.162-0.011-0.196-0.121-0.248-0.205c-0.845-1.366-1.687-2.734-2.53-4.101
					c-1.016-1.647-2.032-3.293-3.048-4.939c-0.091-0.147-0.173-0.299-0.27-0.442c-0.056-0.082-0.133-0.149-0.221-0.245
					c-0.306,0.288-0.596,0.557-0.882,0.831c-1.298,1.242-2.596,2.485-3.891,3.729c-0.507,0.487-0.506,0.49-0.387,1.213
					c0.101,0.614,0.204,1.227,0.303,1.841c0.036,0.221,0.064,0.443,0.097,0.673c-0.334,0.431-0.741,0.781-1.118,1.158
					c-0.362,0.361-0.692,0.759-1.136,1.089c-0.285-0.516-0.41-1.054-0.599-1.565c-0.191-0.518-0.364-1.043-0.547-1.565
					c-0.183-0.521-0.369-1.04-0.562-1.586c-1.565-0.577-3.151-1.103-4.759-1.695c0.059-0.089,0.085-0.148,0.127-0.19
					c0.622-0.625,1.251-1.243,1.866-1.874c0.177-0.182,0.363-0.232,0.603-0.188c0.544,0.099,1.09,0.185,1.635,0.275
					c0.324,0.054,0.65,0.098,0.972,0.161c0.204,0.04,0.373,0.012,0.51-0.158c0.076-0.094,0.171-0.171,0.255-0.258
					c1.436-1.495,2.872-2.99,4.306-4.487C353.958,351.313,354.039,351.205,354.167,351.051z"/>
			</g>
			<g>
				<path style="fill:#263238;" d="M396.126,342.537h-11.963c-0.485,0-0.906,0.332-1.019,0.803l-1.509,6.288h17.02l-1.509-6.288
					C397.033,342.87,396.611,342.537,396.126,342.537z"/>
				<polygon style="fill:#FFFFFF;" points="395.319,343.716 384.971,343.716 383.677,349.105 396.612,349.105 				"/>
				<path style="fill:#263238;" d="M383.896,362.11h-2.82c-0.318,0-0.576-0.258-0.576-0.576v-5.098h3.971v5.098
					C384.472,361.852,384.214,362.11,383.896,362.11z"/>
				<path style="fill:#263238;" d="M399.592,362.11h-2.82c-0.318,0-0.576-0.258-0.576-0.576v-5.098h3.971v5.098
					C400.167,361.852,399.91,362.11,399.592,362.11z"/>
				<rect x="388.346" y="343.332" style="fill:#263238;" width="3.82" height="1.419"/>
				<g>
					<path style="fill:#263238;" d="M400.182,358.139h-19.507c-0.88,0-1.593-0.713-1.593-1.593v-6.458
						c0-0.88,0.713-1.593,1.593-1.593h19.507c0.88,0,1.593,0.713,1.593,1.593v6.458
						C401.775,357.425,401.062,358.139,400.182,358.139z"/>
					<path style="fill:#FFFFFF;" d="M386.457,352.749c0,1.41-1.143,2.553-2.553,2.553c-1.41,0-2.553-1.143-2.553-2.553
						c0-1.41,1.143-2.553,2.553-2.553C385.314,350.196,386.457,351.339,386.457,352.749z"/>
					<path style="fill:#FFFFFF;" d="M399.694,352.749c0,1.41-1.143,2.553-2.553,2.553c-1.41,0-2.553-1.143-2.553-2.553
						c0-1.41,1.143-2.553,2.553-2.553C398.551,350.196,399.694,351.339,399.694,352.749z"/>
					<g>
						<rect x="387.628" y="351.202" style="fill:#FFFFFF;" width="5.673" height="0.979"/>
					</g>
					<g>
						<rect x="387.628" y="352.92" style="fill:#FFFFFF;" width="5.673" height="0.979"/>
					</g>
				</g>
			</g>
		</g>
		<g>
			<rect x="389.581" y="405.89" style="fill:none;stroke:#263238;stroke-miterlimit:10;" width="16.235" height="9.741"/>
			<rect x="370.099" y="405.89" style="fill:none;stroke:#263238;stroke-miterlimit:10;" width="16.235" height="9.741"/>
			<line style="fill:none;stroke:#263238;stroke-miterlimit:10;" x1="314.251" y1="378.615" x2="407.115" y2="378.615"/>
			<line style="fill:none;stroke:#263238;stroke-miterlimit:10;" x1="314.251" y1="385.759" x2="407.115" y2="385.759"/>
			<line style="fill:none;stroke:#263238;stroke-miterlimit:10;" x1="314.251" y1="392.902" x2="407.115" y2="392.902"/>
			<line style="fill:none;stroke:#263238;stroke-miterlimit:10;" x1="314.251" y1="400.045" x2="407.115" y2="400.045"/>
		</g>
		<line style="fill:none;stroke:#FFFFFF;stroke-miterlimit:10;" x1="212.326" y1="62.869" x2="268.823" y2="62.869"/>
		<line style="fill:none;stroke:#FFFFFF;stroke-miterlimit:10;" x1="125.306" y1="62.869" x2="181.804" y2="62.869"/>
		
			<rect x="223.222" y="365.492" transform="matrix(0.7071 -0.7071 0.7071 0.7071 -195.6591 271.162)" style="fill:#92E3A9;stroke:#263238;stroke-miterlimit:10;" width="12.545" height="12.545"/>
		
			<rect x="243.978" y="365.492" transform="matrix(0.7071 -0.7071 0.7071 0.7071 -189.5799 285.8384)" style="fill:#92E3A9;stroke:#263238;stroke-miterlimit:10;" width="12.545" height="12.545"/>
		
			<rect x="264.733" y="365.492" transform="matrix(0.7071 -0.7071 0.7071 0.7071 -183.5008 300.5146)" style="fill:#92E3A9;stroke:#263238;stroke-miterlimit:10;" width="12.545" height="12.545"/>
		<g>
			<rect x="217.491" y="347.879" style="fill:none;stroke:#263238;stroke-miterlimit:10;" width="65.8" height="7.507"/>
			<rect x="224.229" y="353.508" style="fill:none;stroke:#263238;stroke-miterlimit:10;" width="52.323" height="1.878"/>
		</g>
		<rect x="412.369" y="244.458" style="fill:#D9D9D9;" width="7.834" height="172.344"/>
		<rect x="412.369" y="295.224" style="fill:#EDEDED;" width="7.834" height="40.936"/>
	</g>
</g>
<g id="Character">
	<g>
		<g>
			<g>
				<path style="fill:#FFFFFF;stroke:#263238;stroke-miterlimit:10;" d="M154.135,170.101c0,0,1.087,6.248-0.272,9.508
					c-1.358,3.26-3.26,4.075-3.803,5.433c-0.543,1.358,0.543,4.618,0.815,5.977c0.272,1.358,0.815,2.717-1.358,2.988
					c-2.173,0.272-2.988,0.272-2.988,0.272s-5.162,6.52-8.693,6.52c-3.532,0-6.52-5.433-10.867-12.768
					c-4.347-7.335-1.358-11.682,3.803-15.213C135.934,169.286,154.135,170.101,154.135,170.101z"/>
				<path style="fill:#263238;" d="M146.742,185.072c-0.443,1.115-1.142,1.885-1.56,1.718c-0.418-0.166-0.398-1.205,0.046-2.321
					c0.444-1.115,1.142-1.885,1.56-1.718C147.206,182.918,147.186,183.957,146.742,185.072z"/>
				<path style="fill:none;stroke:#263238;stroke-miterlimit:10;" d="M145.985,180.153c0,0,2.717-2.173,4.075,1.087"/>
			</g>
			<path style="fill:#263238;stroke:#263238;stroke-miterlimit:10;" d="M140.28,172.003l-0.815,66.286c0,0-5.162,0.272-11.682,0
				c-6.52-0.272-15.756-2.988-26.351-9.78c-10.595-6.792-6.248-28.525-6.248-28.525l16.3-19.831L140.28,172.003z"/>
			<g>
				<path style="fill:#7D7D7D;stroke:#263238;stroke-miterlimit:10;" d="M118.004,151.357c0,0-5.705,7.063-8.15,13.311
					s0.543,12.768,0.543,12.768l43.466-14.67c0,0,0-3.532-5.705-8.422c-5.705-4.89-22.548-6.792-26.351-6.248
					C118.004,148.64,118.004,151.357,118.004,151.357z"/>
				<path style="fill:#FFFFFF;stroke:#263238;stroke-miterlimit:10;" d="M120.721,134.513c0,0-11.681,3.532-13.855,8.965
					c-2.173,5.433,3.803,10.867,7.878,12.225c4.075,1.358,16.3-2.988,18.201-7.063c1.902-4.075,1.087-8.693-2.445-12.225
					C126.969,132.883,122.079,133.97,120.721,134.513z"/>
				<path style="fill:#7D7D7D;stroke:#263238;stroke-miterlimit:10;" d="M117.732,171.188c0,0-7.063,2.717-8.965,3.803
					c-1.902,1.087-1.087,3.26-0.272,4.89c0.815,1.63,0.543,3.26,1.902,3.26s27.166-8.422,36.131-10.595
					c8.965-2.173,9.78,0,10.323-2.717c0.543-2.717,1.087-8.422-0.815-9.78C154.135,158.691,132.13,164.94,117.732,171.188z"/>
			</g>
		</g>
		<g>
			<path style="fill:#263238;stroke:#263238;stroke-miterlimit:10;" d="M75.896,313.684l6.248,53.761
				c0,0-8.422,13.311-10.595,23.091c-2.173,9.78-13.311,32.871-13.311,32.871l10.052,5.433c0,0,18.473-27.438,24.45-36.946
				c5.976-9.508,8.965-13.583,8.965-17.115c0-3.532,7.607-55.119,7.607-55.119L75.896,313.684z"/>
			<g>
				<path style="fill:#7D7D7D;stroke:#263238;stroke-miterlimit:10;" d="M74.27,428.552c0,0,3.831,1.642,2.919,4.196
					c-0.912,2.554-11.494,6.568-11.859,7.116C64.965,440.411,74.27,428.552,74.27,428.552z"/>
				<path style="fill:#7D7D7D;stroke:#263238;stroke-miterlimit:10;" d="M53.653,417.422c0.547,0.547,21.712,10.4,21.712,10.4
					s-8.575,13.137-10.4,16.056c-1.825,2.919,2.737,9.487,4.014,11.859c1.277,2.372,8.758,6.568,10.217,7.298
					c1.46,0.73,0.365,1.642,0,4.196c-0.365,2.554-1.095,3.102-2.919,3.102c-1.824,0-13.684-1.277-17.515-3.467
					c-3.832-2.189-4.744-6.021-6.386-7.48c-1.642-1.46-2.189-1.46-2.189-1.46l-1.642,2.372c0,0-2.189,0.182-5.839-2.189
					c-3.649-2.372-4.926-5.838-4.926-5.838s3.832-6.933,6.386-8.758c2.554-1.825,4.744-5.656,5.473-8.028
					C50.369,433.113,53.653,417.422,53.653,417.422z"/>
				<g>
					<path style="fill:none;stroke:#263238;stroke-miterlimit:10;" d="M68.336,439.169c0,0,4.519-5.272,6.477-3.012
						C76.771,438.415,68.336,439.169,68.336,439.169z"/>
					<path style="fill:none;stroke:#263238;stroke-miterlimit:10;" d="M68.336,439.169c0,0,9.64,2.561,7.381,3.314
						C73.457,443.236,68.336,439.169,68.336,439.169z"/>
					<path style="fill:none;stroke:#263238;stroke-miterlimit:10;" d="M68.487,446.549c-1.205-3.916-0.151-7.381-0.151-7.381
						s1.958,6.326,2.259,11.598"/>
				</g>
				<path style="fill:#FFFFFF;stroke:#263238;stroke-miterlimit:10;" d="M72.811,467.232c-4.561-0.365-14.231-3.102-17.698-8.758
					c-2.918-4.762-4.926-2.554-10.035-5.656c-2.695-1.636-3.91-3.623-4.464-5.139c-1.564,2.297-2.834,4.592-2.834,4.592
					s1.277,3.467,4.926,5.838c3.649,2.372,5.839,2.189,5.839,2.189l1.642-2.372c0,0,0.547,0,2.189,1.46
					c1.642,1.46,2.554,5.291,6.386,7.48c3.831,2.19,15.691,3.467,17.515,3.467c1.789,0,2.523-0.538,2.895-2.965
					C77.416,467.414,75.091,467.414,72.811,467.232z"/>
			</g>
		</g>
		<g>
			<g>
				<path style="fill:#263238;stroke:#263238;stroke-miterlimit:10;" d="M84.318,316.673l26.623,56.477
					c0,0-2.173,12.497,0.543,21.733c2.717,9.237,16.028,34.501,16.028,34.501l1.358,4.075l11.41-5.705
					c0,0-7.063-22.548-8.693-31.513s-0.272-21.19-2.988-29.611c-2.717-8.422-11.41-50.501-11.41-50.501L84.318,316.673z"/>
				<line style="fill:none;stroke:#858585;stroke-miterlimit:10;" x1="85.354" y1="323.151" x2="101.019" y2="357.404"/>
			</g>
			<g>
				<path style="fill:#7D7D7D;stroke:#263238;stroke-miterlimit:10;" d="M145.001,431.209c0,0,1.506-9.188,2.711-9.188
					s6.025,0.904,4.067,3.916c-1.958,3.012-6.025,10.694-6.025,10.694L145.001,431.209z"/>
				<path style="fill:#7D7D7D;stroke:#263238;stroke-miterlimit:10;" d="M144.084,423.136l-21.733,10.052l13.312,22.005
					c0,0,0.815,5.162,2.445,8.422c1.63,3.26,2.445,4.618,2.445,4.618l11.681-3.803c0,0,0-1.902,1.358-2.173
					c0.596-0.119,1.392-0.05,2.099,0.064c1.167,0.19,2.361,0.022,3.42-0.505c4.352-2.165,15.415-7.679,17.37-8.766
					c2.445-1.358,2.647-4.92,1.832-6.279c-0.815-1.358-3.532-2.988-6.248-2.988c-2.717,0-13.04,1.358-16.843,0.272
					c-3.803-1.087-4.618-0.543-6.248-2.445C147.343,439.707,144.084,423.136,144.084,423.136z"/>
				<g>
					<path style="fill:none;stroke:#263238;stroke-miterlimit:10;" d="M145.754,436.631c0,0,4.519-5.272,6.477-3.013
						C154.189,435.878,145.754,436.631,145.754,436.631z"/>
					<path style="fill:none;stroke:#263238;stroke-miterlimit:10;" d="M145.754,436.631c0,0,9.64,2.56,7.381,3.314
						C150.875,440.698,145.754,436.631,145.754,436.631z"/>
					<path style="fill:none;stroke:#263238;stroke-miterlimit:10;" d="M145.904,444.012c-1.205-3.916-0.151-7.38-0.151-7.38
						s1.958,6.326,2.259,11.598"/>
				</g>
				<path style="fill:#FFFFFF;stroke:#263238;stroke-miterlimit:10;" d="M176.481,453.049c2.202-1.926,2.661-5.253,1.713-6.452
					c-0.005,0-0.007-0.001-0.012-0.001c-3.093,2.409-9.699,7.272-19.007,11.476c-13.033,5.886-18.124,5.889-20.733,6.205
					c1.401,2.767,0.998,3.818,2.11,3.956c9.02,1.117,11.681-3.803,11.681-3.803s0-1.902,1.358-2.173
					c0.566-0.113,1.313-0.057,1.992,0.048c1.301,0.2,3.975,0.598,5.154,0.012C165.266,460.061,172.014,456.955,176.481,453.049z"/>
			</g>
		</g>
		<g>
			<path style="fill:#7D7D7D;stroke:#263238;stroke-miterlimit:10;" d="M119.906,223.619c0,0,11.953,64.801,16.3,77.841
				s5.162,22.783,5.162,22.783l-20.103,1.902L119.906,223.619z"/>
			<path style="fill:#7D7D7D;stroke:#263238;stroke-miterlimit:10;" d="M96.543,196.452c0,0-8.965,9.236-15.756,27.71
				c-6.792,18.473-11.138,68.061-12.768,77.026c-1.63,8.965-2.445,21.799-0.815,22.342c1.63,0.543,26.623,7.878,40.749,7.878
				c14.126,0,22.276,0.272,22.276-1.63c0-1.902-2.988-85.241-5.705-99.368c-2.717-14.126-6.792-15.485-11.138-23.906
				C109.039,198.083,96.543,196.452,96.543,196.452z"/>
			<path style="fill:#FFFFFF;stroke:#263238;stroke-miterlimit:10;" d="M119.362,213.024c0,0-3.26-7.335-8.965-14.126
				c-5.705-6.792-9.78-13.583-13.311-11.41c-3.532,2.173-7.063,6.792-6.248,9.78s17.115,10.595,20.646,12.768
				C115.016,212.209,118.547,216.284,119.362,213.024z"/>
		</g>
		<path style="fill:#263238;stroke:#263238;stroke-miterlimit:10;" d="M119.973,218.54c0,0-9.696-5.718-16.906-2.983
			c-7.21,2.735-12.182,8.701-12.182,8.701l-2.486-9.945c0,0,9.945-7.707,17.154-7.707
			C112.763,206.606,118.233,210.833,119.973,218.54z"/>
		<g>
			<path style="fill:#263238;stroke:#263238;stroke-miterlimit:10;" d="M160.84,233.439l-1.312-1.001l12.446-21.526
				c0.247-0.427,0.813-0.54,1.205-0.241l0,0c0.327,0.25,0.418,0.704,0.212,1.06L160.84,233.439z"/>
			<path style="fill:#FFFFFF;stroke:#263238;stroke-miterlimit:10;" d="M147.185,239.926c0,0,2.938-2.174,3.643-5.635
				c0.705-3.461,1.469-8.573,2.805-9.687c1.336-1.114,6.99-3.012,7.897-3.382c0.907-0.37,2.715,0.028,1.641,2.582
				c-1.075,2.554-4.805,3.427-4.805,3.427l4.521,2.307c0,0,2.736-5.265,3.534-5.102c0.799,0.163,1.114,1.336,1.637,4.215
				c0.523,2.879-0.547,4.047-2.046,5.96s-1.237,3.352-2.469,5.319c-1.232,1.967-10.524,8.115-11.697,8.43
				C150.671,248.675,147.185,239.926,147.185,239.926z"/>
			<path style="fill:#7D7D7D;stroke:#263238;stroke-miterlimit:10;" d="M101.161,220.087c0,0-4.347,6.52,0,17.93
				c4.347,11.41,13.855,41.564,17.115,41.021c3.26-0.543,36.131-25.265,36.674-27.71c0.543-2.445-6.52-11.138-7.335-11.953
				c-0.815-0.815-6.792,4.075-10.867,5.705c-4.075,1.63-10.323,4.89-10.323,4.89s-3.26-27.981-8.15-32.871
				c-4.89-4.89-10.051-1.902-10.867-1.63"/>
			<polygon style="fill:#FFFFFF;stroke:#263238;stroke-miterlimit:10;" points="145.985,258.935 142.182,252.958 145.714,250.242 
				149.245,256.49 			"/>
		</g>
		<g>
			<path style="fill:#92E3A9;stroke:#263238;stroke-miterlimit:10;" d="M89.588,212.78c0.292,1.08,0.271,20.334-0.542,39.583
				c-0.813,19.249-4.88,40.668-6.778,49.072c-1.898,8.405-6.778,9.489-15.183,8.947c-8.405-0.542-20.334-2.711-25.756-7.049
				c-5.422-4.338-4.88-13.827-1.898-21.689c2.982-7.863,7.591-32.805,7.591-43.379c0-7.716,0.81-15.842,3.42-23.142
				c4.357-12.187,14.234-12.13,25.576-11.761C82.487,203.573,87.795,206.152,89.588,212.78z"/>
			<path style="fill:#92E3A9;stroke:#263238;stroke-miterlimit:10;" d="M88.89,210.808c-2.247-5.168-7.092-7.257-12.872-7.445
				c-11.343-0.369-21.22-0.427-25.576,11.761c-2.61,7.3-3.42,15.426-3.42,23.142c0,10.574-4.609,35.516-7.591,43.379
				c-2.808,7.402-3.449,16.244,1.011,20.873c-0.938-4.012,0.935-12.429,6.58-25.753c6.778-15.996,6.236-43.108,6.236-43.108
				s0-18.165,2.169-22.503c2.169-4.338,10.574-3.796,23.316-2.44C83.015,209.168,86.324,209.959,88.89,210.808z"/>
			<path style="fill:#263238;stroke:#263238;stroke-miterlimit:10;" d="M89.317,217.389l0.427-0.366
				c-0.025-2.433-0.08-3.961-0.156-4.243c-1.793-6.628-7.101-9.207-13.57-9.418c-11.343-0.369-21.22-0.427-25.576,11.761
				c-2.61,7.3-3.42,15.426-3.42,23.142c0,2.662-0.293,6.237-0.778,10.22c1.712,1.149,4.247,2.342,5.116,0.083
				c1.356-3.524,2.982-26.027,3.796-32.534c0.813-6.507,9.218-6.236,19.249-4.88C84.437,212.509,89.317,217.389,89.317,217.389z"/>
			<polygon style="fill:#FFFFFF;stroke:#263238;stroke-miterlimit:10;" points="65.73,277.848 63.832,247.754 79.014,249.11 
				77.117,279.204 			"/>
			<polygon style="fill:#FFFFFF;stroke:#263238;stroke-miterlimit:10;" points="55.969,274.595 56.241,256.972 70.881,259.412 
				68.983,278.933 			"/>
			<path style="fill:#263238;stroke:#263238;stroke-miterlimit:10;" d="M83.623,272.968c-20.605,2.169-31.721-3.253-31.721-3.253
				s-6.236,17.08-8.133,23.587s1.898,7.862,10.574,10.845c8.676,2.982,21.689,5.693,24.129,1.085
				C80.912,300.622,83.623,272.968,83.623,272.968z"/>
		</g>
	</g>
</g>
<g id="Floor">
	<g>
		<line style="fill:none;stroke:#263238;stroke-miterlimit:10;" x1="461" y1="470.333" x2="468.333" y2="470.333"/>
		<line style="fill:none;stroke:#263238;stroke-miterlimit:10;" x1="29" y1="470.333" x2="451" y2="470.333"/>
	</g>
</g>
</svg>
