<?xml version="1.0" encoding="utf-8"?>
<!-- Generator: Adobe Illustrator 27.5.0, SVG Export Plug-In . SVG Version: 6.00 Build 0)  -->
<svg version="1.1" id="Слой_1" xmlns="http://www.w3.org/2000/svg" xmlns:xlink="http://www.w3.org/1999/xlink" x="0px" y="0px"
	 viewBox="0 0 3065.253 2000" style="enable-background:new 0 0 3065.253 2000;" xml:space="preserve">
<g>
	<rect style="fill:#FAFAFA;" width="3065.253" height="2000"/>
	<g>
		<g>
			<linearGradient id="SVGID_1_" gradientUnits="userSpaceOnUse" x1="420.0322" y1="950.6707" x2="1584.9883" y2="950.6707">
				<stop  offset="0" style="stop-color:#D5E4FF"/>
				<stop  offset="1" style="stop-color:#EDFFFE"/>
			</linearGradient>
			<path style="opacity:0.18;fill:url(#SVGID_1_);" d="M1524.884,1166.934H480.137c-33.195,0-60.104-26.909-60.104-60.104V794.512
				c0-33.195,26.909-60.104,60.104-60.104h1044.747c33.195,0,60.104,26.91,60.104,60.104v312.318
				C1584.988,1140.024,1558.079,1166.934,1524.884,1166.934z"/>
			<rect x="1343.269" y="858.572" style="fill:#B8D6FF;" width="142.373" height="14.287"/>
			<rect x="1343.269" y="902.791" style="fill:#B8D6FF;" width="163.64" height="14.286"/>
			<rect x="1343.025" y="946.768" style="fill:#B8D6FF;" width="84.66" height="14.285"/>
			<rect x="1343.025" y="990.743" style="fill:#B8D6FF;" width="130.44" height="14.286"/>
			<rect x="572.046" y="1127.199" style="fill:#D6D6D6;" width="126.897" height="15.633"/>
			<rect x="541.259" y="1099.356" style="fill:#D6D6D6;" width="188.472" height="15.634"/>
			<rect x="840.54" y="836.3" style="fill:#FFFFFF;" width="305.201" height="19.673"/>
			<rect x="1178.533" y="836.3" style="fill:#FFFFFF;" width="118.605" height="19.673"/>
			<rect x="840.54" y="791.494" style="fill:#FFFFFF;" width="143.315" height="19.673"/>
			<g>
				
					<linearGradient id="SVGID_00000124855890288776173760000012110026012857989032_" gradientUnits="userSpaceOnUse" x1="635.4946" y1="821.1727" x2="635.4946" y2="1128.2992">
					<stop  offset="0" style="stop-color:#D3DAE0"/>
					<stop  offset="1" style="stop-color:#FFFFFF"/>
				</linearGradient>
				<path style="fill:url(#SVGID_00000124855890288776173760000012110026012857989032_);" d="M635.495,1070.586
					c-21.287,0-41.813-4.427-61.006-13.156c-52.606-23.909-86.599-76.683-86.599-134.448c0-81.389,66.215-147.605,147.605-147.605
					c81.389,0,147.603,66.216,147.603,147.605c0,57.765-33.992,110.539-86.601,134.448
					C677.306,1066.159,656.781,1070.586,635.495,1070.586z M635.495,783.169c-77.093,0-139.813,62.72-139.813,139.813
					c0,54.717,32.199,104.706,82.032,127.354c18.174,8.266,37.613,12.457,57.78,12.457c20.165,0,39.604-4.191,57.777-12.457
					c49.835-22.648,82.034-72.637,82.034-127.354C775.307,845.889,712.587,783.169,635.495,783.169z"/>
			</g>
			<g>
				<g>
					<rect x="862.229" y="893.252" style="fill:#C9E0FF;" width="7.793" height="188.965"/>
				</g>
				<g>
					<rect x="898.036" y="893.252" style="fill:#C9E0FF;" width="7.793" height="188.965"/>
				</g>
				<g>
					<rect x="933.843" y="893.252" style="fill:#C9E0FF;" width="7.793" height="188.965"/>
				</g>
				<g>
					<rect x="969.649" y="893.252" style="fill:#C9E0FF;" width="7.793" height="188.965"/>
				</g>
				<g>
					<rect x="1005.456" y="893.252" style="fill:#C9E0FF;" width="7.792" height="188.965"/>
				</g>
				<g>
					<rect x="1041.263" y="893.252" style="fill:#C9E0FF;" width="7.792" height="188.965"/>
				</g>
				<g>
					<rect x="1077.069" y="893.252" style="fill:#C9E0FF;" width="7.792" height="188.965"/>
				</g>
				<g>
					<rect x="1112.876" y="893.252" style="fill:#C9E0FF;" width="7.792" height="188.965"/>
				</g>
				<g>
					<rect x="1148.683" y="893.252" style="fill:#C9E0FF;" width="7.792" height="188.965"/>
				</g>
				<g>
					<rect x="1184.489" y="893.252" style="fill:#C9E0FF;" width="7.792" height="188.965"/>
				</g>
				<g>
					<rect x="1220.296" y="893.252" style="fill:#C9E0FF;" width="7.792" height="188.965"/>
				</g>
				<g>
					<rect x="1256.103" y="893.252" style="fill:#C9E0FF;" width="7.792" height="188.965"/>
				</g>
			</g>
			<g>
				<g>
					<rect x="862.229" y="949.747" style="fill:#FF6559;" width="7.793" height="132.47"/>
				</g>
				<g>
					<rect x="898.036" y="995.527" style="fill:#FF6559;" width="7.793" height="86.69"/>
				</g>
				<g>
					<rect x="933.843" y="920.525" style="fill:#FF6559;" width="7.793" height="161.691"/>
				</g>
				<g>
					<rect x="969.649" y="1035.139" style="fill:#FF6559;" width="7.793" height="47.078"/>
				</g>
				<g>
					<rect x="1005.456" y="987.734" style="fill:#FF6559;" width="7.792" height="94.482"/>
				</g>
				<g>
					<rect x="1041.263" y="952.344" style="fill:#FF6559;" width="7.792" height="129.873"/>
				</g>
				<g>
					<rect x="1077.069" y="998.449" style="fill:#FF6559;" width="7.792" height="83.768"/>
				</g>
				<g>
					<rect x="1112.876" y="940.331" style="fill:#FF6559;" width="7.792" height="141.886"/>
				</g>
				<g>
					<rect x="1148.683" y="1004.293" style="fill:#FF6559;" width="7.792" height="77.924"/>
				</g>
				<g>
					<rect x="1184.489" y="957.539" style="fill:#FF6559;" width="7.792" height="124.678"/>
				</g>
				<g>
					<rect x="1220.296" y="1019.878" style="fill:#FF6559;" width="7.792" height="62.339"/>
				</g>
				<g>
					<rect x="1256.103" y="957.539" style="fill:#FF6559;" width="7.792" height="124.678"/>
				</g>
			</g>
		</g>
		<g>
			
				<linearGradient id="SVGID_00000057147163739546042840000008307459644558386057_" gradientUnits="userSpaceOnUse" x1="574.7715" y1="932.179" x2="610.5703" y2="932.179">
				<stop  offset="0" style="stop-color:#D3DAE0"/>
				<stop  offset="1" style="stop-color:#FFFFFF"/>
			</linearGradient>
			<path style="fill:url(#SVGID_00000057147163739546042840000008307459644558386057_);" d="M610.57,865.111v-5.607h-35.799v5.607
				h2.152v123.996c0,0-0.623,15.748,15.747,15.748s15.747-15.748,15.747-15.748V865.111H610.57z"/>
			
				<linearGradient id="SVGID_00000042699821829242437090000015679982210458091445_" gradientUnits="userSpaceOnUse" x1="617.5947" y1="932.179" x2="653.3945" y2="932.179">
				<stop  offset="0" style="stop-color:#D3DAE0"/>
				<stop  offset="1" style="stop-color:#FFFFFF"/>
			</linearGradient>
			<path style="fill:url(#SVGID_00000042699821829242437090000015679982210458091445_);" d="M653.394,865.111v-5.607h-35.8v5.607
				h2.152v123.996c0,0-0.623,15.748,15.747,15.748c16.37,0,15.747-15.748,15.747-15.748V865.111H653.394z"/>
			
				<linearGradient id="SVGID_00000168078415928311771950000018049359384120119181_" gradientUnits="userSpaceOnUse" x1="660.4179" y1="932.179" x2="696.2177" y2="932.179">
				<stop  offset="0" style="stop-color:#D3DAE0"/>
				<stop  offset="1" style="stop-color:#FFFFFF"/>
			</linearGradient>
			<path style="fill:url(#SVGID_00000168078415928311771950000018049359384120119181_);" d="M696.218,865.111v-5.607h-35.8v5.607
				h2.152v123.996c0,0-0.623,15.748,15.747,15.748c16.371,0,15.748-15.748,15.748-15.748V865.111H696.218z"/>
			<path style="fill:#4E9BDE;" d="M581.746,902.072v86.023c0,0-0.433,10.925,10.925,10.925s10.925-10.925,10.925-10.925v-86.023
				H581.746z"/>
			<path style="fill:#4E9BDE;" d="M624.569,916.729v73.018c0,0-0.432,9.273,10.925,9.273c11.357,0,10.925-9.273,10.925-9.273
				v-73.018H624.569z"/>
			<path style="fill:#4E9BDE;" d="M667.393,891.621v95.297c0,0-0.433,12.102,10.924,12.102c11.357,0,10.926-12.102,10.926-12.102
				v-95.297H667.393z"/>
		</g>
	</g>
	<g>
		<defs>
			<filter id="Adobe_OpacityMaskFilter" filterUnits="userSpaceOnUse" x="1862.991" y="135.58" width="773.089" height="1086.223">
				<feFlood  style="flood-color:white;flood-opacity:1" result="back"/>
				<feBlend  in="SourceGraphic" in2="back" mode="normal"/>
			</filter>
		</defs>
		
			<mask maskUnits="userSpaceOnUse" x="1862.991" y="135.58" width="773.089" height="1086.223" id="SVGID_00000139278737934141930710000013308016726560616354_">
			<g style="filter:url(#Adobe_OpacityMaskFilter);">
				<defs>
					
						<filter id="Adobe_OpacityMaskFilter_00000106831036302217178570000012562910685109071271_" filterUnits="userSpaceOnUse" x="1862.991" y="135.58" width="773.089" height="1086.223">
						<feFlood  style="flood-color:white;flood-opacity:1" result="back"/>
						<feBlend  in="SourceGraphic" in2="back" mode="normal"/>
					</filter>
				</defs>
				
					<mask maskUnits="userSpaceOnUse" x="1862.991" y="135.58" width="773.089" height="1086.223" id="SVGID_00000139278737934141930710000013308016726560616354_">
					<g style="filter:url(#Adobe_OpacityMaskFilter_00000106831036302217178570000012562910685109071271_);">
					</g>
				</mask>
				
					<linearGradient id="SVGID_00000034092100636572841600000003835885665939035538_" gradientUnits="userSpaceOnUse" x1="2084.8" y1="342.9633" x2="2763.6238" y2="1670.4379">
					<stop  offset="0" style="stop-color:#FFFFFF"/>
					<stop  offset="1" style="stop-color:#000000"/>
				</linearGradient>
				
					<polygon style="mask:url(#SVGID_00000139278737934141930710000013308016726560616354_);fill:url(#SVGID_00000034092100636572841600000003835885665939035538_);" points="
					2598.359,261.55 2636.08,202.976 2531.425,135.58 2493.704,194.156 2472.617,180.576 2446.341,221.38 2424.472,207.297 
					1886.259,1043.076 1908.127,1057.159 1862.991,1127.249 2009.82,1221.803 2054.958,1151.711 2076.825,1165.794 
					2615.038,330.016 2593.171,315.934 2619.446,275.13 				"/>
			</g>
		</mask>
		
			<linearGradient id="SVGID_00000181087375833129409990000017910117947464560526_" gradientUnits="userSpaceOnUse" x1="2084.8" y1="342.9633" x2="2763.6238" y2="1670.4379">
			<stop  offset="0" style="stop-color:#40D5E6"/>
			<stop  offset="1" style="stop-color:#5577FF"/>
		</linearGradient>
		<polygon style="fill:url(#SVGID_00000181087375833129409990000017910117947464560526_);" points="2598.359,261.55 
			2636.08,202.976 2531.425,135.58 2493.704,194.156 2472.617,180.576 2446.341,221.38 2424.472,207.297 1886.259,1043.076 
			1908.127,1057.159 1862.991,1127.249 2009.82,1221.803 2054.958,1151.711 2076.825,1165.794 2615.038,330.016 2593.171,315.934 
			2619.446,275.13 		"/>
		<defs>
			
				<filter id="Adobe_OpacityMaskFilter_00000034782692705618320140000018379143130508246922_" filterUnits="userSpaceOnUse" x="1792.653" y="819.488" width="816.409" height="1037.115">
				<feFlood  style="flood-color:white;flood-opacity:1" result="back"/>
				<feBlend  in="SourceGraphic" in2="back" mode="normal"/>
			</filter>
		</defs>
		
			<mask maskUnits="userSpaceOnUse" x="1792.653" y="819.488" width="816.409" height="1037.115" id="SVGID_00000106146969008739073590000004937710299789506693_">
			<g style="filter:url(#Adobe_OpacityMaskFilter_00000034782692705618320140000018379143130508246922_);">
				<defs>
					
						<filter id="Adobe_OpacityMaskFilter_00000177460500346504854850000013592341364831283081_" filterUnits="userSpaceOnUse" x="1792.653" y="819.488" width="816.409" height="1037.115">
						<feFlood  style="flood-color:white;flood-opacity:1" result="back"/>
						<feBlend  in="SourceGraphic" in2="back" mode="normal"/>
					</filter>
				</defs>
				
					<mask maskUnits="userSpaceOnUse" x="1792.653" y="819.488" width="816.409" height="1037.115" id="SVGID_00000106146969008739073590000004937710299789506693_">
					<g style="filter:url(#Adobe_OpacityMaskFilter_00000177460500346504854850000013592341364831283081_);">
					</g>
				</mask>
				
					<linearGradient id="SVGID_00000093873206079755831200000010869600121020864437_" gradientUnits="userSpaceOnUse" x1="1707.0503" y1="566.2195" x2="2351.0498" y2="1825.5936">
					<stop  offset="0" style="stop-color:#FFFFFF"/>
					<stop  offset="1" style="stop-color:#000000"/>
				</linearGradient>
				
					<path style="mask:url(#SVGID_00000106146969008739073590000004937710299789506693_);fill:url(#SVGID_00000093873206079755831200000010869600121020864437_);" d="
					M2340.589,1491.637l-3.317,0.533c71.499-66.09,115.498-140.785,131.31-223.572c44.301-231.936-160.355-440.657-168.746-449.11
					l-54.052,83.935c1.685,1.704,161.653,164.919,126.902,346.861c-21.702,113.621-118.95,211.031-289.097,289.792l-60.382-31.623
					l11.611-22.172l-229.9-120.403l-12.265,23.416l119.015,62.331l-55.965,106.86l227.19,118.982l-35.186,106.813h-176.949v72.322
					h738.304v-72.322h-268.474V1491.637z"/>
			</g>
		</mask>
		
			<linearGradient id="SVGID_00000031927546047793179480000017627820891857524871_" gradientUnits="userSpaceOnUse" x1="1707.0503" y1="566.2195" x2="2351.0498" y2="1825.5936">
			<stop  offset="0" style="stop-color:#40D5E6"/>
			<stop  offset="1" style="stop-color:#5577FF"/>
		</linearGradient>
		<path style="fill:url(#SVGID_00000031927546047793179480000017627820891857524871_);" d="M2340.589,1491.637l-3.317,0.533
			c71.499-66.09,115.498-140.785,131.31-223.572c44.301-231.936-160.355-440.657-168.746-449.11l-54.052,83.935
			c1.685,1.704,161.653,164.919,126.902,346.861c-21.702,113.621-118.95,211.031-289.097,289.792l-60.382-31.623l11.611-22.172
			l-229.9-120.403l-12.265,23.416l119.015,62.331l-55.965,106.86l227.19,118.982l-35.186,106.813h-176.949v72.322h738.304v-72.322
			h-268.474V1491.637z"/>
	</g>
	<g>
		<g>
			<g>
				<path style="fill:#40D5E6;" d="M2627.528,630.969c-53.081-8.211-103.43,19.468-126.369,64.979
					c-5.554,11.019-9.501,23.081-11.49,35.94c-6.023,38.945,7.273,76.426,32.756,102.682c17.661,18.196,41.175,31.003,68.168,35.177
					c2.683,0.417,5.369,0.742,8.037,0.976c12.1,1.058,23.983,0.281,35.364-2.125c47.742-10.071,86.558-48.696,94.462-99.771
					C2738.652,702.888,2693.467,641.169,2627.528,630.969z M2698.571,764.205c-5.922,38.294-35.023,67.25-70.816,74.804
					c-8.53,1.801-17.443,2.386-26.514,1.588c-2.003-0.176-4.016-0.418-6.03-0.729c-20.236-3.13-37.864-12.733-51.103-26.374
					c-19.109-19.686-29.08-47.785-24.561-76.983c1.49-9.638,4.451-18.683,8.611-26.945c17.192-34.12,54.946-54.876,94.745-48.721
					C2672.343,668.493,2706.218,714.768,2698.571,764.205z"/>
			</g>
		</g>
		<g>
			<g>
				<path style="fill:#1A598C;" d="M2544.108,813.494l-21.684,21.076c-25.482-26.256-38.779-63.737-32.756-102.682
					c1.989-12.859,5.937-24.921,11.49-35.94l27,13.617c-4.16,8.262-7.121,17.307-8.611,26.945
					C2515.028,765.709,2524.999,793.808,2544.108,813.494z"/>
			</g>
		</g>
		<g>
			<g>
				<path style="fill:#2273B5;" d="M2601.241,840.597l-2.611,30.126c-2.668-0.234-5.354-0.56-8.037-0.976
					c-26.993-4.174-50.507-16.981-68.168-35.177l21.684-21.076c13.238,13.641,30.866,23.244,51.103,26.374
					C2597.226,840.179,2599.238,840.421,2601.241,840.597z"/>
			</g>
		</g>
		<g>
			<g>
				<path style="fill:#3788CC;" d="M2633.994,868.598c-11.381,2.406-23.265,3.183-35.364,2.125l2.611-30.126
					c9.07,0.797,17.983,0.212,26.514-1.588L2633.994,868.598z"/>
			</g>
		</g>
	</g>
	<rect x="2510.149" y="928.598" style="fill:#3788CC;" width="148.116" height="18.637"/>
	<rect x="2510.149" y="968.211" style="fill:#3788CC;" width="171.563" height="18.637"/>
	<g>
		
			<linearGradient id="SVGID_00000122000553300136099890000006507000009337056938_" gradientUnits="userSpaceOnUse" x1="1039.9249" y1="1428.6671" x2="1284.427" y2="1428.6671">
			<stop  offset="0" style="stop-color:#40D5E6"/>
			<stop  offset="1" style="stop-color:#5577FF"/>
		</linearGradient>
		<path style="fill:url(#SVGID_00000122000553300136099890000006507000009337056938_);" d="M1061.288,1105.582
			c21.082-10.082,42.065,57.033,42.065,57.033c35.833,47.352,85.911-15.642,81.015,55.142
			c-8.569,123.859,142.566,38.949,72.842,168.262c-69.727,129.313,61.565,73.118,18.235,177.386
			c-43.331,104.269,12.831,228.629-52.366,177.524c0,0-57.407-125.888-116.609-164.837c-59.204-38.949,35.468-85.164,16.944-138.065
			c-26.905-76.838-91.727-73.819-44.988-156.393S989.621,1139.858,1061.288,1105.582z"/>
		<g>
			<path style="fill:#FFFFFF;" d="M1243.725,1693.552c-28.261-19.874-61.336-158.378-63.309-240.874
				c-1.011-42.257-13.502-59.863-24.522-75.396c-10.535-14.847-19.633-27.671-14.333-57.113
				c10.128-56.267-16.5-80.555-16.771-80.793l3.082-3.514c1.186,1.038,28.917,26.088,18.288,85.136
				c-4.951,27.511,3.211,39.015,13.545,53.58c10.844,15.282,24.339,34.303,25.384,77.988
				c2.117,88.533,35.932,219.305,61.324,237.163L1243.725,1693.552z"/>
		</g>
		<g>
			
				<linearGradient id="SVGID_00000067942119784301570030000010090288738573549492_" gradientUnits="userSpaceOnUse" x1="1219.2869" y1="1565.1012" x2="1440.3934" y2="1565.1012">
				<stop  offset="0" style="stop-color:#40D5E6"/>
				<stop  offset="1" style="stop-color:#5577FF"/>
			</linearGradient>
			<path style="fill:url(#SVGID_00000067942119784301570030000010090288738573549492_);" d="M1254.299,1703.818
				c-3.646,0.002-7.608-0.418-11.949-1.297c-10.892-2.201-18.034-7.947-21.227-17.079c-7.619-21.787,10.031-57.181,24.358-74.241
				c0.237-0.285,24.217-29.59,21.659-70.211c-0.429-6.809-1.135-13.111-1.759-18.672c-1.802-16.074-3.103-27.689,3.802-35.446
				c6.084-6.837,17.831-9.798,39.276-9.897c37.611-0.177,52.482-15.749,64.432-28.262c5.074-5.314,9.867-10.333,15.691-13.514l0,0
				c18.743-10.23,38.596-11.735,47.207-3.574c4.089,3.876,7.542,11.469,0.768,25.63c-6.19,12.94-14.22,21.135-20.672,27.718
				c-8.681,8.856-14.416,14.708-11.431,26.371c0.7,2.738,1.51,5.502,2.32,8.277c5.799,19.832,12.37,42.309-21.569,57.563
				c-7.203,3.236-13.766,5.813-19.556,8.084c-23.692,9.298-37.993,14.91-54.138,48.99c-3.125,6.596-5.884,12.848-8.552,18.895
				C1290.233,1682,1280.603,1703.816,1254.299,1703.818z M1390.823,1439.303c-5.187,2.832-9.526,7.375-14.552,12.639
				c-12.561,13.151-28.192,29.521-67.79,29.707c-19.718,0.092-30.762,2.662-35.807,8.33c-5.519,6.201-4.314,16.947-2.647,31.82
				c0.629,5.613,1.342,11.975,1.777,18.896c2.68,42.54-21.7,72.262-22.739,73.508c-14.182,16.885-30.245,50.496-23.531,69.696
				c2.61,7.465,8.58,12.19,17.742,14.042c31.963,6.458,40.788-13.54,55.408-46.675c2.681-6.075,5.452-12.357,8.604-19.011
				c16.937-35.753,32.737-41.953,56.654-51.34c5.74-2.252,12.247-4.806,19.347-7.996c30.228-13.585,24.773-32.238,19-51.987
				c-0.826-2.825-1.648-5.642-2.362-8.429c-3.638-14.214,3.536-21.535,12.62-30.803c6.533-6.667,13.938-14.224,19.794-26.464
				c3.068-6.417,5.601-15.132,0.232-20.22C1425.513,1428.322,1407.562,1430.164,1390.823,1439.303L1390.823,1439.303z"/>
		</g>
		<g>
			
				<linearGradient id="SVGID_00000165201607231510848280000014080170004568946308_" gradientUnits="userSpaceOnUse" x1="1238.1865" y1="1597.2534" x2="1404.1426" y2="1597.2534">
				<stop  offset="0" style="stop-color:#40D5E6"/>
				<stop  offset="1" style="stop-color:#5577FF"/>
			</linearGradient>
			<path style="fill:url(#SVGID_00000165201607231510848280000014080170004568946308_);" d="M1242.854,1730.8l-4.667-0.244
				c0.23-4.386,6.118-107.748,47.619-137.999c45.531-33.188,59.887-68.854,66.723-92.792c8.057-28.211,49.06-35.75,50.802-36.058
				l0.813,4.604c-0.397,0.071-39.868,7.344-47.119,32.736c-7.027,24.604-21.769,61.25-68.464,95.287
				C1248.838,1625.287,1242.909,1729.749,1242.854,1730.8z"/>
		</g>
		
			<linearGradient id="SVGID_00000064336023849371238970000002505212209695618203_" gradientUnits="userSpaceOnUse" x1="1178.2571" y1="1463.7078" x2="1371.5284" y2="1463.7078">
			<stop  offset="0" style="stop-color:#40D5E6"/>
			<stop  offset="1" style="stop-color:#5577FF"/>
		</linearGradient>
		<path style="fill:url(#SVGID_00000064336023849371238970000002505212209695618203_);" d="M1337.743,1209.893
			c-29.499-10.114-23.37,46.739-35.834,88.805c-12.464,42.064-138.66,18.351-85.688,123.687
			c52.971,105.336-66.993,35.228-31.16,127.147c35.834,91.921,3.116,190.231,42.065,165.225
			c38.949-25.006,21.882-140.76,62.39-154.513c40.507-13.755,47.117-29.797,7.011-67.188
			c-40.106-37.392,105.094-74.513,69.26-150.015C1329.952,1267.537,1371.823,1221.577,1337.743,1209.893z"/>
		<g>
			<path style="fill:#FFFFFF;" d="M1245.198,1710.35c-3.709-15.735-35.389-154.218-5.83-170.956
				c26.054-14.753,25.412-72.138,21.347-126.325c-3.597-47.969,58.007-70.387,60.632-71.318l1.563,4.405
				c-0.609,0.217-60.864,22.163-57.533,66.563c4.173,55.649,4.62,114.701-23.705,130.741
				c-22.447,12.712-1.781,124.007,8.076,165.817L1245.198,1710.35z"/>
		</g>
		
			<linearGradient id="SVGID_00000054244052547249714060000012364486484821380023_" gradientUnits="userSpaceOnUse" x1="1133.9063" y1="1740.9287" x2="1312.2529" y2="1740.9287">
			<stop  offset="0" style="stop-color:#FF9340"/>
			<stop  offset="1" style="stop-color:#FFCE45"/>
		</linearGradient>
		<polygon style="fill:url(#SVGID_00000054244052547249714060000012364486484821380023_);" points="1312.253,1661.039 
			1270.138,1820.818 1176.021,1820.818 1133.906,1661.039 		"/>
		
			<linearGradient id="SVGID_00000096747222644563243100000001557549879509266108_" gradientUnits="userSpaceOnUse" x1="1133.9063" y1="1740.9287" x2="1312.2529" y2="1740.9287">
			<stop  offset="0" style="stop-color:#C97332"/>
			<stop  offset="1" style="stop-color:#FFCE45"/>
		</linearGradient>
		<path style="fill:url(#SVGID_00000096747222644563243100000001557549879509266108_);" d="M1312.253,1661.039
			c0,0-92.715,17.409-92.715,159.779h-43.517l-42.115-159.779H1312.253z"/>
	</g>
	<g>
		<defs>
			
				<filter id="Adobe_OpacityMaskFilter_00000035504290633612158070000017104627173419223997_" filterUnits="userSpaceOnUse" x="2160.881" y="296.981" width="152.215" height="231.979">
				<feFlood  style="flood-color:white;flood-opacity:1" result="back"/>
				<feBlend  in="SourceGraphic" in2="back" mode="normal"/>
			</filter>
		</defs>
		
			<mask maskUnits="userSpaceOnUse" x="2160.881" y="296.981" width="152.215" height="231.979" id="SVGID_00000105428461137385457790000005693204633444978078_">
			<g style="filter:url(#Adobe_OpacityMaskFilter_00000035504290633612158070000017104627173419223997_);">
				<defs>
					
						<filter id="Adobe_OpacityMaskFilter_00000159441802736249416740000010904827332722763691_" filterUnits="userSpaceOnUse" x="2160.881" y="296.981" width="152.215" height="231.979">
						<feFlood  style="flood-color:white;flood-opacity:1" result="back"/>
						<feBlend  in="SourceGraphic" in2="back" mode="normal"/>
					</filter>
				</defs>
				
					<mask maskUnits="userSpaceOnUse" x="2160.881" y="296.981" width="152.215" height="231.979" id="SVGID_00000105428461137385457790000005693204633444978078_">
					<g style="filter:url(#Adobe_OpacityMaskFilter_00000159441802736249416740000010904827332722763691_);">
					</g>
				</mask>
				
					<linearGradient id="SVGID_00000069361858595358194710000004858244656998014651_" gradientUnits="userSpaceOnUse" x1="2292.738" y1="172.5205" x2="2196.3613" y2="588.1954">
					<stop  offset="0" style="stop-color:#FFFFFF"/>
					<stop  offset="1" style="stop-color:#000000"/>
				</linearGradient>
				
					<polygon style="mask:url(#SVGID_00000105428461137385457790000005693204633444978078_);fill:url(#SVGID_00000069361858595358194710000004858244656998014651_);" points="
					2164.516,528.96 2160.881,526.607 2309.462,296.981 2313.096,299.334 				"/>
			</g>
		</mask>
		
			<linearGradient id="SVGID_00000132781735182374647940000016800304832025631158_" gradientUnits="userSpaceOnUse" x1="2292.738" y1="172.5205" x2="2196.3613" y2="588.1954">
			<stop  offset="0" style="stop-color:#40D5E6"/>
			<stop  offset="1" style="stop-color:#5577FF"/>
		</linearGradient>
		<polygon style="fill:url(#SVGID_00000132781735182374647940000016800304832025631158_);" points="2164.516,528.96 
			2160.881,526.607 2309.462,296.981 2313.096,299.334 		"/>
	</g>
	<g>
		<defs>
			
				<filter id="Adobe_OpacityMaskFilter_00000155861910072630506510000005964516549551786920_" filterUnits="userSpaceOnUse" x="2430.344" y="128.625" width="53.847" height="55.024">
				<feFlood  style="flood-color:white;flood-opacity:1" result="back"/>
				<feBlend  in="SourceGraphic" in2="back" mode="normal"/>
			</filter>
		</defs>
		
			<mask maskUnits="userSpaceOnUse" x="2430.344" y="128.625" width="53.847" height="55.024" id="SVGID_00000005235146848001386170000014390399529189657494_">
			<g style="filter:url(#Adobe_OpacityMaskFilter_00000155861910072630506510000005964516549551786920_);">
				<defs>
					
						<filter id="Adobe_OpacityMaskFilter_00000145026777097482735760000007302168403708611509_" filterUnits="userSpaceOnUse" x="2430.344" y="128.625" width="53.847" height="55.024">
						<feFlood  style="flood-color:white;flood-opacity:1" result="back"/>
						<feBlend  in="SourceGraphic" in2="back" mode="normal"/>
					</filter>
				</defs>
				
					<mask maskUnits="userSpaceOnUse" x="2430.344" y="128.625" width="53.847" height="55.024" id="SVGID_00000005235146848001386170000014390399529189657494_">
					<g style="filter:url(#Adobe_OpacityMaskFilter_00000145026777097482735760000007302168403708611509_);">
					</g>
				</mask>
				
					<linearGradient id="SVGID_00000127022645594051577440000010000182068511606200_" gradientUnits="userSpaceOnUse" x1="2446.4319" y1="208.1553" x2="2350.0554" y2="623.8299">
					<stop  offset="0" style="stop-color:#FFFFFF"/>
					<stop  offset="1" style="stop-color:#000000"/>
				</linearGradient>
				
					<polygon style="mask:url(#SVGID_00000005235146848001386170000014390399529189657494_);fill:url(#SVGID_00000127022645594051577440000010000182068511606200_);" points="
					2433.977,183.649 2430.344,181.294 2464.492,128.625 2484.19,141.552 2481.813,145.172 2465.757,134.634 				"/>
			</g>
		</mask>
		
			<linearGradient id="SVGID_00000129890350694113424690000007763214046661788605_" gradientUnits="userSpaceOnUse" x1="2446.4319" y1="208.1553" x2="2350.0554" y2="623.8299">
			<stop  offset="0" style="stop-color:#40D5E6"/>
			<stop  offset="1" style="stop-color:#5577FF"/>
		</linearGradient>
		<polygon style="fill:url(#SVGID_00000129890350694113424690000007763214046661788605_);" points="2433.977,183.649 
			2430.344,181.294 2464.492,128.625 2484.19,141.552 2481.813,145.172 2465.757,134.634 		"/>
	</g>
	<g>
		<rect x="1810.379" y="1151.729" style="fill:#706865;" width="14.472" height="657.858"/>
		<rect x="1481.558" y="1151.729" style="fill:#706865;" width="14.471" height="657.858"/>
	</g>
	<path style="fill:#BDAFAA;" d="M1863.12,1701.01h-419.833c-15.571,0-28.194-12.623-28.194-28.193V905.093
		c0-15.572,12.623-28.195,28.194-28.195h419.833c15.571,0,28.194,12.623,28.194,28.195v767.724
		C1891.314,1688.387,1878.691,1701.01,1863.12,1701.01z"/>
	<path style="fill:#FFFFFF;" d="M1850.39,1668.81h-394.372c-15.385,0-27.857-12.473-27.857-27.857V918.026
		c0-15.386,12.473-27.858,27.857-27.858h394.372c15.385,0,27.857,12.473,27.857,27.858v722.926
		C1878.247,1656.337,1865.774,1668.81,1850.39,1668.81z"/>
	<rect x="1582.249" y="870.649" style="fill:#706865;" width="141.909" height="32.045"/>
	<g>
		<path style="fill:#B5DEFF;" d="M1616.999,1165.39c-55.145-11.182-97.299-59.965-97.299-119.178
			c0-67.06,54.559-121.618,121.619-121.618v5.455c-64.054,0-116.164,52.111-116.164,116.164c0,56.549,40.258,103.153,92.933,113.833
			c41.162,8.417,84.375-6.072,112.17-39.107c17.553-20.873,27.22-47.411,27.22-74.726c0-5.708-0.418-11.442-1.241-17.045
			l5.396-0.794c0.862,5.865,1.299,11.867,1.299,17.839c0,28.597-10.121,56.382-28.5,78.237
			C1705.314,1159.053,1660.063,1174.192,1616.999,1165.39z"/>
	</g>
	<g>
		<g>
			<g>
				<path style="fill:#EEA886;" d="M1414.389,1058.836c0,0,9.015-15.776-5.282-58.058c-13.828-40.892-61.693-37.184-76.904-10.986
					c-15.211,26.198-10.073,42.47,12.322,72.049C1366.919,1091.418,1405.093,1072.356,1414.389,1058.836z"/>
			</g>
		</g>
		<g>
			<g>
				<path style="fill:#81807E;" d="M1303.213,1786.28c0,0-2.368,17.363-2.664,19.972c-0.296,2.609-26.348-1.535-26.348-1.535
					l-2.109-20.673C1272.092,1784.044,1299.957,1783.831,1303.213,1786.28z"/>
			</g>
		</g>
		<g>
			<g>
				<path style="fill:#353A3D;" d="M1300.826,1804.045c0,0,8.254,10.463,16.237,15.023s20.529,6.367,25.25,11.088
					c3.407,3.408,12.411,18.078-20.746,17.782c-33.156-0.296-49.143,2.072-52.695-3.553c-3.553-5.624,5.141-41.517,5.141-41.517
					S1282.129,1805.156,1300.826,1804.045z"/>
			</g>
		</g>
		<g>
			<g>
				<path style="fill:#81807E;" d="M1483.597,1786.28c0,0-2.368,17.363-2.664,19.972c-0.297,2.609-26.349-1.535-26.349-1.535
					l-2.109-20.673C1452.475,1784.044,1480.341,1783.831,1483.597,1786.28z"/>
			</g>
		</g>
		<g>
			<g>
				<path style="fill:#353A3D;" d="M1481.21,1804.045c0,0,8.254,10.463,16.236,15.023c7.984,4.561,37.362,8.307,42.083,13.027
					c3.407,3.408,9.075,17.125-37.578,15.843c-33.146-0.911-49.142,2.072-52.695-3.553c-3.553-5.624,5.14-41.517,5.14-41.517
					S1464.695,1804.702,1481.21,1804.045z"/>
			</g>
		</g>
		<g>
			<g>
				<path style="fill:#3B3B40;" d="M1311.984,1353.916c0,0-13.357,41.509-11.599,77.28c1.76,35.771-6.907,74.915-10.449,112.282
					c-3.949,41.659-20.111,140.281-20.697,162.565c-0.587,22.283-6.196,91.446-6.196,91.446l41.057,2.775
					c0,0,27.173-172.416,34.21-190.008c7.037-17.593,41.935-143.013,43.108-157.087
					C1382.591,1439.098,1311.984,1353.916,1311.984,1353.916z"/>
			</g>
		</g>
		<g>
			<g>
				<path style="fill:#3B3B40;" d="M1446.124,1349.594c0,0,19.639,109.752,21.985,131.646c2.345,21.893,3.909,105.95,5.082,119.635
					c1.173,13.684,7.819,179.061,14.075,199.391h-44.121c0,0-28.989-120.225-28.989-177.106s-24.529-123.661-40.362-161.192
					c-15.833-37.53-52.076-38.418-61.81-108.051C1311.984,1353.916,1432.946,1327.509,1446.124,1349.594z"/>
			</g>
		</g>
		<g>
			<g>
				<path style="fill:#EEA886;" d="M1401.304,1069.998c0,0-4.07,11.844,0,20.296c4.07,8.45-51.99,3.38-51.99,3.38
					s2.535-17.466-4.789-31.833C1337.199,1047.474,1401.304,1069.998,1401.304,1069.998z"/>
			</g>
		</g>
		<g>
			<g>
				<path style="fill:#EDDAD3;" d="M1309.384,1362.958c0,0,20.16,20.711,138.544-3.225l-1.804-10.14l-134.579,5.066
					L1309.384,1362.958z"/>
			</g>
		</g>
		<g>
			<g>
				<path style="fill:#DBDFF0;" d="M1588.241,1002.642c-3.603,13.758-14.266,44.514-17.492,54.157
					c-4.004,11.966-13.104,35.246-16.481,38.249c-2.727,2.4-23.438,18.235-47.377,29.642c-5.903,2.802-12.007,5.353-18.085,7.354
					c-30.693,10.155-53.831,25.089-53.831,25.089h-142.432c3.678-30.168,14.008-51.805,17.91-59.135
					c10.856-0.699,27.291-2.65,35.521-3.001c10.281-0.4,21.137-4.929,21.137-4.929l3.627,0.25l10.957,0.776l28.091,1.951
					c0,0,20.712,2.102,26.615,3.227c5.929,1.126,45.751-7.129,53.906-7.954c0.976-0.1,2.351-0.525,4.002-1.226
					c12.057-5.054,39.147-23.839,40.147-26.315c1.126-2.801,14.709-55.132,17.386-64.162
					C1552.467,994.614,1588.616,1001.24,1588.241,1002.642z"/>
			</g>
		</g>
		<g>
			<g>
				<path style="fill:#DBDFF0;" d="M1291.268,1181.396c0.002,0.024,0,0.024,0,0.051c4.402,17.71,11.382,56.082,13.082,73.917
					c2.127,21.962-36.32,334.917-36.32,334.917c18.11,14.057,216.424,17.959,215.573,12.031
					c-0.851-5.903-44.025-342.296-40.648-353.702c3.377-11.407,10.156-44.801,11.832-65.938
					c1.701-21.111,20.211-33.444,20.211-33.444l31.894-24.538c3.202-15.635-12.582-37.597-12.582-37.597s-48.378,5.327-54.932,4.502
					c-5.428-0.7-38.797-4.452-38.797-4.452c-8.03,2.426-14.184,3.551-18.886,3.952c-5.328,0.425-8.78-0.101-10.957-0.776
					c-2.651-0.824-3.451-1.925-3.451-1.925c0,0.075-36.34,1.537-55.307,6.878
					C1311.979,1095.271,1286.557,1131.043,1291.268,1181.396z"/>
			</g>
		</g>
		<g>
			<g>
				<path style="fill:#FCCCA2;" d="M1344.524,1061.841c0,0,7.418,0.655,23.193-4.792c15.776-5.446,16.954-33.032,20.365-29.766
					c6.961,6.668,13.535,2.066,16.164-1.878c0,0-7.7-10.142-4.132-15.024c3.568-4.883,9.378-8.447,9.378-8.447
					s-11.096-53.479-61.589-29.115C1288.745,1001.365,1344.524,1061.841,1344.524,1061.841z"/>
			</g>
		</g>
		<g>
			<g>
				<path style="fill:#DBDFF0;" d="M1401.304,1090.294l-1.779-7.731c0,0-32.229-0.654-49.813,1.896l-1.851,9.239
					C1347.861,1093.697,1370.377,1103.91,1401.304,1090.294z"/>
			</g>
		</g>
		<g>
			<g>
				<path style="fill:#EEA886;" d="M1393.354,1020.523c-2.928-4.865-13.753-8.146-15.025,5.635
					c-0.985,10.682,19.345,22.349,19.532,12.396C1398.05,1028.598,1395.303,1023.76,1393.354,1020.523z"/>
			</g>
		</g>
		<path style="fill:#DBDFF0;" d="M1311.979,1095.271c0,0-15.376,0-48.937,105.836c-11.531,36.363,52.738,64.397,52.738,64.397
			L1311.979,1095.271z"/>
		<g>
			
				<rect x="1510.655" y="977.667" transform="matrix(0.573 -0.8196 0.8196 0.573 -140.813 1691.3091)" style="fill:#4DA8F2;" width="84.004" height="6.238"/>
		</g>
		<path style="fill:#EFAA88;" d="M1594.134,965.069c0,0,0.856,3.94,0.39,5.845c0,0-1.114,3.402-1.76,5.868
			c-0.202,0.783-0.361,1.47-0.417,1.925c-0.236,1.899-0.187,6.136-2.035,10.537c-1.842,4.396-9.93,19.268-9.93,19.268l-13.896-4.647
			l-12.7-0.514c0,0-4.469-28.617-3.224-32.913c0.125-0.42,0.263-0.828,0.421-1.203c1.407-3.535,3.939-5.574,4.889-7.346
			c0.352-0.648,4.292-6.857,6.473-7.133c3.025-0.387,5.279,0.573,6.64,2.159c0,0,5.958-0.496,9.271,1.789
			c0,0,5.481-0.634,8.794,3.381C1587.047,962.085,1592.68,962.066,1594.134,965.069z"/>
		<polygon style="fill:#DFE1E8;" points="1579.28,948.149 1580.746,940.886 1574.167,944.575 		"/>
	</g>
	<g>
		<g>
			<g>
				<g>
					<g>
						<g>
							<path style="fill:#EEA886;" d="M2332.82,1377.703c0,0,0.339-3.069-0.169-4.483c0,0-1.12-2.503-1.809-4.33
								c-0.217-0.581-0.393-1.091-0.471-1.433c-0.332-1.428-0.633-4.659-2.391-7.864c-1.754-3.202-12.883-15.067-12.883-15.067
								l-8.12,4.193l-8.163,2.842c0,0-0.907,22.354,0.384,25.527c0.128,0.31,0.265,0.61,0.416,0.883
								c1.354,2.581,3.446,3.932,4.31,5.207c0.32,0.465,3.816,4.881,5.5,4.918c2.336,0.053,3.977-0.857,4.886-2.175
								c0,0,4.579-0.097,6.92-2.103c0,0,4.226,0.047,6.43-3.277C2327.66,1380.541,2331.952,1380.107,2332.82,1377.703z"/>
						</g>
					</g>
				</g>
			</g>
		</g>
		<g>
			<g>
				<path style="fill:#3A3F47;" d="M2126.587,1004.604c0,0-10.83-70.061,47.195-68.769c58.027,1.293,54.798,55.187,47.83,78.482
					c-5.142,17.188-14.881,23.639,10.197,71.466c25.077,47.828-21.717,47.828-21.717,47.828l-36.311-49.896L2126.587,1004.604z"/>
			</g>
		</g>
		<g>
			<g>
				<path style="fill:#DBDFF0;" d="M2099.111,1255.975c-0.29,0.363-0.708,0.877-1.244,1.533v0.004
					c-1.368,1.672-3.493,4.245-6.175,7.446c-15.491,18.513-49.531,57.995-62.491,65.12c-9.187,5.049-10.594-10.817-1.456-20.574
					c8.331-8.896,40.501-66.282,52.956-78.634c6.05-5.998,14.183-62.689,14.183-62.689s7.527,47.272,6.689,52.709
					C2100.739,1226.331,2104.415,1249.367,2099.111,1255.975z"/>
			</g>
		</g>
		<g>
			<g>
				<g>
					<path style="fill:#EEA886;" d="M2027.744,1309.504c0,0-5.347,7.043-8.122,7.922c-2.774,0.88-5.975,5.765-8.297,7.023
						c-2.322,1.261-9.939,2.474-11.778,4.604c-0.752,0.87-3.196,8.025-4.923,9.629c-1.727,1.604-5.633,4.43-4.16,5.873
						c1.474,1.443,5.692-0.139,5.692-0.139s-1.48,1.557-0.579,3.213c1.753,3.221,4.066,3.178,4.066,3.178s-0.446,2.566,0.625,3.73
						c2.361,2.567,4.596,2.462,4.596,2.462s0.415,1.921,2.373,3.282c2.505,1.74,5.197,0.402,5.197,0.402s2.635,2.883,4.674,2.11
						c2.038-0.773,3.088-2.41,4.489-3.433c1.401-1.023,10.566-13.688,13.18-25.043c2.614-11.354,9.11-19.07,9.11-19.07
						L2027.744,1309.504z"/>
				</g>
			</g>
		</g>
		<g>
			<g>
				<path style="fill:#DB9C7C;" d="M1996.585,1343.002c0,0,8.032-10.693,12.619-10.887c4.588-0.192,1.908,3.826,1.908,3.826
					s2.581-4.019,6.062-2.295c3.479,1.726,0.088,6.265,0.088,6.265s2.79-2.52,5.556,0.415c2.766,2.936-0.922,6.061-0.922,6.061
					s5.95-1.375,5.207,3.546c-1.255,8.307-9.599,13.099-9.599,13.099s-2.677,0.963-5.14-2.042c0,0-5.445,2.573-7.737-3.683
					c0,0-6.835-0.933-5.325-6.254C1999.302,1351.053,1991.83,1349.252,1996.585,1343.002z"/>
			</g>
		</g>
		<g>
			<g>
				<path style="fill:#2F4563;" d="M2055.374,1794.424c0,0-22.791,38.633-32.414,44.943c-13.063,8.565-4.879,17.227,1.324,17.235
					c6.204,0.008,37.884,2.273,44.865-5.647c6.98-7.922,10.443-31.665,16.937-37.873c6.492-6.209,12.436-29.122-3.163-36.893
					C2065.819,1767.67,2055.374,1794.424,2055.374,1794.424z"/>
			</g>
		</g>
		<g>
			<g>
				<polygon style="fill:#2F4563;" points="2091.687,1801.773 2085.661,1848.158 2082.47,1848.299 2083.462,1814.93 				"/>
			</g>
		</g>
		<g>
			<g>
				<path style="fill:#2F4563;" d="M2250.784,1756.758c0,0-5.461,44.52-11.763,54.15c-8.553,13.069,2.409,17.741,8.1,15.27
					c5.69-2.471,35.638-13.048,38.874-23.098c3.235-10.051-3.075-33.201,0.397-41.486c3.472-8.285-0.233-31.664-17.636-32.557
					C2249.673,1728.059,2250.784,1756.758,2250.784,1756.758z"/>
			</g>
		</g>
		<g>
			<g>
				<path style="fill:#EEA886;" d="M2250.53,1734.774c0,0-3.344,54.366-4.797,62.291c-1.454,7.925,10.433,2.735,16.532-3.386
					c6.099-6.121,12.362-43.951,11.969-50.523s-5.478-14.119-5.478-14.119L2250.53,1734.774z"/>
			</g>
		</g>
		<g>
			<g>
				<polygon style="fill:#2F4563;" points="2287.009,1748.99 2300.016,1793.919 2297.146,1795.323 2284.726,1764.336 				"/>
			</g>
		</g>
		<g>
			<g>
				<path style="fill:#EEA886;" d="M2155.653,1418.727c-1.136,5.483-8.4,28.428-16.534,53.924v0.004
					c-7.419,23.244-15.56,48.603-20.44,64.786c-1.821,6.038-3.191,10.799-3.898,13.694c-4.685,19.158,0.584,49.215,2.285,74.332
					c1.705,25.12-34.761,165.855-34.761,165.855c-6.385,2.979-18.383-17.152-18.383-17.152c4.685-8.941,4.026-167.688,1.472-177.479
					c-2.557-9.791-4.258-37.04-1.702-47.686c0.522-2.188,0.778-5.07,0.836-8.543c0.216-13.435-2.552-35.646-4.242-60.003
					c-2.128-30.654,9.792-106.864,11.493-113.676c0.156-0.628,0.404-1.508,0.723-2.592c3.136-10.686,13.233-41.03,13.233-41.03
					c20.48-6.094,35.901-7.195,47.412-4.848c15.238,3.103,23.624,12.247,27.812,23.86
					C2170.972,1369.88,2157.124,1411.611,2155.653,1418.727z"/>
			</g>
		</g>
		<g>
			<g>
				<path style="fill:#EEA886;" d="M2270.934,1732.806l-20.738,7.292c-3.517-17.023-87.729-136.171-92.866-149.368
					s-10.616-38.741-10.616-48.108c0-1.672-0.12-4.494-0.358-8.156c-0.908-14.197-3.508-40.972-7.235-61.814
					c-0.693-3.887-1.428-7.567-2.198-10.923c-4.125-17.972-4.84-79.38-4.888-115.493c-0.022-16.07,0.087-27.133,0.087-27.133
					s0.358-0.284,1.026-0.787c7.765-5.874,57.564-41.695,74.927-8.212c4.586,8.847,7.579,18.342,9.397,28.243
					c5.571,30.344,0.105,64.522-4.388,95.659c-3.845,26.643-11.212,64.289-13.33,92.224c-1.168,15.37-0.744,27.805,2.731,33.846
					c9.795,17.031,19.367,31.447,39.169,91.539C2248.097,1671.158,2270.934,1732.806,2270.934,1732.806z"/>
			</g>
		</g>
		<g>
			<path style="fill:#2F4563;" d="M2213.083,1434.005c-3.845,26.643-11.212,64.289-13.33,92.224c0,0-21.729,4.338-53.398,8.236
				c-8.575,1.055-17.877,2.077-27.676,2.976c-16.973,1.552-35.427,2.724-54.151,3.022c0.216-13.435-2.552-35.646-4.242-60.003
				c-2.128-30.654,9.792-106.864,11.493-113.676c0.156-0.628,0.404-1.508,0.723-2.592c15.318-8.43,37.292-14.121,59.532-17.958
				c9.772-1.687,19.593-3.016,28.925-4.06c29.158-3.271,53.512-3.779,56.513-3.829
				C2223.042,1368.689,2217.576,1402.868,2213.083,1434.005z"/>
		</g>
		<g>
			<path style="fill:#EEA886;" d="M2250.195,1740.098c0,0,9.736,12.588,20.738-7.292
				C2270.934,1732.806,2258.708,1719.738,2250.195,1740.098z"/>
		</g>
		<g>
			<g>
				<path style="fill:#EEA886;" d="M2063.922,1774.17c0,0-24.782,48.504-29.28,55.188c-4.498,6.684,8.472,6.675,16.509,3.5
					c8.036-3.175,28.89-35.354,31.154-41.536s3.419-13.411,3.419-13.411L2063.922,1774.17z"/>
			</g>
		</g>
		<g>
			<path style="fill:#EEA886;" d="M2063.922,1774.17c0,0-13.163,24.758,21.802,3.741
				C2085.724,1777.911,2079.133,1766.827,2063.922,1774.17z"/>
		</g>
		<g>
			<g>
				<path style="fill:#EEA886;" d="M2160.731,947.074c0,0-39.297,6.205-40.848,62.048c-1.551,55.843,10.6,67.734,44.984,56.101
					s45.243-70.062,46.019-79.11C2211.662,977.064,2213.73,940.352,2160.731,947.074z"/>
			</g>
		</g>
		<g>
			<g>
				<path style="fill:#4E9BDE;" d="M2229.739,1141.309c0.152,19.228-21.95,65.19-25.356,79.383s-8.8,18.734-4.258,36.899
					c4.542,18.167,22.864,82.512,18.053,85.013c-71.882,37.363-135.536,34.936-145.677,21.589c0,0,23.244-86.747,24.947-96.681
					c1.703-9.935-2.068-47.18-2.92-57.682s-11.483-33.106-11.125-43.633c0.365-10.724,5.632-19.984,13-31.438
					c2.283-3.551,4.682-7.167,7.08-10.684c7.806-11.456,15.605-21.856,19.435-25.438c2.848-2.663,5.516-4.703,7.823-6.245
					c0.014-0.009,0.022-0.011,0.022-0.011c4.814-3.211,8.05-4.247,8.05-4.247l33.778-5.393c0,0,21.053,7.615,33.161,10.449
					C2205.753,1093.19,2229.389,1096.638,2229.739,1141.309z"/>
			</g>
		</g>
		<g>
			<g>
				<path style="fill:#6EA2E8;" d="M2130.764,1092.381l-19.577,30.854l-18.069,28.477c0.042-0.153,1.246-4.465,3.286-16.952
					c0.39-2.37,0.807-5.035,1.252-8.021c0.131-0.883,0.324-1.76,0.568-2.626c0,0,0,0,0-0.002
					c7.732-17.828,31.644-31.271,32.518-31.718C2130.755,1092.383,2130.764,1092.381,2130.764,1092.381z"/>
			</g>
		</g>
		<g>
			<g>
				<path style="fill:#EEA886;" d="M2186.975,1040.07c-3.406,6.432-7.003,46.36-7.003,46.36s-48.063,18.167-43.145,7.892
					c2.23-4.664,2.887-10.716,2.932-15.933c0.043-4.113-0.295-7.706-0.533-9.699c-0.125-1.051-0.222-1.655-0.222-1.655
					S2190.381,1033.635,2186.975,1040.07z"/>
			</g>
		</g>
		<g>
			<g>
				<path style="fill:#3A3F47;" d="M2144.702,987.146c0,0,14.062,17.181,32.417,30.107c18.355,12.927,15.153,38.921,15.153,38.921
					s47.894-100.828,2.359-107.808c-45.534-6.98-73.455-7.498-74.748,60.755C2119.884,1009.122,2140.566,986.629,2144.702,987.146z"
					/>
			</g>
		</g>
		<g>
			<g>
				<path style="fill:#A77860;" d="M2172.081,1061.776c-7.377,10.883-32.319,16.613-32.319,16.613s0,0-0.003,0
					c0.043-4.113-0.295-7.706-0.533-9.699C2154.682,1072.14,2172.081,1061.776,2172.081,1061.776z"/>
			</g>
		</g>
		<g>
			<path style="fill:#DBDFF0;" d="M2098.306,1123.899C2098.306,1123.898,2098.305,1123.898,2098.306,1123.899
				c-0.001-0.001-1.046,2.161-1.902,10.859l7.08-10.684c0,0,12.643-18.128,16.975-22.842c4.333-4.714,10.283-8.842,10.283-8.842
				S2105.866,1104.344,2098.306,1123.899z"/>
		</g>
		<g>
			<path style="fill:#6EA2E8;" d="M2195.978,1160.921c0,0,36.167-15.334,44.789-17.715c0,0-14.905-54.051-45.474-50.692
				C2162.255,1096.143,2195.978,1160.921,2195.978,1160.921z"/>
		</g>
		<g>
			<path style="fill:#EEA886;" d="M2138.813,1088.134c0,0-22.647,34.824-14.981,37.866c7.667,3.043,49.166-4.06,66.81-37.137
				C2190.642,1088.863,2164.261,1075.336,2138.813,1088.134z"/>
		</g>
		<g>
			<path style="fill:#DBDFF0;" d="M2022.485,1315.434c0,0,15.418,7.617,18.969,14.209c0,0,27.215-38.936,29.626-40.698
				l-41.212,17.958L2022.485,1315.434z"/>
		</g>
		<g>
			<path style="fill:#DBDFF0;" d="M2298.099,1352.898c0,0,16.037-3.953,21.529-4.378l-24.34-58.037l-8.983,32.704
				C2286.305,1323.188,2298.003,1351.395,2298.099,1352.898z"/>
		</g>
		<g>
			<path style="fill:#2F4563;" d="M2094.572,1210.404c-0.052-0.475-0.082-0.747-0.082-0.795c0.009,0.025,0.021,0.096,0.039,0.221
				C2094.547,1209.959,2094.563,1210.149,2094.572,1210.404z"/>
		</g>
		<g>
			<path style="fill:#9EA1AD;" d="M2097.867,1257.508v0.004c-1.368,1.672-9.819,11.744-12.501,14.944c0,0,9.457-55.379,9.206-62.048
				C2095.173,1215.738,2098.796,1246.072,2097.867,1257.508z"/>
		</g>
		<path style="fill:#DBDFF0;" d="M2180.103,1085.024c0,0-25.639,34.362-27.174,97.028c-1.536,62.666,21.138,329.156,18.018,368.567
			c0,0,55.395-20.942,69.82-32.577c14.428-11.636-25.108-201.503-29.99-218.823c-4.883-17.321-15.016-72.391,29.99-156.015
			c0,0-9.703-41.812-28.424-49.093C2193.62,1086.832,2180.103,1085.024,2180.103,1085.024z"/>
		<path style="fill:#DBDFF0;" d="M2311.183,1339.769c-7.354-24.477-23.293-71.109-26.354-80.847
			c-7.987-25.425-12.266-31.393-23.679-65.575c-4.448-13.32-13.601-34.745-20.383-50.136c-0.001-0.002,0-0.004-0.001-0.006
			c-5.178-19.778-15.508-35.078-22.657-43.256c-7.148-8.177-27.468-11.087-27.468-11.087s2.805,3.753,6.98,9.208
			c-1.426,0.161-2.705,0.014-4.231,0.4c-27.082,6.854,3.913,51.691,6.074,57.645s40.796,72.23,43.589,78.283
			c9.652,20.92,15.352,25.701,22.686,45.372c9.906,26.581,26.048,52.79,34.01,67.442
			C2303.095,1353.37,2314.002,1349.156,2311.183,1339.769z"/>
		<path style="fill:#DBDFF0;" d="M2138.813,1088.134c0,0-23.753,25.74-26.873,77.537s-5.721,113.207-13.922,166.438
			c-8.2,53.23-21.305,226.095-21.305,226.095s-18.099-13.729-21.843-22.466s9.517-169.377,24.962-214.047
			c15.447-44.671,19.299-51.043,14.739-90.078s-13.64-55.162-11.225-69.84S2109.178,1098.381,2138.813,1088.134z"/>
	</g>
	<g>
		<defs>
			
				<filter id="Adobe_OpacityMaskFilter_00000172409175933213367080000008645657202424078525_" filterUnits="userSpaceOnUse" x="2713.317" y="337.379" width="103.813" height="7.277">
				<feFlood  style="flood-color:white;flood-opacity:1" result="back"/>
				<feBlend  in="SourceGraphic" in2="back" mode="normal"/>
			</filter>
		</defs>
		
			<mask maskUnits="userSpaceOnUse" x="2713.317" y="337.379" width="103.813" height="7.277" id="SVGID_00000115500035418623968750000003541560344375760775_">
			<g style="filter:url(#Adobe_OpacityMaskFilter_00000172409175933213367080000008645657202424078525_);">
				<defs>
					
						<filter id="Adobe_OpacityMaskFilter_00000085250778896263381670000001078923809041548457_" filterUnits="userSpaceOnUse" x="2713.317" y="337.379" width="103.813" height="7.277">
						<feFlood  style="flood-color:white;flood-opacity:1" result="back"/>
						<feBlend  in="SourceGraphic" in2="back" mode="normal"/>
					</filter>
				</defs>
				
					<mask maskUnits="userSpaceOnUse" x="2713.317" y="337.379" width="103.813" height="7.277" id="SVGID_00000115500035418623968750000003541560344375760775_">
					<g style="filter:url(#Adobe_OpacityMaskFilter_00000085250778896263381670000001078923809041548457_);">
					</g>
				</mask>
				
					<linearGradient id="SVGID_00000106830198654629286160000000896135194026828217_" gradientUnits="userSpaceOnUse" x1="2811.1563" y1="227.4095" x2="2716.7351" y2="460.9476">
					<stop  offset="0" style="stop-color:#FFFFFF"/>
					<stop  offset="1" style="stop-color:#000000"/>
				</linearGradient>
				
					<polygon style="mask:url(#SVGID_00000115500035418623968750000003541560344375760775_);fill:url(#SVGID_00000106830198654629286160000000896135194026828217_);" points="
					2713.317,344.656 2817.13,344.656 2817.13,337.379 2713.317,337.379 				"/>
			</g>
		</mask>
		
			<linearGradient id="SVGID_00000175290166786046459520000002139386140925942205_" gradientUnits="userSpaceOnUse" x1="2811.1563" y1="227.4095" x2="2716.7351" y2="460.9476">
			<stop  offset="0" style="stop-color:#40D5E6"/>
			<stop  offset="1" style="stop-color:#5577FF"/>
		</linearGradient>
		<polygon style="fill:url(#SVGID_00000175290166786046459520000002139386140925942205_);" points="2713.317,344.656 
			2817.13,344.656 2817.13,337.379 2713.317,337.379 		"/>
		<defs>
			
				<filter id="Adobe_OpacityMaskFilter_00000165199792604718050500000009427849377520432055_" filterUnits="userSpaceOnUse" x="2713.317" y="351.094" width="103.813" height="30.594">
				<feFlood  style="flood-color:white;flood-opacity:1" result="back"/>
				<feBlend  in="SourceGraphic" in2="back" mode="normal"/>
			</filter>
		</defs>
		
			<mask maskUnits="userSpaceOnUse" x="2713.317" y="351.094" width="103.813" height="30.594" id="SVGID_00000114060461070710142400000015295241465889919879_">
			<g style="filter:url(#Adobe_OpacityMaskFilter_00000165199792604718050500000009427849377520432055_);">
				<defs>
					
						<filter id="Adobe_OpacityMaskFilter_00000183962267602580432880000008063076122333884584_" filterUnits="userSpaceOnUse" x="2713.317" y="351.094" width="103.813" height="30.594">
						<feFlood  style="flood-color:white;flood-opacity:1" result="back"/>
						<feBlend  in="SourceGraphic" in2="back" mode="normal"/>
					</filter>
				</defs>
				
					<mask maskUnits="userSpaceOnUse" x="2713.317" y="351.094" width="103.813" height="30.594" id="SVGID_00000114060461070710142400000015295241465889919879_">
					<g style="filter:url(#Adobe_OpacityMaskFilter_00000183962267602580432880000008063076122333884584_);">
					</g>
				</mask>
				
					<linearGradient id="SVGID_00000171721893248871403960000011924520552099293585_" gradientUnits="userSpaceOnUse" x1="2819.9734" y1="230.9747" x2="2725.5525" y2="464.5125">
					<stop  offset="0" style="stop-color:#FFFFFF"/>
					<stop  offset="1" style="stop-color:#000000"/>
				</linearGradient>
				
					<polygon style="mask:url(#SVGID_00000114060461070710142400000015295241465889919879_);fill:url(#SVGID_00000171721893248871403960000011924520552099293585_);" points="
					2713.317,381.688 2817.13,381.688 2817.13,351.094 2713.317,351.094 				"/>
			</g>
		</mask>
		
			<linearGradient id="SVGID_00000085946913786666525100000003671734084881308557_" gradientUnits="userSpaceOnUse" x1="2819.9734" y1="230.9747" x2="2725.5525" y2="464.5125">
			<stop  offset="0" style="stop-color:#40D5E6"/>
			<stop  offset="1" style="stop-color:#5577FF"/>
		</linearGradient>
		<polygon style="fill:url(#SVGID_00000085946913786666525100000003671734084881308557_);" points="2713.317,381.688 
			2817.13,381.688 2817.13,351.094 2713.317,351.094 		"/>
		<defs>
			
				<filter id="Adobe_OpacityMaskFilter_00000093869205170342191140000009273257012682109569_" filterUnits="userSpaceOnUse" x="2664.552" y="391.975" width="61.243" height="4.572">
				<feFlood  style="flood-color:white;flood-opacity:1" result="back"/>
				<feBlend  in="SourceGraphic" in2="back" mode="normal"/>
			</filter>
		</defs>
		
			<mask maskUnits="userSpaceOnUse" x="2664.552" y="391.975" width="61.243" height="4.572" id="SVGID_00000138565351946729431740000002717027733507475603_">
			<g style="filter:url(#Adobe_OpacityMaskFilter_00000093869205170342191140000009273257012682109569_);">
				<defs>
					
						<filter id="Adobe_OpacityMaskFilter_00000174600232974912537510000009061092578970169273_" filterUnits="userSpaceOnUse" x="2664.552" y="391.975" width="61.243" height="4.572">
						<feFlood  style="flood-color:white;flood-opacity:1" result="back"/>
						<feBlend  in="SourceGraphic" in2="back" mode="normal"/>
					</filter>
				</defs>
				
					<mask maskUnits="userSpaceOnUse" x="2664.552" y="391.975" width="61.243" height="4.572" id="SVGID_00000138565351946729431740000002717027733507475603_">
					<g style="filter:url(#Adobe_OpacityMaskFilter_00000174600232974912537510000009061092578970169273_);">
					</g>
				</mask>
				
					<linearGradient id="SVGID_00000132790200438562490230000016570258491933202567_" gradientUnits="userSpaceOnUse" x1="2769.4504" y1="210.5456" x2="2675.0286" y2="444.0858">
					<stop  offset="0" style="stop-color:#FFFFFF"/>
					<stop  offset="1" style="stop-color:#000000"/>
				</linearGradient>
				
					<polygon style="mask:url(#SVGID_00000138565351946729431740000002717027733507475603_);fill:url(#SVGID_00000132790200438562490230000016570258491933202567_);" points="
					2664.552,396.546 2725.795,396.546 2725.795,391.975 2664.552,391.975 				"/>
			</g>
		</mask>
		
			<linearGradient id="SVGID_00000124869903276128205150000000744461509017100705_" gradientUnits="userSpaceOnUse" x1="2769.4504" y1="210.5456" x2="2675.0286" y2="444.0858">
			<stop  offset="0" style="stop-color:#40D5E6"/>
			<stop  offset="1" style="stop-color:#5577FF"/>
		</linearGradient>
		<polygon style="fill:url(#SVGID_00000124869903276128205150000000744461509017100705_);" points="2664.552,396.546 
			2725.795,396.546 2725.795,391.975 2664.552,391.975 		"/>
		<defs>
			
				<filter id="Adobe_OpacityMaskFilter_00000054951305865554932410000005833694108264462768_" filterUnits="userSpaceOnUse" x="2664.552" y="398.546" width="61.243" height="12.382">
				<feFlood  style="flood-color:white;flood-opacity:1" result="back"/>
				<feBlend  in="SourceGraphic" in2="back" mode="normal"/>
			</filter>
		</defs>
		
			<mask maskUnits="userSpaceOnUse" x="2664.552" y="398.546" width="61.243" height="12.382" id="SVGID_00000181077314805070562130000011091292807512070042_">
			<g style="filter:url(#Adobe_OpacityMaskFilter_00000054951305865554932410000005833694108264462768_);">
				<defs>
					
						<filter id="Adobe_OpacityMaskFilter_00000074437394927256156230000005947256187799173275_" filterUnits="userSpaceOnUse" x="2664.552" y="398.546" width="61.243" height="12.382">
						<feFlood  style="flood-color:white;flood-opacity:1" result="back"/>
						<feBlend  in="SourceGraphic" in2="back" mode="normal"/>
					</filter>
				</defs>
				
					<mask maskUnits="userSpaceOnUse" x="2664.552" y="398.546" width="61.243" height="12.382" id="SVGID_00000181077314805070562130000011091292807512070042_">
					<g style="filter:url(#Adobe_OpacityMaskFilter_00000074437394927256156230000005947256187799173275_);">
					</g>
				</mask>
				
					<linearGradient id="SVGID_00000063608000617232576180000011721440171587592381_" gradientUnits="userSpaceOnUse" x1="2773.0908" y1="212.0183" x2="2678.6694" y2="445.5574">
					<stop  offset="0" style="stop-color:#FFFFFF"/>
					<stop  offset="1" style="stop-color:#000000"/>
				</linearGradient>
				
					<polygon style="mask:url(#SVGID_00000181077314805070562130000011091292807512070042_);fill:url(#SVGID_00000063608000617232576180000011721440171587592381_);" points="
					2664.552,410.928 2725.795,410.928 2725.795,398.546 2664.552,398.546 				"/>
			</g>
		</mask>
		
			<linearGradient id="SVGID_00000148646148015057547360000013842479656113092514_" gradientUnits="userSpaceOnUse" x1="2773.0908" y1="212.0183" x2="2678.6694" y2="445.5574">
			<stop  offset="0" style="stop-color:#40D5E6"/>
			<stop  offset="1" style="stop-color:#5577FF"/>
		</linearGradient>
		<polygon style="fill:url(#SVGID_00000148646148015057547360000013842479656113092514_);" points="2664.552,410.928 
			2725.795,410.928 2725.795,398.546 2664.552,398.546 		"/>
		<defs>
			
				<filter id="Adobe_OpacityMaskFilter_00000183933199210825265620000014128384843297831847_" filterUnits="userSpaceOnUse" x="2834.177" y="298.157" width="4.572" height="85.721">
				<feFlood  style="flood-color:white;flood-opacity:1" result="back"/>
				<feBlend  in="SourceGraphic" in2="back" mode="normal"/>
			</filter>
		</defs>
		
			<mask maskUnits="userSpaceOnUse" x="2834.177" y="298.157" width="4.572" height="85.721" id="SVGID_00000155137922885835538140000012784462851126743211_">
			<g style="filter:url(#Adobe_OpacityMaskFilter_00000183933199210825265620000014128384843297831847_);">
				<defs>
					
						<filter id="Adobe_OpacityMaskFilter_00000116944851099759200320000010075036989223682982_" filterUnits="userSpaceOnUse" x="2834.177" y="298.157" width="4.572" height="85.721">
						<feFlood  style="flood-color:white;flood-opacity:1" result="back"/>
						<feBlend  in="SourceGraphic" in2="back" mode="normal"/>
					</filter>
				</defs>
				
					<mask maskUnits="userSpaceOnUse" x="2834.177" y="298.157" width="4.572" height="85.721" id="SVGID_00000155137922885835538140000012784462851126743211_">
					<g style="filter:url(#Adobe_OpacityMaskFilter_00000116944851099759200320000010075036989223682982_);">
					</g>
				</mask>
				
					<linearGradient id="SVGID_00000093140049176281276870000016732267887220721566_" gradientUnits="userSpaceOnUse" x1="2872.3865" y1="252.1652" x2="2777.9653" y2="485.7036">
					<stop  offset="0" style="stop-color:#FFFFFF"/>
					<stop  offset="1" style="stop-color:#000000"/>
				</linearGradient>
				
					<polygon style="mask:url(#SVGID_00000155137922885835538140000012784462851126743211_);fill:url(#SVGID_00000093140049176281276870000016732267887220721566_);" points="
					2834.177,298.157 2838.749,298.157 2838.749,383.878 2834.177,383.878 				"/>
			</g>
		</mask>
		
			<linearGradient id="SVGID_00000135689448345813490130000013380104300059202951_" gradientUnits="userSpaceOnUse" x1="2872.3865" y1="252.1652" x2="2777.9653" y2="485.7036">
			<stop  offset="0" style="stop-color:#40D5E6"/>
			<stop  offset="1" style="stop-color:#5577FF"/>
		</linearGradient>
		<polygon style="fill:url(#SVGID_00000135689448345813490130000013380104300059202951_);" points="2834.177,298.157 
			2838.749,298.157 2838.749,383.878 2834.177,383.878 		"/>
	</g>
	<g>
		<g>
			<rect x="622.267" y="1390.957" style="fill:#E2D2CA;" width="151.169" height="8.974"/>
		</g>
		<g>
			
				<rect x="642.526" y="1423.284" transform="matrix(-1 -1.224647e-16 1.224647e-16 -1 1298.2987 3254.6689)" style="fill:#706865;" width="13.246" height="408.101"/>
		</g>
		<g>
			<rect x="749.776" y="1388.413" style="fill:#CCBDB7;" width="105.076" height="12.815"/>
		</g>
		<g>
			<rect x="782.419" y="1279.074" style="fill:#998E89;" width="39.791" height="120.856"/>
		</g>
		<g>
			<rect x="568.039" y="1400.081" style="fill:#B59074;" width="582.19" height="23.203"/>
		</g>
		<g>
			<path style="fill:#DBDFF0;" d="M456.304,1259.635c0,0-6.368,89.295,11.08,99.982c10.93,6.693,54.509,29.275,53.216,33.51
				c-1.292,4.233-24.607,37.676-24.607,37.676s-83.707-55.124-86.406-72.495c-2.637-16.972,4.121-130.746,15.625-135.986
				c8.617-3.926,13.167-0.679,24.027,7.385C464.48,1241.021,456.304,1259.635,456.304,1259.635z"/>
		</g>
		<g>
			<g>
				<g>
					<path style="fill:#424773;" d="M559.293,1775.664c0,0-2.602,18.067-2.928,20.781c-0.325,2.714-28.957-1.599-28.957-1.599
						l-2.318-21.51C525.09,1773.337,555.714,1773.115,559.293,1775.664z"/>
				</g>
			</g>
		</g>
		<g>
			<g>
				<g>
					<path style="fill:#292C47;" d="M556.67,1794.148c0,0,9.071,10.887,17.845,15.633c8.774,4.744,22.562,6.625,27.75,11.537
						c3.745,3.545,13.641,18.811-22.799,18.502c-36.44-0.308-54.01,2.157-57.914-3.696c-3.904-5.853,5.649-43.2,5.649-43.2
						S535.831,1796.03,556.67,1794.148z"/>
				</g>
			</g>
		</g>
		<g>
			<g>
				<g>
					<path style="fill:#424773;" d="M742.73,1775.835c0,0-2.602,18.067-2.928,20.782c-0.325,2.714-28.957-1.599-28.957-1.599
						l-2.318-21.511C708.527,1773.508,739.151,1773.286,742.73,1775.835z"/>
				</g>
			</g>
		</g>
		<g>
			<g>
				<g>
					<path style="fill:#292C47;" d="M740.107,1794.319c0,0,9.071,10.888,17.845,15.633c8.774,4.745,41.062,8.644,46.249,13.555
						c3.745,3.546,9.974,17.82-41.299,16.485c-36.427-0.948-54.009,2.156-57.913-3.697c-3.904-5.853,5.649-43.199,5.649-43.199
						S718.769,1796.412,740.107,1794.319z"/>
				</g>
			</g>
		</g>
		<g>
			<g>
				<g>
					<path style="fill:#292C47;" d="M466.946,1463.563c0,0,104.092,17.613,127.603,21.306
						c23.511,3.691,150.986,35.412,166.929,45.078c12.69,7.693-6.656,192.478-11.175,262.977h-50.21l-3.641-211.477
						c-60.252,1.506-103.248-14.095-147.123-7.432c-43.876,6.665-80.455,16.137-108.336-21.262
						C440.993,1552.754,439.959,1471.731,466.946,1463.563z"/>
				</g>
			</g>
		</g>
		<g>
			<g>
				<g>
					<path style="fill:#292C47;" d="M569.546,1793.096l-48.932-3.025l-4.768-208.623c-25.939,0.646-34.83-0.997-55.82-3.543
						l-39.507-91.83c34.623,6.922,145.555,34.901,160.347,43.871C593.556,1537.644,574.064,1722.593,569.546,1793.096z"/>
				</g>
			</g>
		</g>
		<g>
			<g>
				<g>
					<path style="fill:#EEA886;" d="M514.863,1073.386c0,0,38.158-10.545,52.717,19.077c14.558,29.621,7.958,85.778-11.273,91.062
						c-19.231,5.282-46.887-0.801-54.87-19.237c-7.984-18.437-14.352-44.635-12.441-61.6
						C490.906,1085.724,504.73,1077.44,514.863,1073.386z"/>
				</g>
			</g>
		</g>
		<g>
			<g>
				<g>
					<path style="fill:#EEA886;" d="M546.335,1177.613c0,0-0.419,22.527,2.065,27.33c2.484,4.802-53.134,3.597-53.134,3.597
						s8.766-27.052,3.793-50.1C494.137,1135.629,546.335,1177.613,546.335,1177.613z"/>
				</g>
			</g>
		</g>
		<g>
			<g>
				<g>
					<path style="fill:#3A3F47;" d="M496.061,1149.91c0,0,2.974,6.046,17.37,5.069c14.397-0.976,33.384-18.343,39.495-19.896
						c6.112-1.552,6.476-5.03,6.476-5.03l3.234,5.749l6.263,0.954c0,0-4.256-17.407,5.016-23.536
						c9.273-6.129-4.176-55.493-51.118-43.587c0,0-35.827,6.562-36.308,26.566C486.009,1116.205,489.107,1139.314,496.061,1149.91z"
						/>
				</g>
			</g>
		</g>
		<g>
			<g>
				<g>
					<path style="fill:#E2D2CA;" d="M551.324,1204.365c0,0-0.156-9.177-4.315-10.057c-4.159-0.88-43.72-6.321-48.824-4.314
						l-2.191,12.117C495.993,1202.111,505.83,1208.165,551.324,1204.365z"/>
				</g>
			</g>
		</g>
		<g>
			<g>
				<g>
					<path style="fill:#EEA886;" d="M562.771,1125.951c-1.067-7.521-9.619-16.159-14.516-4.444
						c-4.897,11.714,3.306,28.773,8.8,27.858C562.549,1148.451,564.22,1136.156,562.771,1125.951z"/>
				</g>
			</g>
		</g>
		<g>
			<g>
				<g>
					<path style="fill:#323657;" d="M717.022,1312.783c-0.019-0.009-0.041-0.012-0.068-0.006
						C717.24,1312.902,717.281,1312.914,717.022,1312.783z"/>
				</g>
			</g>
		</g>
		<g>
			<g>
				<g>
					<path style="fill:#3A3F47;" d="M503.732,1078.757c0,0-46.524-2.189-8.12,70.44L503.732,1078.757z"/>
				</g>
			</g>
		</g>
		<g>
			<g>
				<polygon style="fill:#918783;" points="400.071,1817.843 403.532,1827.578 549.768,1782.268 542.76,1762.553 				"/>
			</g>
		</g>
		<g>
			<g>
				<rect x="538.163" y="1616.343" style="fill:#918783;" width="16.621" height="158.989"/>
			</g>
		</g>
		<g>
			<g>
				<rect x="497.456" y="1607.895" style="fill:#5E5854;" width="98.034" height="9.369"/>
			</g>
		</g>
		<g>
			<g>
				<polygon style="fill:#918783;" points="694.161,1817.843 690.7,1827.578 544.464,1782.268 550.891,1761.314 				"/>
			</g>
		</g>
		<g>
			<g>
				<polygon style="fill:#918783;" points="591.128,1826.537 591.128,1837.861 544.464,1782.268 550.891,1761.314 				"/>
			</g>
		</g>
		<g>
			<g>
				<path style="fill:#BFB2AC;" d="M707.827,1831.385c0,7.547-6.118,13.666-13.666,13.666c-7.548,0-13.666-6.119-13.666-13.666
					c0-7.549,6.118-13.667,13.666-13.667C701.709,1817.718,707.827,1823.836,707.827,1831.385z"/>
			</g>
		</g>
		<g>
			<g>
				<path style="fill:#BFB2AC;" d="M592.289,1831.385c0,7.547-6.118,13.666-13.667,13.666c-7.547,0-13.666-6.119-13.666-13.666
					c0-7.549,6.119-13.667,13.666-13.667C586.171,1817.718,592.289,1823.836,592.289,1831.385z"/>
			</g>
		</g>
		<g>
			<g>
				<path style="fill:#BFB2AC;" d="M413.737,1831.385c0,7.547-6.118,13.666-13.666,13.666c-7.548,0-13.667-6.119-13.667-13.666
					c0-7.549,6.119-13.667,13.667-13.667C407.619,1817.718,413.737,1823.836,413.737,1831.385z"/>
			</g>
		</g>
		<g>
			<path style="fill:#E2D2CA;" d="M648.872,1607.895H445.359c-7.935,0-14.367-6.432-14.367-14.367v-6.752
				c0-7.934,6.433-14.367,14.367-14.367h203.513c7.936,0,14.367,6.434,14.367,14.367v6.752
				C663.239,1601.463,656.808,1607.895,648.872,1607.895z"/>
		</g>
		<g>
			<rect x="1062.495" y="1423.284" style="fill:#706865;" width="13.246" height="408.101"/>
		</g>
		<g>
			<path style="fill:#B8ABA5;" d="M959.776,1337.292H644.852c-7.915,0-14.332-6.417-14.332-14.332v-213.719
				c0-7.916,6.417-14.333,14.332-14.333h314.924c7.915,0,14.332,6.417,14.332,14.333v213.719
				C974.108,1330.875,967.691,1337.292,959.776,1337.292z"/>
		</g>
		<g>
			<rect x="643.977" y="1108.01" style="fill:#F5F7FF;" width="316.676" height="191.299"/>
		</g>
		<g>
			<path style="fill:#918681;" d="M946.58,1317.354c0,5.438-5.714,9.849-12.764,9.849c-7.049,0-12.764-4.41-12.764-9.849
				s5.715-9.848,12.764-9.848C940.866,1307.507,946.58,1311.916,946.58,1317.354z"/>
		</g>
		<g>
			<path style="fill:#998E89;" d="M873.443,1400.391v-4.313c0,0-6.063-26.828-48.956-26.828c-42.892,0-42.023,31.142-42.023,31.142
				H873.443z"/>
		</g>
		<g>
			<g>
				<path style="fill:#EEA886;" d="M781.943,1373.235c0,0,9.318-0.724,12.732-2.784c3.413-2.061,23.837-15.797,28.636-13.598
					c4.798,2.199,36.725,11.979,35.615,16.648c-1.107,4.669-4.063,4.219-6.314,3.393c-2.252-0.826-25.436-5.691-27.482-4.873
					c0,0,22.771,8.309,22.863,14.369c0.092,6.062-4.766,7.54-6.925,9.831c-2.16,2.292-4.752,7.984-10.621,8.422
					c-5.868,0.437-34.503-9.528-40.397-9.981c-5.896-0.455-16.806,0.364-17.547-0.596
					C771.763,1393.107,781.943,1373.235,781.943,1373.235z"/>
			</g>
		</g>
		<g>
			<g>
				<g>
					<path style="fill:#DBDFF0;" d="M612.305,1217.082c-29.709-5.221-60.982-12.718-60.982-12.718l-55.331-2.255
						c0,0-50.781,11.179-70.78,20.212c-1.898,0.856-1.906,45.303-7.112,56.958l16.581,34.981c0,0,9.579,69.292,11.565,100.11
						c0.913,14.146-2.579,136.726-2.579,136.726s4.97,2.453,42.733,6.616c37.763,4.162,132.117-1.506,132.711-5.965
						c0.597-4.462-18.273-166.081-19.107-174.451c-1.282-12.846,3.71-72.203,3.71-72.203c7.115,9.557,25.254,52.718,44.16,73.252
						c11.123,12.081,66.19,19.487,76.57,19.833c22.595,0.753,63.815,5.252,65.02,3.056c0.962-1.319,3.592-36.589,1.007-37.449
						c-2.262-0.756-78.803-5.161-98.412-15.565c-7.174-3.807-28.62-50.571-28.62-50.571S628.694,1224.448,612.305,1217.082z"/>
				</g>
			</g>
		</g>
		<g>
			<path style="fill:#E2D2CA;" d="M509.314,1547.555H404.324c-15.235,0-27.587-12.352-27.587-27.586v-166.652
				c0-15.235,12.352-27.586,27.587-27.586h104.989c15.235,0,27.586,12.351,27.586,27.586v166.652
				C536.899,1535.203,524.549,1547.555,509.314,1547.555z"/>
		</g>
		<g>
			<path style="fill:#E2D2CA;" d="M508.518,1599.063c-23.608,0-42.762-7.93-56.929-23.571
				c-32.017-35.348-26.264-97.486-26.003-100.114c0.486-4.897,4.857-8.478,9.746-7.988c4.895,0.485,8.472,4.846,7.989,9.74
				c-0.068,0.709-5.17,57.033,21.512,86.437c10.792,11.894,25.082,17.675,43.684,17.675c4.921,0,8.911,3.99,8.911,8.912
				C517.43,1595.073,513.439,1599.063,508.518,1599.063z"/>
		</g>
		<g>
			<g>
				<g>
					<path style="fill:#DFE1E8;" d="M757.136,1133.354h-88.653c-1.134,0-2.054-0.92-2.054-2.055v-5.998
						c0-1.135,0.92-2.054,2.054-2.054h88.653c1.135,0,2.055,0.919,2.055,2.054v5.998
						C759.19,1132.434,758.271,1133.354,757.136,1133.354z"/>
				</g>
			</g>
		</g>
		<g>
			<g>
				<g>
					<path style="fill:#DFE1E8;" d="M757.136,1155.031h-88.653c-1.134,0-2.054-0.919-2.054-2.054v-5.998
						c0-1.135,0.92-2.055,2.054-2.055h88.653c1.135,0,2.055,0.92,2.055,2.055v5.998
						C759.19,1154.112,758.271,1155.031,757.136,1155.031z"/>
				</g>
			</g>
		</g>
		<g>
			<g>
				<g>
					<path style="fill:#DFE1E8;" d="M752.282,1284.071h-78.945c-3.815,0-6.908-3.093-6.908-6.909v-100.467
						c0-3.814,3.093-6.908,6.908-6.908h78.945c3.815,0,6.908,3.094,6.908,6.908v100.467
						C759.19,1280.979,756.098,1284.071,752.282,1284.071z"/>
				</g>
			</g>
		</g>
		<g>
			<g>
				<g>
					<path style="fill:#DFE1E8;" d="M932.174,1284.071H788.855c-6.04,0-10.938-4.896-10.938-10.937v-138.951
						c0-6.04,4.898-10.937,10.938-10.937h143.318c6.04,0,10.936,4.896,10.936,10.937v138.951
						C943.11,1279.175,938.214,1284.071,932.174,1284.071z"/>
				</g>
			</g>
		</g>
	</g>
	<g>
		<g>
			<g>
				<path style="fill:#8E4F3A;" d="M1621.383,1200.325c0,0-6.559-14.184-7.628-16.318s-7.337-5.526-14.785-7.403
					c-7.234-1.822-17.076-5.475-18.201-4.773c-1.124,0.701-2.438,0.801-3.777,3.925c-1.338,3.125-0.752,6.502-0.752,6.502
					s-3.461,3.076-2.424,7.184c0,0-3.122,3.043-1.183,7.516c0,0-2.97,3.054-1.284,6.184c0,0,5.81,3.297,7.606,5.138
					c1.797,1.842,14.349,7.871,27.277,11.801C1606.232,1220.078,1619.702,1219.658,1621.383,1200.325z"/>
			</g>
		</g>
		<g>
			<g>
				<path style="fill:#8E4F3A;" d="M1606.232,1220.078c0,0,16.037,2.799,21.475-0.332c5.436-3.131-0.893-19.467-0.893-19.467
					l-10.153-6.137L1606.232,1220.078z"/>
			</g>
		</g>
		<g>
			<g>
				<path style="fill:#5E3527;" d="M1600.279,1193.452c0,0,0.245,7.846,1.429,10.014s-14.793,5.546-14.793,5.546
					S1590.75,1194.005,1600.279,1193.452z"/>
			</g>
		</g>
		<g>
			<g>
				<path style="fill:#7A4432;" d="M1582.781,1172.51c0,0,17.515,8.508,16.493,11.498s-3.211,3.47-3.211,3.47l5.621,6.772
					c0,0,1.191,6.585-6.33,5.958c0,0,1.749,6.034-5.441,4.563c0,0-0.622,4.497-4.072,4.403s-14.493-6.034-14.493-6.034
					s-2.141-2.356,0.912-6.237c0,0-2.029-4.329,1.267-7.67c0,0-1.006-5.322,2.587-8.898c0,0-0.365-6.031,4.802-8.59
					C1580.916,1171.744,1582.046,1172.146,1582.781,1172.51z"/>
			</g>
		</g>
		<g>
			<g>
				<path style="fill:#8E4F3A;" d="M1613.234,1183.681c0,0-13.36,0.284-20.587,3.644c-1.634,0.76-3.079,1.794-2.99,3.599
					c0.09,1.804,2.816,3.965,8.609,4.138c5.794,0.172,13.203,3.045,13.203,3.045S1617.478,1196.538,1613.234,1183.681z"/>
			</g>
		</g>
		<g>
			<path style="fill:#8E4F3A;" d="M1576.114,1180.334c0,0,19.996,6.842,21.358,8.495s3.929-5.645,2.667-6.977
				c-1.262-1.332-16.823-9.632-18.54-10.091C1579.883,1171.303,1574.007,1175.316,1576.114,1180.334z"/>
		</g>
		<g>
			<path style="fill:#8E4F3A;" d="M1585.322,1172.596c0,0-31.137-6.379-31.771-2.585s2.38,4.433,27.897,11.877
				C1606.259,1189.127,1585.322,1172.596,1585.322,1172.596z"/>
		</g>
		<g>
			<path style="fill:#353A3D;" d="M1799.294,1811.218c0,0-9.924,14.847-23.843,18.054c-13.919,3.207-27.63,8.309-27.734,17.092
				c-0.104,8.785,40.243,14.024,56.173,5.168c23.774-13.216,26.19-9.232,28.825-15.838c2.636-6.607-3.166-24.273-2.994-26.373
				C1829.933,1806.723,1799.294,1811.218,1799.294,1811.218z"/>
		</g>
		<g>
			<path style="fill:#81807E;" d="M1800.836,1803.894c0,0-1.811,7.173-1.542,7.324c0.27,0.151,31.367,3.856,30.427-1.897
				c-0.763-4.668-1.852-9.74-1.852-9.74L1800.836,1803.894z"/>
		</g>
		<g>
			<path style="fill:#353A3D;" d="M1903.95,1810.232c0,0-7.078,14.201-19.172,19.039c-12.927,5.171-23.294,11.113-23.059,19.672
				c0.236,8.56,31.602,17.233,54.422,0.807c14.417-10.378,18.986-10.428,21.299-16.964c2.313-6.536-4.016-23.518-3.93-25.571
				C1933.617,1804.679,1903.95,1810.232,1903.95,1810.232z"/>
		</g>
		<g>
			<path style="fill:#81807E;" d="M1903.598,1802.857c0,0,0.085,7.238,0.353,7.375c0.268,0.139,30.324,2.615,29.561-3.018
				c-0.607-4.473-2.916-9.876-2.916-9.876L1903.598,1802.857z"/>
		</g>
		<g>
			<path style="fill:#2D3133;" d="M1793.396,1369.035c0,0-27.924,123.169-34.301,160.688c-5.429,31.932-9.756,65.183-7.154,88.234
				c3.22,28.54,43.62,176.451,41.932,184.818c-1.689,8.368,48.165,3.279,48.165,3.279s-36.616-166.93-30.479-197.636
				c4.546-22.743,44.376-173.827,50.48-166.077s13.674,142.587,18.194,164.97c4.521,22.382,18.398,199.24,18.398,199.24
				s31.03,4.579,39.318-2.437c0,0,3.772-151.014,0.893-192.979c-1.099-15.992,18.737-191.752-6.697-262.51
				C1918.703,1311.232,1793.396,1369.035,1793.396,1369.035z"/>
		</g>
		<g>
			<path style="fill:#DBDFF0;" d="M1611.037,1226.149c0,0,96.735,21.448,115.984,16.712c8.898-2.188,20.619-14.472,31.757-28.913
				c3.672-4.756,7.272-9.747,10.698-14.688c0.011-0.011,0.011-0.021,0.011-0.021c13.664-19.729,24.373-38.641,24.373-38.641
				s40.39-47.334,7.979-68.435c0,0-11.763-4.408-22.563,7.17c-10.812,11.577-23.493,35.798-26.327,41.975
				c-2.832,6.168-42.506,63.392-44.562,64.681c-2.057,1.289-19.392-3.272-33.292-4.429c-22.664-1.892-56.628-10.717-56.628-10.717
				L1611.037,1226.149z"/>
		</g>
		<path style="fill:#BCC0CF;" d="M1832.155,1081.605c0,0-41.58,8.599-46.513,12.968c-5.356,4.651-14.802,50.191-15.366,62.876
			c-0.563,12.686,5.013,65.677,10.369,85.409c5.355,19.732,4.371,116.925,0.988,144.269c0,0,83.719,23.778,166.033,13.066
			c0,0-13.8-102.253-10.505-129.293c4.222-34.64,14.377-114.451,14.377-114.451s-7.287-55.594-14.616-61.795
			c-7.33-6.202-57.832-13.049-57.832-13.049H1832.155z"/>
		<path style="fill:#8E4F3A;" d="M1849.345,953.039c0,0-50.016-18.507-46.89,47.959c3.127,66.467,14.848,73.221,47.749,63.938
			c32.901-9.281,35.658-51.231,39.943-71.411C1894.432,973.345,1865.7,955.94,1849.345,953.039z"/>
		<path style="fill:#8E4F3A;" d="M1825.613,1090.604c0,0,10.293,6.808,49.32-10.386c0,0-1.104-26.756,6.553-51.746
			c7.656-24.992-52.372,33.32-52.372,33.32c0.63,0.445,0.75,2.942,0.391,6.426c-0.304,2.954-0.951,6.613-1.926,10.328
			C1825.387,1086.902,1825.613,1083.312,1825.613,1090.604z"/>
		<path style="fill:#2D3133;" d="M1883.195,1026.489c0,0,0.142-17.755-7.241-19.389c-7.384-1.634-8.357-7.539-8.357-7.539
			l-4.236,0.982c0,0,0.776-3.126-6.264-7.251s-49.15-0.501-54.434-6.559c-5.285-6.058,2.379-42.036,13.867-45.567
			c11.489-3.531,38.179-3.207,62.561,3.642c0,0,18.512,4.669,19.913,26.46C1899.911,985.374,1889.203,1016.862,1883.195,1026.489z"
			/>
		<path style="fill:#633029;" d="M1827.579,1078.547c38.768-6.517,44.562-28.564,44.648-28.908
			c-15.07,19.435-42.723,18.58-42.723,18.58C1829.201,1071.173,1828.554,1074.832,1827.579,1078.547z"/>
		<path style="fill:#434343;" d="M1829.288,1099.334c0,0-7.06,10.415-11.32,37.148c-4.262,26.732-3.539,72.787-3.539,72.787
			l9.817,1.194c0,0,14.858-93.926,12.302-110.291L1829.288,1099.334z"/>
		<path style="fill:#8E4F3A;" d="M1867.597,999.562c2.209-5.857,14.684-5.119,13.406,4.167
			c-1.277,9.285-11.588,23.586-15.728,20.904S1864.55,1007.639,1867.597,999.562z"/>
		<path style="fill:#DBDFF0;" d="M1785.108,1094.529c0,0-23.624,31.256-14.871,113.036
			c15.815,147.778-25.603,385.002-25.603,385.002l42.729,13.372c0,0,40.831-303.256,30.434-413.313
			c-4.738-50.155-18.802-66.843,3.384-108.626C1821.181,1084,1799.576,1085.094,1785.108,1094.529z"/>
		<path style="fill:#DBDFF0;" d="M1890.577,1083.312c0,0-67.63,68.315-72.927,120.104c-5.296,51.789-13.924,402.523-13.924,402.523
			l161.01-9.376c0,0-14.799-185.146-18.41-208.307c-3.611-23.161-11.084-156.145,5.213-217.853
			c8.755-33.15-1.661-75.209-21.663-79.8C1909.875,1086.015,1890.577,1083.312,1890.577,1083.312z"/>
		<path style="fill:#DBDFF0;" d="M1913.434,1092.162c0,0-26.047,7.172-11.717,54.979c11.225,37.444,12.74,45.485,12.74,45.485
			l60.102-15.013c0,0-17.623-82.25-46.381-86.671C1928.18,1090.942,1919.023,1089.638,1913.434,1092.162z"/>
		<polygon style="fill:#616161;" points="1716.403,1345.184 1834.21,1467.098 1912.458,1391.485 1797.709,1266.616 		"/>
		<polygon style="fill:#E0CEC7;" points="1727.54,1347.608 1832.168,1455.883 1901.663,1388.729 1799.75,1277.831 		"/>
		<polygon style="fill:#616161;" points="1751.649,1329.515 1744.306,1321.915 1772.4,1294.766 1780.843,1301.306 		"/>
		<path style="fill:#A7AAB8;" d="M1874.92,1072.822c0,0-20.401,12.306-40.589,15.078l10.739,17.131l34.021-23.426L1874.92,1072.822z
			"/>
		<path style="fill:#A7AAB8;" d="M1827.579,1078.547c0,0,2.15,7.053,6.752,9.354l-10.085,14.063l0.369-18.651L1827.579,1078.547z"/>
		<path style="fill:#434343;" d="M1834.331,1087.9l-7.986,11.135c0,0,5.053,6.393,15.938,1.549L1834.331,1087.9z"/>
		<path style="fill:#A7AAB8;" d="M1758.778,1213.938v0.011c3.672-4.756,7.272-9.747,10.698-14.688
			c0.011-0.011,0.011-0.021,0.011-0.021s-1.289-36.032-0.163-46.384C1769.324,1152.856,1757.551,1191.672,1758.778,1213.938z"/>
		<path style="fill:#A7AAB8;" d="M1924.743,1190.057c0,0,7.854,51.101,7.303,54.377
			C1931.496,1247.71,1967.596,1234.17,1924.743,1190.057z"/>
		
			<rect x="1782.907" y="1171.768" transform="matrix(-1 -1.224647e-16 1.224647e-16 -1 3584.7949 2372.5146)" style="fill:#C6CAD9;" width="18.98" height="28.979"/>
		<path style="fill:#8E4F3A;" d="M1867.273,1310.699c0,0-1.737,3.438-4.624,4.597c-4.985,2.002-12.959-1.173-16.045,5.961
			c-3.085,7.136,16.803,23.894,21.789,24.764c4.986,0.871,12.047-7.288,16.651-23.024
			C1889.649,1307.261,1867.273,1310.699,1867.273,1310.699z"/>
		<path style="fill:#8E4F3A;" d="M1847.991,1319.017c0,0-8.563,7.653-17.027,17.386c-7.424,8.538-14.572,20.007-13.294,22.171
			c2.842,4.811,9.747-5.934,17.687-13.88c7.31-7.317,6.101-6.036,6.101-6.036s0.012-0.78-6.37,8.813
			c-6.862,10.313-12.84,21.622-11.217,24.135c0.79,1.222,3.986,4.213,5.517-0.718c-1.371,2.306-1.614,1.739-0.696,2.439
			c4.744,3.62,17.215-9.871,22.166-15.229c-3.777,4.142-6.098,7.604-1.818,7.955c4.896,0.402,21.651-19.505,28.35-26.03
			C1884.693,1332.906,1847.991,1319.017,1847.991,1319.017z"/>
		<path style="fill:#DBDFF0;" d="M1910.32,1095.363c-5.452,2.111-7.516,11.789-5.275,39.838
			c2.24,28.048,12.114,40.951,15.798,47.438c3.683,6.487,23.944,46.48,20.303,51.741c-3.642,5.262-38.038,39.197-40.029,41.96
			c-1.99,2.764-40.395,37.526-40.395,37.526l19.553,27.322c0,0,82.927-64.775,89.396-71.241
			c6.471-6.467,25.809-20.055,18.656-42.646c-7.269-22.962-20.336-76.715-22.656-80.918
			C1963.35,1142.184,1946.37,1081.405,1910.32,1095.363z"/>
	</g>
	<defs>
		
			<filter id="Adobe_OpacityMaskFilter_00000090988494867891367220000009247648618610979759_" filterUnits="userSpaceOnUse" x="1866.107" y="686.951" width="79.604" height="38.692">
			<feFlood  style="flood-color:white;flood-opacity:1" result="back"/>
			<feBlend  in="SourceGraphic" in2="back" mode="normal"/>
		</filter>
	</defs>
	
		<mask maskUnits="userSpaceOnUse" x="1866.107" y="686.951" width="79.604" height="38.692" id="SVGID_00000148624883867305752080000001809932092366778534_">
		<g style="filter:url(#Adobe_OpacityMaskFilter_00000090988494867891367220000009247648618610979759_);">
			<defs>
				
					<filter id="Adobe_OpacityMaskFilter_00000083085999103285027070000000039621245711652794_" filterUnits="userSpaceOnUse" x="1866.107" y="686.951" width="79.604" height="38.692">
					<feFlood  style="flood-color:white;flood-opacity:1" result="back"/>
					<feBlend  in="SourceGraphic" in2="back" mode="normal"/>
				</filter>
			</defs>
			
				<mask maskUnits="userSpaceOnUse" x="1866.107" y="686.951" width="79.604" height="38.692" id="SVGID_00000148624883867305752080000001809932092366778534_">
				<g style="filter:url(#Adobe_OpacityMaskFilter_00000083085999103285027070000000039621245711652794_);">
				</g>
			</mask>
			
				<linearGradient id="SVGID_00000073712380033554552080000012558855957818159239_" gradientUnits="userSpaceOnUse" x1="1901.9928" y1="516.988" x2="1908.6974" y2="841.032">
				<stop  offset="0" style="stop-color:#FFFFFF"/>
				<stop  offset="1" style="stop-color:#000000"/>
			</linearGradient>
			
				<polygon style="mask:url(#SVGID_00000148624883867305752080000001809932092366778534_);fill:url(#SVGID_00000073712380033554552080000012558855957818159239_);" points="
				1884.763,725.644 1945.712,725.644 1927.057,686.951 1866.107,686.951 			"/>
		</g>
	</mask>
	
		<linearGradient id="SVGID_00000109000435247814319940000007551381907813615491_" gradientUnits="userSpaceOnUse" x1="1901.9928" y1="516.988" x2="1908.6974" y2="841.032">
		<stop  offset="0" style="stop-color:#40D5E6"/>
		<stop  offset="1" style="stop-color:#5577FF"/>
	</linearGradient>
	<polygon style="fill:url(#SVGID_00000109000435247814319940000007551381907813615491_);" points="1884.763,725.644 
		1945.712,725.644 1927.057,686.951 1866.107,686.951 	"/>
	<defs>
		
			<filter id="Adobe_OpacityMaskFilter_00000025436032719699387560000003874734659166197900_" filterUnits="userSpaceOnUse" x="1837.588" y="686.951" width="33.179" height="38.692">
			<feFlood  style="flood-color:white;flood-opacity:1" result="back"/>
			<feBlend  in="SourceGraphic" in2="back" mode="normal"/>
		</filter>
	</defs>
	
		<mask maskUnits="userSpaceOnUse" x="1837.588" y="686.951" width="33.179" height="38.692" id="SVGID_00000160884923510786220940000004541758088230661784_">
		<g style="filter:url(#Adobe_OpacityMaskFilter_00000025436032719699387560000003874734659166197900_);">
			<defs>
				
					<filter id="Adobe_OpacityMaskFilter_00000020394911891401027850000004369123071528726943_" filterUnits="userSpaceOnUse" x="1837.588" y="686.951" width="33.179" height="38.692">
					<feFlood  style="flood-color:white;flood-opacity:1" result="back"/>
					<feBlend  in="SourceGraphic" in2="back" mode="normal"/>
				</filter>
			</defs>
			
				<mask maskUnits="userSpaceOnUse" x="1837.588" y="686.951" width="33.179" height="38.692" id="SVGID_00000160884923510786220940000004541758088230661784_">
				<g style="filter:url(#Adobe_OpacityMaskFilter_00000020394911891401027850000004369123071528726943_);">
				</g>
			</mask>
			
				<linearGradient id="SVGID_00000039823468812686599310000001441681344218293168_" gradientUnits="userSpaceOnUse" x1="1850.2825" y1="518.0579" x2="1856.9871" y2="842.1015">
				<stop  offset="0" style="stop-color:#FFFFFF"/>
				<stop  offset="1" style="stop-color:#000000"/>
			</linearGradient>
			
				<polygon style="mask:url(#SVGID_00000160884923510786220940000004541758088230661784_);fill:url(#SVGID_00000039823468812686599310000001441681344218293168_);" points="
				1856.243,725.644 1870.767,725.644 1852.111,686.951 1837.588,686.951 			"/>
		</g>
	</mask>
	
		<linearGradient id="SVGID_00000060731494043365973710000015509153367002137732_" gradientUnits="userSpaceOnUse" x1="1850.2825" y1="518.0579" x2="1856.9871" y2="842.1015">
		<stop  offset="0" style="stop-color:#40D5E6"/>
		<stop  offset="1" style="stop-color:#5577FF"/>
	</linearGradient>
	<polygon style="fill:url(#SVGID_00000060731494043365973710000015509153367002137732_);" points="1856.243,725.644 
		1870.767,725.644 1852.111,686.951 1837.588,686.951 	"/>
</g>
</svg>
